<?xml version="1.0" encoding="utf-8"?>
<svg xmlns="http://www.w3.org/2000/svg" xmlns:xlink="http://www.w3.org/1999/xlink" width="600" height="400" viewBox="0 0 2400 1600">
<defs>
  <clipPath id="clip230">
    <rect x="0" y="0" width="2400" height="1600"/>
  </clipPath>
</defs>
<path clip-path="url(#clip230)" d="M0 1600 L2400 1600 L2400 0 L0 0  Z" fill="#ffffff" fill-rule="evenodd" fill-opacity="1"/>
<defs>
  <clipPath id="clip231">
    <rect x="480" y="0" width="1681" height="1600"/>
  </clipPath>
</defs>
<path clip-path="url(#clip230)" d="M224.098 1486.45 L2352.76 1486.45 L2352.76 47.2441 L224.098 47.2441  Z" fill="#ffffff" fill-rule="evenodd" fill-opacity="1"/>
<defs>
  <clipPath id="clip232">
    <rect x="224" y="47" width="2130" height="1440"/>
  </clipPath>
</defs>
<polyline clip-path="url(#clip232)" style="stroke:#000000; stroke-linecap:round; stroke-linejoin:round; stroke-width:2; stroke-opacity:0.1; fill:none" points="224.098,1486.45 224.098,47.2441 "/>
<polyline clip-path="url(#clip232)" style="stroke:#000000; stroke-linecap:round; stroke-linejoin:round; stroke-width:2; stroke-opacity:0.1; fill:none" points="756.262,1486.45 756.262,47.2441 "/>
<polyline clip-path="url(#clip232)" style="stroke:#000000; stroke-linecap:round; stroke-linejoin:round; stroke-width:2; stroke-opacity:0.1; fill:none" points="1288.43,1486.45 1288.43,47.2441 "/>
<polyline clip-path="url(#clip232)" style="stroke:#000000; stroke-linecap:round; stroke-linejoin:round; stroke-width:2; stroke-opacity:0.1; fill:none" points="1820.59,1486.45 1820.59,47.2441 "/>
<polyline clip-path="url(#clip232)" style="stroke:#000000; stroke-linecap:round; stroke-linejoin:round; stroke-width:2; stroke-opacity:0.1; fill:none" points="2352.76,1486.45 2352.76,47.2441 "/>
<polyline clip-path="url(#clip232)" style="stroke:#000000; stroke-linecap:round; stroke-linejoin:round; stroke-width:2; stroke-opacity:0.1; fill:none" points="224.098,1394.7 2352.76,1394.7 "/>
<polyline clip-path="url(#clip232)" style="stroke:#000000; stroke-linecap:round; stroke-linejoin:round; stroke-width:2; stroke-opacity:0.1; fill:none" points="224.098,1091.34 2352.76,1091.34 "/>
<polyline clip-path="url(#clip232)" style="stroke:#000000; stroke-linecap:round; stroke-linejoin:round; stroke-width:2; stroke-opacity:0.1; fill:none" points="224.098,787.97 2352.76,787.97 "/>
<polyline clip-path="url(#clip232)" style="stroke:#000000; stroke-linecap:round; stroke-linejoin:round; stroke-width:2; stroke-opacity:0.1; fill:none" points="224.098,484.604 2352.76,484.604 "/>
<polyline clip-path="url(#clip232)" style="stroke:#000000; stroke-linecap:round; stroke-linejoin:round; stroke-width:2; stroke-opacity:0.1; fill:none" points="224.098,181.237 2352.76,181.237 "/>
<polyline clip-path="url(#clip230)" style="stroke:#000000; stroke-linecap:round; stroke-linejoin:round; stroke-width:4; stroke-opacity:1; fill:none" points="224.098,1486.45 2352.76,1486.45 "/>
<polyline clip-path="url(#clip230)" style="stroke:#000000; stroke-linecap:round; stroke-linejoin:round; stroke-width:4; stroke-opacity:1; fill:none" points="224.098,1486.45 224.098,1467.55 "/>
<polyline clip-path="url(#clip230)" style="stroke:#000000; stroke-linecap:round; stroke-linejoin:round; stroke-width:4; stroke-opacity:1; fill:none" points="756.262,1486.45 756.262,1467.55 "/>
<polyline clip-path="url(#clip230)" style="stroke:#000000; stroke-linecap:round; stroke-linejoin:round; stroke-width:4; stroke-opacity:1; fill:none" points="1288.43,1486.45 1288.43,1467.55 "/>
<polyline clip-path="url(#clip230)" style="stroke:#000000; stroke-linecap:round; stroke-linejoin:round; stroke-width:4; stroke-opacity:1; fill:none" points="1820.59,1486.45 1820.59,1467.55 "/>
<polyline clip-path="url(#clip230)" style="stroke:#000000; stroke-linecap:round; stroke-linejoin:round; stroke-width:4; stroke-opacity:1; fill:none" points="2352.76,1486.45 2352.76,1467.55 "/>
<path clip-path="url(#clip230)" d="M178.161 1532.02 L207.836 1532.02 L207.836 1535.95 L178.161 1535.95 L178.161 1532.02 Z" fill="#000000" fill-rule="nonzero" fill-opacity="1" /><path clip-path="url(#clip230)" d="M218.739 1544.91 L226.378 1544.91 L226.378 1518.55 L218.068 1520.21 L218.068 1515.95 L226.332 1514.29 L231.008 1514.29 L231.008 1544.91 L238.646 1544.91 L238.646 1548.85 L218.739 1548.85 L218.739 1544.91 Z" fill="#000000" fill-rule="nonzero" fill-opacity="1" /><path clip-path="url(#clip230)" d="M258.091 1517.37 Q254.48 1517.37 252.651 1520.93 Q250.845 1524.47 250.845 1531.6 Q250.845 1538.71 252.651 1542.27 Q254.48 1545.82 258.091 1545.82 Q261.725 1545.82 263.531 1542.27 Q265.359 1538.71 265.359 1531.6 Q265.359 1524.47 263.531 1520.93 Q261.725 1517.37 258.091 1517.37 M258.091 1513.66 Q263.901 1513.66 266.956 1518.27 Q270.035 1522.85 270.035 1531.6 Q270.035 1540.33 266.956 1544.94 Q263.901 1549.52 258.091 1549.52 Q252.281 1549.52 249.202 1544.94 Q246.146 1540.33 246.146 1531.6 Q246.146 1522.85 249.202 1518.27 Q252.281 1513.66 258.091 1513.66 Z" fill="#000000" fill-rule="nonzero" fill-opacity="1" /><path clip-path="url(#clip230)" d="M725.904 1532.02 L755.58 1532.02 L755.58 1535.95 L725.904 1535.95 L725.904 1532.02 Z" fill="#000000" fill-rule="nonzero" fill-opacity="1" /><path clip-path="url(#clip230)" d="M765.718 1514.29 L784.075 1514.29 L784.075 1518.22 L770.001 1518.22 L770.001 1526.7 Q771.019 1526.35 772.038 1526.19 Q773.056 1526 774.075 1526 Q779.862 1526 783.241 1529.17 Q786.621 1532.34 786.621 1537.76 Q786.621 1543.34 783.149 1546.44 Q779.677 1549.52 773.357 1549.52 Q771.181 1549.52 768.913 1549.15 Q766.667 1548.78 764.26 1548.04 L764.26 1543.34 Q766.343 1544.47 768.566 1545.03 Q770.788 1545.58 773.265 1545.58 Q777.269 1545.58 779.607 1543.48 Q781.945 1541.37 781.945 1537.76 Q781.945 1534.15 779.607 1532.04 Q777.269 1529.94 773.265 1529.94 Q771.39 1529.94 769.515 1530.35 Q767.663 1530.77 765.718 1531.65 L765.718 1514.29 Z" fill="#000000" fill-rule="nonzero" fill-opacity="1" /><path clip-path="url(#clip230)" d="M1288.43 1517.37 Q1284.82 1517.37 1282.99 1520.93 Q1281.18 1524.47 1281.18 1531.6 Q1281.18 1538.71 1282.99 1542.27 Q1284.82 1545.82 1288.43 1545.82 Q1292.06 1545.82 1293.87 1542.27 Q1295.7 1538.71 1295.7 1531.6 Q1295.7 1524.47 1293.87 1520.93 Q1292.06 1517.37 1288.43 1517.37 M1288.43 1513.66 Q1294.24 1513.66 1297.29 1518.27 Q1300.37 1522.85 1300.37 1531.6 Q1300.37 1540.33 1297.29 1544.94 Q1294.24 1549.52 1288.43 1549.52 Q1282.62 1549.52 1279.54 1544.94 Q1276.48 1540.33 1276.48 1531.6 Q1276.48 1522.85 1279.54 1518.27 Q1282.62 1513.66 1288.43 1513.66 Z" fill="#000000" fill-rule="nonzero" fill-opacity="1" /><path clip-path="url(#clip230)" d="M1810.87 1514.29 L1829.23 1514.29 L1829.23 1518.22 L1815.15 1518.22 L1815.15 1526.7 Q1816.17 1526.35 1817.19 1526.19 Q1818.21 1526 1819.23 1526 Q1825.01 1526 1828.39 1529.17 Q1831.77 1532.34 1831.77 1537.76 Q1831.77 1543.34 1828.3 1546.44 Q1824.83 1549.52 1818.51 1549.52 Q1816.33 1549.52 1814.06 1549.15 Q1811.82 1548.78 1809.41 1548.04 L1809.41 1543.34 Q1811.49 1544.47 1813.72 1545.03 Q1815.94 1545.58 1818.42 1545.58 Q1822.42 1545.58 1824.76 1543.48 Q1827.1 1541.37 1827.1 1537.76 Q1827.1 1534.15 1824.76 1532.04 Q1822.42 1529.94 1818.42 1529.94 Q1816.54 1529.94 1814.67 1530.35 Q1812.81 1530.77 1810.87 1531.65 L1810.87 1514.29 Z" fill="#000000" fill-rule="nonzero" fill-opacity="1" /><path clip-path="url(#clip230)" d="M2327.44 1544.91 L2335.08 1544.91 L2335.08 1518.55 L2326.77 1520.21 L2326.77 1515.95 L2335.04 1514.29 L2339.71 1514.29 L2339.71 1544.91 L2347.35 1544.91 L2347.35 1548.85 L2327.44 1548.85 L2327.44 1544.91 Z" fill="#000000" fill-rule="nonzero" fill-opacity="1" /><path clip-path="url(#clip230)" d="M2366.8 1517.37 Q2363.18 1517.37 2361.36 1520.93 Q2359.55 1524.47 2359.55 1531.6 Q2359.55 1538.71 2361.36 1542.27 Q2363.18 1545.82 2366.8 1545.82 Q2370.43 1545.82 2372.23 1542.27 Q2374.06 1538.71 2374.06 1531.6 Q2374.06 1524.47 2372.23 1520.93 Q2370.43 1517.37 2366.8 1517.37 M2366.8 1513.66 Q2372.61 1513.66 2375.66 1518.27 Q2378.74 1522.85 2378.74 1531.6 Q2378.74 1540.33 2375.66 1544.94 Q2372.61 1549.52 2366.8 1549.52 Q2360.99 1549.52 2357.91 1544.94 Q2354.85 1540.33 2354.85 1531.6 Q2354.85 1522.85 2357.91 1518.27 Q2360.99 1513.66 2366.8 1513.66 Z" fill="#000000" fill-rule="nonzero" fill-opacity="1" /><polyline clip-path="url(#clip230)" style="stroke:#000000; stroke-linecap:round; stroke-linejoin:round; stroke-width:4; stroke-opacity:1; fill:none" points="224.098,1486.45 224.098,47.2441 "/>
<polyline clip-path="url(#clip230)" style="stroke:#000000; stroke-linecap:round; stroke-linejoin:round; stroke-width:4; stroke-opacity:1; fill:none" points="224.098,1394.7 242.996,1394.7 "/>
<polyline clip-path="url(#clip230)" style="stroke:#000000; stroke-linecap:round; stroke-linejoin:round; stroke-width:4; stroke-opacity:1; fill:none" points="224.098,1091.34 242.996,1091.34 "/>
<polyline clip-path="url(#clip230)" style="stroke:#000000; stroke-linecap:round; stroke-linejoin:round; stroke-width:4; stroke-opacity:1; fill:none" points="224.098,787.97 242.996,787.97 "/>
<polyline clip-path="url(#clip230)" style="stroke:#000000; stroke-linecap:round; stroke-linejoin:round; stroke-width:4; stroke-opacity:1; fill:none" points="224.098,484.604 242.996,484.604 "/>
<polyline clip-path="url(#clip230)" style="stroke:#000000; stroke-linecap:round; stroke-linejoin:round; stroke-width:4; stroke-opacity:1; fill:none" points="224.098,181.237 242.996,181.237 "/>
<path clip-path="url(#clip230)" d="M50.9921 1395.16 L80.6679 1395.16 L80.6679 1399.09 L50.9921 1399.09 L50.9921 1395.16 Z" fill="#000000" fill-rule="nonzero" fill-opacity="1" /><path clip-path="url(#clip230)" d="M100.76 1380.5 Q97.1493 1380.5 95.3206 1384.07 Q93.515 1387.61 93.515 1394.74 Q93.515 1401.84 95.3206 1405.41 Q97.1493 1408.95 100.76 1408.95 Q104.395 1408.95 106.2 1405.41 Q108.029 1401.84 108.029 1394.74 Q108.029 1387.61 106.2 1384.07 Q104.395 1380.5 100.76 1380.5 M100.76 1376.8 Q106.571 1376.8 109.626 1381.41 Q112.705 1385.99 112.705 1394.74 Q112.705 1403.47 109.626 1408.07 Q106.571 1412.66 100.76 1412.66 Q94.9502 1412.66 91.8715 1408.07 Q88.816 1403.47 88.816 1394.74 Q88.816 1385.99 91.8715 1381.41 Q94.9502 1376.8 100.76 1376.8 Z" fill="#000000" fill-rule="nonzero" fill-opacity="1" /><path clip-path="url(#clip230)" d="M120.922 1406.1 L125.807 1406.1 L125.807 1411.98 L120.922 1411.98 L120.922 1406.1 Z" fill="#000000" fill-rule="nonzero" fill-opacity="1" /><path clip-path="url(#clip230)" d="M136.038 1377.42 L154.394 1377.42 L154.394 1381.36 L140.32 1381.36 L140.32 1389.83 Q141.339 1389.48 142.357 1389.32 Q143.376 1389.14 144.394 1389.14 Q150.181 1389.14 153.561 1392.31 Q156.941 1395.48 156.941 1400.9 Q156.941 1406.47 153.468 1409.58 Q149.996 1412.66 143.677 1412.66 Q141.501 1412.66 139.232 1412.28 Q136.987 1411.91 134.58 1411.17 L134.58 1406.47 Q136.663 1407.61 138.885 1408.16 Q141.107 1408.72 143.584 1408.72 Q147.589 1408.72 149.927 1406.61 Q152.265 1404.51 152.265 1400.9 Q152.265 1397.28 149.927 1395.18 Q147.589 1393.07 143.584 1393.07 Q141.709 1393.07 139.834 1393.49 Q137.982 1393.91 136.038 1394.78 L136.038 1377.42 Z" fill="#000000" fill-rule="nonzero" fill-opacity="1" /><path clip-path="url(#clip230)" d="M176.153 1380.5 Q172.542 1380.5 170.714 1384.07 Q168.908 1387.61 168.908 1394.74 Q168.908 1401.84 170.714 1405.41 Q172.542 1408.95 176.153 1408.95 Q179.788 1408.95 181.593 1405.41 Q183.422 1401.84 183.422 1394.74 Q183.422 1387.61 181.593 1384.07 Q179.788 1380.5 176.153 1380.5 M176.153 1376.8 Q181.964 1376.8 185.019 1381.41 Q188.098 1385.99 188.098 1394.74 Q188.098 1403.47 185.019 1408.07 Q181.964 1412.66 176.153 1412.66 Q170.343 1412.66 167.265 1408.07 Q164.209 1403.47 164.209 1394.74 Q164.209 1385.99 167.265 1381.41 Q170.343 1376.8 176.153 1376.8 Z" fill="#000000" fill-rule="nonzero" fill-opacity="1" /><path clip-path="url(#clip230)" d="M51.9875 1091.79 L81.6633 1091.79 L81.6633 1095.72 L51.9875 1095.72 L51.9875 1091.79 Z" fill="#000000" fill-rule="nonzero" fill-opacity="1" /><path clip-path="url(#clip230)" d="M101.756 1077.14 Q98.1447 1077.14 96.316 1080.7 Q94.5104 1084.24 94.5104 1091.37 Q94.5104 1098.48 96.316 1102.04 Q98.1447 1105.58 101.756 1105.58 Q105.39 1105.58 107.196 1102.04 Q109.024 1098.48 109.024 1091.37 Q109.024 1084.24 107.196 1080.7 Q105.39 1077.14 101.756 1077.14 M101.756 1073.43 Q107.566 1073.43 110.621 1078.04 Q113.7 1082.62 113.7 1091.37 Q113.7 1100.1 110.621 1104.71 Q107.566 1109.29 101.756 1109.29 Q95.9456 1109.29 92.8669 1104.71 Q89.8114 1100.1 89.8114 1091.37 Q89.8114 1082.62 92.8669 1078.04 Q95.9456 1073.43 101.756 1073.43 Z" fill="#000000" fill-rule="nonzero" fill-opacity="1" /><path clip-path="url(#clip230)" d="M121.918 1102.74 L126.802 1102.74 L126.802 1108.62 L121.918 1108.62 L121.918 1102.74 Z" fill="#000000" fill-rule="nonzero" fill-opacity="1" /><path clip-path="url(#clip230)" d="M141.015 1104.68 L157.334 1104.68 L157.334 1108.62 L135.39 1108.62 L135.39 1104.68 Q138.052 1101.93 142.635 1097.3 Q147.242 1092.64 148.422 1091.3 Q150.668 1088.78 151.547 1087.04 Q152.45 1085.28 152.45 1083.59 Q152.45 1080.84 150.505 1079.1 Q148.584 1077.37 145.482 1077.37 Q143.283 1077.37 140.83 1078.13 Q138.399 1078.9 135.621 1080.45 L135.621 1075.72 Q138.445 1074.59 140.899 1074.01 Q143.353 1073.43 145.39 1073.43 Q150.76 1073.43 153.955 1076.12 Q157.149 1078.8 157.149 1083.29 Q157.149 1085.42 156.339 1087.34 Q155.552 1089.24 153.445 1091.83 Q152.867 1092.51 149.765 1095.72 Q146.663 1098.92 141.015 1104.68 Z" fill="#000000" fill-rule="nonzero" fill-opacity="1" /><path clip-path="url(#clip230)" d="M167.195 1074.06 L185.552 1074.06 L185.552 1077.99 L171.478 1077.99 L171.478 1086.46 Q172.496 1086.12 173.515 1085.96 Q174.533 1085.77 175.552 1085.77 Q181.339 1085.77 184.718 1088.94 Q188.098 1092.11 188.098 1097.53 Q188.098 1103.11 184.626 1106.21 Q181.153 1109.29 174.834 1109.29 Q172.658 1109.29 170.39 1108.92 Q168.144 1108.55 165.737 1107.81 L165.737 1103.11 Q167.82 1104.24 170.042 1104.8 Q172.265 1105.35 174.741 1105.35 Q178.746 1105.35 181.084 1103.25 Q183.422 1101.14 183.422 1097.53 Q183.422 1093.92 181.084 1091.81 Q178.746 1089.71 174.741 1089.71 Q172.866 1089.71 170.991 1090.12 Q169.14 1090.54 167.195 1091.42 L167.195 1074.06 Z" fill="#000000" fill-rule="nonzero" fill-opacity="1" /><path clip-path="url(#clip230)" d="M100.76 773.769 Q97.1493 773.769 95.3206 777.334 Q93.515 780.875 93.515 788.005 Q93.515 795.112 95.3206 798.676 Q97.1493 802.218 100.76 802.218 Q104.395 802.218 106.2 798.676 Q108.029 795.112 108.029 788.005 Q108.029 780.875 106.2 777.334 Q104.395 773.769 100.76 773.769 M100.76 770.065 Q106.571 770.065 109.626 774.672 Q112.705 779.255 112.705 788.005 Q112.705 796.732 109.626 801.338 Q106.571 805.922 100.76 805.922 Q94.9502 805.922 91.8715 801.338 Q88.816 796.732 88.816 788.005 Q88.816 779.255 91.8715 774.672 Q94.9502 770.065 100.76 770.065 Z" fill="#000000" fill-rule="nonzero" fill-opacity="1" /><path clip-path="url(#clip230)" d="M120.922 799.371 L125.807 799.371 L125.807 805.25 L120.922 805.25 L120.922 799.371 Z" fill="#000000" fill-rule="nonzero" fill-opacity="1" /><path clip-path="url(#clip230)" d="M145.992 773.769 Q142.381 773.769 140.552 777.334 Q138.746 780.875 138.746 788.005 Q138.746 795.112 140.552 798.676 Q142.381 802.218 145.992 802.218 Q149.626 802.218 151.431 798.676 Q153.26 795.112 153.26 788.005 Q153.26 780.875 151.431 777.334 Q149.626 773.769 145.992 773.769 M145.992 770.065 Q151.802 770.065 154.857 774.672 Q157.936 779.255 157.936 788.005 Q157.936 796.732 154.857 801.338 Q151.802 805.922 145.992 805.922 Q140.181 805.922 137.103 801.338 Q134.047 796.732 134.047 788.005 Q134.047 779.255 137.103 774.672 Q140.181 770.065 145.992 770.065 Z" fill="#000000" fill-rule="nonzero" fill-opacity="1" /><path clip-path="url(#clip230)" d="M176.153 773.769 Q172.542 773.769 170.714 777.334 Q168.908 780.875 168.908 788.005 Q168.908 795.112 170.714 798.676 Q172.542 802.218 176.153 802.218 Q179.788 802.218 181.593 798.676 Q183.422 795.112 183.422 788.005 Q183.422 780.875 181.593 777.334 Q179.788 773.769 176.153 773.769 M176.153 770.065 Q181.964 770.065 185.019 774.672 Q188.098 779.255 188.098 788.005 Q188.098 796.732 185.019 801.338 Q181.964 805.922 176.153 805.922 Q170.343 805.922 167.265 801.338 Q164.209 796.732 164.209 788.005 Q164.209 779.255 167.265 774.672 Q170.343 770.065 176.153 770.065 Z" fill="#000000" fill-rule="nonzero" fill-opacity="1" /><path clip-path="url(#clip230)" d="M101.756 470.402 Q98.1447 470.402 96.316 473.967 Q94.5104 477.509 94.5104 484.638 Q94.5104 491.745 96.316 495.31 Q98.1447 498.851 101.756 498.851 Q105.39 498.851 107.196 495.31 Q109.024 491.745 109.024 484.638 Q109.024 477.509 107.196 473.967 Q105.39 470.402 101.756 470.402 M101.756 466.699 Q107.566 466.699 110.621 471.305 Q113.7 475.888 113.7 484.638 Q113.7 493.365 110.621 497.972 Q107.566 502.555 101.756 502.555 Q95.9456 502.555 92.8669 497.972 Q89.8114 493.365 89.8114 484.638 Q89.8114 475.888 92.8669 471.305 Q95.9456 466.699 101.756 466.699 Z" fill="#000000" fill-rule="nonzero" fill-opacity="1" /><path clip-path="url(#clip230)" d="M121.918 496.004 L126.802 496.004 L126.802 501.884 L121.918 501.884 L121.918 496.004 Z" fill="#000000" fill-rule="nonzero" fill-opacity="1" /><path clip-path="url(#clip230)" d="M141.015 497.948 L157.334 497.948 L157.334 501.884 L135.39 501.884 L135.39 497.948 Q138.052 495.194 142.635 490.564 Q147.242 485.911 148.422 484.569 Q150.668 482.046 151.547 480.31 Q152.45 478.55 152.45 476.861 Q152.45 474.106 150.505 472.37 Q148.584 470.634 145.482 470.634 Q143.283 470.634 140.83 471.398 Q138.399 472.162 135.621 473.712 L135.621 468.99 Q138.445 467.856 140.899 467.277 Q143.353 466.699 145.39 466.699 Q150.76 466.699 153.955 469.384 Q157.149 472.069 157.149 476.56 Q157.149 478.689 156.339 480.611 Q155.552 482.509 153.445 485.101 Q152.867 485.773 149.765 488.99 Q146.663 492.185 141.015 497.948 Z" fill="#000000" fill-rule="nonzero" fill-opacity="1" /><path clip-path="url(#clip230)" d="M167.195 467.324 L185.552 467.324 L185.552 471.259 L171.478 471.259 L171.478 479.731 Q172.496 479.384 173.515 479.222 Q174.533 479.037 175.552 479.037 Q181.339 479.037 184.718 482.208 Q188.098 485.379 188.098 490.796 Q188.098 496.374 184.626 499.476 Q181.153 502.555 174.834 502.555 Q172.658 502.555 170.39 502.185 Q168.144 501.814 165.737 501.073 L165.737 496.374 Q167.82 497.509 170.042 498.064 Q172.265 498.62 174.741 498.62 Q178.746 498.62 181.084 496.513 Q183.422 494.407 183.422 490.796 Q183.422 487.185 181.084 485.078 Q178.746 482.972 174.741 482.972 Q172.866 482.972 170.991 483.388 Q169.14 483.805 167.195 484.685 L167.195 467.324 Z" fill="#000000" fill-rule="nonzero" fill-opacity="1" /><path clip-path="url(#clip230)" d="M100.76 167.036 Q97.1493 167.036 95.3206 170.6 Q93.515 174.142 93.515 181.272 Q93.515 188.378 95.3206 191.943 Q97.1493 195.484 100.76 195.484 Q104.395 195.484 106.2 191.943 Q108.029 188.378 108.029 181.272 Q108.029 174.142 106.2 170.6 Q104.395 167.036 100.76 167.036 M100.76 163.332 Q106.571 163.332 109.626 167.938 Q112.705 172.522 112.705 181.272 Q112.705 189.998 109.626 194.605 Q106.571 199.188 100.76 199.188 Q94.9502 199.188 91.8715 194.605 Q88.816 189.998 88.816 181.272 Q88.816 172.522 91.8715 167.938 Q94.9502 163.332 100.76 163.332 Z" fill="#000000" fill-rule="nonzero" fill-opacity="1" /><path clip-path="url(#clip230)" d="M120.922 192.637 L125.807 192.637 L125.807 198.517 L120.922 198.517 L120.922 192.637 Z" fill="#000000" fill-rule="nonzero" fill-opacity="1" /><path clip-path="url(#clip230)" d="M136.038 163.957 L154.394 163.957 L154.394 167.892 L140.32 167.892 L140.32 176.364 Q141.339 176.017 142.357 175.855 Q143.376 175.67 144.394 175.67 Q150.181 175.67 153.561 178.841 Q156.941 182.012 156.941 187.429 Q156.941 193.008 153.468 196.109 Q149.996 199.188 143.677 199.188 Q141.501 199.188 139.232 198.818 Q136.987 198.447 134.58 197.707 L134.58 193.008 Q136.663 194.142 138.885 194.697 Q141.107 195.253 143.584 195.253 Q147.589 195.253 149.927 193.147 Q152.265 191.04 152.265 187.429 Q152.265 183.818 149.927 181.711 Q147.589 179.605 143.584 179.605 Q141.709 179.605 139.834 180.022 Q137.982 180.438 136.038 181.318 L136.038 163.957 Z" fill="#000000" fill-rule="nonzero" fill-opacity="1" /><path clip-path="url(#clip230)" d="M176.153 167.036 Q172.542 167.036 170.714 170.6 Q168.908 174.142 168.908 181.272 Q168.908 188.378 170.714 191.943 Q172.542 195.484 176.153 195.484 Q179.788 195.484 181.593 191.943 Q183.422 188.378 183.422 181.272 Q183.422 174.142 181.593 170.6 Q179.788 167.036 176.153 167.036 M176.153 163.332 Q181.964 163.332 185.019 167.938 Q188.098 172.522 188.098 181.272 Q188.098 189.998 185.019 194.605 Q181.964 199.188 176.153 199.188 Q170.343 199.188 167.265 194.605 Q164.209 189.998 164.209 181.272 Q164.209 172.522 167.265 167.938 Q170.343 163.332 176.153 163.332 Z" fill="#000000" fill-rule="nonzero" fill-opacity="1" /><polyline clip-path="url(#clip232)" style="stroke:#009af9; stroke-linecap:round; stroke-linejoin:round; stroke-width:4; stroke-opacity:1; fill:none" points="1288.43,1445.72 1394.86,436.034 1501.29,858.779 1607.73,780.898 1714.16,788.386 1820.59,787.954 1927.02,787.971 2033.46,787.97 2139.89,787.97 2246.32,787.97 2352.76,787.97 2459.19,787.97 2565.62,787.97 2672.05,787.97 2778.49,787.97 2884.92,787.97 2991.35,787.97 3097.79,787.97 3204.22,787.97 3310.65,787.97 3417.08,787.97 3523.52,787.97 3629.95,787.97 3736.38,787.97 3842.82,787.97 3949.25,787.97 4055.68,787.97 4162.12,787.97 4268.55,787.97 4374.98,787.97 4481.41,787.97 4587.85,787.97 -2010.99,787.97 -1904.56,787.97 -1798.13,787.97 -1691.69,787.97 -1585.26,787.97 -1478.83,787.97 -1372.4,787.97 -1265.96,787.97 -1159.53,787.97 -1053.1,787.97 -946.664,787.97 -840.231,787.97 -733.798,787.97 -627.365,787.97 -520.932,787.97 -414.5,787.97 -308.067,787.97 -201.634,787.97 -95.2008,787.97 11.2321,787.97 117.665,787.97 224.098,787.97 330.531,787.97 436.964,787.97 543.397,787.97 649.829,787.971 756.262,787.954 862.695,788.386 969.128,780.898 1075.56,858.779 1181.99,436.034 "/>
<polyline clip-path="url(#clip232)" style="stroke:#e26f46; stroke-linecap:round; stroke-linejoin:round; stroke-width:4; stroke-opacity:1; fill:none" points="1288.43,87.9763 1394.86,1162.51 1501.29,712.613 1607.73,795.497 1714.16,787.528 1820.59,787.987 1927.02,787.97 2033.46,787.97 2139.89,787.97 2246.32,787.97 2352.76,787.97 2459.19,787.97 2565.62,787.97 2672.05,787.97 2778.49,787.97 2884.92,787.97 2991.35,787.97 3097.79,787.97 3204.22,787.97 3310.65,787.97 3417.08,787.97 3523.52,787.97 3629.95,787.97 3736.38,787.97 3842.82,787.97 3949.25,787.97 4055.68,787.97 4162.12,787.97 4268.55,787.97 4374.98,787.97 4481.41,787.97 4587.85,787.97 -2010.99,787.97 -1904.56,787.97 -1798.13,787.97 -1691.69,787.97 -1585.26,787.97 -1478.83,787.97 -1372.4,787.97 -1265.96,787.97 -1159.53,787.97 -1053.1,787.97 -946.664,787.97 -840.231,787.97 -733.798,787.97 -627.365,787.97 -520.932,787.97 -414.5,787.97 -308.067,787.97 -201.634,787.97 -95.2008,787.97 11.2321,787.97 117.665,787.97 224.098,787.97 330.531,787.97 436.964,787.97 543.397,787.97 649.829,787.97 756.262,787.987 862.695,787.528 969.128,795.497 1075.56,712.613 1181.99,1162.51 "/>
<path clip-path="url(#clip230)" d="M1723.94 250.738 L2281.8 250.738 L2281.8 95.2176 L1723.94 95.2176  Z" fill="#ffffff" fill-rule="evenodd" fill-opacity="1"/>
<polyline clip-path="url(#clip230)" style="stroke:#000000; stroke-linecap:round; stroke-linejoin:round; stroke-width:4; stroke-opacity:1; fill:none" points="1723.94,250.738 2281.8,250.738 2281.8,95.2176 1723.94,95.2176 1723.94,250.738 "/>
<polyline clip-path="url(#clip230)" style="stroke:#009af9; stroke-linecap:round; stroke-linejoin:round; stroke-width:4; stroke-opacity:1; fill:none" points="1747.59,147.058 1889.5,147.058 "/>
<path clip-path="url(#clip230)" d="M1928.34 142.393 Q1927.62 141.977 1926.76 141.791 Q1925.93 141.583 1924.91 141.583 Q1921.3 141.583 1919.35 143.944 Q1917.43 146.282 1917.43 150.68 L1917.43 164.338 L1913.15 164.338 L1913.15 138.412 L1917.43 138.412 L1917.43 142.44 Q1918.78 140.078 1920.93 138.944 Q1923.08 137.787 1926.16 137.787 Q1926.6 137.787 1927.13 137.856 Q1927.66 137.903 1928.31 138.018 L1928.34 142.393 Z" fill="#000000" fill-rule="nonzero" fill-opacity="1" /><path clip-path="url(#clip230)" d="M1953.94 150.31 L1953.94 152.393 L1934.35 152.393 Q1934.63 156.791 1936.99 159.106 Q1939.38 161.398 1943.61 161.398 Q1946.07 161.398 1948.36 160.796 Q1950.67 160.194 1952.94 158.99 L1952.94 163.018 Q1950.65 163.99 1948.24 164.5 Q1945.84 165.009 1943.36 165.009 Q1937.16 165.009 1933.52 161.398 Q1929.91 157.787 1929.91 151.629 Q1929.91 145.264 1933.34 141.537 Q1936.78 137.787 1942.62 137.787 Q1947.85 137.787 1950.88 141.166 Q1953.94 144.523 1953.94 150.31 M1949.68 149.06 Q1949.63 145.565 1947.71 143.481 Q1945.81 141.398 1942.66 141.398 Q1939.1 141.398 1936.95 143.412 Q1934.82 145.426 1934.49 149.083 L1949.68 149.06 Z" fill="#000000" fill-rule="nonzero" fill-opacity="1" /><path clip-path="url(#clip230)" d="M1972.71 151.305 Q1967.55 151.305 1965.56 152.486 Q1963.57 153.666 1963.57 156.514 Q1963.57 158.782 1965.05 160.125 Q1966.55 161.444 1969.12 161.444 Q1972.66 161.444 1974.79 158.944 Q1976.95 156.421 1976.95 152.254 L1976.95 151.305 L1972.71 151.305 M1981.21 149.546 L1981.21 164.338 L1976.95 164.338 L1976.95 160.402 Q1975.49 162.763 1973.31 163.898 Q1971.14 165.009 1967.99 165.009 Q1964.01 165.009 1961.65 162.787 Q1959.31 160.541 1959.31 156.791 Q1959.31 152.416 1962.22 150.194 Q1965.16 147.972 1970.97 147.972 L1976.95 147.972 L1976.95 147.555 Q1976.95 144.615 1975 143.018 Q1973.08 141.398 1969.59 141.398 Q1967.36 141.398 1965.26 141.93 Q1963.15 142.463 1961.21 143.527 L1961.21 139.592 Q1963.54 138.69 1965.74 138.25 Q1967.94 137.787 1970.03 137.787 Q1975.65 137.787 1978.43 140.703 Q1981.21 143.62 1981.21 149.546 Z" fill="#000000" fill-rule="nonzero" fill-opacity="1" /><path clip-path="url(#clip230)" d="M1989.98 128.319 L1994.24 128.319 L1994.24 164.338 L1989.98 164.338 L1989.98 128.319 Z" fill="#000000" fill-rule="nonzero" fill-opacity="1" /><path clip-path="url(#clip230)" d="M2022.34 160.449 L2022.34 174.199 L2018.06 174.199 L2018.06 138.412 L2022.34 138.412 L2022.34 142.347 Q2023.68 140.032 2025.72 138.921 Q2027.78 137.787 2030.63 137.787 Q2035.35 137.787 2038.29 141.537 Q2041.25 145.287 2041.25 151.398 Q2041.25 157.509 2038.29 161.259 Q2035.35 165.009 2030.63 165.009 Q2027.78 165.009 2025.72 163.898 Q2023.68 162.763 2022.34 160.449 M2036.83 151.398 Q2036.83 146.699 2034.89 144.037 Q2032.96 141.352 2029.59 141.352 Q2026.21 141.352 2024.26 144.037 Q2022.34 146.699 2022.34 151.398 Q2022.34 156.097 2024.26 158.782 Q2026.21 161.444 2029.59 161.444 Q2032.96 161.444 2034.89 158.782 Q2036.83 156.097 2036.83 151.398 Z" fill="#000000" fill-rule="nonzero" fill-opacity="1" /><path clip-path="url(#clip230)" d="M2060.09 151.305 Q2054.93 151.305 2052.94 152.486 Q2050.95 153.666 2050.95 156.514 Q2050.95 158.782 2052.43 160.125 Q2053.94 161.444 2056.51 161.444 Q2060.05 161.444 2062.18 158.944 Q2064.33 156.421 2064.33 152.254 L2064.33 151.305 L2060.09 151.305 M2068.59 149.546 L2068.59 164.338 L2064.33 164.338 L2064.33 160.402 Q2062.87 162.763 2060.7 163.898 Q2058.52 165.009 2055.37 165.009 Q2051.39 165.009 2049.03 162.787 Q2046.69 160.541 2046.69 156.791 Q2046.69 152.416 2049.61 150.194 Q2052.55 147.972 2058.36 147.972 L2064.33 147.972 L2064.33 147.555 Q2064.33 144.615 2062.39 143.018 Q2060.46 141.398 2056.97 141.398 Q2054.75 141.398 2052.64 141.93 Q2050.53 142.463 2048.59 143.527 L2048.59 139.592 Q2050.93 138.69 2053.13 138.25 Q2055.33 137.787 2057.41 137.787 Q2063.03 137.787 2065.81 140.703 Q2068.59 143.62 2068.59 149.546 Z" fill="#000000" fill-rule="nonzero" fill-opacity="1" /><path clip-path="url(#clip230)" d="M2092.39 142.393 Q2091.67 141.977 2090.81 141.791 Q2089.98 141.583 2088.96 141.583 Q2085.35 141.583 2083.4 143.944 Q2081.48 146.282 2081.48 150.68 L2081.48 164.338 L2077.2 164.338 L2077.2 138.412 L2081.48 138.412 L2081.48 142.44 Q2082.83 140.078 2084.98 138.944 Q2087.13 137.787 2090.21 137.787 Q2090.65 137.787 2091.18 137.856 Q2091.71 137.903 2092.36 138.018 L2092.39 142.393 Z" fill="#000000" fill-rule="nonzero" fill-opacity="1" /><path clip-path="url(#clip230)" d="M2101.07 131.051 L2101.07 138.412 L2109.84 138.412 L2109.84 141.722 L2101.07 141.722 L2101.07 155.796 Q2101.07 158.967 2101.92 159.87 Q2102.8 160.773 2105.46 160.773 L2109.84 160.773 L2109.84 164.338 L2105.46 164.338 Q2100.53 164.338 2098.66 162.509 Q2096.78 160.657 2096.78 155.796 L2096.78 141.722 L2093.66 141.722 L2093.66 138.412 L2096.78 138.412 L2096.78 131.051 L2101.07 131.051 Z" fill="#000000" fill-rule="nonzero" fill-opacity="1" /><polyline clip-path="url(#clip230)" style="stroke:#e26f46; stroke-linecap:round; stroke-linejoin:round; stroke-width:4; stroke-opacity:1; fill:none" points="1747.59,198.898 1889.5,198.898 "/>
<path clip-path="url(#clip230)" d="M1913.15 190.252 L1917.41 190.252 L1917.41 216.178 L1913.15 216.178 L1913.15 190.252 M1913.15 180.159 L1917.41 180.159 L1917.41 185.553 L1913.15 185.553 L1913.15 180.159 Z" fill="#000000" fill-rule="nonzero" fill-opacity="1" /><path clip-path="url(#clip230)" d="M1946.51 195.229 Q1948.1 192.358 1950.33 190.993 Q1952.55 189.627 1955.56 189.627 Q1959.61 189.627 1961.81 192.474 Q1964.01 195.298 1964.01 200.529 L1964.01 216.178 L1959.72 216.178 L1959.72 200.668 Q1959.72 196.942 1958.41 195.136 Q1957.09 193.33 1954.38 193.33 Q1951.07 193.33 1949.15 195.53 Q1947.22 197.729 1947.22 201.525 L1947.22 216.178 L1942.94 216.178 L1942.94 200.668 Q1942.94 196.918 1941.62 195.136 Q1940.3 193.33 1937.55 193.33 Q1934.28 193.33 1932.36 195.553 Q1930.44 197.752 1930.44 201.525 L1930.44 216.178 L1926.16 216.178 L1926.16 190.252 L1930.44 190.252 L1930.44 194.28 Q1931.9 191.895 1933.94 190.761 Q1935.97 189.627 1938.78 189.627 Q1941.6 189.627 1943.57 191.062 Q1945.56 192.497 1946.51 195.229 Z" fill="#000000" fill-rule="nonzero" fill-opacity="1" /><path clip-path="url(#clip230)" d="M1984.28 203.145 Q1979.12 203.145 1977.13 204.326 Q1975.14 205.506 1975.14 208.354 Q1975.14 210.622 1976.62 211.965 Q1978.13 213.284 1980.7 213.284 Q1984.24 213.284 1986.37 210.784 Q1988.52 208.261 1988.52 204.094 L1988.52 203.145 L1984.28 203.145 M1992.78 201.386 L1992.78 216.178 L1988.52 216.178 L1988.52 212.242 Q1987.06 214.603 1984.89 215.738 Q1982.71 216.849 1979.56 216.849 Q1975.58 216.849 1973.22 214.627 Q1970.88 212.381 1970.88 208.631 Q1970.88 204.256 1973.8 202.034 Q1976.74 199.812 1982.55 199.812 L1988.52 199.812 L1988.52 199.395 Q1988.52 196.455 1986.58 194.858 Q1984.65 193.238 1981.16 193.238 Q1978.94 193.238 1976.83 193.77 Q1974.72 194.303 1972.78 195.367 L1972.78 191.432 Q1975.12 190.53 1977.32 190.09 Q1979.52 189.627 1981.6 189.627 Q1987.22 189.627 1990 192.543 Q1992.78 195.46 1992.78 201.386 Z" fill="#000000" fill-rule="nonzero" fill-opacity="1" /><path clip-path="url(#clip230)" d="M2018.61 202.914 Q2018.61 198.284 2016.69 195.738 Q2014.79 193.192 2011.34 193.192 Q2007.92 193.192 2006 195.738 Q2004.1 198.284 2004.1 202.914 Q2004.1 207.52 2006 210.066 Q2007.92 212.613 2011.34 212.613 Q2014.79 212.613 2016.69 210.066 Q2018.61 207.52 2018.61 202.914 M2022.87 212.96 Q2022.87 219.58 2019.93 222.798 Q2016.99 226.039 2010.93 226.039 Q2008.68 226.039 2006.69 225.691 Q2004.7 225.367 2002.83 224.673 L2002.83 220.529 Q2004.7 221.548 2006.53 222.034 Q2008.36 222.52 2010.26 222.52 Q2014.45 222.52 2016.53 220.321 Q2018.61 218.145 2018.61 213.724 L2018.61 211.617 Q2017.29 213.909 2015.23 215.043 Q2013.17 216.178 2010.3 216.178 Q2005.53 216.178 2002.62 212.543 Q1999.7 208.909 1999.7 202.914 Q1999.7 196.895 2002.62 193.261 Q2005.53 189.627 2010.3 189.627 Q2013.17 189.627 2015.23 190.761 Q2017.29 191.895 2018.61 194.187 L2018.61 190.252 L2022.87 190.252 L2022.87 212.96 Z" fill="#000000" fill-rule="nonzero" fill-opacity="1" /><path clip-path="url(#clip230)" d="M2031.65 190.252 L2035.9 190.252 L2035.9 216.178 L2031.65 216.178 L2031.65 190.252 M2031.65 180.159 L2035.9 180.159 L2035.9 185.553 L2031.65 185.553 L2031.65 180.159 Z" fill="#000000" fill-rule="nonzero" fill-opacity="1" /><path clip-path="url(#clip230)" d="M2066.37 200.529 L2066.37 216.178 L2062.11 216.178 L2062.11 200.668 Q2062.11 196.988 2060.67 195.159 Q2059.24 193.33 2056.37 193.33 Q2052.92 193.33 2050.93 195.53 Q2048.94 197.729 2048.94 201.525 L2048.94 216.178 L2044.65 216.178 L2044.65 190.252 L2048.94 190.252 L2048.94 194.28 Q2050.46 191.942 2052.52 190.784 Q2054.61 189.627 2057.32 189.627 Q2061.78 189.627 2064.08 192.405 Q2066.37 195.159 2066.37 200.529 Z" fill="#000000" fill-rule="nonzero" fill-opacity="1" /><path clip-path="url(#clip230)" d="M2086.65 203.145 Q2081.48 203.145 2079.49 204.326 Q2077.5 205.506 2077.5 208.354 Q2077.5 210.622 2078.98 211.965 Q2080.49 213.284 2083.06 213.284 Q2086.6 213.284 2088.73 210.784 Q2090.88 208.261 2090.88 204.094 L2090.88 203.145 L2086.65 203.145 M2095.14 201.386 L2095.14 216.178 L2090.88 216.178 L2090.88 212.242 Q2089.42 214.603 2087.25 215.738 Q2085.07 216.849 2081.92 216.849 Q2077.94 216.849 2075.58 214.627 Q2073.24 212.381 2073.24 208.631 Q2073.24 204.256 2076.16 202.034 Q2079.1 199.812 2084.91 199.812 L2090.88 199.812 L2090.88 199.395 Q2090.88 196.455 2088.94 194.858 Q2087.02 193.238 2083.52 193.238 Q2081.3 193.238 2079.19 193.77 Q2077.09 194.303 2075.14 195.367 L2075.14 191.432 Q2077.48 190.53 2079.68 190.09 Q2081.88 189.627 2083.96 189.627 Q2089.58 189.627 2092.36 192.543 Q2095.14 195.46 2095.14 201.386 Z" fill="#000000" fill-rule="nonzero" fill-opacity="1" /><path clip-path="url(#clip230)" d="M2118.94 194.233 Q2118.22 193.817 2117.36 193.631 Q2116.53 193.423 2115.51 193.423 Q2111.9 193.423 2109.96 195.784 Q2108.03 198.122 2108.03 202.52 L2108.03 216.178 L2103.75 216.178 L2103.75 190.252 L2108.03 190.252 L2108.03 194.28 Q2109.38 191.918 2111.53 190.784 Q2113.68 189.627 2116.76 189.627 Q2117.2 189.627 2117.73 189.696 Q2118.27 189.743 2118.91 189.858 L2118.94 194.233 Z" fill="#000000" fill-rule="nonzero" fill-opacity="1" /><path clip-path="url(#clip230)" d="M2134.19 218.585 Q2132.39 223.215 2130.67 224.627 Q2128.96 226.039 2126.09 226.039 L2122.69 226.039 L2122.69 222.474 L2125.19 222.474 Q2126.95 222.474 2127.92 221.64 Q2128.89 220.807 2130.07 217.705 L2130.83 215.761 L2120.35 190.252 L2124.86 190.252 L2132.96 210.529 L2141.07 190.252 L2145.58 190.252 L2134.19 218.585 Z" fill="#000000" fill-rule="nonzero" fill-opacity="1" /><path clip-path="url(#clip230)" d="M2170.65 212.289 L2170.65 226.039 L2166.37 226.039 L2166.37 190.252 L2170.65 190.252 L2170.65 194.187 Q2171.99 191.872 2174.03 190.761 Q2176.09 189.627 2178.94 189.627 Q2183.66 189.627 2186.6 193.377 Q2189.56 197.127 2189.56 203.238 Q2189.56 209.349 2186.6 213.099 Q2183.66 216.849 2178.94 216.849 Q2176.09 216.849 2174.03 215.738 Q2171.99 214.603 2170.65 212.289 M2185.14 203.238 Q2185.14 198.539 2183.2 195.877 Q2181.27 193.192 2177.89 193.192 Q2174.52 193.192 2172.57 195.877 Q2170.65 198.539 2170.65 203.238 Q2170.65 207.937 2172.57 210.622 Q2174.52 213.284 2177.89 213.284 Q2181.27 213.284 2183.2 210.622 Q2185.14 207.937 2185.14 203.238 Z" fill="#000000" fill-rule="nonzero" fill-opacity="1" /><path clip-path="url(#clip230)" d="M2208.4 203.145 Q2203.24 203.145 2201.25 204.326 Q2199.26 205.506 2199.26 208.354 Q2199.26 210.622 2200.74 211.965 Q2202.25 213.284 2204.82 213.284 Q2208.36 213.284 2210.49 210.784 Q2212.64 208.261 2212.64 204.094 L2212.64 203.145 L2208.4 203.145 M2216.9 201.386 L2216.9 216.178 L2212.64 216.178 L2212.64 212.242 Q2211.18 214.603 2209.01 215.738 Q2206.83 216.849 2203.68 216.849 Q2199.7 216.849 2197.34 214.627 Q2195 212.381 2195 208.631 Q2195 204.256 2197.92 202.034 Q2200.86 199.812 2206.67 199.812 L2212.64 199.812 L2212.64 199.395 Q2212.64 196.455 2210.7 194.858 Q2208.77 193.238 2205.28 193.238 Q2203.06 193.238 2200.95 193.77 Q2198.84 194.303 2196.9 195.367 L2196.9 191.432 Q2199.24 190.53 2201.44 190.09 Q2203.64 189.627 2205.72 189.627 Q2211.34 189.627 2214.12 192.543 Q2216.9 195.46 2216.9 201.386 Z" fill="#000000" fill-rule="nonzero" fill-opacity="1" /><path clip-path="url(#clip230)" d="M2240.7 194.233 Q2239.98 193.817 2239.12 193.631 Q2238.29 193.423 2237.27 193.423 Q2233.66 193.423 2231.71 195.784 Q2229.79 198.122 2229.79 202.52 L2229.79 216.178 L2225.51 216.178 L2225.51 190.252 L2229.79 190.252 L2229.79 194.28 Q2231.14 191.918 2233.29 190.784 Q2235.44 189.627 2238.52 189.627 Q2238.96 189.627 2239.49 189.696 Q2240.02 189.743 2240.67 189.858 L2240.7 194.233 Z" fill="#000000" fill-rule="nonzero" fill-opacity="1" /><path clip-path="url(#clip230)" d="M2249.38 182.891 L2249.38 190.252 L2258.15 190.252 L2258.15 193.562 L2249.38 193.562 L2249.38 207.636 Q2249.38 210.807 2250.23 211.71 Q2251.11 212.613 2253.77 212.613 L2258.15 212.613 L2258.15 216.178 L2253.77 216.178 Q2248.84 216.178 2246.97 214.349 Q2245.09 212.497 2245.09 207.636 L2245.09 193.562 L2241.97 193.562 L2241.97 190.252 L2245.09 190.252 L2245.09 182.891 L2249.38 182.891 Z" fill="#000000" fill-rule="nonzero" fill-opacity="1" /></svg>
