<?xml version="1.0" encoding="utf-8"?>
<svg xmlns="http://www.w3.org/2000/svg" xmlns:xlink="http://www.w3.org/1999/xlink" width="600" height="400" viewBox="0 0 2400 1600">
<defs>
  <clipPath id="clip840">
    <rect x="0" y="0" width="2400" height="1600"/>
  </clipPath>
</defs>
<path clip-path="url(#clip840)" d="M0 1600 L2400 1600 L2400 0 L0 0  Z" fill="#ffffff" fill-rule="evenodd" fill-opacity="1"/>
<defs>
  <clipPath id="clip841">
    <rect x="480" y="0" width="1681" height="1600"/>
  </clipPath>
</defs>
<path clip-path="url(#clip840)" d="M189.496 1486.45 L2352.76 1486.45 L2352.76 47.2441 L189.496 47.2441  Z" fill="#ffffff" fill-rule="evenodd" fill-opacity="1"/>
<defs>
  <clipPath id="clip842">
    <rect x="189" y="47" width="2164" height="1440"/>
  </clipPath>
</defs>
<polyline clip-path="url(#clip842)" style="stroke:#000000; stroke-linecap:round; stroke-linejoin:round; stroke-width:2; stroke-opacity:0.1; fill:none" points="250.72,1486.45 250.72,47.2441 "/>
<polyline clip-path="url(#clip842)" style="stroke:#000000; stroke-linecap:round; stroke-linejoin:round; stroke-width:2; stroke-opacity:0.1; fill:none" points="658.883,1486.45 658.883,47.2441 "/>
<polyline clip-path="url(#clip842)" style="stroke:#000000; stroke-linecap:round; stroke-linejoin:round; stroke-width:2; stroke-opacity:0.1; fill:none" points="1067.04,1486.45 1067.04,47.2441 "/>
<polyline clip-path="url(#clip842)" style="stroke:#000000; stroke-linecap:round; stroke-linejoin:round; stroke-width:2; stroke-opacity:0.1; fill:none" points="1475.21,1486.45 1475.21,47.2441 "/>
<polyline clip-path="url(#clip842)" style="stroke:#000000; stroke-linecap:round; stroke-linejoin:round; stroke-width:2; stroke-opacity:0.1; fill:none" points="1883.37,1486.45 1883.37,47.2441 "/>
<polyline clip-path="url(#clip842)" style="stroke:#000000; stroke-linecap:round; stroke-linejoin:round; stroke-width:2; stroke-opacity:0.1; fill:none" points="2291.53,1486.45 2291.53,47.2441 "/>
<polyline clip-path="url(#clip842)" style="stroke:#000000; stroke-linecap:round; stroke-linejoin:round; stroke-width:2; stroke-opacity:0.1; fill:none" points="189.496,1334.17 2352.76,1334.17 "/>
<polyline clip-path="url(#clip842)" style="stroke:#000000; stroke-linecap:round; stroke-linejoin:round; stroke-width:2; stroke-opacity:0.1; fill:none" points="189.496,686.343 2352.76,686.343 "/>
<polyline clip-path="url(#clip840)" style="stroke:#000000; stroke-linecap:round; stroke-linejoin:round; stroke-width:4; stroke-opacity:1; fill:none" points="189.496,1486.45 2352.76,1486.45 "/>
<polyline clip-path="url(#clip840)" style="stroke:#000000; stroke-linecap:round; stroke-linejoin:round; stroke-width:4; stroke-opacity:1; fill:none" points="250.72,1486.45 250.72,1467.55 "/>
<polyline clip-path="url(#clip840)" style="stroke:#000000; stroke-linecap:round; stroke-linejoin:round; stroke-width:4; stroke-opacity:1; fill:none" points="658.883,1486.45 658.883,1467.55 "/>
<polyline clip-path="url(#clip840)" style="stroke:#000000; stroke-linecap:round; stroke-linejoin:round; stroke-width:4; stroke-opacity:1; fill:none" points="1067.04,1486.45 1067.04,1467.55 "/>
<polyline clip-path="url(#clip840)" style="stroke:#000000; stroke-linecap:round; stroke-linejoin:round; stroke-width:4; stroke-opacity:1; fill:none" points="1475.21,1486.45 1475.21,1467.55 "/>
<polyline clip-path="url(#clip840)" style="stroke:#000000; stroke-linecap:round; stroke-linejoin:round; stroke-width:4; stroke-opacity:1; fill:none" points="1883.37,1486.45 1883.37,1467.55 "/>
<polyline clip-path="url(#clip840)" style="stroke:#000000; stroke-linecap:round; stroke-linejoin:round; stroke-width:4; stroke-opacity:1; fill:none" points="2291.53,1486.45 2291.53,1467.55 "/>
<path clip-path="url(#clip840)" d="M241.102 1544.91 L248.741 1544.91 L248.741 1518.55 L240.431 1520.21 L240.431 1515.95 L248.695 1514.29 L253.371 1514.29 L253.371 1544.91 L261.01 1544.91 L261.01 1548.85 L241.102 1548.85 L241.102 1544.91 Z" fill="#000000" fill-rule="nonzero" fill-opacity="1" /><path clip-path="url(#clip840)" d="M653.535 1544.91 L669.855 1544.91 L669.855 1548.85 L647.91 1548.85 L647.91 1544.91 Q650.572 1542.16 655.156 1537.53 Q659.762 1532.88 660.943 1531.53 Q663.188 1529.01 664.068 1527.27 Q664.97 1525.51 664.97 1523.82 Q664.97 1521.07 663.026 1519.33 Q661.105 1517.6 658.003 1517.6 Q655.804 1517.6 653.35 1518.36 Q650.92 1519.13 648.142 1520.68 L648.142 1515.95 Q650.966 1514.82 653.42 1514.24 Q655.873 1513.66 657.91 1513.66 Q663.281 1513.66 666.475 1516.35 Q669.669 1519.03 669.669 1523.52 Q669.669 1525.65 668.859 1527.57 Q668.072 1529.47 665.966 1532.07 Q665.387 1532.74 662.285 1535.95 Q659.183 1539.15 653.535 1544.91 Z" fill="#000000" fill-rule="nonzero" fill-opacity="1" /><path clip-path="url(#clip840)" d="M1071.29 1530.21 Q1074.65 1530.93 1076.52 1533.2 Q1078.42 1535.47 1078.42 1538.8 Q1078.42 1543.92 1074.9 1546.72 Q1071.39 1549.52 1064.9 1549.52 Q1062.73 1549.52 1060.41 1549.08 Q1058.12 1548.66 1055.67 1547.81 L1055.67 1543.29 Q1057.61 1544.43 1059.93 1545.01 Q1062.24 1545.58 1064.76 1545.58 Q1069.16 1545.58 1071.45 1543.85 Q1073.77 1542.11 1073.77 1538.8 Q1073.77 1535.75 1071.62 1534.03 Q1069.49 1532.3 1065.67 1532.3 L1061.64 1532.3 L1061.64 1528.45 L1065.85 1528.45 Q1069.3 1528.45 1071.13 1527.09 Q1072.96 1525.7 1072.96 1523.11 Q1072.96 1520.45 1071.06 1519.03 Q1069.19 1517.6 1065.67 1517.6 Q1063.75 1517.6 1061.55 1518.01 Q1059.35 1518.43 1056.71 1519.31 L1056.71 1515.14 Q1059.37 1514.4 1061.69 1514.03 Q1064.02 1513.66 1066.08 1513.66 Q1071.41 1513.66 1074.51 1516.09 Q1077.61 1518.5 1077.61 1522.62 Q1077.61 1525.49 1075.97 1527.48 Q1074.32 1529.45 1071.29 1530.21 Z" fill="#000000" fill-rule="nonzero" fill-opacity="1" /><path clip-path="url(#clip840)" d="M1478.22 1518.36 L1466.41 1536.81 L1478.22 1536.81 L1478.22 1518.36 M1476.99 1514.29 L1482.87 1514.29 L1482.87 1536.81 L1487.8 1536.81 L1487.8 1540.7 L1482.87 1540.7 L1482.87 1548.85 L1478.22 1548.85 L1478.22 1540.7 L1462.61 1540.7 L1462.61 1536.19 L1476.99 1514.29 Z" fill="#000000" fill-rule="nonzero" fill-opacity="1" /><path clip-path="url(#clip840)" d="M1873.65 1514.29 L1892 1514.29 L1892 1518.22 L1877.93 1518.22 L1877.93 1526.7 Q1878.95 1526.35 1879.97 1526.19 Q1880.99 1526 1882 1526 Q1887.79 1526 1891.17 1529.17 Q1894.55 1532.34 1894.55 1537.76 Q1894.55 1543.34 1891.08 1546.44 Q1887.61 1549.52 1881.29 1549.52 Q1879.11 1549.52 1876.84 1549.15 Q1874.6 1548.78 1872.19 1548.04 L1872.19 1543.34 Q1874.27 1544.47 1876.49 1545.03 Q1878.72 1545.58 1881.19 1545.58 Q1885.2 1545.58 1887.54 1543.48 Q1889.87 1541.37 1889.87 1537.76 Q1889.87 1534.15 1887.54 1532.04 Q1885.2 1529.94 1881.19 1529.94 Q1879.32 1529.94 1877.44 1530.35 Q1875.59 1530.77 1873.65 1531.65 L1873.65 1514.29 Z" fill="#000000" fill-rule="nonzero" fill-opacity="1" /><path clip-path="url(#clip840)" d="M2291.94 1529.7 Q2288.79 1529.7 2286.94 1531.86 Q2285.11 1534.01 2285.11 1537.76 Q2285.11 1541.49 2286.94 1543.66 Q2288.79 1545.82 2291.94 1545.82 Q2295.08 1545.82 2296.91 1543.66 Q2298.77 1541.49 2298.77 1537.76 Q2298.77 1534.01 2296.91 1531.86 Q2295.08 1529.7 2291.94 1529.7 M2301.22 1515.05 L2301.22 1519.31 Q2299.46 1518.48 2297.65 1518.04 Q2295.87 1517.6 2294.11 1517.6 Q2289.48 1517.6 2287.03 1520.72 Q2284.6 1523.85 2284.25 1530.17 Q2285.62 1528.15 2287.68 1527.09 Q2289.74 1526 2292.21 1526 Q2297.42 1526 2300.43 1529.17 Q2303.46 1532.32 2303.46 1537.76 Q2303.46 1543.08 2300.32 1546.3 Q2297.17 1549.52 2291.94 1549.52 Q2285.94 1549.52 2282.77 1544.94 Q2279.6 1540.33 2279.6 1531.6 Q2279.6 1523.41 2283.49 1518.55 Q2287.38 1513.66 2293.93 1513.66 Q2295.69 1513.66 2297.47 1514.01 Q2299.27 1514.36 2301.22 1515.05 Z" fill="#000000" fill-rule="nonzero" fill-opacity="1" /><polyline clip-path="url(#clip840)" style="stroke:#000000; stroke-linecap:round; stroke-linejoin:round; stroke-width:4; stroke-opacity:1; fill:none" points="189.496,1486.45 189.496,47.2441 "/>
<polyline clip-path="url(#clip840)" style="stroke:#000000; stroke-linecap:round; stroke-linejoin:round; stroke-width:4; stroke-opacity:1; fill:none" points="189.496,1334.17 208.394,1334.17 "/>
<polyline clip-path="url(#clip840)" style="stroke:#000000; stroke-linecap:round; stroke-linejoin:round; stroke-width:4; stroke-opacity:1; fill:none" points="189.496,686.343 208.394,686.343 "/>
<path clip-path="url(#clip840)" d="M51.6634 1353.96 L59.3023 1353.96 L59.3023 1327.6 L50.9921 1329.26 L50.9921 1325 L59.256 1323.34 L63.9319 1323.34 L63.9319 1353.96 L71.5707 1353.96 L71.5707 1357.9 L51.6634 1357.9 L51.6634 1353.96 Z" fill="#000000" fill-rule="nonzero" fill-opacity="1" /><path clip-path="url(#clip840)" d="M91.0151 1326.42 Q87.404 1326.42 85.5753 1329.98 Q83.7697 1333.52 83.7697 1340.65 Q83.7697 1347.76 85.5753 1351.32 Q87.404 1354.87 91.0151 1354.87 Q94.6493 1354.87 96.4548 1351.32 Q98.2835 1347.76 98.2835 1340.65 Q98.2835 1333.52 96.4548 1329.98 Q94.6493 1326.42 91.0151 1326.42 M91.0151 1322.71 Q96.8252 1322.71 99.8808 1327.32 Q102.959 1331.9 102.959 1340.65 Q102.959 1349.38 99.8808 1353.99 Q96.8252 1358.57 91.0151 1358.57 Q85.2049 1358.57 82.1262 1353.99 Q79.0707 1349.38 79.0707 1340.65 Q79.0707 1331.9 82.1262 1327.32 Q85.2049 1322.71 91.0151 1322.71 Z" fill="#000000" fill-rule="nonzero" fill-opacity="1" /><path clip-path="url(#clip840)" d="M102.959 1316.81 L127.071 1316.81 L127.071 1320.01 L102.959 1320.01 L102.959 1316.81 Z" fill="#000000" fill-rule="nonzero" fill-opacity="1" /><path clip-path="url(#clip840)" d="M145.71 1305.72 L136.118 1320.71 L145.71 1320.71 L145.71 1305.72 M144.713 1302.41 L149.49 1302.41 L149.49 1320.71 L153.496 1320.71 L153.496 1323.87 L149.49 1323.87 L149.49 1330.49 L145.71 1330.49 L145.71 1323.87 L133.033 1323.87 L133.033 1320.2 L144.713 1302.41 Z" fill="#000000" fill-rule="nonzero" fill-opacity="1" /><path clip-path="url(#clip840)" d="M53.3561 706.136 L60.995 706.136 L60.995 679.77 L52.6848 681.437 L52.6848 677.177 L60.9487 675.511 L65.6246 675.511 L65.6246 706.136 L73.2634 706.136 L73.2634 710.071 L53.3561 710.071 L53.3561 706.136 Z" fill="#000000" fill-rule="nonzero" fill-opacity="1" /><path clip-path="url(#clip840)" d="M92.7078 678.589 Q89.0967 678.589 87.268 682.154 Q85.4624 685.696 85.4624 692.825 Q85.4624 699.932 87.268 703.497 Q89.0967 707.038 92.7078 707.038 Q96.342 707.038 98.1475 703.497 Q99.9762 699.932 99.9762 692.825 Q99.9762 685.696 98.1475 682.154 Q96.342 678.589 92.7078 678.589 M92.7078 674.886 Q98.5179 674.886 101.573 679.492 Q104.652 684.075 104.652 692.825 Q104.652 701.552 101.573 706.159 Q98.5179 710.742 92.7078 710.742 Q86.8976 710.742 83.8189 706.159 Q80.7634 701.552 80.7634 692.825 Q80.7634 684.075 83.8189 679.492 Q86.8976 674.886 92.7078 674.886 Z" fill="#000000" fill-rule="nonzero" fill-opacity="1" /><path clip-path="url(#clip840)" d="M104.652 668.987 L128.764 668.987 L128.764 672.184 L104.652 672.184 L104.652 668.987 Z" fill="#000000" fill-rule="nonzero" fill-opacity="1" /><path clip-path="url(#clip840)" d="M140.236 679.463 L153.496 679.463 L153.496 682.66 L135.666 682.66 L135.666 679.463 Q137.829 677.225 141.553 673.463 Q145.296 669.683 146.255 668.592 Q148.079 666.542 148.794 665.131 Q149.527 663.702 149.527 662.329 Q149.527 660.091 147.948 658.68 Q146.387 657.27 143.866 657.27 Q142.08 657.27 140.086 657.89 Q138.111 658.511 135.854 659.771 L135.854 655.934 Q138.149 655.013 140.142 654.543 Q142.136 654.072 143.791 654.072 Q148.155 654.072 150.75 656.254 Q153.345 658.436 153.345 662.085 Q153.345 663.815 152.687 665.376 Q152.048 666.918 150.336 669.025 Q149.866 669.57 147.346 672.184 Q144.826 674.78 140.236 679.463 Z" fill="#000000" fill-rule="nonzero" fill-opacity="1" /><polyline clip-path="url(#clip842)" style="stroke:#009af9; stroke-linecap:round; stroke-linejoin:round; stroke-width:4; stroke-opacity:1; fill:none" points="250.72,87.9763 658.883,357.822 1067.04,723.233 1475.21,750.077 1883.37,791.444 2291.53,1445.72 "/>
<line clip-path="url(#clip842)" x1="250.72" y1="87.9763" x2="234.72" y2="71.9763" style="stroke:#009af9; stroke-width:4; stroke-opacity:1"/>
<line clip-path="url(#clip842)" x1="250.72" y1="87.9763" x2="234.72" y2="103.976" style="stroke:#009af9; stroke-width:4; stroke-opacity:1"/>
<line clip-path="url(#clip842)" x1="250.72" y1="87.9763" x2="266.72" y2="103.976" style="stroke:#009af9; stroke-width:4; stroke-opacity:1"/>
<line clip-path="url(#clip842)" x1="250.72" y1="87.9763" x2="266.72" y2="71.9763" style="stroke:#009af9; stroke-width:4; stroke-opacity:1"/>
<line clip-path="url(#clip842)" x1="658.883" y1="357.822" x2="642.883" y2="341.822" style="stroke:#009af9; stroke-width:4; stroke-opacity:1"/>
<line clip-path="url(#clip842)" x1="658.883" y1="357.822" x2="642.883" y2="373.822" style="stroke:#009af9; stroke-width:4; stroke-opacity:1"/>
<line clip-path="url(#clip842)" x1="658.883" y1="357.822" x2="674.883" y2="373.822" style="stroke:#009af9; stroke-width:4; stroke-opacity:1"/>
<line clip-path="url(#clip842)" x1="658.883" y1="357.822" x2="674.883" y2="341.822" style="stroke:#009af9; stroke-width:4; stroke-opacity:1"/>
<line clip-path="url(#clip842)" x1="1067.04" y1="723.233" x2="1051.04" y2="707.233" style="stroke:#009af9; stroke-width:4; stroke-opacity:1"/>
<line clip-path="url(#clip842)" x1="1067.04" y1="723.233" x2="1051.04" y2="739.233" style="stroke:#009af9; stroke-width:4; stroke-opacity:1"/>
<line clip-path="url(#clip842)" x1="1067.04" y1="723.233" x2="1083.04" y2="739.233" style="stroke:#009af9; stroke-width:4; stroke-opacity:1"/>
<line clip-path="url(#clip842)" x1="1067.04" y1="723.233" x2="1083.04" y2="707.233" style="stroke:#009af9; stroke-width:4; stroke-opacity:1"/>
<line clip-path="url(#clip842)" x1="1475.21" y1="750.077" x2="1459.21" y2="734.077" style="stroke:#009af9; stroke-width:4; stroke-opacity:1"/>
<line clip-path="url(#clip842)" x1="1475.21" y1="750.077" x2="1459.21" y2="766.077" style="stroke:#009af9; stroke-width:4; stroke-opacity:1"/>
<line clip-path="url(#clip842)" x1="1475.21" y1="750.077" x2="1491.21" y2="766.077" style="stroke:#009af9; stroke-width:4; stroke-opacity:1"/>
<line clip-path="url(#clip842)" x1="1475.21" y1="750.077" x2="1491.21" y2="734.077" style="stroke:#009af9; stroke-width:4; stroke-opacity:1"/>
<line clip-path="url(#clip842)" x1="1883.37" y1="791.444" x2="1867.37" y2="775.444" style="stroke:#009af9; stroke-width:4; stroke-opacity:1"/>
<line clip-path="url(#clip842)" x1="1883.37" y1="791.444" x2="1867.37" y2="807.444" style="stroke:#009af9; stroke-width:4; stroke-opacity:1"/>
<line clip-path="url(#clip842)" x1="1883.37" y1="791.444" x2="1899.37" y2="807.444" style="stroke:#009af9; stroke-width:4; stroke-opacity:1"/>
<line clip-path="url(#clip842)" x1="1883.37" y1="791.444" x2="1899.37" y2="775.444" style="stroke:#009af9; stroke-width:4; stroke-opacity:1"/>
<line clip-path="url(#clip842)" x1="2291.53" y1="1445.72" x2="2275.53" y2="1429.72" style="stroke:#009af9; stroke-width:4; stroke-opacity:1"/>
<line clip-path="url(#clip842)" x1="2291.53" y1="1445.72" x2="2275.53" y2="1461.72" style="stroke:#009af9; stroke-width:4; stroke-opacity:1"/>
<line clip-path="url(#clip842)" x1="2291.53" y1="1445.72" x2="2307.53" y2="1461.72" style="stroke:#009af9; stroke-width:4; stroke-opacity:1"/>
<line clip-path="url(#clip842)" x1="2291.53" y1="1445.72" x2="2307.53" y2="1429.72" style="stroke:#009af9; stroke-width:4; stroke-opacity:1"/>
<path clip-path="url(#clip840)" d="M1816.13 198.898 L2280.65 198.898 L2280.65 95.2176 L1816.13 95.2176  Z" fill="#ffffff" fill-rule="evenodd" fill-opacity="1"/>
<polyline clip-path="url(#clip840)" style="stroke:#000000; stroke-linecap:round; stroke-linejoin:round; stroke-width:4; stroke-opacity:1; fill:none" points="1816.13,198.898 2280.65,198.898 2280.65,95.2176 1816.13,95.2176 1816.13,198.898 "/>
<polyline clip-path="url(#clip840)" style="stroke:#009af9; stroke-linecap:round; stroke-linejoin:round; stroke-width:4; stroke-opacity:1; fill:none" points="1840.16,147.058 1984.38,147.058 "/>
<line clip-path="url(#clip840)" x1="1912.27" y1="147.058" x2="1890.02" y2="124.802" style="stroke:#009af9; stroke-width:4.55111; stroke-opacity:1"/>
<line clip-path="url(#clip840)" x1="1912.27" y1="147.058" x2="1890.02" y2="169.313" style="stroke:#009af9; stroke-width:4.55111; stroke-opacity:1"/>
<line clip-path="url(#clip840)" x1="1912.27" y1="147.058" x2="1934.53" y2="169.313" style="stroke:#009af9; stroke-width:4.55111; stroke-opacity:1"/>
<line clip-path="url(#clip840)" x1="1912.27" y1="147.058" x2="1934.53" y2="124.802" style="stroke:#009af9; stroke-width:4.55111; stroke-opacity:1"/>
<path clip-path="url(#clip840)" d="M2012.35 128.111 L2012.35 175.518 L2008.42 175.518 L2008.42 128.111 L2012.35 128.111 Z" fill="#000000" fill-rule="nonzero" fill-opacity="1" /><path clip-path="url(#clip840)" d="M2024.76 143.041 Q2026.17 140.68 2029.67 138.597 Q2031.03 137.787 2035.25 137.787 Q2039.97 137.787 2042.91 141.537 Q2045.87 145.287 2045.87 151.398 Q2045.87 157.509 2042.91 161.259 Q2039.97 165.009 2035.25 165.009 Q2032.4 165.009 2030.34 163.898 Q2028.3 162.763 2026.96 160.449 L2026.96 174.199 L2022.68 174.199 L2022.68 151.629 Q2022.68 146.282 2024.76 143.041 M2041.45 151.398 Q2041.45 146.699 2039.51 144.037 Q2037.58 141.352 2034.2 141.352 Q2030.83 141.352 2028.88 144.037 Q2026.96 146.699 2026.96 151.398 Q2026.96 156.097 2028.88 158.782 Q2030.83 161.444 2034.2 161.444 Q2037.58 161.444 2039.51 158.782 Q2041.45 156.097 2041.45 151.398 Z" fill="#000000" fill-rule="nonzero" fill-opacity="1" /><path clip-path="url(#clip840)" d="M2062.98 141.398 Q2059.55 141.398 2057.56 144.083 Q2055.57 146.745 2055.57 151.398 Q2055.57 156.051 2057.54 158.736 Q2059.53 161.398 2062.98 161.398 Q2066.38 161.398 2068.37 158.713 Q2070.36 156.027 2070.36 151.398 Q2070.36 146.791 2068.37 144.106 Q2066.38 141.398 2062.98 141.398 M2062.98 137.787 Q2068.53 137.787 2071.7 141.398 Q2074.88 145.009 2074.88 151.398 Q2074.88 157.764 2071.7 161.398 Q2068.53 165.009 2062.98 165.009 Q2057.4 165.009 2054.23 161.398 Q2051.08 157.764 2051.08 151.398 Q2051.08 145.009 2054.23 141.398 Q2057.4 137.787 2062.98 137.787 Z" fill="#000000" fill-rule="nonzero" fill-opacity="1" /><path clip-path="url(#clip840)" d="M2081.5 154.106 L2081.5 138.412 L2085.76 138.412 L2085.76 153.944 Q2085.76 157.625 2087.19 159.476 Q2088.63 161.305 2091.5 161.305 Q2094.95 161.305 2096.94 159.106 Q2098.95 156.907 2098.95 153.111 L2098.95 138.412 L2103.21 138.412 L2103.21 164.338 L2098.95 164.338 L2098.95 160.356 Q2097.4 162.717 2095.34 163.875 Q2093.3 165.009 2090.59 165.009 Q2086.13 165.009 2083.81 162.231 Q2081.5 159.453 2081.5 154.106 M2092.21 137.787 L2092.21 137.787 Z" fill="#000000" fill-rule="nonzero" fill-opacity="1" /><path clip-path="url(#clip840)" d="M2116.2 131.051 L2116.2 138.412 L2124.97 138.412 L2124.97 141.722 L2116.2 141.722 L2116.2 155.796 Q2116.2 158.967 2117.05 159.87 Q2117.93 160.773 2120.59 160.773 L2124.97 160.773 L2124.97 164.338 L2120.59 164.338 Q2115.66 164.338 2113.79 162.509 Q2111.91 160.657 2111.91 155.796 L2111.91 141.722 L2108.79 141.722 L2108.79 138.412 L2111.91 138.412 L2111.91 131.051 L2116.2 131.051 Z" fill="#000000" fill-rule="nonzero" fill-opacity="1" /><path clip-path="url(#clip840)" d="M2143.49 149.453 L2155.96 149.453 L2155.96 153.25 L2143.49 153.25 L2143.49 149.453 Z" fill="#000000" fill-rule="nonzero" fill-opacity="1" /><path clip-path="url(#clip840)" d="M2179.74 143.041 Q2181.15 140.68 2184.64 138.597 Q2186.01 137.787 2190.22 137.787 Q2194.94 137.787 2197.88 141.537 Q2200.85 145.287 2200.85 151.398 Q2200.85 157.509 2197.88 161.259 Q2194.94 165.009 2190.22 165.009 Q2187.38 165.009 2185.32 163.898 Q2183.28 162.763 2181.94 160.449 L2181.94 174.199 L2177.65 174.199 L2177.65 151.629 Q2177.65 146.282 2179.74 143.041 M2196.43 151.398 Q2196.43 146.699 2194.48 144.037 Q2192.56 141.352 2189.18 141.352 Q2185.8 141.352 2183.86 144.037 Q2181.94 146.699 2181.94 151.398 Q2181.94 156.097 2183.86 158.782 Q2185.8 161.444 2189.18 161.444 Q2192.56 161.444 2194.48 158.782 Q2196.43 156.097 2196.43 151.398 Z" fill="#000000" fill-rule="nonzero" fill-opacity="1" /><path clip-path="url(#clip840)" d="M2207.91 138.412 L2212.17 138.412 L2212.17 164.338 L2207.91 164.338 L2207.91 138.412 M2207.91 128.319 L2212.17 128.319 L2212.17 133.713 L2207.91 133.713 L2207.91 128.319 Z" fill="#000000" fill-rule="nonzero" fill-opacity="1" /><path clip-path="url(#clip840)" d="M2242.63 148.689 L2242.63 164.338 L2238.37 164.338 L2238.37 148.828 Q2238.37 145.148 2236.94 143.319 Q2235.5 141.49 2232.63 141.49 Q2229.18 141.49 2227.19 143.69 Q2225.2 145.889 2225.2 149.685 L2225.2 164.338 L2220.92 164.338 L2220.92 138.412 L2225.2 138.412 L2225.2 142.44 Q2226.73 140.102 2228.79 138.944 Q2230.87 137.787 2233.58 137.787 Q2238.05 137.787 2240.34 140.565 Q2242.63 143.319 2242.63 148.689 Z" fill="#000000" fill-rule="nonzero" fill-opacity="1" /><path clip-path="url(#clip840)" d="M2256.61 128.111 L2256.61 175.518 L2252.68 175.518 L2252.68 128.111 L2256.61 128.111 Z" fill="#000000" fill-rule="nonzero" fill-opacity="1" /></svg>
