<?xml version="1.0" encoding="utf-8"?>
<svg xmlns="http://www.w3.org/2000/svg" xmlns:xlink="http://www.w3.org/1999/xlink" width="600" height="400" viewBox="0 0 2400 1600">
<defs>
  <clipPath id="clip110">
    <rect x="0" y="0" width="2400" height="1600"/>
  </clipPath>
</defs>
<path clip-path="url(#clip110)" d="M0 1600 L2400 1600 L2400 0 L0 0  Z" fill="#ffffff" fill-rule="evenodd" fill-opacity="1"/>
<defs>
  <clipPath id="clip111">
    <rect x="192" y="47" width="2161" height="1440"/>
  </clipPath>
</defs>
<path clip-path="url(#clip110)" d="M192.339 1486.45 L2352.76 1486.45 L2352.76 47.2441 L192.339 47.2441  Z" fill="#ffffff" fill-rule="evenodd" fill-opacity="1"/>
<polyline clip-path="url(#clip111)" style="stroke:#000000; stroke-linecap:round; stroke-linejoin:round; stroke-width:2; stroke-opacity:0.1; fill:none" points="192.339,1486.45 192.339,47.2441 "/>
<polyline clip-path="url(#clip111)" style="stroke:#000000; stroke-linecap:round; stroke-linejoin:round; stroke-width:2; stroke-opacity:0.1; fill:none" points="732.443,1486.45 732.443,47.2441 "/>
<polyline clip-path="url(#clip111)" style="stroke:#000000; stroke-linecap:round; stroke-linejoin:round; stroke-width:2; stroke-opacity:0.1; fill:none" points="1272.55,1486.45 1272.55,47.2441 "/>
<polyline clip-path="url(#clip111)" style="stroke:#000000; stroke-linecap:round; stroke-linejoin:round; stroke-width:2; stroke-opacity:0.1; fill:none" points="1812.65,1486.45 1812.65,47.2441 "/>
<polyline clip-path="url(#clip111)" style="stroke:#000000; stroke-linecap:round; stroke-linejoin:round; stroke-width:2; stroke-opacity:0.1; fill:none" points="2352.76,1486.45 2352.76,47.2441 "/>
<polyline clip-path="url(#clip111)" style="stroke:#000000; stroke-linecap:round; stroke-linejoin:round; stroke-width:2; stroke-opacity:0.1; fill:none" points="192.339,1250.57 2352.76,1250.57 "/>
<polyline clip-path="url(#clip111)" style="stroke:#000000; stroke-linecap:round; stroke-linejoin:round; stroke-width:2; stroke-opacity:0.1; fill:none" points="192.339,972.46 2352.76,972.46 "/>
<polyline clip-path="url(#clip111)" style="stroke:#000000; stroke-linecap:round; stroke-linejoin:round; stroke-width:2; stroke-opacity:0.1; fill:none" points="192.339,694.346 2352.76,694.346 "/>
<polyline clip-path="url(#clip111)" style="stroke:#000000; stroke-linecap:round; stroke-linejoin:round; stroke-width:2; stroke-opacity:0.1; fill:none" points="192.339,416.232 2352.76,416.232 "/>
<polyline clip-path="url(#clip111)" style="stroke:#000000; stroke-linecap:round; stroke-linejoin:round; stroke-width:2; stroke-opacity:0.1; fill:none" points="192.339,138.118 2352.76,138.118 "/>
<polyline clip-path="url(#clip110)" style="stroke:#000000; stroke-linecap:round; stroke-linejoin:round; stroke-width:4; stroke-opacity:1; fill:none" points="192.339,1486.45 2352.76,1486.45 "/>
<polyline clip-path="url(#clip110)" style="stroke:#000000; stroke-linecap:round; stroke-linejoin:round; stroke-width:4; stroke-opacity:1; fill:none" points="192.339,1486.45 192.339,1467.55 "/>
<polyline clip-path="url(#clip110)" style="stroke:#000000; stroke-linecap:round; stroke-linejoin:round; stroke-width:4; stroke-opacity:1; fill:none" points="732.443,1486.45 732.443,1467.55 "/>
<polyline clip-path="url(#clip110)" style="stroke:#000000; stroke-linecap:round; stroke-linejoin:round; stroke-width:4; stroke-opacity:1; fill:none" points="1272.55,1486.45 1272.55,1467.55 "/>
<polyline clip-path="url(#clip110)" style="stroke:#000000; stroke-linecap:round; stroke-linejoin:round; stroke-width:4; stroke-opacity:1; fill:none" points="1812.65,1486.45 1812.65,1467.55 "/>
<polyline clip-path="url(#clip110)" style="stroke:#000000; stroke-linecap:round; stroke-linejoin:round; stroke-width:4; stroke-opacity:1; fill:none" points="2352.76,1486.45 2352.76,1467.55 "/>
<path clip-path="url(#clip110)" d="M146.402 1532.02 L176.077 1532.02 L176.077 1535.95 L146.402 1535.95 L146.402 1532.02 Z" fill="#000000" fill-rule="nonzero" fill-opacity="1" /><path clip-path="url(#clip110)" d="M186.98 1544.91 L194.619 1544.91 L194.619 1518.55 L186.309 1520.21 L186.309 1515.95 L194.573 1514.29 L199.248 1514.29 L199.248 1544.91 L206.887 1544.91 L206.887 1548.85 L186.98 1548.85 L186.98 1544.91 Z" fill="#000000" fill-rule="nonzero" fill-opacity="1" /><path clip-path="url(#clip110)" d="M226.332 1517.37 Q222.721 1517.37 220.892 1520.93 Q219.086 1524.47 219.086 1531.6 Q219.086 1538.71 220.892 1542.27 Q222.721 1545.82 226.332 1545.82 Q229.966 1545.82 231.771 1542.27 Q233.6 1538.71 233.6 1531.6 Q233.6 1524.47 231.771 1520.93 Q229.966 1517.37 226.332 1517.37 M226.332 1513.66 Q232.142 1513.66 235.197 1518.27 Q238.276 1522.85 238.276 1531.6 Q238.276 1540.33 235.197 1544.94 Q232.142 1549.52 226.332 1549.52 Q220.522 1549.52 217.443 1544.94 Q214.387 1540.33 214.387 1531.6 Q214.387 1522.85 217.443 1518.27 Q220.522 1513.66 226.332 1513.66 Z" fill="#000000" fill-rule="nonzero" fill-opacity="1" /><path clip-path="url(#clip110)" d="M702.084 1532.02 L731.76 1532.02 L731.76 1535.95 L702.084 1535.95 L702.084 1532.02 Z" fill="#000000" fill-rule="nonzero" fill-opacity="1" /><path clip-path="url(#clip110)" d="M741.899 1514.29 L760.255 1514.29 L760.255 1518.22 L746.181 1518.22 L746.181 1526.7 Q747.2 1526.35 748.218 1526.19 Q749.237 1526 750.255 1526 Q756.042 1526 759.422 1529.17 Q762.802 1532.34 762.802 1537.76 Q762.802 1543.34 759.329 1546.44 Q755.857 1549.52 749.538 1549.52 Q747.362 1549.52 745.093 1549.15 Q742.848 1548.78 740.441 1548.04 L740.441 1543.34 Q742.524 1544.47 744.746 1545.03 Q746.968 1545.58 749.445 1545.58 Q753.45 1545.58 755.788 1543.48 Q758.126 1541.37 758.126 1537.76 Q758.126 1534.15 755.788 1532.04 Q753.45 1529.94 749.445 1529.94 Q747.57 1529.94 745.695 1530.35 Q743.843 1530.77 741.899 1531.65 L741.899 1514.29 Z" fill="#000000" fill-rule="nonzero" fill-opacity="1" /><path clip-path="url(#clip110)" d="M1272.55 1517.37 Q1268.94 1517.37 1267.11 1520.93 Q1265.3 1524.47 1265.3 1531.6 Q1265.3 1538.71 1267.11 1542.27 Q1268.94 1545.82 1272.55 1545.82 Q1276.18 1545.82 1277.99 1542.27 Q1279.82 1538.71 1279.82 1531.6 Q1279.82 1524.47 1277.99 1520.93 Q1276.18 1517.37 1272.55 1517.37 M1272.55 1513.66 Q1278.36 1513.66 1281.41 1518.27 Q1284.49 1522.85 1284.49 1531.6 Q1284.49 1540.33 1281.41 1544.94 Q1278.36 1549.52 1272.55 1549.52 Q1266.74 1549.52 1263.66 1544.94 Q1260.6 1540.33 1260.6 1531.6 Q1260.6 1522.85 1263.66 1518.27 Q1266.74 1513.66 1272.55 1513.66 Z" fill="#000000" fill-rule="nonzero" fill-opacity="1" /><path clip-path="url(#clip110)" d="M1802.93 1514.29 L1821.29 1514.29 L1821.29 1518.22 L1807.21 1518.22 L1807.21 1526.7 Q1808.23 1526.35 1809.25 1526.19 Q1810.27 1526 1811.29 1526 Q1817.07 1526 1820.45 1529.17 Q1823.83 1532.34 1823.83 1537.76 Q1823.83 1543.34 1820.36 1546.44 Q1816.89 1549.52 1810.57 1549.52 Q1808.39 1549.52 1806.12 1549.15 Q1803.88 1548.78 1801.47 1548.04 L1801.47 1543.34 Q1803.55 1544.47 1805.78 1545.03 Q1808 1545.58 1810.48 1545.58 Q1814.48 1545.58 1816.82 1543.48 Q1819.16 1541.37 1819.16 1537.76 Q1819.16 1534.15 1816.82 1532.04 Q1814.48 1529.94 1810.48 1529.94 Q1808.6 1529.94 1806.73 1530.35 Q1804.87 1530.77 1802.93 1531.65 L1802.93 1514.29 Z" fill="#000000" fill-rule="nonzero" fill-opacity="1" /><path clip-path="url(#clip110)" d="M2327.44 1544.91 L2335.08 1544.91 L2335.08 1518.55 L2326.77 1520.21 L2326.77 1515.95 L2335.04 1514.29 L2339.71 1514.29 L2339.71 1544.91 L2347.35 1544.91 L2347.35 1548.85 L2327.44 1548.85 L2327.44 1544.91 Z" fill="#000000" fill-rule="nonzero" fill-opacity="1" /><path clip-path="url(#clip110)" d="M2366.8 1517.37 Q2363.18 1517.37 2361.36 1520.93 Q2359.55 1524.47 2359.55 1531.6 Q2359.55 1538.71 2361.36 1542.27 Q2363.18 1545.82 2366.8 1545.82 Q2370.43 1545.82 2372.23 1542.27 Q2374.06 1538.71 2374.06 1531.6 Q2374.06 1524.47 2372.23 1520.93 Q2370.43 1517.37 2366.8 1517.37 M2366.8 1513.66 Q2372.61 1513.66 2375.66 1518.27 Q2378.74 1522.85 2378.74 1531.6 Q2378.74 1540.33 2375.66 1544.94 Q2372.61 1549.52 2366.8 1549.52 Q2360.99 1549.52 2357.91 1544.94 Q2354.85 1540.33 2354.85 1531.6 Q2354.85 1522.85 2357.91 1518.27 Q2360.99 1513.66 2366.8 1513.66 Z" fill="#000000" fill-rule="nonzero" fill-opacity="1" /><polyline clip-path="url(#clip110)" style="stroke:#000000; stroke-linecap:round; stroke-linejoin:round; stroke-width:4; stroke-opacity:1; fill:none" points="192.339,1486.45 192.339,47.2441 "/>
<polyline clip-path="url(#clip110)" style="stroke:#000000; stroke-linecap:round; stroke-linejoin:round; stroke-width:4; stroke-opacity:1; fill:none" points="192.339,1250.57 211.236,1250.57 "/>
<polyline clip-path="url(#clip110)" style="stroke:#000000; stroke-linecap:round; stroke-linejoin:round; stroke-width:4; stroke-opacity:1; fill:none" points="192.339,972.46 211.236,972.46 "/>
<polyline clip-path="url(#clip110)" style="stroke:#000000; stroke-linecap:round; stroke-linejoin:round; stroke-width:4; stroke-opacity:1; fill:none" points="192.339,694.346 211.236,694.346 "/>
<polyline clip-path="url(#clip110)" style="stroke:#000000; stroke-linecap:round; stroke-linejoin:round; stroke-width:4; stroke-opacity:1; fill:none" points="192.339,416.232 211.236,416.232 "/>
<polyline clip-path="url(#clip110)" style="stroke:#000000; stroke-linecap:round; stroke-linejoin:round; stroke-width:4; stroke-opacity:1; fill:none" points="192.339,138.118 211.236,138.118 "/>
<path clip-path="url(#clip110)" d="M50.9921 1251.03 L80.6679 1251.03 L80.6679 1254.96 L50.9921 1254.96 L50.9921 1251.03 Z" fill="#000000" fill-rule="nonzero" fill-opacity="1" /><path clip-path="url(#clip110)" d="M100.76 1236.37 Q97.1493 1236.37 95.3206 1239.94 Q93.515 1243.48 93.515 1250.61 Q93.515 1257.71 95.3206 1261.28 Q97.1493 1264.82 100.76 1264.82 Q104.395 1264.82 106.2 1261.28 Q108.029 1257.71 108.029 1250.61 Q108.029 1243.48 106.2 1239.94 Q104.395 1236.37 100.76 1236.37 M100.76 1232.67 Q106.571 1232.67 109.626 1237.28 Q112.705 1241.86 112.705 1250.61 Q112.705 1259.34 109.626 1263.94 Q106.571 1268.52 100.76 1268.52 Q94.9502 1268.52 91.8715 1263.94 Q88.816 1259.34 88.816 1250.61 Q88.816 1241.86 91.8715 1237.28 Q94.9502 1232.67 100.76 1232.67 Z" fill="#000000" fill-rule="nonzero" fill-opacity="1" /><path clip-path="url(#clip110)" d="M120.922 1261.97 L125.807 1261.97 L125.807 1267.85 L120.922 1267.85 L120.922 1261.97 Z" fill="#000000" fill-rule="nonzero" fill-opacity="1" /><path clip-path="url(#clip110)" d="M140.019 1263.92 L156.339 1263.92 L156.339 1267.85 L134.394 1267.85 L134.394 1263.92 Q137.056 1261.16 141.64 1256.53 Q146.246 1251.88 147.427 1250.54 Q149.672 1248.02 150.552 1246.28 Q151.455 1244.52 151.455 1242.83 Q151.455 1240.08 149.51 1238.34 Q147.589 1236.6 144.487 1236.6 Q142.288 1236.6 139.834 1237.37 Q137.404 1238.13 134.626 1239.68 L134.626 1234.96 Q137.45 1233.83 139.904 1233.25 Q142.357 1232.67 144.394 1232.67 Q149.765 1232.67 152.959 1235.35 Q156.154 1238.04 156.154 1242.53 Q156.154 1244.66 155.343 1246.58 Q154.556 1248.48 152.45 1251.07 Q151.871 1251.74 148.769 1254.96 Q145.668 1258.15 140.019 1263.92 Z" fill="#000000" fill-rule="nonzero" fill-opacity="1" /><path clip-path="url(#clip110)" d="M99.1632 958.258 Q95.5521 958.258 93.7234 961.823 Q91.9178 965.365 91.9178 972.494 Q91.9178 979.601 93.7234 983.166 Q95.5521 986.707 99.1632 986.707 Q102.797 986.707 104.603 983.166 Q106.432 979.601 106.432 972.494 Q106.432 965.365 104.603 961.823 Q102.797 958.258 99.1632 958.258 M99.1632 954.555 Q104.973 954.555 108.029 959.161 Q111.108 963.744 111.108 972.494 Q111.108 981.221 108.029 985.828 Q104.973 990.411 99.1632 990.411 Q93.353 990.411 90.2743 985.828 Q87.2188 981.221 87.2188 972.494 Q87.2188 963.744 90.2743 959.161 Q93.353 954.555 99.1632 954.555 Z" fill="#000000" fill-rule="nonzero" fill-opacity="1" /><path clip-path="url(#clip110)" d="M119.325 983.86 L124.209 983.86 L124.209 989.74 L119.325 989.74 L119.325 983.86 Z" fill="#000000" fill-rule="nonzero" fill-opacity="1" /><path clip-path="url(#clip110)" d="M144.394 958.258 Q140.783 958.258 138.955 961.823 Q137.149 965.365 137.149 972.494 Q137.149 979.601 138.955 983.166 Q140.783 986.707 144.394 986.707 Q148.029 986.707 149.834 983.166 Q151.663 979.601 151.663 972.494 Q151.663 965.365 149.834 961.823 Q148.029 958.258 144.394 958.258 M144.394 954.555 Q150.205 954.555 153.26 959.161 Q156.339 963.744 156.339 972.494 Q156.339 981.221 153.26 985.828 Q150.205 990.411 144.394 990.411 Q138.584 990.411 135.506 985.828 Q132.45 981.221 132.45 972.494 Q132.45 963.744 135.506 959.161 Q138.584 954.555 144.394 954.555 Z" fill="#000000" fill-rule="nonzero" fill-opacity="1" /><path clip-path="url(#clip110)" d="M100.76 680.144 Q97.1493 680.144 95.3206 683.709 Q93.515 687.251 93.515 694.38 Q93.515 701.487 95.3206 705.052 Q97.1493 708.593 100.76 708.593 Q104.395 708.593 106.2 705.052 Q108.029 701.487 108.029 694.38 Q108.029 687.251 106.2 683.709 Q104.395 680.144 100.76 680.144 M100.76 676.441 Q106.571 676.441 109.626 681.047 Q112.705 685.631 112.705 694.38 Q112.705 703.107 109.626 707.714 Q106.571 712.297 100.76 712.297 Q94.9502 712.297 91.8715 707.714 Q88.816 703.107 88.816 694.38 Q88.816 685.631 91.8715 681.047 Q94.9502 676.441 100.76 676.441 Z" fill="#000000" fill-rule="nonzero" fill-opacity="1" /><path clip-path="url(#clip110)" d="M120.922 705.746 L125.807 705.746 L125.807 711.626 L120.922 711.626 L120.922 705.746 Z" fill="#000000" fill-rule="nonzero" fill-opacity="1" /><path clip-path="url(#clip110)" d="M140.019 707.691 L156.339 707.691 L156.339 711.626 L134.394 711.626 L134.394 707.691 Q137.056 704.936 141.64 700.306 Q146.246 695.654 147.427 694.311 Q149.672 691.788 150.552 690.052 Q151.455 688.293 151.455 686.603 Q151.455 683.848 149.51 682.112 Q147.589 680.376 144.487 680.376 Q142.288 680.376 139.834 681.14 Q137.404 681.904 134.626 683.455 L134.626 678.732 Q137.45 677.598 139.904 677.019 Q142.357 676.441 144.394 676.441 Q149.765 676.441 152.959 679.126 Q156.154 681.811 156.154 686.302 Q156.154 688.431 155.343 690.353 Q154.556 692.251 152.45 694.843 Q151.871 695.515 148.769 698.732 Q145.668 701.927 140.019 707.691 Z" fill="#000000" fill-rule="nonzero" fill-opacity="1" /><path clip-path="url(#clip110)" d="M98.6771 402.03 Q95.066 402.03 93.2373 405.595 Q91.4317 409.137 91.4317 416.267 Q91.4317 423.373 93.2373 426.938 Q95.066 430.479 98.6771 430.479 Q102.311 430.479 104.117 426.938 Q105.946 423.373 105.946 416.267 Q105.946 409.137 104.117 405.595 Q102.311 402.03 98.6771 402.03 M98.6771 398.327 Q104.487 398.327 107.543 402.933 Q110.621 407.517 110.621 416.267 Q110.621 424.993 107.543 429.6 Q104.487 434.183 98.6771 434.183 Q92.8669 434.183 89.7882 429.6 Q86.7327 424.993 86.7327 416.267 Q86.7327 407.517 89.7882 402.933 Q92.8669 398.327 98.6771 398.327 Z" fill="#000000" fill-rule="nonzero" fill-opacity="1" /><path clip-path="url(#clip110)" d="M118.839 427.632 L123.723 427.632 L123.723 433.512 L118.839 433.512 L118.839 427.632 Z" fill="#000000" fill-rule="nonzero" fill-opacity="1" /><path clip-path="url(#clip110)" d="M146.756 403.026 L134.95 421.475 L146.756 421.475 L146.756 403.026 M145.529 398.952 L151.408 398.952 L151.408 421.475 L156.339 421.475 L156.339 425.364 L151.408 425.364 L151.408 433.512 L146.756 433.512 L146.756 425.364 L131.154 425.364 L131.154 420.85 L145.529 398.952 Z" fill="#000000" fill-rule="nonzero" fill-opacity="1" /><path clip-path="url(#clip110)" d="M99.0011 123.917 Q95.39 123.917 93.5613 127.481 Q91.7558 131.023 91.7558 138.153 Q91.7558 145.259 93.5613 148.824 Q95.39 152.365 99.0011 152.365 Q102.635 152.365 104.441 148.824 Q106.27 145.259 106.27 138.153 Q106.27 131.023 104.441 127.481 Q102.635 123.917 99.0011 123.917 M99.0011 120.213 Q104.811 120.213 107.867 124.819 Q110.946 129.403 110.946 138.153 Q110.946 146.879 107.867 151.486 Q104.811 156.069 99.0011 156.069 Q93.191 156.069 90.1123 151.486 Q87.0567 146.879 87.0567 138.153 Q87.0567 129.403 90.1123 124.819 Q93.191 120.213 99.0011 120.213 Z" fill="#000000" fill-rule="nonzero" fill-opacity="1" /><path clip-path="url(#clip110)" d="M119.163 149.518 L124.047 149.518 L124.047 155.398 L119.163 155.398 L119.163 149.518 Z" fill="#000000" fill-rule="nonzero" fill-opacity="1" /><path clip-path="url(#clip110)" d="M144.811 136.254 Q141.663 136.254 139.811 138.407 Q137.982 140.56 137.982 144.31 Q137.982 148.037 139.811 150.213 Q141.663 152.365 144.811 152.365 Q147.959 152.365 149.788 150.213 Q151.64 148.037 151.64 144.31 Q151.64 140.56 149.788 138.407 Q147.959 136.254 144.811 136.254 M154.093 121.602 L154.093 125.861 Q152.334 125.028 150.529 124.588 Q148.746 124.148 146.987 124.148 Q142.357 124.148 139.904 127.273 Q137.473 130.398 137.126 136.717 Q138.492 134.704 140.552 133.639 Q142.612 132.551 145.089 132.551 Q150.297 132.551 153.306 135.722 Q156.339 138.87 156.339 144.31 Q156.339 149.634 153.191 152.852 Q150.043 156.069 144.811 156.069 Q138.816 156.069 135.644 151.486 Q132.473 146.879 132.473 138.153 Q132.473 129.958 136.362 125.097 Q140.251 120.213 146.802 120.213 Q148.561 120.213 150.343 120.56 Q152.149 120.907 154.093 121.602 Z" fill="#000000" fill-rule="nonzero" fill-opacity="1" /><polyline clip-path="url(#clip111)" style="stroke:#009af9; stroke-linecap:round; stroke-linejoin:round; stroke-width:4; stroke-opacity:1; fill:none" points="1272.55,87.9763 1380.57,1445.72 1488.59,877.242 1596.61,981.971 1704.63,971.901 1812.65,972.481 1920.67,972.459 2028.69,972.46 2136.71,972.46 2244.74,972.46 2352.76,972.46 2460.78,972.46 2568.8,972.46 2676.82,972.46 2784.84,972.46 2892.86,972.46 3000.88,972.46 3108.9,972.46 3216.92,972.46 3324.94,972.46 3432.96,972.46 3540.99,972.46 3649.01,972.46 3757.03,972.46 3865.05,972.46 3973.07,972.46 4081.09,972.46 4189.11,972.46 4297.13,972.46 4405.15,972.46 4513.17,972.46 4621.19,972.46 -2076.1,972.46 -1968.08,972.46 -1860.06,972.46 -1752.04,972.46 -1644.02,972.46 -1535.99,972.46 -1427.97,972.46 -1319.95,972.46 -1211.93,972.46 -1103.91,972.46 -995.891,972.46 -887.87,972.46 -779.849,972.46 -671.828,972.46 -563.807,972.46 -455.786,972.46 -347.765,972.46 -239.745,972.46 -131.724,972.46 -23.7029,972.46 84.3179,972.46 192.339,972.46 300.36,972.46 408.38,972.46 516.401,972.46 624.422,972.459 732.443,972.481 840.464,971.901 948.485,981.971 1056.51,877.242 1164.53,1445.72 "/>
<polyline clip-path="url(#clip111)" style="stroke:#e26f46; stroke-linecap:round; stroke-linejoin:round; stroke-width:4; stroke-opacity:1; fill:none" points="1272.55,317.272 1380.57,1323.03 1488.59,901.926 1596.61,979.505 1704.63,972.046 1812.65,972.476 1920.67,972.459 2028.69,972.46 2136.71,972.46 2244.74,972.46 2352.76,972.46 2460.78,972.46 2568.8,972.46 2676.82,972.46 2784.84,972.46 2892.86,972.46 3000.88,972.46 3108.9,972.46 3216.92,972.46 3324.94,972.46 3432.96,972.46 3540.99,972.46 3649.01,972.46 3757.03,972.46 3865.05,972.46 3973.07,972.46 4081.09,972.46 4189.11,972.46 4297.13,972.46 4405.15,972.46 4513.17,972.46 4621.19,972.46 -2076.1,972.46 -1968.08,972.46 -1860.06,972.46 -1752.04,972.46 -1644.02,972.46 -1535.99,972.46 -1427.97,972.46 -1319.95,972.46 -1211.93,972.46 -1103.91,972.46 -995.891,972.46 -887.87,972.46 -779.849,972.46 -671.828,972.46 -563.807,972.46 -455.786,972.46 -347.765,972.46 -239.745,972.46 -131.724,972.46 -23.7029,972.46 84.3179,972.46 192.339,972.46 300.36,972.46 408.38,972.46 516.401,972.46 624.422,972.459 732.443,972.476 840.464,972.046 948.485,979.505 1056.51,901.926 1164.53,1323.03 "/>
<path clip-path="url(#clip110)" d="M1719.7 250.738 L2280.74 250.738 L2280.74 95.2176 L1719.7 95.2176  Z" fill="#ffffff" fill-rule="evenodd" fill-opacity="1"/>
<polyline clip-path="url(#clip110)" style="stroke:#000000; stroke-linecap:round; stroke-linejoin:round; stroke-width:4; stroke-opacity:1; fill:none" points="1719.7,250.738 2280.74,250.738 2280.74,95.2176 1719.7,95.2176 1719.7,250.738 "/>
<polyline clip-path="url(#clip110)" style="stroke:#009af9; stroke-linecap:round; stroke-linejoin:round; stroke-width:4; stroke-opacity:1; fill:none" points="1743.71,147.058 1887.73,147.058 "/>
<path clip-path="url(#clip110)" d="M1926.92 142.393 Q1926.21 141.977 1925.35 141.791 Q1924.52 141.583 1923.5 141.583 Q1919.89 141.583 1917.94 143.944 Q1916.02 146.282 1916.02 150.68 L1916.02 164.338 L1911.74 164.338 L1911.74 138.412 L1916.02 138.412 L1916.02 142.44 Q1917.36 140.078 1919.52 138.944 Q1921.67 137.787 1924.75 137.787 Q1925.19 137.787 1925.72 137.856 Q1926.25 137.903 1926.9 138.018 L1926.92 142.393 Z" fill="#000000" fill-rule="nonzero" fill-opacity="1" /><path clip-path="url(#clip110)" d="M1952.53 150.31 L1952.53 152.393 L1932.94 152.393 Q1933.22 156.791 1935.58 159.106 Q1937.97 161.398 1942.2 161.398 Q1944.66 161.398 1946.95 160.796 Q1949.26 160.194 1951.53 158.99 L1951.53 163.018 Q1949.24 163.99 1946.83 164.5 Q1944.42 165.009 1941.95 165.009 Q1935.74 165.009 1932.11 161.398 Q1928.5 157.787 1928.5 151.629 Q1928.5 145.264 1931.92 141.537 Q1935.37 137.787 1941.21 137.787 Q1946.44 137.787 1949.47 141.166 Q1952.53 144.523 1952.53 150.31 M1948.27 149.06 Q1948.22 145.565 1946.3 143.481 Q1944.4 141.398 1941.25 141.398 Q1937.69 141.398 1935.54 143.412 Q1933.41 145.426 1933.08 149.083 L1948.27 149.06 Z" fill="#000000" fill-rule="nonzero" fill-opacity="1" /><path clip-path="url(#clip110)" d="M1971.3 151.305 Q1966.14 151.305 1964.15 152.486 Q1962.16 153.666 1962.16 156.514 Q1962.16 158.782 1963.64 160.125 Q1965.14 161.444 1967.71 161.444 Q1971.25 161.444 1973.38 158.944 Q1975.54 156.421 1975.54 152.254 L1975.54 151.305 L1971.3 151.305 M1979.79 149.546 L1979.79 164.338 L1975.54 164.338 L1975.54 160.402 Q1974.08 162.763 1971.9 163.898 Q1969.73 165.009 1966.58 165.009 Q1962.6 165.009 1960.23 162.787 Q1957.9 160.541 1957.9 156.791 Q1957.9 152.416 1960.81 150.194 Q1963.75 147.972 1969.56 147.972 L1975.54 147.972 L1975.54 147.555 Q1975.54 144.615 1973.59 143.018 Q1971.67 141.398 1968.17 141.398 Q1965.95 141.398 1963.85 141.93 Q1961.74 142.463 1959.79 143.527 L1959.79 139.592 Q1962.13 138.69 1964.33 138.25 Q1966.53 137.787 1968.61 137.787 Q1974.24 137.787 1977.02 140.703 Q1979.79 143.62 1979.79 149.546 Z" fill="#000000" fill-rule="nonzero" fill-opacity="1" /><path clip-path="url(#clip110)" d="M1988.57 128.319 L1992.83 128.319 L1992.83 164.338 L1988.57 164.338 L1988.57 128.319 Z" fill="#000000" fill-rule="nonzero" fill-opacity="1" /><path clip-path="url(#clip110)" d="M2020.93 160.449 L2020.93 174.199 L2016.65 174.199 L2016.65 138.412 L2020.93 138.412 L2020.93 142.347 Q2022.27 140.032 2024.31 138.921 Q2026.37 137.787 2029.22 137.787 Q2033.94 137.787 2036.88 141.537 Q2039.84 145.287 2039.84 151.398 Q2039.84 157.509 2036.88 161.259 Q2033.94 165.009 2029.22 165.009 Q2026.37 165.009 2024.31 163.898 Q2022.27 162.763 2020.93 160.449 M2035.42 151.398 Q2035.42 146.699 2033.47 144.037 Q2031.55 141.352 2028.17 141.352 Q2024.79 141.352 2022.85 144.037 Q2020.93 146.699 2020.93 151.398 Q2020.93 156.097 2022.85 158.782 Q2024.79 161.444 2028.17 161.444 Q2031.55 161.444 2033.47 158.782 Q2035.42 156.097 2035.42 151.398 Z" fill="#000000" fill-rule="nonzero" fill-opacity="1" /><path clip-path="url(#clip110)" d="M2058.68 151.305 Q2053.52 151.305 2051.53 152.486 Q2049.54 153.666 2049.54 156.514 Q2049.54 158.782 2051.02 160.125 Q2052.53 161.444 2055.09 161.444 Q2058.64 161.444 2060.77 158.944 Q2062.92 156.421 2062.92 152.254 L2062.92 151.305 L2058.68 151.305 M2067.18 149.546 L2067.18 164.338 L2062.92 164.338 L2062.92 160.402 Q2061.46 162.763 2059.28 163.898 Q2057.11 165.009 2053.96 165.009 Q2049.98 165.009 2047.62 162.787 Q2045.28 160.541 2045.28 156.791 Q2045.28 152.416 2048.2 150.194 Q2051.14 147.972 2056.95 147.972 L2062.92 147.972 L2062.92 147.555 Q2062.92 144.615 2060.97 143.018 Q2059.05 141.398 2055.56 141.398 Q2053.34 141.398 2051.23 141.93 Q2049.12 142.463 2047.18 143.527 L2047.18 139.592 Q2049.52 138.69 2051.72 138.25 Q2053.91 137.787 2056 137.787 Q2061.62 137.787 2064.4 140.703 Q2067.18 143.62 2067.18 149.546 Z" fill="#000000" fill-rule="nonzero" fill-opacity="1" /><path clip-path="url(#clip110)" d="M2090.97 142.393 Q2090.26 141.977 2089.4 141.791 Q2088.57 141.583 2087.55 141.583 Q2083.94 141.583 2081.99 143.944 Q2080.07 146.282 2080.07 150.68 L2080.07 164.338 L2075.79 164.338 L2075.79 138.412 L2080.07 138.412 L2080.07 142.44 Q2081.41 140.078 2083.57 138.944 Q2085.72 137.787 2088.8 137.787 Q2089.24 137.787 2089.77 137.856 Q2090.3 137.903 2090.95 138.018 L2090.97 142.393 Z" fill="#000000" fill-rule="nonzero" fill-opacity="1" /><path clip-path="url(#clip110)" d="M2099.65 131.051 L2099.65 138.412 L2108.43 138.412 L2108.43 141.722 L2099.65 141.722 L2099.65 155.796 Q2099.65 158.967 2100.51 159.87 Q2101.39 160.773 2104.05 160.773 L2108.43 160.773 L2108.43 164.338 L2104.05 164.338 Q2099.12 164.338 2097.25 162.509 Q2095.37 160.657 2095.37 155.796 L2095.37 141.722 L2092.25 141.722 L2092.25 138.412 L2095.37 138.412 L2095.37 131.051 L2099.65 131.051 Z" fill="#000000" fill-rule="nonzero" fill-opacity="1" /><polyline clip-path="url(#clip110)" style="stroke:#e26f46; stroke-linecap:round; stroke-linejoin:round; stroke-width:4; stroke-opacity:1; fill:none" points="1743.71,198.898 1887.73,198.898 "/>
<path clip-path="url(#clip110)" d="M1911.74 190.252 L1916 190.252 L1916 216.178 L1911.74 216.178 L1911.74 190.252 M1911.74 180.159 L1916 180.159 L1916 185.553 L1911.74 185.553 L1911.74 180.159 Z" fill="#000000" fill-rule="nonzero" fill-opacity="1" /><path clip-path="url(#clip110)" d="M1945.1 195.229 Q1946.69 192.358 1948.91 190.993 Q1951.14 189.627 1954.15 189.627 Q1958.2 189.627 1960.4 192.474 Q1962.6 195.298 1962.6 200.529 L1962.6 216.178 L1958.31 216.178 L1958.31 200.668 Q1958.31 196.942 1956.99 195.136 Q1955.67 193.33 1952.97 193.33 Q1949.66 193.33 1947.73 195.53 Q1945.81 197.729 1945.81 201.525 L1945.81 216.178 L1941.53 216.178 L1941.53 200.668 Q1941.53 196.918 1940.21 195.136 Q1938.89 193.33 1936.14 193.33 Q1932.87 193.33 1930.95 195.553 Q1929.03 197.752 1929.03 201.525 L1929.03 216.178 L1924.75 216.178 L1924.75 190.252 L1929.03 190.252 L1929.03 194.28 Q1930.49 191.895 1932.53 190.761 Q1934.56 189.627 1937.36 189.627 Q1940.19 189.627 1942.16 191.062 Q1944.15 192.497 1945.1 195.229 Z" fill="#000000" fill-rule="nonzero" fill-opacity="1" /><path clip-path="url(#clip110)" d="M1982.87 203.145 Q1977.71 203.145 1975.72 204.326 Q1973.73 205.506 1973.73 208.354 Q1973.73 210.622 1975.21 211.965 Q1976.72 213.284 1979.29 213.284 Q1982.83 213.284 1984.96 210.784 Q1987.11 208.261 1987.11 204.094 L1987.11 203.145 L1982.87 203.145 M1991.37 201.386 L1991.37 216.178 L1987.11 216.178 L1987.11 212.242 Q1985.65 214.603 1983.47 215.738 Q1981.3 216.849 1978.15 216.849 Q1974.17 216.849 1971.81 214.627 Q1969.47 212.381 1969.47 208.631 Q1969.47 204.256 1972.39 202.034 Q1975.33 199.812 1981.14 199.812 L1987.11 199.812 L1987.11 199.395 Q1987.11 196.455 1985.16 194.858 Q1983.24 193.238 1979.75 193.238 Q1977.53 193.238 1975.42 193.77 Q1973.31 194.303 1971.37 195.367 L1971.37 191.432 Q1973.71 190.53 1975.91 190.09 Q1978.1 189.627 1980.19 189.627 Q1985.81 189.627 1988.59 192.543 Q1991.37 195.46 1991.37 201.386 Z" fill="#000000" fill-rule="nonzero" fill-opacity="1" /><path clip-path="url(#clip110)" d="M2017.2 202.914 Q2017.2 198.284 2015.28 195.738 Q2013.38 193.192 2009.93 193.192 Q2006.51 193.192 2004.59 195.738 Q2002.69 198.284 2002.69 202.914 Q2002.69 207.52 2004.59 210.066 Q2006.51 212.613 2009.93 212.613 Q2013.38 212.613 2015.28 210.066 Q2017.2 207.52 2017.2 202.914 M2021.46 212.96 Q2021.46 219.58 2018.52 222.798 Q2015.58 226.039 2009.52 226.039 Q2007.27 226.039 2005.28 225.691 Q2003.29 225.367 2001.41 224.673 L2001.41 220.529 Q2003.29 221.548 2005.12 222.034 Q2006.95 222.52 2008.85 222.52 Q2013.03 222.52 2015.12 220.321 Q2017.2 218.145 2017.2 213.724 L2017.2 211.617 Q2015.88 213.909 2013.82 215.043 Q2011.76 216.178 2008.89 216.178 Q2004.12 216.178 2001.21 212.543 Q1998.29 208.909 1998.29 202.914 Q1998.29 196.895 2001.21 193.261 Q2004.12 189.627 2008.89 189.627 Q2011.76 189.627 2013.82 190.761 Q2015.88 191.895 2017.2 194.187 L2017.2 190.252 L2021.46 190.252 L2021.46 212.96 Z" fill="#000000" fill-rule="nonzero" fill-opacity="1" /><path clip-path="url(#clip110)" d="M2030.23 190.252 L2034.49 190.252 L2034.49 216.178 L2030.23 216.178 L2030.23 190.252 M2030.23 180.159 L2034.49 180.159 L2034.49 185.553 L2030.23 185.553 L2030.23 180.159 Z" fill="#000000" fill-rule="nonzero" fill-opacity="1" /><path clip-path="url(#clip110)" d="M2064.96 200.529 L2064.96 216.178 L2060.7 216.178 L2060.7 200.668 Q2060.7 196.988 2059.26 195.159 Q2057.83 193.33 2054.96 193.33 Q2051.51 193.33 2049.52 195.53 Q2047.53 197.729 2047.53 201.525 L2047.53 216.178 L2043.24 216.178 L2043.24 190.252 L2047.53 190.252 L2047.53 194.28 Q2049.05 191.942 2051.11 190.784 Q2053.2 189.627 2055.91 189.627 Q2060.37 189.627 2062.66 192.405 Q2064.96 195.159 2064.96 200.529 Z" fill="#000000" fill-rule="nonzero" fill-opacity="1" /><path clip-path="url(#clip110)" d="M2085.23 203.145 Q2080.07 203.145 2078.08 204.326 Q2076.09 205.506 2076.09 208.354 Q2076.09 210.622 2077.57 211.965 Q2079.08 213.284 2081.65 213.284 Q2085.19 213.284 2087.32 210.784 Q2089.47 208.261 2089.47 204.094 L2089.47 203.145 L2085.23 203.145 M2093.73 201.386 L2093.73 216.178 L2089.47 216.178 L2089.47 212.242 Q2088.01 214.603 2085.84 215.738 Q2083.66 216.849 2080.51 216.849 Q2076.53 216.849 2074.17 214.627 Q2071.83 212.381 2071.83 208.631 Q2071.83 204.256 2074.75 202.034 Q2077.69 199.812 2083.5 199.812 L2089.47 199.812 L2089.47 199.395 Q2089.47 196.455 2087.53 194.858 Q2085.6 193.238 2082.11 193.238 Q2079.89 193.238 2077.78 193.77 Q2075.67 194.303 2073.73 195.367 L2073.73 191.432 Q2076.07 190.53 2078.27 190.09 Q2080.47 189.627 2082.55 189.627 Q2088.17 189.627 2090.95 192.543 Q2093.73 195.46 2093.73 201.386 Z" fill="#000000" fill-rule="nonzero" fill-opacity="1" /><path clip-path="url(#clip110)" d="M2117.53 194.233 Q2116.81 193.817 2115.95 193.631 Q2115.12 193.423 2114.1 193.423 Q2110.49 193.423 2108.54 195.784 Q2106.62 198.122 2106.62 202.52 L2106.62 216.178 L2102.34 216.178 L2102.34 190.252 L2106.62 190.252 L2106.62 194.28 Q2107.97 191.918 2110.12 190.784 Q2112.27 189.627 2115.35 189.627 Q2115.79 189.627 2116.32 189.696 Q2116.85 189.743 2117.5 189.858 L2117.53 194.233 Z" fill="#000000" fill-rule="nonzero" fill-opacity="1" /><path clip-path="url(#clip110)" d="M2132.78 218.585 Q2130.97 223.215 2129.26 224.627 Q2127.55 226.039 2124.68 226.039 L2121.28 226.039 L2121.28 222.474 L2123.78 222.474 Q2125.53 222.474 2126.51 221.64 Q2127.48 220.807 2128.66 217.705 L2129.42 215.761 L2118.94 190.252 L2123.45 190.252 L2131.55 210.529 L2139.65 190.252 L2144.17 190.252 L2132.78 218.585 Z" fill="#000000" fill-rule="nonzero" fill-opacity="1" /><path clip-path="url(#clip110)" d="M2169.24 212.289 L2169.24 226.039 L2164.96 226.039 L2164.96 190.252 L2169.24 190.252 L2169.24 194.187 Q2170.58 191.872 2172.62 190.761 Q2174.68 189.627 2177.52 189.627 Q2182.25 189.627 2185.19 193.377 Q2188.15 197.127 2188.15 203.238 Q2188.15 209.349 2185.19 213.099 Q2182.25 216.849 2177.52 216.849 Q2174.68 216.849 2172.62 215.738 Q2170.58 214.603 2169.24 212.289 M2183.73 203.238 Q2183.73 198.539 2181.78 195.877 Q2179.86 193.192 2176.48 193.192 Q2173.1 193.192 2171.16 195.877 Q2169.24 198.539 2169.24 203.238 Q2169.24 207.937 2171.16 210.622 Q2173.1 213.284 2176.48 213.284 Q2179.86 213.284 2181.78 210.622 Q2183.73 207.937 2183.73 203.238 Z" fill="#000000" fill-rule="nonzero" fill-opacity="1" /><path clip-path="url(#clip110)" d="M2206.99 203.145 Q2201.83 203.145 2199.84 204.326 Q2197.85 205.506 2197.85 208.354 Q2197.85 210.622 2199.33 211.965 Q2200.83 213.284 2203.4 213.284 Q2206.95 213.284 2209.08 210.784 Q2211.23 208.261 2211.23 204.094 L2211.23 203.145 L2206.99 203.145 M2215.49 201.386 L2215.49 216.178 L2211.23 216.178 L2211.23 212.242 Q2209.77 214.603 2207.59 215.738 Q2205.42 216.849 2202.27 216.849 Q2198.29 216.849 2195.93 214.627 Q2193.59 212.381 2193.59 208.631 Q2193.59 204.256 2196.51 202.034 Q2199.45 199.812 2205.26 199.812 L2211.23 199.812 L2211.23 199.395 Q2211.23 196.455 2209.28 194.858 Q2207.36 193.238 2203.87 193.238 Q2201.65 193.238 2199.54 193.77 Q2197.43 194.303 2195.49 195.367 L2195.49 191.432 Q2197.83 190.53 2200.02 190.09 Q2202.22 189.627 2204.31 189.627 Q2209.93 189.627 2212.71 192.543 Q2215.49 195.46 2215.49 201.386 Z" fill="#000000" fill-rule="nonzero" fill-opacity="1" /><path clip-path="url(#clip110)" d="M2239.28 194.233 Q2238.57 193.817 2237.71 193.631 Q2236.88 193.423 2235.86 193.423 Q2232.25 193.423 2230.3 195.784 Q2228.38 198.122 2228.38 202.52 L2228.38 216.178 L2224.1 216.178 L2224.1 190.252 L2228.38 190.252 L2228.38 194.28 Q2229.72 191.918 2231.88 190.784 Q2234.03 189.627 2237.11 189.627 Q2237.55 189.627 2238.08 189.696 Q2238.61 189.743 2239.26 189.858 L2239.28 194.233 Z" fill="#000000" fill-rule="nonzero" fill-opacity="1" /><path clip-path="url(#clip110)" d="M2247.96 182.891 L2247.96 190.252 L2256.74 190.252 L2256.74 193.562 L2247.96 193.562 L2247.96 207.636 Q2247.96 210.807 2248.82 211.71 Q2249.7 212.613 2252.36 212.613 L2256.74 212.613 L2256.74 216.178 L2252.36 216.178 Q2247.43 216.178 2245.56 214.349 Q2243.68 212.497 2243.68 207.636 L2243.68 193.562 L2240.56 193.562 L2240.56 190.252 L2243.68 190.252 L2243.68 182.891 L2247.96 182.891 Z" fill="#000000" fill-rule="nonzero" fill-opacity="1" /></svg>
