<?xml version="1.0" encoding="utf-8"?>
<svg xmlns="http://www.w3.org/2000/svg" xmlns:xlink="http://www.w3.org/1999/xlink" width="600" height="400" viewBox="0 0 2400 1600">
<defs>
  <clipPath id="clip590">
    <rect x="0" y="0" width="2400" height="1600"/>
  </clipPath>
</defs>
<path clip-path="url(#clip590)" d="M0 1600 L2400 1600 L2400 0 L0 0  Z" fill="#ffffff" fill-rule="evenodd" fill-opacity="1"/>
<defs>
  <clipPath id="clip591">
    <rect x="480" y="0" width="1681" height="1600"/>
  </clipPath>
</defs>
<path clip-path="url(#clip590)" d="M194.422 1486.45 L2352.76 1486.45 L2352.76 47.2441 L194.422 47.2441  Z" fill="#ffffff" fill-rule="evenodd" fill-opacity="1"/>
<defs>
  <clipPath id="clip592">
    <rect x="194" y="47" width="2159" height="1440"/>
  </clipPath>
</defs>
<polyline clip-path="url(#clip592)" style="stroke:#000000; stroke-linecap:round; stroke-linejoin:round; stroke-width:2; stroke-opacity:0.1; fill:none" points="255.507,1486.45 255.507,47.2441 "/>
<polyline clip-path="url(#clip592)" style="stroke:#000000; stroke-linecap:round; stroke-linejoin:round; stroke-width:2; stroke-opacity:0.1; fill:none" points="766.916,1486.45 766.916,47.2441 "/>
<polyline clip-path="url(#clip592)" style="stroke:#000000; stroke-linecap:round; stroke-linejoin:round; stroke-width:2; stroke-opacity:0.1; fill:none" points="1278.32,1486.45 1278.32,47.2441 "/>
<polyline clip-path="url(#clip592)" style="stroke:#000000; stroke-linecap:round; stroke-linejoin:round; stroke-width:2; stroke-opacity:0.1; fill:none" points="1789.73,1486.45 1789.73,47.2441 "/>
<polyline clip-path="url(#clip592)" style="stroke:#000000; stroke-linecap:round; stroke-linejoin:round; stroke-width:2; stroke-opacity:0.1; fill:none" points="2301.14,1486.45 2301.14,47.2441 "/>
<polyline clip-path="url(#clip590)" style="stroke:#000000; stroke-linecap:round; stroke-linejoin:round; stroke-width:4; stroke-opacity:1; fill:none" points="194.422,1486.45 2352.76,1486.45 "/>
<polyline clip-path="url(#clip590)" style="stroke:#000000; stroke-linecap:round; stroke-linejoin:round; stroke-width:4; stroke-opacity:1; fill:none" points="255.507,1486.45 255.507,1467.55 "/>
<polyline clip-path="url(#clip590)" style="stroke:#000000; stroke-linecap:round; stroke-linejoin:round; stroke-width:4; stroke-opacity:1; fill:none" points="766.916,1486.45 766.916,1467.55 "/>
<polyline clip-path="url(#clip590)" style="stroke:#000000; stroke-linecap:round; stroke-linejoin:round; stroke-width:4; stroke-opacity:1; fill:none" points="1278.32,1486.45 1278.32,1467.55 "/>
<polyline clip-path="url(#clip590)" style="stroke:#000000; stroke-linecap:round; stroke-linejoin:round; stroke-width:4; stroke-opacity:1; fill:none" points="1789.73,1486.45 1789.73,1467.55 "/>
<polyline clip-path="url(#clip590)" style="stroke:#000000; stroke-linecap:round; stroke-linejoin:round; stroke-width:4; stroke-opacity:1; fill:none" points="2301.14,1486.45 2301.14,1467.55 "/>
<path clip-path="url(#clip590)" d="M232.891 1517.37 Q229.28 1517.37 227.452 1520.93 Q225.646 1524.47 225.646 1531.6 Q225.646 1538.71 227.452 1542.27 Q229.28 1545.82 232.891 1545.82 Q236.526 1545.82 238.331 1542.27 Q240.16 1538.71 240.16 1531.6 Q240.16 1524.47 238.331 1520.93 Q236.526 1517.37 232.891 1517.37 M232.891 1513.66 Q238.702 1513.66 241.757 1518.27 Q244.836 1522.85 244.836 1531.6 Q244.836 1540.33 241.757 1544.94 Q238.702 1549.52 232.891 1549.52 Q227.081 1549.52 224.003 1544.94 Q220.947 1540.33 220.947 1531.6 Q220.947 1522.85 224.003 1518.27 Q227.081 1513.66 232.891 1513.66 Z" fill="#000000" fill-rule="nonzero" fill-opacity="1" /><path clip-path="url(#clip590)" d="M253.053 1542.97 L257.938 1542.97 L257.938 1548.85 L253.053 1548.85 L253.053 1542.97 Z" fill="#000000" fill-rule="nonzero" fill-opacity="1" /><path clip-path="url(#clip590)" d="M278.123 1517.37 Q274.512 1517.37 272.683 1520.93 Q270.877 1524.47 270.877 1531.6 Q270.877 1538.71 272.683 1542.27 Q274.512 1545.82 278.123 1545.82 Q281.757 1545.82 283.562 1542.27 Q285.391 1538.71 285.391 1531.6 Q285.391 1524.47 283.562 1520.93 Q281.757 1517.37 278.123 1517.37 M278.123 1513.66 Q283.933 1513.66 286.988 1518.27 Q290.067 1522.85 290.067 1531.6 Q290.067 1540.33 286.988 1544.94 Q283.933 1549.52 278.123 1549.52 Q272.312 1549.52 269.234 1544.94 Q266.178 1540.33 266.178 1531.6 Q266.178 1522.85 269.234 1518.27 Q272.312 1513.66 278.123 1513.66 Z" fill="#000000" fill-rule="nonzero" fill-opacity="1" /><path clip-path="url(#clip590)" d="M738.652 1544.91 L754.971 1544.91 L754.971 1548.85 L733.027 1548.85 L733.027 1544.91 Q735.689 1542.16 740.272 1537.53 Q744.879 1532.88 746.059 1531.53 Q748.305 1529.01 749.184 1527.27 Q750.087 1525.51 750.087 1523.82 Q750.087 1521.07 748.143 1519.33 Q746.221 1517.6 743.119 1517.6 Q740.92 1517.6 738.467 1518.36 Q736.036 1519.13 733.258 1520.68 L733.258 1515.95 Q736.082 1514.82 738.536 1514.24 Q740.99 1513.66 743.027 1513.66 Q748.397 1513.66 751.592 1516.35 Q754.786 1519.03 754.786 1523.52 Q754.786 1525.65 753.976 1527.57 Q753.189 1529.47 751.082 1532.07 Q750.504 1532.74 747.402 1535.95 Q744.3 1539.15 738.652 1544.91 Z" fill="#000000" fill-rule="nonzero" fill-opacity="1" /><path clip-path="url(#clip590)" d="M764.786 1542.97 L769.67 1542.97 L769.67 1548.85 L764.786 1548.85 L764.786 1542.97 Z" fill="#000000" fill-rule="nonzero" fill-opacity="1" /><path clip-path="url(#clip590)" d="M779.902 1514.29 L798.258 1514.29 L798.258 1518.22 L784.184 1518.22 L784.184 1526.7 Q785.203 1526.35 786.221 1526.19 Q787.24 1526 788.258 1526 Q794.045 1526 797.425 1529.17 Q800.804 1532.34 800.804 1537.76 Q800.804 1543.34 797.332 1546.44 Q793.86 1549.52 787.541 1549.52 Q785.365 1549.52 783.096 1549.15 Q780.851 1548.78 778.443 1548.04 L778.443 1543.34 Q780.527 1544.47 782.749 1545.03 Q784.971 1545.58 787.448 1545.58 Q791.453 1545.58 793.791 1543.48 Q796.128 1541.37 796.128 1537.76 Q796.128 1534.15 793.791 1532.04 Q791.453 1529.94 787.448 1529.94 Q785.573 1529.94 783.698 1530.35 Q781.846 1530.77 779.902 1531.65 L779.902 1514.29 Z" fill="#000000" fill-rule="nonzero" fill-opacity="1" /><path clip-path="url(#clip590)" d="M1245.49 1514.29 L1263.85 1514.29 L1263.85 1518.22 L1249.77 1518.22 L1249.77 1526.7 Q1250.79 1526.35 1251.81 1526.19 Q1252.83 1526 1253.85 1526 Q1259.63 1526 1263.01 1529.17 Q1266.39 1532.34 1266.39 1537.76 Q1266.39 1543.34 1262.92 1546.44 Q1259.45 1549.52 1253.13 1549.52 Q1250.95 1549.52 1248.68 1549.15 Q1246.44 1548.78 1244.03 1548.04 L1244.03 1543.34 Q1246.11 1544.47 1248.34 1545.03 Q1250.56 1545.58 1253.04 1545.58 Q1257.04 1545.58 1259.38 1543.48 Q1261.72 1541.37 1261.72 1537.76 Q1261.72 1534.15 1259.38 1532.04 Q1257.04 1529.94 1253.04 1529.94 Q1251.16 1529.94 1249.29 1530.35 Q1247.43 1530.77 1245.49 1531.65 L1245.49 1514.29 Z" fill="#000000" fill-rule="nonzero" fill-opacity="1" /><path clip-path="url(#clip590)" d="M1275.6 1542.97 L1280.49 1542.97 L1280.49 1548.85 L1275.6 1548.85 L1275.6 1542.97 Z" fill="#000000" fill-rule="nonzero" fill-opacity="1" /><path clip-path="url(#clip590)" d="M1300.67 1517.37 Q1297.06 1517.37 1295.23 1520.93 Q1293.43 1524.47 1293.43 1531.6 Q1293.43 1538.71 1295.23 1542.27 Q1297.06 1545.82 1300.67 1545.82 Q1304.31 1545.82 1306.11 1542.27 Q1307.94 1538.71 1307.94 1531.6 Q1307.94 1524.47 1306.11 1520.93 Q1304.31 1517.37 1300.67 1517.37 M1300.67 1513.66 Q1306.48 1513.66 1309.54 1518.27 Q1312.62 1522.85 1312.62 1531.6 Q1312.62 1540.33 1309.54 1544.94 Q1306.48 1549.52 1300.67 1549.52 Q1294.86 1549.52 1291.78 1544.94 Q1288.73 1540.33 1288.73 1531.6 Q1288.73 1522.85 1291.78 1518.27 Q1294.86 1513.66 1300.67 1513.66 Z" fill="#000000" fill-rule="nonzero" fill-opacity="1" /><path clip-path="url(#clip590)" d="M1756.05 1514.29 L1778.27 1514.29 L1778.27 1516.28 L1765.73 1548.85 L1760.84 1548.85 L1772.65 1518.22 L1756.05 1518.22 L1756.05 1514.29 Z" fill="#000000" fill-rule="nonzero" fill-opacity="1" /><path clip-path="url(#clip590)" d="M1787.39 1542.97 L1792.28 1542.97 L1792.28 1548.85 L1787.39 1548.85 L1787.39 1542.97 Z" fill="#000000" fill-rule="nonzero" fill-opacity="1" /><path clip-path="url(#clip590)" d="M1802.51 1514.29 L1820.87 1514.29 L1820.87 1518.22 L1806.79 1518.22 L1806.79 1526.7 Q1807.81 1526.35 1808.83 1526.19 Q1809.85 1526 1810.87 1526 Q1816.65 1526 1820.03 1529.17 Q1823.41 1532.34 1823.41 1537.76 Q1823.41 1543.34 1819.94 1546.44 Q1816.47 1549.52 1810.15 1549.52 Q1807.97 1549.52 1805.71 1549.15 Q1803.46 1548.78 1801.05 1548.04 L1801.05 1543.34 Q1803.14 1544.47 1805.36 1545.03 Q1807.58 1545.58 1810.06 1545.58 Q1814.06 1545.58 1816.4 1543.48 Q1818.74 1541.37 1818.74 1537.76 Q1818.74 1534.15 1816.4 1532.04 Q1814.06 1529.94 1810.06 1529.94 Q1808.18 1529.94 1806.31 1530.35 Q1804.46 1530.77 1802.51 1531.65 L1802.51 1514.29 Z" fill="#000000" fill-rule="nonzero" fill-opacity="1" /><path clip-path="url(#clip590)" d="M2253.21 1544.91 L2260.85 1544.91 L2260.85 1518.55 L2252.54 1520.21 L2252.54 1515.95 L2260.81 1514.29 L2265.48 1514.29 L2265.48 1544.91 L2273.12 1544.91 L2273.12 1548.85 L2253.21 1548.85 L2253.21 1544.91 Z" fill="#000000" fill-rule="nonzero" fill-opacity="1" /><path clip-path="url(#clip590)" d="M2292.57 1517.37 Q2288.95 1517.37 2287.13 1520.93 Q2285.32 1524.47 2285.32 1531.6 Q2285.32 1538.71 2287.13 1542.27 Q2288.95 1545.82 2292.57 1545.82 Q2296.2 1545.82 2298 1542.27 Q2299.83 1538.71 2299.83 1531.6 Q2299.83 1524.47 2298 1520.93 Q2296.2 1517.37 2292.57 1517.37 M2292.57 1513.66 Q2298.38 1513.66 2301.43 1518.27 Q2304.51 1522.85 2304.51 1531.6 Q2304.51 1540.33 2301.43 1544.94 Q2298.38 1549.52 2292.57 1549.52 Q2286.76 1549.52 2283.68 1544.94 Q2280.62 1540.33 2280.62 1531.6 Q2280.62 1522.85 2283.68 1518.27 Q2286.76 1513.66 2292.57 1513.66 Z" fill="#000000" fill-rule="nonzero" fill-opacity="1" /><path clip-path="url(#clip590)" d="M2312.73 1542.97 L2317.61 1542.97 L2317.61 1548.85 L2312.73 1548.85 L2312.73 1542.97 Z" fill="#000000" fill-rule="nonzero" fill-opacity="1" /><path clip-path="url(#clip590)" d="M2337.8 1517.37 Q2334.19 1517.37 2332.36 1520.93 Q2330.55 1524.47 2330.55 1531.6 Q2330.55 1538.71 2332.36 1542.27 Q2334.19 1545.82 2337.8 1545.82 Q2341.43 1545.82 2343.24 1542.27 Q2345.06 1538.71 2345.06 1531.6 Q2345.06 1524.47 2343.24 1520.93 Q2341.43 1517.37 2337.8 1517.37 M2337.8 1513.66 Q2343.61 1513.66 2346.66 1518.27 Q2349.74 1522.85 2349.74 1531.6 Q2349.74 1540.33 2346.66 1544.94 Q2343.61 1549.52 2337.8 1549.52 Q2331.99 1549.52 2328.91 1544.94 Q2325.85 1540.33 2325.85 1531.6 Q2325.85 1522.85 2328.91 1518.27 Q2331.99 1513.66 2337.8 1513.66 Z" fill="#000000" fill-rule="nonzero" fill-opacity="1" /><polyline clip-path="url(#clip592)" style="stroke:#000000; stroke-linecap:round; stroke-linejoin:round; stroke-width:2; stroke-opacity:0.1; fill:none" points="194.422,1392.59 2352.76,1392.59 "/>
<polyline clip-path="url(#clip592)" style="stroke:#000000; stroke-linecap:round; stroke-linejoin:round; stroke-width:2; stroke-opacity:0.1; fill:none" points="194.422,1076.96 2352.76,1076.96 "/>
<polyline clip-path="url(#clip592)" style="stroke:#000000; stroke-linecap:round; stroke-linejoin:round; stroke-width:2; stroke-opacity:0.1; fill:none" points="194.422,761.324 2352.76,761.324 "/>
<polyline clip-path="url(#clip592)" style="stroke:#000000; stroke-linecap:round; stroke-linejoin:round; stroke-width:2; stroke-opacity:0.1; fill:none" points="194.422,445.69 2352.76,445.69 "/>
<polyline clip-path="url(#clip592)" style="stroke:#000000; stroke-linecap:round; stroke-linejoin:round; stroke-width:2; stroke-opacity:0.1; fill:none" points="194.422,130.057 2352.76,130.057 "/>
<polyline clip-path="url(#clip590)" style="stroke:#000000; stroke-linecap:round; stroke-linejoin:round; stroke-width:4; stroke-opacity:1; fill:none" points="194.422,1486.45 194.422,47.2441 "/>
<polyline clip-path="url(#clip590)" style="stroke:#000000; stroke-linecap:round; stroke-linejoin:round; stroke-width:4; stroke-opacity:1; fill:none" points="194.422,1392.59 213.32,1392.59 "/>
<polyline clip-path="url(#clip590)" style="stroke:#000000; stroke-linecap:round; stroke-linejoin:round; stroke-width:4; stroke-opacity:1; fill:none" points="194.422,1076.96 213.32,1076.96 "/>
<polyline clip-path="url(#clip590)" style="stroke:#000000; stroke-linecap:round; stroke-linejoin:round; stroke-width:4; stroke-opacity:1; fill:none" points="194.422,761.324 213.32,761.324 "/>
<polyline clip-path="url(#clip590)" style="stroke:#000000; stroke-linecap:round; stroke-linejoin:round; stroke-width:4; stroke-opacity:1; fill:none" points="194.422,445.69 213.32,445.69 "/>
<polyline clip-path="url(#clip590)" style="stroke:#000000; stroke-linecap:round; stroke-linejoin:round; stroke-width:4; stroke-opacity:1; fill:none" points="194.422,130.057 213.32,130.057 "/>
<path clip-path="url(#clip590)" d="M50.9921 1393.04 L80.6679 1393.04 L80.6679 1396.98 L50.9921 1396.98 L50.9921 1393.04 Z" fill="#000000" fill-rule="nonzero" fill-opacity="1" /><path clip-path="url(#clip590)" d="M100.76 1378.39 Q97.1493 1378.39 95.3206 1381.95 Q93.515 1385.5 93.515 1392.62 Q93.515 1399.73 95.3206 1403.3 Q97.1493 1406.84 100.76 1406.84 Q104.395 1406.84 106.2 1403.3 Q108.029 1399.73 108.029 1392.62 Q108.029 1385.5 106.2 1381.95 Q104.395 1378.39 100.76 1378.39 M100.76 1374.69 Q106.571 1374.69 109.626 1379.29 Q112.705 1383.87 112.705 1392.62 Q112.705 1401.35 109.626 1405.96 Q106.571 1410.54 100.76 1410.54 Q94.9502 1410.54 91.8715 1405.96 Q88.816 1401.35 88.816 1392.62 Q88.816 1383.87 91.8715 1379.29 Q94.9502 1374.69 100.76 1374.69 Z" fill="#000000" fill-rule="nonzero" fill-opacity="1" /><path clip-path="url(#clip590)" d="M120.922 1403.99 L125.807 1403.99 L125.807 1409.87 L120.922 1409.87 L120.922 1403.99 Z" fill="#000000" fill-rule="nonzero" fill-opacity="1" /><path clip-path="url(#clip590)" d="M148.839 1379.38 L137.033 1397.83 L148.839 1397.83 L148.839 1379.38 M147.612 1375.31 L153.492 1375.31 L153.492 1397.83 L158.422 1397.83 L158.422 1401.72 L153.492 1401.72 L153.492 1409.87 L148.839 1409.87 L148.839 1401.72 L133.237 1401.72 L133.237 1397.21 L147.612 1375.31 Z" fill="#000000" fill-rule="nonzero" fill-opacity="1" /><path clip-path="url(#clip590)" d="M53.0754 1077.41 L82.7512 1077.41 L82.7512 1081.34 L53.0754 1081.34 L53.0754 1077.41 Z" fill="#000000" fill-rule="nonzero" fill-opacity="1" /><path clip-path="url(#clip590)" d="M102.844 1062.76 Q99.2326 1062.76 97.4039 1066.32 Q95.5984 1069.86 95.5984 1076.99 Q95.5984 1084.1 97.4039 1087.66 Q99.2326 1091.2 102.844 1091.2 Q106.478 1091.2 108.283 1087.66 Q110.112 1084.1 110.112 1076.99 Q110.112 1069.86 108.283 1066.32 Q106.478 1062.76 102.844 1062.76 M102.844 1059.05 Q108.654 1059.05 111.709 1063.66 Q114.788 1068.24 114.788 1076.99 Q114.788 1085.72 111.709 1090.32 Q108.654 1094.91 102.844 1094.91 Q97.0335 1094.91 93.9549 1090.32 Q90.8993 1085.72 90.8993 1076.99 Q90.8993 1068.24 93.9549 1063.66 Q97.0335 1059.05 102.844 1059.05 Z" fill="#000000" fill-rule="nonzero" fill-opacity="1" /><path clip-path="url(#clip590)" d="M123.006 1088.36 L127.89 1088.36 L127.89 1094.24 L123.006 1094.24 L123.006 1088.36 Z" fill="#000000" fill-rule="nonzero" fill-opacity="1" /><path clip-path="url(#clip590)" d="M142.103 1090.3 L158.422 1090.3 L158.422 1094.24 L136.478 1094.24 L136.478 1090.3 Q139.14 1087.55 143.723 1082.92 Q148.33 1078.26 149.51 1076.92 Q151.755 1074.4 152.635 1072.66 Q153.538 1070.9 153.538 1069.21 Q153.538 1066.46 151.593 1064.72 Q149.672 1062.99 146.57 1062.99 Q144.371 1062.99 141.918 1063.75 Q139.487 1064.51 136.709 1066.07 L136.709 1061.34 Q139.533 1060.21 141.987 1059.63 Q144.441 1059.05 146.478 1059.05 Q151.848 1059.05 155.042 1061.74 Q158.237 1064.42 158.237 1068.91 Q158.237 1071.04 157.427 1072.96 Q156.64 1074.86 154.533 1077.45 Q153.955 1078.13 150.853 1081.34 Q147.751 1084.54 142.103 1090.3 Z" fill="#000000" fill-rule="nonzero" fill-opacity="1" /><path clip-path="url(#clip590)" d="M101.246 747.122 Q97.6354 747.122 95.8067 750.687 Q94.0012 754.229 94.0012 761.358 Q94.0012 768.465 95.8067 772.03 Q97.6354 775.571 101.246 775.571 Q104.881 775.571 106.686 772.03 Q108.515 768.465 108.515 761.358 Q108.515 754.229 106.686 750.687 Q104.881 747.122 101.246 747.122 M101.246 743.419 Q107.057 743.419 110.112 748.025 Q113.191 752.608 113.191 761.358 Q113.191 770.085 110.112 774.692 Q107.057 779.275 101.246 779.275 Q95.4363 779.275 92.3576 774.692 Q89.3021 770.085 89.3021 761.358 Q89.3021 752.608 92.3576 748.025 Q95.4363 743.419 101.246 743.419 Z" fill="#000000" fill-rule="nonzero" fill-opacity="1" /><path clip-path="url(#clip590)" d="M121.408 772.724 L126.293 772.724 L126.293 778.604 L121.408 778.604 L121.408 772.724 Z" fill="#000000" fill-rule="nonzero" fill-opacity="1" /><path clip-path="url(#clip590)" d="M146.478 747.122 Q142.867 747.122 141.038 750.687 Q139.232 754.229 139.232 761.358 Q139.232 768.465 141.038 772.03 Q142.867 775.571 146.478 775.571 Q150.112 775.571 151.918 772.03 Q153.746 768.465 153.746 761.358 Q153.746 754.229 151.918 750.687 Q150.112 747.122 146.478 747.122 M146.478 743.419 Q152.288 743.419 155.343 748.025 Q158.422 752.608 158.422 761.358 Q158.422 770.085 155.343 774.692 Q152.288 779.275 146.478 779.275 Q140.668 779.275 137.589 774.692 Q134.533 770.085 134.533 761.358 Q134.533 752.608 137.589 748.025 Q140.668 743.419 146.478 743.419 Z" fill="#000000" fill-rule="nonzero" fill-opacity="1" /><path clip-path="url(#clip590)" d="M102.844 431.489 Q99.2326 431.489 97.4039 435.054 Q95.5984 438.596 95.5984 445.725 Q95.5984 452.832 97.4039 456.396 Q99.2326 459.938 102.844 459.938 Q106.478 459.938 108.283 456.396 Q110.112 452.832 110.112 445.725 Q110.112 438.596 108.283 435.054 Q106.478 431.489 102.844 431.489 M102.844 427.785 Q108.654 427.785 111.709 432.392 Q114.788 436.975 114.788 445.725 Q114.788 454.452 111.709 459.058 Q108.654 463.642 102.844 463.642 Q97.0335 463.642 93.9549 459.058 Q90.8993 454.452 90.8993 445.725 Q90.8993 436.975 93.9549 432.392 Q97.0335 427.785 102.844 427.785 Z" fill="#000000" fill-rule="nonzero" fill-opacity="1" /><path clip-path="url(#clip590)" d="M123.006 457.091 L127.89 457.091 L127.89 462.97 L123.006 462.97 L123.006 457.091 Z" fill="#000000" fill-rule="nonzero" fill-opacity="1" /><path clip-path="url(#clip590)" d="M142.103 459.035 L158.422 459.035 L158.422 462.97 L136.478 462.97 L136.478 459.035 Q139.14 456.281 143.723 451.651 Q148.33 446.998 149.51 445.656 Q151.755 443.133 152.635 441.396 Q153.538 439.637 153.538 437.947 Q153.538 435.193 151.593 433.457 Q149.672 431.721 146.57 431.721 Q144.371 431.721 141.918 432.484 Q139.487 433.248 136.709 434.799 L136.709 430.077 Q139.533 428.943 141.987 428.364 Q144.441 427.785 146.478 427.785 Q151.848 427.785 155.042 430.471 Q158.237 433.156 158.237 437.647 Q158.237 439.776 157.427 441.697 Q156.64 443.596 154.533 446.188 Q153.955 446.859 150.853 450.077 Q147.751 453.271 142.103 459.035 Z" fill="#000000" fill-rule="nonzero" fill-opacity="1" /><path clip-path="url(#clip590)" d="M100.76 115.856 Q97.1493 115.856 95.3206 119.421 Q93.515 122.962 93.515 130.092 Q93.515 137.198 95.3206 140.763 Q97.1493 144.305 100.76 144.305 Q104.395 144.305 106.2 140.763 Q108.029 137.198 108.029 130.092 Q108.029 122.962 106.2 119.421 Q104.395 115.856 100.76 115.856 M100.76 112.152 Q106.571 112.152 109.626 116.759 Q112.705 121.342 112.705 130.092 Q112.705 138.819 109.626 143.425 Q106.571 148.009 100.76 148.009 Q94.9502 148.009 91.8715 143.425 Q88.816 138.819 88.816 130.092 Q88.816 121.342 91.8715 116.759 Q94.9502 112.152 100.76 112.152 Z" fill="#000000" fill-rule="nonzero" fill-opacity="1" /><path clip-path="url(#clip590)" d="M120.922 141.458 L125.807 141.458 L125.807 147.337 L120.922 147.337 L120.922 141.458 Z" fill="#000000" fill-rule="nonzero" fill-opacity="1" /><path clip-path="url(#clip590)" d="M148.839 116.851 L137.033 135.3 L148.839 135.3 L148.839 116.851 M147.612 112.777 L153.492 112.777 L153.492 135.3 L158.422 135.3 L158.422 139.189 L153.492 139.189 L153.492 147.337 L148.839 147.337 L148.839 139.189 L133.237 139.189 L133.237 134.675 L147.612 112.777 Z" fill="#000000" fill-rule="nonzero" fill-opacity="1" /><polyline clip-path="url(#clip592)" style="stroke:#009af9; stroke-linecap:round; stroke-linejoin:round; stroke-width:4; stroke-opacity:1; fill:none" points="255.507,323.935 264.978,323.758 274.448,323.227 283.919,322.339 293.389,321.095 302.86,319.492 312.33,317.527 321.801,315.198 331.271,312.499 340.742,309.428 350.212,305.981 359.683,302.152 369.153,297.938 378.624,293.335 388.094,288.339 397.565,282.949 407.036,277.163 416.506,270.981 425.977,264.407 435.447,257.446 444.918,250.108 454.388,242.406 463.859,234.358 473.329,225.989 482.8,217.329 492.27,208.415 501.741,199.292 511.211,190.013 520.682,180.64 530.152,171.242 539.623,161.897 549.093,152.69 558.564,143.715 568.035,135.068 577.505,126.85 586.976,119.166 596.446,112.118 605.917,105.806 615.387,100.325 624.858,95.7604 634.328,92.1884 643.799,89.6715 653.269,88.2572 662.74,87.9765 672.21,88.8427 681.681,90.8512 691.151,93.9794 700.622,98.1879 710.092,103.422 719.563,109.612 729.034,116.678 738.504,124.531 747.975,133.076 757.445,142.212 766.916,151.839 776.386,161.858 785.857,172.172 795.327,182.691 804.798,193.33 814.268,204.011 823.739,214.666 833.209,225.232 842.68,235.658 852.15,245.899 861.621,255.919 871.091,265.688 880.562,275.183 890.033,284.387 899.503,293.29 908.974,301.882 918.444,310.161 927.915,318.126 937.385,325.778 946.856,333.122 956.326,340.163 965.797,346.906 975.267,353.36 984.738,359.531 994.208,365.427 1003.68,371.057 1013.15,376.428 1022.62,381.547 1032.09,386.422 1041.56,391.06 1051.03,395.468 1060.5,399.653 1069.97,403.62 1079.44,407.374 1088.91,410.922 1098.38,414.269 1107.85,417.418 1117.33,420.375 1126.8,423.143 1136.27,425.726 1145.74,428.127 1155.21,430.35 1164.68,432.397 1174.15,434.272 1183.62,435.975 1193.09,437.51 1202.56,438.879 1212.03,440.083 1221.5,441.123 1230.97,442.001 1240.44,442.718 1249.91,443.275 1259.38,443.672 1268.85,443.91 1278.32,443.99 1287.79,443.91 1297.27,443.672 1306.74,443.275 1316.21,442.718 1325.68,442.001 1335.15,441.123 1344.62,440.082 1354.09,438.879 1363.56,437.51 1373.03,435.975 1382.5,434.271 1391.97,432.397 1401.44,430.35 1410.91,428.127 1420.38,425.725 1429.85,423.142 1439.32,420.374 1448.79,417.418 1458.26,414.268 1467.73,410.922 1477.21,407.374 1486.68,403.619 1496.15,399.652 1505.62,395.468 1515.09,391.06 1524.56,386.421 1534.03,381.546 1543.5,376.427 1552.97,371.056 1562.44,365.427 1571.91,359.53 1581.38,353.359 1590.85,346.906 1600.32,340.162 1609.79,333.121 1619.26,325.777 1628.73,318.125 1638.2,310.16 1647.67,301.881 1657.15,293.289 1666.62,284.387 1676.09,275.182 1685.56,265.687 1695.03,255.918 1704.5,245.899 1713.97,235.658 1723.44,225.232 1732.91,214.665 1742.38,204.011 1751.85,193.33 1761.32,182.691 1770.79,172.172 1780.26,161.857 1789.73,151.838 1799.2,142.211 1808.67,133.075 1818.14,124.531 1827.62,116.678 1837.09,109.612 1846.56,103.421 1856.03,98.1877 1865.5,93.9792 1874.97,90.8509 1884.44,88.8425 1893.91,87.9763 1903.38,88.257 1912.85,89.6712 1922.32,92.1881 1931.79,95.7601 1941.26,100.325 1950.73,105.806 1960.2,112.118 1969.67,119.166 1979.14,126.85 1988.61,135.067 1998.08,143.715 2007.56,152.69 2017.03,161.896 2026.5,171.241 2035.97,180.64 2045.44,190.013 2054.91,199.292 2064.38,208.415 2073.85,217.329 2083.32,225.989 2092.79,234.358 2102.26,242.406 2111.73,250.108 2121.2,257.446 2130.67,264.407 2140.14,270.981 2149.61,277.163 2159.08,282.949 2168.55,288.339 2178.02,293.335 2187.5,297.938 2196.97,302.152 2206.44,305.981 2215.91,309.428 2225.38,312.499 2234.85,315.198 2244.32,317.527 2253.79,319.492 2263.26,321.095 2272.73,322.339 2282.2,323.227 2291.67,323.758 "/>
<polyline clip-path="url(#clip592)" style="stroke:#e26f46; stroke-linecap:round; stroke-linejoin:round; stroke-width:4; stroke-opacity:1; fill:none" points="255.507,761.324 264.978,761.324 274.448,761.324 283.919,761.324 293.389,761.324 302.86,761.324 312.33,761.324 321.801,761.324 331.271,761.324 340.742,761.324 350.212,761.324 359.683,761.324 369.153,761.324 378.624,761.324 388.094,761.324 397.565,761.324 407.036,761.324 416.506,761.324 425.977,761.324 435.447,761.324 444.918,761.324 454.388,761.324 463.859,761.324 473.329,761.324 482.8,761.324 492.27,761.324 501.741,761.324 511.211,761.324 520.682,761.324 530.152,761.324 539.623,761.324 549.093,761.324 558.564,761.324 568.035,761.324 577.505,761.324 586.976,761.324 596.446,761.324 605.917,761.324 615.387,761.324 624.858,761.324 634.328,761.324 643.799,761.324 653.269,761.324 662.74,761.324 672.21,761.324 681.681,761.324 691.151,761.324 700.622,761.324 710.092,761.324 719.563,761.324 729.034,761.324 738.504,761.324 747.975,761.324 757.445,761.324 766.916,761.324 776.386,761.324 785.857,761.324 795.327,761.324 804.798,761.324 814.268,761.324 823.739,761.324 833.209,761.324 842.68,761.324 852.15,761.324 861.621,761.324 871.091,761.324 880.562,761.324 890.033,761.324 899.503,761.324 908.974,761.324 918.444,761.324 927.915,761.324 937.385,761.324 946.856,761.324 956.326,761.324 965.797,761.324 975.267,761.324 984.738,761.324 994.208,761.324 1003.68,761.324 1013.15,761.324 1022.62,761.324 1032.09,761.324 1041.56,761.324 1051.03,761.324 1060.5,761.324 1069.97,761.324 1079.44,761.324 1088.91,761.324 1098.38,761.324 1107.85,761.324 1117.33,761.324 1126.8,761.324 1136.27,761.324 1145.74,761.324 1155.21,761.324 1164.68,761.324 1174.15,761.324 1183.62,761.324 1193.09,761.324 1202.56,761.324 1212.03,761.324 1221.5,761.324 1230.97,761.324 1240.44,761.324 1249.91,761.324 1259.38,761.324 1268.85,761.324 1278.32,761.324 1287.79,761.324 1297.27,761.324 1306.74,761.324 1316.21,761.324 1325.68,761.324 1335.15,761.324 1344.62,761.324 1354.09,761.324 1363.56,761.324 1373.03,761.324 1382.5,761.324 1391.97,761.324 1401.44,761.324 1410.91,761.324 1420.38,761.324 1429.85,761.324 1439.32,761.324 1448.79,761.324 1458.26,761.324 1467.73,761.324 1477.21,761.324 1486.68,761.324 1496.15,761.324 1505.62,761.324 1515.09,761.324 1524.56,761.324 1534.03,761.324 1543.5,761.324 1552.97,761.324 1562.44,761.324 1571.91,761.324 1581.38,761.324 1590.85,761.324 1600.32,761.324 1609.79,761.324 1619.26,761.324 1628.73,761.324 1638.2,761.324 1647.67,761.324 1657.15,761.324 1666.62,761.324 1676.09,761.324 1685.56,761.324 1695.03,761.324 1704.5,761.324 1713.97,761.324 1723.44,761.324 1732.91,761.324 1742.38,761.324 1751.85,761.324 1761.32,761.324 1770.79,761.324 1780.26,761.324 1789.73,761.324 1799.2,761.324 1808.67,761.324 1818.14,761.324 1827.62,761.324 1837.09,761.324 1846.56,761.324 1856.03,761.324 1865.5,761.324 1874.97,761.324 1884.44,761.324 1893.91,761.324 1903.38,761.324 1912.85,761.324 1922.32,761.324 1931.79,761.324 1941.26,761.324 1950.73,761.324 1960.2,761.324 1969.67,761.324 1979.14,761.324 1988.61,761.324 1998.08,761.324 2007.56,761.324 2017.03,761.324 2026.5,761.324 2035.97,761.324 2045.44,761.324 2054.91,761.324 2064.38,761.324 2073.85,761.324 2083.32,761.324 2092.79,761.324 2102.26,761.324 2111.73,761.324 2121.2,761.324 2130.67,761.324 2140.14,761.324 2149.61,761.324 2159.08,761.324 2168.55,761.324 2178.02,761.324 2187.5,761.324 2196.97,761.324 2206.44,761.324 2215.91,761.324 2225.38,761.324 2234.85,761.324 2244.32,761.324 2253.79,761.324 2263.26,761.324 2272.73,761.324 2282.2,761.324 2291.67,761.324 "/>
<polyline clip-path="url(#clip592)" style="stroke:#3da44d; stroke-linecap:round; stroke-linejoin:round; stroke-width:4; stroke-opacity:1; fill:none" points="255.507,640.102 264.978,640.003 274.448,639.708 283.919,639.215 293.389,638.522 302.86,637.626 312.33,636.524 321.801,635.21 331.271,633.68 340.742,631.927 350.212,629.945 359.683,627.726 369.153,625.263 378.624,622.546 388.094,619.568 397.565,616.318 407.036,612.789 416.506,608.972 425.977,604.859 435.447,600.445 444.918,595.725 454.388,590.698 463.859,585.365 473.329,579.731 482.8,573.808 492.27,567.613 501.741,561.167 511.211,554.504 520.682,547.662 530.152,540.69 539.623,533.646 549.093,526.599 558.564,519.625 568.035,512.81 577.505,506.245 586.976,500.029 596.446,494.262 605.917,489.044 615.387,484.471 624.858,480.634 634.328,477.613 643.799,475.475 653.269,474.27 662.74,474.03 672.21,474.769 681.681,476.478 691.151,479.13 700.622,482.678 710.092,487.059 719.563,492.196 729.034,498 738.504,504.377 747.975,511.226 757.445,518.447 766.916,525.942 776.386,533.617 785.857,541.385 795.327,549.169 804.798,556.899 814.268,564.515 823.739,571.968 833.209,579.217 842.68,586.232 852.15,592.987 861.621,599.469 871.091,605.665 880.562,611.572 890.033,617.189 899.503,622.52 908.974,627.569 918.444,632.346 927.915,636.86 937.385,641.121 946.856,645.14 956.326,648.93 965.797,652.5 975.267,655.863 984.738,659.029 994.208,662.01 1003.68,664.814 1013.15,667.452 1022.62,669.932 1032.09,672.264 1041.56,674.454 1051.03,676.51 1060.5,678.439 1069.97,680.247 1079.44,681.94 1088.91,683.524 1098.38,685.003 1107.85,686.382 1117.33,687.665 1126.8,688.856 1136.27,689.959 1145.74,690.976 1155.21,691.912 1164.68,692.768 1174.15,693.547 1183.62,694.251 1193.09,694.883 1202.56,695.443 1212.03,695.934 1221.5,696.357 1230.97,696.713 1240.44,697.002 1249.91,697.227 1259.38,697.387 1268.85,697.483 1278.32,697.515 1287.79,697.483 1297.27,697.387 1306.74,697.227 1316.21,697.002 1325.68,696.713 1335.15,696.357 1344.62,695.934 1354.09,695.443 1363.56,694.882 1373.03,694.251 1382.5,693.547 1391.97,692.768 1401.44,691.912 1410.91,690.976 1420.38,689.958 1429.85,688.856 1439.32,687.664 1448.79,686.381 1458.26,685.003 1467.73,683.524 1477.21,681.94 1486.68,680.247 1496.15,678.439 1505.62,676.51 1515.09,674.454 1524.56,672.264 1534.03,669.932 1543.5,667.452 1552.97,664.814 1562.44,662.009 1571.91,659.029 1581.38,655.863 1590.85,652.5 1600.32,648.929 1609.79,645.14 1619.26,641.121 1628.73,636.86 1638.2,632.346 1647.67,627.569 1657.15,622.519 1666.62,617.189 1676.09,611.572 1685.56,605.665 1695.03,599.468 1704.5,592.987 1713.97,586.231 1723.44,579.217 1732.91,571.967 1742.38,564.514 1751.85,556.898 1761.32,549.169 1770.79,541.385 1780.26,533.616 1789.73,525.941 1799.2,518.447 1808.67,511.226 1818.14,504.377 1827.62,498 1837.09,492.196 1846.56,487.059 1856.03,482.678 1865.5,479.13 1874.97,476.478 1884.44,474.769 1893.91,474.03 1903.38,474.27 1912.85,475.475 1922.32,477.613 1931.79,480.634 1941.26,484.471 1950.73,489.043 1960.2,494.262 1969.67,500.029 1979.14,506.245 1988.61,512.809 1998.08,519.625 2007.56,526.599 2017.03,533.646 2026.5,540.69 2035.97,547.662 2045.44,554.504 2054.91,561.167 2064.38,567.613 2073.85,573.808 2083.32,579.731 2092.79,585.365 2102.26,590.698 2111.73,595.725 2121.2,600.445 2130.67,604.86 2140.14,608.972 2149.61,612.789 2159.08,616.318 2168.55,619.568 2178.02,622.546 2187.5,625.263 2196.97,627.726 2206.44,629.945 2215.91,631.927 2225.38,633.68 2234.85,635.21 2244.32,636.524 2253.79,637.626 2263.26,638.522 2272.73,639.215 2282.2,639.708 2291.67,640.003 "/>
<polyline clip-path="url(#clip592)" style="stroke:#c271d2; stroke-linecap:round; stroke-linejoin:round; stroke-width:4; stroke-opacity:1; fill:none" points="255.507,519.724 264.978,519.583 274.448,519.162 283.919,518.476 293.389,517.546 302.86,516.406 312.33,515.103 321.801,513.697 331.271,512.266 340.742,510.908 350.212,509.743 359.683,508.918 369.153,508.607 378.624,509.015 388.094,510.378 397.565,512.963 407.036,517.068 416.506,523.019 425.977,531.16 435.447,541.853 444.918,555.458 454.388,572.33 463.859,592.796 473.329,617.142 482.8,645.592 492.27,678.29 501.741,715.279 511.211,756.485 520.682,801.701 530.152,850.576 539.623,902.609 549.093,957.146 558.564,1013.39 568.035,1070.42 577.505,1127.2 586.976,1182.61 596.446,1235.48 605.917,1284.66 615.387,1329 624.858,1367.43 634.328,1399.02 643.799,1422.96 653.269,1438.66 662.74,1445.72 672.21,1443.96 681.681,1433.46 691.151,1414.52 700.622,1387.65 710.092,1353.57 719.563,1313.17 729.034,1267.46 738.504,1217.56 747.975,1164.62 757.445,1109.82 766.916,1054.3 776.386,999.13 785.857,945.288 795.327,893.627 804.798,844.863 814.268,799.564 823.739,758.147 833.209,720.88 842.68,687.896 852.15,659.202 861.621,634.698 871.091,614.196 880.562,597.437 890.033,584.115 899.503,573.889 908.974,566.405 918.444,561.306 927.915,558.243 937.385,556.888 946.856,556.936 956.326,558.114 965.797,560.176 975.267,562.911 984.738,566.137 994.208,569.702 1003.68,573.482 1013.15,577.373 1022.62,581.296 1032.09,585.187 1041.56,589 1051.03,592.699 1060.5,596.258 1069.97,599.66 1079.44,602.895 1088.91,605.955 1098.38,608.839 1107.85,611.545 1117.33,614.076 1126.8,616.434 1136.27,618.624 1145.74,620.649 1155.21,622.512 1164.68,624.22 1174.15,625.775 1183.62,627.182 1193.09,628.444 1202.56,629.564 1212.03,630.545 1221.5,631.39 1230.97,632.102 1240.44,632.681 1249.91,633.131 1259.38,633.451 1268.85,633.642 1278.32,633.706 1287.79,633.642 1297.27,633.451 1306.74,633.131 1316.21,632.681 1325.68,632.102 1335.15,631.39 1344.62,630.545 1354.09,629.563 1363.56,628.443 1373.03,627.182 1382.5,625.775 1391.97,624.22 1401.44,622.512 1410.91,620.648 1420.38,618.624 1429.85,616.434 1439.32,614.076 1448.79,611.544 1458.26,608.838 1467.73,605.955 1477.21,602.894 1486.68,599.66 1496.15,596.257 1505.62,592.698 1515.09,589 1524.56,585.187 1534.03,581.295 1543.5,577.372 1552.97,573.481 1562.44,569.702 1571.91,566.136 1581.38,562.91 1590.85,560.175 1600.32,558.113 1609.79,556.936 1619.26,556.887 1628.73,558.242 1638.2,561.305 1647.67,566.404 1657.15,573.889 1666.62,584.114 1676.09,597.436 1685.56,614.195 1695.03,634.697 1704.5,659.201 1713.97,687.895 1723.44,720.879 1732.91,758.146 1742.38,799.563 1751.85,844.862 1761.32,893.626 1770.79,945.287 1780.26,999.129 1789.73,1054.3 1799.2,1109.82 1808.67,1164.62 1818.14,1217.55 1827.62,1267.46 1837.09,1313.17 1846.56,1353.57 1856.03,1387.65 1865.5,1414.51 1874.97,1433.46 1884.44,1443.96 1893.91,1445.72 1903.38,1438.66 1912.85,1422.96 1922.32,1399.02 1931.79,1367.43 1941.26,1329 1950.73,1284.66 1960.2,1235.48 1969.67,1182.61 1979.14,1127.2 1988.61,1070.42 1998.08,1013.39 2007.56,957.146 2017.03,902.609 2026.5,850.576 2035.97,801.701 2045.44,756.485 2054.91,715.278 2064.38,678.29 2073.85,645.592 2083.32,617.142 2092.79,592.796 2102.26,572.33 2111.73,555.458 2121.2,541.853 2130.67,531.161 2140.14,523.019 2149.61,517.068 2159.08,512.963 2168.55,510.378 2178.02,509.015 2187.5,508.607 2196.97,508.918 2206.44,509.743 2215.91,510.908 2225.38,512.266 2234.85,513.697 2244.32,515.103 2253.79,516.406 2263.26,517.546 2272.73,518.476 2282.2,519.162 2291.67,519.583 "/>
<path clip-path="url(#clip590)" d="M266.367 1438.47 L764.259 1438.47 L764.259 1179.27 L266.367 1179.27  Z" fill="#ffffff" fill-rule="evenodd" fill-opacity="1"/>
<polyline clip-path="url(#clip590)" style="stroke:#000000; stroke-linecap:round; stroke-linejoin:round; stroke-width:4; stroke-opacity:1; fill:none" points="266.367,1438.47 764.259,1438.47 764.259,1179.27 266.367,1179.27 266.367,1438.47 "/>
<polyline clip-path="url(#clip590)" style="stroke:#009af9; stroke-linecap:round; stroke-linejoin:round; stroke-width:4; stroke-opacity:1; fill:none" points="290.348,1231.11 434.237,1231.11 "/>
<path clip-path="url(#clip590)" d="M473.404 1226.45 Q472.686 1226.03 471.829 1225.85 Q470.996 1225.64 469.978 1225.64 Q466.367 1225.64 464.422 1228 Q462.501 1230.34 462.501 1234.74 L462.501 1248.39 L458.218 1248.39 L458.218 1222.47 L462.501 1222.47 L462.501 1226.5 Q463.843 1224.14 465.996 1223 Q468.149 1221.84 471.228 1221.84 Q471.667 1221.84 472.2 1221.91 Q472.732 1221.96 473.38 1222.08 L473.404 1226.45 Z" fill="#000000" fill-rule="nonzero" fill-opacity="1" /><path clip-path="url(#clip590)" d="M499.005 1234.37 L499.005 1236.45 L479.422 1236.45 Q479.7 1240.85 482.061 1243.16 Q484.445 1245.45 488.681 1245.45 Q491.135 1245.45 493.427 1244.85 Q495.741 1244.25 498.01 1243.05 L498.01 1247.07 Q495.718 1248.05 493.311 1248.56 Q490.903 1249.07 488.427 1249.07 Q482.223 1249.07 478.589 1245.45 Q474.978 1241.84 474.978 1235.69 Q474.978 1229.32 478.404 1225.59 Q481.853 1221.84 487.686 1221.84 Q492.917 1221.84 495.95 1225.22 Q499.005 1228.58 499.005 1234.37 M494.746 1233.12 Q494.7 1229.62 492.778 1227.54 Q490.88 1225.45 487.732 1225.45 Q484.167 1225.45 482.015 1227.47 Q479.885 1229.48 479.561 1233.14 L494.746 1233.12 Z" fill="#000000" fill-rule="nonzero" fill-opacity="1" /><path clip-path="url(#clip590)" d="M517.778 1235.36 Q512.616 1235.36 510.626 1236.54 Q508.635 1237.72 508.635 1240.57 Q508.635 1242.84 510.116 1244.18 Q511.621 1245.5 514.19 1245.5 Q517.732 1245.5 519.862 1243 Q522.014 1240.48 522.014 1236.31 L522.014 1235.36 L517.778 1235.36 M526.274 1233.6 L526.274 1248.39 L522.014 1248.39 L522.014 1244.46 Q520.556 1246.82 518.38 1247.95 Q516.204 1249.07 513.056 1249.07 Q509.075 1249.07 506.714 1246.84 Q504.376 1244.6 504.376 1240.85 Q504.376 1236.47 507.292 1234.25 Q510.232 1232.03 516.042 1232.03 L522.014 1232.03 L522.014 1231.61 Q522.014 1228.67 520.07 1227.08 Q518.149 1225.45 514.653 1225.45 Q512.431 1225.45 510.325 1225.99 Q508.218 1226.52 506.274 1227.58 L506.274 1223.65 Q508.612 1222.75 510.811 1222.31 Q513.01 1221.84 515.093 1221.84 Q520.718 1221.84 523.496 1224.76 Q526.274 1227.68 526.274 1233.6 Z" fill="#000000" fill-rule="nonzero" fill-opacity="1" /><path clip-path="url(#clip590)" d="M535.047 1212.38 L539.306 1212.38 L539.306 1248.39 L535.047 1248.39 L535.047 1212.38 Z" fill="#000000" fill-rule="nonzero" fill-opacity="1" /><path clip-path="url(#clip590)" d="M558.449 1212.42 Q555.348 1217.75 553.843 1222.95 Q552.338 1228.16 552.338 1233.51 Q552.338 1238.86 553.843 1244.11 Q555.371 1249.34 558.449 1254.64 L554.746 1254.64 Q551.274 1249.2 549.537 1243.95 Q547.824 1238.7 547.824 1233.51 Q547.824 1228.35 549.537 1223.12 Q551.25 1217.89 554.746 1212.42 L558.449 1212.42 Z" fill="#000000" fill-rule="nonzero" fill-opacity="1" /><path clip-path="url(#clip590)" d="M575.695 1248.97 Q570.347 1248.12 567.871 1245.87 Q564.838 1243.12 564.838 1237.49 L564.838 1222.47 L569.144 1222.47 L569.144 1237.33 Q569.144 1241.57 571.111 1243.32 Q572.824 1244.85 575.695 1245.18 L575.695 1222.47 L579.931 1222.47 L579.931 1245.15 Q582.963 1244.83 584.514 1243.3 Q586.482 1241.36 586.482 1237.31 L586.482 1222.47 L590.787 1222.47 L590.787 1237.47 Q590.787 1243.3 587.755 1245.85 Q585.023 1248.14 579.931 1248.95 L579.931 1258.26 L575.695 1258.26 L575.695 1248.97 Z" fill="#000000" fill-rule="nonzero" fill-opacity="1" /><path clip-path="url(#clip590)" d="M597.315 1212.42 L601.019 1212.42 Q604.491 1217.89 606.204 1223.12 Q607.94 1228.35 607.94 1233.51 Q607.94 1238.7 606.204 1243.95 Q604.491 1249.2 601.019 1254.64 L597.315 1254.64 Q600.394 1249.34 601.898 1244.11 Q603.426 1238.86 603.426 1233.51 Q603.426 1228.16 601.898 1222.95 Q600.394 1217.75 597.315 1212.42 Z" fill="#000000" fill-rule="nonzero" fill-opacity="1" /><polyline clip-path="url(#clip590)" style="stroke:#e26f46; stroke-linecap:round; stroke-linejoin:round; stroke-width:4; stroke-opacity:1; fill:none" points="290.348,1282.95 434.237,1282.95 "/>
<path clip-path="url(#clip590)" d="M458.218 1274.31 L462.478 1274.31 L462.478 1300.23 L458.218 1300.23 L458.218 1274.31 M458.218 1264.22 L462.478 1264.22 L462.478 1269.61 L458.218 1269.61 L458.218 1264.22 Z" fill="#000000" fill-rule="nonzero" fill-opacity="1" /><path clip-path="url(#clip590)" d="M491.575 1279.29 Q493.172 1276.42 495.394 1275.05 Q497.616 1273.68 500.626 1273.68 Q504.677 1273.68 506.876 1276.53 Q509.075 1279.35 509.075 1284.59 L509.075 1300.23 L504.792 1300.23 L504.792 1284.73 Q504.792 1281 503.473 1279.19 Q502.153 1277.39 499.445 1277.39 Q496.135 1277.39 494.214 1279.59 Q492.292 1281.79 492.292 1285.58 L492.292 1300.23 L488.01 1300.23 L488.01 1284.73 Q488.01 1280.98 486.691 1279.19 Q485.371 1277.39 482.616 1277.39 Q479.353 1277.39 477.431 1279.61 Q475.51 1281.81 475.51 1285.58 L475.51 1300.23 L471.228 1300.23 L471.228 1274.31 L475.51 1274.31 L475.51 1278.34 Q476.968 1275.95 479.005 1274.82 Q481.042 1273.68 483.843 1273.68 Q486.667 1273.68 488.635 1275.12 Q490.626 1276.55 491.575 1279.29 Z" fill="#000000" fill-rule="nonzero" fill-opacity="1" /><path clip-path="url(#clip590)" d="M529.352 1287.2 Q524.19 1287.2 522.2 1288.38 Q520.209 1289.56 520.209 1292.41 Q520.209 1294.68 521.69 1296.02 Q523.195 1297.34 525.764 1297.34 Q529.306 1297.34 531.436 1294.84 Q533.588 1292.32 533.588 1288.15 L533.588 1287.2 L529.352 1287.2 M537.848 1285.44 L537.848 1300.23 L533.588 1300.23 L533.588 1296.3 Q532.13 1298.66 529.954 1299.79 Q527.778 1300.91 524.63 1300.91 Q520.649 1300.91 518.288 1298.68 Q515.95 1296.44 515.95 1292.69 Q515.95 1288.31 518.866 1286.09 Q521.806 1283.87 527.616 1283.87 L533.588 1283.87 L533.588 1283.45 Q533.588 1280.51 531.644 1278.92 Q529.723 1277.29 526.227 1277.29 Q524.005 1277.29 521.899 1277.83 Q519.792 1278.36 517.848 1279.42 L517.848 1275.49 Q520.186 1274.59 522.385 1274.15 Q524.584 1273.68 526.667 1273.68 Q532.292 1273.68 535.07 1276.6 Q537.848 1279.52 537.848 1285.44 Z" fill="#000000" fill-rule="nonzero" fill-opacity="1" /><path clip-path="url(#clip590)" d="M563.681 1286.97 Q563.681 1282.34 561.76 1279.79 Q559.861 1277.25 556.412 1277.25 Q552.986 1277.25 551.065 1279.79 Q549.167 1282.34 549.167 1286.97 Q549.167 1291.58 551.065 1294.12 Q552.986 1296.67 556.412 1296.67 Q559.861 1296.67 561.76 1294.12 Q563.681 1291.58 563.681 1286.97 M567.94 1297.02 Q567.94 1303.64 565 1306.85 Q562.06 1310.1 555.996 1310.1 Q553.75 1310.1 551.76 1309.75 Q549.769 1309.42 547.894 1308.73 L547.894 1304.59 Q549.769 1305.6 551.598 1306.09 Q553.426 1306.58 555.324 1306.58 Q559.514 1306.58 561.598 1304.38 Q563.681 1302.2 563.681 1297.78 L563.681 1295.67 Q562.361 1297.97 560.301 1299.1 Q558.241 1300.23 555.371 1300.23 Q550.602 1300.23 547.686 1296.6 Q544.769 1292.97 544.769 1286.97 Q544.769 1280.95 547.686 1277.32 Q550.602 1273.68 555.371 1273.68 Q558.241 1273.68 560.301 1274.82 Q562.361 1275.95 563.681 1278.24 L563.681 1274.31 L567.94 1274.31 L567.94 1297.02 Z" fill="#000000" fill-rule="nonzero" fill-opacity="1" /><path clip-path="url(#clip590)" d="M586.945 1264.26 Q583.843 1269.59 582.338 1274.79 Q580.834 1280 580.834 1285.35 Q580.834 1290.7 582.338 1295.95 Q583.866 1301.18 586.945 1306.48 L583.241 1306.48 Q579.769 1301.04 578.033 1295.79 Q576.32 1290.54 576.32 1285.35 Q576.32 1280.19 578.033 1274.96 Q579.746 1269.73 583.241 1264.26 L586.945 1264.26 Z" fill="#000000" fill-rule="nonzero" fill-opacity="1" /><path clip-path="url(#clip590)" d="M604.19 1300.81 Q598.843 1299.96 596.366 1297.71 Q593.333 1294.96 593.333 1289.33 L593.333 1274.31 L597.639 1274.31 L597.639 1289.17 Q597.639 1293.41 599.607 1295.16 Q601.32 1296.69 604.19 1297.02 L604.19 1274.31 L608.426 1274.31 L608.426 1296.99 Q611.458 1296.67 613.009 1295.14 Q614.977 1293.2 614.977 1289.15 L614.977 1274.31 L619.282 1274.31 L619.282 1289.31 Q619.282 1295.14 616.25 1297.69 Q613.519 1299.98 608.426 1300.79 L608.426 1310.1 L604.19 1310.1 L604.19 1300.81 Z" fill="#000000" fill-rule="nonzero" fill-opacity="1" /><path clip-path="url(#clip590)" d="M625.81 1264.26 L629.514 1264.26 Q632.986 1269.73 634.699 1274.96 Q636.435 1280.19 636.435 1285.35 Q636.435 1290.54 634.699 1295.79 Q632.986 1301.04 629.514 1306.48 L625.81 1306.48 Q628.889 1301.18 630.393 1295.95 Q631.921 1290.7 631.921 1285.35 Q631.921 1280 630.393 1274.79 Q628.889 1269.59 625.81 1264.26 Z" fill="#000000" fill-rule="nonzero" fill-opacity="1" /><polyline clip-path="url(#clip590)" style="stroke:#3da44d; stroke-linecap:round; stroke-linejoin:round; stroke-width:4; stroke-opacity:1; fill:none" points="290.348,1334.79 434.237,1334.79 "/>
<path clip-path="url(#clip590)" d="M460.302 1330.78 Q461.714 1328.42 465.209 1326.33 Q466.575 1325.52 470.788 1325.52 Q475.51 1325.52 478.45 1329.27 Q481.413 1333.02 481.413 1339.13 Q481.413 1345.25 478.45 1349 Q475.51 1352.75 470.788 1352.75 Q467.941 1352.75 465.88 1351.63 Q463.843 1350.5 462.501 1348.19 L462.501 1361.94 L458.218 1361.94 L458.218 1339.37 Q458.218 1334.02 460.302 1330.78 M476.992 1339.13 Q476.992 1334.44 475.047 1331.77 Q473.126 1329.09 469.746 1329.09 Q466.367 1329.09 464.422 1331.77 Q462.501 1334.44 462.501 1339.13 Q462.501 1343.83 464.422 1346.52 Q466.367 1349.18 469.746 1349.18 Q473.126 1349.18 475.047 1346.52 Q476.992 1343.83 476.992 1339.13 Z" fill="#000000" fill-rule="nonzero" fill-opacity="1" /><polyline clip-path="url(#clip590)" style="stroke:#c271d2; stroke-linecap:round; stroke-linejoin:round; stroke-width:4; stroke-opacity:1; fill:none" points="290.348,1386.63 434.237,1386.63 "/>
<path clip-path="url(#clip590)" d="M465.626 1370.63 L465.626 1377.99 L474.399 1377.99 L474.399 1381.3 L465.626 1381.3 L465.626 1395.37 Q465.626 1398.54 466.482 1399.45 Q467.362 1400.35 470.024 1400.35 L474.399 1400.35 L474.399 1403.91 L470.024 1403.91 Q465.093 1403.91 463.218 1402.09 Q461.343 1400.23 461.343 1395.37 L461.343 1381.3 L458.218 1381.3 L458.218 1377.99 L461.343 1377.99 L461.343 1370.63 L465.626 1370.63 Z" fill="#000000" fill-rule="nonzero" fill-opacity="1" /><path clip-path="url(#clip590)" d="M490.047 1380.97 Q486.621 1380.97 484.63 1383.66 Q482.64 1386.32 482.64 1390.97 Q482.64 1395.63 484.607 1398.31 Q486.598 1400.97 490.047 1400.97 Q493.45 1400.97 495.44 1398.29 Q497.431 1395.6 497.431 1390.97 Q497.431 1386.37 495.44 1383.68 Q493.45 1380.97 490.047 1380.97 M490.047 1377.36 Q495.603 1377.36 498.774 1380.97 Q501.945 1384.59 501.945 1390.97 Q501.945 1397.34 498.774 1400.97 Q495.603 1404.59 490.047 1404.59 Q484.468 1404.59 481.297 1400.97 Q478.149 1397.34 478.149 1390.97 Q478.149 1384.59 481.297 1380.97 Q484.468 1377.36 490.047 1377.36 Z" fill="#000000" fill-rule="nonzero" fill-opacity="1" /><path clip-path="url(#clip590)" d="M513.218 1370.63 L513.218 1377.99 L521.991 1377.99 L521.991 1381.3 L513.218 1381.3 L513.218 1395.37 Q513.218 1398.54 514.075 1399.45 Q514.954 1400.35 517.616 1400.35 L521.991 1400.35 L521.991 1403.91 L517.616 1403.91 Q512.686 1403.91 510.811 1402.09 Q508.936 1400.23 508.936 1395.37 L508.936 1381.3 L505.811 1381.3 L505.811 1377.99 L508.936 1377.99 L508.936 1370.63 L513.218 1370.63 Z" fill="#000000" fill-rule="nonzero" fill-opacity="1" /><path clip-path="url(#clip590)" d="M542.662 1367.9 L546.922 1367.9 L546.922 1403.91 L542.662 1403.91 L542.662 1367.9 Z" fill="#000000" fill-rule="nonzero" fill-opacity="1" /><path clip-path="url(#clip590)" d="M565.88 1380.97 Q562.454 1380.97 560.463 1383.66 Q558.473 1386.32 558.473 1390.97 Q558.473 1395.63 560.44 1398.31 Q562.431 1400.97 565.88 1400.97 Q569.283 1400.97 571.273 1398.29 Q573.264 1395.6 573.264 1390.97 Q573.264 1386.37 571.273 1383.68 Q569.283 1380.97 565.88 1380.97 M565.88 1377.36 Q571.435 1377.36 574.607 1380.97 Q577.778 1384.59 577.778 1390.97 Q577.778 1397.34 574.607 1400.97 Q571.435 1404.59 565.88 1404.59 Q560.301 1404.59 557.13 1400.97 Q553.982 1397.34 553.982 1390.97 Q553.982 1384.59 557.13 1380.97 Q560.301 1377.36 565.88 1377.36 Z" fill="#000000" fill-rule="nonzero" fill-opacity="1" /><path clip-path="url(#clip590)" d="M603.495 1378.98 L603.495 1382.97 Q601.69 1381.97 599.861 1381.48 Q598.056 1380.97 596.204 1380.97 Q592.06 1380.97 589.769 1383.61 Q587.477 1386.23 587.477 1390.97 Q587.477 1395.72 589.769 1398.36 Q592.06 1400.97 596.204 1400.97 Q598.056 1400.97 599.861 1400.49 Q601.69 1399.98 603.495 1398.98 L603.495 1402.92 Q601.713 1403.75 599.792 1404.17 Q597.894 1404.59 595.741 1404.59 Q589.884 1404.59 586.435 1400.91 Q582.986 1397.22 582.986 1390.97 Q582.986 1384.63 586.459 1381 Q589.954 1377.36 596.019 1377.36 Q597.986 1377.36 599.861 1377.78 Q601.736 1378.17 603.495 1378.98 Z" fill="#000000" fill-rule="nonzero" fill-opacity="1" /><path clip-path="url(#clip590)" d="M622.685 1390.88 Q617.523 1390.88 615.532 1392.06 Q613.542 1393.24 613.542 1396.09 Q613.542 1398.36 615.023 1399.7 Q616.528 1401.02 619.097 1401.02 Q622.639 1401.02 624.768 1398.52 Q626.921 1396 626.921 1391.83 L626.921 1390.88 L622.685 1390.88 M631.18 1389.12 L631.18 1403.91 L626.921 1403.91 L626.921 1399.98 Q625.463 1402.34 623.287 1403.47 Q621.111 1404.59 617.963 1404.59 Q613.982 1404.59 611.62 1402.36 Q609.282 1400.12 609.282 1396.37 Q609.282 1391.99 612.199 1389.77 Q615.139 1387.55 620.949 1387.55 L626.921 1387.55 L626.921 1387.13 Q626.921 1384.19 624.977 1382.6 Q623.056 1380.97 619.56 1380.97 Q617.338 1380.97 615.232 1381.51 Q613.125 1382.04 611.181 1383.1 L611.181 1379.17 Q613.519 1378.27 615.718 1377.83 Q617.917 1377.36 620 1377.36 Q625.625 1377.36 628.403 1380.28 Q631.18 1383.2 631.18 1389.12 Z" fill="#000000" fill-rule="nonzero" fill-opacity="1" /><path clip-path="url(#clip590)" d="M639.954 1367.9 L644.213 1367.9 L644.213 1403.91 L639.954 1403.91 L639.954 1367.9 Z" fill="#000000" fill-rule="nonzero" fill-opacity="1" /><path clip-path="url(#clip590)" d="M672.315 1400.03 L672.315 1413.78 L668.032 1413.78 L668.032 1377.99 L672.315 1377.99 L672.315 1381.92 Q673.657 1379.61 675.694 1378.5 Q677.754 1377.36 680.602 1377.36 Q685.324 1377.36 688.264 1381.11 Q691.226 1384.86 691.226 1390.97 Q691.226 1397.09 688.264 1400.84 Q685.324 1404.59 680.602 1404.59 Q677.754 1404.59 675.694 1403.47 Q673.657 1402.34 672.315 1400.03 M686.805 1390.97 Q686.805 1386.28 684.861 1383.61 Q682.939 1380.93 679.56 1380.93 Q676.18 1380.93 674.236 1383.61 Q672.315 1386.28 672.315 1390.97 Q672.315 1395.67 674.236 1398.36 Q676.18 1401.02 679.56 1401.02 Q682.939 1401.02 684.861 1398.36 Q686.805 1395.67 686.805 1390.97 Z" fill="#000000" fill-rule="nonzero" fill-opacity="1" /><path clip-path="url(#clip590)" d="M708.333 1380.97 Q704.907 1380.97 702.916 1383.66 Q700.925 1386.32 700.925 1390.97 Q700.925 1395.63 702.893 1398.31 Q704.884 1400.97 708.333 1400.97 Q711.736 1400.97 713.726 1398.29 Q715.717 1395.6 715.717 1390.97 Q715.717 1386.37 713.726 1383.68 Q711.736 1380.97 708.333 1380.97 M708.333 1377.36 Q713.888 1377.36 717.06 1380.97 Q720.231 1384.59 720.231 1390.97 Q720.231 1397.34 717.06 1400.97 Q713.888 1404.59 708.333 1404.59 Q702.754 1404.59 699.583 1400.97 Q696.435 1397.34 696.435 1390.97 Q696.435 1384.59 699.583 1380.97 Q702.754 1377.36 708.333 1377.36 Z" fill="#000000" fill-rule="nonzero" fill-opacity="1" /><path clip-path="url(#clip590)" d="M731.504 1370.63 L731.504 1377.99 L740.277 1377.99 L740.277 1381.3 L731.504 1381.3 L731.504 1395.37 Q731.504 1398.54 732.361 1399.45 Q733.24 1400.35 735.902 1400.35 L740.277 1400.35 L740.277 1403.91 L735.902 1403.91 Q730.972 1403.91 729.097 1402.09 Q727.222 1400.23 727.222 1395.37 L727.222 1381.3 L724.097 1381.3 L724.097 1377.99 L727.222 1377.99 L727.222 1370.63 L731.504 1370.63 Z" fill="#000000" fill-rule="nonzero" fill-opacity="1" /></svg>
