<?xml version="1.0" encoding="utf-8"?>
<svg xmlns="http://www.w3.org/2000/svg" xmlns:xlink="http://www.w3.org/1999/xlink" width="600" height="400" viewBox="0 0 2400 1600">
<defs>
  <clipPath id="clip330">
    <rect x="0" y="0" width="2400" height="1600"/>
  </clipPath>
</defs>
<path clip-path="url(#clip330)" d="M0 1600 L2400 1600 L2400 0 L0 0  Z" fill="#ffffff" fill-rule="evenodd" fill-opacity="1"/>
<defs>
  <clipPath id="clip331">
    <rect x="480" y="0" width="1681" height="1600"/>
  </clipPath>
</defs>
<path clip-path="url(#clip330)" d="M252.764 1423.18 L2352.76 1423.18 L2352.76 47.2441 L252.764 47.2441  Z" fill="#ffffff" fill-rule="evenodd" fill-opacity="1"/>
<defs>
  <clipPath id="clip332">
    <rect x="252" y="47" width="2101" height="1377"/>
  </clipPath>
</defs>
<polyline clip-path="url(#clip332)" style="stroke:#000000; stroke-linecap:round; stroke-linejoin:round; stroke-width:2; stroke-opacity:0.1; fill:none" points="312.198,1423.18 312.198,47.2441 "/>
<polyline clip-path="url(#clip332)" style="stroke:#000000; stroke-linecap:round; stroke-linejoin:round; stroke-width:2; stroke-opacity:0.1; fill:none" points="724.932,1423.18 724.932,47.2441 "/>
<polyline clip-path="url(#clip332)" style="stroke:#000000; stroke-linecap:round; stroke-linejoin:round; stroke-width:2; stroke-opacity:0.1; fill:none" points="1137.67,1423.18 1137.67,47.2441 "/>
<polyline clip-path="url(#clip332)" style="stroke:#000000; stroke-linecap:round; stroke-linejoin:round; stroke-width:2; stroke-opacity:0.1; fill:none" points="1550.4,1423.18 1550.4,47.2441 "/>
<polyline clip-path="url(#clip332)" style="stroke:#000000; stroke-linecap:round; stroke-linejoin:round; stroke-width:2; stroke-opacity:0.1; fill:none" points="1963.13,1423.18 1963.13,47.2441 "/>
<polyline clip-path="url(#clip330)" style="stroke:#000000; stroke-linecap:round; stroke-linejoin:round; stroke-width:4; stroke-opacity:1; fill:none" points="252.764,1423.18 2352.76,1423.18 "/>
<polyline clip-path="url(#clip330)" style="stroke:#000000; stroke-linecap:round; stroke-linejoin:round; stroke-width:4; stroke-opacity:1; fill:none" points="312.198,1423.18 312.198,1404.28 "/>
<polyline clip-path="url(#clip330)" style="stroke:#000000; stroke-linecap:round; stroke-linejoin:round; stroke-width:4; stroke-opacity:1; fill:none" points="724.932,1423.18 724.932,1404.28 "/>
<polyline clip-path="url(#clip330)" style="stroke:#000000; stroke-linecap:round; stroke-linejoin:round; stroke-width:4; stroke-opacity:1; fill:none" points="1137.67,1423.18 1137.67,1404.28 "/>
<polyline clip-path="url(#clip330)" style="stroke:#000000; stroke-linecap:round; stroke-linejoin:round; stroke-width:4; stroke-opacity:1; fill:none" points="1550.4,1423.18 1550.4,1404.28 "/>
<polyline clip-path="url(#clip330)" style="stroke:#000000; stroke-linecap:round; stroke-linejoin:round; stroke-width:4; stroke-opacity:1; fill:none" points="1963.13,1423.18 1963.13,1404.28 "/>
<path clip-path="url(#clip330)" d="M264.27 1481.64 L271.909 1481.64 L271.909 1455.28 L263.598 1456.95 L263.598 1452.69 L271.862 1451.02 L276.538 1451.02 L276.538 1481.64 L284.177 1481.64 L284.177 1485.58 L264.27 1485.58 L264.27 1481.64 Z" fill="#000000" fill-rule="nonzero" fill-opacity="1" /><path clip-path="url(#clip330)" d="M303.621 1454.1 Q300.01 1454.1 298.182 1457.66 Q296.376 1461.2 296.376 1468.33 Q296.376 1475.44 298.182 1479.01 Q300.01 1482.55 303.621 1482.55 Q307.256 1482.55 309.061 1479.01 Q310.89 1475.44 310.89 1468.33 Q310.89 1461.2 309.061 1457.66 Q307.256 1454.1 303.621 1454.1 M303.621 1450.39 Q309.431 1450.39 312.487 1455 Q315.566 1459.58 315.566 1468.33 Q315.566 1477.06 312.487 1481.67 Q309.431 1486.25 303.621 1486.25 Q297.811 1486.25 294.732 1481.67 Q291.677 1477.06 291.677 1468.33 Q291.677 1459.58 294.732 1455 Q297.811 1450.39 303.621 1450.39 Z" fill="#000000" fill-rule="nonzero" fill-opacity="1" /><path clip-path="url(#clip330)" d="M323.783 1479.7 L328.668 1479.7 L328.668 1485.58 L323.783 1485.58 L323.783 1479.7 Z" fill="#000000" fill-rule="nonzero" fill-opacity="1" /><path clip-path="url(#clip330)" d="M348.853 1454.1 Q345.241 1454.1 343.413 1457.66 Q341.607 1461.2 341.607 1468.33 Q341.607 1475.44 343.413 1479.01 Q345.241 1482.55 348.853 1482.55 Q352.487 1482.55 354.292 1479.01 Q356.121 1475.44 356.121 1468.33 Q356.121 1461.2 354.292 1457.66 Q352.487 1454.1 348.853 1454.1 M348.853 1450.39 Q354.663 1450.39 357.718 1455 Q360.797 1459.58 360.797 1468.33 Q360.797 1477.06 357.718 1481.67 Q354.663 1486.25 348.853 1486.25 Q343.042 1486.25 339.964 1481.67 Q336.908 1477.06 336.908 1468.33 Q336.908 1459.58 339.964 1455 Q343.042 1450.39 348.853 1450.39 Z" fill="#000000" fill-rule="nonzero" fill-opacity="1" /><path clip-path="url(#clip330)" d="M677.502 1481.64 L685.14 1481.64 L685.14 1455.28 L676.83 1456.95 L676.83 1452.69 L685.094 1451.02 L689.77 1451.02 L689.77 1481.64 L697.409 1481.64 L697.409 1485.58 L677.502 1485.58 L677.502 1481.64 Z" fill="#000000" fill-rule="nonzero" fill-opacity="1" /><path clip-path="url(#clip330)" d="M710.881 1481.64 L727.2 1481.64 L727.2 1485.58 L705.256 1485.58 L705.256 1481.64 Q707.918 1478.89 712.501 1474.26 Q717.108 1469.61 718.288 1468.27 Q720.534 1465.74 721.413 1464.01 Q722.316 1462.25 722.316 1460.56 Q722.316 1457.8 720.372 1456.07 Q718.451 1454.33 715.349 1454.33 Q713.15 1454.33 710.696 1455.09 Q708.265 1455.86 705.488 1457.41 L705.488 1452.69 Q708.312 1451.55 710.765 1450.97 Q713.219 1450.39 715.256 1450.39 Q720.626 1450.39 723.821 1453.08 Q727.015 1455.77 727.015 1460.26 Q727.015 1462.39 726.205 1464.31 Q725.418 1466.2 723.312 1468.8 Q722.733 1469.47 719.631 1472.69 Q716.529 1475.88 710.881 1481.64 Z" fill="#000000" fill-rule="nonzero" fill-opacity="1" /><path clip-path="url(#clip330)" d="M737.015 1479.7 L741.899 1479.7 L741.899 1485.58 L737.015 1485.58 L737.015 1479.7 Z" fill="#000000" fill-rule="nonzero" fill-opacity="1" /><path clip-path="url(#clip330)" d="M752.131 1451.02 L770.487 1451.02 L770.487 1454.96 L756.413 1454.96 L756.413 1463.43 Q757.432 1463.08 758.45 1462.92 Q759.469 1462.73 760.487 1462.73 Q766.274 1462.73 769.654 1465.9 Q773.034 1469.08 773.034 1474.49 Q773.034 1480.07 769.561 1483.17 Q766.089 1486.25 759.77 1486.25 Q757.594 1486.25 755.325 1485.88 Q753.08 1485.51 750.673 1484.77 L750.673 1480.07 Q752.756 1481.2 754.978 1481.76 Q757.2 1482.32 759.677 1482.32 Q763.682 1482.32 766.02 1480.21 Q768.358 1478.1 768.358 1474.49 Q768.358 1470.88 766.02 1468.77 Q763.682 1466.67 759.677 1466.67 Q757.802 1466.67 755.927 1467.08 Q754.075 1467.5 752.131 1468.38 L752.131 1451.02 Z" fill="#000000" fill-rule="nonzero" fill-opacity="1" /><path clip-path="url(#clip330)" d="M1089.74 1481.64 L1097.38 1481.64 L1097.38 1455.28 L1089.07 1456.95 L1089.07 1452.69 L1097.33 1451.02 L1102.01 1451.02 L1102.01 1481.64 L1109.65 1481.64 L1109.65 1485.58 L1089.74 1485.58 L1089.74 1481.64 Z" fill="#000000" fill-rule="nonzero" fill-opacity="1" /><path clip-path="url(#clip330)" d="M1119.14 1451.02 L1137.49 1451.02 L1137.49 1454.96 L1123.42 1454.96 L1123.42 1463.43 Q1124.44 1463.08 1125.46 1462.92 Q1126.47 1462.73 1127.49 1462.73 Q1133.28 1462.73 1136.66 1465.9 Q1140.04 1469.08 1140.04 1474.49 Q1140.04 1480.07 1136.57 1483.17 Q1133.09 1486.25 1126.78 1486.25 Q1124.6 1486.25 1122.33 1485.88 Q1120.09 1485.51 1117.68 1484.77 L1117.68 1480.07 Q1119.76 1481.2 1121.98 1481.76 Q1124.21 1482.32 1126.68 1482.32 Q1130.69 1482.32 1133.03 1480.21 Q1135.36 1478.1 1135.36 1474.49 Q1135.36 1470.88 1133.03 1468.77 Q1130.69 1466.67 1126.68 1466.67 Q1124.81 1466.67 1122.93 1467.08 Q1121.08 1467.5 1119.14 1468.38 L1119.14 1451.02 Z" fill="#000000" fill-rule="nonzero" fill-opacity="1" /><path clip-path="url(#clip330)" d="M1149.25 1479.7 L1154.14 1479.7 L1154.14 1485.58 L1149.25 1485.58 L1149.25 1479.7 Z" fill="#000000" fill-rule="nonzero" fill-opacity="1" /><path clip-path="url(#clip330)" d="M1174.32 1454.1 Q1170.71 1454.1 1168.88 1457.66 Q1167.08 1461.2 1167.08 1468.33 Q1167.08 1475.44 1168.88 1479.01 Q1170.71 1482.55 1174.32 1482.55 Q1177.96 1482.55 1179.76 1479.01 Q1181.59 1475.44 1181.59 1468.33 Q1181.59 1461.2 1179.76 1457.66 Q1177.96 1454.1 1174.32 1454.1 M1174.32 1450.39 Q1180.13 1450.39 1183.19 1455 Q1186.27 1459.58 1186.27 1468.33 Q1186.27 1477.06 1183.19 1481.67 Q1180.13 1486.25 1174.32 1486.25 Q1168.51 1486.25 1165.43 1481.67 Q1162.38 1477.06 1162.38 1468.33 Q1162.38 1459.58 1165.43 1455 Q1168.51 1450.39 1174.32 1450.39 Z" fill="#000000" fill-rule="nonzero" fill-opacity="1" /><path clip-path="url(#clip330)" d="M1502.97 1481.64 L1510.61 1481.64 L1510.61 1455.28 L1502.3 1456.95 L1502.3 1452.69 L1510.56 1451.02 L1515.24 1451.02 L1515.24 1481.64 L1522.88 1481.64 L1522.88 1485.58 L1502.97 1485.58 L1502.97 1481.64 Z" fill="#000000" fill-rule="nonzero" fill-opacity="1" /><path clip-path="url(#clip330)" d="M1531.14 1451.02 L1553.36 1451.02 L1553.36 1453.01 L1540.82 1485.58 L1535.93 1485.58 L1547.74 1454.96 L1531.14 1454.96 L1531.14 1451.02 Z" fill="#000000" fill-rule="nonzero" fill-opacity="1" /><path clip-path="url(#clip330)" d="M1562.48 1479.7 L1567.37 1479.7 L1567.37 1485.58 L1562.48 1485.58 L1562.48 1479.7 Z" fill="#000000" fill-rule="nonzero" fill-opacity="1" /><path clip-path="url(#clip330)" d="M1577.6 1451.02 L1595.96 1451.02 L1595.96 1454.96 L1581.88 1454.96 L1581.88 1463.43 Q1582.9 1463.08 1583.92 1462.92 Q1584.94 1462.73 1585.96 1462.73 Q1591.74 1462.73 1595.12 1465.9 Q1598.5 1469.08 1598.5 1474.49 Q1598.5 1480.07 1595.03 1483.17 Q1591.56 1486.25 1585.24 1486.25 Q1583.06 1486.25 1580.79 1485.88 Q1578.55 1485.51 1576.14 1484.77 L1576.14 1480.07 Q1578.22 1481.2 1580.45 1481.76 Q1582.67 1482.32 1585.15 1482.32 Q1589.15 1482.32 1591.49 1480.21 Q1593.83 1478.1 1593.83 1474.49 Q1593.83 1470.88 1591.49 1468.77 Q1589.15 1466.67 1585.15 1466.67 Q1583.27 1466.67 1581.4 1467.08 Q1579.54 1467.5 1577.6 1468.38 L1577.6 1451.02 Z" fill="#000000" fill-rule="nonzero" fill-opacity="1" /><path clip-path="url(#clip330)" d="M1919.29 1481.64 L1935.61 1481.64 L1935.61 1485.58 L1913.67 1485.58 L1913.67 1481.64 Q1916.33 1478.89 1920.91 1474.26 Q1925.52 1469.61 1926.7 1468.27 Q1928.95 1465.74 1929.82 1464.01 Q1930.73 1462.25 1930.73 1460.56 Q1930.73 1457.8 1928.78 1456.07 Q1926.86 1454.33 1923.76 1454.33 Q1921.56 1454.33 1919.11 1455.09 Q1916.68 1455.86 1913.9 1457.41 L1913.9 1452.69 Q1916.72 1451.55 1919.18 1450.97 Q1921.63 1450.39 1923.67 1450.39 Q1929.04 1450.39 1932.23 1453.08 Q1935.43 1455.77 1935.43 1460.26 Q1935.43 1462.39 1934.62 1464.31 Q1933.83 1466.2 1931.72 1468.8 Q1931.14 1469.47 1928.04 1472.69 Q1924.94 1475.88 1919.29 1481.64 Z" fill="#000000" fill-rule="nonzero" fill-opacity="1" /><path clip-path="url(#clip330)" d="M1955.43 1454.1 Q1951.82 1454.1 1949.99 1457.66 Q1948.18 1461.2 1948.18 1468.33 Q1948.18 1475.44 1949.99 1479.01 Q1951.82 1482.55 1955.43 1482.55 Q1959.06 1482.55 1960.87 1479.01 Q1962.69 1475.44 1962.69 1468.33 Q1962.69 1461.2 1960.87 1457.66 Q1959.06 1454.1 1955.43 1454.1 M1955.43 1450.39 Q1961.24 1450.39 1964.29 1455 Q1967.37 1459.58 1967.37 1468.33 Q1967.37 1477.06 1964.29 1481.67 Q1961.24 1486.25 1955.43 1486.25 Q1949.62 1486.25 1946.54 1481.67 Q1943.48 1477.06 1943.48 1468.33 Q1943.48 1459.58 1946.54 1455 Q1949.62 1450.39 1955.43 1450.39 Z" fill="#000000" fill-rule="nonzero" fill-opacity="1" /><path clip-path="url(#clip330)" d="M1975.59 1479.7 L1980.47 1479.7 L1980.47 1485.58 L1975.59 1485.58 L1975.59 1479.7 Z" fill="#000000" fill-rule="nonzero" fill-opacity="1" /><path clip-path="url(#clip330)" d="M2000.66 1454.1 Q1997.05 1454.1 1995.22 1457.66 Q1993.41 1461.2 1993.41 1468.33 Q1993.41 1475.44 1995.22 1479.01 Q1997.05 1482.55 2000.66 1482.55 Q2004.29 1482.55 2006.1 1479.01 Q2007.93 1475.44 2007.93 1468.33 Q2007.93 1461.2 2006.1 1457.66 Q2004.29 1454.1 2000.66 1454.1 M2000.66 1450.39 Q2006.47 1450.39 2009.52 1455 Q2012.6 1459.58 2012.6 1468.33 Q2012.6 1477.06 2009.52 1481.67 Q2006.47 1486.25 2000.66 1486.25 Q1994.85 1486.25 1991.77 1481.67 Q1988.71 1477.06 1988.71 1468.33 Q1988.71 1459.58 1991.77 1455 Q1994.85 1450.39 2000.66 1450.39 Z" fill="#000000" fill-rule="nonzero" fill-opacity="1" /><path clip-path="url(#clip330)" d="M1234.79 1520.52 L1264.84 1520.52 L1264.84 1525.93 L1241.22 1525.93 L1241.22 1540 L1263.85 1540 L1263.85 1545.41 L1241.22 1545.41 L1241.22 1562.63 L1265.41 1562.63 L1265.41 1568.04 L1234.79 1568.04 L1234.79 1520.52 Z" fill="#000000" fill-rule="nonzero" fill-opacity="1" /><path clip-path="url(#clip330)" d="M1301.38 1533.76 L1301.38 1539.24 Q1298.89 1537.87 1296.38 1537.2 Q1293.9 1536.5 1291.35 1536.5 Q1285.65 1536.5 1282.5 1540.13 Q1279.35 1543.73 1279.35 1550.25 Q1279.35 1556.78 1282.5 1560.4 Q1285.65 1564 1291.35 1564 Q1293.9 1564 1296.38 1563.33 Q1298.89 1562.63 1301.38 1561.26 L1301.38 1566.68 Q1298.92 1567.82 1296.28 1568.39 Q1293.67 1568.97 1290.71 1568.97 Q1282.66 1568.97 1277.92 1563.91 Q1273.18 1558.85 1273.18 1550.25 Q1273.18 1541.53 1277.95 1536.53 Q1282.76 1531.54 1291.09 1531.54 Q1293.8 1531.54 1296.38 1532.11 Q1298.96 1532.65 1301.38 1533.76 Z" fill="#000000" fill-rule="nonzero" fill-opacity="1" /><path clip-path="url(#clip330)" d="M1310.96 1553.98 L1310.96 1532.4 L1316.81 1532.4 L1316.81 1553.75 Q1316.81 1558.81 1318.79 1561.36 Q1320.76 1563.87 1324.71 1563.87 Q1329.45 1563.87 1332.19 1560.85 Q1334.95 1557.83 1334.95 1552.61 L1334.95 1532.4 L1340.81 1532.4 L1340.81 1568.04 L1334.95 1568.04 L1334.95 1562.57 Q1332.82 1565.82 1329.99 1567.41 Q1327.19 1568.97 1323.46 1568.97 Q1317.32 1568.97 1314.14 1565.15 Q1310.96 1561.33 1310.96 1553.98 M1325.69 1531.54 L1325.69 1531.54 Z" fill="#000000" fill-rule="nonzero" fill-opacity="1" /><path clip-path="url(#clip330)" d="M1358.67 1522.27 L1358.67 1532.4 L1370.73 1532.4 L1370.73 1536.95 L1358.67 1536.95 L1358.67 1556.3 Q1358.67 1560.66 1359.84 1561.9 Q1361.05 1563.14 1364.71 1563.14 L1370.73 1563.14 L1370.73 1568.04 L1364.71 1568.04 Q1357.93 1568.04 1355.36 1565.53 Q1352.78 1562.98 1352.78 1556.3 L1352.78 1536.95 L1348.48 1536.95 L1348.48 1532.4 L1352.78 1532.4 L1352.78 1522.27 L1358.67 1522.27 Z" fill="#000000" fill-rule="nonzero" fill-opacity="1" /><polyline clip-path="url(#clip332)" style="stroke:#000000; stroke-linecap:round; stroke-linejoin:round; stroke-width:2; stroke-opacity:0.1; fill:none" points="252.764,1343.55 2352.76,1343.55 "/>
<polyline clip-path="url(#clip332)" style="stroke:#000000; stroke-linecap:round; stroke-linejoin:round; stroke-width:2; stroke-opacity:0.1; fill:none" points="252.764,665.311 2352.76,665.311 "/>
<polyline clip-path="url(#clip330)" style="stroke:#000000; stroke-linecap:round; stroke-linejoin:round; stroke-width:4; stroke-opacity:1; fill:none" points="252.764,1423.18 252.764,47.2441 "/>
<polyline clip-path="url(#clip330)" style="stroke:#000000; stroke-linecap:round; stroke-linejoin:round; stroke-width:4; stroke-opacity:1; fill:none" points="252.764,1343.55 271.662,1343.55 "/>
<polyline clip-path="url(#clip330)" style="stroke:#000000; stroke-linecap:round; stroke-linejoin:round; stroke-width:4; stroke-opacity:1; fill:none" points="252.764,665.311 271.662,665.311 "/>
<path clip-path="url(#clip330)" d="M114.931 1363.34 L122.57 1363.34 L122.57 1336.97 L114.26 1338.64 L114.26 1334.38 L122.524 1332.72 L127.2 1332.72 L127.2 1363.34 L134.839 1363.34 L134.839 1367.28 L114.931 1367.28 L114.931 1363.34 Z" fill="#000000" fill-rule="nonzero" fill-opacity="1" /><path clip-path="url(#clip330)" d="M154.283 1335.79 Q150.672 1335.79 148.843 1339.36 Q147.038 1342.9 147.038 1350.03 Q147.038 1357.14 148.843 1360.7 Q150.672 1364.24 154.283 1364.24 Q157.917 1364.24 159.723 1360.7 Q161.552 1357.14 161.552 1350.03 Q161.552 1342.9 159.723 1339.36 Q157.917 1335.79 154.283 1335.79 M154.283 1332.09 Q160.093 1332.09 163.149 1336.7 Q166.227 1341.28 166.227 1350.03 Q166.227 1358.76 163.149 1363.36 Q160.093 1367.95 154.283 1367.95 Q148.473 1367.95 145.394 1363.36 Q142.339 1358.76 142.339 1350.03 Q142.339 1341.28 145.394 1336.7 Q148.473 1332.09 154.283 1332.09 Z" fill="#000000" fill-rule="nonzero" fill-opacity="1" /><path clip-path="url(#clip330)" d="M166.227 1326.19 L190.339 1326.19 L190.339 1329.39 L166.227 1329.39 L166.227 1326.19 Z" fill="#000000" fill-rule="nonzero" fill-opacity="1" /><path clip-path="url(#clip330)" d="M208.978 1315.1 L199.386 1330.08 L208.978 1330.08 L208.978 1315.1 M207.981 1311.78 L212.758 1311.78 L212.758 1330.08 L216.764 1330.08 L216.764 1333.24 L212.758 1333.24 L212.758 1339.86 L208.978 1339.86 L208.978 1333.24 L196.301 1333.24 L196.301 1329.58 L207.981 1311.78 Z" fill="#000000" fill-rule="nonzero" fill-opacity="1" /><path clip-path="url(#clip330)" d="M116.624 685.103 L124.263 685.103 L124.263 658.737 L115.953 660.404 L115.953 656.145 L124.217 654.478 L128.893 654.478 L128.893 685.103 L136.531 685.103 L136.531 689.038 L116.624 689.038 L116.624 685.103 Z" fill="#000000" fill-rule="nonzero" fill-opacity="1" /><path clip-path="url(#clip330)" d="M155.976 657.557 Q152.365 657.557 150.536 661.122 Q148.73 664.663 148.73 671.793 Q148.73 678.899 150.536 682.464 Q152.365 686.006 155.976 686.006 Q159.61 686.006 161.416 682.464 Q163.244 678.899 163.244 671.793 Q163.244 664.663 161.416 661.122 Q159.61 657.557 155.976 657.557 M155.976 653.853 Q161.786 653.853 164.841 658.46 Q167.92 663.043 167.92 671.793 Q167.92 680.52 164.841 685.126 Q161.786 689.709 155.976 689.709 Q150.166 689.709 147.087 685.126 Q144.031 680.52 144.031 671.793 Q144.031 663.043 147.087 658.46 Q150.166 653.853 155.976 653.853 Z" fill="#000000" fill-rule="nonzero" fill-opacity="1" /><path clip-path="url(#clip330)" d="M167.92 647.954 L192.032 647.954 L192.032 651.152 L167.92 651.152 L167.92 647.954 Z" fill="#000000" fill-rule="nonzero" fill-opacity="1" /><path clip-path="url(#clip330)" d="M203.504 658.43 L216.764 658.43 L216.764 661.628 L198.934 661.628 L198.934 658.43 Q201.097 656.192 204.821 652.431 Q208.564 648.65 209.523 647.56 Q211.347 645.509 212.062 644.099 Q212.796 642.669 212.796 641.297 Q212.796 639.058 211.216 637.648 Q209.655 636.237 207.134 636.237 Q205.348 636.237 203.354 636.858 Q201.379 637.479 199.122 638.739 L199.122 634.902 Q201.417 633.98 203.41 633.51 Q205.404 633.04 207.059 633.04 Q211.423 633.04 214.018 635.222 Q216.613 637.403 216.613 641.052 Q216.613 642.782 215.955 644.343 Q215.316 645.886 213.604 647.992 Q213.134 648.538 210.614 651.152 Q208.094 653.747 203.504 658.43 Z" fill="#000000" fill-rule="nonzero" fill-opacity="1" /><path clip-path="url(#clip330)" d="M44.7161 1053.69 L47.5806 1053.69 L47.5806 1080.62 Q53.6281 1080.23 56.8109 1076.99 Q59.9619 1073.71 59.9619 1067.88 Q59.9619 1064.51 59.1344 1061.36 Q58.3069 1058.18 56.6518 1055.06 L62.1899 1055.06 Q63.5267 1058.21 64.227 1061.52 Q64.9272 1064.83 64.9272 1068.23 Q64.9272 1076.76 59.9619 1081.76 Q54.9967 1086.73 46.5303 1086.73 Q37.7774 1086.73 32.6531 1082.02 Q27.4968 1077.27 27.4968 1069.25 Q27.4968 1062.06 32.1438 1057.89 Q36.7589 1053.69 44.7161 1053.69 M42.9973 1059.54 Q38.1912 1059.61 35.3266 1062.25 Q32.4621 1064.86 32.4621 1069.19 Q32.4621 1074.09 35.2312 1077.05 Q38.0002 1079.98 43.0292 1080.42 L42.9973 1059.54 Z" fill="#000000" fill-rule="nonzero" fill-opacity="1" /><path clip-path="url(#clip330)" d="M42.4881 1014.44 L64.0042 1014.44 L64.0042 1020.3 L42.679 1020.3 Q37.6183 1020.3 35.1038 1022.27 Q32.5894 1024.25 32.5894 1028.19 Q32.5894 1032.94 35.6131 1035.67 Q38.6368 1038.41 43.8567 1038.41 L64.0042 1038.41 L64.0042 1044.3 L28.3562 1044.3 L28.3562 1038.41 L33.8944 1038.41 Q30.6797 1036.31 29.0883 1033.48 Q27.4968 1030.61 27.4968 1026.89 Q27.4968 1020.75 31.3163 1017.59 Q35.1038 1014.44 42.4881 1014.44 Z" fill="#000000" fill-rule="nonzero" fill-opacity="1" /><path clip-path="url(#clip330)" d="M44.7161 972.271 L47.5806 972.271 L47.5806 999.198 Q53.6281 998.816 56.8109 995.569 Q59.9619 992.291 59.9619 986.466 Q59.9619 983.093 59.1344 979.942 Q58.3069 976.759 56.6518 973.64 L62.1899 973.64 Q63.5267 976.791 64.227 980.101 Q64.9272 983.411 64.9272 986.817 Q64.9272 995.347 59.9619 1000.34 Q54.9967 1005.31 46.5303 1005.31 Q37.7774 1005.31 32.6531 1000.6 Q27.4968 995.856 27.4968 987.835 Q27.4968 980.642 32.1438 976.472 Q36.7589 972.271 44.7161 972.271 M42.9973 978.127 Q38.1912 978.191 35.3266 980.833 Q32.4621 983.443 32.4621 987.771 Q32.4621 992.673 35.2312 995.633 Q38.0002 998.561 43.0292 999.007 L42.9973 978.127 Z" fill="#000000" fill-rule="nonzero" fill-opacity="1" /><path clip-path="url(#clip330)" d="M33.8307 942.002 Q33.2578 942.989 33.0032 944.166 Q32.7167 945.312 32.7167 946.713 Q32.7167 951.678 35.9632 954.351 Q39.1779 956.993 45.2253 956.993 L64.0042 956.993 L64.0042 962.881 L28.3562 962.881 L28.3562 956.993 L33.8944 956.993 Q30.6479 955.147 29.0883 952.187 Q27.4968 949.227 27.4968 944.994 Q27.4968 944.389 27.5923 943.657 Q27.656 942.925 27.8151 942.034 L33.8307 942.002 Z" fill="#000000" fill-rule="nonzero" fill-opacity="1" /><path clip-path="url(#clip330)" d="M45.7664 913.547 Q39.4007 913.547 35.8996 916.189 Q32.3984 918.799 32.3984 923.541 Q32.3984 928.252 35.8996 930.894 Q39.4007 933.504 45.7664 933.504 Q52.1003 933.504 55.6014 930.894 Q59.1026 928.252 59.1026 923.541 Q59.1026 918.799 55.6014 916.189 Q52.1003 913.547 45.7664 913.547 M59.58 907.691 Q68.683 907.691 73.1071 911.733 Q77.5631 915.775 77.5631 924.114 Q77.5631 927.202 77.0857 929.939 Q76.6401 932.676 75.6852 935.254 L69.9879 935.254 Q71.3884 932.676 72.0568 930.162 Q72.7252 927.647 72.7252 925.037 Q72.7252 919.276 69.7015 916.412 Q66.7096 913.547 60.6303 913.547 L57.7339 913.547 Q60.885 915.361 62.4446 918.194 Q64.0042 921.027 64.0042 924.974 Q64.0042 931.53 59.0071 935.541 Q54.01 939.551 45.7664 939.551 Q37.491 939.551 32.4939 935.541 Q27.4968 931.53 27.4968 924.974 Q27.4968 921.027 29.0564 918.194 Q30.616 915.361 33.7671 913.547 L28.3562 913.547 L28.3562 907.691 L59.58 907.691 Z" fill="#000000" fill-rule="nonzero" fill-opacity="1" /><path clip-path="url(#clip330)" d="M67.3143 880.796 Q73.68 883.278 75.6216 885.634 Q77.5631 887.989 77.5631 891.936 L77.5631 896.614 L72.6615 896.614 L72.6615 893.177 Q72.6615 890.758 71.5157 889.421 Q70.3699 888.084 66.1048 886.461 L63.4312 885.411 L28.3562 899.829 L28.3562 893.623 L56.238 882.483 L28.3562 871.343 L28.3562 865.136 L67.3143 880.796 Z" fill="#000000" fill-rule="nonzero" fill-opacity="1" /><path clip-path="url(#clip330)" d="M46.0847 820.13 Q46.0847 827.228 47.7079 829.966 Q49.3312 832.703 53.2461 832.703 Q56.3653 832.703 58.2114 830.666 Q60.0256 828.597 60.0256 825.064 Q60.0256 820.194 56.5881 817.266 Q53.1188 814.306 47.3897 814.306 L46.0847 814.306 L46.0847 820.13 M43.6657 808.449 L64.0042 808.449 L64.0042 814.306 L58.5933 814.306 Q61.8398 816.311 63.3994 819.303 Q64.9272 822.295 64.9272 826.624 Q64.9272 832.098 61.8716 835.345 Q58.7843 838.559 53.6281 838.559 Q47.6125 838.559 44.5569 834.549 Q41.5014 830.507 41.5014 822.518 L41.5014 814.306 L40.9285 814.306 Q36.8862 814.306 34.6901 816.979 Q32.4621 819.621 32.4621 824.427 Q32.4621 827.483 33.1941 830.379 Q33.9262 833.276 35.3903 835.949 L29.9795 835.949 Q28.7381 832.735 28.1334 829.711 Q27.4968 826.687 27.4968 823.823 Q27.4968 816.088 31.5072 812.269 Q35.5176 808.449 43.6657 808.449 Z" fill="#000000" fill-rule="nonzero" fill-opacity="1" /><path clip-path="url(#clip330)" d="M46.212 770.796 Q39.7508 770.796 36.0905 773.47 Q32.3984 776.112 32.3984 780.759 Q32.3984 785.406 36.0905 788.079 Q39.7508 790.721 46.212 790.721 Q52.6732 790.721 56.3653 788.079 Q60.0256 785.406 60.0256 780.759 Q60.0256 776.112 56.3653 773.47 Q52.6732 770.796 46.212 770.796 M33.7671 790.721 Q30.5842 788.875 29.0564 786.074 Q27.4968 783.241 27.4968 779.326 Q27.4968 772.833 32.6531 768.791 Q37.8093 764.717 46.212 764.717 Q54.6147 764.717 59.771 768.791 Q64.9272 772.833 64.9272 779.326 Q64.9272 783.241 63.3994 786.074 Q61.8398 788.875 58.657 790.721 L64.0042 790.721 L64.0042 796.609 L14.479 796.609 L14.479 790.721 L33.7671 790.721 Z" fill="#000000" fill-rule="nonzero" fill-opacity="1" /><path clip-path="url(#clip330)" d="M29.4065 732.284 L34.9447 732.284 Q33.6716 734.766 33.035 737.44 Q32.3984 740.114 32.3984 742.978 Q32.3984 747.339 33.7352 749.535 Q35.072 751.699 37.7456 751.699 Q39.7826 751.699 40.9603 750.14 Q42.1061 748.58 43.1565 743.869 L43.6021 741.864 Q44.9389 735.626 47.3897 733.016 Q49.8086 730.374 54.1691 730.374 Q59.1344 730.374 62.0308 734.321 Q64.9272 738.236 64.9272 745.111 Q64.9272 747.975 64.3543 751.094 Q63.8132 754.182 62.6992 757.619 L56.6518 757.619 Q58.3387 754.373 59.198 751.222 Q60.0256 748.071 60.0256 744.983 Q60.0256 740.846 58.6251 738.618 Q57.1929 736.39 54.6147 736.39 Q52.2276 736.39 50.9545 738.013 Q49.6813 739.604 48.5037 745.047 L48.0262 747.084 Q46.8804 752.527 44.5251 754.946 Q42.138 757.365 38.0002 757.365 Q32.9713 757.365 30.2341 753.8 Q27.4968 750.235 27.4968 743.678 Q27.4968 740.432 27.9743 737.567 Q28.4517 734.703 29.4065 732.284 Z" fill="#000000" fill-rule="nonzero" fill-opacity="1" /><path clip-path="url(#clip330)" d="M32.4621 707.235 Q32.4621 711.945 36.1542 714.683 Q39.8145 717.42 46.212 717.42 Q52.6095 717.42 56.3017 714.714 Q59.9619 711.977 59.9619 707.235 Q59.9619 702.556 56.2698 699.819 Q52.5777 697.081 46.212 697.081 Q39.8781 697.081 36.186 699.819 Q32.4621 702.556 32.4621 707.235 M27.4968 707.235 Q27.4968 699.596 32.4621 695.235 Q37.4273 690.875 46.212 690.875 Q54.9649 690.875 59.9619 695.235 Q64.9272 699.596 64.9272 707.235 Q64.9272 714.905 59.9619 719.266 Q54.9649 723.595 46.212 723.595 Q37.4273 723.595 32.4621 719.266 Q27.4968 714.905 27.4968 707.235 Z" fill="#000000" fill-rule="nonzero" fill-opacity="1" /><path clip-path="url(#clip330)" d="M14.479 681.167 L14.479 675.311 L64.0042 675.311 L64.0042 681.167 L14.479 681.167 Z" fill="#000000" fill-rule="nonzero" fill-opacity="1" /><path clip-path="url(#clip330)" d="M49.9359 663.661 L28.3562 663.661 L28.3562 657.805 L49.7131 657.805 Q54.7739 657.805 57.3202 655.832 Q59.8346 653.858 59.8346 649.911 Q59.8346 645.169 56.8109 642.432 Q53.7872 639.663 48.5673 639.663 L28.3562 639.663 L28.3562 633.806 L64.0042 633.806 L64.0042 639.663 L58.5296 639.663 Q61.7762 641.795 63.3676 644.628 Q64.9272 647.429 64.9272 651.153 Q64.9272 657.296 61.1078 660.479 Q57.2883 663.661 49.9359 663.661 M27.4968 648.925 L27.4968 648.925 Z" fill="#000000" fill-rule="nonzero" fill-opacity="1" /><path clip-path="url(#clip330)" d="M18.2347 615.95 L28.3562 615.95 L28.3562 603.887 L32.9077 603.887 L32.9077 615.95 L52.2594 615.95 Q56.6199 615.95 57.8613 614.773 Q59.1026 613.563 59.1026 609.903 L59.1026 603.887 L64.0042 603.887 L64.0042 609.903 Q64.0042 616.683 61.4897 619.261 Q58.9434 621.839 52.2594 621.839 L32.9077 621.839 L32.9077 626.136 L28.3562 626.136 L28.3562 621.839 L18.2347 621.839 L18.2347 615.95 Z" fill="#000000" fill-rule="nonzero" fill-opacity="1" /><path clip-path="url(#clip330)" d="M44.7161 565.693 L47.5806 565.693 L47.5806 592.62 Q53.6281 592.238 56.8109 588.992 Q59.9619 585.713 59.9619 579.889 Q59.9619 576.515 59.1344 573.364 Q58.3069 570.181 56.6518 567.062 L62.1899 567.062 Q63.5267 570.213 64.227 573.523 Q64.9272 576.833 64.9272 580.239 Q64.9272 588.769 59.9619 593.766 Q54.9967 598.731 46.5303 598.731 Q37.7774 598.731 32.6531 594.021 Q27.4968 589.278 27.4968 581.257 Q27.4968 574.064 32.1438 569.895 Q36.7589 565.693 44.7161 565.693 M42.9973 571.55 Q38.1912 571.613 35.3266 574.255 Q32.4621 576.865 32.4621 581.194 Q32.4621 586.095 35.2312 589.055 Q38.0002 591.984 43.0292 592.429 L42.9973 571.55 Z" fill="#000000" fill-rule="nonzero" fill-opacity="1" /><path clip-path="url(#clip330)" d="M44.7161 504.869 L47.5806 504.869 L47.5806 531.796 Q53.6281 531.414 56.8109 528.167 Q59.9619 524.889 59.9619 519.064 Q59.9619 515.691 59.1344 512.54 Q58.3069 509.357 56.6518 506.238 L62.1899 506.238 Q63.5267 509.389 64.227 512.699 Q64.9272 516.009 64.9272 519.415 Q64.9272 527.945 59.9619 532.942 Q54.9967 537.907 46.5303 537.907 Q37.7774 537.907 32.6531 533.196 Q27.4968 528.454 27.4968 520.433 Q27.4968 513.24 32.1438 509.07 Q36.7589 504.869 44.7161 504.869 M42.9973 510.725 Q38.1912 510.789 35.3266 513.431 Q32.4621 516.041 32.4621 520.369 Q32.4621 525.271 35.2312 528.231 Q38.0002 531.159 43.0292 531.605 L42.9973 510.725 Z" fill="#000000" fill-rule="nonzero" fill-opacity="1" /><path clip-path="url(#clip330)" d="M33.8307 474.6 Q33.2578 475.587 33.0032 476.764 Q32.7167 477.91 32.7167 479.311 Q32.7167 484.276 35.9632 486.949 Q39.1779 489.591 45.2253 489.591 L64.0042 489.591 L64.0042 495.479 L28.3562 495.479 L28.3562 489.591 L33.8944 489.591 Q30.6479 487.745 29.0883 484.785 Q27.4968 481.825 27.4968 477.592 Q27.4968 476.987 27.5923 476.255 Q27.656 475.523 27.8151 474.632 L33.8307 474.6 Z" fill="#000000" fill-rule="nonzero" fill-opacity="1" /><path clip-path="url(#clip330)" d="M33.8307 448.946 Q33.2578 449.933 33.0032 451.11 Q32.7167 452.256 32.7167 453.657 Q32.7167 458.622 35.9632 461.296 Q39.1779 463.937 45.2253 463.937 L64.0042 463.937 L64.0042 469.826 L28.3562 469.826 L28.3562 463.937 L33.8944 463.937 Q30.6479 462.091 29.0883 459.131 Q27.4968 456.171 27.4968 451.938 Q27.4968 451.333 27.5923 450.601 Q27.656 449.869 27.8151 448.978 L33.8307 448.946 Z" fill="#000000" fill-rule="nonzero" fill-opacity="1" /><path clip-path="url(#clip330)" d="M32.4621 430.422 Q32.4621 435.133 36.1542 437.87 Q39.8145 440.607 46.212 440.607 Q52.6095 440.607 56.3017 437.902 Q59.9619 435.164 59.9619 430.422 Q59.9619 425.743 56.2698 423.006 Q52.5777 420.269 46.212 420.269 Q39.8781 420.269 36.186 423.006 Q32.4621 425.743 32.4621 430.422 M27.4968 430.422 Q27.4968 422.783 32.4621 418.423 Q37.4273 414.062 46.212 414.062 Q54.9649 414.062 59.9619 418.423 Q64.9272 422.783 64.9272 430.422 Q64.9272 438.093 59.9619 442.453 Q54.9649 446.782 46.212 446.782 Q37.4273 446.782 32.4621 442.453 Q27.4968 438.093 27.4968 430.422 Z" fill="#000000" fill-rule="nonzero" fill-opacity="1" /><path clip-path="url(#clip330)" d="M33.8307 383.698 Q33.2578 384.684 33.0032 385.862 Q32.7167 387.008 32.7167 388.408 Q32.7167 393.374 35.9632 396.047 Q39.1779 398.689 45.2253 398.689 L64.0042 398.689 L64.0042 404.577 L28.3562 404.577 L28.3562 398.689 L33.8944 398.689 Q30.6479 396.843 29.0883 393.883 Q27.4968 390.923 27.4968 386.69 Q27.4968 386.085 27.5923 385.353 Q27.656 384.621 27.8151 383.729 L33.8307 383.698 Z" fill="#000000" fill-rule="nonzero" fill-opacity="1" /><polyline clip-path="url(#clip332)" style="stroke:#009af9; stroke-linecap:round; stroke-linejoin:round; stroke-width:12; stroke-opacity:1; fill:none" points="312.198,86.1857 642.385,222.091 972.573,379.809 1302.76,558.743 1632.95,761.414 1963.13,1019.03 2293.32,1384.24 "/>
<path clip-path="url(#clip332)" d="M312.198 102.186 L300.886 97.4977 L296.198 86.1857 L300.886 74.8737 L312.198 70.1857 L323.51 74.8737 L328.198 86.1857 L323.51 97.4977 Z" fill="#009af9" fill-rule="evenodd" fill-opacity="1" stroke="#000000" stroke-opacity="1" stroke-width="3.2"/>
<path clip-path="url(#clip332)" d="M642.385 238.091 L631.073 233.403 L626.385 222.091 L631.073 210.779 L642.385 206.091 L653.697 210.779 L658.385 222.091 L653.697 233.403 Z" fill="#009af9" fill-rule="evenodd" fill-opacity="1" stroke="#000000" stroke-opacity="1" stroke-width="3.2"/>
<path clip-path="url(#clip332)" d="M972.573 395.809 L961.261 391.121 L956.573 379.809 L961.261 368.497 L972.573 363.809 L983.885 368.497 L988.573 379.809 L983.885 391.121 Z" fill="#009af9" fill-rule="evenodd" fill-opacity="1" stroke="#000000" stroke-opacity="1" stroke-width="3.2"/>
<path clip-path="url(#clip332)" d="M1302.76 574.743 L1291.45 570.055 L1286.76 558.743 L1291.45 547.431 L1302.76 542.743 L1314.07 547.431 L1318.76 558.743 L1314.07 570.055 Z" fill="#009af9" fill-rule="evenodd" fill-opacity="1" stroke="#000000" stroke-opacity="1" stroke-width="3.2"/>
<path clip-path="url(#clip332)" d="M1632.95 777.414 L1621.64 772.726 L1616.95 761.414 L1621.64 750.102 L1632.95 745.414 L1644.26 750.102 L1648.95 761.414 L1644.26 772.726 Z" fill="#009af9" fill-rule="evenodd" fill-opacity="1" stroke="#000000" stroke-opacity="1" stroke-width="3.2"/>
<path clip-path="url(#clip332)" d="M1963.13 1035.03 L1951.82 1030.34 L1947.13 1019.03 L1951.82 1007.72 L1963.13 1003.03 L1974.45 1007.72 L1979.13 1019.03 L1974.45 1030.34 Z" fill="#009af9" fill-rule="evenodd" fill-opacity="1" stroke="#000000" stroke-opacity="1" stroke-width="3.2"/>
<path clip-path="url(#clip332)" d="M2293.32 1400.24 L2282.01 1395.55 L2277.32 1384.24 L2282.01 1372.93 L2293.32 1368.24 L2304.63 1372.93 L2309.32 1384.24 L2304.63 1395.55 Z" fill="#009af9" fill-rule="evenodd" fill-opacity="1" stroke="#000000" stroke-opacity="1" stroke-width="3.2"/>
<path clip-path="url(#clip330)" d="M2020.33 196.789 L2282.76 196.789 L2282.76 93.1086 L2020.33 93.1086  Z" fill="#ffffff" fill-rule="evenodd" fill-opacity="1"/>
<polyline clip-path="url(#clip330)" style="stroke:#000000; stroke-linecap:round; stroke-linejoin:round; stroke-width:4; stroke-opacity:1; fill:none" points="2020.33,196.789 2282.76,196.789 2282.76,93.1086 2020.33,93.1086 2020.33,196.789 "/>
<polyline clip-path="url(#clip330)" style="stroke:#009af9; stroke-linecap:round; stroke-linejoin:round; stroke-width:12; stroke-opacity:1; fill:none" points="2043.66,144.949 2183.66,144.949 "/>
<path clip-path="url(#clip330)" d="M2113.66 166.553 L2098.39 160.223 L2092.05 144.949 L2098.39 129.674 L2113.66 123.344 L2128.93 129.674 L2135.26 144.949 L2128.93 160.223 Z" fill="#009af9" fill-rule="evenodd" fill-opacity="1" stroke="#000000" stroke-opacity="1" stroke-width="4.55111"/>
<path clip-path="url(#clip330)" d="M2220.84 164.636 Q2219.03 169.266 2217.32 170.678 Q2215.6 172.09 2212.73 172.09 L2209.33 172.09 L2209.33 168.525 L2211.83 168.525 Q2213.59 168.525 2214.56 167.692 Q2215.53 166.858 2216.71 163.756 L2217.48 161.812 L2206.99 136.303 L2211.51 136.303 L2219.61 156.581 L2227.71 136.303 L2232.22 136.303 L2220.84 164.636 Z" fill="#000000" fill-rule="nonzero" fill-opacity="1" /><path clip-path="url(#clip330)" d="M2239.52 158.293 L2247.15 158.293 L2247.15 131.928 L2238.84 133.595 L2238.84 129.335 L2247.11 127.669 L2251.78 127.669 L2251.78 158.293 L2259.42 158.293 L2259.42 162.229 L2239.52 162.229 L2239.52 158.293 Z" fill="#000000" fill-rule="nonzero" fill-opacity="1" /></svg>
