<?xml version="1.0" encoding="utf-8"?>
<svg xmlns="http://www.w3.org/2000/svg" xmlns:xlink="http://www.w3.org/1999/xlink" width="600" height="400" viewBox="0 0 2400 1600">
<defs>
  <clipPath id="clip540">
    <rect x="0" y="0" width="2400" height="1600"/>
  </clipPath>
</defs>
<path clip-path="url(#clip540)" d="M0 1600 L2400 1600 L2400 0 L0 0  Z" fill="#ffffff" fill-rule="evenodd" fill-opacity="1"/>
<defs>
  <clipPath id="clip541">
    <rect x="140" y="47" width="2213" height="1377"/>
  </clipPath>
</defs>
<path clip-path="url(#clip540)" d="M140.696 1423.18 L2352.76 1423.18 L2352.76 47.2441 L140.696 47.2441  Z" fill="#ffffff" fill-rule="evenodd" fill-opacity="1"/>
<polyline clip-path="url(#clip541)" style="stroke:#000000; stroke-linecap:round; stroke-linejoin:round; stroke-width:2; stroke-opacity:0.1; fill:none" points="394.935,1423.18 394.935,47.2441 "/>
<polyline clip-path="url(#clip541)" style="stroke:#000000; stroke-linecap:round; stroke-linejoin:round; stroke-width:2; stroke-opacity:0.1; fill:none" points="678.865,1423.18 678.865,47.2441 "/>
<polyline clip-path="url(#clip541)" style="stroke:#000000; stroke-linecap:round; stroke-linejoin:round; stroke-width:2; stroke-opacity:0.1; fill:none" points="962.795,1423.18 962.795,47.2441 "/>
<polyline clip-path="url(#clip541)" style="stroke:#000000; stroke-linecap:round; stroke-linejoin:round; stroke-width:2; stroke-opacity:0.1; fill:none" points="1246.73,1423.18 1246.73,47.2441 "/>
<polyline clip-path="url(#clip541)" style="stroke:#000000; stroke-linecap:round; stroke-linejoin:round; stroke-width:2; stroke-opacity:0.1; fill:none" points="1530.66,1423.18 1530.66,47.2441 "/>
<polyline clip-path="url(#clip541)" style="stroke:#000000; stroke-linecap:round; stroke-linejoin:round; stroke-width:2; stroke-opacity:0.1; fill:none" points="1814.59,1423.18 1814.59,47.2441 "/>
<polyline clip-path="url(#clip541)" style="stroke:#000000; stroke-linecap:round; stroke-linejoin:round; stroke-width:2; stroke-opacity:0.1; fill:none" points="2098.52,1423.18 2098.52,47.2441 "/>
<polyline clip-path="url(#clip541)" style="stroke:#000000; stroke-linecap:round; stroke-linejoin:round; stroke-width:2; stroke-opacity:0.1; fill:none" points="140.696,1398.82 2352.76,1398.82 "/>
<polyline clip-path="url(#clip541)" style="stroke:#000000; stroke-linecap:round; stroke-linejoin:round; stroke-width:2; stroke-opacity:0.1; fill:none" points="140.696,996.719 2352.76,996.719 "/>
<polyline clip-path="url(#clip541)" style="stroke:#000000; stroke-linecap:round; stroke-linejoin:round; stroke-width:2; stroke-opacity:0.1; fill:none" points="140.696,594.618 2352.76,594.618 "/>
<polyline clip-path="url(#clip541)" style="stroke:#000000; stroke-linecap:round; stroke-linejoin:round; stroke-width:2; stroke-opacity:0.1; fill:none" points="140.696,192.517 2352.76,192.517 "/>
<polyline clip-path="url(#clip540)" style="stroke:#000000; stroke-linecap:round; stroke-linejoin:round; stroke-width:4; stroke-opacity:1; fill:none" points="140.696,1423.18 2352.76,1423.18 "/>
<polyline clip-path="url(#clip540)" style="stroke:#000000; stroke-linecap:round; stroke-linejoin:round; stroke-width:4; stroke-opacity:1; fill:none" points="394.935,1423.18 394.935,1404.28 "/>
<polyline clip-path="url(#clip540)" style="stroke:#000000; stroke-linecap:round; stroke-linejoin:round; stroke-width:4; stroke-opacity:1; fill:none" points="678.865,1423.18 678.865,1404.28 "/>
<polyline clip-path="url(#clip540)" style="stroke:#000000; stroke-linecap:round; stroke-linejoin:round; stroke-width:4; stroke-opacity:1; fill:none" points="962.795,1423.18 962.795,1404.28 "/>
<polyline clip-path="url(#clip540)" style="stroke:#000000; stroke-linecap:round; stroke-linejoin:round; stroke-width:4; stroke-opacity:1; fill:none" points="1246.73,1423.18 1246.73,1404.28 "/>
<polyline clip-path="url(#clip540)" style="stroke:#000000; stroke-linecap:round; stroke-linejoin:round; stroke-width:4; stroke-opacity:1; fill:none" points="1530.66,1423.18 1530.66,1404.28 "/>
<polyline clip-path="url(#clip540)" style="stroke:#000000; stroke-linecap:round; stroke-linejoin:round; stroke-width:4; stroke-opacity:1; fill:none" points="1814.59,1423.18 1814.59,1404.28 "/>
<polyline clip-path="url(#clip540)" style="stroke:#000000; stroke-linecap:round; stroke-linejoin:round; stroke-width:4; stroke-opacity:1; fill:none" points="2098.52,1423.18 2098.52,1404.28 "/>
<path clip-path="url(#clip540)" d="M341.787 1468.75 L371.463 1468.75 L371.463 1472.69 L341.787 1472.69 L341.787 1468.75 Z" fill="#000000" fill-rule="nonzero" fill-opacity="1" /><path clip-path="url(#clip540)" d="M391.555 1454.1 Q387.944 1454.1 386.115 1457.66 Q384.31 1461.2 384.31 1468.33 Q384.31 1475.44 386.115 1479.01 Q387.944 1482.55 391.555 1482.55 Q395.189 1482.55 396.995 1479.01 Q398.824 1475.44 398.824 1468.33 Q398.824 1461.2 396.995 1457.66 Q395.189 1454.1 391.555 1454.1 M391.555 1450.39 Q397.365 1450.39 400.421 1455 Q403.5 1459.58 403.5 1468.33 Q403.5 1477.06 400.421 1481.67 Q397.365 1486.25 391.555 1486.25 Q385.745 1486.25 382.666 1481.67 Q379.611 1477.06 379.611 1468.33 Q379.611 1459.58 382.666 1455 Q385.745 1450.39 391.555 1450.39 Z" fill="#000000" fill-rule="nonzero" fill-opacity="1" /><path clip-path="url(#clip540)" d="M411.717 1479.7 L416.601 1479.7 L416.601 1485.58 L411.717 1485.58 L411.717 1479.7 Z" fill="#000000" fill-rule="nonzero" fill-opacity="1" /><path clip-path="url(#clip540)" d="M440.953 1466.95 Q444.309 1467.66 446.184 1469.93 Q448.083 1472.2 448.083 1475.53 Q448.083 1480.65 444.564 1483.45 Q441.046 1486.25 434.564 1486.25 Q432.388 1486.25 430.073 1485.81 Q427.782 1485.39 425.328 1484.54 L425.328 1480.02 Q427.273 1481.16 429.587 1481.74 Q431.902 1482.32 434.425 1482.32 Q438.823 1482.32 441.115 1480.58 Q443.43 1478.84 443.43 1475.53 Q443.43 1472.48 441.277 1470.77 Q439.147 1469.03 435.328 1469.03 L431.3 1469.03 L431.3 1465.19 L435.513 1465.19 Q438.962 1465.19 440.791 1463.82 Q442.62 1462.43 442.62 1459.84 Q442.62 1457.18 440.722 1455.77 Q438.847 1454.33 435.328 1454.33 Q433.407 1454.33 431.208 1454.75 Q429.009 1455.16 426.37 1456.04 L426.37 1451.88 Q429.032 1451.14 431.347 1450.77 Q433.685 1450.39 435.745 1450.39 Q441.069 1450.39 444.171 1452.83 Q447.272 1455.23 447.272 1459.35 Q447.272 1462.22 445.629 1464.21 Q443.985 1466.18 440.953 1466.95 Z" fill="#000000" fill-rule="nonzero" fill-opacity="1" /><path clip-path="url(#clip540)" d="M626.192 1468.75 L655.868 1468.75 L655.868 1472.69 L626.192 1472.69 L626.192 1468.75 Z" fill="#000000" fill-rule="nonzero" fill-opacity="1" /><path clip-path="url(#clip540)" d="M675.96 1454.1 Q672.349 1454.1 670.52 1457.66 Q668.715 1461.2 668.715 1468.33 Q668.715 1475.44 670.52 1479.01 Q672.349 1482.55 675.96 1482.55 Q679.594 1482.55 681.4 1479.01 Q683.228 1475.44 683.228 1468.33 Q683.228 1461.2 681.4 1457.66 Q679.594 1454.1 675.96 1454.1 M675.96 1450.39 Q681.77 1450.39 684.826 1455 Q687.904 1459.58 687.904 1468.33 Q687.904 1477.06 684.826 1481.67 Q681.77 1486.25 675.96 1486.25 Q670.15 1486.25 667.071 1481.67 Q664.016 1477.06 664.016 1468.33 Q664.016 1459.58 667.071 1455 Q670.15 1450.39 675.96 1450.39 Z" fill="#000000" fill-rule="nonzero" fill-opacity="1" /><path clip-path="url(#clip540)" d="M696.122 1479.7 L701.006 1479.7 L701.006 1485.58 L696.122 1485.58 L696.122 1479.7 Z" fill="#000000" fill-rule="nonzero" fill-opacity="1" /><path clip-path="url(#clip540)" d="M715.219 1481.64 L731.538 1481.64 L731.538 1485.58 L709.594 1485.58 L709.594 1481.64 Q712.256 1478.89 716.839 1474.26 Q721.446 1469.61 722.626 1468.27 Q724.872 1465.74 725.751 1464.01 Q726.654 1462.25 726.654 1460.56 Q726.654 1457.8 724.71 1456.07 Q722.788 1454.33 719.687 1454.33 Q717.488 1454.33 715.034 1455.09 Q712.603 1455.86 709.826 1457.41 L709.826 1452.69 Q712.65 1451.55 715.103 1450.97 Q717.557 1450.39 719.594 1450.39 Q724.964 1450.39 728.159 1453.08 Q731.353 1455.77 731.353 1460.26 Q731.353 1462.39 730.543 1464.31 Q729.756 1466.2 727.65 1468.8 Q727.071 1469.47 723.969 1472.69 Q720.867 1475.88 715.219 1481.64 Z" fill="#000000" fill-rule="nonzero" fill-opacity="1" /><path clip-path="url(#clip540)" d="M909.937 1468.75 L939.613 1468.75 L939.613 1472.69 L909.937 1472.69 L909.937 1468.75 Z" fill="#000000" fill-rule="nonzero" fill-opacity="1" /><path clip-path="url(#clip540)" d="M959.705 1454.1 Q956.094 1454.1 954.265 1457.66 Q952.46 1461.2 952.46 1468.33 Q952.46 1475.44 954.265 1479.01 Q956.094 1482.55 959.705 1482.55 Q963.339 1482.55 965.145 1479.01 Q966.974 1475.44 966.974 1468.33 Q966.974 1461.2 965.145 1457.66 Q963.339 1454.1 959.705 1454.1 M959.705 1450.39 Q965.515 1450.39 968.571 1455 Q971.65 1459.58 971.65 1468.33 Q971.65 1477.06 968.571 1481.67 Q965.515 1486.25 959.705 1486.25 Q953.895 1486.25 950.816 1481.67 Q947.761 1477.06 947.761 1468.33 Q947.761 1459.58 950.816 1455 Q953.895 1450.39 959.705 1450.39 Z" fill="#000000" fill-rule="nonzero" fill-opacity="1" /><path clip-path="url(#clip540)" d="M979.867 1479.7 L984.751 1479.7 L984.751 1485.58 L979.867 1485.58 L979.867 1479.7 Z" fill="#000000" fill-rule="nonzero" fill-opacity="1" /><path clip-path="url(#clip540)" d="M995.747 1481.64 L1003.39 1481.64 L1003.39 1455.28 L995.075 1456.95 L995.075 1452.69 L1003.34 1451.02 L1008.02 1451.02 L1008.02 1481.64 L1015.65 1481.64 L1015.65 1485.58 L995.747 1485.58 L995.747 1481.64 Z" fill="#000000" fill-rule="nonzero" fill-opacity="1" /><path clip-path="url(#clip540)" d="M1224.11 1454.1 Q1220.5 1454.1 1218.67 1457.66 Q1216.86 1461.2 1216.86 1468.33 Q1216.86 1475.44 1218.67 1479.01 Q1220.5 1482.55 1224.11 1482.55 Q1227.74 1482.55 1229.55 1479.01 Q1231.38 1475.44 1231.38 1468.33 Q1231.38 1461.2 1229.55 1457.66 Q1227.74 1454.1 1224.11 1454.1 M1224.11 1450.39 Q1229.92 1450.39 1232.98 1455 Q1236.05 1459.58 1236.05 1468.33 Q1236.05 1477.06 1232.98 1481.67 Q1229.92 1486.25 1224.11 1486.25 Q1218.3 1486.25 1215.22 1481.67 Q1212.17 1477.06 1212.17 1468.33 Q1212.17 1459.58 1215.22 1455 Q1218.3 1450.39 1224.11 1450.39 Z" fill="#000000" fill-rule="nonzero" fill-opacity="1" /><path clip-path="url(#clip540)" d="M1244.27 1479.7 L1249.16 1479.7 L1249.16 1485.58 L1244.27 1485.58 L1244.27 1479.7 Z" fill="#000000" fill-rule="nonzero" fill-opacity="1" /><path clip-path="url(#clip540)" d="M1269.34 1454.1 Q1265.73 1454.1 1263.9 1457.66 Q1262.1 1461.2 1262.1 1468.33 Q1262.1 1475.44 1263.9 1479.01 Q1265.73 1482.55 1269.34 1482.55 Q1272.98 1482.55 1274.78 1479.01 Q1276.61 1475.44 1276.61 1468.33 Q1276.61 1461.2 1274.78 1457.66 Q1272.98 1454.1 1269.34 1454.1 M1269.34 1450.39 Q1275.15 1450.39 1278.21 1455 Q1281.29 1459.58 1281.29 1468.33 Q1281.29 1477.06 1278.21 1481.67 Q1275.15 1486.25 1269.34 1486.25 Q1263.53 1486.25 1260.45 1481.67 Q1257.4 1477.06 1257.4 1468.33 Q1257.4 1459.58 1260.45 1455 Q1263.53 1450.39 1269.34 1450.39 Z" fill="#000000" fill-rule="nonzero" fill-opacity="1" /><path clip-path="url(#clip540)" d="M1508.65 1454.1 Q1505.04 1454.1 1503.21 1457.66 Q1501.41 1461.2 1501.41 1468.33 Q1501.41 1475.44 1503.21 1479.01 Q1505.04 1482.55 1508.65 1482.55 Q1512.29 1482.55 1514.09 1479.01 Q1515.92 1475.44 1515.92 1468.33 Q1515.92 1461.2 1514.09 1457.66 Q1512.29 1454.1 1508.65 1454.1 M1508.65 1450.39 Q1514.46 1450.39 1517.52 1455 Q1520.6 1459.58 1520.6 1468.33 Q1520.6 1477.06 1517.52 1481.67 Q1514.46 1486.25 1508.65 1486.25 Q1502.84 1486.25 1499.77 1481.67 Q1496.71 1477.06 1496.71 1468.33 Q1496.71 1459.58 1499.77 1455 Q1502.84 1450.39 1508.65 1450.39 Z" fill="#000000" fill-rule="nonzero" fill-opacity="1" /><path clip-path="url(#clip540)" d="M1528.82 1479.7 L1533.7 1479.7 L1533.7 1485.58 L1528.82 1485.58 L1528.82 1479.7 Z" fill="#000000" fill-rule="nonzero" fill-opacity="1" /><path clip-path="url(#clip540)" d="M1544.7 1481.64 L1552.33 1481.64 L1552.33 1455.28 L1544.02 1456.95 L1544.02 1452.69 L1552.29 1451.02 L1556.96 1451.02 L1556.96 1481.64 L1564.6 1481.64 L1564.6 1485.58 L1544.7 1485.58 L1544.7 1481.64 Z" fill="#000000" fill-rule="nonzero" fill-opacity="1" /><path clip-path="url(#clip540)" d="M1792.77 1454.1 Q1789.16 1454.1 1787.33 1457.66 Q1785.52 1461.2 1785.52 1468.33 Q1785.52 1475.44 1787.33 1479.01 Q1789.16 1482.55 1792.77 1482.55 Q1796.4 1482.55 1798.21 1479.01 Q1800.04 1475.44 1800.04 1468.33 Q1800.04 1461.2 1798.21 1457.66 Q1796.4 1454.1 1792.77 1454.1 M1792.77 1450.39 Q1798.58 1450.39 1801.64 1455 Q1804.71 1459.58 1804.71 1468.33 Q1804.71 1477.06 1801.64 1481.67 Q1798.58 1486.25 1792.77 1486.25 Q1786.96 1486.25 1783.88 1481.67 Q1780.82 1477.06 1780.82 1468.33 Q1780.82 1459.58 1783.88 1455 Q1786.96 1450.39 1792.77 1450.39 Z" fill="#000000" fill-rule="nonzero" fill-opacity="1" /><path clip-path="url(#clip540)" d="M1812.93 1479.7 L1817.82 1479.7 L1817.82 1485.58 L1812.93 1485.58 L1812.93 1479.7 Z" fill="#000000" fill-rule="nonzero" fill-opacity="1" /><path clip-path="url(#clip540)" d="M1832.03 1481.64 L1848.35 1481.64 L1848.35 1485.58 L1826.4 1485.58 L1826.4 1481.64 Q1829.07 1478.89 1833.65 1474.26 Q1838.26 1469.61 1839.44 1468.27 Q1841.68 1465.74 1842.56 1464.01 Q1843.46 1462.25 1843.46 1460.56 Q1843.46 1457.8 1841.52 1456.07 Q1839.6 1454.33 1836.5 1454.33 Q1834.3 1454.33 1831.84 1455.09 Q1829.41 1455.86 1826.63 1457.41 L1826.63 1452.69 Q1829.46 1451.55 1831.91 1450.97 Q1834.37 1450.39 1836.4 1450.39 Q1841.77 1450.39 1844.97 1453.08 Q1848.16 1455.77 1848.16 1460.26 Q1848.16 1462.39 1847.35 1464.31 Q1846.57 1466.2 1844.46 1468.8 Q1843.88 1469.47 1840.78 1472.69 Q1837.68 1475.88 1832.03 1481.64 Z" fill="#000000" fill-rule="nonzero" fill-opacity="1" /><path clip-path="url(#clip540)" d="M2076.23 1454.1 Q2072.61 1454.1 2070.79 1457.66 Q2068.98 1461.2 2068.98 1468.33 Q2068.98 1475.44 2070.79 1479.01 Q2072.61 1482.55 2076.23 1482.55 Q2079.86 1482.55 2081.66 1479.01 Q2083.49 1475.44 2083.49 1468.33 Q2083.49 1461.2 2081.66 1457.66 Q2079.86 1454.1 2076.23 1454.1 M2076.23 1450.39 Q2082.04 1450.39 2085.09 1455 Q2088.17 1459.58 2088.17 1468.33 Q2088.17 1477.06 2085.09 1481.67 Q2082.04 1486.25 2076.23 1486.25 Q2070.41 1486.25 2067.34 1481.67 Q2064.28 1477.06 2064.28 1468.33 Q2064.28 1459.58 2067.34 1455 Q2070.41 1450.39 2076.23 1450.39 Z" fill="#000000" fill-rule="nonzero" fill-opacity="1" /><path clip-path="url(#clip540)" d="M2096.39 1479.7 L2101.27 1479.7 L2101.27 1485.58 L2096.39 1485.58 L2096.39 1479.7 Z" fill="#000000" fill-rule="nonzero" fill-opacity="1" /><path clip-path="url(#clip540)" d="M2125.62 1466.95 Q2128.98 1467.66 2130.85 1469.93 Q2132.75 1472.2 2132.75 1475.53 Q2132.75 1480.65 2129.23 1483.45 Q2125.72 1486.25 2119.23 1486.25 Q2117.06 1486.25 2114.74 1485.81 Q2112.45 1485.39 2110 1484.54 L2110 1480.02 Q2111.94 1481.16 2114.26 1481.74 Q2116.57 1482.32 2119.1 1482.32 Q2123.49 1482.32 2125.79 1480.58 Q2128.1 1478.84 2128.1 1475.53 Q2128.1 1472.48 2125.95 1470.77 Q2123.82 1469.03 2120 1469.03 L2115.97 1469.03 L2115.97 1465.19 L2120.18 1465.19 Q2123.63 1465.19 2125.46 1463.82 Q2127.29 1462.43 2127.29 1459.84 Q2127.29 1457.18 2125.39 1455.77 Q2123.52 1454.33 2120 1454.33 Q2118.08 1454.33 2115.88 1454.75 Q2113.68 1455.16 2111.04 1456.04 L2111.04 1451.88 Q2113.7 1451.14 2116.02 1450.77 Q2118.35 1450.39 2120.41 1450.39 Q2125.74 1450.39 2128.84 1452.83 Q2131.94 1455.23 2131.94 1459.35 Q2131.94 1462.22 2130.3 1464.21 Q2128.66 1466.18 2125.62 1466.95 Z" fill="#000000" fill-rule="nonzero" fill-opacity="1" /><path clip-path="url(#clip540)" d="M933.151 1548.76 L933.151 1551.62 L906.224 1551.62 Q906.606 1557.67 909.853 1560.85 Q913.131 1564 918.955 1564 Q922.329 1564 925.48 1563.17 Q928.663 1562.35 931.782 1560.69 L931.782 1566.23 Q928.631 1567.57 925.321 1568.27 Q922.011 1568.97 918.605 1568.97 Q910.075 1568.97 905.078 1564 Q900.113 1559.04 900.113 1550.57 Q900.113 1541.82 904.824 1536.69 Q909.566 1531.54 917.587 1531.54 Q924.78 1531.54 928.95 1536.18 Q933.151 1540.8 933.151 1548.76 M927.295 1547.04 Q927.231 1542.23 924.589 1539.37 Q921.979 1536.5 917.651 1536.5 Q912.749 1536.5 909.789 1539.27 Q906.861 1542.04 906.415 1547.07 L927.295 1547.04 Z" fill="#000000" fill-rule="nonzero" fill-opacity="1" /><path clip-path="url(#clip540)" d="M942.763 1532.4 L948.62 1532.4 L948.62 1568.04 L942.763 1568.04 L942.763 1532.4 M942.763 1518.52 L948.62 1518.52 L948.62 1525.93 L942.763 1525.93 L942.763 1518.52 Z" fill="#000000" fill-rule="nonzero" fill-opacity="1" /><path clip-path="url(#clip540)" d="M984.331 1549.81 Q984.331 1543.44 981.69 1539.94 Q979.08 1536.44 974.337 1536.44 Q969.627 1536.44 966.985 1539.94 Q964.375 1543.44 964.375 1549.81 Q964.375 1556.14 966.985 1559.64 Q969.627 1563.14 974.337 1563.14 Q979.08 1563.14 981.69 1559.64 Q984.331 1556.14 984.331 1549.81 M990.188 1563.62 Q990.188 1572.72 986.146 1577.15 Q982.103 1581.6 973.764 1581.6 Q970.677 1581.6 967.94 1581.13 Q965.202 1580.68 962.624 1579.72 L962.624 1574.03 Q965.202 1575.43 967.717 1576.1 Q970.231 1576.76 972.841 1576.76 Q978.602 1576.76 981.467 1573.74 Q984.331 1570.75 984.331 1564.67 L984.331 1561.77 Q982.517 1564.92 979.684 1566.48 Q976.852 1568.04 972.905 1568.04 Q966.348 1568.04 962.338 1563.05 Q958.327 1558.05 958.327 1549.81 Q958.327 1541.53 962.338 1536.53 Q966.348 1531.54 972.905 1531.54 Q976.852 1531.54 979.684 1533.1 Q982.517 1534.66 984.331 1537.81 L984.331 1532.4 L990.188 1532.4 L990.188 1563.62 Z" fill="#000000" fill-rule="nonzero" fill-opacity="1" /><path clip-path="url(#clip540)" d="M1032.74 1548.76 L1032.74 1551.62 L1005.82 1551.62 Q1006.2 1557.67 1009.44 1560.85 Q1012.72 1564 1018.55 1564 Q1021.92 1564 1025.07 1563.17 Q1028.25 1562.35 1031.37 1560.69 L1031.37 1566.23 Q1028.22 1567.57 1024.91 1568.27 Q1021.6 1568.97 1018.2 1568.97 Q1009.67 1568.97 1004.67 1564 Q999.704 1559.04 999.704 1550.57 Q999.704 1541.82 1004.42 1536.69 Q1009.16 1531.54 1017.18 1531.54 Q1024.37 1531.54 1028.54 1536.18 Q1032.74 1540.8 1032.74 1548.76 M1026.89 1547.04 Q1026.82 1542.23 1024.18 1539.37 Q1021.57 1536.5 1017.24 1536.5 Q1012.34 1536.5 1009.38 1539.27 Q1006.45 1542.04 1006.01 1547.07 L1026.89 1547.04 Z" fill="#000000" fill-rule="nonzero" fill-opacity="1" /><path clip-path="url(#clip540)" d="M1071.99 1546.53 L1071.99 1568.04 L1066.13 1568.04 L1066.13 1546.72 Q1066.13 1541.66 1064.16 1539.14 Q1062.18 1536.63 1058.24 1536.63 Q1053.49 1536.63 1050.76 1539.65 Q1048.02 1542.68 1048.02 1547.9 L1048.02 1568.04 L1042.13 1568.04 L1042.13 1532.4 L1048.02 1532.4 L1048.02 1537.93 Q1050.12 1534.72 1052.95 1533.13 Q1055.82 1531.54 1059.54 1531.54 Q1065.69 1531.54 1068.84 1535.36 Q1071.99 1539.14 1071.99 1546.53 Z" fill="#000000" fill-rule="nonzero" fill-opacity="1" /><path clip-path="url(#clip540)" d="M1079.47 1532.4 L1085.67 1532.4 L1096.81 1562.31 L1107.95 1532.4 L1114.16 1532.4 L1100.79 1568.04 L1092.83 1568.04 L1079.47 1532.4 Z" fill="#000000" fill-rule="nonzero" fill-opacity="1" /><path clip-path="url(#clip540)" d="M1138.45 1550.12 Q1131.35 1550.12 1128.61 1551.75 Q1125.87 1553.37 1125.87 1557.29 Q1125.87 1560.4 1127.91 1562.25 Q1129.98 1564.07 1133.51 1564.07 Q1138.38 1564.07 1141.31 1560.63 Q1144.27 1557.16 1144.27 1551.43 L1144.27 1550.12 L1138.45 1550.12 M1150.13 1547.71 L1150.13 1568.04 L1144.27 1568.04 L1144.27 1562.63 Q1142.26 1565.88 1139.27 1567.44 Q1136.28 1568.97 1131.95 1568.97 Q1126.48 1568.97 1123.23 1565.91 Q1120.02 1562.82 1120.02 1557.67 Q1120.02 1551.65 1124.03 1548.6 Q1128.07 1545.54 1136.06 1545.54 L1144.27 1545.54 L1144.27 1544.97 Q1144.27 1540.93 1141.6 1538.73 Q1138.95 1536.5 1134.15 1536.5 Q1131.09 1536.5 1128.2 1537.23 Q1125.3 1537.97 1122.63 1539.43 L1122.63 1534.02 Q1125.84 1532.78 1128.86 1532.17 Q1131.89 1531.54 1134.75 1531.54 Q1142.49 1531.54 1146.31 1535.55 Q1150.13 1539.56 1150.13 1547.71 Z" fill="#000000" fill-rule="nonzero" fill-opacity="1" /><path clip-path="url(#clip540)" d="M1162.19 1518.52 L1168.05 1518.52 L1168.05 1568.04 L1162.19 1568.04 L1162.19 1518.52 Z" fill="#000000" fill-rule="nonzero" fill-opacity="1" /><path clip-path="url(#clip540)" d="M1179.69 1553.98 L1179.69 1532.4 L1185.55 1532.4 L1185.55 1553.75 Q1185.55 1558.81 1187.52 1561.36 Q1189.5 1563.87 1193.44 1563.87 Q1198.19 1563.87 1200.92 1560.85 Q1203.69 1557.83 1203.69 1552.61 L1203.69 1532.4 L1209.55 1532.4 L1209.55 1568.04 L1203.69 1568.04 L1203.69 1562.57 Q1201.56 1565.82 1198.73 1567.41 Q1195.93 1568.97 1192.2 1568.97 Q1186.06 1568.97 1182.88 1565.15 Q1179.69 1561.33 1179.69 1553.98 M1194.43 1531.54 L1194.43 1531.54 Z" fill="#000000" fill-rule="nonzero" fill-opacity="1" /><path clip-path="url(#clip540)" d="M1252.1 1548.76 L1252.1 1551.62 L1225.18 1551.62 Q1225.56 1557.67 1228.81 1560.85 Q1232.08 1564 1237.91 1564 Q1241.28 1564 1244.43 1563.17 Q1247.62 1562.35 1250.74 1560.69 L1250.74 1566.23 Q1247.59 1567.57 1244.27 1568.27 Q1240.96 1568.97 1237.56 1568.97 Q1229.03 1568.97 1224.03 1564 Q1219.07 1559.04 1219.07 1550.57 Q1219.07 1541.82 1223.78 1536.69 Q1228.52 1531.54 1236.54 1531.54 Q1243.73 1531.54 1247.9 1536.18 Q1252.1 1540.8 1252.1 1548.76 M1246.25 1547.04 Q1246.18 1542.23 1243.54 1539.37 Q1240.93 1536.5 1236.6 1536.5 Q1231.7 1536.5 1228.74 1539.27 Q1225.81 1542.04 1225.37 1547.07 L1246.25 1547.04 Z" fill="#000000" fill-rule="nonzero" fill-opacity="1" /><path clip-path="url(#clip540)" d="M1284.44 1533.45 L1284.44 1538.98 Q1281.96 1537.71 1279.29 1537.07 Q1276.61 1536.44 1273.75 1536.44 Q1269.39 1536.44 1267.19 1537.77 Q1265.03 1539.11 1265.03 1541.79 Q1265.03 1543.82 1266.59 1545 Q1268.15 1546.15 1272.86 1547.2 L1274.86 1547.64 Q1281.1 1548.98 1283.71 1551.43 Q1286.35 1553.85 1286.35 1558.21 Q1286.35 1563.17 1282.41 1566.07 Q1278.49 1568.97 1271.62 1568.97 Q1268.75 1568.97 1265.63 1568.39 Q1262.54 1567.85 1259.11 1566.74 L1259.11 1560.69 Q1262.35 1562.38 1265.5 1563.24 Q1268.66 1564.07 1271.74 1564.07 Q1275.88 1564.07 1278.11 1562.66 Q1280.34 1561.23 1280.34 1558.65 Q1280.34 1556.27 1278.71 1554.99 Q1277.12 1553.72 1271.68 1552.54 L1269.64 1552.07 Q1264.2 1550.92 1261.78 1548.56 Q1259.36 1546.18 1259.36 1542.04 Q1259.36 1537.01 1262.93 1534.27 Q1266.49 1531.54 1273.05 1531.54 Q1276.29 1531.54 1279.16 1532.01 Q1282.02 1532.49 1284.44 1533.45 Z" fill="#000000" fill-rule="nonzero" fill-opacity="1" /><path clip-path="url(#clip540)" d="M1313.44 1547.58 L1330.59 1547.58 L1330.59 1552.8 L1313.44 1552.8 L1313.44 1547.58 Z" fill="#000000" fill-rule="nonzero" fill-opacity="1" /><path clip-path="url(#clip540)" d="M1346.35 1548.82 Q1342.78 1548.06 1340.87 1545.99 Q1338.96 1543.95 1338.96 1540.99 Q1338.96 1536.5 1342.59 1533.99 Q1346.19 1531.5 1352.43 1531.5 Q1354.85 1531.5 1357.55 1531.89 Q1360.26 1532.27 1363.38 1533.03 L1363.38 1538.35 Q1360.29 1537.42 1357.74 1537.01 Q1355.17 1536.6 1352.91 1536.6 Q1349.12 1536.6 1346.92 1538.06 Q1344.69 1539.53 1344.69 1541.56 Q1344.69 1543.79 1346.86 1545.22 Q1348.99 1546.62 1352.68 1546.62 L1357.62 1546.62 L1357.62 1551.46 L1352.91 1551.46 Q1348.55 1551.46 1346.25 1553.08 Q1343.77 1554.87 1343.77 1557.67 Q1343.77 1560.53 1346.44 1562.31 Q1349.15 1564.1 1353.96 1564.1 Q1356.92 1564.1 1359.62 1563.52 Q1362.33 1562.92 1364.59 1561.74 L1364.59 1567.18 Q1361.72 1568.08 1359.05 1568.52 Q1356.34 1568.97 1353.8 1568.97 Q1346.22 1568.97 1342.12 1566.07 Q1338.01 1563.17 1338.01 1557.67 Q1338.01 1554.23 1340.21 1551.91 Q1342.4 1549.58 1346.35 1548.82 Z" fill="#000000" fill-rule="nonzero" fill-opacity="1" /><path clip-path="url(#clip540)" d="M1402.24 1578.87 L1402.24 1583.42 L1368.37 1583.42 L1368.37 1578.87 L1402.24 1578.87 Z" fill="#000000" fill-rule="nonzero" fill-opacity="1" /><path clip-path="url(#clip540)" d="M1408 1520.52 L1435.31 1520.52 L1435.31 1525.93 L1414.43 1525.93 L1414.43 1539.94 L1433.27 1539.94 L1433.27 1545.35 L1414.43 1545.35 L1414.43 1568.04 L1408 1568.04 L1408 1520.52 Z" fill="#000000" fill-rule="nonzero" fill-opacity="1" /><path clip-path="url(#clip540)" d="M1500.75 1518.58 Q1496.48 1525.9 1494.42 1533.06 Q1492.35 1540.23 1492.35 1547.58 Q1492.35 1554.93 1494.42 1562.16 Q1496.52 1569.35 1500.75 1576.64 L1495.66 1576.64 Q1490.88 1569.16 1488.5 1561.93 Q1486.14 1554.71 1486.14 1547.58 Q1486.14 1540.48 1488.5 1533.29 Q1490.85 1526.09 1495.66 1518.58 L1500.75 1518.58 Z" fill="#000000" fill-rule="nonzero" fill-opacity="1" /><path clip-path="url(#clip540)" d="M1512.37 1520.52 L1542.41 1520.52 L1542.41 1525.93 L1518.8 1525.93 L1518.8 1540 L1541.43 1540 L1541.43 1545.41 L1518.8 1545.41 L1518.8 1562.63 L1542.99 1562.63 L1542.99 1568.04 L1512.37 1568.04 L1512.37 1520.52 Z" fill="#000000" fill-rule="nonzero" fill-opacity="1" /><path clip-path="url(#clip540)" d="M1569.69 1555.98 L1569.69 1568.04 L1566 1568.04 L1566 1556.11 Q1566 1553.28 1564.76 1551.87 Q1563.52 1550.44 1561.03 1550.44 Q1558.04 1550.44 1556.32 1552.16 Q1554.6 1553.85 1554.6 1556.78 L1554.6 1568.04 L1550.88 1568.04 L1550.88 1540.32 L1554.6 1540.32 L1554.6 1551.17 Q1555.91 1549.39 1557.69 1548.5 Q1559.5 1547.61 1561.86 1547.61 Q1565.71 1547.61 1567.68 1549.74 Q1569.69 1551.87 1569.69 1555.98 Z" fill="#000000" fill-rule="nonzero" fill-opacity="1" /><path clip-path="url(#clip540)" d="M1578.73 1518.58 L1583.82 1518.58 Q1588.6 1526.09 1590.95 1533.29 Q1593.34 1540.48 1593.34 1547.58 Q1593.34 1554.71 1590.95 1561.93 Q1588.6 1569.16 1583.82 1576.64 L1578.73 1576.64 Q1582.96 1569.35 1585.03 1562.16 Q1587.13 1554.93 1587.13 1547.58 Q1587.13 1540.23 1585.03 1533.06 Q1582.96 1525.9 1578.73 1518.58 Z" fill="#000000" fill-rule="nonzero" fill-opacity="1" /><polyline clip-path="url(#clip540)" style="stroke:#000000; stroke-linecap:round; stroke-linejoin:round; stroke-width:4; stroke-opacity:1; fill:none" points="140.696,1423.18 140.696,47.2441 "/>
<polyline clip-path="url(#clip540)" style="stroke:#000000; stroke-linecap:round; stroke-linejoin:round; stroke-width:4; stroke-opacity:1; fill:none" points="140.696,1398.82 159.593,1398.82 "/>
<polyline clip-path="url(#clip540)" style="stroke:#000000; stroke-linecap:round; stroke-linejoin:round; stroke-width:4; stroke-opacity:1; fill:none" points="140.696,996.719 159.593,996.719 "/>
<polyline clip-path="url(#clip540)" style="stroke:#000000; stroke-linecap:round; stroke-linejoin:round; stroke-width:4; stroke-opacity:1; fill:none" points="140.696,594.618 159.593,594.618 "/>
<polyline clip-path="url(#clip540)" style="stroke:#000000; stroke-linecap:round; stroke-linejoin:round; stroke-width:4; stroke-opacity:1; fill:none" points="140.696,192.517 159.593,192.517 "/>
<path clip-path="url(#clip540)" d="M92.7512 1384.62 Q89.1401 1384.62 87.3114 1388.18 Q85.5058 1391.73 85.5058 1398.86 Q85.5058 1405.96 87.3114 1409.53 Q89.1401 1413.07 92.7512 1413.07 Q96.3854 1413.07 98.1909 1409.53 Q100.02 1405.96 100.02 1398.86 Q100.02 1391.73 98.1909 1388.18 Q96.3854 1384.62 92.7512 1384.62 M92.7512 1380.92 Q98.5613 1380.92 101.617 1385.52 Q104.696 1390.11 104.696 1398.86 Q104.696 1407.58 101.617 1412.19 Q98.5613 1416.77 92.7512 1416.77 Q86.941 1416.77 83.8623 1412.19 Q80.8068 1407.58 80.8068 1398.86 Q80.8068 1390.11 83.8623 1385.52 Q86.941 1380.92 92.7512 1380.92 Z" fill="#000000" fill-rule="nonzero" fill-opacity="1" /><path clip-path="url(#clip540)" d="M53.3995 1010.06 L61.0384 1010.06 L61.0384 983.699 L52.7282 985.365 L52.7282 981.106 L60.9921 979.439 L65.668 979.439 L65.668 1010.06 L73.3068 1010.06 L73.3068 1014 L53.3995 1014 L53.3995 1010.06 Z" fill="#000000" fill-rule="nonzero" fill-opacity="1" /><path clip-path="url(#clip540)" d="M92.7512 982.518 Q89.1401 982.518 87.3114 986.083 Q85.5058 989.625 85.5058 996.754 Q85.5058 1003.86 87.3114 1007.43 Q89.1401 1010.97 92.7512 1010.97 Q96.3854 1010.97 98.1909 1007.43 Q100.02 1003.86 100.02 996.754 Q100.02 989.625 98.1909 986.083 Q96.3854 982.518 92.7512 982.518 M92.7512 978.814 Q98.5613 978.814 101.617 983.421 Q104.696 988.004 104.696 996.754 Q104.696 1005.48 101.617 1010.09 Q98.5613 1014.67 92.7512 1014.67 Q86.941 1014.67 83.8623 1010.09 Q80.8068 1005.48 80.8068 996.754 Q80.8068 988.004 83.8623 983.421 Q86.941 978.814 92.7512 978.814 Z" fill="#000000" fill-rule="nonzero" fill-opacity="1" /><path clip-path="url(#clip540)" d="M56.6171 607.963 L72.9365 607.963 L72.9365 611.898 L50.9921 611.898 L50.9921 607.963 Q53.6541 605.209 58.2375 600.579 Q62.8439 595.926 64.0245 594.584 Q66.2698 592.061 67.1494 590.324 Q68.0522 588.565 68.0522 586.875 Q68.0522 584.121 66.1078 582.385 Q64.1865 580.649 61.0847 580.649 Q58.8856 580.649 56.4319 581.412 Q54.0014 582.176 51.2236 583.727 L51.2236 579.005 Q54.0477 577.871 56.5014 577.292 Q58.955 576.713 60.9921 576.713 Q66.3624 576.713 69.5568 579.399 Q72.7513 582.084 72.7513 586.574 Q72.7513 588.704 71.9411 590.625 Q71.1541 592.524 69.0476 595.116 Q68.4689 595.787 65.367 599.005 Q62.2652 602.199 56.6171 607.963 Z" fill="#000000" fill-rule="nonzero" fill-opacity="1" /><path clip-path="url(#clip540)" d="M92.7512 580.417 Q89.1401 580.417 87.3114 583.982 Q85.5058 587.524 85.5058 594.653 Q85.5058 601.76 87.3114 605.324 Q89.1401 608.866 92.7512 608.866 Q96.3854 608.866 98.1909 605.324 Q100.02 601.76 100.02 594.653 Q100.02 587.524 98.1909 583.982 Q96.3854 580.417 92.7512 580.417 M92.7512 576.713 Q98.5613 576.713 101.617 581.32 Q104.696 585.903 104.696 594.653 Q104.696 603.38 101.617 607.986 Q98.5613 612.57 92.7512 612.57 Q86.941 612.57 83.8623 607.986 Q80.8068 603.38 80.8068 594.653 Q80.8068 585.903 83.8623 581.32 Q86.941 576.713 92.7512 576.713 Z" fill="#000000" fill-rule="nonzero" fill-opacity="1" /><path clip-path="url(#clip540)" d="M66.7559 191.163 Q70.1124 191.881 71.9874 194.149 Q73.8855 196.418 73.8855 199.751 Q73.8855 204.867 70.367 207.668 Q66.8485 210.469 60.3671 210.469 Q58.1912 210.469 55.8764 210.029 Q53.5847 209.612 51.131 208.756 L51.131 204.242 Q53.0754 205.376 55.3903 205.955 Q57.7051 206.533 60.2282 206.533 Q64.6263 206.533 66.918 204.797 Q69.2328 203.061 69.2328 199.751 Q69.2328 196.696 67.08 194.983 Q64.9504 193.247 61.131 193.247 L57.1032 193.247 L57.1032 189.404 L61.3161 189.404 Q64.7652 189.404 66.5939 188.038 Q68.4226 186.649 68.4226 184.057 Q68.4226 181.395 66.5245 179.983 Q64.6495 178.548 61.131 178.548 Q59.2097 178.548 57.0106 178.964 Q54.8115 179.381 52.1727 180.26 L52.1727 176.094 Q54.8347 175.353 57.1495 174.983 Q59.4875 174.612 61.5476 174.612 Q66.8717 174.612 69.9735 177.043 Q73.0753 179.45 73.0753 183.571 Q73.0753 186.441 71.4318 188.432 Q69.7883 190.399 66.7559 191.163 Z" fill="#000000" fill-rule="nonzero" fill-opacity="1" /><path clip-path="url(#clip540)" d="M92.7512 178.316 Q89.1401 178.316 87.3114 181.881 Q85.5058 185.422 85.5058 192.552 Q85.5058 199.659 87.3114 203.223 Q89.1401 206.765 92.7512 206.765 Q96.3854 206.765 98.1909 203.223 Q100.02 199.659 100.02 192.552 Q100.02 185.422 98.1909 181.881 Q96.3854 178.316 92.7512 178.316 M92.7512 174.612 Q98.5613 174.612 101.617 179.219 Q104.696 183.802 104.696 192.552 Q104.696 201.279 101.617 205.885 Q98.5613 210.469 92.7512 210.469 Q86.941 210.469 83.8623 205.885 Q80.8068 201.279 80.8068 192.552 Q80.8068 183.802 83.8623 179.219 Q86.941 174.612 92.7512 174.612 Z" fill="#000000" fill-rule="nonzero" fill-opacity="1" /><polyline clip-path="url(#clip541)" style="stroke:#0000ff; stroke-linecap:round; stroke-linejoin:round; stroke-width:4; stroke-opacity:1; fill:none" points="203.301,1346.17 205.39,1345.05 207.479,1344.03 209.568,1343.12 211.657,1342.33 213.746,1341.67 215.835,1341.14 217.924,1340.74 220.013,1340.48 222.101,1340.36 224.19,1340.37 226.279,1340.53 228.368,1340.81 230.457,1341.22 232.546,1341.74 234.635,1342.38 236.724,1343.11 238.813,1343.94 240.902,1344.84 242.991,1345.81 245.08,1346.83 247.169,1347.9 249.258,1348.99 251.347,1350.1 253.436,1351.22 255.524,1352.33 257.613,1353.42 259.702,1354.48 261.791,1355.51 263.88,1356.49 265.969,1357.41 268.058,1358.28 270.147,1359.07 272.236,1359.8 274.325,1360.44 276.414,1361.01 278.503,1361.49 280.592,1361.88 282.681,1362.19 284.77,1362.41 286.859,1362.54 288.947,1362.59 291.036,1362.55 293.125,1362.42 295.214,1362.22 297.303,1361.93 299.392,1361.57 301.481,1361.14 303.57,1360.64 305.659,1360.08 307.748,1359.46 309.837,1358.78 311.926,1358.06 314.015,1357.3 316.104,1356.49 318.193,1355.65 320.282,1354.78 322.371,1353.88 324.459,1352.95 326.548,1352 328.637,1351.03 330.726,1350.03 332.815,1349.02 334.904,1347.98 336.993,1346.91 339.082,1345.82 341.171,1344.69 343.26,1343.53 345.349,1342.31 347.438,1341.05 349.527,1339.73 351.616,1338.34 353.705,1336.88 355.794,1335.34 357.882,1333.7 359.971,1331.97 362.06,1330.13 364.149,1328.18 366.238,1326.11 368.327,1323.92 370.416,1321.6 372.505,1319.14 374.594,1316.56 376.683,1313.84 378.772,1310.99 380.861,1308.01 382.95,1304.92 385.039,1301.7 387.128,1298.39 389.217,1294.98 391.305,1291.49 393.394,1287.93 395.483,1284.33 397.572,1280.7 399.661,1277.06 401.75,1273.43 403.839,1269.83 405.928,1266.29 408.017,1262.83 410.106,1259.47 412.195,1256.24 414.284,1253.15 416.373,1250.24 418.462,1247.51 420.551,1244.98 422.64,1242.67 424.728,1240.6 426.817,1238.77 428.906,1237.19 430.995,1235.88 433.084,1234.82 435.173,1234.02 437.262,1233.47 439.351,1233.19 441.44,1233.14 443.529,1233.33 445.618,1233.74 447.707,1234.37 449.796,1235.19 451.885,1236.19 453.974,1237.35 456.063,1238.65 458.152,1240.07 460.24,1241.6 462.329,1243.21 464.418,1244.88 466.507,1246.59 468.596,1248.31 470.685,1250.02 472.774,1251.71 474.863,1253.34 476.952,1254.9 479.041,1256.37 481.13,1257.71 483.219,1258.92 485.308,1259.97 487.397,1260.84 489.486,1261.51 491.575,1261.98 493.663,1262.21 495.752,1262.21 497.841,1261.96 499.93,1261.44 502.019,1260.65 504.108,1259.59 506.197,1258.25 508.286,1256.63 510.375,1254.73 512.464,1252.55 514.553,1250.1 516.642,1247.39 518.731,1244.42 520.82,1241.21 522.909,1237.77 524.998,1234.11 527.086,1230.24 529.175,1226.19 531.264,1221.96 533.353,1217.58 535.442,1213.07 537.531,1208.43 539.62,1203.68 541.709,1198.85 543.798,1193.92 545.887,1188.93 547.976,1183.88 550.065,1178.76 552.154,1173.59 554.243,1168.37 556.332,1163.08 558.421,1157.74 560.509,1152.32 562.598,1146.83 564.687,1141.24 566.776,1135.55 568.865,1129.75 570.954,1123.82 573.043,1117.74 575.132,1111.51 577.221,1105.12 579.31,1098.55 581.399,1091.8 583.488,1084.88 585.577,1077.77 587.666,1070.48 589.755,1063.03 591.844,1055.43 593.932,1047.7 596.021,1039.85 598.11,1031.92 600.199,1023.94 602.288,1015.95 604.377,1007.98 606.466,1000.08 608.555,992.299 610.644,984.679 612.733,977.27 614.822,970.119 616.911,963.274 619,956.779 621.089,950.675 623.178,945 625.267,939.788 627.356,935.064 629.444,930.849 631.533,927.157 633.622,923.995 635.711,921.362 637.8,919.25 639.889,917.644 641.978,916.523 644.067,915.859 646.156,915.618 648.245,915.763 650.334,916.251 652.423,917.038 654.512,918.076 656.601,919.315 658.69,920.705 660.779,922.197 662.867,923.739 664.956,925.283 667.045,926.78 669.134,928.183 671.223,929.448 673.312,930.529 675.401,931.388 677.49,931.983 679.579,932.278 681.668,932.237 683.757,931.83 685.846,931.026 687.935,929.8 690.024,928.127 692.113,925.989 694.202,923.371 696.29,920.261 698.379,916.656 700.468,912.555 702.557,907.963 704.646,902.894 706.735,897.366 708.824,891.407 710.913,885.048 713.002,878.33 715.091,871.301 717.18,864.013 719.269,856.528 721.358,848.909 723.447,841.227 725.536,833.555 727.625,825.97 729.713,818.548 731.802,811.367 733.891,804.503 735.98,798.028 738.069,792.011 740.158,786.516 742.247,781.6 744.336,777.309 746.425,773.685 748.514,770.758 750.603,768.547 752.692,767.062 754.781,766.302 756.87,766.256 758.959,766.902 761.048,768.208 763.136,770.134 765.225,772.631 767.314,775.643 769.403,779.106 771.492,782.952 773.581,787.108 775.67,791.497 777.759,796.04 779.848,800.658 781.937,805.268 784.026,809.792 786.115,814.15 788.204,818.266 790.293,822.065 792.382,825.479 794.471,828.443 796.56,830.894 798.648,832.779 800.737,834.048 802.826,834.658 804.915,834.572 807.004,833.758 809.093,832.194 811.182,829.86 813.271,826.746 815.36,822.845 817.449,818.158 819.538,812.691 821.627,806.454 823.716,799.463 825.805,791.737 827.894,783.3 829.983,774.18 832.071,764.405 834.16,754.01 836.249,743.027 838.338,731.495 840.427,719.449 842.516,706.929 844.605,693.973 846.694,680.622 848.783,666.912 850.872,652.885 852.961,638.577 855.05,624.027 857.139,609.271 859.228,594.348 861.317,579.292 863.406,564.141 865.494,548.932 867.583,533.701 869.672,518.488 871.761,503.333 873.85,488.279 875.939,473.372 878.028,458.66 880.117,444.196 882.206,430.037 884.295,416.244 886.384,402.88 888.473,390.014 890.562,377.719 892.651,366.067 894.74,355.135 896.829,345 898.917,335.737 901.006,327.42 903.095,320.121 905.184,313.906 907.273,308.837 909.362,304.966 911.451,302.34 913.54,300.995 915.629,300.959 917.718,302.248 919.807,304.868 921.896,308.815 923.985,314.073 926.074,320.619 928.163,328.417 930.252,337.422 932.341,347.584 934.429,358.843 936.518,371.132 938.607,384.38 940.696,398.509 942.785,413.439 944.874,429.086 946.963,445.361 949.052,462.175 951.141,479.437 953.23,497.054 955.319,514.932 957.408,532.979 959.497,551.101 961.586,569.204 963.675,587.195 965.764,604.986 967.852,622.485 969.941,639.607 972.03,656.267 974.119,672.384 976.208,687.883 978.297,702.69 980.386,716.737 982.475,729.964 984.564,742.312 986.653,753.733 988.742,764.18 990.831,773.618 992.92,782.015 995.009,789.347 997.098,795.596 999.187,800.752 1001.28,804.81 1003.36,807.772 1005.45,809.644 1007.54,810.439 1009.63,810.175 1011.72,808.873 1013.81,806.559 1015.9,803.263 1017.99,799.016 1020.08,793.852 1022.16,787.809 1024.25,780.924 1026.34,773.236 1028.43,764.783 1030.52,755.605 1032.61,745.74 1034.7,735.225 1036.79,724.098 1038.88,712.391 1040.97,700.14 1043.05,687.373 1045.14,674.121 1047.23,660.408 1049.32,646.259 1051.41,631.696 1053.5,616.738 1055.59,601.403 1057.68,585.708 1059.77,569.669 1061.85,553.3 1063.94,536.618 1066.03,519.638 1068.12,502.379 1070.21,484.861 1072.3,467.109 1074.39,449.148 1076.48,431.01 1078.57,412.731 1080.66,394.353 1082.74,375.921 1084.83,357.488 1086.92,339.112 1089.01,320.854 1091.1,302.783 1093.19,284.97 1095.28,267.489 1097.37,250.418 1099.46,233.836 1101.54,217.823 1103.63,202.456 1105.72,187.811 1107.81,173.962 1109.9,160.975 1111.99,148.911 1114.08,137.826 1116.17,127.766 1118.26,118.768 1120.34,110.859 1122.43,104.057 1124.52,98.3699 1126.61,93.7938 1128.7,90.3155 1130.79,87.9115 1132.88,86.5489 1134.97,86.1857 1137.06,86.7718 1139.15,88.2499 1141.23,90.5558 1143.32,93.6202 1145.41,97.3692 1147.5,101.726 1149.59,106.61 1151.68,111.941 1153.77,117.638 1155.86,123.623 1157.95,129.818 1160.03,136.151 1162.12,142.553 1164.21,148.961 1166.3,155.321 1168.39,161.587 1170.48,167.72 1172.57,173.694 1174.66,179.493 1176.75,185.11 1178.84,190.552 1180.92,195.838 1183.01,200.997 1185.1,206.069 1187.19,211.105 1189.28,216.164 1191.37,221.316 1193.46,226.633 1195.55,232.195 1197.64,238.084 1199.72,244.383 1201.81,251.175 1203.9,258.54 1205.99,266.551 1208.08,275.278 1210.17,284.78 1212.26,295.11 1214.35,306.308 1216.44,318.402 1218.53,331.412 1220.61,345.343 1222.7,360.189 1224.79,375.931 1226.88,392.543 1228.97,409.985 1231.06,428.209 1233.15,447.16 1235.24,466.777 1237.33,486.99 1239.41,507.73 1241.5,528.922 1243.59,550.49 1245.68,572.359 1247.77,594.452 1249.86,616.696 1251.95,639.02 1254.04,661.356 1256.13,683.64 1258.21,705.81 1260.3,727.812 1262.39,749.593 1264.48,771.108 1266.57,792.313 1268.66,813.171 1270.75,833.649 1272.84,853.718 1274.93,873.353 1277.02,892.533 1279.1,911.239 1281.19,929.458 1283.28,947.176 1285.37,964.385 1287.46,981.077 1289.55,997.248 1291.64,1012.89 1293.73,1028.01 1295.82,1042.6 1297.9,1056.67 1299.99,1070.21 1302.08,1083.23 1304.17,1095.73 1306.26,1107.72 1308.35,1119.2 1310.44,1130.17 1312.53,1140.65 1314.62,1150.64 1316.71,1160.15 1318.79,1169.18 1320.88,1177.75 1322.97,1185.85 1325.06,1193.51 1327.15,1200.72 1329.24,1207.51 1331.33,1213.86 1333.42,1219.8 1335.51,1225.34 1337.59,1230.48 1339.68,1235.24 1341.77,1239.63 1343.86,1243.64 1345.95,1247.31 1348.04,1250.63 1350.13,1253.62 1352.22,1256.29 1354.31,1258.64 1356.39,1260.69 1358.48,1262.45 1360.57,1263.93 1362.66,1265.13 1364.75,1266.07 1366.84,1266.74 1368.93,1267.16 1371.02,1267.33 1373.11,1267.25 1375.2,1266.94 1377.28,1266.38 1379.37,1265.59 1381.46,1264.56 1383.55,1263.3 1385.64,1261.8 1387.73,1260.06 1389.82,1258.09 1391.91,1255.88 1394,1253.43 1396.08,1250.74 1398.17,1247.83 1400.26,1244.68 1402.35,1241.3 1404.44,1237.7 1406.53,1233.89 1408.62,1229.87 1410.71,1225.65 1412.8,1221.26 1414.89,1216.7 1416.97,1212 1419.06,1207.17 1421.15,1202.25 1423.24,1197.25 1425.33,1192.2 1427.42,1187.14 1429.51,1182.1 1431.6,1177.12 1433.69,1172.24 1435.77,1167.48 1437.86,1162.9 1439.95,1158.53 1442.04,1154.42 1444.13,1150.6 1446.22,1147.12 1448.31,1144 1450.4,1141.28 1452.49,1138.99 1454.58,1137.16 1456.66,1135.81 1458.75,1134.96 1460.84,1134.6 1462.93,1134.76 1465.02,1135.42 1467.11,1136.58 1469.2,1138.22 1471.29,1140.32 1473.38,1142.87 1475.46,1145.81 1477.55,1149.14 1479.64,1152.79 1481.73,1156.74 1483.82,1160.94 1485.91,1165.35 1488,1169.91 1490.09,1174.6 1492.18,1179.36 1494.26,1184.15 1496.35,1188.93 1498.44,1193.67 1500.53,1198.33 1502.62,1202.88 1504.71,1207.3 1506.8,1211.56 1508.89,1215.65 1510.98,1219.54 1513.07,1223.24 1515.15,1226.72 1517.24,1229.99 1519.33,1233.04 1521.42,1235.87 1523.51,1238.49 1525.6,1240.9 1527.69,1243.1 1529.78,1245.11 1531.87,1246.92 1533.95,1248.56 1536.04,1250.03 1538.13,1251.33 1540.22,1252.48 1542.31,1253.49 1544.4,1254.36 1546.49,1255.1 1548.58,1255.72 1550.67,1256.22 1552.76,1256.61 1554.84,1256.9 1556.93,1257.09 1559.02,1257.19 1561.11,1257.2 1563.2,1257.14 1565.29,1257.01 1567.38,1256.82 1569.47,1256.58 1571.56,1256.31 1573.64,1256.01 1575.73,1255.7 1577.82,1255.4 1579.91,1255.12 1582,1254.89 1584.09,1254.71 1586.18,1254.62 1588.27,1254.62 1590.36,1254.74 1592.45,1255 1594.53,1255.42 1596.62,1256 1598.71,1256.77 1600.8,1257.74 1602.89,1258.91 1604.98,1260.29 1607.07,1261.89 1609.16,1263.71 1611.25,1265.75 1613.33,1268 1615.42,1270.45 1617.51,1273.09 1619.6,1275.92 1621.69,1278.91 1623.78,1282.05 1625.87,1285.32 1627.96,1288.7 1630.05,1292.17 1632.13,1295.71 1634.22,1299.3 1636.31,1302.93 1638.4,1306.56 1640.49,1310.18 1642.58,1313.78 1644.67,1317.34 1646.76,1320.83 1648.85,1324.26 1650.94,1327.6 1653.02,1330.85 1655.11,1333.99 1657.2,1337.01 1659.29,1339.92 1661.38,1342.7 1663.47,1345.35 1665.56,1347.86 1667.65,1350.24 1669.74,1352.48 1671.82,1354.58 1673.91,1356.53 1676,1358.35 1678.09,1360.02 1680.18,1361.56 1682.27,1362.96 1684.36,1364.22 1686.45,1365.34 1688.54,1366.33 1690.63,1367.19 1692.71,1367.92 1694.8,1368.51 1696.89,1368.99 1698.98,1369.33 1701.07,1369.55 1703.16,1369.65 1705.25,1369.62 1707.34,1369.48 1709.43,1369.21 1711.51,1368.83 1713.6,1368.33 1715.69,1367.71 1717.78,1366.98 1719.87,1366.13 1721.96,1365.18 1724.05,1364.11 1726.14,1362.94 1728.23,1361.66 1730.31,1360.28 1732.4,1358.8 1734.49,1357.22 1736.58,1355.55 1738.67,1353.8 1740.76,1351.96 1742.85,1350.05 1744.94,1348.07 1747.03,1346.02 1749.12,1343.92 1751.2,1341.77 1753.29,1339.58 1755.38,1337.35 1757.47,1335.11 1759.56,1332.84 1761.65,1330.57 1763.74,1328.3 1765.83,1326.04 1767.92,1323.79 1770,1321.56 1772.09,1319.36 1774.18,1317.18 1776.27,1315.04 1778.36,1312.92 1780.45,1310.84 1782.54,1308.78 1784.63,1306.75 1786.72,1304.73 1788.81,1302.73 1790.89,1300.73 1792.98,1298.72 1795.07,1296.7 1797.16,1294.65 1799.25,1292.57 1801.34,1290.43 1803.43,1288.23 1805.52,1285.96 1807.61,1283.61 1809.69,1281.16 1811.78,1278.61 1813.87,1275.94 1815.96,1273.16 1818.05,1270.26 1820.14,1267.23 1822.23,1264.07 1824.32,1260.78 1826.41,1257.37 1828.5,1253.83 1830.58,1250.16 1832.67,1246.38 1834.76,1242.48 1836.85,1238.48 1838.94,1234.38 1841.03,1230.19 1843.12,1225.92 1845.21,1221.58 1847.3,1217.18 1849.38,1212.72 1851.47,1208.22 1853.56,1203.69 1855.65,1199.13 1857.74,1194.56 1859.83,1189.98 1861.92,1185.41 1864.01,1180.85 1866.1,1176.32 1868.18,1171.83 1870.27,1167.39 1872.36,1163.01 1874.45,1158.7 1876.54,1154.48 1878.63,1150.37 1880.72,1146.37 1882.81,1142.51 1884.9,1138.8 1886.99,1135.26 1889.07,1131.91 1891.16,1128.77 1893.25,1125.87 1895.34,1123.21 1897.43,1120.83 1899.52,1118.75 1901.61,1116.97 1903.7,1115.53 1905.79,1114.43 1907.87,1113.69 1909.96,1113.33 1912.05,1113.36 1914.14,1113.78 1916.23,1114.6 1918.32,1115.81 1920.41,1117.41 1922.5,1119.41 1924.59,1121.78 1926.68,1124.51 1928.76,1127.59 1930.85,1130.99 1932.94,1134.7 1935.03,1138.69 1937.12,1142.92 1939.21,1147.37 1941.3,1152.01 1943.39,1156.81 1945.48,1161.74 1947.56,1166.77 1949.65,1171.86 1951.74,1176.99 1953.83,1182.12 1955.92,1187.24 1958.01,1192.32 1960.1,1197.32 1962.19,1202.24 1964.28,1207.05 1966.36,1211.74 1968.45,1216.28 1970.54,1220.67 1972.63,1224.89 1974.72,1228.94 1976.81,1232.8 1978.9,1236.46 1980.99,1239.92 1983.08,1243.17 1985.17,1246.2 1987.25,1249.01 1989.34,1251.58 1991.43,1253.91 1993.52,1256 1995.61,1257.84 1997.7,1259.42 1999.79,1260.73 2001.88,1261.76 2003.97,1262.51 2006.05,1262.97 2008.14,1263.14 2010.23,1262.99 2012.32,1262.54 2014.41,1261.77 2016.5,1260.68 2018.59,1259.26 2020.68,1257.52 2022.77,1255.46 2024.86,1253.06 2026.94,1250.35 2029.03,1247.32 2031.12,1243.99 2033.21,1240.37 2035.3,1236.47 2037.39,1232.3 2039.48,1227.9 2041.57,1223.29 2043.66,1218.48 2045.74,1213.52 2047.83,1208.44 2049.92,1203.28 2052.01,1198.07 2054.1,1192.85 2056.19,1187.67 2058.28,1182.58 2060.37,1177.62 2062.46,1172.83 2064.55,1168.26 2066.63,1163.96 2068.72,1159.95 2070.81,1156.29 2072.9,1153.01 2074.99,1150.13 2077.08,1147.68 2079.17,1145.67 2081.26,1144.13 2083.35,1143.05 2085.43,1142.43 2087.52,1142.28 2089.61,1142.56 2091.7,1143.27 2093.79,1144.37 2095.88,1145.84 2097.97,1147.64 2100.06,1149.74 2102.15,1152.07 2104.23,1154.62 2106.32,1157.32 2108.41,1160.13 2110.5,1163.02 2112.59,1165.92 2114.68,1168.81 2116.77,1171.64 2118.86,1174.38 2120.95,1176.98 2123.04,1179.44 2125.12,1181.71 2127.21,1183.79 2129.3,1185.65 2131.39,1187.28 2133.48,1188.68 2135.57,1189.85 2137.66,1190.78 2139.75,1191.48 2141.84,1191.96 2143.92,1192.24 2146.01,1192.32 2148.1,1192.21 2150.19,1191.95 2152.28,1191.54 2154.37,1191 2156.46,1190.36 2158.55,1189.62 2160.64,1188.81 2162.73,1187.94 2164.81,1187.03 2166.9,1186.08 2168.99,1185.11 2171.08,1184.13 2173.17,1183.14 2175.26,1182.15 2177.35,1181.15 2179.44,1180.16 2181.53,1179.17 2183.61,1178.18 2185.7,1177.19 2187.79,1176.21 2189.88,1175.24 2191.97,1174.27 2194.06,1173.31 2196.15,1172.38 2198.24,1171.47 2200.33,1170.6 2202.42,1169.77 2204.5,1169.02 2206.59,1168.35 2208.68,1167.78 2210.77,1167.33 2212.86,1167.02 2214.95,1166.87 2217.04,1166.9 2219.13,1167.14 2221.22,1167.6 2223.3,1168.29 2225.39,1169.23 2227.48,1170.44 2229.57,1171.9 2231.66,1173.64 2233.75,1175.64 2235.84,1177.91 2237.93,1180.42 2240.02,1183.17 2242.1,1186.14 2244.19,1189.3 2246.28,1192.64 2248.37,1196.12 2250.46,1199.71 2252.55,1203.39 2254.64,1207.12 2256.73,1210.87 2258.82,1214.6 2260.91,1218.3 2262.99,1221.91 2265.08,1225.42 2267.17,1228.8 2269.26,1232.02 2271.35,1235.07 2273.44,1237.92 2275.53,1240.56 2277.62,1242.98 2279.71,1245.16 2281.79,1247.09 2283.88,1248.78 2285.97,1250.23 2288.06,1251.43 2290.15,1252.39 "/>
<polyline clip-path="url(#clip541)" style="stroke:#ff0000; stroke-linecap:round; stroke-linejoin:round; stroke-width:4; stroke-opacity:1; fill:none" points="203.301,1384.24 205.39,1383.6 207.479,1382.91 209.568,1382.18 211.657,1381.4 213.746,1380.57 215.835,1379.68 217.924,1378.74 220.013,1377.75 222.101,1376.7 224.19,1375.6 226.279,1374.44 228.368,1373.23 230.457,1371.96 232.546,1370.65 234.635,1369.28 236.724,1367.88 238.813,1366.43 240.902,1364.94 242.991,1363.43 245.08,1361.9 247.169,1360.34 249.258,1358.78 251.347,1357.22 253.436,1355.67 255.524,1354.14 257.613,1352.64 259.702,1351.18 261.791,1349.77 263.88,1348.42 265.969,1347.15 268.058,1345.96 270.147,1344.87 272.236,1343.88 274.325,1343.01 276.414,1342.26 278.503,1341.64 280.592,1341.15 282.681,1340.79 284.77,1340.58 286.859,1340.5 288.947,1340.56 291.036,1340.76 293.125,1341.09 295.214,1341.54 297.303,1342.11 299.392,1342.78 301.481,1343.56 303.57,1344.42 305.659,1345.36 307.748,1346.37 309.837,1347.42 311.926,1348.52 314.015,1349.64 316.104,1350.78 318.193,1351.92 320.282,1353.06 322.371,1354.17 324.459,1355.26 326.548,1356.31 328.637,1357.31 330.726,1358.26 332.815,1359.15 334.904,1359.98 336.993,1360.73 339.082,1361.4 341.171,1362 343.26,1362.52 345.349,1362.95 347.438,1363.3 349.527,1363.56 351.616,1363.74 353.705,1363.83 355.794,1363.85 357.882,1363.78 359.971,1363.64 362.06,1363.43 364.149,1363.14 366.238,1362.8 368.327,1362.39 370.416,1361.92 372.505,1361.41 374.594,1360.84 376.683,1360.24 378.772,1359.61 380.861,1358.94 382.95,1358.25 385.039,1357.54 387.128,1356.81 389.217,1356.06 391.305,1355.31 393.394,1354.55 395.483,1353.78 397.572,1353 399.661,1352.22 401.75,1351.43 403.839,1350.62 405.928,1349.8 408.017,1348.96 410.106,1348.09 412.195,1347.19 414.284,1346.25 416.373,1345.27 418.462,1344.23 420.551,1343.13 422.64,1341.96 424.728,1340.71 426.817,1339.38 428.906,1337.95 430.995,1336.43 433.084,1334.79 435.173,1333.04 437.262,1331.18 439.351,1329.2 441.44,1327.09 443.529,1324.86 445.618,1322.5 447.707,1320.03 449.796,1317.44 451.885,1314.74 453.974,1311.94 456.063,1309.05 458.152,1306.07 460.24,1303.03 462.329,1299.93 464.418,1296.79 466.507,1293.64 468.596,1290.48 470.685,1287.35 472.774,1284.25 474.863,1281.22 476.952,1278.26 479.041,1275.42 481.13,1272.69 483.219,1270.11 485.308,1267.7 487.397,1265.45 489.486,1263.41 491.575,1261.56 493.663,1259.93 495.752,1258.52 497.841,1257.33 499.93,1256.37 502.019,1255.63 504.108,1255.11 506.197,1254.8 508.286,1254.69 510.375,1254.78 512.464,1255.05 514.553,1255.48 516.642,1256.07 518.731,1256.79 520.82,1257.64 522.909,1258.59 524.998,1259.64 527.086,1260.77 529.175,1261.96 531.264,1263.22 533.353,1264.52 535.442,1265.85 537.531,1267.22 539.62,1268.61 541.709,1270.02 543.798,1271.43 545.887,1272.85 547.976,1274.26 550.065,1275.67 552.154,1277.06 554.243,1278.44 556.332,1279.79 558.421,1281.1 560.509,1282.38 562.598,1283.61 564.687,1284.77 566.776,1285.87 568.865,1286.89 570.954,1287.82 573.043,1288.64 575.132,1289.36 577.221,1289.95 579.31,1290.41 581.399,1290.72 583.488,1290.88 585.577,1290.88 587.666,1290.71 589.755,1290.36 591.844,1289.84 593.932,1289.14 596.021,1288.25 598.11,1287.19 600.199,1285.95 602.288,1284.54 604.377,1282.96 606.466,1281.23 608.555,1279.35 610.644,1277.35 612.733,1275.23 614.822,1273 616.911,1270.7 619,1268.34 621.089,1265.93 623.178,1263.5 625.267,1261.06 627.356,1258.64 629.444,1256.25 631.533,1253.91 633.622,1251.63 635.711,1249.44 637.8,1247.33 639.889,1245.31 641.978,1243.4 644.067,1241.59 646.156,1239.88 648.245,1238.26 650.334,1236.73 652.423,1235.27 654.512,1233.86 656.601,1232.49 658.69,1231.13 660.779,1229.76 662.867,1228.36 664.956,1226.9 667.045,1225.34 669.134,1223.66 671.223,1221.84 673.312,1219.84 675.401,1217.64 677.49,1215.22 679.579,1212.54 681.668,1209.59 683.757,1206.36 685.846,1202.82 687.935,1198.98 690.024,1194.81 692.113,1190.32 694.202,1185.5 696.29,1180.37 698.379,1174.93 700.468,1169.19 702.557,1163.18 704.646,1156.91 706.735,1150.41 708.824,1143.71 710.913,1136.84 713.002,1129.84 715.091,1122.75 717.18,1115.61 719.269,1108.47 721.358,1101.37 723.447,1094.36 725.536,1087.49 727.625,1080.8 729.713,1074.33 731.802,1068.14 733.891,1062.27 735.98,1056.74 738.069,1051.6 740.158,1046.87 742.247,1042.58 744.336,1038.75 746.425,1035.38 748.514,1032.48 750.603,1030.06 752.692,1028.11 754.781,1026.6 756.87,1025.53 758.959,1024.87 761.048,1024.58 763.136,1024.64 765.225,1025.01 767.314,1025.64 769.403,1026.51 771.492,1027.56 773.581,1028.76 775.67,1030.06 777.759,1031.43 779.848,1032.83 781.937,1034.24 784.026,1035.61 786.115,1036.92 788.204,1038.15 790.293,1039.29 792.382,1040.31 794.471,1041.2 796.56,1041.96 798.648,1042.58 800.737,1043.04 802.826,1043.36 804.915,1043.53 807.004,1043.55 809.093,1043.41 811.182,1043.12 813.271,1042.68 815.36,1042.08 817.449,1041.32 819.538,1040.41 821.627,1039.33 823.716,1038.08 825.805,1036.66 827.894,1035.06 829.983,1033.27 832.071,1031.3 834.16,1029.13 836.249,1026.76 838.338,1024.2 840.427,1021.42 842.516,1018.44 844.605,1015.25 846.694,1011.86 848.783,1008.26 850.872,1004.46 852.961,1000.47 855.05,996.289 857.139,991.925 859.228,987.389 861.317,982.69 863.406,977.837 865.494,972.842 867.583,967.716 869.672,962.471 871.761,957.119 873.85,951.673 875.939,946.145 878.028,940.549 880.117,934.898 882.206,929.207 884.295,923.489 886.384,917.762 888.473,912.042 890.562,906.346 892.651,900.694 894.74,895.107 896.829,889.606 898.917,884.213 901.006,878.955 903.095,873.855 905.184,868.94 907.273,864.235 909.362,859.767 911.451,855.561 913.54,851.639 915.629,848.025 917.718,844.736 919.807,841.788 921.896,839.191 923.985,836.953 926.074,835.075 928.163,833.551 930.252,832.371 932.341,831.518 934.429,830.969 936.518,830.695 938.607,830.66 940.696,830.824 942.785,831.141 944.874,831.56 946.963,832.029 949.052,832.49 951.141,832.887 953.23,833.16 955.319,833.252 957.408,833.107 959.497,832.67 961.586,831.893 963.675,830.729 965.764,829.14 967.852,827.092 969.941,824.56 972.03,821.527 974.119,817.981 976.208,813.923 978.297,809.36 980.386,804.309 982.475,798.793 984.564,792.845 986.653,786.505 988.742,779.819 990.831,772.839 992.92,765.621 995.009,758.224 997.098,750.711 999.187,743.143 1001.28,735.583 1003.36,728.088 1005.45,720.716 1007.54,713.516 1009.63,706.535 1011.72,699.809 1013.81,693.371 1015.9,687.241 1017.99,681.434 1020.08,675.953 1022.16,670.795 1024.25,665.946 1026.34,661.388 1028.43,657.092 1030.52,653.026 1032.61,649.152 1034.7,645.429 1036.79,641.814 1038.88,638.264 1040.97,634.736 1043.05,631.188 1045.14,627.584 1047.23,623.891 1049.32,620.082 1051.41,616.134 1053.5,612.035 1055.59,607.777 1057.68,603.361 1059.77,598.795 1061.85,594.093 1063.94,589.279 1066.03,584.382 1068.12,579.434 1070.21,574.477 1072.3,569.553 1074.39,564.709 1076.48,559.994 1078.57,555.458 1080.66,551.152 1082.74,547.124 1084.83,543.424 1086.92,540.098 1089.01,537.187 1091.1,534.733 1093.19,532.771 1095.28,531.332 1097.37,530.444 1099.46,530.128 1101.54,530.403 1103.63,531.282 1105.72,532.774 1107.81,534.885 1109.9,537.615 1111.99,540.963 1114.08,544.925 1116.17,549.493 1118.26,554.658 1120.34,560.408 1122.43,566.731 1124.52,573.614 1126.61,581.041 1128.7,588.998 1130.79,597.467 1132.88,606.433 1134.97,615.875 1137.06,625.777 1139.15,636.116 1141.23,646.871 1143.32,658.017 1145.41,669.528 1147.5,681.374 1149.59,693.524 1151.68,705.943 1153.77,718.593 1155.86,731.431 1157.95,744.413 1160.03,757.492 1162.12,770.616 1164.21,783.732 1166.3,796.785 1168.39,809.718 1170.48,822.472 1172.57,834.99 1174.66,847.213 1176.75,859.083 1178.84,870.546 1180.92,881.547 1183.01,892.037 1185.1,901.966 1187.19,911.293 1189.28,919.977 1191.37,927.984 1193.46,935.283 1195.55,941.849 1197.64,947.662 1199.72,952.706 1201.81,956.969 1203.9,960.446 1205.99,963.135 1208.08,965.037 1210.17,966.16 1212.26,966.513 1214.35,966.108 1216.44,964.962 1218.53,963.092 1220.61,960.521 1222.7,957.271 1224.79,953.365 1226.88,948.832 1228.97,943.698 1231.06,937.992 1233.15,931.744 1235.24,924.983 1237.33,917.741 1239.41,910.047 1241.5,901.933 1243.59,893.427 1245.68,884.559 1247.77,875.356 1249.86,865.843 1251.95,856.044 1254.04,845.981 1256.13,835.669 1258.21,825.125 1260.3,814.359 1262.39,803.377 1264.48,792.184 1266.57,780.779 1268.66,769.156 1270.75,757.309 1272.84,745.226 1274.93,732.893 1277.02,720.296 1279.1,707.418 1281.19,694.242 1283.28,680.753 1285.37,666.937 1287.46,652.781 1289.55,638.28 1291.64,623.429 1293.73,608.232 1295.82,592.698 1297.9,576.841 1299.99,560.686 1302.08,544.262 1304.17,527.608 1306.26,510.768 1308.35,493.796 1310.44,476.749 1312.53,459.691 1314.62,442.693 1316.71,425.826 1318.79,409.165 1320.88,392.787 1322.97,376.769 1325.06,361.185 1327.15,346.109 1329.24,331.61 1331.33,317.753 1333.42,304.596 1335.51,292.194 1337.59,280.592 1339.68,269.83 1341.77,259.939 1343.86,250.944 1345.95,242.86 1348.04,235.698 1350.13,229.457 1352.22,224.134 1354.31,219.717 1356.39,216.186 1358.48,213.518 1360.57,211.683 1362.66,210.646 1364.75,210.367 1366.84,210.802 1368.93,211.901 1371.02,213.61 1373.11,215.873 1375.2,218.629 1377.28,221.813 1379.37,225.36 1381.46,229.198 1383.55,233.259 1385.64,237.471 1387.73,241.762 1389.82,246.061 1391.91,250.301 1394,254.417 1396.08,258.348 1398.17,262.041 1400.26,265.448 1402.35,268.531 1404.44,271.261 1406.53,273.621 1408.62,275.602 1410.71,277.213 1412.8,278.471 1414.89,279.409 1416.97,280.072 1419.06,280.519 1421.15,280.821 1423.24,281.059 1425.33,281.327 1427.42,281.725 1429.51,282.364 1431.6,283.355 1433.69,284.817 1435.77,286.865 1437.86,289.617 1439.95,293.183 1442.04,297.669 1444.13,303.17 1446.22,309.771 1448.31,317.544 1450.4,326.546 1452.49,336.819 1454.58,348.387 1456.66,361.256 1458.75,375.416 1460.84,390.839 1462.93,407.478 1465.02,425.274 1467.11,444.15 1469.2,464.018 1471.29,484.78 1473.38,506.327 1475.46,528.544 1477.55,551.311 1479.64,574.507 1481.73,598.01 1483.82,621.698 1485.91,645.454 1488,669.168 1490.09,692.732 1492.18,716.049 1494.26,739.03 1496.35,761.593 1498.44,783.669 1500.53,805.195 1502.62,826.12 1504.71,846.402 1506.8,866.006 1508.89,884.909 1510.98,903.093 1513.07,920.547 1515.15,937.268 1517.24,953.258 1519.33,968.523 1521.42,983.074 1523.51,996.925 1525.6,1010.09 1527.69,1022.6 1529.78,1034.46 1531.87,1045.69 1533.95,1056.33 1536.04,1066.4 1538.13,1075.91 1540.22,1084.89 1542.31,1093.37 1544.4,1101.37 1546.49,1108.92 1548.58,1116.03 1550.67,1122.72 1552.76,1129.03 1554.84,1134.96 1556.93,1140.55 1559.02,1145.81 1561.11,1150.75 1563.2,1155.39 1565.29,1159.75 1567.38,1163.84 1569.47,1167.67 1571.56,1171.25 1573.64,1174.58 1575.73,1177.67 1577.82,1180.53 1579.91,1183.14 1582,1185.51 1584.09,1187.64 1586.18,1189.52 1588.27,1191.14 1590.36,1192.49 1592.45,1193.57 1594.53,1194.36 1596.62,1194.86 1598.71,1195.06 1600.8,1194.94 1602.89,1194.5 1604.98,1193.74 1607.07,1192.66 1609.16,1191.24 1611.25,1189.49 1613.33,1187.43 1615.42,1185.05 1617.51,1182.37 1619.6,1179.4 1621.69,1176.17 1623.78,1172.7 1625.87,1169.01 1627.96,1165.14 1630.05,1161.12 1632.13,1156.99 1634.22,1152.79 1636.31,1148.57 1638.4,1144.38 1640.49,1140.25 1642.58,1136.23 1644.67,1132.38 1646.76,1128.73 1648.85,1125.34 1650.94,1122.24 1653.02,1119.48 1655.11,1117.08 1657.2,1115.08 1659.29,1113.51 1661.38,1112.37 1663.47,1111.68 1665.56,1111.46 1667.65,1111.7 1669.74,1112.4 1671.82,1113.55 1673.91,1115.13 1676,1117.12 1678.09,1119.51 1680.18,1122.26 1682.27,1125.34 1684.36,1128.72 1686.45,1132.36 1688.54,1136.24 1690.63,1140.32 1692.71,1144.55 1694.8,1148.91 1696.89,1153.35 1698.98,1157.86 1701.07,1162.39 1703.16,1166.92 1705.25,1171.41 1707.34,1175.84 1709.43,1180.19 1711.51,1184.43 1713.6,1188.55 1715.69,1192.52 1717.78,1196.34 1719.87,1199.98 1721.96,1203.44 1724.05,1206.72 1726.14,1209.8 1728.23,1212.68 1730.31,1215.38 1732.4,1217.88 1734.49,1220.2 1736.58,1222.35 1738.67,1224.34 1740.76,1226.19 1742.85,1227.91 1744.94,1229.52 1747.03,1231.04 1749.12,1232.5 1751.2,1233.92 1753.29,1235.33 1755.38,1236.74 1757.47,1238.18 1759.56,1239.68 1761.65,1241.26 1763.74,1242.93 1765.83,1244.72 1767.92,1246.63 1770,1248.69 1772.09,1250.91 1774.18,1253.28 1776.27,1255.81 1778.36,1258.51 1780.45,1261.37 1782.54,1264.38 1784.63,1267.54 1786.72,1270.82 1788.81,1274.23 1790.89,1277.75 1792.98,1281.35 1795.07,1285.02 1797.16,1288.74 1799.25,1292.49 1801.34,1296.25 1803.43,1300.01 1805.52,1303.74 1807.61,1307.43 1809.69,1311.06 1811.78,1314.61 1813.87,1318.08 1815.96,1321.44 1818.05,1324.69 1820.14,1327.82 1822.23,1330.81 1824.32,1333.67 1826.41,1336.37 1828.5,1338.92 1830.58,1341.31 1832.67,1343.54 1834.76,1345.6 1836.85,1347.5 1838.94,1349.23 1841.03,1350.78 1843.12,1352.16 1845.21,1353.38 1847.3,1354.41 1849.38,1355.28 1851.47,1355.97 1853.56,1356.49 1855.65,1356.84 1857.74,1357.01 1859.83,1357.02 1861.92,1356.85 1864.01,1356.51 1866.1,1355.99 1868.18,1355.31 1870.27,1354.45 1872.36,1353.42 1874.45,1352.22 1876.54,1350.84 1878.63,1349.3 1880.72,1347.59 1882.81,1345.71 1884.9,1343.67 1886.99,1341.46 1889.07,1339.09 1891.16,1336.56 1893.25,1333.89 1895.34,1331.07 1897.43,1328.1 1899.52,1325.01 1901.61,1321.79 1903.7,1318.46 1905.79,1315.03 1907.87,1311.51 1909.96,1307.91 1912.05,1304.25 1914.14,1300.55 1916.23,1296.81 1918.32,1293.07 1920.41,1289.32 1922.5,1285.6 1924.59,1281.92 1926.68,1278.29 1928.76,1274.74 1930.85,1271.27 1932.94,1267.91 1935.03,1264.67 1937.12,1261.55 1939.21,1258.56 1941.3,1255.72 1943.39,1253.03 1945.48,1250.48 1947.56,1248.07 1949.65,1245.81 1951.74,1243.68 1953.83,1241.67 1955.92,1239.78 1958.01,1237.98 1960.1,1236.26 1962.19,1234.62 1964.28,1233.01 1966.36,1231.44 1968.45,1229.88 1970.54,1228.31 1972.63,1226.71 1974.72,1225.07 1976.81,1223.36 1978.9,1221.59 1980.99,1219.73 1983.08,1217.78 1985.17,1215.73 1987.25,1213.58 1989.34,1211.32 1991.43,1208.96 1993.52,1206.5 1995.61,1203.94 1997.7,1201.29 1999.79,1198.56 2001.88,1195.77 2003.97,1192.92 2006.05,1190.03 2008.14,1187.11 2010.23,1184.18 2012.32,1181.26 2014.41,1178.35 2016.5,1175.47 2018.59,1172.64 2020.68,1169.88 2022.77,1167.18 2024.86,1164.57 2026.94,1162.06 2029.03,1159.67 2031.12,1157.39 2033.21,1155.25 2035.3,1153.26 2037.39,1151.42 2039.48,1149.75 2041.57,1148.26 2043.66,1146.97 2045.74,1145.88 2047.83,1145.01 2049.92,1144.37 2052.01,1143.97 2054.1,1143.82 2056.19,1143.94 2058.28,1144.34 2060.37,1145.02 2062.46,1145.99 2064.55,1147.25 2066.63,1148.82 2068.72,1150.68 2070.81,1152.85 2072.9,1155.3 2074.99,1158.04 2077.08,1161.05 2079.17,1164.32 2081.26,1167.83 2083.35,1171.57 2085.43,1175.5 2087.52,1179.61 2089.61,1183.88 2091.7,1188.26 2093.79,1192.74 2095.88,1197.28 2097.97,1201.86 2100.06,1206.43 2102.15,1210.98 2104.23,1215.48 2106.32,1219.88 2108.41,1224.18 2110.5,1228.33 2112.59,1232.32 2114.68,1236.12 2116.77,1239.71 2118.86,1243.07 2120.95,1246.18 2123.04,1249.04 2125.12,1251.61 2127.21,1253.91 2129.3,1255.9 2131.39,1257.59 2133.48,1258.97 2135.57,1260.04 2137.66,1260.78 2139.75,1261.21 2141.84,1261.31 2143.92,1261.09 2146.01,1260.55 2148.1,1259.69 2150.19,1258.51 2152.28,1257.02 2154.37,1255.21 2156.46,1253.1 2158.55,1250.67 2160.64,1247.95 2162.73,1244.93 2164.81,1241.63 2166.9,1238.04 2168.99,1234.18 2171.08,1230.05 2173.17,1225.68 2175.26,1221.06 2177.35,1216.23 2179.44,1211.18 2181.53,1205.96 2183.61,1200.58 2185.7,1195.06 2187.79,1189.43 2189.88,1183.73 2191.97,1177.99 2194.06,1172.24 2196.15,1166.52 2198.24,1160.87 2200.33,1155.34 2202.42,1149.95 2204.5,1144.75 2206.59,1139.77 2208.68,1135.06 2210.77,1130.64 2212.86,1126.55 2214.95,1122.81 2217.04,1119.45 2219.13,1116.48 2221.22,1113.9 2223.3,1111.74 2225.39,1109.98 2227.48,1108.62 2229.57,1107.66 2231.66,1107.06 2233.75,1106.81 2235.84,1106.89 2237.93,1107.27 2240.02,1107.91 2242.1,1108.78 2244.19,1109.85 2246.28,1111.08 2248.37,1112.45 2250.46,1113.91 2252.55,1115.44 2254.64,1117.01 2256.73,1118.6 2258.82,1120.19 2260.91,1121.75 2262.99,1123.28 2265.08,1124.76 2267.17,1126.19 2269.26,1127.56 2271.35,1128.87 2273.44,1130.12 2275.53,1131.32 2277.62,1132.47 2279.71,1133.57 2281.79,1134.63 2283.88,1135.66 2285.97,1136.67 2288.06,1137.65 2290.15,1138.62 "/>
<polyline clip-path="url(#clip541)" style="stroke:#008000; stroke-linecap:round; stroke-linejoin:round; stroke-width:6; stroke-opacity:1; fill:none" points="1246.73,2799.12 1246.73,-1328.69 "/>
<path clip-path="url(#clip540)" d="M1706.52 300.469 L2279.02 300.469 L2279.02 93.1086 L1706.52 93.1086  Z" fill="#ffffff" fill-rule="evenodd" fill-opacity="1"/>
<polyline clip-path="url(#clip540)" style="stroke:#000000; stroke-linecap:round; stroke-linejoin:round; stroke-width:4; stroke-opacity:1; fill:none" points="1706.52,300.469 2279.02,300.469 2279.02,93.1086 1706.52,93.1086 1706.52,300.469 "/>
<polyline clip-path="url(#clip540)" style="stroke:#0000ff; stroke-linecap:round; stroke-linejoin:round; stroke-width:4; stroke-opacity:1; fill:none" points="1731.1,144.949 1878.57,144.949 "/>
<path clip-path="url(#clip540)" d="M1907.82 131.511 L1907.82 158.386 L1913.47 158.386 Q1920.62 158.386 1923.93 155.145 Q1927.27 151.905 1927.27 144.914 Q1927.27 137.969 1923.93 134.752 Q1920.62 131.511 1913.47 131.511 L1907.82 131.511 M1903.15 127.669 L1912.75 127.669 Q1922.8 127.669 1927.5 131.858 Q1932.2 136.025 1932.2 144.914 Q1932.2 153.849 1927.48 158.039 Q1922.75 162.229 1912.75 162.229 L1903.15 162.229 L1903.15 127.669 Z" fill="#000000" fill-rule="nonzero" fill-opacity="1" /><path clip-path="url(#clip540)" d="M1953.68 130.84 Q1948.59 130.84 1945.58 134.636 Q1942.59 138.432 1942.59 144.983 Q1942.59 151.511 1945.58 155.307 Q1948.59 159.104 1953.68 159.104 Q1958.77 159.104 1961.74 155.307 Q1964.72 151.511 1964.72 144.983 Q1964.72 138.432 1961.74 134.636 Q1958.77 130.84 1953.68 130.84 M1953.68 127.044 Q1960.95 127.044 1965.3 131.928 Q1969.65 136.789 1969.65 144.983 Q1969.65 153.155 1965.3 158.039 Q1960.95 162.9 1953.68 162.9 Q1946.39 162.9 1942.01 158.039 Q1937.66 153.178 1937.66 144.983 Q1937.66 136.789 1942.01 131.928 Q1946.39 127.044 1953.68 127.044 Z" fill="#000000" fill-rule="nonzero" fill-opacity="1" /><path clip-path="url(#clip540)" d="M1997.68 128.803 L1997.68 133.363 Q1995.02 132.09 1992.66 131.465 Q1990.3 130.84 1988.1 130.84 Q1984.28 130.84 1982.2 132.321 Q1980.14 133.803 1980.14 136.534 Q1980.14 138.826 1981.5 140.007 Q1982.89 141.164 1986.74 141.882 L1989.56 142.46 Q1994.79 143.456 1997.27 145.979 Q1999.77 148.479 1999.77 152.692 Q1999.77 157.715 1996.39 160.307 Q1993.03 162.9 1986.53 162.9 Q1984.07 162.9 1981.3 162.344 Q1978.54 161.789 1975.58 160.701 L1975.58 155.886 Q1978.43 157.483 1981.16 158.293 Q1983.89 159.104 1986.53 159.104 Q1990.53 159.104 1992.71 157.53 Q1994.88 155.956 1994.88 153.039 Q1994.88 150.493 1993.31 149.057 Q1991.76 147.622 1988.19 146.905 L1985.35 146.349 Q1980.11 145.307 1977.78 143.085 Q1975.44 140.863 1975.44 136.905 Q1975.44 132.321 1978.66 129.682 Q1981.9 127.044 1987.57 127.044 Q1990 127.044 1992.52 127.483 Q1995.05 127.923 1997.68 128.803 Z" fill="#000000" fill-rule="nonzero" fill-opacity="1" /><path clip-path="url(#clip540)" d="M2021.5 151.997 L2021.5 136.303 L2025.76 136.303 L2025.76 151.835 Q2025.76 155.516 2027.2 157.368 Q2028.63 159.196 2031.5 159.196 Q2034.95 159.196 2036.94 156.997 Q2038.96 154.798 2038.96 151.002 L2038.96 136.303 L2043.22 136.303 L2043.22 162.229 L2038.96 162.229 L2038.96 158.247 Q2037.41 160.608 2035.35 161.766 Q2033.31 162.9 2030.6 162.9 Q2026.13 162.9 2023.82 160.122 Q2021.5 157.344 2021.5 151.997 M2032.22 135.678 L2032.22 135.678 Z" fill="#000000" fill-rule="nonzero" fill-opacity="1" /><path clip-path="url(#clip540)" d="M2056.11 158.34 L2056.11 172.09 L2051.83 172.09 L2051.83 136.303 L2056.11 136.303 L2056.11 140.238 Q2057.45 137.923 2059.49 136.812 Q2061.55 135.678 2064.4 135.678 Q2069.12 135.678 2072.06 139.428 Q2075.02 143.178 2075.02 149.289 Q2075.02 155.4 2072.06 159.15 Q2069.12 162.9 2064.4 162.9 Q2061.55 162.9 2059.49 161.789 Q2057.45 160.655 2056.11 158.34 M2070.6 149.289 Q2070.6 144.59 2068.66 141.928 Q2066.73 139.243 2063.36 139.243 Q2059.98 139.243 2058.03 141.928 Q2056.11 144.59 2056.11 149.289 Q2056.11 153.988 2058.03 156.673 Q2059.98 159.335 2063.36 159.335 Q2066.73 159.335 2068.66 156.673 Q2070.6 153.988 2070.6 149.289 Z" fill="#000000" fill-rule="nonzero" fill-opacity="1" /><path clip-path="url(#clip540)" d="M2113.68 137.067 L2113.68 141.094 Q2111.87 140.169 2109.93 139.706 Q2107.98 139.243 2105.9 139.243 Q2102.73 139.243 2101.13 140.215 Q2099.56 141.187 2099.56 143.131 Q2099.56 144.613 2100.69 145.469 Q2101.83 146.303 2105.25 147.067 L2106.71 147.391 Q2111.25 148.363 2113.15 150.145 Q2115.07 151.905 2115.07 155.076 Q2115.07 158.687 2112.2 160.793 Q2109.35 162.9 2104.35 162.9 Q2102.27 162.9 2100 162.483 Q2097.75 162.09 2095.25 161.28 L2095.25 156.881 Q2097.61 158.108 2099.91 158.733 Q2102.2 159.335 2104.44 159.335 Q2107.45 159.335 2109.07 158.317 Q2110.69 157.275 2110.69 155.4 Q2110.69 153.664 2109.51 152.738 Q2108.35 151.812 2104.4 150.956 L2102.92 150.608 Q2098.96 149.775 2097.2 148.062 Q2095.44 146.326 2095.44 143.317 Q2095.44 139.659 2098.03 137.669 Q2100.62 135.678 2105.39 135.678 Q2107.75 135.678 2109.84 136.025 Q2111.92 136.372 2113.68 137.067 Z" fill="#000000" fill-rule="nonzero" fill-opacity="1" /><path clip-path="url(#clip540)" d="M2125.97 158.34 L2125.97 172.09 L2121.69 172.09 L2121.69 136.303 L2125.97 136.303 L2125.97 140.238 Q2127.31 137.923 2129.35 136.812 Q2131.41 135.678 2134.26 135.678 Q2138.98 135.678 2141.92 139.428 Q2144.88 143.178 2144.88 149.289 Q2144.88 155.4 2141.92 159.15 Q2138.98 162.9 2134.26 162.9 Q2131.41 162.9 2129.35 161.789 Q2127.31 160.655 2125.97 158.34 M2140.46 149.289 Q2140.46 144.59 2138.52 141.928 Q2136.6 139.243 2133.22 139.243 Q2129.84 139.243 2127.89 141.928 Q2125.97 144.59 2125.97 149.289 Q2125.97 153.988 2127.89 156.673 Q2129.84 159.335 2133.22 159.335 Q2136.6 159.335 2138.52 156.673 Q2140.46 153.988 2140.46 149.289 Z" fill="#000000" fill-rule="nonzero" fill-opacity="1" /><path clip-path="url(#clip540)" d="M2151.94 136.303 L2156.2 136.303 L2156.2 162.229 L2151.94 162.229 L2151.94 136.303 M2151.94 126.21 L2156.2 126.21 L2156.2 131.604 L2151.94 131.604 L2151.94 126.21 Z" fill="#000000" fill-rule="nonzero" fill-opacity="1" /><path clip-path="url(#clip540)" d="M2186.66 146.581 L2186.66 162.229 L2182.41 162.229 L2182.41 146.719 Q2182.41 143.039 2180.97 141.21 Q2179.54 139.382 2176.66 139.382 Q2173.22 139.382 2171.22 141.581 Q2169.23 143.78 2169.23 147.576 L2169.23 162.229 L2164.95 162.229 L2164.95 136.303 L2169.23 136.303 L2169.23 140.331 Q2170.76 137.993 2172.82 136.835 Q2174.91 135.678 2177.61 135.678 Q2182.08 135.678 2184.37 138.456 Q2186.66 141.21 2186.66 146.581 Z" fill="#000000" fill-rule="nonzero" fill-opacity="1" /><polyline clip-path="url(#clip540)" style="stroke:#ff0000; stroke-linecap:round; stroke-linejoin:round; stroke-width:4; stroke-opacity:1; fill:none" points="1731.1,196.789 1878.57,196.789 "/>
<path clip-path="url(#clip540)" d="M1907.82 183.351 L1907.82 210.226 L1913.47 210.226 Q1920.62 210.226 1923.93 206.985 Q1927.27 203.745 1927.27 196.754 Q1927.27 189.809 1923.93 186.592 Q1920.62 183.351 1913.47 183.351 L1907.82 183.351 M1903.15 179.509 L1912.75 179.509 Q1922.8 179.509 1927.5 183.698 Q1932.2 187.865 1932.2 196.754 Q1932.2 205.689 1927.48 209.879 Q1922.75 214.069 1912.75 214.069 L1903.15 214.069 L1903.15 179.509 Z" fill="#000000" fill-rule="nonzero" fill-opacity="1" /><path clip-path="url(#clip540)" d="M1953.68 182.68 Q1948.59 182.68 1945.58 186.476 Q1942.59 190.272 1942.59 196.823 Q1942.59 203.351 1945.58 207.147 Q1948.59 210.944 1953.68 210.944 Q1958.77 210.944 1961.74 207.147 Q1964.72 203.351 1964.72 196.823 Q1964.72 190.272 1961.74 186.476 Q1958.77 182.68 1953.68 182.68 M1953.68 178.884 Q1960.95 178.884 1965.3 183.768 Q1969.65 188.629 1969.65 196.823 Q1969.65 204.995 1965.3 209.879 Q1960.95 214.74 1953.68 214.74 Q1946.39 214.74 1942.01 209.879 Q1937.66 205.018 1937.66 196.823 Q1937.66 188.629 1942.01 183.768 Q1946.39 178.884 1953.68 178.884 Z" fill="#000000" fill-rule="nonzero" fill-opacity="1" /><path clip-path="url(#clip540)" d="M1997.68 180.643 L1997.68 185.203 Q1995.02 183.93 1992.66 183.305 Q1990.3 182.68 1988.1 182.68 Q1984.28 182.68 1982.2 184.161 Q1980.14 185.643 1980.14 188.374 Q1980.14 190.666 1981.5 191.847 Q1982.89 193.004 1986.74 193.722 L1989.56 194.3 Q1994.79 195.296 1997.27 197.819 Q1999.77 200.319 1999.77 204.532 Q1999.77 209.555 1996.39 212.147 Q1993.03 214.74 1986.53 214.74 Q1984.07 214.74 1981.3 214.184 Q1978.54 213.629 1975.58 212.541 L1975.58 207.726 Q1978.43 209.323 1981.16 210.133 Q1983.89 210.944 1986.53 210.944 Q1990.53 210.944 1992.71 209.37 Q1994.88 207.796 1994.88 204.879 Q1994.88 202.333 1993.31 200.897 Q1991.76 199.462 1988.19 198.745 L1985.35 198.189 Q1980.11 197.147 1977.78 194.925 Q1975.44 192.703 1975.44 188.745 Q1975.44 184.161 1978.66 181.522 Q1981.9 178.884 1987.57 178.884 Q1990 178.884 1992.52 179.323 Q1995.05 179.763 1997.68 180.643 Z" fill="#000000" fill-rule="nonzero" fill-opacity="1" /><path clip-path="url(#clip540)" d="M2039 192.078 L2039 178.05 L2043.26 178.05 L2043.26 214.069 L2039 214.069 L2039 210.18 Q2037.66 212.495 2035.6 213.629 Q2033.56 214.74 2030.69 214.74 Q2025.99 214.74 2023.03 210.99 Q2020.09 207.24 2020.09 201.129 Q2020.09 195.018 2023.03 191.268 Q2025.99 187.518 2030.69 187.518 Q2033.56 187.518 2035.6 188.652 Q2037.66 189.763 2039 192.078 M2024.49 201.129 Q2024.49 205.828 2026.41 208.513 Q2028.36 211.175 2031.73 211.175 Q2035.11 211.175 2037.06 208.513 Q2039 205.828 2039 201.129 Q2039 196.43 2037.06 193.768 Q2035.11 191.083 2031.73 191.083 Q2028.36 191.083 2026.41 193.768 Q2024.49 196.43 2024.49 201.129 Z" fill="#000000" fill-rule="nonzero" fill-opacity="1" /><path clip-path="url(#clip540)" d="M2062.08 191.129 Q2058.66 191.129 2056.67 193.814 Q2054.67 196.476 2054.67 201.129 Q2054.67 205.782 2056.64 208.467 Q2058.63 211.129 2062.08 211.129 Q2065.48 211.129 2067.48 208.444 Q2069.47 205.758 2069.47 201.129 Q2069.47 196.522 2067.48 193.837 Q2065.48 191.129 2062.08 191.129 M2062.08 187.518 Q2067.64 187.518 2070.81 191.129 Q2073.98 194.74 2073.98 201.129 Q2073.98 207.495 2070.81 211.129 Q2067.64 214.74 2062.08 214.74 Q2056.5 214.74 2053.33 211.129 Q2050.18 207.495 2050.18 201.129 Q2050.18 194.74 2053.33 191.129 Q2056.5 187.518 2062.08 187.518 Z" fill="#000000" fill-rule="nonzero" fill-opacity="1" /><path clip-path="url(#clip540)" d="M2078.56 188.143 L2082.82 188.143 L2088.15 208.374 L2093.45 188.143 L2098.47 188.143 L2103.79 208.374 L2109.1 188.143 L2113.35 188.143 L2106.57 214.069 L2101.55 214.069 L2095.97 192.819 L2090.37 214.069 L2085.35 214.069 L2078.56 188.143 Z" fill="#000000" fill-rule="nonzero" fill-opacity="1" /><path clip-path="url(#clip540)" d="M2141.36 198.421 L2141.36 214.069 L2137.1 214.069 L2137.1 198.559 Q2137.1 194.879 2135.67 193.05 Q2134.23 191.222 2131.36 191.222 Q2127.92 191.222 2125.92 193.421 Q2123.93 195.62 2123.93 199.416 L2123.93 214.069 L2119.65 214.069 L2119.65 188.143 L2123.93 188.143 L2123.93 192.171 Q2125.46 189.833 2127.52 188.675 Q2129.6 187.518 2132.31 187.518 Q2136.78 187.518 2139.07 190.296 Q2141.36 193.05 2141.36 198.421 Z" fill="#000000" fill-rule="nonzero" fill-opacity="1" /><path clip-path="url(#clip540)" d="M2181.46 188.907 L2181.46 192.934 Q2179.65 192.009 2177.71 191.546 Q2175.76 191.083 2173.68 191.083 Q2170.51 191.083 2168.91 192.055 Q2167.34 193.027 2167.34 194.971 Q2167.34 196.453 2168.47 197.309 Q2169.6 198.143 2173.03 198.907 L2174.49 199.231 Q2179.03 200.203 2180.92 201.985 Q2182.85 203.745 2182.85 206.916 Q2182.85 210.527 2179.97 212.633 Q2177.13 214.74 2172.13 214.74 Q2170.04 214.74 2167.78 214.323 Q2165.53 213.93 2163.03 213.12 L2163.03 208.721 Q2165.39 209.948 2167.68 210.573 Q2169.97 211.175 2172.22 211.175 Q2175.23 211.175 2176.85 210.157 Q2178.47 209.115 2178.47 207.24 Q2178.47 205.504 2177.29 204.578 Q2176.13 203.652 2172.17 202.796 L2170.69 202.448 Q2166.73 201.615 2164.97 199.902 Q2163.22 198.166 2163.22 195.157 Q2163.22 191.499 2165.81 189.509 Q2168.4 187.518 2173.17 187.518 Q2175.53 187.518 2177.61 187.865 Q2179.7 188.212 2181.46 188.907 Z" fill="#000000" fill-rule="nonzero" fill-opacity="1" /><path clip-path="url(#clip540)" d="M2193.75 210.18 L2193.75 223.93 L2189.47 223.93 L2189.47 188.143 L2193.75 188.143 L2193.75 192.078 Q2195.09 189.763 2197.13 188.652 Q2199.19 187.518 2202.03 187.518 Q2206.76 187.518 2209.7 191.268 Q2212.66 195.018 2212.66 201.129 Q2212.66 207.24 2209.7 210.99 Q2206.76 214.74 2202.03 214.74 Q2199.19 214.74 2197.13 213.629 Q2195.09 212.495 2193.75 210.18 M2208.24 201.129 Q2208.24 196.43 2206.29 193.768 Q2204.37 191.083 2200.99 191.083 Q2197.61 191.083 2195.67 193.768 Q2193.75 196.43 2193.75 201.129 Q2193.75 205.828 2195.67 208.513 Q2197.61 211.175 2200.99 211.175 Q2204.37 211.175 2206.29 208.513 Q2208.24 205.828 2208.24 201.129 Z" fill="#000000" fill-rule="nonzero" fill-opacity="1" /><path clip-path="url(#clip540)" d="M2219.72 188.143 L2223.98 188.143 L2223.98 214.069 L2219.72 214.069 L2219.72 188.143 M2219.72 178.05 L2223.98 178.05 L2223.98 183.444 L2219.72 183.444 L2219.72 178.05 Z" fill="#000000" fill-rule="nonzero" fill-opacity="1" /><path clip-path="url(#clip540)" d="M2254.44 198.421 L2254.44 214.069 L2250.18 214.069 L2250.18 198.559 Q2250.18 194.879 2248.75 193.05 Q2247.31 191.222 2244.44 191.222 Q2240.99 191.222 2239 193.421 Q2237.01 195.62 2237.01 199.416 L2237.01 214.069 L2232.73 214.069 L2232.73 188.143 L2237.01 188.143 L2237.01 192.171 Q2238.54 189.833 2240.6 188.675 Q2242.68 187.518 2245.39 187.518 Q2249.86 187.518 2252.15 190.296 Q2254.44 193.05 2254.44 198.421 Z" fill="#000000" fill-rule="nonzero" fill-opacity="1" /><polyline clip-path="url(#clip540)" style="stroke:#008000; stroke-linecap:round; stroke-linejoin:round; stroke-width:6; stroke-opacity:1; fill:none" points="1731.1,248.629 1878.57,248.629 "/>
<path clip-path="url(#clip540)" d="M1909.21 251.927 Q1906.62 251.372 1905.23 249.867 Q1903.84 248.386 1903.84 246.233 Q1903.84 242.969 1906.48 241.14 Q1909.1 239.335 1913.63 239.335 Q1915.39 239.335 1917.36 239.612 Q1919.33 239.89 1921.6 240.446 L1921.6 244.312 Q1919.35 243.64 1917.5 243.339 Q1915.62 243.038 1913.98 243.038 Q1911.23 243.038 1909.63 244.103 Q1908.01 245.168 1908.01 246.649 Q1908.01 248.27 1909.58 249.311 Q1911.13 250.33 1913.82 250.33 L1917.41 250.33 L1917.41 253.848 L1913.98 253.848 Q1910.81 253.848 1909.14 255.029 Q1907.34 256.325 1907.34 258.362 Q1907.34 260.446 1909.28 261.742 Q1911.25 263.038 1914.74 263.038 Q1916.9 263.038 1918.87 262.622 Q1920.83 262.182 1922.48 261.325 L1922.48 265.284 Q1920.39 265.932 1918.45 266.256 Q1916.48 266.58 1914.63 266.58 Q1909.12 266.58 1906.13 264.473 Q1903.15 262.367 1903.15 258.362 Q1903.15 255.862 1904.74 254.173 Q1906.34 252.483 1909.21 251.927 Z" fill="#000000" fill-rule="nonzero" fill-opacity="1" /><path clip-path="url(#clip540)" d="M1930.35 231.349 L1950.21 231.349 L1950.21 235.284 L1935.02 235.284 L1935.02 245.469 L1948.73 245.469 L1948.73 249.404 L1935.02 249.404 L1935.02 265.909 L1930.35 265.909 L1930.35 231.349 Z" fill="#000000" fill-rule="nonzero" fill-opacity="1" /></svg>
