<?xml version="1.0" encoding="utf-8"?>
<svg xmlns="http://www.w3.org/2000/svg" xmlns:xlink="http://www.w3.org/1999/xlink" width="600" height="400" viewBox="0 0 2400 1600">
<defs>
  <clipPath id="clip570">
    <rect x="0" y="0" width="2400" height="1600"/>
  </clipPath>
</defs>
<path clip-path="url(#clip570)" d="M0 1600 L2400 1600 L2400 0 L0 0  Z" fill="#ffffff" fill-rule="evenodd" fill-opacity="1"/>
<defs>
  <clipPath id="clip571">
    <rect x="140" y="47" width="2213" height="1377"/>
  </clipPath>
</defs>
<path clip-path="url(#clip570)" d="M140.696 1423.18 L2352.76 1423.18 L2352.76 47.2441 L140.696 47.2441  Z" fill="#ffffff" fill-rule="evenodd" fill-opacity="1"/>
<polyline clip-path="url(#clip571)" style="stroke:#000000; stroke-linecap:round; stroke-linejoin:round; stroke-width:2; stroke-opacity:0.1; fill:none" points="394.935,1423.18 394.935,47.2441 "/>
<polyline clip-path="url(#clip571)" style="stroke:#000000; stroke-linecap:round; stroke-linejoin:round; stroke-width:2; stroke-opacity:0.1; fill:none" points="678.865,1423.18 678.865,47.2441 "/>
<polyline clip-path="url(#clip571)" style="stroke:#000000; stroke-linecap:round; stroke-linejoin:round; stroke-width:2; stroke-opacity:0.1; fill:none" points="962.795,1423.18 962.795,47.2441 "/>
<polyline clip-path="url(#clip571)" style="stroke:#000000; stroke-linecap:round; stroke-linejoin:round; stroke-width:2; stroke-opacity:0.1; fill:none" points="1246.73,1423.18 1246.73,47.2441 "/>
<polyline clip-path="url(#clip571)" style="stroke:#000000; stroke-linecap:round; stroke-linejoin:round; stroke-width:2; stroke-opacity:0.1; fill:none" points="1530.66,1423.18 1530.66,47.2441 "/>
<polyline clip-path="url(#clip571)" style="stroke:#000000; stroke-linecap:round; stroke-linejoin:round; stroke-width:2; stroke-opacity:0.1; fill:none" points="1814.59,1423.18 1814.59,47.2441 "/>
<polyline clip-path="url(#clip571)" style="stroke:#000000; stroke-linecap:round; stroke-linejoin:round; stroke-width:2; stroke-opacity:0.1; fill:none" points="2098.52,1423.18 2098.52,47.2441 "/>
<polyline clip-path="url(#clip571)" style="stroke:#000000; stroke-linecap:round; stroke-linejoin:round; stroke-width:2; stroke-opacity:0.1; fill:none" points="140.696,1384.32 2352.76,1384.32 "/>
<polyline clip-path="url(#clip571)" style="stroke:#000000; stroke-linecap:round; stroke-linejoin:round; stroke-width:2; stroke-opacity:0.1; fill:none" points="140.696,965.701 2352.76,965.701 "/>
<polyline clip-path="url(#clip571)" style="stroke:#000000; stroke-linecap:round; stroke-linejoin:round; stroke-width:2; stroke-opacity:0.1; fill:none" points="140.696,547.081 2352.76,547.081 "/>
<polyline clip-path="url(#clip571)" style="stroke:#000000; stroke-linecap:round; stroke-linejoin:round; stroke-width:2; stroke-opacity:0.1; fill:none" points="140.696,128.462 2352.76,128.462 "/>
<polyline clip-path="url(#clip570)" style="stroke:#000000; stroke-linecap:round; stroke-linejoin:round; stroke-width:4; stroke-opacity:1; fill:none" points="140.696,1423.18 2352.76,1423.18 "/>
<polyline clip-path="url(#clip570)" style="stroke:#000000; stroke-linecap:round; stroke-linejoin:round; stroke-width:4; stroke-opacity:1; fill:none" points="394.935,1423.18 394.935,1404.28 "/>
<polyline clip-path="url(#clip570)" style="stroke:#000000; stroke-linecap:round; stroke-linejoin:round; stroke-width:4; stroke-opacity:1; fill:none" points="678.865,1423.18 678.865,1404.28 "/>
<polyline clip-path="url(#clip570)" style="stroke:#000000; stroke-linecap:round; stroke-linejoin:round; stroke-width:4; stroke-opacity:1; fill:none" points="962.795,1423.18 962.795,1404.28 "/>
<polyline clip-path="url(#clip570)" style="stroke:#000000; stroke-linecap:round; stroke-linejoin:round; stroke-width:4; stroke-opacity:1; fill:none" points="1246.73,1423.18 1246.73,1404.28 "/>
<polyline clip-path="url(#clip570)" style="stroke:#000000; stroke-linecap:round; stroke-linejoin:round; stroke-width:4; stroke-opacity:1; fill:none" points="1530.66,1423.18 1530.66,1404.28 "/>
<polyline clip-path="url(#clip570)" style="stroke:#000000; stroke-linecap:round; stroke-linejoin:round; stroke-width:4; stroke-opacity:1; fill:none" points="1814.59,1423.18 1814.59,1404.28 "/>
<polyline clip-path="url(#clip570)" style="stroke:#000000; stroke-linecap:round; stroke-linejoin:round; stroke-width:4; stroke-opacity:1; fill:none" points="2098.52,1423.18 2098.52,1404.28 "/>
<path clip-path="url(#clip570)" d="M341.787 1468.75 L371.463 1468.75 L371.463 1472.69 L341.787 1472.69 L341.787 1468.75 Z" fill="#000000" fill-rule="nonzero" fill-opacity="1" /><path clip-path="url(#clip570)" d="M391.555 1454.1 Q387.944 1454.1 386.115 1457.66 Q384.31 1461.2 384.31 1468.33 Q384.31 1475.44 386.115 1479.01 Q387.944 1482.55 391.555 1482.55 Q395.189 1482.55 396.995 1479.01 Q398.824 1475.44 398.824 1468.33 Q398.824 1461.2 396.995 1457.66 Q395.189 1454.1 391.555 1454.1 M391.555 1450.39 Q397.365 1450.39 400.421 1455 Q403.5 1459.58 403.5 1468.33 Q403.5 1477.06 400.421 1481.67 Q397.365 1486.25 391.555 1486.25 Q385.745 1486.25 382.666 1481.67 Q379.611 1477.06 379.611 1468.33 Q379.611 1459.58 382.666 1455 Q385.745 1450.39 391.555 1450.39 Z" fill="#000000" fill-rule="nonzero" fill-opacity="1" /><path clip-path="url(#clip570)" d="M411.717 1479.7 L416.601 1479.7 L416.601 1485.58 L411.717 1485.58 L411.717 1479.7 Z" fill="#000000" fill-rule="nonzero" fill-opacity="1" /><path clip-path="url(#clip570)" d="M440.953 1466.95 Q444.309 1467.66 446.184 1469.93 Q448.083 1472.2 448.083 1475.53 Q448.083 1480.65 444.564 1483.45 Q441.046 1486.25 434.564 1486.25 Q432.388 1486.25 430.073 1485.81 Q427.782 1485.39 425.328 1484.54 L425.328 1480.02 Q427.273 1481.16 429.587 1481.74 Q431.902 1482.32 434.425 1482.32 Q438.823 1482.32 441.115 1480.58 Q443.43 1478.84 443.43 1475.53 Q443.43 1472.48 441.277 1470.77 Q439.147 1469.03 435.328 1469.03 L431.3 1469.03 L431.3 1465.19 L435.513 1465.19 Q438.962 1465.19 440.791 1463.82 Q442.62 1462.43 442.62 1459.84 Q442.62 1457.18 440.722 1455.77 Q438.847 1454.33 435.328 1454.33 Q433.407 1454.33 431.208 1454.75 Q429.009 1455.16 426.37 1456.04 L426.37 1451.88 Q429.032 1451.14 431.347 1450.77 Q433.685 1450.39 435.745 1450.39 Q441.069 1450.39 444.171 1452.83 Q447.272 1455.23 447.272 1459.35 Q447.272 1462.22 445.629 1464.21 Q443.985 1466.18 440.953 1466.95 Z" fill="#000000" fill-rule="nonzero" fill-opacity="1" /><path clip-path="url(#clip570)" d="M626.192 1468.75 L655.868 1468.75 L655.868 1472.69 L626.192 1472.69 L626.192 1468.75 Z" fill="#000000" fill-rule="nonzero" fill-opacity="1" /><path clip-path="url(#clip570)" d="M675.96 1454.1 Q672.349 1454.1 670.52 1457.66 Q668.715 1461.2 668.715 1468.33 Q668.715 1475.44 670.52 1479.01 Q672.349 1482.55 675.96 1482.55 Q679.594 1482.55 681.4 1479.01 Q683.228 1475.44 683.228 1468.33 Q683.228 1461.2 681.4 1457.66 Q679.594 1454.1 675.96 1454.1 M675.96 1450.39 Q681.77 1450.39 684.826 1455 Q687.904 1459.58 687.904 1468.33 Q687.904 1477.06 684.826 1481.67 Q681.77 1486.25 675.96 1486.25 Q670.15 1486.25 667.071 1481.67 Q664.016 1477.06 664.016 1468.33 Q664.016 1459.58 667.071 1455 Q670.15 1450.39 675.96 1450.39 Z" fill="#000000" fill-rule="nonzero" fill-opacity="1" /><path clip-path="url(#clip570)" d="M696.122 1479.7 L701.006 1479.7 L701.006 1485.58 L696.122 1485.58 L696.122 1479.7 Z" fill="#000000" fill-rule="nonzero" fill-opacity="1" /><path clip-path="url(#clip570)" d="M715.219 1481.64 L731.538 1481.64 L731.538 1485.58 L709.594 1485.58 L709.594 1481.64 Q712.256 1478.89 716.839 1474.26 Q721.446 1469.61 722.626 1468.27 Q724.872 1465.74 725.751 1464.01 Q726.654 1462.25 726.654 1460.56 Q726.654 1457.8 724.71 1456.07 Q722.788 1454.33 719.687 1454.33 Q717.488 1454.33 715.034 1455.09 Q712.603 1455.86 709.826 1457.41 L709.826 1452.69 Q712.65 1451.55 715.103 1450.97 Q717.557 1450.39 719.594 1450.39 Q724.964 1450.39 728.159 1453.08 Q731.353 1455.77 731.353 1460.26 Q731.353 1462.39 730.543 1464.31 Q729.756 1466.2 727.65 1468.8 Q727.071 1469.47 723.969 1472.69 Q720.867 1475.88 715.219 1481.64 Z" fill="#000000" fill-rule="nonzero" fill-opacity="1" /><path clip-path="url(#clip570)" d="M909.937 1468.75 L939.613 1468.75 L939.613 1472.69 L909.937 1472.69 L909.937 1468.75 Z" fill="#000000" fill-rule="nonzero" fill-opacity="1" /><path clip-path="url(#clip570)" d="M959.705 1454.1 Q956.094 1454.1 954.265 1457.66 Q952.46 1461.2 952.46 1468.33 Q952.46 1475.44 954.265 1479.01 Q956.094 1482.55 959.705 1482.55 Q963.339 1482.55 965.145 1479.01 Q966.974 1475.44 966.974 1468.33 Q966.974 1461.2 965.145 1457.66 Q963.339 1454.1 959.705 1454.1 M959.705 1450.39 Q965.515 1450.39 968.571 1455 Q971.65 1459.58 971.65 1468.33 Q971.65 1477.06 968.571 1481.67 Q965.515 1486.25 959.705 1486.25 Q953.895 1486.25 950.816 1481.67 Q947.761 1477.06 947.761 1468.33 Q947.761 1459.58 950.816 1455 Q953.895 1450.39 959.705 1450.39 Z" fill="#000000" fill-rule="nonzero" fill-opacity="1" /><path clip-path="url(#clip570)" d="M979.867 1479.7 L984.751 1479.7 L984.751 1485.58 L979.867 1485.58 L979.867 1479.7 Z" fill="#000000" fill-rule="nonzero" fill-opacity="1" /><path clip-path="url(#clip570)" d="M995.747 1481.64 L1003.39 1481.64 L1003.39 1455.28 L995.075 1456.95 L995.075 1452.69 L1003.34 1451.02 L1008.02 1451.02 L1008.02 1481.64 L1015.65 1481.64 L1015.65 1485.58 L995.747 1485.58 L995.747 1481.64 Z" fill="#000000" fill-rule="nonzero" fill-opacity="1" /><path clip-path="url(#clip570)" d="M1224.11 1454.1 Q1220.5 1454.1 1218.67 1457.66 Q1216.86 1461.2 1216.86 1468.33 Q1216.86 1475.44 1218.67 1479.01 Q1220.5 1482.55 1224.11 1482.55 Q1227.74 1482.55 1229.55 1479.01 Q1231.38 1475.44 1231.38 1468.33 Q1231.38 1461.2 1229.55 1457.66 Q1227.74 1454.1 1224.11 1454.1 M1224.11 1450.39 Q1229.92 1450.39 1232.98 1455 Q1236.05 1459.58 1236.05 1468.33 Q1236.05 1477.06 1232.98 1481.67 Q1229.92 1486.25 1224.11 1486.25 Q1218.3 1486.25 1215.22 1481.67 Q1212.17 1477.06 1212.17 1468.33 Q1212.17 1459.58 1215.22 1455 Q1218.3 1450.39 1224.11 1450.39 Z" fill="#000000" fill-rule="nonzero" fill-opacity="1" /><path clip-path="url(#clip570)" d="M1244.27 1479.7 L1249.16 1479.7 L1249.16 1485.58 L1244.27 1485.58 L1244.27 1479.7 Z" fill="#000000" fill-rule="nonzero" fill-opacity="1" /><path clip-path="url(#clip570)" d="M1269.34 1454.1 Q1265.73 1454.1 1263.9 1457.66 Q1262.1 1461.2 1262.1 1468.33 Q1262.1 1475.44 1263.9 1479.01 Q1265.73 1482.55 1269.34 1482.55 Q1272.98 1482.55 1274.78 1479.01 Q1276.61 1475.44 1276.61 1468.33 Q1276.61 1461.2 1274.78 1457.66 Q1272.98 1454.1 1269.34 1454.1 M1269.34 1450.39 Q1275.15 1450.39 1278.21 1455 Q1281.29 1459.58 1281.29 1468.33 Q1281.29 1477.06 1278.21 1481.67 Q1275.15 1486.25 1269.34 1486.25 Q1263.53 1486.25 1260.45 1481.67 Q1257.4 1477.06 1257.4 1468.33 Q1257.4 1459.58 1260.45 1455 Q1263.53 1450.39 1269.34 1450.39 Z" fill="#000000" fill-rule="nonzero" fill-opacity="1" /><path clip-path="url(#clip570)" d="M1508.65 1454.1 Q1505.04 1454.1 1503.21 1457.66 Q1501.41 1461.2 1501.41 1468.33 Q1501.41 1475.44 1503.21 1479.01 Q1505.04 1482.55 1508.65 1482.55 Q1512.29 1482.55 1514.09 1479.01 Q1515.92 1475.44 1515.92 1468.33 Q1515.92 1461.2 1514.09 1457.66 Q1512.29 1454.1 1508.65 1454.1 M1508.65 1450.39 Q1514.46 1450.39 1517.52 1455 Q1520.6 1459.58 1520.6 1468.33 Q1520.6 1477.06 1517.52 1481.67 Q1514.46 1486.25 1508.65 1486.25 Q1502.84 1486.25 1499.77 1481.67 Q1496.71 1477.06 1496.71 1468.33 Q1496.71 1459.58 1499.77 1455 Q1502.84 1450.39 1508.65 1450.39 Z" fill="#000000" fill-rule="nonzero" fill-opacity="1" /><path clip-path="url(#clip570)" d="M1528.82 1479.7 L1533.7 1479.7 L1533.7 1485.58 L1528.82 1485.58 L1528.82 1479.7 Z" fill="#000000" fill-rule="nonzero" fill-opacity="1" /><path clip-path="url(#clip570)" d="M1544.7 1481.64 L1552.33 1481.64 L1552.33 1455.28 L1544.02 1456.95 L1544.02 1452.69 L1552.29 1451.02 L1556.96 1451.02 L1556.96 1481.64 L1564.6 1481.64 L1564.6 1485.58 L1544.7 1485.58 L1544.7 1481.64 Z" fill="#000000" fill-rule="nonzero" fill-opacity="1" /><path clip-path="url(#clip570)" d="M1792.77 1454.1 Q1789.16 1454.1 1787.33 1457.66 Q1785.52 1461.2 1785.52 1468.33 Q1785.52 1475.44 1787.33 1479.01 Q1789.16 1482.55 1792.77 1482.55 Q1796.4 1482.55 1798.21 1479.01 Q1800.04 1475.44 1800.04 1468.33 Q1800.04 1461.2 1798.21 1457.66 Q1796.4 1454.1 1792.77 1454.1 M1792.77 1450.39 Q1798.58 1450.39 1801.64 1455 Q1804.71 1459.58 1804.71 1468.33 Q1804.71 1477.06 1801.64 1481.67 Q1798.58 1486.25 1792.77 1486.25 Q1786.96 1486.25 1783.88 1481.67 Q1780.82 1477.06 1780.82 1468.33 Q1780.82 1459.58 1783.88 1455 Q1786.96 1450.39 1792.77 1450.39 Z" fill="#000000" fill-rule="nonzero" fill-opacity="1" /><path clip-path="url(#clip570)" d="M1812.93 1479.7 L1817.82 1479.7 L1817.82 1485.58 L1812.93 1485.58 L1812.93 1479.7 Z" fill="#000000" fill-rule="nonzero" fill-opacity="1" /><path clip-path="url(#clip570)" d="M1832.03 1481.64 L1848.35 1481.64 L1848.35 1485.58 L1826.4 1485.58 L1826.4 1481.64 Q1829.07 1478.89 1833.65 1474.26 Q1838.26 1469.61 1839.44 1468.27 Q1841.68 1465.74 1842.56 1464.01 Q1843.46 1462.25 1843.46 1460.56 Q1843.46 1457.8 1841.52 1456.07 Q1839.6 1454.33 1836.5 1454.33 Q1834.3 1454.33 1831.84 1455.09 Q1829.41 1455.86 1826.63 1457.41 L1826.63 1452.69 Q1829.46 1451.55 1831.91 1450.97 Q1834.37 1450.39 1836.4 1450.39 Q1841.77 1450.39 1844.97 1453.08 Q1848.16 1455.77 1848.16 1460.26 Q1848.16 1462.39 1847.35 1464.31 Q1846.57 1466.2 1844.46 1468.8 Q1843.88 1469.47 1840.78 1472.69 Q1837.68 1475.88 1832.03 1481.64 Z" fill="#000000" fill-rule="nonzero" fill-opacity="1" /><path clip-path="url(#clip570)" d="M2076.23 1454.1 Q2072.61 1454.1 2070.79 1457.66 Q2068.98 1461.2 2068.98 1468.33 Q2068.98 1475.44 2070.79 1479.01 Q2072.61 1482.55 2076.23 1482.55 Q2079.86 1482.55 2081.66 1479.01 Q2083.49 1475.44 2083.49 1468.33 Q2083.49 1461.2 2081.66 1457.66 Q2079.86 1454.1 2076.23 1454.1 M2076.23 1450.39 Q2082.04 1450.39 2085.09 1455 Q2088.17 1459.58 2088.17 1468.33 Q2088.17 1477.06 2085.09 1481.67 Q2082.04 1486.25 2076.23 1486.25 Q2070.41 1486.25 2067.34 1481.67 Q2064.28 1477.06 2064.28 1468.33 Q2064.28 1459.58 2067.34 1455 Q2070.41 1450.39 2076.23 1450.39 Z" fill="#000000" fill-rule="nonzero" fill-opacity="1" /><path clip-path="url(#clip570)" d="M2096.39 1479.7 L2101.27 1479.7 L2101.27 1485.58 L2096.39 1485.58 L2096.39 1479.7 Z" fill="#000000" fill-rule="nonzero" fill-opacity="1" /><path clip-path="url(#clip570)" d="M2125.62 1466.95 Q2128.98 1467.66 2130.85 1469.93 Q2132.75 1472.2 2132.75 1475.53 Q2132.75 1480.65 2129.23 1483.45 Q2125.72 1486.25 2119.23 1486.25 Q2117.06 1486.25 2114.74 1485.81 Q2112.45 1485.39 2110 1484.54 L2110 1480.02 Q2111.94 1481.16 2114.26 1481.74 Q2116.57 1482.32 2119.1 1482.32 Q2123.49 1482.32 2125.79 1480.58 Q2128.1 1478.84 2128.1 1475.53 Q2128.1 1472.48 2125.95 1470.77 Q2123.82 1469.03 2120 1469.03 L2115.97 1469.03 L2115.97 1465.19 L2120.18 1465.19 Q2123.63 1465.19 2125.46 1463.82 Q2127.29 1462.43 2127.29 1459.84 Q2127.29 1457.18 2125.39 1455.77 Q2123.52 1454.33 2120 1454.33 Q2118.08 1454.33 2115.88 1454.75 Q2113.68 1455.16 2111.04 1456.04 L2111.04 1451.88 Q2113.7 1451.14 2116.02 1450.77 Q2118.35 1450.39 2120.41 1450.39 Q2125.74 1450.39 2128.84 1452.83 Q2131.94 1455.23 2131.94 1459.35 Q2131.94 1462.22 2130.3 1464.21 Q2128.66 1466.18 2125.62 1466.95 Z" fill="#000000" fill-rule="nonzero" fill-opacity="1" /><path clip-path="url(#clip570)" d="M922.791 1548.76 L922.791 1551.62 L895.864 1551.62 Q896.246 1557.67 899.492 1560.85 Q902.771 1564 908.595 1564 Q911.969 1564 915.12 1563.17 Q918.303 1562.35 921.422 1560.69 L921.422 1566.23 Q918.271 1567.57 914.961 1568.27 Q911.651 1568.97 908.245 1568.97 Q899.715 1568.97 894.718 1564 Q889.753 1559.04 889.753 1550.57 Q889.753 1541.82 894.463 1536.69 Q899.206 1531.54 907.227 1531.54 Q914.42 1531.54 918.589 1536.18 Q922.791 1540.8 922.791 1548.76 M916.934 1547.04 Q916.871 1542.23 914.229 1539.37 Q911.619 1536.5 907.29 1536.5 Q902.389 1536.5 899.429 1539.27 Q896.5 1542.04 896.055 1547.07 L916.934 1547.04 Z" fill="#000000" fill-rule="nonzero" fill-opacity="1" /><path clip-path="url(#clip570)" d="M932.403 1532.4 L938.259 1532.4 L938.259 1568.04 L932.403 1568.04 L932.403 1532.4 M932.403 1518.52 L938.259 1518.52 L938.259 1525.93 L932.403 1525.93 L932.403 1518.52 Z" fill="#000000" fill-rule="nonzero" fill-opacity="1" /><path clip-path="url(#clip570)" d="M973.971 1549.81 Q973.971 1543.44 971.329 1539.94 Q968.719 1536.44 963.977 1536.44 Q959.266 1536.44 956.625 1539.94 Q954.015 1543.44 954.015 1549.81 Q954.015 1556.14 956.625 1559.64 Q959.266 1563.14 963.977 1563.14 Q968.719 1563.14 971.329 1559.64 Q973.971 1556.14 973.971 1549.81 M979.828 1563.62 Q979.828 1572.72 975.785 1577.15 Q971.743 1581.6 963.404 1581.6 Q960.317 1581.6 957.579 1581.13 Q954.842 1580.68 952.264 1579.72 L952.264 1574.03 Q954.842 1575.43 957.357 1576.1 Q959.871 1576.76 962.481 1576.76 Q968.242 1576.76 971.107 1573.74 Q973.971 1570.75 973.971 1564.67 L973.971 1561.77 Q972.157 1564.92 969.324 1566.48 Q966.491 1568.04 962.545 1568.04 Q955.988 1568.04 951.978 1563.05 Q947.967 1558.05 947.967 1549.81 Q947.967 1541.53 951.978 1536.53 Q955.988 1531.54 962.545 1531.54 Q966.491 1531.54 969.324 1533.1 Q972.157 1534.66 973.971 1537.81 L973.971 1532.4 L979.828 1532.4 L979.828 1563.62 Z" fill="#000000" fill-rule="nonzero" fill-opacity="1" /><path clip-path="url(#clip570)" d="M1022.38 1548.76 L1022.38 1551.62 L995.455 1551.62 Q995.837 1557.67 999.084 1560.85 Q1002.36 1564 1008.19 1564 Q1011.56 1564 1014.71 1563.17 Q1017.89 1562.35 1021.01 1560.69 L1021.01 1566.23 Q1017.86 1567.57 1014.55 1568.27 Q1011.24 1568.97 1007.84 1568.97 Q999.307 1568.97 994.31 1564 Q989.344 1559.04 989.344 1550.57 Q989.344 1541.82 994.055 1536.69 Q998.797 1531.54 1006.82 1531.54 Q1014.01 1531.54 1018.18 1536.18 Q1022.38 1540.8 1022.38 1548.76 M1016.53 1547.04 Q1016.46 1542.23 1013.82 1539.37 Q1011.21 1536.5 1006.88 1536.5 Q1001.98 1536.5 999.02 1539.27 Q996.092 1542.04 995.646 1547.07 L1016.53 1547.04 Z" fill="#000000" fill-rule="nonzero" fill-opacity="1" /><path clip-path="url(#clip570)" d="M1061.63 1546.53 L1061.63 1568.04 L1055.77 1568.04 L1055.77 1546.72 Q1055.77 1541.66 1053.8 1539.14 Q1051.82 1536.63 1047.88 1536.63 Q1043.13 1536.63 1040.4 1539.65 Q1037.66 1542.68 1037.66 1547.9 L1037.66 1568.04 L1031.77 1568.04 L1031.77 1532.4 L1037.66 1532.4 L1037.66 1537.93 Q1039.76 1534.72 1042.59 1533.13 Q1045.46 1531.54 1049.18 1531.54 Q1055.32 1531.54 1058.48 1535.36 Q1061.63 1539.14 1061.63 1546.53 Z" fill="#000000" fill-rule="nonzero" fill-opacity="1" /><path clip-path="url(#clip570)" d="M1069.11 1532.4 L1075.31 1532.4 L1086.45 1562.31 L1097.59 1532.4 L1103.8 1532.4 L1090.43 1568.04 L1082.47 1568.04 L1069.11 1532.4 Z" fill="#000000" fill-rule="nonzero" fill-opacity="1" /><path clip-path="url(#clip570)" d="M1128.08 1550.12 Q1120.99 1550.12 1118.25 1551.75 Q1115.51 1553.37 1115.51 1557.29 Q1115.51 1560.4 1117.55 1562.25 Q1119.62 1564.07 1123.15 1564.07 Q1128.02 1564.07 1130.95 1560.63 Q1133.91 1557.16 1133.91 1551.43 L1133.91 1550.12 L1128.08 1550.12 M1139.77 1547.71 L1139.77 1568.04 L1133.91 1568.04 L1133.91 1562.63 Q1131.9 1565.88 1128.91 1567.44 Q1125.92 1568.97 1121.59 1568.97 Q1116.12 1568.97 1112.87 1565.91 Q1109.66 1562.82 1109.66 1557.67 Q1109.66 1551.65 1113.67 1548.6 Q1117.71 1545.54 1125.7 1545.54 L1133.91 1545.54 L1133.91 1544.97 Q1133.91 1540.93 1131.24 1538.73 Q1128.59 1536.5 1123.79 1536.5 Q1120.73 1536.5 1117.84 1537.23 Q1114.94 1537.97 1112.27 1539.43 L1112.27 1534.02 Q1115.48 1532.78 1118.5 1532.17 Q1121.53 1531.54 1124.39 1531.54 Q1132.13 1531.54 1135.95 1535.55 Q1139.77 1539.56 1139.77 1547.71 Z" fill="#000000" fill-rule="nonzero" fill-opacity="1" /><path clip-path="url(#clip570)" d="M1151.83 1518.52 L1157.69 1518.52 L1157.69 1568.04 L1151.83 1568.04 L1151.83 1518.52 Z" fill="#000000" fill-rule="nonzero" fill-opacity="1" /><path clip-path="url(#clip570)" d="M1169.33 1553.98 L1169.33 1532.4 L1175.19 1532.4 L1175.19 1553.75 Q1175.19 1558.81 1177.16 1561.36 Q1179.14 1563.87 1183.08 1563.87 Q1187.83 1563.87 1190.56 1560.85 Q1193.33 1557.83 1193.33 1552.61 L1193.33 1532.4 L1199.19 1532.4 L1199.19 1568.04 L1193.33 1568.04 L1193.33 1562.57 Q1191.2 1565.82 1188.37 1567.41 Q1185.57 1568.97 1181.84 1568.97 Q1175.7 1568.97 1172.52 1565.15 Q1169.33 1561.33 1169.33 1553.98 M1184.07 1531.54 L1184.07 1531.54 Z" fill="#000000" fill-rule="nonzero" fill-opacity="1" /><path clip-path="url(#clip570)" d="M1241.74 1548.76 L1241.74 1551.62 L1214.82 1551.62 Q1215.2 1557.67 1218.45 1560.85 Q1221.72 1564 1227.55 1564 Q1230.92 1564 1234.07 1563.17 Q1237.26 1562.35 1240.38 1560.69 L1240.38 1566.23 Q1237.22 1567.57 1233.91 1568.27 Q1230.6 1568.97 1227.2 1568.97 Q1218.67 1568.97 1213.67 1564 Q1208.71 1559.04 1208.71 1550.57 Q1208.71 1541.82 1213.42 1536.69 Q1218.16 1531.54 1226.18 1531.54 Q1233.37 1531.54 1237.54 1536.18 Q1241.74 1540.8 1241.74 1548.76 M1235.89 1547.04 Q1235.82 1542.23 1233.18 1539.37 Q1230.57 1536.5 1226.24 1536.5 Q1221.34 1536.5 1218.38 1539.27 Q1215.45 1542.04 1215.01 1547.07 L1235.89 1547.04 Z" fill="#000000" fill-rule="nonzero" fill-opacity="1" /><path clip-path="url(#clip570)" d="M1274.08 1533.45 L1274.08 1538.98 Q1271.6 1537.71 1268.93 1537.07 Q1266.25 1536.44 1263.39 1536.44 Q1259.03 1536.44 1256.83 1537.77 Q1254.67 1539.11 1254.67 1541.79 Q1254.67 1543.82 1256.23 1545 Q1257.79 1546.15 1262.5 1547.2 L1264.5 1547.64 Q1270.74 1548.98 1273.35 1551.43 Q1275.99 1553.85 1275.99 1558.21 Q1275.99 1563.17 1272.05 1566.07 Q1268.13 1568.97 1261.26 1568.97 Q1258.39 1568.97 1255.27 1568.39 Q1252.18 1567.85 1248.75 1566.74 L1248.75 1560.69 Q1251.99 1562.38 1255.14 1563.24 Q1258.3 1564.07 1261.38 1564.07 Q1265.52 1564.07 1267.75 1562.66 Q1269.98 1561.23 1269.98 1558.65 Q1269.98 1556.27 1268.35 1554.99 Q1266.76 1553.72 1261.32 1552.54 L1259.28 1552.07 Q1253.84 1550.92 1251.42 1548.56 Q1249 1546.18 1249 1542.04 Q1249 1537.01 1252.57 1534.27 Q1256.13 1531.54 1262.69 1531.54 Q1265.93 1531.54 1268.8 1532.01 Q1271.66 1532.49 1274.08 1533.45 Z" fill="#000000" fill-rule="nonzero" fill-opacity="1" /><path clip-path="url(#clip570)" d="M1303.08 1547.58 L1320.23 1547.58 L1320.23 1552.8 L1303.08 1552.8 L1303.08 1547.58 Z" fill="#000000" fill-rule="nonzero" fill-opacity="1" /><path clip-path="url(#clip570)" d="M1356.71 1548.82 Q1353.14 1548.06 1351.23 1545.99 Q1349.33 1543.95 1349.33 1540.99 Q1349.33 1536.5 1352.95 1533.99 Q1356.55 1531.5 1362.79 1531.5 Q1365.21 1531.5 1367.91 1531.89 Q1370.62 1532.27 1373.74 1533.03 L1373.74 1538.35 Q1370.65 1537.42 1368.1 1537.01 Q1365.53 1536.6 1363.27 1536.6 Q1359.48 1536.6 1357.28 1538.06 Q1355.05 1539.53 1355.05 1541.56 Q1355.05 1543.79 1357.22 1545.22 Q1359.35 1546.62 1363.04 1546.62 L1367.98 1546.62 L1367.98 1551.46 L1363.27 1551.46 Q1358.91 1551.46 1356.61 1553.08 Q1354.13 1554.87 1354.13 1557.67 Q1354.13 1560.53 1356.8 1562.31 Q1359.51 1564.1 1364.32 1564.1 Q1367.28 1564.1 1369.98 1563.52 Q1372.69 1562.92 1374.95 1561.74 L1374.95 1567.18 Q1372.08 1568.08 1369.41 1568.52 Q1366.7 1568.97 1364.16 1568.97 Q1356.58 1568.97 1352.48 1566.07 Q1348.37 1563.17 1348.37 1557.67 Q1348.37 1554.23 1350.57 1551.91 Q1352.76 1549.58 1356.71 1548.82 Z" fill="#000000" fill-rule="nonzero" fill-opacity="1" /><path clip-path="url(#clip570)" d="M1412.6 1578.87 L1412.6 1583.42 L1378.73 1583.42 L1378.73 1578.87 L1412.6 1578.87 Z" fill="#000000" fill-rule="nonzero" fill-opacity="1" /><path clip-path="url(#clip570)" d="M1418.36 1520.52 L1445.67 1520.52 L1445.67 1525.93 L1424.79 1525.93 L1424.79 1539.94 L1443.63 1539.94 L1443.63 1545.35 L1424.79 1545.35 L1424.79 1568.04 L1418.36 1568.04 L1418.36 1520.52 Z" fill="#000000" fill-rule="nonzero" fill-opacity="1" /><path clip-path="url(#clip570)" d="M1511.11 1518.58 Q1506.84 1525.9 1504.78 1533.06 Q1502.71 1540.23 1502.71 1547.58 Q1502.71 1554.93 1504.78 1562.16 Q1506.88 1569.35 1511.11 1576.64 L1506.02 1576.64 Q1501.24 1569.16 1498.86 1561.93 Q1496.5 1554.71 1496.5 1547.58 Q1496.5 1540.48 1498.86 1533.29 Q1501.21 1526.09 1506.02 1518.58 L1511.11 1518.58 Z" fill="#000000" fill-rule="nonzero" fill-opacity="1" /><path clip-path="url(#clip570)" d="M1522.73 1520.52 L1552.77 1520.52 L1552.77 1525.93 L1529.16 1525.93 L1529.16 1540 L1551.79 1540 L1551.79 1545.41 L1529.16 1545.41 L1529.16 1562.63 L1553.35 1562.63 L1553.35 1568.04 L1522.73 1568.04 L1522.73 1520.52 Z" fill="#000000" fill-rule="nonzero" fill-opacity="1" /><path clip-path="url(#clip570)" d="M1580.05 1555.98 L1580.05 1568.04 L1576.36 1568.04 L1576.36 1556.11 Q1576.36 1553.28 1575.12 1551.87 Q1573.88 1550.44 1571.39 1550.44 Q1568.4 1550.44 1566.68 1552.16 Q1564.96 1553.85 1564.96 1556.78 L1564.96 1568.04 L1561.24 1568.04 L1561.24 1540.32 L1564.96 1540.32 L1564.96 1551.17 Q1566.27 1549.39 1568.05 1548.5 Q1569.86 1547.61 1572.22 1547.61 Q1576.07 1547.61 1578.04 1549.74 Q1580.05 1551.87 1580.05 1555.98 Z" fill="#000000" fill-rule="nonzero" fill-opacity="1" /><path clip-path="url(#clip570)" d="M1589.09 1518.58 L1594.18 1518.58 Q1598.96 1526.09 1601.31 1533.29 Q1603.7 1540.48 1603.7 1547.58 Q1603.7 1554.71 1601.31 1561.93 Q1598.96 1569.16 1594.18 1576.64 L1589.09 1576.64 Q1593.32 1569.35 1595.39 1562.16 Q1597.49 1554.93 1597.49 1547.58 Q1597.49 1540.23 1595.39 1533.06 Q1593.32 1525.9 1589.09 1518.58 Z" fill="#000000" fill-rule="nonzero" fill-opacity="1" /><polyline clip-path="url(#clip570)" style="stroke:#000000; stroke-linecap:round; stroke-linejoin:round; stroke-width:4; stroke-opacity:1; fill:none" points="140.696,1423.18 140.696,47.2441 "/>
<polyline clip-path="url(#clip570)" style="stroke:#000000; stroke-linecap:round; stroke-linejoin:round; stroke-width:4; stroke-opacity:1; fill:none" points="140.696,1384.32 159.593,1384.32 "/>
<polyline clip-path="url(#clip570)" style="stroke:#000000; stroke-linecap:round; stroke-linejoin:round; stroke-width:4; stroke-opacity:1; fill:none" points="140.696,965.701 159.593,965.701 "/>
<polyline clip-path="url(#clip570)" style="stroke:#000000; stroke-linecap:round; stroke-linejoin:round; stroke-width:4; stroke-opacity:1; fill:none" points="140.696,547.081 159.593,547.081 "/>
<polyline clip-path="url(#clip570)" style="stroke:#000000; stroke-linecap:round; stroke-linejoin:round; stroke-width:4; stroke-opacity:1; fill:none" points="140.696,128.462 159.593,128.462 "/>
<path clip-path="url(#clip570)" d="M92.7512 1370.12 Q89.1401 1370.12 87.3114 1373.68 Q85.5058 1377.23 85.5058 1384.36 Q85.5058 1391.46 87.3114 1395.03 Q89.1401 1398.57 92.7512 1398.57 Q96.3854 1398.57 98.1909 1395.03 Q100.02 1391.46 100.02 1384.36 Q100.02 1377.23 98.1909 1373.68 Q96.3854 1370.12 92.7512 1370.12 M92.7512 1366.42 Q98.5613 1366.42 101.617 1371.02 Q104.696 1375.61 104.696 1384.36 Q104.696 1393.08 101.617 1397.69 Q98.5613 1402.27 92.7512 1402.27 Q86.941 1402.27 83.8623 1397.69 Q80.8068 1393.08 80.8068 1384.36 Q80.8068 1375.61 83.8623 1371.02 Q86.941 1366.42 92.7512 1366.42 Z" fill="#000000" fill-rule="nonzero" fill-opacity="1" /><path clip-path="url(#clip570)" d="M53.3995 979.046 L61.0384 979.046 L61.0384 952.68 L52.7282 954.347 L52.7282 950.088 L60.9921 948.421 L65.668 948.421 L65.668 979.046 L73.3068 979.046 L73.3068 982.981 L53.3995 982.981 L53.3995 979.046 Z" fill="#000000" fill-rule="nonzero" fill-opacity="1" /><path clip-path="url(#clip570)" d="M92.7512 951.5 Q89.1401 951.5 87.3114 955.065 Q85.5058 958.606 85.5058 965.736 Q85.5058 972.842 87.3114 976.407 Q89.1401 979.949 92.7512 979.949 Q96.3854 979.949 98.1909 976.407 Q100.02 972.842 100.02 965.736 Q100.02 958.606 98.1909 955.065 Q96.3854 951.5 92.7512 951.5 M92.7512 947.796 Q98.5613 947.796 101.617 952.403 Q104.696 956.986 104.696 965.736 Q104.696 974.463 101.617 979.069 Q98.5613 983.653 92.7512 983.653 Q86.941 983.653 83.8623 979.069 Q80.8068 974.463 80.8068 965.736 Q80.8068 956.986 83.8623 952.403 Q86.941 947.796 92.7512 947.796 Z" fill="#000000" fill-rule="nonzero" fill-opacity="1" /><path clip-path="url(#clip570)" d="M56.6171 560.426 L72.9365 560.426 L72.9365 564.361 L50.9921 564.361 L50.9921 560.426 Q53.6541 557.672 58.2375 553.042 Q62.8439 548.389 64.0245 547.047 Q66.2698 544.524 67.1494 542.787 Q68.0522 541.028 68.0522 539.338 Q68.0522 536.584 66.1078 534.848 Q64.1865 533.112 61.0847 533.112 Q58.8856 533.112 56.4319 533.875 Q54.0014 534.639 51.2236 536.19 L51.2236 531.468 Q54.0477 530.334 56.5014 529.755 Q58.955 529.176 60.9921 529.176 Q66.3624 529.176 69.5568 531.862 Q72.7513 534.547 72.7513 539.037 Q72.7513 541.167 71.9411 543.088 Q71.1541 544.987 69.0476 547.579 Q68.4689 548.25 65.367 551.468 Q62.2652 554.662 56.6171 560.426 Z" fill="#000000" fill-rule="nonzero" fill-opacity="1" /><path clip-path="url(#clip570)" d="M92.7512 532.88 Q89.1401 532.88 87.3114 536.445 Q85.5058 539.987 85.5058 547.116 Q85.5058 554.223 87.3114 557.787 Q89.1401 561.329 92.7512 561.329 Q96.3854 561.329 98.1909 557.787 Q100.02 554.223 100.02 547.116 Q100.02 539.987 98.1909 536.445 Q96.3854 532.88 92.7512 532.88 M92.7512 529.176 Q98.5613 529.176 101.617 533.783 Q104.696 538.366 104.696 547.116 Q104.696 555.843 101.617 560.449 Q98.5613 565.033 92.7512 565.033 Q86.941 565.033 83.8623 560.449 Q80.8068 555.843 80.8068 547.116 Q80.8068 538.366 83.8623 533.783 Q86.941 529.176 92.7512 529.176 Z" fill="#000000" fill-rule="nonzero" fill-opacity="1" /><path clip-path="url(#clip570)" d="M66.7559 127.107 Q70.1124 127.825 71.9874 130.094 Q73.8855 132.362 73.8855 135.695 Q73.8855 140.811 70.367 143.612 Q66.8485 146.413 60.3671 146.413 Q58.1912 146.413 55.8764 145.973 Q53.5847 145.556 51.131 144.7 L51.131 140.186 Q53.0754 141.32 55.3903 141.899 Q57.7051 142.478 60.2282 142.478 Q64.6263 142.478 66.918 140.742 Q69.2328 139.006 69.2328 135.695 Q69.2328 132.64 67.08 130.927 Q64.9504 129.191 61.131 129.191 L57.1032 129.191 L57.1032 125.348 L61.3161 125.348 Q64.7652 125.348 66.5939 123.982 Q68.4226 122.594 68.4226 120.001 Q68.4226 117.339 66.5245 115.927 Q64.6495 114.492 61.131 114.492 Q59.2097 114.492 57.0106 114.908 Q54.8115 115.325 52.1727 116.205 L52.1727 112.038 Q54.8347 111.297 57.1495 110.927 Q59.4875 110.557 61.5476 110.557 Q66.8717 110.557 69.9735 112.987 Q73.0753 115.395 73.0753 119.515 Q73.0753 122.385 71.4318 124.376 Q69.7883 126.344 66.7559 127.107 Z" fill="#000000" fill-rule="nonzero" fill-opacity="1" /><path clip-path="url(#clip570)" d="M92.7512 114.26 Q89.1401 114.26 87.3114 117.825 Q85.5058 121.367 85.5058 128.496 Q85.5058 135.603 87.3114 139.168 Q89.1401 142.709 92.7512 142.709 Q96.3854 142.709 98.1909 139.168 Q100.02 135.603 100.02 128.496 Q100.02 121.367 98.1909 117.825 Q96.3854 114.26 92.7512 114.26 M92.7512 110.557 Q98.5613 110.557 101.617 115.163 Q104.696 119.746 104.696 128.496 Q104.696 137.223 101.617 141.83 Q98.5613 146.413 92.7512 146.413 Q86.941 146.413 83.8623 141.83 Q80.8068 137.223 80.8068 128.496 Q80.8068 119.746 83.8623 115.163 Q86.941 110.557 92.7512 110.557 Z" fill="#000000" fill-rule="nonzero" fill-opacity="1" /><polyline clip-path="url(#clip571)" style="stroke:#0000ff; stroke-linecap:round; stroke-linejoin:round; stroke-width:4; stroke-opacity:1; fill:none" points="203.301,1383.8 205.39,1383.78 207.479,1383.77 209.568,1383.76 211.657,1383.75 213.746,1383.74 215.835,1383.73 217.924,1383.72 220.013,1383.71 222.101,1383.7 224.19,1383.7 226.279,1383.69 228.368,1383.69 230.457,1383.68 232.546,1383.68 234.635,1383.68 236.724,1383.68 238.813,1383.67 240.902,1383.67 242.991,1383.67 245.08,1383.67 247.169,1383.66 249.258,1383.66 251.347,1383.65 253.436,1383.65 255.524,1383.64 257.613,1383.63 259.702,1383.63 261.791,1383.61 263.88,1383.6 265.969,1383.59 268.058,1383.57 270.147,1383.55 272.236,1383.53 274.325,1383.5 276.414,1383.48 278.503,1383.45 280.592,1383.42 282.681,1383.38 284.77,1383.34 286.859,1383.3 288.947,1383.25 291.036,1383.2 293.125,1383.15 295.214,1383.1 297.303,1383.04 299.392,1382.97 301.481,1382.9 303.57,1382.83 305.659,1382.75 307.748,1382.67 309.837,1382.59 311.926,1382.5 314.015,1382.4 316.104,1382.3 318.193,1382.19 320.282,1382.08 322.371,1381.96 324.459,1381.84 326.548,1381.71 328.637,1381.57 330.726,1381.42 332.815,1381.27 334.904,1381.11 336.993,1380.94 339.082,1380.75 341.171,1380.56 343.26,1380.36 345.349,1380.14 347.438,1379.92 349.527,1379.67 351.616,1379.42 353.705,1379.15 355.794,1378.86 357.882,1378.56 359.971,1378.23 362.06,1377.89 364.149,1377.53 366.238,1377.15 368.327,1376.75 370.416,1376.33 372.505,1375.89 374.594,1375.42 376.683,1374.94 378.772,1374.43 380.861,1373.89 382.95,1373.34 385.039,1372.76 387.128,1372.16 389.217,1371.54 391.305,1370.9 393.394,1370.24 395.483,1369.56 397.572,1368.87 399.661,1368.15 401.75,1367.43 403.839,1366.69 405.928,1365.95 408.017,1365.19 410.106,1364.43 412.195,1363.67 414.284,1362.91 416.373,1362.14 418.462,1361.38 420.551,1360.62 422.64,1359.87 424.728,1359.14 426.817,1358.41 428.906,1357.69 430.995,1356.99 433.084,1356.31 435.173,1355.65 437.262,1355 439.351,1354.38 441.44,1353.77 443.529,1353.19 445.618,1352.63 447.707,1352.09 449.796,1351.58 451.885,1351.08 453.974,1350.6 456.063,1350.14 458.152,1349.69 460.24,1349.26 462.329,1348.84 464.418,1348.42 466.507,1348 468.596,1347.58 470.685,1347.16 472.774,1346.72 474.863,1346.25 476.952,1345.77 479.041,1345.25 481.13,1344.69 483.219,1344.08 485.308,1343.42 487.397,1342.7 489.486,1341.91 491.575,1341.05 493.663,1340.1 495.752,1339.07 497.841,1337.94 499.93,1336.72 502.019,1335.39 504.108,1333.95 506.197,1332.4 508.286,1330.73 510.375,1328.94 512.464,1327.04 514.553,1325.01 516.642,1322.85 518.731,1320.58 520.82,1318.18 522.909,1315.66 524.998,1313.01 527.086,1310.25 529.175,1307.37 531.264,1304.38 533.353,1301.27 535.442,1298.06 537.531,1294.73 539.62,1291.3 541.709,1287.77 543.798,1284.13 545.887,1280.38 547.976,1276.54 550.065,1272.59 552.154,1268.53 554.243,1264.36 556.332,1260.08 558.421,1255.69 560.509,1251.17 562.598,1246.53 564.687,1241.77 566.776,1236.86 568.865,1231.82 570.954,1226.63 573.043,1221.3 575.132,1215.81 577.221,1210.17 579.31,1204.37 581.399,1198.43 583.488,1192.33 585.577,1186.09 587.666,1179.72 589.755,1173.21 591.844,1166.6 593.932,1159.88 596.021,1153.08 598.11,1146.22 600.199,1139.32 602.288,1132.4 604.377,1125.5 606.466,1118.64 608.555,1111.85 610.644,1105.16 612.733,1098.61 614.822,1092.22 616.911,1086.02 619,1080.04 621.089,1074.31 623.178,1068.86 625.267,1063.7 627.356,1058.84 629.444,1054.31 631.533,1050.11 633.622,1046.25 635.711,1042.72 637.8,1039.51 639.889,1036.63 641.978,1034.05 644.067,1031.75 646.156,1029.72 648.245,1027.92 650.334,1026.34 652.423,1024.94 654.512,1023.68 656.601,1022.55 658.69,1021.49 660.779,1020.49 662.867,1019.5 664.956,1018.5 667.045,1017.44 669.134,1016.31 671.223,1015.05 673.312,1013.66 675.401,1012.09 677.49,1010.31 679.579,1008.31 681.668,1006.05 683.757,1003.51 685.846,1000.67 687.935,997.498 690.024,993.987 692.113,990.118 694.202,985.878 696.29,981.258 698.379,976.253 700.468,970.863 702.557,965.092 704.646,958.951 706.735,952.456 708.824,945.627 710.913,938.492 713.002,931.087 715.091,923.451 717.18,915.63 719.269,907.675 721.358,899.644 723.447,891.598 725.536,883.599 727.625,875.716 729.713,868.016 731.802,860.567 733.891,853.437 735.98,846.691 738.069,840.39 740.158,834.591 742.247,829.344 744.336,824.694 746.425,820.678 748.514,817.322 750.603,814.646 752.692,812.66 754.781,811.364 756.87,810.748 758.959,810.794 761.048,811.474 763.136,812.753 765.225,814.588 767.314,816.927 769.403,819.715 771.492,822.89 773.581,826.385 775.67,830.133 777.759,834.059 779.848,838.093 781.937,842.159 784.026,846.184 786.115,850.096 788.204,853.825 790.293,857.301 792.382,860.462 794.471,863.246 796.56,865.597 798.648,867.464 800.737,868.801 802.826,869.566 804.915,869.726 807.004,869.251 809.093,868.118 811.182,866.31 813.271,863.814 815.36,860.626 817.449,856.742 819.538,852.169 821.627,846.913 823.716,840.988 825.805,834.411 827.894,827.201 829.983,819.381 832.071,810.976 834.16,802.014 836.249,792.524 838.338,782.536 840.427,772.082 842.516,761.194 844.605,749.902 846.694,738.241 848.783,726.24 850.872,713.932 852.961,701.347 855.05,688.515 857.139,675.465 859.228,662.226 861.317,648.825 863.406,635.292 865.494,621.654 867.583,607.941 869.672,594.183 871.761,580.412 873.85,566.662 875.939,552.969 878.028,539.376 880.117,525.925 882.206,512.665 884.295,499.648 886.384,486.931 888.473,474.574 890.562,462.643 892.651,451.204 894.74,440.328 896.829,430.086 898.917,420.55 901.006,411.791 903.095,403.88 905.184,396.881 907.273,390.856 909.362,385.863 911.451,381.95 913.54,379.159 915.629,377.524 917.718,377.069 919.807,377.81 921.896,379.752 923.985,382.891 926.074,387.215 928.163,392.701 930.252,399.318 932.341,407.027 934.429,415.782 936.518,425.531 938.607,436.214 940.696,447.767 942.785,460.121 944.874,473.203 946.963,486.936 949.052,501.241 951.141,516.034 953.23,531.233 955.319,546.75 957.408,562.498 959.497,578.39 961.586,594.336 963.675,610.248 965.764,626.039 967.852,641.622 969.941,656.911 972.03,671.823 974.119,686.278 976.208,700.2 978.297,713.515 980.386,726.156 982.475,738.058 984.564,749.165 986.653,759.423 988.742,768.787 990.831,777.218 992.92,784.683 995.009,791.156 997.098,796.617 999.187,801.053 1001.28,804.459 1003.36,806.833 1005.45,808.181 1007.54,808.514 1009.63,807.847 1011.72,806.201 1013.81,803.599 1015.9,800.07 1017.99,795.645 1020.08,790.355 1022.16,784.237 1024.25,777.327 1026.34,769.662 1028.43,761.279 1030.52,752.217 1032.61,742.512 1034.7,732.201 1036.79,721.318 1038.88,709.896 1040.97,697.966 1043.05,685.557 1045.14,672.694 1047.23,659.402 1049.32,645.702 1051.41,631.612 1053.5,617.149 1055.59,602.326 1057.68,587.158 1059.77,571.654 1061.85,555.826 1063.94,539.686 1066.03,523.244 1068.12,506.513 1070.21,489.509 1072.3,472.251 1074.39,454.76 1076.48,437.061 1078.57,419.188 1080.66,401.175 1082.74,383.065 1084.83,364.906 1086.92,346.752 1089.01,328.662 1091.1,310.703 1093.19,292.943 1095.28,275.457 1097.37,258.322 1099.46,241.617 1101.54,225.423 1103.63,209.821 1105.72,194.889 1107.81,180.702 1109.9,167.333 1111.99,154.847 1114.08,143.303 1116.17,132.752 1118.26,123.238 1120.34,114.791 1122.43,107.437 1124.52,101.186 1126.61,96.0401 1128.7,91.9913 1130.79,89.0201 1132.88,87.0976 1134.97,86.1857 1137.06,86.2374 1139.15,87.1982 1141.23,89.0067 1143.32,91.5955 1145.41,94.8926 1147.5,98.8222 1149.59,103.306 1151.68,108.264 1153.77,113.617 1155.86,119.285 1157.95,125.194 1160.03,131.27 1162.12,137.445 1164.21,143.657 1166.3,149.854 1168.39,155.988 1170.48,162.022 1172.57,167.932 1174.66,173.701 1176.75,179.325 1178.84,184.813 1180.92,190.183 1183.01,195.466 1185.1,200.704 1187.19,205.95 1189.28,211.264 1191.37,216.715 1193.46,222.378 1195.55,228.334 1197.64,234.664 1199.72,241.452 1201.81,248.779 1203.9,256.724 1205.99,265.361 1208.08,274.754 1210.17,284.962 1212.26,296.033 1214.35,308.003 1216.44,320.897 1218.53,334.728 1220.61,349.494 1222.7,365.185 1224.79,381.775 1226.88,399.228 1228.97,417.499 1231.06,436.533 1233.15,456.265 1235.24,476.628 1237.33,497.545 1239.41,518.939 1241.5,540.729 1243.59,562.834 1245.68,585.171 1247.77,607.663 1249.86,630.231 1251.95,652.802 1254.04,675.307 1256.13,697.681 1258.21,719.865 1260.3,741.805 1262.39,763.451 1264.48,784.762 1266.57,805.699 1268.66,826.23 1270.75,846.328 1272.84,865.97 1274.93,885.139 1277.02,903.82 1279.1,922.003 1281.19,939.68 1283.28,956.847 1285.37,973.501 1287.46,989.642 1289.55,1005.27 1291.64,1020.39 1293.73,1035.01 1295.82,1049.13 1297.9,1062.76 1299.99,1075.9 1302.08,1088.56 1304.17,1100.74 1306.26,1112.47 1308.35,1123.74 1310.44,1134.56 1312.53,1144.94 1314.62,1154.89 1316.71,1164.41 1318.79,1173.52 1320.88,1182.23 1322.97,1190.54 1325.06,1198.46 1327.15,1206 1329.24,1213.17 1331.33,1219.98 1333.42,1226.44 1335.51,1232.55 1337.59,1238.32 1339.68,1243.76 1341.77,1248.89 1343.86,1253.71 1345.95,1258.22 1348.04,1262.45 1350.13,1266.39 1352.22,1270.06 1354.31,1273.46 1356.39,1276.61 1358.48,1279.52 1360.57,1282.18 1362.66,1284.61 1364.75,1286.82 1366.84,1288.81 1368.93,1290.59 1371.02,1292.17 1373.11,1293.55 1375.2,1294.73 1377.28,1295.72 1379.37,1296.52 1381.46,1297.13 1383.55,1297.57 1385.64,1297.82 1387.73,1297.88 1389.82,1297.77 1391.91,1297.48 1394,1297.01 1396.08,1296.36 1398.17,1295.54 1400.26,1294.54 1402.35,1293.38 1404.44,1292.04 1406.53,1290.54 1408.62,1288.89 1410.71,1287.08 1412.8,1285.13 1414.89,1283.05 1416.97,1280.84 1419.06,1278.53 1421.15,1276.13 1423.24,1273.64 1425.33,1271.1 1427.42,1268.52 1429.51,1265.92 1431.6,1263.32 1433.69,1260.75 1435.77,1258.23 1437.86,1255.79 1439.95,1253.46 1442.04,1251.25 1444.13,1249.2 1446.22,1247.32 1448.31,1245.65 1450.4,1244.21 1452.49,1243.01 1454.58,1242.08 1456.66,1241.42 1458.75,1241.05 1460.84,1240.99 1462.93,1241.22 1465.02,1241.76 1467.11,1242.6 1469.2,1243.73 1471.29,1245.15 1473.38,1246.85 1475.46,1248.8 1477.55,1250.99 1479.64,1253.39 1481.73,1255.99 1483.82,1258.77 1485.91,1261.68 1488,1264.72 1490.09,1267.86 1492.18,1271.06 1494.26,1274.31 1496.35,1277.59 1498.44,1280.86 1500.53,1284.12 1502.62,1287.34 1504.71,1290.51 1506.8,1293.61 1508.89,1296.62 1510.98,1299.55 1513.07,1302.37 1515.15,1305.08 1517.24,1307.68 1519.33,1310.16 1521.42,1312.52 1523.51,1314.76 1525.6,1316.88 1527.69,1318.87 1529.78,1320.75 1531.87,1322.51 1533.95,1324.16 1536.04,1325.7 1538.13,1327.13 1540.22,1328.45 1542.31,1329.68 1544.4,1330.81 1546.49,1331.85 1548.58,1332.81 1550.67,1333.68 1552.76,1334.47 1554.84,1335.19 1556.93,1335.84 1559.02,1336.42 1561.11,1336.94 1563.2,1337.39 1565.29,1337.8 1567.38,1338.15 1569.47,1338.46 1571.56,1338.74 1573.64,1338.97 1575.73,1339.19 1577.82,1339.38 1579.91,1339.55 1582,1339.72 1584.09,1339.89 1586.18,1340.07 1588.27,1340.25 1590.36,1340.46 1592.45,1340.7 1594.53,1340.96 1596.62,1341.27 1598.71,1341.62 1600.8,1342.01 1602.89,1342.46 1604.98,1342.96 1607.07,1343.52 1609.16,1344.14 1611.25,1344.81 1613.33,1345.54 1615.42,1346.32 1617.51,1347.15 1619.6,1348.04 1621.69,1348.96 1623.78,1349.93 1625.87,1350.93 1627.96,1351.96 1630.05,1353.02 1632.13,1354.09 1634.22,1355.18 1636.31,1356.27 1638.4,1357.37 1640.49,1358.46 1642.58,1359.54 1644.67,1360.61 1646.76,1361.67 1648.85,1362.7 1650.94,1363.71 1653.02,1364.69 1655.11,1365.64 1657.2,1366.56 1659.29,1367.44 1661.38,1368.29 1663.47,1369.1 1665.56,1369.87 1667.65,1370.61 1669.74,1371.31 1671.82,1371.97 1673.91,1372.59 1676,1373.17 1678.09,1373.71 1680.18,1374.22 1682.27,1374.69 1684.36,1375.12 1686.45,1375.52 1688.54,1375.88 1690.63,1376.21 1692.71,1376.51 1694.8,1376.77 1696.89,1377.01 1698.98,1377.21 1701.07,1377.38 1703.16,1377.52 1705.25,1377.63 1707.34,1377.72 1709.43,1377.78 1711.51,1377.81 1713.6,1377.82 1715.69,1377.8 1717.78,1377.75 1719.87,1377.69 1721.96,1377.59 1724.05,1377.48 1726.14,1377.35 1728.23,1377.19 1730.31,1377.02 1732.4,1376.82 1734.49,1376.61 1736.58,1376.38 1738.67,1376.14 1740.76,1375.88 1742.85,1375.61 1744.94,1375.34 1747.03,1375.05 1749.12,1374.75 1751.2,1374.45 1753.29,1374.15 1755.38,1373.84 1757.47,1373.54 1759.56,1373.24 1761.65,1372.95 1763.74,1372.66 1765.83,1372.38 1767.92,1372.11 1770,1371.85 1772.09,1371.61 1774.18,1371.38 1776.27,1371.17 1778.36,1370.97 1780.45,1370.79 1782.54,1370.63 1784.63,1370.48 1786.72,1370.35 1788.81,1370.23 1790.89,1370.12 1792.98,1370.03 1795.07,1369.94 1797.16,1369.87 1799.25,1369.79 1801.34,1369.72 1803.43,1369.65 1805.52,1369.58 1807.61,1369.5 1809.69,1369.41 1811.78,1369.32 1813.87,1369.21 1815.96,1369.08 1818.05,1368.94 1820.14,1368.78 1822.23,1368.6 1824.32,1368.39 1826.41,1368.16 1828.5,1367.91 1830.58,1367.63 1832.67,1367.33 1834.76,1366.99 1836.85,1366.63 1838.94,1366.24 1841.03,1365.83 1843.12,1365.38 1845.21,1364.92 1847.3,1364.42 1849.38,1363.9 1851.47,1363.36 1853.56,1362.79 1855.65,1362.2 1857.74,1361.6 1859.83,1360.97 1861.92,1360.33 1864.01,1359.67 1866.1,1359 1868.18,1358.32 1870.27,1357.63 1872.36,1356.94 1874.45,1356.24 1876.54,1355.54 1878.63,1354.85 1880.72,1354.16 1882.81,1353.48 1884.9,1352.81 1886.99,1352.16 1889.07,1351.52 1891.16,1350.91 1893.25,1350.33 1895.34,1349.77 1897.43,1349.25 1899.52,1348.77 1901.61,1348.33 1903.7,1347.93 1905.79,1347.59 1907.87,1347.29 1909.96,1347.04 1912.05,1346.85 1914.14,1346.72 1916.23,1346.65 1918.32,1346.63 1920.41,1346.67 1922.5,1346.78 1924.59,1346.94 1926.68,1347.15 1928.76,1347.42 1930.85,1347.74 1932.94,1348.11 1935.03,1348.52 1937.12,1348.98 1939.21,1349.47 1941.3,1349.99 1943.39,1350.55 1945.48,1351.13 1947.56,1351.72 1949.65,1352.34 1951.74,1352.97 1953.83,1353.6 1955.92,1354.24 1958.01,1354.89 1960.1,1355.53 1962.19,1356.17 1964.28,1356.8 1966.36,1357.42 1968.45,1358.04 1970.54,1358.64 1972.63,1359.23 1974.72,1359.81 1976.81,1360.37 1978.9,1360.91 1980.99,1361.44 1983.08,1361.95 1985.17,1362.43 1987.25,1362.9 1989.34,1363.35 1991.43,1363.77 1993.52,1364.17 1995.61,1364.54 1997.7,1364.89 1999.79,1365.2 2001.88,1365.49 2003.97,1365.75 2006.05,1365.97 2008.14,1366.16 2010.23,1366.32 2012.32,1366.44 2014.41,1366.52 2016.5,1366.56 2018.59,1366.57 2020.68,1366.53 2022.77,1366.46 2024.86,1366.35 2026.94,1366.2 2029.03,1366.01 2031.12,1365.78 2033.21,1365.51 2035.3,1365.22 2037.39,1364.89 2039.48,1364.53 2041.57,1364.14 2043.66,1363.73 2045.74,1363.3 2047.83,1362.85 2049.92,1362.39 2052.01,1361.93 2054.1,1361.46 2056.19,1360.99 2058.28,1360.54 2060.37,1360.09 2062.46,1359.67 2064.55,1359.26 2066.63,1358.89 2068.72,1358.55 2070.81,1358.24 2072.9,1357.98 2074.99,1357.77 2077.08,1357.6 2079.17,1357.48 2081.26,1357.42 2083.35,1357.41 2085.43,1357.45 2087.52,1357.55 2089.61,1357.7 2091.7,1357.9 2093.79,1358.15 2095.88,1358.44 2097.97,1358.77 2100.06,1359.14 2102.15,1359.55 2104.23,1359.98 2106.32,1360.44 2108.41,1360.91 2110.5,1361.4 2112.59,1361.9 2114.68,1362.4 2116.77,1362.91 2118.86,1363.41 2120.95,1363.9 2123.04,1364.39 2125.12,1364.86 2127.21,1365.32 2129.3,1365.76 2131.39,1366.18 2133.48,1366.58 2135.57,1366.97 2137.66,1367.33 2139.75,1367.67 2141.84,1367.98 2143.92,1368.28 2146.01,1368.56 2148.1,1368.82 2150.19,1369.06 2152.28,1369.29 2154.37,1369.5 2156.46,1369.7 2158.55,1369.88 2160.64,1370.06 2162.73,1370.23 2164.81,1370.38 2166.9,1370.53 2168.99,1370.68 2171.08,1370.82 2173.17,1370.95 2175.26,1371.08 2177.35,1371.21 2179.44,1371.33 2181.53,1371.45 2183.61,1371.57 2185.7,1371.69 2187.79,1371.8 2189.88,1371.91 2191.97,1372.02 2194.06,1372.12 2196.15,1372.23 2198.24,1372.33 2200.33,1372.43 2202.42,1372.53 2204.5,1372.62 2206.59,1372.72 2208.68,1372.82 2210.77,1372.92 2212.86,1373.03 2214.95,1373.14 2217.04,1373.25 2219.13,1373.36 2221.22,1373.49 2223.3,1373.62 2225.39,1373.75 2227.48,1373.9 2229.57,1374.05 2231.66,1374.21 2233.75,1374.38 2235.84,1374.55 2237.93,1374.74 2240.02,1374.93 2242.1,1375.13 2244.19,1375.33 2246.28,1375.54 2248.37,1375.75 2250.46,1375.97 2252.55,1376.19 2254.64,1376.41 2256.73,1376.63 2258.82,1376.85 2260.91,1377.07 2262.99,1377.28 2265.08,1377.48 2267.17,1377.69 2269.26,1377.88 2271.35,1378.07 2273.44,1378.25 2275.53,1378.42 2277.62,1378.58 2279.71,1378.73 2281.79,1378.87 2283.88,1379 2285.97,1379.12 2288.06,1379.23 2290.15,1379.33 "/>
<polyline clip-path="url(#clip571)" style="stroke:#ff0000; stroke-linecap:round; stroke-linejoin:round; stroke-width:4; stroke-opacity:1; fill:none" points="203.301,1384.24 205.39,1384.23 207.479,1384.23 209.568,1384.22 211.657,1384.21 213.746,1384.21 215.835,1384.2 217.924,1384.19 220.013,1384.18 222.101,1384.17 224.19,1384.17 226.279,1384.16 228.368,1384.15 230.457,1384.14 232.546,1384.13 234.635,1384.12 236.724,1384.1 238.813,1384.09 240.902,1384.08 242.991,1384.07 245.08,1384.06 247.169,1384.05 249.258,1384.03 251.347,1384.02 253.436,1384.01 255.524,1384 257.613,1383.98 259.702,1383.97 261.791,1383.96 263.88,1383.95 265.969,1383.94 268.058,1383.93 270.147,1383.92 272.236,1383.91 274.325,1383.9 276.414,1383.89 278.503,1383.88 280.592,1383.88 282.681,1383.87 284.77,1383.87 286.859,1383.86 288.947,1383.86 291.036,1383.86 293.125,1383.85 295.214,1383.85 297.303,1383.85 299.392,1383.85 301.481,1383.85 303.57,1383.85 305.659,1383.85 307.748,1383.85 309.837,1383.85 311.926,1383.85 314.015,1383.85 316.104,1383.84 318.193,1383.84 320.282,1383.84 322.371,1383.84 324.459,1383.83 326.548,1383.83 328.637,1383.82 330.726,1383.81 332.815,1383.8 334.904,1383.79 336.993,1383.78 339.082,1383.76 341.171,1383.75 343.26,1383.73 345.349,1383.71 347.438,1383.69 349.527,1383.67 351.616,1383.64 353.705,1383.62 355.794,1383.59 357.882,1383.56 359.971,1383.52 362.06,1383.49 364.149,1383.45 366.238,1383.41 368.327,1383.37 370.416,1383.33 372.505,1383.28 374.594,1383.23 376.683,1383.18 378.772,1383.13 380.861,1383.08 382.95,1383.02 385.039,1382.96 387.128,1382.89 389.217,1382.83 391.305,1382.76 393.394,1382.69 395.483,1382.61 397.572,1382.54 399.661,1382.45 401.75,1382.37 403.839,1382.28 405.928,1382.18 408.017,1382.08 410.106,1381.97 412.195,1381.86 414.284,1381.74 416.373,1381.62 418.462,1381.48 420.551,1381.34 422.64,1381.19 424.728,1381.04 426.817,1380.87 428.906,1380.69 430.995,1380.51 433.084,1380.31 435.173,1380.1 437.262,1379.88 439.351,1379.65 441.44,1379.41 443.529,1379.15 445.618,1378.89 447.707,1378.61 449.796,1378.32 451.885,1378.02 453.974,1377.71 456.063,1377.39 458.152,1377.05 460.24,1376.71 462.329,1376.36 464.418,1376 466.507,1375.64 468.596,1375.27 470.685,1374.9 472.774,1374.52 474.863,1374.14 476.952,1373.75 479.041,1373.37 481.13,1372.99 483.219,1372.61 485.308,1372.23 487.397,1371.85 489.486,1371.48 491.575,1371.12 493.663,1370.76 495.752,1370.4 497.841,1370.06 499.93,1369.71 502.019,1369.38 504.108,1369.05 506.197,1368.72 508.286,1368.4 510.375,1368.09 512.464,1367.78 514.553,1367.48 516.642,1367.18 518.731,1366.88 520.82,1366.59 522.909,1366.3 524.998,1366.02 527.086,1365.74 529.175,1365.47 531.264,1365.2 533.353,1364.94 535.442,1364.68 537.531,1364.43 539.62,1364.19 541.709,1363.96 543.798,1363.73 545.887,1363.51 547.976,1363.31 550.065,1363.1 552.154,1362.91 554.243,1362.72 556.332,1362.54 558.421,1362.36 560.509,1362.18 562.598,1362 564.687,1361.82 566.776,1361.63 568.865,1361.43 570.954,1361.22 573.043,1361 575.132,1360.75 577.221,1360.48 579.31,1360.19 581.399,1359.87 583.488,1359.51 585.577,1359.12 587.666,1358.69 589.755,1358.22 591.844,1357.7 593.932,1357.15 596.021,1356.54 598.11,1355.9 600.199,1355.2 602.288,1354.46 604.377,1353.68 606.466,1352.85 608.555,1351.98 610.644,1351.07 612.733,1350.12 614.822,1349.14 616.911,1348.13 619,1347.09 621.089,1346.03 623.178,1344.95 625.267,1343.85 627.356,1342.73 629.444,1341.61 631.533,1340.48 633.622,1339.34 635.711,1338.19 637.8,1337.04 639.889,1335.89 641.978,1334.73 644.067,1333.56 646.156,1332.38 648.245,1331.19 650.334,1329.97 652.423,1328.73 654.512,1327.45 656.601,1326.12 658.69,1324.75 660.779,1323.31 662.867,1321.81 664.956,1320.22 667.045,1318.53 669.134,1316.75 671.223,1314.85 673.312,1312.83 675.401,1310.68 677.49,1308.38 679.579,1305.93 681.668,1303.32 683.757,1300.55 685.846,1297.62 687.935,1294.5 690.024,1291.22 692.113,1287.76 694.202,1284.12 696.29,1280.32 698.379,1276.35 700.468,1272.22 702.557,1267.94 704.646,1263.53 706.735,1258.98 708.824,1254.33 710.913,1249.58 713.002,1244.75 715.091,1239.87 717.18,1234.94 719.269,1230.01 721.358,1225.08 723.447,1220.18 725.536,1215.33 727.625,1210.56 729.713,1205.9 731.802,1201.35 733.891,1196.95 735.98,1192.7 738.069,1188.64 740.158,1184.76 742.247,1181.09 744.336,1177.63 746.425,1174.38 748.514,1171.35 750.603,1168.54 752.692,1165.94 754.781,1163.54 756.87,1161.33 758.959,1159.3 761.048,1157.44 763.136,1155.71 765.225,1154.12 767.314,1152.63 769.403,1151.22 771.492,1149.88 773.581,1148.58 775.67,1147.31 777.759,1146.05 779.848,1144.77 781.937,1143.48 784.026,1142.15 786.115,1140.79 788.204,1139.37 790.293,1137.9 792.382,1136.37 794.471,1134.78 796.56,1133.13 798.648,1131.43 800.737,1129.67 802.826,1127.86 804.915,1125.99 807.004,1124.09 809.093,1122.13 811.182,1120.13 813.271,1118.09 815.36,1116 817.449,1113.87 819.538,1111.68 821.627,1109.44 823.716,1107.14 825.805,1104.77 827.894,1102.32 829.983,1099.79 832.071,1097.17 834.16,1094.44 836.249,1091.61 838.338,1088.66 840.427,1085.57 842.516,1082.36 844.605,1079 846.694,1075.49 848.783,1071.83 850.872,1068.01 852.961,1064.04 855.05,1059.9 857.139,1055.59 859.228,1051.12 861.317,1046.49 863.406,1041.7 865.494,1036.75 867.583,1031.65 869.672,1026.4 871.761,1021.01 873.85,1015.49 875.939,1009.85 878.028,1004.09 880.117,998.228 882.206,992.28 884.295,986.26 886.384,980.184 888.473,974.071 890.562,967.942 892.651,961.82 894.74,955.73 896.829,949.697 898.917,943.751 901.006,937.92 903.095,932.235 905.184,926.729 907.273,921.432 909.362,916.376 911.451,911.593 913.54,907.11 915.629,902.955 917.718,899.151 919.807,895.72 921.896,892.678 923.985,890.035 926.074,887.798 928.163,885.968 930.252,884.538 932.341,883.497 934.429,882.827 936.518,882.503 938.607,882.495 940.696,882.768 942.785,883.28 944.874,883.987 946.963,884.839 949.052,885.785 951.141,886.77 953.23,887.74 955.319,888.64 957.408,889.416 959.497,890.016 961.586,890.391 963.675,890.496 965.764,890.29 967.852,889.737 969.941,888.808 972.03,887.48 974.119,885.739 976.208,883.574 978.297,880.985 980.386,877.978 982.475,874.566 984.564,870.767 986.653,866.609 988.742,862.123 990.831,857.344 992.92,852.312 995.009,847.071 997.098,841.664 999.187,836.137 1001.28,830.535 1003.36,824.9 1005.45,819.272 1007.54,813.688 1009.63,808.179 1011.72,802.772 1013.81,797.487 1015.9,792.337 1017.99,787.33 1020.08,782.464 1022.16,777.734 1024.25,773.127 1026.34,768.624 1028.43,764.201 1030.52,759.83 1032.61,755.482 1034.7,751.123 1036.79,746.72 1038.88,742.24 1040.97,737.651 1043.05,732.925 1045.14,728.035 1047.23,722.963 1049.32,717.691 1051.41,712.212 1053.5,706.521 1055.59,700.623 1057.68,694.529 1059.77,688.256 1061.85,681.828 1063.94,675.275 1066.03,668.634 1068.12,661.944 1070.21,655.252 1072.3,648.605 1074.39,642.055 1076.48,635.655 1078.57,629.458 1080.66,623.518 1082.74,617.886 1084.83,612.615 1086.92,607.751 1089.01,603.34 1091.1,599.423 1093.19,596.038 1095.28,593.215 1097.37,590.985 1099.46,589.369 1101.54,588.386 1103.63,588.049 1105.72,588.367 1107.81,589.345 1109.9,590.983 1111.99,593.278 1114.08,596.222 1116.17,599.807 1118.26,604.02 1120.34,608.847 1122.43,614.271 1124.52,620.275 1126.61,626.84 1128.7,633.946 1130.79,641.57 1132.88,649.693 1134.97,658.289 1137.06,667.336 1139.15,676.808 1141.23,686.678 1143.32,696.918 1145.41,707.498 1147.5,718.385 1149.59,729.546 1151.68,740.944 1153.77,752.539 1155.86,764.291 1157.95,776.154 1160.03,788.081 1162.12,800.025 1164.21,811.935 1166.3,823.758 1168.39,835.441 1170.48,846.931 1172.57,858.173 1174.66,869.113 1176.75,879.699 1178.84,889.881 1180.92,899.61 1183.01,908.839 1185.1,917.526 1187.19,925.632 1189.28,933.12 1191.37,939.959 1193.46,946.123 1195.55,951.589 1197.64,956.338 1199.72,960.358 1201.81,963.638 1203.9,966.174 1205.99,967.965 1208.08,969.013 1210.17,969.325 1212.26,968.911 1214.35,967.783 1216.44,965.956 1218.53,963.449 1220.61,960.281 1222.7,956.474 1224.79,952.051 1226.88,947.038 1228.97,941.461 1231.06,935.347 1233.15,928.724 1235.24,921.62 1237.33,914.065 1239.41,906.087 1241.5,897.714 1243.59,888.976 1245.68,879.898 1247.77,870.506 1249.86,860.825 1251.95,850.875 1254.04,840.677 1256.13,830.246 1258.21,819.595 1260.3,808.734 1262.39,797.668 1264.48,786.399 1266.57,774.924 1268.66,763.239 1270.75,751.333 1272.84,739.196 1274.93,726.811 1277.02,714.164 1279.1,701.237 1281.19,688.012 1283.28,674.473 1285.37,660.605 1287.46,646.396 1289.55,631.839 1291.64,616.93 1293.73,601.671 1295.82,586.07 1297.9,570.144 1299.99,553.914 1302.08,537.41 1304.17,520.671 1306.26,503.74 1308.35,486.672 1310.44,469.523 1312.53,452.358 1314.62,435.247 1316.71,418.261 1318.79,401.477 1320.88,384.972 1322.97,368.821 1325.06,353.102 1327.15,337.889 1329.24,323.25 1331.33,309.253 1333.42,295.958 1335.51,283.419 1337.59,271.683 1339.68,260.792 1341.77,250.777 1343.86,241.665 1345.95,233.473 1348.04,226.211 1350.13,219.881 1352.22,214.48 1354.31,209.996 1356.39,206.412 1358.48,203.703 1360.57,201.841 1362.66,200.791 1364.75,200.513 1366.84,200.963 1368.93,202.092 1371.02,203.845 1373.11,206.168 1375.2,208.997 1377.28,212.271 1379.37,215.922 1381.46,219.881 1383.55,224.079 1385.64,228.444 1387.73,232.906 1389.82,237.394 1391.91,241.843 1394,246.188 1396.08,250.369 1398.17,254.333 1400.26,258.035 1402.35,261.437 1404.44,264.51 1406.53,267.238 1408.62,269.614 1410.71,271.645 1412.8,273.35 1414.89,274.761 1416.97,275.923 1419.06,276.894 1421.15,277.743 1423.24,278.552 1425.33,279.411 1427.42,280.418 1429.51,281.682 1431.6,283.311 1433.69,285.419 1435.77,288.121 1437.86,291.527 1439.95,295.745 1442.04,300.876 1444.13,307.009 1446.22,314.227 1448.31,322.595 1450.4,332.166 1452.49,342.977 1454.58,355.049 1456.66,368.383 1458.75,382.967 1460.84,398.767 1462.93,415.738 1465.02,433.816 1467.11,452.925 1469.2,472.977 1471.29,493.873 1473.38,515.506 1475.46,537.764 1477.55,560.529 1479.64,583.683 1481.73,607.108 1483.82,630.688 1485.91,654.311 1488,677.87 1490.09,701.265 1492.18,724.404 1494.26,747.204 1496.35,769.589 1498.44,791.495 1500.53,812.866 1502.62,833.657 1504.71,853.829 1506.8,873.356 1508.89,892.215 1510.98,910.396 1513.07,927.89 1515.15,944.699 1517.24,960.826 1519.33,976.281 1521.42,991.077 1523.51,1005.23 1525.6,1018.76 1527.69,1031.68 1529.78,1044.01 1531.87,1055.78 1533.95,1067.01 1536.04,1077.72 1538.13,1087.93 1540.22,1097.66 1542.31,1106.93 1544.4,1115.77 1546.49,1124.2 1548.58,1132.22 1550.67,1139.87 1552.76,1147.15 1554.84,1154.09 1556.93,1160.7 1559.02,1166.99 1561.11,1172.97 1563.2,1178.67 1565.29,1184.08 1567.38,1189.22 1569.47,1194.09 1571.56,1198.71 1573.64,1203.08 1575.73,1207.19 1577.82,1211.06 1579.91,1214.69 1582,1218.07 1584.09,1221.2 1586.18,1224.09 1588.27,1226.72 1590.36,1229.1 1592.45,1231.22 1594.53,1233.08 1596.62,1234.67 1598.71,1235.99 1600.8,1237.05 1602.89,1237.83 1604.98,1238.34 1607.07,1238.57 1609.16,1238.54 1611.25,1238.25 1613.33,1237.7 1615.42,1236.9 1617.51,1235.87 1619.6,1234.62 1621.69,1233.17 1623.78,1231.53 1625.87,1229.73 1627.96,1227.8 1630.05,1225.75 1632.13,1223.62 1634.22,1221.43 1636.31,1219.23 1638.4,1217.04 1640.49,1214.9 1642.58,1212.83 1644.67,1210.88 1646.76,1209.08 1648.85,1207.45 1650.94,1206.03 1653.02,1204.85 1655.11,1203.92 1657.2,1203.26 1659.29,1202.9 1661.38,1202.85 1663.47,1203.11 1665.56,1203.69 1667.65,1204.59 1669.74,1205.8 1671.82,1207.33 1673.91,1209.14 1676,1211.24 1678.09,1213.6 1680.18,1216.21 1682.27,1219.03 1684.36,1222.05 1686.45,1225.24 1688.54,1228.58 1690.63,1232.04 1692.71,1235.6 1694.8,1239.23 1696.89,1242.9 1698.98,1246.6 1701.07,1250.29 1703.16,1253.97 1705.25,1257.61 1707.34,1261.2 1709.43,1264.71 1711.51,1268.14 1713.6,1271.48 1715.69,1274.7 1717.78,1277.81 1719.87,1280.79 1721.96,1283.65 1724.05,1286.37 1726.14,1288.96 1728.23,1291.41 1730.31,1293.72 1732.4,1295.9 1734.49,1297.96 1736.58,1299.88 1738.67,1301.69 1740.76,1303.39 1742.85,1304.99 1744.94,1306.49 1747.03,1307.91 1749.12,1309.26 1751.2,1310.55 1753.29,1311.79 1755.38,1312.99 1757.47,1314.16 1759.56,1315.32 1761.65,1316.47 1763.74,1317.63 1765.83,1318.8 1767.92,1319.99 1770,1321.2 1772.09,1322.45 1774.18,1323.74 1776.27,1325.07 1778.36,1326.44 1780.45,1327.85 1782.54,1329.3 1784.63,1330.79 1786.72,1332.31 1788.81,1333.87 1790.89,1335.46 1792.98,1337.06 1795.07,1338.68 1797.16,1340.31 1799.25,1341.95 1801.34,1343.58 1803.43,1345.2 1805.52,1346.8 1807.61,1348.39 1809.69,1349.95 1811.78,1351.47 1813.87,1352.96 1815.96,1354.4 1818.05,1355.81 1820.14,1357.16 1822.23,1358.46 1824.32,1359.71 1826.41,1360.9 1828.5,1362.04 1830.58,1363.12 1832.67,1364.14 1834.76,1365.11 1836.85,1366.01 1838.94,1366.86 1841.03,1367.65 1843.12,1368.38 1845.21,1369.05 1847.3,1369.66 1849.38,1370.23 1851.47,1370.73 1853.56,1371.18 1855.65,1371.58 1857.74,1371.93 1859.83,1372.23 1861.92,1372.48 1864.01,1372.67 1866.1,1372.82 1868.18,1372.93 1870.27,1372.99 1872.36,1373 1874.45,1372.97 1876.54,1372.9 1878.63,1372.78 1880.72,1372.63 1882.81,1372.43 1884.9,1372.2 1886.99,1371.93 1889.07,1371.62 1891.16,1371.29 1893.25,1370.92 1895.34,1370.51 1897.43,1370.09 1899.52,1369.63 1901.61,1369.15 1903.7,1368.66 1905.79,1368.14 1907.87,1367.61 1909.96,1367.07 1912.05,1366.52 1914.14,1365.96 1916.23,1365.4 1918.32,1364.85 1920.41,1364.3 1922.5,1363.76 1924.59,1363.23 1926.68,1362.71 1928.76,1362.22 1930.85,1361.75 1932.94,1361.3 1935.03,1360.87 1937.12,1360.48 1939.21,1360.11 1941.3,1359.76 1943.39,1359.45 1945.48,1359.17 1947.56,1358.91 1949.65,1358.67 1951.74,1358.46 1953.83,1358.27 1955.92,1358.09 1958.01,1357.93 1960.1,1357.78 1962.19,1357.64 1964.28,1357.5 1966.36,1357.36 1968.45,1357.22 1970.54,1357.07 1972.63,1356.91 1974.72,1356.74 1976.81,1356.55 1978.9,1356.34 1980.99,1356.12 1983.08,1355.87 1985.17,1355.59 1987.25,1355.3 1989.34,1354.98 1991.43,1354.63 1993.52,1354.26 1995.61,1353.87 1997.7,1353.46 1999.79,1353.02 2001.88,1352.57 2003.97,1352.11 2006.05,1351.62 2008.14,1351.13 2010.23,1350.62 2012.32,1350.11 2014.41,1349.59 2016.5,1349.07 2018.59,1348.54 2020.68,1348.02 2022.77,1347.5 2024.86,1346.98 2026.94,1346.46 2029.03,1345.96 2031.12,1345.46 2033.21,1344.98 2035.3,1344.51 2037.39,1344.05 2039.48,1343.61 2041.57,1343.19 2043.66,1342.79 2045.74,1342.41 2047.83,1342.06 2049.92,1341.74 2052.01,1341.46 2054.1,1341.2 2056.19,1340.98 2058.28,1340.81 2060.37,1340.67 2062.46,1340.58 2064.55,1340.54 2066.63,1340.54 2068.72,1340.6 2070.81,1340.71 2072.9,1340.87 2074.99,1341.08 2077.08,1341.34 2079.17,1341.66 2081.26,1342.02 2083.35,1342.43 2085.43,1342.89 2087.52,1343.39 2089.61,1343.92 2091.7,1344.49 2093.79,1345.09 2095.88,1345.71 2097.97,1346.35 2100.06,1347.01 2102.15,1347.67 2104.23,1348.34 2106.32,1349 2108.41,1349.66 2110.5,1350.3 2112.59,1350.93 2114.68,1351.54 2116.77,1352.12 2118.86,1352.67 2120.95,1353.19 2123.04,1353.68 2125.12,1354.12 2127.21,1354.53 2129.3,1354.9 2131.39,1355.22 2133.48,1355.5 2135.57,1355.73 2137.66,1355.92 2139.75,1356.07 2141.84,1356.17 2143.92,1356.23 2146.01,1356.25 2148.1,1356.23 2150.19,1356.16 2152.28,1356.06 2154.37,1355.92 2156.46,1355.74 2158.55,1355.53 2160.64,1355.28 2162.73,1354.99 2164.81,1354.68 2166.9,1354.33 2168.99,1353.95 2171.08,1353.54 2173.17,1353.1 2175.26,1352.64 2177.35,1352.15 2179.44,1351.64 2181.53,1351.11 2183.61,1350.56 2185.7,1350 2187.79,1349.43 2189.88,1348.86 2191.97,1348.28 2194.06,1347.7 2196.15,1347.14 2198.24,1346.59 2200.33,1346.05 2202.42,1345.55 2204.5,1345.07 2206.59,1344.63 2208.68,1344.23 2210.77,1343.88 2212.86,1343.58 2214.95,1343.34 2217.04,1343.16 2219.13,1343.03 2221.22,1342.98 2223.3,1342.98 2225.39,1343.05 2227.48,1343.19 2229.57,1343.39 2231.66,1343.65 2233.75,1343.97 2235.84,1344.34 2237.93,1344.76 2240.02,1345.23 2242.1,1345.74 2244.19,1346.29 2246.28,1346.86 2248.37,1347.46 2250.46,1348.08 2252.55,1348.71 2254.64,1349.35 2256.73,1350 2258.82,1350.65 2260.91,1351.3 2262.99,1351.94 2265.08,1352.58 2267.17,1353.2 2269.26,1353.82 2271.35,1354.42 2273.44,1355.01 2275.53,1355.59 2277.62,1356.15 2279.71,1356.7 2281.79,1357.23 2283.88,1357.75 2285.97,1358.25 2288.06,1358.74 2290.15,1359.21 "/>
<polyline clip-path="url(#clip571)" style="stroke:#008000; stroke-linecap:round; stroke-linejoin:round; stroke-width:6; stroke-opacity:1; fill:none" points="1246.73,2799.12 1246.73,-1328.69 "/>
<path clip-path="url(#clip570)" d="M1452.93 300.469 L2279.02 300.469 L2279.02 93.1086 L1452.93 93.1086  Z" fill="#ffffff" fill-rule="evenodd" fill-opacity="1"/>
<polyline clip-path="url(#clip570)" style="stroke:#000000; stroke-linecap:round; stroke-linejoin:round; stroke-width:4; stroke-opacity:1; fill:none" points="1452.93,300.469 2279.02,300.469 2279.02,93.1086 1452.93,93.1086 1452.93,300.469 "/>
<polyline clip-path="url(#clip570)" style="stroke:#0000ff; stroke-linecap:round; stroke-linejoin:round; stroke-width:4; stroke-opacity:1; fill:none" points="1477.51,144.949 1624.98,144.949 "/>
<path clip-path="url(#clip570)" d="M1662.96 149.196 Q1657.8 149.196 1655.81 150.377 Q1653.82 151.557 1653.82 154.405 Q1653.82 156.673 1655.3 158.016 Q1656.81 159.335 1659.38 159.335 Q1662.92 159.335 1665.05 156.835 Q1667.2 154.312 1667.2 150.145 L1667.2 149.196 L1662.96 149.196 M1671.46 147.437 L1671.46 162.229 L1667.2 162.229 L1667.2 158.293 Q1665.74 160.655 1663.57 161.789 Q1661.39 162.9 1658.24 162.9 Q1654.26 162.9 1651.9 160.678 Q1649.56 158.432 1649.56 154.682 Q1649.56 150.307 1652.48 148.085 Q1655.42 145.863 1661.23 145.863 L1667.2 145.863 L1667.2 145.446 Q1667.2 142.507 1665.26 140.909 Q1663.33 139.289 1659.84 139.289 Q1657.62 139.289 1655.51 139.821 Q1653.4 140.354 1651.46 141.419 L1651.46 137.483 Q1653.8 136.581 1656 136.141 Q1658.2 135.678 1660.28 135.678 Q1665.9 135.678 1668.68 138.594 Q1671.46 141.511 1671.46 147.437 Z" fill="#000000" fill-rule="nonzero" fill-opacity="1" /><path clip-path="url(#clip570)" d="M1684.45 128.942 L1684.45 136.303 L1693.22 136.303 L1693.22 139.613 L1684.45 139.613 L1684.45 153.687 Q1684.45 156.858 1685.3 157.761 Q1686.18 158.664 1688.84 158.664 L1693.22 158.664 L1693.22 162.229 L1688.84 162.229 Q1683.91 162.229 1682.04 160.4 Q1680.16 158.548 1680.16 153.687 L1680.16 139.613 L1677.04 139.613 L1677.04 136.303 L1680.16 136.303 L1680.16 128.942 L1684.45 128.942 Z" fill="#000000" fill-rule="nonzero" fill-opacity="1" /><path clip-path="url(#clip570)" d="M1708.87 139.289 Q1705.44 139.289 1703.45 141.974 Q1701.46 144.636 1701.46 149.289 Q1701.46 153.942 1703.43 156.627 Q1705.42 159.289 1708.87 159.289 Q1712.27 159.289 1714.26 156.604 Q1716.25 153.918 1716.25 149.289 Q1716.25 144.682 1714.26 141.997 Q1712.27 139.289 1708.87 139.289 M1708.87 135.678 Q1714.42 135.678 1717.59 139.289 Q1720.76 142.9 1720.76 149.289 Q1720.76 155.655 1717.59 159.289 Q1714.42 162.9 1708.87 162.9 Q1703.29 162.9 1700.12 159.289 Q1696.97 155.655 1696.97 149.289 Q1696.97 142.9 1700.12 139.289 Q1703.29 135.678 1708.87 135.678 Z" fill="#000000" fill-rule="nonzero" fill-opacity="1" /><path clip-path="url(#clip570)" d="M1748.01 141.28 Q1749.61 138.409 1751.83 137.044 Q1754.05 135.678 1757.06 135.678 Q1761.11 135.678 1763.31 138.525 Q1765.51 141.349 1765.51 146.581 L1765.51 162.229 L1761.23 162.229 L1761.23 146.719 Q1761.23 142.993 1759.91 141.187 Q1758.59 139.382 1755.88 139.382 Q1752.57 139.382 1750.65 141.581 Q1748.73 143.78 1748.73 147.576 L1748.73 162.229 L1744.44 162.229 L1744.44 146.719 Q1744.44 142.969 1743.13 141.187 Q1741.81 139.382 1739.05 139.382 Q1735.79 139.382 1733.87 141.604 Q1731.94 143.803 1731.94 147.576 L1731.94 162.229 L1727.66 162.229 L1727.66 136.303 L1731.94 136.303 L1731.94 140.331 Q1733.4 137.946 1735.44 136.812 Q1737.48 135.678 1740.28 135.678 Q1743.1 135.678 1745.07 137.113 Q1747.06 138.548 1748.01 141.28 Z" fill="#000000" fill-rule="nonzero" fill-opacity="1" /><path clip-path="url(#clip570)" d="M1790.49 158.293 L1798.13 158.293 L1798.13 131.928 L1789.81 133.595 L1789.81 129.335 L1798.08 127.669 L1802.75 127.669 L1802.75 158.293 L1810.39 158.293 L1810.39 162.229 L1790.49 162.229 L1790.49 158.293 Z" fill="#000000" fill-rule="nonzero" fill-opacity="1" /><path clip-path="url(#clip570)" d="M1844.54 126.257 Q1841.44 131.581 1839.93 136.789 Q1838.43 141.997 1838.43 147.344 Q1838.43 152.692 1839.93 157.946 Q1841.46 163.178 1844.54 168.479 L1840.83 168.479 Q1837.36 163.039 1835.62 157.784 Q1833.91 152.53 1833.91 147.344 Q1833.91 142.182 1835.62 136.951 Q1837.34 131.72 1840.83 126.257 L1844.54 126.257 Z" fill="#000000" fill-rule="nonzero" fill-opacity="1" /><path clip-path="url(#clip570)" d="M1852.99 127.669 L1872.85 127.669 L1872.85 131.604 L1857.66 131.604 L1857.66 141.789 L1871.37 141.789 L1871.37 145.724 L1857.66 145.724 L1857.66 162.229 L1852.99 162.229 L1852.99 127.669 Z" fill="#000000" fill-rule="nonzero" fill-opacity="1" /><path clip-path="url(#clip570)" d="M1899.65 148.201 L1899.65 150.284 L1880.07 150.284 Q1880.35 154.682 1882.71 156.997 Q1885.09 159.289 1889.33 159.289 Q1891.78 159.289 1894.07 158.687 Q1896.39 158.085 1898.66 156.881 L1898.66 160.909 Q1896.37 161.881 1893.96 162.391 Q1891.55 162.9 1889.07 162.9 Q1882.87 162.9 1879.24 159.289 Q1875.62 155.678 1875.62 149.52 Q1875.62 143.155 1879.05 139.428 Q1882.5 135.678 1888.33 135.678 Q1893.56 135.678 1896.6 139.057 Q1899.65 142.414 1899.65 148.201 M1895.39 146.951 Q1895.35 143.456 1893.43 141.372 Q1891.53 139.289 1888.38 139.289 Q1884.81 139.289 1882.66 141.303 Q1880.53 143.317 1880.21 146.974 L1895.39 146.951 Z" fill="#000000" fill-rule="nonzero" fill-opacity="1" /><path clip-path="url(#clip570)" d="M1905.97 126.257 L1909.68 126.257 Q1913.15 131.72 1914.86 136.951 Q1916.6 142.182 1916.6 147.344 Q1916.6 152.53 1914.86 157.784 Q1913.15 163.039 1909.68 168.479 L1905.97 168.479 Q1909.05 163.178 1910.56 157.946 Q1912.08 152.692 1912.08 147.344 Q1912.08 141.997 1910.56 136.789 Q1909.05 131.581 1905.97 126.257 Z" fill="#000000" fill-rule="nonzero" fill-opacity="1" /><path clip-path="url(#clip570)" d="M1954.98 143.594 Q1958.33 144.312 1960.21 146.581 Q1962.11 148.849 1962.11 152.182 Q1962.11 157.298 1958.59 160.099 Q1955.07 162.9 1948.59 162.9 Q1946.41 162.9 1944.1 162.46 Q1941.8 162.043 1939.35 161.187 L1939.35 156.673 Q1941.3 157.807 1943.61 158.386 Q1945.93 158.965 1948.45 158.965 Q1952.85 158.965 1955.14 157.229 Q1957.45 155.493 1957.45 152.182 Q1957.45 149.127 1955.3 147.414 Q1953.17 145.678 1949.35 145.678 L1945.32 145.678 L1945.32 141.835 L1949.54 141.835 Q1952.99 141.835 1954.81 140.469 Q1956.64 139.081 1956.64 136.488 Q1956.64 133.826 1954.74 132.414 Q1952.87 130.979 1949.35 130.979 Q1947.43 130.979 1945.23 131.395 Q1943.03 131.812 1940.39 132.692 L1940.39 128.525 Q1943.05 127.784 1945.37 127.414 Q1947.71 127.044 1949.77 127.044 Q1955.09 127.044 1958.19 129.474 Q1961.3 131.882 1961.3 136.002 Q1961.3 138.872 1959.65 140.863 Q1958.01 142.831 1954.98 143.594 Z" fill="#000000" fill-rule="nonzero" fill-opacity="1" /><path clip-path="url(#clip570)" d="M1975.23 131.511 L1975.23 158.386 L1980.88 158.386 Q1988.03 158.386 1991.34 155.145 Q1994.67 151.905 1994.67 144.914 Q1994.67 137.969 1991.34 134.752 Q1988.03 131.511 1980.88 131.511 L1975.23 131.511 M1970.55 127.669 L1980.16 127.669 Q1990.21 127.669 1994.91 131.858 Q1999.61 136.025 1999.61 144.914 Q1999.61 153.849 1994.88 158.039 Q1990.16 162.229 1980.16 162.229 L1970.55 162.229 L1970.55 127.669 Z" fill="#000000" fill-rule="nonzero" fill-opacity="1" /><path clip-path="url(#clip570)" d="M2021.5 151.997 L2021.5 136.303 L2025.76 136.303 L2025.76 151.835 Q2025.76 155.516 2027.2 157.368 Q2028.63 159.196 2031.5 159.196 Q2034.95 159.196 2036.94 156.997 Q2038.96 154.798 2038.96 151.002 L2038.96 136.303 L2043.22 136.303 L2043.22 162.229 L2038.96 162.229 L2038.96 158.247 Q2037.41 160.608 2035.35 161.766 Q2033.31 162.9 2030.6 162.9 Q2026.13 162.9 2023.82 160.122 Q2021.5 157.344 2021.5 151.997 M2032.22 135.678 L2032.22 135.678 Z" fill="#000000" fill-rule="nonzero" fill-opacity="1" /><path clip-path="url(#clip570)" d="M2056.11 158.34 L2056.11 172.09 L2051.83 172.09 L2051.83 136.303 L2056.11 136.303 L2056.11 140.238 Q2057.45 137.923 2059.49 136.812 Q2061.55 135.678 2064.4 135.678 Q2069.12 135.678 2072.06 139.428 Q2075.02 143.178 2075.02 149.289 Q2075.02 155.4 2072.06 159.15 Q2069.12 162.9 2064.4 162.9 Q2061.55 162.9 2059.49 161.789 Q2057.45 160.655 2056.11 158.34 M2070.6 149.289 Q2070.6 144.59 2068.66 141.928 Q2066.73 139.243 2063.36 139.243 Q2059.98 139.243 2058.03 141.928 Q2056.11 144.59 2056.11 149.289 Q2056.11 153.988 2058.03 156.673 Q2059.98 159.335 2063.36 159.335 Q2066.73 159.335 2068.66 156.673 Q2070.6 153.988 2070.6 149.289 Z" fill="#000000" fill-rule="nonzero" fill-opacity="1" /><path clip-path="url(#clip570)" d="M2113.68 137.067 L2113.68 141.094 Q2111.87 140.169 2109.93 139.706 Q2107.98 139.243 2105.9 139.243 Q2102.73 139.243 2101.13 140.215 Q2099.56 141.187 2099.56 143.131 Q2099.56 144.613 2100.69 145.469 Q2101.83 146.303 2105.25 147.067 L2106.71 147.391 Q2111.25 148.363 2113.15 150.145 Q2115.07 151.905 2115.07 155.076 Q2115.07 158.687 2112.2 160.793 Q2109.35 162.9 2104.35 162.9 Q2102.27 162.9 2100 162.483 Q2097.75 162.09 2095.25 161.28 L2095.25 156.881 Q2097.61 158.108 2099.91 158.733 Q2102.2 159.335 2104.44 159.335 Q2107.45 159.335 2109.07 158.317 Q2110.69 157.275 2110.69 155.4 Q2110.69 153.664 2109.51 152.738 Q2108.35 151.812 2104.4 150.956 L2102.92 150.608 Q2098.96 149.775 2097.2 148.062 Q2095.44 146.326 2095.44 143.317 Q2095.44 139.659 2098.03 137.669 Q2100.62 135.678 2105.39 135.678 Q2107.75 135.678 2109.84 136.025 Q2111.92 136.372 2113.68 137.067 Z" fill="#000000" fill-rule="nonzero" fill-opacity="1" /><path clip-path="url(#clip570)" d="M2125.97 158.34 L2125.97 172.09 L2121.69 172.09 L2121.69 136.303 L2125.97 136.303 L2125.97 140.238 Q2127.31 137.923 2129.35 136.812 Q2131.41 135.678 2134.26 135.678 Q2138.98 135.678 2141.92 139.428 Q2144.88 143.178 2144.88 149.289 Q2144.88 155.4 2141.92 159.15 Q2138.98 162.9 2134.26 162.9 Q2131.41 162.9 2129.35 161.789 Q2127.31 160.655 2125.97 158.34 M2140.46 149.289 Q2140.46 144.59 2138.52 141.928 Q2136.6 139.243 2133.22 139.243 Q2129.84 139.243 2127.89 141.928 Q2125.97 144.59 2125.97 149.289 Q2125.97 153.988 2127.89 156.673 Q2129.84 159.335 2133.22 159.335 Q2136.6 159.335 2138.52 156.673 Q2140.46 153.988 2140.46 149.289 Z" fill="#000000" fill-rule="nonzero" fill-opacity="1" /><path clip-path="url(#clip570)" d="M2151.94 136.303 L2156.2 136.303 L2156.2 162.229 L2151.94 162.229 L2151.94 136.303 M2151.94 126.21 L2156.2 126.21 L2156.2 131.604 L2151.94 131.604 L2151.94 126.21 Z" fill="#000000" fill-rule="nonzero" fill-opacity="1" /><path clip-path="url(#clip570)" d="M2186.66 146.581 L2186.66 162.229 L2182.41 162.229 L2182.41 146.719 Q2182.41 143.039 2180.97 141.21 Q2179.54 139.382 2176.66 139.382 Q2173.22 139.382 2171.22 141.581 Q2169.23 143.78 2169.23 147.576 L2169.23 162.229 L2164.95 162.229 L2164.95 136.303 L2169.23 136.303 L2169.23 140.331 Q2170.76 137.993 2172.82 136.835 Q2174.91 135.678 2177.61 135.678 Q2182.08 135.678 2184.37 138.456 Q2186.66 141.21 2186.66 146.581 Z" fill="#000000" fill-rule="nonzero" fill-opacity="1" /><polyline clip-path="url(#clip570)" style="stroke:#ff0000; stroke-linecap:round; stroke-linejoin:round; stroke-width:4; stroke-opacity:1; fill:none" points="1477.51,196.789 1624.98,196.789 "/>
<path clip-path="url(#clip570)" d="M1662.96 201.036 Q1657.8 201.036 1655.81 202.217 Q1653.82 203.397 1653.82 206.245 Q1653.82 208.513 1655.3 209.856 Q1656.81 211.175 1659.38 211.175 Q1662.92 211.175 1665.05 208.675 Q1667.2 206.152 1667.2 201.985 L1667.2 201.036 L1662.96 201.036 M1671.46 199.277 L1671.46 214.069 L1667.2 214.069 L1667.2 210.133 Q1665.74 212.495 1663.57 213.629 Q1661.39 214.74 1658.24 214.74 Q1654.26 214.74 1651.9 212.518 Q1649.56 210.272 1649.56 206.522 Q1649.56 202.147 1652.48 199.925 Q1655.42 197.703 1661.23 197.703 L1667.2 197.703 L1667.2 197.286 Q1667.2 194.347 1665.26 192.749 Q1663.33 191.129 1659.84 191.129 Q1657.62 191.129 1655.51 191.661 Q1653.4 192.194 1651.46 193.259 L1651.46 189.323 Q1653.8 188.421 1656 187.981 Q1658.2 187.518 1660.28 187.518 Q1665.9 187.518 1668.68 190.434 Q1671.46 193.351 1671.46 199.277 Z" fill="#000000" fill-rule="nonzero" fill-opacity="1" /><path clip-path="url(#clip570)" d="M1684.45 180.782 L1684.45 188.143 L1693.22 188.143 L1693.22 191.453 L1684.45 191.453 L1684.45 205.527 Q1684.45 208.698 1685.3 209.601 Q1686.18 210.504 1688.84 210.504 L1693.22 210.504 L1693.22 214.069 L1688.84 214.069 Q1683.91 214.069 1682.04 212.24 Q1680.16 210.388 1680.16 205.527 L1680.16 191.453 L1677.04 191.453 L1677.04 188.143 L1680.16 188.143 L1680.16 180.782 L1684.45 180.782 Z" fill="#000000" fill-rule="nonzero" fill-opacity="1" /><path clip-path="url(#clip570)" d="M1708.87 191.129 Q1705.44 191.129 1703.45 193.814 Q1701.46 196.476 1701.46 201.129 Q1701.46 205.782 1703.43 208.467 Q1705.42 211.129 1708.87 211.129 Q1712.27 211.129 1714.26 208.444 Q1716.25 205.758 1716.25 201.129 Q1716.25 196.522 1714.26 193.837 Q1712.27 191.129 1708.87 191.129 M1708.87 187.518 Q1714.42 187.518 1717.59 191.129 Q1720.76 194.74 1720.76 201.129 Q1720.76 207.495 1717.59 211.129 Q1714.42 214.74 1708.87 214.74 Q1703.29 214.74 1700.12 211.129 Q1696.97 207.495 1696.97 201.129 Q1696.97 194.74 1700.12 191.129 Q1703.29 187.518 1708.87 187.518 Z" fill="#000000" fill-rule="nonzero" fill-opacity="1" /><path clip-path="url(#clip570)" d="M1748.01 193.12 Q1749.61 190.249 1751.83 188.884 Q1754.05 187.518 1757.06 187.518 Q1761.11 187.518 1763.31 190.365 Q1765.51 193.189 1765.51 198.421 L1765.51 214.069 L1761.23 214.069 L1761.23 198.559 Q1761.23 194.833 1759.91 193.027 Q1758.59 191.222 1755.88 191.222 Q1752.57 191.222 1750.65 193.421 Q1748.73 195.62 1748.73 199.416 L1748.73 214.069 L1744.44 214.069 L1744.44 198.559 Q1744.44 194.809 1743.13 193.027 Q1741.81 191.222 1739.05 191.222 Q1735.79 191.222 1733.87 193.444 Q1731.94 195.643 1731.94 199.416 L1731.94 214.069 L1727.66 214.069 L1727.66 188.143 L1731.94 188.143 L1731.94 192.171 Q1733.4 189.786 1735.44 188.652 Q1737.48 187.518 1740.28 187.518 Q1743.1 187.518 1745.07 188.953 Q1747.06 190.388 1748.01 193.12 Z" fill="#000000" fill-rule="nonzero" fill-opacity="1" /><path clip-path="url(#clip570)" d="M1790.49 210.133 L1798.13 210.133 L1798.13 183.768 L1789.81 185.435 L1789.81 181.175 L1798.08 179.509 L1802.75 179.509 L1802.75 210.133 L1810.39 210.133 L1810.39 214.069 L1790.49 214.069 L1790.49 210.133 Z" fill="#000000" fill-rule="nonzero" fill-opacity="1" /><path clip-path="url(#clip570)" d="M1844.54 178.097 Q1841.44 183.421 1839.93 188.629 Q1838.43 193.837 1838.43 199.184 Q1838.43 204.532 1839.93 209.786 Q1841.46 215.018 1844.54 220.319 L1840.83 220.319 Q1837.36 214.879 1835.62 209.624 Q1833.91 204.37 1833.91 199.184 Q1833.91 194.022 1835.62 188.791 Q1837.34 183.56 1840.83 178.097 L1844.54 178.097 Z" fill="#000000" fill-rule="nonzero" fill-opacity="1" /><path clip-path="url(#clip570)" d="M1852.99 179.509 L1872.85 179.509 L1872.85 183.444 L1857.66 183.444 L1857.66 193.629 L1871.37 193.629 L1871.37 197.564 L1857.66 197.564 L1857.66 214.069 L1852.99 214.069 L1852.99 179.509 Z" fill="#000000" fill-rule="nonzero" fill-opacity="1" /><path clip-path="url(#clip570)" d="M1899.65 200.041 L1899.65 202.124 L1880.07 202.124 Q1880.35 206.522 1882.71 208.837 Q1885.09 211.129 1889.33 211.129 Q1891.78 211.129 1894.07 210.527 Q1896.39 209.925 1898.66 208.721 L1898.66 212.749 Q1896.37 213.721 1893.96 214.231 Q1891.55 214.74 1889.07 214.74 Q1882.87 214.74 1879.24 211.129 Q1875.62 207.518 1875.62 201.36 Q1875.62 194.995 1879.05 191.268 Q1882.5 187.518 1888.33 187.518 Q1893.56 187.518 1896.6 190.897 Q1899.65 194.254 1899.65 200.041 M1895.39 198.791 Q1895.35 195.296 1893.43 193.212 Q1891.53 191.129 1888.38 191.129 Q1884.81 191.129 1882.66 193.143 Q1880.53 195.157 1880.21 198.814 L1895.39 198.791 Z" fill="#000000" fill-rule="nonzero" fill-opacity="1" /><path clip-path="url(#clip570)" d="M1905.97 178.097 L1909.68 178.097 Q1913.15 183.56 1914.86 188.791 Q1916.6 194.022 1916.6 199.184 Q1916.6 204.37 1914.86 209.624 Q1913.15 214.879 1909.68 220.319 L1905.97 220.319 Q1909.05 215.018 1910.56 209.786 Q1912.08 204.532 1912.08 199.184 Q1912.08 193.837 1910.56 188.629 Q1909.05 183.421 1905.97 178.097 Z" fill="#000000" fill-rule="nonzero" fill-opacity="1" /><path clip-path="url(#clip570)" d="M1954.98 195.434 Q1958.33 196.152 1960.21 198.421 Q1962.11 200.689 1962.11 204.022 Q1962.11 209.138 1958.59 211.939 Q1955.07 214.74 1948.59 214.74 Q1946.41 214.74 1944.1 214.3 Q1941.8 213.883 1939.35 213.027 L1939.35 208.513 Q1941.3 209.647 1943.61 210.226 Q1945.93 210.805 1948.45 210.805 Q1952.85 210.805 1955.14 209.069 Q1957.45 207.333 1957.45 204.022 Q1957.45 200.967 1955.3 199.254 Q1953.17 197.518 1949.35 197.518 L1945.32 197.518 L1945.32 193.675 L1949.54 193.675 Q1952.99 193.675 1954.81 192.309 Q1956.64 190.921 1956.64 188.328 Q1956.64 185.666 1954.74 184.254 Q1952.87 182.819 1949.35 182.819 Q1947.43 182.819 1945.23 183.235 Q1943.03 183.652 1940.39 184.532 L1940.39 180.365 Q1943.05 179.624 1945.37 179.254 Q1947.71 178.884 1949.77 178.884 Q1955.09 178.884 1958.19 181.314 Q1961.3 183.722 1961.3 187.842 Q1961.3 190.712 1959.65 192.703 Q1958.01 194.671 1954.98 195.434 Z" fill="#000000" fill-rule="nonzero" fill-opacity="1" /><path clip-path="url(#clip570)" d="M1975.23 183.351 L1975.23 210.226 L1980.88 210.226 Q1988.03 210.226 1991.34 206.985 Q1994.67 203.745 1994.67 196.754 Q1994.67 189.809 1991.34 186.592 Q1988.03 183.351 1980.88 183.351 L1975.23 183.351 M1970.55 179.509 L1980.16 179.509 Q1990.21 179.509 1994.91 183.698 Q1999.61 187.865 1999.61 196.754 Q1999.61 205.689 1994.88 209.879 Q1990.16 214.069 1980.16 214.069 L1970.55 214.069 L1970.55 179.509 Z" fill="#000000" fill-rule="nonzero" fill-opacity="1" /><path clip-path="url(#clip570)" d="M2039 192.078 L2039 178.05 L2043.26 178.05 L2043.26 214.069 L2039 214.069 L2039 210.18 Q2037.66 212.495 2035.6 213.629 Q2033.56 214.74 2030.69 214.74 Q2025.99 214.74 2023.03 210.99 Q2020.09 207.24 2020.09 201.129 Q2020.09 195.018 2023.03 191.268 Q2025.99 187.518 2030.69 187.518 Q2033.56 187.518 2035.6 188.652 Q2037.66 189.763 2039 192.078 M2024.49 201.129 Q2024.49 205.828 2026.41 208.513 Q2028.36 211.175 2031.73 211.175 Q2035.11 211.175 2037.06 208.513 Q2039 205.828 2039 201.129 Q2039 196.43 2037.06 193.768 Q2035.11 191.083 2031.73 191.083 Q2028.36 191.083 2026.41 193.768 Q2024.49 196.43 2024.49 201.129 Z" fill="#000000" fill-rule="nonzero" fill-opacity="1" /><path clip-path="url(#clip570)" d="M2062.08 191.129 Q2058.66 191.129 2056.67 193.814 Q2054.67 196.476 2054.67 201.129 Q2054.67 205.782 2056.64 208.467 Q2058.63 211.129 2062.08 211.129 Q2065.48 211.129 2067.48 208.444 Q2069.47 205.758 2069.47 201.129 Q2069.47 196.522 2067.48 193.837 Q2065.48 191.129 2062.08 191.129 M2062.08 187.518 Q2067.64 187.518 2070.81 191.129 Q2073.98 194.74 2073.98 201.129 Q2073.98 207.495 2070.81 211.129 Q2067.64 214.74 2062.08 214.74 Q2056.5 214.74 2053.33 211.129 Q2050.18 207.495 2050.18 201.129 Q2050.18 194.74 2053.33 191.129 Q2056.5 187.518 2062.08 187.518 Z" fill="#000000" fill-rule="nonzero" fill-opacity="1" /><path clip-path="url(#clip570)" d="M2078.56 188.143 L2082.82 188.143 L2088.15 208.374 L2093.45 188.143 L2098.47 188.143 L2103.79 208.374 L2109.1 188.143 L2113.35 188.143 L2106.57 214.069 L2101.55 214.069 L2095.97 192.819 L2090.37 214.069 L2085.35 214.069 L2078.56 188.143 Z" fill="#000000" fill-rule="nonzero" fill-opacity="1" /><path clip-path="url(#clip570)" d="M2141.36 198.421 L2141.36 214.069 L2137.1 214.069 L2137.1 198.559 Q2137.1 194.879 2135.67 193.05 Q2134.23 191.222 2131.36 191.222 Q2127.92 191.222 2125.92 193.421 Q2123.93 195.62 2123.93 199.416 L2123.93 214.069 L2119.65 214.069 L2119.65 188.143 L2123.93 188.143 L2123.93 192.171 Q2125.46 189.833 2127.52 188.675 Q2129.6 187.518 2132.31 187.518 Q2136.78 187.518 2139.07 190.296 Q2141.36 193.05 2141.36 198.421 Z" fill="#000000" fill-rule="nonzero" fill-opacity="1" /><path clip-path="url(#clip570)" d="M2181.46 188.907 L2181.46 192.934 Q2179.65 192.009 2177.71 191.546 Q2175.76 191.083 2173.68 191.083 Q2170.51 191.083 2168.91 192.055 Q2167.34 193.027 2167.34 194.971 Q2167.34 196.453 2168.47 197.309 Q2169.6 198.143 2173.03 198.907 L2174.49 199.231 Q2179.03 200.203 2180.92 201.985 Q2182.85 203.745 2182.85 206.916 Q2182.85 210.527 2179.97 212.633 Q2177.13 214.74 2172.13 214.74 Q2170.04 214.74 2167.78 214.323 Q2165.53 213.93 2163.03 213.12 L2163.03 208.721 Q2165.39 209.948 2167.68 210.573 Q2169.97 211.175 2172.22 211.175 Q2175.23 211.175 2176.85 210.157 Q2178.47 209.115 2178.47 207.24 Q2178.47 205.504 2177.29 204.578 Q2176.13 203.652 2172.17 202.796 L2170.69 202.448 Q2166.73 201.615 2164.97 199.902 Q2163.22 198.166 2163.22 195.157 Q2163.22 191.499 2165.81 189.509 Q2168.4 187.518 2173.17 187.518 Q2175.53 187.518 2177.61 187.865 Q2179.7 188.212 2181.46 188.907 Z" fill="#000000" fill-rule="nonzero" fill-opacity="1" /><path clip-path="url(#clip570)" d="M2193.75 210.18 L2193.75 223.93 L2189.47 223.93 L2189.47 188.143 L2193.75 188.143 L2193.75 192.078 Q2195.09 189.763 2197.13 188.652 Q2199.19 187.518 2202.03 187.518 Q2206.76 187.518 2209.7 191.268 Q2212.66 195.018 2212.66 201.129 Q2212.66 207.24 2209.7 210.99 Q2206.76 214.74 2202.03 214.74 Q2199.19 214.74 2197.13 213.629 Q2195.09 212.495 2193.75 210.18 M2208.24 201.129 Q2208.24 196.43 2206.29 193.768 Q2204.37 191.083 2200.99 191.083 Q2197.61 191.083 2195.67 193.768 Q2193.75 196.43 2193.75 201.129 Q2193.75 205.828 2195.67 208.513 Q2197.61 211.175 2200.99 211.175 Q2204.37 211.175 2206.29 208.513 Q2208.24 205.828 2208.24 201.129 Z" fill="#000000" fill-rule="nonzero" fill-opacity="1" /><path clip-path="url(#clip570)" d="M2219.72 188.143 L2223.98 188.143 L2223.98 214.069 L2219.72 214.069 L2219.72 188.143 M2219.72 178.05 L2223.98 178.05 L2223.98 183.444 L2219.72 183.444 L2219.72 178.05 Z" fill="#000000" fill-rule="nonzero" fill-opacity="1" /><path clip-path="url(#clip570)" d="M2254.44 198.421 L2254.44 214.069 L2250.18 214.069 L2250.18 198.559 Q2250.18 194.879 2248.75 193.05 Q2247.31 191.222 2244.44 191.222 Q2240.99 191.222 2239 193.421 Q2237.01 195.62 2237.01 199.416 L2237.01 214.069 L2232.73 214.069 L2232.73 188.143 L2237.01 188.143 L2237.01 192.171 Q2238.54 189.833 2240.6 188.675 Q2242.68 187.518 2245.39 187.518 Q2249.86 187.518 2252.15 190.296 Q2254.44 193.05 2254.44 198.421 Z" fill="#000000" fill-rule="nonzero" fill-opacity="1" /><polyline clip-path="url(#clip570)" style="stroke:#008000; stroke-linecap:round; stroke-linejoin:round; stroke-width:6; stroke-opacity:1; fill:none" points="1477.51,248.629 1624.98,248.629 "/>
<path clip-path="url(#clip570)" d="M1655.63 251.927 Q1653.03 251.372 1651.64 249.867 Q1650.26 248.386 1650.26 246.233 Q1650.26 242.969 1652.89 241.14 Q1655.51 239.335 1660.05 239.335 Q1661.81 239.335 1663.77 239.612 Q1665.74 239.89 1668.01 240.446 L1668.01 244.312 Q1665.76 243.64 1663.91 243.339 Q1662.04 243.038 1660.39 243.038 Q1657.64 243.038 1656.04 244.103 Q1654.42 245.168 1654.42 246.649 Q1654.42 248.27 1656 249.311 Q1657.55 250.33 1660.23 250.33 L1663.82 250.33 L1663.82 253.848 L1660.39 253.848 Q1657.22 253.848 1655.56 255.029 Q1653.75 256.325 1653.75 258.362 Q1653.75 260.446 1655.7 261.742 Q1657.66 263.038 1661.16 263.038 Q1663.31 263.038 1665.28 262.622 Q1667.25 262.182 1668.89 261.325 L1668.89 265.284 Q1666.81 265.932 1664.86 266.256 Q1662.89 266.58 1661.04 266.58 Q1655.53 266.58 1652.55 264.473 Q1649.56 262.367 1649.56 258.362 Q1649.56 255.862 1651.16 254.173 Q1652.76 252.483 1655.63 251.927 Z" fill="#000000" fill-rule="nonzero" fill-opacity="1" /><path clip-path="url(#clip570)" d="M1676.76 231.349 L1696.62 231.349 L1696.62 235.284 L1681.44 235.284 L1681.44 245.469 L1695.14 245.469 L1695.14 249.404 L1681.44 249.404 L1681.44 265.909 L1676.76 265.909 L1676.76 231.349 Z" fill="#000000" fill-rule="nonzero" fill-opacity="1" /></svg>
