<?xml version="1.0" encoding="utf-8"?>
<svg xmlns="http://www.w3.org/2000/svg" xmlns:xlink="http://www.w3.org/1999/xlink" width="600" height="400" viewBox="0 0 2400 1600">
<defs>
  <clipPath id="clip220">
    <rect x="0" y="0" width="2400" height="1600"/>
  </clipPath>
</defs>
<path clip-path="url(#clip220)" d="M0 1600 L2400 1600 L2400 0 L0 0  Z" fill="#ffffff" fill-rule="evenodd" fill-opacity="1"/>
<defs>
  <clipPath id="clip221">
    <rect x="480" y="0" width="1681" height="1600"/>
  </clipPath>
</defs>
<path clip-path="url(#clip220)" d="M189.496 1486.45 L2352.76 1486.45 L2352.76 47.2441 L189.496 47.2441  Z" fill="#ffffff" fill-rule="evenodd" fill-opacity="1"/>
<defs>
  <clipPath id="clip222">
    <rect x="189" y="47" width="2164" height="1440"/>
  </clipPath>
</defs>
<polyline clip-path="url(#clip222)" style="stroke:#000000; stroke-linecap:round; stroke-linejoin:round; stroke-width:2; stroke-opacity:0.1; fill:none" points="250.72,1486.45 250.72,47.2441 "/>
<polyline clip-path="url(#clip222)" style="stroke:#000000; stroke-linecap:round; stroke-linejoin:round; stroke-width:2; stroke-opacity:0.1; fill:none" points="658.883,1486.45 658.883,47.2441 "/>
<polyline clip-path="url(#clip222)" style="stroke:#000000; stroke-linecap:round; stroke-linejoin:round; stroke-width:2; stroke-opacity:0.1; fill:none" points="1067.04,1486.45 1067.04,47.2441 "/>
<polyline clip-path="url(#clip222)" style="stroke:#000000; stroke-linecap:round; stroke-linejoin:round; stroke-width:2; stroke-opacity:0.1; fill:none" points="1475.21,1486.45 1475.21,47.2441 "/>
<polyline clip-path="url(#clip222)" style="stroke:#000000; stroke-linecap:round; stroke-linejoin:round; stroke-width:2; stroke-opacity:0.1; fill:none" points="1883.37,1486.45 1883.37,47.2441 "/>
<polyline clip-path="url(#clip222)" style="stroke:#000000; stroke-linecap:round; stroke-linejoin:round; stroke-width:2; stroke-opacity:0.1; fill:none" points="2291.53,1486.45 2291.53,47.2441 "/>
<polyline clip-path="url(#clip222)" style="stroke:#000000; stroke-linecap:round; stroke-linejoin:round; stroke-width:2; stroke-opacity:0.1; fill:none" points="189.496,1340.02 2352.76,1340.02 "/>
<polyline clip-path="url(#clip222)" style="stroke:#000000; stroke-linecap:round; stroke-linejoin:round; stroke-width:2; stroke-opacity:0.1; fill:none" points="189.496,689.184 2352.76,689.184 "/>
<polyline clip-path="url(#clip220)" style="stroke:#000000; stroke-linecap:round; stroke-linejoin:round; stroke-width:4; stroke-opacity:1; fill:none" points="189.496,1486.45 2352.76,1486.45 "/>
<polyline clip-path="url(#clip220)" style="stroke:#000000; stroke-linecap:round; stroke-linejoin:round; stroke-width:4; stroke-opacity:1; fill:none" points="250.72,1486.45 250.72,1467.55 "/>
<polyline clip-path="url(#clip220)" style="stroke:#000000; stroke-linecap:round; stroke-linejoin:round; stroke-width:4; stroke-opacity:1; fill:none" points="658.883,1486.45 658.883,1467.55 "/>
<polyline clip-path="url(#clip220)" style="stroke:#000000; stroke-linecap:round; stroke-linejoin:round; stroke-width:4; stroke-opacity:1; fill:none" points="1067.04,1486.45 1067.04,1467.55 "/>
<polyline clip-path="url(#clip220)" style="stroke:#000000; stroke-linecap:round; stroke-linejoin:round; stroke-width:4; stroke-opacity:1; fill:none" points="1475.21,1486.45 1475.21,1467.55 "/>
<polyline clip-path="url(#clip220)" style="stroke:#000000; stroke-linecap:round; stroke-linejoin:round; stroke-width:4; stroke-opacity:1; fill:none" points="1883.37,1486.45 1883.37,1467.55 "/>
<polyline clip-path="url(#clip220)" style="stroke:#000000; stroke-linecap:round; stroke-linejoin:round; stroke-width:4; stroke-opacity:1; fill:none" points="2291.53,1486.45 2291.53,1467.55 "/>
<path clip-path="url(#clip220)" d="M241.102 1544.91 L248.741 1544.91 L248.741 1518.55 L240.431 1520.21 L240.431 1515.95 L248.695 1514.29 L253.371 1514.29 L253.371 1544.91 L261.01 1544.91 L261.01 1548.85 L241.102 1548.85 L241.102 1544.91 Z" fill="#000000" fill-rule="nonzero" fill-opacity="1" /><path clip-path="url(#clip220)" d="M653.535 1544.91 L669.855 1544.91 L669.855 1548.85 L647.91 1548.85 L647.91 1544.91 Q650.572 1542.16 655.156 1537.53 Q659.762 1532.88 660.943 1531.53 Q663.188 1529.01 664.068 1527.27 Q664.97 1525.51 664.97 1523.82 Q664.97 1521.07 663.026 1519.33 Q661.105 1517.6 658.003 1517.6 Q655.804 1517.6 653.35 1518.36 Q650.92 1519.13 648.142 1520.68 L648.142 1515.95 Q650.966 1514.82 653.42 1514.24 Q655.873 1513.66 657.91 1513.66 Q663.281 1513.66 666.475 1516.35 Q669.669 1519.03 669.669 1523.52 Q669.669 1525.65 668.859 1527.57 Q668.072 1529.47 665.966 1532.07 Q665.387 1532.74 662.285 1535.95 Q659.183 1539.15 653.535 1544.91 Z" fill="#000000" fill-rule="nonzero" fill-opacity="1" /><path clip-path="url(#clip220)" d="M1071.29 1530.21 Q1074.65 1530.93 1076.52 1533.2 Q1078.42 1535.47 1078.42 1538.8 Q1078.42 1543.92 1074.9 1546.72 Q1071.39 1549.52 1064.9 1549.52 Q1062.73 1549.52 1060.41 1549.08 Q1058.12 1548.66 1055.67 1547.81 L1055.67 1543.29 Q1057.61 1544.43 1059.93 1545.01 Q1062.24 1545.58 1064.76 1545.58 Q1069.16 1545.58 1071.45 1543.85 Q1073.77 1542.11 1073.77 1538.8 Q1073.77 1535.75 1071.62 1534.03 Q1069.49 1532.3 1065.67 1532.3 L1061.64 1532.3 L1061.64 1528.45 L1065.85 1528.45 Q1069.3 1528.45 1071.13 1527.09 Q1072.96 1525.7 1072.96 1523.11 Q1072.96 1520.45 1071.06 1519.03 Q1069.19 1517.6 1065.67 1517.6 Q1063.75 1517.6 1061.55 1518.01 Q1059.35 1518.43 1056.71 1519.31 L1056.71 1515.14 Q1059.37 1514.4 1061.69 1514.03 Q1064.02 1513.66 1066.08 1513.66 Q1071.41 1513.66 1074.51 1516.09 Q1077.61 1518.5 1077.61 1522.62 Q1077.61 1525.49 1075.97 1527.48 Q1074.32 1529.45 1071.29 1530.21 Z" fill="#000000" fill-rule="nonzero" fill-opacity="1" /><path clip-path="url(#clip220)" d="M1478.22 1518.36 L1466.41 1536.81 L1478.22 1536.81 L1478.22 1518.36 M1476.99 1514.29 L1482.87 1514.29 L1482.87 1536.81 L1487.8 1536.81 L1487.8 1540.7 L1482.87 1540.7 L1482.87 1548.85 L1478.22 1548.85 L1478.22 1540.7 L1462.61 1540.7 L1462.61 1536.19 L1476.99 1514.29 Z" fill="#000000" fill-rule="nonzero" fill-opacity="1" /><path clip-path="url(#clip220)" d="M1873.65 1514.29 L1892 1514.29 L1892 1518.22 L1877.93 1518.22 L1877.93 1526.7 Q1878.95 1526.35 1879.97 1526.19 Q1880.99 1526 1882 1526 Q1887.79 1526 1891.17 1529.17 Q1894.55 1532.34 1894.55 1537.76 Q1894.55 1543.34 1891.08 1546.44 Q1887.61 1549.52 1881.29 1549.52 Q1879.11 1549.52 1876.84 1549.15 Q1874.6 1548.78 1872.19 1548.04 L1872.19 1543.34 Q1874.27 1544.47 1876.49 1545.03 Q1878.72 1545.58 1881.19 1545.58 Q1885.2 1545.58 1887.54 1543.48 Q1889.87 1541.37 1889.87 1537.76 Q1889.87 1534.15 1887.54 1532.04 Q1885.2 1529.94 1881.19 1529.94 Q1879.32 1529.94 1877.44 1530.35 Q1875.59 1530.77 1873.65 1531.65 L1873.65 1514.29 Z" fill="#000000" fill-rule="nonzero" fill-opacity="1" /><path clip-path="url(#clip220)" d="M2291.94 1529.7 Q2288.79 1529.7 2286.94 1531.86 Q2285.11 1534.01 2285.11 1537.76 Q2285.11 1541.49 2286.94 1543.66 Q2288.79 1545.82 2291.94 1545.82 Q2295.08 1545.82 2296.91 1543.66 Q2298.77 1541.49 2298.77 1537.76 Q2298.77 1534.01 2296.91 1531.86 Q2295.08 1529.7 2291.94 1529.7 M2301.22 1515.05 L2301.22 1519.31 Q2299.46 1518.48 2297.65 1518.04 Q2295.87 1517.6 2294.11 1517.6 Q2289.48 1517.6 2287.03 1520.72 Q2284.6 1523.85 2284.25 1530.17 Q2285.62 1528.15 2287.68 1527.09 Q2289.74 1526 2292.21 1526 Q2297.42 1526 2300.43 1529.17 Q2303.46 1532.32 2303.46 1537.76 Q2303.46 1543.08 2300.32 1546.3 Q2297.17 1549.52 2291.94 1549.52 Q2285.94 1549.52 2282.77 1544.94 Q2279.6 1540.33 2279.6 1531.6 Q2279.6 1523.41 2283.49 1518.55 Q2287.38 1513.66 2293.93 1513.66 Q2295.69 1513.66 2297.47 1514.01 Q2299.27 1514.36 2301.22 1515.05 Z" fill="#000000" fill-rule="nonzero" fill-opacity="1" /><polyline clip-path="url(#clip220)" style="stroke:#000000; stroke-linecap:round; stroke-linejoin:round; stroke-width:4; stroke-opacity:1; fill:none" points="189.496,1486.45 189.496,47.2441 "/>
<polyline clip-path="url(#clip220)" style="stroke:#000000; stroke-linecap:round; stroke-linejoin:round; stroke-width:4; stroke-opacity:1; fill:none" points="189.496,1340.02 208.394,1340.02 "/>
<polyline clip-path="url(#clip220)" style="stroke:#000000; stroke-linecap:round; stroke-linejoin:round; stroke-width:4; stroke-opacity:1; fill:none" points="189.496,689.184 208.394,689.184 "/>
<path clip-path="url(#clip220)" d="M51.6634 1359.81 L59.3023 1359.81 L59.3023 1333.45 L50.9921 1335.11 L50.9921 1330.85 L59.256 1329.19 L63.9319 1329.19 L63.9319 1359.81 L71.5707 1359.81 L71.5707 1363.75 L51.6634 1363.75 L51.6634 1359.81 Z" fill="#000000" fill-rule="nonzero" fill-opacity="1" /><path clip-path="url(#clip220)" d="M91.0151 1332.27 Q87.404 1332.27 85.5753 1335.83 Q83.7697 1339.37 83.7697 1346.5 Q83.7697 1353.61 85.5753 1357.17 Q87.404 1360.71 91.0151 1360.71 Q94.6493 1360.71 96.4548 1357.17 Q98.2835 1353.61 98.2835 1346.5 Q98.2835 1339.37 96.4548 1335.83 Q94.6493 1332.27 91.0151 1332.27 M91.0151 1328.56 Q96.8252 1328.56 99.8808 1333.17 Q102.959 1337.75 102.959 1346.5 Q102.959 1355.23 99.8808 1359.83 Q96.8252 1364.42 91.0151 1364.42 Q85.2049 1364.42 82.1262 1359.83 Q79.0707 1355.23 79.0707 1346.5 Q79.0707 1337.75 82.1262 1333.17 Q85.2049 1328.56 91.0151 1328.56 Z" fill="#000000" fill-rule="nonzero" fill-opacity="1" /><path clip-path="url(#clip220)" d="M102.959 1322.66 L127.071 1322.66 L127.071 1325.86 L102.959 1325.86 L102.959 1322.66 Z" fill="#000000" fill-rule="nonzero" fill-opacity="1" /><path clip-path="url(#clip220)" d="M145.71 1311.57 L136.118 1326.56 L145.71 1326.56 L145.71 1311.57 M144.713 1308.26 L149.49 1308.26 L149.49 1326.56 L153.496 1326.56 L153.496 1329.72 L149.49 1329.72 L149.49 1336.34 L145.71 1336.34 L145.71 1329.72 L133.033 1329.72 L133.033 1326.05 L144.713 1308.26 Z" fill="#000000" fill-rule="nonzero" fill-opacity="1" /><path clip-path="url(#clip220)" d="M53.3561 708.976 L60.995 708.976 L60.995 682.611 L52.6848 684.277 L52.6848 680.018 L60.9487 678.351 L65.6246 678.351 L65.6246 708.976 L73.2634 708.976 L73.2634 712.911 L53.3561 712.911 L53.3561 708.976 Z" fill="#000000" fill-rule="nonzero" fill-opacity="1" /><path clip-path="url(#clip220)" d="M92.7078 681.43 Q89.0967 681.43 87.268 684.995 Q85.4624 688.537 85.4624 695.666 Q85.4624 702.773 87.268 706.337 Q89.0967 709.879 92.7078 709.879 Q96.342 709.879 98.1475 706.337 Q99.9762 702.773 99.9762 695.666 Q99.9762 688.537 98.1475 684.995 Q96.342 681.43 92.7078 681.43 M92.7078 677.726 Q98.5179 677.726 101.573 682.333 Q104.652 686.916 104.652 695.666 Q104.652 704.393 101.573 708.999 Q98.5179 713.583 92.7078 713.583 Q86.8976 713.583 83.8189 708.999 Q80.7634 704.393 80.7634 695.666 Q80.7634 686.916 83.8189 682.333 Q86.8976 677.726 92.7078 677.726 Z" fill="#000000" fill-rule="nonzero" fill-opacity="1" /><path clip-path="url(#clip220)" d="M104.652 671.828 L128.764 671.828 L128.764 675.025 L104.652 675.025 L104.652 671.828 Z" fill="#000000" fill-rule="nonzero" fill-opacity="1" /><path clip-path="url(#clip220)" d="M140.236 682.304 L153.496 682.304 L153.496 685.501 L135.666 685.501 L135.666 682.304 Q137.829 680.066 141.553 676.304 Q145.296 672.524 146.255 671.433 Q148.079 669.383 148.794 667.972 Q149.527 666.543 149.527 665.17 Q149.527 662.932 147.948 661.521 Q146.387 660.111 143.866 660.111 Q142.08 660.111 140.086 660.731 Q138.111 661.352 135.854 662.612 L135.854 658.775 Q138.149 657.854 140.142 657.383 Q142.136 656.913 143.791 656.913 Q148.155 656.913 150.75 659.095 Q153.345 661.277 153.345 664.925 Q153.345 666.656 152.687 668.217 Q152.048 669.759 150.336 671.865 Q149.866 672.411 147.346 675.025 Q144.826 677.621 140.236 682.304 Z" fill="#000000" fill-rule="nonzero" fill-opacity="1" /><polyline clip-path="url(#clip222)" style="stroke:#009af9; stroke-linecap:round; stroke-linejoin:round; stroke-width:4; stroke-opacity:1; fill:none" points="250.72,87.9763 658.883,358.77 1067.04,735.216 1475.21,744.081 1883.37,795.778 2291.53,1445.72 "/>
<line clip-path="url(#clip222)" x1="250.72" y1="87.9763" x2="234.72" y2="71.9763" style="stroke:#009af9; stroke-width:4; stroke-opacity:1"/>
<line clip-path="url(#clip222)" x1="250.72" y1="87.9763" x2="234.72" y2="103.976" style="stroke:#009af9; stroke-width:4; stroke-opacity:1"/>
<line clip-path="url(#clip222)" x1="250.72" y1="87.9763" x2="266.72" y2="103.976" style="stroke:#009af9; stroke-width:4; stroke-opacity:1"/>
<line clip-path="url(#clip222)" x1="250.72" y1="87.9763" x2="266.72" y2="71.9763" style="stroke:#009af9; stroke-width:4; stroke-opacity:1"/>
<line clip-path="url(#clip222)" x1="658.883" y1="358.77" x2="642.883" y2="342.77" style="stroke:#009af9; stroke-width:4; stroke-opacity:1"/>
<line clip-path="url(#clip222)" x1="658.883" y1="358.77" x2="642.883" y2="374.77" style="stroke:#009af9; stroke-width:4; stroke-opacity:1"/>
<line clip-path="url(#clip222)" x1="658.883" y1="358.77" x2="674.883" y2="374.77" style="stroke:#009af9; stroke-width:4; stroke-opacity:1"/>
<line clip-path="url(#clip222)" x1="658.883" y1="358.77" x2="674.883" y2="342.77" style="stroke:#009af9; stroke-width:4; stroke-opacity:1"/>
<line clip-path="url(#clip222)" x1="1067.04" y1="735.216" x2="1051.04" y2="719.216" style="stroke:#009af9; stroke-width:4; stroke-opacity:1"/>
<line clip-path="url(#clip222)" x1="1067.04" y1="735.216" x2="1051.04" y2="751.216" style="stroke:#009af9; stroke-width:4; stroke-opacity:1"/>
<line clip-path="url(#clip222)" x1="1067.04" y1="735.216" x2="1083.04" y2="751.216" style="stroke:#009af9; stroke-width:4; stroke-opacity:1"/>
<line clip-path="url(#clip222)" x1="1067.04" y1="735.216" x2="1083.04" y2="719.216" style="stroke:#009af9; stroke-width:4; stroke-opacity:1"/>
<line clip-path="url(#clip222)" x1="1475.21" y1="744.081" x2="1459.21" y2="728.081" style="stroke:#009af9; stroke-width:4; stroke-opacity:1"/>
<line clip-path="url(#clip222)" x1="1475.21" y1="744.081" x2="1459.21" y2="760.081" style="stroke:#009af9; stroke-width:4; stroke-opacity:1"/>
<line clip-path="url(#clip222)" x1="1475.21" y1="744.081" x2="1491.21" y2="760.081" style="stroke:#009af9; stroke-width:4; stroke-opacity:1"/>
<line clip-path="url(#clip222)" x1="1475.21" y1="744.081" x2="1491.21" y2="728.081" style="stroke:#009af9; stroke-width:4; stroke-opacity:1"/>
<line clip-path="url(#clip222)" x1="1883.37" y1="795.778" x2="1867.37" y2="779.778" style="stroke:#009af9; stroke-width:4; stroke-opacity:1"/>
<line clip-path="url(#clip222)" x1="1883.37" y1="795.778" x2="1867.37" y2="811.778" style="stroke:#009af9; stroke-width:4; stroke-opacity:1"/>
<line clip-path="url(#clip222)" x1="1883.37" y1="795.778" x2="1899.37" y2="811.778" style="stroke:#009af9; stroke-width:4; stroke-opacity:1"/>
<line clip-path="url(#clip222)" x1="1883.37" y1="795.778" x2="1899.37" y2="779.778" style="stroke:#009af9; stroke-width:4; stroke-opacity:1"/>
<line clip-path="url(#clip222)" x1="2291.53" y1="1445.72" x2="2275.53" y2="1429.72" style="stroke:#009af9; stroke-width:4; stroke-opacity:1"/>
<line clip-path="url(#clip222)" x1="2291.53" y1="1445.72" x2="2275.53" y2="1461.72" style="stroke:#009af9; stroke-width:4; stroke-opacity:1"/>
<line clip-path="url(#clip222)" x1="2291.53" y1="1445.72" x2="2307.53" y2="1461.72" style="stroke:#009af9; stroke-width:4; stroke-opacity:1"/>
<line clip-path="url(#clip222)" x1="2291.53" y1="1445.72" x2="2307.53" y2="1429.72" style="stroke:#009af9; stroke-width:4; stroke-opacity:1"/>
<path clip-path="url(#clip220)" d="M1816.13 198.898 L2280.65 198.898 L2280.65 95.2176 L1816.13 95.2176  Z" fill="#ffffff" fill-rule="evenodd" fill-opacity="1"/>
<polyline clip-path="url(#clip220)" style="stroke:#000000; stroke-linecap:round; stroke-linejoin:round; stroke-width:4; stroke-opacity:1; fill:none" points="1816.13,198.898 2280.65,198.898 2280.65,95.2176 1816.13,95.2176 1816.13,198.898 "/>
<polyline clip-path="url(#clip220)" style="stroke:#009af9; stroke-linecap:round; stroke-linejoin:round; stroke-width:4; stroke-opacity:1; fill:none" points="1840.16,147.058 1984.38,147.058 "/>
<line clip-path="url(#clip220)" x1="1912.27" y1="147.058" x2="1890.02" y2="124.802" style="stroke:#009af9; stroke-width:4.55111; stroke-opacity:1"/>
<line clip-path="url(#clip220)" x1="1912.27" y1="147.058" x2="1890.02" y2="169.313" style="stroke:#009af9; stroke-width:4.55111; stroke-opacity:1"/>
<line clip-path="url(#clip220)" x1="1912.27" y1="147.058" x2="1934.53" y2="169.313" style="stroke:#009af9; stroke-width:4.55111; stroke-opacity:1"/>
<line clip-path="url(#clip220)" x1="1912.27" y1="147.058" x2="1934.53" y2="124.802" style="stroke:#009af9; stroke-width:4.55111; stroke-opacity:1"/>
<path clip-path="url(#clip220)" d="M2012.35 128.111 L2012.35 175.518 L2008.42 175.518 L2008.42 128.111 L2012.35 128.111 Z" fill="#000000" fill-rule="nonzero" fill-opacity="1" /><path clip-path="url(#clip220)" d="M2024.76 143.041 Q2026.17 140.68 2029.67 138.597 Q2031.03 137.787 2035.25 137.787 Q2039.97 137.787 2042.91 141.537 Q2045.87 145.287 2045.87 151.398 Q2045.87 157.509 2042.91 161.259 Q2039.97 165.009 2035.25 165.009 Q2032.4 165.009 2030.34 163.898 Q2028.3 162.763 2026.96 160.449 L2026.96 174.199 L2022.68 174.199 L2022.68 151.629 Q2022.68 146.282 2024.76 143.041 M2041.45 151.398 Q2041.45 146.699 2039.51 144.037 Q2037.58 141.352 2034.2 141.352 Q2030.83 141.352 2028.88 144.037 Q2026.96 146.699 2026.96 151.398 Q2026.96 156.097 2028.88 158.782 Q2030.83 161.444 2034.2 161.444 Q2037.58 161.444 2039.51 158.782 Q2041.45 156.097 2041.45 151.398 Z" fill="#000000" fill-rule="nonzero" fill-opacity="1" /><path clip-path="url(#clip220)" d="M2062.98 141.398 Q2059.55 141.398 2057.56 144.083 Q2055.57 146.745 2055.57 151.398 Q2055.57 156.051 2057.54 158.736 Q2059.53 161.398 2062.98 161.398 Q2066.38 161.398 2068.37 158.713 Q2070.36 156.027 2070.36 151.398 Q2070.36 146.791 2068.37 144.106 Q2066.38 141.398 2062.98 141.398 M2062.98 137.787 Q2068.53 137.787 2071.7 141.398 Q2074.88 145.009 2074.88 151.398 Q2074.88 157.764 2071.7 161.398 Q2068.53 165.009 2062.98 165.009 Q2057.4 165.009 2054.23 161.398 Q2051.08 157.764 2051.08 151.398 Q2051.08 145.009 2054.23 141.398 Q2057.4 137.787 2062.98 137.787 Z" fill="#000000" fill-rule="nonzero" fill-opacity="1" /><path clip-path="url(#clip220)" d="M2081.5 154.106 L2081.5 138.412 L2085.76 138.412 L2085.76 153.944 Q2085.76 157.625 2087.19 159.476 Q2088.63 161.305 2091.5 161.305 Q2094.95 161.305 2096.94 159.106 Q2098.95 156.907 2098.95 153.111 L2098.95 138.412 L2103.21 138.412 L2103.21 164.338 L2098.95 164.338 L2098.95 160.356 Q2097.4 162.717 2095.34 163.875 Q2093.3 165.009 2090.59 165.009 Q2086.13 165.009 2083.81 162.231 Q2081.5 159.453 2081.5 154.106 M2092.21 137.787 L2092.21 137.787 Z" fill="#000000" fill-rule="nonzero" fill-opacity="1" /><path clip-path="url(#clip220)" d="M2116.2 131.051 L2116.2 138.412 L2124.97 138.412 L2124.97 141.722 L2116.2 141.722 L2116.2 155.796 Q2116.2 158.967 2117.05 159.87 Q2117.93 160.773 2120.59 160.773 L2124.97 160.773 L2124.97 164.338 L2120.59 164.338 Q2115.66 164.338 2113.79 162.509 Q2111.91 160.657 2111.91 155.796 L2111.91 141.722 L2108.79 141.722 L2108.79 138.412 L2111.91 138.412 L2111.91 131.051 L2116.2 131.051 Z" fill="#000000" fill-rule="nonzero" fill-opacity="1" /><path clip-path="url(#clip220)" d="M2143.49 149.453 L2155.96 149.453 L2155.96 153.25 L2143.49 153.25 L2143.49 149.453 Z" fill="#000000" fill-rule="nonzero" fill-opacity="1" /><path clip-path="url(#clip220)" d="M2179.74 143.041 Q2181.15 140.68 2184.64 138.597 Q2186.01 137.787 2190.22 137.787 Q2194.94 137.787 2197.88 141.537 Q2200.85 145.287 2200.85 151.398 Q2200.85 157.509 2197.88 161.259 Q2194.94 165.009 2190.22 165.009 Q2187.38 165.009 2185.32 163.898 Q2183.28 162.763 2181.94 160.449 L2181.94 174.199 L2177.65 174.199 L2177.65 151.629 Q2177.65 146.282 2179.74 143.041 M2196.43 151.398 Q2196.43 146.699 2194.48 144.037 Q2192.56 141.352 2189.18 141.352 Q2185.8 141.352 2183.86 144.037 Q2181.94 146.699 2181.94 151.398 Q2181.94 156.097 2183.86 158.782 Q2185.8 161.444 2189.18 161.444 Q2192.56 161.444 2194.48 158.782 Q2196.43 156.097 2196.43 151.398 Z" fill="#000000" fill-rule="nonzero" fill-opacity="1" /><path clip-path="url(#clip220)" d="M2207.91 138.412 L2212.17 138.412 L2212.17 164.338 L2207.91 164.338 L2207.91 138.412 M2207.91 128.319 L2212.17 128.319 L2212.17 133.713 L2207.91 133.713 L2207.91 128.319 Z" fill="#000000" fill-rule="nonzero" fill-opacity="1" /><path clip-path="url(#clip220)" d="M2242.63 148.689 L2242.63 164.338 L2238.37 164.338 L2238.37 148.828 Q2238.37 145.148 2236.94 143.319 Q2235.5 141.49 2232.63 141.49 Q2229.18 141.49 2227.19 143.69 Q2225.2 145.889 2225.2 149.685 L2225.2 164.338 L2220.92 164.338 L2220.92 138.412 L2225.2 138.412 L2225.2 142.44 Q2226.73 140.102 2228.79 138.944 Q2230.87 137.787 2233.58 137.787 Q2238.05 137.787 2240.34 140.565 Q2242.63 143.319 2242.63 148.689 Z" fill="#000000" fill-rule="nonzero" fill-opacity="1" /><path clip-path="url(#clip220)" d="M2256.61 128.111 L2256.61 175.518 L2252.68 175.518 L2252.68 128.111 L2256.61 128.111 Z" fill="#000000" fill-rule="nonzero" fill-opacity="1" /></svg>
