<?xml version="1.0" encoding="utf-8"?>
<svg xmlns="http://www.w3.org/2000/svg" xmlns:xlink="http://www.w3.org/1999/xlink" width="600" height="400" viewBox="0 0 2400 1600">
<defs>
  <clipPath id="clip030">
    <rect x="0" y="0" width="2400" height="1600"/>
  </clipPath>
</defs>
<path clip-path="url(#clip030)" d="M0 1600 L2400 1600 L2400 0 L0 0  Z" fill="#ffffff" fill-rule="evenodd" fill-opacity="1"/>
<defs>
  <clipPath id="clip031">
    <rect x="480" y="0" width="1681" height="1600"/>
  </clipPath>
</defs>
<path clip-path="url(#clip030)" d="M189.496 1486.45 L2352.76 1486.45 L2352.76 47.2441 L189.496 47.2441  Z" fill="#ffffff" fill-rule="evenodd" fill-opacity="1"/>
<defs>
  <clipPath id="clip032">
    <rect x="189" y="47" width="2164" height="1440"/>
  </clipPath>
</defs>
<polyline clip-path="url(#clip032)" style="stroke:#000000; stroke-linecap:round; stroke-linejoin:round; stroke-width:2; stroke-opacity:0.1; fill:none" points="542.265,1486.45 542.265,47.2441 "/>
<polyline clip-path="url(#clip032)" style="stroke:#000000; stroke-linecap:round; stroke-linejoin:round; stroke-width:2; stroke-opacity:0.1; fill:none" points="1125.35,1486.45 1125.35,47.2441 "/>
<polyline clip-path="url(#clip032)" style="stroke:#000000; stroke-linecap:round; stroke-linejoin:round; stroke-width:2; stroke-opacity:0.1; fill:none" points="1708.44,1486.45 1708.44,47.2441 "/>
<polyline clip-path="url(#clip032)" style="stroke:#000000; stroke-linecap:round; stroke-linejoin:round; stroke-width:2; stroke-opacity:0.1; fill:none" points="2291.53,1486.45 2291.53,47.2441 "/>
<polyline clip-path="url(#clip030)" style="stroke:#000000; stroke-linecap:round; stroke-linejoin:round; stroke-width:4; stroke-opacity:1; fill:none" points="189.496,1486.45 2352.76,1486.45 "/>
<polyline clip-path="url(#clip030)" style="stroke:#000000; stroke-linecap:round; stroke-linejoin:round; stroke-width:4; stroke-opacity:1; fill:none" points="542.265,1486.45 542.265,1467.55 "/>
<polyline clip-path="url(#clip030)" style="stroke:#000000; stroke-linecap:round; stroke-linejoin:round; stroke-width:4; stroke-opacity:1; fill:none" points="1125.35,1486.45 1125.35,1467.55 "/>
<polyline clip-path="url(#clip030)" style="stroke:#000000; stroke-linecap:round; stroke-linejoin:round; stroke-width:4; stroke-opacity:1; fill:none" points="1708.44,1486.45 1708.44,1467.55 "/>
<polyline clip-path="url(#clip030)" style="stroke:#000000; stroke-linecap:round; stroke-linejoin:round; stroke-width:4; stroke-opacity:1; fill:none" points="2291.53,1486.45 2291.53,1467.55 "/>
<path clip-path="url(#clip030)" d="M536.918 1544.91 L553.237 1544.91 L553.237 1548.85 L531.293 1548.85 L531.293 1544.91 Q533.955 1542.16 538.538 1537.53 Q543.144 1532.88 544.325 1531.53 Q546.57 1529.01 547.45 1527.27 Q548.353 1525.51 548.353 1523.82 Q548.353 1521.07 546.408 1519.33 Q544.487 1517.6 541.385 1517.6 Q539.186 1517.6 536.732 1518.36 Q534.302 1519.13 531.524 1520.68 L531.524 1515.95 Q534.348 1514.82 536.802 1514.24 Q539.255 1513.66 541.293 1513.66 Q546.663 1513.66 549.857 1516.35 Q553.052 1519.03 553.052 1523.52 Q553.052 1525.65 552.242 1527.57 Q551.454 1529.47 549.348 1532.07 Q548.769 1532.74 545.667 1535.95 Q542.566 1539.15 536.918 1544.91 Z" fill="#000000" fill-rule="nonzero" fill-opacity="1" /><path clip-path="url(#clip030)" d="M1128.36 1518.36 L1116.56 1536.81 L1128.36 1536.81 L1128.36 1518.36 M1127.14 1514.29 L1133.02 1514.29 L1133.02 1536.81 L1137.95 1536.81 L1137.95 1540.7 L1133.02 1540.7 L1133.02 1548.85 L1128.36 1548.85 L1128.36 1540.7 L1112.76 1540.7 L1112.76 1536.19 L1127.14 1514.29 Z" fill="#000000" fill-rule="nonzero" fill-opacity="1" /><path clip-path="url(#clip030)" d="M1708.85 1529.7 Q1705.7 1529.7 1703.85 1531.86 Q1702.02 1534.01 1702.02 1537.76 Q1702.02 1541.49 1703.85 1543.66 Q1705.7 1545.82 1708.85 1545.82 Q1712 1545.82 1713.82 1543.66 Q1715.68 1541.49 1715.68 1537.76 Q1715.68 1534.01 1713.82 1531.86 Q1712 1529.7 1708.85 1529.7 M1718.13 1515.05 L1718.13 1519.31 Q1716.37 1518.48 1714.57 1518.04 Q1712.78 1517.6 1711.02 1517.6 Q1706.39 1517.6 1703.94 1520.72 Q1701.51 1523.85 1701.16 1530.17 Q1702.53 1528.15 1704.59 1527.09 Q1706.65 1526 1709.13 1526 Q1714.33 1526 1717.34 1529.17 Q1720.38 1532.32 1720.38 1537.76 Q1720.38 1543.08 1717.23 1546.3 Q1714.08 1549.52 1708.85 1549.52 Q1702.85 1549.52 1699.68 1544.94 Q1696.51 1540.33 1696.51 1531.6 Q1696.51 1523.41 1700.4 1518.55 Q1704.29 1513.66 1710.84 1513.66 Q1712.6 1513.66 1714.38 1514.01 Q1716.19 1514.36 1718.13 1515.05 Z" fill="#000000" fill-rule="nonzero" fill-opacity="1" /><path clip-path="url(#clip030)" d="M2291.53 1532.44 Q2288.2 1532.44 2286.28 1534.22 Q2284.38 1536 2284.38 1539.13 Q2284.38 1542.25 2286.28 1544.03 Q2288.2 1545.82 2291.53 1545.82 Q2294.86 1545.82 2296.79 1544.03 Q2298.71 1542.23 2298.71 1539.13 Q2298.71 1536 2296.79 1534.22 Q2294.89 1532.44 2291.53 1532.44 M2286.86 1530.45 Q2283.85 1529.7 2282.16 1527.64 Q2280.49 1525.58 2280.49 1522.62 Q2280.49 1518.48 2283.43 1516.07 Q2286.39 1513.66 2291.53 1513.66 Q2296.69 1513.66 2299.63 1516.07 Q2302.57 1518.48 2302.57 1522.62 Q2302.57 1525.58 2300.88 1527.64 Q2299.22 1529.7 2296.23 1530.45 Q2299.61 1531.23 2301.49 1533.52 Q2303.38 1535.82 2303.38 1539.13 Q2303.38 1544.15 2300.3 1546.83 Q2297.25 1549.52 2291.53 1549.52 Q2285.81 1549.52 2282.74 1546.83 Q2279.68 1544.15 2279.68 1539.13 Q2279.68 1535.82 2281.58 1533.52 Q2283.48 1531.23 2286.86 1530.45 M2285.14 1523.06 Q2285.14 1525.75 2286.81 1527.25 Q2288.5 1528.76 2291.53 1528.76 Q2294.54 1528.76 2296.23 1527.25 Q2297.94 1525.75 2297.94 1523.06 Q2297.94 1520.38 2296.23 1518.87 Q2294.54 1517.37 2291.53 1517.37 Q2288.5 1517.37 2286.81 1518.87 Q2285.14 1520.38 2285.14 1523.06 Z" fill="#000000" fill-rule="nonzero" fill-opacity="1" /><polyline clip-path="url(#clip032)" style="stroke:#000000; stroke-linecap:round; stroke-linejoin:round; stroke-width:2; stroke-opacity:0.1; fill:none" points="189.496,1313.21 2352.76,1313.21 "/>
<polyline clip-path="url(#clip032)" style="stroke:#000000; stroke-linecap:round; stroke-linejoin:round; stroke-width:2; stroke-opacity:0.1; fill:none" points="189.496,1009.7 2352.76,1009.7 "/>
<polyline clip-path="url(#clip032)" style="stroke:#000000; stroke-linecap:round; stroke-linejoin:round; stroke-width:2; stroke-opacity:0.1; fill:none" points="189.496,706.196 2352.76,706.196 "/>
<polyline clip-path="url(#clip032)" style="stroke:#000000; stroke-linecap:round; stroke-linejoin:round; stroke-width:2; stroke-opacity:0.1; fill:none" points="189.496,402.688 2352.76,402.688 "/>
<polyline clip-path="url(#clip032)" style="stroke:#000000; stroke-linecap:round; stroke-linejoin:round; stroke-width:2; stroke-opacity:0.1; fill:none" points="189.496,99.1806 2352.76,99.1806 "/>
<polyline clip-path="url(#clip030)" style="stroke:#000000; stroke-linecap:round; stroke-linejoin:round; stroke-width:4; stroke-opacity:1; fill:none" points="189.496,1486.45 189.496,47.2441 "/>
<polyline clip-path="url(#clip030)" style="stroke:#000000; stroke-linecap:round; stroke-linejoin:round; stroke-width:4; stroke-opacity:1; fill:none" points="189.496,1313.21 208.394,1313.21 "/>
<polyline clip-path="url(#clip030)" style="stroke:#000000; stroke-linecap:round; stroke-linejoin:round; stroke-width:4; stroke-opacity:1; fill:none" points="189.496,1009.7 208.394,1009.7 "/>
<polyline clip-path="url(#clip030)" style="stroke:#000000; stroke-linecap:round; stroke-linejoin:round; stroke-width:4; stroke-opacity:1; fill:none" points="189.496,706.196 208.394,706.196 "/>
<polyline clip-path="url(#clip030)" style="stroke:#000000; stroke-linecap:round; stroke-linejoin:round; stroke-width:4; stroke-opacity:1; fill:none" points="189.496,402.688 208.394,402.688 "/>
<polyline clip-path="url(#clip030)" style="stroke:#000000; stroke-linecap:round; stroke-linejoin:round; stroke-width:4; stroke-opacity:1; fill:none" points="189.496,99.1806 208.394,99.1806 "/>
<path clip-path="url(#clip030)" d="M51.6634 1333 L59.3023 1333 L59.3023 1306.64 L50.9921 1308.31 L50.9921 1304.05 L59.256 1302.38 L63.9319 1302.38 L63.9319 1333 L71.5707 1333 L71.5707 1336.94 L51.6634 1336.94 L51.6634 1333 Z" fill="#000000" fill-rule="nonzero" fill-opacity="1" /><path clip-path="url(#clip030)" d="M91.0151 1305.46 Q87.404 1305.46 85.5753 1309.02 Q83.7697 1312.56 83.7697 1319.69 Q83.7697 1326.8 85.5753 1330.37 Q87.404 1333.91 91.0151 1333.91 Q94.6493 1333.91 96.4548 1330.37 Q98.2835 1326.8 98.2835 1319.69 Q98.2835 1312.56 96.4548 1309.02 Q94.6493 1305.46 91.0151 1305.46 M91.0151 1301.75 Q96.8252 1301.75 99.8808 1306.36 Q102.959 1310.94 102.959 1319.69 Q102.959 1328.42 99.8808 1333.03 Q96.8252 1337.61 91.0151 1337.61 Q85.2049 1337.61 82.1262 1333.03 Q79.0707 1328.42 79.0707 1319.69 Q79.0707 1310.94 82.1262 1306.36 Q85.2049 1301.75 91.0151 1301.75 Z" fill="#000000" fill-rule="nonzero" fill-opacity="1" /><path clip-path="url(#clip030)" d="M102.959 1295.86 L127.071 1295.86 L127.071 1299.05 L102.959 1299.05 L102.959 1295.86 Z" fill="#000000" fill-rule="nonzero" fill-opacity="1" /><path clip-path="url(#clip030)" d="M145.71 1284.76 L136.118 1299.75 L145.71 1299.75 L145.71 1284.76 M144.713 1281.45 L149.49 1281.45 L149.49 1299.75 L153.496 1299.75 L153.496 1302.91 L149.49 1302.91 L149.49 1309.53 L145.71 1309.53 L145.71 1302.91 L133.033 1302.91 L133.033 1299.24 L144.713 1281.45 Z" fill="#000000" fill-rule="nonzero" fill-opacity="1" /><path clip-path="url(#clip030)" d="M52.585 1029.5 L60.2238 1029.5 L60.2238 1003.13 L51.9137 1004.8 L51.9137 1000.54 L60.1776 998.872 L64.8535 998.872 L64.8535 1029.5 L72.4923 1029.5 L72.4923 1033.43 L52.585 1033.43 L52.585 1029.5 Z" fill="#000000" fill-rule="nonzero" fill-opacity="1" /><path clip-path="url(#clip030)" d="M91.9366 1001.95 Q88.3255 1001.95 86.4969 1005.52 Q84.6913 1009.06 84.6913 1016.19 Q84.6913 1023.29 86.4969 1026.86 Q88.3255 1030.4 91.9366 1030.4 Q95.5709 1030.4 97.3764 1026.86 Q99.2051 1023.29 99.2051 1016.19 Q99.2051 1009.06 97.3764 1005.52 Q95.5709 1001.95 91.9366 1001.95 M91.9366 998.247 Q97.7468 998.247 100.802 1002.85 Q103.881 1007.44 103.881 1016.19 Q103.881 1024.91 100.802 1029.52 Q97.7468 1034.1 91.9366 1034.1 Q86.1265 1034.1 83.0478 1029.52 Q79.9923 1024.91 79.9923 1016.19 Q79.9923 1007.44 83.0478 1002.85 Q86.1265 998.247 91.9366 998.247 Z" fill="#000000" fill-rule="nonzero" fill-opacity="1" /><path clip-path="url(#clip030)" d="M103.881 992.348 L127.993 992.348 L127.993 995.545 L103.881 995.545 L103.881 992.348 Z" fill="#000000" fill-rule="nonzero" fill-opacity="1" /><path clip-path="url(#clip030)" d="M147.703 990.881 Q150.43 991.464 151.954 993.307 Q153.496 995.15 153.496 997.859 Q153.496 1002.02 150.637 1004.29 Q147.778 1006.57 142.512 1006.57 Q140.744 1006.57 138.863 1006.21 Q137.002 1005.87 135.008 1005.17 L135.008 1001.51 Q136.588 1002.43 138.469 1002.9 Q140.349 1003.37 142.399 1003.37 Q145.973 1003.37 147.835 1001.96 Q149.716 1000.55 149.716 997.859 Q149.716 995.376 147.966 993.984 Q146.236 992.574 143.133 992.574 L139.86 992.574 L139.86 989.452 L143.283 989.452 Q146.086 989.452 147.571 988.342 Q149.057 987.214 149.057 985.107 Q149.057 982.944 147.515 981.797 Q145.992 980.631 143.133 980.631 Q141.572 980.631 139.785 980.969 Q137.998 981.308 135.854 982.023 L135.854 978.637 Q138.017 978.035 139.898 977.734 Q141.797 977.433 143.471 977.433 Q147.797 977.433 150.317 979.408 Q152.838 981.364 152.838 984.712 Q152.838 987.044 151.502 988.662 Q150.167 990.26 147.703 990.881 Z" fill="#000000" fill-rule="nonzero" fill-opacity="1" /><path clip-path="url(#clip030)" d="M53.3561 725.989 L60.995 725.989 L60.995 699.623 L52.6848 701.29 L52.6848 697.031 L60.9487 695.364 L65.6246 695.364 L65.6246 725.989 L73.2634 725.989 L73.2634 729.924 L53.3561 729.924 L53.3561 725.989 Z" fill="#000000" fill-rule="nonzero" fill-opacity="1" /><path clip-path="url(#clip030)" d="M92.7078 698.443 Q89.0967 698.443 87.268 702.007 Q85.4624 705.549 85.4624 712.679 Q85.4624 719.785 87.268 723.35 Q89.0967 726.891 92.7078 726.891 Q96.342 726.891 98.1475 723.35 Q99.9762 719.785 99.9762 712.679 Q99.9762 705.549 98.1475 702.007 Q96.342 698.443 92.7078 698.443 M92.7078 694.739 Q98.5179 694.739 101.573 699.345 Q104.652 703.929 104.652 712.679 Q104.652 721.405 101.573 726.012 Q98.5179 730.595 92.7078 730.595 Q86.8976 730.595 83.8189 726.012 Q80.7634 721.405 80.7634 712.679 Q80.7634 703.929 83.8189 699.345 Q86.8976 694.739 92.7078 694.739 Z" fill="#000000" fill-rule="nonzero" fill-opacity="1" /><path clip-path="url(#clip030)" d="M104.652 688.84 L128.764 688.84 L128.764 692.038 L104.652 692.038 L104.652 688.84 Z" fill="#000000" fill-rule="nonzero" fill-opacity="1" /><path clip-path="url(#clip030)" d="M140.236 699.316 L153.496 699.316 L153.496 702.513 L135.666 702.513 L135.666 699.316 Q137.829 697.078 141.553 693.316 Q145.296 689.536 146.255 688.445 Q148.079 686.395 148.794 684.985 Q149.527 683.555 149.527 682.182 Q149.527 679.944 147.948 678.534 Q146.387 677.123 143.866 677.123 Q142.08 677.123 140.086 677.744 Q138.111 678.364 135.854 679.624 L135.854 675.788 Q138.149 674.866 140.142 674.396 Q142.136 673.926 143.791 673.926 Q148.155 673.926 150.75 676.107 Q153.345 678.289 153.345 681.938 Q153.345 683.668 152.687 685.229 Q152.048 686.771 150.336 688.878 Q149.866 689.423 147.346 692.038 Q144.826 694.633 140.236 699.316 Z" fill="#000000" fill-rule="nonzero" fill-opacity="1" /><path clip-path="url(#clip030)" d="M53.0552 422.481 L60.694 422.481 L60.694 396.115 L52.3839 397.782 L52.3839 393.523 L60.6477 391.856 L65.3236 391.856 L65.3236 422.481 L72.9625 422.481 L72.9625 426.416 L53.0552 426.416 L53.0552 422.481 Z" fill="#000000" fill-rule="nonzero" fill-opacity="1" /><path clip-path="url(#clip030)" d="M92.4068 394.935 Q88.7957 394.935 86.967 398.5 Q85.1615 402.041 85.1615 409.171 Q85.1615 416.277 86.967 419.842 Q88.7957 423.384 92.4068 423.384 Q96.0411 423.384 97.8466 419.842 Q99.6753 416.277 99.6753 409.171 Q99.6753 402.041 97.8466 398.5 Q96.0411 394.935 92.4068 394.935 M92.4068 391.231 Q98.217 391.231 101.273 395.837 Q104.351 400.421 104.351 409.171 Q104.351 417.898 101.273 422.504 Q98.217 427.087 92.4068 427.087 Q86.5967 427.087 83.518 422.504 Q80.4625 417.898 80.4625 409.171 Q80.4625 400.421 83.518 395.837 Q86.5967 391.231 92.4068 391.231 Z" fill="#000000" fill-rule="nonzero" fill-opacity="1" /><path clip-path="url(#clip030)" d="M104.351 385.332 L128.463 385.332 L128.463 388.53 L104.351 388.53 L104.351 385.332 Z" fill="#000000" fill-rule="nonzero" fill-opacity="1" /><path clip-path="url(#clip030)" d="M137.321 395.808 L143.528 395.808 L143.528 374.386 L136.776 375.74 L136.776 372.28 L143.49 370.926 L147.289 370.926 L147.289 395.808 L153.496 395.808 L153.496 399.006 L137.321 399.006 L137.321 395.808 Z" fill="#000000" fill-rule="nonzero" fill-opacity="1" /><path clip-path="url(#clip030)" d="M82.7903 118.973 L90.4291 118.973 L90.4291 92.6074 L82.119 94.2741 L82.119 90.0149 L90.3828 88.3482 L95.0587 88.3482 L95.0587 118.973 L102.698 118.973 L102.698 122.908 L82.7903 122.908 L82.7903 118.973 Z" fill="#000000" fill-rule="nonzero" fill-opacity="1" /><path clip-path="url(#clip030)" d="M122.142 91.4269 Q118.531 91.4269 116.702 94.9917 Q114.897 98.5333 114.897 105.663 Q114.897 112.769 116.702 116.334 Q118.531 119.876 122.142 119.876 Q125.776 119.876 127.582 116.334 Q129.41 112.769 129.41 105.663 Q129.41 98.5333 127.582 94.9917 Q125.776 91.4269 122.142 91.4269 M122.142 87.7232 Q127.952 87.7232 131.008 92.3297 Q134.086 96.913 134.086 105.663 Q134.086 114.39 131.008 118.996 Q127.952 123.579 122.142 123.579 Q116.332 123.579 113.253 118.996 Q110.198 114.39 110.198 105.663 Q110.198 96.913 113.253 92.3297 Q116.332 87.7232 122.142 87.7232 Z" fill="#000000" fill-rule="nonzero" fill-opacity="1" /><path clip-path="url(#clip030)" d="M143.791 69.9192 Q140.857 69.9192 139.371 72.8156 Q137.904 75.6932 137.904 81.486 Q137.904 87.26 139.371 90.1564 Q140.857 93.034 143.791 93.034 Q146.744 93.034 148.211 90.1564 Q149.697 87.26 149.697 81.486 Q149.697 75.6932 148.211 72.8156 Q146.744 69.9192 143.791 69.9192 M143.791 66.91 Q148.512 66.91 150.994 70.6527 Q153.496 74.3767 153.496 81.486 Q153.496 88.5765 150.994 92.3193 Q148.512 96.0432 143.791 96.0432 Q139.07 96.0432 136.569 92.3193 Q134.086 88.5765 134.086 81.486 Q134.086 74.3767 136.569 70.6527 Q139.07 66.91 143.791 66.91 Z" fill="#000000" fill-rule="nonzero" fill-opacity="1" /><polyline clip-path="url(#clip032)" style="stroke:#009af9; stroke-linecap:round; stroke-linejoin:round; stroke-width:4; stroke-opacity:1; fill:none" points="250.72,87.9763 542.265,333.851 833.809,667.763 1125.35,726.802 1416.9,741.041 1708.44,1168.12 1999.99,1257.42 2291.53,1445.72 "/>
<line clip-path="url(#clip032)" x1="250.72" y1="87.9763" x2="234.72" y2="71.9763" style="stroke:#009af9; stroke-width:4; stroke-opacity:1"/>
<line clip-path="url(#clip032)" x1="250.72" y1="87.9763" x2="234.72" y2="103.976" style="stroke:#009af9; stroke-width:4; stroke-opacity:1"/>
<line clip-path="url(#clip032)" x1="250.72" y1="87.9763" x2="266.72" y2="103.976" style="stroke:#009af9; stroke-width:4; stroke-opacity:1"/>
<line clip-path="url(#clip032)" x1="250.72" y1="87.9763" x2="266.72" y2="71.9763" style="stroke:#009af9; stroke-width:4; stroke-opacity:1"/>
<line clip-path="url(#clip032)" x1="542.265" y1="333.851" x2="526.265" y2="317.851" style="stroke:#009af9; stroke-width:4; stroke-opacity:1"/>
<line clip-path="url(#clip032)" x1="542.265" y1="333.851" x2="526.265" y2="349.851" style="stroke:#009af9; stroke-width:4; stroke-opacity:1"/>
<line clip-path="url(#clip032)" x1="542.265" y1="333.851" x2="558.265" y2="349.851" style="stroke:#009af9; stroke-width:4; stroke-opacity:1"/>
<line clip-path="url(#clip032)" x1="542.265" y1="333.851" x2="558.265" y2="317.851" style="stroke:#009af9; stroke-width:4; stroke-opacity:1"/>
<line clip-path="url(#clip032)" x1="833.809" y1="667.763" x2="817.809" y2="651.763" style="stroke:#009af9; stroke-width:4; stroke-opacity:1"/>
<line clip-path="url(#clip032)" x1="833.809" y1="667.763" x2="817.809" y2="683.763" style="stroke:#009af9; stroke-width:4; stroke-opacity:1"/>
<line clip-path="url(#clip032)" x1="833.809" y1="667.763" x2="849.809" y2="683.763" style="stroke:#009af9; stroke-width:4; stroke-opacity:1"/>
<line clip-path="url(#clip032)" x1="833.809" y1="667.763" x2="849.809" y2="651.763" style="stroke:#009af9; stroke-width:4; stroke-opacity:1"/>
<line clip-path="url(#clip032)" x1="1125.35" y1="726.802" x2="1109.35" y2="710.802" style="stroke:#009af9; stroke-width:4; stroke-opacity:1"/>
<line clip-path="url(#clip032)" x1="1125.35" y1="726.802" x2="1109.35" y2="742.802" style="stroke:#009af9; stroke-width:4; stroke-opacity:1"/>
<line clip-path="url(#clip032)" x1="1125.35" y1="726.802" x2="1141.35" y2="742.802" style="stroke:#009af9; stroke-width:4; stroke-opacity:1"/>
<line clip-path="url(#clip032)" x1="1125.35" y1="726.802" x2="1141.35" y2="710.802" style="stroke:#009af9; stroke-width:4; stroke-opacity:1"/>
<line clip-path="url(#clip032)" x1="1416.9" y1="741.041" x2="1400.9" y2="725.041" style="stroke:#009af9; stroke-width:4; stroke-opacity:1"/>
<line clip-path="url(#clip032)" x1="1416.9" y1="741.041" x2="1400.9" y2="757.041" style="stroke:#009af9; stroke-width:4; stroke-opacity:1"/>
<line clip-path="url(#clip032)" x1="1416.9" y1="741.041" x2="1432.9" y2="757.041" style="stroke:#009af9; stroke-width:4; stroke-opacity:1"/>
<line clip-path="url(#clip032)" x1="1416.9" y1="741.041" x2="1432.9" y2="725.041" style="stroke:#009af9; stroke-width:4; stroke-opacity:1"/>
<line clip-path="url(#clip032)" x1="1708.44" y1="1168.12" x2="1692.44" y2="1152.12" style="stroke:#009af9; stroke-width:4; stroke-opacity:1"/>
<line clip-path="url(#clip032)" x1="1708.44" y1="1168.12" x2="1692.44" y2="1184.12" style="stroke:#009af9; stroke-width:4; stroke-opacity:1"/>
<line clip-path="url(#clip032)" x1="1708.44" y1="1168.12" x2="1724.44" y2="1184.12" style="stroke:#009af9; stroke-width:4; stroke-opacity:1"/>
<line clip-path="url(#clip032)" x1="1708.44" y1="1168.12" x2="1724.44" y2="1152.12" style="stroke:#009af9; stroke-width:4; stroke-opacity:1"/>
<line clip-path="url(#clip032)" x1="1999.99" y1="1257.42" x2="1983.99" y2="1241.42" style="stroke:#009af9; stroke-width:4; stroke-opacity:1"/>
<line clip-path="url(#clip032)" x1="1999.99" y1="1257.42" x2="1983.99" y2="1273.42" style="stroke:#009af9; stroke-width:4; stroke-opacity:1"/>
<line clip-path="url(#clip032)" x1="1999.99" y1="1257.42" x2="2015.99" y2="1273.42" style="stroke:#009af9; stroke-width:4; stroke-opacity:1"/>
<line clip-path="url(#clip032)" x1="1999.99" y1="1257.42" x2="2015.99" y2="1241.42" style="stroke:#009af9; stroke-width:4; stroke-opacity:1"/>
<line clip-path="url(#clip032)" x1="2291.53" y1="1445.72" x2="2275.53" y2="1429.72" style="stroke:#009af9; stroke-width:4; stroke-opacity:1"/>
<line clip-path="url(#clip032)" x1="2291.53" y1="1445.72" x2="2275.53" y2="1461.72" style="stroke:#009af9; stroke-width:4; stroke-opacity:1"/>
<line clip-path="url(#clip032)" x1="2291.53" y1="1445.72" x2="2307.53" y2="1461.72" style="stroke:#009af9; stroke-width:4; stroke-opacity:1"/>
<line clip-path="url(#clip032)" x1="2291.53" y1="1445.72" x2="2307.53" y2="1429.72" style="stroke:#009af9; stroke-width:4; stroke-opacity:1"/>
<path clip-path="url(#clip030)" d="M1816.13 198.898 L2280.65 198.898 L2280.65 95.2176 L1816.13 95.2176  Z" fill="#ffffff" fill-rule="evenodd" fill-opacity="1"/>
<polyline clip-path="url(#clip030)" style="stroke:#000000; stroke-linecap:round; stroke-linejoin:round; stroke-width:4; stroke-opacity:1; fill:none" points="1816.13,198.898 2280.65,198.898 2280.65,95.2176 1816.13,95.2176 1816.13,198.898 "/>
<polyline clip-path="url(#clip030)" style="stroke:#009af9; stroke-linecap:round; stroke-linejoin:round; stroke-width:4; stroke-opacity:1; fill:none" points="1840.16,147.058 1984.38,147.058 "/>
<line clip-path="url(#clip030)" x1="1912.27" y1="147.058" x2="1890.02" y2="124.802" style="stroke:#009af9; stroke-width:4.55111; stroke-opacity:1"/>
<line clip-path="url(#clip030)" x1="1912.27" y1="147.058" x2="1890.02" y2="169.313" style="stroke:#009af9; stroke-width:4.55111; stroke-opacity:1"/>
<line clip-path="url(#clip030)" x1="1912.27" y1="147.058" x2="1934.53" y2="169.313" style="stroke:#009af9; stroke-width:4.55111; stroke-opacity:1"/>
<line clip-path="url(#clip030)" x1="1912.27" y1="147.058" x2="1934.53" y2="124.802" style="stroke:#009af9; stroke-width:4.55111; stroke-opacity:1"/>
<path clip-path="url(#clip030)" d="M2012.35 128.111 L2012.35 175.518 L2008.42 175.518 L2008.42 128.111 L2012.35 128.111 Z" fill="#000000" fill-rule="nonzero" fill-opacity="1" /><path clip-path="url(#clip030)" d="M2024.76 143.041 Q2026.17 140.68 2029.67 138.597 Q2031.03 137.787 2035.25 137.787 Q2039.97 137.787 2042.91 141.537 Q2045.87 145.287 2045.87 151.398 Q2045.87 157.509 2042.91 161.259 Q2039.97 165.009 2035.25 165.009 Q2032.4 165.009 2030.34 163.898 Q2028.3 162.763 2026.96 160.449 L2026.96 174.199 L2022.68 174.199 L2022.68 151.629 Q2022.68 146.282 2024.76 143.041 M2041.45 151.398 Q2041.45 146.699 2039.51 144.037 Q2037.58 141.352 2034.2 141.352 Q2030.83 141.352 2028.88 144.037 Q2026.96 146.699 2026.96 151.398 Q2026.96 156.097 2028.88 158.782 Q2030.83 161.444 2034.2 161.444 Q2037.58 161.444 2039.51 158.782 Q2041.45 156.097 2041.45 151.398 Z" fill="#000000" fill-rule="nonzero" fill-opacity="1" /><path clip-path="url(#clip030)" d="M2062.98 141.398 Q2059.55 141.398 2057.56 144.083 Q2055.57 146.745 2055.57 151.398 Q2055.57 156.051 2057.54 158.736 Q2059.53 161.398 2062.98 161.398 Q2066.38 161.398 2068.37 158.713 Q2070.36 156.027 2070.36 151.398 Q2070.36 146.791 2068.37 144.106 Q2066.38 141.398 2062.98 141.398 M2062.98 137.787 Q2068.53 137.787 2071.7 141.398 Q2074.88 145.009 2074.88 151.398 Q2074.88 157.764 2071.7 161.398 Q2068.53 165.009 2062.98 165.009 Q2057.4 165.009 2054.23 161.398 Q2051.08 157.764 2051.08 151.398 Q2051.08 145.009 2054.23 141.398 Q2057.4 137.787 2062.98 137.787 Z" fill="#000000" fill-rule="nonzero" fill-opacity="1" /><path clip-path="url(#clip030)" d="M2081.5 154.106 L2081.5 138.412 L2085.76 138.412 L2085.76 153.944 Q2085.76 157.625 2087.19 159.476 Q2088.63 161.305 2091.5 161.305 Q2094.95 161.305 2096.94 159.106 Q2098.95 156.907 2098.95 153.111 L2098.95 138.412 L2103.21 138.412 L2103.21 164.338 L2098.95 164.338 L2098.95 160.356 Q2097.4 162.717 2095.34 163.875 Q2093.3 165.009 2090.59 165.009 Q2086.13 165.009 2083.81 162.231 Q2081.5 159.453 2081.5 154.106 M2092.21 137.787 L2092.21 137.787 Z" fill="#000000" fill-rule="nonzero" fill-opacity="1" /><path clip-path="url(#clip030)" d="M2116.2 131.051 L2116.2 138.412 L2124.97 138.412 L2124.97 141.722 L2116.2 141.722 L2116.2 155.796 Q2116.2 158.967 2117.05 159.87 Q2117.93 160.773 2120.59 160.773 L2124.97 160.773 L2124.97 164.338 L2120.59 164.338 Q2115.66 164.338 2113.79 162.509 Q2111.91 160.657 2111.91 155.796 L2111.91 141.722 L2108.79 141.722 L2108.79 138.412 L2111.91 138.412 L2111.91 131.051 L2116.2 131.051 Z" fill="#000000" fill-rule="nonzero" fill-opacity="1" /><path clip-path="url(#clip030)" d="M2143.49 149.453 L2155.96 149.453 L2155.96 153.25 L2143.49 153.25 L2143.49 149.453 Z" fill="#000000" fill-rule="nonzero" fill-opacity="1" /><path clip-path="url(#clip030)" d="M2179.74 143.041 Q2181.15 140.68 2184.64 138.597 Q2186.01 137.787 2190.22 137.787 Q2194.94 137.787 2197.88 141.537 Q2200.85 145.287 2200.85 151.398 Q2200.85 157.509 2197.88 161.259 Q2194.94 165.009 2190.22 165.009 Q2187.38 165.009 2185.32 163.898 Q2183.28 162.763 2181.94 160.449 L2181.94 174.199 L2177.65 174.199 L2177.65 151.629 Q2177.65 146.282 2179.74 143.041 M2196.43 151.398 Q2196.43 146.699 2194.48 144.037 Q2192.56 141.352 2189.18 141.352 Q2185.8 141.352 2183.86 144.037 Q2181.94 146.699 2181.94 151.398 Q2181.94 156.097 2183.86 158.782 Q2185.8 161.444 2189.18 161.444 Q2192.56 161.444 2194.48 158.782 Q2196.43 156.097 2196.43 151.398 Z" fill="#000000" fill-rule="nonzero" fill-opacity="1" /><path clip-path="url(#clip030)" d="M2207.91 138.412 L2212.17 138.412 L2212.17 164.338 L2207.91 164.338 L2207.91 138.412 M2207.91 128.319 L2212.17 128.319 L2212.17 133.713 L2207.91 133.713 L2207.91 128.319 Z" fill="#000000" fill-rule="nonzero" fill-opacity="1" /><path clip-path="url(#clip030)" d="M2242.63 148.689 L2242.63 164.338 L2238.37 164.338 L2238.37 148.828 Q2238.37 145.148 2236.94 143.319 Q2235.5 141.49 2232.63 141.49 Q2229.18 141.49 2227.19 143.69 Q2225.2 145.889 2225.2 149.685 L2225.2 164.338 L2220.92 164.338 L2220.92 138.412 L2225.2 138.412 L2225.2 142.44 Q2226.73 140.102 2228.79 138.944 Q2230.87 137.787 2233.58 137.787 Q2238.05 137.787 2240.34 140.565 Q2242.63 143.319 2242.63 148.689 Z" fill="#000000" fill-rule="nonzero" fill-opacity="1" /><path clip-path="url(#clip030)" d="M2256.61 128.111 L2256.61 175.518 L2252.68 175.518 L2252.68 128.111 L2256.61 128.111 Z" fill="#000000" fill-rule="nonzero" fill-opacity="1" /></svg>
