<?xml version="1.0" encoding="utf-8"?>
<svg xmlns="http://www.w3.org/2000/svg" xmlns:xlink="http://www.w3.org/1999/xlink" width="600" height="400" viewBox="0 0 2400 1600">
<defs>
  <clipPath id="clip070">
    <rect x="0" y="0" width="2400" height="1600"/>
  </clipPath>
</defs>
<path clip-path="url(#clip070)" d="M0 1600 L2400 1600 L2400 0 L0 0  Z" fill="#ffffff" fill-rule="evenodd" fill-opacity="1"/>
<defs>
  <clipPath id="clip071">
    <rect x="480" y="0" width="1681" height="1600"/>
  </clipPath>
</defs>
<path clip-path="url(#clip070)" d="M279.704 1423.18 L2352.76 1423.18 L2352.76 47.2441 L279.704 47.2441  Z" fill="#ffffff" fill-rule="evenodd" fill-opacity="1"/>
<defs>
  <clipPath id="clip072">
    <rect x="279" y="47" width="2074" height="1377"/>
  </clipPath>
</defs>
<polyline clip-path="url(#clip072)" style="stroke:#000000; stroke-linecap:round; stroke-linejoin:round; stroke-width:2; stroke-opacity:0.1; fill:none" points="338.375,1423.18 338.375,47.2441 "/>
<polyline clip-path="url(#clip072)" style="stroke:#000000; stroke-linecap:round; stroke-linejoin:round; stroke-width:2; stroke-opacity:0.1; fill:none" points="743.005,1423.18 743.005,47.2441 "/>
<polyline clip-path="url(#clip072)" style="stroke:#000000; stroke-linecap:round; stroke-linejoin:round; stroke-width:2; stroke-opacity:0.1; fill:none" points="1147.63,1423.18 1147.63,47.2441 "/>
<polyline clip-path="url(#clip072)" style="stroke:#000000; stroke-linecap:round; stroke-linejoin:round; stroke-width:2; stroke-opacity:0.1; fill:none" points="1552.26,1423.18 1552.26,47.2441 "/>
<polyline clip-path="url(#clip072)" style="stroke:#000000; stroke-linecap:round; stroke-linejoin:round; stroke-width:2; stroke-opacity:0.1; fill:none" points="1956.89,1423.18 1956.89,47.2441 "/>
<polyline clip-path="url(#clip070)" style="stroke:#000000; stroke-linecap:round; stroke-linejoin:round; stroke-width:4; stroke-opacity:1; fill:none" points="279.704,1423.18 2352.76,1423.18 "/>
<polyline clip-path="url(#clip070)" style="stroke:#000000; stroke-linecap:round; stroke-linejoin:round; stroke-width:4; stroke-opacity:1; fill:none" points="338.375,1423.18 338.375,1404.28 "/>
<polyline clip-path="url(#clip070)" style="stroke:#000000; stroke-linecap:round; stroke-linejoin:round; stroke-width:4; stroke-opacity:1; fill:none" points="743.005,1423.18 743.005,1404.28 "/>
<polyline clip-path="url(#clip070)" style="stroke:#000000; stroke-linecap:round; stroke-linejoin:round; stroke-width:4; stroke-opacity:1; fill:none" points="1147.63,1423.18 1147.63,1404.28 "/>
<polyline clip-path="url(#clip070)" style="stroke:#000000; stroke-linecap:round; stroke-linejoin:round; stroke-width:4; stroke-opacity:1; fill:none" points="1552.26,1423.18 1552.26,1404.28 "/>
<polyline clip-path="url(#clip070)" style="stroke:#000000; stroke-linecap:round; stroke-linejoin:round; stroke-width:4; stroke-opacity:1; fill:none" points="1956.89,1423.18 1956.89,1404.28 "/>
<path clip-path="url(#clip070)" d="M315.76 1454.1 Q312.148 1454.1 310.32 1457.66 Q308.514 1461.2 308.514 1468.33 Q308.514 1475.44 310.32 1479.01 Q312.148 1482.55 315.76 1482.55 Q319.394 1482.55 321.199 1479.01 Q323.028 1475.44 323.028 1468.33 Q323.028 1461.2 321.199 1457.66 Q319.394 1454.1 315.76 1454.1 M315.76 1450.39 Q321.57 1450.39 324.625 1455 Q327.704 1459.58 327.704 1468.33 Q327.704 1477.06 324.625 1481.67 Q321.57 1486.25 315.76 1486.25 Q309.949 1486.25 306.871 1481.67 Q303.815 1477.06 303.815 1468.33 Q303.815 1459.58 306.871 1455 Q309.949 1450.39 315.76 1450.39 Z" fill="#000000" fill-rule="nonzero" fill-opacity="1" /><path clip-path="url(#clip070)" d="M335.922 1479.7 L340.806 1479.7 L340.806 1485.58 L335.922 1485.58 L335.922 1479.7 Z" fill="#000000" fill-rule="nonzero" fill-opacity="1" /><path clip-path="url(#clip070)" d="M360.991 1454.1 Q357.38 1454.1 355.551 1457.66 Q353.745 1461.2 353.745 1468.33 Q353.745 1475.44 355.551 1479.01 Q357.38 1482.55 360.991 1482.55 Q364.625 1482.55 366.431 1479.01 Q368.259 1475.44 368.259 1468.33 Q368.259 1461.2 366.431 1457.66 Q364.625 1454.1 360.991 1454.1 M360.991 1450.39 Q366.801 1450.39 369.857 1455 Q372.935 1459.58 372.935 1468.33 Q372.935 1477.06 369.857 1481.67 Q366.801 1486.25 360.991 1486.25 Q355.181 1486.25 352.102 1481.67 Q349.046 1477.06 349.046 1468.33 Q349.046 1459.58 352.102 1455 Q355.181 1450.39 360.991 1450.39 Z" fill="#000000" fill-rule="nonzero" fill-opacity="1" /><path clip-path="url(#clip070)" d="M721.188 1454.1 Q717.577 1454.1 715.748 1457.66 Q713.942 1461.2 713.942 1468.33 Q713.942 1475.44 715.748 1479.01 Q717.577 1482.55 721.188 1482.55 Q724.822 1482.55 726.628 1479.01 Q728.456 1475.44 728.456 1468.33 Q728.456 1461.2 726.628 1457.66 Q724.822 1454.1 721.188 1454.1 M721.188 1450.39 Q726.998 1450.39 730.053 1455 Q733.132 1459.58 733.132 1468.33 Q733.132 1477.06 730.053 1481.67 Q726.998 1486.25 721.188 1486.25 Q715.378 1486.25 712.299 1481.67 Q709.243 1477.06 709.243 1468.33 Q709.243 1459.58 712.299 1455 Q715.378 1450.39 721.188 1450.39 Z" fill="#000000" fill-rule="nonzero" fill-opacity="1" /><path clip-path="url(#clip070)" d="M741.35 1479.7 L746.234 1479.7 L746.234 1485.58 L741.35 1485.58 L741.35 1479.7 Z" fill="#000000" fill-rule="nonzero" fill-opacity="1" /><path clip-path="url(#clip070)" d="M760.447 1481.64 L776.766 1481.64 L776.766 1485.58 L754.822 1485.58 L754.822 1481.64 Q757.484 1478.89 762.067 1474.26 Q766.674 1469.61 767.854 1468.27 Q770.099 1465.74 770.979 1464.01 Q771.882 1462.25 771.882 1460.56 Q771.882 1457.8 769.937 1456.07 Q768.016 1454.33 764.914 1454.33 Q762.715 1454.33 760.262 1455.09 Q757.831 1455.86 755.053 1457.41 L755.053 1452.69 Q757.877 1451.55 760.331 1450.97 Q762.785 1450.39 764.822 1450.39 Q770.192 1450.39 773.387 1453.08 Q776.581 1455.77 776.581 1460.26 Q776.581 1462.39 775.771 1464.31 Q774.984 1466.2 772.877 1468.8 Q772.299 1469.47 769.197 1472.69 Q766.095 1475.88 760.447 1481.64 Z" fill="#000000" fill-rule="nonzero" fill-opacity="1" /><path clip-path="url(#clip070)" d="M1124.78 1454.1 Q1121.16 1454.1 1119.34 1457.66 Q1117.53 1461.2 1117.53 1468.33 Q1117.53 1475.44 1119.34 1479.01 Q1121.16 1482.55 1124.78 1482.55 Q1128.41 1482.55 1130.22 1479.01 Q1132.04 1475.44 1132.04 1468.33 Q1132.04 1461.2 1130.22 1457.66 Q1128.41 1454.1 1124.78 1454.1 M1124.78 1450.39 Q1130.59 1450.39 1133.64 1455 Q1136.72 1459.58 1136.72 1468.33 Q1136.72 1477.06 1133.64 1481.67 Q1130.59 1486.25 1124.78 1486.25 Q1118.97 1486.25 1115.89 1481.67 Q1112.83 1477.06 1112.83 1468.33 Q1112.83 1459.58 1115.89 1455 Q1118.97 1450.39 1124.78 1450.39 Z" fill="#000000" fill-rule="nonzero" fill-opacity="1" /><path clip-path="url(#clip070)" d="M1144.94 1479.7 L1149.82 1479.7 L1149.82 1485.58 L1144.94 1485.58 L1144.94 1479.7 Z" fill="#000000" fill-rule="nonzero" fill-opacity="1" /><path clip-path="url(#clip070)" d="M1172.85 1455.09 L1161.05 1473.54 L1172.85 1473.54 L1172.85 1455.09 M1171.63 1451.02 L1177.51 1451.02 L1177.51 1473.54 L1182.44 1473.54 L1182.44 1477.43 L1177.51 1477.43 L1177.51 1485.58 L1172.85 1485.58 L1172.85 1477.43 L1157.25 1477.43 L1157.25 1472.92 L1171.63 1451.02 Z" fill="#000000" fill-rule="nonzero" fill-opacity="1" /><path clip-path="url(#clip070)" d="M1529.57 1454.1 Q1525.96 1454.1 1524.13 1457.66 Q1522.32 1461.2 1522.32 1468.33 Q1522.32 1475.44 1524.13 1479.01 Q1525.96 1482.55 1529.57 1482.55 Q1533.2 1482.55 1535.01 1479.01 Q1536.84 1475.44 1536.84 1468.33 Q1536.84 1461.2 1535.01 1457.66 Q1533.2 1454.1 1529.57 1454.1 M1529.57 1450.39 Q1535.38 1450.39 1538.43 1455 Q1541.51 1459.58 1541.51 1468.33 Q1541.51 1477.06 1538.43 1481.67 Q1535.38 1486.25 1529.57 1486.25 Q1523.76 1486.25 1520.68 1481.67 Q1517.62 1477.06 1517.62 1468.33 Q1517.62 1459.58 1520.68 1455 Q1523.76 1450.39 1529.57 1450.39 Z" fill="#000000" fill-rule="nonzero" fill-opacity="1" /><path clip-path="url(#clip070)" d="M1549.73 1479.7 L1554.61 1479.7 L1554.61 1485.58 L1549.73 1485.58 L1549.73 1479.7 Z" fill="#000000" fill-rule="nonzero" fill-opacity="1" /><path clip-path="url(#clip070)" d="M1575.38 1466.44 Q1572.23 1466.44 1570.38 1468.59 Q1568.55 1470.74 1568.55 1474.49 Q1568.55 1478.22 1570.38 1480.39 Q1572.23 1482.55 1575.38 1482.55 Q1578.53 1482.55 1580.35 1480.39 Q1582.21 1478.22 1582.21 1474.49 Q1582.21 1470.74 1580.35 1468.59 Q1578.53 1466.44 1575.38 1466.44 M1584.66 1451.78 L1584.66 1456.04 Q1582.9 1455.21 1581.09 1454.77 Q1579.31 1454.33 1577.55 1454.33 Q1572.92 1454.33 1570.47 1457.45 Q1568.04 1460.58 1567.69 1466.9 Q1569.06 1464.89 1571.12 1463.82 Q1573.18 1462.73 1575.65 1462.73 Q1580.86 1462.73 1583.87 1465.9 Q1586.9 1469.05 1586.9 1474.49 Q1586.9 1479.82 1583.76 1483.03 Q1580.61 1486.25 1575.38 1486.25 Q1569.38 1486.25 1566.21 1481.67 Q1563.04 1477.06 1563.04 1468.33 Q1563.04 1460.14 1566.93 1455.28 Q1570.82 1450.39 1577.37 1450.39 Q1579.13 1450.39 1580.91 1450.74 Q1582.72 1451.09 1584.66 1451.78 Z" fill="#000000" fill-rule="nonzero" fill-opacity="1" /><path clip-path="url(#clip070)" d="M1934.32 1454.1 Q1930.71 1454.1 1928.88 1457.66 Q1927.08 1461.2 1927.08 1468.33 Q1927.08 1475.44 1928.88 1479.01 Q1930.71 1482.55 1934.32 1482.55 Q1937.96 1482.55 1939.76 1479.01 Q1941.59 1475.44 1941.59 1468.33 Q1941.59 1461.2 1939.76 1457.66 Q1937.96 1454.1 1934.32 1454.1 M1934.32 1450.39 Q1940.13 1450.39 1943.19 1455 Q1946.27 1459.58 1946.27 1468.33 Q1946.27 1477.06 1943.19 1481.67 Q1940.13 1486.25 1934.32 1486.25 Q1928.51 1486.25 1925.44 1481.67 Q1922.38 1477.06 1922.38 1468.33 Q1922.38 1459.58 1925.44 1455 Q1928.51 1450.39 1934.32 1450.39 Z" fill="#000000" fill-rule="nonzero" fill-opacity="1" /><path clip-path="url(#clip070)" d="M1954.49 1479.7 L1959.37 1479.7 L1959.37 1485.58 L1954.49 1485.58 L1954.49 1479.7 Z" fill="#000000" fill-rule="nonzero" fill-opacity="1" /><path clip-path="url(#clip070)" d="M1979.56 1469.17 Q1976.22 1469.17 1974.3 1470.95 Q1972.4 1472.73 1972.4 1475.86 Q1972.4 1478.98 1974.3 1480.77 Q1976.22 1482.55 1979.56 1482.55 Q1982.89 1482.55 1984.81 1480.77 Q1986.73 1478.96 1986.73 1475.86 Q1986.73 1472.73 1984.81 1470.95 Q1982.91 1469.17 1979.56 1469.17 M1974.88 1467.18 Q1971.87 1466.44 1970.18 1464.38 Q1968.51 1462.32 1968.51 1459.35 Q1968.51 1455.21 1971.45 1452.8 Q1974.42 1450.39 1979.56 1450.39 Q1984.72 1450.39 1987.66 1452.8 Q1990.6 1455.21 1990.6 1459.35 Q1990.6 1462.32 1988.91 1464.38 Q1987.24 1466.44 1984.25 1467.18 Q1987.63 1467.96 1989.51 1470.26 Q1991.41 1472.55 1991.41 1475.86 Q1991.41 1480.88 1988.33 1483.57 Q1985.27 1486.25 1979.56 1486.25 Q1973.84 1486.25 1970.76 1483.57 Q1967.7 1480.88 1967.7 1475.86 Q1967.7 1472.55 1969.6 1470.26 Q1971.5 1467.96 1974.88 1467.18 M1973.17 1459.79 Q1973.17 1462.48 1974.83 1463.98 Q1976.52 1465.49 1979.56 1465.49 Q1982.56 1465.49 1984.25 1463.98 Q1985.97 1462.48 1985.97 1459.79 Q1985.97 1457.11 1984.25 1455.6 Q1982.56 1454.1 1979.56 1454.1 Q1976.52 1454.1 1974.83 1455.6 Q1973.17 1457.11 1973.17 1459.79 Z" fill="#000000" fill-rule="nonzero" fill-opacity="1" /><path clip-path="url(#clip070)" d="M1332.84 1532.4 L1319.95 1549.74 L1333.51 1568.04 L1326.61 1568.04 L1316.23 1554.04 L1305.85 1568.04 L1298.95 1568.04 L1312.79 1549.39 L1300.12 1532.4 L1307.03 1532.4 L1316.48 1545.1 L1325.94 1532.4 L1332.84 1532.4 Z" fill="#000000" fill-rule="nonzero" fill-opacity="1" /><polyline clip-path="url(#clip072)" style="stroke:#000000; stroke-linecap:round; stroke-linejoin:round; stroke-width:2; stroke-opacity:0.1; fill:none" points="279.704,1267.76 2352.76,1267.76 "/>
<polyline clip-path="url(#clip072)" style="stroke:#000000; stroke-linecap:round; stroke-linejoin:round; stroke-width:2; stroke-opacity:0.1; fill:none" points="279.704,1036.84 2352.76,1036.84 "/>
<polyline clip-path="url(#clip072)" style="stroke:#000000; stroke-linecap:round; stroke-linejoin:round; stroke-width:2; stroke-opacity:0.1; fill:none" points="279.704,805.927 2352.76,805.927 "/>
<polyline clip-path="url(#clip072)" style="stroke:#000000; stroke-linecap:round; stroke-linejoin:round; stroke-width:2; stroke-opacity:0.1; fill:none" points="279.704,575.009 2352.76,575.009 "/>
<polyline clip-path="url(#clip072)" style="stroke:#000000; stroke-linecap:round; stroke-linejoin:round; stroke-width:2; stroke-opacity:0.1; fill:none" points="279.704,344.091 2352.76,344.091 "/>
<polyline clip-path="url(#clip072)" style="stroke:#000000; stroke-linecap:round; stroke-linejoin:round; stroke-width:2; stroke-opacity:0.1; fill:none" points="279.704,113.172 2352.76,113.172 "/>
<polyline clip-path="url(#clip070)" style="stroke:#000000; stroke-linecap:round; stroke-linejoin:round; stroke-width:4; stroke-opacity:1; fill:none" points="279.704,1423.18 279.704,47.2441 "/>
<polyline clip-path="url(#clip070)" style="stroke:#000000; stroke-linecap:round; stroke-linejoin:round; stroke-width:4; stroke-opacity:1; fill:none" points="279.704,1267.76 298.602,1267.76 "/>
<polyline clip-path="url(#clip070)" style="stroke:#000000; stroke-linecap:round; stroke-linejoin:round; stroke-width:4; stroke-opacity:1; fill:none" points="279.704,1036.84 298.602,1036.84 "/>
<polyline clip-path="url(#clip070)" style="stroke:#000000; stroke-linecap:round; stroke-linejoin:round; stroke-width:4; stroke-opacity:1; fill:none" points="279.704,805.927 298.602,805.927 "/>
<polyline clip-path="url(#clip070)" style="stroke:#000000; stroke-linecap:round; stroke-linejoin:round; stroke-width:4; stroke-opacity:1; fill:none" points="279.704,575.009 298.602,575.009 "/>
<polyline clip-path="url(#clip070)" style="stroke:#000000; stroke-linecap:round; stroke-linejoin:round; stroke-width:4; stroke-opacity:1; fill:none" points="279.704,344.091 298.602,344.091 "/>
<polyline clip-path="url(#clip070)" style="stroke:#000000; stroke-linecap:round; stroke-linejoin:round; stroke-width:4; stroke-opacity:1; fill:none" points="279.704,113.172 298.602,113.172 "/>
<path clip-path="url(#clip070)" d="M126.205 1253.56 Q122.593 1253.56 120.765 1257.13 Q118.959 1260.67 118.959 1267.8 Q118.959 1274.9 120.765 1278.47 Q122.593 1282.01 126.205 1282.01 Q129.839 1282.01 131.644 1278.47 Q133.473 1274.9 133.473 1267.8 Q133.473 1260.67 131.644 1257.13 Q129.839 1253.56 126.205 1253.56 M126.205 1249.86 Q132.015 1249.86 135.07 1254.46 Q138.149 1259.05 138.149 1267.8 Q138.149 1276.52 135.07 1281.13 Q132.015 1285.71 126.205 1285.71 Q120.394 1285.71 117.316 1281.13 Q114.26 1276.52 114.26 1267.8 Q114.26 1259.05 117.316 1254.46 Q120.394 1249.86 126.205 1249.86 Z" fill="#000000" fill-rule="nonzero" fill-opacity="1" /><path clip-path="url(#clip070)" d="M146.366 1279.16 L151.251 1279.16 L151.251 1285.04 L146.366 1285.04 L146.366 1279.16 Z" fill="#000000" fill-rule="nonzero" fill-opacity="1" /><path clip-path="url(#clip070)" d="M171.436 1253.56 Q167.825 1253.56 165.996 1257.13 Q164.19 1260.67 164.19 1267.8 Q164.19 1274.9 165.996 1278.47 Q167.825 1282.01 171.436 1282.01 Q175.07 1282.01 176.876 1278.47 Q178.704 1274.9 178.704 1267.8 Q178.704 1260.67 176.876 1257.13 Q175.07 1253.56 171.436 1253.56 M171.436 1249.86 Q177.246 1249.86 180.301 1254.46 Q183.38 1259.05 183.38 1267.8 Q183.38 1276.52 180.301 1281.13 Q177.246 1285.71 171.436 1285.71 Q165.626 1285.71 162.547 1281.13 Q159.491 1276.52 159.491 1267.8 Q159.491 1259.05 162.547 1254.46 Q165.626 1249.86 171.436 1249.86 Z" fill="#000000" fill-rule="nonzero" fill-opacity="1" /><path clip-path="url(#clip070)" d="M202.176 1265.9 Q199.028 1265.9 197.176 1268.05 Q195.348 1270.21 195.348 1273.96 Q195.348 1277.68 197.176 1279.86 Q199.028 1282.01 202.176 1282.01 Q205.324 1282.01 207.153 1279.86 Q209.005 1277.68 209.005 1273.96 Q209.005 1270.21 207.153 1268.05 Q205.324 1265.9 202.176 1265.9 M211.459 1251.25 L211.459 1255.51 Q209.699 1254.67 207.894 1254.23 Q206.112 1253.79 204.352 1253.79 Q199.723 1253.79 197.269 1256.92 Q194.838 1260.04 194.491 1266.36 Q195.857 1264.35 197.917 1263.28 Q199.977 1262.2 202.454 1262.2 Q207.662 1262.2 210.672 1265.37 Q213.704 1268.52 213.704 1273.96 Q213.704 1279.28 210.556 1282.5 Q207.408 1285.71 202.176 1285.71 Q196.181 1285.71 193.01 1281.13 Q189.838 1276.52 189.838 1267.8 Q189.838 1259.6 193.727 1254.74 Q197.616 1249.86 204.167 1249.86 Q205.926 1249.86 207.709 1250.21 Q209.514 1250.55 211.459 1251.25 Z" fill="#000000" fill-rule="nonzero" fill-opacity="1" /><path clip-path="url(#clip070)" d="M231.76 1253.56 Q228.148 1253.56 226.32 1257.13 Q224.514 1260.67 224.514 1267.8 Q224.514 1274.9 226.32 1278.47 Q228.148 1282.01 231.76 1282.01 Q235.394 1282.01 237.199 1278.47 Q239.028 1274.9 239.028 1267.8 Q239.028 1260.67 237.199 1257.13 Q235.394 1253.56 231.76 1253.56 M231.76 1249.86 Q237.57 1249.86 240.625 1254.46 Q243.704 1259.05 243.704 1267.8 Q243.704 1276.52 240.625 1281.13 Q237.57 1285.71 231.76 1285.71 Q225.949 1285.71 222.871 1281.13 Q219.815 1276.52 219.815 1267.8 Q219.815 1259.05 222.871 1254.46 Q225.949 1249.86 231.76 1249.86 Z" fill="#000000" fill-rule="nonzero" fill-opacity="1" /><path clip-path="url(#clip070)" d="M127.2 1022.64 Q123.589 1022.64 121.76 1026.21 Q119.955 1029.75 119.955 1036.88 Q119.955 1043.99 121.76 1047.55 Q123.589 1051.09 127.2 1051.09 Q130.834 1051.09 132.64 1047.55 Q134.468 1043.99 134.468 1036.88 Q134.468 1029.75 132.64 1026.21 Q130.834 1022.64 127.2 1022.64 M127.2 1018.94 Q133.01 1018.94 136.066 1023.55 Q139.144 1028.13 139.144 1036.88 Q139.144 1045.61 136.066 1050.21 Q133.01 1054.8 127.2 1054.8 Q121.39 1054.8 118.311 1050.21 Q115.256 1045.61 115.256 1036.88 Q115.256 1028.13 118.311 1023.55 Q121.39 1018.94 127.2 1018.94 Z" fill="#000000" fill-rule="nonzero" fill-opacity="1" /><path clip-path="url(#clip070)" d="M147.362 1048.25 L152.246 1048.25 L152.246 1054.12 L147.362 1054.12 L147.362 1048.25 Z" fill="#000000" fill-rule="nonzero" fill-opacity="1" /><path clip-path="url(#clip070)" d="M172.431 1022.64 Q168.82 1022.64 166.991 1026.21 Q165.186 1029.75 165.186 1036.88 Q165.186 1043.99 166.991 1047.55 Q168.82 1051.09 172.431 1051.09 Q176.065 1051.09 177.871 1047.55 Q179.7 1043.99 179.7 1036.88 Q179.7 1029.75 177.871 1026.21 Q176.065 1022.64 172.431 1022.64 M172.431 1018.94 Q178.241 1018.94 181.297 1023.55 Q184.376 1028.13 184.376 1036.88 Q184.376 1045.61 181.297 1050.21 Q178.241 1054.8 172.431 1054.8 Q166.621 1054.8 163.542 1050.21 Q160.487 1045.61 160.487 1036.88 Q160.487 1028.13 163.542 1023.55 Q166.621 1018.94 172.431 1018.94 Z" fill="#000000" fill-rule="nonzero" fill-opacity="1" /><path clip-path="url(#clip070)" d="M203.172 1034.98 Q200.024 1034.98 198.172 1037.13 Q196.343 1039.29 196.343 1043.04 Q196.343 1046.76 198.172 1048.94 Q200.024 1051.09 203.172 1051.09 Q206.32 1051.09 208.149 1048.94 Q210 1046.76 210 1043.04 Q210 1039.29 208.149 1037.13 Q206.32 1034.98 203.172 1034.98 M212.454 1020.33 L212.454 1024.59 Q210.695 1023.75 208.889 1023.31 Q207.107 1022.88 205.348 1022.88 Q200.718 1022.88 198.264 1026 Q195.834 1029.13 195.487 1035.44 Q196.852 1033.43 198.912 1032.37 Q200.973 1031.28 203.449 1031.28 Q208.658 1031.28 211.667 1034.45 Q214.699 1037.6 214.699 1043.04 Q214.699 1048.36 211.551 1051.58 Q208.403 1054.8 203.172 1054.8 Q197.176 1054.8 194.005 1050.21 Q190.834 1045.61 190.834 1036.88 Q190.834 1028.69 194.723 1023.82 Q198.612 1018.94 205.162 1018.94 Q206.922 1018.94 208.704 1019.29 Q210.51 1019.63 212.454 1020.33 Z" fill="#000000" fill-rule="nonzero" fill-opacity="1" /><path clip-path="url(#clip070)" d="M222.801 1019.56 L241.158 1019.56 L241.158 1023.5 L227.084 1023.5 L227.084 1031.97 Q228.102 1031.63 229.121 1031.46 Q230.139 1031.28 231.158 1031.28 Q236.945 1031.28 240.324 1034.45 Q243.704 1037.62 243.704 1043.04 Q243.704 1048.62 240.232 1051.72 Q236.76 1054.8 230.44 1054.8 Q228.264 1054.8 225.996 1054.43 Q223.75 1054.06 221.343 1053.31 L221.343 1048.62 Q223.426 1049.75 225.648 1050.31 Q227.871 1050.86 230.347 1050.86 Q234.352 1050.86 236.69 1048.75 Q239.028 1046.65 239.028 1043.04 Q239.028 1039.43 236.69 1037.32 Q234.352 1035.21 230.347 1035.21 Q228.473 1035.21 226.598 1035.63 Q224.746 1036.05 222.801 1036.93 L222.801 1019.56 Z" fill="#000000" fill-rule="nonzero" fill-opacity="1" /><path clip-path="url(#clip070)" d="M126.205 791.725 Q122.593 791.725 120.765 795.29 Q118.959 798.832 118.959 805.961 Q118.959 813.068 120.765 816.633 Q122.593 820.174 126.205 820.174 Q129.839 820.174 131.644 816.633 Q133.473 813.068 133.473 805.961 Q133.473 798.832 131.644 795.29 Q129.839 791.725 126.205 791.725 M126.205 788.022 Q132.015 788.022 135.07 792.628 Q138.149 797.212 138.149 805.961 Q138.149 814.688 135.07 819.295 Q132.015 823.878 126.205 823.878 Q120.394 823.878 117.316 819.295 Q114.26 814.688 114.26 805.961 Q114.26 797.212 117.316 792.628 Q120.394 788.022 126.205 788.022 Z" fill="#000000" fill-rule="nonzero" fill-opacity="1" /><path clip-path="url(#clip070)" d="M146.366 817.327 L151.251 817.327 L151.251 823.207 L146.366 823.207 L146.366 817.327 Z" fill="#000000" fill-rule="nonzero" fill-opacity="1" /><path clip-path="url(#clip070)" d="M171.436 791.725 Q167.825 791.725 165.996 795.29 Q164.19 798.832 164.19 805.961 Q164.19 813.068 165.996 816.633 Q167.825 820.174 171.436 820.174 Q175.07 820.174 176.876 816.633 Q178.704 813.068 178.704 805.961 Q178.704 798.832 176.876 795.29 Q175.07 791.725 171.436 791.725 M171.436 788.022 Q177.246 788.022 180.301 792.628 Q183.38 797.212 183.38 805.961 Q183.38 814.688 180.301 819.295 Q177.246 823.878 171.436 823.878 Q165.626 823.878 162.547 819.295 Q159.491 814.688 159.491 805.961 Q159.491 797.212 162.547 792.628 Q165.626 788.022 171.436 788.022 Z" fill="#000000" fill-rule="nonzero" fill-opacity="1" /><path clip-path="url(#clip070)" d="M190.417 788.647 L212.639 788.647 L212.639 790.638 L200.093 823.207 L195.209 823.207 L207.014 792.582 L190.417 792.582 L190.417 788.647 Z" fill="#000000" fill-rule="nonzero" fill-opacity="1" /><path clip-path="url(#clip070)" d="M231.76 791.725 Q228.148 791.725 226.32 795.29 Q224.514 798.832 224.514 805.961 Q224.514 813.068 226.32 816.633 Q228.148 820.174 231.76 820.174 Q235.394 820.174 237.199 816.633 Q239.028 813.068 239.028 805.961 Q239.028 798.832 237.199 795.29 Q235.394 791.725 231.76 791.725 M231.76 788.022 Q237.57 788.022 240.625 792.628 Q243.704 797.212 243.704 805.961 Q243.704 814.688 240.625 819.295 Q237.57 823.878 231.76 823.878 Q225.949 823.878 222.871 819.295 Q219.815 814.688 219.815 805.961 Q219.815 797.212 222.871 792.628 Q225.949 788.022 231.76 788.022 Z" fill="#000000" fill-rule="nonzero" fill-opacity="1" /><path clip-path="url(#clip070)" d="M127.2 560.807 Q123.589 560.807 121.76 564.372 Q119.955 567.914 119.955 575.043 Q119.955 582.15 121.76 585.715 Q123.589 589.256 127.2 589.256 Q130.834 589.256 132.64 585.715 Q134.468 582.15 134.468 575.043 Q134.468 567.914 132.64 564.372 Q130.834 560.807 127.2 560.807 M127.2 557.104 Q133.01 557.104 136.066 561.71 Q139.144 566.293 139.144 575.043 Q139.144 583.77 136.066 588.377 Q133.01 592.96 127.2 592.96 Q121.39 592.96 118.311 588.377 Q115.256 583.77 115.256 575.043 Q115.256 566.293 118.311 561.71 Q121.39 557.104 127.2 557.104 Z" fill="#000000" fill-rule="nonzero" fill-opacity="1" /><path clip-path="url(#clip070)" d="M147.362 586.409 L152.246 586.409 L152.246 592.289 L147.362 592.289 L147.362 586.409 Z" fill="#000000" fill-rule="nonzero" fill-opacity="1" /><path clip-path="url(#clip070)" d="M172.431 560.807 Q168.82 560.807 166.991 564.372 Q165.186 567.914 165.186 575.043 Q165.186 582.15 166.991 585.715 Q168.82 589.256 172.431 589.256 Q176.065 589.256 177.871 585.715 Q179.7 582.15 179.7 575.043 Q179.7 567.914 177.871 564.372 Q176.065 560.807 172.431 560.807 M172.431 557.104 Q178.241 557.104 181.297 561.71 Q184.376 566.293 184.376 575.043 Q184.376 583.77 181.297 588.377 Q178.241 592.96 172.431 592.96 Q166.621 592.96 163.542 588.377 Q160.487 583.77 160.487 575.043 Q160.487 566.293 163.542 561.71 Q166.621 557.104 172.431 557.104 Z" fill="#000000" fill-rule="nonzero" fill-opacity="1" /><path clip-path="url(#clip070)" d="M191.413 557.729 L213.635 557.729 L213.635 559.719 L201.088 592.289 L196.204 592.289 L208.01 561.664 L191.413 561.664 L191.413 557.729 Z" fill="#000000" fill-rule="nonzero" fill-opacity="1" /><path clip-path="url(#clip070)" d="M222.801 557.729 L241.158 557.729 L241.158 561.664 L227.084 561.664 L227.084 570.136 Q228.102 569.789 229.121 569.627 Q230.139 569.442 231.158 569.442 Q236.945 569.442 240.324 572.613 Q243.704 575.784 243.704 581.201 Q243.704 586.779 240.232 589.881 Q236.76 592.96 230.44 592.96 Q228.264 592.96 225.996 592.59 Q223.75 592.219 221.343 591.478 L221.343 586.779 Q223.426 587.914 225.648 588.469 Q227.871 589.025 230.347 589.025 Q234.352 589.025 236.69 586.918 Q239.028 584.812 239.028 581.201 Q239.028 577.59 236.69 575.483 Q234.352 573.377 230.347 573.377 Q228.473 573.377 226.598 573.793 Q224.746 574.21 222.801 575.09 L222.801 557.729 Z" fill="#000000" fill-rule="nonzero" fill-opacity="1" /><path clip-path="url(#clip070)" d="M126.205 329.889 Q122.593 329.889 120.765 333.454 Q118.959 336.996 118.959 344.125 Q118.959 351.232 120.765 354.797 Q122.593 358.338 126.205 358.338 Q129.839 358.338 131.644 354.797 Q133.473 351.232 133.473 344.125 Q133.473 336.996 131.644 333.454 Q129.839 329.889 126.205 329.889 M126.205 326.186 Q132.015 326.186 135.07 330.792 Q138.149 335.375 138.149 344.125 Q138.149 352.852 135.07 357.459 Q132.015 362.042 126.205 362.042 Q120.394 362.042 117.316 357.459 Q114.26 352.852 114.26 344.125 Q114.26 335.375 117.316 330.792 Q120.394 326.186 126.205 326.186 Z" fill="#000000" fill-rule="nonzero" fill-opacity="1" /><path clip-path="url(#clip070)" d="M146.366 355.491 L151.251 355.491 L151.251 361.371 L146.366 361.371 L146.366 355.491 Z" fill="#000000" fill-rule="nonzero" fill-opacity="1" /><path clip-path="url(#clip070)" d="M171.436 329.889 Q167.825 329.889 165.996 333.454 Q164.19 336.996 164.19 344.125 Q164.19 351.232 165.996 354.797 Q167.825 358.338 171.436 358.338 Q175.07 358.338 176.876 354.797 Q178.704 351.232 178.704 344.125 Q178.704 336.996 176.876 333.454 Q175.07 329.889 171.436 329.889 M171.436 326.186 Q177.246 326.186 180.301 330.792 Q183.38 335.375 183.38 344.125 Q183.38 352.852 180.301 357.459 Q177.246 362.042 171.436 362.042 Q165.626 362.042 162.547 357.459 Q159.491 352.852 159.491 344.125 Q159.491 335.375 162.547 330.792 Q165.626 326.186 171.436 326.186 Z" fill="#000000" fill-rule="nonzero" fill-opacity="1" /><path clip-path="url(#clip070)" d="M201.598 344.959 Q198.264 344.959 196.343 346.741 Q194.445 348.523 194.445 351.648 Q194.445 354.773 196.343 356.556 Q198.264 358.338 201.598 358.338 Q204.931 358.338 206.852 356.556 Q208.774 354.75 208.774 351.648 Q208.774 348.523 206.852 346.741 Q204.954 344.959 201.598 344.959 M196.922 342.968 Q193.913 342.227 192.223 340.167 Q190.556 338.107 190.556 335.144 Q190.556 331 193.496 328.593 Q196.459 326.186 201.598 326.186 Q206.76 326.186 209.699 328.593 Q212.639 331 212.639 335.144 Q212.639 338.107 210.949 340.167 Q209.283 342.227 206.297 342.968 Q209.676 343.755 211.551 346.047 Q213.449 348.338 213.449 351.648 Q213.449 356.672 210.371 359.357 Q207.315 362.042 201.598 362.042 Q195.88 362.042 192.801 359.357 Q189.746 356.672 189.746 351.648 Q189.746 348.338 191.644 346.047 Q193.542 343.755 196.922 342.968 M195.209 335.584 Q195.209 338.269 196.875 339.773 Q198.565 341.278 201.598 341.278 Q204.607 341.278 206.297 339.773 Q208.01 338.269 208.01 335.584 Q208.01 332.898 206.297 331.394 Q204.607 329.889 201.598 329.889 Q198.565 329.889 196.875 331.394 Q195.209 332.898 195.209 335.584 Z" fill="#000000" fill-rule="nonzero" fill-opacity="1" /><path clip-path="url(#clip070)" d="M231.76 329.889 Q228.148 329.889 226.32 333.454 Q224.514 336.996 224.514 344.125 Q224.514 351.232 226.32 354.797 Q228.148 358.338 231.76 358.338 Q235.394 358.338 237.199 354.797 Q239.028 351.232 239.028 344.125 Q239.028 336.996 237.199 333.454 Q235.394 329.889 231.76 329.889 M231.76 326.186 Q237.57 326.186 240.625 330.792 Q243.704 335.375 243.704 344.125 Q243.704 352.852 240.625 357.459 Q237.57 362.042 231.76 362.042 Q225.949 362.042 222.871 357.459 Q219.815 352.852 219.815 344.125 Q219.815 335.375 222.871 330.792 Q225.949 326.186 231.76 326.186 Z" fill="#000000" fill-rule="nonzero" fill-opacity="1" /><path clip-path="url(#clip070)" d="M127.2 98.9711 Q123.589 98.9711 121.76 102.536 Q119.955 106.078 119.955 113.207 Q119.955 120.314 121.76 123.878 Q123.589 127.42 127.2 127.42 Q130.834 127.42 132.64 123.878 Q134.468 120.314 134.468 113.207 Q134.468 106.078 132.64 102.536 Q130.834 98.9711 127.2 98.9711 M127.2 95.2675 Q133.01 95.2675 136.066 99.8739 Q139.144 104.457 139.144 113.207 Q139.144 121.934 136.066 126.54 Q133.01 131.124 127.2 131.124 Q121.39 131.124 118.311 126.54 Q115.256 121.934 115.256 113.207 Q115.256 104.457 118.311 99.8739 Q121.39 95.2675 127.2 95.2675 Z" fill="#000000" fill-rule="nonzero" fill-opacity="1" /><path clip-path="url(#clip070)" d="M147.362 124.573 L152.246 124.573 L152.246 130.452 L147.362 130.452 L147.362 124.573 Z" fill="#000000" fill-rule="nonzero" fill-opacity="1" /><path clip-path="url(#clip070)" d="M172.431 98.9711 Q168.82 98.9711 166.991 102.536 Q165.186 106.078 165.186 113.207 Q165.186 120.314 166.991 123.878 Q168.82 127.42 172.431 127.42 Q176.065 127.42 177.871 123.878 Q179.7 120.314 179.7 113.207 Q179.7 106.078 177.871 102.536 Q176.065 98.9711 172.431 98.9711 M172.431 95.2675 Q178.241 95.2675 181.297 99.8739 Q184.376 104.457 184.376 113.207 Q184.376 121.934 181.297 126.54 Q178.241 131.124 172.431 131.124 Q166.621 131.124 163.542 126.54 Q160.487 121.934 160.487 113.207 Q160.487 104.457 163.542 99.8739 Q166.621 95.2675 172.431 95.2675 Z" fill="#000000" fill-rule="nonzero" fill-opacity="1" /><path clip-path="url(#clip070)" d="M202.593 114.041 Q199.26 114.041 197.338 115.823 Q195.44 117.605 195.44 120.73 Q195.44 123.855 197.338 125.638 Q199.26 127.42 202.593 127.42 Q205.926 127.42 207.848 125.638 Q209.769 123.832 209.769 120.73 Q209.769 117.605 207.848 115.823 Q205.949 114.041 202.593 114.041 M197.917 112.05 Q194.908 111.309 193.218 109.249 Q191.551 107.189 191.551 104.226 Q191.551 100.082 194.491 97.6748 Q197.454 95.2675 202.593 95.2675 Q207.755 95.2675 210.695 97.6748 Q213.635 100.082 213.635 104.226 Q213.635 107.189 211.945 109.249 Q210.278 111.309 207.292 112.05 Q210.672 112.837 212.547 115.128 Q214.445 117.42 214.445 120.73 Q214.445 125.753 211.366 128.439 Q208.311 131.124 202.593 131.124 Q196.875 131.124 193.797 128.439 Q190.741 125.753 190.741 120.73 Q190.741 117.42 192.639 115.128 Q194.538 112.837 197.917 112.05 M196.204 104.666 Q196.204 107.351 197.871 108.855 Q199.561 110.36 202.593 110.36 Q205.602 110.36 207.292 108.855 Q209.005 107.351 209.005 104.666 Q209.005 101.98 207.292 100.476 Q205.602 98.9711 202.593 98.9711 Q199.561 98.9711 197.871 100.476 Q196.204 101.98 196.204 104.666 Z" fill="#000000" fill-rule="nonzero" fill-opacity="1" /><path clip-path="url(#clip070)" d="M222.801 95.8925 L241.158 95.8925 L241.158 99.8276 L227.084 99.8276 L227.084 108.3 Q228.102 107.953 229.121 107.791 Q230.139 107.605 231.158 107.605 Q236.945 107.605 240.324 110.777 Q243.704 113.948 243.704 119.365 Q243.704 124.943 240.232 128.045 Q236.76 131.124 230.44 131.124 Q228.264 131.124 225.996 130.753 Q223.75 130.383 221.343 129.642 L221.343 124.943 Q223.426 126.077 225.648 126.633 Q227.871 127.189 230.347 127.189 Q234.352 127.189 236.69 125.082 Q239.028 122.976 239.028 119.365 Q239.028 115.753 236.69 113.647 Q234.352 111.541 230.347 111.541 Q228.473 111.541 226.598 111.957 Q224.746 112.374 222.801 113.253 L222.801 95.8925 Z" fill="#000000" fill-rule="nonzero" fill-opacity="1" /><path clip-path="url(#clip070)" d="M34.7219 748.293 Q31.4754 746.352 28.6108 741.546 Q27.4968 739.668 27.4968 733.875 Q27.4968 727.382 32.6531 723.34 Q37.8093 719.266 46.212 719.266 Q54.6147 719.266 59.771 723.34 Q64.9272 727.382 64.9272 733.875 Q64.9272 737.79 63.3994 740.623 Q61.8398 743.424 58.657 745.27 L77.5631 745.27 L77.5631 751.158 L46.5303 751.158 Q39.1779 751.158 34.7219 748.293 M46.212 725.345 Q39.7508 725.345 36.0905 728.019 Q32.3984 730.66 32.3984 735.307 Q32.3984 739.954 36.0905 742.628 Q39.7508 745.27 46.212 745.27 Q52.6732 745.27 56.3653 742.628 Q60.0256 739.954 60.0256 735.307 Q60.0256 730.66 56.3653 728.019 Q52.6732 725.345 46.212 725.345 Z" fill="#000000" fill-rule="nonzero" fill-opacity="1" /><polyline clip-path="url(#clip072)" style="stroke:#009af9; stroke-linecap:round; stroke-linejoin:round; stroke-width:4; stroke-opacity:1; fill:none" points="338.375,86.1857 405.813,103.301 473.252,165.387 540.69,300.501 608.128,534.437 675.566,853.249 743.005,1176.9 810.443,1384.24 877.881,1384.24 945.319,1176.9 1012.76,853.249 1080.2,534.437 1147.63,300.501 1215.07,165.387 1282.51,103.301 1349.95,86.1857 1417.39,103.301 1484.83,165.387 1552.26,300.501 1619.7,534.437 1687.14,853.249 1754.58,1176.9 1822.02,1384.24 1889.46,1384.24 1956.89,1176.9 2024.33,853.249 2091.77,534.437 2159.21,300.501 2226.65,165.387 2294.08,103.301 "/>
<circle clip-path="url(#clip072)" cx="338.375" cy="86.1857" r="7.2" fill="#009af9" fill-rule="evenodd" fill-opacity="1" stroke="#000000" stroke-opacity="1" stroke-width="3.2"/>
<circle clip-path="url(#clip072)" cx="405.813" cy="103.301" r="7.2" fill="#009af9" fill-rule="evenodd" fill-opacity="1" stroke="#000000" stroke-opacity="1" stroke-width="3.2"/>
<circle clip-path="url(#clip072)" cx="473.252" cy="165.387" r="7.2" fill="#009af9" fill-rule="evenodd" fill-opacity="1" stroke="#000000" stroke-opacity="1" stroke-width="3.2"/>
<circle clip-path="url(#clip072)" cx="540.69" cy="300.501" r="7.2" fill="#009af9" fill-rule="evenodd" fill-opacity="1" stroke="#000000" stroke-opacity="1" stroke-width="3.2"/>
<circle clip-path="url(#clip072)" cx="608.128" cy="534.437" r="7.2" fill="#009af9" fill-rule="evenodd" fill-opacity="1" stroke="#000000" stroke-opacity="1" stroke-width="3.2"/>
<circle clip-path="url(#clip072)" cx="675.566" cy="853.249" r="7.2" fill="#009af9" fill-rule="evenodd" fill-opacity="1" stroke="#000000" stroke-opacity="1" stroke-width="3.2"/>
<circle clip-path="url(#clip072)" cx="743.005" cy="1176.9" r="7.2" fill="#009af9" fill-rule="evenodd" fill-opacity="1" stroke="#000000" stroke-opacity="1" stroke-width="3.2"/>
<circle clip-path="url(#clip072)" cx="810.443" cy="1384.24" r="7.2" fill="#009af9" fill-rule="evenodd" fill-opacity="1" stroke="#000000" stroke-opacity="1" stroke-width="3.2"/>
<circle clip-path="url(#clip072)" cx="877.881" cy="1384.24" r="7.2" fill="#009af9" fill-rule="evenodd" fill-opacity="1" stroke="#000000" stroke-opacity="1" stroke-width="3.2"/>
<circle clip-path="url(#clip072)" cx="945.319" cy="1176.9" r="7.2" fill="#009af9" fill-rule="evenodd" fill-opacity="1" stroke="#000000" stroke-opacity="1" stroke-width="3.2"/>
<circle clip-path="url(#clip072)" cx="1012.76" cy="853.249" r="7.2" fill="#009af9" fill-rule="evenodd" fill-opacity="1" stroke="#000000" stroke-opacity="1" stroke-width="3.2"/>
<circle clip-path="url(#clip072)" cx="1080.2" cy="534.437" r="7.2" fill="#009af9" fill-rule="evenodd" fill-opacity="1" stroke="#000000" stroke-opacity="1" stroke-width="3.2"/>
<circle clip-path="url(#clip072)" cx="1147.63" cy="300.501" r="7.2" fill="#009af9" fill-rule="evenodd" fill-opacity="1" stroke="#000000" stroke-opacity="1" stroke-width="3.2"/>
<circle clip-path="url(#clip072)" cx="1215.07" cy="165.387" r="7.2" fill="#009af9" fill-rule="evenodd" fill-opacity="1" stroke="#000000" stroke-opacity="1" stroke-width="3.2"/>
<circle clip-path="url(#clip072)" cx="1282.51" cy="103.301" r="7.2" fill="#009af9" fill-rule="evenodd" fill-opacity="1" stroke="#000000" stroke-opacity="1" stroke-width="3.2"/>
<circle clip-path="url(#clip072)" cx="1349.95" cy="86.1857" r="7.2" fill="#009af9" fill-rule="evenodd" fill-opacity="1" stroke="#000000" stroke-opacity="1" stroke-width="3.2"/>
<circle clip-path="url(#clip072)" cx="1417.39" cy="103.301" r="7.2" fill="#009af9" fill-rule="evenodd" fill-opacity="1" stroke="#000000" stroke-opacity="1" stroke-width="3.2"/>
<circle clip-path="url(#clip072)" cx="1484.83" cy="165.387" r="7.2" fill="#009af9" fill-rule="evenodd" fill-opacity="1" stroke="#000000" stroke-opacity="1" stroke-width="3.2"/>
<circle clip-path="url(#clip072)" cx="1552.26" cy="300.501" r="7.2" fill="#009af9" fill-rule="evenodd" fill-opacity="1" stroke="#000000" stroke-opacity="1" stroke-width="3.2"/>
<circle clip-path="url(#clip072)" cx="1619.7" cy="534.437" r="7.2" fill="#009af9" fill-rule="evenodd" fill-opacity="1" stroke="#000000" stroke-opacity="1" stroke-width="3.2"/>
<circle clip-path="url(#clip072)" cx="1687.14" cy="853.249" r="7.2" fill="#009af9" fill-rule="evenodd" fill-opacity="1" stroke="#000000" stroke-opacity="1" stroke-width="3.2"/>
<circle clip-path="url(#clip072)" cx="1754.58" cy="1176.9" r="7.2" fill="#009af9" fill-rule="evenodd" fill-opacity="1" stroke="#000000" stroke-opacity="1" stroke-width="3.2"/>
<circle clip-path="url(#clip072)" cx="1822.02" cy="1384.24" r="7.2" fill="#009af9" fill-rule="evenodd" fill-opacity="1" stroke="#000000" stroke-opacity="1" stroke-width="3.2"/>
<circle clip-path="url(#clip072)" cx="1889.46" cy="1384.24" r="7.2" fill="#009af9" fill-rule="evenodd" fill-opacity="1" stroke="#000000" stroke-opacity="1" stroke-width="3.2"/>
<circle clip-path="url(#clip072)" cx="1956.89" cy="1176.9" r="7.2" fill="#009af9" fill-rule="evenodd" fill-opacity="1" stroke="#000000" stroke-opacity="1" stroke-width="3.2"/>
<circle clip-path="url(#clip072)" cx="2024.33" cy="853.249" r="7.2" fill="#009af9" fill-rule="evenodd" fill-opacity="1" stroke="#000000" stroke-opacity="1" stroke-width="3.2"/>
<circle clip-path="url(#clip072)" cx="2091.77" cy="534.437" r="7.2" fill="#009af9" fill-rule="evenodd" fill-opacity="1" stroke="#000000" stroke-opacity="1" stroke-width="3.2"/>
<circle clip-path="url(#clip072)" cx="2159.21" cy="300.501" r="7.2" fill="#009af9" fill-rule="evenodd" fill-opacity="1" stroke="#000000" stroke-opacity="1" stroke-width="3.2"/>
<circle clip-path="url(#clip072)" cx="2226.65" cy="165.387" r="7.2" fill="#009af9" fill-rule="evenodd" fill-opacity="1" stroke="#000000" stroke-opacity="1" stroke-width="3.2"/>
<circle clip-path="url(#clip072)" cx="2294.08" cy="103.301" r="7.2" fill="#009af9" fill-rule="evenodd" fill-opacity="1" stroke="#000000" stroke-opacity="1" stroke-width="3.2"/>
</svg>
