<?xml version="1.0" encoding="utf-8"?>
<svg xmlns="http://www.w3.org/2000/svg" xmlns:xlink="http://www.w3.org/1999/xlink" width="600" height="400" viewBox="0 0 2400 1600">
<defs>
  <clipPath id="clip870">
    <rect x="0" y="0" width="2400" height="1600"/>
  </clipPath>
</defs>
<path clip-path="url(#clip870)" d="M0 1600 L2400 1600 L2400 0 L0 0  Z" fill="#ffffff" fill-rule="evenodd" fill-opacity="1"/>
<defs>
  <clipPath id="clip871">
    <rect x="480" y="0" width="1681" height="1600"/>
  </clipPath>
</defs>
<path clip-path="url(#clip870)" d="M189.496 1486.45 L2352.76 1486.45 L2352.76 47.2441 L189.496 47.2441  Z" fill="#ffffff" fill-rule="evenodd" fill-opacity="1"/>
<defs>
  <clipPath id="clip872">
    <rect x="189" y="47" width="2164" height="1440"/>
  </clipPath>
</defs>
<polyline clip-path="url(#clip872)" style="stroke:#000000; stroke-linecap:round; stroke-linejoin:round; stroke-width:2; stroke-opacity:0.1; fill:none" points="250.72,1486.45 250.72,47.2441 "/>
<polyline clip-path="url(#clip872)" style="stroke:#000000; stroke-linecap:round; stroke-linejoin:round; stroke-width:2; stroke-opacity:0.1; fill:none" points="590.855,1486.45 590.855,47.2441 "/>
<polyline clip-path="url(#clip872)" style="stroke:#000000; stroke-linecap:round; stroke-linejoin:round; stroke-width:2; stroke-opacity:0.1; fill:none" points="930.991,1486.45 930.991,47.2441 "/>
<polyline clip-path="url(#clip872)" style="stroke:#000000; stroke-linecap:round; stroke-linejoin:round; stroke-width:2; stroke-opacity:0.1; fill:none" points="1271.13,1486.45 1271.13,47.2441 "/>
<polyline clip-path="url(#clip872)" style="stroke:#000000; stroke-linecap:round; stroke-linejoin:round; stroke-width:2; stroke-opacity:0.1; fill:none" points="1611.26,1486.45 1611.26,47.2441 "/>
<polyline clip-path="url(#clip872)" style="stroke:#000000; stroke-linecap:round; stroke-linejoin:round; stroke-width:2; stroke-opacity:0.1; fill:none" points="1951.4,1486.45 1951.4,47.2441 "/>
<polyline clip-path="url(#clip872)" style="stroke:#000000; stroke-linecap:round; stroke-linejoin:round; stroke-width:2; stroke-opacity:0.1; fill:none" points="2291.53,1486.45 2291.53,47.2441 "/>
<polyline clip-path="url(#clip870)" style="stroke:#000000; stroke-linecap:round; stroke-linejoin:round; stroke-width:4; stroke-opacity:1; fill:none" points="189.496,1486.45 2352.76,1486.45 "/>
<polyline clip-path="url(#clip870)" style="stroke:#000000; stroke-linecap:round; stroke-linejoin:round; stroke-width:4; stroke-opacity:1; fill:none" points="250.72,1486.45 250.72,1467.55 "/>
<polyline clip-path="url(#clip870)" style="stroke:#000000; stroke-linecap:round; stroke-linejoin:round; stroke-width:4; stroke-opacity:1; fill:none" points="590.855,1486.45 590.855,1467.55 "/>
<polyline clip-path="url(#clip870)" style="stroke:#000000; stroke-linecap:round; stroke-linejoin:round; stroke-width:4; stroke-opacity:1; fill:none" points="930.991,1486.45 930.991,1467.55 "/>
<polyline clip-path="url(#clip870)" style="stroke:#000000; stroke-linecap:round; stroke-linejoin:round; stroke-width:4; stroke-opacity:1; fill:none" points="1271.13,1486.45 1271.13,1467.55 "/>
<polyline clip-path="url(#clip870)" style="stroke:#000000; stroke-linecap:round; stroke-linejoin:round; stroke-width:4; stroke-opacity:1; fill:none" points="1611.26,1486.45 1611.26,1467.55 "/>
<polyline clip-path="url(#clip870)" style="stroke:#000000; stroke-linecap:round; stroke-linejoin:round; stroke-width:4; stroke-opacity:1; fill:none" points="1951.4,1486.45 1951.4,1467.55 "/>
<polyline clip-path="url(#clip870)" style="stroke:#000000; stroke-linecap:round; stroke-linejoin:round; stroke-width:4; stroke-opacity:1; fill:none" points="2291.53,1486.45 2291.53,1467.55 "/>
<path clip-path="url(#clip870)" d="M241.102 1544.91 L248.741 1544.91 L248.741 1518.55 L240.431 1520.21 L240.431 1515.95 L248.695 1514.29 L253.371 1514.29 L253.371 1544.91 L261.01 1544.91 L261.01 1548.85 L241.102 1548.85 L241.102 1544.91 Z" fill="#000000" fill-rule="nonzero" fill-opacity="1" /><path clip-path="url(#clip870)" d="M585.508 1544.91 L601.828 1544.91 L601.828 1548.85 L579.883 1548.85 L579.883 1544.91 Q582.545 1542.16 587.129 1537.53 Q591.735 1532.88 592.916 1531.53 Q595.161 1529.01 596.041 1527.27 Q596.943 1525.51 596.943 1523.82 Q596.943 1521.07 594.999 1519.33 Q593.078 1517.6 589.976 1517.6 Q587.777 1517.6 585.323 1518.36 Q582.893 1519.13 580.115 1520.68 L580.115 1515.95 Q582.939 1514.82 585.393 1514.24 Q587.846 1513.66 589.883 1513.66 Q595.254 1513.66 598.448 1516.35 Q601.642 1519.03 601.642 1523.52 Q601.642 1525.65 600.832 1527.57 Q600.045 1529.47 597.939 1532.07 Q597.36 1532.74 594.258 1535.95 Q591.156 1539.15 585.508 1544.91 Z" fill="#000000" fill-rule="nonzero" fill-opacity="1" /><path clip-path="url(#clip870)" d="M935.238 1530.21 Q938.595 1530.93 940.47 1533.2 Q942.368 1535.47 942.368 1538.8 Q942.368 1543.92 938.849 1546.72 Q935.331 1549.52 928.85 1549.52 Q926.674 1549.52 924.359 1549.08 Q922.067 1548.66 919.613 1547.81 L919.613 1543.29 Q921.558 1544.43 923.873 1545.01 Q926.187 1545.58 928.711 1545.58 Q933.109 1545.58 935.4 1543.85 Q937.715 1542.11 937.715 1538.8 Q937.715 1535.75 935.562 1534.03 Q933.433 1532.3 929.613 1532.3 L925.586 1532.3 L925.586 1528.45 L929.799 1528.45 Q933.248 1528.45 935.076 1527.09 Q936.905 1525.7 936.905 1523.11 Q936.905 1520.45 935.007 1519.03 Q933.132 1517.6 929.613 1517.6 Q927.692 1517.6 925.493 1518.01 Q923.294 1518.43 920.655 1519.31 L920.655 1515.14 Q923.317 1514.4 925.632 1514.03 Q927.97 1513.66 930.03 1513.66 Q935.354 1513.66 938.456 1516.09 Q941.558 1518.5 941.558 1522.62 Q941.558 1525.49 939.914 1527.48 Q938.271 1529.45 935.238 1530.21 Z" fill="#000000" fill-rule="nonzero" fill-opacity="1" /><path clip-path="url(#clip870)" d="M1274.14 1518.36 L1262.33 1536.81 L1274.14 1536.81 L1274.14 1518.36 M1272.91 1514.29 L1278.79 1514.29 L1278.79 1536.81 L1283.72 1536.81 L1283.72 1540.7 L1278.79 1540.7 L1278.79 1548.85 L1274.14 1548.85 L1274.14 1540.7 L1258.53 1540.7 L1258.53 1536.19 L1272.91 1514.29 Z" fill="#000000" fill-rule="nonzero" fill-opacity="1" /><path clip-path="url(#clip870)" d="M1601.54 1514.29 L1619.9 1514.29 L1619.9 1518.22 L1605.82 1518.22 L1605.82 1526.7 Q1606.84 1526.35 1607.86 1526.19 Q1608.88 1526 1609.9 1526 Q1615.68 1526 1619.06 1529.17 Q1622.44 1532.34 1622.44 1537.76 Q1622.44 1543.34 1618.97 1546.44 Q1615.5 1549.52 1609.18 1549.52 Q1607 1549.52 1604.73 1549.15 Q1602.49 1548.78 1600.08 1548.04 L1600.08 1543.34 Q1602.16 1544.47 1604.39 1545.03 Q1606.61 1545.58 1609.09 1545.58 Q1613.09 1545.58 1615.43 1543.48 Q1617.77 1541.37 1617.77 1537.76 Q1617.77 1534.15 1615.43 1532.04 Q1613.09 1529.94 1609.09 1529.94 Q1607.21 1529.94 1605.34 1530.35 Q1603.48 1530.77 1601.54 1531.65 L1601.54 1514.29 Z" fill="#000000" fill-rule="nonzero" fill-opacity="1" /><path clip-path="url(#clip870)" d="M1951.8 1529.7 Q1948.65 1529.7 1946.8 1531.86 Q1944.97 1534.01 1944.97 1537.76 Q1944.97 1541.49 1946.8 1543.66 Q1948.65 1545.82 1951.8 1545.82 Q1954.95 1545.82 1956.78 1543.66 Q1958.63 1541.49 1958.63 1537.76 Q1958.63 1534.01 1956.78 1531.86 Q1954.95 1529.7 1951.8 1529.7 M1961.08 1515.05 L1961.08 1519.31 Q1959.32 1518.48 1957.52 1518.04 Q1955.74 1517.6 1953.98 1517.6 Q1949.35 1517.6 1946.89 1520.72 Q1944.46 1523.85 1944.12 1530.17 Q1945.48 1528.15 1947.54 1527.09 Q1949.6 1526 1952.08 1526 Q1957.29 1526 1960.3 1529.17 Q1963.33 1532.32 1963.33 1537.76 Q1963.33 1543.08 1960.18 1546.3 Q1957.03 1549.52 1951.8 1549.52 Q1945.81 1549.52 1942.63 1544.94 Q1939.46 1540.33 1939.46 1531.6 Q1939.46 1523.41 1943.35 1518.55 Q1947.24 1513.66 1953.79 1513.66 Q1955.55 1513.66 1957.33 1514.01 Q1959.14 1514.36 1961.08 1515.05 Z" fill="#000000" fill-rule="nonzero" fill-opacity="1" /><path clip-path="url(#clip870)" d="M2280.42 1514.29 L2302.64 1514.29 L2302.64 1516.28 L2290.1 1548.85 L2285.21 1548.85 L2297.02 1518.22 L2280.42 1518.22 L2280.42 1514.29 Z" fill="#000000" fill-rule="nonzero" fill-opacity="1" /><polyline clip-path="url(#clip872)" style="stroke:#000000; stroke-linecap:round; stroke-linejoin:round; stroke-width:2; stroke-opacity:0.1; fill:none" points="189.496,1309.62 2352.76,1309.62 "/>
<polyline clip-path="url(#clip872)" style="stroke:#000000; stroke-linecap:round; stroke-linejoin:round; stroke-width:2; stroke-opacity:0.1; fill:none" points="189.496,1006.99 2352.76,1006.99 "/>
<polyline clip-path="url(#clip872)" style="stroke:#000000; stroke-linecap:round; stroke-linejoin:round; stroke-width:2; stroke-opacity:0.1; fill:none" points="189.496,704.351 2352.76,704.351 "/>
<polyline clip-path="url(#clip872)" style="stroke:#000000; stroke-linecap:round; stroke-linejoin:round; stroke-width:2; stroke-opacity:0.1; fill:none" points="189.496,401.716 2352.76,401.716 "/>
<polyline clip-path="url(#clip872)" style="stroke:#000000; stroke-linecap:round; stroke-linejoin:round; stroke-width:2; stroke-opacity:0.1; fill:none" points="189.496,99.0813 2352.76,99.0813 "/>
<polyline clip-path="url(#clip870)" style="stroke:#000000; stroke-linecap:round; stroke-linejoin:round; stroke-width:4; stroke-opacity:1; fill:none" points="189.496,1486.45 189.496,47.2441 "/>
<polyline clip-path="url(#clip870)" style="stroke:#000000; stroke-linecap:round; stroke-linejoin:round; stroke-width:4; stroke-opacity:1; fill:none" points="189.496,1309.62 208.394,1309.62 "/>
<polyline clip-path="url(#clip870)" style="stroke:#000000; stroke-linecap:round; stroke-linejoin:round; stroke-width:4; stroke-opacity:1; fill:none" points="189.496,1006.99 208.394,1006.99 "/>
<polyline clip-path="url(#clip870)" style="stroke:#000000; stroke-linecap:round; stroke-linejoin:round; stroke-width:4; stroke-opacity:1; fill:none" points="189.496,704.351 208.394,704.351 "/>
<polyline clip-path="url(#clip870)" style="stroke:#000000; stroke-linecap:round; stroke-linejoin:round; stroke-width:4; stroke-opacity:1; fill:none" points="189.496,401.716 208.394,401.716 "/>
<polyline clip-path="url(#clip870)" style="stroke:#000000; stroke-linecap:round; stroke-linejoin:round; stroke-width:4; stroke-opacity:1; fill:none" points="189.496,99.0813 208.394,99.0813 "/>
<path clip-path="url(#clip870)" d="M51.6634 1329.41 L59.3023 1329.41 L59.3023 1303.05 L50.9921 1304.72 L50.9921 1300.46 L59.256 1298.79 L63.9319 1298.79 L63.9319 1329.41 L71.5707 1329.41 L71.5707 1333.35 L51.6634 1333.35 L51.6634 1329.41 Z" fill="#000000" fill-rule="nonzero" fill-opacity="1" /><path clip-path="url(#clip870)" d="M91.0151 1301.87 Q87.404 1301.87 85.5753 1305.43 Q83.7697 1308.97 83.7697 1316.1 Q83.7697 1323.21 85.5753 1326.78 Q87.404 1330.32 91.0151 1330.32 Q94.6493 1330.32 96.4548 1326.78 Q98.2835 1323.21 98.2835 1316.1 Q98.2835 1308.97 96.4548 1305.43 Q94.6493 1301.87 91.0151 1301.87 M91.0151 1298.16 Q96.8252 1298.16 99.8808 1302.77 Q102.959 1307.35 102.959 1316.1 Q102.959 1324.83 99.8808 1329.44 Q96.8252 1334.02 91.0151 1334.02 Q85.2049 1334.02 82.1262 1329.44 Q79.0707 1324.83 79.0707 1316.1 Q79.0707 1307.35 82.1262 1302.77 Q85.2049 1298.16 91.0151 1298.16 Z" fill="#000000" fill-rule="nonzero" fill-opacity="1" /><path clip-path="url(#clip870)" d="M102.959 1292.27 L127.071 1292.27 L127.071 1295.46 L102.959 1295.46 L102.959 1292.27 Z" fill="#000000" fill-rule="nonzero" fill-opacity="1" /><path clip-path="url(#clip870)" d="M145.71 1281.17 L136.118 1296.16 L145.71 1296.16 L145.71 1281.17 M144.713 1277.86 L149.49 1277.86 L149.49 1296.16 L153.496 1296.16 L153.496 1299.32 L149.49 1299.32 L149.49 1305.94 L145.71 1305.94 L145.71 1299.32 L133.033 1299.32 L133.033 1295.65 L144.713 1277.86 Z" fill="#000000" fill-rule="nonzero" fill-opacity="1" /><path clip-path="url(#clip870)" d="M52.585 1026.78 L60.2238 1026.78 L60.2238 1000.41 L51.9137 1002.08 L51.9137 997.821 L60.1776 996.154 L64.8535 996.154 L64.8535 1026.78 L72.4923 1026.78 L72.4923 1030.71 L52.585 1030.71 L52.585 1026.78 Z" fill="#000000" fill-rule="nonzero" fill-opacity="1" /><path clip-path="url(#clip870)" d="M91.9366 999.233 Q88.3255 999.233 86.4969 1002.8 Q84.6913 1006.34 84.6913 1013.47 Q84.6913 1020.58 86.4969 1024.14 Q88.3255 1027.68 91.9366 1027.68 Q95.5709 1027.68 97.3764 1024.14 Q99.2051 1020.58 99.2051 1013.47 Q99.2051 1006.34 97.3764 1002.8 Q95.5709 999.233 91.9366 999.233 M91.9366 995.529 Q97.7468 995.529 100.802 1000.14 Q103.881 1004.72 103.881 1013.47 Q103.881 1022.2 100.802 1026.8 Q97.7468 1031.39 91.9366 1031.39 Q86.1265 1031.39 83.0478 1026.8 Q79.9923 1022.2 79.9923 1013.47 Q79.9923 1004.72 83.0478 1000.14 Q86.1265 995.529 91.9366 995.529 Z" fill="#000000" fill-rule="nonzero" fill-opacity="1" /><path clip-path="url(#clip870)" d="M103.881 989.63 L127.993 989.63 L127.993 992.828 L103.881 992.828 L103.881 989.63 Z" fill="#000000" fill-rule="nonzero" fill-opacity="1" /><path clip-path="url(#clip870)" d="M147.703 988.163 Q150.43 988.747 151.954 990.59 Q153.496 992.433 153.496 995.141 Q153.496 999.298 150.637 1001.57 Q147.778 1003.85 142.512 1003.85 Q140.744 1003.85 138.863 1003.49 Q137.002 1003.15 135.008 1002.46 L135.008 998.79 Q136.588 999.711 138.469 1000.18 Q140.349 1000.65 142.399 1000.65 Q145.973 1000.65 147.835 999.241 Q149.716 997.831 149.716 995.141 Q149.716 992.659 147.966 991.267 Q146.236 989.856 143.133 989.856 L139.86 989.856 L139.86 986.734 L143.283 986.734 Q146.086 986.734 147.571 985.624 Q149.057 984.496 149.057 982.39 Q149.057 980.227 147.515 979.079 Q145.992 977.913 143.133 977.913 Q141.572 977.913 139.785 978.252 Q137.998 978.59 135.854 979.305 L135.854 975.92 Q138.017 975.318 139.898 975.017 Q141.797 974.716 143.471 974.716 Q147.797 974.716 150.317 976.691 Q152.838 978.647 152.838 981.995 Q152.838 984.327 151.502 985.944 Q150.167 987.543 147.703 988.163 Z" fill="#000000" fill-rule="nonzero" fill-opacity="1" /><path clip-path="url(#clip870)" d="M53.3561 724.144 L60.995 724.144 L60.995 697.778 L52.6848 699.445 L52.6848 695.186 L60.9487 693.519 L65.6246 693.519 L65.6246 724.144 L73.2634 724.144 L73.2634 728.079 L53.3561 728.079 L53.3561 724.144 Z" fill="#000000" fill-rule="nonzero" fill-opacity="1" /><path clip-path="url(#clip870)" d="M92.7078 696.598 Q89.0967 696.598 87.268 700.163 Q85.4624 703.704 85.4624 710.834 Q85.4624 717.94 87.268 721.505 Q89.0967 725.047 92.7078 725.047 Q96.342 725.047 98.1475 721.505 Q99.9762 717.94 99.9762 710.834 Q99.9762 703.704 98.1475 700.163 Q96.342 696.598 92.7078 696.598 M92.7078 692.894 Q98.5179 692.894 101.573 697.501 Q104.652 702.084 104.652 710.834 Q104.652 719.561 101.573 724.167 Q98.5179 728.75 92.7078 728.75 Q86.8976 728.75 83.8189 724.167 Q80.7634 719.561 80.7634 710.834 Q80.7634 702.084 83.8189 697.501 Q86.8976 692.894 92.7078 692.894 Z" fill="#000000" fill-rule="nonzero" fill-opacity="1" /><path clip-path="url(#clip870)" d="M104.652 686.995 L128.764 686.995 L128.764 690.193 L104.652 690.193 L104.652 686.995 Z" fill="#000000" fill-rule="nonzero" fill-opacity="1" /><path clip-path="url(#clip870)" d="M140.236 697.471 L153.496 697.471 L153.496 700.669 L135.666 700.669 L135.666 697.471 Q137.829 695.233 141.553 691.472 Q145.296 687.691 146.255 686.6 Q148.079 684.55 148.794 683.14 Q149.527 681.71 149.527 680.337 Q149.527 678.099 147.948 676.689 Q146.387 675.278 143.866 675.278 Q142.08 675.278 140.086 675.899 Q138.111 676.519 135.854 677.78 L135.854 673.943 Q138.149 673.021 140.142 672.551 Q142.136 672.081 143.791 672.081 Q148.155 672.081 150.75 674.263 Q153.345 676.444 153.345 680.093 Q153.345 681.823 152.687 683.384 Q152.048 684.927 150.336 687.033 Q149.866 687.578 147.346 690.193 Q144.826 692.788 140.236 697.471 Z" fill="#000000" fill-rule="nonzero" fill-opacity="1" /><path clip-path="url(#clip870)" d="M53.0552 421.509 L60.694 421.509 L60.694 395.143 L52.3839 396.81 L52.3839 392.551 L60.6477 390.884 L65.3236 390.884 L65.3236 421.509 L72.9625 421.509 L72.9625 425.444 L53.0552 425.444 L53.0552 421.509 Z" fill="#000000" fill-rule="nonzero" fill-opacity="1" /><path clip-path="url(#clip870)" d="M92.4068 393.963 Q88.7957 393.963 86.967 397.527 Q85.1615 401.069 85.1615 408.199 Q85.1615 415.305 86.967 418.87 Q88.7957 422.412 92.4068 422.412 Q96.0411 422.412 97.8466 418.87 Q99.6753 415.305 99.6753 408.199 Q99.6753 401.069 97.8466 397.527 Q96.0411 393.963 92.4068 393.963 M92.4068 390.259 Q98.217 390.259 101.273 394.865 Q104.351 399.449 104.351 408.199 Q104.351 416.926 101.273 421.532 Q98.217 426.115 92.4068 426.115 Q86.5967 426.115 83.518 421.532 Q80.4625 416.926 80.4625 408.199 Q80.4625 399.449 83.518 394.865 Q86.5967 390.259 92.4068 390.259 Z" fill="#000000" fill-rule="nonzero" fill-opacity="1" /><path clip-path="url(#clip870)" d="M104.351 384.36 L128.463 384.36 L128.463 387.558 L104.351 387.558 L104.351 384.36 Z" fill="#000000" fill-rule="nonzero" fill-opacity="1" /><path clip-path="url(#clip870)" d="M137.321 394.836 L143.528 394.836 L143.528 373.414 L136.776 374.768 L136.776 371.308 L143.49 369.954 L147.289 369.954 L147.289 394.836 L153.496 394.836 L153.496 398.034 L137.321 398.034 L137.321 394.836 Z" fill="#000000" fill-rule="nonzero" fill-opacity="1" /><path clip-path="url(#clip870)" d="M82.7903 118.874 L90.4291 118.874 L90.4291 92.5081 L82.119 94.1748 L82.119 89.9156 L90.3828 88.2489 L95.0587 88.2489 L95.0587 118.874 L102.698 118.874 L102.698 122.809 L82.7903 122.809 L82.7903 118.874 Z" fill="#000000" fill-rule="nonzero" fill-opacity="1" /><path clip-path="url(#clip870)" d="M122.142 91.3276 Q118.531 91.3276 116.702 94.8924 Q114.897 98.434 114.897 105.564 Q114.897 112.67 116.702 116.235 Q118.531 119.777 122.142 119.777 Q125.776 119.777 127.582 116.235 Q129.41 112.67 129.41 105.564 Q129.41 98.434 127.582 94.8924 Q125.776 91.3276 122.142 91.3276 M122.142 87.6239 Q127.952 87.6239 131.008 92.2304 Q134.086 96.8137 134.086 105.564 Q134.086 114.29 131.008 118.897 Q127.952 123.48 122.142 123.48 Q116.332 123.48 113.253 118.897 Q110.198 114.29 110.198 105.564 Q110.198 96.8137 113.253 92.2304 Q116.332 87.6239 122.142 87.6239 Z" fill="#000000" fill-rule="nonzero" fill-opacity="1" /><path clip-path="url(#clip870)" d="M143.791 69.8199 Q140.857 69.8199 139.371 72.7163 Q137.904 75.5939 137.904 81.3867 Q137.904 87.1607 139.371 90.0571 Q140.857 92.9347 143.791 92.9347 Q146.744 92.9347 148.211 90.0571 Q149.697 87.1607 149.697 81.3867 Q149.697 75.5939 148.211 72.7163 Q146.744 69.8199 143.791 69.8199 M143.791 66.8107 Q148.512 66.8107 150.994 70.5534 Q153.496 74.2774 153.496 81.3867 Q153.496 88.4773 150.994 92.22 Q148.512 95.9439 143.791 95.9439 Q139.07 95.9439 136.569 92.22 Q134.086 88.4773 134.086 81.3867 Q134.086 74.2774 136.569 70.5534 Q139.07 66.8107 143.791 66.8107 Z" fill="#000000" fill-rule="nonzero" fill-opacity="1" /><polyline clip-path="url(#clip872)" style="stroke:#009af9; stroke-linecap:round; stroke-linejoin:round; stroke-width:4; stroke-opacity:1; fill:none" points="250.72,87.9763 590.855,335.505 930.991,660.962 1271.13,764.647 1611.26,861.746 1951.4,1203.73 2291.53,1445.72 "/>
<line clip-path="url(#clip872)" x1="250.72" y1="87.9763" x2="234.72" y2="71.9763" style="stroke:#009af9; stroke-width:4; stroke-opacity:1"/>
<line clip-path="url(#clip872)" x1="250.72" y1="87.9763" x2="234.72" y2="103.976" style="stroke:#009af9; stroke-width:4; stroke-opacity:1"/>
<line clip-path="url(#clip872)" x1="250.72" y1="87.9763" x2="266.72" y2="103.976" style="stroke:#009af9; stroke-width:4; stroke-opacity:1"/>
<line clip-path="url(#clip872)" x1="250.72" y1="87.9763" x2="266.72" y2="71.9763" style="stroke:#009af9; stroke-width:4; stroke-opacity:1"/>
<line clip-path="url(#clip872)" x1="590.855" y1="335.505" x2="574.855" y2="319.505" style="stroke:#009af9; stroke-width:4; stroke-opacity:1"/>
<line clip-path="url(#clip872)" x1="590.855" y1="335.505" x2="574.855" y2="351.505" style="stroke:#009af9; stroke-width:4; stroke-opacity:1"/>
<line clip-path="url(#clip872)" x1="590.855" y1="335.505" x2="606.855" y2="351.505" style="stroke:#009af9; stroke-width:4; stroke-opacity:1"/>
<line clip-path="url(#clip872)" x1="590.855" y1="335.505" x2="606.855" y2="319.505" style="stroke:#009af9; stroke-width:4; stroke-opacity:1"/>
<line clip-path="url(#clip872)" x1="930.991" y1="660.962" x2="914.991" y2="644.962" style="stroke:#009af9; stroke-width:4; stroke-opacity:1"/>
<line clip-path="url(#clip872)" x1="930.991" y1="660.962" x2="914.991" y2="676.962" style="stroke:#009af9; stroke-width:4; stroke-opacity:1"/>
<line clip-path="url(#clip872)" x1="930.991" y1="660.962" x2="946.991" y2="676.962" style="stroke:#009af9; stroke-width:4; stroke-opacity:1"/>
<line clip-path="url(#clip872)" x1="930.991" y1="660.962" x2="946.991" y2="644.962" style="stroke:#009af9; stroke-width:4; stroke-opacity:1"/>
<line clip-path="url(#clip872)" x1="1271.13" y1="764.647" x2="1255.13" y2="748.647" style="stroke:#009af9; stroke-width:4; stroke-opacity:1"/>
<line clip-path="url(#clip872)" x1="1271.13" y1="764.647" x2="1255.13" y2="780.647" style="stroke:#009af9; stroke-width:4; stroke-opacity:1"/>
<line clip-path="url(#clip872)" x1="1271.13" y1="764.647" x2="1287.13" y2="780.647" style="stroke:#009af9; stroke-width:4; stroke-opacity:1"/>
<line clip-path="url(#clip872)" x1="1271.13" y1="764.647" x2="1287.13" y2="748.647" style="stroke:#009af9; stroke-width:4; stroke-opacity:1"/>
<line clip-path="url(#clip872)" x1="1611.26" y1="861.746" x2="1595.26" y2="845.746" style="stroke:#009af9; stroke-width:4; stroke-opacity:1"/>
<line clip-path="url(#clip872)" x1="1611.26" y1="861.746" x2="1595.26" y2="877.746" style="stroke:#009af9; stroke-width:4; stroke-opacity:1"/>
<line clip-path="url(#clip872)" x1="1611.26" y1="861.746" x2="1627.26" y2="877.746" style="stroke:#009af9; stroke-width:4; stroke-opacity:1"/>
<line clip-path="url(#clip872)" x1="1611.26" y1="861.746" x2="1627.26" y2="845.746" style="stroke:#009af9; stroke-width:4; stroke-opacity:1"/>
<line clip-path="url(#clip872)" x1="1951.4" y1="1203.73" x2="1935.4" y2="1187.73" style="stroke:#009af9; stroke-width:4; stroke-opacity:1"/>
<line clip-path="url(#clip872)" x1="1951.4" y1="1203.73" x2="1935.4" y2="1219.73" style="stroke:#009af9; stroke-width:4; stroke-opacity:1"/>
<line clip-path="url(#clip872)" x1="1951.4" y1="1203.73" x2="1967.4" y2="1219.73" style="stroke:#009af9; stroke-width:4; stroke-opacity:1"/>
<line clip-path="url(#clip872)" x1="1951.4" y1="1203.73" x2="1967.4" y2="1187.73" style="stroke:#009af9; stroke-width:4; stroke-opacity:1"/>
<line clip-path="url(#clip872)" x1="2291.53" y1="1445.72" x2="2275.53" y2="1429.72" style="stroke:#009af9; stroke-width:4; stroke-opacity:1"/>
<line clip-path="url(#clip872)" x1="2291.53" y1="1445.72" x2="2275.53" y2="1461.72" style="stroke:#009af9; stroke-width:4; stroke-opacity:1"/>
<line clip-path="url(#clip872)" x1="2291.53" y1="1445.72" x2="2307.53" y2="1461.72" style="stroke:#009af9; stroke-width:4; stroke-opacity:1"/>
<line clip-path="url(#clip872)" x1="2291.53" y1="1445.72" x2="2307.53" y2="1429.72" style="stroke:#009af9; stroke-width:4; stroke-opacity:1"/>
<path clip-path="url(#clip870)" d="M1816.13 198.898 L2280.65 198.898 L2280.65 95.2176 L1816.13 95.2176  Z" fill="#ffffff" fill-rule="evenodd" fill-opacity="1"/>
<polyline clip-path="url(#clip870)" style="stroke:#000000; stroke-linecap:round; stroke-linejoin:round; stroke-width:4; stroke-opacity:1; fill:none" points="1816.13,198.898 2280.65,198.898 2280.65,95.2176 1816.13,95.2176 1816.13,198.898 "/>
<polyline clip-path="url(#clip870)" style="stroke:#009af9; stroke-linecap:round; stroke-linejoin:round; stroke-width:4; stroke-opacity:1; fill:none" points="1840.16,147.058 1984.38,147.058 "/>
<line clip-path="url(#clip870)" x1="1912.27" y1="147.058" x2="1890.02" y2="124.802" style="stroke:#009af9; stroke-width:4.55111; stroke-opacity:1"/>
<line clip-path="url(#clip870)" x1="1912.27" y1="147.058" x2="1890.02" y2="169.313" style="stroke:#009af9; stroke-width:4.55111; stroke-opacity:1"/>
<line clip-path="url(#clip870)" x1="1912.27" y1="147.058" x2="1934.53" y2="169.313" style="stroke:#009af9; stroke-width:4.55111; stroke-opacity:1"/>
<line clip-path="url(#clip870)" x1="1912.27" y1="147.058" x2="1934.53" y2="124.802" style="stroke:#009af9; stroke-width:4.55111; stroke-opacity:1"/>
<path clip-path="url(#clip870)" d="M2012.35 128.111 L2012.35 175.518 L2008.42 175.518 L2008.42 128.111 L2012.35 128.111 Z" fill="#000000" fill-rule="nonzero" fill-opacity="1" /><path clip-path="url(#clip870)" d="M2024.76 143.041 Q2026.17 140.68 2029.67 138.597 Q2031.03 137.787 2035.25 137.787 Q2039.97 137.787 2042.91 141.537 Q2045.87 145.287 2045.87 151.398 Q2045.87 157.509 2042.91 161.259 Q2039.97 165.009 2035.25 165.009 Q2032.4 165.009 2030.34 163.898 Q2028.3 162.763 2026.96 160.449 L2026.96 174.199 L2022.68 174.199 L2022.68 151.629 Q2022.68 146.282 2024.76 143.041 M2041.45 151.398 Q2041.45 146.699 2039.51 144.037 Q2037.58 141.352 2034.2 141.352 Q2030.83 141.352 2028.88 144.037 Q2026.96 146.699 2026.96 151.398 Q2026.96 156.097 2028.88 158.782 Q2030.83 161.444 2034.2 161.444 Q2037.58 161.444 2039.51 158.782 Q2041.45 156.097 2041.45 151.398 Z" fill="#000000" fill-rule="nonzero" fill-opacity="1" /><path clip-path="url(#clip870)" d="M2062.98 141.398 Q2059.55 141.398 2057.56 144.083 Q2055.57 146.745 2055.57 151.398 Q2055.57 156.051 2057.54 158.736 Q2059.53 161.398 2062.98 161.398 Q2066.38 161.398 2068.37 158.713 Q2070.36 156.027 2070.36 151.398 Q2070.36 146.791 2068.37 144.106 Q2066.38 141.398 2062.98 141.398 M2062.98 137.787 Q2068.53 137.787 2071.7 141.398 Q2074.88 145.009 2074.88 151.398 Q2074.88 157.764 2071.7 161.398 Q2068.53 165.009 2062.98 165.009 Q2057.4 165.009 2054.23 161.398 Q2051.08 157.764 2051.08 151.398 Q2051.08 145.009 2054.23 141.398 Q2057.4 137.787 2062.98 137.787 Z" fill="#000000" fill-rule="nonzero" fill-opacity="1" /><path clip-path="url(#clip870)" d="M2081.5 154.106 L2081.5 138.412 L2085.76 138.412 L2085.76 153.944 Q2085.76 157.625 2087.19 159.476 Q2088.63 161.305 2091.5 161.305 Q2094.95 161.305 2096.94 159.106 Q2098.95 156.907 2098.95 153.111 L2098.95 138.412 L2103.21 138.412 L2103.21 164.338 L2098.95 164.338 L2098.95 160.356 Q2097.4 162.717 2095.34 163.875 Q2093.3 165.009 2090.59 165.009 Q2086.13 165.009 2083.81 162.231 Q2081.5 159.453 2081.5 154.106 M2092.21 137.787 L2092.21 137.787 Z" fill="#000000" fill-rule="nonzero" fill-opacity="1" /><path clip-path="url(#clip870)" d="M2116.2 131.051 L2116.2 138.412 L2124.97 138.412 L2124.97 141.722 L2116.2 141.722 L2116.2 155.796 Q2116.2 158.967 2117.05 159.87 Q2117.93 160.773 2120.59 160.773 L2124.97 160.773 L2124.97 164.338 L2120.59 164.338 Q2115.66 164.338 2113.79 162.509 Q2111.91 160.657 2111.91 155.796 L2111.91 141.722 L2108.79 141.722 L2108.79 138.412 L2111.91 138.412 L2111.91 131.051 L2116.2 131.051 Z" fill="#000000" fill-rule="nonzero" fill-opacity="1" /><path clip-path="url(#clip870)" d="M2143.49 149.453 L2155.96 149.453 L2155.96 153.25 L2143.49 153.25 L2143.49 149.453 Z" fill="#000000" fill-rule="nonzero" fill-opacity="1" /><path clip-path="url(#clip870)" d="M2179.74 143.041 Q2181.15 140.68 2184.64 138.597 Q2186.01 137.787 2190.22 137.787 Q2194.94 137.787 2197.88 141.537 Q2200.85 145.287 2200.85 151.398 Q2200.85 157.509 2197.88 161.259 Q2194.94 165.009 2190.22 165.009 Q2187.38 165.009 2185.32 163.898 Q2183.28 162.763 2181.94 160.449 L2181.94 174.199 L2177.65 174.199 L2177.65 151.629 Q2177.65 146.282 2179.74 143.041 M2196.43 151.398 Q2196.43 146.699 2194.48 144.037 Q2192.56 141.352 2189.18 141.352 Q2185.8 141.352 2183.86 144.037 Q2181.94 146.699 2181.94 151.398 Q2181.94 156.097 2183.86 158.782 Q2185.8 161.444 2189.18 161.444 Q2192.56 161.444 2194.48 158.782 Q2196.43 156.097 2196.43 151.398 Z" fill="#000000" fill-rule="nonzero" fill-opacity="1" /><path clip-path="url(#clip870)" d="M2207.91 138.412 L2212.17 138.412 L2212.17 164.338 L2207.91 164.338 L2207.91 138.412 M2207.91 128.319 L2212.17 128.319 L2212.17 133.713 L2207.91 133.713 L2207.91 128.319 Z" fill="#000000" fill-rule="nonzero" fill-opacity="1" /><path clip-path="url(#clip870)" d="M2242.63 148.689 L2242.63 164.338 L2238.37 164.338 L2238.37 148.828 Q2238.37 145.148 2236.94 143.319 Q2235.5 141.49 2232.63 141.49 Q2229.18 141.49 2227.19 143.69 Q2225.2 145.889 2225.2 149.685 L2225.2 164.338 L2220.92 164.338 L2220.92 138.412 L2225.2 138.412 L2225.2 142.44 Q2226.73 140.102 2228.79 138.944 Q2230.87 137.787 2233.58 137.787 Q2238.05 137.787 2240.34 140.565 Q2242.63 143.319 2242.63 148.689 Z" fill="#000000" fill-rule="nonzero" fill-opacity="1" /><path clip-path="url(#clip870)" d="M2256.61 128.111 L2256.61 175.518 L2252.68 175.518 L2252.68 128.111 L2256.61 128.111 Z" fill="#000000" fill-rule="nonzero" fill-opacity="1" /></svg>
