<?xml version="1.0" encoding="utf-8"?>
<svg xmlns="http://www.w3.org/2000/svg" xmlns:xlink="http://www.w3.org/1999/xlink" width="600" height="400" viewBox="0 0 2400 1600">
<defs>
  <clipPath id="clip430">
    <rect x="0" y="0" width="2400" height="1600"/>
  </clipPath>
</defs>
<path clip-path="url(#clip430)" d="M0 1600 L2400 1600 L2400 0 L0 0  Z" fill="#ffffff" fill-rule="evenodd" fill-opacity="1"/>
<defs>
  <clipPath id="clip431">
    <rect x="480" y="0" width="1681" height="1600"/>
  </clipPath>
</defs>
<path clip-path="url(#clip430)" d="M279.704 1423.18 L2352.76 1423.18 L2352.76 47.2441 L279.704 47.2441  Z" fill="#ffffff" fill-rule="evenodd" fill-opacity="1"/>
<defs>
  <clipPath id="clip432">
    <rect x="279" y="47" width="2074" height="1377"/>
  </clipPath>
</defs>
<polyline clip-path="url(#clip432)" style="stroke:#000000; stroke-linecap:round; stroke-linejoin:round; stroke-width:2; stroke-opacity:0.1; fill:none" points="338.375,1423.18 338.375,47.2441 "/>
<polyline clip-path="url(#clip432)" style="stroke:#000000; stroke-linecap:round; stroke-linejoin:round; stroke-width:2; stroke-opacity:0.1; fill:none" points="750.103,1423.18 750.103,47.2441 "/>
<polyline clip-path="url(#clip432)" style="stroke:#000000; stroke-linecap:round; stroke-linejoin:round; stroke-width:2; stroke-opacity:0.1; fill:none" points="1161.83,1423.18 1161.83,47.2441 "/>
<polyline clip-path="url(#clip432)" style="stroke:#000000; stroke-linecap:round; stroke-linejoin:round; stroke-width:2; stroke-opacity:0.1; fill:none" points="1573.56,1423.18 1573.56,47.2441 "/>
<polyline clip-path="url(#clip432)" style="stroke:#000000; stroke-linecap:round; stroke-linejoin:round; stroke-width:2; stroke-opacity:0.1; fill:none" points="1985.29,1423.18 1985.29,47.2441 "/>
<polyline clip-path="url(#clip430)" style="stroke:#000000; stroke-linecap:round; stroke-linejoin:round; stroke-width:4; stroke-opacity:1; fill:none" points="279.704,1423.18 2352.76,1423.18 "/>
<polyline clip-path="url(#clip430)" style="stroke:#000000; stroke-linecap:round; stroke-linejoin:round; stroke-width:4; stroke-opacity:1; fill:none" points="338.375,1423.18 338.375,1404.28 "/>
<polyline clip-path="url(#clip430)" style="stroke:#000000; stroke-linecap:round; stroke-linejoin:round; stroke-width:4; stroke-opacity:1; fill:none" points="750.103,1423.18 750.103,1404.28 "/>
<polyline clip-path="url(#clip430)" style="stroke:#000000; stroke-linecap:round; stroke-linejoin:round; stroke-width:4; stroke-opacity:1; fill:none" points="1161.83,1423.18 1161.83,1404.28 "/>
<polyline clip-path="url(#clip430)" style="stroke:#000000; stroke-linecap:round; stroke-linejoin:round; stroke-width:4; stroke-opacity:1; fill:none" points="1573.56,1423.18 1573.56,1404.28 "/>
<polyline clip-path="url(#clip430)" style="stroke:#000000; stroke-linecap:round; stroke-linejoin:round; stroke-width:4; stroke-opacity:1; fill:none" points="1985.29,1423.18 1985.29,1404.28 "/>
<path clip-path="url(#clip430)" d="M315.76 1454.1 Q312.148 1454.1 310.32 1457.66 Q308.514 1461.2 308.514 1468.33 Q308.514 1475.44 310.32 1479.01 Q312.148 1482.55 315.76 1482.55 Q319.394 1482.55 321.199 1479.01 Q323.028 1475.44 323.028 1468.33 Q323.028 1461.2 321.199 1457.66 Q319.394 1454.1 315.76 1454.1 M315.76 1450.39 Q321.57 1450.39 324.625 1455 Q327.704 1459.58 327.704 1468.33 Q327.704 1477.06 324.625 1481.67 Q321.57 1486.25 315.76 1486.25 Q309.949 1486.25 306.871 1481.67 Q303.815 1477.06 303.815 1468.33 Q303.815 1459.58 306.871 1455 Q309.949 1450.39 315.76 1450.39 Z" fill="#000000" fill-rule="nonzero" fill-opacity="1" /><path clip-path="url(#clip430)" d="M335.922 1479.7 L340.806 1479.7 L340.806 1485.58 L335.922 1485.58 L335.922 1479.7 Z" fill="#000000" fill-rule="nonzero" fill-opacity="1" /><path clip-path="url(#clip430)" d="M360.991 1454.1 Q357.38 1454.1 355.551 1457.66 Q353.745 1461.2 353.745 1468.33 Q353.745 1475.44 355.551 1479.01 Q357.38 1482.55 360.991 1482.55 Q364.625 1482.55 366.431 1479.01 Q368.259 1475.44 368.259 1468.33 Q368.259 1461.2 366.431 1457.66 Q364.625 1454.1 360.991 1454.1 M360.991 1450.39 Q366.801 1450.39 369.857 1455 Q372.935 1459.58 372.935 1468.33 Q372.935 1477.06 369.857 1481.67 Q366.801 1486.25 360.991 1486.25 Q355.181 1486.25 352.102 1481.67 Q349.046 1477.06 349.046 1468.33 Q349.046 1459.58 352.102 1455 Q355.181 1450.39 360.991 1450.39 Z" fill="#000000" fill-rule="nonzero" fill-opacity="1" /><path clip-path="url(#clip430)" d="M728.286 1454.1 Q724.675 1454.1 722.847 1457.66 Q721.041 1461.2 721.041 1468.33 Q721.041 1475.44 722.847 1479.01 Q724.675 1482.55 728.286 1482.55 Q731.921 1482.55 733.726 1479.01 Q735.555 1475.44 735.555 1468.33 Q735.555 1461.2 733.726 1457.66 Q731.921 1454.1 728.286 1454.1 M728.286 1450.39 Q734.097 1450.39 737.152 1455 Q740.231 1459.58 740.231 1468.33 Q740.231 1477.06 737.152 1481.67 Q734.097 1486.25 728.286 1486.25 Q722.476 1486.25 719.398 1481.67 Q716.342 1477.06 716.342 1468.33 Q716.342 1459.58 719.398 1455 Q722.476 1450.39 728.286 1450.39 Z" fill="#000000" fill-rule="nonzero" fill-opacity="1" /><path clip-path="url(#clip430)" d="M748.448 1479.7 L753.333 1479.7 L753.333 1485.58 L748.448 1485.58 L748.448 1479.7 Z" fill="#000000" fill-rule="nonzero" fill-opacity="1" /><path clip-path="url(#clip430)" d="M767.546 1481.64 L783.865 1481.64 L783.865 1485.58 L761.921 1485.58 L761.921 1481.64 Q764.583 1478.89 769.166 1474.26 Q773.772 1469.61 774.953 1468.27 Q777.198 1465.74 778.078 1464.01 Q778.981 1462.25 778.981 1460.56 Q778.981 1457.8 777.036 1456.07 Q775.115 1454.33 772.013 1454.33 Q769.814 1454.33 767.36 1455.09 Q764.93 1455.86 762.152 1457.41 L762.152 1452.69 Q764.976 1451.55 767.43 1450.97 Q769.883 1450.39 771.921 1450.39 Q777.291 1450.39 780.485 1453.08 Q783.68 1455.77 783.68 1460.26 Q783.68 1462.39 782.87 1464.31 Q782.082 1466.2 779.976 1468.8 Q779.397 1469.47 776.295 1472.69 Q773.194 1475.88 767.546 1481.64 Z" fill="#000000" fill-rule="nonzero" fill-opacity="1" /><path clip-path="url(#clip430)" d="M1138.97 1454.1 Q1135.36 1454.1 1133.53 1457.66 Q1131.73 1461.2 1131.73 1468.33 Q1131.73 1475.44 1133.53 1479.01 Q1135.36 1482.55 1138.97 1482.55 Q1142.61 1482.55 1144.41 1479.01 Q1146.24 1475.44 1146.24 1468.33 Q1146.24 1461.2 1144.41 1457.66 Q1142.61 1454.1 1138.97 1454.1 M1138.97 1450.39 Q1144.78 1450.39 1147.84 1455 Q1150.92 1459.58 1150.92 1468.33 Q1150.92 1477.06 1147.84 1481.67 Q1144.78 1486.25 1138.97 1486.25 Q1133.16 1486.25 1130.08 1481.67 Q1127.03 1477.06 1127.03 1468.33 Q1127.03 1459.58 1130.08 1455 Q1133.16 1450.39 1138.97 1450.39 Z" fill="#000000" fill-rule="nonzero" fill-opacity="1" /><path clip-path="url(#clip430)" d="M1159.14 1479.7 L1164.02 1479.7 L1164.02 1485.58 L1159.14 1485.58 L1159.14 1479.7 Z" fill="#000000" fill-rule="nonzero" fill-opacity="1" /><path clip-path="url(#clip430)" d="M1187.05 1455.09 L1175.25 1473.54 L1187.05 1473.54 L1187.05 1455.09 M1185.82 1451.02 L1191.7 1451.02 L1191.7 1473.54 L1196.63 1473.54 L1196.63 1477.43 L1191.7 1477.43 L1191.7 1485.58 L1187.05 1485.58 L1187.05 1477.43 L1171.45 1477.43 L1171.45 1472.92 L1185.82 1451.02 Z" fill="#000000" fill-rule="nonzero" fill-opacity="1" /><path clip-path="url(#clip430)" d="M1550.86 1454.1 Q1547.25 1454.1 1545.42 1457.66 Q1543.62 1461.2 1543.62 1468.33 Q1543.62 1475.44 1545.42 1479.01 Q1547.25 1482.55 1550.86 1482.55 Q1554.5 1482.55 1556.3 1479.01 Q1558.13 1475.44 1558.13 1468.33 Q1558.13 1461.2 1556.3 1457.66 Q1554.5 1454.1 1550.86 1454.1 M1550.86 1450.39 Q1556.67 1450.39 1559.73 1455 Q1562.81 1459.58 1562.81 1468.33 Q1562.81 1477.06 1559.73 1481.67 Q1556.67 1486.25 1550.86 1486.25 Q1545.05 1486.25 1541.97 1481.67 Q1538.92 1477.06 1538.92 1468.33 Q1538.92 1459.58 1541.97 1455 Q1545.05 1450.39 1550.86 1450.39 Z" fill="#000000" fill-rule="nonzero" fill-opacity="1" /><path clip-path="url(#clip430)" d="M1571.03 1479.7 L1575.91 1479.7 L1575.91 1485.58 L1571.03 1485.58 L1571.03 1479.7 Z" fill="#000000" fill-rule="nonzero" fill-opacity="1" /><path clip-path="url(#clip430)" d="M1596.67 1466.44 Q1593.53 1466.44 1591.67 1468.59 Q1589.84 1470.74 1589.84 1474.49 Q1589.84 1478.22 1591.67 1480.39 Q1593.53 1482.55 1596.67 1482.55 Q1599.82 1482.55 1601.65 1480.39 Q1603.5 1478.22 1603.5 1474.49 Q1603.5 1470.74 1601.65 1468.59 Q1599.82 1466.44 1596.67 1466.44 M1605.96 1451.78 L1605.96 1456.04 Q1604.2 1455.21 1602.39 1454.77 Q1600.61 1454.33 1598.85 1454.33 Q1594.22 1454.33 1591.77 1457.45 Q1589.34 1460.58 1588.99 1466.9 Q1590.35 1464.89 1592.41 1463.82 Q1594.47 1462.73 1596.95 1462.73 Q1602.16 1462.73 1605.17 1465.9 Q1608.2 1469.05 1608.2 1474.49 Q1608.2 1479.82 1605.05 1483.03 Q1601.9 1486.25 1596.67 1486.25 Q1590.68 1486.25 1587.51 1481.67 Q1584.34 1477.06 1584.34 1468.33 Q1584.34 1460.14 1588.22 1455.28 Q1592.11 1450.39 1598.66 1450.39 Q1600.42 1450.39 1602.21 1450.74 Q1604.01 1451.09 1605.96 1451.78 Z" fill="#000000" fill-rule="nonzero" fill-opacity="1" /><path clip-path="url(#clip430)" d="M1962.72 1454.1 Q1959.11 1454.1 1957.28 1457.66 Q1955.47 1461.2 1955.47 1468.33 Q1955.47 1475.44 1957.28 1479.01 Q1959.11 1482.55 1962.72 1482.55 Q1966.35 1482.55 1968.16 1479.01 Q1969.99 1475.44 1969.99 1468.33 Q1969.99 1461.2 1968.16 1457.66 Q1966.35 1454.1 1962.72 1454.1 M1962.72 1450.39 Q1968.53 1450.39 1971.58 1455 Q1974.66 1459.58 1974.66 1468.33 Q1974.66 1477.06 1971.58 1481.67 Q1968.53 1486.25 1962.72 1486.25 Q1956.91 1486.25 1953.83 1481.67 Q1950.77 1477.06 1950.77 1468.33 Q1950.77 1459.58 1953.83 1455 Q1956.91 1450.39 1962.72 1450.39 Z" fill="#000000" fill-rule="nonzero" fill-opacity="1" /><path clip-path="url(#clip430)" d="M1982.88 1479.7 L1987.77 1479.7 L1987.77 1485.58 L1982.88 1485.58 L1982.88 1479.7 Z" fill="#000000" fill-rule="nonzero" fill-opacity="1" /><path clip-path="url(#clip430)" d="M2007.95 1469.17 Q2004.62 1469.17 2002.7 1470.95 Q2000.8 1472.73 2000.8 1475.86 Q2000.8 1478.98 2002.7 1480.77 Q2004.62 1482.55 2007.95 1482.55 Q2011.28 1482.55 2013.2 1480.77 Q2015.13 1478.96 2015.13 1475.86 Q2015.13 1472.73 2013.2 1470.95 Q2011.31 1469.17 2007.95 1469.17 M2003.27 1467.18 Q2000.27 1466.44 1998.58 1464.38 Q1996.91 1462.32 1996.91 1459.35 Q1996.91 1455.21 1999.85 1452.8 Q2002.81 1450.39 2007.95 1450.39 Q2013.11 1450.39 2016.05 1452.8 Q2018.99 1455.21 2018.99 1459.35 Q2018.99 1462.32 2017.3 1464.38 Q2015.64 1466.44 2012.65 1467.18 Q2016.03 1467.96 2017.9 1470.26 Q2019.8 1472.55 2019.8 1475.86 Q2019.8 1480.88 2016.72 1483.57 Q2013.67 1486.25 2007.95 1486.25 Q2002.23 1486.25 1999.15 1483.57 Q1996.1 1480.88 1996.1 1475.86 Q1996.1 1472.55 1998 1470.26 Q1999.89 1467.96 2003.27 1467.18 M2001.56 1459.79 Q2001.56 1462.48 2003.23 1463.98 Q2004.92 1465.49 2007.95 1465.49 Q2010.96 1465.49 2012.65 1463.98 Q2014.36 1462.48 2014.36 1459.79 Q2014.36 1457.11 2012.65 1455.6 Q2010.96 1454.1 2007.95 1454.1 Q2004.92 1454.1 2003.23 1455.6 Q2001.56 1457.11 2001.56 1459.79 Z" fill="#000000" fill-rule="nonzero" fill-opacity="1" /><path clip-path="url(#clip430)" d="M1332.84 1532.4 L1319.95 1549.74 L1333.51 1568.04 L1326.61 1568.04 L1316.23 1554.04 L1305.85 1568.04 L1298.95 1568.04 L1312.79 1549.39 L1300.12 1532.4 L1307.03 1532.4 L1316.48 1545.1 L1325.94 1532.4 L1332.84 1532.4 Z" fill="#000000" fill-rule="nonzero" fill-opacity="1" /><polyline clip-path="url(#clip432)" style="stroke:#000000; stroke-linecap:round; stroke-linejoin:round; stroke-width:2; stroke-opacity:0.1; fill:none" points="279.704,1355.89 2352.76,1355.89 "/>
<polyline clip-path="url(#clip432)" style="stroke:#000000; stroke-linecap:round; stroke-linejoin:round; stroke-width:2; stroke-opacity:0.1; fill:none" points="279.704,1154.49 2352.76,1154.49 "/>
<polyline clip-path="url(#clip432)" style="stroke:#000000; stroke-linecap:round; stroke-linejoin:round; stroke-width:2; stroke-opacity:0.1; fill:none" points="279.704,953.084 2352.76,953.084 "/>
<polyline clip-path="url(#clip432)" style="stroke:#000000; stroke-linecap:round; stroke-linejoin:round; stroke-width:2; stroke-opacity:0.1; fill:none" points="279.704,751.68 2352.76,751.68 "/>
<polyline clip-path="url(#clip432)" style="stroke:#000000; stroke-linecap:round; stroke-linejoin:round; stroke-width:2; stroke-opacity:0.1; fill:none" points="279.704,550.276 2352.76,550.276 "/>
<polyline clip-path="url(#clip432)" style="stroke:#000000; stroke-linecap:round; stroke-linejoin:round; stroke-width:2; stroke-opacity:0.1; fill:none" points="279.704,348.872 2352.76,348.872 "/>
<polyline clip-path="url(#clip432)" style="stroke:#000000; stroke-linecap:round; stroke-linejoin:round; stroke-width:2; stroke-opacity:0.1; fill:none" points="279.704,147.469 2352.76,147.469 "/>
<polyline clip-path="url(#clip430)" style="stroke:#000000; stroke-linecap:round; stroke-linejoin:round; stroke-width:4; stroke-opacity:1; fill:none" points="279.704,1423.18 279.704,47.2441 "/>
<polyline clip-path="url(#clip430)" style="stroke:#000000; stroke-linecap:round; stroke-linejoin:round; stroke-width:4; stroke-opacity:1; fill:none" points="279.704,1355.89 298.602,1355.89 "/>
<polyline clip-path="url(#clip430)" style="stroke:#000000; stroke-linecap:round; stroke-linejoin:round; stroke-width:4; stroke-opacity:1; fill:none" points="279.704,1154.49 298.602,1154.49 "/>
<polyline clip-path="url(#clip430)" style="stroke:#000000; stroke-linecap:round; stroke-linejoin:round; stroke-width:4; stroke-opacity:1; fill:none" points="279.704,953.084 298.602,953.084 "/>
<polyline clip-path="url(#clip430)" style="stroke:#000000; stroke-linecap:round; stroke-linejoin:round; stroke-width:4; stroke-opacity:1; fill:none" points="279.704,751.68 298.602,751.68 "/>
<polyline clip-path="url(#clip430)" style="stroke:#000000; stroke-linecap:round; stroke-linejoin:round; stroke-width:4; stroke-opacity:1; fill:none" points="279.704,550.276 298.602,550.276 "/>
<polyline clip-path="url(#clip430)" style="stroke:#000000; stroke-linecap:round; stroke-linejoin:round; stroke-width:4; stroke-opacity:1; fill:none" points="279.704,348.872 298.602,348.872 "/>
<polyline clip-path="url(#clip430)" style="stroke:#000000; stroke-linecap:round; stroke-linejoin:round; stroke-width:4; stroke-opacity:1; fill:none" points="279.704,147.469 298.602,147.469 "/>
<path clip-path="url(#clip430)" d="M127.2 1341.69 Q123.589 1341.69 121.76 1345.25 Q119.955 1348.8 119.955 1355.93 Q119.955 1363.03 121.76 1366.6 Q123.589 1370.14 127.2 1370.14 Q130.834 1370.14 132.64 1366.6 Q134.468 1363.03 134.468 1355.93 Q134.468 1348.8 132.64 1345.25 Q130.834 1341.69 127.2 1341.69 M127.2 1337.99 Q133.01 1337.99 136.066 1342.59 Q139.144 1347.18 139.144 1355.93 Q139.144 1364.65 136.066 1369.26 Q133.01 1373.84 127.2 1373.84 Q121.39 1373.84 118.311 1369.26 Q115.256 1364.65 115.256 1355.93 Q115.256 1347.18 118.311 1342.59 Q121.39 1337.99 127.2 1337.99 Z" fill="#000000" fill-rule="nonzero" fill-opacity="1" /><path clip-path="url(#clip430)" d="M147.362 1367.29 L152.246 1367.29 L152.246 1373.17 L147.362 1373.17 L147.362 1367.29 Z" fill="#000000" fill-rule="nonzero" fill-opacity="1" /><path clip-path="url(#clip430)" d="M172.431 1341.69 Q168.82 1341.69 166.991 1345.25 Q165.186 1348.8 165.186 1355.93 Q165.186 1363.03 166.991 1366.6 Q168.82 1370.14 172.431 1370.14 Q176.065 1370.14 177.871 1366.6 Q179.7 1363.03 179.7 1355.93 Q179.7 1348.8 177.871 1345.25 Q176.065 1341.69 172.431 1341.69 M172.431 1337.99 Q178.241 1337.99 181.297 1342.59 Q184.376 1347.18 184.376 1355.93 Q184.376 1364.65 181.297 1369.26 Q178.241 1373.84 172.431 1373.84 Q166.621 1373.84 163.542 1369.26 Q160.487 1364.65 160.487 1355.93 Q160.487 1347.18 163.542 1342.59 Q166.621 1337.99 172.431 1337.99 Z" fill="#000000" fill-rule="nonzero" fill-opacity="1" /><path clip-path="url(#clip430)" d="M192.639 1338.61 L210.996 1338.61 L210.996 1342.55 L196.922 1342.55 L196.922 1351.02 Q197.94 1350.67 198.959 1350.51 Q199.977 1350.32 200.996 1350.32 Q206.783 1350.32 210.162 1353.5 Q213.542 1356.67 213.542 1362.08 Q213.542 1367.66 210.07 1370.76 Q206.598 1373.84 200.278 1373.84 Q198.102 1373.84 195.834 1373.47 Q193.588 1373.1 191.181 1372.36 L191.181 1367.66 Q193.264 1368.8 195.487 1369.35 Q197.709 1369.91 200.186 1369.91 Q204.19 1369.91 206.528 1367.8 Q208.866 1365.69 208.866 1362.08 Q208.866 1358.47 206.528 1356.37 Q204.19 1354.26 200.186 1354.26 Q198.311 1354.26 196.436 1354.68 Q194.584 1355.09 192.639 1355.97 L192.639 1338.61 Z" fill="#000000" fill-rule="nonzero" fill-opacity="1" /><path clip-path="url(#clip430)" d="M222.801 1338.61 L241.158 1338.61 L241.158 1342.55 L227.084 1342.55 L227.084 1351.02 Q228.102 1350.67 229.121 1350.51 Q230.139 1350.32 231.158 1350.32 Q236.945 1350.32 240.324 1353.5 Q243.704 1356.67 243.704 1362.08 Q243.704 1367.66 240.232 1370.76 Q236.76 1373.84 230.44 1373.84 Q228.264 1373.84 225.996 1373.47 Q223.75 1373.1 221.343 1372.36 L221.343 1367.66 Q223.426 1368.8 225.648 1369.35 Q227.871 1369.91 230.347 1369.91 Q234.352 1369.91 236.69 1367.8 Q239.028 1365.69 239.028 1362.08 Q239.028 1358.47 236.69 1356.37 Q234.352 1354.26 230.347 1354.26 Q228.473 1354.26 226.598 1354.68 Q224.746 1355.09 222.801 1355.97 L222.801 1338.61 Z" fill="#000000" fill-rule="nonzero" fill-opacity="1" /><path clip-path="url(#clip430)" d="M126.205 1140.29 Q122.593 1140.29 120.765 1143.85 Q118.959 1147.39 118.959 1154.52 Q118.959 1161.63 120.765 1165.19 Q122.593 1168.74 126.205 1168.74 Q129.839 1168.74 131.644 1165.19 Q133.473 1161.63 133.473 1154.52 Q133.473 1147.39 131.644 1143.85 Q129.839 1140.29 126.205 1140.29 M126.205 1136.58 Q132.015 1136.58 135.07 1141.19 Q138.149 1145.77 138.149 1154.52 Q138.149 1163.25 135.07 1167.86 Q132.015 1172.44 126.205 1172.44 Q120.394 1172.44 117.316 1167.86 Q114.26 1163.25 114.26 1154.52 Q114.26 1145.77 117.316 1141.19 Q120.394 1136.58 126.205 1136.58 Z" fill="#000000" fill-rule="nonzero" fill-opacity="1" /><path clip-path="url(#clip430)" d="M146.366 1165.89 L151.251 1165.89 L151.251 1171.77 L146.366 1171.77 L146.366 1165.89 Z" fill="#000000" fill-rule="nonzero" fill-opacity="1" /><path clip-path="url(#clip430)" d="M171.436 1140.29 Q167.825 1140.29 165.996 1143.85 Q164.19 1147.39 164.19 1154.52 Q164.19 1161.63 165.996 1165.19 Q167.825 1168.74 171.436 1168.74 Q175.07 1168.74 176.876 1165.19 Q178.704 1161.63 178.704 1154.52 Q178.704 1147.39 176.876 1143.85 Q175.07 1140.29 171.436 1140.29 M171.436 1136.58 Q177.246 1136.58 180.301 1141.19 Q183.38 1145.77 183.38 1154.52 Q183.38 1163.25 180.301 1167.86 Q177.246 1172.44 171.436 1172.44 Q165.626 1172.44 162.547 1167.86 Q159.491 1163.25 159.491 1154.52 Q159.491 1145.77 162.547 1141.19 Q165.626 1136.58 171.436 1136.58 Z" fill="#000000" fill-rule="nonzero" fill-opacity="1" /><path clip-path="url(#clip430)" d="M202.176 1152.62 Q199.028 1152.62 197.176 1154.78 Q195.348 1156.93 195.348 1160.68 Q195.348 1164.41 197.176 1166.58 Q199.028 1168.74 202.176 1168.74 Q205.324 1168.74 207.153 1166.58 Q209.005 1164.41 209.005 1160.68 Q209.005 1156.93 207.153 1154.78 Q205.324 1152.62 202.176 1152.62 M211.459 1137.97 L211.459 1142.23 Q209.699 1141.4 207.894 1140.96 Q206.112 1140.52 204.352 1140.52 Q199.723 1140.52 197.269 1143.64 Q194.838 1146.77 194.491 1153.09 Q195.857 1151.07 197.917 1150.01 Q199.977 1148.92 202.454 1148.92 Q207.662 1148.92 210.672 1152.09 Q213.704 1155.24 213.704 1160.68 Q213.704 1166 210.556 1169.22 Q207.408 1172.44 202.176 1172.44 Q196.181 1172.44 193.01 1167.86 Q189.838 1163.25 189.838 1154.52 Q189.838 1146.33 193.727 1141.47 Q197.616 1136.58 204.167 1136.58 Q205.926 1136.58 207.709 1136.93 Q209.514 1137.28 211.459 1137.97 Z" fill="#000000" fill-rule="nonzero" fill-opacity="1" /><path clip-path="url(#clip430)" d="M231.76 1140.29 Q228.148 1140.29 226.32 1143.85 Q224.514 1147.39 224.514 1154.52 Q224.514 1161.63 226.32 1165.19 Q228.148 1168.74 231.76 1168.74 Q235.394 1168.74 237.199 1165.19 Q239.028 1161.63 239.028 1154.52 Q239.028 1147.39 237.199 1143.85 Q235.394 1140.29 231.76 1140.29 M231.76 1136.58 Q237.57 1136.58 240.625 1141.19 Q243.704 1145.77 243.704 1154.52 Q243.704 1163.25 240.625 1167.86 Q237.57 1172.44 231.76 1172.44 Q225.949 1172.44 222.871 1167.86 Q219.815 1163.25 219.815 1154.52 Q219.815 1145.77 222.871 1141.19 Q225.949 1136.58 231.76 1136.58 Z" fill="#000000" fill-rule="nonzero" fill-opacity="1" /><path clip-path="url(#clip430)" d="M127.2 938.882 Q123.589 938.882 121.76 942.447 Q119.955 945.989 119.955 953.118 Q119.955 960.225 121.76 963.79 Q123.589 967.331 127.2 967.331 Q130.834 967.331 132.64 963.79 Q134.468 960.225 134.468 953.118 Q134.468 945.989 132.64 942.447 Q130.834 938.882 127.2 938.882 M127.2 935.179 Q133.01 935.179 136.066 939.785 Q139.144 944.368 139.144 953.118 Q139.144 961.845 136.066 966.452 Q133.01 971.035 127.2 971.035 Q121.39 971.035 118.311 966.452 Q115.256 961.845 115.256 953.118 Q115.256 944.368 118.311 939.785 Q121.39 935.179 127.2 935.179 Z" fill="#000000" fill-rule="nonzero" fill-opacity="1" /><path clip-path="url(#clip430)" d="M147.362 964.484 L152.246 964.484 L152.246 970.364 L147.362 970.364 L147.362 964.484 Z" fill="#000000" fill-rule="nonzero" fill-opacity="1" /><path clip-path="url(#clip430)" d="M172.431 938.882 Q168.82 938.882 166.991 942.447 Q165.186 945.989 165.186 953.118 Q165.186 960.225 166.991 963.79 Q168.82 967.331 172.431 967.331 Q176.065 967.331 177.871 963.79 Q179.7 960.225 179.7 953.118 Q179.7 945.989 177.871 942.447 Q176.065 938.882 172.431 938.882 M172.431 935.179 Q178.241 935.179 181.297 939.785 Q184.376 944.368 184.376 953.118 Q184.376 961.845 181.297 966.452 Q178.241 971.035 172.431 971.035 Q166.621 971.035 163.542 966.452 Q160.487 961.845 160.487 953.118 Q160.487 944.368 163.542 939.785 Q166.621 935.179 172.431 935.179 Z" fill="#000000" fill-rule="nonzero" fill-opacity="1" /><path clip-path="url(#clip430)" d="M203.172 951.22 Q200.024 951.22 198.172 953.373 Q196.343 955.526 196.343 959.276 Q196.343 963.003 198.172 965.179 Q200.024 967.331 203.172 967.331 Q206.32 967.331 208.149 965.179 Q210 963.003 210 959.276 Q210 955.526 208.149 953.373 Q206.32 951.22 203.172 951.22 M212.454 936.568 L212.454 940.827 Q210.695 939.994 208.889 939.554 Q207.107 939.114 205.348 939.114 Q200.718 939.114 198.264 942.239 Q195.834 945.364 195.487 951.683 Q196.852 949.669 198.912 948.605 Q200.973 947.517 203.449 947.517 Q208.658 947.517 211.667 950.688 Q214.699 953.836 214.699 959.276 Q214.699 964.6 211.551 967.817 Q208.403 971.035 203.172 971.035 Q197.176 971.035 194.005 966.452 Q190.834 961.845 190.834 953.118 Q190.834 944.924 194.723 940.063 Q198.612 935.179 205.162 935.179 Q206.922 935.179 208.704 935.526 Q210.51 935.873 212.454 936.568 Z" fill="#000000" fill-rule="nonzero" fill-opacity="1" /><path clip-path="url(#clip430)" d="M222.801 935.804 L241.158 935.804 L241.158 939.739 L227.084 939.739 L227.084 948.211 Q228.102 947.864 229.121 947.702 Q230.139 947.517 231.158 947.517 Q236.945 947.517 240.324 950.688 Q243.704 953.859 243.704 959.276 Q243.704 964.854 240.232 967.956 Q236.76 971.035 230.44 971.035 Q228.264 971.035 225.996 970.665 Q223.75 970.294 221.343 969.554 L221.343 964.854 Q223.426 965.989 225.648 966.544 Q227.871 967.1 230.347 967.1 Q234.352 967.1 236.69 964.993 Q239.028 962.887 239.028 959.276 Q239.028 955.665 236.69 953.558 Q234.352 951.452 230.347 951.452 Q228.473 951.452 226.598 951.868 Q224.746 952.285 222.801 953.165 L222.801 935.804 Z" fill="#000000" fill-rule="nonzero" fill-opacity="1" /><path clip-path="url(#clip430)" d="M126.205 737.479 Q122.593 737.479 120.765 741.043 Q118.959 744.585 118.959 751.715 Q118.959 758.821 120.765 762.386 Q122.593 765.928 126.205 765.928 Q129.839 765.928 131.644 762.386 Q133.473 758.821 133.473 751.715 Q133.473 744.585 131.644 741.043 Q129.839 737.479 126.205 737.479 M126.205 733.775 Q132.015 733.775 135.07 738.381 Q138.149 742.965 138.149 751.715 Q138.149 760.441 135.07 765.048 Q132.015 769.631 126.205 769.631 Q120.394 769.631 117.316 765.048 Q114.26 760.441 114.26 751.715 Q114.26 742.965 117.316 738.381 Q120.394 733.775 126.205 733.775 Z" fill="#000000" fill-rule="nonzero" fill-opacity="1" /><path clip-path="url(#clip430)" d="M146.366 763.08 L151.251 763.08 L151.251 768.96 L146.366 768.96 L146.366 763.08 Z" fill="#000000" fill-rule="nonzero" fill-opacity="1" /><path clip-path="url(#clip430)" d="M171.436 737.479 Q167.825 737.479 165.996 741.043 Q164.19 744.585 164.19 751.715 Q164.19 758.821 165.996 762.386 Q167.825 765.928 171.436 765.928 Q175.07 765.928 176.876 762.386 Q178.704 758.821 178.704 751.715 Q178.704 744.585 176.876 741.043 Q175.07 737.479 171.436 737.479 M171.436 733.775 Q177.246 733.775 180.301 738.381 Q183.38 742.965 183.38 751.715 Q183.38 760.441 180.301 765.048 Q177.246 769.631 171.436 769.631 Q165.626 769.631 162.547 765.048 Q159.491 760.441 159.491 751.715 Q159.491 742.965 162.547 738.381 Q165.626 733.775 171.436 733.775 Z" fill="#000000" fill-rule="nonzero" fill-opacity="1" /><path clip-path="url(#clip430)" d="M190.417 734.4 L212.639 734.4 L212.639 736.391 L200.093 768.96 L195.209 768.96 L207.014 738.335 L190.417 738.335 L190.417 734.4 Z" fill="#000000" fill-rule="nonzero" fill-opacity="1" /><path clip-path="url(#clip430)" d="M231.76 737.479 Q228.148 737.479 226.32 741.043 Q224.514 744.585 224.514 751.715 Q224.514 758.821 226.32 762.386 Q228.148 765.928 231.76 765.928 Q235.394 765.928 237.199 762.386 Q239.028 758.821 239.028 751.715 Q239.028 744.585 237.199 741.043 Q235.394 737.479 231.76 737.479 M231.76 733.775 Q237.57 733.775 240.625 738.381 Q243.704 742.965 243.704 751.715 Q243.704 760.441 240.625 765.048 Q237.57 769.631 231.76 769.631 Q225.949 769.631 222.871 765.048 Q219.815 760.441 219.815 751.715 Q219.815 742.965 222.871 738.381 Q225.949 733.775 231.76 733.775 Z" fill="#000000" fill-rule="nonzero" fill-opacity="1" /><path clip-path="url(#clip430)" d="M127.2 536.075 Q123.589 536.075 121.76 539.64 Q119.955 543.181 119.955 550.311 Q119.955 557.417 121.76 560.982 Q123.589 564.524 127.2 564.524 Q130.834 564.524 132.64 560.982 Q134.468 557.417 134.468 550.311 Q134.468 543.181 132.64 539.64 Q130.834 536.075 127.2 536.075 M127.2 532.371 Q133.01 532.371 136.066 536.978 Q139.144 541.561 139.144 550.311 Q139.144 559.038 136.066 563.644 Q133.01 568.228 127.2 568.228 Q121.39 568.228 118.311 563.644 Q115.256 559.038 115.256 550.311 Q115.256 541.561 118.311 536.978 Q121.39 532.371 127.2 532.371 Z" fill="#000000" fill-rule="nonzero" fill-opacity="1" /><path clip-path="url(#clip430)" d="M147.362 561.677 L152.246 561.677 L152.246 567.556 L147.362 567.556 L147.362 561.677 Z" fill="#000000" fill-rule="nonzero" fill-opacity="1" /><path clip-path="url(#clip430)" d="M172.431 536.075 Q168.82 536.075 166.991 539.64 Q165.186 543.181 165.186 550.311 Q165.186 557.417 166.991 560.982 Q168.82 564.524 172.431 564.524 Q176.065 564.524 177.871 560.982 Q179.7 557.417 179.7 550.311 Q179.7 543.181 177.871 539.64 Q176.065 536.075 172.431 536.075 M172.431 532.371 Q178.241 532.371 181.297 536.978 Q184.376 541.561 184.376 550.311 Q184.376 559.038 181.297 563.644 Q178.241 568.228 172.431 568.228 Q166.621 568.228 163.542 563.644 Q160.487 559.038 160.487 550.311 Q160.487 541.561 163.542 536.978 Q166.621 532.371 172.431 532.371 Z" fill="#000000" fill-rule="nonzero" fill-opacity="1" /><path clip-path="url(#clip430)" d="M191.413 532.996 L213.635 532.996 L213.635 534.987 L201.088 567.556 L196.204 567.556 L208.01 536.931 L191.413 536.931 L191.413 532.996 Z" fill="#000000" fill-rule="nonzero" fill-opacity="1" /><path clip-path="url(#clip430)" d="M222.801 532.996 L241.158 532.996 L241.158 536.931 L227.084 536.931 L227.084 545.404 Q228.102 545.056 229.121 544.894 Q230.139 544.709 231.158 544.709 Q236.945 544.709 240.324 547.88 Q243.704 551.052 243.704 556.468 Q243.704 562.047 240.232 565.149 Q236.76 568.228 230.44 568.228 Q228.264 568.228 225.996 567.857 Q223.75 567.487 221.343 566.746 L221.343 562.047 Q223.426 563.181 225.648 563.737 Q227.871 564.292 230.347 564.292 Q234.352 564.292 236.69 562.186 Q239.028 560.079 239.028 556.468 Q239.028 552.857 236.69 550.751 Q234.352 548.644 230.347 548.644 Q228.473 548.644 226.598 549.061 Q224.746 549.478 222.801 550.357 L222.801 532.996 Z" fill="#000000" fill-rule="nonzero" fill-opacity="1" /><path clip-path="url(#clip430)" d="M126.205 334.671 Q122.593 334.671 120.765 338.236 Q118.959 341.778 118.959 348.907 Q118.959 356.014 120.765 359.578 Q122.593 363.12 126.205 363.12 Q129.839 363.12 131.644 359.578 Q133.473 356.014 133.473 348.907 Q133.473 341.778 131.644 338.236 Q129.839 334.671 126.205 334.671 M126.205 330.967 Q132.015 330.967 135.07 335.574 Q138.149 340.157 138.149 348.907 Q138.149 357.634 135.07 362.24 Q132.015 366.824 126.205 366.824 Q120.394 366.824 117.316 362.24 Q114.26 357.634 114.26 348.907 Q114.26 340.157 117.316 335.574 Q120.394 330.967 126.205 330.967 Z" fill="#000000" fill-rule="nonzero" fill-opacity="1" /><path clip-path="url(#clip430)" d="M146.366 360.273 L151.251 360.273 L151.251 366.152 L146.366 366.152 L146.366 360.273 Z" fill="#000000" fill-rule="nonzero" fill-opacity="1" /><path clip-path="url(#clip430)" d="M171.436 334.671 Q167.825 334.671 165.996 338.236 Q164.19 341.778 164.19 348.907 Q164.19 356.014 165.996 359.578 Q167.825 363.12 171.436 363.12 Q175.07 363.12 176.876 359.578 Q178.704 356.014 178.704 348.907 Q178.704 341.778 176.876 338.236 Q175.07 334.671 171.436 334.671 M171.436 330.967 Q177.246 330.967 180.301 335.574 Q183.38 340.157 183.38 348.907 Q183.38 357.634 180.301 362.24 Q177.246 366.824 171.436 366.824 Q165.626 366.824 162.547 362.24 Q159.491 357.634 159.491 348.907 Q159.491 340.157 162.547 335.574 Q165.626 330.967 171.436 330.967 Z" fill="#000000" fill-rule="nonzero" fill-opacity="1" /><path clip-path="url(#clip430)" d="M201.598 349.741 Q198.264 349.741 196.343 351.523 Q194.445 353.305 194.445 356.43 Q194.445 359.555 196.343 361.338 Q198.264 363.12 201.598 363.12 Q204.931 363.12 206.852 361.338 Q208.774 359.532 208.774 356.43 Q208.774 353.305 206.852 351.523 Q204.954 349.741 201.598 349.741 M196.922 347.75 Q193.913 347.009 192.223 344.949 Q190.556 342.889 190.556 339.926 Q190.556 335.782 193.496 333.375 Q196.459 330.967 201.598 330.967 Q206.76 330.967 209.699 333.375 Q212.639 335.782 212.639 339.926 Q212.639 342.889 210.949 344.949 Q209.283 347.009 206.297 347.75 Q209.676 348.537 211.551 350.828 Q213.449 353.12 213.449 356.43 Q213.449 361.453 210.371 364.139 Q207.315 366.824 201.598 366.824 Q195.88 366.824 192.801 364.139 Q189.746 361.453 189.746 356.43 Q189.746 353.12 191.644 350.828 Q193.542 348.537 196.922 347.75 M195.209 340.366 Q195.209 343.051 196.875 344.555 Q198.565 346.06 201.598 346.06 Q204.607 346.06 206.297 344.555 Q208.01 343.051 208.01 340.366 Q208.01 337.68 206.297 336.176 Q204.607 334.671 201.598 334.671 Q198.565 334.671 196.875 336.176 Q195.209 337.68 195.209 340.366 Z" fill="#000000" fill-rule="nonzero" fill-opacity="1" /><path clip-path="url(#clip430)" d="M231.76 334.671 Q228.148 334.671 226.32 338.236 Q224.514 341.778 224.514 348.907 Q224.514 356.014 226.32 359.578 Q228.148 363.12 231.76 363.12 Q235.394 363.12 237.199 359.578 Q239.028 356.014 239.028 348.907 Q239.028 341.778 237.199 338.236 Q235.394 334.671 231.76 334.671 M231.76 330.967 Q237.57 330.967 240.625 335.574 Q243.704 340.157 243.704 348.907 Q243.704 357.634 240.625 362.24 Q237.57 366.824 231.76 366.824 Q225.949 366.824 222.871 362.24 Q219.815 357.634 219.815 348.907 Q219.815 340.157 222.871 335.574 Q225.949 330.967 231.76 330.967 Z" fill="#000000" fill-rule="nonzero" fill-opacity="1" /><path clip-path="url(#clip430)" d="M127.2 133.267 Q123.589 133.267 121.76 136.832 Q119.955 140.374 119.955 147.503 Q119.955 154.61 121.76 158.175 Q123.589 161.716 127.2 161.716 Q130.834 161.716 132.64 158.175 Q134.468 154.61 134.468 147.503 Q134.468 140.374 132.64 136.832 Q130.834 133.267 127.2 133.267 M127.2 129.564 Q133.01 129.564 136.066 134.17 Q139.144 138.754 139.144 147.503 Q139.144 156.23 136.066 160.837 Q133.01 165.42 127.2 165.42 Q121.39 165.42 118.311 160.837 Q115.256 156.23 115.256 147.503 Q115.256 138.754 118.311 134.17 Q121.39 129.564 127.2 129.564 Z" fill="#000000" fill-rule="nonzero" fill-opacity="1" /><path clip-path="url(#clip430)" d="M147.362 158.869 L152.246 158.869 L152.246 164.749 L147.362 164.749 L147.362 158.869 Z" fill="#000000" fill-rule="nonzero" fill-opacity="1" /><path clip-path="url(#clip430)" d="M172.431 133.267 Q168.82 133.267 166.991 136.832 Q165.186 140.374 165.186 147.503 Q165.186 154.61 166.991 158.175 Q168.82 161.716 172.431 161.716 Q176.065 161.716 177.871 158.175 Q179.7 154.61 179.7 147.503 Q179.7 140.374 177.871 136.832 Q176.065 133.267 172.431 133.267 M172.431 129.564 Q178.241 129.564 181.297 134.17 Q184.376 138.754 184.376 147.503 Q184.376 156.23 181.297 160.837 Q178.241 165.42 172.431 165.42 Q166.621 165.42 163.542 160.837 Q160.487 156.23 160.487 147.503 Q160.487 138.754 163.542 134.17 Q166.621 129.564 172.431 129.564 Z" fill="#000000" fill-rule="nonzero" fill-opacity="1" /><path clip-path="url(#clip430)" d="M202.593 148.337 Q199.26 148.337 197.338 150.119 Q195.44 151.902 195.44 155.027 Q195.44 158.152 197.338 159.934 Q199.26 161.716 202.593 161.716 Q205.926 161.716 207.848 159.934 Q209.769 158.128 209.769 155.027 Q209.769 151.902 207.848 150.119 Q205.949 148.337 202.593 148.337 M197.917 146.346 Q194.908 145.605 193.218 143.545 Q191.551 141.485 191.551 138.522 Q191.551 134.379 194.491 131.971 Q197.454 129.564 202.593 129.564 Q207.755 129.564 210.695 131.971 Q213.635 134.379 213.635 138.522 Q213.635 141.485 211.945 143.545 Q210.278 145.605 207.292 146.346 Q210.672 147.133 212.547 149.425 Q214.445 151.716 214.445 155.027 Q214.445 160.05 211.366 162.735 Q208.311 165.42 202.593 165.42 Q196.875 165.42 193.797 162.735 Q190.741 160.05 190.741 155.027 Q190.741 151.716 192.639 149.425 Q194.538 147.133 197.917 146.346 M196.204 138.962 Q196.204 141.647 197.871 143.152 Q199.561 144.656 202.593 144.656 Q205.602 144.656 207.292 143.152 Q209.005 141.647 209.005 138.962 Q209.005 136.277 207.292 134.772 Q205.602 133.267 202.593 133.267 Q199.561 133.267 197.871 134.772 Q196.204 136.277 196.204 138.962 Z" fill="#000000" fill-rule="nonzero" fill-opacity="1" /><path clip-path="url(#clip430)" d="M222.801 130.189 L241.158 130.189 L241.158 134.124 L227.084 134.124 L227.084 142.596 Q228.102 142.249 229.121 142.087 Q230.139 141.902 231.158 141.902 Q236.945 141.902 240.324 145.073 Q243.704 148.244 243.704 153.661 Q243.704 159.24 240.232 162.341 Q236.76 165.42 230.44 165.42 Q228.264 165.42 225.996 165.05 Q223.75 164.679 221.343 163.939 L221.343 159.24 Q223.426 160.374 225.648 160.929 Q227.871 161.485 230.347 161.485 Q234.352 161.485 236.69 159.378 Q239.028 157.272 239.028 153.661 Q239.028 150.05 236.69 147.943 Q234.352 145.837 230.347 145.837 Q228.473 145.837 226.598 146.253 Q224.746 146.67 222.801 147.55 L222.801 130.189 Z" fill="#000000" fill-rule="nonzero" fill-opacity="1" /><path clip-path="url(#clip430)" d="M34.7219 748.293 Q31.4754 746.352 28.6108 741.546 Q27.4968 739.668 27.4968 733.875 Q27.4968 727.382 32.6531 723.34 Q37.8093 719.266 46.212 719.266 Q54.6147 719.266 59.771 723.34 Q64.9272 727.382 64.9272 733.875 Q64.9272 737.79 63.3994 740.623 Q61.8398 743.424 58.657 745.27 L77.5631 745.27 L77.5631 751.158 L46.5303 751.158 Q39.1779 751.158 34.7219 748.293 M46.212 725.345 Q39.7508 725.345 36.0905 728.019 Q32.3984 730.66 32.3984 735.307 Q32.3984 739.954 36.0905 742.628 Q39.7508 745.27 46.212 745.27 Q52.6732 745.27 56.3653 742.628 Q60.0256 739.954 60.0256 735.307 Q60.0256 730.66 56.3653 728.019 Q52.6732 725.345 46.212 725.345 Z" fill="#000000" fill-rule="nonzero" fill-opacity="1" /><polyline clip-path="url(#clip432)" style="stroke:#009af9; stroke-linecap:round; stroke-linejoin:round; stroke-width:4; stroke-opacity:1; fill:none" points="338.375,86.1857 441.307,128.328 544.239,320.263 647.171,721.931 750.103,1179.02 853.036,1384.24 955.968,1179.02 1058.9,721.931 1161.83,320.263 1264.76,128.328 1367.7,86.1857 1470.63,128.328 1573.56,320.263 1676.49,721.931 1779.42,1179.02 1882.36,1384.24 1985.29,1179.02 2088.22,721.931 2191.15,320.263 2294.08,128.328 "/>
<circle clip-path="url(#clip432)" cx="338.375" cy="86.1857" r="7.2" fill="#009af9" fill-rule="evenodd" fill-opacity="1" stroke="#000000" stroke-opacity="1" stroke-width="3.2"/>
<circle clip-path="url(#clip432)" cx="441.307" cy="128.328" r="7.2" fill="#009af9" fill-rule="evenodd" fill-opacity="1" stroke="#000000" stroke-opacity="1" stroke-width="3.2"/>
<circle clip-path="url(#clip432)" cx="544.239" cy="320.263" r="7.2" fill="#009af9" fill-rule="evenodd" fill-opacity="1" stroke="#000000" stroke-opacity="1" stroke-width="3.2"/>
<circle clip-path="url(#clip432)" cx="647.171" cy="721.931" r="7.2" fill="#009af9" fill-rule="evenodd" fill-opacity="1" stroke="#000000" stroke-opacity="1" stroke-width="3.2"/>
<circle clip-path="url(#clip432)" cx="750.103" cy="1179.02" r="7.2" fill="#009af9" fill-rule="evenodd" fill-opacity="1" stroke="#000000" stroke-opacity="1" stroke-width="3.2"/>
<circle clip-path="url(#clip432)" cx="853.036" cy="1384.24" r="7.2" fill="#009af9" fill-rule="evenodd" fill-opacity="1" stroke="#000000" stroke-opacity="1" stroke-width="3.2"/>
<circle clip-path="url(#clip432)" cx="955.968" cy="1179.02" r="7.2" fill="#009af9" fill-rule="evenodd" fill-opacity="1" stroke="#000000" stroke-opacity="1" stroke-width="3.2"/>
<circle clip-path="url(#clip432)" cx="1058.9" cy="721.931" r="7.2" fill="#009af9" fill-rule="evenodd" fill-opacity="1" stroke="#000000" stroke-opacity="1" stroke-width="3.2"/>
<circle clip-path="url(#clip432)" cx="1161.83" cy="320.263" r="7.2" fill="#009af9" fill-rule="evenodd" fill-opacity="1" stroke="#000000" stroke-opacity="1" stroke-width="3.2"/>
<circle clip-path="url(#clip432)" cx="1264.76" cy="128.328" r="7.2" fill="#009af9" fill-rule="evenodd" fill-opacity="1" stroke="#000000" stroke-opacity="1" stroke-width="3.2"/>
<circle clip-path="url(#clip432)" cx="1367.7" cy="86.1857" r="7.2" fill="#009af9" fill-rule="evenodd" fill-opacity="1" stroke="#000000" stroke-opacity="1" stroke-width="3.2"/>
<circle clip-path="url(#clip432)" cx="1470.63" cy="128.328" r="7.2" fill="#009af9" fill-rule="evenodd" fill-opacity="1" stroke="#000000" stroke-opacity="1" stroke-width="3.2"/>
<circle clip-path="url(#clip432)" cx="1573.56" cy="320.263" r="7.2" fill="#009af9" fill-rule="evenodd" fill-opacity="1" stroke="#000000" stroke-opacity="1" stroke-width="3.2"/>
<circle clip-path="url(#clip432)" cx="1676.49" cy="721.931" r="7.2" fill="#009af9" fill-rule="evenodd" fill-opacity="1" stroke="#000000" stroke-opacity="1" stroke-width="3.2"/>
<circle clip-path="url(#clip432)" cx="1779.42" cy="1179.02" r="7.2" fill="#009af9" fill-rule="evenodd" fill-opacity="1" stroke="#000000" stroke-opacity="1" stroke-width="3.2"/>
<circle clip-path="url(#clip432)" cx="1882.36" cy="1384.24" r="7.2" fill="#009af9" fill-rule="evenodd" fill-opacity="1" stroke="#000000" stroke-opacity="1" stroke-width="3.2"/>
<circle clip-path="url(#clip432)" cx="1985.29" cy="1179.02" r="7.2" fill="#009af9" fill-rule="evenodd" fill-opacity="1" stroke="#000000" stroke-opacity="1" stroke-width="3.2"/>
<circle clip-path="url(#clip432)" cx="2088.22" cy="721.931" r="7.2" fill="#009af9" fill-rule="evenodd" fill-opacity="1" stroke="#000000" stroke-opacity="1" stroke-width="3.2"/>
<circle clip-path="url(#clip432)" cx="2191.15" cy="320.263" r="7.2" fill="#009af9" fill-rule="evenodd" fill-opacity="1" stroke="#000000" stroke-opacity="1" stroke-width="3.2"/>
<circle clip-path="url(#clip432)" cx="2294.08" cy="128.328" r="7.2" fill="#009af9" fill-rule="evenodd" fill-opacity="1" stroke="#000000" stroke-opacity="1" stroke-width="3.2"/>
</svg>
