<?xml version="1.0" encoding="utf-8"?>
<svg xmlns="http://www.w3.org/2000/svg" xmlns:xlink="http://www.w3.org/1999/xlink" width="600" height="400" viewBox="0 0 2400 1600">
<defs>
  <clipPath id="clip490">
    <rect x="0" y="0" width="2400" height="1600"/>
  </clipPath>
</defs>
<path clip-path="url(#clip490)" d="M0 1600 L2400 1600 L2400 0 L0 0  Z" fill="#ffffff" fill-rule="evenodd" fill-opacity="1"/>
<defs>
  <clipPath id="clip491">
    <rect x="480" y="0" width="1681" height="1600"/>
  </clipPath>
</defs>
<path clip-path="url(#clip490)" d="M287.366 1423.18 L2352.76 1423.18 L2352.76 47.2441 L287.366 47.2441  Z" fill="#ffffff" fill-rule="evenodd" fill-opacity="1"/>
<defs>
  <clipPath id="clip492">
    <rect x="287" y="47" width="2066" height="1377"/>
  </clipPath>
</defs>
<polyline clip-path="url(#clip492)" style="stroke:#000000; stroke-linecap:round; stroke-linejoin:round; stroke-width:2; stroke-opacity:0.1; fill:none" points="287.366,1423.18 287.366,47.2441 "/>
<polyline clip-path="url(#clip492)" style="stroke:#000000; stroke-linecap:round; stroke-linejoin:round; stroke-width:2; stroke-opacity:0.1; fill:none" points="747.636,1423.18 747.636,47.2441 "/>
<polyline clip-path="url(#clip492)" style="stroke:#000000; stroke-linecap:round; stroke-linejoin:round; stroke-width:2; stroke-opacity:0.1; fill:none" points="910.366,1423.18 910.366,47.2441 "/>
<polyline clip-path="url(#clip492)" style="stroke:#000000; stroke-linecap:round; stroke-linejoin:round; stroke-width:2; stroke-opacity:0.1; fill:none" points="1398.56,1423.18 1398.56,47.2441 "/>
<polyline clip-path="url(#clip492)" style="stroke:#000000; stroke-linecap:round; stroke-linejoin:round; stroke-width:2; stroke-opacity:0.1; fill:none" points="1797.16,1423.18 1797.16,47.2441 "/>
<polyline clip-path="url(#clip492)" style="stroke:#000000; stroke-linecap:round; stroke-linejoin:round; stroke-width:2; stroke-opacity:0.1; fill:none" points="2122.62,1423.18 2122.62,47.2441 "/>
<polyline clip-path="url(#clip492)" style="stroke:#000000; stroke-linecap:round; stroke-linejoin:round; stroke-width:2; stroke-opacity:0.1; fill:none" points="2352.76,1423.18 2352.76,47.2441 "/>
<polyline clip-path="url(#clip490)" style="stroke:#000000; stroke-linecap:round; stroke-linejoin:round; stroke-width:4; stroke-opacity:1; fill:none" points="287.366,1423.18 2352.76,1423.18 "/>
<polyline clip-path="url(#clip490)" style="stroke:#000000; stroke-linecap:round; stroke-linejoin:round; stroke-width:4; stroke-opacity:1; fill:none" points="287.366,1423.18 287.366,1404.28 "/>
<polyline clip-path="url(#clip490)" style="stroke:#000000; stroke-linecap:round; stroke-linejoin:round; stroke-width:4; stroke-opacity:1; fill:none" points="747.636,1423.18 747.636,1404.28 "/>
<polyline clip-path="url(#clip490)" style="stroke:#000000; stroke-linecap:round; stroke-linejoin:round; stroke-width:4; stroke-opacity:1; fill:none" points="910.366,1423.18 910.366,1404.28 "/>
<polyline clip-path="url(#clip490)" style="stroke:#000000; stroke-linecap:round; stroke-linejoin:round; stroke-width:4; stroke-opacity:1; fill:none" points="1398.56,1423.18 1398.56,1404.28 "/>
<polyline clip-path="url(#clip490)" style="stroke:#000000; stroke-linecap:round; stroke-linejoin:round; stroke-width:4; stroke-opacity:1; fill:none" points="1797.16,1423.18 1797.16,1404.28 "/>
<polyline clip-path="url(#clip490)" style="stroke:#000000; stroke-linecap:round; stroke-linejoin:round; stroke-width:4; stroke-opacity:1; fill:none" points="2122.62,1423.18 2122.62,1404.28 "/>
<polyline clip-path="url(#clip490)" style="stroke:#000000; stroke-linecap:round; stroke-linejoin:round; stroke-width:4; stroke-opacity:1; fill:none" points="2352.76,1423.18 2352.76,1404.28 "/>
<path clip-path="url(#clip490)" d="M276.614 1485.58 L276.614 1451.02 L298.118 1451.02 L298.118 1454.96 L281.29 1454.96 L281.29 1485.58 L276.614 1485.58 Z" fill="#000000" fill-rule="nonzero" fill-opacity="1" /><path clip-path="url(#clip490)" d="M734.418 1451.02 L739.441 1451.02 L748.029 1463.87 L756.663 1451.02 L761.687 1451.02 L750.576 1467.62 L762.427 1485.58 L757.404 1485.58 L747.682 1470.88 L737.89 1485.58 L732.844 1485.58 L745.182 1467.13 L734.418 1451.02 Z" fill="#000000" fill-rule="nonzero" fill-opacity="1" /><path clip-path="url(#clip490)" d="M855.979 1451.02 L860.679 1451.02 L860.679 1472.02 Q860.679 1477.57 862.692 1480.02 Q864.706 1482.45 869.22 1482.45 Q873.711 1482.45 875.725 1480.02 Q877.739 1477.57 877.739 1472.02 L877.739 1451.02 L882.438 1451.02 L882.438 1472.59 Q882.438 1479.35 879.081 1482.8 Q875.748 1486.25 869.22 1486.25 Q862.669 1486.25 859.313 1482.8 Q855.979 1479.35 855.979 1472.59 L855.979 1451.02 Z" fill="#000000" fill-rule="nonzero" fill-opacity="1" /><path clip-path="url(#clip490)" d="M911.581 1449.35 L911.581 1496.76 L907.646 1496.76 L907.646 1449.35 L911.581 1449.35 Z" fill="#000000" fill-rule="nonzero" fill-opacity="1" /><path clip-path="url(#clip490)" d="M937.322 1451.02 L941.998 1451.02 L941.998 1465.63 L957.507 1451.02 L963.525 1451.02 L946.372 1467.13 L964.752 1485.58 L958.595 1485.58 L941.998 1468.94 L941.998 1485.58 L937.322 1485.58 L937.322 1451.02 Z" fill="#000000" fill-rule="nonzero" fill-opacity="1" /><path clip-path="url(#clip490)" d="M1387.8 1485.58 L1387.8 1451.02 L1409.31 1451.02 L1409.31 1454.96 L1392.48 1454.96 L1392.48 1485.58 L1387.8 1485.58 Z" fill="#000000" fill-rule="nonzero" fill-opacity="1" /><path clip-path="url(#clip490)" d="M1786.41 1451.02 L1791.08 1451.02 L1791.08 1481.64 L1807.91 1481.64 L1807.91 1485.58 L1786.41 1485.58 L1786.41 1451.02 Z" fill="#000000" fill-rule="nonzero" fill-opacity="1" /><path clip-path="url(#clip490)" d="M2100.75 1451.02 L2105.47 1451.02 L2112.74 1480.23 L2119.98 1451.02 L2125.24 1451.02 L2132.51 1480.23 L2139.75 1451.02 L2144.5 1451.02 L2135.82 1485.58 L2129.94 1485.58 L2122.64 1455.58 L2115.28 1485.58 L2109.4 1485.58 L2100.75 1451.02 Z" fill="#000000" fill-rule="nonzero" fill-opacity="1" /><path clip-path="url(#clip490)" d="M2339.54 1451.02 L2344.56 1451.02 L2353.15 1463.87 L2361.78 1451.02 L2366.81 1451.02 L2355.7 1467.62 L2367.55 1485.58 L2362.52 1485.58 L2352.8 1470.88 L2343.01 1485.58 L2337.96 1485.58 L2350.3 1467.13 L2339.54 1451.02 Z" fill="#000000" fill-rule="nonzero" fill-opacity="1" /><path clip-path="url(#clip490)" d="M1121.72 1532.4 L1127.58 1532.4 L1134.9 1560.21 L1142.19 1532.4 L1149.09 1532.4 L1156.41 1560.21 L1163.7 1532.4 L1169.56 1532.4 L1160.23 1568.04 L1153.33 1568.04 L1145.66 1538.83 L1137.95 1568.04 L1131.05 1568.04 L1121.72 1532.4 Z" fill="#000000" fill-rule="nonzero" fill-opacity="1" /><path clip-path="url(#clip490)" d="M1194.64 1550.12 Q1187.54 1550.12 1184.81 1551.75 Q1182.07 1553.37 1182.07 1557.29 Q1182.07 1560.4 1184.11 1562.25 Q1186.17 1564.07 1189.71 1564.07 Q1194.58 1564.07 1197.51 1560.63 Q1200.47 1557.16 1200.47 1551.43 L1200.47 1550.12 L1194.64 1550.12 M1206.32 1547.71 L1206.32 1568.04 L1200.47 1568.04 L1200.47 1562.63 Q1198.46 1565.88 1195.47 1567.44 Q1192.48 1568.97 1188.15 1568.97 Q1182.67 1568.97 1179.43 1565.91 Q1176.21 1562.82 1176.21 1557.67 Q1176.21 1551.65 1180.22 1548.6 Q1184.26 1545.54 1192.25 1545.54 L1200.47 1545.54 L1200.47 1544.97 Q1200.47 1540.93 1197.79 1538.73 Q1195.15 1536.5 1190.34 1536.5 Q1187.29 1536.5 1184.39 1537.23 Q1181.5 1537.97 1178.82 1539.43 L1178.82 1534.02 Q1182.04 1532.78 1185.06 1532.17 Q1188.08 1531.54 1190.95 1531.54 Q1198.68 1531.54 1202.5 1535.55 Q1206.32 1539.56 1206.32 1547.71 Z" fill="#000000" fill-rule="nonzero" fill-opacity="1" /><path clip-path="url(#clip490)" d="M1214.18 1532.4 L1220.39 1532.4 L1231.53 1562.31 L1242.67 1532.4 L1248.88 1532.4 L1235.51 1568.04 L1227.55 1568.04 L1214.18 1532.4 Z" fill="#000000" fill-rule="nonzero" fill-opacity="1" /><path clip-path="url(#clip490)" d="M1287.45 1548.76 L1287.45 1551.62 L1260.53 1551.62 Q1260.91 1557.67 1264.15 1560.85 Q1267.43 1564 1273.26 1564 Q1276.63 1564 1279.78 1563.17 Q1282.96 1562.35 1286.08 1560.69 L1286.08 1566.23 Q1282.93 1567.57 1279.62 1568.27 Q1276.31 1568.97 1272.91 1568.97 Q1264.38 1568.97 1259.38 1564 Q1254.41 1559.04 1254.41 1550.57 Q1254.41 1541.82 1259.13 1536.69 Q1263.87 1531.54 1271.89 1531.54 Q1279.08 1531.54 1283.25 1536.18 Q1287.45 1540.8 1287.45 1548.76 M1281.6 1547.04 Q1281.53 1542.23 1278.89 1539.37 Q1276.28 1536.5 1271.95 1536.5 Q1267.05 1536.5 1264.09 1539.27 Q1261.16 1542.04 1260.72 1547.07 L1281.6 1547.04 Z" fill="#000000" fill-rule="nonzero" fill-opacity="1" /><path clip-path="url(#clip490)" d="M1313.58 1532.4 L1319.79 1532.4 L1330.93 1562.31 L1342.07 1532.4 L1348.28 1532.4 L1334.91 1568.04 L1326.95 1568.04 L1313.58 1532.4 Z" fill="#000000" fill-rule="nonzero" fill-opacity="1" /><path clip-path="url(#clip490)" d="M1386.85 1548.76 L1386.85 1551.62 L1359.93 1551.62 Q1360.31 1557.67 1363.55 1560.85 Q1366.83 1564 1372.66 1564 Q1376.03 1564 1379.18 1563.17 Q1382.37 1562.35 1385.48 1560.69 L1385.48 1566.23 Q1382.33 1567.57 1379.02 1568.27 Q1375.71 1568.97 1372.31 1568.97 Q1363.78 1568.97 1358.78 1564 Q1353.82 1559.04 1353.82 1550.57 Q1353.82 1541.82 1358.53 1536.69 Q1363.27 1531.54 1371.29 1531.54 Q1378.48 1531.54 1382.65 1536.18 Q1386.85 1540.8 1386.85 1548.76 M1381 1547.04 Q1380.93 1542.23 1378.29 1539.37 Q1375.68 1536.5 1371.35 1536.5 Q1366.45 1536.5 1363.49 1539.27 Q1360.56 1542.04 1360.12 1547.07 L1381 1547.04 Z" fill="#000000" fill-rule="nonzero" fill-opacity="1" /><path clip-path="url(#clip490)" d="M1422.12 1533.76 L1422.12 1539.24 Q1419.64 1537.87 1417.12 1537.2 Q1414.64 1536.5 1412.09 1536.5 Q1406.4 1536.5 1403.24 1540.13 Q1400.09 1543.73 1400.09 1550.25 Q1400.09 1556.78 1403.24 1560.4 Q1406.4 1564 1412.09 1564 Q1414.64 1564 1417.12 1563.33 Q1419.64 1562.63 1422.12 1561.26 L1422.12 1566.68 Q1419.67 1567.82 1417.03 1568.39 Q1414.42 1568.97 1411.46 1568.97 Q1403.4 1568.97 1398.66 1563.91 Q1393.92 1558.85 1393.92 1550.25 Q1393.92 1541.53 1398.69 1536.53 Q1403.5 1531.54 1411.84 1531.54 Q1414.54 1531.54 1417.12 1532.11 Q1419.7 1532.65 1422.12 1533.76 Z" fill="#000000" fill-rule="nonzero" fill-opacity="1" /><path clip-path="url(#clip490)" d="M1438.1 1522.27 L1438.1 1532.4 L1450.16 1532.4 L1450.16 1536.95 L1438.1 1536.95 L1438.1 1556.3 Q1438.1 1560.66 1439.27 1561.9 Q1440.48 1563.14 1444.14 1563.14 L1450.16 1563.14 L1450.16 1568.04 L1444.14 1568.04 Q1437.36 1568.04 1434.79 1565.53 Q1432.21 1562.98 1432.21 1556.3 L1432.21 1536.95 L1427.91 1536.95 L1427.91 1532.4 L1432.21 1532.4 L1432.21 1522.27 L1438.1 1522.27 Z" fill="#000000" fill-rule="nonzero" fill-opacity="1" /><path clip-path="url(#clip490)" d="M1471.68 1536.5 Q1466.97 1536.5 1464.23 1540.19 Q1461.49 1543.85 1461.49 1550.25 Q1461.49 1556.65 1464.2 1560.34 Q1466.93 1564 1471.68 1564 Q1476.35 1564 1479.09 1560.31 Q1481.83 1556.62 1481.83 1550.25 Q1481.83 1543.92 1479.09 1540.23 Q1476.35 1536.5 1471.68 1536.5 M1471.68 1531.54 Q1479.31 1531.54 1483.68 1536.5 Q1488.04 1541.47 1488.04 1550.25 Q1488.04 1559 1483.68 1564 Q1479.31 1568.97 1471.68 1568.97 Q1464.01 1568.97 1459.64 1564 Q1455.32 1559 1455.32 1550.25 Q1455.32 1541.47 1459.64 1536.5 Q1464.01 1531.54 1471.68 1531.54 Z" fill="#000000" fill-rule="nonzero" fill-opacity="1" /><path clip-path="url(#clip490)" d="M1518.4 1537.87 Q1517.41 1537.3 1516.24 1537.04 Q1515.09 1536.76 1513.69 1536.76 Q1508.72 1536.76 1506.05 1540 Q1503.41 1543.22 1503.41 1549.27 L1503.41 1568.04 L1497.52 1568.04 L1497.52 1532.4 L1503.41 1532.4 L1503.41 1537.93 Q1505.26 1534.69 1508.22 1533.13 Q1511.18 1531.54 1515.41 1531.54 Q1516.01 1531.54 1516.75 1531.63 Q1517.48 1531.7 1518.37 1531.85 L1518.4 1537.87 Z" fill="#000000" fill-rule="nonzero" fill-opacity="1" /><polyline clip-path="url(#clip492)" style="stroke:#000000; stroke-linecap:round; stroke-linejoin:round; stroke-width:2; stroke-opacity:0.1; fill:none" points="287.366,1193.86 2352.76,1193.86 "/>
<polyline clip-path="url(#clip492)" style="stroke:#000000; stroke-linecap:round; stroke-linejoin:round; stroke-width:2; stroke-opacity:0.1; fill:none" points="287.366,964.535 2352.76,964.535 "/>
<polyline clip-path="url(#clip492)" style="stroke:#000000; stroke-linecap:round; stroke-linejoin:round; stroke-width:2; stroke-opacity:0.1; fill:none" points="287.366,735.212 2352.76,735.212 "/>
<polyline clip-path="url(#clip492)" style="stroke:#000000; stroke-linecap:round; stroke-linejoin:round; stroke-width:2; stroke-opacity:0.1; fill:none" points="287.366,505.889 2352.76,505.889 "/>
<polyline clip-path="url(#clip492)" style="stroke:#000000; stroke-linecap:round; stroke-linejoin:round; stroke-width:2; stroke-opacity:0.1; fill:none" points="287.366,276.567 2352.76,276.567 "/>
<polyline clip-path="url(#clip490)" style="stroke:#000000; stroke-linecap:round; stroke-linejoin:round; stroke-width:4; stroke-opacity:1; fill:none" points="287.366,1423.18 287.366,47.2441 "/>
<polyline clip-path="url(#clip490)" style="stroke:#000000; stroke-linecap:round; stroke-linejoin:round; stroke-width:4; stroke-opacity:1; fill:none" points="287.366,1193.86 306.264,1193.86 "/>
<polyline clip-path="url(#clip490)" style="stroke:#000000; stroke-linecap:round; stroke-linejoin:round; stroke-width:4; stroke-opacity:1; fill:none" points="287.366,964.535 306.264,964.535 "/>
<polyline clip-path="url(#clip490)" style="stroke:#000000; stroke-linecap:round; stroke-linejoin:round; stroke-width:4; stroke-opacity:1; fill:none" points="287.366,735.212 306.264,735.212 "/>
<polyline clip-path="url(#clip490)" style="stroke:#000000; stroke-linecap:round; stroke-linejoin:round; stroke-width:4; stroke-opacity:1; fill:none" points="287.366,505.889 306.264,505.889 "/>
<polyline clip-path="url(#clip490)" style="stroke:#000000; stroke-linecap:round; stroke-linejoin:round; stroke-width:4; stroke-opacity:1; fill:none" points="287.366,276.567 306.264,276.567 "/>
<path clip-path="url(#clip490)" d="M114.26 1194.31 L143.936 1194.31 L143.936 1198.24 L114.26 1198.24 L114.26 1194.31 Z" fill="#000000" fill-rule="nonzero" fill-opacity="1" /><path clip-path="url(#clip490)" d="M164.028 1179.66 Q160.417 1179.66 158.589 1183.22 Q156.783 1186.76 156.783 1193.89 Q156.783 1201 158.589 1204.56 Q160.417 1208.1 164.028 1208.1 Q167.663 1208.1 169.468 1204.56 Q171.297 1201 171.297 1193.89 Q171.297 1186.76 169.468 1183.22 Q167.663 1179.66 164.028 1179.66 M164.028 1175.95 Q169.839 1175.95 172.894 1180.56 Q175.973 1185.14 175.973 1193.89 Q175.973 1202.62 172.894 1207.23 Q169.839 1211.81 164.028 1211.81 Q158.218 1211.81 155.14 1207.23 Q152.084 1202.62 152.084 1193.89 Q152.084 1185.14 155.14 1180.56 Q158.218 1175.95 164.028 1175.95 Z" fill="#000000" fill-rule="nonzero" fill-opacity="1" /><path clip-path="url(#clip490)" d="M184.19 1205.26 L189.075 1205.26 L189.075 1211.14 L184.19 1211.14 L184.19 1205.26 Z" fill="#000000" fill-rule="nonzero" fill-opacity="1" /><path clip-path="url(#clip490)" d="M200.07 1207.2 L207.709 1207.2 L207.709 1180.84 L199.399 1182.5 L199.399 1178.24 L207.662 1176.58 L212.338 1176.58 L212.338 1207.2 L219.977 1207.2 L219.977 1211.14 L200.07 1211.14 L200.07 1207.2 Z" fill="#000000" fill-rule="nonzero" fill-opacity="1" /><path clip-path="url(#clip490)" d="M239.422 1179.66 Q235.81 1179.66 233.982 1183.22 Q232.176 1186.76 232.176 1193.89 Q232.176 1201 233.982 1204.56 Q235.81 1208.1 239.422 1208.1 Q243.056 1208.1 244.861 1204.56 Q246.69 1201 246.69 1193.89 Q246.69 1186.76 244.861 1183.22 Q243.056 1179.66 239.422 1179.66 M239.422 1175.95 Q245.232 1175.95 248.287 1180.56 Q251.366 1185.14 251.366 1193.89 Q251.366 1202.62 248.287 1207.23 Q245.232 1211.81 239.422 1211.81 Q233.611 1211.81 230.533 1207.23 Q227.477 1202.62 227.477 1193.89 Q227.477 1185.14 230.533 1180.56 Q233.611 1175.95 239.422 1175.95 Z" fill="#000000" fill-rule="nonzero" fill-opacity="1" /><path clip-path="url(#clip490)" d="M115.256 964.986 L144.931 964.986 L144.931 968.921 L115.256 968.921 L115.256 964.986 Z" fill="#000000" fill-rule="nonzero" fill-opacity="1" /><path clip-path="url(#clip490)" d="M165.024 950.333 Q161.413 950.333 159.584 953.898 Q157.778 957.44 157.778 964.569 Q157.778 971.676 159.584 975.241 Q161.413 978.782 165.024 978.782 Q168.658 978.782 170.464 975.241 Q172.292 971.676 172.292 964.569 Q172.292 957.44 170.464 953.898 Q168.658 950.333 165.024 950.333 M165.024 946.63 Q170.834 946.63 173.889 951.236 Q176.968 955.819 176.968 964.569 Q176.968 973.296 173.889 977.903 Q170.834 982.486 165.024 982.486 Q159.214 982.486 156.135 977.903 Q153.079 973.296 153.079 964.569 Q153.079 955.819 156.135 951.236 Q159.214 946.63 165.024 946.63 Z" fill="#000000" fill-rule="nonzero" fill-opacity="1" /><path clip-path="url(#clip490)" d="M185.186 975.935 L190.07 975.935 L190.07 981.815 L185.186 981.815 L185.186 975.935 Z" fill="#000000" fill-rule="nonzero" fill-opacity="1" /><path clip-path="url(#clip490)" d="M210.255 950.333 Q206.644 950.333 204.815 953.898 Q203.01 957.44 203.01 964.569 Q203.01 971.676 204.815 975.241 Q206.644 978.782 210.255 978.782 Q213.889 978.782 215.695 975.241 Q217.523 971.676 217.523 964.569 Q217.523 957.44 215.695 953.898 Q213.889 950.333 210.255 950.333 M210.255 946.63 Q216.065 946.63 219.121 951.236 Q222.199 955.819 222.199 964.569 Q222.199 973.296 219.121 977.903 Q216.065 982.486 210.255 982.486 Q204.445 982.486 201.366 977.903 Q198.311 973.296 198.311 964.569 Q198.311 955.819 201.366 951.236 Q204.445 946.63 210.255 946.63 Z" fill="#000000" fill-rule="nonzero" fill-opacity="1" /><path clip-path="url(#clip490)" d="M230.463 947.255 L248.82 947.255 L248.82 951.19 L234.746 951.19 L234.746 959.662 Q235.764 959.315 236.783 959.153 Q237.801 958.967 238.82 958.967 Q244.607 958.967 247.986 962.139 Q251.366 965.31 251.366 970.727 Q251.366 976.305 247.894 979.407 Q244.421 982.486 238.102 982.486 Q235.926 982.486 233.658 982.116 Q231.412 981.745 229.005 981.004 L229.005 976.305 Q231.088 977.44 233.31 977.995 Q235.533 978.551 238.009 978.551 Q242.014 978.551 244.352 976.444 Q246.69 974.338 246.69 970.727 Q246.69 967.116 244.352 965.009 Q242.014 962.903 238.009 962.903 Q236.135 962.903 234.26 963.319 Q232.408 963.736 230.463 964.616 L230.463 947.255 Z" fill="#000000" fill-rule="nonzero" fill-opacity="1" /><path clip-path="url(#clip490)" d="M164.028 721.011 Q160.417 721.011 158.589 724.575 Q156.783 728.117 156.783 735.247 Q156.783 742.353 158.589 745.918 Q160.417 749.46 164.028 749.46 Q167.663 749.46 169.468 745.918 Q171.297 742.353 171.297 735.247 Q171.297 728.117 169.468 724.575 Q167.663 721.011 164.028 721.011 M164.028 717.307 Q169.839 717.307 172.894 721.913 Q175.973 726.497 175.973 735.247 Q175.973 743.973 172.894 748.58 Q169.839 753.163 164.028 753.163 Q158.218 753.163 155.14 748.58 Q152.084 743.973 152.084 735.247 Q152.084 726.497 155.14 721.913 Q158.218 717.307 164.028 717.307 Z" fill="#000000" fill-rule="nonzero" fill-opacity="1" /><path clip-path="url(#clip490)" d="M184.19 746.612 L189.075 746.612 L189.075 752.492 L184.19 752.492 L184.19 746.612 Z" fill="#000000" fill-rule="nonzero" fill-opacity="1" /><path clip-path="url(#clip490)" d="M209.26 721.011 Q205.649 721.011 203.82 724.575 Q202.014 728.117 202.014 735.247 Q202.014 742.353 203.82 745.918 Q205.649 749.46 209.26 749.46 Q212.894 749.46 214.699 745.918 Q216.528 742.353 216.528 735.247 Q216.528 728.117 214.699 724.575 Q212.894 721.011 209.26 721.011 M209.26 717.307 Q215.07 717.307 218.125 721.913 Q221.204 726.497 221.204 735.247 Q221.204 743.973 218.125 748.58 Q215.07 753.163 209.26 753.163 Q203.449 753.163 200.371 748.58 Q197.315 743.973 197.315 735.247 Q197.315 726.497 200.371 721.913 Q203.449 717.307 209.26 717.307 Z" fill="#000000" fill-rule="nonzero" fill-opacity="1" /><path clip-path="url(#clip490)" d="M239.422 721.011 Q235.81 721.011 233.982 724.575 Q232.176 728.117 232.176 735.247 Q232.176 742.353 233.982 745.918 Q235.81 749.46 239.422 749.46 Q243.056 749.46 244.861 745.918 Q246.69 742.353 246.69 735.247 Q246.69 728.117 244.861 724.575 Q243.056 721.011 239.422 721.011 M239.422 717.307 Q245.232 717.307 248.287 721.913 Q251.366 726.497 251.366 735.247 Q251.366 743.973 248.287 748.58 Q245.232 753.163 239.422 753.163 Q233.611 753.163 230.533 748.58 Q227.477 743.973 227.477 735.247 Q227.477 726.497 230.533 721.913 Q233.611 717.307 239.422 717.307 Z" fill="#000000" fill-rule="nonzero" fill-opacity="1" /><path clip-path="url(#clip490)" d="M165.024 491.688 Q161.413 491.688 159.584 495.253 Q157.778 498.794 157.778 505.924 Q157.778 513.031 159.584 516.595 Q161.413 520.137 165.024 520.137 Q168.658 520.137 170.464 516.595 Q172.292 513.031 172.292 505.924 Q172.292 498.794 170.464 495.253 Q168.658 491.688 165.024 491.688 M165.024 487.984 Q170.834 487.984 173.889 492.591 Q176.968 497.174 176.968 505.924 Q176.968 514.651 173.889 519.257 Q170.834 523.841 165.024 523.841 Q159.214 523.841 156.135 519.257 Q153.079 514.651 153.079 505.924 Q153.079 497.174 156.135 492.591 Q159.214 487.984 165.024 487.984 Z" fill="#000000" fill-rule="nonzero" fill-opacity="1" /><path clip-path="url(#clip490)" d="M185.186 517.29 L190.07 517.29 L190.07 523.169 L185.186 523.169 L185.186 517.29 Z" fill="#000000" fill-rule="nonzero" fill-opacity="1" /><path clip-path="url(#clip490)" d="M210.255 491.688 Q206.644 491.688 204.815 495.253 Q203.01 498.794 203.01 505.924 Q203.01 513.031 204.815 516.595 Q206.644 520.137 210.255 520.137 Q213.889 520.137 215.695 516.595 Q217.523 513.031 217.523 505.924 Q217.523 498.794 215.695 495.253 Q213.889 491.688 210.255 491.688 M210.255 487.984 Q216.065 487.984 219.121 492.591 Q222.199 497.174 222.199 505.924 Q222.199 514.651 219.121 519.257 Q216.065 523.841 210.255 523.841 Q204.445 523.841 201.366 519.257 Q198.311 514.651 198.311 505.924 Q198.311 497.174 201.366 492.591 Q204.445 487.984 210.255 487.984 Z" fill="#000000" fill-rule="nonzero" fill-opacity="1" /><path clip-path="url(#clip490)" d="M230.463 488.609 L248.82 488.609 L248.82 492.545 L234.746 492.545 L234.746 501.017 Q235.764 500.669 236.783 500.507 Q237.801 500.322 238.82 500.322 Q244.607 500.322 247.986 503.494 Q251.366 506.665 251.366 512.081 Q251.366 517.66 247.894 520.762 Q244.421 523.841 238.102 523.841 Q235.926 523.841 233.658 523.47 Q231.412 523.1 229.005 522.359 L229.005 517.66 Q231.088 518.794 233.31 519.35 Q235.533 519.905 238.009 519.905 Q242.014 519.905 244.352 517.799 Q246.69 515.693 246.69 512.081 Q246.69 508.47 244.352 506.364 Q242.014 504.257 238.009 504.257 Q236.135 504.257 234.26 504.674 Q232.408 505.091 230.463 505.97 L230.463 488.609 Z" fill="#000000" fill-rule="nonzero" fill-opacity="1" /><path clip-path="url(#clip490)" d="M164.028 262.365 Q160.417 262.365 158.589 265.93 Q156.783 269.472 156.783 276.601 Q156.783 283.708 158.589 287.273 Q160.417 290.814 164.028 290.814 Q167.663 290.814 169.468 287.273 Q171.297 283.708 171.297 276.601 Q171.297 269.472 169.468 265.93 Q167.663 262.365 164.028 262.365 M164.028 258.662 Q169.839 258.662 172.894 263.268 Q175.973 267.851 175.973 276.601 Q175.973 285.328 172.894 289.935 Q169.839 294.518 164.028 294.518 Q158.218 294.518 155.14 289.935 Q152.084 285.328 152.084 276.601 Q152.084 267.851 155.14 263.268 Q158.218 258.662 164.028 258.662 Z" fill="#000000" fill-rule="nonzero" fill-opacity="1" /><path clip-path="url(#clip490)" d="M184.19 287.967 L189.075 287.967 L189.075 293.847 L184.19 293.847 L184.19 287.967 Z" fill="#000000" fill-rule="nonzero" fill-opacity="1" /><path clip-path="url(#clip490)" d="M200.07 289.912 L207.709 289.912 L207.709 263.546 L199.399 265.213 L199.399 260.953 L207.662 259.287 L212.338 259.287 L212.338 289.912 L219.977 289.912 L219.977 293.847 L200.07 293.847 L200.07 289.912 Z" fill="#000000" fill-rule="nonzero" fill-opacity="1" /><path clip-path="url(#clip490)" d="M239.422 262.365 Q235.81 262.365 233.982 265.93 Q232.176 269.472 232.176 276.601 Q232.176 283.708 233.982 287.273 Q235.81 290.814 239.422 290.814 Q243.056 290.814 244.861 287.273 Q246.69 283.708 246.69 276.601 Q246.69 269.472 244.861 265.93 Q243.056 262.365 239.422 262.365 M239.422 258.662 Q245.232 258.662 248.287 263.268 Q251.366 267.851 251.366 276.601 Q251.366 285.328 248.287 289.935 Q245.232 294.518 239.422 294.518 Q233.611 294.518 230.533 289.935 Q227.477 285.328 227.477 276.601 Q227.477 267.851 230.533 263.268 Q233.611 258.662 239.422 258.662 Z" fill="#000000" fill-rule="nonzero" fill-opacity="1" /><path clip-path="url(#clip490)" d="M44.7161 1051.87 L47.5806 1051.87 L47.5806 1078.8 Q53.6281 1078.42 56.8109 1075.17 Q59.9619 1071.89 59.9619 1066.07 Q59.9619 1062.7 59.1344 1059.54 Q58.3069 1056.36 56.6518 1053.24 L62.1899 1053.24 Q63.5267 1056.39 64.227 1059.7 Q64.9272 1063.01 64.9272 1066.42 Q64.9272 1074.95 59.9619 1079.95 Q54.9967 1084.91 46.5303 1084.91 Q37.7774 1084.91 32.6531 1080.2 Q27.4968 1075.46 27.4968 1067.44 Q27.4968 1060.24 32.1438 1056.08 Q36.7589 1051.87 44.7161 1051.87 M42.9973 1057.73 Q38.1912 1057.79 35.3266 1060.44 Q32.4621 1063.05 32.4621 1067.37 Q32.4621 1072.28 35.2312 1075.24 Q38.0002 1078.16 43.0292 1078.61 L42.9973 1057.73 Z" fill="#000000" fill-rule="nonzero" fill-opacity="1" /><path clip-path="url(#clip490)" d="M28.3562 1042.26 L28.3562 1036.41 L64.0042 1036.41 L64.0042 1042.26 L28.3562 1042.26 M14.479 1042.26 L14.479 1036.41 L21.895 1036.41 L21.895 1042.26 L14.479 1042.26 Z" fill="#000000" fill-rule="nonzero" fill-opacity="1" /><path clip-path="url(#clip490)" d="M45.7664 1000.69 Q39.4007 1000.69 35.8996 1003.34 Q32.3984 1005.95 32.3984 1010.69 Q32.3984 1015.4 35.8996 1018.04 Q39.4007 1020.65 45.7664 1020.65 Q52.1003 1020.65 55.6014 1018.04 Q59.1026 1015.4 59.1026 1010.69 Q59.1026 1005.95 55.6014 1003.34 Q52.1003 1000.69 45.7664 1000.69 M59.58 994.837 Q68.683 994.837 73.1071 998.88 Q77.5631 1002.92 77.5631 1011.26 Q77.5631 1014.35 77.0857 1017.09 Q76.6401 1019.82 75.6852 1022.4 L69.9879 1022.4 Q71.3884 1019.82 72.0568 1017.31 Q72.7252 1014.79 72.7252 1012.18 Q72.7252 1006.42 69.7015 1003.56 Q66.7096 1000.69 60.6303 1000.69 L57.7339 1000.69 Q60.885 1002.51 62.4446 1005.34 Q64.0042 1008.17 64.0042 1012.12 Q64.0042 1018.68 59.0071 1022.69 Q54.01 1026.7 45.7664 1026.7 Q37.491 1026.7 32.4939 1022.69 Q27.4968 1018.68 27.4968 1012.12 Q27.4968 1008.17 29.0564 1005.34 Q30.616 1002.51 33.7671 1000.69 L28.3562 1000.69 L28.3562 994.837 L59.58 994.837 Z" fill="#000000" fill-rule="nonzero" fill-opacity="1" /><path clip-path="url(#clip490)" d="M44.7161 952.283 L47.5806 952.283 L47.5806 979.21 Q53.6281 978.828 56.8109 975.581 Q59.9619 972.303 59.9619 966.478 Q59.9619 963.104 59.1344 959.953 Q58.3069 956.77 56.6518 953.651 L62.1899 953.651 Q63.5267 956.802 64.227 960.112 Q64.9272 963.423 64.9272 966.828 Q64.9272 975.358 59.9619 980.355 Q54.9967 985.321 46.5303 985.321 Q37.7774 985.321 32.6531 980.61 Q27.4968 975.868 27.4968 967.847 Q27.4968 960.653 32.1438 956.484 Q36.7589 952.283 44.7161 952.283 M42.9973 958.139 Q38.1912 958.203 35.3266 960.844 Q32.4621 963.454 32.4621 967.783 Q32.4621 972.685 35.2312 975.645 Q38.0002 978.573 43.0292 979.019 L42.9973 958.139 Z" fill="#000000" fill-rule="nonzero" fill-opacity="1" /><path clip-path="url(#clip490)" d="M42.4881 913.038 L64.0042 913.038 L64.0042 918.894 L42.679 918.894 Q37.6183 918.894 35.1038 920.868 Q32.5894 922.841 32.5894 926.788 Q32.5894 931.53 35.6131 934.268 Q38.6368 937.005 43.8567 937.005 L64.0042 937.005 L64.0042 942.893 L28.3562 942.893 L28.3562 937.005 L33.8944 937.005 Q30.6797 934.904 29.0883 932.071 Q27.4968 929.207 27.4968 925.483 Q27.4968 919.34 31.3163 916.189 Q35.1038 913.038 42.4881 913.038 Z" fill="#000000" fill-rule="nonzero" fill-opacity="1" /><path clip-path="url(#clip490)" d="M28.3562 905.558 L28.3562 899.352 L58.275 888.212 L28.3562 877.072 L28.3562 870.865 L64.0042 884.233 L64.0042 892.19 L28.3562 905.558 Z" fill="#000000" fill-rule="nonzero" fill-opacity="1" /><path clip-path="url(#clip490)" d="M46.0847 846.58 Q46.0847 853.678 47.7079 856.415 Q49.3312 859.152 53.2461 859.152 Q56.3653 859.152 58.2114 857.115 Q60.0256 855.046 60.0256 851.513 Q60.0256 846.644 56.5881 843.715 Q53.1188 840.755 47.3897 840.755 L46.0847 840.755 L46.0847 846.58 M43.6657 834.899 L64.0042 834.899 L64.0042 840.755 L58.5933 840.755 Q61.8398 842.761 63.3994 845.752 Q64.9272 848.744 64.9272 853.073 Q64.9272 858.548 61.8716 861.794 Q58.7843 865.009 53.6281 865.009 Q47.6125 865.009 44.5569 860.998 Q41.5014 856.956 41.5014 848.967 L41.5014 840.755 L40.9285 840.755 Q36.8862 840.755 34.6901 843.429 Q32.4621 846.071 32.4621 850.877 Q32.4621 853.932 33.1941 856.829 Q33.9262 859.725 35.3903 862.399 L29.9795 862.399 Q28.7381 859.184 28.1334 856.16 Q27.4968 853.137 27.4968 850.272 Q27.4968 842.538 31.5072 838.718 Q35.5176 834.899 43.6657 834.899 Z" fill="#000000" fill-rule="nonzero" fill-opacity="1" /><path clip-path="url(#clip490)" d="M14.479 822.836 L14.479 816.979 L64.0042 816.979 L64.0042 822.836 L14.479 822.836 Z" fill="#000000" fill-rule="nonzero" fill-opacity="1" /><path clip-path="url(#clip490)" d="M49.9359 805.33 L28.3562 805.33 L28.3562 799.474 L49.7131 799.474 Q54.7739 799.474 57.3202 797.5 Q59.8346 795.527 59.8346 791.58 Q59.8346 786.838 56.8109 784.101 Q53.7872 781.332 48.5673 781.332 L28.3562 781.332 L28.3562 775.475 L64.0042 775.475 L64.0042 781.332 L58.5296 781.332 Q61.7762 783.464 63.3676 786.297 Q64.9272 789.098 64.9272 792.822 Q64.9272 798.965 61.1078 802.147 Q57.2883 805.33 49.9359 805.33 M27.4968 790.594 L27.4968 790.594 Z" fill="#000000" fill-rule="nonzero" fill-opacity="1" /><path clip-path="url(#clip490)" d="M44.7161 732.92 L47.5806 732.92 L47.5806 759.847 Q53.6281 759.465 56.8109 756.219 Q59.9619 752.94 59.9619 747.116 Q59.9619 743.742 59.1344 740.591 Q58.3069 737.408 56.6518 734.289 L62.1899 734.289 Q63.5267 737.44 64.227 740.75 Q64.9272 744.06 64.9272 747.466 Q64.9272 755.996 59.9619 760.993 Q54.9967 765.958 46.5303 765.958 Q37.7774 765.958 32.6531 761.248 Q27.4968 756.505 27.4968 748.484 Q27.4968 741.291 32.1438 737.122 Q36.7589 732.92 44.7161 732.92 M42.9973 738.777 Q38.1912 738.84 35.3266 741.482 Q32.4621 744.092 32.4621 748.421 Q32.4621 753.322 35.2312 756.282 Q38.0002 759.211 43.0292 759.656 L42.9973 738.777 Z" fill="#000000" fill-rule="nonzero" fill-opacity="1" /><path clip-path="url(#clip490)" d="M29.4065 700.583 L34.9447 700.583 Q33.6716 703.065 33.035 705.739 Q32.3984 708.412 32.3984 711.277 Q32.3984 715.637 33.7352 717.834 Q35.072 719.998 37.7456 719.998 Q39.7826 719.998 40.9603 718.438 Q42.1061 716.879 43.1565 712.168 L43.6021 710.163 Q44.9389 703.925 47.3897 701.315 Q49.8086 698.673 54.1691 698.673 Q59.1344 698.673 62.0308 702.62 Q64.9272 706.534 64.9272 713.409 Q64.9272 716.274 64.3543 719.393 Q63.8132 722.481 62.6992 725.918 L56.6518 725.918 Q58.3387 722.672 59.198 719.521 Q60.0256 716.369 60.0256 713.282 Q60.0256 709.144 58.6251 706.916 Q57.1929 704.688 54.6147 704.688 Q52.2276 704.688 50.9545 706.312 Q49.6813 707.903 48.5037 713.346 L48.0262 715.383 Q46.8804 720.825 44.5251 723.244 Q42.138 725.663 38.0002 725.663 Q32.9713 725.663 30.2341 722.099 Q27.4968 718.534 27.4968 711.977 Q27.4968 708.731 27.9743 705.866 Q28.4517 703.001 29.4065 700.583 Z" fill="#000000" fill-rule="nonzero" fill-opacity="1" /><path clip-path="url(#clip490)" d="M43.5384 671.587 L43.5384 654.431 L48.7583 654.431 L48.7583 671.587 L43.5384 671.587 Z" fill="#000000" fill-rule="nonzero" fill-opacity="1" /><path clip-path="url(#clip490)" d="M44.7797 617.956 Q44.0158 621.52 41.947 623.43 Q39.91 625.34 36.9499 625.34 Q32.4621 625.34 29.9476 621.711 Q27.465 618.115 27.465 611.876 Q27.465 609.457 27.8469 606.752 Q28.2289 604.047 28.9928 600.927 L34.3081 600.927 Q33.3851 604.015 32.9713 606.561 Q32.5576 609.139 32.5576 611.399 Q32.5576 615.187 34.0217 617.383 Q35.4858 619.611 37.5228 619.611 Q39.7508 619.611 41.1831 617.446 Q42.5836 615.314 42.5836 611.622 L42.5836 606.688 L47.4215 606.688 L47.4215 611.399 Q47.4215 615.759 49.0447 618.051 Q50.8271 620.534 53.6281 620.534 Q56.4926 620.534 58.275 617.86 Q60.0574 615.155 60.0574 610.349 Q60.0574 607.389 59.4845 604.683 Q58.8798 601.978 57.7021 599.718 L63.1448 599.718 Q64.036 602.582 64.4816 605.256 Q64.9272 607.961 64.9272 610.508 Q64.9272 618.083 62.0308 622.189 Q59.1344 626.295 53.6281 626.295 Q50.1906 626.295 47.8671 624.099 Q45.5436 621.902 44.7797 617.956 Z" fill="#000000" fill-rule="nonzero" fill-opacity="1" /><path clip-path="url(#clip490)" d="M74.8259 562.065 L79.3773 562.065 L79.3773 595.93 L74.8259 595.93 L74.8259 562.065 Z" fill="#000000" fill-rule="nonzero" fill-opacity="1" /><path clip-path="url(#clip490)" d="M14.479 538.512 L19.3487 538.512 L19.3487 544.113 Q19.3487 547.264 20.6219 548.506 Q21.895 549.715 25.2052 549.715 L28.3562 549.715 L28.3562 540.071 L32.9077 540.071 L32.9077 549.715 L64.0042 549.715 L64.0042 555.604 L32.9077 555.604 L32.9077 561.205 L28.3562 561.205 L28.3562 555.604 L25.8736 555.604 Q19.9216 555.604 17.2162 552.834 Q14.479 550.065 14.479 544.05 L14.479 538.512 Z" fill="#000000" fill-rule="nonzero" fill-opacity="1" /><path clip-path="url(#clip490)" d="M14.5426 478.101 Q21.8632 482.366 29.0246 484.435 Q36.186 486.504 43.5384 486.504 Q50.8908 486.504 58.1159 484.435 Q65.3091 482.334 72.5979 478.101 L72.5979 483.194 Q65.1182 487.968 57.8931 490.355 Q50.668 492.71 43.5384 492.71 Q36.4406 492.71 29.2474 490.355 Q22.0542 488 14.5426 483.194 L14.5426 478.101 Z" fill="#000000" fill-rule="nonzero" fill-opacity="1" /><path clip-path="url(#clip490)" d="M16.4842 466.484 L16.4842 436.438 L21.895 436.438 L21.895 460.054 L35.9632 460.054 L35.9632 437.424 L41.3741 437.424 L41.3741 460.054 L58.5933 460.054 L58.5933 435.865 L64.0042 435.865 L64.0042 466.484 L16.4842 466.484 Z" fill="#000000" fill-rule="nonzero" fill-opacity="1" /><path clip-path="url(#clip490)" d="M51.9411 409.16 L64.0042 409.16 L64.0042 412.853 L52.0685 412.853 Q49.2357 412.853 47.8353 414.094 Q46.403 415.335 46.403 417.818 Q46.403 420.81 48.1217 422.528 Q49.8086 424.247 52.7369 424.247 L64.0042 424.247 L64.0042 427.971 L36.2815 427.971 L36.2815 424.247 L47.135 424.247 Q45.3526 422.942 44.4614 421.16 Q43.5702 419.346 43.5702 416.99 Q43.5702 413.139 45.7028 411.166 Q47.8353 409.16 51.9411 409.16 Z" fill="#000000" fill-rule="nonzero" fill-opacity="1" /><path clip-path="url(#clip490)" d="M14.5426 400.121 L14.5426 395.029 Q22.0542 390.254 29.2474 387.899 Q36.4406 385.512 43.5384 385.512 Q50.668 385.512 57.8931 387.899 Q65.1182 390.254 72.5979 395.029 L72.5979 400.121 Q65.3091 395.888 58.1159 393.819 Q50.8908 391.718 43.5384 391.718 Q36.186 391.718 29.0246 393.819 Q21.8632 395.888 14.5426 400.121 Z" fill="#000000" fill-rule="nonzero" fill-opacity="1" /><polyline clip-path="url(#clip492)" style="stroke:#0000ff; stroke-linecap:round; stroke-linejoin:round; stroke-width:4; stroke-opacity:1; fill:none" points="287.366,2800.61 364.078,2780.08 440.789,2718.66 517.501,2616.31 594.212,2476.46 670.924,2301.84 747.636,2099.04 829.001,2110.11 910.366,2167.47 "/>
<polyline clip-path="url(#clip492)" style="stroke:#0000ff; stroke-linecap:round; stroke-linejoin:round; stroke-width:4; stroke-opacity:1; fill:none" points="910.366,2167.47 991.731,2293.83 1073.1,2453.31 1154.46,2599.27 1235.83,2709.99 1317.19,2777.56 1398.56,2800.61 1478.28,2778.5 1558,2712.75 1637.72,2609.48 1717.44,2483.53 1797.16,2407.22 1878.53,2382.7 1959.89,2314.35 2041.26,2204.96 2122.62,2073.5 2199.33,2078.53 2276.04,2093.04 2352.76,2099.04 "/>
<polyline clip-path="url(#clip492)" style="stroke:#0000ff; stroke-linecap:round; stroke-linejoin:round; stroke-width:4; stroke-opacity:1; fill:none" points="287.366,791.674 364.078,908.14 440.789,1131.24 517.501,1376.95 594.212,1629.47 670.924,1872.07 747.636,2099.04 829.001,2073.53 910.366,2000.91 "/>
<circle clip-path="url(#clip492)" cx="287.366" cy="791.674" r="7.2" fill="#0000ff" fill-rule="evenodd" fill-opacity="1" stroke="#000000" stroke-opacity="1" stroke-width="3.2"/>
<circle clip-path="url(#clip492)" cx="364.078" cy="908.14" r="7.2" fill="#0000ff" fill-rule="evenodd" fill-opacity="1" stroke="#000000" stroke-opacity="1" stroke-width="3.2"/>
<circle clip-path="url(#clip492)" cx="440.789" cy="1131.24" r="7.2" fill="#0000ff" fill-rule="evenodd" fill-opacity="1" stroke="#000000" stroke-opacity="1" stroke-width="3.2"/>
<circle clip-path="url(#clip492)" cx="517.501" cy="1376.95" r="7.2" fill="#0000ff" fill-rule="evenodd" fill-opacity="1" stroke="#000000" stroke-opacity="1" stroke-width="3.2"/>
<polyline clip-path="url(#clip492)" style="stroke:#0000ff; stroke-linecap:round; stroke-linejoin:round; stroke-width:4; stroke-opacity:1; fill:none" points="910.366,2000.91 991.731,1877.99 1073.1,1708.55 1154.46,1494.16 1235.83,1242.56 1317.19,968.448 1398.56,791.674 1478.28,985.559 1558,1298.37 1637.72,1598.58 1717.44,1848.77 1797.16,1966.94 1878.53,1955.42 1959.89,1932.67 2041.26,1956.25 2122.62,2073.5 2199.33,2078.53 2276.04,2093.04 2352.76,2099.04 "/>
<circle clip-path="url(#clip492)" cx="1235.83" cy="1242.56" r="7.2" fill="#0000ff" fill-rule="evenodd" fill-opacity="1" stroke="#000000" stroke-opacity="1" stroke-width="3.2"/>
<circle clip-path="url(#clip492)" cx="1317.19" cy="968.448" r="7.2" fill="#0000ff" fill-rule="evenodd" fill-opacity="1" stroke="#000000" stroke-opacity="1" stroke-width="3.2"/>
<circle clip-path="url(#clip492)" cx="1398.56" cy="791.674" r="7.2" fill="#0000ff" fill-rule="evenodd" fill-opacity="1" stroke="#000000" stroke-opacity="1" stroke-width="3.2"/>
<circle clip-path="url(#clip492)" cx="1478.28" cy="985.559" r="7.2" fill="#0000ff" fill-rule="evenodd" fill-opacity="1" stroke="#000000" stroke-opacity="1" stroke-width="3.2"/>
<circle clip-path="url(#clip492)" cx="1558" cy="1298.37" r="7.2" fill="#0000ff" fill-rule="evenodd" fill-opacity="1" stroke="#000000" stroke-opacity="1" stroke-width="3.2"/>
<polyline clip-path="url(#clip492)" style="stroke:#0000ff; stroke-linecap:round; stroke-linejoin:round; stroke-width:4; stroke-opacity:1; fill:none" points="287.366,791.674 364.078,864.823 440.789,994.018 517.501,1112.13 594.212,1201.94 670.924,1256.93 747.636,1275.73 829.001,1392.54 910.366,1525.68 "/>
<circle clip-path="url(#clip492)" cx="287.366" cy="791.674" r="7.2" fill="#0000ff" fill-rule="evenodd" fill-opacity="1" stroke="#000000" stroke-opacity="1" stroke-width="3.2"/>
<circle clip-path="url(#clip492)" cx="364.078" cy="864.823" r="7.2" fill="#0000ff" fill-rule="evenodd" fill-opacity="1" stroke="#000000" stroke-opacity="1" stroke-width="3.2"/>
<circle clip-path="url(#clip492)" cx="440.789" cy="994.018" r="7.2" fill="#0000ff" fill-rule="evenodd" fill-opacity="1" stroke="#000000" stroke-opacity="1" stroke-width="3.2"/>
<circle clip-path="url(#clip492)" cx="517.501" cy="1112.13" r="7.2" fill="#0000ff" fill-rule="evenodd" fill-opacity="1" stroke="#000000" stroke-opacity="1" stroke-width="3.2"/>
<circle clip-path="url(#clip492)" cx="594.212" cy="1201.94" r="7.2" fill="#0000ff" fill-rule="evenodd" fill-opacity="1" stroke="#000000" stroke-opacity="1" stroke-width="3.2"/>
<circle clip-path="url(#clip492)" cx="670.924" cy="1256.93" r="7.2" fill="#0000ff" fill-rule="evenodd" fill-opacity="1" stroke="#000000" stroke-opacity="1" stroke-width="3.2"/>
<circle clip-path="url(#clip492)" cx="747.636" cy="1275.73" r="7.2" fill="#0000ff" fill-rule="evenodd" fill-opacity="1" stroke="#000000" stroke-opacity="1" stroke-width="3.2"/>
<circle clip-path="url(#clip492)" cx="829.001" cy="1392.54" r="7.2" fill="#0000ff" fill-rule="evenodd" fill-opacity="1" stroke="#000000" stroke-opacity="1" stroke-width="3.2"/>
<polyline clip-path="url(#clip492)" style="stroke:#0000ff; stroke-linecap:round; stroke-linejoin:round; stroke-width:4; stroke-opacity:1; fill:none" points="910.366,1525.68 991.731,1532.16 1073.1,1431.19 1154.46,1266.94 1235.83,1069.5 1317.19,881.473 1398.56,791.673 1478.28,825.763 1558,889.608 1637.72,946.499 1717.44,982.676 1797.16,995.036 1878.53,1152.63 1959.89,1376.89 2041.26,1494.37 2122.62,1449.03 2199.33,1412.77 2276.04,1328.91 2352.76,1275.73 "/>
<circle clip-path="url(#clip492)" cx="1154.46" cy="1266.94" r="7.2" fill="#0000ff" fill-rule="evenodd" fill-opacity="1" stroke="#000000" stroke-opacity="1" stroke-width="3.2"/>
<circle clip-path="url(#clip492)" cx="1235.83" cy="1069.5" r="7.2" fill="#0000ff" fill-rule="evenodd" fill-opacity="1" stroke="#000000" stroke-opacity="1" stroke-width="3.2"/>
<circle clip-path="url(#clip492)" cx="1317.19" cy="881.473" r="7.2" fill="#0000ff" fill-rule="evenodd" fill-opacity="1" stroke="#000000" stroke-opacity="1" stroke-width="3.2"/>
<circle clip-path="url(#clip492)" cx="1398.56" cy="791.673" r="7.2" fill="#0000ff" fill-rule="evenodd" fill-opacity="1" stroke="#000000" stroke-opacity="1" stroke-width="3.2"/>
<circle clip-path="url(#clip492)" cx="1478.28" cy="825.763" r="7.2" fill="#0000ff" fill-rule="evenodd" fill-opacity="1" stroke="#000000" stroke-opacity="1" stroke-width="3.2"/>
<circle clip-path="url(#clip492)" cx="1558" cy="889.608" r="7.2" fill="#0000ff" fill-rule="evenodd" fill-opacity="1" stroke="#000000" stroke-opacity="1" stroke-width="3.2"/>
<circle clip-path="url(#clip492)" cx="1637.72" cy="946.499" r="7.2" fill="#0000ff" fill-rule="evenodd" fill-opacity="1" stroke="#000000" stroke-opacity="1" stroke-width="3.2"/>
<circle clip-path="url(#clip492)" cx="1717.44" cy="982.676" r="7.2" fill="#0000ff" fill-rule="evenodd" fill-opacity="1" stroke="#000000" stroke-opacity="1" stroke-width="3.2"/>
<circle clip-path="url(#clip492)" cx="1797.16" cy="995.036" r="7.2" fill="#0000ff" fill-rule="evenodd" fill-opacity="1" stroke="#000000" stroke-opacity="1" stroke-width="3.2"/>
<circle clip-path="url(#clip492)" cx="1878.53" cy="1152.63" r="7.2" fill="#0000ff" fill-rule="evenodd" fill-opacity="1" stroke="#000000" stroke-opacity="1" stroke-width="3.2"/>
<circle clip-path="url(#clip492)" cx="1959.89" cy="1376.89" r="7.2" fill="#0000ff" fill-rule="evenodd" fill-opacity="1" stroke="#000000" stroke-opacity="1" stroke-width="3.2"/>
<circle clip-path="url(#clip492)" cx="2199.33" cy="1412.77" r="7.2" fill="#0000ff" fill-rule="evenodd" fill-opacity="1" stroke="#000000" stroke-opacity="1" stroke-width="3.2"/>
<circle clip-path="url(#clip492)" cx="2276.04" cy="1328.91" r="7.2" fill="#0000ff" fill-rule="evenodd" fill-opacity="1" stroke="#000000" stroke-opacity="1" stroke-width="3.2"/>
<polyline clip-path="url(#clip492)" style="stroke:#0000ff; stroke-linecap:round; stroke-linejoin:round; stroke-width:4; stroke-opacity:1; fill:none" points="287.366,791.674 364.078,864.823 440.789,994.018 517.501,1112.13 594.212,1201.94 670.924,1256.93 747.636,1275.73 829.001,1257.05 910.366,1203.41 "/>
<circle clip-path="url(#clip492)" cx="287.366" cy="791.674" r="7.2" fill="#0000ff" fill-rule="evenodd" fill-opacity="1" stroke="#000000" stroke-opacity="1" stroke-width="3.2"/>
<circle clip-path="url(#clip492)" cx="364.078" cy="864.823" r="7.2" fill="#0000ff" fill-rule="evenodd" fill-opacity="1" stroke="#000000" stroke-opacity="1" stroke-width="3.2"/>
<circle clip-path="url(#clip492)" cx="440.789" cy="994.018" r="7.2" fill="#0000ff" fill-rule="evenodd" fill-opacity="1" stroke="#000000" stroke-opacity="1" stroke-width="3.2"/>
<circle clip-path="url(#clip492)" cx="517.501" cy="1112.13" r="7.2" fill="#0000ff" fill-rule="evenodd" fill-opacity="1" stroke="#000000" stroke-opacity="1" stroke-width="3.2"/>
<circle clip-path="url(#clip492)" cx="594.212" cy="1201.94" r="7.2" fill="#0000ff" fill-rule="evenodd" fill-opacity="1" stroke="#000000" stroke-opacity="1" stroke-width="3.2"/>
<circle clip-path="url(#clip492)" cx="670.924" cy="1256.93" r="7.2" fill="#0000ff" fill-rule="evenodd" fill-opacity="1" stroke="#000000" stroke-opacity="1" stroke-width="3.2"/>
<circle clip-path="url(#clip492)" cx="747.636" cy="1275.73" r="7.2" fill="#0000ff" fill-rule="evenodd" fill-opacity="1" stroke="#000000" stroke-opacity="1" stroke-width="3.2"/>
<circle clip-path="url(#clip492)" cx="829.001" cy="1257.05" r="7.2" fill="#0000ff" fill-rule="evenodd" fill-opacity="1" stroke="#000000" stroke-opacity="1" stroke-width="3.2"/>
<circle clip-path="url(#clip492)" cx="910.366" cy="1203.41" r="7.2" fill="#0000ff" fill-rule="evenodd" fill-opacity="1" stroke="#000000" stroke-opacity="1" stroke-width="3.2"/>
<polyline clip-path="url(#clip492)" style="stroke:#0000ff; stroke-linecap:round; stroke-linejoin:round; stroke-width:4; stroke-opacity:1; fill:none" points="910.366,1203.41 991.731,1119 1073.1,1016.13 1154.46,916.045 1235.83,841.894 1317.19,802.418 1398.56,791.674 1478.28,825.763 1558,889.608 1637.72,946.499 1717.44,982.676 1797.16,995.036 1878.53,1038.56 1959.89,1158.95 2041.26,1314.11 2122.62,1449.03 2199.33,1412.77 2276.04,1328.91 2352.76,1275.73 "/>
<circle clip-path="url(#clip492)" cx="910.366" cy="1203.41" r="7.2" fill="#0000ff" fill-rule="evenodd" fill-opacity="1" stroke="#000000" stroke-opacity="1" stroke-width="3.2"/>
<circle clip-path="url(#clip492)" cx="991.731" cy="1119" r="7.2" fill="#0000ff" fill-rule="evenodd" fill-opacity="1" stroke="#000000" stroke-opacity="1" stroke-width="3.2"/>
<circle clip-path="url(#clip492)" cx="1073.1" cy="1016.13" r="7.2" fill="#0000ff" fill-rule="evenodd" fill-opacity="1" stroke="#000000" stroke-opacity="1" stroke-width="3.2"/>
<circle clip-path="url(#clip492)" cx="1154.46" cy="916.045" r="7.2" fill="#0000ff" fill-rule="evenodd" fill-opacity="1" stroke="#000000" stroke-opacity="1" stroke-width="3.2"/>
<circle clip-path="url(#clip492)" cx="1235.83" cy="841.894" r="7.2" fill="#0000ff" fill-rule="evenodd" fill-opacity="1" stroke="#000000" stroke-opacity="1" stroke-width="3.2"/>
<circle clip-path="url(#clip492)" cx="1317.19" cy="802.418" r="7.2" fill="#0000ff" fill-rule="evenodd" fill-opacity="1" stroke="#000000" stroke-opacity="1" stroke-width="3.2"/>
<circle clip-path="url(#clip492)" cx="1398.56" cy="791.674" r="7.2" fill="#0000ff" fill-rule="evenodd" fill-opacity="1" stroke="#000000" stroke-opacity="1" stroke-width="3.2"/>
<circle clip-path="url(#clip492)" cx="1478.28" cy="825.763" r="7.2" fill="#0000ff" fill-rule="evenodd" fill-opacity="1" stroke="#000000" stroke-opacity="1" stroke-width="3.2"/>
<circle clip-path="url(#clip492)" cx="1558" cy="889.608" r="7.2" fill="#0000ff" fill-rule="evenodd" fill-opacity="1" stroke="#000000" stroke-opacity="1" stroke-width="3.2"/>
<circle clip-path="url(#clip492)" cx="1637.72" cy="946.499" r="7.2" fill="#0000ff" fill-rule="evenodd" fill-opacity="1" stroke="#000000" stroke-opacity="1" stroke-width="3.2"/>
<circle clip-path="url(#clip492)" cx="1717.44" cy="982.676" r="7.2" fill="#0000ff" fill-rule="evenodd" fill-opacity="1" stroke="#000000" stroke-opacity="1" stroke-width="3.2"/>
<circle clip-path="url(#clip492)" cx="1797.16" cy="995.036" r="7.2" fill="#0000ff" fill-rule="evenodd" fill-opacity="1" stroke="#000000" stroke-opacity="1" stroke-width="3.2"/>
<circle clip-path="url(#clip492)" cx="1878.53" cy="1038.56" r="7.2" fill="#0000ff" fill-rule="evenodd" fill-opacity="1" stroke="#000000" stroke-opacity="1" stroke-width="3.2"/>
<circle clip-path="url(#clip492)" cx="1959.89" cy="1158.95" r="7.2" fill="#0000ff" fill-rule="evenodd" fill-opacity="1" stroke="#000000" stroke-opacity="1" stroke-width="3.2"/>
<circle clip-path="url(#clip492)" cx="2041.26" cy="1314.11" r="7.2" fill="#0000ff" fill-rule="evenodd" fill-opacity="1" stroke="#000000" stroke-opacity="1" stroke-width="3.2"/>
<circle clip-path="url(#clip492)" cx="2199.33" cy="1412.77" r="7.2" fill="#0000ff" fill-rule="evenodd" fill-opacity="1" stroke="#000000" stroke-opacity="1" stroke-width="3.2"/>
<circle clip-path="url(#clip492)" cx="2276.04" cy="1328.91" r="7.2" fill="#0000ff" fill-rule="evenodd" fill-opacity="1" stroke="#000000" stroke-opacity="1" stroke-width="3.2"/>
<polyline clip-path="url(#clip492)" style="stroke:#0000ff; stroke-linecap:round; stroke-linejoin:round; stroke-width:4; stroke-opacity:1; fill:none" points="287.366,363.027 364.078,410.213 440.789,512.162 517.501,610.204 594.212,678.039 670.924,703.629 747.636,678.757 829.001,657.193 910.366,595.937 "/>
<circle clip-path="url(#clip492)" cx="287.366" cy="363.027" r="7.2" fill="#0000ff" fill-rule="evenodd" fill-opacity="1" stroke="#000000" stroke-opacity="1" stroke-width="3.2"/>
<circle clip-path="url(#clip492)" cx="364.078" cy="410.213" r="7.2" fill="#0000ff" fill-rule="evenodd" fill-opacity="1" stroke="#000000" stroke-opacity="1" stroke-width="3.2"/>
<circle clip-path="url(#clip492)" cx="440.789" cy="512.162" r="7.2" fill="#0000ff" fill-rule="evenodd" fill-opacity="1" stroke="#000000" stroke-opacity="1" stroke-width="3.2"/>
<circle clip-path="url(#clip492)" cx="517.501" cy="610.204" r="7.2" fill="#0000ff" fill-rule="evenodd" fill-opacity="1" stroke="#000000" stroke-opacity="1" stroke-width="3.2"/>
<circle clip-path="url(#clip492)" cx="594.212" cy="678.039" r="7.2" fill="#0000ff" fill-rule="evenodd" fill-opacity="1" stroke="#000000" stroke-opacity="1" stroke-width="3.2"/>
<circle clip-path="url(#clip492)" cx="670.924" cy="703.629" r="7.2" fill="#0000ff" fill-rule="evenodd" fill-opacity="1" stroke="#000000" stroke-opacity="1" stroke-width="3.2"/>
<circle clip-path="url(#clip492)" cx="747.636" cy="678.757" r="7.2" fill="#0000ff" fill-rule="evenodd" fill-opacity="1" stroke="#000000" stroke-opacity="1" stroke-width="3.2"/>
<circle clip-path="url(#clip492)" cx="829.001" cy="657.193" r="7.2" fill="#0000ff" fill-rule="evenodd" fill-opacity="1" stroke="#000000" stroke-opacity="1" stroke-width="3.2"/>
<circle clip-path="url(#clip492)" cx="910.366" cy="595.937" r="7.2" fill="#0000ff" fill-rule="evenodd" fill-opacity="1" stroke="#000000" stroke-opacity="1" stroke-width="3.2"/>
<polyline clip-path="url(#clip492)" style="stroke:#0000ff; stroke-linecap:round; stroke-linejoin:round; stroke-width:4; stroke-opacity:1; fill:none" points="910.366,595.937 991.731,497.827 1073.1,381.814 1154.46,292.474 1235.83,280.385 1317.19,338.997 1398.56,363.027 1478.28,362.578 1558,420.224 1637.72,479.715 1717.44,520.889 1797.16,534.697 1878.53,408.332 1959.89,277.561 2041.26,198.878 2122.62,75.3346 2199.33,332.21 2276.04,574.357 2352.76,678.757 "/>
<circle clip-path="url(#clip492)" cx="910.366" cy="595.937" r="7.2" fill="#0000ff" fill-rule="evenodd" fill-opacity="1" stroke="#000000" stroke-opacity="1" stroke-width="3.2"/>
<circle clip-path="url(#clip492)" cx="991.731" cy="497.827" r="7.2" fill="#0000ff" fill-rule="evenodd" fill-opacity="1" stroke="#000000" stroke-opacity="1" stroke-width="3.2"/>
<circle clip-path="url(#clip492)" cx="1073.1" cy="381.814" r="7.2" fill="#0000ff" fill-rule="evenodd" fill-opacity="1" stroke="#000000" stroke-opacity="1" stroke-width="3.2"/>
<circle clip-path="url(#clip492)" cx="1154.46" cy="292.474" r="7.2" fill="#0000ff" fill-rule="evenodd" fill-opacity="1" stroke="#000000" stroke-opacity="1" stroke-width="3.2"/>
<circle clip-path="url(#clip492)" cx="1235.83" cy="280.385" r="7.2" fill="#0000ff" fill-rule="evenodd" fill-opacity="1" stroke="#000000" stroke-opacity="1" stroke-width="3.2"/>
<circle clip-path="url(#clip492)" cx="1317.19" cy="338.997" r="7.2" fill="#0000ff" fill-rule="evenodd" fill-opacity="1" stroke="#000000" stroke-opacity="1" stroke-width="3.2"/>
<circle clip-path="url(#clip492)" cx="1398.56" cy="363.027" r="7.2" fill="#0000ff" fill-rule="evenodd" fill-opacity="1" stroke="#000000" stroke-opacity="1" stroke-width="3.2"/>
<circle clip-path="url(#clip492)" cx="1478.28" cy="362.578" r="7.2" fill="#0000ff" fill-rule="evenodd" fill-opacity="1" stroke="#000000" stroke-opacity="1" stroke-width="3.2"/>
<circle clip-path="url(#clip492)" cx="1558" cy="420.224" r="7.2" fill="#0000ff" fill-rule="evenodd" fill-opacity="1" stroke="#000000" stroke-opacity="1" stroke-width="3.2"/>
<circle clip-path="url(#clip492)" cx="1637.72" cy="479.715" r="7.2" fill="#0000ff" fill-rule="evenodd" fill-opacity="1" stroke="#000000" stroke-opacity="1" stroke-width="3.2"/>
<circle clip-path="url(#clip492)" cx="1717.44" cy="520.889" r="7.2" fill="#0000ff" fill-rule="evenodd" fill-opacity="1" stroke="#000000" stroke-opacity="1" stroke-width="3.2"/>
<circle clip-path="url(#clip492)" cx="1797.16" cy="534.697" r="7.2" fill="#0000ff" fill-rule="evenodd" fill-opacity="1" stroke="#000000" stroke-opacity="1" stroke-width="3.2"/>
<circle clip-path="url(#clip492)" cx="1878.53" cy="408.332" r="7.2" fill="#0000ff" fill-rule="evenodd" fill-opacity="1" stroke="#000000" stroke-opacity="1" stroke-width="3.2"/>
<circle clip-path="url(#clip492)" cx="1959.89" cy="277.561" r="7.2" fill="#0000ff" fill-rule="evenodd" fill-opacity="1" stroke="#000000" stroke-opacity="1" stroke-width="3.2"/>
<circle clip-path="url(#clip492)" cx="2041.26" cy="198.878" r="7.2" fill="#0000ff" fill-rule="evenodd" fill-opacity="1" stroke="#000000" stroke-opacity="1" stroke-width="3.2"/>
<circle clip-path="url(#clip492)" cx="2122.62" cy="75.3346" r="7.2" fill="#0000ff" fill-rule="evenodd" fill-opacity="1" stroke="#000000" stroke-opacity="1" stroke-width="3.2"/>
<circle clip-path="url(#clip492)" cx="2199.33" cy="332.21" r="7.2" fill="#0000ff" fill-rule="evenodd" fill-opacity="1" stroke="#000000" stroke-opacity="1" stroke-width="3.2"/>
<circle clip-path="url(#clip492)" cx="2276.04" cy="574.357" r="7.2" fill="#0000ff" fill-rule="evenodd" fill-opacity="1" stroke="#000000" stroke-opacity="1" stroke-width="3.2"/>
<polyline clip-path="url(#clip492)" style="stroke:#0000ff; stroke-linecap:round; stroke-linejoin:round; stroke-width:4; stroke-opacity:1; fill:none" points="287.366,363.026 364.078,263.182 440.789,69.5446 517.501,264.784 594.212,461.871 670.924,601.039 747.636,678.757 829.001,484.882 910.366,98.8115 "/>
<circle clip-path="url(#clip492)" cx="287.366" cy="363.026" r="7.2" fill="#0000ff" fill-rule="evenodd" fill-opacity="1" stroke="#000000" stroke-opacity="1" stroke-width="3.2"/>
<circle clip-path="url(#clip492)" cx="364.078" cy="263.182" r="7.2" fill="#0000ff" fill-rule="evenodd" fill-opacity="1" stroke="#000000" stroke-opacity="1" stroke-width="3.2"/>
<circle clip-path="url(#clip492)" cx="440.789" cy="69.5446" r="7.2" fill="#0000ff" fill-rule="evenodd" fill-opacity="1" stroke="#000000" stroke-opacity="1" stroke-width="3.2"/>
<circle clip-path="url(#clip492)" cx="517.501" cy="264.784" r="7.2" fill="#0000ff" fill-rule="evenodd" fill-opacity="1" stroke="#000000" stroke-opacity="1" stroke-width="3.2"/>
<circle clip-path="url(#clip492)" cx="594.212" cy="461.871" r="7.2" fill="#0000ff" fill-rule="evenodd" fill-opacity="1" stroke="#000000" stroke-opacity="1" stroke-width="3.2"/>
<circle clip-path="url(#clip492)" cx="670.924" cy="601.039" r="7.2" fill="#0000ff" fill-rule="evenodd" fill-opacity="1" stroke="#000000" stroke-opacity="1" stroke-width="3.2"/>
<circle clip-path="url(#clip492)" cx="747.636" cy="678.757" r="7.2" fill="#0000ff" fill-rule="evenodd" fill-opacity="1" stroke="#000000" stroke-opacity="1" stroke-width="3.2"/>
<circle clip-path="url(#clip492)" cx="829.001" cy="484.882" r="7.2" fill="#0000ff" fill-rule="evenodd" fill-opacity="1" stroke="#000000" stroke-opacity="1" stroke-width="3.2"/>
<circle clip-path="url(#clip492)" cx="910.366" cy="98.8115" r="7.2" fill="#0000ff" fill-rule="evenodd" fill-opacity="1" stroke="#000000" stroke-opacity="1" stroke-width="3.2"/>
<polyline clip-path="url(#clip492)" style="stroke:#0000ff; stroke-linecap:round; stroke-linejoin:round; stroke-width:4; stroke-opacity:1; fill:none" points="910.366,98.811 991.731,-221.554 1073.1,-14.8641 1154.46,149.026 1235.83,268.262 1317.19,321.062 1398.56,363.027 1478.28,313.078 1558,226.14 1637.72,194.418 1717.44,212.695 1797.16,225.117 1878.53,257.168 1959.89,267.514 2041.26,148.652 2122.62,75.3358 2199.33,332.21 2276.04,574.357 2352.76,678.757 "/>
<circle clip-path="url(#clip492)" cx="910.366" cy="98.811" r="7.2" fill="#0000ff" fill-rule="evenodd" fill-opacity="1" stroke="#000000" stroke-opacity="1" stroke-width="3.2"/>
<circle clip-path="url(#clip492)" cx="1154.46" cy="149.026" r="7.2" fill="#0000ff" fill-rule="evenodd" fill-opacity="1" stroke="#000000" stroke-opacity="1" stroke-width="3.2"/>
<circle clip-path="url(#clip492)" cx="1235.83" cy="268.262" r="7.2" fill="#0000ff" fill-rule="evenodd" fill-opacity="1" stroke="#000000" stroke-opacity="1" stroke-width="3.2"/>
<circle clip-path="url(#clip492)" cx="1317.19" cy="321.062" r="7.2" fill="#0000ff" fill-rule="evenodd" fill-opacity="1" stroke="#000000" stroke-opacity="1" stroke-width="3.2"/>
<circle clip-path="url(#clip492)" cx="1398.56" cy="363.027" r="7.2" fill="#0000ff" fill-rule="evenodd" fill-opacity="1" stroke="#000000" stroke-opacity="1" stroke-width="3.2"/>
<circle clip-path="url(#clip492)" cx="1478.28" cy="313.078" r="7.2" fill="#0000ff" fill-rule="evenodd" fill-opacity="1" stroke="#000000" stroke-opacity="1" stroke-width="3.2"/>
<circle clip-path="url(#clip492)" cx="1558" cy="226.14" r="7.2" fill="#0000ff" fill-rule="evenodd" fill-opacity="1" stroke="#000000" stroke-opacity="1" stroke-width="3.2"/>
<circle clip-path="url(#clip492)" cx="1637.72" cy="194.418" r="7.2" fill="#0000ff" fill-rule="evenodd" fill-opacity="1" stroke="#000000" stroke-opacity="1" stroke-width="3.2"/>
<circle clip-path="url(#clip492)" cx="1717.44" cy="212.695" r="7.2" fill="#0000ff" fill-rule="evenodd" fill-opacity="1" stroke="#000000" stroke-opacity="1" stroke-width="3.2"/>
<circle clip-path="url(#clip492)" cx="1797.16" cy="225.117" r="7.2" fill="#0000ff" fill-rule="evenodd" fill-opacity="1" stroke="#000000" stroke-opacity="1" stroke-width="3.2"/>
<circle clip-path="url(#clip492)" cx="1878.53" cy="257.168" r="7.2" fill="#0000ff" fill-rule="evenodd" fill-opacity="1" stroke="#000000" stroke-opacity="1" stroke-width="3.2"/>
<circle clip-path="url(#clip492)" cx="1959.89" cy="267.514" r="7.2" fill="#0000ff" fill-rule="evenodd" fill-opacity="1" stroke="#000000" stroke-opacity="1" stroke-width="3.2"/>
<circle clip-path="url(#clip492)" cx="2041.26" cy="148.652" r="7.2" fill="#0000ff" fill-rule="evenodd" fill-opacity="1" stroke="#000000" stroke-opacity="1" stroke-width="3.2"/>
<circle clip-path="url(#clip492)" cx="2122.62" cy="75.3358" r="7.2" fill="#0000ff" fill-rule="evenodd" fill-opacity="1" stroke="#000000" stroke-opacity="1" stroke-width="3.2"/>
<circle clip-path="url(#clip492)" cx="2199.33" cy="332.21" r="7.2" fill="#0000ff" fill-rule="evenodd" fill-opacity="1" stroke="#000000" stroke-opacity="1" stroke-width="3.2"/>
<circle clip-path="url(#clip492)" cx="2276.04" cy="574.357" r="7.2" fill="#0000ff" fill-rule="evenodd" fill-opacity="1" stroke="#000000" stroke-opacity="1" stroke-width="3.2"/>
<polyline clip-path="url(#clip492)" style="stroke:#0000ff; stroke-linecap:round; stroke-linejoin:round; stroke-width:4; stroke-opacity:1; fill:none" points="287.366,363.027 364.078,263.182 440.789,58.9883 517.501,-180.166 594.212,-433.175 670.924,-694.131 747.636,-889.023 829.001,-726.64 910.366,-465.253 "/>
<circle clip-path="url(#clip492)" cx="287.366" cy="363.027" r="7.2" fill="#0000ff" fill-rule="evenodd" fill-opacity="1" stroke="#000000" stroke-opacity="1" stroke-width="3.2"/>
<circle clip-path="url(#clip492)" cx="364.078" cy="263.182" r="7.2" fill="#0000ff" fill-rule="evenodd" fill-opacity="1" stroke="#000000" stroke-opacity="1" stroke-width="3.2"/>
<circle clip-path="url(#clip492)" cx="440.789" cy="58.9883" r="7.2" fill="#0000ff" fill-rule="evenodd" fill-opacity="1" stroke="#000000" stroke-opacity="1" stroke-width="3.2"/>
<polyline clip-path="url(#clip492)" style="stroke:#0000ff; stroke-linecap:round; stroke-linejoin:round; stroke-width:4; stroke-opacity:1; fill:none" points="910.366,-465.252 991.731,-258.666 1073.1,-71.2001 1154.46,99.4904 1235.83,230.52 1317.19,312.729 1398.56,363.027 1478.28,313.078 1558,226.14 1637.72,194.418 1717.44,212.695 1797.16,225.117 1878.53,121.148 1959.89,-206.307 2041.26,-160.369 2122.62,-46.4239 2199.33,-346.409 2276.04,-705.192 2352.76,-889.023 "/>
<circle clip-path="url(#clip492)" cx="1154.46" cy="99.4904" r="7.2" fill="#0000ff" fill-rule="evenodd" fill-opacity="1" stroke="#000000" stroke-opacity="1" stroke-width="3.2"/>
<circle clip-path="url(#clip492)" cx="1235.83" cy="230.52" r="7.2" fill="#0000ff" fill-rule="evenodd" fill-opacity="1" stroke="#000000" stroke-opacity="1" stroke-width="3.2"/>
<circle clip-path="url(#clip492)" cx="1317.19" cy="312.729" r="7.2" fill="#0000ff" fill-rule="evenodd" fill-opacity="1" stroke="#000000" stroke-opacity="1" stroke-width="3.2"/>
<circle clip-path="url(#clip492)" cx="1398.56" cy="363.027" r="7.2" fill="#0000ff" fill-rule="evenodd" fill-opacity="1" stroke="#000000" stroke-opacity="1" stroke-width="3.2"/>
<circle clip-path="url(#clip492)" cx="1478.28" cy="313.078" r="7.2" fill="#0000ff" fill-rule="evenodd" fill-opacity="1" stroke="#000000" stroke-opacity="1" stroke-width="3.2"/>
<circle clip-path="url(#clip492)" cx="1558" cy="226.14" r="7.2" fill="#0000ff" fill-rule="evenodd" fill-opacity="1" stroke="#000000" stroke-opacity="1" stroke-width="3.2"/>
<circle clip-path="url(#clip492)" cx="1637.72" cy="194.418" r="7.2" fill="#0000ff" fill-rule="evenodd" fill-opacity="1" stroke="#000000" stroke-opacity="1" stroke-width="3.2"/>
<circle clip-path="url(#clip492)" cx="1717.44" cy="212.695" r="7.2" fill="#0000ff" fill-rule="evenodd" fill-opacity="1" stroke="#000000" stroke-opacity="1" stroke-width="3.2"/>
<circle clip-path="url(#clip492)" cx="1797.16" cy="225.117" r="7.2" fill="#0000ff" fill-rule="evenodd" fill-opacity="1" stroke="#000000" stroke-opacity="1" stroke-width="3.2"/>
<circle clip-path="url(#clip492)" cx="1878.53" cy="121.148" r="7.2" fill="#0000ff" fill-rule="evenodd" fill-opacity="1" stroke="#000000" stroke-opacity="1" stroke-width="3.2"/>
<polyline clip-path="url(#clip492)" style="stroke:#0000ff; stroke-linecap:round; stroke-linejoin:round; stroke-width:4; stroke-opacity:1; fill:none" points="287.366,248.909 364.078,132.48 440.789,58.9882 517.501,-180.166 594.212,-433.175 670.924,-694.131 747.636,-889.023 829.001,-776.04 910.366,-560.456 "/>
<circle clip-path="url(#clip492)" cx="287.366" cy="248.909" r="7.2" fill="#0000ff" fill-rule="evenodd" fill-opacity="1" stroke="#000000" stroke-opacity="1" stroke-width="3.2"/>
<circle clip-path="url(#clip492)" cx="364.078" cy="132.48" r="7.2" fill="#0000ff" fill-rule="evenodd" fill-opacity="1" stroke="#000000" stroke-opacity="1" stroke-width="3.2"/>
<circle clip-path="url(#clip492)" cx="440.789" cy="58.9882" r="7.2" fill="#0000ff" fill-rule="evenodd" fill-opacity="1" stroke="#000000" stroke-opacity="1" stroke-width="3.2"/>
<polyline clip-path="url(#clip492)" style="stroke:#0000ff; stroke-linecap:round; stroke-linejoin:round; stroke-width:4; stroke-opacity:1; fill:none" points="910.366,-560.456 991.731,-378.611 1073.1,-228.372 1154.46,-156.875 1235.83,-129.995 1317.19,85.3953 1398.56,248.909 1478.28,90.3127 1558,-205.421 1637.72,-463.927 1717.44,-494.249 1797.16,-474.828 1878.53,-548.408 1959.89,-412.172 2041.26,-229.992 2122.62,-46.4239 2199.33,-346.408 2276.04,-705.192 2352.76,-889.023 "/>
<circle clip-path="url(#clip492)" cx="1317.19" cy="85.3953" r="7.2" fill="#0000ff" fill-rule="evenodd" fill-opacity="1" stroke="#000000" stroke-opacity="1" stroke-width="3.2"/>
<circle clip-path="url(#clip492)" cx="1398.56" cy="248.909" r="7.2" fill="#0000ff" fill-rule="evenodd" fill-opacity="1" stroke="#000000" stroke-opacity="1" stroke-width="3.2"/>
<circle clip-path="url(#clip492)" cx="1478.28" cy="90.3127" r="7.2" fill="#0000ff" fill-rule="evenodd" fill-opacity="1" stroke="#000000" stroke-opacity="1" stroke-width="3.2"/>
<polyline clip-path="url(#clip492)" style="stroke:#0000ff; stroke-linecap:round; stroke-linejoin:round; stroke-width:4; stroke-opacity:1; fill:none" points="287.366,-496.359 364.078,-408.069 440.789,-324.432 517.501,-552.509 594.212,-837.265 670.924,-1118.3 747.636,-1110.88 829.001,-859.625 910.366,-572.257 "/>
<polyline clip-path="url(#clip492)" style="stroke:#0000ff; stroke-linecap:round; stroke-linejoin:round; stroke-width:4; stroke-opacity:1; fill:none" points="910.366,-572.256 991.731,-399.215 1073.1,-318.402 1154.46,-259.447 1235.83,-303.769 1317.19,-441.131 1398.56,-496.359 1478.28,-482.006 1558,-426.512 1637.72,-514.431 1717.44,-750.071 1797.16,-1037.85 1878.53,-714.558 1959.89,-445.916 2041.26,-628.504 2122.62,-999.784 2199.33,-1000.48 2276.04,-1013.29 2352.76,-1110.88 "/>
<polyline clip-path="url(#clip492)" style="stroke:#0000ff; stroke-linecap:round; stroke-linejoin:round; stroke-width:4; stroke-opacity:1; fill:none" points="287.366,-549.532 364.078,-573.956 440.789,-642.625 517.501,-759.953 594.212,-918.969 670.924,-1124.8 747.636,-1110.88 829.001,-925.201 910.366,-676.174 "/>
<polyline clip-path="url(#clip492)" style="stroke:#0000ff; stroke-linecap:round; stroke-linejoin:round; stroke-width:4; stroke-opacity:1; fill:none" points="910.366,-676.174 991.731,-466.19 1073.1,-821.899 1154.46,-937.377 1235.83,-578.253 1317.19,-522.867 1398.56,-549.532 1478.28,-482.006 1558,-426.512 1637.72,-514.431 1717.44,-750.071 1797.16,-1037.85 1878.53,-892.489 1959.89,-1005.83 2041.26,-1111.83 2122.62,-999.784 2199.33,-1000.48 2276.04,-1013.29 2352.76,-1110.88 "/>
<polyline clip-path="url(#clip492)" style="stroke:#0000ff; stroke-linecap:round; stroke-linejoin:round; stroke-width:4; stroke-opacity:1; fill:none" points="287.366,-549.533 364.078,-584.393 440.789,-803.146 517.501,-1083.41 594.212,-1354.58 670.924,-1314.22 747.636,-1352.41 829.001,-1459.53 910.366,-1629.52 "/>
<polyline clip-path="url(#clip492)" style="stroke:#0000ff; stroke-linecap:round; stroke-linejoin:round; stroke-width:4; stroke-opacity:1; fill:none" points="910.366,-1629.52 991.731,-1542.44 1073.1,-1320.8 1154.46,-972.403 1235.83,-805.456 1317.19,-593.58 1398.56,-549.532 1478.28,-588.632 1558,-709.44 1637.72,-674.078 1717.44,-870.498 1797.16,-1081.61 1878.53,-1124.94 1959.89,-1170.88 2041.26,-1247.54 2122.62,-1404.05 2199.33,-1393.28 2276.04,-1373.15 2352.76,-1352.41 "/>
<polyline clip-path="url(#clip492)" style="stroke:#0000ff; stroke-linecap:round; stroke-linejoin:round; stroke-width:4; stroke-opacity:1; fill:none" points="287.366,-1089.97 364.078,-1127.26 440.789,-1237.92 517.501,-1410.77 594.212,-1523.69 670.924,-1314.22 747.636,-1352.41 829.001,-1552.42 910.366,-1794.75 "/>
<polyline clip-path="url(#clip492)" style="stroke:#0000ff; stroke-linecap:round; stroke-linejoin:round; stroke-width:4; stroke-opacity:1; fill:none" points="910.366,-1794.75 991.731,-1619.08 1073.1,-1448.03 1154.46,-1190.29 1235.83,-1088.51 1317.19,-1066.88 1398.56,-1089.97 1478.28,-1013.03 1558,-1023.9 1637.72,-1343.18 1717.44,-1462.58 1797.16,-1121.1 1878.53,-1188.55 1959.89,-1284.12 2041.26,-1567.83 2122.62,-1404.05 2199.33,-1393.28 2276.04,-1373.15 2352.76,-1352.41 "/>
<polyline clip-path="url(#clip492)" style="stroke:#0000ff; stroke-linecap:round; stroke-linejoin:round; stroke-width:4; stroke-opacity:1; fill:none" points="287.366,-1089.97 364.078,-1127.26 440.789,-1237.93 517.501,-1410.77 594.212,-1523.69 670.924,-1472.61 747.636,-1373.07 829.001,-1559.88 910.366,-1842.28 "/>
<polyline clip-path="url(#clip492)" style="stroke:#0000ff; stroke-linecap:round; stroke-linejoin:round; stroke-width:4; stroke-opacity:1; fill:none" points="910.366,-1842.28 991.731,-1832.8 1073.1,-1456.93 1154.46,-1558.37 1235.83,-1285.11 1317.19,-1133.59 1398.56,-1089.97 1478.28,-1232.66 1558,-1539.06 1637.72,-1781.03 1717.44,-1462.58 1797.16,-1121.1 1878.53,-1453 1959.89,-1795.8 2041.26,-1839.48 2122.62,-1981.09 2199.33,-1987.99 2276.04,-1649.91 2352.76,-1373.07 "/>
<polyline clip-path="url(#clip492)" style="stroke:#0000ff; stroke-linecap:round; stroke-linejoin:round; stroke-width:4; stroke-opacity:1; fill:none" points="287.366,-1089.97 364.078,-1188.09 440.789,-1340.89 517.501,-1520.34 594.212,-1755.56 670.924,-1674.74 747.636,-1373.07 829.001,-1637.45 910.366,-1851.3 "/>
<polyline clip-path="url(#clip492)" style="stroke:#0000ff; stroke-linecap:round; stroke-linejoin:round; stroke-width:4; stroke-opacity:1; fill:none" points="910.366,-1851.31 991.731,-2001.75 1073.1,-2004.61 1154.46,-1694.22 1235.83,-1665.97 1317.19,-1284.33 1398.56,-1089.97 1478.28,-1232.66 1558,-1539.06 1637.72,-1781.03 1717.44,-1500.1 1797.16,-1333.42 1878.53,-1507.78 1959.89,-1861.05 2041.26,-2090.61 2122.62,-1981.09 2199.33,-1987.99 2276.04,-1649.91 2352.76,-1373.07 "/>
<polyline clip-path="url(#clip492)" style="stroke:#0000ff; stroke-linecap:round; stroke-linejoin:round; stroke-width:4; stroke-opacity:1; fill:none" points="287.366,-1737.09 364.078,-1891.98 440.789,-2279.61 517.501,-2132.42 594.212,-1932.67 670.924,-2069.22 747.636,-2428.68 829.001,-2164.05 910.366,-1870.92 "/>
<polyline clip-path="url(#clip492)" style="stroke:#0000ff; stroke-linecap:round; stroke-linejoin:round; stroke-width:4; stroke-opacity:1; fill:none" points="910.366,-1870.92 991.731,-2075.7 1073.1,-2136.02 1154.46,-2071.15 1235.83,-2204.51 1317.19,-1896.71 1398.56,-1737.09 1478.28,-1886.9 1558,-2187.52 1637.72,-2110.44 1717.44,-2079.89 1797.16,-2508.82 1878.53,-2468.9 1959.89,-2258.57 2041.26,-2144.67 2122.62,-2305.97 2199.33,-2136.52 2276.04,-2241.34 2352.76,-2428.68 "/>
<polyline clip-path="url(#clip492)" style="stroke:#0000ff; stroke-linecap:round; stroke-linejoin:round; stroke-width:4; stroke-opacity:1; fill:none" points="287.366,-3178.39 364.078,-2894.11 440.789,-2497.48 517.501,-2132.42 594.212,-1932.67 670.924,-2162.59 747.636,-2428.68 829.001,-2197.7 910.366,-2092.56 "/>
<polyline clip-path="url(#clip492)" style="stroke:#0000ff; stroke-linecap:round; stroke-linejoin:round; stroke-width:4; stroke-opacity:1; fill:none" points="910.366,-2092.56 991.731,-2120.63 1073.1,-2164.51 1154.46,-2323.23 1235.83,-2230.45 1317.19,-2793.87 1398.56,-3178.39 1478.28,-2898.97 1558,-2446.26 1637.72,-2124.68 1717.44,-2454.91 1797.16,-2540.8 1878.53,-2478.31 1959.89,-2345.16 2041.26,-2297.45 2122.62,-2305.97 2199.33,-2136.53 2276.04,-2241.34 2352.76,-2428.68 "/>
<polyline clip-path="url(#clip492)" style="stroke:#0000ff; stroke-linecap:round; stroke-linejoin:round; stroke-width:4; stroke-opacity:1; fill:none" points="287.366,-3178.39 364.078,-2894.11 440.789,-2497.48 517.501,-2379.22 594.212,-2007.59 670.924,-2162.59 747.636,-2511.3 829.001,-2548.95 910.366,-2554.95 "/>
<polyline clip-path="url(#clip492)" style="stroke:#0000ff; stroke-linecap:round; stroke-linejoin:round; stroke-width:4; stroke-opacity:1; fill:none" points="910.366,-2554.95 991.731,-2345.64 1073.1,-2373.94 1154.46,-2625.76 1235.83,-2715.51 1317.19,-2961.28 1398.56,-3178.39 1478.28,-2914.85 1558,-2446.26 1637.72,-2124.68 1717.44,-2454.91 1797.16,-2899.45 1878.53,-2781.02 1959.89,-2517.92 2041.26,-2315.6 2122.62,-2407.05 2199.33,-2361.72 2276.04,-2451.31 2352.76,-2511.3 "/>
<polyline clip-path="url(#clip492)" style="stroke:#0000ff; stroke-linecap:round; stroke-linejoin:round; stroke-width:4; stroke-opacity:1; fill:none" points="287.366,-3178.39 364.078,-3170.71 440.789,-2779.58 517.501,-2610.76 594.212,-2405 670.924,-2406.84 747.636,-2511.3 829.001,-2592.93 910.366,-2580.36 "/>
<polyline clip-path="url(#clip492)" style="stroke:#0000ff; stroke-linecap:round; stroke-linejoin:round; stroke-width:4; stroke-opacity:1; fill:none" points="910.366,-2580.36 991.731,-2598.56 1073.1,-2823.65 1154.46,-2660.03 1235.83,-2828.32 1317.19,-3059.02 1398.56,-3178.39 1478.28,-2914.85 1558,-2551.65 1637.72,-2704.17 1717.44,-3046.28 1797.16,-2899.45 1878.53,-2781.95 1959.89,-2737.86 2041.26,-2624.45 2122.62,-2407.05 2199.33,-2361.72 2276.04,-2451.31 2352.76,-2511.3 "/>
<polyline clip-path="url(#clip492)" style="stroke:#0000ff; stroke-linecap:round; stroke-linejoin:round; stroke-width:4; stroke-opacity:1; fill:none" points="287.366,-3432.64 364.078,-3186.58 440.789,-2882.03 517.501,-2749.84 594.212,-3137.49 670.924,-2959.11 747.636,-2617.41 829.001,-2674.98 910.366,-2836.34 "/>
<polyline clip-path="url(#clip492)" style="stroke:#0000ff; stroke-linecap:round; stroke-linejoin:round; stroke-width:4; stroke-opacity:1; fill:none" points="910.366,-2836.34 991.731,-2994.31 1073.1,-2878.77 1154.46,-2843.38 1235.83,-2892.97 1317.19,-3178.87 1398.56,-3432.64 1478.28,-3341.36 1558,-3357.66 1637.72,-3381.46 1717.44,-3213.97 1797.16,-2929.89 1878.53,-2900.95 1959.89,-2777.28 2041.26,-2760.79 2122.62,-2609.51 2199.33,-2869.24 2276.04,-2807.8 2352.76,-2617.41 "/>
<polyline clip-path="url(#clip492)" style="stroke:#0000ff; stroke-linecap:round; stroke-linejoin:round; stroke-width:4; stroke-opacity:1; fill:none" points="287.366,-3432.64 364.078,-3203.88 440.789,-3286.13 517.501,-3457.6 594.212,-3403.43 670.924,-3032.67 747.636,-2617.41 829.001,-2824.67 910.366,-2851.75 "/>
<polyline clip-path="url(#clip492)" style="stroke:#0000ff; stroke-linecap:round; stroke-linejoin:round; stroke-width:4; stroke-opacity:1; fill:none" points="910.366,-2851.75 991.731,-3156.35 1073.1,-3283.66 1154.46,-2995.27 1235.83,-3166.93 1317.19,-3317.75 1398.56,-3432.64 1478.28,-3341.36 1558,-3357.66 1637.72,-3381.47 1717.44,-3281.17 1797.16,-2929.89 1878.53,-3026.07 1959.89,-2955.23 2041.26,-2776.94 2122.62,-2609.51 2199.33,-2869.24 2276.04,-2807.8 2352.76,-2617.41 "/>
<polyline clip-path="url(#clip492)" style="stroke:#0000ff; stroke-linecap:round; stroke-linejoin:round; stroke-width:4; stroke-opacity:1; fill:none" points="287.366,-3442.85 364.078,-3622.34 440.789,-3757.87 517.501,-3730.52 594.212,-3523.91 670.924,-3032.67 747.636,-2781.74 829.001,-2866.69 910.366,-3017.11 "/>
<polyline clip-path="url(#clip492)" style="stroke:#0000ff; stroke-linecap:round; stroke-linejoin:round; stroke-width:4; stroke-opacity:1; fill:none" points="910.366,-3017.11 991.731,-3184.91 1073.1,-3338.91 1154.46,-3732.22 1235.83,-3689.26 1317.19,-3583.17 1398.56,-3442.85 1478.28,-3562.2 1558,-3624.75 1637.72,-3686 1717.44,-3281.17 1797.16,-3547.96 1878.53,-3475.75 1959.89,-3422.2 2041.26,-3031.86 2122.62,-3194.37 2199.33,-3130.79 2276.04,-2935.26 2352.76,-2781.75 "/>
<polyline clip-path="url(#clip492)" style="stroke:#000000; stroke-linecap:round; stroke-linejoin:round; stroke-width:4; stroke-opacity:1; fill:none" points="910.366,2799.12 910.366,-1328.69 "/>
<polyline clip-path="url(#clip492)" style="stroke:#008000; stroke-linecap:round; stroke-linejoin:round; stroke-width:6; stroke-opacity:1; fill:none" points="-1778.02,735.212 4418.15,735.212 "/>
<path clip-path="url(#clip490)" d="M356.212 1377.32 L609.811 1377.32 L609.811 1273.64 L356.212 1273.64  Z" fill="#ffffff" fill-rule="evenodd" fill-opacity="1"/>
<polyline clip-path="url(#clip490)" style="stroke:#000000; stroke-linecap:round; stroke-linejoin:round; stroke-width:4; stroke-opacity:1; fill:none" points="356.212,1377.32 609.811,1377.32 609.811,1273.64 356.212,1273.64 356.212,1377.32 "/>
<polyline clip-path="url(#clip490)" style="stroke:#008000; stroke-linecap:round; stroke-linejoin:round; stroke-width:6; stroke-opacity:1; fill:none" points="379.161,1325.48 516.854,1325.48 "/>
<path clip-path="url(#clip490)" d="M545.867 1328.77 Q543.275 1328.22 541.886 1326.71 Q540.497 1325.23 540.497 1323.08 Q540.497 1319.82 543.136 1317.99 Q545.752 1316.18 550.289 1316.18 Q552.048 1316.18 554.015 1316.46 Q555.983 1316.74 558.251 1317.29 L558.251 1321.16 Q556.006 1320.49 554.154 1320.19 Q552.279 1319.89 550.636 1319.89 Q547.881 1319.89 546.284 1320.95 Q544.664 1322.01 544.664 1323.5 Q544.664 1325.12 546.238 1326.16 Q547.789 1327.18 550.474 1327.18 L554.062 1327.18 L554.062 1330.7 L550.636 1330.7 Q547.464 1330.7 545.798 1331.88 Q543.992 1333.17 543.992 1335.21 Q543.992 1337.29 545.937 1338.59 Q547.904 1339.88 551.4 1339.88 Q553.552 1339.88 555.52 1339.47 Q557.488 1339.03 559.131 1338.17 L559.131 1342.13 Q557.048 1342.78 555.103 1343.1 Q553.136 1343.43 551.284 1343.43 Q545.775 1343.43 542.789 1341.32 Q539.802 1339.21 539.802 1335.21 Q539.802 1332.71 541.4 1331.02 Q542.997 1329.33 545.867 1328.77 Z" fill="#000000" fill-rule="nonzero" fill-opacity="1" /><path clip-path="url(#clip490)" d="M567.001 1308.2 L586.862 1308.2 L586.862 1312.13 L571.677 1312.13 L571.677 1322.32 L585.381 1322.32 L585.381 1326.25 L571.677 1326.25 L571.677 1342.76 L567.001 1342.76 L567.001 1308.2 Z" fill="#000000" fill-rule="nonzero" fill-opacity="1" /></svg>
