<?xml version="1.0" encoding="utf-8"?>
<svg xmlns="http://www.w3.org/2000/svg" xmlns:xlink="http://www.w3.org/1999/xlink" width="600" height="400" viewBox="0 0 2400 1600">
<defs>
  <clipPath id="clip420">
    <rect x="0" y="0" width="2400" height="1600"/>
  </clipPath>
</defs>
<path clip-path="url(#clip420)" d="M0 1600 L2400 1600 L2400 0 L0 0  Z" fill="#ffffff" fill-rule="evenodd" fill-opacity="1"/>
<defs>
  <clipPath id="clip421">
    <rect x="480" y="0" width="1681" height="1600"/>
  </clipPath>
</defs>
<path clip-path="url(#clip420)" d="M224.098 1486.45 L2352.76 1486.45 L2352.76 47.2441 L224.098 47.2441  Z" fill="#ffffff" fill-rule="evenodd" fill-opacity="1"/>
<defs>
  <clipPath id="clip422">
    <rect x="224" y="47" width="2130" height="1440"/>
  </clipPath>
</defs>
<polyline clip-path="url(#clip422)" style="stroke:#000000; stroke-linecap:round; stroke-linejoin:round; stroke-width:2; stroke-opacity:0.1; fill:none" points="224.098,1486.45 224.098,47.2441 "/>
<polyline clip-path="url(#clip422)" style="stroke:#000000; stroke-linecap:round; stroke-linejoin:round; stroke-width:2; stroke-opacity:0.1; fill:none" points="756.262,1486.45 756.262,47.2441 "/>
<polyline clip-path="url(#clip422)" style="stroke:#000000; stroke-linecap:round; stroke-linejoin:round; stroke-width:2; stroke-opacity:0.1; fill:none" points="1288.43,1486.45 1288.43,47.2441 "/>
<polyline clip-path="url(#clip422)" style="stroke:#000000; stroke-linecap:round; stroke-linejoin:round; stroke-width:2; stroke-opacity:0.1; fill:none" points="1820.59,1486.45 1820.59,47.2441 "/>
<polyline clip-path="url(#clip422)" style="stroke:#000000; stroke-linecap:round; stroke-linejoin:round; stroke-width:2; stroke-opacity:0.1; fill:none" points="2352.76,1486.45 2352.76,47.2441 "/>
<polyline clip-path="url(#clip422)" style="stroke:#000000; stroke-linecap:round; stroke-linejoin:round; stroke-width:2; stroke-opacity:0.1; fill:none" points="224.098,1279.73 2352.76,1279.73 "/>
<polyline clip-path="url(#clip422)" style="stroke:#000000; stroke-linecap:round; stroke-linejoin:round; stroke-width:2; stroke-opacity:0.1; fill:none" points="224.098,973.233 2352.76,973.233 "/>
<polyline clip-path="url(#clip422)" style="stroke:#000000; stroke-linecap:round; stroke-linejoin:round; stroke-width:2; stroke-opacity:0.1; fill:none" points="224.098,666.733 2352.76,666.733 "/>
<polyline clip-path="url(#clip422)" style="stroke:#000000; stroke-linecap:round; stroke-linejoin:round; stroke-width:2; stroke-opacity:0.1; fill:none" points="224.098,360.234 2352.76,360.234 "/>
<polyline clip-path="url(#clip422)" style="stroke:#000000; stroke-linecap:round; stroke-linejoin:round; stroke-width:2; stroke-opacity:0.1; fill:none" points="224.098,53.7347 2352.76,53.7347 "/>
<polyline clip-path="url(#clip420)" style="stroke:#000000; stroke-linecap:round; stroke-linejoin:round; stroke-width:4; stroke-opacity:1; fill:none" points="224.098,1486.45 2352.76,1486.45 "/>
<polyline clip-path="url(#clip420)" style="stroke:#000000; stroke-linecap:round; stroke-linejoin:round; stroke-width:4; stroke-opacity:1; fill:none" points="224.098,1486.45 224.098,1467.55 "/>
<polyline clip-path="url(#clip420)" style="stroke:#000000; stroke-linecap:round; stroke-linejoin:round; stroke-width:4; stroke-opacity:1; fill:none" points="756.262,1486.45 756.262,1467.55 "/>
<polyline clip-path="url(#clip420)" style="stroke:#000000; stroke-linecap:round; stroke-linejoin:round; stroke-width:4; stroke-opacity:1; fill:none" points="1288.43,1486.45 1288.43,1467.55 "/>
<polyline clip-path="url(#clip420)" style="stroke:#000000; stroke-linecap:round; stroke-linejoin:round; stroke-width:4; stroke-opacity:1; fill:none" points="1820.59,1486.45 1820.59,1467.55 "/>
<polyline clip-path="url(#clip420)" style="stroke:#000000; stroke-linecap:round; stroke-linejoin:round; stroke-width:4; stroke-opacity:1; fill:none" points="2352.76,1486.45 2352.76,1467.55 "/>
<path clip-path="url(#clip420)" d="M178.161 1532.02 L207.836 1532.02 L207.836 1535.95 L178.161 1535.95 L178.161 1532.02 Z" fill="#000000" fill-rule="nonzero" fill-opacity="1" /><path clip-path="url(#clip420)" d="M218.739 1544.91 L226.378 1544.91 L226.378 1518.55 L218.068 1520.21 L218.068 1515.95 L226.332 1514.29 L231.008 1514.29 L231.008 1544.91 L238.646 1544.91 L238.646 1548.85 L218.739 1548.85 L218.739 1544.91 Z" fill="#000000" fill-rule="nonzero" fill-opacity="1" /><path clip-path="url(#clip420)" d="M258.091 1517.37 Q254.48 1517.37 252.651 1520.93 Q250.845 1524.47 250.845 1531.6 Q250.845 1538.71 252.651 1542.27 Q254.48 1545.82 258.091 1545.82 Q261.725 1545.82 263.531 1542.27 Q265.359 1538.71 265.359 1531.6 Q265.359 1524.47 263.531 1520.93 Q261.725 1517.37 258.091 1517.37 M258.091 1513.66 Q263.901 1513.66 266.956 1518.27 Q270.035 1522.85 270.035 1531.6 Q270.035 1540.33 266.956 1544.94 Q263.901 1549.52 258.091 1549.52 Q252.281 1549.52 249.202 1544.94 Q246.146 1540.33 246.146 1531.6 Q246.146 1522.85 249.202 1518.27 Q252.281 1513.66 258.091 1513.66 Z" fill="#000000" fill-rule="nonzero" fill-opacity="1" /><path clip-path="url(#clip420)" d="M725.904 1532.02 L755.58 1532.02 L755.58 1535.95 L725.904 1535.95 L725.904 1532.02 Z" fill="#000000" fill-rule="nonzero" fill-opacity="1" /><path clip-path="url(#clip420)" d="M765.718 1514.29 L784.075 1514.29 L784.075 1518.22 L770.001 1518.22 L770.001 1526.7 Q771.019 1526.35 772.038 1526.19 Q773.056 1526 774.075 1526 Q779.862 1526 783.241 1529.17 Q786.621 1532.34 786.621 1537.76 Q786.621 1543.34 783.149 1546.44 Q779.677 1549.52 773.357 1549.52 Q771.181 1549.52 768.913 1549.15 Q766.667 1548.78 764.26 1548.04 L764.26 1543.34 Q766.343 1544.47 768.566 1545.03 Q770.788 1545.58 773.265 1545.58 Q777.269 1545.58 779.607 1543.48 Q781.945 1541.37 781.945 1537.76 Q781.945 1534.15 779.607 1532.04 Q777.269 1529.94 773.265 1529.94 Q771.39 1529.94 769.515 1530.35 Q767.663 1530.77 765.718 1531.65 L765.718 1514.29 Z" fill="#000000" fill-rule="nonzero" fill-opacity="1" /><path clip-path="url(#clip420)" d="M1288.43 1517.37 Q1284.82 1517.37 1282.99 1520.93 Q1281.18 1524.47 1281.18 1531.6 Q1281.18 1538.71 1282.99 1542.27 Q1284.82 1545.82 1288.43 1545.82 Q1292.06 1545.82 1293.87 1542.27 Q1295.7 1538.71 1295.7 1531.6 Q1295.7 1524.47 1293.87 1520.93 Q1292.06 1517.37 1288.43 1517.37 M1288.43 1513.66 Q1294.24 1513.66 1297.29 1518.27 Q1300.37 1522.85 1300.37 1531.6 Q1300.37 1540.33 1297.29 1544.94 Q1294.24 1549.52 1288.43 1549.52 Q1282.62 1549.52 1279.54 1544.94 Q1276.48 1540.33 1276.48 1531.6 Q1276.48 1522.85 1279.54 1518.27 Q1282.62 1513.66 1288.43 1513.66 Z" fill="#000000" fill-rule="nonzero" fill-opacity="1" /><path clip-path="url(#clip420)" d="M1810.87 1514.29 L1829.23 1514.29 L1829.23 1518.22 L1815.15 1518.22 L1815.15 1526.7 Q1816.17 1526.35 1817.19 1526.19 Q1818.21 1526 1819.23 1526 Q1825.01 1526 1828.39 1529.17 Q1831.77 1532.34 1831.77 1537.76 Q1831.77 1543.34 1828.3 1546.44 Q1824.83 1549.52 1818.51 1549.52 Q1816.33 1549.52 1814.06 1549.15 Q1811.82 1548.78 1809.41 1548.04 L1809.41 1543.34 Q1811.49 1544.47 1813.72 1545.03 Q1815.94 1545.58 1818.42 1545.58 Q1822.42 1545.58 1824.76 1543.48 Q1827.1 1541.37 1827.1 1537.76 Q1827.1 1534.15 1824.76 1532.04 Q1822.42 1529.94 1818.42 1529.94 Q1816.54 1529.94 1814.67 1530.35 Q1812.81 1530.77 1810.87 1531.65 L1810.87 1514.29 Z" fill="#000000" fill-rule="nonzero" fill-opacity="1" /><path clip-path="url(#clip420)" d="M2327.44 1544.91 L2335.08 1544.91 L2335.08 1518.55 L2326.77 1520.21 L2326.77 1515.95 L2335.04 1514.29 L2339.71 1514.29 L2339.71 1544.91 L2347.35 1544.91 L2347.35 1548.85 L2327.44 1548.85 L2327.44 1544.91 Z" fill="#000000" fill-rule="nonzero" fill-opacity="1" /><path clip-path="url(#clip420)" d="M2366.8 1517.37 Q2363.18 1517.37 2361.36 1520.93 Q2359.55 1524.47 2359.55 1531.6 Q2359.55 1538.71 2361.36 1542.27 Q2363.18 1545.82 2366.8 1545.82 Q2370.43 1545.82 2372.23 1542.27 Q2374.06 1538.71 2374.06 1531.6 Q2374.06 1524.47 2372.23 1520.93 Q2370.43 1517.37 2366.8 1517.37 M2366.8 1513.66 Q2372.61 1513.66 2375.66 1518.27 Q2378.74 1522.85 2378.74 1531.6 Q2378.74 1540.33 2375.66 1544.94 Q2372.61 1549.52 2366.8 1549.52 Q2360.99 1549.52 2357.91 1544.94 Q2354.85 1540.33 2354.85 1531.6 Q2354.85 1522.85 2357.91 1518.27 Q2360.99 1513.66 2366.8 1513.66 Z" fill="#000000" fill-rule="nonzero" fill-opacity="1" /><polyline clip-path="url(#clip420)" style="stroke:#000000; stroke-linecap:round; stroke-linejoin:round; stroke-width:4; stroke-opacity:1; fill:none" points="224.098,1486.45 224.098,47.2441 "/>
<polyline clip-path="url(#clip420)" style="stroke:#000000; stroke-linecap:round; stroke-linejoin:round; stroke-width:4; stroke-opacity:1; fill:none" points="224.098,1279.73 242.996,1279.73 "/>
<polyline clip-path="url(#clip420)" style="stroke:#000000; stroke-linecap:round; stroke-linejoin:round; stroke-width:4; stroke-opacity:1; fill:none" points="224.098,973.233 242.996,973.233 "/>
<polyline clip-path="url(#clip420)" style="stroke:#000000; stroke-linecap:round; stroke-linejoin:round; stroke-width:4; stroke-opacity:1; fill:none" points="224.098,666.733 242.996,666.733 "/>
<polyline clip-path="url(#clip420)" style="stroke:#000000; stroke-linecap:round; stroke-linejoin:round; stroke-width:4; stroke-opacity:1; fill:none" points="224.098,360.234 242.996,360.234 "/>
<polyline clip-path="url(#clip420)" style="stroke:#000000; stroke-linecap:round; stroke-linejoin:round; stroke-width:4; stroke-opacity:1; fill:none" points="224.098,53.7347 242.996,53.7347 "/>
<path clip-path="url(#clip420)" d="M50.9921 1280.18 L80.6679 1280.18 L80.6679 1284.12 L50.9921 1284.12 L50.9921 1280.18 Z" fill="#000000" fill-rule="nonzero" fill-opacity="1" /><path clip-path="url(#clip420)" d="M100.76 1265.53 Q97.1493 1265.53 95.3206 1269.1 Q93.515 1272.64 93.515 1279.77 Q93.515 1286.87 95.3206 1290.44 Q97.1493 1293.98 100.76 1293.98 Q104.395 1293.98 106.2 1290.44 Q108.029 1286.87 108.029 1279.77 Q108.029 1272.64 106.2 1269.1 Q104.395 1265.53 100.76 1265.53 M100.76 1261.83 Q106.571 1261.83 109.626 1266.43 Q112.705 1271.02 112.705 1279.77 Q112.705 1288.49 109.626 1293.1 Q106.571 1297.68 100.76 1297.68 Q94.9502 1297.68 91.8715 1293.1 Q88.816 1288.49 88.816 1279.77 Q88.816 1271.02 91.8715 1266.43 Q94.9502 1261.83 100.76 1261.83 Z" fill="#000000" fill-rule="nonzero" fill-opacity="1" /><path clip-path="url(#clip420)" d="M120.922 1291.13 L125.807 1291.13 L125.807 1297.01 L120.922 1297.01 L120.922 1291.13 Z" fill="#000000" fill-rule="nonzero" fill-opacity="1" /><path clip-path="url(#clip420)" d="M136.038 1262.45 L154.394 1262.45 L154.394 1266.39 L140.32 1266.39 L140.32 1274.86 Q141.339 1274.51 142.357 1274.35 Q143.376 1274.17 144.394 1274.17 Q150.181 1274.17 153.561 1277.34 Q156.941 1280.51 156.941 1285.92 Q156.941 1291.5 153.468 1294.6 Q149.996 1297.68 143.677 1297.68 Q141.501 1297.68 139.232 1297.31 Q136.987 1296.94 134.58 1296.2 L134.58 1291.5 Q136.663 1292.64 138.885 1293.19 Q141.107 1293.75 143.584 1293.75 Q147.589 1293.75 149.927 1291.64 Q152.265 1289.54 152.265 1285.92 Q152.265 1282.31 149.927 1280.21 Q147.589 1278.1 143.584 1278.1 Q141.709 1278.1 139.834 1278.52 Q137.982 1278.93 136.038 1279.81 L136.038 1262.45 Z" fill="#000000" fill-rule="nonzero" fill-opacity="1" /><path clip-path="url(#clip420)" d="M176.153 1265.53 Q172.542 1265.53 170.714 1269.1 Q168.908 1272.64 168.908 1279.77 Q168.908 1286.87 170.714 1290.44 Q172.542 1293.98 176.153 1293.98 Q179.788 1293.98 181.593 1290.44 Q183.422 1286.87 183.422 1279.77 Q183.422 1272.64 181.593 1269.1 Q179.788 1265.53 176.153 1265.53 M176.153 1261.83 Q181.964 1261.83 185.019 1266.43 Q188.098 1271.02 188.098 1279.77 Q188.098 1288.49 185.019 1293.1 Q181.964 1297.68 176.153 1297.68 Q170.343 1297.68 167.265 1293.1 Q164.209 1288.49 164.209 1279.77 Q164.209 1271.02 167.265 1266.43 Q170.343 1261.83 176.153 1261.83 Z" fill="#000000" fill-rule="nonzero" fill-opacity="1" /><path clip-path="url(#clip420)" d="M51.9875 973.684 L81.6633 973.684 L81.6633 977.619 L51.9875 977.619 L51.9875 973.684 Z" fill="#000000" fill-rule="nonzero" fill-opacity="1" /><path clip-path="url(#clip420)" d="M101.756 959.031 Q98.1447 959.031 96.316 962.596 Q94.5104 966.138 94.5104 973.267 Q94.5104 980.374 96.316 983.939 Q98.1447 987.48 101.756 987.48 Q105.39 987.48 107.196 983.939 Q109.024 980.374 109.024 973.267 Q109.024 966.138 107.196 962.596 Q105.39 959.031 101.756 959.031 M101.756 955.328 Q107.566 955.328 110.621 959.934 Q113.7 964.518 113.7 973.267 Q113.7 981.994 110.621 986.601 Q107.566 991.184 101.756 991.184 Q95.9456 991.184 92.8669 986.601 Q89.8114 981.994 89.8114 973.267 Q89.8114 964.518 92.8669 959.934 Q95.9456 955.328 101.756 955.328 Z" fill="#000000" fill-rule="nonzero" fill-opacity="1" /><path clip-path="url(#clip420)" d="M121.918 984.633 L126.802 984.633 L126.802 990.513 L121.918 990.513 L121.918 984.633 Z" fill="#000000" fill-rule="nonzero" fill-opacity="1" /><path clip-path="url(#clip420)" d="M141.015 986.578 L157.334 986.578 L157.334 990.513 L135.39 990.513 L135.39 986.578 Q138.052 983.823 142.635 979.193 Q147.242 974.541 148.422 973.198 Q150.668 970.675 151.547 968.939 Q152.45 967.18 152.45 965.49 Q152.45 962.735 150.505 960.999 Q148.584 959.263 145.482 959.263 Q143.283 959.263 140.83 960.027 Q138.399 960.791 135.621 962.342 L135.621 957.619 Q138.445 956.485 140.899 955.906 Q143.353 955.328 145.39 955.328 Q150.76 955.328 153.955 958.013 Q157.149 960.698 157.149 965.189 Q157.149 967.318 156.339 969.24 Q155.552 971.138 153.445 973.73 Q152.867 974.402 149.765 977.619 Q146.663 980.814 141.015 986.578 Z" fill="#000000" fill-rule="nonzero" fill-opacity="1" /><path clip-path="url(#clip420)" d="M167.195 955.953 L185.552 955.953 L185.552 959.888 L171.478 959.888 L171.478 968.36 Q172.496 968.013 173.515 967.851 Q174.533 967.666 175.552 967.666 Q181.339 967.666 184.718 970.837 Q188.098 974.008 188.098 979.425 Q188.098 985.004 184.626 988.105 Q181.153 991.184 174.834 991.184 Q172.658 991.184 170.39 990.814 Q168.144 990.443 165.737 989.703 L165.737 985.004 Q167.82 986.138 170.042 986.693 Q172.265 987.249 174.741 987.249 Q178.746 987.249 181.084 985.142 Q183.422 983.036 183.422 979.425 Q183.422 975.814 181.084 973.707 Q178.746 971.601 174.741 971.601 Q172.866 971.601 170.991 972.017 Q169.14 972.434 167.195 973.314 L167.195 955.953 Z" fill="#000000" fill-rule="nonzero" fill-opacity="1" /><path clip-path="url(#clip420)" d="M100.76 652.532 Q97.1493 652.532 95.3206 656.097 Q93.515 659.639 93.515 666.768 Q93.515 673.875 95.3206 677.439 Q97.1493 680.981 100.76 680.981 Q104.395 680.981 106.2 677.439 Q108.029 673.875 108.029 666.768 Q108.029 659.639 106.2 656.097 Q104.395 652.532 100.76 652.532 M100.76 648.828 Q106.571 648.828 109.626 653.435 Q112.705 658.018 112.705 666.768 Q112.705 675.495 109.626 680.101 Q106.571 684.685 100.76 684.685 Q94.9502 684.685 91.8715 680.101 Q88.816 675.495 88.816 666.768 Q88.816 658.018 91.8715 653.435 Q94.9502 648.828 100.76 648.828 Z" fill="#000000" fill-rule="nonzero" fill-opacity="1" /><path clip-path="url(#clip420)" d="M120.922 678.134 L125.807 678.134 L125.807 684.013 L120.922 684.013 L120.922 678.134 Z" fill="#000000" fill-rule="nonzero" fill-opacity="1" /><path clip-path="url(#clip420)" d="M145.992 652.532 Q142.381 652.532 140.552 656.097 Q138.746 659.639 138.746 666.768 Q138.746 673.875 140.552 677.439 Q142.381 680.981 145.992 680.981 Q149.626 680.981 151.431 677.439 Q153.26 673.875 153.26 666.768 Q153.26 659.639 151.431 656.097 Q149.626 652.532 145.992 652.532 M145.992 648.828 Q151.802 648.828 154.857 653.435 Q157.936 658.018 157.936 666.768 Q157.936 675.495 154.857 680.101 Q151.802 684.685 145.992 684.685 Q140.181 684.685 137.103 680.101 Q134.047 675.495 134.047 666.768 Q134.047 658.018 137.103 653.435 Q140.181 648.828 145.992 648.828 Z" fill="#000000" fill-rule="nonzero" fill-opacity="1" /><path clip-path="url(#clip420)" d="M176.153 652.532 Q172.542 652.532 170.714 656.097 Q168.908 659.639 168.908 666.768 Q168.908 673.875 170.714 677.439 Q172.542 680.981 176.153 680.981 Q179.788 680.981 181.593 677.439 Q183.422 673.875 183.422 666.768 Q183.422 659.639 181.593 656.097 Q179.788 652.532 176.153 652.532 M176.153 648.828 Q181.964 648.828 185.019 653.435 Q188.098 658.018 188.098 666.768 Q188.098 675.495 185.019 680.101 Q181.964 684.685 176.153 684.685 Q170.343 684.685 167.265 680.101 Q164.209 675.495 164.209 666.768 Q164.209 658.018 167.265 653.435 Q170.343 648.828 176.153 648.828 Z" fill="#000000" fill-rule="nonzero" fill-opacity="1" /><path clip-path="url(#clip420)" d="M101.756 346.033 Q98.1447 346.033 96.316 349.598 Q94.5104 353.139 94.5104 360.269 Q94.5104 367.375 96.316 370.94 Q98.1447 374.482 101.756 374.482 Q105.39 374.482 107.196 370.94 Q109.024 367.375 109.024 360.269 Q109.024 353.139 107.196 349.598 Q105.39 346.033 101.756 346.033 M101.756 342.329 Q107.566 342.329 110.621 346.936 Q113.7 351.519 113.7 360.269 Q113.7 368.996 110.621 373.602 Q107.566 378.185 101.756 378.185 Q95.9456 378.185 92.8669 373.602 Q89.8114 368.996 89.8114 360.269 Q89.8114 351.519 92.8669 346.936 Q95.9456 342.329 101.756 342.329 Z" fill="#000000" fill-rule="nonzero" fill-opacity="1" /><path clip-path="url(#clip420)" d="M121.918 371.634 L126.802 371.634 L126.802 377.514 L121.918 377.514 L121.918 371.634 Z" fill="#000000" fill-rule="nonzero" fill-opacity="1" /><path clip-path="url(#clip420)" d="M141.015 373.579 L157.334 373.579 L157.334 377.514 L135.39 377.514 L135.39 373.579 Q138.052 370.824 142.635 366.195 Q147.242 361.542 148.422 360.199 Q150.668 357.676 151.547 355.94 Q152.45 354.181 152.45 352.491 Q152.45 349.736 150.505 348 Q148.584 346.264 145.482 346.264 Q143.283 346.264 140.83 347.028 Q138.399 347.792 135.621 349.343 L135.621 344.621 Q138.445 343.486 140.899 342.908 Q143.353 342.329 145.39 342.329 Q150.76 342.329 153.955 345.014 Q157.149 347.699 157.149 352.19 Q157.149 354.32 156.339 356.241 Q155.552 358.139 153.445 360.732 Q152.867 361.403 149.765 364.621 Q146.663 367.815 141.015 373.579 Z" fill="#000000" fill-rule="nonzero" fill-opacity="1" /><path clip-path="url(#clip420)" d="M167.195 342.954 L185.552 342.954 L185.552 346.889 L171.478 346.889 L171.478 355.361 Q172.496 355.014 173.515 354.852 Q174.533 354.667 175.552 354.667 Q181.339 354.667 184.718 357.838 Q188.098 361.01 188.098 366.426 Q188.098 372.005 184.626 375.107 Q181.153 378.185 174.834 378.185 Q172.658 378.185 170.39 377.815 Q168.144 377.445 165.737 376.704 L165.737 372.005 Q167.82 373.139 170.042 373.695 Q172.265 374.25 174.741 374.25 Q178.746 374.25 181.084 372.144 Q183.422 370.037 183.422 366.426 Q183.422 362.815 181.084 360.709 Q178.746 358.602 174.741 358.602 Q172.866 358.602 170.991 359.019 Q169.14 359.435 167.195 360.315 L167.195 342.954 Z" fill="#000000" fill-rule="nonzero" fill-opacity="1" /><path clip-path="url(#clip420)" d="M100.76 39.5334 Q97.1493 39.5334 95.3206 43.0982 Q93.515 46.6399 93.515 53.7695 Q93.515 60.8759 95.3206 64.4407 Q97.1493 67.9824 100.76 67.9824 Q104.395 67.9824 106.2 64.4407 Q108.029 60.8759 108.029 53.7695 Q108.029 46.6399 106.2 43.0982 Q104.395 39.5334 100.76 39.5334 M100.76 35.8297 Q106.571 35.8297 109.626 40.4362 Q112.705 45.0195 112.705 53.7695 Q112.705 62.4963 109.626 67.1027 Q106.571 71.686 100.76 71.686 Q94.9502 71.686 91.8715 67.1027 Q88.816 62.4963 88.816 53.7695 Q88.816 45.0195 91.8715 40.4362 Q94.9502 35.8297 100.76 35.8297 Z" fill="#000000" fill-rule="nonzero" fill-opacity="1" /><path clip-path="url(#clip420)" d="M120.922 65.1351 L125.807 65.1351 L125.807 71.0147 L120.922 71.0147 L120.922 65.1351 Z" fill="#000000" fill-rule="nonzero" fill-opacity="1" /><path clip-path="url(#clip420)" d="M136.038 36.4547 L154.394 36.4547 L154.394 40.3899 L140.32 40.3899 L140.32 48.8621 Q141.339 48.5149 142.357 48.3528 Q143.376 48.1676 144.394 48.1676 Q150.181 48.1676 153.561 51.3389 Q156.941 54.5102 156.941 59.9268 Q156.941 65.5055 153.468 68.6073 Q149.996 71.686 143.677 71.686 Q141.501 71.686 139.232 71.3157 Q136.987 70.9453 134.58 70.2046 L134.58 65.5055 Q136.663 66.6398 138.885 67.1953 Q141.107 67.7509 143.584 67.7509 Q147.589 67.7509 149.927 65.6444 Q152.265 63.5379 152.265 59.9268 Q152.265 56.3157 149.927 54.2093 Q147.589 52.1028 143.584 52.1028 Q141.709 52.1028 139.834 52.5195 Q137.982 52.9361 136.038 53.8158 L136.038 36.4547 Z" fill="#000000" fill-rule="nonzero" fill-opacity="1" /><path clip-path="url(#clip420)" d="M176.153 39.5334 Q172.542 39.5334 170.714 43.0982 Q168.908 46.6399 168.908 53.7695 Q168.908 60.8759 170.714 64.4407 Q172.542 67.9824 176.153 67.9824 Q179.788 67.9824 181.593 64.4407 Q183.422 60.8759 183.422 53.7695 Q183.422 46.6399 181.593 43.0982 Q179.788 39.5334 176.153 39.5334 M176.153 35.8297 Q181.964 35.8297 185.019 40.4362 Q188.098 45.0195 188.098 53.7695 Q188.098 62.4963 185.019 67.1027 Q181.964 71.686 176.153 71.686 Q170.343 71.686 167.265 67.1027 Q164.209 62.4963 164.209 53.7695 Q164.209 45.0195 167.265 40.4362 Q170.343 35.8297 176.153 35.8297 Z" fill="#000000" fill-rule="nonzero" fill-opacity="1" /><polyline clip-path="url(#clip422)" style="stroke:#009af9; stroke-linecap:round; stroke-linejoin:round; stroke-width:4; stroke-opacity:1; fill:none" points="1288.43,87.9763 1394.86,976.406 1501.29,604.428 1607.73,672.957 1714.16,666.368 1820.59,666.747 1927.02,666.733 2033.46,666.733 2139.89,666.733 2246.32,666.733 2352.76,666.733 2459.19,666.733 2565.62,666.733 2672.05,666.733 2778.49,666.733 2884.92,666.733 2991.35,666.733 3097.79,666.733 3204.22,666.733 3310.65,666.733 3417.08,666.733 3523.52,666.733 3629.95,666.733 3736.38,666.733 3842.82,666.733 3949.25,666.733 4055.68,666.733 4162.12,666.733 4268.55,666.733 4374.98,666.733 4481.41,666.733 4587.85,666.733 -2010.99,666.733 -1904.56,666.733 -1798.13,666.733 -1691.69,666.733 -1585.26,666.733 -1478.83,666.733 -1372.4,666.733 -1265.96,666.733 -1159.53,666.733 -1053.1,666.733 -946.664,666.733 -840.231,666.733 -733.798,666.733 -627.365,666.733 -520.932,666.733 -414.5,666.733 -308.067,666.733 -201.634,666.733 -95.2008,666.733 11.2321,666.733 117.665,666.733 224.098,666.733 330.531,666.733 436.964,666.733 543.397,666.733 649.829,666.733 756.262,666.747 862.695,666.368 969.128,672.957 1075.56,604.428 1181.99,976.406 "/>
<polyline clip-path="url(#clip422)" style="stroke:#e26f46; stroke-linecap:round; stroke-linejoin:round; stroke-width:4; stroke-opacity:1; fill:none" points="1288.43,1445.72 1394.86,249.927 1501.29,750.594 1607.73,658.357 1714.16,667.225 1820.59,666.715 1927.02,666.734 2033.46,666.733 2139.89,666.733 2246.32,666.733 2352.76,666.733 2459.19,666.733 2565.62,666.733 2672.05,666.733 2778.49,666.733 2884.92,666.733 2991.35,666.733 3097.79,666.733 3204.22,666.733 3310.65,666.733 3417.08,666.733 3523.52,666.733 3629.95,666.733 3736.38,666.733 3842.82,666.733 3949.25,666.733 4055.68,666.733 4162.12,666.733 4268.55,666.733 4374.98,666.733 4481.41,666.733 4587.85,666.733 -2010.99,666.733 -1904.56,666.733 -1798.13,666.733 -1691.69,666.733 -1585.26,666.733 -1478.83,666.733 -1372.4,666.733 -1265.96,666.733 -1159.53,666.733 -1053.1,666.733 -946.664,666.733 -840.231,666.733 -733.798,666.733 -627.365,666.733 -520.932,666.733 -414.5,666.733 -308.067,666.733 -201.634,666.733 -95.2008,666.733 11.2321,666.733 117.665,666.733 224.098,666.733 330.531,666.733 436.964,666.733 543.397,666.733 649.829,666.734 756.262,666.715 862.695,667.225 969.128,658.357 1075.56,750.594 1181.99,249.927 "/>
<path clip-path="url(#clip420)" d="M1723.94 250.738 L2281.8 250.738 L2281.8 95.2176 L1723.94 95.2176  Z" fill="#ffffff" fill-rule="evenodd" fill-opacity="1"/>
<polyline clip-path="url(#clip420)" style="stroke:#000000; stroke-linecap:round; stroke-linejoin:round; stroke-width:4; stroke-opacity:1; fill:none" points="1723.94,250.738 2281.8,250.738 2281.8,95.2176 1723.94,95.2176 1723.94,250.738 "/>
<polyline clip-path="url(#clip420)" style="stroke:#009af9; stroke-linecap:round; stroke-linejoin:round; stroke-width:4; stroke-opacity:1; fill:none" points="1747.59,147.058 1889.5,147.058 "/>
<path clip-path="url(#clip420)" d="M1928.34 142.393 Q1927.62 141.977 1926.76 141.791 Q1925.93 141.583 1924.91 141.583 Q1921.3 141.583 1919.35 143.944 Q1917.43 146.282 1917.43 150.68 L1917.43 164.338 L1913.15 164.338 L1913.15 138.412 L1917.43 138.412 L1917.43 142.44 Q1918.78 140.078 1920.93 138.944 Q1923.08 137.787 1926.16 137.787 Q1926.6 137.787 1927.13 137.856 Q1927.66 137.903 1928.31 138.018 L1928.34 142.393 Z" fill="#000000" fill-rule="nonzero" fill-opacity="1" /><path clip-path="url(#clip420)" d="M1953.94 150.31 L1953.94 152.393 L1934.35 152.393 Q1934.63 156.791 1936.99 159.106 Q1939.38 161.398 1943.61 161.398 Q1946.07 161.398 1948.36 160.796 Q1950.67 160.194 1952.94 158.99 L1952.94 163.018 Q1950.65 163.99 1948.24 164.5 Q1945.84 165.009 1943.36 165.009 Q1937.16 165.009 1933.52 161.398 Q1929.91 157.787 1929.91 151.629 Q1929.91 145.264 1933.34 141.537 Q1936.78 137.787 1942.62 137.787 Q1947.85 137.787 1950.88 141.166 Q1953.94 144.523 1953.94 150.31 M1949.68 149.06 Q1949.63 145.565 1947.71 143.481 Q1945.81 141.398 1942.66 141.398 Q1939.1 141.398 1936.95 143.412 Q1934.82 145.426 1934.49 149.083 L1949.68 149.06 Z" fill="#000000" fill-rule="nonzero" fill-opacity="1" /><path clip-path="url(#clip420)" d="M1972.71 151.305 Q1967.55 151.305 1965.56 152.486 Q1963.57 153.666 1963.57 156.514 Q1963.57 158.782 1965.05 160.125 Q1966.55 161.444 1969.12 161.444 Q1972.66 161.444 1974.79 158.944 Q1976.95 156.421 1976.95 152.254 L1976.95 151.305 L1972.71 151.305 M1981.21 149.546 L1981.21 164.338 L1976.95 164.338 L1976.95 160.402 Q1975.49 162.763 1973.31 163.898 Q1971.14 165.009 1967.99 165.009 Q1964.01 165.009 1961.65 162.787 Q1959.31 160.541 1959.31 156.791 Q1959.31 152.416 1962.22 150.194 Q1965.16 147.972 1970.97 147.972 L1976.95 147.972 L1976.95 147.555 Q1976.95 144.615 1975 143.018 Q1973.08 141.398 1969.59 141.398 Q1967.36 141.398 1965.26 141.93 Q1963.15 142.463 1961.21 143.527 L1961.21 139.592 Q1963.54 138.69 1965.74 138.25 Q1967.94 137.787 1970.03 137.787 Q1975.65 137.787 1978.43 140.703 Q1981.21 143.62 1981.21 149.546 Z" fill="#000000" fill-rule="nonzero" fill-opacity="1" /><path clip-path="url(#clip420)" d="M1989.98 128.319 L1994.24 128.319 L1994.24 164.338 L1989.98 164.338 L1989.98 128.319 Z" fill="#000000" fill-rule="nonzero" fill-opacity="1" /><path clip-path="url(#clip420)" d="M2022.34 160.449 L2022.34 174.199 L2018.06 174.199 L2018.06 138.412 L2022.34 138.412 L2022.34 142.347 Q2023.68 140.032 2025.72 138.921 Q2027.78 137.787 2030.63 137.787 Q2035.35 137.787 2038.29 141.537 Q2041.25 145.287 2041.25 151.398 Q2041.25 157.509 2038.29 161.259 Q2035.35 165.009 2030.63 165.009 Q2027.78 165.009 2025.72 163.898 Q2023.68 162.763 2022.34 160.449 M2036.83 151.398 Q2036.83 146.699 2034.89 144.037 Q2032.96 141.352 2029.59 141.352 Q2026.21 141.352 2024.26 144.037 Q2022.34 146.699 2022.34 151.398 Q2022.34 156.097 2024.26 158.782 Q2026.21 161.444 2029.59 161.444 Q2032.96 161.444 2034.89 158.782 Q2036.83 156.097 2036.83 151.398 Z" fill="#000000" fill-rule="nonzero" fill-opacity="1" /><path clip-path="url(#clip420)" d="M2060.09 151.305 Q2054.93 151.305 2052.94 152.486 Q2050.95 153.666 2050.95 156.514 Q2050.95 158.782 2052.43 160.125 Q2053.94 161.444 2056.51 161.444 Q2060.05 161.444 2062.18 158.944 Q2064.33 156.421 2064.33 152.254 L2064.33 151.305 L2060.09 151.305 M2068.59 149.546 L2068.59 164.338 L2064.33 164.338 L2064.33 160.402 Q2062.87 162.763 2060.7 163.898 Q2058.52 165.009 2055.37 165.009 Q2051.39 165.009 2049.03 162.787 Q2046.69 160.541 2046.69 156.791 Q2046.69 152.416 2049.61 150.194 Q2052.55 147.972 2058.36 147.972 L2064.33 147.972 L2064.33 147.555 Q2064.33 144.615 2062.39 143.018 Q2060.46 141.398 2056.97 141.398 Q2054.75 141.398 2052.64 141.93 Q2050.53 142.463 2048.59 143.527 L2048.59 139.592 Q2050.93 138.69 2053.13 138.25 Q2055.33 137.787 2057.41 137.787 Q2063.03 137.787 2065.81 140.703 Q2068.59 143.62 2068.59 149.546 Z" fill="#000000" fill-rule="nonzero" fill-opacity="1" /><path clip-path="url(#clip420)" d="M2092.39 142.393 Q2091.67 141.977 2090.81 141.791 Q2089.98 141.583 2088.96 141.583 Q2085.35 141.583 2083.4 143.944 Q2081.48 146.282 2081.48 150.68 L2081.48 164.338 L2077.2 164.338 L2077.2 138.412 L2081.48 138.412 L2081.48 142.44 Q2082.83 140.078 2084.98 138.944 Q2087.13 137.787 2090.21 137.787 Q2090.65 137.787 2091.18 137.856 Q2091.71 137.903 2092.36 138.018 L2092.39 142.393 Z" fill="#000000" fill-rule="nonzero" fill-opacity="1" /><path clip-path="url(#clip420)" d="M2101.07 131.051 L2101.07 138.412 L2109.84 138.412 L2109.84 141.722 L2101.07 141.722 L2101.07 155.796 Q2101.07 158.967 2101.92 159.87 Q2102.8 160.773 2105.46 160.773 L2109.84 160.773 L2109.84 164.338 L2105.46 164.338 Q2100.53 164.338 2098.66 162.509 Q2096.78 160.657 2096.78 155.796 L2096.78 141.722 L2093.66 141.722 L2093.66 138.412 L2096.78 138.412 L2096.78 131.051 L2101.07 131.051 Z" fill="#000000" fill-rule="nonzero" fill-opacity="1" /><polyline clip-path="url(#clip420)" style="stroke:#e26f46; stroke-linecap:round; stroke-linejoin:round; stroke-width:4; stroke-opacity:1; fill:none" points="1747.59,198.898 1889.5,198.898 "/>
<path clip-path="url(#clip420)" d="M1913.15 190.252 L1917.41 190.252 L1917.41 216.178 L1913.15 216.178 L1913.15 190.252 M1913.15 180.159 L1917.41 180.159 L1917.41 185.553 L1913.15 185.553 L1913.15 180.159 Z" fill="#000000" fill-rule="nonzero" fill-opacity="1" /><path clip-path="url(#clip420)" d="M1946.51 195.229 Q1948.1 192.358 1950.33 190.993 Q1952.55 189.627 1955.56 189.627 Q1959.61 189.627 1961.81 192.474 Q1964.01 195.298 1964.01 200.529 L1964.01 216.178 L1959.72 216.178 L1959.72 200.668 Q1959.72 196.942 1958.41 195.136 Q1957.09 193.33 1954.38 193.33 Q1951.07 193.33 1949.15 195.53 Q1947.22 197.729 1947.22 201.525 L1947.22 216.178 L1942.94 216.178 L1942.94 200.668 Q1942.94 196.918 1941.62 195.136 Q1940.3 193.33 1937.55 193.33 Q1934.28 193.33 1932.36 195.553 Q1930.44 197.752 1930.44 201.525 L1930.44 216.178 L1926.16 216.178 L1926.16 190.252 L1930.44 190.252 L1930.44 194.28 Q1931.9 191.895 1933.94 190.761 Q1935.97 189.627 1938.78 189.627 Q1941.6 189.627 1943.57 191.062 Q1945.56 192.497 1946.51 195.229 Z" fill="#000000" fill-rule="nonzero" fill-opacity="1" /><path clip-path="url(#clip420)" d="M1984.28 203.145 Q1979.12 203.145 1977.13 204.326 Q1975.14 205.506 1975.14 208.354 Q1975.14 210.622 1976.62 211.965 Q1978.13 213.284 1980.7 213.284 Q1984.24 213.284 1986.37 210.784 Q1988.52 208.261 1988.52 204.094 L1988.52 203.145 L1984.28 203.145 M1992.78 201.386 L1992.78 216.178 L1988.52 216.178 L1988.52 212.242 Q1987.06 214.603 1984.89 215.738 Q1982.71 216.849 1979.56 216.849 Q1975.58 216.849 1973.22 214.627 Q1970.88 212.381 1970.88 208.631 Q1970.88 204.256 1973.8 202.034 Q1976.74 199.812 1982.55 199.812 L1988.52 199.812 L1988.52 199.395 Q1988.52 196.455 1986.58 194.858 Q1984.65 193.238 1981.16 193.238 Q1978.94 193.238 1976.83 193.77 Q1974.72 194.303 1972.78 195.367 L1972.78 191.432 Q1975.12 190.53 1977.32 190.09 Q1979.52 189.627 1981.6 189.627 Q1987.22 189.627 1990 192.543 Q1992.78 195.46 1992.78 201.386 Z" fill="#000000" fill-rule="nonzero" fill-opacity="1" /><path clip-path="url(#clip420)" d="M2018.61 202.914 Q2018.61 198.284 2016.69 195.738 Q2014.79 193.192 2011.34 193.192 Q2007.92 193.192 2006 195.738 Q2004.1 198.284 2004.1 202.914 Q2004.1 207.52 2006 210.066 Q2007.92 212.613 2011.34 212.613 Q2014.79 212.613 2016.69 210.066 Q2018.61 207.52 2018.61 202.914 M2022.87 212.96 Q2022.87 219.58 2019.93 222.798 Q2016.99 226.039 2010.93 226.039 Q2008.68 226.039 2006.69 225.691 Q2004.7 225.367 2002.83 224.673 L2002.83 220.529 Q2004.7 221.548 2006.53 222.034 Q2008.36 222.52 2010.26 222.52 Q2014.45 222.52 2016.53 220.321 Q2018.61 218.145 2018.61 213.724 L2018.61 211.617 Q2017.29 213.909 2015.23 215.043 Q2013.17 216.178 2010.3 216.178 Q2005.53 216.178 2002.62 212.543 Q1999.7 208.909 1999.7 202.914 Q1999.7 196.895 2002.62 193.261 Q2005.53 189.627 2010.3 189.627 Q2013.17 189.627 2015.23 190.761 Q2017.29 191.895 2018.61 194.187 L2018.61 190.252 L2022.87 190.252 L2022.87 212.96 Z" fill="#000000" fill-rule="nonzero" fill-opacity="1" /><path clip-path="url(#clip420)" d="M2031.65 190.252 L2035.9 190.252 L2035.9 216.178 L2031.65 216.178 L2031.65 190.252 M2031.65 180.159 L2035.9 180.159 L2035.9 185.553 L2031.65 185.553 L2031.65 180.159 Z" fill="#000000" fill-rule="nonzero" fill-opacity="1" /><path clip-path="url(#clip420)" d="M2066.37 200.529 L2066.37 216.178 L2062.11 216.178 L2062.11 200.668 Q2062.11 196.988 2060.67 195.159 Q2059.24 193.33 2056.37 193.33 Q2052.92 193.33 2050.93 195.53 Q2048.94 197.729 2048.94 201.525 L2048.94 216.178 L2044.65 216.178 L2044.65 190.252 L2048.94 190.252 L2048.94 194.28 Q2050.46 191.942 2052.52 190.784 Q2054.61 189.627 2057.32 189.627 Q2061.78 189.627 2064.08 192.405 Q2066.37 195.159 2066.37 200.529 Z" fill="#000000" fill-rule="nonzero" fill-opacity="1" /><path clip-path="url(#clip420)" d="M2086.65 203.145 Q2081.48 203.145 2079.49 204.326 Q2077.5 205.506 2077.5 208.354 Q2077.5 210.622 2078.98 211.965 Q2080.49 213.284 2083.06 213.284 Q2086.6 213.284 2088.73 210.784 Q2090.88 208.261 2090.88 204.094 L2090.88 203.145 L2086.65 203.145 M2095.14 201.386 L2095.14 216.178 L2090.88 216.178 L2090.88 212.242 Q2089.42 214.603 2087.25 215.738 Q2085.07 216.849 2081.92 216.849 Q2077.94 216.849 2075.58 214.627 Q2073.24 212.381 2073.24 208.631 Q2073.24 204.256 2076.16 202.034 Q2079.1 199.812 2084.91 199.812 L2090.88 199.812 L2090.88 199.395 Q2090.88 196.455 2088.94 194.858 Q2087.02 193.238 2083.52 193.238 Q2081.3 193.238 2079.19 193.77 Q2077.09 194.303 2075.14 195.367 L2075.14 191.432 Q2077.48 190.53 2079.68 190.09 Q2081.88 189.627 2083.96 189.627 Q2089.58 189.627 2092.36 192.543 Q2095.14 195.46 2095.14 201.386 Z" fill="#000000" fill-rule="nonzero" fill-opacity="1" /><path clip-path="url(#clip420)" d="M2118.94 194.233 Q2118.22 193.817 2117.36 193.631 Q2116.53 193.423 2115.51 193.423 Q2111.9 193.423 2109.96 195.784 Q2108.03 198.122 2108.03 202.52 L2108.03 216.178 L2103.75 216.178 L2103.75 190.252 L2108.03 190.252 L2108.03 194.28 Q2109.38 191.918 2111.53 190.784 Q2113.68 189.627 2116.76 189.627 Q2117.2 189.627 2117.73 189.696 Q2118.27 189.743 2118.91 189.858 L2118.94 194.233 Z" fill="#000000" fill-rule="nonzero" fill-opacity="1" /><path clip-path="url(#clip420)" d="M2134.19 218.585 Q2132.39 223.215 2130.67 224.627 Q2128.96 226.039 2126.09 226.039 L2122.69 226.039 L2122.69 222.474 L2125.19 222.474 Q2126.95 222.474 2127.92 221.64 Q2128.89 220.807 2130.07 217.705 L2130.83 215.761 L2120.35 190.252 L2124.86 190.252 L2132.96 210.529 L2141.07 190.252 L2145.58 190.252 L2134.19 218.585 Z" fill="#000000" fill-rule="nonzero" fill-opacity="1" /><path clip-path="url(#clip420)" d="M2170.65 212.289 L2170.65 226.039 L2166.37 226.039 L2166.37 190.252 L2170.65 190.252 L2170.65 194.187 Q2171.99 191.872 2174.03 190.761 Q2176.09 189.627 2178.94 189.627 Q2183.66 189.627 2186.6 193.377 Q2189.56 197.127 2189.56 203.238 Q2189.56 209.349 2186.6 213.099 Q2183.66 216.849 2178.94 216.849 Q2176.09 216.849 2174.03 215.738 Q2171.99 214.603 2170.65 212.289 M2185.14 203.238 Q2185.14 198.539 2183.2 195.877 Q2181.27 193.192 2177.89 193.192 Q2174.52 193.192 2172.57 195.877 Q2170.65 198.539 2170.65 203.238 Q2170.65 207.937 2172.57 210.622 Q2174.52 213.284 2177.89 213.284 Q2181.27 213.284 2183.2 210.622 Q2185.14 207.937 2185.14 203.238 Z" fill="#000000" fill-rule="nonzero" fill-opacity="1" /><path clip-path="url(#clip420)" d="M2208.4 203.145 Q2203.24 203.145 2201.25 204.326 Q2199.26 205.506 2199.26 208.354 Q2199.26 210.622 2200.74 211.965 Q2202.25 213.284 2204.82 213.284 Q2208.36 213.284 2210.49 210.784 Q2212.64 208.261 2212.64 204.094 L2212.64 203.145 L2208.4 203.145 M2216.9 201.386 L2216.9 216.178 L2212.64 216.178 L2212.64 212.242 Q2211.18 214.603 2209.01 215.738 Q2206.83 216.849 2203.68 216.849 Q2199.7 216.849 2197.34 214.627 Q2195 212.381 2195 208.631 Q2195 204.256 2197.92 202.034 Q2200.86 199.812 2206.67 199.812 L2212.64 199.812 L2212.64 199.395 Q2212.64 196.455 2210.7 194.858 Q2208.77 193.238 2205.28 193.238 Q2203.06 193.238 2200.95 193.77 Q2198.84 194.303 2196.9 195.367 L2196.9 191.432 Q2199.24 190.53 2201.44 190.09 Q2203.64 189.627 2205.72 189.627 Q2211.34 189.627 2214.12 192.543 Q2216.9 195.46 2216.9 201.386 Z" fill="#000000" fill-rule="nonzero" fill-opacity="1" /><path clip-path="url(#clip420)" d="M2240.7 194.233 Q2239.98 193.817 2239.12 193.631 Q2238.29 193.423 2237.27 193.423 Q2233.66 193.423 2231.71 195.784 Q2229.79 198.122 2229.79 202.52 L2229.79 216.178 L2225.51 216.178 L2225.51 190.252 L2229.79 190.252 L2229.79 194.28 Q2231.14 191.918 2233.29 190.784 Q2235.44 189.627 2238.52 189.627 Q2238.96 189.627 2239.49 189.696 Q2240.02 189.743 2240.67 189.858 L2240.7 194.233 Z" fill="#000000" fill-rule="nonzero" fill-opacity="1" /><path clip-path="url(#clip420)" d="M2249.38 182.891 L2249.38 190.252 L2258.15 190.252 L2258.15 193.562 L2249.38 193.562 L2249.38 207.636 Q2249.38 210.807 2250.23 211.71 Q2251.11 212.613 2253.77 212.613 L2258.15 212.613 L2258.15 216.178 L2253.77 216.178 Q2248.84 216.178 2246.97 214.349 Q2245.09 212.497 2245.09 207.636 L2245.09 193.562 L2241.97 193.562 L2241.97 190.252 L2245.09 190.252 L2245.09 182.891 L2249.38 182.891 Z" fill="#000000" fill-rule="nonzero" fill-opacity="1" /></svg>
