<?xml version="1.0" encoding="utf-8"?>
<svg xmlns="http://www.w3.org/2000/svg" xmlns:xlink="http://www.w3.org/1999/xlink" width="600" height="400" viewBox="0 0 2400 1600">
<defs>
  <clipPath id="clip400">
    <rect x="0" y="0" width="2400" height="1600"/>
  </clipPath>
</defs>
<path clip-path="url(#clip400)" d="M0 1600 L2400 1600 L2400 0 L0 0  Z" fill="#ffffff" fill-rule="evenodd" fill-opacity="1"/>
<defs>
  <clipPath id="clip401">
    <rect x="480" y="0" width="1681" height="1600"/>
  </clipPath>
</defs>
<path clip-path="url(#clip400)" d="M194.422 1486.45 L2352.76 1486.45 L2352.76 47.2441 L194.422 47.2441  Z" fill="#ffffff" fill-rule="evenodd" fill-opacity="1"/>
<defs>
  <clipPath id="clip402">
    <rect x="194" y="47" width="2159" height="1440"/>
  </clipPath>
</defs>
<polyline clip-path="url(#clip402)" style="stroke:#000000; stroke-linecap:round; stroke-linejoin:round; stroke-width:2; stroke-opacity:0.1; fill:none" points="194.422,1486.45 194.422,47.2441 "/>
<polyline clip-path="url(#clip402)" style="stroke:#000000; stroke-linecap:round; stroke-linejoin:round; stroke-width:2; stroke-opacity:0.1; fill:none" points="734.006,1486.45 734.006,47.2441 "/>
<polyline clip-path="url(#clip402)" style="stroke:#000000; stroke-linecap:round; stroke-linejoin:round; stroke-width:2; stroke-opacity:0.1; fill:none" points="1273.59,1486.45 1273.59,47.2441 "/>
<polyline clip-path="url(#clip402)" style="stroke:#000000; stroke-linecap:round; stroke-linejoin:round; stroke-width:2; stroke-opacity:0.1; fill:none" points="1813.17,1486.45 1813.17,47.2441 "/>
<polyline clip-path="url(#clip402)" style="stroke:#000000; stroke-linecap:round; stroke-linejoin:round; stroke-width:2; stroke-opacity:0.1; fill:none" points="2352.76,1486.45 2352.76,47.2441 "/>
<polyline clip-path="url(#clip402)" style="stroke:#000000; stroke-linecap:round; stroke-linejoin:round; stroke-width:2; stroke-opacity:0.1; fill:none" points="194.422,1423.49 2352.76,1423.49 "/>
<polyline clip-path="url(#clip402)" style="stroke:#000000; stroke-linecap:round; stroke-linejoin:round; stroke-width:2; stroke-opacity:0.1; fill:none" points="194.422,1136.07 2352.76,1136.07 "/>
<polyline clip-path="url(#clip402)" style="stroke:#000000; stroke-linecap:round; stroke-linejoin:round; stroke-width:2; stroke-opacity:0.1; fill:none" points="194.422,848.653 2352.76,848.653 "/>
<polyline clip-path="url(#clip402)" style="stroke:#000000; stroke-linecap:round; stroke-linejoin:round; stroke-width:2; stroke-opacity:0.1; fill:none" points="194.422,561.232 2352.76,561.232 "/>
<polyline clip-path="url(#clip402)" style="stroke:#000000; stroke-linecap:round; stroke-linejoin:round; stroke-width:2; stroke-opacity:0.1; fill:none" points="194.422,273.812 2352.76,273.812 "/>
<polyline clip-path="url(#clip400)" style="stroke:#000000; stroke-linecap:round; stroke-linejoin:round; stroke-width:4; stroke-opacity:1; fill:none" points="194.422,1486.45 2352.76,1486.45 "/>
<polyline clip-path="url(#clip400)" style="stroke:#000000; stroke-linecap:round; stroke-linejoin:round; stroke-width:4; stroke-opacity:1; fill:none" points="194.422,1486.45 194.422,1467.55 "/>
<polyline clip-path="url(#clip400)" style="stroke:#000000; stroke-linecap:round; stroke-linejoin:round; stroke-width:4; stroke-opacity:1; fill:none" points="734.006,1486.45 734.006,1467.55 "/>
<polyline clip-path="url(#clip400)" style="stroke:#000000; stroke-linecap:round; stroke-linejoin:round; stroke-width:4; stroke-opacity:1; fill:none" points="1273.59,1486.45 1273.59,1467.55 "/>
<polyline clip-path="url(#clip400)" style="stroke:#000000; stroke-linecap:round; stroke-linejoin:round; stroke-width:4; stroke-opacity:1; fill:none" points="1813.17,1486.45 1813.17,1467.55 "/>
<polyline clip-path="url(#clip400)" style="stroke:#000000; stroke-linecap:round; stroke-linejoin:round; stroke-width:4; stroke-opacity:1; fill:none" points="2352.76,1486.45 2352.76,1467.55 "/>
<path clip-path="url(#clip400)" d="M148.485 1532.02 L178.161 1532.02 L178.161 1535.95 L148.485 1535.95 L148.485 1532.02 Z" fill="#000000" fill-rule="nonzero" fill-opacity="1" /><path clip-path="url(#clip400)" d="M189.063 1544.91 L196.702 1544.91 L196.702 1518.55 L188.392 1520.21 L188.392 1515.95 L196.656 1514.29 L201.332 1514.29 L201.332 1544.91 L208.971 1544.91 L208.971 1548.85 L189.063 1548.85 L189.063 1544.91 Z" fill="#000000" fill-rule="nonzero" fill-opacity="1" /><path clip-path="url(#clip400)" d="M228.415 1517.37 Q224.804 1517.37 222.975 1520.93 Q221.17 1524.47 221.17 1531.6 Q221.17 1538.71 222.975 1542.27 Q224.804 1545.82 228.415 1545.82 Q232.049 1545.82 233.855 1542.27 Q235.683 1538.71 235.683 1531.6 Q235.683 1524.47 233.855 1520.93 Q232.049 1517.37 228.415 1517.37 M228.415 1513.66 Q234.225 1513.66 237.281 1518.27 Q240.359 1522.85 240.359 1531.6 Q240.359 1540.33 237.281 1544.94 Q234.225 1549.52 228.415 1549.52 Q222.605 1549.52 219.526 1544.94 Q216.471 1540.33 216.471 1531.6 Q216.471 1522.85 219.526 1518.27 Q222.605 1513.66 228.415 1513.66 Z" fill="#000000" fill-rule="nonzero" fill-opacity="1" /><path clip-path="url(#clip400)" d="M703.647 1532.02 L733.323 1532.02 L733.323 1535.95 L703.647 1535.95 L703.647 1532.02 Z" fill="#000000" fill-rule="nonzero" fill-opacity="1" /><path clip-path="url(#clip400)" d="M743.462 1514.29 L761.818 1514.29 L761.818 1518.22 L747.744 1518.22 L747.744 1526.7 Q748.762 1526.35 749.781 1526.19 Q750.799 1526 751.818 1526 Q757.605 1526 760.985 1529.17 Q764.364 1532.34 764.364 1537.76 Q764.364 1543.34 760.892 1546.44 Q757.42 1549.52 751.1 1549.52 Q748.924 1549.52 746.656 1549.15 Q744.411 1548.78 742.003 1548.04 L742.003 1543.34 Q744.087 1544.47 746.309 1545.03 Q748.531 1545.58 751.008 1545.58 Q755.012 1545.58 757.35 1543.48 Q759.688 1541.37 759.688 1537.76 Q759.688 1534.15 757.35 1532.04 Q755.012 1529.94 751.008 1529.94 Q749.133 1529.94 747.258 1530.35 Q745.406 1530.77 743.462 1531.65 L743.462 1514.29 Z" fill="#000000" fill-rule="nonzero" fill-opacity="1" /><path clip-path="url(#clip400)" d="M1273.59 1517.37 Q1269.98 1517.37 1268.15 1520.93 Q1266.34 1524.47 1266.34 1531.6 Q1266.34 1538.71 1268.15 1542.27 Q1269.98 1545.82 1273.59 1545.82 Q1277.22 1545.82 1279.03 1542.27 Q1280.86 1538.71 1280.86 1531.6 Q1280.86 1524.47 1279.03 1520.93 Q1277.22 1517.37 1273.59 1517.37 M1273.59 1513.66 Q1279.4 1513.66 1282.45 1518.27 Q1285.53 1522.85 1285.53 1531.6 Q1285.53 1540.33 1282.45 1544.94 Q1279.4 1549.52 1273.59 1549.52 Q1267.78 1549.52 1264.7 1544.94 Q1261.64 1540.33 1261.64 1531.6 Q1261.64 1522.85 1264.7 1518.27 Q1267.78 1513.66 1273.59 1513.66 Z" fill="#000000" fill-rule="nonzero" fill-opacity="1" /><path clip-path="url(#clip400)" d="M1803.45 1514.29 L1821.81 1514.29 L1821.81 1518.22 L1807.73 1518.22 L1807.73 1526.7 Q1808.75 1526.35 1809.77 1526.19 Q1810.79 1526 1811.81 1526 Q1817.59 1526 1820.97 1529.17 Q1824.35 1532.34 1824.35 1537.76 Q1824.35 1543.34 1820.88 1546.44 Q1817.41 1549.52 1811.09 1549.52 Q1808.91 1549.52 1806.64 1549.15 Q1804.4 1548.78 1801.99 1548.04 L1801.99 1543.34 Q1804.08 1544.47 1806.3 1545.03 Q1808.52 1545.58 1811 1545.58 Q1815 1545.58 1817.34 1543.48 Q1819.68 1541.37 1819.68 1537.76 Q1819.68 1534.15 1817.34 1532.04 Q1815 1529.94 1811 1529.94 Q1809.12 1529.94 1807.25 1530.35 Q1805.39 1530.77 1803.45 1531.65 L1803.45 1514.29 Z" fill="#000000" fill-rule="nonzero" fill-opacity="1" /><path clip-path="url(#clip400)" d="M2327.44 1544.91 L2335.08 1544.91 L2335.08 1518.55 L2326.77 1520.21 L2326.77 1515.95 L2335.04 1514.29 L2339.71 1514.29 L2339.71 1544.91 L2347.35 1544.91 L2347.35 1548.85 L2327.44 1548.85 L2327.44 1544.91 Z" fill="#000000" fill-rule="nonzero" fill-opacity="1" /><path clip-path="url(#clip400)" d="M2366.8 1517.37 Q2363.18 1517.37 2361.36 1520.93 Q2359.55 1524.47 2359.55 1531.6 Q2359.55 1538.71 2361.36 1542.27 Q2363.18 1545.82 2366.8 1545.82 Q2370.43 1545.82 2372.23 1542.27 Q2374.06 1538.71 2374.06 1531.6 Q2374.06 1524.47 2372.23 1520.93 Q2370.43 1517.37 2366.8 1517.37 M2366.8 1513.66 Q2372.61 1513.66 2375.66 1518.27 Q2378.74 1522.85 2378.74 1531.6 Q2378.74 1540.33 2375.66 1544.94 Q2372.61 1549.52 2366.8 1549.52 Q2360.99 1549.52 2357.91 1544.94 Q2354.85 1540.33 2354.85 1531.6 Q2354.85 1522.85 2357.91 1518.27 Q2360.99 1513.66 2366.8 1513.66 Z" fill="#000000" fill-rule="nonzero" fill-opacity="1" /><polyline clip-path="url(#clip400)" style="stroke:#000000; stroke-linecap:round; stroke-linejoin:round; stroke-width:4; stroke-opacity:1; fill:none" points="194.422,1486.45 194.422,47.2441 "/>
<polyline clip-path="url(#clip400)" style="stroke:#000000; stroke-linecap:round; stroke-linejoin:round; stroke-width:4; stroke-opacity:1; fill:none" points="194.422,1423.49 213.32,1423.49 "/>
<polyline clip-path="url(#clip400)" style="stroke:#000000; stroke-linecap:round; stroke-linejoin:round; stroke-width:4; stroke-opacity:1; fill:none" points="194.422,1136.07 213.32,1136.07 "/>
<polyline clip-path="url(#clip400)" style="stroke:#000000; stroke-linecap:round; stroke-linejoin:round; stroke-width:4; stroke-opacity:1; fill:none" points="194.422,848.653 213.32,848.653 "/>
<polyline clip-path="url(#clip400)" style="stroke:#000000; stroke-linecap:round; stroke-linejoin:round; stroke-width:4; stroke-opacity:1; fill:none" points="194.422,561.232 213.32,561.232 "/>
<polyline clip-path="url(#clip400)" style="stroke:#000000; stroke-linecap:round; stroke-linejoin:round; stroke-width:4; stroke-opacity:1; fill:none" points="194.422,273.812 213.32,273.812 "/>
<path clip-path="url(#clip400)" d="M51.3162 1423.95 L80.992 1423.95 L80.992 1427.88 L51.3162 1427.88 L51.3162 1423.95 Z" fill="#000000" fill-rule="nonzero" fill-opacity="1" /><path clip-path="url(#clip400)" d="M101.084 1409.29 Q97.4734 1409.29 95.6447 1412.86 Q93.8391 1416.4 93.8391 1423.53 Q93.8391 1430.64 95.6447 1434.2 Q97.4734 1437.74 101.084 1437.74 Q104.719 1437.74 106.524 1434.2 Q108.353 1430.64 108.353 1423.53 Q108.353 1416.4 106.524 1412.86 Q104.719 1409.29 101.084 1409.29 M101.084 1405.59 Q106.895 1405.59 109.95 1410.2 Q113.029 1414.78 113.029 1423.53 Q113.029 1432.26 109.95 1436.86 Q106.895 1441.45 101.084 1441.45 Q95.2743 1441.45 92.1956 1436.86 Q89.1401 1432.26 89.1401 1423.53 Q89.1401 1414.78 92.1956 1410.2 Q95.2743 1405.59 101.084 1405.59 Z" fill="#000000" fill-rule="nonzero" fill-opacity="1" /><path clip-path="url(#clip400)" d="M121.246 1434.89 L126.131 1434.89 L126.131 1440.77 L121.246 1440.77 L121.246 1434.89 Z" fill="#000000" fill-rule="nonzero" fill-opacity="1" /><path clip-path="url(#clip400)" d="M146.894 1421.63 Q143.746 1421.63 141.894 1423.78 Q140.066 1425.94 140.066 1429.69 Q140.066 1433.41 141.894 1435.59 Q143.746 1437.74 146.894 1437.74 Q150.043 1437.74 151.871 1435.59 Q153.723 1433.41 153.723 1429.69 Q153.723 1425.94 151.871 1423.78 Q150.043 1421.63 146.894 1421.63 M156.177 1406.98 L156.177 1411.24 Q154.417 1410.4 152.612 1409.96 Q150.83 1409.52 149.07 1409.52 Q144.441 1409.52 141.987 1412.65 Q139.556 1415.77 139.209 1422.09 Q140.575 1420.08 142.635 1419.01 Q144.695 1417.93 147.172 1417.93 Q152.38 1417.93 155.39 1421.1 Q158.422 1424.25 158.422 1429.69 Q158.422 1435.01 155.274 1438.23 Q152.126 1441.45 146.894 1441.45 Q140.899 1441.45 137.728 1436.86 Q134.556 1432.26 134.556 1423.53 Q134.556 1415.33 138.445 1410.47 Q142.334 1405.59 148.885 1405.59 Q150.644 1405.59 152.427 1405.94 Q154.232 1406.28 156.177 1406.98 Z" fill="#000000" fill-rule="nonzero" fill-opacity="1" /><path clip-path="url(#clip400)" d="M50.9921 1136.52 L80.6679 1136.52 L80.6679 1140.46 L50.9921 1140.46 L50.9921 1136.52 Z" fill="#000000" fill-rule="nonzero" fill-opacity="1" /><path clip-path="url(#clip400)" d="M100.76 1121.87 Q97.1493 1121.87 95.3206 1125.44 Q93.515 1128.98 93.515 1136.11 Q93.515 1143.21 95.3206 1146.78 Q97.1493 1150.32 100.76 1150.32 Q104.395 1150.32 106.2 1146.78 Q108.029 1143.21 108.029 1136.11 Q108.029 1128.98 106.2 1125.44 Q104.395 1121.87 100.76 1121.87 M100.76 1118.17 Q106.571 1118.17 109.626 1122.77 Q112.705 1127.36 112.705 1136.11 Q112.705 1144.83 109.626 1149.44 Q106.571 1154.02 100.76 1154.02 Q94.9502 1154.02 91.8715 1149.44 Q88.816 1144.83 88.816 1136.11 Q88.816 1127.36 91.8715 1122.77 Q94.9502 1118.17 100.76 1118.17 Z" fill="#000000" fill-rule="nonzero" fill-opacity="1" /><path clip-path="url(#clip400)" d="M120.922 1147.47 L125.807 1147.47 L125.807 1153.35 L120.922 1153.35 L120.922 1147.47 Z" fill="#000000" fill-rule="nonzero" fill-opacity="1" /><path clip-path="url(#clip400)" d="M148.839 1122.87 L137.033 1141.32 L148.839 1141.32 L148.839 1122.87 M147.612 1118.79 L153.492 1118.79 L153.492 1141.32 L158.422 1141.32 L158.422 1145.21 L153.492 1145.21 L153.492 1153.35 L148.839 1153.35 L148.839 1145.21 L133.237 1145.21 L133.237 1140.69 L147.612 1118.79 Z" fill="#000000" fill-rule="nonzero" fill-opacity="1" /><path clip-path="url(#clip400)" d="M53.0754 849.104 L82.7512 849.104 L82.7512 853.039 L53.0754 853.039 L53.0754 849.104 Z" fill="#000000" fill-rule="nonzero" fill-opacity="1" /><path clip-path="url(#clip400)" d="M102.844 834.452 Q99.2326 834.452 97.4039 838.016 Q95.5984 841.558 95.5984 848.688 Q95.5984 855.794 97.4039 859.359 Q99.2326 862.9 102.844 862.9 Q106.478 862.9 108.283 859.359 Q110.112 855.794 110.112 848.688 Q110.112 841.558 108.283 838.016 Q106.478 834.452 102.844 834.452 M102.844 830.748 Q108.654 830.748 111.709 835.354 Q114.788 839.938 114.788 848.688 Q114.788 857.414 111.709 862.021 Q108.654 866.604 102.844 866.604 Q97.0335 866.604 93.9549 862.021 Q90.8993 857.414 90.8993 848.688 Q90.8993 839.938 93.9549 835.354 Q97.0335 830.748 102.844 830.748 Z" fill="#000000" fill-rule="nonzero" fill-opacity="1" /><path clip-path="url(#clip400)" d="M123.006 860.053 L127.89 860.053 L127.89 865.933 L123.006 865.933 L123.006 860.053 Z" fill="#000000" fill-rule="nonzero" fill-opacity="1" /><path clip-path="url(#clip400)" d="M142.103 861.998 L158.422 861.998 L158.422 865.933 L136.478 865.933 L136.478 861.998 Q139.14 859.243 143.723 854.613 Q148.33 849.961 149.51 848.618 Q151.755 846.095 152.635 844.359 Q153.538 842.6 153.538 840.91 Q153.538 838.155 151.593 836.419 Q149.672 834.683 146.57 834.683 Q144.371 834.683 141.918 835.447 Q139.487 836.211 136.709 837.762 L136.709 833.04 Q139.533 831.905 141.987 831.327 Q144.441 830.748 146.478 830.748 Q151.848 830.748 155.042 833.433 Q158.237 836.118 158.237 840.609 Q158.237 842.739 157.427 844.66 Q156.64 846.558 154.533 849.151 Q153.955 849.822 150.853 853.039 Q147.751 856.234 142.103 861.998 Z" fill="#000000" fill-rule="nonzero" fill-opacity="1" /><path clip-path="url(#clip400)" d="M101.246 547.031 Q97.6354 547.031 95.8067 550.596 Q94.0012 554.137 94.0012 561.267 Q94.0012 568.373 95.8067 571.938 Q97.6354 575.48 101.246 575.48 Q104.881 575.48 106.686 571.938 Q108.515 568.373 108.515 561.267 Q108.515 554.137 106.686 550.596 Q104.881 547.031 101.246 547.031 M101.246 543.327 Q107.057 543.327 110.112 547.934 Q113.191 552.517 113.191 561.267 Q113.191 569.994 110.112 574.6 Q107.057 579.184 101.246 579.184 Q95.4363 579.184 92.3576 574.6 Q89.3021 569.994 89.3021 561.267 Q89.3021 552.517 92.3576 547.934 Q95.4363 543.327 101.246 543.327 Z" fill="#000000" fill-rule="nonzero" fill-opacity="1" /><path clip-path="url(#clip400)" d="M121.408 572.633 L126.293 572.633 L126.293 578.512 L121.408 578.512 L121.408 572.633 Z" fill="#000000" fill-rule="nonzero" fill-opacity="1" /><path clip-path="url(#clip400)" d="M146.478 547.031 Q142.867 547.031 141.038 550.596 Q139.232 554.137 139.232 561.267 Q139.232 568.373 141.038 571.938 Q142.867 575.48 146.478 575.48 Q150.112 575.48 151.918 571.938 Q153.746 568.373 153.746 561.267 Q153.746 554.137 151.918 550.596 Q150.112 547.031 146.478 547.031 M146.478 543.327 Q152.288 543.327 155.343 547.934 Q158.422 552.517 158.422 561.267 Q158.422 569.994 155.343 574.6 Q152.288 579.184 146.478 579.184 Q140.668 579.184 137.589 574.6 Q134.533 569.994 134.533 561.267 Q134.533 552.517 137.589 547.934 Q140.668 543.327 146.478 543.327 Z" fill="#000000" fill-rule="nonzero" fill-opacity="1" /><path clip-path="url(#clip400)" d="M102.844 259.61 Q99.2326 259.61 97.4039 263.175 Q95.5984 266.717 95.5984 273.846 Q95.5984 280.953 97.4039 284.518 Q99.2326 288.059 102.844 288.059 Q106.478 288.059 108.283 284.518 Q110.112 280.953 110.112 273.846 Q110.112 266.717 108.283 263.175 Q106.478 259.61 102.844 259.61 M102.844 255.907 Q108.654 255.907 111.709 260.513 Q114.788 265.096 114.788 273.846 Q114.788 282.573 111.709 287.18 Q108.654 291.763 102.844 291.763 Q97.0335 291.763 93.9549 287.18 Q90.8993 282.573 90.8993 273.846 Q90.8993 265.096 93.9549 260.513 Q97.0335 255.907 102.844 255.907 Z" fill="#000000" fill-rule="nonzero" fill-opacity="1" /><path clip-path="url(#clip400)" d="M123.006 285.212 L127.89 285.212 L127.89 291.092 L123.006 291.092 L123.006 285.212 Z" fill="#000000" fill-rule="nonzero" fill-opacity="1" /><path clip-path="url(#clip400)" d="M142.103 287.157 L158.422 287.157 L158.422 291.092 L136.478 291.092 L136.478 287.157 Q139.14 284.402 143.723 279.772 Q148.33 275.12 149.51 273.777 Q151.755 271.254 152.635 269.518 Q153.538 267.758 153.538 266.069 Q153.538 263.314 151.593 261.578 Q149.672 259.842 146.57 259.842 Q144.371 259.842 141.918 260.606 Q139.487 261.37 136.709 262.921 L136.709 258.198 Q139.533 257.064 141.987 256.485 Q144.441 255.907 146.478 255.907 Q151.848 255.907 155.042 258.592 Q158.237 261.277 158.237 265.768 Q158.237 267.897 157.427 269.819 Q156.64 271.717 154.533 274.309 Q153.955 274.981 150.853 278.198 Q147.751 281.393 142.103 287.157 Z" fill="#000000" fill-rule="nonzero" fill-opacity="1" /><polyline clip-path="url(#clip402)" style="stroke:#009af9; stroke-linecap:round; stroke-linejoin:round; stroke-width:4; stroke-opacity:1; fill:none" points="1273.59,1276.57 1381.51,178.478 1489.42,638.242 1597.34,553.54 1705.26,561.684 1813.17,561.215 1921.09,561.233 2029.01,561.232 2136.92,561.232 2244.84,561.232 2352.76,561.232 2460.67,561.232 2568.59,561.232 2676.51,561.232 2784.42,561.232 2892.34,561.232 3000.26,561.232 3108.17,561.232 3216.09,561.232 3324.01,561.232 3431.92,561.232 3539.84,561.232 3647.76,561.232 3755.67,561.232 3863.59,561.232 3971.51,561.232 4079.42,561.232 4187.34,561.232 4295.26,561.232 4403.17,561.232 4511.09,561.232 4619.01,561.232 -2071.83,561.232 -1963.91,561.232 -1856,561.232 -1748.08,561.232 -1640.16,561.232 -1532.24,561.232 -1424.33,561.232 -1316.41,561.232 -1208.49,561.232 -1100.58,561.232 -992.661,561.232 -884.745,561.232 -776.828,561.232 -668.911,561.232 -560.995,561.232 -453.078,561.232 -345.161,561.232 -237.245,561.232 -129.328,561.232 -21.4113,561.232 86.5054,561.232 194.422,561.232 302.339,561.232 410.255,561.232 518.172,561.232 626.089,561.233 734.006,561.215 841.922,561.684 949.839,553.54 1057.76,638.242 1165.67,178.478 "/>
<polyline clip-path="url(#clip402)" style="stroke:#e26f46; stroke-linecap:round; stroke-linejoin:round; stroke-width:4; stroke-opacity:1; fill:none" points="1273.59,1445.72 1381.51,87.9763 1489.42,656.45 1597.34,551.721 1705.26,561.791 1813.17,561.211 1921.09,561.233 2029.01,561.232 2136.92,561.232 2244.84,561.232 2352.76,561.232 2460.67,561.232 2568.59,561.232 2676.51,561.232 2784.42,561.232 2892.34,561.232 3000.26,561.232 3108.17,561.232 3216.09,561.232 3324.01,561.232 3431.92,561.232 3539.84,561.232 3647.76,561.232 3755.67,561.232 3863.59,561.232 3971.51,561.232 4079.42,561.232 4187.34,561.232 4295.26,561.232 4403.17,561.232 4511.09,561.232 4619.01,561.232 -2071.83,561.232 -1963.91,561.232 -1856,561.232 -1748.08,561.232 -1640.16,561.232 -1532.24,561.232 -1424.33,561.232 -1316.41,561.232 -1208.49,561.232 -1100.58,561.232 -992.661,561.232 -884.745,561.232 -776.828,561.232 -668.911,561.232 -560.995,561.232 -453.078,561.232 -345.161,561.232 -237.245,561.232 -129.328,561.232 -21.4113,561.232 86.5054,561.232 194.422,561.232 302.339,561.232 410.255,561.232 518.172,561.232 626.089,561.233 734.006,561.211 841.922,561.791 949.839,551.721 1057.76,656.45 1165.67,87.9763 "/>
<path clip-path="url(#clip400)" d="M1719.98 250.738 L2280.81 250.738 L2280.81 95.2176 L1719.98 95.2176  Z" fill="#ffffff" fill-rule="evenodd" fill-opacity="1"/>
<polyline clip-path="url(#clip400)" style="stroke:#000000; stroke-linecap:round; stroke-linejoin:round; stroke-width:4; stroke-opacity:1; fill:none" points="1719.98,250.738 2280.81,250.738 2280.81,95.2176 1719.98,95.2176 1719.98,250.738 "/>
<polyline clip-path="url(#clip400)" style="stroke:#009af9; stroke-linecap:round; stroke-linejoin:round; stroke-width:4; stroke-opacity:1; fill:none" points="1743.96,147.058 1887.85,147.058 "/>
<path clip-path="url(#clip400)" d="M1927.02 142.393 Q1926.3 141.977 1925.44 141.791 Q1924.61 141.583 1923.59 141.583 Q1919.98 141.583 1918.04 143.944 Q1916.11 146.282 1916.11 150.68 L1916.11 164.338 L1911.83 164.338 L1911.83 138.412 L1916.11 138.412 L1916.11 142.44 Q1917.46 140.078 1919.61 138.944 Q1921.76 137.787 1924.84 137.787 Q1925.28 137.787 1925.81 137.856 Q1926.35 137.903 1926.99 138.018 L1927.02 142.393 Z" fill="#000000" fill-rule="nonzero" fill-opacity="1" /><path clip-path="url(#clip400)" d="M1952.62 150.31 L1952.62 152.393 L1933.04 152.393 Q1933.31 156.791 1935.67 159.106 Q1938.06 161.398 1942.29 161.398 Q1944.75 161.398 1947.04 160.796 Q1949.35 160.194 1951.62 158.99 L1951.62 163.018 Q1949.33 163.99 1946.92 164.5 Q1944.52 165.009 1942.04 165.009 Q1935.84 165.009 1932.2 161.398 Q1928.59 157.787 1928.59 151.629 Q1928.59 145.264 1932.02 141.537 Q1935.47 137.787 1941.3 137.787 Q1946.53 137.787 1949.56 141.166 Q1952.62 144.523 1952.62 150.31 M1948.36 149.06 Q1948.31 145.565 1946.39 143.481 Q1944.49 141.398 1941.35 141.398 Q1937.78 141.398 1935.63 143.412 Q1933.5 145.426 1933.17 149.083 L1948.36 149.06 Z" fill="#000000" fill-rule="nonzero" fill-opacity="1" /><path clip-path="url(#clip400)" d="M1971.39 151.305 Q1966.23 151.305 1964.24 152.486 Q1962.25 153.666 1962.25 156.514 Q1962.25 158.782 1963.73 160.125 Q1965.23 161.444 1967.8 161.444 Q1971.35 161.444 1973.47 158.944 Q1975.63 156.421 1975.63 152.254 L1975.63 151.305 L1971.39 151.305 M1979.89 149.546 L1979.89 164.338 L1975.63 164.338 L1975.63 160.402 Q1974.17 162.763 1971.99 163.898 Q1969.82 165.009 1966.67 165.009 Q1962.69 165.009 1960.33 162.787 Q1957.99 160.541 1957.99 156.791 Q1957.99 152.416 1960.91 150.194 Q1963.85 147.972 1969.66 147.972 L1975.63 147.972 L1975.63 147.555 Q1975.63 144.615 1973.68 143.018 Q1971.76 141.398 1968.27 141.398 Q1966.04 141.398 1963.94 141.93 Q1961.83 142.463 1959.89 143.527 L1959.89 139.592 Q1962.23 138.69 1964.42 138.25 Q1966.62 137.787 1968.71 137.787 Q1974.33 137.787 1977.11 140.703 Q1979.89 143.62 1979.89 149.546 Z" fill="#000000" fill-rule="nonzero" fill-opacity="1" /><path clip-path="url(#clip400)" d="M1988.66 128.319 L1992.92 128.319 L1992.92 164.338 L1988.66 164.338 L1988.66 128.319 Z" fill="#000000" fill-rule="nonzero" fill-opacity="1" /><path clip-path="url(#clip400)" d="M2021.02 160.449 L2021.02 174.199 L2016.74 174.199 L2016.74 138.412 L2021.02 138.412 L2021.02 142.347 Q2022.36 140.032 2024.4 138.921 Q2026.46 137.787 2029.31 137.787 Q2034.03 137.787 2036.97 141.537 Q2039.93 145.287 2039.93 151.398 Q2039.93 157.509 2036.97 161.259 Q2034.03 165.009 2029.31 165.009 Q2026.46 165.009 2024.4 163.898 Q2022.36 162.763 2021.02 160.449 M2035.51 151.398 Q2035.51 146.699 2033.57 144.037 Q2031.65 141.352 2028.27 141.352 Q2024.89 141.352 2022.94 144.037 Q2021.02 146.699 2021.02 151.398 Q2021.02 156.097 2022.94 158.782 Q2024.89 161.444 2028.27 161.444 Q2031.65 161.444 2033.57 158.782 Q2035.51 156.097 2035.51 151.398 Z" fill="#000000" fill-rule="nonzero" fill-opacity="1" /><path clip-path="url(#clip400)" d="M2058.78 151.305 Q2053.61 151.305 2051.62 152.486 Q2049.63 153.666 2049.63 156.514 Q2049.63 158.782 2051.11 160.125 Q2052.62 161.444 2055.19 161.444 Q2058.73 161.444 2060.86 158.944 Q2063.01 156.421 2063.01 152.254 L2063.01 151.305 L2058.78 151.305 M2067.27 149.546 L2067.27 164.338 L2063.01 164.338 L2063.01 160.402 Q2061.55 162.763 2059.38 163.898 Q2057.2 165.009 2054.05 165.009 Q2050.07 165.009 2047.71 162.787 Q2045.37 160.541 2045.37 156.791 Q2045.37 152.416 2048.29 150.194 Q2051.23 147.972 2057.04 147.972 L2063.01 147.972 L2063.01 147.555 Q2063.01 144.615 2061.07 143.018 Q2059.15 141.398 2055.65 141.398 Q2053.43 141.398 2051.32 141.93 Q2049.22 142.463 2047.27 143.527 L2047.27 139.592 Q2049.61 138.69 2051.81 138.25 Q2054.01 137.787 2056.09 137.787 Q2061.72 137.787 2064.49 140.703 Q2067.27 143.62 2067.27 149.546 Z" fill="#000000" fill-rule="nonzero" fill-opacity="1" /><path clip-path="url(#clip400)" d="M2091.07 142.393 Q2090.35 141.977 2089.49 141.791 Q2088.66 141.583 2087.64 141.583 Q2084.03 141.583 2082.09 143.944 Q2080.16 146.282 2080.16 150.68 L2080.16 164.338 L2075.88 164.338 L2075.88 138.412 L2080.16 138.412 L2080.16 142.44 Q2081.51 140.078 2083.66 138.944 Q2085.81 137.787 2088.89 137.787 Q2089.33 137.787 2089.86 137.856 Q2090.4 137.903 2091.04 138.018 L2091.07 142.393 Z" fill="#000000" fill-rule="nonzero" fill-opacity="1" /><path clip-path="url(#clip400)" d="M2099.75 131.051 L2099.75 138.412 L2108.52 138.412 L2108.52 141.722 L2099.75 141.722 L2099.75 155.796 Q2099.75 158.967 2100.6 159.87 Q2101.48 160.773 2104.15 160.773 L2108.52 160.773 L2108.52 164.338 L2104.15 164.338 Q2099.22 164.338 2097.34 162.509 Q2095.47 160.657 2095.47 155.796 L2095.47 141.722 L2092.34 141.722 L2092.34 138.412 L2095.47 138.412 L2095.47 131.051 L2099.75 131.051 Z" fill="#000000" fill-rule="nonzero" fill-opacity="1" /><polyline clip-path="url(#clip400)" style="stroke:#e26f46; stroke-linecap:round; stroke-linejoin:round; stroke-width:4; stroke-opacity:1; fill:none" points="1743.96,198.898 1887.85,198.898 "/>
<path clip-path="url(#clip400)" d="M1911.83 190.252 L1916.09 190.252 L1916.09 216.178 L1911.83 216.178 L1911.83 190.252 M1911.83 180.159 L1916.09 180.159 L1916.09 185.553 L1911.83 185.553 L1911.83 180.159 Z" fill="#000000" fill-rule="nonzero" fill-opacity="1" /><path clip-path="url(#clip400)" d="M1945.19 195.229 Q1946.79 192.358 1949.01 190.993 Q1951.23 189.627 1954.24 189.627 Q1958.29 189.627 1960.49 192.474 Q1962.69 195.298 1962.69 200.529 L1962.69 216.178 L1958.41 216.178 L1958.41 200.668 Q1958.41 196.942 1957.09 195.136 Q1955.77 193.33 1953.06 193.33 Q1949.75 193.33 1947.83 195.53 Q1945.91 197.729 1945.91 201.525 L1945.91 216.178 L1941.62 216.178 L1941.62 200.668 Q1941.62 196.918 1940.3 195.136 Q1938.98 193.33 1936.23 193.33 Q1932.97 193.33 1931.04 195.553 Q1929.12 197.752 1929.12 201.525 L1929.12 216.178 L1924.84 216.178 L1924.84 190.252 L1929.12 190.252 L1929.12 194.28 Q1930.58 191.895 1932.62 190.761 Q1934.66 189.627 1937.46 189.627 Q1940.28 189.627 1942.25 191.062 Q1944.24 192.497 1945.19 195.229 Z" fill="#000000" fill-rule="nonzero" fill-opacity="1" /><path clip-path="url(#clip400)" d="M1982.97 203.145 Q1977.8 203.145 1975.81 204.326 Q1973.82 205.506 1973.82 208.354 Q1973.82 210.622 1975.3 211.965 Q1976.81 213.284 1979.38 213.284 Q1982.92 213.284 1985.05 210.784 Q1987.2 208.261 1987.2 204.094 L1987.2 203.145 L1982.97 203.145 M1991.46 201.386 L1991.46 216.178 L1987.2 216.178 L1987.2 212.242 Q1985.74 214.603 1983.57 215.738 Q1981.39 216.849 1978.24 216.849 Q1974.26 216.849 1971.9 214.627 Q1969.56 212.381 1969.56 208.631 Q1969.56 204.256 1972.48 202.034 Q1975.42 199.812 1981.23 199.812 L1987.2 199.812 L1987.2 199.395 Q1987.2 196.455 1985.26 194.858 Q1983.34 193.238 1979.84 193.238 Q1977.62 193.238 1975.51 193.77 Q1973.41 194.303 1971.46 195.367 L1971.46 191.432 Q1973.8 190.53 1976 190.09 Q1978.2 189.627 1980.28 189.627 Q1985.91 189.627 1988.68 192.543 Q1991.46 195.46 1991.46 201.386 Z" fill="#000000" fill-rule="nonzero" fill-opacity="1" /><path clip-path="url(#clip400)" d="M2017.29 202.914 Q2017.29 198.284 2015.37 195.738 Q2013.47 193.192 2010.03 193.192 Q2006.6 193.192 2004.68 195.738 Q2002.78 198.284 2002.78 202.914 Q2002.78 207.52 2004.68 210.066 Q2006.6 212.613 2010.03 212.613 Q2013.47 212.613 2015.37 210.066 Q2017.29 207.52 2017.29 202.914 M2021.55 212.96 Q2021.55 219.58 2018.61 222.798 Q2015.67 226.039 2009.61 226.039 Q2007.36 226.039 2005.37 225.691 Q2003.38 225.367 2001.51 224.673 L2001.51 220.529 Q2003.38 221.548 2005.21 222.034 Q2007.04 222.52 2008.94 222.52 Q2013.13 222.52 2015.21 220.321 Q2017.29 218.145 2017.29 213.724 L2017.29 211.617 Q2015.97 213.909 2013.91 215.043 Q2011.85 216.178 2008.98 216.178 Q2004.22 216.178 2001.3 212.543 Q1998.38 208.909 1998.38 202.914 Q1998.38 196.895 2001.3 193.261 Q2004.22 189.627 2008.98 189.627 Q2011.85 189.627 2013.91 190.761 Q2015.97 191.895 2017.29 194.187 L2017.29 190.252 L2021.55 190.252 L2021.55 212.96 Z" fill="#000000" fill-rule="nonzero" fill-opacity="1" /><path clip-path="url(#clip400)" d="M2030.33 190.252 L2034.59 190.252 L2034.59 216.178 L2030.33 216.178 L2030.33 190.252 M2030.33 180.159 L2034.59 180.159 L2034.59 185.553 L2030.33 185.553 L2030.33 180.159 Z" fill="#000000" fill-rule="nonzero" fill-opacity="1" /><path clip-path="url(#clip400)" d="M2065.05 200.529 L2065.05 216.178 L2060.79 216.178 L2060.79 200.668 Q2060.79 196.988 2059.35 195.159 Q2057.92 193.33 2055.05 193.33 Q2051.6 193.33 2049.61 195.53 Q2047.62 197.729 2047.62 201.525 L2047.62 216.178 L2043.34 216.178 L2043.34 190.252 L2047.62 190.252 L2047.62 194.28 Q2049.15 191.942 2051.21 190.784 Q2053.29 189.627 2056 189.627 Q2060.47 189.627 2062.76 192.405 Q2065.05 195.159 2065.05 200.529 Z" fill="#000000" fill-rule="nonzero" fill-opacity="1" /><path clip-path="url(#clip400)" d="M2085.33 203.145 Q2080.16 203.145 2078.17 204.326 Q2076.18 205.506 2076.18 208.354 Q2076.18 210.622 2077.66 211.965 Q2079.17 213.284 2081.74 213.284 Q2085.28 213.284 2087.41 210.784 Q2089.56 208.261 2089.56 204.094 L2089.56 203.145 L2085.33 203.145 M2093.82 201.386 L2093.82 216.178 L2089.56 216.178 L2089.56 212.242 Q2088.1 214.603 2085.93 215.738 Q2083.75 216.849 2080.6 216.849 Q2076.62 216.849 2074.26 214.627 Q2071.92 212.381 2071.92 208.631 Q2071.92 204.256 2074.84 202.034 Q2077.78 199.812 2083.59 199.812 L2089.56 199.812 L2089.56 199.395 Q2089.56 196.455 2087.62 194.858 Q2085.7 193.238 2082.2 193.238 Q2079.98 193.238 2077.87 193.77 Q2075.77 194.303 2073.82 195.367 L2073.82 191.432 Q2076.16 190.53 2078.36 190.09 Q2080.56 189.627 2082.64 189.627 Q2088.27 189.627 2091.04 192.543 Q2093.82 195.46 2093.82 201.386 Z" fill="#000000" fill-rule="nonzero" fill-opacity="1" /><path clip-path="url(#clip400)" d="M2117.62 194.233 Q2116.9 193.817 2116.04 193.631 Q2115.21 193.423 2114.19 193.423 Q2110.58 193.423 2108.64 195.784 Q2106.72 198.122 2106.72 202.52 L2106.72 216.178 L2102.43 216.178 L2102.43 190.252 L2106.72 190.252 L2106.72 194.28 Q2108.06 191.918 2110.21 190.784 Q2112.36 189.627 2115.44 189.627 Q2115.88 189.627 2116.41 189.696 Q2116.95 189.743 2117.59 189.858 L2117.62 194.233 Z" fill="#000000" fill-rule="nonzero" fill-opacity="1" /><path clip-path="url(#clip400)" d="M2132.87 218.585 Q2131.07 223.215 2129.35 224.627 Q2127.64 226.039 2124.77 226.039 L2121.37 226.039 L2121.37 222.474 L2123.87 222.474 Q2125.63 222.474 2126.6 221.64 Q2127.57 220.807 2128.75 217.705 L2129.52 215.761 L2119.03 190.252 L2123.54 190.252 L2131.65 210.529 L2139.75 190.252 L2144.26 190.252 L2132.87 218.585 Z" fill="#000000" fill-rule="nonzero" fill-opacity="1" /><path clip-path="url(#clip400)" d="M2169.33 212.289 L2169.33 226.039 L2165.05 226.039 L2165.05 190.252 L2169.33 190.252 L2169.33 194.187 Q2170.67 191.872 2172.71 190.761 Q2174.77 189.627 2177.62 189.627 Q2182.34 189.627 2185.28 193.377 Q2188.24 197.127 2188.24 203.238 Q2188.24 209.349 2185.28 213.099 Q2182.34 216.849 2177.62 216.849 Q2174.77 216.849 2172.71 215.738 Q2170.67 214.603 2169.33 212.289 M2183.82 203.238 Q2183.82 198.539 2181.88 195.877 Q2179.96 193.192 2176.58 193.192 Q2173.2 193.192 2171.25 195.877 Q2169.33 198.539 2169.33 203.238 Q2169.33 207.937 2171.25 210.622 Q2173.2 213.284 2176.58 213.284 Q2179.96 213.284 2181.88 210.622 Q2183.82 207.937 2183.82 203.238 Z" fill="#000000" fill-rule="nonzero" fill-opacity="1" /><path clip-path="url(#clip400)" d="M2207.08 203.145 Q2201.92 203.145 2199.93 204.326 Q2197.94 205.506 2197.94 208.354 Q2197.94 210.622 2199.42 211.965 Q2200.93 213.284 2203.5 213.284 Q2207.04 213.284 2209.17 210.784 Q2211.32 208.261 2211.32 204.094 L2211.32 203.145 L2207.08 203.145 M2215.58 201.386 L2215.58 216.178 L2211.32 216.178 L2211.32 212.242 Q2209.86 214.603 2207.69 215.738 Q2205.51 216.849 2202.36 216.849 Q2198.38 216.849 2196.02 214.627 Q2193.68 212.381 2193.68 208.631 Q2193.68 204.256 2196.6 202.034 Q2199.54 199.812 2205.35 199.812 L2211.32 199.812 L2211.32 199.395 Q2211.32 196.455 2209.38 194.858 Q2207.46 193.238 2203.96 193.238 Q2201.74 193.238 2199.63 193.77 Q2197.52 194.303 2195.58 195.367 L2195.58 191.432 Q2197.92 190.53 2200.12 190.09 Q2202.32 189.627 2204.4 189.627 Q2210.02 189.627 2212.8 192.543 Q2215.58 195.46 2215.58 201.386 Z" fill="#000000" fill-rule="nonzero" fill-opacity="1" /><path clip-path="url(#clip400)" d="M2239.38 194.233 Q2238.66 193.817 2237.8 193.631 Q2236.97 193.423 2235.95 193.423 Q2232.34 193.423 2230.39 195.784 Q2228.47 198.122 2228.47 202.52 L2228.47 216.178 L2224.19 216.178 L2224.19 190.252 L2228.47 190.252 L2228.47 194.28 Q2229.82 191.918 2231.97 190.784 Q2234.12 189.627 2237.2 189.627 Q2237.64 189.627 2238.17 189.696 Q2238.71 189.743 2239.35 189.858 L2239.38 194.233 Z" fill="#000000" fill-rule="nonzero" fill-opacity="1" /><path clip-path="url(#clip400)" d="M2248.06 182.891 L2248.06 190.252 L2256.83 190.252 L2256.83 193.562 L2248.06 193.562 L2248.06 207.636 Q2248.06 210.807 2248.91 211.71 Q2249.79 212.613 2252.45 212.613 L2256.83 212.613 L2256.83 216.178 L2252.45 216.178 Q2247.52 216.178 2245.65 214.349 Q2243.77 212.497 2243.77 207.636 L2243.77 193.562 L2240.65 193.562 L2240.65 190.252 L2243.77 190.252 L2243.77 182.891 L2248.06 182.891 Z" fill="#000000" fill-rule="nonzero" fill-opacity="1" /></svg>
