<?xml version="1.0" encoding="utf-8"?>
<svg xmlns="http://www.w3.org/2000/svg" xmlns:xlink="http://www.w3.org/1999/xlink" width="600" height="400" viewBox="0 0 2400 1600">
<defs>
  <clipPath id="clip520">
    <rect x="0" y="0" width="2400" height="1600"/>
  </clipPath>
</defs>
<path clip-path="url(#clip520)" d="M0 1600 L2400 1600 L2400 0 L0 0  Z" fill="#ffffff" fill-rule="evenodd" fill-opacity="1"/>
<defs>
  <clipPath id="clip521">
    <rect x="480" y="0" width="1681" height="1600"/>
  </clipPath>
</defs>
<path clip-path="url(#clip520)" d="M250.028 1423.18 L2352.76 1423.18 L2352.76 47.2441 L250.028 47.2441  Z" fill="#ffffff" fill-rule="evenodd" fill-opacity="1"/>
<defs>
  <clipPath id="clip522">
    <rect x="250" y="47" width="2104" height="1377"/>
  </clipPath>
</defs>
<polyline clip-path="url(#clip522)" style="stroke:#000000; stroke-linecap:round; stroke-linejoin:round; stroke-width:2; stroke-opacity:0.1; fill:none" points="309.539,1423.18 309.539,47.2441 "/>
<polyline clip-path="url(#clip522)" style="stroke:#000000; stroke-linecap:round; stroke-linejoin:round; stroke-width:2; stroke-opacity:0.1; fill:none" points="719.078,1423.18 719.078,47.2441 "/>
<polyline clip-path="url(#clip522)" style="stroke:#000000; stroke-linecap:round; stroke-linejoin:round; stroke-width:2; stroke-opacity:0.1; fill:none" points="1128.62,1423.18 1128.62,47.2441 "/>
<polyline clip-path="url(#clip522)" style="stroke:#000000; stroke-linecap:round; stroke-linejoin:round; stroke-width:2; stroke-opacity:0.1; fill:none" points="1538.16,1423.18 1538.16,47.2441 "/>
<polyline clip-path="url(#clip522)" style="stroke:#000000; stroke-linecap:round; stroke-linejoin:round; stroke-width:2; stroke-opacity:0.1; fill:none" points="1947.7,1423.18 1947.7,47.2441 "/>
<polyline clip-path="url(#clip522)" style="stroke:#000000; stroke-linecap:round; stroke-linejoin:round; stroke-width:2; stroke-opacity:0.1; fill:none" points="250.028,1385.86 2352.76,1385.86 "/>
<polyline clip-path="url(#clip522)" style="stroke:#000000; stroke-linecap:round; stroke-linejoin:round; stroke-width:2; stroke-opacity:0.1; fill:none" points="250.028,1177.24 2352.76,1177.24 "/>
<polyline clip-path="url(#clip522)" style="stroke:#000000; stroke-linecap:round; stroke-linejoin:round; stroke-width:2; stroke-opacity:0.1; fill:none" points="250.028,968.629 2352.76,968.629 "/>
<polyline clip-path="url(#clip522)" style="stroke:#000000; stroke-linecap:round; stroke-linejoin:round; stroke-width:2; stroke-opacity:0.1; fill:none" points="250.028,760.014 2352.76,760.014 "/>
<polyline clip-path="url(#clip522)" style="stroke:#000000; stroke-linecap:round; stroke-linejoin:round; stroke-width:2; stroke-opacity:0.1; fill:none" points="250.028,551.4 2352.76,551.4 "/>
<polyline clip-path="url(#clip522)" style="stroke:#000000; stroke-linecap:round; stroke-linejoin:round; stroke-width:2; stroke-opacity:0.1; fill:none" points="250.028,342.785 2352.76,342.785 "/>
<polyline clip-path="url(#clip522)" style="stroke:#000000; stroke-linecap:round; stroke-linejoin:round; stroke-width:2; stroke-opacity:0.1; fill:none" points="250.028,134.171 2352.76,134.171 "/>
<polyline clip-path="url(#clip520)" style="stroke:#000000; stroke-linecap:round; stroke-linejoin:round; stroke-width:4; stroke-opacity:1; fill:none" points="250.028,1423.18 2352.76,1423.18 "/>
<polyline clip-path="url(#clip520)" style="stroke:#000000; stroke-linecap:round; stroke-linejoin:round; stroke-width:4; stroke-opacity:1; fill:none" points="309.539,1423.18 309.539,1404.28 "/>
<polyline clip-path="url(#clip520)" style="stroke:#000000; stroke-linecap:round; stroke-linejoin:round; stroke-width:4; stroke-opacity:1; fill:none" points="719.078,1423.18 719.078,1404.28 "/>
<polyline clip-path="url(#clip520)" style="stroke:#000000; stroke-linecap:round; stroke-linejoin:round; stroke-width:4; stroke-opacity:1; fill:none" points="1128.62,1423.18 1128.62,1404.28 "/>
<polyline clip-path="url(#clip520)" style="stroke:#000000; stroke-linecap:round; stroke-linejoin:round; stroke-width:4; stroke-opacity:1; fill:none" points="1538.16,1423.18 1538.16,1404.28 "/>
<polyline clip-path="url(#clip520)" style="stroke:#000000; stroke-linecap:round; stroke-linejoin:round; stroke-width:4; stroke-opacity:1; fill:none" points="1947.7,1423.18 1947.7,1404.28 "/>
<path clip-path="url(#clip520)" d="M286.924 1454.1 Q283.313 1454.1 281.484 1457.66 Q279.678 1461.2 279.678 1468.33 Q279.678 1475.44 281.484 1479.01 Q283.313 1482.55 286.924 1482.55 Q290.558 1482.55 292.363 1479.01 Q294.192 1475.44 294.192 1468.33 Q294.192 1461.2 292.363 1457.66 Q290.558 1454.1 286.924 1454.1 M286.924 1450.39 Q292.734 1450.39 295.789 1455 Q298.868 1459.58 298.868 1468.33 Q298.868 1477.06 295.789 1481.67 Q292.734 1486.25 286.924 1486.25 Q281.114 1486.25 278.035 1481.67 Q274.979 1477.06 274.979 1468.33 Q274.979 1459.58 278.035 1455 Q281.114 1450.39 286.924 1450.39 Z" fill="#000000" fill-rule="nonzero" fill-opacity="1" /><path clip-path="url(#clip520)" d="M307.086 1479.7 L311.97 1479.7 L311.97 1485.58 L307.086 1485.58 L307.086 1479.7 Z" fill="#000000" fill-rule="nonzero" fill-opacity="1" /><path clip-path="url(#clip520)" d="M332.155 1454.1 Q328.544 1454.1 326.715 1457.66 Q324.91 1461.2 324.91 1468.33 Q324.91 1475.44 326.715 1479.01 Q328.544 1482.55 332.155 1482.55 Q335.789 1482.55 337.595 1479.01 Q339.423 1475.44 339.423 1468.33 Q339.423 1461.2 337.595 1457.66 Q335.789 1454.1 332.155 1454.1 M332.155 1450.39 Q337.965 1450.39 341.021 1455 Q344.099 1459.58 344.099 1468.33 Q344.099 1477.06 341.021 1481.67 Q337.965 1486.25 332.155 1486.25 Q326.345 1486.25 323.266 1481.67 Q320.211 1477.06 320.211 1468.33 Q320.211 1459.58 323.266 1455 Q326.345 1450.39 332.155 1450.39 Z" fill="#000000" fill-rule="nonzero" fill-opacity="1" /><path clip-path="url(#clip520)" d="M697.261 1454.1 Q693.65 1454.1 691.822 1457.66 Q690.016 1461.2 690.016 1468.33 Q690.016 1475.44 691.822 1479.01 Q693.65 1482.55 697.261 1482.55 Q700.896 1482.55 702.701 1479.01 Q704.53 1475.44 704.53 1468.33 Q704.53 1461.2 702.701 1457.66 Q700.896 1454.1 697.261 1454.1 M697.261 1450.39 Q703.072 1450.39 706.127 1455 Q709.206 1459.58 709.206 1468.33 Q709.206 1477.06 706.127 1481.67 Q703.072 1486.25 697.261 1486.25 Q691.451 1486.25 688.373 1481.67 Q685.317 1477.06 685.317 1468.33 Q685.317 1459.58 688.373 1455 Q691.451 1450.39 697.261 1450.39 Z" fill="#000000" fill-rule="nonzero" fill-opacity="1" /><path clip-path="url(#clip520)" d="M717.423 1479.7 L722.308 1479.7 L722.308 1485.58 L717.423 1485.58 L717.423 1479.7 Z" fill="#000000" fill-rule="nonzero" fill-opacity="1" /><path clip-path="url(#clip520)" d="M736.521 1481.64 L752.84 1481.64 L752.84 1485.58 L730.896 1485.58 L730.896 1481.64 Q733.558 1478.89 738.141 1474.26 Q742.747 1469.61 743.928 1468.27 Q746.173 1465.74 747.053 1464.01 Q747.956 1462.25 747.956 1460.56 Q747.956 1457.8 746.011 1456.07 Q744.09 1454.33 740.988 1454.33 Q738.789 1454.33 736.335 1455.09 Q733.905 1455.86 731.127 1457.41 L731.127 1452.69 Q733.951 1451.55 736.405 1450.97 Q738.858 1450.39 740.896 1450.39 Q746.266 1450.39 749.46 1453.08 Q752.655 1455.77 752.655 1460.26 Q752.655 1462.39 751.845 1464.31 Q751.057 1466.2 748.951 1468.8 Q748.372 1469.47 745.27 1472.69 Q742.169 1475.88 736.521 1481.64 Z" fill="#000000" fill-rule="nonzero" fill-opacity="1" /><path clip-path="url(#clip520)" d="M1105.76 1454.1 Q1102.15 1454.1 1100.32 1457.66 Q1098.51 1461.2 1098.51 1468.33 Q1098.51 1475.44 1100.32 1479.01 Q1102.15 1482.55 1105.76 1482.55 Q1109.39 1482.55 1111.2 1479.01 Q1113.03 1475.44 1113.03 1468.33 Q1113.03 1461.2 1111.2 1457.66 Q1109.39 1454.1 1105.76 1454.1 M1105.76 1450.39 Q1111.57 1450.39 1114.62 1455 Q1117.7 1459.58 1117.7 1468.33 Q1117.7 1477.06 1114.62 1481.67 Q1111.57 1486.25 1105.76 1486.25 Q1099.95 1486.25 1096.87 1481.67 Q1093.81 1477.06 1093.81 1468.33 Q1093.81 1459.58 1096.87 1455 Q1099.95 1450.39 1105.76 1450.39 Z" fill="#000000" fill-rule="nonzero" fill-opacity="1" /><path clip-path="url(#clip520)" d="M1125.92 1479.7 L1130.81 1479.7 L1130.81 1485.58 L1125.92 1485.58 L1125.92 1479.7 Z" fill="#000000" fill-rule="nonzero" fill-opacity="1" /><path clip-path="url(#clip520)" d="M1153.84 1455.09 L1142.03 1473.54 L1153.84 1473.54 L1153.84 1455.09 M1152.61 1451.02 L1158.49 1451.02 L1158.49 1473.54 L1163.42 1473.54 L1163.42 1477.43 L1158.49 1477.43 L1158.49 1485.58 L1153.84 1485.58 L1153.84 1477.43 L1138.24 1477.43 L1138.24 1472.92 L1152.61 1451.02 Z" fill="#000000" fill-rule="nonzero" fill-opacity="1" /><path clip-path="url(#clip520)" d="M1515.46 1454.1 Q1511.85 1454.1 1510.02 1457.66 Q1508.21 1461.2 1508.21 1468.33 Q1508.21 1475.44 1510.02 1479.01 Q1511.85 1482.55 1515.46 1482.55 Q1519.09 1482.55 1520.9 1479.01 Q1522.73 1475.44 1522.73 1468.33 Q1522.73 1461.2 1520.9 1457.66 Q1519.09 1454.1 1515.46 1454.1 M1515.46 1450.39 Q1521.27 1450.39 1524.33 1455 Q1527.4 1459.58 1527.4 1468.33 Q1527.4 1477.06 1524.33 1481.67 Q1521.27 1486.25 1515.46 1486.25 Q1509.65 1486.25 1506.57 1481.67 Q1503.52 1477.06 1503.52 1468.33 Q1503.52 1459.58 1506.57 1455 Q1509.65 1450.39 1515.46 1450.39 Z" fill="#000000" fill-rule="nonzero" fill-opacity="1" /><path clip-path="url(#clip520)" d="M1535.62 1479.7 L1540.51 1479.7 L1540.51 1485.58 L1535.62 1485.58 L1535.62 1479.7 Z" fill="#000000" fill-rule="nonzero" fill-opacity="1" /><path clip-path="url(#clip520)" d="M1561.27 1466.44 Q1558.12 1466.44 1556.27 1468.59 Q1554.44 1470.74 1554.44 1474.49 Q1554.44 1478.22 1556.27 1480.39 Q1558.12 1482.55 1561.27 1482.55 Q1564.42 1482.55 1566.25 1480.39 Q1568.1 1478.22 1568.1 1474.49 Q1568.1 1470.74 1566.25 1468.59 Q1564.42 1466.44 1561.27 1466.44 M1570.55 1451.78 L1570.55 1456.04 Q1568.79 1455.21 1566.99 1454.77 Q1565.21 1454.33 1563.45 1454.33 Q1558.82 1454.33 1556.36 1457.45 Q1553.93 1460.58 1553.59 1466.9 Q1554.95 1464.89 1557.01 1463.82 Q1559.07 1462.73 1561.55 1462.73 Q1566.76 1462.73 1569.77 1465.9 Q1572.8 1469.05 1572.8 1474.49 Q1572.8 1479.82 1569.65 1483.03 Q1566.5 1486.25 1561.27 1486.25 Q1555.27 1486.25 1552.1 1481.67 Q1548.93 1477.06 1548.93 1468.33 Q1548.93 1460.14 1552.82 1455.28 Q1556.71 1450.39 1563.26 1450.39 Q1565.02 1450.39 1566.8 1450.74 Q1568.61 1451.09 1570.55 1451.78 Z" fill="#000000" fill-rule="nonzero" fill-opacity="1" /><path clip-path="url(#clip520)" d="M1925.13 1454.1 Q1921.52 1454.1 1919.69 1457.66 Q1917.88 1461.2 1917.88 1468.33 Q1917.88 1475.44 1919.69 1479.01 Q1921.52 1482.55 1925.13 1482.55 Q1928.76 1482.55 1930.57 1479.01 Q1932.4 1475.44 1932.4 1468.33 Q1932.4 1461.2 1930.57 1457.66 Q1928.76 1454.1 1925.13 1454.1 M1925.13 1450.39 Q1930.94 1450.39 1933.99 1455 Q1937.07 1459.58 1937.07 1468.33 Q1937.07 1477.06 1933.99 1481.67 Q1930.94 1486.25 1925.13 1486.25 Q1919.32 1486.25 1916.24 1481.67 Q1913.18 1477.06 1913.18 1468.33 Q1913.18 1459.58 1916.24 1455 Q1919.32 1450.39 1925.13 1450.39 Z" fill="#000000" fill-rule="nonzero" fill-opacity="1" /><path clip-path="url(#clip520)" d="M1945.29 1479.7 L1950.17 1479.7 L1950.17 1485.58 L1945.29 1485.58 L1945.29 1479.7 Z" fill="#000000" fill-rule="nonzero" fill-opacity="1" /><path clip-path="url(#clip520)" d="M1970.36 1469.17 Q1967.02 1469.17 1965.1 1470.95 Q1963.21 1472.73 1963.21 1475.86 Q1963.21 1478.98 1965.1 1480.77 Q1967.02 1482.55 1970.36 1482.55 Q1973.69 1482.55 1975.61 1480.77 Q1977.53 1478.96 1977.53 1475.86 Q1977.53 1472.73 1975.61 1470.95 Q1973.71 1469.17 1970.36 1469.17 M1965.68 1467.18 Q1962.67 1466.44 1960.98 1464.38 Q1959.32 1462.32 1959.32 1459.35 Q1959.32 1455.21 1962.26 1452.8 Q1965.22 1450.39 1970.36 1450.39 Q1975.52 1450.39 1978.46 1452.8 Q1981.4 1455.21 1981.4 1459.35 Q1981.4 1462.32 1979.71 1464.38 Q1978.04 1466.44 1975.06 1467.18 Q1978.44 1467.96 1980.31 1470.26 Q1982.21 1472.55 1982.21 1475.86 Q1982.21 1480.88 1979.13 1483.57 Q1976.08 1486.25 1970.36 1486.25 Q1964.64 1486.25 1961.56 1483.57 Q1958.51 1480.88 1958.51 1475.86 Q1958.51 1472.55 1960.4 1470.26 Q1962.3 1467.96 1965.68 1467.18 M1963.97 1459.79 Q1963.97 1462.48 1965.64 1463.98 Q1967.33 1465.49 1970.36 1465.49 Q1973.37 1465.49 1975.06 1463.98 Q1976.77 1462.48 1976.77 1459.79 Q1976.77 1457.11 1975.06 1455.6 Q1973.37 1454.1 1970.36 1454.1 Q1967.33 1454.1 1965.64 1455.6 Q1963.97 1457.11 1963.97 1459.79 Z" fill="#000000" fill-rule="nonzero" fill-opacity="1" /><path clip-path="url(#clip520)" d="M1318.01 1532.4 L1305.12 1549.74 L1318.67 1568.04 L1311.77 1568.04 L1301.39 1554.04 L1291.02 1568.04 L1284.11 1568.04 L1297.95 1549.39 L1285.29 1532.4 L1292.19 1532.4 L1301.65 1545.1 L1311.1 1532.4 L1318.01 1532.4 Z" fill="#000000" fill-rule="nonzero" fill-opacity="1" /><polyline clip-path="url(#clip520)" style="stroke:#000000; stroke-linecap:round; stroke-linejoin:round; stroke-width:4; stroke-opacity:1; fill:none" points="250.028,1423.18 250.028,47.2441 "/>
<polyline clip-path="url(#clip520)" style="stroke:#000000; stroke-linecap:round; stroke-linejoin:round; stroke-width:4; stroke-opacity:1; fill:none" points="250.028,1385.86 268.926,1385.86 "/>
<polyline clip-path="url(#clip520)" style="stroke:#000000; stroke-linecap:round; stroke-linejoin:round; stroke-width:4; stroke-opacity:1; fill:none" points="250.028,1177.24 268.926,1177.24 "/>
<polyline clip-path="url(#clip520)" style="stroke:#000000; stroke-linecap:round; stroke-linejoin:round; stroke-width:4; stroke-opacity:1; fill:none" points="250.028,968.629 268.926,968.629 "/>
<polyline clip-path="url(#clip520)" style="stroke:#000000; stroke-linecap:round; stroke-linejoin:round; stroke-width:4; stroke-opacity:1; fill:none" points="250.028,760.014 268.926,760.014 "/>
<polyline clip-path="url(#clip520)" style="stroke:#000000; stroke-linecap:round; stroke-linejoin:round; stroke-width:4; stroke-opacity:1; fill:none" points="250.028,551.4 268.926,551.4 "/>
<polyline clip-path="url(#clip520)" style="stroke:#000000; stroke-linecap:round; stroke-linejoin:round; stroke-width:4; stroke-opacity:1; fill:none" points="250.028,342.785 268.926,342.785 "/>
<polyline clip-path="url(#clip520)" style="stroke:#000000; stroke-linecap:round; stroke-linejoin:round; stroke-width:4; stroke-opacity:1; fill:none" points="250.028,134.171 268.926,134.171 "/>
<path clip-path="url(#clip520)" d="M126.691 1371.66 Q123.08 1371.66 121.251 1375.22 Q119.445 1378.76 119.445 1385.89 Q119.445 1393 121.251 1396.56 Q123.08 1400.11 126.691 1400.11 Q130.325 1400.11 132.13 1396.56 Q133.959 1393 133.959 1385.89 Q133.959 1378.76 132.13 1375.22 Q130.325 1371.66 126.691 1371.66 M126.691 1367.95 Q132.501 1367.95 135.556 1372.56 Q138.635 1377.14 138.635 1385.89 Q138.635 1394.62 135.556 1399.23 Q132.501 1403.81 126.691 1403.81 Q120.88 1403.81 117.802 1399.23 Q114.746 1394.62 114.746 1385.89 Q114.746 1377.14 117.802 1372.56 Q120.88 1367.95 126.691 1367.95 Z" fill="#000000" fill-rule="nonzero" fill-opacity="1" /><path clip-path="url(#clip520)" d="M146.853 1397.26 L151.737 1397.26 L151.737 1403.14 L146.853 1403.14 L146.853 1397.26 Z" fill="#000000" fill-rule="nonzero" fill-opacity="1" /><path clip-path="url(#clip520)" d="M171.922 1371.66 Q168.311 1371.66 166.482 1375.22 Q164.677 1378.76 164.677 1385.89 Q164.677 1393 166.482 1396.56 Q168.311 1400.11 171.922 1400.11 Q175.556 1400.11 177.362 1396.56 Q179.19 1393 179.19 1385.89 Q179.19 1378.76 177.362 1375.22 Q175.556 1371.66 171.922 1371.66 M171.922 1367.95 Q177.732 1367.95 180.788 1372.56 Q183.866 1377.14 183.866 1385.89 Q183.866 1394.62 180.788 1399.23 Q177.732 1403.81 171.922 1403.81 Q166.112 1403.81 163.033 1399.23 Q159.978 1394.62 159.978 1385.89 Q159.978 1377.14 163.033 1372.56 Q166.112 1367.95 171.922 1367.95 Z" fill="#000000" fill-rule="nonzero" fill-opacity="1" /><path clip-path="url(#clip520)" d="M202.084 1371.66 Q198.473 1371.66 196.644 1375.22 Q194.838 1378.76 194.838 1385.89 Q194.838 1393 196.644 1396.56 Q198.473 1400.11 202.084 1400.11 Q205.718 1400.11 207.524 1396.56 Q209.352 1393 209.352 1385.89 Q209.352 1378.76 207.524 1375.22 Q205.718 1371.66 202.084 1371.66 M202.084 1367.95 Q207.894 1367.95 210.949 1372.56 Q214.028 1377.14 214.028 1385.89 Q214.028 1394.62 210.949 1399.23 Q207.894 1403.81 202.084 1403.81 Q196.274 1403.81 193.195 1399.23 Q190.139 1394.62 190.139 1385.89 Q190.139 1377.14 193.195 1372.56 Q196.274 1367.95 202.084 1367.95 Z" fill="#000000" fill-rule="nonzero" fill-opacity="1" /><path clip-path="url(#clip520)" d="M127.917 1163.04 Q124.306 1163.04 122.478 1166.61 Q120.672 1170.15 120.672 1177.28 Q120.672 1184.38 122.478 1187.95 Q124.306 1191.49 127.917 1191.49 Q131.552 1191.49 133.357 1187.95 Q135.186 1184.38 135.186 1177.28 Q135.186 1170.15 133.357 1166.61 Q131.552 1163.04 127.917 1163.04 M127.917 1159.34 Q133.728 1159.34 136.783 1163.94 Q139.862 1168.53 139.862 1177.28 Q139.862 1186 136.783 1190.61 Q133.728 1195.19 127.917 1195.19 Q122.107 1195.19 119.029 1190.61 Q115.973 1186 115.973 1177.28 Q115.973 1168.53 119.029 1163.94 Q122.107 1159.34 127.917 1159.34 Z" fill="#000000" fill-rule="nonzero" fill-opacity="1" /><path clip-path="url(#clip520)" d="M148.079 1188.64 L152.964 1188.64 L152.964 1194.52 L148.079 1194.52 L148.079 1188.64 Z" fill="#000000" fill-rule="nonzero" fill-opacity="1" /><path clip-path="url(#clip520)" d="M173.149 1163.04 Q169.538 1163.04 167.709 1166.61 Q165.903 1170.15 165.903 1177.28 Q165.903 1184.38 167.709 1187.95 Q169.538 1191.49 173.149 1191.49 Q176.783 1191.49 178.589 1187.95 Q180.417 1184.38 180.417 1177.28 Q180.417 1170.15 178.589 1166.61 Q176.783 1163.04 173.149 1163.04 M173.149 1159.34 Q178.959 1159.34 182.014 1163.94 Q185.093 1168.53 185.093 1177.28 Q185.093 1186 182.014 1190.61 Q178.959 1195.19 173.149 1195.19 Q167.339 1195.19 164.26 1190.61 Q161.204 1186 161.204 1177.28 Q161.204 1168.53 164.26 1163.94 Q167.339 1159.34 173.149 1159.34 Z" fill="#000000" fill-rule="nonzero" fill-opacity="1" /><path clip-path="url(#clip520)" d="M194.121 1190.59 L201.76 1190.59 L201.76 1164.22 L193.45 1165.89 L193.45 1161.63 L201.713 1159.96 L206.389 1159.96 L206.389 1190.59 L214.028 1190.59 L214.028 1194.52 L194.121 1194.52 L194.121 1190.59 Z" fill="#000000" fill-rule="nonzero" fill-opacity="1" /><path clip-path="url(#clip520)" d="M128.288 954.428 Q124.677 954.428 122.848 957.992 Q121.043 961.534 121.043 968.664 Q121.043 975.77 122.848 979.335 Q124.677 982.877 128.288 982.877 Q131.922 982.877 133.728 979.335 Q135.556 975.77 135.556 968.664 Q135.556 961.534 133.728 957.992 Q131.922 954.428 128.288 954.428 M128.288 950.724 Q134.098 950.724 137.154 955.33 Q140.232 959.914 140.232 968.664 Q140.232 977.39 137.154 981.997 Q134.098 986.58 128.288 986.58 Q122.478 986.58 119.399 981.997 Q116.343 977.39 116.343 968.664 Q116.343 959.914 119.399 955.33 Q122.478 950.724 128.288 950.724 Z" fill="#000000" fill-rule="nonzero" fill-opacity="1" /><path clip-path="url(#clip520)" d="M148.45 980.029 L153.334 980.029 L153.334 985.909 L148.45 985.909 L148.45 980.029 Z" fill="#000000" fill-rule="nonzero" fill-opacity="1" /><path clip-path="url(#clip520)" d="M173.519 954.428 Q169.908 954.428 168.079 957.992 Q166.274 961.534 166.274 968.664 Q166.274 975.77 168.079 979.335 Q169.908 982.877 173.519 982.877 Q177.153 982.877 178.959 979.335 Q180.788 975.77 180.788 968.664 Q180.788 961.534 178.959 957.992 Q177.153 954.428 173.519 954.428 M173.519 950.724 Q179.329 950.724 182.385 955.33 Q185.463 959.914 185.463 968.664 Q185.463 977.39 182.385 981.997 Q179.329 986.58 173.519 986.58 Q167.709 986.58 164.63 981.997 Q161.575 977.39 161.575 968.664 Q161.575 959.914 164.63 955.33 Q167.709 950.724 173.519 950.724 Z" fill="#000000" fill-rule="nonzero" fill-opacity="1" /><path clip-path="url(#clip520)" d="M197.709 981.974 L214.028 981.974 L214.028 985.909 L192.084 985.909 L192.084 981.974 Q194.746 979.219 199.329 974.59 Q203.936 969.937 205.116 968.594 Q207.362 966.071 208.241 964.335 Q209.144 962.576 209.144 960.886 Q209.144 958.131 207.199 956.395 Q205.278 954.659 202.176 954.659 Q199.977 954.659 197.524 955.423 Q195.093 956.187 192.315 957.738 L192.315 953.016 Q195.139 951.881 197.593 951.303 Q200.047 950.724 202.084 950.724 Q207.454 950.724 210.649 953.409 Q213.843 956.094 213.843 960.585 Q213.843 962.715 213.033 964.636 Q212.246 966.534 210.139 969.127 Q209.561 969.798 206.459 973.015 Q203.357 976.21 197.709 981.974 Z" fill="#000000" fill-rule="nonzero" fill-opacity="1" /><path clip-path="url(#clip520)" d="M127.339 745.813 Q123.728 745.813 121.899 749.378 Q120.093 752.92 120.093 760.049 Q120.093 767.156 121.899 770.72 Q123.728 774.262 127.339 774.262 Q130.973 774.262 132.779 770.72 Q134.607 767.156 134.607 760.049 Q134.607 752.92 132.779 749.378 Q130.973 745.813 127.339 745.813 M127.339 742.109 Q133.149 742.109 136.204 746.716 Q139.283 751.299 139.283 760.049 Q139.283 768.776 136.204 773.382 Q133.149 777.966 127.339 777.966 Q121.529 777.966 118.45 773.382 Q115.394 768.776 115.394 760.049 Q115.394 751.299 118.45 746.716 Q121.529 742.109 127.339 742.109 Z" fill="#000000" fill-rule="nonzero" fill-opacity="1" /><path clip-path="url(#clip520)" d="M147.501 771.415 L152.385 771.415 L152.385 777.294 L147.501 777.294 L147.501 771.415 Z" fill="#000000" fill-rule="nonzero" fill-opacity="1" /><path clip-path="url(#clip520)" d="M172.57 745.813 Q168.959 745.813 167.13 749.378 Q165.325 752.92 165.325 760.049 Q165.325 767.156 167.13 770.72 Q168.959 774.262 172.57 774.262 Q176.204 774.262 178.01 770.72 Q179.839 767.156 179.839 760.049 Q179.839 752.92 178.01 749.378 Q176.204 745.813 172.57 745.813 M172.57 742.109 Q178.38 742.109 181.436 746.716 Q184.514 751.299 184.514 760.049 Q184.514 768.776 181.436 773.382 Q178.38 777.966 172.57 777.966 Q166.76 777.966 163.681 773.382 Q160.626 768.776 160.626 760.049 Q160.626 751.299 163.681 746.716 Q166.76 742.109 172.57 742.109 Z" fill="#000000" fill-rule="nonzero" fill-opacity="1" /><path clip-path="url(#clip520)" d="M206.899 758.66 Q210.255 759.378 212.13 761.646 Q214.028 763.915 214.028 767.248 Q214.028 772.364 210.51 775.165 Q206.991 777.966 200.51 777.966 Q198.334 777.966 196.019 777.526 Q193.727 777.109 191.274 776.253 L191.274 771.739 Q193.218 772.873 195.533 773.452 Q197.848 774.031 200.371 774.031 Q204.769 774.031 207.061 772.294 Q209.375 770.558 209.375 767.248 Q209.375 764.193 207.223 762.48 Q205.093 760.744 201.274 760.744 L197.246 760.744 L197.246 756.901 L201.459 756.901 Q204.908 756.901 206.737 755.535 Q208.565 754.146 208.565 751.554 Q208.565 748.892 206.667 747.48 Q204.792 746.045 201.274 746.045 Q199.352 746.045 197.153 746.461 Q194.954 746.878 192.315 747.758 L192.315 743.591 Q194.977 742.85 197.292 742.48 Q199.63 742.109 201.69 742.109 Q207.014 742.109 210.116 744.54 Q213.218 746.947 213.218 751.068 Q213.218 753.938 211.574 755.929 Q209.931 757.896 206.899 758.66 Z" fill="#000000" fill-rule="nonzero" fill-opacity="1" /><path clip-path="url(#clip520)" d="M126.205 537.199 Q122.593 537.199 120.765 540.763 Q118.959 544.305 118.959 551.435 Q118.959 558.541 120.765 562.106 Q122.593 565.648 126.205 565.648 Q129.839 565.648 131.644 562.106 Q133.473 558.541 133.473 551.435 Q133.473 544.305 131.644 540.763 Q129.839 537.199 126.205 537.199 M126.205 533.495 Q132.015 533.495 135.07 538.101 Q138.149 542.685 138.149 551.435 Q138.149 560.161 135.07 564.768 Q132.015 569.351 126.205 569.351 Q120.394 569.351 117.316 564.768 Q114.26 560.161 114.26 551.435 Q114.26 542.685 117.316 538.101 Q120.394 533.495 126.205 533.495 Z" fill="#000000" fill-rule="nonzero" fill-opacity="1" /><path clip-path="url(#clip520)" d="M146.366 562.8 L151.251 562.8 L151.251 568.68 L146.366 568.68 L146.366 562.8 Z" fill="#000000" fill-rule="nonzero" fill-opacity="1" /><path clip-path="url(#clip520)" d="M171.436 537.199 Q167.825 537.199 165.996 540.763 Q164.19 544.305 164.19 551.435 Q164.19 558.541 165.996 562.106 Q167.825 565.648 171.436 565.648 Q175.07 565.648 176.876 562.106 Q178.704 558.541 178.704 551.435 Q178.704 544.305 176.876 540.763 Q175.07 537.199 171.436 537.199 M171.436 533.495 Q177.246 533.495 180.301 538.101 Q183.38 542.685 183.38 551.435 Q183.38 560.161 180.301 564.768 Q177.246 569.351 171.436 569.351 Q165.626 569.351 162.547 564.768 Q159.491 560.161 159.491 551.435 Q159.491 542.685 162.547 538.101 Q165.626 533.495 171.436 533.495 Z" fill="#000000" fill-rule="nonzero" fill-opacity="1" /><path clip-path="url(#clip520)" d="M204.445 538.194 L192.639 556.643 L204.445 556.643 L204.445 538.194 M203.218 534.12 L209.098 534.12 L209.098 556.643 L214.028 556.643 L214.028 560.532 L209.098 560.532 L209.098 568.68 L204.445 568.68 L204.445 560.532 L188.843 560.532 L188.843 556.018 L203.218 534.12 Z" fill="#000000" fill-rule="nonzero" fill-opacity="1" /><path clip-path="url(#clip520)" d="M127.686 328.584 Q124.075 328.584 122.246 332.149 Q120.441 335.691 120.441 342.82 Q120.441 349.927 122.246 353.491 Q124.075 357.033 127.686 357.033 Q131.32 357.033 133.126 353.491 Q134.954 349.927 134.954 342.82 Q134.954 335.691 133.126 332.149 Q131.32 328.584 127.686 328.584 M127.686 324.88 Q133.496 324.88 136.552 329.487 Q139.63 334.07 139.63 342.82 Q139.63 351.547 136.552 356.153 Q133.496 360.737 127.686 360.737 Q121.876 360.737 118.797 356.153 Q115.742 351.547 115.742 342.82 Q115.742 334.07 118.797 329.487 Q121.876 324.88 127.686 324.88 Z" fill="#000000" fill-rule="nonzero" fill-opacity="1" /><path clip-path="url(#clip520)" d="M147.848 354.186 L152.732 354.186 L152.732 360.065 L147.848 360.065 L147.848 354.186 Z" fill="#000000" fill-rule="nonzero" fill-opacity="1" /><path clip-path="url(#clip520)" d="M172.917 328.584 Q169.306 328.584 167.477 332.149 Q165.672 335.691 165.672 342.82 Q165.672 349.927 167.477 353.491 Q169.306 357.033 172.917 357.033 Q176.551 357.033 178.357 353.491 Q180.186 349.927 180.186 342.82 Q180.186 335.691 178.357 332.149 Q176.551 328.584 172.917 328.584 M172.917 324.88 Q178.727 324.88 181.783 329.487 Q184.862 334.07 184.862 342.82 Q184.862 351.547 181.783 356.153 Q178.727 360.737 172.917 360.737 Q167.107 360.737 164.028 356.153 Q160.973 351.547 160.973 342.82 Q160.973 334.07 164.028 329.487 Q167.107 324.88 172.917 324.88 Z" fill="#000000" fill-rule="nonzero" fill-opacity="1" /><path clip-path="url(#clip520)" d="M193.125 325.505 L211.482 325.505 L211.482 329.441 L197.408 329.441 L197.408 337.913 Q198.426 337.566 199.445 337.404 Q200.463 337.218 201.482 337.218 Q207.269 337.218 210.649 340.39 Q214.028 343.561 214.028 348.978 Q214.028 354.556 210.556 357.658 Q207.084 360.737 200.764 360.737 Q198.588 360.737 196.32 360.366 Q194.075 359.996 191.667 359.255 L191.667 354.556 Q193.75 355.69 195.973 356.246 Q198.195 356.802 200.672 356.802 Q204.676 356.802 207.014 354.695 Q209.352 352.589 209.352 348.978 Q209.352 345.366 207.014 343.26 Q204.676 341.154 200.672 341.154 Q198.797 341.154 196.922 341.57 Q195.07 341.987 193.125 342.866 L193.125 325.505 Z" fill="#000000" fill-rule="nonzero" fill-opacity="1" /><path clip-path="url(#clip520)" d="M126.529 119.97 Q122.918 119.97 121.089 123.534 Q119.283 127.076 119.283 134.206 Q119.283 141.312 121.089 144.877 Q122.918 148.419 126.529 148.419 Q130.163 148.419 131.968 144.877 Q133.797 141.312 133.797 134.206 Q133.797 127.076 131.968 123.534 Q130.163 119.97 126.529 119.97 M126.529 116.266 Q132.339 116.266 135.394 120.872 Q138.473 125.456 138.473 134.206 Q138.473 142.932 135.394 147.539 Q132.339 152.122 126.529 152.122 Q120.718 152.122 117.64 147.539 Q114.584 142.932 114.584 134.206 Q114.584 125.456 117.64 120.872 Q120.718 116.266 126.529 116.266 Z" fill="#000000" fill-rule="nonzero" fill-opacity="1" /><path clip-path="url(#clip520)" d="M146.691 145.571 L151.575 145.571 L151.575 151.451 L146.691 151.451 L146.691 145.571 Z" fill="#000000" fill-rule="nonzero" fill-opacity="1" /><path clip-path="url(#clip520)" d="M171.76 119.97 Q168.149 119.97 166.32 123.534 Q164.515 127.076 164.515 134.206 Q164.515 141.312 166.32 144.877 Q168.149 148.419 171.76 148.419 Q175.394 148.419 177.2 144.877 Q179.028 141.312 179.028 134.206 Q179.028 127.076 177.2 123.534 Q175.394 119.97 171.76 119.97 M171.76 116.266 Q177.57 116.266 180.626 120.872 Q183.704 125.456 183.704 134.206 Q183.704 142.932 180.626 147.539 Q177.57 152.122 171.76 152.122 Q165.95 152.122 162.871 147.539 Q159.815 142.932 159.815 134.206 Q159.815 125.456 162.871 120.872 Q165.95 116.266 171.76 116.266 Z" fill="#000000" fill-rule="nonzero" fill-opacity="1" /><path clip-path="url(#clip520)" d="M202.5 132.308 Q199.352 132.308 197.5 134.46 Q195.672 136.613 195.672 140.363 Q195.672 144.09 197.5 146.266 Q199.352 148.419 202.5 148.419 Q205.649 148.419 207.477 146.266 Q209.329 144.09 209.329 140.363 Q209.329 136.613 207.477 134.46 Q205.649 132.308 202.5 132.308 M211.783 117.655 L211.783 121.914 Q210.024 121.081 208.218 120.641 Q206.436 120.201 204.676 120.201 Q200.047 120.201 197.593 123.326 Q195.163 126.451 194.815 132.771 Q196.181 130.757 198.241 129.692 Q200.301 128.604 202.778 128.604 Q207.987 128.604 210.996 131.775 Q214.028 134.923 214.028 140.363 Q214.028 145.687 210.88 148.905 Q207.732 152.122 202.5 152.122 Q196.505 152.122 193.334 147.539 Q190.163 142.932 190.163 134.206 Q190.163 126.011 194.051 121.15 Q197.94 116.266 204.491 116.266 Q206.25 116.266 208.033 116.613 Q209.838 116.96 211.783 117.655 Z" fill="#000000" fill-rule="nonzero" fill-opacity="1" /><path clip-path="url(#clip520)" d="M34.7219 748.293 Q31.4754 746.352 28.6108 741.546 Q27.4968 739.668 27.4968 733.875 Q27.4968 727.382 32.6531 723.34 Q37.8093 719.266 46.212 719.266 Q54.6147 719.266 59.771 723.34 Q64.9272 727.382 64.9272 733.875 Q64.9272 737.79 63.3994 740.623 Q61.8398 743.424 58.657 745.27 L77.5631 745.27 L77.5631 751.158 L46.5303 751.158 Q39.1779 751.158 34.7219 748.293 M46.212 725.345 Q39.7508 725.345 36.0905 728.019 Q32.3984 730.66 32.3984 735.307 Q32.3984 739.954 36.0905 742.628 Q39.7508 745.27 46.212 745.27 Q52.6732 745.27 56.3653 742.628 Q60.0256 739.954 60.0256 735.307 Q60.0256 730.66 56.3653 728.019 Q52.6732 725.345 46.212 725.345 Z" fill="#000000" fill-rule="nonzero" fill-opacity="1" /><polyline clip-path="url(#clip522)" style="stroke:#009af9; stroke-linecap:round; stroke-linejoin:round; stroke-width:4; stroke-opacity:1; fill:none" points="309.539,1384.24 373.53,1362.85 437.52,1247.17 501.511,972.058 565.501,590.473 629.492,255.387 693.482,86.1857 757.473,90.3872 821.463,199.81 885.454,343.153 949.444,481.117 1013.43,600.993 1077.43,700.096 1141.42,776.755 1205.41,829.799 1269.4,860.084 1333.39,869.795 1397.38,860.084 1461.37,829.799 1525.36,776.755 1589.35,700.096 1653.34,600.993 1717.33,481.117 1781.32,343.153 1845.31,199.81 1909.3,90.3872 1973.29,86.1857 2037.28,255.387 2101.27,590.473 2165.26,972.058 2229.25,1247.17 2293.24,1362.85 "/>
<circle clip-path="url(#clip522)" cx="309.539" cy="1384.24" r="7.2" fill="#009af9" fill-rule="evenodd" fill-opacity="1" stroke="#000000" stroke-opacity="1" stroke-width="3.2"/>
<circle clip-path="url(#clip522)" cx="373.53" cy="1362.85" r="7.2" fill="#009af9" fill-rule="evenodd" fill-opacity="1" stroke="#000000" stroke-opacity="1" stroke-width="3.2"/>
<circle clip-path="url(#clip522)" cx="437.52" cy="1247.17" r="7.2" fill="#009af9" fill-rule="evenodd" fill-opacity="1" stroke="#000000" stroke-opacity="1" stroke-width="3.2"/>
<circle clip-path="url(#clip522)" cx="501.511" cy="972.058" r="7.2" fill="#009af9" fill-rule="evenodd" fill-opacity="1" stroke="#000000" stroke-opacity="1" stroke-width="3.2"/>
<circle clip-path="url(#clip522)" cx="565.501" cy="590.473" r="7.2" fill="#009af9" fill-rule="evenodd" fill-opacity="1" stroke="#000000" stroke-opacity="1" stroke-width="3.2"/>
<circle clip-path="url(#clip522)" cx="629.492" cy="255.387" r="7.2" fill="#009af9" fill-rule="evenodd" fill-opacity="1" stroke="#000000" stroke-opacity="1" stroke-width="3.2"/>
<circle clip-path="url(#clip522)" cx="693.482" cy="86.1857" r="7.2" fill="#009af9" fill-rule="evenodd" fill-opacity="1" stroke="#000000" stroke-opacity="1" stroke-width="3.2"/>
<circle clip-path="url(#clip522)" cx="757.473" cy="90.3872" r="7.2" fill="#009af9" fill-rule="evenodd" fill-opacity="1" stroke="#000000" stroke-opacity="1" stroke-width="3.2"/>
<circle clip-path="url(#clip522)" cx="821.463" cy="199.81" r="7.2" fill="#009af9" fill-rule="evenodd" fill-opacity="1" stroke="#000000" stroke-opacity="1" stroke-width="3.2"/>
<circle clip-path="url(#clip522)" cx="885.454" cy="343.153" r="7.2" fill="#009af9" fill-rule="evenodd" fill-opacity="1" stroke="#000000" stroke-opacity="1" stroke-width="3.2"/>
<circle clip-path="url(#clip522)" cx="949.444" cy="481.117" r="7.2" fill="#009af9" fill-rule="evenodd" fill-opacity="1" stroke="#000000" stroke-opacity="1" stroke-width="3.2"/>
<circle clip-path="url(#clip522)" cx="1013.43" cy="600.993" r="7.2" fill="#009af9" fill-rule="evenodd" fill-opacity="1" stroke="#000000" stroke-opacity="1" stroke-width="3.2"/>
<circle clip-path="url(#clip522)" cx="1077.43" cy="700.096" r="7.2" fill="#009af9" fill-rule="evenodd" fill-opacity="1" stroke="#000000" stroke-opacity="1" stroke-width="3.2"/>
<circle clip-path="url(#clip522)" cx="1141.42" cy="776.755" r="7.2" fill="#009af9" fill-rule="evenodd" fill-opacity="1" stroke="#000000" stroke-opacity="1" stroke-width="3.2"/>
<circle clip-path="url(#clip522)" cx="1205.41" cy="829.799" r="7.2" fill="#009af9" fill-rule="evenodd" fill-opacity="1" stroke="#000000" stroke-opacity="1" stroke-width="3.2"/>
<circle clip-path="url(#clip522)" cx="1269.4" cy="860.084" r="7.2" fill="#009af9" fill-rule="evenodd" fill-opacity="1" stroke="#000000" stroke-opacity="1" stroke-width="3.2"/>
<circle clip-path="url(#clip522)" cx="1333.39" cy="869.795" r="7.2" fill="#009af9" fill-rule="evenodd" fill-opacity="1" stroke="#000000" stroke-opacity="1" stroke-width="3.2"/>
<circle clip-path="url(#clip522)" cx="1397.38" cy="860.084" r="7.2" fill="#009af9" fill-rule="evenodd" fill-opacity="1" stroke="#000000" stroke-opacity="1" stroke-width="3.2"/>
<circle clip-path="url(#clip522)" cx="1461.37" cy="829.799" r="7.2" fill="#009af9" fill-rule="evenodd" fill-opacity="1" stroke="#000000" stroke-opacity="1" stroke-width="3.2"/>
<circle clip-path="url(#clip522)" cx="1525.36" cy="776.755" r="7.2" fill="#009af9" fill-rule="evenodd" fill-opacity="1" stroke="#000000" stroke-opacity="1" stroke-width="3.2"/>
<circle clip-path="url(#clip522)" cx="1589.35" cy="700.096" r="7.2" fill="#009af9" fill-rule="evenodd" fill-opacity="1" stroke="#000000" stroke-opacity="1" stroke-width="3.2"/>
<circle clip-path="url(#clip522)" cx="1653.34" cy="600.993" r="7.2" fill="#009af9" fill-rule="evenodd" fill-opacity="1" stroke="#000000" stroke-opacity="1" stroke-width="3.2"/>
<circle clip-path="url(#clip522)" cx="1717.33" cy="481.117" r="7.2" fill="#009af9" fill-rule="evenodd" fill-opacity="1" stroke="#000000" stroke-opacity="1" stroke-width="3.2"/>
<circle clip-path="url(#clip522)" cx="1781.32" cy="343.153" r="7.2" fill="#009af9" fill-rule="evenodd" fill-opacity="1" stroke="#000000" stroke-opacity="1" stroke-width="3.2"/>
<circle clip-path="url(#clip522)" cx="1845.31" cy="199.81" r="7.2" fill="#009af9" fill-rule="evenodd" fill-opacity="1" stroke="#000000" stroke-opacity="1" stroke-width="3.2"/>
<circle clip-path="url(#clip522)" cx="1909.3" cy="90.3872" r="7.2" fill="#009af9" fill-rule="evenodd" fill-opacity="1" stroke="#000000" stroke-opacity="1" stroke-width="3.2"/>
<circle clip-path="url(#clip522)" cx="1973.29" cy="86.1857" r="7.2" fill="#009af9" fill-rule="evenodd" fill-opacity="1" stroke="#000000" stroke-opacity="1" stroke-width="3.2"/>
<circle clip-path="url(#clip522)" cx="2037.28" cy="255.387" r="7.2" fill="#009af9" fill-rule="evenodd" fill-opacity="1" stroke="#000000" stroke-opacity="1" stroke-width="3.2"/>
<circle clip-path="url(#clip522)" cx="2101.27" cy="590.473" r="7.2" fill="#009af9" fill-rule="evenodd" fill-opacity="1" stroke="#000000" stroke-opacity="1" stroke-width="3.2"/>
<circle clip-path="url(#clip522)" cx="2165.26" cy="972.058" r="7.2" fill="#009af9" fill-rule="evenodd" fill-opacity="1" stroke="#000000" stroke-opacity="1" stroke-width="3.2"/>
<circle clip-path="url(#clip522)" cx="2229.25" cy="1247.17" r="7.2" fill="#009af9" fill-rule="evenodd" fill-opacity="1" stroke="#000000" stroke-opacity="1" stroke-width="3.2"/>
<circle clip-path="url(#clip522)" cx="2293.24" cy="1362.85" r="7.2" fill="#009af9" fill-rule="evenodd" fill-opacity="1" stroke="#000000" stroke-opacity="1" stroke-width="3.2"/>
</svg>
