<?xml version="1.0" encoding="utf-8"?>
<svg xmlns="http://www.w3.org/2000/svg" xmlns:xlink="http://www.w3.org/1999/xlink" width="600" height="400" viewBox="0 0 2400 1600">
<defs>
  <clipPath id="clip210">
    <rect x="0" y="0" width="2400" height="1600"/>
  </clipPath>
</defs>
<path clip-path="url(#clip210)" d="M0 1600 L2400 1600 L2400 0 L0 0  Z" fill="#ffffff" fill-rule="evenodd" fill-opacity="1"/>
<defs>
  <clipPath id="clip211">
    <rect x="480" y="0" width="1681" height="1600"/>
  </clipPath>
</defs>
<path clip-path="url(#clip210)" d="M276.876 1423.18 L2352.76 1423.18 L2352.76 47.2441 L276.876 47.2441  Z" fill="#ffffff" fill-rule="evenodd" fill-opacity="1"/>
<defs>
  <clipPath id="clip212">
    <rect x="276" y="47" width="2077" height="1377"/>
  </clipPath>
</defs>
<polyline clip-path="url(#clip212)" style="stroke:#000000; stroke-linecap:round; stroke-linejoin:round; stroke-width:2; stroke-opacity:0.1; fill:none" points="335.627,1423.18 335.627,47.2441 "/>
<polyline clip-path="url(#clip212)" style="stroke:#000000; stroke-linecap:round; stroke-linejoin:round; stroke-width:2; stroke-opacity:0.1; fill:none" points="825.221,1423.18 825.221,47.2441 "/>
<polyline clip-path="url(#clip212)" style="stroke:#000000; stroke-linecap:round; stroke-linejoin:round; stroke-width:2; stroke-opacity:0.1; fill:none" points="1314.82,1423.18 1314.82,47.2441 "/>
<polyline clip-path="url(#clip212)" style="stroke:#000000; stroke-linecap:round; stroke-linejoin:round; stroke-width:2; stroke-opacity:0.1; fill:none" points="1804.41,1423.18 1804.41,47.2441 "/>
<polyline clip-path="url(#clip212)" style="stroke:#000000; stroke-linecap:round; stroke-linejoin:round; stroke-width:2; stroke-opacity:0.1; fill:none" points="2294,1423.18 2294,47.2441 "/>
<polyline clip-path="url(#clip212)" style="stroke:#000000; stroke-linecap:round; stroke-linejoin:round; stroke-width:2; stroke-opacity:0.1; fill:none" points="276.876,1316.12 2352.76,1316.12 "/>
<polyline clip-path="url(#clip212)" style="stroke:#000000; stroke-linecap:round; stroke-linejoin:round; stroke-width:2; stroke-opacity:0.1; fill:none" points="276.876,780.811 2352.76,780.811 "/>
<polyline clip-path="url(#clip212)" style="stroke:#000000; stroke-linecap:round; stroke-linejoin:round; stroke-width:2; stroke-opacity:0.1; fill:none" points="276.876,245.504 2352.76,245.504 "/>
<polyline clip-path="url(#clip210)" style="stroke:#000000; stroke-linecap:round; stroke-linejoin:round; stroke-width:4; stroke-opacity:1; fill:none" points="276.876,1423.18 2352.76,1423.18 "/>
<polyline clip-path="url(#clip210)" style="stroke:#000000; stroke-linecap:round; stroke-linejoin:round; stroke-width:4; stroke-opacity:1; fill:none" points="335.627,1423.18 335.627,1404.28 "/>
<polyline clip-path="url(#clip210)" style="stroke:#000000; stroke-linecap:round; stroke-linejoin:round; stroke-width:4; stroke-opacity:1; fill:none" points="825.221,1423.18 825.221,1404.28 "/>
<polyline clip-path="url(#clip210)" style="stroke:#000000; stroke-linecap:round; stroke-linejoin:round; stroke-width:4; stroke-opacity:1; fill:none" points="1314.82,1423.18 1314.82,1404.28 "/>
<polyline clip-path="url(#clip210)" style="stroke:#000000; stroke-linecap:round; stroke-linejoin:round; stroke-width:4; stroke-opacity:1; fill:none" points="1804.41,1423.18 1804.41,1404.28 "/>
<polyline clip-path="url(#clip210)" style="stroke:#000000; stroke-linecap:round; stroke-linejoin:round; stroke-width:4; stroke-opacity:1; fill:none" points="2294,1423.18 2294,1404.28 "/>
<path clip-path="url(#clip210)" d="M330.28 1481.64 L346.599 1481.64 L346.599 1485.58 L324.655 1485.58 L324.655 1481.64 Q327.317 1478.89 331.9 1474.26 Q336.506 1469.61 337.687 1468.27 Q339.932 1465.74 340.812 1464.01 Q341.715 1462.25 341.715 1460.56 Q341.715 1457.8 339.77 1456.07 Q337.849 1454.33 334.747 1454.33 Q332.548 1454.33 330.094 1455.09 Q327.664 1455.86 324.886 1457.41 L324.886 1452.69 Q327.71 1451.55 330.164 1450.97 Q332.618 1450.39 334.655 1450.39 Q340.025 1450.39 343.219 1453.08 Q346.414 1455.77 346.414 1460.26 Q346.414 1462.39 345.604 1464.31 Q344.817 1466.2 342.71 1468.8 Q342.131 1469.47 339.03 1472.69 Q335.928 1475.88 330.28 1481.64 Z" fill="#000000" fill-rule="nonzero" fill-opacity="1" /><path clip-path="url(#clip210)" d="M828.231 1455.09 L816.425 1473.54 L828.231 1473.54 L828.231 1455.09 M827.004 1451.02 L832.883 1451.02 L832.883 1473.54 L837.814 1473.54 L837.814 1477.43 L832.883 1477.43 L832.883 1485.58 L828.231 1485.58 L828.231 1477.43 L812.629 1477.43 L812.629 1472.92 L827.004 1451.02 Z" fill="#000000" fill-rule="nonzero" fill-opacity="1" /><path clip-path="url(#clip210)" d="M1315.22 1466.44 Q1312.07 1466.44 1310.22 1468.59 Q1308.39 1470.74 1308.39 1474.49 Q1308.39 1478.22 1310.22 1480.39 Q1312.07 1482.55 1315.22 1482.55 Q1318.37 1482.55 1320.2 1480.39 Q1322.05 1478.22 1322.05 1474.49 Q1322.05 1470.74 1320.2 1468.59 Q1318.37 1466.44 1315.22 1466.44 M1324.5 1451.78 L1324.5 1456.04 Q1322.74 1455.21 1320.94 1454.77 Q1319.16 1454.33 1317.4 1454.33 Q1312.77 1454.33 1310.31 1457.45 Q1307.88 1460.58 1307.54 1466.9 Q1308.9 1464.89 1310.96 1463.82 Q1313.02 1462.73 1315.5 1462.73 Q1320.71 1462.73 1323.72 1465.9 Q1326.75 1469.05 1326.75 1474.49 Q1326.75 1479.82 1323.6 1483.03 Q1320.45 1486.25 1315.22 1486.25 Q1309.23 1486.25 1306.05 1481.67 Q1302.88 1477.06 1302.88 1468.33 Q1302.88 1460.14 1306.77 1455.28 Q1310.66 1450.39 1317.21 1450.39 Q1318.97 1450.39 1320.75 1450.74 Q1322.56 1451.09 1324.5 1451.78 Z" fill="#000000" fill-rule="nonzero" fill-opacity="1" /><path clip-path="url(#clip210)" d="M1804.41 1469.17 Q1801.08 1469.17 1799.16 1470.95 Q1797.26 1472.73 1797.26 1475.86 Q1797.26 1478.98 1799.16 1480.77 Q1801.08 1482.55 1804.41 1482.55 Q1807.74 1482.55 1809.66 1480.77 Q1811.59 1478.96 1811.59 1475.86 Q1811.59 1472.73 1809.66 1470.95 Q1807.77 1469.17 1804.41 1469.17 M1799.73 1467.18 Q1796.72 1466.44 1795.04 1464.38 Q1793.37 1462.32 1793.37 1459.35 Q1793.37 1455.21 1796.31 1452.8 Q1799.27 1450.39 1804.41 1450.39 Q1809.57 1450.39 1812.51 1452.8 Q1815.45 1455.21 1815.45 1459.35 Q1815.45 1462.32 1813.76 1464.38 Q1812.1 1466.44 1809.11 1467.18 Q1812.49 1467.96 1814.36 1470.26 Q1816.26 1472.55 1816.26 1475.86 Q1816.26 1480.88 1813.18 1483.57 Q1810.13 1486.25 1804.41 1486.25 Q1798.69 1486.25 1795.61 1483.57 Q1792.56 1480.88 1792.56 1475.86 Q1792.56 1472.55 1794.46 1470.26 Q1796.35 1467.96 1799.73 1467.18 M1798.02 1459.79 Q1798.02 1462.48 1799.69 1463.98 Q1801.38 1465.49 1804.41 1465.49 Q1807.42 1465.49 1809.11 1463.98 Q1810.82 1462.48 1810.82 1459.79 Q1810.82 1457.11 1809.11 1455.6 Q1807.42 1454.1 1804.41 1454.1 Q1801.38 1454.1 1799.69 1455.6 Q1798.02 1457.11 1798.02 1459.79 Z" fill="#000000" fill-rule="nonzero" fill-opacity="1" /><path clip-path="url(#clip210)" d="M2268.69 1481.64 L2276.33 1481.64 L2276.33 1455.28 L2268.02 1456.95 L2268.02 1452.69 L2276.28 1451.02 L2280.96 1451.02 L2280.96 1481.64 L2288.6 1481.64 L2288.6 1485.58 L2268.69 1485.58 L2268.69 1481.64 Z" fill="#000000" fill-rule="nonzero" fill-opacity="1" /><path clip-path="url(#clip210)" d="M2308.04 1454.1 Q2304.43 1454.1 2302.6 1457.66 Q2300.8 1461.2 2300.8 1468.33 Q2300.8 1475.44 2302.6 1479.01 Q2304.43 1482.55 2308.04 1482.55 Q2311.68 1482.55 2313.48 1479.01 Q2315.31 1475.44 2315.31 1468.33 Q2315.31 1461.2 2313.48 1457.66 Q2311.68 1454.1 2308.04 1454.1 M2308.04 1450.39 Q2313.85 1450.39 2316.91 1455 Q2319.99 1459.58 2319.99 1468.33 Q2319.99 1477.06 2316.91 1481.67 Q2313.85 1486.25 2308.04 1486.25 Q2302.23 1486.25 2299.16 1481.67 Q2296.1 1477.06 2296.1 1468.33 Q2296.1 1459.58 2299.16 1455 Q2302.23 1450.39 2308.04 1450.39 Z" fill="#000000" fill-rule="nonzero" fill-opacity="1" /><path clip-path="url(#clip210)" d="M1296.83 1520.52 L1305.49 1520.52 L1326.56 1560.28 L1326.56 1520.52 L1332.8 1520.52 L1332.8 1568.04 L1324.14 1568.04 L1303.07 1528.29 L1303.07 1568.04 L1296.83 1568.04 L1296.83 1520.52 Z" fill="#000000" fill-rule="nonzero" fill-opacity="1" /><polyline clip-path="url(#clip210)" style="stroke:#000000; stroke-linecap:round; stroke-linejoin:round; stroke-width:4; stroke-opacity:1; fill:none" points="276.876,1423.18 276.876,47.2441 "/>
<polyline clip-path="url(#clip210)" style="stroke:#000000; stroke-linecap:round; stroke-linejoin:round; stroke-width:4; stroke-opacity:1; fill:none" points="276.876,1316.12 295.773,1316.12 "/>
<polyline clip-path="url(#clip210)" style="stroke:#000000; stroke-linecap:round; stroke-linejoin:round; stroke-width:4; stroke-opacity:1; fill:none" points="276.876,780.811 295.773,780.811 "/>
<polyline clip-path="url(#clip210)" style="stroke:#000000; stroke-linecap:round; stroke-linejoin:round; stroke-width:4; stroke-opacity:1; fill:none" points="276.876,245.504 295.773,245.504 "/>
<path clip-path="url(#clip210)" d="M115.74 1335.91 L123.379 1335.91 L123.379 1309.55 L115.069 1311.21 L115.069 1306.95 L123.333 1305.29 L128.009 1305.29 L128.009 1335.91 L135.647 1335.91 L135.647 1339.85 L115.74 1339.85 L115.74 1335.91 Z" fill="#000000" fill-rule="nonzero" fill-opacity="1" /><path clip-path="url(#clip210)" d="M155.092 1308.36 Q151.481 1308.36 149.652 1311.93 Q147.846 1315.47 147.846 1322.6 Q147.846 1329.71 149.652 1333.27 Q151.481 1336.81 155.092 1336.81 Q158.726 1336.81 160.532 1333.27 Q162.36 1329.71 162.36 1322.6 Q162.36 1315.47 160.532 1311.93 Q158.726 1308.36 155.092 1308.36 M155.092 1304.66 Q160.902 1304.66 163.958 1309.27 Q167.036 1313.85 167.036 1322.6 Q167.036 1331.33 163.958 1335.93 Q160.902 1340.52 155.092 1340.52 Q149.282 1340.52 146.203 1335.93 Q143.147 1331.33 143.147 1322.6 Q143.147 1313.85 146.203 1309.27 Q149.282 1304.66 155.092 1304.66 Z" fill="#000000" fill-rule="nonzero" fill-opacity="1" /><path clip-path="url(#clip210)" d="M167.036 1298.76 L191.148 1298.76 L191.148 1301.96 L167.036 1301.96 L167.036 1298.76 Z" fill="#000000" fill-rule="nonzero" fill-opacity="1" /><path clip-path="url(#clip210)" d="M200.006 1309.24 L206.213 1309.24 L206.213 1287.82 L199.461 1289.17 L199.461 1285.71 L206.175 1284.36 L209.974 1284.36 L209.974 1309.24 L216.181 1309.24 L216.181 1312.44 L200.006 1312.44 L200.006 1309.24 Z" fill="#000000" fill-rule="nonzero" fill-opacity="1" /><path clip-path="url(#clip210)" d="M223.892 1284.36 L238.807 1284.36 L238.807 1287.55 L227.372 1287.55 L227.372 1294.44 Q228.199 1294.15 229.027 1294.02 Q229.854 1293.87 230.682 1293.87 Q235.384 1293.87 238.13 1296.45 Q240.876 1299.03 240.876 1303.43 Q240.876 1307.96 238.054 1310.48 Q235.233 1312.98 230.099 1312.98 Q228.331 1312.98 226.488 1312.68 Q224.663 1312.38 222.707 1311.78 L222.707 1307.96 Q224.4 1308.88 226.205 1309.33 Q228.011 1309.78 230.023 1309.78 Q233.277 1309.78 235.177 1308.07 Q237.076 1306.36 237.076 1303.43 Q237.076 1300.49 235.177 1298.78 Q233.277 1297.07 230.023 1297.07 Q228.5 1297.07 226.977 1297.41 Q225.472 1297.75 223.892 1298.46 L223.892 1284.36 Z" fill="#000000" fill-rule="nonzero" fill-opacity="1" /><path clip-path="url(#clip210)" d="M114.931 800.604 L122.57 800.604 L122.57 774.238 L114.26 775.905 L114.26 771.645 L122.524 769.979 L127.2 769.979 L127.2 800.604 L134.839 800.604 L134.839 804.539 L114.931 804.539 L114.931 800.604 Z" fill="#000000" fill-rule="nonzero" fill-opacity="1" /><path clip-path="url(#clip210)" d="M154.283 773.058 Q150.672 773.058 148.843 776.622 Q147.038 780.164 147.038 787.294 Q147.038 794.4 148.843 797.965 Q150.672 801.506 154.283 801.506 Q157.917 801.506 159.723 797.965 Q161.552 794.4 161.552 787.294 Q161.552 780.164 159.723 776.622 Q157.917 773.058 154.283 773.058 M154.283 769.354 Q160.093 769.354 163.149 773.96 Q166.227 778.544 166.227 787.294 Q166.227 796.02 163.149 800.627 Q160.093 805.21 154.283 805.21 Q148.473 805.21 145.394 800.627 Q142.339 796.02 142.339 787.294 Q142.339 778.544 145.394 773.96 Q148.473 769.354 154.283 769.354 Z" fill="#000000" fill-rule="nonzero" fill-opacity="1" /><path clip-path="url(#clip210)" d="M166.227 763.455 L190.339 763.455 L190.339 766.652 L166.227 766.652 L166.227 763.455 Z" fill="#000000" fill-rule="nonzero" fill-opacity="1" /><path clip-path="url(#clip210)" d="M199.197 773.931 L205.404 773.931 L205.404 752.509 L198.652 753.863 L198.652 750.403 L205.366 749.048 L209.166 749.048 L209.166 773.931 L215.372 773.931 L215.372 777.128 L199.197 777.128 L199.197 773.931 Z" fill="#000000" fill-rule="nonzero" fill-opacity="1" /><path clip-path="url(#clip210)" d="M231.171 751.55 Q228.237 751.55 226.751 754.446 Q225.284 757.324 225.284 763.117 Q225.284 768.891 226.751 771.787 Q228.237 774.665 231.171 774.665 Q234.124 774.665 235.591 771.787 Q237.076 768.891 237.076 763.117 Q237.076 757.324 235.591 754.446 Q234.124 751.55 231.171 751.55 M231.171 748.541 Q235.891 748.541 238.374 752.283 Q240.876 756.007 240.876 763.117 Q240.876 770.207 238.374 773.95 Q235.891 777.674 231.171 777.674 Q226.45 777.674 223.949 773.95 Q221.466 770.207 221.466 763.117 Q221.466 756.007 223.949 752.283 Q226.45 748.541 231.171 748.541 Z" fill="#000000" fill-rule="nonzero" fill-opacity="1" /><path clip-path="url(#clip210)" d="M140.247 265.296 L147.886 265.296 L147.886 238.931 L139.575 240.598 L139.575 236.338 L147.839 234.672 L152.515 234.672 L152.515 265.296 L160.154 265.296 L160.154 269.232 L140.247 269.232 L140.247 265.296 Z" fill="#000000" fill-rule="nonzero" fill-opacity="1" /><path clip-path="url(#clip210)" d="M179.598 237.75 Q175.987 237.75 174.159 241.315 Q172.353 244.857 172.353 251.986 Q172.353 259.093 174.159 262.658 Q175.987 266.199 179.598 266.199 Q183.233 266.199 185.038 262.658 Q186.867 259.093 186.867 251.986 Q186.867 244.857 185.038 241.315 Q183.233 237.75 179.598 237.75 M179.598 234.047 Q185.409 234.047 188.464 238.653 Q191.543 243.236 191.543 251.986 Q191.543 260.713 188.464 265.32 Q185.409 269.903 179.598 269.903 Q173.788 269.903 170.71 265.32 Q167.654 260.713 167.654 251.986 Q167.654 243.236 170.71 238.653 Q173.788 234.047 179.598 234.047 Z" fill="#000000" fill-rule="nonzero" fill-opacity="1" /><path clip-path="url(#clip210)" d="M191.543 228.148 L215.654 228.148 L215.654 231.345 L191.543 231.345 L191.543 228.148 Z" fill="#000000" fill-rule="nonzero" fill-opacity="1" /><path clip-path="url(#clip210)" d="M223.892 213.741 L238.807 213.741 L238.807 216.939 L227.372 216.939 L227.372 223.822 Q228.199 223.54 229.027 223.408 Q229.854 223.258 230.682 223.258 Q235.384 223.258 238.13 225.835 Q240.876 228.411 240.876 232.812 Q240.876 237.345 238.054 239.865 Q235.233 242.367 230.099 242.367 Q228.331 242.367 226.488 242.066 Q224.663 241.765 222.707 241.163 L222.707 237.345 Q224.4 238.267 226.205 238.718 Q228.011 239.169 230.023 239.169 Q233.277 239.169 235.177 237.458 Q237.076 235.746 237.076 232.812 Q237.076 229.878 235.177 228.167 Q233.277 226.455 230.023 226.455 Q228.5 226.455 226.977 226.794 Q225.472 227.132 223.892 227.847 L223.892 213.741 Z" fill="#000000" fill-rule="nonzero" fill-opacity="1" /><path clip-path="url(#clip210)" d="M22.818 944.898 L46.4666 953.619 L46.4666 936.145 L22.818 944.898 M16.4842 948.527 L16.4842 941.238 L64.0042 923.128 L64.0042 929.812 L51.8138 934.14 L51.8138 955.561 L64.0042 959.89 L64.0042 966.669 L16.4842 948.527 Z" fill="#000000" fill-rule="nonzero" fill-opacity="1" /><path clip-path="url(#clip210)" d="M46.212 890.853 Q39.7508 890.853 36.0905 893.527 Q32.3984 896.169 32.3984 900.816 Q32.3984 905.463 36.0905 908.136 Q39.7508 910.778 46.212 910.778 Q52.6732 910.778 56.3653 908.136 Q60.0256 905.463 60.0256 900.816 Q60.0256 896.169 56.3653 893.527 Q52.6732 890.853 46.212 890.853 M33.7671 910.778 Q30.5842 908.932 29.0564 906.131 Q27.4968 903.298 27.4968 899.384 Q27.4968 892.891 32.6531 888.848 Q37.8093 884.774 46.212 884.774 Q54.6147 884.774 59.771 888.848 Q64.9272 892.891 64.9272 899.384 Q64.9272 903.298 63.3994 906.131 Q61.8398 908.932 58.657 910.778 L64.0042 910.778 L64.0042 916.666 L14.479 916.666 L14.479 910.778 L33.7671 910.778 Z" fill="#000000" fill-rule="nonzero" fill-opacity="1" /><path clip-path="url(#clip210)" d="M29.4065 852.341 L34.9447 852.341 Q33.6716 854.824 33.035 857.497 Q32.3984 860.171 32.3984 863.035 Q32.3984 867.396 33.7352 869.592 Q35.072 871.756 37.7456 871.756 Q39.7826 871.756 40.9603 870.197 Q42.1061 868.637 43.1565 863.927 L43.6021 861.921 Q44.9389 855.683 47.3897 853.073 Q49.8086 850.431 54.1691 850.431 Q59.1344 850.431 62.0308 854.378 Q64.9272 858.293 64.9272 865.168 Q64.9272 868.032 64.3543 871.152 Q63.8132 874.239 62.6992 877.676 L56.6518 877.676 Q58.3387 874.43 59.198 871.279 Q60.0256 868.128 60.0256 865.041 Q60.0256 860.903 58.6251 858.675 Q57.1929 856.447 54.6147 856.447 Q52.2276 856.447 50.9545 858.07 Q49.6813 859.662 48.5037 865.104 L48.0262 867.141 Q46.8804 872.584 44.5251 875.003 Q42.138 877.422 38.0002 877.422 Q32.9713 877.422 30.2341 873.857 Q27.4968 870.292 27.4968 863.736 Q27.4968 860.489 27.9743 857.625 Q28.4517 854.76 29.4065 852.341 Z" fill="#000000" fill-rule="nonzero" fill-opacity="1" /><path clip-path="url(#clip210)" d="M32.4621 827.292 Q32.4621 832.003 36.1542 834.74 Q39.8145 837.477 46.212 837.477 Q52.6095 837.477 56.3017 834.772 Q59.9619 832.034 59.9619 827.292 Q59.9619 822.613 56.2698 819.876 Q52.5777 817.139 46.212 817.139 Q39.8781 817.139 36.186 819.876 Q32.4621 822.613 32.4621 827.292 M27.4968 827.292 Q27.4968 819.653 32.4621 815.293 Q37.4273 810.932 46.212 810.932 Q54.9649 810.932 59.9619 815.293 Q64.9272 819.653 64.9272 827.292 Q64.9272 834.963 59.9619 839.323 Q54.9649 843.652 46.212 843.652 Q37.4273 843.652 32.4621 839.323 Q27.4968 834.963 27.4968 827.292 Z" fill="#000000" fill-rule="nonzero" fill-opacity="1" /><path clip-path="url(#clip210)" d="M14.479 801.224 L14.479 795.368 L64.0042 795.368 L64.0042 801.224 L14.479 801.224 Z" fill="#000000" fill-rule="nonzero" fill-opacity="1" /><path clip-path="url(#clip210)" d="M49.9359 783.719 L28.3562 783.719 L28.3562 777.862 L49.7131 777.862 Q54.7739 777.862 57.3202 775.889 Q59.8346 773.915 59.8346 769.969 Q59.8346 765.226 56.8109 762.489 Q53.7872 759.72 48.5673 759.72 L28.3562 759.72 L28.3562 753.863 L64.0042 753.863 L64.0042 759.72 L58.5296 759.72 Q61.7762 761.852 63.3676 764.685 Q64.9272 767.486 64.9272 771.21 Q64.9272 777.353 61.1078 780.536 Q57.2883 783.719 49.9359 783.719 M27.4968 768.982 L27.4968 768.982 Z" fill="#000000" fill-rule="nonzero" fill-opacity="1" /><path clip-path="url(#clip210)" d="M18.2347 736.008 L28.3562 736.008 L28.3562 723.945 L32.9077 723.945 L32.9077 736.008 L52.2594 736.008 Q56.6199 736.008 57.8613 734.83 Q59.1026 733.621 59.1026 729.96 L59.1026 723.945 L64.0042 723.945 L64.0042 729.96 Q64.0042 736.74 61.4897 739.318 Q58.9434 741.896 52.2594 741.896 L32.9077 741.896 L32.9077 746.193 L28.3562 746.193 L28.3562 741.896 L18.2347 741.896 L18.2347 736.008 Z" fill="#000000" fill-rule="nonzero" fill-opacity="1" /><path clip-path="url(#clip210)" d="M44.7161 685.75 L47.5806 685.75 L47.5806 712.677 Q53.6281 712.295 56.8109 709.049 Q59.9619 705.771 59.9619 699.946 Q59.9619 696.572 59.1344 693.421 Q58.3069 690.238 56.6518 687.119 L62.1899 687.119 Q63.5267 690.27 64.227 693.58 Q64.9272 696.89 64.9272 700.296 Q64.9272 708.826 59.9619 713.823 Q54.9967 718.788 46.5303 718.788 Q37.7774 718.788 32.6531 714.078 Q27.4968 709.335 27.4968 701.315 Q27.4968 694.121 32.1438 689.952 Q36.7589 685.75 44.7161 685.75 M42.9973 691.607 Q38.1912 691.671 35.3266 694.312 Q32.4621 696.922 32.4621 701.251 Q32.4621 706.153 35.2312 709.113 Q38.0002 712.041 43.0292 712.486 L42.9973 691.607 Z" fill="#000000" fill-rule="nonzero" fill-opacity="1" /><path clip-path="url(#clip210)" d="M44.7161 624.926 L47.5806 624.926 L47.5806 651.853 Q53.6281 651.471 56.8109 648.225 Q59.9619 644.946 59.9619 639.122 Q59.9619 635.748 59.1344 632.597 Q58.3069 629.414 56.6518 626.295 L62.1899 626.295 Q63.5267 629.446 64.227 632.756 Q64.9272 636.066 64.9272 639.472 Q64.9272 648.002 59.9619 652.999 Q54.9967 657.964 46.5303 657.964 Q37.7774 657.964 32.6531 653.253 Q27.4968 648.511 27.4968 640.49 Q27.4968 633.297 32.1438 629.127 Q36.7589 624.926 44.7161 624.926 M42.9973 630.783 Q38.1912 630.846 35.3266 633.488 Q32.4621 636.098 32.4621 640.427 Q32.4621 645.328 35.2312 648.288 Q38.0002 651.216 43.0292 651.662 L42.9973 630.783 Z" fill="#000000" fill-rule="nonzero" fill-opacity="1" /><path clip-path="url(#clip210)" d="M33.8307 594.657 Q33.2578 595.644 33.0032 596.822 Q32.7167 597.967 32.7167 599.368 Q32.7167 604.333 35.9632 607.007 Q39.1779 609.648 45.2253 609.648 L64.0042 609.648 L64.0042 615.537 L28.3562 615.537 L28.3562 609.648 L33.8944 609.648 Q30.6479 607.802 29.0883 604.842 Q27.4968 601.882 27.4968 597.649 Q27.4968 597.044 27.5923 596.312 Q27.656 595.58 27.8151 594.689 L33.8307 594.657 Z" fill="#000000" fill-rule="nonzero" fill-opacity="1" /><path clip-path="url(#clip210)" d="M33.8307 569.003 Q33.2578 569.99 33.0032 571.168 Q32.7167 572.314 32.7167 573.714 Q32.7167 578.679 35.9632 581.353 Q39.1779 583.995 45.2253 583.995 L64.0042 583.995 L64.0042 589.883 L28.3562 589.883 L28.3562 583.995 L33.8944 583.995 Q30.6479 582.149 29.0883 579.188 Q27.4968 576.228 27.4968 571.995 Q27.4968 571.391 27.5923 570.658 Q27.656 569.926 27.8151 569.035 L33.8307 569.003 Z" fill="#000000" fill-rule="nonzero" fill-opacity="1" /><path clip-path="url(#clip210)" d="M32.4621 550.479 Q32.4621 555.19 36.1542 557.927 Q39.8145 560.664 46.212 560.664 Q52.6095 560.664 56.3017 557.959 Q59.9619 555.222 59.9619 550.479 Q59.9619 545.8 56.2698 543.063 Q52.5777 540.326 46.212 540.326 Q39.8781 540.326 36.186 543.063 Q32.4621 545.8 32.4621 550.479 M27.4968 550.479 Q27.4968 542.84 32.4621 538.48 Q37.4273 534.119 46.212 534.119 Q54.9649 534.119 59.9619 538.48 Q64.9272 542.84 64.9272 550.479 Q64.9272 558.15 59.9619 562.51 Q54.9649 566.839 46.212 566.839 Q37.4273 566.839 32.4621 562.51 Q27.4968 558.15 27.4968 550.479 Z" fill="#000000" fill-rule="nonzero" fill-opacity="1" /><path clip-path="url(#clip210)" d="M33.8307 503.755 Q33.2578 504.742 33.0032 505.919 Q32.7167 507.065 32.7167 508.465 Q32.7167 513.431 35.9632 516.104 Q39.1779 518.746 45.2253 518.746 L64.0042 518.746 L64.0042 524.634 L28.3562 524.634 L28.3562 518.746 L33.8944 518.746 Q30.6479 516.9 29.0883 513.94 Q27.4968 510.98 27.4968 506.747 Q27.4968 506.142 27.5923 505.41 Q27.656 504.678 27.8151 503.787 L33.8307 503.755 Z" fill="#000000" fill-rule="nonzero" fill-opacity="1" /><polyline clip-path="url(#clip212)" style="stroke:#009af9; stroke-linecap:round; stroke-linejoin:round; stroke-width:4; stroke-opacity:1; fill:none" points="335.627,47.2441 580.424,285.525 825.221,568.732 1070.02,881.169 1314.82,972.295 1559.61,972.286 1804.41,972.585 2049.21,972.346 2294,972.505 "/>
<line clip-path="url(#clip212)" x1="335.627" y1="47.2441" x2="319.627" y2="31.2441" style="stroke:#009af9; stroke-width:4; stroke-opacity:1"/>
<line clip-path="url(#clip212)" x1="335.627" y1="47.2441" x2="319.627" y2="63.2441" style="stroke:#009af9; stroke-width:4; stroke-opacity:1"/>
<line clip-path="url(#clip212)" x1="335.627" y1="47.2441" x2="351.627" y2="63.2441" style="stroke:#009af9; stroke-width:4; stroke-opacity:1"/>
<line clip-path="url(#clip212)" x1="335.627" y1="47.2441" x2="351.627" y2="31.2441" style="stroke:#009af9; stroke-width:4; stroke-opacity:1"/>
<line clip-path="url(#clip212)" x1="580.424" y1="285.525" x2="564.424" y2="269.525" style="stroke:#009af9; stroke-width:4; stroke-opacity:1"/>
<line clip-path="url(#clip212)" x1="580.424" y1="285.525" x2="564.424" y2="301.525" style="stroke:#009af9; stroke-width:4; stroke-opacity:1"/>
<line clip-path="url(#clip212)" x1="580.424" y1="285.525" x2="596.424" y2="301.525" style="stroke:#009af9; stroke-width:4; stroke-opacity:1"/>
<line clip-path="url(#clip212)" x1="580.424" y1="285.525" x2="596.424" y2="269.525" style="stroke:#009af9; stroke-width:4; stroke-opacity:1"/>
<line clip-path="url(#clip212)" x1="825.221" y1="568.732" x2="809.221" y2="552.732" style="stroke:#009af9; stroke-width:4; stroke-opacity:1"/>
<line clip-path="url(#clip212)" x1="825.221" y1="568.732" x2="809.221" y2="584.732" style="stroke:#009af9; stroke-width:4; stroke-opacity:1"/>
<line clip-path="url(#clip212)" x1="825.221" y1="568.732" x2="841.221" y2="584.732" style="stroke:#009af9; stroke-width:4; stroke-opacity:1"/>
<line clip-path="url(#clip212)" x1="825.221" y1="568.732" x2="841.221" y2="552.732" style="stroke:#009af9; stroke-width:4; stroke-opacity:1"/>
<line clip-path="url(#clip212)" x1="1070.02" y1="881.169" x2="1054.02" y2="865.169" style="stroke:#009af9; stroke-width:4; stroke-opacity:1"/>
<line clip-path="url(#clip212)" x1="1070.02" y1="881.169" x2="1054.02" y2="897.169" style="stroke:#009af9; stroke-width:4; stroke-opacity:1"/>
<line clip-path="url(#clip212)" x1="1070.02" y1="881.169" x2="1086.02" y2="897.169" style="stroke:#009af9; stroke-width:4; stroke-opacity:1"/>
<line clip-path="url(#clip212)" x1="1070.02" y1="881.169" x2="1086.02" y2="865.169" style="stroke:#009af9; stroke-width:4; stroke-opacity:1"/>
<line clip-path="url(#clip212)" x1="1314.82" y1="972.295" x2="1298.82" y2="956.295" style="stroke:#009af9; stroke-width:4; stroke-opacity:1"/>
<line clip-path="url(#clip212)" x1="1314.82" y1="972.295" x2="1298.82" y2="988.295" style="stroke:#009af9; stroke-width:4; stroke-opacity:1"/>
<line clip-path="url(#clip212)" x1="1314.82" y1="972.295" x2="1330.82" y2="988.295" style="stroke:#009af9; stroke-width:4; stroke-opacity:1"/>
<line clip-path="url(#clip212)" x1="1314.82" y1="972.295" x2="1330.82" y2="956.295" style="stroke:#009af9; stroke-width:4; stroke-opacity:1"/>
<line clip-path="url(#clip212)" x1="1559.61" y1="972.286" x2="1543.61" y2="956.286" style="stroke:#009af9; stroke-width:4; stroke-opacity:1"/>
<line clip-path="url(#clip212)" x1="1559.61" y1="972.286" x2="1543.61" y2="988.286" style="stroke:#009af9; stroke-width:4; stroke-opacity:1"/>
<line clip-path="url(#clip212)" x1="1559.61" y1="972.286" x2="1575.61" y2="988.286" style="stroke:#009af9; stroke-width:4; stroke-opacity:1"/>
<line clip-path="url(#clip212)" x1="1559.61" y1="972.286" x2="1575.61" y2="956.286" style="stroke:#009af9; stroke-width:4; stroke-opacity:1"/>
<line clip-path="url(#clip212)" x1="1804.41" y1="972.585" x2="1788.41" y2="956.585" style="stroke:#009af9; stroke-width:4; stroke-opacity:1"/>
<line clip-path="url(#clip212)" x1="1804.41" y1="972.585" x2="1788.41" y2="988.585" style="stroke:#009af9; stroke-width:4; stroke-opacity:1"/>
<line clip-path="url(#clip212)" x1="1804.41" y1="972.585" x2="1820.41" y2="988.585" style="stroke:#009af9; stroke-width:4; stroke-opacity:1"/>
<line clip-path="url(#clip212)" x1="1804.41" y1="972.585" x2="1820.41" y2="956.585" style="stroke:#009af9; stroke-width:4; stroke-opacity:1"/>
<line clip-path="url(#clip212)" x1="2049.21" y1="972.346" x2="2033.21" y2="956.346" style="stroke:#009af9; stroke-width:4; stroke-opacity:1"/>
<line clip-path="url(#clip212)" x1="2049.21" y1="972.346" x2="2033.21" y2="988.346" style="stroke:#009af9; stroke-width:4; stroke-opacity:1"/>
<line clip-path="url(#clip212)" x1="2049.21" y1="972.346" x2="2065.21" y2="988.346" style="stroke:#009af9; stroke-width:4; stroke-opacity:1"/>
<line clip-path="url(#clip212)" x1="2049.21" y1="972.346" x2="2065.21" y2="956.346" style="stroke:#009af9; stroke-width:4; stroke-opacity:1"/>
<line clip-path="url(#clip212)" x1="2294" y1="972.505" x2="2278" y2="956.505" style="stroke:#009af9; stroke-width:4; stroke-opacity:1"/>
<line clip-path="url(#clip212)" x1="2294" y1="972.505" x2="2278" y2="988.505" style="stroke:#009af9; stroke-width:4; stroke-opacity:1"/>
<line clip-path="url(#clip212)" x1="2294" y1="972.505" x2="2310" y2="988.505" style="stroke:#009af9; stroke-width:4; stroke-opacity:1"/>
<line clip-path="url(#clip212)" x1="2294" y1="972.505" x2="2310" y2="956.505" style="stroke:#009af9; stroke-width:4; stroke-opacity:1"/>
</svg>
