<?xml version="1.0" encoding="utf-8"?>
<svg xmlns="http://www.w3.org/2000/svg" xmlns:xlink="http://www.w3.org/1999/xlink" width="600" height="400" viewBox="0 0 2400 1600">
<defs>
  <clipPath id="clip270">
    <rect x="0" y="0" width="2400" height="1600"/>
  </clipPath>
</defs>
<path clip-path="url(#clip270)" d="M0 1600 L2400 1600 L2400 0 L0 0  Z" fill="#ffffff" fill-rule="evenodd" fill-opacity="1"/>
<defs>
  <clipPath id="clip271">
    <rect x="480" y="0" width="1681" height="1600"/>
  </clipPath>
</defs>
<path clip-path="url(#clip270)" d="M192.339 1486.45 L2352.76 1486.45 L2352.76 47.2441 L192.339 47.2441  Z" fill="#ffffff" fill-rule="evenodd" fill-opacity="1"/>
<defs>
  <clipPath id="clip272">
    <rect x="192" y="47" width="2161" height="1440"/>
  </clipPath>
</defs>
<polyline clip-path="url(#clip272)" style="stroke:#000000; stroke-linecap:round; stroke-linejoin:round; stroke-width:2; stroke-opacity:0.1; fill:none" points="192.339,1486.45 192.339,47.2441 "/>
<polyline clip-path="url(#clip272)" style="stroke:#000000; stroke-linecap:round; stroke-linejoin:round; stroke-width:2; stroke-opacity:0.1; fill:none" points="732.443,1486.45 732.443,47.2441 "/>
<polyline clip-path="url(#clip272)" style="stroke:#000000; stroke-linecap:round; stroke-linejoin:round; stroke-width:2; stroke-opacity:0.1; fill:none" points="1272.55,1486.45 1272.55,47.2441 "/>
<polyline clip-path="url(#clip272)" style="stroke:#000000; stroke-linecap:round; stroke-linejoin:round; stroke-width:2; stroke-opacity:0.1; fill:none" points="1812.65,1486.45 1812.65,47.2441 "/>
<polyline clip-path="url(#clip272)" style="stroke:#000000; stroke-linecap:round; stroke-linejoin:round; stroke-width:2; stroke-opacity:0.1; fill:none" points="2352.76,1486.45 2352.76,47.2441 "/>
<polyline clip-path="url(#clip272)" style="stroke:#000000; stroke-linecap:round; stroke-linejoin:round; stroke-width:2; stroke-opacity:0.1; fill:none" points="192.339,1238.06 2352.76,1238.06 "/>
<polyline clip-path="url(#clip272)" style="stroke:#000000; stroke-linecap:round; stroke-linejoin:round; stroke-width:2; stroke-opacity:0.1; fill:none" points="192.339,972.46 2352.76,972.46 "/>
<polyline clip-path="url(#clip272)" style="stroke:#000000; stroke-linecap:round; stroke-linejoin:round; stroke-width:2; stroke-opacity:0.1; fill:none" points="192.339,706.861 2352.76,706.861 "/>
<polyline clip-path="url(#clip272)" style="stroke:#000000; stroke-linecap:round; stroke-linejoin:round; stroke-width:2; stroke-opacity:0.1; fill:none" points="192.339,441.261 2352.76,441.261 "/>
<polyline clip-path="url(#clip272)" style="stroke:#000000; stroke-linecap:round; stroke-linejoin:round; stroke-width:2; stroke-opacity:0.1; fill:none" points="192.339,175.662 2352.76,175.662 "/>
<polyline clip-path="url(#clip270)" style="stroke:#000000; stroke-linecap:round; stroke-linejoin:round; stroke-width:4; stroke-opacity:1; fill:none" points="192.339,1486.45 2352.76,1486.45 "/>
<polyline clip-path="url(#clip270)" style="stroke:#000000; stroke-linecap:round; stroke-linejoin:round; stroke-width:4; stroke-opacity:1; fill:none" points="192.339,1486.45 192.339,1467.55 "/>
<polyline clip-path="url(#clip270)" style="stroke:#000000; stroke-linecap:round; stroke-linejoin:round; stroke-width:4; stroke-opacity:1; fill:none" points="732.443,1486.45 732.443,1467.55 "/>
<polyline clip-path="url(#clip270)" style="stroke:#000000; stroke-linecap:round; stroke-linejoin:round; stroke-width:4; stroke-opacity:1; fill:none" points="1272.55,1486.45 1272.55,1467.55 "/>
<polyline clip-path="url(#clip270)" style="stroke:#000000; stroke-linecap:round; stroke-linejoin:round; stroke-width:4; stroke-opacity:1; fill:none" points="1812.65,1486.45 1812.65,1467.55 "/>
<polyline clip-path="url(#clip270)" style="stroke:#000000; stroke-linecap:round; stroke-linejoin:round; stroke-width:4; stroke-opacity:1; fill:none" points="2352.76,1486.45 2352.76,1467.55 "/>
<path clip-path="url(#clip270)" d="M146.402 1532.02 L176.077 1532.02 L176.077 1535.95 L146.402 1535.95 L146.402 1532.02 Z" fill="#000000" fill-rule="nonzero" fill-opacity="1" /><path clip-path="url(#clip270)" d="M186.98 1544.91 L194.619 1544.91 L194.619 1518.55 L186.309 1520.21 L186.309 1515.95 L194.573 1514.29 L199.248 1514.29 L199.248 1544.91 L206.887 1544.91 L206.887 1548.85 L186.98 1548.85 L186.98 1544.91 Z" fill="#000000" fill-rule="nonzero" fill-opacity="1" /><path clip-path="url(#clip270)" d="M226.332 1517.37 Q222.721 1517.37 220.892 1520.93 Q219.086 1524.47 219.086 1531.6 Q219.086 1538.71 220.892 1542.27 Q222.721 1545.82 226.332 1545.82 Q229.966 1545.82 231.771 1542.27 Q233.6 1538.71 233.6 1531.6 Q233.6 1524.47 231.771 1520.93 Q229.966 1517.37 226.332 1517.37 M226.332 1513.66 Q232.142 1513.66 235.197 1518.27 Q238.276 1522.85 238.276 1531.6 Q238.276 1540.33 235.197 1544.94 Q232.142 1549.52 226.332 1549.52 Q220.522 1549.52 217.443 1544.94 Q214.387 1540.33 214.387 1531.6 Q214.387 1522.85 217.443 1518.27 Q220.522 1513.66 226.332 1513.66 Z" fill="#000000" fill-rule="nonzero" fill-opacity="1" /><path clip-path="url(#clip270)" d="M702.084 1532.02 L731.76 1532.02 L731.76 1535.95 L702.084 1535.95 L702.084 1532.02 Z" fill="#000000" fill-rule="nonzero" fill-opacity="1" /><path clip-path="url(#clip270)" d="M741.899 1514.29 L760.255 1514.29 L760.255 1518.22 L746.181 1518.22 L746.181 1526.7 Q747.2 1526.35 748.218 1526.19 Q749.237 1526 750.255 1526 Q756.042 1526 759.422 1529.17 Q762.802 1532.34 762.802 1537.76 Q762.802 1543.34 759.329 1546.44 Q755.857 1549.52 749.538 1549.52 Q747.362 1549.52 745.093 1549.15 Q742.848 1548.78 740.441 1548.04 L740.441 1543.34 Q742.524 1544.47 744.746 1545.03 Q746.968 1545.58 749.445 1545.58 Q753.45 1545.58 755.788 1543.48 Q758.126 1541.37 758.126 1537.76 Q758.126 1534.15 755.788 1532.04 Q753.45 1529.94 749.445 1529.94 Q747.57 1529.94 745.695 1530.35 Q743.843 1530.77 741.899 1531.65 L741.899 1514.29 Z" fill="#000000" fill-rule="nonzero" fill-opacity="1" /><path clip-path="url(#clip270)" d="M1272.55 1517.37 Q1268.94 1517.37 1267.11 1520.93 Q1265.3 1524.47 1265.3 1531.6 Q1265.3 1538.71 1267.11 1542.27 Q1268.94 1545.82 1272.55 1545.82 Q1276.18 1545.82 1277.99 1542.27 Q1279.82 1538.71 1279.82 1531.6 Q1279.82 1524.47 1277.99 1520.93 Q1276.18 1517.37 1272.55 1517.37 M1272.55 1513.66 Q1278.36 1513.66 1281.41 1518.27 Q1284.49 1522.85 1284.49 1531.6 Q1284.49 1540.33 1281.41 1544.94 Q1278.36 1549.52 1272.55 1549.52 Q1266.74 1549.52 1263.66 1544.94 Q1260.6 1540.33 1260.6 1531.6 Q1260.6 1522.85 1263.66 1518.27 Q1266.74 1513.66 1272.55 1513.66 Z" fill="#000000" fill-rule="nonzero" fill-opacity="1" /><path clip-path="url(#clip270)" d="M1802.93 1514.29 L1821.29 1514.29 L1821.29 1518.22 L1807.21 1518.22 L1807.21 1526.7 Q1808.23 1526.35 1809.25 1526.19 Q1810.27 1526 1811.29 1526 Q1817.07 1526 1820.45 1529.17 Q1823.83 1532.34 1823.83 1537.76 Q1823.83 1543.34 1820.36 1546.44 Q1816.89 1549.52 1810.57 1549.52 Q1808.39 1549.52 1806.12 1549.15 Q1803.88 1548.78 1801.47 1548.04 L1801.47 1543.34 Q1803.55 1544.47 1805.78 1545.03 Q1808 1545.58 1810.48 1545.58 Q1814.48 1545.58 1816.82 1543.48 Q1819.16 1541.37 1819.16 1537.76 Q1819.16 1534.15 1816.82 1532.04 Q1814.48 1529.94 1810.48 1529.94 Q1808.6 1529.94 1806.73 1530.35 Q1804.87 1530.77 1802.93 1531.65 L1802.93 1514.29 Z" fill="#000000" fill-rule="nonzero" fill-opacity="1" /><path clip-path="url(#clip270)" d="M2327.44 1544.91 L2335.08 1544.91 L2335.08 1518.55 L2326.77 1520.21 L2326.77 1515.95 L2335.04 1514.29 L2339.71 1514.29 L2339.71 1544.91 L2347.35 1544.91 L2347.35 1548.85 L2327.44 1548.85 L2327.44 1544.91 Z" fill="#000000" fill-rule="nonzero" fill-opacity="1" /><path clip-path="url(#clip270)" d="M2366.8 1517.37 Q2363.18 1517.37 2361.36 1520.93 Q2359.55 1524.47 2359.55 1531.6 Q2359.55 1538.71 2361.36 1542.27 Q2363.18 1545.82 2366.8 1545.82 Q2370.43 1545.82 2372.23 1542.27 Q2374.06 1538.71 2374.06 1531.6 Q2374.06 1524.47 2372.23 1520.93 Q2370.43 1517.37 2366.8 1517.37 M2366.8 1513.66 Q2372.61 1513.66 2375.66 1518.27 Q2378.74 1522.85 2378.74 1531.6 Q2378.74 1540.33 2375.66 1544.94 Q2372.61 1549.52 2366.8 1549.52 Q2360.99 1549.52 2357.91 1544.94 Q2354.85 1540.33 2354.85 1531.6 Q2354.85 1522.85 2357.91 1518.27 Q2360.99 1513.66 2366.8 1513.66 Z" fill="#000000" fill-rule="nonzero" fill-opacity="1" /><polyline clip-path="url(#clip270)" style="stroke:#000000; stroke-linecap:round; stroke-linejoin:round; stroke-width:4; stroke-opacity:1; fill:none" points="192.339,1486.45 192.339,47.2441 "/>
<polyline clip-path="url(#clip270)" style="stroke:#000000; stroke-linecap:round; stroke-linejoin:round; stroke-width:4; stroke-opacity:1; fill:none" points="192.339,1238.06 211.236,1238.06 "/>
<polyline clip-path="url(#clip270)" style="stroke:#000000; stroke-linecap:round; stroke-linejoin:round; stroke-width:4; stroke-opacity:1; fill:none" points="192.339,972.46 211.236,972.46 "/>
<polyline clip-path="url(#clip270)" style="stroke:#000000; stroke-linecap:round; stroke-linejoin:round; stroke-width:4; stroke-opacity:1; fill:none" points="192.339,706.861 211.236,706.861 "/>
<polyline clip-path="url(#clip270)" style="stroke:#000000; stroke-linecap:round; stroke-linejoin:round; stroke-width:4; stroke-opacity:1; fill:none" points="192.339,441.261 211.236,441.261 "/>
<polyline clip-path="url(#clip270)" style="stroke:#000000; stroke-linecap:round; stroke-linejoin:round; stroke-width:4; stroke-opacity:1; fill:none" points="192.339,175.662 211.236,175.662 "/>
<path clip-path="url(#clip270)" d="M50.9921 1238.51 L80.6679 1238.51 L80.6679 1242.45 L50.9921 1242.45 L50.9921 1238.51 Z" fill="#000000" fill-rule="nonzero" fill-opacity="1" /><path clip-path="url(#clip270)" d="M100.76 1223.86 Q97.1493 1223.86 95.3206 1227.42 Q93.515 1230.96 93.515 1238.09 Q93.515 1245.2 95.3206 1248.76 Q97.1493 1252.31 100.76 1252.31 Q104.395 1252.31 106.2 1248.76 Q108.029 1245.2 108.029 1238.09 Q108.029 1230.96 106.2 1227.42 Q104.395 1223.86 100.76 1223.86 M100.76 1220.15 Q106.571 1220.15 109.626 1224.76 Q112.705 1229.34 112.705 1238.09 Q112.705 1246.82 109.626 1251.43 Q106.571 1256.01 100.76 1256.01 Q94.9502 1256.01 91.8715 1251.43 Q88.816 1246.82 88.816 1238.09 Q88.816 1229.34 91.8715 1224.76 Q94.9502 1220.15 100.76 1220.15 Z" fill="#000000" fill-rule="nonzero" fill-opacity="1" /><path clip-path="url(#clip270)" d="M120.922 1249.46 L125.807 1249.46 L125.807 1255.34 L120.922 1255.34 L120.922 1249.46 Z" fill="#000000" fill-rule="nonzero" fill-opacity="1" /><path clip-path="url(#clip270)" d="M140.019 1251.4 L156.339 1251.4 L156.339 1255.34 L134.394 1255.34 L134.394 1251.4 Q137.056 1248.65 141.64 1244.02 Q146.246 1239.37 147.427 1238.02 Q149.672 1235.5 150.552 1233.76 Q151.455 1232.01 151.455 1230.32 Q151.455 1227.56 149.51 1225.83 Q147.589 1224.09 144.487 1224.09 Q142.288 1224.09 139.834 1224.85 Q137.404 1225.62 134.626 1227.17 L134.626 1222.45 Q137.45 1221.31 139.904 1220.73 Q142.357 1220.15 144.394 1220.15 Q149.765 1220.15 152.959 1222.84 Q156.154 1225.52 156.154 1230.01 Q156.154 1232.14 155.343 1234.07 Q154.556 1235.96 152.45 1238.56 Q151.871 1239.23 148.769 1242.45 Q145.668 1245.64 140.019 1251.4 Z" fill="#000000" fill-rule="nonzero" fill-opacity="1" /><path clip-path="url(#clip270)" d="M99.1632 958.258 Q95.5521 958.258 93.7234 961.823 Q91.9178 965.365 91.9178 972.494 Q91.9178 979.601 93.7234 983.166 Q95.5521 986.707 99.1632 986.707 Q102.797 986.707 104.603 983.166 Q106.432 979.601 106.432 972.494 Q106.432 965.365 104.603 961.823 Q102.797 958.258 99.1632 958.258 M99.1632 954.555 Q104.973 954.555 108.029 959.161 Q111.108 963.744 111.108 972.494 Q111.108 981.221 108.029 985.828 Q104.973 990.411 99.1632 990.411 Q93.353 990.411 90.2743 985.828 Q87.2188 981.221 87.2188 972.494 Q87.2188 963.744 90.2743 959.161 Q93.353 954.555 99.1632 954.555 Z" fill="#000000" fill-rule="nonzero" fill-opacity="1" /><path clip-path="url(#clip270)" d="M119.325 983.86 L124.209 983.86 L124.209 989.74 L119.325 989.74 L119.325 983.86 Z" fill="#000000" fill-rule="nonzero" fill-opacity="1" /><path clip-path="url(#clip270)" d="M144.394 958.258 Q140.783 958.258 138.955 961.823 Q137.149 965.365 137.149 972.494 Q137.149 979.601 138.955 983.166 Q140.783 986.707 144.394 986.707 Q148.029 986.707 149.834 983.166 Q151.663 979.601 151.663 972.494 Q151.663 965.365 149.834 961.823 Q148.029 958.258 144.394 958.258 M144.394 954.555 Q150.205 954.555 153.26 959.161 Q156.339 963.744 156.339 972.494 Q156.339 981.221 153.26 985.828 Q150.205 990.411 144.394 990.411 Q138.584 990.411 135.506 985.828 Q132.45 981.221 132.45 972.494 Q132.45 963.744 135.506 959.161 Q138.584 954.555 144.394 954.555 Z" fill="#000000" fill-rule="nonzero" fill-opacity="1" /><path clip-path="url(#clip270)" d="M100.76 692.659 Q97.1493 692.659 95.3206 696.224 Q93.515 699.766 93.515 706.895 Q93.515 714.002 95.3206 717.566 Q97.1493 721.108 100.76 721.108 Q104.395 721.108 106.2 717.566 Q108.029 714.002 108.029 706.895 Q108.029 699.766 106.2 696.224 Q104.395 692.659 100.76 692.659 M100.76 688.956 Q106.571 688.956 109.626 693.562 Q112.705 698.145 112.705 706.895 Q112.705 715.622 109.626 720.229 Q106.571 724.812 100.76 724.812 Q94.9502 724.812 91.8715 720.229 Q88.816 715.622 88.816 706.895 Q88.816 698.145 91.8715 693.562 Q94.9502 688.956 100.76 688.956 Z" fill="#000000" fill-rule="nonzero" fill-opacity="1" /><path clip-path="url(#clip270)" d="M120.922 718.261 L125.807 718.261 L125.807 724.141 L120.922 724.141 L120.922 718.261 Z" fill="#000000" fill-rule="nonzero" fill-opacity="1" /><path clip-path="url(#clip270)" d="M140.019 720.205 L156.339 720.205 L156.339 724.141 L134.394 724.141 L134.394 720.205 Q137.056 717.451 141.64 712.821 Q146.246 708.168 147.427 706.826 Q149.672 704.303 150.552 702.567 Q151.455 700.807 151.455 699.118 Q151.455 696.363 149.51 694.627 Q147.589 692.891 144.487 692.891 Q142.288 692.891 139.834 693.655 Q137.404 694.418 134.626 695.969 L134.626 691.247 Q137.45 690.113 139.904 689.534 Q142.357 688.956 144.394 688.956 Q149.765 688.956 152.959 691.641 Q156.154 694.326 156.154 698.817 Q156.154 700.946 155.343 702.867 Q154.556 704.766 152.45 707.358 Q151.871 708.029 148.769 711.247 Q145.668 714.441 140.019 720.205 Z" fill="#000000" fill-rule="nonzero" fill-opacity="1" /><path clip-path="url(#clip270)" d="M98.6771 427.06 Q95.066 427.06 93.2373 430.625 Q91.4317 434.166 91.4317 441.296 Q91.4317 448.403 93.2373 451.967 Q95.066 455.509 98.6771 455.509 Q102.311 455.509 104.117 451.967 Q105.946 448.403 105.946 441.296 Q105.946 434.166 104.117 430.625 Q102.311 427.06 98.6771 427.06 M98.6771 423.356 Q104.487 423.356 107.543 427.963 Q110.621 432.546 110.621 441.296 Q110.621 450.023 107.543 454.629 Q104.487 459.213 98.6771 459.213 Q92.8669 459.213 89.7882 454.629 Q86.7327 450.023 86.7327 441.296 Q86.7327 432.546 89.7882 427.963 Q92.8669 423.356 98.6771 423.356 Z" fill="#000000" fill-rule="nonzero" fill-opacity="1" /><path clip-path="url(#clip270)" d="M118.839 452.662 L123.723 452.662 L123.723 458.541 L118.839 458.541 L118.839 452.662 Z" fill="#000000" fill-rule="nonzero" fill-opacity="1" /><path clip-path="url(#clip270)" d="M146.756 428.055 L134.95 446.504 L146.756 446.504 L146.756 428.055 M145.529 423.981 L151.408 423.981 L151.408 446.504 L156.339 446.504 L156.339 450.393 L151.408 450.393 L151.408 458.541 L146.756 458.541 L146.756 450.393 L131.154 450.393 L131.154 445.879 L145.529 423.981 Z" fill="#000000" fill-rule="nonzero" fill-opacity="1" /><path clip-path="url(#clip270)" d="M99.0011 161.461 Q95.39 161.461 93.5613 165.026 Q91.7558 168.567 91.7558 175.697 Q91.7558 182.803 93.5613 186.368 Q95.39 189.91 99.0011 189.91 Q102.635 189.91 104.441 186.368 Q106.27 182.803 106.27 175.697 Q106.27 168.567 104.441 165.026 Q102.635 161.461 99.0011 161.461 M99.0011 157.757 Q104.811 157.757 107.867 162.364 Q110.946 166.947 110.946 175.697 Q110.946 184.424 107.867 189.03 Q104.811 193.613 99.0011 193.613 Q93.191 193.613 90.1123 189.03 Q87.0567 184.424 87.0567 175.697 Q87.0567 166.947 90.1123 162.364 Q93.191 157.757 99.0011 157.757 Z" fill="#000000" fill-rule="nonzero" fill-opacity="1" /><path clip-path="url(#clip270)" d="M119.163 187.063 L124.047 187.063 L124.047 192.942 L119.163 192.942 L119.163 187.063 Z" fill="#000000" fill-rule="nonzero" fill-opacity="1" /><path clip-path="url(#clip270)" d="M144.811 173.799 Q141.663 173.799 139.811 175.952 Q137.982 178.104 137.982 181.854 Q137.982 185.581 139.811 187.757 Q141.663 189.91 144.811 189.91 Q147.959 189.91 149.788 187.757 Q151.64 185.581 151.64 181.854 Q151.64 178.104 149.788 175.952 Q147.959 173.799 144.811 173.799 M154.093 159.146 L154.093 163.405 Q152.334 162.572 150.529 162.132 Q148.746 161.692 146.987 161.692 Q142.357 161.692 139.904 164.817 Q137.473 167.942 137.126 174.262 Q138.492 172.248 140.552 171.183 Q142.612 170.095 145.089 170.095 Q150.297 170.095 153.306 173.266 Q156.339 176.414 156.339 181.854 Q156.339 187.178 153.191 190.396 Q150.043 193.613 144.811 193.613 Q138.816 193.613 135.644 189.03 Q132.473 184.424 132.473 175.697 Q132.473 167.502 136.362 162.641 Q140.251 157.757 146.802 157.757 Q148.561 157.757 150.343 158.104 Q152.149 158.452 154.093 159.146 Z" fill="#000000" fill-rule="nonzero" fill-opacity="1" /><polyline clip-path="url(#clip272)" style="stroke:#009af9; stroke-linecap:round; stroke-linejoin:round; stroke-width:4; stroke-opacity:1; fill:none" points="1272.55,87.9763 1380.57,1445.72 1488.59,877.242 1596.61,981.971 1704.63,971.901 1812.65,972.481 1920.67,972.459 2028.69,972.46 2136.71,972.46 2244.74,972.46 2352.76,972.46 2460.78,972.46 2568.8,972.46 2676.82,972.46 2784.84,972.46 2892.86,972.46 3000.88,972.46 3108.9,972.46 3216.92,972.46 3324.94,972.46 3432.96,972.46 3540.99,972.46 3649.01,972.46 3757.03,972.46 3865.05,972.46 3973.07,972.46 4081.09,972.46 4189.11,972.46 4297.13,972.46 4405.15,972.46 4513.17,972.46 4621.19,972.46 -2076.1,972.46 -1968.08,972.46 -1860.06,972.46 -1752.04,972.46 -1644.02,972.46 -1535.99,972.46 -1427.97,972.46 -1319.95,972.46 -1211.93,972.46 -1103.91,972.46 -995.891,972.46 -887.87,972.46 -779.849,972.46 -671.828,972.46 -563.807,972.46 -455.786,972.46 -347.765,972.46 -239.745,972.46 -131.724,972.46 -23.7029,972.46 84.3179,972.46 192.339,972.46 300.36,972.46 408.38,972.46 516.401,972.46 624.422,972.459 732.443,972.481 840.464,971.901 948.485,981.971 1056.51,877.242 1164.53,1445.72 "/>
<polyline clip-path="url(#clip272)" style="stroke:#e26f46; stroke-linecap:round; stroke-linejoin:round; stroke-width:4; stroke-opacity:1; fill:none" points="1272.55,404.406 1380.57,1276.41 1488.59,911.307 1596.61,978.568 1704.63,972.101 1812.65,972.473 1920.67,972.459 2028.69,972.46 2136.71,972.46 2244.74,972.46 2352.76,972.46 2460.78,972.46 2568.8,972.46 2676.82,972.46 2784.84,972.46 2892.86,972.46 3000.88,972.46 3108.9,972.46 3216.92,972.46 3324.94,972.46 3432.96,972.46 3540.99,972.46 3649.01,972.46 3757.03,972.46 3865.05,972.46 3973.07,972.46 4081.09,972.46 4189.11,972.46 4297.13,972.46 4405.15,972.46 4513.17,972.46 4621.19,972.46 -2076.1,972.46 -1968.08,972.46 -1860.06,972.46 -1752.04,972.46 -1644.02,972.46 -1535.99,972.46 -1427.97,972.46 -1319.95,972.46 -1211.93,972.46 -1103.91,972.46 -995.891,972.46 -887.87,972.46 -779.849,972.46 -671.828,972.46 -563.807,972.46 -455.786,972.46 -347.765,972.46 -239.745,972.46 -131.724,972.46 -23.7029,972.46 84.3179,972.46 192.339,972.46 300.36,972.46 408.38,972.46 516.401,972.46 624.422,972.459 732.443,972.473 840.464,972.101 948.485,978.568 1056.51,911.307 1164.53,1276.41 "/>
<path clip-path="url(#clip270)" d="M1719.7 250.738 L2280.74 250.738 L2280.74 95.2176 L1719.7 95.2176  Z" fill="#ffffff" fill-rule="evenodd" fill-opacity="1"/>
<polyline clip-path="url(#clip270)" style="stroke:#000000; stroke-linecap:round; stroke-linejoin:round; stroke-width:4; stroke-opacity:1; fill:none" points="1719.7,250.738 2280.74,250.738 2280.74,95.2176 1719.7,95.2176 1719.7,250.738 "/>
<polyline clip-path="url(#clip270)" style="stroke:#009af9; stroke-linecap:round; stroke-linejoin:round; stroke-width:4; stroke-opacity:1; fill:none" points="1743.71,147.058 1887.73,147.058 "/>
<path clip-path="url(#clip270)" d="M1926.92 142.393 Q1926.21 141.977 1925.35 141.791 Q1924.52 141.583 1923.5 141.583 Q1919.89 141.583 1917.94 143.944 Q1916.02 146.282 1916.02 150.68 L1916.02 164.338 L1911.74 164.338 L1911.74 138.412 L1916.02 138.412 L1916.02 142.44 Q1917.36 140.078 1919.52 138.944 Q1921.67 137.787 1924.75 137.787 Q1925.19 137.787 1925.72 137.856 Q1926.25 137.903 1926.9 138.018 L1926.92 142.393 Z" fill="#000000" fill-rule="nonzero" fill-opacity="1" /><path clip-path="url(#clip270)" d="M1952.53 150.31 L1952.53 152.393 L1932.94 152.393 Q1933.22 156.791 1935.58 159.106 Q1937.97 161.398 1942.2 161.398 Q1944.66 161.398 1946.95 160.796 Q1949.26 160.194 1951.53 158.99 L1951.53 163.018 Q1949.24 163.99 1946.83 164.5 Q1944.42 165.009 1941.95 165.009 Q1935.74 165.009 1932.11 161.398 Q1928.5 157.787 1928.5 151.629 Q1928.5 145.264 1931.92 141.537 Q1935.37 137.787 1941.21 137.787 Q1946.44 137.787 1949.47 141.166 Q1952.53 144.523 1952.53 150.31 M1948.27 149.06 Q1948.22 145.565 1946.3 143.481 Q1944.4 141.398 1941.25 141.398 Q1937.69 141.398 1935.54 143.412 Q1933.41 145.426 1933.08 149.083 L1948.27 149.06 Z" fill="#000000" fill-rule="nonzero" fill-opacity="1" /><path clip-path="url(#clip270)" d="M1971.3 151.305 Q1966.14 151.305 1964.15 152.486 Q1962.16 153.666 1962.16 156.514 Q1962.16 158.782 1963.64 160.125 Q1965.14 161.444 1967.71 161.444 Q1971.25 161.444 1973.38 158.944 Q1975.54 156.421 1975.54 152.254 L1975.54 151.305 L1971.3 151.305 M1979.79 149.546 L1979.79 164.338 L1975.54 164.338 L1975.54 160.402 Q1974.08 162.763 1971.9 163.898 Q1969.73 165.009 1966.58 165.009 Q1962.6 165.009 1960.23 162.787 Q1957.9 160.541 1957.9 156.791 Q1957.9 152.416 1960.81 150.194 Q1963.75 147.972 1969.56 147.972 L1975.54 147.972 L1975.54 147.555 Q1975.54 144.615 1973.59 143.018 Q1971.67 141.398 1968.17 141.398 Q1965.95 141.398 1963.85 141.93 Q1961.74 142.463 1959.79 143.527 L1959.79 139.592 Q1962.13 138.69 1964.33 138.25 Q1966.53 137.787 1968.61 137.787 Q1974.24 137.787 1977.02 140.703 Q1979.79 143.62 1979.79 149.546 Z" fill="#000000" fill-rule="nonzero" fill-opacity="1" /><path clip-path="url(#clip270)" d="M1988.57 128.319 L1992.83 128.319 L1992.83 164.338 L1988.57 164.338 L1988.57 128.319 Z" fill="#000000" fill-rule="nonzero" fill-opacity="1" /><path clip-path="url(#clip270)" d="M2020.93 160.449 L2020.93 174.199 L2016.65 174.199 L2016.65 138.412 L2020.93 138.412 L2020.93 142.347 Q2022.27 140.032 2024.31 138.921 Q2026.37 137.787 2029.22 137.787 Q2033.94 137.787 2036.88 141.537 Q2039.84 145.287 2039.84 151.398 Q2039.84 157.509 2036.88 161.259 Q2033.94 165.009 2029.22 165.009 Q2026.37 165.009 2024.31 163.898 Q2022.27 162.763 2020.93 160.449 M2035.42 151.398 Q2035.42 146.699 2033.47 144.037 Q2031.55 141.352 2028.17 141.352 Q2024.79 141.352 2022.85 144.037 Q2020.93 146.699 2020.93 151.398 Q2020.93 156.097 2022.85 158.782 Q2024.79 161.444 2028.17 161.444 Q2031.55 161.444 2033.47 158.782 Q2035.42 156.097 2035.42 151.398 Z" fill="#000000" fill-rule="nonzero" fill-opacity="1" /><path clip-path="url(#clip270)" d="M2058.68 151.305 Q2053.52 151.305 2051.53 152.486 Q2049.54 153.666 2049.54 156.514 Q2049.54 158.782 2051.02 160.125 Q2052.53 161.444 2055.09 161.444 Q2058.64 161.444 2060.77 158.944 Q2062.92 156.421 2062.92 152.254 L2062.92 151.305 L2058.68 151.305 M2067.18 149.546 L2067.18 164.338 L2062.92 164.338 L2062.92 160.402 Q2061.46 162.763 2059.28 163.898 Q2057.11 165.009 2053.96 165.009 Q2049.98 165.009 2047.62 162.787 Q2045.28 160.541 2045.28 156.791 Q2045.28 152.416 2048.2 150.194 Q2051.14 147.972 2056.95 147.972 L2062.92 147.972 L2062.92 147.555 Q2062.92 144.615 2060.97 143.018 Q2059.05 141.398 2055.56 141.398 Q2053.34 141.398 2051.23 141.93 Q2049.12 142.463 2047.18 143.527 L2047.18 139.592 Q2049.52 138.69 2051.72 138.25 Q2053.91 137.787 2056 137.787 Q2061.62 137.787 2064.4 140.703 Q2067.18 143.62 2067.18 149.546 Z" fill="#000000" fill-rule="nonzero" fill-opacity="1" /><path clip-path="url(#clip270)" d="M2090.97 142.393 Q2090.26 141.977 2089.4 141.791 Q2088.57 141.583 2087.55 141.583 Q2083.94 141.583 2081.99 143.944 Q2080.07 146.282 2080.07 150.68 L2080.07 164.338 L2075.79 164.338 L2075.79 138.412 L2080.07 138.412 L2080.07 142.44 Q2081.41 140.078 2083.57 138.944 Q2085.72 137.787 2088.8 137.787 Q2089.24 137.787 2089.77 137.856 Q2090.3 137.903 2090.95 138.018 L2090.97 142.393 Z" fill="#000000" fill-rule="nonzero" fill-opacity="1" /><path clip-path="url(#clip270)" d="M2099.65 131.051 L2099.65 138.412 L2108.43 138.412 L2108.43 141.722 L2099.65 141.722 L2099.65 155.796 Q2099.65 158.967 2100.51 159.87 Q2101.39 160.773 2104.05 160.773 L2108.43 160.773 L2108.43 164.338 L2104.05 164.338 Q2099.12 164.338 2097.25 162.509 Q2095.37 160.657 2095.37 155.796 L2095.37 141.722 L2092.25 141.722 L2092.25 138.412 L2095.37 138.412 L2095.37 131.051 L2099.65 131.051 Z" fill="#000000" fill-rule="nonzero" fill-opacity="1" /><polyline clip-path="url(#clip270)" style="stroke:#e26f46; stroke-linecap:round; stroke-linejoin:round; stroke-width:4; stroke-opacity:1; fill:none" points="1743.71,198.898 1887.73,198.898 "/>
<path clip-path="url(#clip270)" d="M1911.74 190.252 L1916 190.252 L1916 216.178 L1911.74 216.178 L1911.74 190.252 M1911.74 180.159 L1916 180.159 L1916 185.553 L1911.74 185.553 L1911.74 180.159 Z" fill="#000000" fill-rule="nonzero" fill-opacity="1" /><path clip-path="url(#clip270)" d="M1945.1 195.229 Q1946.69 192.358 1948.91 190.993 Q1951.14 189.627 1954.15 189.627 Q1958.2 189.627 1960.4 192.474 Q1962.6 195.298 1962.6 200.529 L1962.6 216.178 L1958.31 216.178 L1958.31 200.668 Q1958.31 196.942 1956.99 195.136 Q1955.67 193.33 1952.97 193.33 Q1949.66 193.33 1947.73 195.53 Q1945.81 197.729 1945.81 201.525 L1945.81 216.178 L1941.53 216.178 L1941.53 200.668 Q1941.53 196.918 1940.21 195.136 Q1938.89 193.33 1936.14 193.33 Q1932.87 193.33 1930.95 195.553 Q1929.03 197.752 1929.03 201.525 L1929.03 216.178 L1924.75 216.178 L1924.75 190.252 L1929.03 190.252 L1929.03 194.28 Q1930.49 191.895 1932.53 190.761 Q1934.56 189.627 1937.36 189.627 Q1940.19 189.627 1942.16 191.062 Q1944.15 192.497 1945.1 195.229 Z" fill="#000000" fill-rule="nonzero" fill-opacity="1" /><path clip-path="url(#clip270)" d="M1982.87 203.145 Q1977.71 203.145 1975.72 204.326 Q1973.73 205.506 1973.73 208.354 Q1973.73 210.622 1975.21 211.965 Q1976.72 213.284 1979.29 213.284 Q1982.83 213.284 1984.96 210.784 Q1987.11 208.261 1987.11 204.094 L1987.11 203.145 L1982.87 203.145 M1991.37 201.386 L1991.37 216.178 L1987.11 216.178 L1987.11 212.242 Q1985.65 214.603 1983.47 215.738 Q1981.3 216.849 1978.15 216.849 Q1974.17 216.849 1971.81 214.627 Q1969.47 212.381 1969.47 208.631 Q1969.47 204.256 1972.39 202.034 Q1975.33 199.812 1981.14 199.812 L1987.11 199.812 L1987.11 199.395 Q1987.11 196.455 1985.16 194.858 Q1983.24 193.238 1979.75 193.238 Q1977.53 193.238 1975.42 193.77 Q1973.31 194.303 1971.37 195.367 L1971.37 191.432 Q1973.71 190.53 1975.91 190.09 Q1978.1 189.627 1980.19 189.627 Q1985.81 189.627 1988.59 192.543 Q1991.37 195.46 1991.37 201.386 Z" fill="#000000" fill-rule="nonzero" fill-opacity="1" /><path clip-path="url(#clip270)" d="M2017.2 202.914 Q2017.2 198.284 2015.28 195.738 Q2013.38 193.192 2009.93 193.192 Q2006.51 193.192 2004.59 195.738 Q2002.69 198.284 2002.69 202.914 Q2002.69 207.52 2004.59 210.066 Q2006.51 212.613 2009.93 212.613 Q2013.38 212.613 2015.28 210.066 Q2017.2 207.52 2017.2 202.914 M2021.46 212.96 Q2021.46 219.58 2018.52 222.798 Q2015.58 226.039 2009.52 226.039 Q2007.27 226.039 2005.28 225.691 Q2003.29 225.367 2001.41 224.673 L2001.41 220.529 Q2003.29 221.548 2005.12 222.034 Q2006.95 222.52 2008.85 222.52 Q2013.03 222.52 2015.12 220.321 Q2017.2 218.145 2017.2 213.724 L2017.2 211.617 Q2015.88 213.909 2013.82 215.043 Q2011.76 216.178 2008.89 216.178 Q2004.12 216.178 2001.21 212.543 Q1998.29 208.909 1998.29 202.914 Q1998.29 196.895 2001.21 193.261 Q2004.12 189.627 2008.89 189.627 Q2011.76 189.627 2013.82 190.761 Q2015.88 191.895 2017.2 194.187 L2017.2 190.252 L2021.46 190.252 L2021.46 212.96 Z" fill="#000000" fill-rule="nonzero" fill-opacity="1" /><path clip-path="url(#clip270)" d="M2030.23 190.252 L2034.49 190.252 L2034.49 216.178 L2030.23 216.178 L2030.23 190.252 M2030.23 180.159 L2034.49 180.159 L2034.49 185.553 L2030.23 185.553 L2030.23 180.159 Z" fill="#000000" fill-rule="nonzero" fill-opacity="1" /><path clip-path="url(#clip270)" d="M2064.96 200.529 L2064.96 216.178 L2060.7 216.178 L2060.7 200.668 Q2060.7 196.988 2059.26 195.159 Q2057.83 193.33 2054.96 193.33 Q2051.51 193.33 2049.52 195.53 Q2047.53 197.729 2047.53 201.525 L2047.53 216.178 L2043.24 216.178 L2043.24 190.252 L2047.53 190.252 L2047.53 194.28 Q2049.05 191.942 2051.11 190.784 Q2053.2 189.627 2055.91 189.627 Q2060.37 189.627 2062.66 192.405 Q2064.96 195.159 2064.96 200.529 Z" fill="#000000" fill-rule="nonzero" fill-opacity="1" /><path clip-path="url(#clip270)" d="M2085.23 203.145 Q2080.07 203.145 2078.08 204.326 Q2076.09 205.506 2076.09 208.354 Q2076.09 210.622 2077.57 211.965 Q2079.08 213.284 2081.65 213.284 Q2085.19 213.284 2087.32 210.784 Q2089.47 208.261 2089.47 204.094 L2089.47 203.145 L2085.23 203.145 M2093.73 201.386 L2093.73 216.178 L2089.47 216.178 L2089.47 212.242 Q2088.01 214.603 2085.84 215.738 Q2083.66 216.849 2080.51 216.849 Q2076.53 216.849 2074.17 214.627 Q2071.83 212.381 2071.83 208.631 Q2071.83 204.256 2074.75 202.034 Q2077.69 199.812 2083.5 199.812 L2089.47 199.812 L2089.47 199.395 Q2089.47 196.455 2087.53 194.858 Q2085.6 193.238 2082.11 193.238 Q2079.89 193.238 2077.78 193.77 Q2075.67 194.303 2073.73 195.367 L2073.73 191.432 Q2076.07 190.53 2078.27 190.09 Q2080.47 189.627 2082.55 189.627 Q2088.17 189.627 2090.95 192.543 Q2093.73 195.46 2093.73 201.386 Z" fill="#000000" fill-rule="nonzero" fill-opacity="1" /><path clip-path="url(#clip270)" d="M2117.53 194.233 Q2116.81 193.817 2115.95 193.631 Q2115.12 193.423 2114.1 193.423 Q2110.49 193.423 2108.54 195.784 Q2106.62 198.122 2106.62 202.52 L2106.62 216.178 L2102.34 216.178 L2102.34 190.252 L2106.62 190.252 L2106.62 194.28 Q2107.97 191.918 2110.12 190.784 Q2112.27 189.627 2115.35 189.627 Q2115.79 189.627 2116.32 189.696 Q2116.85 189.743 2117.5 189.858 L2117.53 194.233 Z" fill="#000000" fill-rule="nonzero" fill-opacity="1" /><path clip-path="url(#clip270)" d="M2132.78 218.585 Q2130.97 223.215 2129.26 224.627 Q2127.55 226.039 2124.68 226.039 L2121.28 226.039 L2121.28 222.474 L2123.78 222.474 Q2125.53 222.474 2126.51 221.64 Q2127.48 220.807 2128.66 217.705 L2129.42 215.761 L2118.94 190.252 L2123.45 190.252 L2131.55 210.529 L2139.65 190.252 L2144.17 190.252 L2132.78 218.585 Z" fill="#000000" fill-rule="nonzero" fill-opacity="1" /><path clip-path="url(#clip270)" d="M2169.24 212.289 L2169.24 226.039 L2164.96 226.039 L2164.96 190.252 L2169.24 190.252 L2169.24 194.187 Q2170.58 191.872 2172.62 190.761 Q2174.68 189.627 2177.52 189.627 Q2182.25 189.627 2185.19 193.377 Q2188.15 197.127 2188.15 203.238 Q2188.15 209.349 2185.19 213.099 Q2182.25 216.849 2177.52 216.849 Q2174.68 216.849 2172.62 215.738 Q2170.58 214.603 2169.24 212.289 M2183.73 203.238 Q2183.73 198.539 2181.78 195.877 Q2179.86 193.192 2176.48 193.192 Q2173.1 193.192 2171.16 195.877 Q2169.24 198.539 2169.24 203.238 Q2169.24 207.937 2171.16 210.622 Q2173.1 213.284 2176.48 213.284 Q2179.86 213.284 2181.78 210.622 Q2183.73 207.937 2183.73 203.238 Z" fill="#000000" fill-rule="nonzero" fill-opacity="1" /><path clip-path="url(#clip270)" d="M2206.99 203.145 Q2201.83 203.145 2199.84 204.326 Q2197.85 205.506 2197.85 208.354 Q2197.85 210.622 2199.33 211.965 Q2200.83 213.284 2203.4 213.284 Q2206.95 213.284 2209.08 210.784 Q2211.23 208.261 2211.23 204.094 L2211.23 203.145 L2206.99 203.145 M2215.49 201.386 L2215.49 216.178 L2211.23 216.178 L2211.23 212.242 Q2209.77 214.603 2207.59 215.738 Q2205.42 216.849 2202.27 216.849 Q2198.29 216.849 2195.93 214.627 Q2193.59 212.381 2193.59 208.631 Q2193.59 204.256 2196.51 202.034 Q2199.45 199.812 2205.26 199.812 L2211.23 199.812 L2211.23 199.395 Q2211.23 196.455 2209.28 194.858 Q2207.36 193.238 2203.87 193.238 Q2201.65 193.238 2199.54 193.77 Q2197.43 194.303 2195.49 195.367 L2195.49 191.432 Q2197.83 190.53 2200.02 190.09 Q2202.22 189.627 2204.31 189.627 Q2209.93 189.627 2212.71 192.543 Q2215.49 195.46 2215.49 201.386 Z" fill="#000000" fill-rule="nonzero" fill-opacity="1" /><path clip-path="url(#clip270)" d="M2239.28 194.233 Q2238.57 193.817 2237.71 193.631 Q2236.88 193.423 2235.86 193.423 Q2232.25 193.423 2230.3 195.784 Q2228.38 198.122 2228.38 202.52 L2228.38 216.178 L2224.1 216.178 L2224.1 190.252 L2228.38 190.252 L2228.38 194.28 Q2229.72 191.918 2231.88 190.784 Q2234.03 189.627 2237.11 189.627 Q2237.55 189.627 2238.08 189.696 Q2238.61 189.743 2239.26 189.858 L2239.28 194.233 Z" fill="#000000" fill-rule="nonzero" fill-opacity="1" /><path clip-path="url(#clip270)" d="M2247.96 182.891 L2247.96 190.252 L2256.74 190.252 L2256.74 193.562 L2247.96 193.562 L2247.96 207.636 Q2247.96 210.807 2248.82 211.71 Q2249.7 212.613 2252.36 212.613 L2256.74 212.613 L2256.74 216.178 L2252.36 216.178 Q2247.43 216.178 2245.56 214.349 Q2243.68 212.497 2243.68 207.636 L2243.68 193.562 L2240.56 193.562 L2240.56 190.252 L2243.68 190.252 L2243.68 182.891 L2247.96 182.891 Z" fill="#000000" fill-rule="nonzero" fill-opacity="1" /></svg>
