<?xml version="1.0" encoding="utf-8"?>
<svg xmlns="http://www.w3.org/2000/svg" xmlns:xlink="http://www.w3.org/1999/xlink" width="600" height="400" viewBox="0 0 2400 1600">
<defs>
  <clipPath id="clip780">
    <rect x="0" y="0" width="2400" height="1600"/>
  </clipPath>
</defs>
<path clip-path="url(#clip780)" d="M0 1600 L2400 1600 L2400 0 L0 0  Z" fill="#ffffff" fill-rule="evenodd" fill-opacity="1"/>
<defs>
  <clipPath id="clip781">
    <rect x="480" y="0" width="1681" height="1600"/>
  </clipPath>
</defs>
<path clip-path="url(#clip780)" d="M223.103 1486.45 L2352.76 1486.45 L2352.76 47.2441 L223.103 47.2441  Z" fill="#ffffff" fill-rule="evenodd" fill-opacity="1"/>
<defs>
  <clipPath id="clip782">
    <rect x="223" y="47" width="2131" height="1440"/>
  </clipPath>
</defs>
<polyline clip-path="url(#clip782)" style="stroke:#000000; stroke-linecap:round; stroke-linejoin:round; stroke-width:2; stroke-opacity:0.1; fill:none" points="223.103,1486.45 223.103,47.2441 "/>
<polyline clip-path="url(#clip782)" style="stroke:#000000; stroke-linecap:round; stroke-linejoin:round; stroke-width:2; stroke-opacity:0.1; fill:none" points="755.516,1486.45 755.516,47.2441 "/>
<polyline clip-path="url(#clip782)" style="stroke:#000000; stroke-linecap:round; stroke-linejoin:round; stroke-width:2; stroke-opacity:0.1; fill:none" points="1287.93,1486.45 1287.93,47.2441 "/>
<polyline clip-path="url(#clip782)" style="stroke:#000000; stroke-linecap:round; stroke-linejoin:round; stroke-width:2; stroke-opacity:0.1; fill:none" points="1820.34,1486.45 1820.34,47.2441 "/>
<polyline clip-path="url(#clip782)" style="stroke:#000000; stroke-linecap:round; stroke-linejoin:round; stroke-width:2; stroke-opacity:0.1; fill:none" points="2352.76,1486.45 2352.76,47.2441 "/>
<polyline clip-path="url(#clip782)" style="stroke:#000000; stroke-linecap:round; stroke-linejoin:round; stroke-width:2; stroke-opacity:0.1; fill:none" points="223.103,1258 2352.76,1258 "/>
<polyline clip-path="url(#clip782)" style="stroke:#000000; stroke-linecap:round; stroke-linejoin:round; stroke-width:2; stroke-opacity:0.1; fill:none" points="223.103,972.46 2352.76,972.46 "/>
<polyline clip-path="url(#clip782)" style="stroke:#000000; stroke-linecap:round; stroke-linejoin:round; stroke-width:2; stroke-opacity:0.1; fill:none" points="223.103,686.92 2352.76,686.92 "/>
<polyline clip-path="url(#clip782)" style="stroke:#000000; stroke-linecap:round; stroke-linejoin:round; stroke-width:2; stroke-opacity:0.1; fill:none" points="223.103,401.381 2352.76,401.381 "/>
<polyline clip-path="url(#clip782)" style="stroke:#000000; stroke-linecap:round; stroke-linejoin:round; stroke-width:2; stroke-opacity:0.1; fill:none" points="223.103,115.841 2352.76,115.841 "/>
<polyline clip-path="url(#clip780)" style="stroke:#000000; stroke-linecap:round; stroke-linejoin:round; stroke-width:4; stroke-opacity:1; fill:none" points="223.103,1486.45 2352.76,1486.45 "/>
<polyline clip-path="url(#clip780)" style="stroke:#000000; stroke-linecap:round; stroke-linejoin:round; stroke-width:4; stroke-opacity:1; fill:none" points="223.103,1486.45 223.103,1467.55 "/>
<polyline clip-path="url(#clip780)" style="stroke:#000000; stroke-linecap:round; stroke-linejoin:round; stroke-width:4; stroke-opacity:1; fill:none" points="755.516,1486.45 755.516,1467.55 "/>
<polyline clip-path="url(#clip780)" style="stroke:#000000; stroke-linecap:round; stroke-linejoin:round; stroke-width:4; stroke-opacity:1; fill:none" points="1287.93,1486.45 1287.93,1467.55 "/>
<polyline clip-path="url(#clip780)" style="stroke:#000000; stroke-linecap:round; stroke-linejoin:round; stroke-width:4; stroke-opacity:1; fill:none" points="1820.34,1486.45 1820.34,1467.55 "/>
<polyline clip-path="url(#clip780)" style="stroke:#000000; stroke-linecap:round; stroke-linejoin:round; stroke-width:4; stroke-opacity:1; fill:none" points="2352.76,1486.45 2352.76,1467.55 "/>
<path clip-path="url(#clip780)" d="M177.165 1532.02 L206.841 1532.02 L206.841 1535.95 L177.165 1535.95 L177.165 1532.02 Z" fill="#000000" fill-rule="nonzero" fill-opacity="1" /><path clip-path="url(#clip780)" d="M217.744 1544.91 L225.383 1544.91 L225.383 1518.55 L217.072 1520.21 L217.072 1515.95 L225.336 1514.29 L230.012 1514.29 L230.012 1544.91 L237.651 1544.91 L237.651 1548.85 L217.744 1548.85 L217.744 1544.91 Z" fill="#000000" fill-rule="nonzero" fill-opacity="1" /><path clip-path="url(#clip780)" d="M257.095 1517.37 Q253.484 1517.37 251.656 1520.93 Q249.85 1524.47 249.85 1531.6 Q249.85 1538.71 251.656 1542.27 Q253.484 1545.82 257.095 1545.82 Q260.73 1545.82 262.535 1542.27 Q264.364 1538.71 264.364 1531.6 Q264.364 1524.47 262.535 1520.93 Q260.73 1517.37 257.095 1517.37 M257.095 1513.66 Q262.906 1513.66 265.961 1518.27 Q269.04 1522.85 269.04 1531.6 Q269.04 1540.33 265.961 1544.94 Q262.906 1549.52 257.095 1549.52 Q251.285 1549.52 248.207 1544.94 Q245.151 1540.33 245.151 1531.6 Q245.151 1522.85 248.207 1518.27 Q251.285 1513.66 257.095 1513.66 Z" fill="#000000" fill-rule="nonzero" fill-opacity="1" /><path clip-path="url(#clip780)" d="M725.157 1532.02 L754.833 1532.02 L754.833 1535.95 L725.157 1535.95 L725.157 1532.02 Z" fill="#000000" fill-rule="nonzero" fill-opacity="1" /><path clip-path="url(#clip780)" d="M764.972 1514.29 L783.328 1514.29 L783.328 1518.22 L769.254 1518.22 L769.254 1526.7 Q770.273 1526.35 771.291 1526.19 Q772.31 1526 773.328 1526 Q779.115 1526 782.495 1529.17 Q785.874 1532.34 785.874 1537.76 Q785.874 1543.34 782.402 1546.44 Q778.93 1549.52 772.611 1549.52 Q770.435 1549.52 768.166 1549.15 Q765.921 1548.78 763.513 1548.04 L763.513 1543.34 Q765.597 1544.47 767.819 1545.03 Q770.041 1545.58 772.518 1545.58 Q776.523 1545.58 778.861 1543.48 Q781.199 1541.37 781.199 1537.76 Q781.199 1534.15 778.861 1532.04 Q776.523 1529.94 772.518 1529.94 Q770.643 1529.94 768.768 1530.35 Q766.916 1530.77 764.972 1531.65 L764.972 1514.29 Z" fill="#000000" fill-rule="nonzero" fill-opacity="1" /><path clip-path="url(#clip780)" d="M1287.93 1517.37 Q1284.32 1517.37 1282.49 1520.93 Q1280.68 1524.47 1280.68 1531.6 Q1280.68 1538.71 1282.49 1542.27 Q1284.32 1545.82 1287.93 1545.82 Q1291.56 1545.82 1293.37 1542.27 Q1295.2 1538.71 1295.2 1531.6 Q1295.2 1524.47 1293.37 1520.93 Q1291.56 1517.37 1287.93 1517.37 M1287.93 1513.66 Q1293.74 1513.66 1296.79 1518.27 Q1299.87 1522.85 1299.87 1531.6 Q1299.87 1540.33 1296.79 1544.94 Q1293.74 1549.52 1287.93 1549.52 Q1282.12 1549.52 1279.04 1544.94 Q1275.98 1540.33 1275.98 1531.6 Q1275.98 1522.85 1279.04 1518.27 Q1282.12 1513.66 1287.93 1513.66 Z" fill="#000000" fill-rule="nonzero" fill-opacity="1" /><path clip-path="url(#clip780)" d="M1810.62 1514.29 L1828.98 1514.29 L1828.98 1518.22 L1814.9 1518.22 L1814.9 1526.7 Q1815.92 1526.35 1816.94 1526.19 Q1817.96 1526 1818.98 1526 Q1824.76 1526 1828.14 1529.17 Q1831.52 1532.34 1831.52 1537.76 Q1831.52 1543.34 1828.05 1546.44 Q1824.58 1549.52 1818.26 1549.52 Q1816.08 1549.52 1813.81 1549.15 Q1811.57 1548.78 1809.16 1548.04 L1809.16 1543.34 Q1811.25 1544.47 1813.47 1545.03 Q1815.69 1545.58 1818.17 1545.58 Q1822.17 1545.58 1824.51 1543.48 Q1826.85 1541.37 1826.85 1537.76 Q1826.85 1534.15 1824.51 1532.04 Q1822.17 1529.94 1818.17 1529.94 Q1816.29 1529.94 1814.42 1530.35 Q1812.56 1530.77 1810.62 1531.65 L1810.62 1514.29 Z" fill="#000000" fill-rule="nonzero" fill-opacity="1" /><path clip-path="url(#clip780)" d="M2327.44 1544.91 L2335.08 1544.91 L2335.08 1518.55 L2326.77 1520.21 L2326.77 1515.95 L2335.04 1514.29 L2339.71 1514.29 L2339.71 1544.91 L2347.35 1544.91 L2347.35 1548.85 L2327.44 1548.85 L2327.44 1544.91 Z" fill="#000000" fill-rule="nonzero" fill-opacity="1" /><path clip-path="url(#clip780)" d="M2366.8 1517.37 Q2363.18 1517.37 2361.36 1520.93 Q2359.55 1524.47 2359.55 1531.6 Q2359.55 1538.71 2361.36 1542.27 Q2363.18 1545.82 2366.8 1545.82 Q2370.43 1545.82 2372.23 1542.27 Q2374.06 1538.71 2374.06 1531.6 Q2374.06 1524.47 2372.23 1520.93 Q2370.43 1517.37 2366.8 1517.37 M2366.8 1513.66 Q2372.61 1513.66 2375.66 1518.27 Q2378.74 1522.85 2378.74 1531.6 Q2378.74 1540.33 2375.66 1544.94 Q2372.61 1549.52 2366.8 1549.52 Q2360.99 1549.52 2357.91 1544.94 Q2354.85 1540.33 2354.85 1531.6 Q2354.85 1522.85 2357.91 1518.27 Q2360.99 1513.66 2366.8 1513.66 Z" fill="#000000" fill-rule="nonzero" fill-opacity="1" /><polyline clip-path="url(#clip780)" style="stroke:#000000; stroke-linecap:round; stroke-linejoin:round; stroke-width:4; stroke-opacity:1; fill:none" points="223.103,1486.45 223.103,47.2441 "/>
<polyline clip-path="url(#clip780)" style="stroke:#000000; stroke-linecap:round; stroke-linejoin:round; stroke-width:4; stroke-opacity:1; fill:none" points="223.103,1258 242,1258 "/>
<polyline clip-path="url(#clip780)" style="stroke:#000000; stroke-linecap:round; stroke-linejoin:round; stroke-width:4; stroke-opacity:1; fill:none" points="223.103,972.46 242,972.46 "/>
<polyline clip-path="url(#clip780)" style="stroke:#000000; stroke-linecap:round; stroke-linejoin:round; stroke-width:4; stroke-opacity:1; fill:none" points="223.103,686.92 242,686.92 "/>
<polyline clip-path="url(#clip780)" style="stroke:#000000; stroke-linecap:round; stroke-linejoin:round; stroke-width:4; stroke-opacity:1; fill:none" points="223.103,401.381 242,401.381 "/>
<polyline clip-path="url(#clip780)" style="stroke:#000000; stroke-linecap:round; stroke-linejoin:round; stroke-width:4; stroke-opacity:1; fill:none" points="223.103,115.841 242,115.841 "/>
<path clip-path="url(#clip780)" d="M50.9921 1258.45 L80.6679 1258.45 L80.6679 1262.39 L50.9921 1262.39 L50.9921 1258.45 Z" fill="#000000" fill-rule="nonzero" fill-opacity="1" /><path clip-path="url(#clip780)" d="M100.76 1243.8 Q97.1493 1243.8 95.3206 1247.36 Q93.515 1250.9 93.515 1258.03 Q93.515 1265.14 95.3206 1268.71 Q97.1493 1272.25 100.76 1272.25 Q104.395 1272.25 106.2 1268.71 Q108.029 1265.14 108.029 1258.03 Q108.029 1250.9 106.2 1247.36 Q104.395 1243.8 100.76 1243.8 M100.76 1240.09 Q106.571 1240.09 109.626 1244.7 Q112.705 1249.28 112.705 1258.03 Q112.705 1266.76 109.626 1271.37 Q106.571 1275.95 100.76 1275.95 Q94.9502 1275.95 91.8715 1271.37 Q88.816 1266.76 88.816 1258.03 Q88.816 1249.28 91.8715 1244.7 Q94.9502 1240.09 100.76 1240.09 Z" fill="#000000" fill-rule="nonzero" fill-opacity="1" /><path clip-path="url(#clip780)" d="M120.922 1269.4 L125.807 1269.4 L125.807 1275.28 L120.922 1275.28 L120.922 1269.4 Z" fill="#000000" fill-rule="nonzero" fill-opacity="1" /><path clip-path="url(#clip780)" d="M140.019 1271.34 L156.339 1271.34 L156.339 1275.28 L134.394 1275.28 L134.394 1271.34 Q137.056 1268.59 141.64 1263.96 Q146.246 1259.31 147.427 1257.96 Q149.672 1255.44 150.552 1253.71 Q151.455 1251.95 151.455 1250.26 Q151.455 1247.5 149.51 1245.77 Q147.589 1244.03 144.487 1244.03 Q142.288 1244.03 139.834 1244.79 Q137.404 1245.56 134.626 1247.11 L134.626 1242.39 Q137.45 1241.25 139.904 1240.67 Q142.357 1240.09 144.394 1240.09 Q149.765 1240.09 152.959 1242.78 Q156.154 1245.46 156.154 1249.96 Q156.154 1252.08 155.343 1254.01 Q154.556 1255.9 152.45 1258.5 Q151.871 1259.17 148.769 1262.39 Q145.668 1265.58 140.019 1271.34 Z" fill="#000000" fill-rule="nonzero" fill-opacity="1" /><path clip-path="url(#clip780)" d="M166.2 1240.72 L184.556 1240.72 L184.556 1244.65 L170.482 1244.65 L170.482 1253.13 Q171.501 1252.78 172.519 1252.62 Q173.538 1252.43 174.556 1252.43 Q180.343 1252.43 183.723 1255.6 Q187.103 1258.77 187.103 1264.19 Q187.103 1269.77 183.63 1272.87 Q180.158 1275.95 173.839 1275.95 Q171.663 1275.95 169.394 1275.58 Q167.149 1275.21 164.742 1274.47 L164.742 1269.77 Q166.825 1270.9 169.047 1271.46 Q171.269 1272.02 173.746 1272.02 Q177.751 1272.02 180.089 1269.91 Q182.427 1267.8 182.427 1264.19 Q182.427 1260.58 180.089 1258.47 Q177.751 1256.37 173.746 1256.37 Q171.871 1256.37 169.996 1256.78 Q168.144 1257.2 166.2 1258.08 L166.2 1240.72 Z" fill="#000000" fill-rule="nonzero" fill-opacity="1" /><path clip-path="url(#clip780)" d="M99.765 958.258 Q96.1539 958.258 94.3252 961.823 Q92.5197 965.365 92.5197 972.494 Q92.5197 979.601 94.3252 983.166 Q96.1539 986.707 99.765 986.707 Q103.399 986.707 105.205 983.166 Q107.033 979.601 107.033 972.494 Q107.033 965.365 105.205 961.823 Q103.399 958.258 99.765 958.258 M99.765 954.555 Q105.575 954.555 108.631 959.161 Q111.709 963.744 111.709 972.494 Q111.709 981.221 108.631 985.828 Q105.575 990.411 99.765 990.411 Q93.9549 990.411 90.8762 985.828 Q87.8206 981.221 87.8206 972.494 Q87.8206 963.744 90.8762 959.161 Q93.9549 954.555 99.765 954.555 Z" fill="#000000" fill-rule="nonzero" fill-opacity="1" /><path clip-path="url(#clip780)" d="M119.927 983.86 L124.811 983.86 L124.811 989.74 L119.927 989.74 L119.927 983.86 Z" fill="#000000" fill-rule="nonzero" fill-opacity="1" /><path clip-path="url(#clip780)" d="M144.996 958.258 Q141.385 958.258 139.556 961.823 Q137.751 965.365 137.751 972.494 Q137.751 979.601 139.556 983.166 Q141.385 986.707 144.996 986.707 Q148.63 986.707 150.436 983.166 Q152.265 979.601 152.265 972.494 Q152.265 965.365 150.436 961.823 Q148.63 958.258 144.996 958.258 M144.996 954.555 Q150.806 954.555 153.862 959.161 Q156.941 963.744 156.941 972.494 Q156.941 981.221 153.862 985.828 Q150.806 990.411 144.996 990.411 Q139.186 990.411 136.107 985.828 Q133.052 981.221 133.052 972.494 Q133.052 963.744 136.107 959.161 Q139.186 954.555 144.996 954.555 Z" fill="#000000" fill-rule="nonzero" fill-opacity="1" /><path clip-path="url(#clip780)" d="M175.158 958.258 Q171.547 958.258 169.718 961.823 Q167.913 965.365 167.913 972.494 Q167.913 979.601 169.718 983.166 Q171.547 986.707 175.158 986.707 Q178.792 986.707 180.598 983.166 Q182.427 979.601 182.427 972.494 Q182.427 965.365 180.598 961.823 Q178.792 958.258 175.158 958.258 M175.158 954.555 Q180.968 954.555 184.024 959.161 Q187.103 963.744 187.103 972.494 Q187.103 981.221 184.024 985.828 Q180.968 990.411 175.158 990.411 Q169.348 990.411 166.269 985.828 Q163.214 981.221 163.214 972.494 Q163.214 963.744 166.269 959.161 Q169.348 954.555 175.158 954.555 Z" fill="#000000" fill-rule="nonzero" fill-opacity="1" /><path clip-path="url(#clip780)" d="M100.76 672.719 Q97.1493 672.719 95.3206 676.284 Q93.515 679.825 93.515 686.955 Q93.515 694.061 95.3206 697.626 Q97.1493 701.168 100.76 701.168 Q104.395 701.168 106.2 697.626 Q108.029 694.061 108.029 686.955 Q108.029 679.825 106.2 676.284 Q104.395 672.719 100.76 672.719 M100.76 669.015 Q106.571 669.015 109.626 673.622 Q112.705 678.205 112.705 686.955 Q112.705 695.682 109.626 700.288 Q106.571 704.872 100.76 704.872 Q94.9502 704.872 91.8715 700.288 Q88.816 695.682 88.816 686.955 Q88.816 678.205 91.8715 673.622 Q94.9502 669.015 100.76 669.015 Z" fill="#000000" fill-rule="nonzero" fill-opacity="1" /><path clip-path="url(#clip780)" d="M120.922 698.321 L125.807 698.321 L125.807 704.2 L120.922 704.2 L120.922 698.321 Z" fill="#000000" fill-rule="nonzero" fill-opacity="1" /><path clip-path="url(#clip780)" d="M140.019 700.265 L156.339 700.265 L156.339 704.2 L134.394 704.2 L134.394 700.265 Q137.056 697.511 141.64 692.881 Q146.246 688.228 147.427 686.886 Q149.672 684.362 150.552 682.626 Q151.455 680.867 151.455 679.177 Q151.455 676.423 149.51 674.687 Q147.589 672.95 144.487 672.95 Q142.288 672.95 139.834 673.714 Q137.404 674.478 134.626 676.029 L134.626 671.307 Q137.45 670.173 139.904 669.594 Q142.357 669.015 144.394 669.015 Q149.765 669.015 152.959 671.7 Q156.154 674.386 156.154 678.876 Q156.154 681.006 155.343 682.927 Q154.556 684.825 152.45 687.418 Q151.871 688.089 148.769 691.307 Q145.668 694.501 140.019 700.265 Z" fill="#000000" fill-rule="nonzero" fill-opacity="1" /><path clip-path="url(#clip780)" d="M166.2 669.64 L184.556 669.64 L184.556 673.575 L170.482 673.575 L170.482 682.048 Q171.501 681.7 172.519 681.538 Q173.538 681.353 174.556 681.353 Q180.343 681.353 183.723 684.524 Q187.103 687.696 187.103 693.112 Q187.103 698.691 183.63 701.793 Q180.158 704.872 173.839 704.872 Q171.663 704.872 169.394 704.501 Q167.149 704.131 164.742 703.39 L164.742 698.691 Q166.825 699.825 169.047 700.381 Q171.269 700.936 173.746 700.936 Q177.751 700.936 180.089 698.83 Q182.427 696.723 182.427 693.112 Q182.427 689.501 180.089 687.395 Q177.751 685.288 173.746 685.288 Q171.871 685.288 169.996 685.705 Q168.144 686.122 166.2 687.001 L166.2 669.64 Z" fill="#000000" fill-rule="nonzero" fill-opacity="1" /><path clip-path="url(#clip780)" d="M99.765 387.18 Q96.1539 387.18 94.3252 390.744 Q92.5197 394.286 92.5197 401.416 Q92.5197 408.522 94.3252 412.087 Q96.1539 415.628 99.765 415.628 Q103.399 415.628 105.205 412.087 Q107.033 408.522 107.033 401.416 Q107.033 394.286 105.205 390.744 Q103.399 387.18 99.765 387.18 M99.765 383.476 Q105.575 383.476 108.631 388.082 Q111.709 392.666 111.709 401.416 Q111.709 410.142 108.631 414.749 Q105.575 419.332 99.765 419.332 Q93.9549 419.332 90.8762 414.749 Q87.8206 410.142 87.8206 401.416 Q87.8206 392.666 90.8762 388.082 Q93.9549 383.476 99.765 383.476 Z" fill="#000000" fill-rule="nonzero" fill-opacity="1" /><path clip-path="url(#clip780)" d="M119.927 412.781 L124.811 412.781 L124.811 418.661 L119.927 418.661 L119.927 412.781 Z" fill="#000000" fill-rule="nonzero" fill-opacity="1" /><path clip-path="url(#clip780)" d="M135.043 384.101 L153.399 384.101 L153.399 388.036 L139.325 388.036 L139.325 396.508 Q140.343 396.161 141.362 395.999 Q142.381 395.814 143.399 395.814 Q149.186 395.814 152.566 398.985 Q155.945 402.156 155.945 407.573 Q155.945 413.152 152.473 416.253 Q149.001 419.332 142.681 419.332 Q140.506 419.332 138.237 418.962 Q135.992 418.591 133.584 417.851 L133.584 413.152 Q135.668 414.286 137.89 414.841 Q140.112 415.397 142.589 415.397 Q146.593 415.397 148.931 413.291 Q151.269 411.184 151.269 407.573 Q151.269 403.962 148.931 401.855 Q146.593 399.749 142.589 399.749 Q140.714 399.749 138.839 400.166 Q136.987 400.582 135.043 401.462 L135.043 384.101 Z" fill="#000000" fill-rule="nonzero" fill-opacity="1" /><path clip-path="url(#clip780)" d="M175.158 387.18 Q171.547 387.18 169.718 390.744 Q167.913 394.286 167.913 401.416 Q167.913 408.522 169.718 412.087 Q171.547 415.628 175.158 415.628 Q178.792 415.628 180.598 412.087 Q182.427 408.522 182.427 401.416 Q182.427 394.286 180.598 390.744 Q178.792 387.18 175.158 387.18 M175.158 383.476 Q180.968 383.476 184.024 388.082 Q187.103 392.666 187.103 401.416 Q187.103 410.142 184.024 414.749 Q180.968 419.332 175.158 419.332 Q169.348 419.332 166.269 414.749 Q163.214 410.142 163.214 401.416 Q163.214 392.666 166.269 388.082 Q169.348 383.476 175.158 383.476 Z" fill="#000000" fill-rule="nonzero" fill-opacity="1" /><path clip-path="url(#clip780)" d="M100.76 101.64 Q97.1493 101.64 95.3206 105.205 Q93.515 108.747 93.515 115.876 Q93.515 122.983 95.3206 126.547 Q97.1493 130.089 100.76 130.089 Q104.395 130.089 106.2 126.547 Q108.029 122.983 108.029 115.876 Q108.029 108.747 106.2 105.205 Q104.395 101.64 100.76 101.64 M100.76 97.9365 Q106.571 97.9365 109.626 102.543 Q112.705 107.126 112.705 115.876 Q112.705 124.603 109.626 129.209 Q106.571 133.793 100.76 133.793 Q94.9502 133.793 91.8715 129.209 Q88.816 124.603 88.816 115.876 Q88.816 107.126 91.8715 102.543 Q94.9502 97.9365 100.76 97.9365 Z" fill="#000000" fill-rule="nonzero" fill-opacity="1" /><path clip-path="url(#clip780)" d="M120.922 127.242 L125.807 127.242 L125.807 133.121 L120.922 133.121 L120.922 127.242 Z" fill="#000000" fill-rule="nonzero" fill-opacity="1" /><path clip-path="url(#clip780)" d="M134.811 98.5615 L157.033 98.5615 L157.033 100.552 L144.487 133.121 L139.603 133.121 L151.408 102.497 L134.811 102.497 L134.811 98.5615 Z" fill="#000000" fill-rule="nonzero" fill-opacity="1" /><path clip-path="url(#clip780)" d="M166.2 98.5615 L184.556 98.5615 L184.556 102.497 L170.482 102.497 L170.482 110.969 Q171.501 110.622 172.519 110.46 Q173.538 110.274 174.556 110.274 Q180.343 110.274 183.723 113.446 Q187.103 116.617 187.103 122.034 Q187.103 127.612 183.63 130.714 Q180.158 133.793 173.839 133.793 Q171.663 133.793 169.394 133.422 Q167.149 133.052 164.742 132.311 L164.742 127.612 Q166.825 128.746 169.047 129.302 Q171.269 129.858 173.746 129.858 Q177.751 129.858 180.089 127.751 Q182.427 125.645 182.427 122.034 Q182.427 118.422 180.089 116.316 Q177.751 114.21 173.746 114.21 Q171.871 114.21 169.996 114.626 Q168.144 115.043 166.2 115.922 L166.2 98.5615 Z" fill="#000000" fill-rule="nonzero" fill-opacity="1" /><polyline clip-path="url(#clip782)" style="stroke:#009af9; stroke-linecap:round; stroke-linejoin:round; stroke-width:4; stroke-opacity:1; fill:none" points="1287.93,87.9763 1394.41,1445.72 1500.89,877.242 1607.38,981.971 1713.86,971.901 1820.34,972.481 1926.83,972.459 2033.31,972.46 2139.79,972.46 2246.27,972.46 2352.76,972.46 2459.24,972.46 2565.72,972.46 2672.2,972.46 2778.69,972.46 2885.17,972.46 2991.65,972.46 3098.13,972.46 3204.62,972.46 3311.1,972.46 3417.58,972.46 3524.07,972.46 3630.55,972.46 3737.03,972.46 3843.51,972.46 3950,972.46 4056.48,972.46 4162.96,972.46 4269.44,972.46 4375.93,972.46 4482.41,972.46 4588.89,972.46 -2013.03,972.46 -1906.55,972.46 -1800.07,972.46 -1693.59,972.46 -1587.1,972.46 -1480.62,972.46 -1374.14,972.46 -1267.65,972.46 -1161.17,972.46 -1054.69,972.46 -948.207,972.46 -841.724,972.46 -735.242,972.46 -628.759,972.46 -522.276,972.46 -415.794,972.46 -309.311,972.46 -202.828,972.46 -96.3455,972.46 10.1372,972.46 116.62,972.46 223.103,972.46 329.585,972.46 436.068,972.46 542.551,972.46 649.033,972.459 755.516,972.481 861.999,971.901 968.481,981.971 1074.96,877.242 1181.45,1445.72 "/>
<polyline clip-path="url(#clip782)" style="stroke:#e26f46; stroke-linecap:round; stroke-linejoin:round; stroke-width:4; stroke-opacity:1; fill:none" points="1287.93,785.216 1394.41,1072.65 1500.89,952.302 1607.38,974.473 1713.86,972.341 1820.34,972.464 1926.83,972.46 2033.31,972.46 2139.79,972.46 2246.27,972.46 2352.76,972.46 2459.24,972.46 2565.72,972.46 2672.2,972.46 2778.69,972.46 2885.17,972.46 2991.65,972.46 3098.13,972.46 3204.62,972.46 3311.1,972.46 3417.58,972.46 3524.07,972.46 3630.55,972.46 3737.03,972.46 3843.51,972.46 3950,972.46 4056.48,972.46 4162.96,972.46 4269.44,972.46 4375.93,972.46 4482.41,972.46 4588.89,972.46 -2013.03,972.46 -1906.55,972.46 -1800.07,972.46 -1693.59,972.46 -1587.1,972.46 -1480.62,972.46 -1374.14,972.46 -1267.65,972.46 -1161.17,972.46 -1054.69,972.46 -948.207,972.46 -841.724,972.46 -735.242,972.46 -628.759,972.46 -522.276,972.46 -415.794,972.46 -309.311,972.46 -202.828,972.46 -96.3455,972.46 10.1372,972.46 116.62,972.46 223.103,972.46 329.585,972.46 436.068,972.46 542.551,972.46 649.033,972.46 755.516,972.464 861.999,972.341 968.481,974.473 1074.96,952.302 1181.45,1072.65 "/>
<path clip-path="url(#clip780)" d="M1723.8 250.738 L2281.77 250.738 L2281.77 95.2176 L1723.8 95.2176  Z" fill="#ffffff" fill-rule="evenodd" fill-opacity="1"/>
<polyline clip-path="url(#clip780)" style="stroke:#000000; stroke-linecap:round; stroke-linejoin:round; stroke-width:4; stroke-opacity:1; fill:none" points="1723.8,250.738 2281.77,250.738 2281.77,95.2176 1723.8,95.2176 1723.8,250.738 "/>
<polyline clip-path="url(#clip780)" style="stroke:#009af9; stroke-linecap:round; stroke-linejoin:round; stroke-width:4; stroke-opacity:1; fill:none" points="1747.47,147.058 1889.44,147.058 "/>
<path clip-path="url(#clip780)" d="M1928.29 142.393 Q1927.57 141.977 1926.72 141.791 Q1925.88 141.583 1924.87 141.583 Q1921.25 141.583 1919.31 143.944 Q1917.39 146.282 1917.39 150.68 L1917.39 164.338 L1913.11 164.338 L1913.11 138.412 L1917.39 138.412 L1917.39 142.44 Q1918.73 140.078 1920.88 138.944 Q1923.04 137.787 1926.12 137.787 Q1926.56 137.787 1927.09 137.856 Q1927.62 137.903 1928.27 138.018 L1928.29 142.393 Z" fill="#000000" fill-rule="nonzero" fill-opacity="1" /><path clip-path="url(#clip780)" d="M1953.89 150.31 L1953.89 152.393 L1934.31 152.393 Q1934.59 156.791 1936.95 159.106 Q1939.33 161.398 1943.57 161.398 Q1946.02 161.398 1948.31 160.796 Q1950.63 160.194 1952.9 158.99 L1952.9 163.018 Q1950.61 163.99 1948.2 164.5 Q1945.79 165.009 1943.31 165.009 Q1937.11 165.009 1933.48 161.398 Q1929.87 157.787 1929.87 151.629 Q1929.87 145.264 1933.29 141.537 Q1936.74 137.787 1942.57 137.787 Q1947.81 137.787 1950.84 141.166 Q1953.89 144.523 1953.89 150.31 M1949.63 149.06 Q1949.59 145.565 1947.67 143.481 Q1945.77 141.398 1942.62 141.398 Q1939.06 141.398 1936.9 143.412 Q1934.77 145.426 1934.45 149.083 L1949.63 149.06 Z" fill="#000000" fill-rule="nonzero" fill-opacity="1" /><path clip-path="url(#clip780)" d="M1972.67 151.305 Q1967.5 151.305 1965.51 152.486 Q1963.52 153.666 1963.52 156.514 Q1963.52 158.782 1965 160.125 Q1966.51 161.444 1969.08 161.444 Q1972.62 161.444 1974.75 158.944 Q1976.9 156.421 1976.9 152.254 L1976.9 151.305 L1972.67 151.305 M1981.16 149.546 L1981.16 164.338 L1976.9 164.338 L1976.9 160.402 Q1975.44 162.763 1973.27 163.898 Q1971.09 165.009 1967.94 165.009 Q1963.96 165.009 1961.6 162.787 Q1959.26 160.541 1959.26 156.791 Q1959.26 152.416 1962.18 150.194 Q1965.12 147.972 1970.93 147.972 L1976.9 147.972 L1976.9 147.555 Q1976.9 144.615 1974.96 143.018 Q1973.04 141.398 1969.54 141.398 Q1967.32 141.398 1965.21 141.93 Q1963.11 142.463 1961.16 143.527 L1961.16 139.592 Q1963.5 138.69 1965.7 138.25 Q1967.9 137.787 1969.98 137.787 Q1975.61 137.787 1978.38 140.703 Q1981.16 143.62 1981.16 149.546 Z" fill="#000000" fill-rule="nonzero" fill-opacity="1" /><path clip-path="url(#clip780)" d="M1989.93 128.319 L1994.19 128.319 L1994.19 164.338 L1989.93 164.338 L1989.93 128.319 Z" fill="#000000" fill-rule="nonzero" fill-opacity="1" /><path clip-path="url(#clip780)" d="M2022.3 160.449 L2022.3 174.199 L2018.01 174.199 L2018.01 138.412 L2022.3 138.412 L2022.3 142.347 Q2023.64 140.032 2025.68 138.921 Q2027.74 137.787 2030.58 137.787 Q2035.3 137.787 2038.24 141.537 Q2041.21 145.287 2041.21 151.398 Q2041.21 157.509 2038.24 161.259 Q2035.3 165.009 2030.58 165.009 Q2027.74 165.009 2025.68 163.898 Q2023.64 162.763 2022.3 160.449 M2036.79 151.398 Q2036.79 146.699 2034.84 144.037 Q2032.92 141.352 2029.54 141.352 Q2026.16 141.352 2024.22 144.037 Q2022.3 146.699 2022.3 151.398 Q2022.3 156.097 2024.22 158.782 Q2026.16 161.444 2029.54 161.444 Q2032.92 161.444 2034.84 158.782 Q2036.79 156.097 2036.79 151.398 Z" fill="#000000" fill-rule="nonzero" fill-opacity="1" /><path clip-path="url(#clip780)" d="M2060.05 151.305 Q2054.89 151.305 2052.9 152.486 Q2050.91 153.666 2050.91 156.514 Q2050.91 158.782 2052.39 160.125 Q2053.89 161.444 2056.46 161.444 Q2060 161.444 2062.13 158.944 Q2064.29 156.421 2064.29 152.254 L2064.29 151.305 L2060.05 151.305 M2068.55 149.546 L2068.55 164.338 L2064.29 164.338 L2064.29 160.402 Q2062.83 162.763 2060.65 163.898 Q2058.48 165.009 2055.33 165.009 Q2051.35 165.009 2048.99 162.787 Q2046.65 160.541 2046.65 156.791 Q2046.65 152.416 2049.56 150.194 Q2052.5 147.972 2058.31 147.972 L2064.29 147.972 L2064.29 147.555 Q2064.29 144.615 2062.34 143.018 Q2060.42 141.398 2056.93 141.398 Q2054.7 141.398 2052.6 141.93 Q2050.49 142.463 2048.55 143.527 L2048.55 139.592 Q2050.88 138.69 2053.08 138.25 Q2055.28 137.787 2057.36 137.787 Q2062.99 137.787 2065.77 140.703 Q2068.55 143.62 2068.55 149.546 Z" fill="#000000" fill-rule="nonzero" fill-opacity="1" /><path clip-path="url(#clip780)" d="M2092.34 142.393 Q2091.62 141.977 2090.77 141.791 Q2089.93 141.583 2088.92 141.583 Q2085.3 141.583 2083.36 143.944 Q2081.44 146.282 2081.44 150.68 L2081.44 164.338 L2077.16 164.338 L2077.16 138.412 L2081.44 138.412 L2081.44 142.44 Q2082.78 140.078 2084.93 138.944 Q2087.09 137.787 2090.17 137.787 Q2090.61 137.787 2091.14 137.856 Q2091.67 137.903 2092.32 138.018 L2092.34 142.393 Z" fill="#000000" fill-rule="nonzero" fill-opacity="1" /><path clip-path="url(#clip780)" d="M2101.02 131.051 L2101.02 138.412 L2109.8 138.412 L2109.8 141.722 L2101.02 141.722 L2101.02 155.796 Q2101.02 158.967 2101.88 159.87 Q2102.76 160.773 2105.42 160.773 L2109.8 160.773 L2109.8 164.338 L2105.42 164.338 Q2100.49 164.338 2098.61 162.509 Q2096.74 160.657 2096.74 155.796 L2096.74 141.722 L2093.61 141.722 L2093.61 138.412 L2096.74 138.412 L2096.74 131.051 L2101.02 131.051 Z" fill="#000000" fill-rule="nonzero" fill-opacity="1" /><polyline clip-path="url(#clip780)" style="stroke:#e26f46; stroke-linecap:round; stroke-linejoin:round; stroke-width:4; stroke-opacity:1; fill:none" points="1747.47,198.898 1889.44,198.898 "/>
<path clip-path="url(#clip780)" d="M1913.11 190.252 L1917.37 190.252 L1917.37 216.178 L1913.11 216.178 L1913.11 190.252 M1913.11 180.159 L1917.37 180.159 L1917.37 185.553 L1913.11 185.553 L1913.11 180.159 Z" fill="#000000" fill-rule="nonzero" fill-opacity="1" /><path clip-path="url(#clip780)" d="M1946.46 195.229 Q1948.06 192.358 1950.28 190.993 Q1952.5 189.627 1955.51 189.627 Q1959.56 189.627 1961.76 192.474 Q1963.96 195.298 1963.96 200.529 L1963.96 216.178 L1959.68 216.178 L1959.68 200.668 Q1959.68 196.942 1958.36 195.136 Q1957.04 193.33 1954.33 193.33 Q1951.02 193.33 1949.1 195.53 Q1947.18 197.729 1947.18 201.525 L1947.18 216.178 L1942.9 216.178 L1942.9 200.668 Q1942.9 196.918 1941.58 195.136 Q1940.26 193.33 1937.5 193.33 Q1934.24 193.33 1932.32 195.553 Q1930.4 197.752 1930.4 201.525 L1930.4 216.178 L1926.12 216.178 L1926.12 190.252 L1930.4 190.252 L1930.4 194.28 Q1931.86 191.895 1933.89 190.761 Q1935.93 189.627 1938.73 189.627 Q1941.56 189.627 1943.52 191.062 Q1945.51 192.497 1946.46 195.229 Z" fill="#000000" fill-rule="nonzero" fill-opacity="1" /><path clip-path="url(#clip780)" d="M1984.24 203.145 Q1979.08 203.145 1977.09 204.326 Q1975.1 205.506 1975.1 208.354 Q1975.1 210.622 1976.58 211.965 Q1978.08 213.284 1980.65 213.284 Q1984.19 213.284 1986.32 210.784 Q1988.48 208.261 1988.48 204.094 L1988.48 203.145 L1984.24 203.145 M1992.74 201.386 L1992.74 216.178 L1988.48 216.178 L1988.48 212.242 Q1987.02 214.603 1984.84 215.738 Q1982.67 216.849 1979.52 216.849 Q1975.54 216.849 1973.18 214.627 Q1970.84 212.381 1970.84 208.631 Q1970.84 204.256 1973.75 202.034 Q1976.69 199.812 1982.5 199.812 L1988.48 199.812 L1988.48 199.395 Q1988.48 196.455 1986.53 194.858 Q1984.61 193.238 1981.12 193.238 Q1978.89 193.238 1976.79 193.77 Q1974.68 194.303 1972.74 195.367 L1972.74 191.432 Q1975.07 190.53 1977.27 190.09 Q1979.47 189.627 1981.56 189.627 Q1987.18 189.627 1989.96 192.543 Q1992.74 195.46 1992.74 201.386 Z" fill="#000000" fill-rule="nonzero" fill-opacity="1" /><path clip-path="url(#clip780)" d="M2018.57 202.914 Q2018.57 198.284 2016.65 195.738 Q2014.75 193.192 2011.3 193.192 Q2007.87 193.192 2005.95 195.738 Q2004.06 198.284 2004.06 202.914 Q2004.06 207.52 2005.95 210.066 Q2007.87 212.613 2011.3 212.613 Q2014.75 212.613 2016.65 210.066 Q2018.57 207.52 2018.57 202.914 M2022.83 212.96 Q2022.83 219.58 2019.89 222.798 Q2016.95 226.039 2010.88 226.039 Q2008.64 226.039 2006.65 225.691 Q2004.66 225.367 2002.78 224.673 L2002.78 220.529 Q2004.66 221.548 2006.49 222.034 Q2008.31 222.52 2010.21 222.52 Q2014.4 222.52 2016.49 220.321 Q2018.57 218.145 2018.57 213.724 L2018.57 211.617 Q2017.25 213.909 2015.19 215.043 Q2013.13 216.178 2010.26 216.178 Q2005.49 216.178 2002.57 212.543 Q1999.66 208.909 1999.66 202.914 Q1999.66 196.895 2002.57 193.261 Q2005.49 189.627 2010.26 189.627 Q2013.13 189.627 2015.19 190.761 Q2017.25 191.895 2018.57 194.187 L2018.57 190.252 L2022.83 190.252 L2022.83 212.96 Z" fill="#000000" fill-rule="nonzero" fill-opacity="1" /><path clip-path="url(#clip780)" d="M2031.6 190.252 L2035.86 190.252 L2035.86 216.178 L2031.6 216.178 L2031.6 190.252 M2031.6 180.159 L2035.86 180.159 L2035.86 185.553 L2031.6 185.553 L2031.6 180.159 Z" fill="#000000" fill-rule="nonzero" fill-opacity="1" /><path clip-path="url(#clip780)" d="M2066.32 200.529 L2066.32 216.178 L2062.06 216.178 L2062.06 200.668 Q2062.06 196.988 2060.63 195.159 Q2059.19 193.33 2056.32 193.33 Q2052.87 193.33 2050.88 195.53 Q2048.89 197.729 2048.89 201.525 L2048.89 216.178 L2044.61 216.178 L2044.61 190.252 L2048.89 190.252 L2048.89 194.28 Q2050.42 191.942 2052.48 190.784 Q2054.56 189.627 2057.27 189.627 Q2061.74 189.627 2064.03 192.405 Q2066.32 195.159 2066.32 200.529 Z" fill="#000000" fill-rule="nonzero" fill-opacity="1" /><path clip-path="url(#clip780)" d="M2086.6 203.145 Q2081.44 203.145 2079.45 204.326 Q2077.46 205.506 2077.46 208.354 Q2077.46 210.622 2078.94 211.965 Q2080.44 213.284 2083.01 213.284 Q2086.55 213.284 2088.68 210.784 Q2090.84 208.261 2090.84 204.094 L2090.84 203.145 L2086.6 203.145 M2095.1 201.386 L2095.1 216.178 L2090.84 216.178 L2090.84 212.242 Q2089.38 214.603 2087.2 215.738 Q2085.03 216.849 2081.88 216.849 Q2077.9 216.849 2075.54 214.627 Q2073.2 212.381 2073.2 208.631 Q2073.2 204.256 2076.11 202.034 Q2079.05 199.812 2084.86 199.812 L2090.84 199.812 L2090.84 199.395 Q2090.84 196.455 2088.89 194.858 Q2086.97 193.238 2083.48 193.238 Q2081.25 193.238 2079.15 193.77 Q2077.04 194.303 2075.1 195.367 L2075.1 191.432 Q2077.43 190.53 2079.63 190.09 Q2081.83 189.627 2083.92 189.627 Q2089.54 189.627 2092.32 192.543 Q2095.1 195.46 2095.1 201.386 Z" fill="#000000" fill-rule="nonzero" fill-opacity="1" /><path clip-path="url(#clip780)" d="M2118.89 194.233 Q2118.17 193.817 2117.32 193.631 Q2116.49 193.423 2115.47 193.423 Q2111.86 193.423 2109.91 195.784 Q2107.99 198.122 2107.99 202.52 L2107.99 216.178 L2103.71 216.178 L2103.71 190.252 L2107.99 190.252 L2107.99 194.28 Q2109.33 191.918 2111.49 190.784 Q2113.64 189.627 2116.72 189.627 Q2117.16 189.627 2117.69 189.696 Q2118.22 189.743 2118.87 189.858 L2118.89 194.233 Z" fill="#000000" fill-rule="nonzero" fill-opacity="1" /><path clip-path="url(#clip780)" d="M2134.15 218.585 Q2132.34 223.215 2130.63 224.627 Q2128.92 226.039 2126.05 226.039 L2122.64 226.039 L2122.64 222.474 L2125.14 222.474 Q2126.9 222.474 2127.87 221.64 Q2128.85 220.807 2130.03 217.705 L2130.79 215.761 L2120.3 190.252 L2124.82 190.252 L2132.92 210.529 L2141.02 190.252 L2145.54 190.252 L2134.15 218.585 Z" fill="#000000" fill-rule="nonzero" fill-opacity="1" /><path clip-path="url(#clip780)" d="M2170.61 212.289 L2170.61 226.039 L2166.32 226.039 L2166.32 190.252 L2170.61 190.252 L2170.61 194.187 Q2171.95 191.872 2173.98 190.761 Q2176.04 189.627 2178.89 189.627 Q2183.61 189.627 2186.55 193.377 Q2189.52 197.127 2189.52 203.238 Q2189.52 209.349 2186.55 213.099 Q2183.61 216.849 2178.89 216.849 Q2176.04 216.849 2173.98 215.738 Q2171.95 214.603 2170.61 212.289 M2185.1 203.238 Q2185.1 198.539 2183.15 195.877 Q2181.23 193.192 2177.85 193.192 Q2174.47 193.192 2172.53 195.877 Q2170.61 198.539 2170.61 203.238 Q2170.61 207.937 2172.53 210.622 Q2174.47 213.284 2177.85 213.284 Q2181.23 213.284 2183.15 210.622 Q2185.1 207.937 2185.1 203.238 Z" fill="#000000" fill-rule="nonzero" fill-opacity="1" /><path clip-path="url(#clip780)" d="M2208.36 203.145 Q2203.2 203.145 2201.21 204.326 Q2199.22 205.506 2199.22 208.354 Q2199.22 210.622 2200.7 211.965 Q2202.2 213.284 2204.77 213.284 Q2208.31 213.284 2210.44 210.784 Q2212.6 208.261 2212.6 204.094 L2212.6 203.145 L2208.36 203.145 M2216.85 201.386 L2216.85 216.178 L2212.6 216.178 L2212.6 212.242 Q2211.14 214.603 2208.96 215.738 Q2206.79 216.849 2203.64 216.849 Q2199.66 216.849 2197.29 214.627 Q2194.96 212.381 2194.96 208.631 Q2194.96 204.256 2197.87 202.034 Q2200.81 199.812 2206.62 199.812 L2212.6 199.812 L2212.6 199.395 Q2212.6 196.455 2210.65 194.858 Q2208.73 193.238 2205.23 193.238 Q2203.01 193.238 2200.91 193.77 Q2198.8 194.303 2196.85 195.367 L2196.85 191.432 Q2199.19 190.53 2201.39 190.09 Q2203.59 189.627 2205.67 189.627 Q2211.3 189.627 2214.08 192.543 Q2216.85 195.46 2216.85 201.386 Z" fill="#000000" fill-rule="nonzero" fill-opacity="1" /><path clip-path="url(#clip780)" d="M2240.65 194.233 Q2239.93 193.817 2239.08 193.631 Q2238.24 193.423 2237.23 193.423 Q2233.61 193.423 2231.67 195.784 Q2229.75 198.122 2229.75 202.52 L2229.75 216.178 L2225.47 216.178 L2225.47 190.252 L2229.75 190.252 L2229.75 194.28 Q2231.09 191.918 2233.24 190.784 Q2235.4 189.627 2238.48 189.627 Q2238.91 189.627 2239.45 189.696 Q2239.98 189.743 2240.63 189.858 L2240.65 194.233 Z" fill="#000000" fill-rule="nonzero" fill-opacity="1" /><path clip-path="url(#clip780)" d="M2249.33 182.891 L2249.33 190.252 L2258.1 190.252 L2258.1 193.562 L2249.33 193.562 L2249.33 207.636 Q2249.33 210.807 2250.19 211.71 Q2251.07 212.613 2253.73 212.613 L2258.1 212.613 L2258.1 216.178 L2253.73 216.178 Q2248.8 216.178 2246.92 214.349 Q2245.05 212.497 2245.05 207.636 L2245.05 193.562 L2241.92 193.562 L2241.92 190.252 L2245.05 190.252 L2245.05 182.891 L2249.33 182.891 Z" fill="#000000" fill-rule="nonzero" fill-opacity="1" /></svg>
