<?xml version="1.0" encoding="utf-8"?>
<svg xmlns="http://www.w3.org/2000/svg" xmlns:xlink="http://www.w3.org/1999/xlink" width="600" height="400" viewBox="0 0 2400 1600">
<defs>
  <clipPath id="clip290">
    <rect x="0" y="0" width="2400" height="1600"/>
  </clipPath>
</defs>
<path clip-path="url(#clip290)" d="M0 1600 L2400 1600 L2400 0 L0 0  Z" fill="#ffffff" fill-rule="evenodd" fill-opacity="1"/>
<defs>
  <clipPath id="clip291">
    <rect x="480" y="0" width="1681" height="1600"/>
  </clipPath>
</defs>
<path clip-path="url(#clip290)" d="M170.857 1423.18 L2352.76 1423.18 L2352.76 47.2441 L170.857 47.2441  Z" fill="#ffffff" fill-rule="evenodd" fill-opacity="1"/>
<defs>
  <clipPath id="clip292">
    <rect x="170" y="47" width="2183" height="1377"/>
  </clipPath>
</defs>
<polyline clip-path="url(#clip292)" style="stroke:#000000; stroke-linecap:round; stroke-linejoin:round; stroke-width:2; stroke-opacity:0.1; fill:none" points="211.586,1423.18 211.586,47.2441 "/>
<polyline clip-path="url(#clip292)" style="stroke:#000000; stroke-linecap:round; stroke-linejoin:round; stroke-width:2; stroke-opacity:0.1; fill:none" points="561.659,1423.18 561.659,47.2441 "/>
<polyline clip-path="url(#clip292)" style="stroke:#000000; stroke-linecap:round; stroke-linejoin:round; stroke-width:2; stroke-opacity:0.1; fill:none" points="911.733,1423.18 911.733,47.2441 "/>
<polyline clip-path="url(#clip292)" style="stroke:#000000; stroke-linecap:round; stroke-linejoin:round; stroke-width:2; stroke-opacity:0.1; fill:none" points="1261.81,1423.18 1261.81,47.2441 "/>
<polyline clip-path="url(#clip292)" style="stroke:#000000; stroke-linecap:round; stroke-linejoin:round; stroke-width:2; stroke-opacity:0.1; fill:none" points="1611.88,1423.18 1611.88,47.2441 "/>
<polyline clip-path="url(#clip292)" style="stroke:#000000; stroke-linecap:round; stroke-linejoin:round; stroke-width:2; stroke-opacity:0.1; fill:none" points="1961.95,1423.18 1961.95,47.2441 "/>
<polyline clip-path="url(#clip292)" style="stroke:#000000; stroke-linecap:round; stroke-linejoin:round; stroke-width:2; stroke-opacity:0.1; fill:none" points="2312.03,1423.18 2312.03,47.2441 "/>
<polyline clip-path="url(#clip290)" style="stroke:#000000; stroke-linecap:round; stroke-linejoin:round; stroke-width:4; stroke-opacity:1; fill:none" points="170.857,1423.18 2352.76,1423.18 "/>
<polyline clip-path="url(#clip290)" style="stroke:#000000; stroke-linecap:round; stroke-linejoin:round; stroke-width:4; stroke-opacity:1; fill:none" points="211.586,1423.18 211.586,1404.28 "/>
<polyline clip-path="url(#clip290)" style="stroke:#000000; stroke-linecap:round; stroke-linejoin:round; stroke-width:4; stroke-opacity:1; fill:none" points="561.659,1423.18 561.659,1404.28 "/>
<polyline clip-path="url(#clip290)" style="stroke:#000000; stroke-linecap:round; stroke-linejoin:round; stroke-width:4; stroke-opacity:1; fill:none" points="911.733,1423.18 911.733,1404.28 "/>
<polyline clip-path="url(#clip290)" style="stroke:#000000; stroke-linecap:round; stroke-linejoin:round; stroke-width:4; stroke-opacity:1; fill:none" points="1261.81,1423.18 1261.81,1404.28 "/>
<polyline clip-path="url(#clip290)" style="stroke:#000000; stroke-linecap:round; stroke-linejoin:round; stroke-width:4; stroke-opacity:1; fill:none" points="1611.88,1423.18 1611.88,1404.28 "/>
<polyline clip-path="url(#clip290)" style="stroke:#000000; stroke-linecap:round; stroke-linejoin:round; stroke-width:4; stroke-opacity:1; fill:none" points="1961.95,1423.18 1961.95,1404.28 "/>
<polyline clip-path="url(#clip290)" style="stroke:#000000; stroke-linecap:round; stroke-linejoin:round; stroke-width:4; stroke-opacity:1; fill:none" points="2312.03,1423.18 2312.03,1404.28 "/>
<path clip-path="url(#clip290)" d="M143.531 1468.75 L173.206 1468.75 L173.206 1472.69 L143.531 1472.69 L143.531 1468.75 Z" fill="#000000" fill-rule="nonzero" fill-opacity="1" /><path clip-path="url(#clip290)" d="M193.299 1454.1 Q189.688 1454.1 187.859 1457.66 Q186.054 1461.2 186.054 1468.33 Q186.054 1475.44 187.859 1479.01 Q189.688 1482.55 193.299 1482.55 Q196.933 1482.55 198.739 1479.01 Q200.567 1475.44 200.567 1468.33 Q200.567 1461.2 198.739 1457.66 Q196.933 1454.1 193.299 1454.1 M193.299 1450.39 Q199.109 1450.39 202.165 1455 Q205.243 1459.58 205.243 1468.33 Q205.243 1477.06 202.165 1481.67 Q199.109 1486.25 193.299 1486.25 Q187.489 1486.25 184.41 1481.67 Q181.355 1477.06 181.355 1468.33 Q181.355 1459.58 184.41 1455 Q187.489 1450.39 193.299 1450.39 Z" fill="#000000" fill-rule="nonzero" fill-opacity="1" /><path clip-path="url(#clip290)" d="M213.461 1479.7 L218.345 1479.7 L218.345 1485.58 L213.461 1485.58 L213.461 1479.7 Z" fill="#000000" fill-rule="nonzero" fill-opacity="1" /><path clip-path="url(#clip290)" d="M229.34 1481.64 L236.979 1481.64 L236.979 1455.28 L228.669 1456.95 L228.669 1452.69 L236.933 1451.02 L241.609 1451.02 L241.609 1481.64 L249.248 1481.64 L249.248 1485.58 L229.34 1485.58 L229.34 1481.64 Z" fill="#000000" fill-rule="nonzero" fill-opacity="1" /><path clip-path="url(#clip290)" d="M258.738 1451.02 L277.095 1451.02 L277.095 1454.96 L263.021 1454.96 L263.021 1463.43 Q264.039 1463.08 265.058 1462.92 Q266.076 1462.73 267.095 1462.73 Q272.882 1462.73 276.261 1465.9 Q279.641 1469.08 279.641 1474.49 Q279.641 1480.07 276.169 1483.17 Q272.697 1486.25 266.377 1486.25 Q264.201 1486.25 261.933 1485.88 Q259.687 1485.51 257.28 1484.77 L257.28 1480.07 Q259.363 1481.2 261.586 1481.76 Q263.808 1482.32 266.285 1482.32 Q270.289 1482.32 272.627 1480.21 Q274.965 1478.1 274.965 1474.49 Q274.965 1470.88 272.627 1468.77 Q270.289 1466.67 266.285 1466.67 Q264.41 1466.67 262.535 1467.08 Q260.683 1467.5 258.738 1468.38 L258.738 1451.02 Z" fill="#000000" fill-rule="nonzero" fill-opacity="1" /><path clip-path="url(#clip290)" d="M493.107 1468.75 L522.782 1468.75 L522.782 1472.69 L493.107 1472.69 L493.107 1468.75 Z" fill="#000000" fill-rule="nonzero" fill-opacity="1" /><path clip-path="url(#clip290)" d="M542.875 1454.1 Q539.264 1454.1 537.435 1457.66 Q535.63 1461.2 535.63 1468.33 Q535.63 1475.44 537.435 1479.01 Q539.264 1482.55 542.875 1482.55 Q546.509 1482.55 548.315 1479.01 Q550.143 1475.44 550.143 1468.33 Q550.143 1461.2 548.315 1457.66 Q546.509 1454.1 542.875 1454.1 M542.875 1450.39 Q548.685 1450.39 551.741 1455 Q554.819 1459.58 554.819 1468.33 Q554.819 1477.06 551.741 1481.67 Q548.685 1486.25 542.875 1486.25 Q537.065 1486.25 533.986 1481.67 Q530.93 1477.06 530.93 1468.33 Q530.93 1459.58 533.986 1455 Q537.065 1450.39 542.875 1450.39 Z" fill="#000000" fill-rule="nonzero" fill-opacity="1" /><path clip-path="url(#clip290)" d="M563.037 1479.7 L567.921 1479.7 L567.921 1485.58 L563.037 1485.58 L563.037 1479.7 Z" fill="#000000" fill-rule="nonzero" fill-opacity="1" /><path clip-path="url(#clip290)" d="M578.916 1481.64 L586.555 1481.64 L586.555 1455.28 L578.245 1456.95 L578.245 1452.69 L586.509 1451.02 L591.185 1451.02 L591.185 1481.64 L598.824 1481.64 L598.824 1485.58 L578.916 1485.58 L578.916 1481.64 Z" fill="#000000" fill-rule="nonzero" fill-opacity="1" /><path clip-path="url(#clip290)" d="M618.268 1454.1 Q614.657 1454.1 612.828 1457.66 Q611.023 1461.2 611.023 1468.33 Q611.023 1475.44 612.828 1479.01 Q614.657 1482.55 618.268 1482.55 Q621.902 1482.55 623.708 1479.01 Q625.536 1475.44 625.536 1468.33 Q625.536 1461.2 623.708 1457.66 Q621.902 1454.1 618.268 1454.1 M618.268 1450.39 Q624.078 1450.39 627.134 1455 Q630.212 1459.58 630.212 1468.33 Q630.212 1477.06 627.134 1481.67 Q624.078 1486.25 618.268 1486.25 Q612.458 1486.25 609.379 1481.67 Q606.324 1477.06 606.324 1468.33 Q606.324 1459.58 609.379 1455 Q612.458 1450.39 618.268 1450.39 Z" fill="#000000" fill-rule="nonzero" fill-opacity="1" /><path clip-path="url(#clip290)" d="M843.678 1468.75 L873.354 1468.75 L873.354 1472.69 L843.678 1472.69 L843.678 1468.75 Z" fill="#000000" fill-rule="nonzero" fill-opacity="1" /><path clip-path="url(#clip290)" d="M893.446 1454.1 Q889.835 1454.1 888.006 1457.66 Q886.201 1461.2 886.201 1468.33 Q886.201 1475.44 888.006 1479.01 Q889.835 1482.55 893.446 1482.55 Q897.08 1482.55 898.886 1479.01 Q900.715 1475.44 900.715 1468.33 Q900.715 1461.2 898.886 1457.66 Q897.08 1454.1 893.446 1454.1 M893.446 1450.39 Q899.256 1450.39 902.312 1455 Q905.391 1459.58 905.391 1468.33 Q905.391 1477.06 902.312 1481.67 Q899.256 1486.25 893.446 1486.25 Q887.636 1486.25 884.557 1481.67 Q881.502 1477.06 881.502 1468.33 Q881.502 1459.58 884.557 1455 Q887.636 1450.39 893.446 1450.39 Z" fill="#000000" fill-rule="nonzero" fill-opacity="1" /><path clip-path="url(#clip290)" d="M913.608 1479.7 L918.492 1479.7 L918.492 1485.58 L913.608 1485.58 L913.608 1479.7 Z" fill="#000000" fill-rule="nonzero" fill-opacity="1" /><path clip-path="url(#clip290)" d="M938.677 1454.1 Q935.066 1454.1 933.238 1457.66 Q931.432 1461.2 931.432 1468.33 Q931.432 1475.44 933.238 1479.01 Q935.066 1482.55 938.677 1482.55 Q942.312 1482.55 944.117 1479.01 Q945.946 1475.44 945.946 1468.33 Q945.946 1461.2 944.117 1457.66 Q942.312 1454.1 938.677 1454.1 M938.677 1450.39 Q944.488 1450.39 947.543 1455 Q950.622 1459.58 950.622 1468.33 Q950.622 1477.06 947.543 1481.67 Q944.488 1486.25 938.677 1486.25 Q932.867 1486.25 929.789 1481.67 Q926.733 1477.06 926.733 1468.33 Q926.733 1459.58 929.789 1455 Q932.867 1450.39 938.677 1450.39 Z" fill="#000000" fill-rule="nonzero" fill-opacity="1" /><path clip-path="url(#clip290)" d="M958.886 1451.02 L977.242 1451.02 L977.242 1454.96 L963.168 1454.96 L963.168 1463.43 Q964.186 1463.08 965.205 1462.92 Q966.224 1462.73 967.242 1462.73 Q973.029 1462.73 976.409 1465.9 Q979.788 1469.08 979.788 1474.49 Q979.788 1480.07 976.316 1483.17 Q972.844 1486.25 966.524 1486.25 Q964.349 1486.25 962.08 1485.88 Q959.835 1485.51 957.427 1484.77 L957.427 1480.07 Q959.511 1481.2 961.733 1481.76 Q963.955 1482.32 966.432 1482.32 Q970.436 1482.32 972.774 1480.21 Q975.112 1478.1 975.112 1474.49 Q975.112 1470.88 972.774 1468.77 Q970.436 1466.67 966.432 1466.67 Q964.557 1466.67 962.682 1467.08 Q960.83 1467.5 958.886 1468.38 L958.886 1451.02 Z" fill="#000000" fill-rule="nonzero" fill-opacity="1" /><path clip-path="url(#clip290)" d="M1224.11 1454.1 Q1220.5 1454.1 1218.67 1457.66 Q1216.86 1461.2 1216.86 1468.33 Q1216.86 1475.44 1218.67 1479.01 Q1220.5 1482.55 1224.11 1482.55 Q1227.74 1482.55 1229.55 1479.01 Q1231.38 1475.44 1231.38 1468.33 Q1231.38 1461.2 1229.55 1457.66 Q1227.74 1454.1 1224.11 1454.1 M1224.11 1450.39 Q1229.92 1450.39 1232.98 1455 Q1236.05 1459.58 1236.05 1468.33 Q1236.05 1477.06 1232.98 1481.67 Q1229.92 1486.25 1224.11 1486.25 Q1218.3 1486.25 1215.22 1481.67 Q1212.17 1477.06 1212.17 1468.33 Q1212.17 1459.58 1215.22 1455 Q1218.3 1450.39 1224.11 1450.39 Z" fill="#000000" fill-rule="nonzero" fill-opacity="1" /><path clip-path="url(#clip290)" d="M1244.27 1479.7 L1249.16 1479.7 L1249.16 1485.58 L1244.27 1485.58 L1244.27 1479.7 Z" fill="#000000" fill-rule="nonzero" fill-opacity="1" /><path clip-path="url(#clip290)" d="M1269.34 1454.1 Q1265.73 1454.1 1263.9 1457.66 Q1262.1 1461.2 1262.1 1468.33 Q1262.1 1475.44 1263.9 1479.01 Q1265.73 1482.55 1269.34 1482.55 Q1272.98 1482.55 1274.78 1479.01 Q1276.61 1475.44 1276.61 1468.33 Q1276.61 1461.2 1274.78 1457.66 Q1272.98 1454.1 1269.34 1454.1 M1269.34 1450.39 Q1275.15 1450.39 1278.21 1455 Q1281.29 1459.58 1281.29 1468.33 Q1281.29 1477.06 1278.21 1481.67 Q1275.15 1486.25 1269.34 1486.25 Q1263.53 1486.25 1260.45 1481.67 Q1257.4 1477.06 1257.4 1468.33 Q1257.4 1459.58 1260.45 1455 Q1263.53 1450.39 1269.34 1450.39 Z" fill="#000000" fill-rule="nonzero" fill-opacity="1" /><path clip-path="url(#clip290)" d="M1299.5 1454.1 Q1295.89 1454.1 1294.06 1457.66 Q1292.26 1461.2 1292.26 1468.33 Q1292.26 1475.44 1294.06 1479.01 Q1295.89 1482.55 1299.5 1482.55 Q1303.14 1482.55 1304.94 1479.01 Q1306.77 1475.44 1306.77 1468.33 Q1306.77 1461.2 1304.94 1457.66 Q1303.14 1454.1 1299.5 1454.1 M1299.5 1450.39 Q1305.31 1450.39 1308.37 1455 Q1311.45 1459.58 1311.45 1468.33 Q1311.45 1477.06 1308.37 1481.67 Q1305.31 1486.25 1299.5 1486.25 Q1293.69 1486.25 1290.61 1481.67 Q1287.56 1477.06 1287.56 1468.33 Q1287.56 1459.58 1290.61 1455 Q1293.69 1450.39 1299.5 1450.39 Z" fill="#000000" fill-rule="nonzero" fill-opacity="1" /><path clip-path="url(#clip290)" d="M1574.68 1454.1 Q1571.07 1454.1 1569.24 1457.66 Q1567.44 1461.2 1567.44 1468.33 Q1567.44 1475.44 1569.24 1479.01 Q1571.07 1482.55 1574.68 1482.55 Q1578.32 1482.55 1580.12 1479.01 Q1581.95 1475.44 1581.95 1468.33 Q1581.95 1461.2 1580.12 1457.66 Q1578.32 1454.1 1574.68 1454.1 M1574.68 1450.39 Q1580.49 1450.39 1583.55 1455 Q1586.63 1459.58 1586.63 1468.33 Q1586.63 1477.06 1583.55 1481.67 Q1580.49 1486.25 1574.68 1486.25 Q1568.87 1486.25 1565.79 1481.67 Q1562.74 1477.06 1562.74 1468.33 Q1562.74 1459.58 1565.79 1455 Q1568.87 1450.39 1574.68 1450.39 Z" fill="#000000" fill-rule="nonzero" fill-opacity="1" /><path clip-path="url(#clip290)" d="M1594.84 1479.7 L1599.73 1479.7 L1599.73 1485.58 L1594.84 1485.58 L1594.84 1479.7 Z" fill="#000000" fill-rule="nonzero" fill-opacity="1" /><path clip-path="url(#clip290)" d="M1619.91 1454.1 Q1616.3 1454.1 1614.47 1457.66 Q1612.67 1461.2 1612.67 1468.33 Q1612.67 1475.44 1614.47 1479.01 Q1616.3 1482.55 1619.91 1482.55 Q1623.55 1482.55 1625.35 1479.01 Q1627.18 1475.44 1627.18 1468.33 Q1627.18 1461.2 1625.35 1457.66 Q1623.55 1454.1 1619.91 1454.1 M1619.91 1450.39 Q1625.72 1450.39 1628.78 1455 Q1631.86 1459.58 1631.86 1468.33 Q1631.86 1477.06 1628.78 1481.67 Q1625.72 1486.25 1619.91 1486.25 Q1614.1 1486.25 1611.02 1481.67 Q1607.97 1477.06 1607.97 1468.33 Q1607.97 1459.58 1611.02 1455 Q1614.1 1450.39 1619.91 1450.39 Z" fill="#000000" fill-rule="nonzero" fill-opacity="1" /><path clip-path="url(#clip290)" d="M1640.12 1451.02 L1658.48 1451.02 L1658.48 1454.96 L1644.4 1454.96 L1644.4 1463.43 Q1645.42 1463.08 1646.44 1462.92 Q1647.46 1462.73 1648.48 1462.73 Q1654.26 1462.73 1657.64 1465.9 Q1661.02 1469.08 1661.02 1474.49 Q1661.02 1480.07 1657.55 1483.17 Q1654.08 1486.25 1647.76 1486.25 Q1645.58 1486.25 1643.32 1485.88 Q1641.07 1485.51 1638.66 1484.77 L1638.66 1480.07 Q1640.75 1481.2 1642.97 1481.76 Q1645.19 1482.32 1647.67 1482.32 Q1651.67 1482.32 1654.01 1480.21 Q1656.35 1478.1 1656.35 1474.49 Q1656.35 1470.88 1654.01 1468.77 Q1651.67 1466.67 1647.67 1466.67 Q1645.79 1466.67 1643.92 1467.08 Q1642.07 1467.5 1640.12 1468.38 L1640.12 1451.02 Z" fill="#000000" fill-rule="nonzero" fill-opacity="1" /><path clip-path="url(#clip290)" d="M1924.26 1454.1 Q1920.65 1454.1 1918.82 1457.66 Q1917.01 1461.2 1917.01 1468.33 Q1917.01 1475.44 1918.82 1479.01 Q1920.65 1482.55 1924.26 1482.55 Q1927.89 1482.55 1929.7 1479.01 Q1931.53 1475.44 1931.53 1468.33 Q1931.53 1461.2 1929.7 1457.66 Q1927.89 1454.1 1924.26 1454.1 M1924.26 1450.39 Q1930.07 1450.39 1933.12 1455 Q1936.2 1459.58 1936.2 1468.33 Q1936.2 1477.06 1933.12 1481.67 Q1930.07 1486.25 1924.26 1486.25 Q1918.45 1486.25 1915.37 1481.67 Q1912.31 1477.06 1912.31 1468.33 Q1912.31 1459.58 1915.37 1455 Q1918.45 1450.39 1924.26 1450.39 Z" fill="#000000" fill-rule="nonzero" fill-opacity="1" /><path clip-path="url(#clip290)" d="M1944.42 1479.7 L1949.3 1479.7 L1949.3 1485.58 L1944.42 1485.58 L1944.42 1479.7 Z" fill="#000000" fill-rule="nonzero" fill-opacity="1" /><path clip-path="url(#clip290)" d="M1960.3 1481.64 L1967.94 1481.64 L1967.94 1455.28 L1959.63 1456.95 L1959.63 1452.69 L1967.89 1451.02 L1972.57 1451.02 L1972.57 1481.64 L1980.21 1481.64 L1980.21 1485.58 L1960.3 1485.58 L1960.3 1481.64 Z" fill="#000000" fill-rule="nonzero" fill-opacity="1" /><path clip-path="url(#clip290)" d="M1999.65 1454.1 Q1996.04 1454.1 1994.21 1457.66 Q1992.41 1461.2 1992.41 1468.33 Q1992.41 1475.44 1994.21 1479.01 Q1996.04 1482.55 1999.65 1482.55 Q2003.28 1482.55 2005.09 1479.01 Q2006.92 1475.44 2006.92 1468.33 Q2006.92 1461.2 2005.09 1457.66 Q2003.28 1454.1 1999.65 1454.1 M1999.65 1450.39 Q2005.46 1450.39 2008.52 1455 Q2011.59 1459.58 2011.59 1468.33 Q2011.59 1477.06 2008.52 1481.67 Q2005.46 1486.25 1999.65 1486.25 Q1993.84 1486.25 1990.76 1481.67 Q1987.71 1477.06 1987.71 1468.33 Q1987.71 1459.58 1990.76 1455 Q1993.84 1450.39 1999.65 1450.39 Z" fill="#000000" fill-rule="nonzero" fill-opacity="1" /><path clip-path="url(#clip290)" d="M2274.83 1454.1 Q2271.22 1454.1 2269.39 1457.66 Q2267.58 1461.2 2267.58 1468.33 Q2267.58 1475.44 2269.39 1479.01 Q2271.22 1482.55 2274.83 1482.55 Q2278.46 1482.55 2280.27 1479.01 Q2282.1 1475.44 2282.1 1468.33 Q2282.1 1461.2 2280.27 1457.66 Q2278.46 1454.1 2274.83 1454.1 M2274.83 1450.39 Q2280.64 1450.39 2283.69 1455 Q2286.77 1459.58 2286.77 1468.33 Q2286.77 1477.06 2283.69 1481.67 Q2280.64 1486.25 2274.83 1486.25 Q2269.02 1486.25 2265.94 1481.67 Q2262.88 1477.06 2262.88 1468.33 Q2262.88 1459.58 2265.94 1455 Q2269.02 1450.39 2274.83 1450.39 Z" fill="#000000" fill-rule="nonzero" fill-opacity="1" /><path clip-path="url(#clip290)" d="M2294.99 1479.7 L2299.87 1479.7 L2299.87 1485.58 L2294.99 1485.58 L2294.99 1479.7 Z" fill="#000000" fill-rule="nonzero" fill-opacity="1" /><path clip-path="url(#clip290)" d="M2310.87 1481.64 L2318.51 1481.64 L2318.51 1455.28 L2310.2 1456.95 L2310.2 1452.69 L2318.46 1451.02 L2323.14 1451.02 L2323.14 1481.64 L2330.78 1481.64 L2330.78 1485.58 L2310.87 1485.58 L2310.87 1481.64 Z" fill="#000000" fill-rule="nonzero" fill-opacity="1" /><path clip-path="url(#clip290)" d="M2340.27 1451.02 L2358.62 1451.02 L2358.62 1454.96 L2344.55 1454.96 L2344.55 1463.43 Q2345.57 1463.08 2346.59 1462.92 Q2347.61 1462.73 2348.62 1462.73 Q2354.41 1462.73 2357.79 1465.9 Q2361.17 1469.08 2361.17 1474.49 Q2361.17 1480.07 2357.7 1483.17 Q2354.23 1486.25 2347.91 1486.25 Q2345.73 1486.25 2343.46 1485.88 Q2341.22 1485.51 2338.81 1484.77 L2338.81 1480.07 Q2340.89 1481.2 2343.12 1481.76 Q2345.34 1482.32 2347.81 1482.32 Q2351.82 1482.32 2354.16 1480.21 Q2356.49 1478.1 2356.49 1474.49 Q2356.49 1470.88 2354.16 1468.77 Q2351.82 1466.67 2347.81 1466.67 Q2345.94 1466.67 2344.06 1467.08 Q2342.21 1467.5 2340.27 1468.38 L2340.27 1451.02 Z" fill="#000000" fill-rule="nonzero" fill-opacity="1" /><path clip-path="url(#clip290)" d="M948.232 1548.76 L948.232 1551.62 L921.305 1551.62 Q921.687 1557.67 924.933 1560.85 Q928.212 1564 934.036 1564 Q937.41 1564 940.561 1563.17 Q943.744 1562.35 946.863 1560.69 L946.863 1566.23 Q943.712 1567.57 940.402 1568.27 Q937.092 1568.97 933.686 1568.97 Q925.156 1568.97 920.159 1564 Q915.194 1559.04 915.194 1550.57 Q915.194 1541.82 919.905 1536.69 Q924.647 1531.54 932.668 1531.54 Q939.861 1531.54 944.031 1536.18 Q948.232 1540.8 948.232 1548.76 M942.376 1547.04 Q942.312 1542.23 939.67 1539.37 Q937.06 1536.5 932.731 1536.5 Q927.83 1536.5 924.87 1539.27 Q921.942 1542.04 921.496 1547.07 L942.376 1547.04 Z" fill="#000000" fill-rule="nonzero" fill-opacity="1" /><path clip-path="url(#clip290)" d="M957.844 1532.4 L963.701 1532.4 L963.701 1568.04 L957.844 1568.04 L957.844 1532.4 M957.844 1518.52 L963.701 1518.52 L963.701 1525.93 L957.844 1525.93 L957.844 1518.52 Z" fill="#000000" fill-rule="nonzero" fill-opacity="1" /><path clip-path="url(#clip290)" d="M999.412 1549.81 Q999.412 1543.44 996.77 1539.94 Q994.161 1536.44 989.418 1536.44 Q984.707 1536.44 982.066 1539.94 Q979.456 1543.44 979.456 1549.81 Q979.456 1556.14 982.066 1559.64 Q984.707 1563.14 989.418 1563.14 Q994.161 1563.14 996.77 1559.64 Q999.412 1556.14 999.412 1549.81 M1005.27 1563.62 Q1005.27 1572.72 1001.23 1577.15 Q997.184 1581.6 988.845 1581.6 Q985.758 1581.6 983.021 1581.13 Q980.283 1580.68 977.705 1579.72 L977.705 1574.03 Q980.283 1575.43 982.798 1576.1 Q985.312 1576.76 987.922 1576.76 Q993.683 1576.76 996.548 1573.74 Q999.412 1570.75 999.412 1564.67 L999.412 1561.77 Q997.598 1564.92 994.765 1566.48 Q991.933 1568.04 987.986 1568.04 Q981.429 1568.04 977.419 1563.05 Q973.408 1558.05 973.408 1549.81 Q973.408 1541.53 977.419 1536.53 Q981.429 1531.54 987.986 1531.54 Q991.933 1531.54 994.765 1533.1 Q997.598 1534.66 999.412 1537.81 L999.412 1532.4 L1005.27 1532.4 L1005.27 1563.62 Z" fill="#000000" fill-rule="nonzero" fill-opacity="1" /><path clip-path="url(#clip290)" d="M1047.82 1548.76 L1047.82 1551.62 L1020.9 1551.62 Q1021.28 1557.67 1024.52 1560.85 Q1027.8 1564 1033.63 1564 Q1037 1564 1040.15 1563.17 Q1043.34 1562.35 1046.45 1560.69 L1046.45 1566.23 Q1043.3 1567.57 1039.99 1568.27 Q1036.68 1568.97 1033.28 1568.97 Q1024.75 1568.97 1019.75 1564 Q1014.79 1559.04 1014.79 1550.57 Q1014.79 1541.82 1019.5 1536.69 Q1024.24 1531.54 1032.26 1531.54 Q1039.45 1531.54 1043.62 1536.18 Q1047.82 1540.8 1047.82 1548.76 M1041.97 1547.04 Q1041.9 1542.23 1039.26 1539.37 Q1036.65 1536.5 1032.32 1536.5 Q1027.42 1536.5 1024.46 1539.27 Q1021.53 1542.04 1021.09 1547.07 L1041.97 1547.04 Z" fill="#000000" fill-rule="nonzero" fill-opacity="1" /><path clip-path="url(#clip290)" d="M1087.07 1546.53 L1087.07 1568.04 L1081.21 1568.04 L1081.21 1546.72 Q1081.21 1541.66 1079.24 1539.14 Q1077.26 1536.63 1073.32 1536.63 Q1068.58 1536.63 1065.84 1539.65 Q1063.1 1542.68 1063.1 1547.9 L1063.1 1568.04 L1057.21 1568.04 L1057.21 1532.4 L1063.1 1532.4 L1063.1 1537.93 Q1065.2 1534.72 1068.03 1533.13 Q1070.9 1531.54 1074.62 1531.54 Q1080.77 1531.54 1083.92 1535.36 Q1087.07 1539.14 1087.07 1546.53 Z" fill="#000000" fill-rule="nonzero" fill-opacity="1" /><path clip-path="url(#clip290)" d="M1094.55 1532.4 L1100.75 1532.4 L1111.89 1562.31 L1123.03 1532.4 L1129.24 1532.4 L1115.87 1568.04 L1107.92 1568.04 L1094.55 1532.4 Z" fill="#000000" fill-rule="nonzero" fill-opacity="1" /><path clip-path="url(#clip290)" d="M1153.53 1550.12 Q1146.43 1550.12 1143.69 1551.75 Q1140.95 1553.37 1140.95 1557.29 Q1140.95 1560.4 1142.99 1562.25 Q1145.06 1564.07 1148.59 1564.07 Q1153.46 1564.07 1156.39 1560.63 Q1159.35 1557.16 1159.35 1551.43 L1159.35 1550.12 L1153.53 1550.12 M1165.21 1547.71 L1165.21 1568.04 L1159.35 1568.04 L1159.35 1562.63 Q1157.35 1565.88 1154.35 1567.44 Q1151.36 1568.97 1147.03 1568.97 Q1141.56 1568.97 1138.31 1565.91 Q1135.1 1562.82 1135.1 1557.67 Q1135.1 1551.65 1139.11 1548.6 Q1143.15 1545.54 1151.14 1545.54 L1159.35 1545.54 L1159.35 1544.97 Q1159.35 1540.93 1156.68 1538.73 Q1154.04 1536.5 1149.23 1536.5 Q1146.17 1536.5 1143.28 1537.23 Q1140.38 1537.97 1137.71 1539.43 L1137.71 1534.02 Q1140.92 1532.78 1143.95 1532.17 Q1146.97 1531.54 1149.83 1531.54 Q1157.57 1531.54 1161.39 1535.55 Q1165.21 1539.56 1165.21 1547.71 Z" fill="#000000" fill-rule="nonzero" fill-opacity="1" /><path clip-path="url(#clip290)" d="M1177.27 1518.52 L1183.13 1518.52 L1183.13 1568.04 L1177.27 1568.04 L1177.27 1518.52 Z" fill="#000000" fill-rule="nonzero" fill-opacity="1" /><path clip-path="url(#clip290)" d="M1194.78 1553.98 L1194.78 1532.4 L1200.63 1532.4 L1200.63 1553.75 Q1200.63 1558.81 1202.61 1561.36 Q1204.58 1563.87 1208.53 1563.87 Q1213.27 1563.87 1216.01 1560.85 Q1218.77 1557.83 1218.77 1552.61 L1218.77 1532.4 L1224.63 1532.4 L1224.63 1568.04 L1218.77 1568.04 L1218.77 1562.57 Q1216.64 1565.82 1213.81 1567.41 Q1211.01 1568.97 1207.28 1568.97 Q1201.14 1568.97 1197.96 1565.15 Q1194.78 1561.33 1194.78 1553.98 M1209.51 1531.54 L1209.51 1531.54 Z" fill="#000000" fill-rule="nonzero" fill-opacity="1" /><path clip-path="url(#clip290)" d="M1267.19 1548.76 L1267.19 1551.62 L1240.26 1551.62 Q1240.64 1557.67 1243.89 1560.85 Q1247.17 1564 1252.99 1564 Q1256.36 1564 1259.52 1563.17 Q1262.7 1562.35 1265.82 1560.69 L1265.82 1566.23 Q1262.67 1567.57 1259.36 1568.27 Q1256.05 1568.97 1252.64 1568.97 Q1244.11 1568.97 1239.11 1564 Q1234.15 1559.04 1234.15 1550.57 Q1234.15 1541.82 1238.86 1536.69 Q1243.6 1531.54 1251.62 1531.54 Q1258.81 1531.54 1262.98 1536.18 Q1267.19 1540.8 1267.19 1548.76 M1261.33 1547.04 Q1261.27 1542.23 1258.62 1539.37 Q1256.01 1536.5 1251.69 1536.5 Q1246.78 1536.5 1243.82 1539.27 Q1240.9 1542.04 1240.45 1547.07 L1261.33 1547.04 Z" fill="#000000" fill-rule="nonzero" fill-opacity="1" /><path clip-path="url(#clip290)" d="M1299.52 1533.45 L1299.52 1538.98 Q1297.04 1537.71 1294.37 1537.07 Q1291.69 1536.44 1288.83 1536.44 Q1284.47 1536.44 1282.27 1537.77 Q1280.11 1539.11 1280.11 1541.79 Q1280.11 1543.82 1281.67 1545 Q1283.23 1546.15 1287.94 1547.2 L1289.94 1547.64 Q1296.18 1548.98 1298.79 1551.43 Q1301.43 1553.85 1301.43 1558.21 Q1301.43 1563.17 1297.49 1566.07 Q1293.57 1568.97 1286.7 1568.97 Q1283.83 1568.97 1280.71 1568.39 Q1277.63 1567.85 1274.19 1566.74 L1274.19 1560.69 Q1277.43 1562.38 1280.59 1563.24 Q1283.74 1564.07 1286.82 1564.07 Q1290.96 1564.07 1293.19 1562.66 Q1295.42 1561.23 1295.42 1558.65 Q1295.42 1556.27 1293.79 1554.99 Q1292.2 1553.72 1286.76 1552.54 L1284.72 1552.07 Q1279.28 1550.92 1276.86 1548.56 Q1274.44 1546.18 1274.44 1542.04 Q1274.44 1537.01 1278.01 1534.27 Q1281.57 1531.54 1288.13 1531.54 Q1291.38 1531.54 1294.24 1532.01 Q1297.1 1532.49 1299.52 1533.45 Z" fill="#000000" fill-rule="nonzero" fill-opacity="1" /><path clip-path="url(#clip290)" d="M1328.52 1547.58 L1345.67 1547.58 L1345.67 1552.8 L1328.52 1552.8 L1328.52 1547.58 Z" fill="#000000" fill-rule="nonzero" fill-opacity="1" /><path clip-path="url(#clip290)" d="M1361.43 1548.82 Q1357.87 1548.06 1355.96 1545.99 Q1354.05 1543.95 1354.05 1540.99 Q1354.05 1536.5 1357.67 1533.99 Q1361.27 1531.5 1367.51 1531.5 Q1369.93 1531.5 1372.63 1531.89 Q1375.34 1532.27 1378.46 1533.03 L1378.46 1538.35 Q1375.37 1537.42 1372.82 1537.01 Q1370.25 1536.6 1367.99 1536.6 Q1364.2 1536.6 1362 1538.06 Q1359.77 1539.53 1359.77 1541.56 Q1359.77 1543.79 1361.94 1545.22 Q1364.07 1546.62 1367.76 1546.62 L1372.7 1546.62 L1372.7 1551.46 L1367.99 1551.46 Q1363.63 1551.46 1361.33 1553.08 Q1358.85 1554.87 1358.85 1557.67 Q1358.85 1560.53 1361.53 1562.31 Q1364.23 1564.1 1369.04 1564.1 Q1372 1564.1 1374.7 1563.52 Q1377.41 1562.92 1379.67 1561.74 L1379.67 1567.18 Q1376.8 1568.08 1374.13 1568.52 Q1371.42 1568.97 1368.88 1568.97 Q1361.3 1568.97 1357.2 1566.07 Q1353.09 1563.17 1353.09 1557.67 Q1353.09 1554.23 1355.29 1551.91 Q1357.48 1549.58 1361.43 1548.82 Z" fill="#000000" fill-rule="nonzero" fill-opacity="1" /><path clip-path="url(#clip290)" d="M1417.32 1578.87 L1417.32 1583.42 L1383.46 1583.42 L1383.46 1578.87 L1417.32 1578.87 Z" fill="#000000" fill-rule="nonzero" fill-opacity="1" /><path clip-path="url(#clip290)" d="M1423.08 1520.52 L1450.39 1520.52 L1450.39 1525.93 L1429.51 1525.93 L1429.51 1539.94 L1448.35 1539.94 L1448.35 1545.35 L1429.51 1545.35 L1429.51 1568.04 L1423.08 1568.04 L1423.08 1520.52 Z" fill="#000000" fill-rule="nonzero" fill-opacity="1" /><path clip-path="url(#clip290)" d="M1515.83 1518.58 Q1511.57 1525.9 1509.5 1533.06 Q1507.43 1540.23 1507.43 1547.58 Q1507.43 1554.93 1509.5 1562.16 Q1511.6 1569.35 1515.83 1576.64 L1510.74 1576.64 Q1505.96 1569.16 1503.58 1561.93 Q1501.22 1554.71 1501.22 1547.58 Q1501.22 1540.48 1503.58 1533.29 Q1505.93 1526.09 1510.74 1518.58 L1515.83 1518.58 Z" fill="#000000" fill-rule="nonzero" fill-opacity="1" /><path clip-path="url(#clip290)" d="M1527.45 1520.52 L1557.49 1520.52 L1557.49 1525.93 L1533.88 1525.93 L1533.88 1540 L1556.51 1540 L1556.51 1545.41 L1533.88 1545.41 L1533.88 1562.63 L1558.07 1562.63 L1558.07 1568.04 L1527.45 1568.04 L1527.45 1520.52 Z" fill="#000000" fill-rule="nonzero" fill-opacity="1" /><path clip-path="url(#clip290)" d="M1584.77 1555.98 L1584.77 1568.04 L1581.08 1568.04 L1581.08 1556.11 Q1581.08 1553.28 1579.84 1551.87 Q1578.6 1550.44 1576.11 1550.44 Q1573.12 1550.44 1571.4 1552.16 Q1569.68 1553.85 1569.68 1556.78 L1569.68 1568.04 L1565.96 1568.04 L1565.96 1540.32 L1569.68 1540.32 L1569.68 1551.17 Q1570.99 1549.39 1572.77 1548.5 Q1574.59 1547.61 1576.94 1547.61 Q1580.79 1547.61 1582.77 1549.74 Q1584.77 1551.87 1584.77 1555.98 Z" fill="#000000" fill-rule="nonzero" fill-opacity="1" /><path clip-path="url(#clip290)" d="M1593.81 1518.58 L1598.9 1518.58 Q1603.68 1526.09 1606.03 1533.29 Q1608.42 1540.48 1608.42 1547.58 Q1608.42 1554.71 1606.03 1561.93 Q1603.68 1569.16 1598.9 1576.64 L1593.81 1576.64 Q1598.04 1569.35 1600.11 1562.16 Q1602.21 1554.93 1602.21 1547.58 Q1602.21 1540.23 1600.11 1533.06 Q1598.04 1525.9 1593.81 1518.58 Z" fill="#000000" fill-rule="nonzero" fill-opacity="1" /><polyline clip-path="url(#clip292)" style="stroke:#000000; stroke-linecap:round; stroke-linejoin:round; stroke-width:2; stroke-opacity:0.1; fill:none" points="170.857,1384.24 2352.76,1384.24 "/>
<polyline clip-path="url(#clip292)" style="stroke:#000000; stroke-linecap:round; stroke-linejoin:round; stroke-width:2; stroke-opacity:0.1; fill:none" points="170.857,1070.25 2352.76,1070.25 "/>
<polyline clip-path="url(#clip292)" style="stroke:#000000; stroke-linecap:round; stroke-linejoin:round; stroke-width:2; stroke-opacity:0.1; fill:none" points="170.857,756.266 2352.76,756.266 "/>
<polyline clip-path="url(#clip292)" style="stroke:#000000; stroke-linecap:round; stroke-linejoin:round; stroke-width:2; stroke-opacity:0.1; fill:none" points="170.857,442.278 2352.76,442.278 "/>
<polyline clip-path="url(#clip292)" style="stroke:#000000; stroke-linecap:round; stroke-linejoin:round; stroke-width:2; stroke-opacity:0.1; fill:none" points="170.857,128.291 2352.76,128.291 "/>
<polyline clip-path="url(#clip290)" style="stroke:#000000; stroke-linecap:round; stroke-linejoin:round; stroke-width:4; stroke-opacity:1; fill:none" points="170.857,1423.18 170.857,47.2441 "/>
<polyline clip-path="url(#clip290)" style="stroke:#000000; stroke-linecap:round; stroke-linejoin:round; stroke-width:4; stroke-opacity:1; fill:none" points="170.857,1384.24 189.755,1384.24 "/>
<polyline clip-path="url(#clip290)" style="stroke:#000000; stroke-linecap:round; stroke-linejoin:round; stroke-width:4; stroke-opacity:1; fill:none" points="170.857,1070.25 189.755,1070.25 "/>
<polyline clip-path="url(#clip290)" style="stroke:#000000; stroke-linecap:round; stroke-linejoin:round; stroke-width:4; stroke-opacity:1; fill:none" points="170.857,756.266 189.755,756.266 "/>
<polyline clip-path="url(#clip290)" style="stroke:#000000; stroke-linecap:round; stroke-linejoin:round; stroke-width:4; stroke-opacity:1; fill:none" points="170.857,442.278 189.755,442.278 "/>
<polyline clip-path="url(#clip290)" style="stroke:#000000; stroke-linecap:round; stroke-linejoin:round; stroke-width:4; stroke-opacity:1; fill:none" points="170.857,128.291 189.755,128.291 "/>
<path clip-path="url(#clip290)" d="M122.913 1370.04 Q119.302 1370.04 117.473 1373.6 Q115.668 1377.15 115.668 1384.28 Q115.668 1391.38 117.473 1394.95 Q119.302 1398.49 122.913 1398.49 Q126.547 1398.49 128.353 1394.95 Q130.182 1391.38 130.182 1384.28 Q130.182 1377.15 128.353 1373.6 Q126.547 1370.04 122.913 1370.04 M122.913 1366.34 Q128.723 1366.34 131.779 1370.94 Q134.857 1375.53 134.857 1384.28 Q134.857 1393 131.779 1397.61 Q128.723 1402.19 122.913 1402.19 Q117.103 1402.19 114.024 1397.61 Q110.969 1393 110.969 1384.28 Q110.969 1375.53 114.024 1370.94 Q117.103 1366.34 122.913 1366.34 Z" fill="#000000" fill-rule="nonzero" fill-opacity="1" /><path clip-path="url(#clip290)" d="M82.7975 1052.97 L101.154 1052.97 L101.154 1056.91 L87.0799 1056.91 L87.0799 1065.38 Q88.0984 1065.03 89.1169 1064.87 Q90.1354 1064.69 91.1539 1064.69 Q96.941 1064.69 100.321 1067.86 Q103.7 1071.03 103.7 1076.45 Q103.7 1082.02 100.228 1085.13 Q96.7558 1088.2 90.4364 1088.2 Q88.2604 1088.2 85.9919 1087.83 Q83.7466 1087.46 81.3392 1086.72 L81.3392 1082.02 Q83.4225 1083.16 85.6447 1083.71 Q87.8669 1084.27 90.3438 1084.27 Q94.3484 1084.27 96.6863 1082.16 Q99.0243 1080.06 99.0243 1076.45 Q99.0243 1072.83 96.6863 1070.73 Q94.3484 1068.62 90.3438 1068.62 Q88.4688 1068.62 86.5938 1069.04 Q84.7419 1069.45 82.7975 1070.33 L82.7975 1052.97 Z" fill="#000000" fill-rule="nonzero" fill-opacity="1" /><path clip-path="url(#clip290)" d="M122.913 1056.05 Q119.302 1056.05 117.473 1059.62 Q115.668 1063.16 115.668 1070.29 Q115.668 1077.39 117.473 1080.96 Q119.302 1084.5 122.913 1084.5 Q126.547 1084.5 128.353 1080.96 Q130.182 1077.39 130.182 1070.29 Q130.182 1063.16 128.353 1059.62 Q126.547 1056.05 122.913 1056.05 M122.913 1052.35 Q128.723 1052.35 131.779 1056.95 Q134.857 1061.54 134.857 1070.29 Q134.857 1079.01 131.779 1083.62 Q128.723 1088.2 122.913 1088.2 Q117.103 1088.2 114.024 1083.62 Q110.969 1079.01 110.969 1070.29 Q110.969 1061.54 114.024 1056.95 Q117.103 1052.35 122.913 1052.35 Z" fill="#000000" fill-rule="nonzero" fill-opacity="1" /><path clip-path="url(#clip290)" d="M53.3995 769.61 L61.0384 769.61 L61.0384 743.245 L52.7282 744.911 L52.7282 740.652 L60.9921 738.986 L65.668 738.986 L65.668 769.61 L73.3068 769.61 L73.3068 773.546 L53.3995 773.546 L53.3995 769.61 Z" fill="#000000" fill-rule="nonzero" fill-opacity="1" /><path clip-path="url(#clip290)" d="M92.7512 742.064 Q89.1401 742.064 87.3114 745.629 Q85.5058 749.171 85.5058 756.3 Q85.5058 763.407 87.3114 766.972 Q89.1401 770.513 92.7512 770.513 Q96.3854 770.513 98.1909 766.972 Q100.02 763.407 100.02 756.3 Q100.02 749.171 98.1909 745.629 Q96.3854 742.064 92.7512 742.064 M92.7512 738.361 Q98.5613 738.361 101.617 742.967 Q104.696 747.55 104.696 756.3 Q104.696 765.027 101.617 769.634 Q98.5613 774.217 92.7512 774.217 Q86.941 774.217 83.8623 769.634 Q80.8068 765.027 80.8068 756.3 Q80.8068 747.55 83.8623 742.967 Q86.941 738.361 92.7512 738.361 Z" fill="#000000" fill-rule="nonzero" fill-opacity="1" /><path clip-path="url(#clip290)" d="M122.913 742.064 Q119.302 742.064 117.473 745.629 Q115.668 749.171 115.668 756.3 Q115.668 763.407 117.473 766.972 Q119.302 770.513 122.913 770.513 Q126.547 770.513 128.353 766.972 Q130.182 763.407 130.182 756.3 Q130.182 749.171 128.353 745.629 Q126.547 742.064 122.913 742.064 M122.913 738.361 Q128.723 738.361 131.779 742.967 Q134.857 747.55 134.857 756.3 Q134.857 765.027 131.779 769.634 Q128.723 774.217 122.913 774.217 Q117.103 774.217 114.024 769.634 Q110.969 765.027 110.969 756.3 Q110.969 747.55 114.024 742.967 Q117.103 738.361 122.913 738.361 Z" fill="#000000" fill-rule="nonzero" fill-opacity="1" /><path clip-path="url(#clip290)" d="M53.3995 455.623 L61.0384 455.623 L61.0384 429.257 L52.7282 430.924 L52.7282 426.665 L60.9921 424.998 L65.668 424.998 L65.668 455.623 L73.3068 455.623 L73.3068 459.558 L53.3995 459.558 L53.3995 455.623 Z" fill="#000000" fill-rule="nonzero" fill-opacity="1" /><path clip-path="url(#clip290)" d="M82.7975 424.998 L101.154 424.998 L101.154 428.933 L87.0799 428.933 L87.0799 437.405 Q88.0984 437.058 89.1169 436.896 Q90.1354 436.711 91.1539 436.711 Q96.941 436.711 100.321 439.882 Q103.7 443.054 103.7 448.47 Q103.7 454.049 100.228 457.151 Q96.7558 460.229 90.4364 460.229 Q88.2604 460.229 85.9919 459.859 Q83.7466 459.489 81.3392 458.748 L81.3392 454.049 Q83.4225 455.183 85.6447 455.739 Q87.8669 456.294 90.3438 456.294 Q94.3484 456.294 96.6863 454.188 Q99.0243 452.081 99.0243 448.47 Q99.0243 444.859 96.6863 442.753 Q94.3484 440.646 90.3438 440.646 Q88.4688 440.646 86.5938 441.063 Q84.7419 441.48 82.7975 442.359 L82.7975 424.998 Z" fill="#000000" fill-rule="nonzero" fill-opacity="1" /><path clip-path="url(#clip290)" d="M122.913 428.077 Q119.302 428.077 117.473 431.642 Q115.668 435.183 115.668 442.313 Q115.668 449.419 117.473 452.984 Q119.302 456.526 122.913 456.526 Q126.547 456.526 128.353 452.984 Q130.182 449.419 130.182 442.313 Q130.182 435.183 128.353 431.642 Q126.547 428.077 122.913 428.077 M122.913 424.373 Q128.723 424.373 131.779 428.98 Q134.857 433.563 134.857 442.313 Q134.857 451.04 131.779 455.646 Q128.723 460.229 122.913 460.229 Q117.103 460.229 114.024 455.646 Q110.969 451.04 110.969 442.313 Q110.969 433.563 114.024 428.98 Q117.103 424.373 122.913 424.373 Z" fill="#000000" fill-rule="nonzero" fill-opacity="1" /><path clip-path="url(#clip290)" d="M56.6171 141.636 L72.9365 141.636 L72.9365 145.571 L50.9921 145.571 L50.9921 141.636 Q53.6541 138.881 58.2375 134.251 Q62.8439 129.599 64.0245 128.256 Q66.2698 125.733 67.1494 123.997 Q68.0522 122.237 68.0522 120.548 Q68.0522 117.793 66.1078 116.057 Q64.1865 114.321 61.0847 114.321 Q58.8856 114.321 56.4319 115.085 Q54.0014 115.849 51.2236 117.4 L51.2236 112.677 Q54.0477 111.543 56.5014 110.964 Q58.955 110.386 60.9921 110.386 Q66.3624 110.386 69.5568 113.071 Q72.7513 115.756 72.7513 120.247 Q72.7513 122.376 71.9411 124.298 Q71.1541 126.196 69.0476 128.788 Q68.4689 129.46 65.367 132.677 Q62.2652 135.872 56.6171 141.636 Z" fill="#000000" fill-rule="nonzero" fill-opacity="1" /><path clip-path="url(#clip290)" d="M92.7512 114.089 Q89.1401 114.089 87.3114 117.654 Q85.5058 121.196 85.5058 128.325 Q85.5058 135.432 87.3114 138.997 Q89.1401 142.538 92.7512 142.538 Q96.3854 142.538 98.1909 138.997 Q100.02 135.432 100.02 128.325 Q100.02 121.196 98.1909 117.654 Q96.3854 114.089 92.7512 114.089 M92.7512 110.386 Q98.5613 110.386 101.617 114.992 Q104.696 119.575 104.696 128.325 Q104.696 137.052 101.617 141.659 Q98.5613 146.242 92.7512 146.242 Q86.941 146.242 83.8623 141.659 Q80.8068 137.052 80.8068 128.325 Q80.8068 119.575 83.8623 114.992 Q86.941 110.386 92.7512 110.386 Z" fill="#000000" fill-rule="nonzero" fill-opacity="1" /><path clip-path="url(#clip290)" d="M122.913 114.089 Q119.302 114.089 117.473 117.654 Q115.668 121.196 115.668 128.325 Q115.668 135.432 117.473 138.997 Q119.302 142.538 122.913 142.538 Q126.547 142.538 128.353 138.997 Q130.182 135.432 130.182 128.325 Q130.182 121.196 128.353 117.654 Q126.547 114.089 122.913 114.089 M122.913 110.386 Q128.723 110.386 131.779 114.992 Q134.857 119.575 134.857 128.325 Q134.857 137.052 131.779 141.659 Q128.723 146.242 122.913 146.242 Q117.103 146.242 114.024 141.659 Q110.969 137.052 110.969 128.325 Q110.969 119.575 114.024 114.992 Q117.103 110.386 122.913 110.386 Z" fill="#000000" fill-rule="nonzero" fill-opacity="1" /><polyline clip-path="url(#clip292)" style="stroke:#0000ff; stroke-linecap:round; stroke-linejoin:round; stroke-width:4; stroke-opacity:1; fill:none" points="232.609,1259.26 234.67,1230.83 236.73,1191.19 238.791,1138.42 240.851,1070.49 242.912,985.679 244.972,883.257 247.032,764.381 249.093,633.162 251.153,497.504 253.214,369.167 255.274,262.429 257.335,191.143 259.395,164.901 261.456,185.871 263.516,247.931 265.577,338.615 267.637,442.878 269.697,546.977 271.758,641.121 273.818,720.482 275.879,784.853 277.939,837.421 280,883.097 282.06,926.741 284.121,971.744 286.181,1019.32 288.242,1068.65 290.302,1117.7 292.362,1164.18 294.423,1206.2 296.483,1242.68 298.544,1273.3 300.604,1298.3 302.665,1318.28 304.725,1333.97 306.786,1346.14 308.846,1355.49 310.907,1362.61 312.967,1368.01 315.027,1372.08 317.088,1375.14 319.148,1377.44 321.209,1379.16 323.269,1380.45 325.33,1381.41 327.39,1382.13 329.451,1382.67 331.511,1383.07 333.572,1383.37 335.632,1383.59 337.692,1383.75 339.753,1383.88 341.813,1383.97 343.874,1384.04 345.934,1384.09 347.995,1384.13 350.055,1384.15 352.116,1384.17 354.176,1384.19 356.237,1384.19 358.297,1384.2 360.357,1384.2 362.418,1384.2 364.478,1384.19 366.539,1384.18 368.599,1384.16 370.66,1384.14 372.72,1384.11 374.781,1384.07 376.841,1384.01 378.902,1383.93 380.962,1383.83 383.022,1383.69 385.083,1383.5 387.143,1383.25 389.204,1382.91 391.264,1382.45 393.325,1381.84 395.385,1381.02 397.446,1379.93 399.506,1378.47 401.567,1376.52 403.627,1373.93 405.688,1370.49 407.748,1365.93 409.808,1359.93 411.869,1352.08 413.929,1341.89 415.99,1328.82 418.05,1312.32 420.111,1291.88 422.171,1267.25 424.232,1238.59 426.292,1206.75 428.353,1173.53 430.413,1141.72 432.473,1114.88 434.534,1096.66 436.594,1089.89 438.655,1095.68 440.715,1113.07 442.776,1139.35 444.836,1170.9 446.897,1204.12 448.957,1236.15 451.018,1265.11 453.078,1290.08 455.138,1310.84 457.199,1327.64 459.259,1340.96 461.32,1351.36 463.38,1359.38 465.441,1365.51 467.501,1370.17 469.562,1373.69 471.622,1376.34 473.683,1378.34 475.743,1379.83 477.803,1380.95 479.864,1381.78 481.924,1382.41 483.985,1382.87 486.045,1383.22 488.106,1383.48 490.166,1383.67 492.227,1383.82 494.287,1383.93 496.348,1384.01 498.408,1384.06 500.468,1384.11 502.529,1384.14 504.589,1384.17 506.65,1384.18 508.71,1384.2 510.771,1384.2 512.831,1384.21 514.892,1384.21 516.952,1384.21 519.013,1384.21 521.073,1384.2 523.133,1384.19 525.194,1384.18 527.254,1384.16 529.315,1384.14 531.375,1384.1 533.436,1384.06 535.496,1383.99 537.557,1383.91 539.617,1383.8 541.678,1383.65 543.738,1383.44 545.798,1383.17 547.859,1382.81 549.919,1382.32 551.98,1381.66 554.04,1380.78 556.101,1379.6 558.161,1378.01 560.222,1375.89 562.282,1373.05 564.343,1369.24 566.403,1364.15 568.463,1357.36 570.524,1348.3 572.584,1336.26 574.645,1320.3 576.705,1299.22 578.766,1271.55 580.826,1235.5 582.887,1188.99 584.947,1129.78 587.008,1055.72 589.068,965.225 591.128,857.998 593.189,736.029 595.249,604.623 597.31,473.082 599.37,354.398 601.431,263.419 603.491,213.512 605.552,212.736 607.612,261.219 609.673,351.114 611.733,469.159 613.793,600.496 615.854,732.038 617.914,854.357 619.975,962.03 622.035,1052.98 624.096,1127.44 626.156,1186.96 628.217,1233.67 630.277,1269.81 632.338,1297.44 634.398,1318.34 636.458,1333.97 638.519,1345.48 640.579,1353.76 642.64,1359.47 644.7,1363.07 646.761,1364.85 648.821,1364.98 650.882,1363.46 652.942,1360.17 655.003,1354.88 657.063,1347.18 659.123,1336.52 661.184,1322.18 663.244,1303.26 665.305,1278.72 667.365,1247.48 669.426,1208.51 671.486,1161.16 673.547,1105.55 675.607,1043.06 677.668,976.858 679.728,912.117 681.789,855.706 683.849,815.041 685.909,796.29 687.97,802.528 690.03,832.72 692.091,882.07 694.151,943.55 696.212,1009.83 698.272,1074.78 700.333,1134.23 702.393,1185.95 704.454,1229.25 706.514,1264.48 708.574,1292.51 710.635,1314.46 712.695,1331.43 714.756,1344.43 716.816,1354.32 718.877,1361.8 720.937,1367.44 722.998,1371.67 725.058,1374.85 727.119,1377.23 729.179,1379.01 731.239,1380.34 733.3,1381.33 735.36,1382.07 737.421,1382.62 739.481,1383.03 741.542,1383.34 743.602,1383.56 745.663,1383.73 747.723,1383.86 749.784,1383.95 751.844,1384.01 753.904,1384.06 755.965,1384.09 758.025,1384.1 760.086,1384.11 762.146,1384.1 764.207,1384.08 766.267,1384.04 768.328,1383.99 770.388,1383.92 772.449,1383.81 774.509,1383.67 776.569,1383.48 778.63,1383.23 780.69,1382.88 782.751,1382.42 784.811,1381.8 786.872,1380.97 788.932,1379.86 790.993,1378.37 793.053,1376.38 795.114,1373.71 797.174,1370.15 799.234,1365.41 801.295,1359.1 803.355,1350.74 805.416,1339.72 807.476,1325.25 809.537,1306.42 811.597,1282.17 813.658,1251.34 815.718,1212.86 817.779,1165.98 819.839,1110.64 821.899,1047.98 823.96,980.845 826.02,914.074 828.081,854.243 830.141,808.625 832.202,783.432 834.262,781.922 836.323,803.221 838.383,842.485 840.444,892.309 842.504,944.653 844.564,992.463 846.625,1030.56 848.685,1055.86 850.746,1067.15 852.806,1064.94 854.867,1051.24 856.927,1029.57 858.988,1004.84 861.048,982.807 863.109,969.221 865.169,968.505 867.229,982.637 869.29,1010.7 871.35,1049.37 873.411,1094.05 875.471,1140.19 877.532,1184.16 879.592,1223.63 881.653,1257.49 883.713,1285.56 885.774,1308.21 887.834,1326.14 889.894,1340.11 891.955,1350.88 894.015,1359.11 896.076,1365.36 898.136,1370.07 900.197,1373.62 902.257,1376.28 904.318,1378.26 906.378,1379.73 908.439,1380.82 910.499,1381.61 912.559,1382.17 914.62,1382.56 916.68,1382.8 918.741,1382.91 920.801,1382.9 922.862,1382.79 924.922,1382.54 926.983,1382.14 929.043,1381.57 931.104,1380.76 933.164,1379.65 935.225,1378.14 937.285,1376.11 939.345,1373.38 941.406,1369.72 943.466,1364.83 945.527,1358.31 947.587,1349.64 949.648,1338.16 951.708,1323.03 953.769,1303.19 955.829,1277.41 957.89,1244.26 959.95,1202.23 962.01,1149.96 964.071,1086.57 966.131,1012.21 968.192,928.734 970.252,840.38 972.313,754.074 974.373,678.982 976.434,624.987 978.494,600.281 980.555,608.912 982.615,649.444 984.675,715.442 986.736,797.518 988.796,885.901 990.857,972.451 992.917,1051.62 994.978,1120.47 997.038,1178.1 999.099,1224.97 1001.16,1262.26 1003.22,1291.45 1005.28,1314.02 1007.34,1331.31 1009.4,1344.45 1011.46,1354.4 1013.52,1361.9 1015.58,1367.53 1017.64,1371.76 1019.7,1374.92 1021.76,1377.29 1023.82,1379.05 1025.88,1380.37 1027.94,1381.36 1030.01,1382.09 1032.07,1382.64 1034.13,1383.05 1036.19,1383.35 1038.25,1383.58 1040.31,1383.75 1042.37,1383.87 1044.43,1383.97 1046.49,1384.04 1048.55,1384.09 1050.61,1384.13 1052.67,1384.16 1054.73,1384.18 1056.79,1384.19 1058.85,1384.21 1060.91,1384.21 1062.97,1384.22 1065.03,1384.23 1067.09,1384.23 1069.15,1384.23 1071.21,1384.23 1073.28,1384.24 1075.34,1384.24 1077.4,1384.24 1079.46,1384.24 1081.52,1384.24 1083.58,1384.24 1085.64,1384.24 1087.7,1384.24 1089.76,1384.24 1091.82,1384.24 1093.88,1384.24 1095.94,1384.23 1098,1384.23 1100.06,1384.23 1102.12,1384.22 1104.18,1384.22 1106.24,1384.21 1108.3,1384.2 1110.36,1384.19 1112.42,1384.17 1114.48,1384.15 1116.54,1384.11 1118.61,1384.07 1120.67,1384.01 1122.73,1383.93 1124.79,1383.83 1126.85,1383.69 1128.91,1383.5 1130.97,1383.24 1133.03,1382.9 1135.09,1382.45 1137.15,1381.84 1139.21,1381.03 1141.27,1379.95 1143.33,1378.51 1145.39,1376.6 1147.45,1374.08 1149.51,1370.76 1151.57,1366.44 1153.63,1360.85 1155.69,1353.71 1157.75,1344.76 1159.81,1333.78 1161.87,1320.7 1163.94,1305.71 1166,1289.41 1168.06,1272.87 1170.12,1257.66 1172.18,1245.62 1174.24,1238.49 1176.3,1237.4 1178.36,1242.54 1180.42,1253.06 1182.48,1267.39 1184.54,1283.66 1186.6,1300.19 1188.66,1315.73 1190.72,1329.51 1192.78,1341.21 1194.84,1350.85 1196.9,1358.58 1198.96,1364.66 1201.02,1369.4 1203.08,1373.03 1205.14,1375.81 1207.2,1377.91 1209.27,1379.5 1211.33,1380.69 1213.39,1381.59 1215.45,1382.26 1217.51,1382.76 1219.57,1383.14 1221.63,1383.42 1223.69,1383.63 1225.75,1383.78 1227.81,1383.9 1229.87,1383.99 1231.93,1384.05 1233.99,1384.1 1236.05,1384.14 1238.11,1384.16 1240.17,1384.18 1242.23,1384.2 1244.29,1384.21 1246.35,1384.22 1248.41,1384.22 1250.47,1384.23 1252.53,1384.23 1254.6,1384.23 1256.66,1384.23 1258.72,1384.23 1260.78,1384.23 1262.84,1384.23 1264.9,1384.23 1266.96,1384.23 1269.02,1384.22 1271.08,1384.22 1273.14,1384.21 1275.2,1384.2 1277.26,1384.19 1279.32,1384.18 1281.38,1384.15 1283.44,1384.12 1285.5,1384.08 1287.56,1384.03 1289.62,1383.96 1291.68,1383.86 1293.74,1383.73 1295.8,1383.56 1297.86,1383.33 1299.93,1383.01 1301.99,1382.6 1304.05,1382.04 1306.11,1381.28 1308.17,1380.28 1310.23,1378.94 1312.29,1377.14 1314.35,1374.75 1316.41,1371.58 1318.47,1367.37 1320.53,1361.83 1322.59,1354.55 1324.65,1345.09 1326.71,1332.91 1328.77,1317.45 1330.83,1298.19 1332.89,1274.77 1334.95,1247.21 1337.01,1216.15 1339.07,1183.08 1341.13,1150.53 1343.19,1121.88 1345.26,1100.83 1347.32,1090.56 1349.38,1092.74 1351.44,1107.01 1353.5,1131.08 1355.56,1161.5 1357.62,1194.57 1359.68,1227.18 1361.74,1257.16 1363.8,1283.32 1365.86,1305.28 1367.92,1323.18 1369.98,1337.44 1372.04,1348.62 1374.1,1357.27 1376.16,1363.89 1378.22,1368.93 1380.28,1372.74 1382.34,1375.61 1384.4,1377.75 1386.46,1379.35 1388.52,1380.54 1390.59,1381.4 1392.65,1382.02 1394.71,1382.45 1396.77,1382.73 1398.83,1382.87 1400.89,1382.9 1402.95,1382.81 1405.01,1382.59 1407.07,1382.24 1409.13,1381.71 1411.19,1380.96 1413.25,1379.92 1415.31,1378.52 1417.37,1376.64 1419.43,1374.12 1421.49,1370.76 1423.55,1366.31 1425.61,1360.44 1427.67,1352.76 1429.73,1342.77 1431.79,1329.96 1433.85,1313.74 1435.92,1293.63 1437.98,1269.33 1440.04,1240.97 1442.1,1209.33 1444.16,1176.13 1446.22,1144.09 1448.28,1116.72 1450.34,1097.71 1452.4,1089.96 1454.46,1094.77 1456.52,1111.33 1458.58,1137.04 1460.64,1168.31 1462.7,1201.52 1464.76,1233.72 1466.82,1262.96 1468.88,1288.25 1470.94,1309.34 1473,1326.43 1475.06,1339.99 1477.12,1350.58 1479.18,1358.75 1481.25,1365 1483.31,1369.73 1485.37,1373.29 1487.43,1375.95 1489.49,1377.91 1491.55,1379.34 1493.61,1380.36 1495.67,1381.04 1497.73,1381.44 1499.79,1381.6 1501.85,1381.53 1503.91,1381.22 1505.97,1380.65 1508.03,1379.77 1510.09,1378.51 1512.15,1376.74 1514.21,1374.33 1516.27,1371.06 1518.33,1366.66 1520.39,1360.76 1522.45,1352.87 1524.51,1342.35 1526.58,1328.36 1528.64,1309.83 1530.7,1285.4 1532.76,1253.38 1534.82,1211.77 1536.88,1158.26 1538.94,1090.45 1541,1006.1 1543.06,903.758 1545.12,783.592 1547.18,648.408 1549.24,504.665 1551.3,362.898 1553.36,236.956 1555.42,141.667 1557.48,89.3049 1559.54,86.1857 1561.6,131.001 1563.66,215.727 1565.72,328.451 1567.78,456.581 1569.84,589.11 1571.91,717.605 1573.97,836.281 1576.03,941.686 1578.09,1032.29 1580.15,1108.02 1582.21,1169.84 1584.27,1219.34 1586.33,1258.33 1588.39,1288.65 1590.45,1312 1592.51,1329.83 1594.57,1343.37 1596.63,1353.61 1598.69,1361.31 1600.75,1367.1 1602.81,1371.43 1604.87,1374.68 1606.93,1377.1 1608.99,1378.91 1611.05,1380.26 1613.11,1381.27 1615.17,1382.02 1617.24,1382.57 1619.3,1382.98 1621.36,1383.28 1623.42,1383.49 1625.48,1383.65 1627.54,1383.74 1629.6,1383.8 1631.66,1383.82 1633.72,1383.8 1635.78,1383.74 1637.84,1383.64 1639.9,1383.48 1641.96,1383.26 1644.02,1382.96 1646.08,1382.54 1648.14,1381.98 1650.2,1381.22 1652.26,1380.2 1654.32,1378.83 1656.38,1377 1658.44,1374.56 1660.5,1371.3 1662.57,1366.97 1664.63,1361.24 1666.69,1353.68 1668.75,1343.78 1670.81,1330.91 1672.87,1314.35 1674.93,1293.36 1676.99,1267.26 1679.05,1235.6 1681.11,1198.44 1683.17,1156.73 1685.23,1112.55 1687.29,1069.38 1689.35,1031.79 1691.41,1004.72 1693.47,992.283 1695.53,996.506 1697.59,1016.69 1699.65,1049.63 1701.71,1090.64 1703.77,1134.83 1705.83,1178.11 1707.9,1217.72 1709.96,1252.18 1712.02,1281.02 1714.08,1304.48 1716.14,1323.15 1718.2,1337.76 1720.26,1349.05 1722.32,1357.7 1724.38,1364.28 1726.44,1369.24 1728.5,1372.98 1730.56,1375.78 1732.62,1377.86 1734.68,1379.4 1736.74,1380.52 1738.8,1381.33 1740.86,1381.88 1742.92,1382.23 1744.98,1382.4 1747.04,1382.42 1749.1,1382.27 1751.16,1381.96 1753.23,1381.45 1755.29,1380.69 1757.35,1379.63 1759.41,1378.17 1761.47,1376.19 1763.53,1373.52 1765.59,1369.94 1767.65,1365.15 1769.71,1358.79 1771.77,1350.35 1773.83,1339.21 1775.89,1324.61 1777.95,1305.6 1780.01,1281.13 1782.07,1250.07 1784.13,1211.34 1786.19,1164.23 1788.25,1108.74 1790.31,1046.1 1792.37,979.287 1794.43,913.261 1796.49,854.716 1798.56,810.982 1800.62,788.265 1802.68,789.763 1804.74,814.559 1806.8,857.863 1808.86,912.482 1810.92,970.759 1812.98,1026.19 1815.04,1074.28 1817.1,1112.68 1819.16,1140.97 1821.22,1160.22 1823.28,1172.57 1825.34,1180.83 1827.4,1187.99 1829.46,1196.59 1831.52,1208.26 1833.58,1223.47 1835.64,1241.59 1837.7,1261.29 1839.76,1281.11 1841.82,1299.78 1843.89,1316.45 1845.95,1330.73 1848.01,1342.56 1850.07,1352.11 1852.13,1359.68 1854.19,1365.58 1856.25,1370.14 1858.31,1373.62 1860.37,1376.26 1862.43,1378.26 1864.49,1379.76 1866.55,1380.89 1868.61,1381.74 1870.67,1382.37 1872.73,1382.85 1874.79,1383.2 1876.85,1383.47 1878.91,1383.66 1880.97,1383.81 1883.03,1383.92 1885.09,1384 1887.15,1384.06 1889.22,1384.1 1891.28,1384.14 1893.34,1384.16 1895.4,1384.18 1897.46,1384.19 1899.52,1384.2 1901.58,1384.2 1903.64,1384.2 1905.7,1384.2 1907.76,1384.19 1909.82,1384.18 1911.88,1384.16 1913.94,1384.14 1916,1384.11 1918.06,1384.07 1920.12,1384.01 1922.18,1383.93 1924.24,1383.83 1926.3,1383.69 1928.36,1383.5 1930.42,1383.24 1932.48,1382.9 1934.55,1382.45 1936.61,1381.84 1938.67,1381.02 1940.73,1379.92 1942.79,1378.46 1944.85,1376.51 1946.91,1373.91 1948.97,1370.46 1951.03,1365.89 1953.09,1359.88 1955.15,1352.01 1957.21,1341.81 1959.27,1328.72 1961.33,1312.19 1963.39,1291.73 1965.45,1267.06 1967.51,1238.36 1969.57,1206.49 1971.63,1173.25 1973.69,1141.43 1975.75,1114.59 1977.81,1096.38 1979.88,1089.61 1981.94,1095.38 1984,1112.7 1986.06,1138.86 1988.12,1170.2 1990.18,1203.12 1992.24,1234.72 1994.3,1263.11 1996.36,1287.32 1998.42,1307.07 2000.48,1322.54 2002.54,1334.08 2004.6,1342.1 2006.66,1346.98 2008.72,1348.94 2010.78,1348.06 2012.84,1344.29 2014.9,1337.37 2016.96,1326.91 2019.02,1312.33 2021.08,1293.02 2023.14,1268.32 2025.21,1237.77 2027.27,1201.35 2029.33,1159.79 2031.39,1114.93 2033.45,1069.92 2035.51,1029.06 2037.57,997.146 2039.63,978.299 2041.69,974.682 2043.75,985.679 2045.81,1007.94 2047.87,1036.26 2049.93,1064.86 2051.99,1088.42 2054.05,1102.65 2056.11,1104.44 2058.17,1091.68 2060.23,1063.16 2062.29,1018.57 2064.35,958.881 2066.41,886.811 2068.47,807.433 2070.54,728.415 2072.6,659.503 2074.66,610.945 2076.72,591.061 2078.78,603.843 2080.84,647.72 2082.9,716.158 2084.96,799.785 2087.02,888.955 2089.08,975.724 2091.14,1054.75 2093.2,1123.25 2095.26,1180.45 2097.32,1226.89 2099.38,1263.8 2101.44,1292.66 2103.5,1314.95 2105.56,1332.02 2107.62,1345 2109.68,1354.81 2111.74,1362.21 2113.8,1367.77 2115.87,1371.93 2117.93,1375.05 2119.99,1377.39 2122.05,1379.13 2124.11,1380.43 2126.17,1381.4 2128.23,1382.12 2130.29,1382.66 2132.35,1383.06 2134.41,1383.36 2136.47,1383.59 2138.53,1383.75 2140.59,1383.88 2142.65,1383.97 2144.71,1384.04 2146.77,1384.09 2148.83,1384.13 2150.89,1384.16 2152.95,1384.18 2155.01,1384.19 2157.07,1384.21 2159.13,1384.21 2161.2,1384.22 2163.26,1384.23 2165.32,1384.23 2167.38,1384.23 2169.44,1384.23 2171.5,1384.23 2173.56,1384.23 2175.62,1384.23 2177.68,1384.23 2179.74,1384.23 2181.8,1384.23 2183.86,1384.23 2185.92,1384.22 2187.98,1384.22 2190.04,1384.21 2192.1,1384.2 2194.16,1384.19 2196.22,1384.18 2198.28,1384.15 2200.34,1384.12 2202.4,1384.08 2204.46,1384.03 2206.53,1383.96 2208.59,1383.86 2210.65,1383.73 2212.71,1383.56 2214.77,1383.32 2216.83,1383.01 2218.89,1382.59 2220.95,1382.03 2223.01,1381.27 2225.07,1380.26 2227.13,1378.9 2229.19,1377.08 2231.25,1374.65 2233.31,1371.41 2235.37,1367.08 2237.43,1361.33 2239.49,1353.69 2241.55,1343.61 2243.61,1330.36 2245.67,1313.07 2247.73,1290.72 2249.79,1262.21 2251.86,1226.44 2253.92,1182.53 2255.98,1130.21 2258.04,1070.22 2260.1,1004.87 2262.16,938.409 2264.22,876.949 2266.28,827.716 2268.34,797.493 2270.4,790.733 2272.46,808.096 2274.52,846.17 2276.58,898.494 2278.64,957.364 2280.7,1015.55 2282.76,1067.36 2284.82,1108.91 2286.88,1137.82 2288.94,1152.68 2291,1152.57 "/>
<polyline clip-path="url(#clip292)" style="stroke:#008000; stroke-linecap:round; stroke-linejoin:round; stroke-width:6; stroke-opacity:1; fill:none" points="1261.81,2799.12 1261.81,-1328.69 "/>
<path clip-path="url(#clip290)" d="M1965.22 248.629 L2280.03 248.629 L2280.03 93.1086 L1965.22 93.1086  Z" fill="#ffffff" fill-rule="evenodd" fill-opacity="1"/>
<polyline clip-path="url(#clip290)" style="stroke:#000000; stroke-linecap:round; stroke-linejoin:round; stroke-width:4; stroke-opacity:1; fill:none" points="1965.22,248.629 2280.03,248.629 2280.03,93.1086 1965.22,93.1086 1965.22,248.629 "/>
<polyline clip-path="url(#clip290)" style="stroke:#0000ff; stroke-linecap:round; stroke-linejoin:round; stroke-width:4; stroke-opacity:1; fill:none" points="1989.46,144.949 2134.92,144.949 "/>
<path clip-path="url(#clip290)" d="M2163.84 131.511 L2163.84 158.386 L2169.49 158.386 Q2176.64 158.386 2179.95 155.145 Q2183.28 151.905 2183.28 144.914 Q2183.28 137.969 2179.95 134.752 Q2176.64 131.511 2169.49 131.511 L2163.84 131.511 M2159.16 127.669 L2168.77 127.669 Q2178.82 127.669 2183.51 131.858 Q2188.21 136.025 2188.21 144.914 Q2188.21 153.849 2183.49 158.039 Q2178.77 162.229 2168.77 162.229 L2159.16 162.229 L2159.16 127.669 Z" fill="#000000" fill-rule="nonzero" fill-opacity="1" /><path clip-path="url(#clip290)" d="M2209.69 130.84 Q2204.6 130.84 2201.59 134.636 Q2198.61 138.432 2198.61 144.983 Q2198.61 151.511 2201.59 155.307 Q2204.6 159.104 2209.69 159.104 Q2214.79 159.104 2217.75 155.307 Q2220.74 151.511 2220.74 144.983 Q2220.74 138.432 2217.75 134.636 Q2214.79 130.84 2209.69 130.84 M2209.69 127.044 Q2216.96 127.044 2221.32 131.928 Q2225.67 136.789 2225.67 144.983 Q2225.67 153.155 2221.32 158.039 Q2216.96 162.9 2209.69 162.9 Q2202.4 162.9 2198.03 158.039 Q2193.68 153.178 2193.68 144.983 Q2193.68 136.789 2198.03 131.928 Q2202.4 127.044 2209.69 127.044 Z" fill="#000000" fill-rule="nonzero" fill-opacity="1" /><path clip-path="url(#clip290)" d="M2253.7 128.803 L2253.7 133.363 Q2251.04 132.09 2248.68 131.465 Q2246.32 130.84 2244.12 130.84 Q2240.3 130.84 2238.21 132.321 Q2236.15 133.803 2236.15 136.534 Q2236.15 138.826 2237.52 140.007 Q2238.91 141.164 2242.75 141.882 L2245.57 142.46 Q2250.81 143.456 2253.28 145.979 Q2255.78 148.479 2255.78 152.692 Q2255.78 157.715 2252.4 160.307 Q2249.05 162.9 2242.54 162.9 Q2240.09 162.9 2237.31 162.344 Q2234.56 161.789 2231.59 160.701 L2231.59 155.886 Q2234.44 157.483 2237.17 158.293 Q2239.9 159.104 2242.54 159.104 Q2246.55 159.104 2248.72 157.53 Q2250.9 155.956 2250.9 153.039 Q2250.9 150.493 2249.32 149.057 Q2247.77 147.622 2244.21 146.905 L2241.36 146.349 Q2236.13 145.307 2233.79 143.085 Q2231.45 140.863 2231.45 136.905 Q2231.45 132.321 2234.67 129.682 Q2237.91 127.044 2243.58 127.044 Q2246.01 127.044 2248.54 127.483 Q2251.06 127.923 2253.7 128.803 Z" fill="#000000" fill-rule="nonzero" fill-opacity="1" /><polyline clip-path="url(#clip290)" style="stroke:#008000; stroke-linecap:round; stroke-linejoin:round; stroke-width:6; stroke-opacity:1; fill:none" points="1989.46,196.789 2134.92,196.789 "/>
<path clip-path="url(#clip290)" d="M2165.23 200.087 Q2162.63 199.532 2161.25 198.027 Q2159.86 196.546 2159.86 194.393 Q2159.86 191.129 2162.5 189.3 Q2165.11 187.495 2169.65 187.495 Q2171.41 187.495 2173.38 187.772 Q2175.34 188.05 2177.61 188.606 L2177.61 192.472 Q2175.37 191.8 2173.51 191.499 Q2171.64 191.198 2170 191.198 Q2167.24 191.198 2165.64 192.263 Q2164.02 193.328 2164.02 194.809 Q2164.02 196.43 2165.6 197.471 Q2167.15 198.49 2169.83 198.49 L2173.42 198.49 L2173.42 202.008 L2170 202.008 Q2166.82 202.008 2165.16 203.189 Q2163.35 204.485 2163.35 206.522 Q2163.35 208.606 2165.3 209.902 Q2167.26 211.198 2170.76 211.198 Q2172.91 211.198 2174.88 210.782 Q2176.85 210.342 2178.49 209.485 L2178.49 213.444 Q2176.41 214.092 2174.46 214.416 Q2172.5 214.74 2170.64 214.74 Q2165.13 214.74 2162.15 212.633 Q2159.16 210.527 2159.16 206.522 Q2159.16 204.022 2160.76 202.333 Q2162.36 200.643 2165.23 200.087 Z" fill="#000000" fill-rule="nonzero" fill-opacity="1" /><path clip-path="url(#clip290)" d="M2186.36 179.509 L2206.22 179.509 L2206.22 183.444 L2191.04 183.444 L2191.04 193.629 L2204.74 193.629 L2204.74 197.564 L2191.04 197.564 L2191.04 214.069 L2186.36 214.069 L2186.36 179.509 Z" fill="#000000" fill-rule="nonzero" fill-opacity="1" /></svg>
