<?xml version="1.0" encoding="utf-8"?>
<svg xmlns="http://www.w3.org/2000/svg" xmlns:xlink="http://www.w3.org/1999/xlink" width="600" height="400" viewBox="0 0 2400 1600">
<defs>
  <clipPath id="clip110">
    <rect x="0" y="0" width="2400" height="1600"/>
  </clipPath>
</defs>
<path clip-path="url(#clip110)" d="M0 1600 L2400 1600 L2400 0 L0 0  Z" fill="#ffffff" fill-rule="evenodd" fill-opacity="1"/>
<defs>
  <clipPath id="clip111">
    <rect x="480" y="0" width="1681" height="1600"/>
  </clipPath>
</defs>
<path clip-path="url(#clip110)" d="M279.704 1423.18 L2352.76 1423.18 L2352.76 47.2441 L279.704 47.2441  Z" fill="#ffffff" fill-rule="evenodd" fill-opacity="1"/>
<defs>
  <clipPath id="clip112">
    <rect x="279" y="47" width="2074" height="1377"/>
  </clipPath>
</defs>
<polyline clip-path="url(#clip112)" style="stroke:#000000; stroke-linecap:round; stroke-linejoin:round; stroke-width:2; stroke-opacity:0.1; fill:none" points="338.375,1423.18 338.375,47.2441 "/>
<polyline clip-path="url(#clip112)" style="stroke:#000000; stroke-linecap:round; stroke-linejoin:round; stroke-width:2; stroke-opacity:0.1; fill:none" points="750.103,1423.18 750.103,47.2441 "/>
<polyline clip-path="url(#clip112)" style="stroke:#000000; stroke-linecap:round; stroke-linejoin:round; stroke-width:2; stroke-opacity:0.1; fill:none" points="1161.83,1423.18 1161.83,47.2441 "/>
<polyline clip-path="url(#clip112)" style="stroke:#000000; stroke-linecap:round; stroke-linejoin:round; stroke-width:2; stroke-opacity:0.1; fill:none" points="1573.56,1423.18 1573.56,47.2441 "/>
<polyline clip-path="url(#clip112)" style="stroke:#000000; stroke-linecap:round; stroke-linejoin:round; stroke-width:2; stroke-opacity:0.1; fill:none" points="1985.29,1423.18 1985.29,47.2441 "/>
<polyline clip-path="url(#clip110)" style="stroke:#000000; stroke-linecap:round; stroke-linejoin:round; stroke-width:4; stroke-opacity:1; fill:none" points="279.704,1423.18 2352.76,1423.18 "/>
<polyline clip-path="url(#clip110)" style="stroke:#000000; stroke-linecap:round; stroke-linejoin:round; stroke-width:4; stroke-opacity:1; fill:none" points="338.375,1423.18 338.375,1404.28 "/>
<polyline clip-path="url(#clip110)" style="stroke:#000000; stroke-linecap:round; stroke-linejoin:round; stroke-width:4; stroke-opacity:1; fill:none" points="750.103,1423.18 750.103,1404.28 "/>
<polyline clip-path="url(#clip110)" style="stroke:#000000; stroke-linecap:round; stroke-linejoin:round; stroke-width:4; stroke-opacity:1; fill:none" points="1161.83,1423.18 1161.83,1404.28 "/>
<polyline clip-path="url(#clip110)" style="stroke:#000000; stroke-linecap:round; stroke-linejoin:round; stroke-width:4; stroke-opacity:1; fill:none" points="1573.56,1423.18 1573.56,1404.28 "/>
<polyline clip-path="url(#clip110)" style="stroke:#000000; stroke-linecap:round; stroke-linejoin:round; stroke-width:4; stroke-opacity:1; fill:none" points="1985.29,1423.18 1985.29,1404.28 "/>
<path clip-path="url(#clip110)" d="M315.76 1454.1 Q312.148 1454.1 310.32 1457.66 Q308.514 1461.2 308.514 1468.33 Q308.514 1475.44 310.32 1479.01 Q312.148 1482.55 315.76 1482.55 Q319.394 1482.55 321.199 1479.01 Q323.028 1475.44 323.028 1468.33 Q323.028 1461.2 321.199 1457.66 Q319.394 1454.1 315.76 1454.1 M315.76 1450.39 Q321.57 1450.39 324.625 1455 Q327.704 1459.58 327.704 1468.33 Q327.704 1477.06 324.625 1481.67 Q321.57 1486.25 315.76 1486.25 Q309.949 1486.25 306.871 1481.67 Q303.815 1477.06 303.815 1468.33 Q303.815 1459.58 306.871 1455 Q309.949 1450.39 315.76 1450.39 Z" fill="#000000" fill-rule="nonzero" fill-opacity="1" /><path clip-path="url(#clip110)" d="M335.922 1479.7 L340.806 1479.7 L340.806 1485.58 L335.922 1485.58 L335.922 1479.7 Z" fill="#000000" fill-rule="nonzero" fill-opacity="1" /><path clip-path="url(#clip110)" d="M360.991 1454.1 Q357.38 1454.1 355.551 1457.66 Q353.745 1461.2 353.745 1468.33 Q353.745 1475.44 355.551 1479.01 Q357.38 1482.55 360.991 1482.55 Q364.625 1482.55 366.431 1479.01 Q368.259 1475.44 368.259 1468.33 Q368.259 1461.2 366.431 1457.66 Q364.625 1454.1 360.991 1454.1 M360.991 1450.39 Q366.801 1450.39 369.857 1455 Q372.935 1459.58 372.935 1468.33 Q372.935 1477.06 369.857 1481.67 Q366.801 1486.25 360.991 1486.25 Q355.181 1486.25 352.102 1481.67 Q349.046 1477.06 349.046 1468.33 Q349.046 1459.58 352.102 1455 Q355.181 1450.39 360.991 1450.39 Z" fill="#000000" fill-rule="nonzero" fill-opacity="1" /><path clip-path="url(#clip110)" d="M728.286 1454.1 Q724.675 1454.1 722.847 1457.66 Q721.041 1461.2 721.041 1468.33 Q721.041 1475.44 722.847 1479.01 Q724.675 1482.55 728.286 1482.55 Q731.921 1482.55 733.726 1479.01 Q735.555 1475.44 735.555 1468.33 Q735.555 1461.2 733.726 1457.66 Q731.921 1454.1 728.286 1454.1 M728.286 1450.39 Q734.097 1450.39 737.152 1455 Q740.231 1459.58 740.231 1468.33 Q740.231 1477.06 737.152 1481.67 Q734.097 1486.25 728.286 1486.25 Q722.476 1486.25 719.398 1481.67 Q716.342 1477.06 716.342 1468.33 Q716.342 1459.58 719.398 1455 Q722.476 1450.39 728.286 1450.39 Z" fill="#000000" fill-rule="nonzero" fill-opacity="1" /><path clip-path="url(#clip110)" d="M748.448 1479.7 L753.333 1479.7 L753.333 1485.58 L748.448 1485.58 L748.448 1479.7 Z" fill="#000000" fill-rule="nonzero" fill-opacity="1" /><path clip-path="url(#clip110)" d="M767.546 1481.64 L783.865 1481.64 L783.865 1485.58 L761.921 1485.58 L761.921 1481.64 Q764.583 1478.89 769.166 1474.26 Q773.772 1469.61 774.953 1468.27 Q777.198 1465.74 778.078 1464.01 Q778.981 1462.25 778.981 1460.56 Q778.981 1457.8 777.036 1456.07 Q775.115 1454.33 772.013 1454.33 Q769.814 1454.33 767.36 1455.09 Q764.93 1455.86 762.152 1457.41 L762.152 1452.69 Q764.976 1451.55 767.43 1450.97 Q769.883 1450.39 771.921 1450.39 Q777.291 1450.39 780.485 1453.08 Q783.68 1455.77 783.68 1460.26 Q783.68 1462.39 782.87 1464.31 Q782.082 1466.2 779.976 1468.8 Q779.397 1469.47 776.295 1472.69 Q773.194 1475.88 767.546 1481.64 Z" fill="#000000" fill-rule="nonzero" fill-opacity="1" /><path clip-path="url(#clip110)" d="M1138.97 1454.1 Q1135.36 1454.1 1133.53 1457.66 Q1131.73 1461.2 1131.73 1468.33 Q1131.73 1475.44 1133.53 1479.01 Q1135.36 1482.55 1138.97 1482.55 Q1142.61 1482.55 1144.41 1479.01 Q1146.24 1475.44 1146.24 1468.33 Q1146.24 1461.2 1144.41 1457.66 Q1142.61 1454.1 1138.97 1454.1 M1138.97 1450.39 Q1144.78 1450.39 1147.84 1455 Q1150.92 1459.58 1150.92 1468.33 Q1150.92 1477.06 1147.84 1481.67 Q1144.78 1486.25 1138.97 1486.25 Q1133.16 1486.25 1130.08 1481.67 Q1127.03 1477.06 1127.03 1468.33 Q1127.03 1459.58 1130.08 1455 Q1133.16 1450.39 1138.97 1450.39 Z" fill="#000000" fill-rule="nonzero" fill-opacity="1" /><path clip-path="url(#clip110)" d="M1159.14 1479.7 L1164.02 1479.7 L1164.02 1485.58 L1159.14 1485.58 L1159.14 1479.7 Z" fill="#000000" fill-rule="nonzero" fill-opacity="1" /><path clip-path="url(#clip110)" d="M1187.05 1455.09 L1175.25 1473.54 L1187.05 1473.54 L1187.05 1455.09 M1185.82 1451.02 L1191.7 1451.02 L1191.7 1473.54 L1196.63 1473.54 L1196.63 1477.43 L1191.7 1477.43 L1191.7 1485.58 L1187.05 1485.58 L1187.05 1477.43 L1171.45 1477.43 L1171.45 1472.92 L1185.82 1451.02 Z" fill="#000000" fill-rule="nonzero" fill-opacity="1" /><path clip-path="url(#clip110)" d="M1550.86 1454.1 Q1547.25 1454.1 1545.42 1457.66 Q1543.62 1461.2 1543.62 1468.33 Q1543.62 1475.44 1545.42 1479.01 Q1547.25 1482.55 1550.86 1482.55 Q1554.5 1482.55 1556.3 1479.01 Q1558.13 1475.44 1558.13 1468.33 Q1558.13 1461.2 1556.3 1457.66 Q1554.5 1454.1 1550.86 1454.1 M1550.86 1450.39 Q1556.67 1450.39 1559.73 1455 Q1562.81 1459.58 1562.81 1468.33 Q1562.81 1477.06 1559.73 1481.67 Q1556.67 1486.25 1550.86 1486.25 Q1545.05 1486.25 1541.97 1481.67 Q1538.92 1477.06 1538.92 1468.33 Q1538.92 1459.58 1541.97 1455 Q1545.05 1450.39 1550.86 1450.39 Z" fill="#000000" fill-rule="nonzero" fill-opacity="1" /><path clip-path="url(#clip110)" d="M1571.03 1479.7 L1575.91 1479.7 L1575.91 1485.58 L1571.03 1485.58 L1571.03 1479.7 Z" fill="#000000" fill-rule="nonzero" fill-opacity="1" /><path clip-path="url(#clip110)" d="M1596.67 1466.44 Q1593.53 1466.44 1591.67 1468.59 Q1589.84 1470.74 1589.84 1474.49 Q1589.84 1478.22 1591.67 1480.39 Q1593.53 1482.55 1596.67 1482.55 Q1599.82 1482.55 1601.65 1480.39 Q1603.5 1478.22 1603.5 1474.49 Q1603.5 1470.74 1601.65 1468.59 Q1599.82 1466.44 1596.67 1466.44 M1605.96 1451.78 L1605.96 1456.04 Q1604.2 1455.21 1602.39 1454.77 Q1600.61 1454.33 1598.85 1454.33 Q1594.22 1454.33 1591.77 1457.45 Q1589.34 1460.58 1588.99 1466.9 Q1590.35 1464.89 1592.41 1463.82 Q1594.47 1462.73 1596.95 1462.73 Q1602.16 1462.73 1605.17 1465.9 Q1608.2 1469.05 1608.2 1474.49 Q1608.2 1479.82 1605.05 1483.03 Q1601.9 1486.25 1596.67 1486.25 Q1590.68 1486.25 1587.51 1481.67 Q1584.34 1477.06 1584.34 1468.33 Q1584.34 1460.14 1588.22 1455.28 Q1592.11 1450.39 1598.66 1450.39 Q1600.42 1450.39 1602.21 1450.74 Q1604.01 1451.09 1605.96 1451.78 Z" fill="#000000" fill-rule="nonzero" fill-opacity="1" /><path clip-path="url(#clip110)" d="M1962.72 1454.1 Q1959.11 1454.1 1957.28 1457.66 Q1955.47 1461.2 1955.47 1468.33 Q1955.47 1475.44 1957.28 1479.01 Q1959.11 1482.55 1962.72 1482.55 Q1966.35 1482.55 1968.16 1479.01 Q1969.99 1475.44 1969.99 1468.33 Q1969.99 1461.2 1968.16 1457.66 Q1966.35 1454.1 1962.72 1454.1 M1962.72 1450.39 Q1968.53 1450.39 1971.58 1455 Q1974.66 1459.58 1974.66 1468.33 Q1974.66 1477.06 1971.58 1481.67 Q1968.53 1486.25 1962.72 1486.25 Q1956.91 1486.25 1953.83 1481.67 Q1950.77 1477.06 1950.77 1468.33 Q1950.77 1459.58 1953.83 1455 Q1956.91 1450.39 1962.72 1450.39 Z" fill="#000000" fill-rule="nonzero" fill-opacity="1" /><path clip-path="url(#clip110)" d="M1982.88 1479.7 L1987.77 1479.7 L1987.77 1485.58 L1982.88 1485.58 L1982.88 1479.7 Z" fill="#000000" fill-rule="nonzero" fill-opacity="1" /><path clip-path="url(#clip110)" d="M2007.95 1469.17 Q2004.62 1469.17 2002.7 1470.95 Q2000.8 1472.73 2000.8 1475.86 Q2000.8 1478.98 2002.7 1480.77 Q2004.62 1482.55 2007.95 1482.55 Q2011.28 1482.55 2013.2 1480.77 Q2015.13 1478.96 2015.13 1475.86 Q2015.13 1472.73 2013.2 1470.95 Q2011.31 1469.17 2007.95 1469.17 M2003.27 1467.18 Q2000.27 1466.44 1998.58 1464.38 Q1996.91 1462.32 1996.91 1459.35 Q1996.91 1455.21 1999.85 1452.8 Q2002.81 1450.39 2007.95 1450.39 Q2013.11 1450.39 2016.05 1452.8 Q2018.99 1455.21 2018.99 1459.35 Q2018.99 1462.32 2017.3 1464.38 Q2015.64 1466.44 2012.65 1467.18 Q2016.03 1467.96 2017.9 1470.26 Q2019.8 1472.55 2019.8 1475.86 Q2019.8 1480.88 2016.72 1483.57 Q2013.67 1486.25 2007.95 1486.25 Q2002.23 1486.25 1999.15 1483.57 Q1996.1 1480.88 1996.1 1475.86 Q1996.1 1472.55 1998 1470.26 Q1999.89 1467.96 2003.27 1467.18 M2001.56 1459.79 Q2001.56 1462.48 2003.23 1463.98 Q2004.92 1465.49 2007.95 1465.49 Q2010.96 1465.49 2012.65 1463.98 Q2014.36 1462.48 2014.36 1459.79 Q2014.36 1457.11 2012.65 1455.6 Q2010.96 1454.1 2007.95 1454.1 Q2004.92 1454.1 2003.23 1455.6 Q2001.56 1457.11 2001.56 1459.79 Z" fill="#000000" fill-rule="nonzero" fill-opacity="1" /><path clip-path="url(#clip110)" d="M1332.84 1532.4 L1319.95 1549.74 L1333.51 1568.04 L1326.61 1568.04 L1316.23 1554.04 L1305.85 1568.04 L1298.95 1568.04 L1312.79 1549.39 L1300.12 1532.4 L1307.03 1532.4 L1316.48 1545.1 L1325.94 1532.4 L1332.84 1532.4 Z" fill="#000000" fill-rule="nonzero" fill-opacity="1" /><polyline clip-path="url(#clip112)" style="stroke:#000000; stroke-linecap:round; stroke-linejoin:round; stroke-width:2; stroke-opacity:0.1; fill:none" points="279.704,1355.89 2352.76,1355.89 "/>
<polyline clip-path="url(#clip112)" style="stroke:#000000; stroke-linecap:round; stroke-linejoin:round; stroke-width:2; stroke-opacity:0.1; fill:none" points="279.704,1154.49 2352.76,1154.49 "/>
<polyline clip-path="url(#clip112)" style="stroke:#000000; stroke-linecap:round; stroke-linejoin:round; stroke-width:2; stroke-opacity:0.1; fill:none" points="279.704,953.086 2352.76,953.086 "/>
<polyline clip-path="url(#clip112)" style="stroke:#000000; stroke-linecap:round; stroke-linejoin:round; stroke-width:2; stroke-opacity:0.1; fill:none" points="279.704,751.683 2352.76,751.683 "/>
<polyline clip-path="url(#clip112)" style="stroke:#000000; stroke-linecap:round; stroke-linejoin:round; stroke-width:2; stroke-opacity:0.1; fill:none" points="279.704,550.279 2352.76,550.279 "/>
<polyline clip-path="url(#clip112)" style="stroke:#000000; stroke-linecap:round; stroke-linejoin:round; stroke-width:2; stroke-opacity:0.1; fill:none" points="279.704,348.876 2352.76,348.876 "/>
<polyline clip-path="url(#clip112)" style="stroke:#000000; stroke-linecap:round; stroke-linejoin:round; stroke-width:2; stroke-opacity:0.1; fill:none" points="279.704,147.472 2352.76,147.472 "/>
<polyline clip-path="url(#clip110)" style="stroke:#000000; stroke-linecap:round; stroke-linejoin:round; stroke-width:4; stroke-opacity:1; fill:none" points="279.704,1423.18 279.704,47.2441 "/>
<polyline clip-path="url(#clip110)" style="stroke:#000000; stroke-linecap:round; stroke-linejoin:round; stroke-width:4; stroke-opacity:1; fill:none" points="279.704,1355.89 298.602,1355.89 "/>
<polyline clip-path="url(#clip110)" style="stroke:#000000; stroke-linecap:round; stroke-linejoin:round; stroke-width:4; stroke-opacity:1; fill:none" points="279.704,1154.49 298.602,1154.49 "/>
<polyline clip-path="url(#clip110)" style="stroke:#000000; stroke-linecap:round; stroke-linejoin:round; stroke-width:4; stroke-opacity:1; fill:none" points="279.704,953.086 298.602,953.086 "/>
<polyline clip-path="url(#clip110)" style="stroke:#000000; stroke-linecap:round; stroke-linejoin:round; stroke-width:4; stroke-opacity:1; fill:none" points="279.704,751.683 298.602,751.683 "/>
<polyline clip-path="url(#clip110)" style="stroke:#000000; stroke-linecap:round; stroke-linejoin:round; stroke-width:4; stroke-opacity:1; fill:none" points="279.704,550.279 298.602,550.279 "/>
<polyline clip-path="url(#clip110)" style="stroke:#000000; stroke-linecap:round; stroke-linejoin:round; stroke-width:4; stroke-opacity:1; fill:none" points="279.704,348.876 298.602,348.876 "/>
<polyline clip-path="url(#clip110)" style="stroke:#000000; stroke-linecap:round; stroke-linejoin:round; stroke-width:4; stroke-opacity:1; fill:none" points="279.704,147.472 298.602,147.472 "/>
<path clip-path="url(#clip110)" d="M127.2 1341.69 Q123.589 1341.69 121.76 1345.26 Q119.955 1348.8 119.955 1355.93 Q119.955 1363.03 121.76 1366.6 Q123.589 1370.14 127.2 1370.14 Q130.834 1370.14 132.64 1366.6 Q134.468 1363.03 134.468 1355.93 Q134.468 1348.8 132.64 1345.26 Q130.834 1341.69 127.2 1341.69 M127.2 1337.99 Q133.01 1337.99 136.066 1342.59 Q139.144 1347.18 139.144 1355.93 Q139.144 1364.65 136.066 1369.26 Q133.01 1373.84 127.2 1373.84 Q121.39 1373.84 118.311 1369.26 Q115.256 1364.65 115.256 1355.93 Q115.256 1347.18 118.311 1342.59 Q121.39 1337.99 127.2 1337.99 Z" fill="#000000" fill-rule="nonzero" fill-opacity="1" /><path clip-path="url(#clip110)" d="M147.362 1367.29 L152.246 1367.29 L152.246 1373.17 L147.362 1373.17 L147.362 1367.29 Z" fill="#000000" fill-rule="nonzero" fill-opacity="1" /><path clip-path="url(#clip110)" d="M172.431 1341.69 Q168.82 1341.69 166.991 1345.26 Q165.186 1348.8 165.186 1355.93 Q165.186 1363.03 166.991 1366.6 Q168.82 1370.14 172.431 1370.14 Q176.065 1370.14 177.871 1366.6 Q179.7 1363.03 179.7 1355.93 Q179.7 1348.8 177.871 1345.26 Q176.065 1341.69 172.431 1341.69 M172.431 1337.99 Q178.241 1337.99 181.297 1342.59 Q184.376 1347.18 184.376 1355.93 Q184.376 1364.65 181.297 1369.26 Q178.241 1373.84 172.431 1373.84 Q166.621 1373.84 163.542 1369.26 Q160.487 1364.65 160.487 1355.93 Q160.487 1347.18 163.542 1342.59 Q166.621 1337.99 172.431 1337.99 Z" fill="#000000" fill-rule="nonzero" fill-opacity="1" /><path clip-path="url(#clip110)" d="M192.639 1338.61 L210.996 1338.61 L210.996 1342.55 L196.922 1342.55 L196.922 1351.02 Q197.94 1350.67 198.959 1350.51 Q199.977 1350.33 200.996 1350.33 Q206.783 1350.33 210.162 1353.5 Q213.542 1356.67 213.542 1362.09 Q213.542 1367.66 210.07 1370.77 Q206.598 1373.84 200.278 1373.84 Q198.102 1373.84 195.834 1373.47 Q193.588 1373.1 191.181 1372.36 L191.181 1367.66 Q193.264 1368.8 195.487 1369.35 Q197.709 1369.91 200.186 1369.91 Q204.19 1369.91 206.528 1367.8 Q208.866 1365.7 208.866 1362.09 Q208.866 1358.47 206.528 1356.37 Q204.19 1354.26 200.186 1354.26 Q198.311 1354.26 196.436 1354.68 Q194.584 1355.09 192.639 1355.97 L192.639 1338.61 Z" fill="#000000" fill-rule="nonzero" fill-opacity="1" /><path clip-path="url(#clip110)" d="M222.801 1338.61 L241.158 1338.61 L241.158 1342.55 L227.084 1342.55 L227.084 1351.02 Q228.102 1350.67 229.121 1350.51 Q230.139 1350.33 231.158 1350.33 Q236.945 1350.33 240.324 1353.5 Q243.704 1356.67 243.704 1362.09 Q243.704 1367.66 240.232 1370.77 Q236.76 1373.84 230.44 1373.84 Q228.264 1373.84 225.996 1373.47 Q223.75 1373.1 221.343 1372.36 L221.343 1367.66 Q223.426 1368.8 225.648 1369.35 Q227.871 1369.91 230.347 1369.91 Q234.352 1369.91 236.69 1367.8 Q239.028 1365.7 239.028 1362.09 Q239.028 1358.47 236.69 1356.37 Q234.352 1354.26 230.347 1354.26 Q228.473 1354.26 226.598 1354.68 Q224.746 1355.09 222.801 1355.97 L222.801 1338.61 Z" fill="#000000" fill-rule="nonzero" fill-opacity="1" /><path clip-path="url(#clip110)" d="M126.205 1140.29 Q122.593 1140.29 120.765 1143.85 Q118.959 1147.39 118.959 1154.52 Q118.959 1161.63 120.765 1165.2 Q122.593 1168.74 126.205 1168.74 Q129.839 1168.74 131.644 1165.2 Q133.473 1161.63 133.473 1154.52 Q133.473 1147.39 131.644 1143.85 Q129.839 1140.29 126.205 1140.29 M126.205 1136.58 Q132.015 1136.58 135.07 1141.19 Q138.149 1145.77 138.149 1154.52 Q138.149 1163.25 135.07 1167.86 Q132.015 1172.44 126.205 1172.44 Q120.394 1172.44 117.316 1167.86 Q114.26 1163.25 114.26 1154.52 Q114.26 1145.77 117.316 1141.19 Q120.394 1136.58 126.205 1136.58 Z" fill="#000000" fill-rule="nonzero" fill-opacity="1" /><path clip-path="url(#clip110)" d="M146.366 1165.89 L151.251 1165.89 L151.251 1171.77 L146.366 1171.77 L146.366 1165.89 Z" fill="#000000" fill-rule="nonzero" fill-opacity="1" /><path clip-path="url(#clip110)" d="M171.436 1140.29 Q167.825 1140.29 165.996 1143.85 Q164.19 1147.39 164.19 1154.52 Q164.19 1161.63 165.996 1165.2 Q167.825 1168.74 171.436 1168.74 Q175.07 1168.74 176.876 1165.2 Q178.704 1161.63 178.704 1154.52 Q178.704 1147.39 176.876 1143.85 Q175.07 1140.29 171.436 1140.29 M171.436 1136.58 Q177.246 1136.58 180.301 1141.19 Q183.38 1145.77 183.38 1154.52 Q183.38 1163.25 180.301 1167.86 Q177.246 1172.44 171.436 1172.44 Q165.626 1172.44 162.547 1167.86 Q159.491 1163.25 159.491 1154.52 Q159.491 1145.77 162.547 1141.19 Q165.626 1136.58 171.436 1136.58 Z" fill="#000000" fill-rule="nonzero" fill-opacity="1" /><path clip-path="url(#clip110)" d="M202.176 1152.63 Q199.028 1152.63 197.176 1154.78 Q195.348 1156.93 195.348 1160.68 Q195.348 1164.41 197.176 1166.58 Q199.028 1168.74 202.176 1168.74 Q205.324 1168.74 207.153 1166.58 Q209.005 1164.41 209.005 1160.68 Q209.005 1156.93 207.153 1154.78 Q205.324 1152.63 202.176 1152.63 M211.459 1137.97 L211.459 1142.23 Q209.699 1141.4 207.894 1140.96 Q206.112 1140.52 204.352 1140.52 Q199.723 1140.52 197.269 1143.64 Q194.838 1146.77 194.491 1153.09 Q195.857 1151.08 197.917 1150.01 Q199.977 1148.92 202.454 1148.92 Q207.662 1148.92 210.672 1152.09 Q213.704 1155.24 213.704 1160.68 Q213.704 1166.01 210.556 1169.22 Q207.408 1172.44 202.176 1172.44 Q196.181 1172.44 193.01 1167.86 Q189.838 1163.25 189.838 1154.52 Q189.838 1146.33 193.727 1141.47 Q197.616 1136.58 204.167 1136.58 Q205.926 1136.58 207.709 1136.93 Q209.514 1137.28 211.459 1137.97 Z" fill="#000000" fill-rule="nonzero" fill-opacity="1" /><path clip-path="url(#clip110)" d="M231.76 1140.29 Q228.148 1140.29 226.32 1143.85 Q224.514 1147.39 224.514 1154.52 Q224.514 1161.63 226.32 1165.2 Q228.148 1168.74 231.76 1168.74 Q235.394 1168.74 237.199 1165.2 Q239.028 1161.63 239.028 1154.52 Q239.028 1147.39 237.199 1143.85 Q235.394 1140.29 231.76 1140.29 M231.76 1136.58 Q237.57 1136.58 240.625 1141.19 Q243.704 1145.77 243.704 1154.52 Q243.704 1163.25 240.625 1167.86 Q237.57 1172.44 231.76 1172.44 Q225.949 1172.44 222.871 1167.86 Q219.815 1163.25 219.815 1154.52 Q219.815 1145.77 222.871 1141.19 Q225.949 1136.58 231.76 1136.58 Z" fill="#000000" fill-rule="nonzero" fill-opacity="1" /><path clip-path="url(#clip110)" d="M127.2 938.885 Q123.589 938.885 121.76 942.45 Q119.955 945.991 119.955 953.121 Q119.955 960.227 121.76 963.792 Q123.589 967.334 127.2 967.334 Q130.834 967.334 132.64 963.792 Q134.468 960.227 134.468 953.121 Q134.468 945.991 132.64 942.45 Q130.834 938.885 127.2 938.885 M127.2 935.181 Q133.01 935.181 136.066 939.788 Q139.144 944.371 139.144 953.121 Q139.144 961.848 136.066 966.454 Q133.01 971.037 127.2 971.037 Q121.39 971.037 118.311 966.454 Q115.256 961.848 115.256 953.121 Q115.256 944.371 118.311 939.788 Q121.39 935.181 127.2 935.181 Z" fill="#000000" fill-rule="nonzero" fill-opacity="1" /><path clip-path="url(#clip110)" d="M147.362 964.486 L152.246 964.486 L152.246 970.366 L147.362 970.366 L147.362 964.486 Z" fill="#000000" fill-rule="nonzero" fill-opacity="1" /><path clip-path="url(#clip110)" d="M172.431 938.885 Q168.82 938.885 166.991 942.45 Q165.186 945.991 165.186 953.121 Q165.186 960.227 166.991 963.792 Q168.82 967.334 172.431 967.334 Q176.065 967.334 177.871 963.792 Q179.7 960.227 179.7 953.121 Q179.7 945.991 177.871 942.45 Q176.065 938.885 172.431 938.885 M172.431 935.181 Q178.241 935.181 181.297 939.788 Q184.376 944.371 184.376 953.121 Q184.376 961.848 181.297 966.454 Q178.241 971.037 172.431 971.037 Q166.621 971.037 163.542 966.454 Q160.487 961.848 160.487 953.121 Q160.487 944.371 163.542 939.788 Q166.621 935.181 172.431 935.181 Z" fill="#000000" fill-rule="nonzero" fill-opacity="1" /><path clip-path="url(#clip110)" d="M203.172 951.223 Q200.024 951.223 198.172 953.375 Q196.343 955.528 196.343 959.278 Q196.343 963.005 198.172 965.181 Q200.024 967.334 203.172 967.334 Q206.32 967.334 208.149 965.181 Q210 963.005 210 959.278 Q210 955.528 208.149 953.375 Q206.32 951.223 203.172 951.223 M212.454 936.57 L212.454 940.829 Q210.695 939.996 208.889 939.556 Q207.107 939.116 205.348 939.116 Q200.718 939.116 198.264 942.241 Q195.834 945.366 195.487 951.686 Q196.852 949.672 198.912 948.607 Q200.973 947.519 203.449 947.519 Q208.658 947.519 211.667 950.69 Q214.699 953.838 214.699 959.278 Q214.699 964.602 211.551 967.82 Q208.403 971.037 203.172 971.037 Q197.176 971.037 194.005 966.454 Q190.834 961.848 190.834 953.121 Q190.834 944.926 194.723 940.065 Q198.612 935.181 205.162 935.181 Q206.922 935.181 208.704 935.528 Q210.51 935.876 212.454 936.57 Z" fill="#000000" fill-rule="nonzero" fill-opacity="1" /><path clip-path="url(#clip110)" d="M222.801 935.806 L241.158 935.806 L241.158 939.741 L227.084 939.741 L227.084 948.213 Q228.102 947.866 229.121 947.704 Q230.139 947.519 231.158 947.519 Q236.945 947.519 240.324 950.69 Q243.704 953.862 243.704 959.278 Q243.704 964.857 240.232 967.959 Q236.76 971.037 230.44 971.037 Q228.264 971.037 225.996 970.667 Q223.75 970.297 221.343 969.556 L221.343 964.857 Q223.426 965.991 225.648 966.547 Q227.871 967.102 230.347 967.102 Q234.352 967.102 236.69 964.996 Q239.028 962.889 239.028 959.278 Q239.028 955.667 236.69 953.561 Q234.352 951.454 230.347 951.454 Q228.473 951.454 226.598 951.871 Q224.746 952.287 222.801 953.167 L222.801 935.806 Z" fill="#000000" fill-rule="nonzero" fill-opacity="1" /><path clip-path="url(#clip110)" d="M126.205 737.481 Q122.593 737.481 120.765 741.046 Q118.959 744.588 118.959 751.717 Q118.959 758.824 120.765 762.389 Q122.593 765.93 126.205 765.93 Q129.839 765.93 131.644 762.389 Q133.473 758.824 133.473 751.717 Q133.473 744.588 131.644 741.046 Q129.839 737.481 126.205 737.481 M126.205 733.778 Q132.015 733.778 135.07 738.384 Q138.149 742.967 138.149 751.717 Q138.149 760.444 135.07 765.051 Q132.015 769.634 126.205 769.634 Q120.394 769.634 117.316 765.051 Q114.26 760.444 114.26 751.717 Q114.26 742.967 117.316 738.384 Q120.394 733.778 126.205 733.778 Z" fill="#000000" fill-rule="nonzero" fill-opacity="1" /><path clip-path="url(#clip110)" d="M146.366 763.083 L151.251 763.083 L151.251 768.963 L146.366 768.963 L146.366 763.083 Z" fill="#000000" fill-rule="nonzero" fill-opacity="1" /><path clip-path="url(#clip110)" d="M171.436 737.481 Q167.825 737.481 165.996 741.046 Q164.19 744.588 164.19 751.717 Q164.19 758.824 165.996 762.389 Q167.825 765.93 171.436 765.93 Q175.07 765.93 176.876 762.389 Q178.704 758.824 178.704 751.717 Q178.704 744.588 176.876 741.046 Q175.07 737.481 171.436 737.481 M171.436 733.778 Q177.246 733.778 180.301 738.384 Q183.38 742.967 183.38 751.717 Q183.38 760.444 180.301 765.051 Q177.246 769.634 171.436 769.634 Q165.626 769.634 162.547 765.051 Q159.491 760.444 159.491 751.717 Q159.491 742.967 162.547 738.384 Q165.626 733.778 171.436 733.778 Z" fill="#000000" fill-rule="nonzero" fill-opacity="1" /><path clip-path="url(#clip110)" d="M190.417 734.403 L212.639 734.403 L212.639 736.393 L200.093 768.963 L195.209 768.963 L207.014 738.338 L190.417 738.338 L190.417 734.403 Z" fill="#000000" fill-rule="nonzero" fill-opacity="1" /><path clip-path="url(#clip110)" d="M231.76 737.481 Q228.148 737.481 226.32 741.046 Q224.514 744.588 224.514 751.717 Q224.514 758.824 226.32 762.389 Q228.148 765.93 231.76 765.93 Q235.394 765.93 237.199 762.389 Q239.028 758.824 239.028 751.717 Q239.028 744.588 237.199 741.046 Q235.394 737.481 231.76 737.481 M231.76 733.778 Q237.57 733.778 240.625 738.384 Q243.704 742.967 243.704 751.717 Q243.704 760.444 240.625 765.051 Q237.57 769.634 231.76 769.634 Q225.949 769.634 222.871 765.051 Q219.815 760.444 219.815 751.717 Q219.815 742.967 222.871 738.384 Q225.949 733.778 231.76 733.778 Z" fill="#000000" fill-rule="nonzero" fill-opacity="1" /><path clip-path="url(#clip110)" d="M127.2 536.078 Q123.589 536.078 121.76 539.643 Q119.955 543.184 119.955 550.314 Q119.955 557.42 121.76 560.985 Q123.589 564.527 127.2 564.527 Q130.834 564.527 132.64 560.985 Q134.468 557.42 134.468 550.314 Q134.468 543.184 132.64 539.643 Q130.834 536.078 127.2 536.078 M127.2 532.374 Q133.01 532.374 136.066 536.981 Q139.144 541.564 139.144 550.314 Q139.144 559.041 136.066 563.647 Q133.01 568.23 127.2 568.23 Q121.39 568.23 118.311 563.647 Q115.256 559.041 115.256 550.314 Q115.256 541.564 118.311 536.981 Q121.39 532.374 127.2 532.374 Z" fill="#000000" fill-rule="nonzero" fill-opacity="1" /><path clip-path="url(#clip110)" d="M147.362 561.68 L152.246 561.68 L152.246 567.559 L147.362 567.559 L147.362 561.68 Z" fill="#000000" fill-rule="nonzero" fill-opacity="1" /><path clip-path="url(#clip110)" d="M172.431 536.078 Q168.82 536.078 166.991 539.643 Q165.186 543.184 165.186 550.314 Q165.186 557.42 166.991 560.985 Q168.82 564.527 172.431 564.527 Q176.065 564.527 177.871 560.985 Q179.7 557.42 179.7 550.314 Q179.7 543.184 177.871 539.643 Q176.065 536.078 172.431 536.078 M172.431 532.374 Q178.241 532.374 181.297 536.981 Q184.376 541.564 184.376 550.314 Q184.376 559.041 181.297 563.647 Q178.241 568.23 172.431 568.23 Q166.621 568.23 163.542 563.647 Q160.487 559.041 160.487 550.314 Q160.487 541.564 163.542 536.981 Q166.621 532.374 172.431 532.374 Z" fill="#000000" fill-rule="nonzero" fill-opacity="1" /><path clip-path="url(#clip110)" d="M191.413 532.999 L213.635 532.999 L213.635 534.99 L201.088 567.559 L196.204 567.559 L208.01 536.934 L191.413 536.934 L191.413 532.999 Z" fill="#000000" fill-rule="nonzero" fill-opacity="1" /><path clip-path="url(#clip110)" d="M222.801 532.999 L241.158 532.999 L241.158 536.934 L227.084 536.934 L227.084 545.407 Q228.102 545.059 229.121 544.897 Q230.139 544.712 231.158 544.712 Q236.945 544.712 240.324 547.883 Q243.704 551.055 243.704 556.471 Q243.704 562.05 240.232 565.152 Q236.76 568.23 230.44 568.23 Q228.264 568.23 225.996 567.86 Q223.75 567.49 221.343 566.749 L221.343 562.05 Q223.426 563.184 225.648 563.74 Q227.871 564.295 230.347 564.295 Q234.352 564.295 236.69 562.189 Q239.028 560.082 239.028 556.471 Q239.028 552.86 236.69 550.754 Q234.352 548.647 230.347 548.647 Q228.473 548.647 226.598 549.064 Q224.746 549.481 222.801 550.36 L222.801 532.999 Z" fill="#000000" fill-rule="nonzero" fill-opacity="1" /><path clip-path="url(#clip110)" d="M126.205 334.674 Q122.593 334.674 120.765 338.239 Q118.959 341.781 118.959 348.91 Q118.959 356.017 120.765 359.582 Q122.593 363.123 126.205 363.123 Q129.839 363.123 131.644 359.582 Q133.473 356.017 133.473 348.91 Q133.473 341.781 131.644 338.239 Q129.839 334.674 126.205 334.674 M126.205 330.971 Q132.015 330.971 135.07 335.577 Q138.149 340.161 138.149 348.91 Q138.149 357.637 135.07 362.244 Q132.015 366.827 126.205 366.827 Q120.394 366.827 117.316 362.244 Q114.26 357.637 114.26 348.91 Q114.26 340.161 117.316 335.577 Q120.394 330.971 126.205 330.971 Z" fill="#000000" fill-rule="nonzero" fill-opacity="1" /><path clip-path="url(#clip110)" d="M146.366 360.276 L151.251 360.276 L151.251 366.156 L146.366 366.156 L146.366 360.276 Z" fill="#000000" fill-rule="nonzero" fill-opacity="1" /><path clip-path="url(#clip110)" d="M171.436 334.674 Q167.825 334.674 165.996 338.239 Q164.19 341.781 164.19 348.91 Q164.19 356.017 165.996 359.582 Q167.825 363.123 171.436 363.123 Q175.07 363.123 176.876 359.582 Q178.704 356.017 178.704 348.91 Q178.704 341.781 176.876 338.239 Q175.07 334.674 171.436 334.674 M171.436 330.971 Q177.246 330.971 180.301 335.577 Q183.38 340.161 183.38 348.91 Q183.38 357.637 180.301 362.244 Q177.246 366.827 171.436 366.827 Q165.626 366.827 162.547 362.244 Q159.491 357.637 159.491 348.91 Q159.491 340.161 162.547 335.577 Q165.626 330.971 171.436 330.971 Z" fill="#000000" fill-rule="nonzero" fill-opacity="1" /><path clip-path="url(#clip110)" d="M201.598 349.744 Q198.264 349.744 196.343 351.526 Q194.445 353.309 194.445 356.434 Q194.445 359.559 196.343 361.341 Q198.264 363.123 201.598 363.123 Q204.931 363.123 206.852 361.341 Q208.774 359.535 208.774 356.434 Q208.774 353.309 206.852 351.526 Q204.954 349.744 201.598 349.744 M196.922 347.753 Q193.913 347.012 192.223 344.952 Q190.556 342.892 190.556 339.929 Q190.556 335.786 193.496 333.378 Q196.459 330.971 201.598 330.971 Q206.76 330.971 209.699 333.378 Q212.639 335.786 212.639 339.929 Q212.639 342.892 210.949 344.952 Q209.283 347.012 206.297 347.753 Q209.676 348.54 211.551 350.832 Q213.449 353.123 213.449 356.434 Q213.449 361.457 210.371 364.142 Q207.315 366.827 201.598 366.827 Q195.88 366.827 192.801 364.142 Q189.746 361.457 189.746 356.434 Q189.746 353.123 191.644 350.832 Q193.542 348.54 196.922 347.753 M195.209 340.369 Q195.209 343.054 196.875 344.559 Q198.565 346.063 201.598 346.063 Q204.607 346.063 206.297 344.559 Q208.01 343.054 208.01 340.369 Q208.01 337.684 206.297 336.179 Q204.607 334.674 201.598 334.674 Q198.565 334.674 196.875 336.179 Q195.209 337.684 195.209 340.369 Z" fill="#000000" fill-rule="nonzero" fill-opacity="1" /><path clip-path="url(#clip110)" d="M231.76 334.674 Q228.148 334.674 226.32 338.239 Q224.514 341.781 224.514 348.91 Q224.514 356.017 226.32 359.582 Q228.148 363.123 231.76 363.123 Q235.394 363.123 237.199 359.582 Q239.028 356.017 239.028 348.91 Q239.028 341.781 237.199 338.239 Q235.394 334.674 231.76 334.674 M231.76 330.971 Q237.57 330.971 240.625 335.577 Q243.704 340.161 243.704 348.91 Q243.704 357.637 240.625 362.244 Q237.57 366.827 231.76 366.827 Q225.949 366.827 222.871 362.244 Q219.815 357.637 219.815 348.91 Q219.815 340.161 222.871 335.577 Q225.949 330.971 231.76 330.971 Z" fill="#000000" fill-rule="nonzero" fill-opacity="1" /><path clip-path="url(#clip110)" d="M127.2 133.271 Q123.589 133.271 121.76 136.836 Q119.955 140.377 119.955 147.507 Q119.955 154.613 121.76 158.178 Q123.589 161.72 127.2 161.72 Q130.834 161.72 132.64 158.178 Q134.468 154.613 134.468 147.507 Q134.468 140.377 132.64 136.836 Q130.834 133.271 127.2 133.271 M127.2 129.567 Q133.01 129.567 136.066 134.174 Q139.144 138.757 139.144 147.507 Q139.144 156.234 136.066 160.84 Q133.01 165.424 127.2 165.424 Q121.39 165.424 118.311 160.84 Q115.256 156.234 115.256 147.507 Q115.256 138.757 118.311 134.174 Q121.39 129.567 127.2 129.567 Z" fill="#000000" fill-rule="nonzero" fill-opacity="1" /><path clip-path="url(#clip110)" d="M147.362 158.873 L152.246 158.873 L152.246 164.752 L147.362 164.752 L147.362 158.873 Z" fill="#000000" fill-rule="nonzero" fill-opacity="1" /><path clip-path="url(#clip110)" d="M172.431 133.271 Q168.82 133.271 166.991 136.836 Q165.186 140.377 165.186 147.507 Q165.186 154.613 166.991 158.178 Q168.82 161.72 172.431 161.72 Q176.065 161.72 177.871 158.178 Q179.7 154.613 179.7 147.507 Q179.7 140.377 177.871 136.836 Q176.065 133.271 172.431 133.271 M172.431 129.567 Q178.241 129.567 181.297 134.174 Q184.376 138.757 184.376 147.507 Q184.376 156.234 181.297 160.84 Q178.241 165.424 172.431 165.424 Q166.621 165.424 163.542 160.84 Q160.487 156.234 160.487 147.507 Q160.487 138.757 163.542 134.174 Q166.621 129.567 172.431 129.567 Z" fill="#000000" fill-rule="nonzero" fill-opacity="1" /><path clip-path="url(#clip110)" d="M202.593 148.34 Q199.26 148.34 197.338 150.123 Q195.44 151.905 195.44 155.03 Q195.44 158.155 197.338 159.938 Q199.26 161.72 202.593 161.72 Q205.926 161.72 207.848 159.938 Q209.769 158.132 209.769 155.03 Q209.769 151.905 207.848 150.123 Q205.949 148.34 202.593 148.34 M197.917 146.35 Q194.908 145.609 193.218 143.549 Q191.551 141.489 191.551 138.526 Q191.551 134.382 194.491 131.975 Q197.454 129.567 202.593 129.567 Q207.755 129.567 210.695 131.975 Q213.635 134.382 213.635 138.526 Q213.635 141.489 211.945 143.549 Q210.278 145.609 207.292 146.35 Q210.672 147.137 212.547 149.428 Q214.445 151.72 214.445 155.03 Q214.445 160.053 211.366 162.738 Q208.311 165.424 202.593 165.424 Q196.875 165.424 193.797 162.738 Q190.741 160.053 190.741 155.03 Q190.741 151.72 192.639 149.428 Q194.538 147.137 197.917 146.35 M196.204 138.965 Q196.204 141.651 197.871 143.155 Q199.561 144.66 202.593 144.66 Q205.602 144.66 207.292 143.155 Q209.005 141.651 209.005 138.965 Q209.005 136.28 207.292 134.776 Q205.602 133.271 202.593 133.271 Q199.561 133.271 197.871 134.776 Q196.204 136.28 196.204 138.965 Z" fill="#000000" fill-rule="nonzero" fill-opacity="1" /><path clip-path="url(#clip110)" d="M222.801 130.192 L241.158 130.192 L241.158 134.127 L227.084 134.127 L227.084 142.6 Q228.102 142.252 229.121 142.09 Q230.139 141.905 231.158 141.905 Q236.945 141.905 240.324 145.076 Q243.704 148.248 243.704 153.664 Q243.704 159.243 240.232 162.345 Q236.76 165.424 230.44 165.424 Q228.264 165.424 225.996 165.053 Q223.75 164.683 221.343 163.942 L221.343 159.243 Q223.426 160.377 225.648 160.933 Q227.871 161.488 230.347 161.488 Q234.352 161.488 236.69 159.382 Q239.028 157.275 239.028 153.664 Q239.028 150.053 236.69 147.947 Q234.352 145.84 230.347 145.84 Q228.473 145.84 226.598 146.257 Q224.746 146.674 222.801 147.553 L222.801 130.192 Z" fill="#000000" fill-rule="nonzero" fill-opacity="1" /><path clip-path="url(#clip110)" d="M34.7219 748.293 Q31.4754 746.352 28.6108 741.546 Q27.4968 739.668 27.4968 733.875 Q27.4968 727.382 32.6531 723.34 Q37.8093 719.266 46.212 719.266 Q54.6147 719.266 59.771 723.34 Q64.9272 727.382 64.9272 733.875 Q64.9272 737.79 63.3994 740.623 Q61.8398 743.424 58.657 745.27 L77.5631 745.27 L77.5631 751.158 L46.5303 751.158 Q39.1779 751.158 34.7219 748.293 M46.212 725.345 Q39.7508 725.345 36.0905 728.019 Q32.3984 730.66 32.3984 735.307 Q32.3984 739.954 36.0905 742.628 Q39.7508 745.27 46.212 745.27 Q52.6732 745.27 56.3653 742.628 Q60.0256 739.954 60.0256 735.307 Q60.0256 730.66 56.3653 728.019 Q52.6732 725.345 46.212 725.345 Z" fill="#000000" fill-rule="nonzero" fill-opacity="1" /><polyline clip-path="url(#clip112)" style="stroke:#009af9; stroke-linecap:round; stroke-linejoin:round; stroke-width:4; stroke-opacity:1; fill:none" points="338.375,86.1857 441.307,128.328 544.239,320.264 647.171,721.932 750.103,1179.02 853.036,1384.24 955.968,1179.02 1058.9,721.932 1161.83,320.264 1264.76,128.328 1367.7,86.1857 1470.63,128.328 1573.56,320.264 1676.49,721.932 1779.42,1179.02 1882.36,1384.24 1985.29,1179.02 2088.22,721.932 2191.15,320.264 2294.08,128.328 "/>
<circle clip-path="url(#clip112)" cx="338.375" cy="86.1857" r="7.2" fill="#009af9" fill-rule="evenodd" fill-opacity="1" stroke="#000000" stroke-opacity="1" stroke-width="3.2"/>
<circle clip-path="url(#clip112)" cx="441.307" cy="128.328" r="7.2" fill="#009af9" fill-rule="evenodd" fill-opacity="1" stroke="#000000" stroke-opacity="1" stroke-width="3.2"/>
<circle clip-path="url(#clip112)" cx="544.239" cy="320.264" r="7.2" fill="#009af9" fill-rule="evenodd" fill-opacity="1" stroke="#000000" stroke-opacity="1" stroke-width="3.2"/>
<circle clip-path="url(#clip112)" cx="647.171" cy="721.932" r="7.2" fill="#009af9" fill-rule="evenodd" fill-opacity="1" stroke="#000000" stroke-opacity="1" stroke-width="3.2"/>
<circle clip-path="url(#clip112)" cx="750.103" cy="1179.02" r="7.2" fill="#009af9" fill-rule="evenodd" fill-opacity="1" stroke="#000000" stroke-opacity="1" stroke-width="3.2"/>
<circle clip-path="url(#clip112)" cx="853.036" cy="1384.24" r="7.2" fill="#009af9" fill-rule="evenodd" fill-opacity="1" stroke="#000000" stroke-opacity="1" stroke-width="3.2"/>
<circle clip-path="url(#clip112)" cx="955.968" cy="1179.02" r="7.2" fill="#009af9" fill-rule="evenodd" fill-opacity="1" stroke="#000000" stroke-opacity="1" stroke-width="3.2"/>
<circle clip-path="url(#clip112)" cx="1058.9" cy="721.932" r="7.2" fill="#009af9" fill-rule="evenodd" fill-opacity="1" stroke="#000000" stroke-opacity="1" stroke-width="3.2"/>
<circle clip-path="url(#clip112)" cx="1161.83" cy="320.264" r="7.2" fill="#009af9" fill-rule="evenodd" fill-opacity="1" stroke="#000000" stroke-opacity="1" stroke-width="3.2"/>
<circle clip-path="url(#clip112)" cx="1264.76" cy="128.328" r="7.2" fill="#009af9" fill-rule="evenodd" fill-opacity="1" stroke="#000000" stroke-opacity="1" stroke-width="3.2"/>
<circle clip-path="url(#clip112)" cx="1367.7" cy="86.1857" r="7.2" fill="#009af9" fill-rule="evenodd" fill-opacity="1" stroke="#000000" stroke-opacity="1" stroke-width="3.2"/>
<circle clip-path="url(#clip112)" cx="1470.63" cy="128.328" r="7.2" fill="#009af9" fill-rule="evenodd" fill-opacity="1" stroke="#000000" stroke-opacity="1" stroke-width="3.2"/>
<circle clip-path="url(#clip112)" cx="1573.56" cy="320.264" r="7.2" fill="#009af9" fill-rule="evenodd" fill-opacity="1" stroke="#000000" stroke-opacity="1" stroke-width="3.2"/>
<circle clip-path="url(#clip112)" cx="1676.49" cy="721.932" r="7.2" fill="#009af9" fill-rule="evenodd" fill-opacity="1" stroke="#000000" stroke-opacity="1" stroke-width="3.2"/>
<circle clip-path="url(#clip112)" cx="1779.42" cy="1179.02" r="7.2" fill="#009af9" fill-rule="evenodd" fill-opacity="1" stroke="#000000" stroke-opacity="1" stroke-width="3.2"/>
<circle clip-path="url(#clip112)" cx="1882.36" cy="1384.24" r="7.2" fill="#009af9" fill-rule="evenodd" fill-opacity="1" stroke="#000000" stroke-opacity="1" stroke-width="3.2"/>
<circle clip-path="url(#clip112)" cx="1985.29" cy="1179.02" r="7.2" fill="#009af9" fill-rule="evenodd" fill-opacity="1" stroke="#000000" stroke-opacity="1" stroke-width="3.2"/>
<circle clip-path="url(#clip112)" cx="2088.22" cy="721.932" r="7.2" fill="#009af9" fill-rule="evenodd" fill-opacity="1" stroke="#000000" stroke-opacity="1" stroke-width="3.2"/>
<circle clip-path="url(#clip112)" cx="2191.15" cy="320.264" r="7.2" fill="#009af9" fill-rule="evenodd" fill-opacity="1" stroke="#000000" stroke-opacity="1" stroke-width="3.2"/>
<circle clip-path="url(#clip112)" cx="2294.08" cy="128.328" r="7.2" fill="#009af9" fill-rule="evenodd" fill-opacity="1" stroke="#000000" stroke-opacity="1" stroke-width="3.2"/>
</svg>
