<?xml version="1.0" encoding="utf-8"?>
<svg xmlns="http://www.w3.org/2000/svg" xmlns:xlink="http://www.w3.org/1999/xlink" width="600" height="400" viewBox="0 0 2400 1600">
<defs>
  <clipPath id="clip070">
    <rect x="0" y="0" width="2400" height="1600"/>
  </clipPath>
</defs>
<path clip-path="url(#clip070)" d="M0 1600 L2400 1600 L2400 0 L0 0  Z" fill="#ffffff" fill-rule="evenodd" fill-opacity="1"/>
<defs>
  <clipPath id="clip071">
    <rect x="480" y="0" width="1681" height="1600"/>
  </clipPath>
</defs>
<path clip-path="url(#clip070)" d="M189.496 1486.45 L2352.76 1486.45 L2352.76 47.2441 L189.496 47.2441  Z" fill="#ffffff" fill-rule="evenodd" fill-opacity="1"/>
<defs>
  <clipPath id="clip072">
    <rect x="189" y="47" width="2164" height="1440"/>
  </clipPath>
</defs>
<polyline clip-path="url(#clip072)" style="stroke:#000000; stroke-linecap:round; stroke-linejoin:round; stroke-width:2; stroke-opacity:0.1; fill:none" points="250.72,1486.45 250.72,47.2441 "/>
<polyline clip-path="url(#clip072)" style="stroke:#000000; stroke-linecap:round; stroke-linejoin:round; stroke-width:2; stroke-opacity:0.1; fill:none" points="590.855,1486.45 590.855,47.2441 "/>
<polyline clip-path="url(#clip072)" style="stroke:#000000; stroke-linecap:round; stroke-linejoin:round; stroke-width:2; stroke-opacity:0.1; fill:none" points="930.991,1486.45 930.991,47.2441 "/>
<polyline clip-path="url(#clip072)" style="stroke:#000000; stroke-linecap:round; stroke-linejoin:round; stroke-width:2; stroke-opacity:0.1; fill:none" points="1271.13,1486.45 1271.13,47.2441 "/>
<polyline clip-path="url(#clip072)" style="stroke:#000000; stroke-linecap:round; stroke-linejoin:round; stroke-width:2; stroke-opacity:0.1; fill:none" points="1611.26,1486.45 1611.26,47.2441 "/>
<polyline clip-path="url(#clip072)" style="stroke:#000000; stroke-linecap:round; stroke-linejoin:round; stroke-width:2; stroke-opacity:0.1; fill:none" points="1951.4,1486.45 1951.4,47.2441 "/>
<polyline clip-path="url(#clip072)" style="stroke:#000000; stroke-linecap:round; stroke-linejoin:round; stroke-width:2; stroke-opacity:0.1; fill:none" points="2291.53,1486.45 2291.53,47.2441 "/>
<polyline clip-path="url(#clip070)" style="stroke:#000000; stroke-linecap:round; stroke-linejoin:round; stroke-width:4; stroke-opacity:1; fill:none" points="189.496,1486.45 2352.76,1486.45 "/>
<polyline clip-path="url(#clip070)" style="stroke:#000000; stroke-linecap:round; stroke-linejoin:round; stroke-width:4; stroke-opacity:1; fill:none" points="250.72,1486.45 250.72,1467.55 "/>
<polyline clip-path="url(#clip070)" style="stroke:#000000; stroke-linecap:round; stroke-linejoin:round; stroke-width:4; stroke-opacity:1; fill:none" points="590.855,1486.45 590.855,1467.55 "/>
<polyline clip-path="url(#clip070)" style="stroke:#000000; stroke-linecap:round; stroke-linejoin:round; stroke-width:4; stroke-opacity:1; fill:none" points="930.991,1486.45 930.991,1467.55 "/>
<polyline clip-path="url(#clip070)" style="stroke:#000000; stroke-linecap:round; stroke-linejoin:round; stroke-width:4; stroke-opacity:1; fill:none" points="1271.13,1486.45 1271.13,1467.55 "/>
<polyline clip-path="url(#clip070)" style="stroke:#000000; stroke-linecap:round; stroke-linejoin:round; stroke-width:4; stroke-opacity:1; fill:none" points="1611.26,1486.45 1611.26,1467.55 "/>
<polyline clip-path="url(#clip070)" style="stroke:#000000; stroke-linecap:round; stroke-linejoin:round; stroke-width:4; stroke-opacity:1; fill:none" points="1951.4,1486.45 1951.4,1467.55 "/>
<polyline clip-path="url(#clip070)" style="stroke:#000000; stroke-linecap:round; stroke-linejoin:round; stroke-width:4; stroke-opacity:1; fill:none" points="2291.53,1486.45 2291.53,1467.55 "/>
<path clip-path="url(#clip070)" d="M241.102 1544.91 L248.741 1544.91 L248.741 1518.55 L240.431 1520.21 L240.431 1515.95 L248.695 1514.29 L253.371 1514.29 L253.371 1544.91 L261.01 1544.91 L261.01 1548.85 L241.102 1548.85 L241.102 1544.91 Z" fill="#000000" fill-rule="nonzero" fill-opacity="1" /><path clip-path="url(#clip070)" d="M585.508 1544.91 L601.828 1544.91 L601.828 1548.85 L579.883 1548.85 L579.883 1544.91 Q582.545 1542.16 587.129 1537.53 Q591.735 1532.88 592.916 1531.53 Q595.161 1529.01 596.041 1527.27 Q596.943 1525.51 596.943 1523.82 Q596.943 1521.07 594.999 1519.33 Q593.078 1517.6 589.976 1517.6 Q587.777 1517.6 585.323 1518.36 Q582.893 1519.13 580.115 1520.68 L580.115 1515.95 Q582.939 1514.82 585.393 1514.24 Q587.846 1513.66 589.883 1513.66 Q595.254 1513.66 598.448 1516.35 Q601.642 1519.03 601.642 1523.52 Q601.642 1525.65 600.832 1527.57 Q600.045 1529.47 597.939 1532.07 Q597.36 1532.74 594.258 1535.95 Q591.156 1539.15 585.508 1544.91 Z" fill="#000000" fill-rule="nonzero" fill-opacity="1" /><path clip-path="url(#clip070)" d="M935.238 1530.21 Q938.595 1530.93 940.47 1533.2 Q942.368 1535.47 942.368 1538.8 Q942.368 1543.92 938.849 1546.72 Q935.331 1549.52 928.85 1549.52 Q926.674 1549.52 924.359 1549.08 Q922.067 1548.66 919.613 1547.81 L919.613 1543.29 Q921.558 1544.43 923.873 1545.01 Q926.187 1545.58 928.711 1545.58 Q933.109 1545.58 935.4 1543.85 Q937.715 1542.11 937.715 1538.8 Q937.715 1535.75 935.562 1534.03 Q933.433 1532.3 929.613 1532.3 L925.586 1532.3 L925.586 1528.45 L929.799 1528.45 Q933.248 1528.45 935.076 1527.09 Q936.905 1525.7 936.905 1523.11 Q936.905 1520.45 935.007 1519.03 Q933.132 1517.6 929.613 1517.6 Q927.692 1517.6 925.493 1518.01 Q923.294 1518.43 920.655 1519.31 L920.655 1515.14 Q923.317 1514.4 925.632 1514.03 Q927.97 1513.66 930.03 1513.66 Q935.354 1513.66 938.456 1516.09 Q941.558 1518.5 941.558 1522.62 Q941.558 1525.49 939.914 1527.48 Q938.271 1529.45 935.238 1530.21 Z" fill="#000000" fill-rule="nonzero" fill-opacity="1" /><path clip-path="url(#clip070)" d="M1274.14 1518.36 L1262.33 1536.81 L1274.14 1536.81 L1274.14 1518.36 M1272.91 1514.29 L1278.79 1514.29 L1278.79 1536.81 L1283.72 1536.81 L1283.72 1540.7 L1278.79 1540.7 L1278.79 1548.85 L1274.14 1548.85 L1274.14 1540.7 L1258.53 1540.7 L1258.53 1536.19 L1272.91 1514.29 Z" fill="#000000" fill-rule="nonzero" fill-opacity="1" /><path clip-path="url(#clip070)" d="M1601.54 1514.29 L1619.9 1514.29 L1619.9 1518.22 L1605.82 1518.22 L1605.82 1526.7 Q1606.84 1526.35 1607.86 1526.19 Q1608.88 1526 1609.9 1526 Q1615.68 1526 1619.06 1529.17 Q1622.44 1532.34 1622.44 1537.76 Q1622.44 1543.34 1618.97 1546.44 Q1615.5 1549.52 1609.18 1549.52 Q1607 1549.52 1604.73 1549.15 Q1602.49 1548.78 1600.08 1548.04 L1600.08 1543.34 Q1602.16 1544.47 1604.39 1545.03 Q1606.61 1545.58 1609.09 1545.58 Q1613.09 1545.58 1615.43 1543.48 Q1617.77 1541.37 1617.77 1537.76 Q1617.77 1534.15 1615.43 1532.04 Q1613.09 1529.94 1609.09 1529.94 Q1607.21 1529.94 1605.34 1530.35 Q1603.48 1530.77 1601.54 1531.65 L1601.54 1514.29 Z" fill="#000000" fill-rule="nonzero" fill-opacity="1" /><path clip-path="url(#clip070)" d="M1951.8 1529.7 Q1948.65 1529.7 1946.8 1531.86 Q1944.97 1534.01 1944.97 1537.76 Q1944.97 1541.49 1946.8 1543.66 Q1948.65 1545.82 1951.8 1545.82 Q1954.95 1545.82 1956.78 1543.66 Q1958.63 1541.49 1958.63 1537.76 Q1958.63 1534.01 1956.78 1531.86 Q1954.95 1529.7 1951.8 1529.7 M1961.08 1515.05 L1961.08 1519.31 Q1959.32 1518.48 1957.52 1518.04 Q1955.74 1517.6 1953.98 1517.6 Q1949.35 1517.6 1946.89 1520.72 Q1944.46 1523.85 1944.12 1530.17 Q1945.48 1528.15 1947.54 1527.09 Q1949.6 1526 1952.08 1526 Q1957.29 1526 1960.3 1529.17 Q1963.33 1532.32 1963.33 1537.76 Q1963.33 1543.08 1960.18 1546.3 Q1957.03 1549.52 1951.8 1549.52 Q1945.81 1549.52 1942.63 1544.94 Q1939.46 1540.33 1939.46 1531.6 Q1939.46 1523.41 1943.35 1518.55 Q1947.24 1513.66 1953.79 1513.66 Q1955.55 1513.66 1957.33 1514.01 Q1959.14 1514.36 1961.08 1515.05 Z" fill="#000000" fill-rule="nonzero" fill-opacity="1" /><path clip-path="url(#clip070)" d="M2280.42 1514.29 L2302.64 1514.29 L2302.64 1516.28 L2290.1 1548.85 L2285.21 1548.85 L2297.02 1518.22 L2280.42 1518.22 L2280.42 1514.29 Z" fill="#000000" fill-rule="nonzero" fill-opacity="1" /><polyline clip-path="url(#clip072)" style="stroke:#000000; stroke-linecap:round; stroke-linejoin:round; stroke-width:2; stroke-opacity:0.1; fill:none" points="189.496,1328.68 2352.76,1328.68 "/>
<polyline clip-path="url(#clip072)" style="stroke:#000000; stroke-linecap:round; stroke-linejoin:round; stroke-width:2; stroke-opacity:0.1; fill:none" points="189.496,1021.34 2352.76,1021.34 "/>
<polyline clip-path="url(#clip072)" style="stroke:#000000; stroke-linecap:round; stroke-linejoin:round; stroke-width:2; stroke-opacity:0.1; fill:none" points="189.496,714.014 2352.76,714.014 "/>
<polyline clip-path="url(#clip072)" style="stroke:#000000; stroke-linecap:round; stroke-linejoin:round; stroke-width:2; stroke-opacity:0.1; fill:none" points="189.496,406.682 2352.76,406.682 "/>
<polyline clip-path="url(#clip072)" style="stroke:#000000; stroke-linecap:round; stroke-linejoin:round; stroke-width:2; stroke-opacity:0.1; fill:none" points="189.496,99.3514 2352.76,99.3514 "/>
<polyline clip-path="url(#clip070)" style="stroke:#000000; stroke-linecap:round; stroke-linejoin:round; stroke-width:4; stroke-opacity:1; fill:none" points="189.496,1486.45 189.496,47.2441 "/>
<polyline clip-path="url(#clip070)" style="stroke:#000000; stroke-linecap:round; stroke-linejoin:round; stroke-width:4; stroke-opacity:1; fill:none" points="189.496,1328.68 208.394,1328.68 "/>
<polyline clip-path="url(#clip070)" style="stroke:#000000; stroke-linecap:round; stroke-linejoin:round; stroke-width:4; stroke-opacity:1; fill:none" points="189.496,1021.34 208.394,1021.34 "/>
<polyline clip-path="url(#clip070)" style="stroke:#000000; stroke-linecap:round; stroke-linejoin:round; stroke-width:4; stroke-opacity:1; fill:none" points="189.496,714.014 208.394,714.014 "/>
<polyline clip-path="url(#clip070)" style="stroke:#000000; stroke-linecap:round; stroke-linejoin:round; stroke-width:4; stroke-opacity:1; fill:none" points="189.496,406.682 208.394,406.682 "/>
<polyline clip-path="url(#clip070)" style="stroke:#000000; stroke-linecap:round; stroke-linejoin:round; stroke-width:4; stroke-opacity:1; fill:none" points="189.496,99.3514 208.394,99.3514 "/>
<path clip-path="url(#clip070)" d="M51.6634 1348.47 L59.3023 1348.47 L59.3023 1322.1 L50.9921 1323.77 L50.9921 1319.51 L59.256 1317.84 L63.9319 1317.84 L63.9319 1348.47 L71.5707 1348.47 L71.5707 1352.4 L51.6634 1352.4 L51.6634 1348.47 Z" fill="#000000" fill-rule="nonzero" fill-opacity="1" /><path clip-path="url(#clip070)" d="M91.0151 1320.92 Q87.404 1320.92 85.5753 1324.49 Q83.7697 1328.03 83.7697 1335.16 Q83.7697 1342.26 85.5753 1345.83 Q87.404 1349.37 91.0151 1349.37 Q94.6493 1349.37 96.4548 1345.83 Q98.2835 1342.26 98.2835 1335.16 Q98.2835 1328.03 96.4548 1324.49 Q94.6493 1320.92 91.0151 1320.92 M91.0151 1317.22 Q96.8252 1317.22 99.8808 1321.82 Q102.959 1326.41 102.959 1335.16 Q102.959 1343.88 99.8808 1348.49 Q96.8252 1353.07 91.0151 1353.07 Q85.2049 1353.07 82.1262 1348.49 Q79.0707 1343.88 79.0707 1335.16 Q79.0707 1326.41 82.1262 1321.82 Q85.2049 1317.22 91.0151 1317.22 Z" fill="#000000" fill-rule="nonzero" fill-opacity="1" /><path clip-path="url(#clip070)" d="M102.959 1311.32 L127.071 1311.32 L127.071 1314.52 L102.959 1314.52 L102.959 1311.32 Z" fill="#000000" fill-rule="nonzero" fill-opacity="1" /><path clip-path="url(#clip070)" d="M145.71 1300.22 L136.118 1315.21 L145.71 1315.21 L145.71 1300.22 M144.713 1296.91 L149.49 1296.91 L149.49 1315.21 L153.496 1315.21 L153.496 1318.37 L149.49 1318.37 L149.49 1324.99 L145.71 1324.99 L145.71 1318.37 L133.033 1318.37 L133.033 1314.7 L144.713 1296.91 Z" fill="#000000" fill-rule="nonzero" fill-opacity="1" /><path clip-path="url(#clip070)" d="M52.585 1041.14 L60.2238 1041.14 L60.2238 1014.77 L51.9137 1016.44 L51.9137 1012.18 L60.1776 1010.51 L64.8535 1010.51 L64.8535 1041.14 L72.4923 1041.14 L72.4923 1045.07 L52.585 1045.07 L52.585 1041.14 Z" fill="#000000" fill-rule="nonzero" fill-opacity="1" /><path clip-path="url(#clip070)" d="M91.9366 1013.59 Q88.3255 1013.59 86.4969 1017.16 Q84.6913 1020.7 84.6913 1027.83 Q84.6913 1034.93 86.4969 1038.5 Q88.3255 1042.04 91.9366 1042.04 Q95.5709 1042.04 97.3764 1038.5 Q99.2051 1034.93 99.2051 1027.83 Q99.2051 1020.7 97.3764 1017.16 Q95.5709 1013.59 91.9366 1013.59 M91.9366 1009.89 Q97.7468 1009.89 100.802 1014.49 Q103.881 1019.08 103.881 1027.83 Q103.881 1036.55 100.802 1041.16 Q97.7468 1045.74 91.9366 1045.74 Q86.1265 1045.74 83.0478 1041.16 Q79.9923 1036.55 79.9923 1027.83 Q79.9923 1019.08 83.0478 1014.49 Q86.1265 1009.89 91.9366 1009.89 Z" fill="#000000" fill-rule="nonzero" fill-opacity="1" /><path clip-path="url(#clip070)" d="M103.881 1003.99 L127.993 1003.99 L127.993 1007.19 L103.881 1007.19 L103.881 1003.99 Z" fill="#000000" fill-rule="nonzero" fill-opacity="1" /><path clip-path="url(#clip070)" d="M147.703 1002.52 Q150.43 1003.1 151.954 1004.95 Q153.496 1006.79 153.496 1009.5 Q153.496 1013.66 150.637 1015.93 Q147.778 1018.21 142.512 1018.21 Q140.744 1018.21 138.863 1017.85 Q137.002 1017.51 135.008 1016.82 L135.008 1013.15 Q136.588 1014.07 138.469 1014.54 Q140.349 1015.01 142.399 1015.01 Q145.973 1015.01 147.835 1013.6 Q149.716 1012.19 149.716 1009.5 Q149.716 1007.02 147.966 1005.62 Q146.236 1004.21 143.133 1004.21 L139.86 1004.21 L139.86 1001.09 L143.283 1001.09 Q146.086 1001.09 147.571 999.982 Q149.057 998.854 149.057 996.748 Q149.057 994.585 147.515 993.437 Q145.992 992.271 143.133 992.271 Q141.572 992.271 139.785 992.61 Q137.998 992.948 135.854 993.663 L135.854 990.278 Q138.017 989.676 139.898 989.375 Q141.797 989.074 143.471 989.074 Q147.797 989.074 150.317 991.049 Q152.838 993.005 152.838 996.353 Q152.838 998.685 151.502 1000.3 Q150.167 1001.9 147.703 1002.52 Z" fill="#000000" fill-rule="nonzero" fill-opacity="1" /><path clip-path="url(#clip070)" d="M53.3561 733.806 L60.995 733.806 L60.995 707.44 L52.6848 709.107 L52.6848 704.848 L60.9487 703.181 L65.6246 703.181 L65.6246 733.806 L73.2634 733.806 L73.2634 737.741 L53.3561 737.741 L53.3561 733.806 Z" fill="#000000" fill-rule="nonzero" fill-opacity="1" /><path clip-path="url(#clip070)" d="M92.7078 706.26 Q89.0967 706.26 87.268 709.825 Q85.4624 713.366 85.4624 720.496 Q85.4624 727.602 87.268 731.167 Q89.0967 734.709 92.7078 734.709 Q96.342 734.709 98.1475 731.167 Q99.9762 727.602 99.9762 720.496 Q99.9762 713.366 98.1475 709.825 Q96.342 706.26 92.7078 706.26 M92.7078 702.556 Q98.5179 702.556 101.573 707.163 Q104.652 711.746 104.652 720.496 Q104.652 729.223 101.573 733.829 Q98.5179 738.412 92.7078 738.412 Q86.8976 738.412 83.8189 733.829 Q80.7634 729.223 80.7634 720.496 Q80.7634 711.746 83.8189 707.163 Q86.8976 702.556 92.7078 702.556 Z" fill="#000000" fill-rule="nonzero" fill-opacity="1" /><path clip-path="url(#clip070)" d="M104.652 696.657 L128.764 696.657 L128.764 699.855 L104.652 699.855 L104.652 696.657 Z" fill="#000000" fill-rule="nonzero" fill-opacity="1" /><path clip-path="url(#clip070)" d="M140.236 707.133 L153.496 707.133 L153.496 710.331 L135.666 710.331 L135.666 707.133 Q137.829 704.895 141.553 701.134 Q145.296 697.353 146.255 696.263 Q148.079 694.212 148.794 692.802 Q149.527 691.372 149.527 690 Q149.527 687.761 147.948 686.351 Q146.387 684.94 143.866 684.94 Q142.08 684.94 140.086 685.561 Q138.111 686.182 135.854 687.442 L135.854 683.605 Q138.149 682.683 140.142 682.213 Q142.136 681.743 143.791 681.743 Q148.155 681.743 150.75 683.925 Q153.345 686.106 153.345 689.755 Q153.345 691.485 152.687 693.046 Q152.048 694.589 150.336 696.695 Q149.866 697.241 147.346 699.855 Q144.826 702.45 140.236 707.133 Z" fill="#000000" fill-rule="nonzero" fill-opacity="1" /><path clip-path="url(#clip070)" d="M53.0552 426.475 L60.694 426.475 L60.694 400.109 L52.3839 401.776 L52.3839 397.517 L60.6477 395.85 L65.3236 395.85 L65.3236 426.475 L72.9625 426.475 L72.9625 430.41 L53.0552 430.41 L53.0552 426.475 Z" fill="#000000" fill-rule="nonzero" fill-opacity="1" /><path clip-path="url(#clip070)" d="M92.4068 398.929 Q88.7957 398.929 86.967 402.494 Q85.1615 406.035 85.1615 413.165 Q85.1615 420.271 86.967 423.836 Q88.7957 427.378 92.4068 427.378 Q96.0411 427.378 97.8466 423.836 Q99.6753 420.271 99.6753 413.165 Q99.6753 406.035 97.8466 402.494 Q96.0411 398.929 92.4068 398.929 M92.4068 395.225 Q98.217 395.225 101.273 399.832 Q104.351 404.415 104.351 413.165 Q104.351 421.892 101.273 426.498 Q98.217 431.081 92.4068 431.081 Q86.5967 431.081 83.518 426.498 Q80.4625 421.892 80.4625 413.165 Q80.4625 404.415 83.518 399.832 Q86.5967 395.225 92.4068 395.225 Z" fill="#000000" fill-rule="nonzero" fill-opacity="1" /><path clip-path="url(#clip070)" d="M104.351 389.326 L128.463 389.326 L128.463 392.524 L104.351 392.524 L104.351 389.326 Z" fill="#000000" fill-rule="nonzero" fill-opacity="1" /><path clip-path="url(#clip070)" d="M137.321 399.802 L143.528 399.802 L143.528 378.38 L136.776 379.734 L136.776 376.274 L143.49 374.92 L147.289 374.92 L147.289 399.802 L153.496 399.802 L153.496 403 L137.321 403 L137.321 399.802 Z" fill="#000000" fill-rule="nonzero" fill-opacity="1" /><path clip-path="url(#clip070)" d="M82.7903 119.144 L90.4291 119.144 L90.4291 92.7782 L82.119 94.4449 L82.119 90.1857 L90.3828 88.519 L95.0587 88.519 L95.0587 119.144 L102.698 119.144 L102.698 123.079 L82.7903 123.079 L82.7903 119.144 Z" fill="#000000" fill-rule="nonzero" fill-opacity="1" /><path clip-path="url(#clip070)" d="M122.142 91.5977 Q118.531 91.5977 116.702 95.1625 Q114.897 98.7041 114.897 105.834 Q114.897 112.94 116.702 116.505 Q118.531 120.047 122.142 120.047 Q125.776 120.047 127.582 116.505 Q129.41 112.94 129.41 105.834 Q129.41 98.7041 127.582 95.1625 Q125.776 91.5977 122.142 91.5977 M122.142 87.894 Q127.952 87.894 131.008 92.5005 Q134.086 97.0838 134.086 105.834 Q134.086 114.561 131.008 119.167 Q127.952 123.75 122.142 123.75 Q116.332 123.75 113.253 119.167 Q110.198 114.561 110.198 105.834 Q110.198 97.0838 113.253 92.5005 Q116.332 87.894 122.142 87.894 Z" fill="#000000" fill-rule="nonzero" fill-opacity="1" /><path clip-path="url(#clip070)" d="M143.791 70.09 Q140.857 70.09 139.371 72.9864 Q137.904 75.864 137.904 81.6568 Q137.904 87.4308 139.371 90.3272 Q140.857 93.2048 143.791 93.2048 Q146.744 93.2048 148.211 90.3272 Q149.697 87.4308 149.697 81.6568 Q149.697 75.864 148.211 72.9864 Q146.744 70.09 143.791 70.09 M143.791 67.0808 Q148.512 67.0808 150.994 70.8235 Q153.496 74.5475 153.496 81.6568 Q153.496 88.7474 150.994 92.4901 Q148.512 96.214 143.791 96.214 Q139.07 96.214 136.569 92.4901 Q134.086 88.7474 134.086 81.6568 Q134.086 74.5475 136.569 70.8235 Q139.07 67.0808 143.791 67.0808 Z" fill="#000000" fill-rule="nonzero" fill-opacity="1" /><polyline clip-path="url(#clip072)" style="stroke:#009af9; stroke-linecap:round; stroke-linejoin:round; stroke-width:4; stroke-opacity:1; fill:none" points="250.72,87.9763 590.855,339.929 930.991,666.612 1271.13,775.182 1611.26,880.064 1951.4,1208.86 2291.53,1445.72 "/>
<line clip-path="url(#clip072)" x1="250.72" y1="87.9763" x2="234.72" y2="71.9763" style="stroke:#009af9; stroke-width:4; stroke-opacity:1"/>
<line clip-path="url(#clip072)" x1="250.72" y1="87.9763" x2="234.72" y2="103.976" style="stroke:#009af9; stroke-width:4; stroke-opacity:1"/>
<line clip-path="url(#clip072)" x1="250.72" y1="87.9763" x2="266.72" y2="103.976" style="stroke:#009af9; stroke-width:4; stroke-opacity:1"/>
<line clip-path="url(#clip072)" x1="250.72" y1="87.9763" x2="266.72" y2="71.9763" style="stroke:#009af9; stroke-width:4; stroke-opacity:1"/>
<line clip-path="url(#clip072)" x1="590.855" y1="339.929" x2="574.855" y2="323.929" style="stroke:#009af9; stroke-width:4; stroke-opacity:1"/>
<line clip-path="url(#clip072)" x1="590.855" y1="339.929" x2="574.855" y2="355.929" style="stroke:#009af9; stroke-width:4; stroke-opacity:1"/>
<line clip-path="url(#clip072)" x1="590.855" y1="339.929" x2="606.855" y2="355.929" style="stroke:#009af9; stroke-width:4; stroke-opacity:1"/>
<line clip-path="url(#clip072)" x1="590.855" y1="339.929" x2="606.855" y2="323.929" style="stroke:#009af9; stroke-width:4; stroke-opacity:1"/>
<line clip-path="url(#clip072)" x1="930.991" y1="666.612" x2="914.991" y2="650.612" style="stroke:#009af9; stroke-width:4; stroke-opacity:1"/>
<line clip-path="url(#clip072)" x1="930.991" y1="666.612" x2="914.991" y2="682.612" style="stroke:#009af9; stroke-width:4; stroke-opacity:1"/>
<line clip-path="url(#clip072)" x1="930.991" y1="666.612" x2="946.991" y2="682.612" style="stroke:#009af9; stroke-width:4; stroke-opacity:1"/>
<line clip-path="url(#clip072)" x1="930.991" y1="666.612" x2="946.991" y2="650.612" style="stroke:#009af9; stroke-width:4; stroke-opacity:1"/>
<line clip-path="url(#clip072)" x1="1271.13" y1="775.182" x2="1255.13" y2="759.182" style="stroke:#009af9; stroke-width:4; stroke-opacity:1"/>
<line clip-path="url(#clip072)" x1="1271.13" y1="775.182" x2="1255.13" y2="791.182" style="stroke:#009af9; stroke-width:4; stroke-opacity:1"/>
<line clip-path="url(#clip072)" x1="1271.13" y1="775.182" x2="1287.13" y2="791.182" style="stroke:#009af9; stroke-width:4; stroke-opacity:1"/>
<line clip-path="url(#clip072)" x1="1271.13" y1="775.182" x2="1287.13" y2="759.182" style="stroke:#009af9; stroke-width:4; stroke-opacity:1"/>
<line clip-path="url(#clip072)" x1="1611.26" y1="880.064" x2="1595.26" y2="864.064" style="stroke:#009af9; stroke-width:4; stroke-opacity:1"/>
<line clip-path="url(#clip072)" x1="1611.26" y1="880.064" x2="1595.26" y2="896.064" style="stroke:#009af9; stroke-width:4; stroke-opacity:1"/>
<line clip-path="url(#clip072)" x1="1611.26" y1="880.064" x2="1627.26" y2="896.064" style="stroke:#009af9; stroke-width:4; stroke-opacity:1"/>
<line clip-path="url(#clip072)" x1="1611.26" y1="880.064" x2="1627.26" y2="864.064" style="stroke:#009af9; stroke-width:4; stroke-opacity:1"/>
<line clip-path="url(#clip072)" x1="1951.4" y1="1208.86" x2="1935.4" y2="1192.86" style="stroke:#009af9; stroke-width:4; stroke-opacity:1"/>
<line clip-path="url(#clip072)" x1="1951.4" y1="1208.86" x2="1935.4" y2="1224.86" style="stroke:#009af9; stroke-width:4; stroke-opacity:1"/>
<line clip-path="url(#clip072)" x1="1951.4" y1="1208.86" x2="1967.4" y2="1224.86" style="stroke:#009af9; stroke-width:4; stroke-opacity:1"/>
<line clip-path="url(#clip072)" x1="1951.4" y1="1208.86" x2="1967.4" y2="1192.86" style="stroke:#009af9; stroke-width:4; stroke-opacity:1"/>
<line clip-path="url(#clip072)" x1="2291.53" y1="1445.72" x2="2275.53" y2="1429.72" style="stroke:#009af9; stroke-width:4; stroke-opacity:1"/>
<line clip-path="url(#clip072)" x1="2291.53" y1="1445.72" x2="2275.53" y2="1461.72" style="stroke:#009af9; stroke-width:4; stroke-opacity:1"/>
<line clip-path="url(#clip072)" x1="2291.53" y1="1445.72" x2="2307.53" y2="1461.72" style="stroke:#009af9; stroke-width:4; stroke-opacity:1"/>
<line clip-path="url(#clip072)" x1="2291.53" y1="1445.72" x2="2307.53" y2="1429.72" style="stroke:#009af9; stroke-width:4; stroke-opacity:1"/>
<path clip-path="url(#clip070)" d="M1816.13 198.898 L2280.65 198.898 L2280.65 95.2176 L1816.13 95.2176  Z" fill="#ffffff" fill-rule="evenodd" fill-opacity="1"/>
<polyline clip-path="url(#clip070)" style="stroke:#000000; stroke-linecap:round; stroke-linejoin:round; stroke-width:4; stroke-opacity:1; fill:none" points="1816.13,198.898 2280.65,198.898 2280.65,95.2176 1816.13,95.2176 1816.13,198.898 "/>
<polyline clip-path="url(#clip070)" style="stroke:#009af9; stroke-linecap:round; stroke-linejoin:round; stroke-width:4; stroke-opacity:1; fill:none" points="1840.16,147.058 1984.38,147.058 "/>
<line clip-path="url(#clip070)" x1="1912.27" y1="147.058" x2="1890.02" y2="124.802" style="stroke:#009af9; stroke-width:4.55111; stroke-opacity:1"/>
<line clip-path="url(#clip070)" x1="1912.27" y1="147.058" x2="1890.02" y2="169.313" style="stroke:#009af9; stroke-width:4.55111; stroke-opacity:1"/>
<line clip-path="url(#clip070)" x1="1912.27" y1="147.058" x2="1934.53" y2="169.313" style="stroke:#009af9; stroke-width:4.55111; stroke-opacity:1"/>
<line clip-path="url(#clip070)" x1="1912.27" y1="147.058" x2="1934.53" y2="124.802" style="stroke:#009af9; stroke-width:4.55111; stroke-opacity:1"/>
<path clip-path="url(#clip070)" d="M2012.35 128.111 L2012.35 175.518 L2008.42 175.518 L2008.42 128.111 L2012.35 128.111 Z" fill="#000000" fill-rule="nonzero" fill-opacity="1" /><path clip-path="url(#clip070)" d="M2024.76 143.041 Q2026.17 140.68 2029.67 138.597 Q2031.03 137.787 2035.25 137.787 Q2039.97 137.787 2042.91 141.537 Q2045.87 145.287 2045.87 151.398 Q2045.87 157.509 2042.91 161.259 Q2039.97 165.009 2035.25 165.009 Q2032.4 165.009 2030.34 163.898 Q2028.3 162.763 2026.96 160.449 L2026.96 174.199 L2022.68 174.199 L2022.68 151.629 Q2022.68 146.282 2024.76 143.041 M2041.45 151.398 Q2041.45 146.699 2039.51 144.037 Q2037.58 141.352 2034.2 141.352 Q2030.83 141.352 2028.88 144.037 Q2026.96 146.699 2026.96 151.398 Q2026.96 156.097 2028.88 158.782 Q2030.83 161.444 2034.2 161.444 Q2037.58 161.444 2039.51 158.782 Q2041.45 156.097 2041.45 151.398 Z" fill="#000000" fill-rule="nonzero" fill-opacity="1" /><path clip-path="url(#clip070)" d="M2062.98 141.398 Q2059.55 141.398 2057.56 144.083 Q2055.57 146.745 2055.57 151.398 Q2055.57 156.051 2057.54 158.736 Q2059.53 161.398 2062.98 161.398 Q2066.38 161.398 2068.37 158.713 Q2070.36 156.027 2070.36 151.398 Q2070.36 146.791 2068.37 144.106 Q2066.38 141.398 2062.98 141.398 M2062.98 137.787 Q2068.53 137.787 2071.7 141.398 Q2074.88 145.009 2074.88 151.398 Q2074.88 157.764 2071.7 161.398 Q2068.53 165.009 2062.98 165.009 Q2057.4 165.009 2054.23 161.398 Q2051.08 157.764 2051.08 151.398 Q2051.08 145.009 2054.23 141.398 Q2057.4 137.787 2062.98 137.787 Z" fill="#000000" fill-rule="nonzero" fill-opacity="1" /><path clip-path="url(#clip070)" d="M2081.5 154.106 L2081.5 138.412 L2085.76 138.412 L2085.76 153.944 Q2085.76 157.625 2087.19 159.476 Q2088.63 161.305 2091.5 161.305 Q2094.95 161.305 2096.94 159.106 Q2098.95 156.907 2098.95 153.111 L2098.95 138.412 L2103.21 138.412 L2103.21 164.338 L2098.95 164.338 L2098.95 160.356 Q2097.4 162.717 2095.34 163.875 Q2093.3 165.009 2090.59 165.009 Q2086.13 165.009 2083.81 162.231 Q2081.5 159.453 2081.5 154.106 M2092.21 137.787 L2092.21 137.787 Z" fill="#000000" fill-rule="nonzero" fill-opacity="1" /><path clip-path="url(#clip070)" d="M2116.2 131.051 L2116.2 138.412 L2124.97 138.412 L2124.97 141.722 L2116.2 141.722 L2116.2 155.796 Q2116.2 158.967 2117.05 159.87 Q2117.93 160.773 2120.59 160.773 L2124.97 160.773 L2124.97 164.338 L2120.59 164.338 Q2115.66 164.338 2113.79 162.509 Q2111.91 160.657 2111.91 155.796 L2111.91 141.722 L2108.79 141.722 L2108.79 138.412 L2111.91 138.412 L2111.91 131.051 L2116.2 131.051 Z" fill="#000000" fill-rule="nonzero" fill-opacity="1" /><path clip-path="url(#clip070)" d="M2143.49 149.453 L2155.96 149.453 L2155.96 153.25 L2143.49 153.25 L2143.49 149.453 Z" fill="#000000" fill-rule="nonzero" fill-opacity="1" /><path clip-path="url(#clip070)" d="M2179.74 143.041 Q2181.15 140.68 2184.64 138.597 Q2186.01 137.787 2190.22 137.787 Q2194.94 137.787 2197.88 141.537 Q2200.85 145.287 2200.85 151.398 Q2200.85 157.509 2197.88 161.259 Q2194.94 165.009 2190.22 165.009 Q2187.38 165.009 2185.32 163.898 Q2183.28 162.763 2181.94 160.449 L2181.94 174.199 L2177.65 174.199 L2177.65 151.629 Q2177.65 146.282 2179.74 143.041 M2196.43 151.398 Q2196.43 146.699 2194.48 144.037 Q2192.56 141.352 2189.18 141.352 Q2185.8 141.352 2183.86 144.037 Q2181.94 146.699 2181.94 151.398 Q2181.94 156.097 2183.86 158.782 Q2185.8 161.444 2189.18 161.444 Q2192.56 161.444 2194.48 158.782 Q2196.43 156.097 2196.43 151.398 Z" fill="#000000" fill-rule="nonzero" fill-opacity="1" /><path clip-path="url(#clip070)" d="M2207.91 138.412 L2212.17 138.412 L2212.17 164.338 L2207.91 164.338 L2207.91 138.412 M2207.91 128.319 L2212.17 128.319 L2212.17 133.713 L2207.91 133.713 L2207.91 128.319 Z" fill="#000000" fill-rule="nonzero" fill-opacity="1" /><path clip-path="url(#clip070)" d="M2242.63 148.689 L2242.63 164.338 L2238.37 164.338 L2238.37 148.828 Q2238.37 145.148 2236.94 143.319 Q2235.5 141.49 2232.63 141.49 Q2229.18 141.49 2227.19 143.69 Q2225.2 145.889 2225.2 149.685 L2225.2 164.338 L2220.92 164.338 L2220.92 138.412 L2225.2 138.412 L2225.2 142.44 Q2226.73 140.102 2228.79 138.944 Q2230.87 137.787 2233.58 137.787 Q2238.05 137.787 2240.34 140.565 Q2242.63 143.319 2242.63 148.689 Z" fill="#000000" fill-rule="nonzero" fill-opacity="1" /><path clip-path="url(#clip070)" d="M2256.61 128.111 L2256.61 175.518 L2252.68 175.518 L2252.68 128.111 L2256.61 128.111 Z" fill="#000000" fill-rule="nonzero" fill-opacity="1" /></svg>
