<?xml version="1.0" encoding="utf-8"?>
<svg xmlns="http://www.w3.org/2000/svg" xmlns:xlink="http://www.w3.org/1999/xlink" width="600" height="400" viewBox="0 0 2400 1600">
<defs>
  <clipPath id="clip540">
    <rect x="0" y="0" width="2400" height="1600"/>
  </clipPath>
</defs>
<path clip-path="url(#clip540)" d="M0 1600 L2400 1600 L2400 0 L0 0  Z" fill="#ffffff" fill-rule="evenodd" fill-opacity="1"/>
<defs>
  <clipPath id="clip541">
    <rect x="480" y="0" width="1681" height="1600"/>
  </clipPath>
</defs>
<path clip-path="url(#clip540)" d="M279.704 1423.18 L2352.76 1423.18 L2352.76 47.2441 L279.704 47.2441  Z" fill="#ffffff" fill-rule="evenodd" fill-opacity="1"/>
<defs>
  <clipPath id="clip542">
    <rect x="279" y="47" width="2074" height="1377"/>
  </clipPath>
</defs>
<polyline clip-path="url(#clip542)" style="stroke:#000000; stroke-linecap:round; stroke-linejoin:round; stroke-width:2; stroke-opacity:0.1; fill:none" points="338.375,1423.18 338.375,47.2441 "/>
<polyline clip-path="url(#clip542)" style="stroke:#000000; stroke-linecap:round; stroke-linejoin:round; stroke-width:2; stroke-opacity:0.1; fill:none" points="750.103,1423.18 750.103,47.2441 "/>
<polyline clip-path="url(#clip542)" style="stroke:#000000; stroke-linecap:round; stroke-linejoin:round; stroke-width:2; stroke-opacity:0.1; fill:none" points="1161.83,1423.18 1161.83,47.2441 "/>
<polyline clip-path="url(#clip542)" style="stroke:#000000; stroke-linecap:round; stroke-linejoin:round; stroke-width:2; stroke-opacity:0.1; fill:none" points="1573.56,1423.18 1573.56,47.2441 "/>
<polyline clip-path="url(#clip542)" style="stroke:#000000; stroke-linecap:round; stroke-linejoin:round; stroke-width:2; stroke-opacity:0.1; fill:none" points="1985.29,1423.18 1985.29,47.2441 "/>
<polyline clip-path="url(#clip542)" style="stroke:#000000; stroke-linecap:round; stroke-linejoin:round; stroke-width:2; stroke-opacity:0.1; fill:none" points="279.704,1370.5 2352.76,1370.5 "/>
<polyline clip-path="url(#clip542)" style="stroke:#000000; stroke-linecap:round; stroke-linejoin:round; stroke-width:2; stroke-opacity:0.1; fill:none" points="279.704,1162.89 2352.76,1162.89 "/>
<polyline clip-path="url(#clip542)" style="stroke:#000000; stroke-linecap:round; stroke-linejoin:round; stroke-width:2; stroke-opacity:0.1; fill:none" points="279.704,955.288 2352.76,955.288 "/>
<polyline clip-path="url(#clip542)" style="stroke:#000000; stroke-linecap:round; stroke-linejoin:round; stroke-width:2; stroke-opacity:0.1; fill:none" points="279.704,747.682 2352.76,747.682 "/>
<polyline clip-path="url(#clip542)" style="stroke:#000000; stroke-linecap:round; stroke-linejoin:round; stroke-width:2; stroke-opacity:0.1; fill:none" points="279.704,540.076 2352.76,540.076 "/>
<polyline clip-path="url(#clip542)" style="stroke:#000000; stroke-linecap:round; stroke-linejoin:round; stroke-width:2; stroke-opacity:0.1; fill:none" points="279.704,332.47 2352.76,332.47 "/>
<polyline clip-path="url(#clip542)" style="stroke:#000000; stroke-linecap:round; stroke-linejoin:round; stroke-width:2; stroke-opacity:0.1; fill:none" points="279.704,124.864 2352.76,124.864 "/>
<polyline clip-path="url(#clip540)" style="stroke:#000000; stroke-linecap:round; stroke-linejoin:round; stroke-width:4; stroke-opacity:1; fill:none" points="279.704,1423.18 2352.76,1423.18 "/>
<polyline clip-path="url(#clip540)" style="stroke:#000000; stroke-linecap:round; stroke-linejoin:round; stroke-width:4; stroke-opacity:1; fill:none" points="338.375,1423.18 338.375,1404.28 "/>
<polyline clip-path="url(#clip540)" style="stroke:#000000; stroke-linecap:round; stroke-linejoin:round; stroke-width:4; stroke-opacity:1; fill:none" points="750.103,1423.18 750.103,1404.28 "/>
<polyline clip-path="url(#clip540)" style="stroke:#000000; stroke-linecap:round; stroke-linejoin:round; stroke-width:4; stroke-opacity:1; fill:none" points="1161.83,1423.18 1161.83,1404.28 "/>
<polyline clip-path="url(#clip540)" style="stroke:#000000; stroke-linecap:round; stroke-linejoin:round; stroke-width:4; stroke-opacity:1; fill:none" points="1573.56,1423.18 1573.56,1404.28 "/>
<polyline clip-path="url(#clip540)" style="stroke:#000000; stroke-linecap:round; stroke-linejoin:round; stroke-width:4; stroke-opacity:1; fill:none" points="1985.29,1423.18 1985.29,1404.28 "/>
<path clip-path="url(#clip540)" d="M315.76 1454.1 Q312.148 1454.1 310.32 1457.66 Q308.514 1461.2 308.514 1468.33 Q308.514 1475.44 310.32 1479.01 Q312.148 1482.55 315.76 1482.55 Q319.394 1482.55 321.199 1479.01 Q323.028 1475.44 323.028 1468.33 Q323.028 1461.2 321.199 1457.66 Q319.394 1454.1 315.76 1454.1 M315.76 1450.39 Q321.57 1450.39 324.625 1455 Q327.704 1459.58 327.704 1468.33 Q327.704 1477.06 324.625 1481.67 Q321.57 1486.25 315.76 1486.25 Q309.949 1486.25 306.871 1481.67 Q303.815 1477.06 303.815 1468.33 Q303.815 1459.58 306.871 1455 Q309.949 1450.39 315.76 1450.39 Z" fill="#000000" fill-rule="nonzero" fill-opacity="1" /><path clip-path="url(#clip540)" d="M335.922 1479.7 L340.806 1479.7 L340.806 1485.58 L335.922 1485.58 L335.922 1479.7 Z" fill="#000000" fill-rule="nonzero" fill-opacity="1" /><path clip-path="url(#clip540)" d="M360.991 1454.1 Q357.38 1454.1 355.551 1457.66 Q353.745 1461.2 353.745 1468.33 Q353.745 1475.44 355.551 1479.01 Q357.38 1482.55 360.991 1482.55 Q364.625 1482.55 366.431 1479.01 Q368.259 1475.44 368.259 1468.33 Q368.259 1461.2 366.431 1457.66 Q364.625 1454.1 360.991 1454.1 M360.991 1450.39 Q366.801 1450.39 369.857 1455 Q372.935 1459.58 372.935 1468.33 Q372.935 1477.06 369.857 1481.67 Q366.801 1486.25 360.991 1486.25 Q355.181 1486.25 352.102 1481.67 Q349.046 1477.06 349.046 1468.33 Q349.046 1459.58 352.102 1455 Q355.181 1450.39 360.991 1450.39 Z" fill="#000000" fill-rule="nonzero" fill-opacity="1" /><path clip-path="url(#clip540)" d="M728.286 1454.1 Q724.675 1454.1 722.847 1457.66 Q721.041 1461.2 721.041 1468.33 Q721.041 1475.44 722.847 1479.01 Q724.675 1482.55 728.286 1482.55 Q731.921 1482.55 733.726 1479.01 Q735.555 1475.44 735.555 1468.33 Q735.555 1461.2 733.726 1457.66 Q731.921 1454.1 728.286 1454.1 M728.286 1450.39 Q734.097 1450.39 737.152 1455 Q740.231 1459.58 740.231 1468.33 Q740.231 1477.06 737.152 1481.67 Q734.097 1486.25 728.286 1486.25 Q722.476 1486.25 719.398 1481.67 Q716.342 1477.06 716.342 1468.33 Q716.342 1459.58 719.398 1455 Q722.476 1450.39 728.286 1450.39 Z" fill="#000000" fill-rule="nonzero" fill-opacity="1" /><path clip-path="url(#clip540)" d="M748.448 1479.7 L753.333 1479.7 L753.333 1485.58 L748.448 1485.58 L748.448 1479.7 Z" fill="#000000" fill-rule="nonzero" fill-opacity="1" /><path clip-path="url(#clip540)" d="M767.546 1481.64 L783.865 1481.64 L783.865 1485.58 L761.921 1485.58 L761.921 1481.64 Q764.583 1478.89 769.166 1474.26 Q773.772 1469.61 774.953 1468.27 Q777.198 1465.74 778.078 1464.01 Q778.981 1462.25 778.981 1460.56 Q778.981 1457.8 777.036 1456.07 Q775.115 1454.33 772.013 1454.33 Q769.814 1454.33 767.36 1455.09 Q764.93 1455.86 762.152 1457.41 L762.152 1452.69 Q764.976 1451.55 767.43 1450.97 Q769.883 1450.39 771.921 1450.39 Q777.291 1450.39 780.485 1453.08 Q783.68 1455.77 783.68 1460.26 Q783.68 1462.39 782.87 1464.31 Q782.082 1466.2 779.976 1468.8 Q779.397 1469.47 776.295 1472.69 Q773.194 1475.88 767.546 1481.64 Z" fill="#000000" fill-rule="nonzero" fill-opacity="1" /><path clip-path="url(#clip540)" d="M1138.97 1454.1 Q1135.36 1454.1 1133.53 1457.66 Q1131.73 1461.2 1131.73 1468.33 Q1131.73 1475.44 1133.53 1479.01 Q1135.36 1482.55 1138.97 1482.55 Q1142.61 1482.55 1144.41 1479.01 Q1146.24 1475.44 1146.24 1468.33 Q1146.24 1461.2 1144.41 1457.66 Q1142.61 1454.1 1138.97 1454.1 M1138.97 1450.39 Q1144.78 1450.39 1147.84 1455 Q1150.92 1459.58 1150.92 1468.33 Q1150.92 1477.06 1147.84 1481.67 Q1144.78 1486.25 1138.97 1486.25 Q1133.16 1486.25 1130.08 1481.67 Q1127.03 1477.06 1127.03 1468.33 Q1127.03 1459.58 1130.08 1455 Q1133.16 1450.39 1138.97 1450.39 Z" fill="#000000" fill-rule="nonzero" fill-opacity="1" /><path clip-path="url(#clip540)" d="M1159.14 1479.7 L1164.02 1479.7 L1164.02 1485.58 L1159.14 1485.58 L1159.14 1479.7 Z" fill="#000000" fill-rule="nonzero" fill-opacity="1" /><path clip-path="url(#clip540)" d="M1187.05 1455.09 L1175.25 1473.54 L1187.05 1473.54 L1187.05 1455.09 M1185.82 1451.02 L1191.7 1451.02 L1191.7 1473.54 L1196.63 1473.54 L1196.63 1477.43 L1191.7 1477.43 L1191.7 1485.58 L1187.05 1485.58 L1187.05 1477.43 L1171.45 1477.43 L1171.45 1472.92 L1185.82 1451.02 Z" fill="#000000" fill-rule="nonzero" fill-opacity="1" /><path clip-path="url(#clip540)" d="M1550.86 1454.1 Q1547.25 1454.1 1545.42 1457.66 Q1543.62 1461.2 1543.62 1468.33 Q1543.62 1475.44 1545.42 1479.01 Q1547.25 1482.55 1550.86 1482.55 Q1554.5 1482.55 1556.3 1479.01 Q1558.13 1475.44 1558.13 1468.33 Q1558.13 1461.2 1556.3 1457.66 Q1554.5 1454.1 1550.86 1454.1 M1550.86 1450.39 Q1556.67 1450.39 1559.73 1455 Q1562.81 1459.58 1562.81 1468.33 Q1562.81 1477.06 1559.73 1481.67 Q1556.67 1486.25 1550.86 1486.25 Q1545.05 1486.25 1541.97 1481.67 Q1538.92 1477.06 1538.92 1468.33 Q1538.92 1459.58 1541.97 1455 Q1545.05 1450.39 1550.86 1450.39 Z" fill="#000000" fill-rule="nonzero" fill-opacity="1" /><path clip-path="url(#clip540)" d="M1571.03 1479.7 L1575.91 1479.7 L1575.91 1485.58 L1571.03 1485.58 L1571.03 1479.7 Z" fill="#000000" fill-rule="nonzero" fill-opacity="1" /><path clip-path="url(#clip540)" d="M1596.67 1466.44 Q1593.53 1466.44 1591.67 1468.59 Q1589.84 1470.74 1589.84 1474.49 Q1589.84 1478.22 1591.67 1480.39 Q1593.53 1482.55 1596.67 1482.55 Q1599.82 1482.55 1601.65 1480.39 Q1603.5 1478.22 1603.5 1474.49 Q1603.5 1470.74 1601.65 1468.59 Q1599.82 1466.44 1596.67 1466.44 M1605.96 1451.78 L1605.96 1456.04 Q1604.2 1455.21 1602.39 1454.77 Q1600.61 1454.33 1598.85 1454.33 Q1594.22 1454.33 1591.77 1457.45 Q1589.34 1460.58 1588.99 1466.9 Q1590.35 1464.89 1592.41 1463.82 Q1594.47 1462.73 1596.95 1462.73 Q1602.16 1462.73 1605.17 1465.9 Q1608.2 1469.05 1608.2 1474.49 Q1608.2 1479.82 1605.05 1483.03 Q1601.9 1486.25 1596.67 1486.25 Q1590.68 1486.25 1587.51 1481.67 Q1584.34 1477.06 1584.34 1468.33 Q1584.34 1460.14 1588.22 1455.28 Q1592.11 1450.39 1598.66 1450.39 Q1600.42 1450.39 1602.21 1450.74 Q1604.01 1451.09 1605.96 1451.78 Z" fill="#000000" fill-rule="nonzero" fill-opacity="1" /><path clip-path="url(#clip540)" d="M1962.72 1454.1 Q1959.11 1454.1 1957.28 1457.66 Q1955.47 1461.2 1955.47 1468.33 Q1955.47 1475.44 1957.28 1479.01 Q1959.11 1482.55 1962.72 1482.55 Q1966.35 1482.55 1968.16 1479.01 Q1969.99 1475.44 1969.99 1468.33 Q1969.99 1461.2 1968.16 1457.66 Q1966.35 1454.1 1962.72 1454.1 M1962.72 1450.39 Q1968.53 1450.39 1971.58 1455 Q1974.66 1459.58 1974.66 1468.33 Q1974.66 1477.06 1971.58 1481.67 Q1968.53 1486.25 1962.72 1486.25 Q1956.91 1486.25 1953.83 1481.67 Q1950.77 1477.06 1950.77 1468.33 Q1950.77 1459.58 1953.83 1455 Q1956.91 1450.39 1962.72 1450.39 Z" fill="#000000" fill-rule="nonzero" fill-opacity="1" /><path clip-path="url(#clip540)" d="M1982.88 1479.7 L1987.77 1479.7 L1987.77 1485.58 L1982.88 1485.58 L1982.88 1479.7 Z" fill="#000000" fill-rule="nonzero" fill-opacity="1" /><path clip-path="url(#clip540)" d="M2007.95 1469.17 Q2004.62 1469.17 2002.7 1470.95 Q2000.8 1472.73 2000.8 1475.86 Q2000.8 1478.98 2002.7 1480.77 Q2004.62 1482.55 2007.95 1482.55 Q2011.28 1482.55 2013.2 1480.77 Q2015.13 1478.96 2015.13 1475.86 Q2015.13 1472.73 2013.2 1470.95 Q2011.31 1469.17 2007.95 1469.17 M2003.27 1467.18 Q2000.27 1466.44 1998.58 1464.38 Q1996.91 1462.32 1996.91 1459.35 Q1996.91 1455.21 1999.85 1452.8 Q2002.81 1450.39 2007.95 1450.39 Q2013.11 1450.39 2016.05 1452.8 Q2018.99 1455.21 2018.99 1459.35 Q2018.99 1462.32 2017.3 1464.38 Q2015.64 1466.44 2012.65 1467.18 Q2016.03 1467.96 2017.9 1470.26 Q2019.8 1472.55 2019.8 1475.86 Q2019.8 1480.88 2016.72 1483.57 Q2013.67 1486.25 2007.95 1486.25 Q2002.23 1486.25 1999.15 1483.57 Q1996.1 1480.88 1996.1 1475.86 Q1996.1 1472.55 1998 1470.26 Q1999.89 1467.96 2003.27 1467.18 M2001.56 1459.79 Q2001.56 1462.48 2003.23 1463.98 Q2004.92 1465.49 2007.95 1465.49 Q2010.96 1465.49 2012.65 1463.98 Q2014.36 1462.48 2014.36 1459.79 Q2014.36 1457.11 2012.65 1455.6 Q2010.96 1454.1 2007.95 1454.1 Q2004.92 1454.1 2003.23 1455.6 Q2001.56 1457.11 2001.56 1459.79 Z" fill="#000000" fill-rule="nonzero" fill-opacity="1" /><path clip-path="url(#clip540)" d="M1332.84 1532.4 L1319.95 1549.74 L1333.51 1568.04 L1326.61 1568.04 L1316.23 1554.04 L1305.85 1568.04 L1298.95 1568.04 L1312.79 1549.39 L1300.12 1532.4 L1307.03 1532.4 L1316.48 1545.1 L1325.94 1532.4 L1332.84 1532.4 Z" fill="#000000" fill-rule="nonzero" fill-opacity="1" /><polyline clip-path="url(#clip540)" style="stroke:#000000; stroke-linecap:round; stroke-linejoin:round; stroke-width:4; stroke-opacity:1; fill:none" points="279.704,1423.18 279.704,47.2441 "/>
<polyline clip-path="url(#clip540)" style="stroke:#000000; stroke-linecap:round; stroke-linejoin:round; stroke-width:4; stroke-opacity:1; fill:none" points="279.704,1370.5 298.602,1370.5 "/>
<polyline clip-path="url(#clip540)" style="stroke:#000000; stroke-linecap:round; stroke-linejoin:round; stroke-width:4; stroke-opacity:1; fill:none" points="279.704,1162.89 298.602,1162.89 "/>
<polyline clip-path="url(#clip540)" style="stroke:#000000; stroke-linecap:round; stroke-linejoin:round; stroke-width:4; stroke-opacity:1; fill:none" points="279.704,955.288 298.602,955.288 "/>
<polyline clip-path="url(#clip540)" style="stroke:#000000; stroke-linecap:round; stroke-linejoin:round; stroke-width:4; stroke-opacity:1; fill:none" points="279.704,747.682 298.602,747.682 "/>
<polyline clip-path="url(#clip540)" style="stroke:#000000; stroke-linecap:round; stroke-linejoin:round; stroke-width:4; stroke-opacity:1; fill:none" points="279.704,540.076 298.602,540.076 "/>
<polyline clip-path="url(#clip540)" style="stroke:#000000; stroke-linecap:round; stroke-linejoin:round; stroke-width:4; stroke-opacity:1; fill:none" points="279.704,332.47 298.602,332.47 "/>
<polyline clip-path="url(#clip540)" style="stroke:#000000; stroke-linecap:round; stroke-linejoin:round; stroke-width:4; stroke-opacity:1; fill:none" points="279.704,124.864 298.602,124.864 "/>
<path clip-path="url(#clip540)" d="M127.2 1356.3 Q123.589 1356.3 121.76 1359.86 Q119.955 1363.4 119.955 1370.53 Q119.955 1377.64 121.76 1381.21 Q123.589 1384.75 127.2 1384.75 Q130.834 1384.75 132.64 1381.21 Q134.468 1377.64 134.468 1370.53 Q134.468 1363.4 132.64 1359.86 Q130.834 1356.3 127.2 1356.3 M127.2 1352.59 Q133.01 1352.59 136.066 1357.2 Q139.144 1361.78 139.144 1370.53 Q139.144 1379.26 136.066 1383.87 Q133.01 1388.45 127.2 1388.45 Q121.39 1388.45 118.311 1383.87 Q115.256 1379.26 115.256 1370.53 Q115.256 1361.78 118.311 1357.2 Q121.39 1352.59 127.2 1352.59 Z" fill="#000000" fill-rule="nonzero" fill-opacity="1" /><path clip-path="url(#clip540)" d="M147.362 1381.9 L152.246 1381.9 L152.246 1387.78 L147.362 1387.78 L147.362 1381.9 Z" fill="#000000" fill-rule="nonzero" fill-opacity="1" /><path clip-path="url(#clip540)" d="M172.431 1356.3 Q168.82 1356.3 166.991 1359.86 Q165.186 1363.4 165.186 1370.53 Q165.186 1377.64 166.991 1381.21 Q168.82 1384.75 172.431 1384.75 Q176.065 1384.75 177.871 1381.21 Q179.7 1377.64 179.7 1370.53 Q179.7 1363.4 177.871 1359.86 Q176.065 1356.3 172.431 1356.3 M172.431 1352.59 Q178.241 1352.59 181.297 1357.2 Q184.376 1361.78 184.376 1370.53 Q184.376 1379.26 181.297 1383.87 Q178.241 1388.45 172.431 1388.45 Q166.621 1388.45 163.542 1383.87 Q160.487 1379.26 160.487 1370.53 Q160.487 1361.78 163.542 1357.2 Q166.621 1352.59 172.431 1352.59 Z" fill="#000000" fill-rule="nonzero" fill-opacity="1" /><path clip-path="url(#clip540)" d="M192.639 1353.22 L210.996 1353.22 L210.996 1357.15 L196.922 1357.15 L196.922 1365.63 Q197.94 1365.28 198.959 1365.12 Q199.977 1364.93 200.996 1364.93 Q206.783 1364.93 210.162 1368.1 Q213.542 1371.28 213.542 1376.69 Q213.542 1382.27 210.07 1385.37 Q206.598 1388.45 200.278 1388.45 Q198.102 1388.45 195.834 1388.08 Q193.588 1387.71 191.181 1386.97 L191.181 1382.27 Q193.264 1383.4 195.487 1383.96 Q197.709 1384.52 200.186 1384.52 Q204.19 1384.52 206.528 1382.41 Q208.866 1380.3 208.866 1376.69 Q208.866 1373.08 206.528 1370.97 Q204.19 1368.87 200.186 1368.87 Q198.311 1368.87 196.436 1369.28 Q194.584 1369.7 192.639 1370.58 L192.639 1353.22 Z" fill="#000000" fill-rule="nonzero" fill-opacity="1" /><path clip-path="url(#clip540)" d="M222.801 1353.22 L241.158 1353.22 L241.158 1357.15 L227.084 1357.15 L227.084 1365.63 Q228.102 1365.28 229.121 1365.12 Q230.139 1364.93 231.158 1364.93 Q236.945 1364.93 240.324 1368.1 Q243.704 1371.28 243.704 1376.69 Q243.704 1382.27 240.232 1385.37 Q236.76 1388.45 230.44 1388.45 Q228.264 1388.45 225.996 1388.08 Q223.75 1387.71 221.343 1386.97 L221.343 1382.27 Q223.426 1383.4 225.648 1383.96 Q227.871 1384.52 230.347 1384.52 Q234.352 1384.52 236.69 1382.41 Q239.028 1380.3 239.028 1376.69 Q239.028 1373.08 236.69 1370.97 Q234.352 1368.87 230.347 1368.87 Q228.473 1368.87 226.598 1369.28 Q224.746 1369.7 222.801 1370.58 L222.801 1353.22 Z" fill="#000000" fill-rule="nonzero" fill-opacity="1" /><path clip-path="url(#clip540)" d="M126.205 1148.69 Q122.593 1148.69 120.765 1152.26 Q118.959 1155.8 118.959 1162.93 Q118.959 1170.03 120.765 1173.6 Q122.593 1177.14 126.205 1177.14 Q129.839 1177.14 131.644 1173.6 Q133.473 1170.03 133.473 1162.93 Q133.473 1155.8 131.644 1152.26 Q129.839 1148.69 126.205 1148.69 M126.205 1144.99 Q132.015 1144.99 135.07 1149.6 Q138.149 1154.18 138.149 1162.93 Q138.149 1171.66 135.07 1176.26 Q132.015 1180.85 126.205 1180.85 Q120.394 1180.85 117.316 1176.26 Q114.26 1171.66 114.26 1162.93 Q114.26 1154.18 117.316 1149.6 Q120.394 1144.99 126.205 1144.99 Z" fill="#000000" fill-rule="nonzero" fill-opacity="1" /><path clip-path="url(#clip540)" d="M146.366 1174.29 L151.251 1174.29 L151.251 1180.17 L146.366 1180.17 L146.366 1174.29 Z" fill="#000000" fill-rule="nonzero" fill-opacity="1" /><path clip-path="url(#clip540)" d="M171.436 1148.69 Q167.825 1148.69 165.996 1152.26 Q164.19 1155.8 164.19 1162.93 Q164.19 1170.03 165.996 1173.6 Q167.825 1177.14 171.436 1177.14 Q175.07 1177.14 176.876 1173.6 Q178.704 1170.03 178.704 1162.93 Q178.704 1155.8 176.876 1152.26 Q175.07 1148.69 171.436 1148.69 M171.436 1144.99 Q177.246 1144.99 180.301 1149.6 Q183.38 1154.18 183.38 1162.93 Q183.38 1171.66 180.301 1176.26 Q177.246 1180.85 171.436 1180.85 Q165.626 1180.85 162.547 1176.26 Q159.491 1171.66 159.491 1162.93 Q159.491 1154.18 162.547 1149.6 Q165.626 1144.99 171.436 1144.99 Z" fill="#000000" fill-rule="nonzero" fill-opacity="1" /><path clip-path="url(#clip540)" d="M202.176 1161.03 Q199.028 1161.03 197.176 1163.18 Q195.348 1165.34 195.348 1169.09 Q195.348 1172.81 197.176 1174.99 Q199.028 1177.14 202.176 1177.14 Q205.324 1177.14 207.153 1174.99 Q209.005 1172.81 209.005 1169.09 Q209.005 1165.34 207.153 1163.18 Q205.324 1161.03 202.176 1161.03 M211.459 1146.38 L211.459 1150.64 Q209.699 1149.8 207.894 1149.36 Q206.112 1148.92 204.352 1148.92 Q199.723 1148.92 197.269 1152.05 Q194.838 1155.17 194.491 1161.49 Q195.857 1159.48 197.917 1158.41 Q199.977 1157.33 202.454 1157.33 Q207.662 1157.33 210.672 1160.5 Q213.704 1163.65 213.704 1169.09 Q213.704 1174.41 210.556 1177.63 Q207.408 1180.85 202.176 1180.85 Q196.181 1180.85 193.01 1176.26 Q189.838 1171.66 189.838 1162.93 Q189.838 1154.73 193.727 1149.87 Q197.616 1144.99 204.167 1144.99 Q205.926 1144.99 207.709 1145.34 Q209.514 1145.68 211.459 1146.38 Z" fill="#000000" fill-rule="nonzero" fill-opacity="1" /><path clip-path="url(#clip540)" d="M231.76 1148.69 Q228.148 1148.69 226.32 1152.26 Q224.514 1155.8 224.514 1162.93 Q224.514 1170.03 226.32 1173.6 Q228.148 1177.14 231.76 1177.14 Q235.394 1177.14 237.199 1173.6 Q239.028 1170.03 239.028 1162.93 Q239.028 1155.8 237.199 1152.26 Q235.394 1148.69 231.76 1148.69 M231.76 1144.99 Q237.57 1144.99 240.625 1149.6 Q243.704 1154.18 243.704 1162.93 Q243.704 1171.66 240.625 1176.26 Q237.57 1180.85 231.76 1180.85 Q225.949 1180.85 222.871 1176.26 Q219.815 1171.66 219.815 1162.93 Q219.815 1154.18 222.871 1149.6 Q225.949 1144.99 231.76 1144.99 Z" fill="#000000" fill-rule="nonzero" fill-opacity="1" /><path clip-path="url(#clip540)" d="M127.2 941.087 Q123.589 941.087 121.76 944.651 Q119.955 948.193 119.955 955.323 Q119.955 962.429 121.76 965.994 Q123.589 969.535 127.2 969.535 Q130.834 969.535 132.64 965.994 Q134.468 962.429 134.468 955.323 Q134.468 948.193 132.64 944.651 Q130.834 941.087 127.2 941.087 M127.2 937.383 Q133.01 937.383 136.066 941.989 Q139.144 946.573 139.144 955.323 Q139.144 964.049 136.066 968.656 Q133.01 973.239 127.2 973.239 Q121.39 973.239 118.311 968.656 Q115.256 964.049 115.256 955.323 Q115.256 946.573 118.311 941.989 Q121.39 937.383 127.2 937.383 Z" fill="#000000" fill-rule="nonzero" fill-opacity="1" /><path clip-path="url(#clip540)" d="M147.362 966.688 L152.246 966.688 L152.246 972.568 L147.362 972.568 L147.362 966.688 Z" fill="#000000" fill-rule="nonzero" fill-opacity="1" /><path clip-path="url(#clip540)" d="M172.431 941.087 Q168.82 941.087 166.991 944.651 Q165.186 948.193 165.186 955.323 Q165.186 962.429 166.991 965.994 Q168.82 969.535 172.431 969.535 Q176.065 969.535 177.871 965.994 Q179.7 962.429 179.7 955.323 Q179.7 948.193 177.871 944.651 Q176.065 941.087 172.431 941.087 M172.431 937.383 Q178.241 937.383 181.297 941.989 Q184.376 946.573 184.376 955.323 Q184.376 964.049 181.297 968.656 Q178.241 973.239 172.431 973.239 Q166.621 973.239 163.542 968.656 Q160.487 964.049 160.487 955.323 Q160.487 946.573 163.542 941.989 Q166.621 937.383 172.431 937.383 Z" fill="#000000" fill-rule="nonzero" fill-opacity="1" /><path clip-path="url(#clip540)" d="M203.172 953.424 Q200.024 953.424 198.172 955.577 Q196.343 957.73 196.343 961.48 Q196.343 965.207 198.172 967.383 Q200.024 969.535 203.172 969.535 Q206.32 969.535 208.149 967.383 Q210 965.207 210 961.48 Q210 957.73 208.149 955.577 Q206.32 953.424 203.172 953.424 M212.454 938.772 L212.454 943.031 Q210.695 942.198 208.889 941.758 Q207.107 941.318 205.348 941.318 Q200.718 941.318 198.264 944.443 Q195.834 947.568 195.487 953.887 Q196.852 951.874 198.912 950.809 Q200.973 949.721 203.449 949.721 Q208.658 949.721 211.667 952.892 Q214.699 956.04 214.699 961.48 Q214.699 966.804 211.551 970.022 Q208.403 973.239 203.172 973.239 Q197.176 973.239 194.005 968.656 Q190.834 964.049 190.834 955.323 Q190.834 947.128 194.723 942.267 Q198.612 937.383 205.162 937.383 Q206.922 937.383 208.704 937.73 Q210.51 938.077 212.454 938.772 Z" fill="#000000" fill-rule="nonzero" fill-opacity="1" /><path clip-path="url(#clip540)" d="M222.801 938.008 L241.158 938.008 L241.158 941.943 L227.084 941.943 L227.084 950.415 Q228.102 950.068 229.121 949.906 Q230.139 949.721 231.158 949.721 Q236.945 949.721 240.324 952.892 Q243.704 956.063 243.704 961.48 Q243.704 967.059 240.232 970.16 Q236.76 973.239 230.44 973.239 Q228.264 973.239 225.996 972.869 Q223.75 972.498 221.343 971.758 L221.343 967.059 Q223.426 968.193 225.648 968.748 Q227.871 969.304 230.347 969.304 Q234.352 969.304 236.69 967.198 Q239.028 965.091 239.028 961.48 Q239.028 957.869 236.69 955.762 Q234.352 953.656 230.347 953.656 Q228.473 953.656 226.598 954.073 Q224.746 954.489 222.801 955.369 L222.801 938.008 Z" fill="#000000" fill-rule="nonzero" fill-opacity="1" /><path clip-path="url(#clip540)" d="M126.205 733.481 Q122.593 733.481 120.765 737.045 Q118.959 740.587 118.959 747.717 Q118.959 754.823 120.765 758.388 Q122.593 761.93 126.205 761.93 Q129.839 761.93 131.644 758.388 Q133.473 754.823 133.473 747.717 Q133.473 740.587 131.644 737.045 Q129.839 733.481 126.205 733.481 M126.205 729.777 Q132.015 729.777 135.07 734.383 Q138.149 738.967 138.149 747.717 Q138.149 756.444 135.07 761.05 Q132.015 765.633 126.205 765.633 Q120.394 765.633 117.316 761.05 Q114.26 756.444 114.26 747.717 Q114.26 738.967 117.316 734.383 Q120.394 729.777 126.205 729.777 Z" fill="#000000" fill-rule="nonzero" fill-opacity="1" /><path clip-path="url(#clip540)" d="M146.366 759.082 L151.251 759.082 L151.251 764.962 L146.366 764.962 L146.366 759.082 Z" fill="#000000" fill-rule="nonzero" fill-opacity="1" /><path clip-path="url(#clip540)" d="M171.436 733.481 Q167.825 733.481 165.996 737.045 Q164.19 740.587 164.19 747.717 Q164.19 754.823 165.996 758.388 Q167.825 761.93 171.436 761.93 Q175.07 761.93 176.876 758.388 Q178.704 754.823 178.704 747.717 Q178.704 740.587 176.876 737.045 Q175.07 733.481 171.436 733.481 M171.436 729.777 Q177.246 729.777 180.301 734.383 Q183.38 738.967 183.38 747.717 Q183.38 756.444 180.301 761.05 Q177.246 765.633 171.436 765.633 Q165.626 765.633 162.547 761.05 Q159.491 756.444 159.491 747.717 Q159.491 738.967 162.547 734.383 Q165.626 729.777 171.436 729.777 Z" fill="#000000" fill-rule="nonzero" fill-opacity="1" /><path clip-path="url(#clip540)" d="M190.417 730.402 L212.639 730.402 L212.639 732.393 L200.093 764.962 L195.209 764.962 L207.014 734.337 L190.417 734.337 L190.417 730.402 Z" fill="#000000" fill-rule="nonzero" fill-opacity="1" /><path clip-path="url(#clip540)" d="M231.76 733.481 Q228.148 733.481 226.32 737.045 Q224.514 740.587 224.514 747.717 Q224.514 754.823 226.32 758.388 Q228.148 761.93 231.76 761.93 Q235.394 761.93 237.199 758.388 Q239.028 754.823 239.028 747.717 Q239.028 740.587 237.199 737.045 Q235.394 733.481 231.76 733.481 M231.76 729.777 Q237.57 729.777 240.625 734.383 Q243.704 738.967 243.704 747.717 Q243.704 756.444 240.625 761.05 Q237.57 765.633 231.76 765.633 Q225.949 765.633 222.871 761.05 Q219.815 756.444 219.815 747.717 Q219.815 738.967 222.871 734.383 Q225.949 729.777 231.76 729.777 Z" fill="#000000" fill-rule="nonzero" fill-opacity="1" /><path clip-path="url(#clip540)" d="M127.2 525.875 Q123.589 525.875 121.76 529.44 Q119.955 532.981 119.955 540.111 Q119.955 547.217 121.76 550.782 Q123.589 554.324 127.2 554.324 Q130.834 554.324 132.64 550.782 Q134.468 547.217 134.468 540.111 Q134.468 532.981 132.64 529.44 Q130.834 525.875 127.2 525.875 M127.2 522.171 Q133.01 522.171 136.066 526.778 Q139.144 531.361 139.144 540.111 Q139.144 548.838 136.066 553.444 Q133.01 558.027 127.2 558.027 Q121.39 558.027 118.311 553.444 Q115.256 548.838 115.256 540.111 Q115.256 531.361 118.311 526.778 Q121.39 522.171 127.2 522.171 Z" fill="#000000" fill-rule="nonzero" fill-opacity="1" /><path clip-path="url(#clip540)" d="M147.362 551.476 L152.246 551.476 L152.246 557.356 L147.362 557.356 L147.362 551.476 Z" fill="#000000" fill-rule="nonzero" fill-opacity="1" /><path clip-path="url(#clip540)" d="M172.431 525.875 Q168.82 525.875 166.991 529.44 Q165.186 532.981 165.186 540.111 Q165.186 547.217 166.991 550.782 Q168.82 554.324 172.431 554.324 Q176.065 554.324 177.871 550.782 Q179.7 547.217 179.7 540.111 Q179.7 532.981 177.871 529.44 Q176.065 525.875 172.431 525.875 M172.431 522.171 Q178.241 522.171 181.297 526.778 Q184.376 531.361 184.376 540.111 Q184.376 548.838 181.297 553.444 Q178.241 558.027 172.431 558.027 Q166.621 558.027 163.542 553.444 Q160.487 548.838 160.487 540.111 Q160.487 531.361 163.542 526.778 Q166.621 522.171 172.431 522.171 Z" fill="#000000" fill-rule="nonzero" fill-opacity="1" /><path clip-path="url(#clip540)" d="M191.413 522.796 L213.635 522.796 L213.635 524.787 L201.088 557.356 L196.204 557.356 L208.01 526.731 L191.413 526.731 L191.413 522.796 Z" fill="#000000" fill-rule="nonzero" fill-opacity="1" /><path clip-path="url(#clip540)" d="M222.801 522.796 L241.158 522.796 L241.158 526.731 L227.084 526.731 L227.084 535.203 Q228.102 534.856 229.121 534.694 Q230.139 534.509 231.158 534.509 Q236.945 534.509 240.324 537.68 Q243.704 540.852 243.704 546.268 Q243.704 551.847 240.232 554.949 Q236.76 558.027 230.44 558.027 Q228.264 558.027 225.996 557.657 Q223.75 557.287 221.343 556.546 L221.343 551.847 Q223.426 552.981 225.648 553.537 Q227.871 554.092 230.347 554.092 Q234.352 554.092 236.69 551.986 Q239.028 549.879 239.028 546.268 Q239.028 542.657 236.69 540.551 Q234.352 538.444 230.347 538.444 Q228.473 538.444 226.598 538.861 Q224.746 539.277 222.801 540.157 L222.801 522.796 Z" fill="#000000" fill-rule="nonzero" fill-opacity="1" /><path clip-path="url(#clip540)" d="M126.205 318.269 Q122.593 318.269 120.765 321.834 Q118.959 325.375 118.959 332.505 Q118.959 339.611 120.765 343.176 Q122.593 346.718 126.205 346.718 Q129.839 346.718 131.644 343.176 Q133.473 339.611 133.473 332.505 Q133.473 325.375 131.644 321.834 Q129.839 318.269 126.205 318.269 M126.205 314.565 Q132.015 314.565 135.07 319.172 Q138.149 323.755 138.149 332.505 Q138.149 341.232 135.07 345.838 Q132.015 350.422 126.205 350.422 Q120.394 350.422 117.316 345.838 Q114.26 341.232 114.26 332.505 Q114.26 323.755 117.316 319.172 Q120.394 314.565 126.205 314.565 Z" fill="#000000" fill-rule="nonzero" fill-opacity="1" /><path clip-path="url(#clip540)" d="M146.366 343.871 L151.251 343.871 L151.251 349.75 L146.366 349.75 L146.366 343.871 Z" fill="#000000" fill-rule="nonzero" fill-opacity="1" /><path clip-path="url(#clip540)" d="M171.436 318.269 Q167.825 318.269 165.996 321.834 Q164.19 325.375 164.19 332.505 Q164.19 339.611 165.996 343.176 Q167.825 346.718 171.436 346.718 Q175.07 346.718 176.876 343.176 Q178.704 339.611 178.704 332.505 Q178.704 325.375 176.876 321.834 Q175.07 318.269 171.436 318.269 M171.436 314.565 Q177.246 314.565 180.301 319.172 Q183.38 323.755 183.38 332.505 Q183.38 341.232 180.301 345.838 Q177.246 350.422 171.436 350.422 Q165.626 350.422 162.547 345.838 Q159.491 341.232 159.491 332.505 Q159.491 323.755 162.547 319.172 Q165.626 314.565 171.436 314.565 Z" fill="#000000" fill-rule="nonzero" fill-opacity="1" /><path clip-path="url(#clip540)" d="M201.598 333.338 Q198.264 333.338 196.343 335.121 Q194.445 336.903 194.445 340.028 Q194.445 343.153 196.343 344.935 Q198.264 346.718 201.598 346.718 Q204.931 346.718 206.852 344.935 Q208.774 343.13 208.774 340.028 Q208.774 336.903 206.852 335.121 Q204.954 333.338 201.598 333.338 M196.922 331.348 Q193.913 330.607 192.223 328.547 Q190.556 326.486 190.556 323.523 Q190.556 319.38 193.496 316.973 Q196.459 314.565 201.598 314.565 Q206.76 314.565 209.699 316.973 Q212.639 319.38 212.639 323.523 Q212.639 326.486 210.949 328.547 Q209.283 330.607 206.297 331.348 Q209.676 332.135 211.551 334.426 Q213.449 336.718 213.449 340.028 Q213.449 345.051 210.371 347.736 Q207.315 350.422 201.598 350.422 Q195.88 350.422 192.801 347.736 Q189.746 345.051 189.746 340.028 Q189.746 336.718 191.644 334.426 Q193.542 332.135 196.922 331.348 M195.209 323.963 Q195.209 326.648 196.875 328.153 Q198.565 329.658 201.598 329.658 Q204.607 329.658 206.297 328.153 Q208.01 326.648 208.01 323.963 Q208.01 321.278 206.297 319.774 Q204.607 318.269 201.598 318.269 Q198.565 318.269 196.875 319.774 Q195.209 321.278 195.209 323.963 Z" fill="#000000" fill-rule="nonzero" fill-opacity="1" /><path clip-path="url(#clip540)" d="M231.76 318.269 Q228.148 318.269 226.32 321.834 Q224.514 325.375 224.514 332.505 Q224.514 339.611 226.32 343.176 Q228.148 346.718 231.76 346.718 Q235.394 346.718 237.199 343.176 Q239.028 339.611 239.028 332.505 Q239.028 325.375 237.199 321.834 Q235.394 318.269 231.76 318.269 M231.76 314.565 Q237.57 314.565 240.625 319.172 Q243.704 323.755 243.704 332.505 Q243.704 341.232 240.625 345.838 Q237.57 350.422 231.76 350.422 Q225.949 350.422 222.871 345.838 Q219.815 341.232 219.815 332.505 Q219.815 323.755 222.871 319.172 Q225.949 314.565 231.76 314.565 Z" fill="#000000" fill-rule="nonzero" fill-opacity="1" /><path clip-path="url(#clip540)" d="M127.2 110.663 Q123.589 110.663 121.76 114.228 Q119.955 117.769 119.955 124.899 Q119.955 132.005 121.76 135.57 Q123.589 139.112 127.2 139.112 Q130.834 139.112 132.64 135.57 Q134.468 132.005 134.468 124.899 Q134.468 117.769 132.64 114.228 Q130.834 110.663 127.2 110.663 M127.2 106.959 Q133.01 106.959 136.066 111.566 Q139.144 116.149 139.144 124.899 Q139.144 133.626 136.066 138.232 Q133.01 142.816 127.2 142.816 Q121.39 142.816 118.311 138.232 Q115.256 133.626 115.256 124.899 Q115.256 116.149 118.311 111.566 Q121.39 106.959 127.2 106.959 Z" fill="#000000" fill-rule="nonzero" fill-opacity="1" /><path clip-path="url(#clip540)" d="M147.362 136.265 L152.246 136.265 L152.246 142.144 L147.362 142.144 L147.362 136.265 Z" fill="#000000" fill-rule="nonzero" fill-opacity="1" /><path clip-path="url(#clip540)" d="M172.431 110.663 Q168.82 110.663 166.991 114.228 Q165.186 117.769 165.186 124.899 Q165.186 132.005 166.991 135.57 Q168.82 139.112 172.431 139.112 Q176.065 139.112 177.871 135.57 Q179.7 132.005 179.7 124.899 Q179.7 117.769 177.871 114.228 Q176.065 110.663 172.431 110.663 M172.431 106.959 Q178.241 106.959 181.297 111.566 Q184.376 116.149 184.376 124.899 Q184.376 133.626 181.297 138.232 Q178.241 142.816 172.431 142.816 Q166.621 142.816 163.542 138.232 Q160.487 133.626 160.487 124.899 Q160.487 116.149 163.542 111.566 Q166.621 106.959 172.431 106.959 Z" fill="#000000" fill-rule="nonzero" fill-opacity="1" /><path clip-path="url(#clip540)" d="M202.593 125.732 Q199.26 125.732 197.338 127.515 Q195.44 129.297 195.44 132.422 Q195.44 135.547 197.338 137.33 Q199.26 139.112 202.593 139.112 Q205.926 139.112 207.848 137.33 Q209.769 135.524 209.769 132.422 Q209.769 129.297 207.848 127.515 Q205.949 125.732 202.593 125.732 M197.917 123.742 Q194.908 123.001 193.218 120.941 Q191.551 118.881 191.551 115.918 Q191.551 111.774 194.491 109.367 Q197.454 106.959 202.593 106.959 Q207.755 106.959 210.695 109.367 Q213.635 111.774 213.635 115.918 Q213.635 118.881 211.945 120.941 Q210.278 123.001 207.292 123.742 Q210.672 124.529 212.547 126.82 Q214.445 129.112 214.445 132.422 Q214.445 137.445 211.366 140.13 Q208.311 142.816 202.593 142.816 Q196.875 142.816 193.797 140.13 Q190.741 137.445 190.741 132.422 Q190.741 129.112 192.639 126.82 Q194.538 124.529 197.917 123.742 M196.204 116.357 Q196.204 119.043 197.871 120.547 Q199.561 122.052 202.593 122.052 Q205.602 122.052 207.292 120.547 Q209.005 119.043 209.005 116.357 Q209.005 113.672 207.292 112.168 Q205.602 110.663 202.593 110.663 Q199.561 110.663 197.871 112.168 Q196.204 113.672 196.204 116.357 Z" fill="#000000" fill-rule="nonzero" fill-opacity="1" /><path clip-path="url(#clip540)" d="M222.801 107.584 L241.158 107.584 L241.158 111.519 L227.084 111.519 L227.084 119.992 Q228.102 119.644 229.121 119.482 Q230.139 119.297 231.158 119.297 Q236.945 119.297 240.324 122.469 Q243.704 125.64 243.704 131.056 Q243.704 136.635 240.232 139.737 Q236.76 142.816 230.44 142.816 Q228.264 142.816 225.996 142.445 Q223.75 142.075 221.343 141.334 L221.343 136.635 Q223.426 137.769 225.648 138.325 Q227.871 138.88 230.347 138.88 Q234.352 138.88 236.69 136.774 Q239.028 134.668 239.028 131.056 Q239.028 127.445 236.69 125.339 Q234.352 123.232 230.347 123.232 Q228.473 123.232 226.598 123.649 Q224.746 124.066 222.801 124.945 L222.801 107.584 Z" fill="#000000" fill-rule="nonzero" fill-opacity="1" /><path clip-path="url(#clip540)" d="M34.7219 748.293 Q31.4754 746.352 28.6108 741.546 Q27.4968 739.668 27.4968 733.875 Q27.4968 727.382 32.6531 723.34 Q37.8093 719.266 46.212 719.266 Q54.6147 719.266 59.771 723.34 Q64.9272 727.382 64.9272 733.875 Q64.9272 737.79 63.3994 740.623 Q61.8398 743.424 58.657 745.27 L77.5631 745.27 L77.5631 751.158 L46.5303 751.158 Q39.1779 751.158 34.7219 748.293 M46.212 725.345 Q39.7508 725.345 36.0905 728.019 Q32.3984 730.66 32.3984 735.307 Q32.3984 739.954 36.0905 742.628 Q39.7508 745.27 46.212 745.27 Q52.6732 745.27 56.3653 742.628 Q60.0256 739.954 60.0256 735.307 Q60.0256 730.66 56.3653 728.019 Q52.6732 725.345 46.212 725.345 Z" fill="#000000" fill-rule="nonzero" fill-opacity="1" /><polyline clip-path="url(#clip542)" style="stroke:#009af9; stroke-linecap:round; stroke-linejoin:round; stroke-width:4; stroke-opacity:1; fill:none" points="338.375,86.1857 441.307,128.865 544.239,321.455 647.171,722.678 750.103,1179.11 853.036,1384.24 955.968,1179.11 1058.9,722.678 1161.83,321.455 1264.76,128.865 1367.7,86.1857 1470.63,128.865 1573.56,321.455 1676.49,722.678 1779.42,1179.11 1882.36,1384.24 1985.29,1179.11 2088.22,722.678 2191.15,321.455 2294.08,128.865 "/>
<circle clip-path="url(#clip542)" cx="338.375" cy="86.1857" r="7.2" fill="#009af9" fill-rule="evenodd" fill-opacity="1" stroke="#000000" stroke-opacity="1" stroke-width="3.2"/>
<circle clip-path="url(#clip542)" cx="441.307" cy="128.865" r="7.2" fill="#009af9" fill-rule="evenodd" fill-opacity="1" stroke="#000000" stroke-opacity="1" stroke-width="3.2"/>
<circle clip-path="url(#clip542)" cx="544.239" cy="321.455" r="7.2" fill="#009af9" fill-rule="evenodd" fill-opacity="1" stroke="#000000" stroke-opacity="1" stroke-width="3.2"/>
<circle clip-path="url(#clip542)" cx="647.171" cy="722.678" r="7.2" fill="#009af9" fill-rule="evenodd" fill-opacity="1" stroke="#000000" stroke-opacity="1" stroke-width="3.2"/>
<circle clip-path="url(#clip542)" cx="750.103" cy="1179.11" r="7.2" fill="#009af9" fill-rule="evenodd" fill-opacity="1" stroke="#000000" stroke-opacity="1" stroke-width="3.2"/>
<circle clip-path="url(#clip542)" cx="853.036" cy="1384.24" r="7.2" fill="#009af9" fill-rule="evenodd" fill-opacity="1" stroke="#000000" stroke-opacity="1" stroke-width="3.2"/>
<circle clip-path="url(#clip542)" cx="955.968" cy="1179.11" r="7.2" fill="#009af9" fill-rule="evenodd" fill-opacity="1" stroke="#000000" stroke-opacity="1" stroke-width="3.2"/>
<circle clip-path="url(#clip542)" cx="1058.9" cy="722.678" r="7.2" fill="#009af9" fill-rule="evenodd" fill-opacity="1" stroke="#000000" stroke-opacity="1" stroke-width="3.2"/>
<circle clip-path="url(#clip542)" cx="1161.83" cy="321.455" r="7.2" fill="#009af9" fill-rule="evenodd" fill-opacity="1" stroke="#000000" stroke-opacity="1" stroke-width="3.2"/>
<circle clip-path="url(#clip542)" cx="1264.76" cy="128.865" r="7.2" fill="#009af9" fill-rule="evenodd" fill-opacity="1" stroke="#000000" stroke-opacity="1" stroke-width="3.2"/>
<circle clip-path="url(#clip542)" cx="1367.7" cy="86.1857" r="7.2" fill="#009af9" fill-rule="evenodd" fill-opacity="1" stroke="#000000" stroke-opacity="1" stroke-width="3.2"/>
<circle clip-path="url(#clip542)" cx="1470.63" cy="128.865" r="7.2" fill="#009af9" fill-rule="evenodd" fill-opacity="1" stroke="#000000" stroke-opacity="1" stroke-width="3.2"/>
<circle clip-path="url(#clip542)" cx="1573.56" cy="321.455" r="7.2" fill="#009af9" fill-rule="evenodd" fill-opacity="1" stroke="#000000" stroke-opacity="1" stroke-width="3.2"/>
<circle clip-path="url(#clip542)" cx="1676.49" cy="722.678" r="7.2" fill="#009af9" fill-rule="evenodd" fill-opacity="1" stroke="#000000" stroke-opacity="1" stroke-width="3.2"/>
<circle clip-path="url(#clip542)" cx="1779.42" cy="1179.11" r="7.2" fill="#009af9" fill-rule="evenodd" fill-opacity="1" stroke="#000000" stroke-opacity="1" stroke-width="3.2"/>
<circle clip-path="url(#clip542)" cx="1882.36" cy="1384.24" r="7.2" fill="#009af9" fill-rule="evenodd" fill-opacity="1" stroke="#000000" stroke-opacity="1" stroke-width="3.2"/>
<circle clip-path="url(#clip542)" cx="1985.29" cy="1179.11" r="7.2" fill="#009af9" fill-rule="evenodd" fill-opacity="1" stroke="#000000" stroke-opacity="1" stroke-width="3.2"/>
<circle clip-path="url(#clip542)" cx="2088.22" cy="722.678" r="7.2" fill="#009af9" fill-rule="evenodd" fill-opacity="1" stroke="#000000" stroke-opacity="1" stroke-width="3.2"/>
<circle clip-path="url(#clip542)" cx="2191.15" cy="321.455" r="7.2" fill="#009af9" fill-rule="evenodd" fill-opacity="1" stroke="#000000" stroke-opacity="1" stroke-width="3.2"/>
<circle clip-path="url(#clip542)" cx="2294.08" cy="128.865" r="7.2" fill="#009af9" fill-rule="evenodd" fill-opacity="1" stroke="#000000" stroke-opacity="1" stroke-width="3.2"/>
</svg>
