<?xml version="1.0" encoding="utf-8"?>
<svg xmlns="http://www.w3.org/2000/svg" xmlns:xlink="http://www.w3.org/1999/xlink" width="600" height="400" viewBox="0 0 2400 1600">
<defs>
  <clipPath id="clip630">
    <rect x="0" y="0" width="2400" height="1600"/>
  </clipPath>
</defs>
<path clip-path="url(#clip630)" d="M0 1600 L2400 1600 L2400 0 L0 0  Z" fill="#ffffff" fill-rule="evenodd" fill-opacity="1"/>
<defs>
  <clipPath id="clip631">
    <rect x="480" y="0" width="1681" height="1600"/>
  </clipPath>
</defs>
<path clip-path="url(#clip630)" d="M284.422 1486.45 L2352.76 1486.45 L2352.76 47.2441 L284.422 47.2441  Z" fill="#ffffff" fill-rule="evenodd" fill-opacity="1"/>
<defs>
  <clipPath id="clip632">
    <rect x="284" y="47" width="2069" height="1440"/>
  </clipPath>
</defs>
<polyline clip-path="url(#clip632)" style="stroke:#000000; stroke-linecap:round; stroke-linejoin:round; stroke-width:2; stroke-opacity:0.1; fill:none" points="284.422,1486.45 284.422,47.2441 "/>
<polyline clip-path="url(#clip632)" style="stroke:#000000; stroke-linecap:round; stroke-linejoin:round; stroke-width:2; stroke-opacity:0.1; fill:none" points="801.505,1486.45 801.505,47.2441 "/>
<polyline clip-path="url(#clip632)" style="stroke:#000000; stroke-linecap:round; stroke-linejoin:round; stroke-width:2; stroke-opacity:0.1; fill:none" points="1318.59,1486.45 1318.59,47.2441 "/>
<polyline clip-path="url(#clip632)" style="stroke:#000000; stroke-linecap:round; stroke-linejoin:round; stroke-width:2; stroke-opacity:0.1; fill:none" points="1835.67,1486.45 1835.67,47.2441 "/>
<polyline clip-path="url(#clip632)" style="stroke:#000000; stroke-linecap:round; stroke-linejoin:round; stroke-width:2; stroke-opacity:0.1; fill:none" points="2352.76,1486.45 2352.76,47.2441 "/>
<polyline clip-path="url(#clip632)" style="stroke:#000000; stroke-linecap:round; stroke-linejoin:round; stroke-width:2; stroke-opacity:0.1; fill:none" points="284.422,1222.72 2352.76,1222.72 "/>
<polyline clip-path="url(#clip632)" style="stroke:#000000; stroke-linecap:round; stroke-linejoin:round; stroke-width:2; stroke-opacity:0.1; fill:none" points="284.422,939.03 2352.76,939.03 "/>
<polyline clip-path="url(#clip632)" style="stroke:#000000; stroke-linecap:round; stroke-linejoin:round; stroke-width:2; stroke-opacity:0.1; fill:none" points="284.422,655.344 2352.76,655.344 "/>
<polyline clip-path="url(#clip632)" style="stroke:#000000; stroke-linecap:round; stroke-linejoin:round; stroke-width:2; stroke-opacity:0.1; fill:none" points="284.422,371.658 2352.76,371.658 "/>
<polyline clip-path="url(#clip632)" style="stroke:#000000; stroke-linecap:round; stroke-linejoin:round; stroke-width:2; stroke-opacity:0.1; fill:none" points="284.422,87.9712 2352.76,87.9712 "/>
<polyline clip-path="url(#clip630)" style="stroke:#000000; stroke-linecap:round; stroke-linejoin:round; stroke-width:4; stroke-opacity:1; fill:none" points="284.422,1486.45 2352.76,1486.45 "/>
<polyline clip-path="url(#clip630)" style="stroke:#000000; stroke-linecap:round; stroke-linejoin:round; stroke-width:4; stroke-opacity:1; fill:none" points="284.422,1486.45 284.422,1467.55 "/>
<polyline clip-path="url(#clip630)" style="stroke:#000000; stroke-linecap:round; stroke-linejoin:round; stroke-width:4; stroke-opacity:1; fill:none" points="801.505,1486.45 801.505,1467.55 "/>
<polyline clip-path="url(#clip630)" style="stroke:#000000; stroke-linecap:round; stroke-linejoin:round; stroke-width:4; stroke-opacity:1; fill:none" points="1318.59,1486.45 1318.59,1467.55 "/>
<polyline clip-path="url(#clip630)" style="stroke:#000000; stroke-linecap:round; stroke-linejoin:round; stroke-width:4; stroke-opacity:1; fill:none" points="1835.67,1486.45 1835.67,1467.55 "/>
<polyline clip-path="url(#clip630)" style="stroke:#000000; stroke-linecap:round; stroke-linejoin:round; stroke-width:4; stroke-opacity:1; fill:none" points="2352.76,1486.45 2352.76,1467.55 "/>
<path clip-path="url(#clip630)" d="M238.484 1532.02 L268.16 1532.02 L268.16 1535.95 L238.484 1535.95 L238.484 1532.02 Z" fill="#000000" fill-rule="nonzero" fill-opacity="1" /><path clip-path="url(#clip630)" d="M278.299 1514.29 L296.655 1514.29 L296.655 1518.22 L282.581 1518.22 L282.581 1526.7 Q283.6 1526.35 284.618 1526.19 Q285.637 1526 286.655 1526 Q292.442 1526 295.822 1529.17 Q299.202 1532.34 299.202 1537.76 Q299.202 1543.34 295.729 1546.44 Q292.257 1549.52 285.938 1549.52 Q283.762 1549.52 281.493 1549.15 Q279.248 1548.78 276.841 1548.04 L276.841 1543.34 Q278.924 1544.47 281.146 1545.03 Q283.368 1545.58 285.845 1545.58 Q289.85 1545.58 292.188 1543.48 Q294.526 1541.37 294.526 1537.76 Q294.526 1534.15 292.188 1532.04 Q289.85 1529.94 285.845 1529.94 Q283.97 1529.94 282.095 1530.35 Q280.243 1530.77 278.299 1531.65 L278.299 1514.29 Z" fill="#000000" fill-rule="nonzero" fill-opacity="1" /><path clip-path="url(#clip630)" d="M318.414 1517.37 Q314.803 1517.37 312.975 1520.93 Q311.169 1524.47 311.169 1531.6 Q311.169 1538.71 312.975 1542.27 Q314.803 1545.82 318.414 1545.82 Q322.049 1545.82 323.854 1542.27 Q325.683 1538.71 325.683 1531.6 Q325.683 1524.47 323.854 1520.93 Q322.049 1517.37 318.414 1517.37 M318.414 1513.66 Q324.225 1513.66 327.28 1518.27 Q330.359 1522.85 330.359 1531.6 Q330.359 1540.33 327.28 1544.94 Q324.225 1549.52 318.414 1549.52 Q312.604 1549.52 309.526 1544.94 Q306.47 1540.33 306.47 1531.6 Q306.47 1522.85 309.526 1518.27 Q312.604 1513.66 318.414 1513.66 Z" fill="#000000" fill-rule="nonzero" fill-opacity="1" /><path clip-path="url(#clip630)" d="M756.066 1532.02 L785.741 1532.02 L785.741 1535.95 L756.066 1535.95 L756.066 1532.02 Z" fill="#000000" fill-rule="nonzero" fill-opacity="1" /><path clip-path="url(#clip630)" d="M799.862 1544.91 L816.181 1544.91 L816.181 1548.85 L794.237 1548.85 L794.237 1544.91 Q796.899 1542.16 801.482 1537.53 Q806.089 1532.88 807.269 1531.53 Q809.514 1529.01 810.394 1527.27 Q811.297 1525.51 811.297 1523.82 Q811.297 1521.07 809.352 1519.33 Q807.431 1517.6 804.329 1517.6 Q802.13 1517.6 799.677 1518.36 Q797.246 1519.13 794.468 1520.68 L794.468 1515.95 Q797.292 1514.82 799.746 1514.24 Q802.2 1513.66 804.237 1513.66 Q809.607 1513.66 812.801 1516.35 Q815.996 1519.03 815.996 1523.52 Q815.996 1525.65 815.186 1527.57 Q814.399 1529.47 812.292 1532.07 Q811.713 1532.74 808.612 1535.95 Q805.51 1539.15 799.862 1544.91 Z" fill="#000000" fill-rule="nonzero" fill-opacity="1" /><path clip-path="url(#clip630)" d="M826.042 1514.29 L844.398 1514.29 L844.398 1518.22 L830.324 1518.22 L830.324 1526.7 Q831.343 1526.35 832.362 1526.19 Q833.38 1526 834.399 1526 Q840.186 1526 843.565 1529.17 Q846.945 1532.34 846.945 1537.76 Q846.945 1543.34 843.473 1546.44 Q840 1549.52 833.681 1549.52 Q831.505 1549.52 829.237 1549.15 Q826.991 1548.78 824.584 1548.04 L824.584 1543.34 Q826.667 1544.47 828.889 1545.03 Q831.112 1545.58 833.588 1545.58 Q837.593 1545.58 839.931 1543.48 Q842.269 1541.37 842.269 1537.76 Q842.269 1534.15 839.931 1532.04 Q837.593 1529.94 833.588 1529.94 Q831.713 1529.94 829.838 1530.35 Q827.987 1530.77 826.042 1531.65 L826.042 1514.29 Z" fill="#000000" fill-rule="nonzero" fill-opacity="1" /><path clip-path="url(#clip630)" d="M1318.59 1517.37 Q1314.98 1517.37 1313.15 1520.93 Q1311.34 1524.47 1311.34 1531.6 Q1311.34 1538.71 1313.15 1542.27 Q1314.98 1545.82 1318.59 1545.82 Q1322.22 1545.82 1324.03 1542.27 Q1325.86 1538.71 1325.86 1531.6 Q1325.86 1524.47 1324.03 1520.93 Q1322.22 1517.37 1318.59 1517.37 M1318.59 1513.66 Q1324.4 1513.66 1327.45 1518.27 Q1330.53 1522.85 1330.53 1531.6 Q1330.53 1540.33 1327.45 1544.94 Q1324.4 1549.52 1318.59 1549.52 Q1312.78 1549.52 1309.7 1544.94 Q1306.64 1540.33 1306.64 1531.6 Q1306.64 1522.85 1309.7 1518.27 Q1312.78 1513.66 1318.59 1513.66 Z" fill="#000000" fill-rule="nonzero" fill-opacity="1" /><path clip-path="url(#clip630)" d="M1814.94 1544.91 L1831.26 1544.91 L1831.26 1548.85 L1809.32 1548.85 L1809.32 1544.91 Q1811.98 1542.16 1816.56 1537.53 Q1821.17 1532.88 1822.35 1531.53 Q1824.6 1529.01 1825.48 1527.27 Q1826.38 1525.51 1826.38 1523.82 Q1826.38 1521.07 1824.43 1519.33 Q1822.51 1517.6 1819.41 1517.6 Q1817.21 1517.6 1814.76 1518.36 Q1812.33 1519.13 1809.55 1520.68 L1809.55 1515.95 Q1812.37 1514.82 1814.83 1514.24 Q1817.28 1513.66 1819.32 1513.66 Q1824.69 1513.66 1827.88 1516.35 Q1831.08 1519.03 1831.08 1523.52 Q1831.08 1525.65 1830.27 1527.57 Q1829.48 1529.47 1827.37 1532.07 Q1826.8 1532.74 1823.69 1535.95 Q1820.59 1539.15 1814.94 1544.91 Z" fill="#000000" fill-rule="nonzero" fill-opacity="1" /><path clip-path="url(#clip630)" d="M1841.12 1514.29 L1859.48 1514.29 L1859.48 1518.22 L1845.41 1518.22 L1845.41 1526.7 Q1846.42 1526.35 1847.44 1526.19 Q1848.46 1526 1849.48 1526 Q1855.27 1526 1858.65 1529.17 Q1862.03 1532.34 1862.03 1537.76 Q1862.03 1543.34 1858.55 1546.44 Q1855.08 1549.52 1848.76 1549.52 Q1846.59 1549.52 1844.32 1549.15 Q1842.07 1548.78 1839.67 1548.04 L1839.67 1543.34 Q1841.75 1544.47 1843.97 1545.03 Q1846.19 1545.58 1848.67 1545.58 Q1852.67 1545.58 1855.01 1543.48 Q1857.35 1541.37 1857.35 1537.76 Q1857.35 1534.15 1855.01 1532.04 Q1852.67 1529.94 1848.67 1529.94 Q1846.79 1529.94 1844.92 1530.35 Q1843.07 1530.77 1841.12 1531.65 L1841.12 1514.29 Z" fill="#000000" fill-rule="nonzero" fill-opacity="1" /><path clip-path="url(#clip630)" d="M2327.46 1514.29 L2345.81 1514.29 L2345.81 1518.22 L2331.74 1518.22 L2331.74 1526.7 Q2332.76 1526.35 2333.77 1526.19 Q2334.79 1526 2335.81 1526 Q2341.6 1526 2344.98 1529.17 Q2348.36 1532.34 2348.36 1537.76 Q2348.36 1543.34 2344.89 1546.44 Q2341.41 1549.52 2335.09 1549.52 Q2332.92 1549.52 2330.65 1549.15 Q2328.4 1548.78 2326 1548.04 L2326 1543.34 Q2328.08 1544.47 2330.3 1545.03 Q2332.52 1545.58 2335 1545.58 Q2339.01 1545.58 2341.34 1543.48 Q2343.68 1541.37 2343.68 1537.76 Q2343.68 1534.15 2341.34 1532.04 Q2339.01 1529.94 2335 1529.94 Q2333.13 1529.94 2331.25 1530.35 Q2329.4 1530.77 2327.46 1531.65 L2327.46 1514.29 Z" fill="#000000" fill-rule="nonzero" fill-opacity="1" /><path clip-path="url(#clip630)" d="M2367.57 1517.37 Q2363.96 1517.37 2362.13 1520.93 Q2360.33 1524.47 2360.33 1531.6 Q2360.33 1538.71 2362.13 1542.27 Q2363.96 1545.82 2367.57 1545.82 Q2371.2 1545.82 2373.01 1542.27 Q2374.84 1538.71 2374.84 1531.6 Q2374.84 1524.47 2373.01 1520.93 Q2371.2 1517.37 2367.57 1517.37 M2367.57 1513.66 Q2373.38 1513.66 2376.44 1518.27 Q2379.52 1522.85 2379.52 1531.6 Q2379.52 1540.33 2376.44 1544.94 Q2373.38 1549.52 2367.57 1549.52 Q2361.76 1549.52 2358.68 1544.94 Q2355.63 1540.33 2355.63 1531.6 Q2355.63 1522.85 2358.68 1518.27 Q2361.76 1513.66 2367.57 1513.66 Z" fill="#000000" fill-rule="nonzero" fill-opacity="1" /><polyline clip-path="url(#clip630)" style="stroke:#000000; stroke-linecap:round; stroke-linejoin:round; stroke-width:4; stroke-opacity:1; fill:none" points="284.422,1486.45 284.422,47.2441 "/>
<polyline clip-path="url(#clip630)" style="stroke:#000000; stroke-linecap:round; stroke-linejoin:round; stroke-width:4; stroke-opacity:1; fill:none" points="284.422,1222.72 303.319,1222.72 "/>
<polyline clip-path="url(#clip630)" style="stroke:#000000; stroke-linecap:round; stroke-linejoin:round; stroke-width:4; stroke-opacity:1; fill:none" points="284.422,939.03 303.319,939.03 "/>
<polyline clip-path="url(#clip630)" style="stroke:#000000; stroke-linecap:round; stroke-linejoin:round; stroke-width:4; stroke-opacity:1; fill:none" points="284.422,655.344 303.319,655.344 "/>
<polyline clip-path="url(#clip630)" style="stroke:#000000; stroke-linecap:round; stroke-linejoin:round; stroke-width:4; stroke-opacity:1; fill:none" points="284.422,371.658 303.319,371.658 "/>
<polyline clip-path="url(#clip630)" style="stroke:#000000; stroke-linecap:round; stroke-linejoin:round; stroke-width:4; stroke-opacity:1; fill:none" points="284.422,87.9712 303.319,87.9712 "/>
<path clip-path="url(#clip630)" d="M50.9921 1223.17 L80.6679 1223.17 L80.6679 1227.1 L50.9921 1227.1 L50.9921 1223.17 Z" fill="#000000" fill-rule="nonzero" fill-opacity="1" /><path clip-path="url(#clip630)" d="M100.76 1208.52 Q97.1493 1208.52 95.3206 1212.08 Q93.515 1215.62 93.515 1222.75 Q93.515 1229.86 95.3206 1233.42 Q97.1493 1236.96 100.76 1236.96 Q104.395 1236.96 106.2 1233.42 Q108.029 1229.86 108.029 1222.75 Q108.029 1215.62 106.2 1212.08 Q104.395 1208.52 100.76 1208.52 M100.76 1204.81 Q106.571 1204.81 109.626 1209.42 Q112.705 1214 112.705 1222.75 Q112.705 1231.48 109.626 1236.08 Q106.571 1240.67 100.76 1240.67 Q94.9502 1240.67 91.8715 1236.08 Q88.816 1231.48 88.816 1222.75 Q88.816 1214 91.8715 1209.42 Q94.9502 1204.81 100.76 1204.81 Z" fill="#000000" fill-rule="nonzero" fill-opacity="1" /><path clip-path="url(#clip630)" d="M120.922 1234.12 L125.807 1234.12 L125.807 1240 L120.922 1240 L120.922 1234.12 Z" fill="#000000" fill-rule="nonzero" fill-opacity="1" /><path clip-path="url(#clip630)" d="M145.992 1208.52 Q142.381 1208.52 140.552 1212.08 Q138.746 1215.62 138.746 1222.75 Q138.746 1229.86 140.552 1233.42 Q142.381 1236.96 145.992 1236.96 Q149.626 1236.96 151.431 1233.42 Q153.26 1229.86 153.26 1222.75 Q153.26 1215.62 151.431 1212.08 Q149.626 1208.52 145.992 1208.52 M145.992 1204.81 Q151.802 1204.81 154.857 1209.42 Q157.936 1214 157.936 1222.75 Q157.936 1231.48 154.857 1236.08 Q151.802 1240.67 145.992 1240.67 Q140.181 1240.67 137.103 1236.08 Q134.047 1231.48 134.047 1222.75 Q134.047 1214 137.103 1209.42 Q140.181 1204.81 145.992 1204.81 Z" fill="#000000" fill-rule="nonzero" fill-opacity="1" /><path clip-path="url(#clip630)" d="M166.964 1236.06 L174.603 1236.06 L174.603 1209.7 L166.292 1211.36 L166.292 1207.1 L174.556 1205.44 L179.232 1205.44 L179.232 1236.06 L186.871 1236.06 L186.871 1240 L166.964 1240 L166.964 1236.06 Z" fill="#000000" fill-rule="nonzero" fill-opacity="1" /><path clip-path="url(#clip630)" d="M206.315 1208.52 Q202.704 1208.52 200.876 1212.08 Q199.07 1215.62 199.07 1222.75 Q199.07 1229.86 200.876 1233.42 Q202.704 1236.96 206.315 1236.96 Q209.95 1236.96 211.755 1233.42 Q213.584 1229.86 213.584 1222.75 Q213.584 1215.62 211.755 1212.08 Q209.95 1208.52 206.315 1208.52 M206.315 1204.81 Q212.126 1204.81 215.181 1209.42 Q218.26 1214 218.26 1222.75 Q218.26 1231.48 215.181 1236.08 Q212.126 1240.67 206.315 1240.67 Q200.505 1240.67 197.427 1236.08 Q194.371 1231.48 194.371 1222.75 Q194.371 1214 197.427 1209.42 Q200.505 1204.81 206.315 1204.81 Z" fill="#000000" fill-rule="nonzero" fill-opacity="1" /><path clip-path="url(#clip630)" d="M236.477 1208.52 Q232.866 1208.52 231.037 1212.08 Q229.232 1215.62 229.232 1222.75 Q229.232 1229.86 231.037 1233.42 Q232.866 1236.96 236.477 1236.96 Q240.111 1236.96 241.917 1233.42 Q243.746 1229.86 243.746 1222.75 Q243.746 1215.62 241.917 1212.08 Q240.111 1208.52 236.477 1208.52 M236.477 1204.81 Q242.287 1204.81 245.343 1209.42 Q248.422 1214 248.422 1222.75 Q248.422 1231.48 245.343 1236.08 Q242.287 1240.67 236.477 1240.67 Q230.667 1240.67 227.588 1236.08 Q224.533 1231.48 224.533 1222.75 Q224.533 1214 227.588 1209.42 Q230.667 1204.81 236.477 1204.81 Z" fill="#000000" fill-rule="nonzero" fill-opacity="1" /><path clip-path="url(#clip630)" d="M51.9875 939.482 L81.6633 939.482 L81.6633 943.417 L51.9875 943.417 L51.9875 939.482 Z" fill="#000000" fill-rule="nonzero" fill-opacity="1" /><path clip-path="url(#clip630)" d="M101.756 924.829 Q98.1447 924.829 96.316 928.394 Q94.5104 931.935 94.5104 939.065 Q94.5104 946.171 96.316 949.736 Q98.1447 953.278 101.756 953.278 Q105.39 953.278 107.196 949.736 Q109.024 946.171 109.024 939.065 Q109.024 931.935 107.196 928.394 Q105.39 924.829 101.756 924.829 M101.756 921.125 Q107.566 921.125 110.621 925.732 Q113.7 930.315 113.7 939.065 Q113.7 947.792 110.621 952.398 Q107.566 956.982 101.756 956.982 Q95.9456 956.982 92.8669 952.398 Q89.8114 947.792 89.8114 939.065 Q89.8114 930.315 92.8669 925.732 Q95.9456 921.125 101.756 921.125 Z" fill="#000000" fill-rule="nonzero" fill-opacity="1" /><path clip-path="url(#clip630)" d="M121.918 950.431 L126.802 950.431 L126.802 956.31 L121.918 956.31 L121.918 950.431 Z" fill="#000000" fill-rule="nonzero" fill-opacity="1" /><path clip-path="url(#clip630)" d="M146.987 924.829 Q143.376 924.829 141.547 928.394 Q139.742 931.935 139.742 939.065 Q139.742 946.171 141.547 949.736 Q143.376 953.278 146.987 953.278 Q150.621 953.278 152.427 949.736 Q154.255 946.171 154.255 939.065 Q154.255 931.935 152.427 928.394 Q150.621 924.829 146.987 924.829 M146.987 921.125 Q152.797 921.125 155.853 925.732 Q158.931 930.315 158.931 939.065 Q158.931 947.792 155.853 952.398 Q152.797 956.982 146.987 956.982 Q141.177 956.982 138.098 952.398 Q135.043 947.792 135.043 939.065 Q135.043 930.315 138.098 925.732 Q141.177 921.125 146.987 921.125 Z" fill="#000000" fill-rule="nonzero" fill-opacity="1" /><path clip-path="url(#clip630)" d="M177.149 924.829 Q173.538 924.829 171.709 928.394 Q169.904 931.935 169.904 939.065 Q169.904 946.171 171.709 949.736 Q173.538 953.278 177.149 953.278 Q180.783 953.278 182.589 949.736 Q184.417 946.171 184.417 939.065 Q184.417 931.935 182.589 928.394 Q180.783 924.829 177.149 924.829 M177.149 921.125 Q182.959 921.125 186.015 925.732 Q189.093 930.315 189.093 939.065 Q189.093 947.792 186.015 952.398 Q182.959 956.982 177.149 956.982 Q171.339 956.982 168.26 952.398 Q165.204 947.792 165.204 939.065 Q165.204 930.315 168.26 925.732 Q171.339 921.125 177.149 921.125 Z" fill="#000000" fill-rule="nonzero" fill-opacity="1" /><path clip-path="url(#clip630)" d="M196.13 921.75 L218.352 921.75 L218.352 923.741 L205.806 956.31 L200.922 956.31 L212.727 925.685 L196.13 925.685 L196.13 921.75 Z" fill="#000000" fill-rule="nonzero" fill-opacity="1" /><path clip-path="url(#clip630)" d="M227.519 921.75 L245.875 921.75 L245.875 925.685 L231.801 925.685 L231.801 934.158 Q232.82 933.81 233.838 933.648 Q234.857 933.463 235.875 933.463 Q241.662 933.463 245.042 936.634 Q248.422 939.806 248.422 945.222 Q248.422 950.801 244.949 953.903 Q241.477 956.982 235.158 956.982 Q232.982 956.982 230.713 956.611 Q228.468 956.241 226.061 955.5 L226.061 950.801 Q228.144 951.935 230.366 952.491 Q232.588 953.046 235.065 953.046 Q239.07 953.046 241.408 950.94 Q243.746 948.833 243.746 945.222 Q243.746 941.611 241.408 939.505 Q239.07 937.398 235.065 937.398 Q233.19 937.398 231.315 937.815 Q229.463 938.232 227.519 939.111 L227.519 921.75 Z" fill="#000000" fill-rule="nonzero" fill-opacity="1" /><path clip-path="url(#clip630)" d="M50.9921 655.795 L80.6679 655.795 L80.6679 659.73 L50.9921 659.73 L50.9921 655.795 Z" fill="#000000" fill-rule="nonzero" fill-opacity="1" /><path clip-path="url(#clip630)" d="M100.76 641.143 Q97.1493 641.143 95.3206 644.707 Q93.515 648.249 93.515 655.379 Q93.515 662.485 95.3206 666.05 Q97.1493 669.592 100.76 669.592 Q104.395 669.592 106.2 666.05 Q108.029 662.485 108.029 655.379 Q108.029 648.249 106.2 644.707 Q104.395 641.143 100.76 641.143 M100.76 637.439 Q106.571 637.439 109.626 642.045 Q112.705 646.629 112.705 655.379 Q112.705 664.105 109.626 668.712 Q106.571 673.295 100.76 673.295 Q94.9502 673.295 91.8715 668.712 Q88.816 664.105 88.816 655.379 Q88.816 646.629 91.8715 642.045 Q94.9502 637.439 100.76 637.439 Z" fill="#000000" fill-rule="nonzero" fill-opacity="1" /><path clip-path="url(#clip630)" d="M120.922 666.744 L125.807 666.744 L125.807 672.624 L120.922 672.624 L120.922 666.744 Z" fill="#000000" fill-rule="nonzero" fill-opacity="1" /><path clip-path="url(#clip630)" d="M145.992 641.143 Q142.381 641.143 140.552 644.707 Q138.746 648.249 138.746 655.379 Q138.746 662.485 140.552 666.05 Q142.381 669.592 145.992 669.592 Q149.626 669.592 151.431 666.05 Q153.26 662.485 153.26 655.379 Q153.26 648.249 151.431 644.707 Q149.626 641.143 145.992 641.143 M145.992 637.439 Q151.802 637.439 154.857 642.045 Q157.936 646.629 157.936 655.379 Q157.936 664.105 154.857 668.712 Q151.802 673.295 145.992 673.295 Q140.181 673.295 137.103 668.712 Q134.047 664.105 134.047 655.379 Q134.047 646.629 137.103 642.045 Q140.181 637.439 145.992 637.439 Z" fill="#000000" fill-rule="nonzero" fill-opacity="1" /><path clip-path="url(#clip630)" d="M176.153 641.143 Q172.542 641.143 170.714 644.707 Q168.908 648.249 168.908 655.379 Q168.908 662.485 170.714 666.05 Q172.542 669.592 176.153 669.592 Q179.788 669.592 181.593 666.05 Q183.422 662.485 183.422 655.379 Q183.422 648.249 181.593 644.707 Q179.788 641.143 176.153 641.143 M176.153 637.439 Q181.964 637.439 185.019 642.045 Q188.098 646.629 188.098 655.379 Q188.098 664.105 185.019 668.712 Q181.964 673.295 176.153 673.295 Q170.343 673.295 167.265 668.712 Q164.209 664.105 164.209 655.379 Q164.209 646.629 167.265 642.045 Q170.343 637.439 176.153 637.439 Z" fill="#000000" fill-rule="nonzero" fill-opacity="1" /><path clip-path="url(#clip630)" d="M196.362 638.064 L214.718 638.064 L214.718 641.999 L200.644 641.999 L200.644 650.471 Q201.663 650.124 202.681 649.962 Q203.7 649.777 204.718 649.777 Q210.505 649.777 213.885 652.948 Q217.264 656.119 217.264 661.536 Q217.264 667.115 213.792 670.217 Q210.32 673.295 204.001 673.295 Q201.825 673.295 199.556 672.925 Q197.311 672.554 194.903 671.814 L194.903 667.115 Q196.987 668.249 199.209 668.805 Q201.431 669.36 203.908 669.36 Q207.913 669.36 210.251 667.254 Q212.588 665.147 212.588 661.536 Q212.588 657.925 210.251 655.818 Q207.913 653.712 203.908 653.712 Q202.033 653.712 200.158 654.129 Q198.306 654.545 196.362 655.425 L196.362 638.064 Z" fill="#000000" fill-rule="nonzero" fill-opacity="1" /><path clip-path="url(#clip630)" d="M236.477 641.143 Q232.866 641.143 231.037 644.707 Q229.232 648.249 229.232 655.379 Q229.232 662.485 231.037 666.05 Q232.866 669.592 236.477 669.592 Q240.111 669.592 241.917 666.05 Q243.746 662.485 243.746 655.379 Q243.746 648.249 241.917 644.707 Q240.111 641.143 236.477 641.143 M236.477 637.439 Q242.287 637.439 245.343 642.045 Q248.422 646.629 248.422 655.379 Q248.422 664.105 245.343 668.712 Q242.287 673.295 236.477 673.295 Q230.667 673.295 227.588 668.712 Q224.533 664.105 224.533 655.379 Q224.533 646.629 227.588 642.045 Q230.667 637.439 236.477 637.439 Z" fill="#000000" fill-rule="nonzero" fill-opacity="1" /><path clip-path="url(#clip630)" d="M51.9875 372.109 L81.6633 372.109 L81.6633 376.044 L51.9875 376.044 L51.9875 372.109 Z" fill="#000000" fill-rule="nonzero" fill-opacity="1" /><path clip-path="url(#clip630)" d="M101.756 357.456 Q98.1447 357.456 96.316 361.021 Q94.5104 364.563 94.5104 371.692 Q94.5104 378.799 96.316 382.364 Q98.1447 385.905 101.756 385.905 Q105.39 385.905 107.196 382.364 Q109.024 378.799 109.024 371.692 Q109.024 364.563 107.196 361.021 Q105.39 357.456 101.756 357.456 M101.756 353.753 Q107.566 353.753 110.621 358.359 Q113.7 362.942 113.7 371.692 Q113.7 380.419 110.621 385.026 Q107.566 389.609 101.756 389.609 Q95.9456 389.609 92.8669 385.026 Q89.8114 380.419 89.8114 371.692 Q89.8114 362.942 92.8669 358.359 Q95.9456 353.753 101.756 353.753 Z" fill="#000000" fill-rule="nonzero" fill-opacity="1" /><path clip-path="url(#clip630)" d="M121.918 383.058 L126.802 383.058 L126.802 388.938 L121.918 388.938 L121.918 383.058 Z" fill="#000000" fill-rule="nonzero" fill-opacity="1" /><path clip-path="url(#clip630)" d="M146.987 357.456 Q143.376 357.456 141.547 361.021 Q139.742 364.563 139.742 371.692 Q139.742 378.799 141.547 382.364 Q143.376 385.905 146.987 385.905 Q150.621 385.905 152.427 382.364 Q154.255 378.799 154.255 371.692 Q154.255 364.563 152.427 361.021 Q150.621 357.456 146.987 357.456 M146.987 353.753 Q152.797 353.753 155.853 358.359 Q158.931 362.942 158.931 371.692 Q158.931 380.419 155.853 385.026 Q152.797 389.609 146.987 389.609 Q141.177 389.609 138.098 385.026 Q135.043 380.419 135.043 371.692 Q135.043 362.942 138.098 358.359 Q141.177 353.753 146.987 353.753 Z" fill="#000000" fill-rule="nonzero" fill-opacity="1" /><path clip-path="url(#clip630)" d="M177.149 357.456 Q173.538 357.456 171.709 361.021 Q169.904 364.563 169.904 371.692 Q169.904 378.799 171.709 382.364 Q173.538 385.905 177.149 385.905 Q180.783 385.905 182.589 382.364 Q184.417 378.799 184.417 371.692 Q184.417 364.563 182.589 361.021 Q180.783 357.456 177.149 357.456 M177.149 353.753 Q182.959 353.753 186.015 358.359 Q189.093 362.942 189.093 371.692 Q189.093 380.419 186.015 385.026 Q182.959 389.609 177.149 389.609 Q171.339 389.609 168.26 385.026 Q165.204 380.419 165.204 371.692 Q165.204 362.942 168.26 358.359 Q171.339 353.753 177.149 353.753 Z" fill="#000000" fill-rule="nonzero" fill-opacity="1" /><path clip-path="url(#clip630)" d="M201.339 385.002 L217.658 385.002 L217.658 388.938 L195.714 388.938 L195.714 385.002 Q198.376 382.248 202.959 377.618 Q207.565 372.965 208.746 371.623 Q210.991 369.1 211.871 367.364 Q212.774 365.604 212.774 363.915 Q212.774 361.16 210.829 359.424 Q208.908 357.688 205.806 357.688 Q203.607 357.688 201.153 358.452 Q198.723 359.216 195.945 360.766 L195.945 356.044 Q198.769 354.91 201.223 354.331 Q203.676 353.753 205.714 353.753 Q211.084 353.753 214.278 356.438 Q217.473 359.123 217.473 363.614 Q217.473 365.743 216.663 367.665 Q215.876 369.563 213.769 372.155 Q213.19 372.827 210.088 376.044 Q206.987 379.239 201.339 385.002 Z" fill="#000000" fill-rule="nonzero" fill-opacity="1" /><path clip-path="url(#clip630)" d="M227.519 354.378 L245.875 354.378 L245.875 358.313 L231.801 358.313 L231.801 366.785 Q232.82 366.438 233.838 366.276 Q234.857 366.09 235.875 366.09 Q241.662 366.09 245.042 369.262 Q248.422 372.433 248.422 377.85 Q248.422 383.428 244.949 386.53 Q241.477 389.609 235.158 389.609 Q232.982 389.609 230.713 389.238 Q228.468 388.868 226.061 388.127 L226.061 383.428 Q228.144 384.563 230.366 385.118 Q232.588 385.674 235.065 385.674 Q239.07 385.674 241.408 383.567 Q243.746 381.461 243.746 377.85 Q243.746 374.239 241.408 372.132 Q239.07 370.026 235.065 370.026 Q233.19 370.026 231.315 370.442 Q229.463 370.859 227.519 371.739 L227.519 354.378 Z" fill="#000000" fill-rule="nonzero" fill-opacity="1" /><path clip-path="url(#clip630)" d="M100.76 73.7699 Q97.1493 73.7699 95.3206 77.3347 Q93.515 80.8763 93.515 88.0059 Q93.515 95.1124 95.3206 98.6772 Q97.1493 102.219 100.76 102.219 Q104.395 102.219 106.2 98.6772 Q108.029 95.1124 108.029 88.0059 Q108.029 80.8763 106.2 77.3347 Q104.395 73.7699 100.76 73.7699 M100.76 70.0662 Q106.571 70.0662 109.626 74.6727 Q112.705 79.256 112.705 88.0059 Q112.705 96.7327 109.626 101.339 Q106.571 105.923 100.76 105.923 Q94.9502 105.923 91.8715 101.339 Q88.816 96.7327 88.816 88.0059 Q88.816 79.256 91.8715 74.6727 Q94.9502 70.0662 100.76 70.0662 Z" fill="#000000" fill-rule="nonzero" fill-opacity="1" /><path clip-path="url(#clip630)" d="M120.922 99.3716 L125.807 99.3716 L125.807 105.251 L120.922 105.251 L120.922 99.3716 Z" fill="#000000" fill-rule="nonzero" fill-opacity="1" /><path clip-path="url(#clip630)" d="M145.992 73.7699 Q142.381 73.7699 140.552 77.3347 Q138.746 80.8763 138.746 88.0059 Q138.746 95.1124 140.552 98.6772 Q142.381 102.219 145.992 102.219 Q149.626 102.219 151.431 98.6772 Q153.26 95.1124 153.26 88.0059 Q153.26 80.8763 151.431 77.3347 Q149.626 73.7699 145.992 73.7699 M145.992 70.0662 Q151.802 70.0662 154.857 74.6727 Q157.936 79.256 157.936 88.0059 Q157.936 96.7327 154.857 101.339 Q151.802 105.923 145.992 105.923 Q140.181 105.923 137.103 101.339 Q134.047 96.7327 134.047 88.0059 Q134.047 79.256 137.103 74.6727 Q140.181 70.0662 145.992 70.0662 Z" fill="#000000" fill-rule="nonzero" fill-opacity="1" /><path clip-path="url(#clip630)" d="M176.153 73.7699 Q172.542 73.7699 170.714 77.3347 Q168.908 80.8763 168.908 88.0059 Q168.908 95.1124 170.714 98.6772 Q172.542 102.219 176.153 102.219 Q179.788 102.219 181.593 98.6772 Q183.422 95.1124 183.422 88.0059 Q183.422 80.8763 181.593 77.3347 Q179.788 73.7699 176.153 73.7699 M176.153 70.0662 Q181.964 70.0662 185.019 74.6727 Q188.098 79.256 188.098 88.0059 Q188.098 96.7327 185.019 101.339 Q181.964 105.923 176.153 105.923 Q170.343 105.923 167.265 101.339 Q164.209 96.7327 164.209 88.0059 Q164.209 79.256 167.265 74.6727 Q170.343 70.0662 176.153 70.0662 Z" fill="#000000" fill-rule="nonzero" fill-opacity="1" /><path clip-path="url(#clip630)" d="M206.315 73.7699 Q202.704 73.7699 200.876 77.3347 Q199.07 80.8763 199.07 88.0059 Q199.07 95.1124 200.876 98.6772 Q202.704 102.219 206.315 102.219 Q209.95 102.219 211.755 98.6772 Q213.584 95.1124 213.584 88.0059 Q213.584 80.8763 211.755 77.3347 Q209.95 73.7699 206.315 73.7699 M206.315 70.0662 Q212.126 70.0662 215.181 74.6727 Q218.26 79.256 218.26 88.0059 Q218.26 96.7327 215.181 101.339 Q212.126 105.923 206.315 105.923 Q200.505 105.923 197.427 101.339 Q194.371 96.7327 194.371 88.0059 Q194.371 79.256 197.427 74.6727 Q200.505 70.0662 206.315 70.0662 Z" fill="#000000" fill-rule="nonzero" fill-opacity="1" /><path clip-path="url(#clip630)" d="M236.477 73.7699 Q232.866 73.7699 231.037 77.3347 Q229.232 80.8763 229.232 88.0059 Q229.232 95.1124 231.037 98.6772 Q232.866 102.219 236.477 102.219 Q240.111 102.219 241.917 98.6772 Q243.746 95.1124 243.746 88.0059 Q243.746 80.8763 241.917 77.3347 Q240.111 73.7699 236.477 73.7699 M236.477 70.0662 Q242.287 70.0662 245.343 74.6727 Q248.422 79.256 248.422 88.0059 Q248.422 96.7327 245.343 101.339 Q242.287 105.923 236.477 105.923 Q230.667 105.923 227.588 101.339 Q224.533 96.7327 224.533 88.0059 Q224.533 79.256 227.588 74.6727 Q230.667 70.0662 236.477 70.0662 Z" fill="#000000" fill-rule="nonzero" fill-opacity="1" /><polyline clip-path="url(#clip632)" style="stroke:#009af9; stroke-linecap:round; stroke-linejoin:round; stroke-width:4; stroke-opacity:1; fill:none" points="284.422,87.9763 305.774,87.9797 430.836,88.1069 489.015,88.4075 566.996,89.8145 599.215,91.1786 631.433,93.4184 661.393,96.6932 691.352,101.647 710.157,105.914 728.962,111.319 747.767,118.102 766.572,126.536 783.44,135.754 800.308,146.784 817.176,159.879 834.045,175.308 843.699,185.293 853.352,196.184 863.006,208.032 872.66,220.887 882.314,234.798 891.968,249.813 901.622,265.974 911.276,283.324 925.709,311.555 940.141,342.623 954.574,376.599 969.006,413.519 978.236,438.673 987.466,465.019 996.696,492.538 1005.93,521.201 1015.16,550.973 1024.39,581.806 1033.61,613.644 1042.84,646.422 1059.69,708.421 1076.54,772.745 1093.39,838.74 1110.24,905.651 1129.41,981.843 1148.59,1056.77 1158.18,1093.31 1167.76,1129 1177.35,1163.63 1186.94,1197.03 1194.54,1222.51 1202.14,1247.01 1209.74,1270.44 1217.34,1292.71 1224.94,1313.75 1232.54,1333.48 1240.14,1351.81 1247.74,1368.68 1257.18,1387.51 1266.63,1403.87 1276.07,1417.67 1285.51,1428.81 1294.95,1437.23 1304.4,1442.87 1313.84,1445.71 1323.28,1445.72 1330.51,1443.81 1337.74,1440.25 1344.97,1435.06 1352.21,1428.24 1359.44,1419.84 1366.67,1409.86 1373.9,1398.36 1381.13,1385.37 1391.33,1364.63 1401.52,1341.17 1411.72,1315.15 1421.91,1286.76 1432.11,1256.18 1442.3,1223.62 1452.5,1189.28 1462.69,1153.4 1477.93,1097.35 1493.17,1039.07 1508.41,979.313 1523.64,918.785 1540.97,849.888 1558.3,781.818 1575.63,715.41 1592.96,651.389 1601.54,620.763 1610.12,590.935 1618.7,561.961 1627.28,533.887 1635.86,506.756 1644.44,480.598 1653.02,455.442 1661.6,431.306 1671.04,405.946 1680.48,381.847 1689.92,359.009 1699.36,337.426 1708.8,317.083 1718.24,297.962 1727.68,280.036 1737.12,263.275 1751.54,239.837 1765.96,218.896 1780.38,200.294 1794.81,183.868 1813,165.98 1831.2,150.94 1849.4,138.407 1867.6,128.057 1884.43,120.163 1901.26,113.653 1918.09,108.324 1934.93,103.994 1969.64,97.552 2004.36,93.5408 2039.55,91.094 2074.74,89.6722 2148.23,88.4069 2206.12,88.1075 2337.96,87.9784 2352.76,87.9763 "/>
<path clip-path="url(#clip630)" d="M2024.55 1438.47 L2283.81 1438.47 L2283.81 1334.79 L2024.55 1334.79  Z" fill="#ffffff" fill-rule="evenodd" fill-opacity="1"/>
<polyline clip-path="url(#clip630)" style="stroke:#000000; stroke-linecap:round; stroke-linejoin:round; stroke-width:4; stroke-opacity:1; fill:none" points="2024.55,1438.47 2283.81,1438.47 2283.81,1334.79 2024.55,1334.79 2024.55,1438.47 "/>
<polyline clip-path="url(#clip630)" style="stroke:#009af9; stroke-linecap:round; stroke-linejoin:round; stroke-width:4; stroke-opacity:1; fill:none" points="2047.53,1386.63 2185.42,1386.63 "/>
<path clip-path="url(#clip630)" d="M2222.24 1406.32 Q2220.44 1410.95 2218.72 1412.36 Q2217.01 1413.78 2214.14 1413.78 L2210.74 1413.78 L2210.74 1410.21 L2213.24 1410.21 Q2215 1410.21 2215.97 1409.38 Q2216.94 1408.54 2218.12 1405.44 L2218.89 1403.5 L2208.4 1377.99 L2212.91 1377.99 L2221.02 1398.27 L2229.12 1377.99 L2233.63 1377.99 L2222.24 1406.32 Z" fill="#000000" fill-rule="nonzero" fill-opacity="1" /><path clip-path="url(#clip630)" d="M2240.92 1399.98 L2248.56 1399.98 L2248.56 1373.61 L2240.25 1375.28 L2240.25 1371.02 L2248.52 1369.35 L2253.19 1369.35 L2253.19 1399.98 L2260.83 1399.98 L2260.83 1403.91 L2240.92 1403.91 L2240.92 1399.98 Z" fill="#000000" fill-rule="nonzero" fill-opacity="1" /></svg>
