<?xml version="1.0" encoding="utf-8"?>
<svg xmlns="http://www.w3.org/2000/svg" xmlns:xlink="http://www.w3.org/1999/xlink" width="600" height="400" viewBox="0 0 2400 1600">
<defs>
  <clipPath id="clip520">
    <rect x="0" y="0" width="2400" height="1600"/>
  </clipPath>
</defs>
<path clip-path="url(#clip520)" d="M0 1600 L2400 1600 L2400 0 L0 0  Z" fill="#ffffff" fill-rule="evenodd" fill-opacity="1"/>
<defs>
  <clipPath id="clip521">
    <rect x="480" y="0" width="1681" height="1600"/>
  </clipPath>
</defs>
<path clip-path="url(#clip520)" d="M189.496 1486.45 L2352.76 1486.45 L2352.76 47.2441 L189.496 47.2441  Z" fill="#ffffff" fill-rule="evenodd" fill-opacity="1"/>
<defs>
  <clipPath id="clip522">
    <rect x="189" y="47" width="2164" height="1440"/>
  </clipPath>
</defs>
<polyline clip-path="url(#clip522)" style="stroke:#000000; stroke-linecap:round; stroke-linejoin:round; stroke-width:2; stroke-opacity:0.1; fill:none" points="542.265,1486.45 542.265,47.2441 "/>
<polyline clip-path="url(#clip522)" style="stroke:#000000; stroke-linecap:round; stroke-linejoin:round; stroke-width:2; stroke-opacity:0.1; fill:none" points="1125.35,1486.45 1125.35,47.2441 "/>
<polyline clip-path="url(#clip522)" style="stroke:#000000; stroke-linecap:round; stroke-linejoin:round; stroke-width:2; stroke-opacity:0.1; fill:none" points="1708.44,1486.45 1708.44,47.2441 "/>
<polyline clip-path="url(#clip522)" style="stroke:#000000; stroke-linecap:round; stroke-linejoin:round; stroke-width:2; stroke-opacity:0.1; fill:none" points="2291.53,1486.45 2291.53,47.2441 "/>
<polyline clip-path="url(#clip520)" style="stroke:#000000; stroke-linecap:round; stroke-linejoin:round; stroke-width:4; stroke-opacity:1; fill:none" points="189.496,1486.45 2352.76,1486.45 "/>
<polyline clip-path="url(#clip520)" style="stroke:#000000; stroke-linecap:round; stroke-linejoin:round; stroke-width:4; stroke-opacity:1; fill:none" points="542.265,1486.45 542.265,1467.55 "/>
<polyline clip-path="url(#clip520)" style="stroke:#000000; stroke-linecap:round; stroke-linejoin:round; stroke-width:4; stroke-opacity:1; fill:none" points="1125.35,1486.45 1125.35,1467.55 "/>
<polyline clip-path="url(#clip520)" style="stroke:#000000; stroke-linecap:round; stroke-linejoin:round; stroke-width:4; stroke-opacity:1; fill:none" points="1708.44,1486.45 1708.44,1467.55 "/>
<polyline clip-path="url(#clip520)" style="stroke:#000000; stroke-linecap:round; stroke-linejoin:round; stroke-width:4; stroke-opacity:1; fill:none" points="2291.53,1486.45 2291.53,1467.55 "/>
<path clip-path="url(#clip520)" d="M536.918 1544.91 L553.237 1544.91 L553.237 1548.85 L531.293 1548.85 L531.293 1544.91 Q533.955 1542.16 538.538 1537.53 Q543.144 1532.88 544.325 1531.53 Q546.57 1529.01 547.45 1527.27 Q548.353 1525.51 548.353 1523.82 Q548.353 1521.07 546.408 1519.33 Q544.487 1517.6 541.385 1517.6 Q539.186 1517.6 536.732 1518.36 Q534.302 1519.13 531.524 1520.68 L531.524 1515.95 Q534.348 1514.82 536.802 1514.24 Q539.255 1513.66 541.293 1513.66 Q546.663 1513.66 549.857 1516.35 Q553.052 1519.03 553.052 1523.52 Q553.052 1525.65 552.242 1527.57 Q551.454 1529.47 549.348 1532.07 Q548.769 1532.74 545.667 1535.95 Q542.566 1539.15 536.918 1544.91 Z" fill="#000000" fill-rule="nonzero" fill-opacity="1" /><path clip-path="url(#clip520)" d="M1128.36 1518.36 L1116.56 1536.81 L1128.36 1536.81 L1128.36 1518.36 M1127.14 1514.29 L1133.02 1514.29 L1133.02 1536.81 L1137.95 1536.81 L1137.95 1540.7 L1133.02 1540.7 L1133.02 1548.85 L1128.36 1548.85 L1128.36 1540.7 L1112.76 1540.7 L1112.76 1536.19 L1127.14 1514.29 Z" fill="#000000" fill-rule="nonzero" fill-opacity="1" /><path clip-path="url(#clip520)" d="M1708.85 1529.7 Q1705.7 1529.7 1703.85 1531.86 Q1702.02 1534.01 1702.02 1537.76 Q1702.02 1541.49 1703.85 1543.66 Q1705.7 1545.82 1708.85 1545.82 Q1712 1545.82 1713.82 1543.66 Q1715.68 1541.49 1715.68 1537.76 Q1715.68 1534.01 1713.82 1531.86 Q1712 1529.7 1708.85 1529.7 M1718.13 1515.05 L1718.13 1519.31 Q1716.37 1518.48 1714.57 1518.04 Q1712.78 1517.6 1711.02 1517.6 Q1706.39 1517.6 1703.94 1520.72 Q1701.51 1523.85 1701.16 1530.17 Q1702.53 1528.15 1704.59 1527.09 Q1706.65 1526 1709.13 1526 Q1714.33 1526 1717.34 1529.17 Q1720.38 1532.32 1720.38 1537.76 Q1720.38 1543.08 1717.23 1546.3 Q1714.08 1549.52 1708.85 1549.52 Q1702.85 1549.52 1699.68 1544.94 Q1696.51 1540.33 1696.51 1531.6 Q1696.51 1523.41 1700.4 1518.55 Q1704.29 1513.66 1710.84 1513.66 Q1712.6 1513.66 1714.38 1514.01 Q1716.19 1514.36 1718.13 1515.05 Z" fill="#000000" fill-rule="nonzero" fill-opacity="1" /><path clip-path="url(#clip520)" d="M2291.53 1532.44 Q2288.2 1532.44 2286.28 1534.22 Q2284.38 1536 2284.38 1539.13 Q2284.38 1542.25 2286.28 1544.03 Q2288.2 1545.82 2291.53 1545.82 Q2294.86 1545.82 2296.79 1544.03 Q2298.71 1542.23 2298.71 1539.13 Q2298.71 1536 2296.79 1534.22 Q2294.89 1532.44 2291.53 1532.44 M2286.86 1530.45 Q2283.85 1529.7 2282.16 1527.64 Q2280.49 1525.58 2280.49 1522.62 Q2280.49 1518.48 2283.43 1516.07 Q2286.39 1513.66 2291.53 1513.66 Q2296.69 1513.66 2299.63 1516.07 Q2302.57 1518.48 2302.57 1522.62 Q2302.57 1525.58 2300.88 1527.64 Q2299.22 1529.7 2296.23 1530.45 Q2299.61 1531.23 2301.49 1533.52 Q2303.38 1535.82 2303.38 1539.13 Q2303.38 1544.15 2300.3 1546.83 Q2297.25 1549.52 2291.53 1549.52 Q2285.81 1549.52 2282.74 1546.83 Q2279.68 1544.15 2279.68 1539.13 Q2279.68 1535.82 2281.58 1533.52 Q2283.48 1531.23 2286.86 1530.45 M2285.14 1523.06 Q2285.14 1525.75 2286.81 1527.25 Q2288.5 1528.76 2291.53 1528.76 Q2294.54 1528.76 2296.23 1527.25 Q2297.94 1525.75 2297.94 1523.06 Q2297.94 1520.38 2296.23 1518.87 Q2294.54 1517.37 2291.53 1517.37 Q2288.5 1517.37 2286.81 1518.87 Q2285.14 1520.38 2285.14 1523.06 Z" fill="#000000" fill-rule="nonzero" fill-opacity="1" /><polyline clip-path="url(#clip522)" style="stroke:#000000; stroke-linecap:round; stroke-linejoin:round; stroke-width:2; stroke-opacity:0.1; fill:none" points="189.496,1339.72 2352.76,1339.72 "/>
<polyline clip-path="url(#clip522)" style="stroke:#000000; stroke-linecap:round; stroke-linejoin:round; stroke-width:2; stroke-opacity:0.1; fill:none" points="189.496,1029.65 2352.76,1029.65 "/>
<polyline clip-path="url(#clip522)" style="stroke:#000000; stroke-linecap:round; stroke-linejoin:round; stroke-width:2; stroke-opacity:0.1; fill:none" points="189.496,719.584 2352.76,719.584 "/>
<polyline clip-path="url(#clip522)" style="stroke:#000000; stroke-linecap:round; stroke-linejoin:round; stroke-width:2; stroke-opacity:0.1; fill:none" points="189.496,409.517 2352.76,409.517 "/>
<polyline clip-path="url(#clip522)" style="stroke:#000000; stroke-linecap:round; stroke-linejoin:round; stroke-width:2; stroke-opacity:0.1; fill:none" points="189.496,99.4505 2352.76,99.4505 "/>
<polyline clip-path="url(#clip520)" style="stroke:#000000; stroke-linecap:round; stroke-linejoin:round; stroke-width:4; stroke-opacity:1; fill:none" points="189.496,1486.45 189.496,47.2441 "/>
<polyline clip-path="url(#clip520)" style="stroke:#000000; stroke-linecap:round; stroke-linejoin:round; stroke-width:4; stroke-opacity:1; fill:none" points="189.496,1339.72 208.394,1339.72 "/>
<polyline clip-path="url(#clip520)" style="stroke:#000000; stroke-linecap:round; stroke-linejoin:round; stroke-width:4; stroke-opacity:1; fill:none" points="189.496,1029.65 208.394,1029.65 "/>
<polyline clip-path="url(#clip520)" style="stroke:#000000; stroke-linecap:round; stroke-linejoin:round; stroke-width:4; stroke-opacity:1; fill:none" points="189.496,719.584 208.394,719.584 "/>
<polyline clip-path="url(#clip520)" style="stroke:#000000; stroke-linecap:round; stroke-linejoin:round; stroke-width:4; stroke-opacity:1; fill:none" points="189.496,409.517 208.394,409.517 "/>
<polyline clip-path="url(#clip520)" style="stroke:#000000; stroke-linecap:round; stroke-linejoin:round; stroke-width:4; stroke-opacity:1; fill:none" points="189.496,99.4505 208.394,99.4505 "/>
<path clip-path="url(#clip520)" d="M51.6634 1359.51 L59.3023 1359.51 L59.3023 1333.14 L50.9921 1334.81 L50.9921 1330.55 L59.256 1328.89 L63.9319 1328.89 L63.9319 1359.51 L71.5707 1359.51 L71.5707 1363.45 L51.6634 1363.45 L51.6634 1359.51 Z" fill="#000000" fill-rule="nonzero" fill-opacity="1" /><path clip-path="url(#clip520)" d="M91.0151 1331.96 Q87.404 1331.96 85.5753 1335.53 Q83.7697 1339.07 83.7697 1346.2 Q83.7697 1353.31 85.5753 1356.87 Q87.404 1360.41 91.0151 1360.41 Q94.6493 1360.41 96.4548 1356.87 Q98.2835 1353.31 98.2835 1346.2 Q98.2835 1339.07 96.4548 1335.53 Q94.6493 1331.96 91.0151 1331.96 M91.0151 1328.26 Q96.8252 1328.26 99.8808 1332.87 Q102.959 1337.45 102.959 1346.2 Q102.959 1354.93 99.8808 1359.53 Q96.8252 1364.12 91.0151 1364.12 Q85.2049 1364.12 82.1262 1359.53 Q79.0707 1354.93 79.0707 1346.2 Q79.0707 1337.45 82.1262 1332.87 Q85.2049 1328.26 91.0151 1328.26 Z" fill="#000000" fill-rule="nonzero" fill-opacity="1" /><path clip-path="url(#clip520)" d="M102.959 1322.36 L127.071 1322.36 L127.071 1325.56 L102.959 1325.56 L102.959 1322.36 Z" fill="#000000" fill-rule="nonzero" fill-opacity="1" /><path clip-path="url(#clip520)" d="M145.71 1311.27 L136.118 1326.25 L145.71 1326.25 L145.71 1311.27 M144.713 1307.95 L149.49 1307.95 L149.49 1326.25 L153.496 1326.25 L153.496 1329.41 L149.49 1329.41 L149.49 1336.03 L145.71 1336.03 L145.71 1329.41 L133.033 1329.41 L133.033 1325.75 L144.713 1307.95 Z" fill="#000000" fill-rule="nonzero" fill-opacity="1" /><path clip-path="url(#clip520)" d="M52.585 1049.44 L60.2238 1049.44 L60.2238 1023.08 L51.9137 1024.74 L51.9137 1020.49 L60.1776 1018.82 L64.8535 1018.82 L64.8535 1049.44 L72.4923 1049.44 L72.4923 1053.38 L52.585 1053.38 L52.585 1049.44 Z" fill="#000000" fill-rule="nonzero" fill-opacity="1" /><path clip-path="url(#clip520)" d="M91.9366 1021.9 Q88.3255 1021.9 86.4969 1025.46 Q84.6913 1029 84.6913 1036.13 Q84.6913 1043.24 86.4969 1046.8 Q88.3255 1050.35 91.9366 1050.35 Q95.5709 1050.35 97.3764 1046.8 Q99.2051 1043.24 99.2051 1036.13 Q99.2051 1029 97.3764 1025.46 Q95.5709 1021.9 91.9366 1021.9 M91.9366 1018.19 Q97.7468 1018.19 100.802 1022.8 Q103.881 1027.38 103.881 1036.13 Q103.881 1044.86 100.802 1049.47 Q97.7468 1054.05 91.9366 1054.05 Q86.1265 1054.05 83.0478 1049.47 Q79.9923 1044.86 79.9923 1036.13 Q79.9923 1027.38 83.0478 1022.8 Q86.1265 1018.19 91.9366 1018.19 Z" fill="#000000" fill-rule="nonzero" fill-opacity="1" /><path clip-path="url(#clip520)" d="M103.881 1012.29 L127.993 1012.29 L127.993 1015.49 L103.881 1015.49 L103.881 1012.29 Z" fill="#000000" fill-rule="nonzero" fill-opacity="1" /><path clip-path="url(#clip520)" d="M147.703 1010.83 Q150.43 1011.41 151.954 1013.25 Q153.496 1015.1 153.496 1017.81 Q153.496 1021.96 150.637 1024.24 Q147.778 1026.51 142.512 1026.51 Q140.744 1026.51 138.863 1026.16 Q137.002 1025.82 135.008 1025.12 L135.008 1021.45 Q136.588 1022.38 138.469 1022.85 Q140.349 1023.32 142.399 1023.32 Q145.973 1023.32 147.835 1021.91 Q149.716 1020.5 149.716 1017.81 Q149.716 1015.32 147.966 1013.93 Q146.236 1012.52 143.133 1012.52 L139.86 1012.52 L139.86 1009.4 L143.283 1009.4 Q146.086 1009.4 147.571 1008.29 Q149.057 1007.16 149.057 1005.05 Q149.057 1002.89 147.515 1001.74 Q145.992 1000.58 143.133 1000.58 Q141.572 1000.58 139.785 1000.92 Q137.998 1001.25 135.854 1001.97 L135.854 998.584 Q138.017 997.982 139.898 997.681 Q141.797 997.38 143.471 997.38 Q147.797 997.38 150.317 999.355 Q152.838 1001.31 152.838 1004.66 Q152.838 1006.99 151.502 1008.61 Q150.167 1010.21 147.703 1010.83 Z" fill="#000000" fill-rule="nonzero" fill-opacity="1" /><path clip-path="url(#clip520)" d="M53.3561 739.377 L60.995 739.377 L60.995 713.011 L52.6848 714.678 L52.6848 710.418 L60.9487 708.752 L65.6246 708.752 L65.6246 739.377 L73.2634 739.377 L73.2634 743.312 L53.3561 743.312 L53.3561 739.377 Z" fill="#000000" fill-rule="nonzero" fill-opacity="1" /><path clip-path="url(#clip520)" d="M92.7078 711.83 Q89.0967 711.83 87.268 715.395 Q85.4624 718.937 85.4624 726.066 Q85.4624 733.173 87.268 736.738 Q89.0967 740.279 92.7078 740.279 Q96.342 740.279 98.1475 736.738 Q99.9762 733.173 99.9762 726.066 Q99.9762 718.937 98.1475 715.395 Q96.342 711.83 92.7078 711.83 M92.7078 708.127 Q98.5179 708.127 101.573 712.733 Q104.652 717.317 104.652 726.066 Q104.652 734.793 101.573 739.4 Q98.5179 743.983 92.7078 743.983 Q86.8976 743.983 83.8189 739.4 Q80.7634 734.793 80.7634 726.066 Q80.7634 717.317 83.8189 712.733 Q86.8976 708.127 92.7078 708.127 Z" fill="#000000" fill-rule="nonzero" fill-opacity="1" /><path clip-path="url(#clip520)" d="M104.652 702.228 L128.764 702.228 L128.764 705.425 L104.652 705.425 L104.652 702.228 Z" fill="#000000" fill-rule="nonzero" fill-opacity="1" /><path clip-path="url(#clip520)" d="M140.236 712.704 L153.496 712.704 L153.496 715.901 L135.666 715.901 L135.666 712.704 Q137.829 710.466 141.553 706.704 Q145.296 702.924 146.255 701.833 Q148.079 699.783 148.794 698.373 Q149.527 696.943 149.527 695.57 Q149.527 693.332 147.948 691.921 Q146.387 690.511 143.866 690.511 Q142.08 690.511 140.086 691.132 Q138.111 691.752 135.854 693.012 L135.854 689.176 Q138.149 688.254 140.142 687.784 Q142.136 687.314 143.791 687.314 Q148.155 687.314 150.75 689.495 Q153.345 691.677 153.345 695.326 Q153.345 697.056 152.687 698.617 Q152.048 700.159 150.336 702.266 Q149.866 702.811 147.346 705.425 Q144.826 708.021 140.236 712.704 Z" fill="#000000" fill-rule="nonzero" fill-opacity="1" /><path clip-path="url(#clip520)" d="M53.0552 429.31 L60.694 429.31 L60.694 402.944 L52.3839 404.611 L52.3839 400.352 L60.6477 398.685 L65.3236 398.685 L65.3236 429.31 L72.9625 429.31 L72.9625 433.245 L53.0552 433.245 L53.0552 429.31 Z" fill="#000000" fill-rule="nonzero" fill-opacity="1" /><path clip-path="url(#clip520)" d="M92.4068 401.764 Q88.7957 401.764 86.967 405.328 Q85.1615 408.87 85.1615 416 Q85.1615 423.106 86.967 426.671 Q88.7957 430.213 92.4068 430.213 Q96.0411 430.213 97.8466 426.671 Q99.6753 423.106 99.6753 416 Q99.6753 408.87 97.8466 405.328 Q96.0411 401.764 92.4068 401.764 M92.4068 398.06 Q98.217 398.06 101.273 402.666 Q104.351 407.25 104.351 416 Q104.351 424.726 101.273 429.333 Q98.217 433.916 92.4068 433.916 Q86.5967 433.916 83.518 429.333 Q80.4625 424.726 80.4625 416 Q80.4625 407.25 83.518 402.666 Q86.5967 398.06 92.4068 398.06 Z" fill="#000000" fill-rule="nonzero" fill-opacity="1" /><path clip-path="url(#clip520)" d="M104.351 392.161 L128.463 392.161 L128.463 395.359 L104.351 395.359 L104.351 392.161 Z" fill="#000000" fill-rule="nonzero" fill-opacity="1" /><path clip-path="url(#clip520)" d="M137.321 402.637 L143.528 402.637 L143.528 381.215 L136.776 382.569 L136.776 379.109 L143.49 377.755 L147.289 377.755 L147.289 402.637 L153.496 402.637 L153.496 405.835 L137.321 405.835 L137.321 402.637 Z" fill="#000000" fill-rule="nonzero" fill-opacity="1" /><path clip-path="url(#clip520)" d="M82.7903 119.243 L90.4291 119.243 L90.4291 92.8774 L82.119 94.544 L82.119 90.2848 L90.3828 88.6181 L95.0587 88.6181 L95.0587 119.243 L102.698 119.243 L102.698 123.178 L82.7903 123.178 L82.7903 119.243 Z" fill="#000000" fill-rule="nonzero" fill-opacity="1" /><path clip-path="url(#clip520)" d="M122.142 91.6968 Q118.531 91.6968 116.702 95.2616 Q114.897 98.8033 114.897 105.933 Q114.897 113.039 116.702 116.604 Q118.531 120.146 122.142 120.146 Q125.776 120.146 127.582 116.604 Q129.41 113.039 129.41 105.933 Q129.41 98.8033 127.582 95.2616 Q125.776 91.6968 122.142 91.6968 M122.142 87.9932 Q127.952 87.9932 131.008 92.5996 Q134.086 97.1829 134.086 105.933 Q134.086 114.66 131.008 119.266 Q127.952 123.849 122.142 123.849 Q116.332 123.849 113.253 119.266 Q110.198 114.66 110.198 105.933 Q110.198 97.1829 113.253 92.5996 Q116.332 87.9932 122.142 87.9932 Z" fill="#000000" fill-rule="nonzero" fill-opacity="1" /><path clip-path="url(#clip520)" d="M143.791 70.1892 Q140.857 70.1892 139.371 73.0856 Q137.904 75.9632 137.904 81.756 Q137.904 87.5299 139.371 90.4263 Q140.857 93.3039 143.791 93.3039 Q146.744 93.3039 148.211 90.4263 Q149.697 87.5299 149.697 81.756 Q149.697 75.9632 148.211 73.0856 Q146.744 70.1892 143.791 70.1892 M143.791 67.1799 Q148.512 67.1799 150.994 70.9227 Q153.496 74.6466 153.496 81.756 Q153.496 88.8465 150.994 92.5892 Q148.512 96.3132 143.791 96.3132 Q139.07 96.3132 136.569 92.5892 Q134.086 88.8465 134.086 81.756 Q134.086 74.6466 136.569 70.9227 Q139.07 67.1799 143.791 67.1799 Z" fill="#000000" fill-rule="nonzero" fill-opacity="1" /><polyline clip-path="url(#clip522)" style="stroke:#009af9; stroke-linecap:round; stroke-linejoin:round; stroke-width:4; stroke-opacity:1; fill:none" points="250.72,87.9763 542.265,339.382 833.809,679.029 1125.35,741.619 1416.9,753.442 1708.44,1156.27 1999.99,1263.64 2291.53,1445.72 "/>
<line clip-path="url(#clip522)" x1="250.72" y1="87.9763" x2="234.72" y2="71.9763" style="stroke:#009af9; stroke-width:4; stroke-opacity:1"/>
<line clip-path="url(#clip522)" x1="250.72" y1="87.9763" x2="234.72" y2="103.976" style="stroke:#009af9; stroke-width:4; stroke-opacity:1"/>
<line clip-path="url(#clip522)" x1="250.72" y1="87.9763" x2="266.72" y2="103.976" style="stroke:#009af9; stroke-width:4; stroke-opacity:1"/>
<line clip-path="url(#clip522)" x1="250.72" y1="87.9763" x2="266.72" y2="71.9763" style="stroke:#009af9; stroke-width:4; stroke-opacity:1"/>
<line clip-path="url(#clip522)" x1="542.265" y1="339.382" x2="526.265" y2="323.382" style="stroke:#009af9; stroke-width:4; stroke-opacity:1"/>
<line clip-path="url(#clip522)" x1="542.265" y1="339.382" x2="526.265" y2="355.382" style="stroke:#009af9; stroke-width:4; stroke-opacity:1"/>
<line clip-path="url(#clip522)" x1="542.265" y1="339.382" x2="558.265" y2="355.382" style="stroke:#009af9; stroke-width:4; stroke-opacity:1"/>
<line clip-path="url(#clip522)" x1="542.265" y1="339.382" x2="558.265" y2="323.382" style="stroke:#009af9; stroke-width:4; stroke-opacity:1"/>
<line clip-path="url(#clip522)" x1="833.809" y1="679.029" x2="817.809" y2="663.029" style="stroke:#009af9; stroke-width:4; stroke-opacity:1"/>
<line clip-path="url(#clip522)" x1="833.809" y1="679.029" x2="817.809" y2="695.029" style="stroke:#009af9; stroke-width:4; stroke-opacity:1"/>
<line clip-path="url(#clip522)" x1="833.809" y1="679.029" x2="849.809" y2="695.029" style="stroke:#009af9; stroke-width:4; stroke-opacity:1"/>
<line clip-path="url(#clip522)" x1="833.809" y1="679.029" x2="849.809" y2="663.029" style="stroke:#009af9; stroke-width:4; stroke-opacity:1"/>
<line clip-path="url(#clip522)" x1="1125.35" y1="741.619" x2="1109.35" y2="725.619" style="stroke:#009af9; stroke-width:4; stroke-opacity:1"/>
<line clip-path="url(#clip522)" x1="1125.35" y1="741.619" x2="1109.35" y2="757.619" style="stroke:#009af9; stroke-width:4; stroke-opacity:1"/>
<line clip-path="url(#clip522)" x1="1125.35" y1="741.619" x2="1141.35" y2="757.619" style="stroke:#009af9; stroke-width:4; stroke-opacity:1"/>
<line clip-path="url(#clip522)" x1="1125.35" y1="741.619" x2="1141.35" y2="725.619" style="stroke:#009af9; stroke-width:4; stroke-opacity:1"/>
<line clip-path="url(#clip522)" x1="1416.9" y1="753.442" x2="1400.9" y2="737.442" style="stroke:#009af9; stroke-width:4; stroke-opacity:1"/>
<line clip-path="url(#clip522)" x1="1416.9" y1="753.442" x2="1400.9" y2="769.442" style="stroke:#009af9; stroke-width:4; stroke-opacity:1"/>
<line clip-path="url(#clip522)" x1="1416.9" y1="753.442" x2="1432.9" y2="769.442" style="stroke:#009af9; stroke-width:4; stroke-opacity:1"/>
<line clip-path="url(#clip522)" x1="1416.9" y1="753.442" x2="1432.9" y2="737.442" style="stroke:#009af9; stroke-width:4; stroke-opacity:1"/>
<line clip-path="url(#clip522)" x1="1708.44" y1="1156.27" x2="1692.44" y2="1140.27" style="stroke:#009af9; stroke-width:4; stroke-opacity:1"/>
<line clip-path="url(#clip522)" x1="1708.44" y1="1156.27" x2="1692.44" y2="1172.27" style="stroke:#009af9; stroke-width:4; stroke-opacity:1"/>
<line clip-path="url(#clip522)" x1="1708.44" y1="1156.27" x2="1724.44" y2="1172.27" style="stroke:#009af9; stroke-width:4; stroke-opacity:1"/>
<line clip-path="url(#clip522)" x1="1708.44" y1="1156.27" x2="1724.44" y2="1140.27" style="stroke:#009af9; stroke-width:4; stroke-opacity:1"/>
<line clip-path="url(#clip522)" x1="1999.99" y1="1263.64" x2="1983.99" y2="1247.64" style="stroke:#009af9; stroke-width:4; stroke-opacity:1"/>
<line clip-path="url(#clip522)" x1="1999.99" y1="1263.64" x2="1983.99" y2="1279.64" style="stroke:#009af9; stroke-width:4; stroke-opacity:1"/>
<line clip-path="url(#clip522)" x1="1999.99" y1="1263.64" x2="2015.99" y2="1279.64" style="stroke:#009af9; stroke-width:4; stroke-opacity:1"/>
<line clip-path="url(#clip522)" x1="1999.99" y1="1263.64" x2="2015.99" y2="1247.64" style="stroke:#009af9; stroke-width:4; stroke-opacity:1"/>
<line clip-path="url(#clip522)" x1="2291.53" y1="1445.72" x2="2275.53" y2="1429.72" style="stroke:#009af9; stroke-width:4; stroke-opacity:1"/>
<line clip-path="url(#clip522)" x1="2291.53" y1="1445.72" x2="2275.53" y2="1461.72" style="stroke:#009af9; stroke-width:4; stroke-opacity:1"/>
<line clip-path="url(#clip522)" x1="2291.53" y1="1445.72" x2="2307.53" y2="1461.72" style="stroke:#009af9; stroke-width:4; stroke-opacity:1"/>
<line clip-path="url(#clip522)" x1="2291.53" y1="1445.72" x2="2307.53" y2="1429.72" style="stroke:#009af9; stroke-width:4; stroke-opacity:1"/>
<path clip-path="url(#clip520)" d="M1816.13 198.898 L2280.65 198.898 L2280.65 95.2176 L1816.13 95.2176  Z" fill="#ffffff" fill-rule="evenodd" fill-opacity="1"/>
<polyline clip-path="url(#clip520)" style="stroke:#000000; stroke-linecap:round; stroke-linejoin:round; stroke-width:4; stroke-opacity:1; fill:none" points="1816.13,198.898 2280.65,198.898 2280.65,95.2176 1816.13,95.2176 1816.13,198.898 "/>
<polyline clip-path="url(#clip520)" style="stroke:#009af9; stroke-linecap:round; stroke-linejoin:round; stroke-width:4; stroke-opacity:1; fill:none" points="1840.16,147.058 1984.38,147.058 "/>
<line clip-path="url(#clip520)" x1="1912.27" y1="147.058" x2="1890.02" y2="124.802" style="stroke:#009af9; stroke-width:4.55111; stroke-opacity:1"/>
<line clip-path="url(#clip520)" x1="1912.27" y1="147.058" x2="1890.02" y2="169.313" style="stroke:#009af9; stroke-width:4.55111; stroke-opacity:1"/>
<line clip-path="url(#clip520)" x1="1912.27" y1="147.058" x2="1934.53" y2="169.313" style="stroke:#009af9; stroke-width:4.55111; stroke-opacity:1"/>
<line clip-path="url(#clip520)" x1="1912.27" y1="147.058" x2="1934.53" y2="124.802" style="stroke:#009af9; stroke-width:4.55111; stroke-opacity:1"/>
<path clip-path="url(#clip520)" d="M2012.35 128.111 L2012.35 175.518 L2008.42 175.518 L2008.42 128.111 L2012.35 128.111 Z" fill="#000000" fill-rule="nonzero" fill-opacity="1" /><path clip-path="url(#clip520)" d="M2024.76 143.041 Q2026.17 140.68 2029.67 138.597 Q2031.03 137.787 2035.25 137.787 Q2039.97 137.787 2042.91 141.537 Q2045.87 145.287 2045.87 151.398 Q2045.87 157.509 2042.91 161.259 Q2039.97 165.009 2035.25 165.009 Q2032.4 165.009 2030.34 163.898 Q2028.3 162.763 2026.96 160.449 L2026.96 174.199 L2022.68 174.199 L2022.68 151.629 Q2022.68 146.282 2024.76 143.041 M2041.45 151.398 Q2041.45 146.699 2039.51 144.037 Q2037.58 141.352 2034.2 141.352 Q2030.83 141.352 2028.88 144.037 Q2026.96 146.699 2026.96 151.398 Q2026.96 156.097 2028.88 158.782 Q2030.83 161.444 2034.2 161.444 Q2037.58 161.444 2039.51 158.782 Q2041.45 156.097 2041.45 151.398 Z" fill="#000000" fill-rule="nonzero" fill-opacity="1" /><path clip-path="url(#clip520)" d="M2062.98 141.398 Q2059.55 141.398 2057.56 144.083 Q2055.57 146.745 2055.57 151.398 Q2055.57 156.051 2057.54 158.736 Q2059.53 161.398 2062.98 161.398 Q2066.38 161.398 2068.37 158.713 Q2070.36 156.027 2070.36 151.398 Q2070.36 146.791 2068.37 144.106 Q2066.38 141.398 2062.98 141.398 M2062.98 137.787 Q2068.53 137.787 2071.7 141.398 Q2074.88 145.009 2074.88 151.398 Q2074.88 157.764 2071.7 161.398 Q2068.53 165.009 2062.98 165.009 Q2057.4 165.009 2054.23 161.398 Q2051.08 157.764 2051.08 151.398 Q2051.08 145.009 2054.23 141.398 Q2057.4 137.787 2062.98 137.787 Z" fill="#000000" fill-rule="nonzero" fill-opacity="1" /><path clip-path="url(#clip520)" d="M2081.5 154.106 L2081.5 138.412 L2085.76 138.412 L2085.76 153.944 Q2085.76 157.625 2087.19 159.476 Q2088.63 161.305 2091.5 161.305 Q2094.95 161.305 2096.94 159.106 Q2098.95 156.907 2098.95 153.111 L2098.95 138.412 L2103.21 138.412 L2103.21 164.338 L2098.95 164.338 L2098.95 160.356 Q2097.4 162.717 2095.34 163.875 Q2093.3 165.009 2090.59 165.009 Q2086.13 165.009 2083.81 162.231 Q2081.5 159.453 2081.5 154.106 M2092.21 137.787 L2092.21 137.787 Z" fill="#000000" fill-rule="nonzero" fill-opacity="1" /><path clip-path="url(#clip520)" d="M2116.2 131.051 L2116.2 138.412 L2124.97 138.412 L2124.97 141.722 L2116.2 141.722 L2116.2 155.796 Q2116.2 158.967 2117.05 159.87 Q2117.93 160.773 2120.59 160.773 L2124.97 160.773 L2124.97 164.338 L2120.59 164.338 Q2115.66 164.338 2113.79 162.509 Q2111.91 160.657 2111.91 155.796 L2111.91 141.722 L2108.79 141.722 L2108.79 138.412 L2111.91 138.412 L2111.91 131.051 L2116.2 131.051 Z" fill="#000000" fill-rule="nonzero" fill-opacity="1" /><path clip-path="url(#clip520)" d="M2143.49 149.453 L2155.96 149.453 L2155.96 153.25 L2143.49 153.25 L2143.49 149.453 Z" fill="#000000" fill-rule="nonzero" fill-opacity="1" /><path clip-path="url(#clip520)" d="M2179.74 143.041 Q2181.15 140.68 2184.64 138.597 Q2186.01 137.787 2190.22 137.787 Q2194.94 137.787 2197.88 141.537 Q2200.85 145.287 2200.85 151.398 Q2200.85 157.509 2197.88 161.259 Q2194.94 165.009 2190.22 165.009 Q2187.38 165.009 2185.32 163.898 Q2183.28 162.763 2181.94 160.449 L2181.94 174.199 L2177.65 174.199 L2177.65 151.629 Q2177.65 146.282 2179.74 143.041 M2196.43 151.398 Q2196.43 146.699 2194.48 144.037 Q2192.56 141.352 2189.18 141.352 Q2185.8 141.352 2183.86 144.037 Q2181.94 146.699 2181.94 151.398 Q2181.94 156.097 2183.86 158.782 Q2185.8 161.444 2189.18 161.444 Q2192.56 161.444 2194.48 158.782 Q2196.43 156.097 2196.43 151.398 Z" fill="#000000" fill-rule="nonzero" fill-opacity="1" /><path clip-path="url(#clip520)" d="M2207.91 138.412 L2212.17 138.412 L2212.17 164.338 L2207.91 164.338 L2207.91 138.412 M2207.91 128.319 L2212.17 128.319 L2212.17 133.713 L2207.91 133.713 L2207.91 128.319 Z" fill="#000000" fill-rule="nonzero" fill-opacity="1" /><path clip-path="url(#clip520)" d="M2242.63 148.689 L2242.63 164.338 L2238.37 164.338 L2238.37 148.828 Q2238.37 145.148 2236.94 143.319 Q2235.5 141.49 2232.63 141.49 Q2229.18 141.49 2227.19 143.69 Q2225.2 145.889 2225.2 149.685 L2225.2 164.338 L2220.92 164.338 L2220.92 138.412 L2225.2 138.412 L2225.2 142.44 Q2226.73 140.102 2228.79 138.944 Q2230.87 137.787 2233.58 137.787 Q2238.05 137.787 2240.34 140.565 Q2242.63 143.319 2242.63 148.689 Z" fill="#000000" fill-rule="nonzero" fill-opacity="1" /><path clip-path="url(#clip520)" d="M2256.61 128.111 L2256.61 175.518 L2252.68 175.518 L2252.68 128.111 L2256.61 128.111 Z" fill="#000000" fill-rule="nonzero" fill-opacity="1" /></svg>
