<?xml version="1.0" encoding="utf-8"?>
<svg xmlns="http://www.w3.org/2000/svg" xmlns:xlink="http://www.w3.org/1999/xlink" width="600" height="400" viewBox="0 0 2400 1600">
<defs>
  <clipPath id="clip080">
    <rect x="0" y="0" width="2400" height="1600"/>
  </clipPath>
</defs>
<path clip-path="url(#clip080)" d="M0 1600 L2400 1600 L2400 0 L0 0  Z" fill="#ffffff" fill-rule="evenodd" fill-opacity="1"/>
<defs>
  <clipPath id="clip081">
    <rect x="480" y="0" width="1681" height="1600"/>
  </clipPath>
</defs>
<path clip-path="url(#clip080)" d="M224.098 1486.45 L2352.76 1486.45 L2352.76 47.2441 L224.098 47.2441  Z" fill="#ffffff" fill-rule="evenodd" fill-opacity="1"/>
<defs>
  <clipPath id="clip082">
    <rect x="224" y="47" width="2130" height="1440"/>
  </clipPath>
</defs>
<polyline clip-path="url(#clip082)" style="stroke:#000000; stroke-linecap:round; stroke-linejoin:round; stroke-width:2; stroke-opacity:0.1; fill:none" points="224.098,1486.45 224.098,47.2441 "/>
<polyline clip-path="url(#clip082)" style="stroke:#000000; stroke-linecap:round; stroke-linejoin:round; stroke-width:2; stroke-opacity:0.1; fill:none" points="756.262,1486.45 756.262,47.2441 "/>
<polyline clip-path="url(#clip082)" style="stroke:#000000; stroke-linecap:round; stroke-linejoin:round; stroke-width:2; stroke-opacity:0.1; fill:none" points="1288.43,1486.45 1288.43,47.2441 "/>
<polyline clip-path="url(#clip082)" style="stroke:#000000; stroke-linecap:round; stroke-linejoin:round; stroke-width:2; stroke-opacity:0.1; fill:none" points="1820.59,1486.45 1820.59,47.2441 "/>
<polyline clip-path="url(#clip082)" style="stroke:#000000; stroke-linecap:round; stroke-linejoin:round; stroke-width:2; stroke-opacity:0.1; fill:none" points="2352.76,1486.45 2352.76,47.2441 "/>
<polyline clip-path="url(#clip082)" style="stroke:#000000; stroke-linecap:round; stroke-linejoin:round; stroke-width:2; stroke-opacity:0.1; fill:none" points="224.098,1387.33 2352.76,1387.33 "/>
<polyline clip-path="url(#clip082)" style="stroke:#000000; stroke-linecap:round; stroke-linejoin:round; stroke-width:2; stroke-opacity:0.1; fill:none" points="224.098,1084.05 2352.76,1084.05 "/>
<polyline clip-path="url(#clip082)" style="stroke:#000000; stroke-linecap:round; stroke-linejoin:round; stroke-width:2; stroke-opacity:0.1; fill:none" points="224.098,780.765 2352.76,780.765 "/>
<polyline clip-path="url(#clip082)" style="stroke:#000000; stroke-linecap:round; stroke-linejoin:round; stroke-width:2; stroke-opacity:0.1; fill:none" points="224.098,477.481 2352.76,477.481 "/>
<polyline clip-path="url(#clip082)" style="stroke:#000000; stroke-linecap:round; stroke-linejoin:round; stroke-width:2; stroke-opacity:0.1; fill:none" points="224.098,174.198 2352.76,174.198 "/>
<polyline clip-path="url(#clip080)" style="stroke:#000000; stroke-linecap:round; stroke-linejoin:round; stroke-width:4; stroke-opacity:1; fill:none" points="224.098,1486.45 2352.76,1486.45 "/>
<polyline clip-path="url(#clip080)" style="stroke:#000000; stroke-linecap:round; stroke-linejoin:round; stroke-width:4; stroke-opacity:1; fill:none" points="224.098,1486.45 224.098,1467.55 "/>
<polyline clip-path="url(#clip080)" style="stroke:#000000; stroke-linecap:round; stroke-linejoin:round; stroke-width:4; stroke-opacity:1; fill:none" points="756.262,1486.45 756.262,1467.55 "/>
<polyline clip-path="url(#clip080)" style="stroke:#000000; stroke-linecap:round; stroke-linejoin:round; stroke-width:4; stroke-opacity:1; fill:none" points="1288.43,1486.45 1288.43,1467.55 "/>
<polyline clip-path="url(#clip080)" style="stroke:#000000; stroke-linecap:round; stroke-linejoin:round; stroke-width:4; stroke-opacity:1; fill:none" points="1820.59,1486.45 1820.59,1467.55 "/>
<polyline clip-path="url(#clip080)" style="stroke:#000000; stroke-linecap:round; stroke-linejoin:round; stroke-width:4; stroke-opacity:1; fill:none" points="2352.76,1486.45 2352.76,1467.55 "/>
<path clip-path="url(#clip080)" d="M178.161 1532.02 L207.836 1532.02 L207.836 1535.95 L178.161 1535.95 L178.161 1532.02 Z" fill="#000000" fill-rule="nonzero" fill-opacity="1" /><path clip-path="url(#clip080)" d="M218.739 1544.91 L226.378 1544.91 L226.378 1518.55 L218.068 1520.21 L218.068 1515.95 L226.332 1514.29 L231.008 1514.29 L231.008 1544.91 L238.646 1544.91 L238.646 1548.85 L218.739 1548.85 L218.739 1544.91 Z" fill="#000000" fill-rule="nonzero" fill-opacity="1" /><path clip-path="url(#clip080)" d="M258.091 1517.37 Q254.48 1517.37 252.651 1520.93 Q250.845 1524.47 250.845 1531.6 Q250.845 1538.71 252.651 1542.27 Q254.48 1545.82 258.091 1545.82 Q261.725 1545.82 263.531 1542.27 Q265.359 1538.71 265.359 1531.6 Q265.359 1524.47 263.531 1520.93 Q261.725 1517.37 258.091 1517.37 M258.091 1513.66 Q263.901 1513.66 266.956 1518.27 Q270.035 1522.85 270.035 1531.6 Q270.035 1540.33 266.956 1544.94 Q263.901 1549.52 258.091 1549.52 Q252.281 1549.52 249.202 1544.94 Q246.146 1540.33 246.146 1531.6 Q246.146 1522.85 249.202 1518.27 Q252.281 1513.66 258.091 1513.66 Z" fill="#000000" fill-rule="nonzero" fill-opacity="1" /><path clip-path="url(#clip080)" d="M725.904 1532.02 L755.58 1532.02 L755.58 1535.95 L725.904 1535.95 L725.904 1532.02 Z" fill="#000000" fill-rule="nonzero" fill-opacity="1" /><path clip-path="url(#clip080)" d="M765.718 1514.29 L784.075 1514.29 L784.075 1518.22 L770.001 1518.22 L770.001 1526.7 Q771.019 1526.35 772.038 1526.19 Q773.056 1526 774.075 1526 Q779.862 1526 783.241 1529.17 Q786.621 1532.34 786.621 1537.76 Q786.621 1543.34 783.149 1546.44 Q779.677 1549.52 773.357 1549.52 Q771.181 1549.52 768.913 1549.15 Q766.667 1548.78 764.26 1548.04 L764.26 1543.34 Q766.343 1544.47 768.566 1545.03 Q770.788 1545.58 773.265 1545.58 Q777.269 1545.58 779.607 1543.48 Q781.945 1541.37 781.945 1537.76 Q781.945 1534.15 779.607 1532.04 Q777.269 1529.94 773.265 1529.94 Q771.39 1529.94 769.515 1530.35 Q767.663 1530.77 765.718 1531.65 L765.718 1514.29 Z" fill="#000000" fill-rule="nonzero" fill-opacity="1" /><path clip-path="url(#clip080)" d="M1288.43 1517.37 Q1284.82 1517.37 1282.99 1520.93 Q1281.18 1524.47 1281.18 1531.6 Q1281.18 1538.71 1282.99 1542.27 Q1284.82 1545.82 1288.43 1545.82 Q1292.06 1545.82 1293.87 1542.27 Q1295.7 1538.71 1295.7 1531.6 Q1295.7 1524.47 1293.87 1520.93 Q1292.06 1517.37 1288.43 1517.37 M1288.43 1513.66 Q1294.24 1513.66 1297.29 1518.27 Q1300.37 1522.85 1300.37 1531.6 Q1300.37 1540.33 1297.29 1544.94 Q1294.24 1549.52 1288.43 1549.52 Q1282.62 1549.52 1279.54 1544.94 Q1276.48 1540.33 1276.48 1531.6 Q1276.48 1522.85 1279.54 1518.27 Q1282.62 1513.66 1288.43 1513.66 Z" fill="#000000" fill-rule="nonzero" fill-opacity="1" /><path clip-path="url(#clip080)" d="M1810.87 1514.29 L1829.23 1514.29 L1829.23 1518.22 L1815.15 1518.22 L1815.15 1526.7 Q1816.17 1526.35 1817.19 1526.19 Q1818.21 1526 1819.23 1526 Q1825.01 1526 1828.39 1529.17 Q1831.77 1532.34 1831.77 1537.76 Q1831.77 1543.34 1828.3 1546.44 Q1824.83 1549.52 1818.51 1549.52 Q1816.33 1549.52 1814.06 1549.15 Q1811.82 1548.78 1809.41 1548.04 L1809.41 1543.34 Q1811.49 1544.47 1813.72 1545.03 Q1815.94 1545.58 1818.42 1545.58 Q1822.42 1545.58 1824.76 1543.48 Q1827.1 1541.37 1827.1 1537.76 Q1827.1 1534.15 1824.76 1532.04 Q1822.42 1529.94 1818.42 1529.94 Q1816.54 1529.94 1814.67 1530.35 Q1812.81 1530.77 1810.87 1531.65 L1810.87 1514.29 Z" fill="#000000" fill-rule="nonzero" fill-opacity="1" /><path clip-path="url(#clip080)" d="M2327.44 1544.91 L2335.08 1544.91 L2335.08 1518.55 L2326.77 1520.21 L2326.77 1515.95 L2335.04 1514.29 L2339.71 1514.29 L2339.71 1544.91 L2347.35 1544.91 L2347.35 1548.85 L2327.44 1548.85 L2327.44 1544.91 Z" fill="#000000" fill-rule="nonzero" fill-opacity="1" /><path clip-path="url(#clip080)" d="M2366.8 1517.37 Q2363.18 1517.37 2361.36 1520.93 Q2359.55 1524.47 2359.55 1531.6 Q2359.55 1538.71 2361.36 1542.27 Q2363.18 1545.82 2366.8 1545.82 Q2370.43 1545.82 2372.23 1542.27 Q2374.06 1538.71 2374.06 1531.6 Q2374.06 1524.47 2372.23 1520.93 Q2370.43 1517.37 2366.8 1517.37 M2366.8 1513.66 Q2372.61 1513.66 2375.66 1518.27 Q2378.74 1522.85 2378.74 1531.6 Q2378.74 1540.33 2375.66 1544.94 Q2372.61 1549.52 2366.8 1549.52 Q2360.99 1549.52 2357.91 1544.94 Q2354.85 1540.33 2354.85 1531.6 Q2354.85 1522.85 2357.91 1518.27 Q2360.99 1513.66 2366.8 1513.66 Z" fill="#000000" fill-rule="nonzero" fill-opacity="1" /><polyline clip-path="url(#clip080)" style="stroke:#000000; stroke-linecap:round; stroke-linejoin:round; stroke-width:4; stroke-opacity:1; fill:none" points="224.098,1486.45 224.098,47.2441 "/>
<polyline clip-path="url(#clip080)" style="stroke:#000000; stroke-linecap:round; stroke-linejoin:round; stroke-width:4; stroke-opacity:1; fill:none" points="224.098,1387.33 242.996,1387.33 "/>
<polyline clip-path="url(#clip080)" style="stroke:#000000; stroke-linecap:round; stroke-linejoin:round; stroke-width:4; stroke-opacity:1; fill:none" points="224.098,1084.05 242.996,1084.05 "/>
<polyline clip-path="url(#clip080)" style="stroke:#000000; stroke-linecap:round; stroke-linejoin:round; stroke-width:4; stroke-opacity:1; fill:none" points="224.098,780.765 242.996,780.765 "/>
<polyline clip-path="url(#clip080)" style="stroke:#000000; stroke-linecap:round; stroke-linejoin:round; stroke-width:4; stroke-opacity:1; fill:none" points="224.098,477.481 242.996,477.481 "/>
<polyline clip-path="url(#clip080)" style="stroke:#000000; stroke-linecap:round; stroke-linejoin:round; stroke-width:4; stroke-opacity:1; fill:none" points="224.098,174.198 242.996,174.198 "/>
<path clip-path="url(#clip080)" d="M50.9921 1387.78 L80.6679 1387.78 L80.6679 1391.72 L50.9921 1391.72 L50.9921 1387.78 Z" fill="#000000" fill-rule="nonzero" fill-opacity="1" /><path clip-path="url(#clip080)" d="M100.76 1373.13 Q97.1493 1373.13 95.3206 1376.7 Q93.515 1380.24 93.515 1387.37 Q93.515 1394.47 95.3206 1398.04 Q97.1493 1401.58 100.76 1401.58 Q104.395 1401.58 106.2 1398.04 Q108.029 1394.47 108.029 1387.37 Q108.029 1380.24 106.2 1376.7 Q104.395 1373.13 100.76 1373.13 M100.76 1369.43 Q106.571 1369.43 109.626 1374.03 Q112.705 1378.62 112.705 1387.37 Q112.705 1396.09 109.626 1400.7 Q106.571 1405.28 100.76 1405.28 Q94.9502 1405.28 91.8715 1400.7 Q88.816 1396.09 88.816 1387.37 Q88.816 1378.62 91.8715 1374.03 Q94.9502 1369.43 100.76 1369.43 Z" fill="#000000" fill-rule="nonzero" fill-opacity="1" /><path clip-path="url(#clip080)" d="M120.922 1398.73 L125.807 1398.73 L125.807 1404.61 L120.922 1404.61 L120.922 1398.73 Z" fill="#000000" fill-rule="nonzero" fill-opacity="1" /><path clip-path="url(#clip080)" d="M136.038 1370.05 L154.394 1370.05 L154.394 1373.99 L140.32 1373.99 L140.32 1382.46 Q141.339 1382.11 142.357 1381.95 Q143.376 1381.77 144.394 1381.77 Q150.181 1381.77 153.561 1384.94 Q156.941 1388.11 156.941 1393.52 Q156.941 1399.1 153.468 1402.21 Q149.996 1405.28 143.677 1405.28 Q141.501 1405.28 139.232 1404.91 Q136.987 1404.54 134.58 1403.8 L134.58 1399.1 Q136.663 1400.24 138.885 1400.79 Q141.107 1401.35 143.584 1401.35 Q147.589 1401.35 149.927 1399.24 Q152.265 1397.14 152.265 1393.52 Q152.265 1389.91 149.927 1387.81 Q147.589 1385.7 143.584 1385.7 Q141.709 1385.7 139.834 1386.12 Q137.982 1386.53 136.038 1387.41 L136.038 1370.05 Z" fill="#000000" fill-rule="nonzero" fill-opacity="1" /><path clip-path="url(#clip080)" d="M176.153 1373.13 Q172.542 1373.13 170.714 1376.7 Q168.908 1380.24 168.908 1387.37 Q168.908 1394.47 170.714 1398.04 Q172.542 1401.58 176.153 1401.58 Q179.788 1401.58 181.593 1398.04 Q183.422 1394.47 183.422 1387.37 Q183.422 1380.24 181.593 1376.7 Q179.788 1373.13 176.153 1373.13 M176.153 1369.43 Q181.964 1369.43 185.019 1374.03 Q188.098 1378.62 188.098 1387.37 Q188.098 1396.09 185.019 1400.7 Q181.964 1405.28 176.153 1405.28 Q170.343 1405.28 167.265 1400.7 Q164.209 1396.09 164.209 1387.37 Q164.209 1378.62 167.265 1374.03 Q170.343 1369.43 176.153 1369.43 Z" fill="#000000" fill-rule="nonzero" fill-opacity="1" /><path clip-path="url(#clip080)" d="M51.9875 1084.5 L81.6633 1084.5 L81.6633 1088.44 L51.9875 1088.44 L51.9875 1084.5 Z" fill="#000000" fill-rule="nonzero" fill-opacity="1" /><path clip-path="url(#clip080)" d="M101.756 1069.85 Q98.1447 1069.85 96.316 1073.41 Q94.5104 1076.95 94.5104 1084.08 Q94.5104 1091.19 96.316 1094.75 Q98.1447 1098.3 101.756 1098.3 Q105.39 1098.3 107.196 1094.75 Q109.024 1091.19 109.024 1084.08 Q109.024 1076.95 107.196 1073.41 Q105.39 1069.85 101.756 1069.85 M101.756 1066.14 Q107.566 1066.14 110.621 1070.75 Q113.7 1075.33 113.7 1084.08 Q113.7 1092.81 110.621 1097.42 Q107.566 1102 101.756 1102 Q95.9456 1102 92.8669 1097.42 Q89.8114 1092.81 89.8114 1084.08 Q89.8114 1075.33 92.8669 1070.75 Q95.9456 1066.14 101.756 1066.14 Z" fill="#000000" fill-rule="nonzero" fill-opacity="1" /><path clip-path="url(#clip080)" d="M121.918 1095.45 L126.802 1095.45 L126.802 1101.33 L121.918 1101.33 L121.918 1095.45 Z" fill="#000000" fill-rule="nonzero" fill-opacity="1" /><path clip-path="url(#clip080)" d="M141.015 1097.39 L157.334 1097.39 L157.334 1101.33 L135.39 1101.33 L135.39 1097.39 Q138.052 1094.64 142.635 1090.01 Q147.242 1085.36 148.422 1084.01 Q150.668 1081.49 151.547 1079.75 Q152.45 1078 152.45 1076.31 Q152.45 1073.55 150.505 1071.82 Q148.584 1070.08 145.482 1070.08 Q143.283 1070.08 140.83 1070.84 Q138.399 1071.61 135.621 1073.16 L135.621 1068.44 Q138.445 1067.3 140.899 1066.72 Q143.353 1066.14 145.39 1066.14 Q150.76 1066.14 153.955 1068.83 Q157.149 1071.51 157.149 1076 Q157.149 1078.13 156.339 1080.06 Q155.552 1081.95 153.445 1084.55 Q152.867 1085.22 149.765 1088.44 Q146.663 1091.63 141.015 1097.39 Z" fill="#000000" fill-rule="nonzero" fill-opacity="1" /><path clip-path="url(#clip080)" d="M167.195 1066.77 L185.552 1066.77 L185.552 1070.7 L171.478 1070.7 L171.478 1079.18 Q172.496 1078.83 173.515 1078.67 Q174.533 1078.48 175.552 1078.48 Q181.339 1078.48 184.718 1081.65 Q188.098 1084.82 188.098 1090.24 Q188.098 1095.82 184.626 1098.92 Q181.153 1102 174.834 1102 Q172.658 1102 170.39 1101.63 Q168.144 1101.26 165.737 1100.52 L165.737 1095.82 Q167.82 1096.95 170.042 1097.51 Q172.265 1098.06 174.741 1098.06 Q178.746 1098.06 181.084 1095.96 Q183.422 1093.85 183.422 1090.24 Q183.422 1086.63 181.084 1084.52 Q178.746 1082.42 174.741 1082.42 Q172.866 1082.42 170.991 1082.83 Q169.14 1083.25 167.195 1084.13 L167.195 1066.77 Z" fill="#000000" fill-rule="nonzero" fill-opacity="1" /><path clip-path="url(#clip080)" d="M100.76 766.564 Q97.1493 766.564 95.3206 770.129 Q93.515 773.67 93.515 780.8 Q93.515 787.906 95.3206 791.471 Q97.1493 795.013 100.76 795.013 Q104.395 795.013 106.2 791.471 Q108.029 787.906 108.029 780.8 Q108.029 773.67 106.2 770.129 Q104.395 766.564 100.76 766.564 M100.76 762.86 Q106.571 762.86 109.626 767.467 Q112.705 772.05 112.705 780.8 Q112.705 789.527 109.626 794.133 Q106.571 798.716 100.76 798.716 Q94.9502 798.716 91.8715 794.133 Q88.816 789.527 88.816 780.8 Q88.816 772.05 91.8715 767.467 Q94.9502 762.86 100.76 762.86 Z" fill="#000000" fill-rule="nonzero" fill-opacity="1" /><path clip-path="url(#clip080)" d="M120.922 792.165 L125.807 792.165 L125.807 798.045 L120.922 798.045 L120.922 792.165 Z" fill="#000000" fill-rule="nonzero" fill-opacity="1" /><path clip-path="url(#clip080)" d="M145.992 766.564 Q142.381 766.564 140.552 770.129 Q138.746 773.67 138.746 780.8 Q138.746 787.906 140.552 791.471 Q142.381 795.013 145.992 795.013 Q149.626 795.013 151.431 791.471 Q153.26 787.906 153.26 780.8 Q153.26 773.67 151.431 770.129 Q149.626 766.564 145.992 766.564 M145.992 762.86 Q151.802 762.86 154.857 767.467 Q157.936 772.05 157.936 780.8 Q157.936 789.527 154.857 794.133 Q151.802 798.716 145.992 798.716 Q140.181 798.716 137.103 794.133 Q134.047 789.527 134.047 780.8 Q134.047 772.05 137.103 767.467 Q140.181 762.86 145.992 762.86 Z" fill="#000000" fill-rule="nonzero" fill-opacity="1" /><path clip-path="url(#clip080)" d="M176.153 766.564 Q172.542 766.564 170.714 770.129 Q168.908 773.67 168.908 780.8 Q168.908 787.906 170.714 791.471 Q172.542 795.013 176.153 795.013 Q179.788 795.013 181.593 791.471 Q183.422 787.906 183.422 780.8 Q183.422 773.67 181.593 770.129 Q179.788 766.564 176.153 766.564 M176.153 762.86 Q181.964 762.86 185.019 767.467 Q188.098 772.05 188.098 780.8 Q188.098 789.527 185.019 794.133 Q181.964 798.716 176.153 798.716 Q170.343 798.716 167.265 794.133 Q164.209 789.527 164.209 780.8 Q164.209 772.05 167.265 767.467 Q170.343 762.86 176.153 762.86 Z" fill="#000000" fill-rule="nonzero" fill-opacity="1" /><path clip-path="url(#clip080)" d="M101.756 463.28 Q98.1447 463.28 96.316 466.845 Q94.5104 470.387 94.5104 477.516 Q94.5104 484.623 96.316 488.187 Q98.1447 491.729 101.756 491.729 Q105.39 491.729 107.196 488.187 Q109.024 484.623 109.024 477.516 Q109.024 470.387 107.196 466.845 Q105.39 463.28 101.756 463.28 M101.756 459.576 Q107.566 459.576 110.621 464.183 Q113.7 468.766 113.7 477.516 Q113.7 486.243 110.621 490.849 Q107.566 495.433 101.756 495.433 Q95.9456 495.433 92.8669 490.849 Q89.8114 486.243 89.8114 477.516 Q89.8114 468.766 92.8669 464.183 Q95.9456 459.576 101.756 459.576 Z" fill="#000000" fill-rule="nonzero" fill-opacity="1" /><path clip-path="url(#clip080)" d="M121.918 488.882 L126.802 488.882 L126.802 494.761 L121.918 494.761 L121.918 488.882 Z" fill="#000000" fill-rule="nonzero" fill-opacity="1" /><path clip-path="url(#clip080)" d="M141.015 490.826 L157.334 490.826 L157.334 494.761 L135.39 494.761 L135.39 490.826 Q138.052 488.072 142.635 483.442 Q147.242 478.789 148.422 477.447 Q150.668 474.924 151.547 473.187 Q152.45 471.428 152.45 469.738 Q152.45 466.984 150.505 465.248 Q148.584 463.512 145.482 463.512 Q143.283 463.512 140.83 464.275 Q138.399 465.039 135.621 466.59 L135.621 461.868 Q138.445 460.734 140.899 460.155 Q143.353 459.576 145.39 459.576 Q150.76 459.576 153.955 462.262 Q157.149 464.947 157.149 469.437 Q157.149 471.567 156.339 473.488 Q155.552 475.386 153.445 477.979 Q152.867 478.65 149.765 481.868 Q146.663 485.062 141.015 490.826 Z" fill="#000000" fill-rule="nonzero" fill-opacity="1" /><path clip-path="url(#clip080)" d="M167.195 460.201 L185.552 460.201 L185.552 464.137 L171.478 464.137 L171.478 472.609 Q172.496 472.261 173.515 472.099 Q174.533 471.914 175.552 471.914 Q181.339 471.914 184.718 475.086 Q188.098 478.257 188.098 483.673 Q188.098 489.252 184.626 492.354 Q181.153 495.433 174.834 495.433 Q172.658 495.433 170.39 495.062 Q168.144 494.692 165.737 493.951 L165.737 489.252 Q167.82 490.386 170.042 490.942 Q172.265 491.498 174.741 491.498 Q178.746 491.498 181.084 489.391 Q183.422 487.285 183.422 483.673 Q183.422 480.062 181.084 477.956 Q178.746 475.849 174.741 475.849 Q172.866 475.849 170.991 476.266 Q169.14 476.683 167.195 477.562 L167.195 460.201 Z" fill="#000000" fill-rule="nonzero" fill-opacity="1" /><path clip-path="url(#clip080)" d="M100.76 159.996 Q97.1493 159.996 95.3206 163.561 Q93.515 167.103 93.515 174.232 Q93.515 181.339 95.3206 184.904 Q97.1493 188.445 100.76 188.445 Q104.395 188.445 106.2 184.904 Q108.029 181.339 108.029 174.232 Q108.029 167.103 106.2 163.561 Q104.395 159.996 100.76 159.996 M100.76 156.293 Q106.571 156.293 109.626 160.899 Q112.705 165.482 112.705 174.232 Q112.705 182.959 109.626 187.566 Q106.571 192.149 100.76 192.149 Q94.9502 192.149 91.8715 187.566 Q88.816 182.959 88.816 174.232 Q88.816 165.482 91.8715 160.899 Q94.9502 156.293 100.76 156.293 Z" fill="#000000" fill-rule="nonzero" fill-opacity="1" /><path clip-path="url(#clip080)" d="M120.922 185.598 L125.807 185.598 L125.807 191.478 L120.922 191.478 L120.922 185.598 Z" fill="#000000" fill-rule="nonzero" fill-opacity="1" /><path clip-path="url(#clip080)" d="M136.038 156.918 L154.394 156.918 L154.394 160.853 L140.32 160.853 L140.32 169.325 Q141.339 168.978 142.357 168.816 Q143.376 168.631 144.394 168.631 Q150.181 168.631 153.561 171.802 Q156.941 174.973 156.941 180.39 Q156.941 185.968 153.468 189.07 Q149.996 192.149 143.677 192.149 Q141.501 192.149 139.232 191.779 Q136.987 191.408 134.58 190.667 L134.58 185.968 Q136.663 187.103 138.885 187.658 Q141.107 188.214 143.584 188.214 Q147.589 188.214 149.927 186.107 Q152.265 184.001 152.265 180.39 Q152.265 176.779 149.927 174.672 Q147.589 172.566 143.584 172.566 Q141.709 172.566 139.834 172.982 Q137.982 173.399 136.038 174.279 L136.038 156.918 Z" fill="#000000" fill-rule="nonzero" fill-opacity="1" /><path clip-path="url(#clip080)" d="M176.153 159.996 Q172.542 159.996 170.714 163.561 Q168.908 167.103 168.908 174.232 Q168.908 181.339 170.714 184.904 Q172.542 188.445 176.153 188.445 Q179.788 188.445 181.593 184.904 Q183.422 181.339 183.422 174.232 Q183.422 167.103 181.593 163.561 Q179.788 159.996 176.153 159.996 M176.153 156.293 Q181.964 156.293 185.019 160.899 Q188.098 165.482 188.098 174.232 Q188.098 182.959 185.019 187.566 Q181.964 192.149 176.153 192.149 Q170.343 192.149 167.265 187.566 Q164.209 182.959 164.209 174.232 Q164.209 165.482 167.265 160.899 Q170.343 156.293 176.153 156.293 Z" fill="#000000" fill-rule="nonzero" fill-opacity="1" /><polyline clip-path="url(#clip082)" style="stroke:#009af9; stroke-linecap:round; stroke-linejoin:round; stroke-width:4; stroke-opacity:1; fill:none" points="1288.43,1445.72 1394.86,424.973 1501.29,852.349 1607.73,773.615 1714.16,781.185 1820.59,780.749 1927.02,780.766 2033.46,780.765 2139.89,780.765 2246.32,780.765 2352.76,780.765 2459.19,780.765 2565.62,780.765 2672.05,780.765 2778.49,780.765 2884.92,780.765 2991.35,780.765 3097.79,780.765 3204.22,780.765 3310.65,780.765 3417.08,780.765 3523.52,780.765 3629.95,780.765 3736.38,780.765 3842.82,780.765 3949.25,780.765 4055.68,780.765 4162.12,780.765 4268.55,780.765 4374.98,780.765 4481.41,780.765 4587.85,780.765 -2010.99,780.765 -1904.56,780.765 -1798.13,780.765 -1691.69,780.765 -1585.26,780.765 -1478.83,780.765 -1372.4,780.765 -1265.96,780.765 -1159.53,780.765 -1053.1,780.765 -946.664,780.765 -840.231,780.765 -733.798,780.765 -627.365,780.765 -520.932,780.765 -414.5,780.765 -308.067,780.765 -201.634,780.765 -95.2008,780.765 11.2321,780.765 117.665,780.765 224.098,780.765 330.531,780.765 436.964,780.765 543.397,780.765 649.829,780.766 756.262,780.749 862.695,781.185 969.128,773.615 1075.56,852.349 1181.99,424.973 "/>
<polyline clip-path="url(#clip082)" style="stroke:#e26f46; stroke-linecap:round; stroke-linejoin:round; stroke-width:4; stroke-opacity:1; fill:none" points="1288.43,87.9763 1394.86,1151.45 1501.29,706.184 1607.73,788.215 1714.16,780.328 1820.59,780.782 1927.02,780.765 2033.46,780.765 2139.89,780.765 2246.32,780.765 2352.76,780.765 2459.19,780.765 2565.62,780.765 2672.05,780.765 2778.49,780.765 2884.92,780.765 2991.35,780.765 3097.79,780.765 3204.22,780.765 3310.65,780.765 3417.08,780.765 3523.52,780.765 3629.95,780.765 3736.38,780.765 3842.82,780.765 3949.25,780.765 4055.68,780.765 4162.12,780.765 4268.55,780.765 4374.98,780.765 4481.41,780.765 4587.85,780.765 -2010.99,780.765 -1904.56,780.765 -1798.13,780.765 -1691.69,780.765 -1585.26,780.765 -1478.83,780.765 -1372.4,780.765 -1265.96,780.765 -1159.53,780.765 -1053.1,780.765 -946.664,780.765 -840.231,780.765 -733.798,780.765 -627.365,780.765 -520.932,780.765 -414.5,780.765 -308.067,780.765 -201.634,780.765 -95.2008,780.765 11.2321,780.765 117.665,780.765 224.098,780.765 330.531,780.765 436.964,780.765 543.397,780.765 649.829,780.765 756.262,780.782 862.695,780.328 969.128,788.215 1075.56,706.184 1181.99,1151.45 "/>
<path clip-path="url(#clip080)" d="M1723.94 250.738 L2281.8 250.738 L2281.8 95.2176 L1723.94 95.2176  Z" fill="#ffffff" fill-rule="evenodd" fill-opacity="1"/>
<polyline clip-path="url(#clip080)" style="stroke:#000000; stroke-linecap:round; stroke-linejoin:round; stroke-width:4; stroke-opacity:1; fill:none" points="1723.94,250.738 2281.8,250.738 2281.8,95.2176 1723.94,95.2176 1723.94,250.738 "/>
<polyline clip-path="url(#clip080)" style="stroke:#009af9; stroke-linecap:round; stroke-linejoin:round; stroke-width:4; stroke-opacity:1; fill:none" points="1747.59,147.058 1889.5,147.058 "/>
<path clip-path="url(#clip080)" d="M1928.34 142.393 Q1927.62 141.977 1926.76 141.791 Q1925.93 141.583 1924.91 141.583 Q1921.3 141.583 1919.35 143.944 Q1917.43 146.282 1917.43 150.68 L1917.43 164.338 L1913.15 164.338 L1913.15 138.412 L1917.43 138.412 L1917.43 142.44 Q1918.78 140.078 1920.93 138.944 Q1923.08 137.787 1926.16 137.787 Q1926.6 137.787 1927.13 137.856 Q1927.66 137.903 1928.31 138.018 L1928.34 142.393 Z" fill="#000000" fill-rule="nonzero" fill-opacity="1" /><path clip-path="url(#clip080)" d="M1953.94 150.31 L1953.94 152.393 L1934.35 152.393 Q1934.63 156.791 1936.99 159.106 Q1939.38 161.398 1943.61 161.398 Q1946.07 161.398 1948.36 160.796 Q1950.67 160.194 1952.94 158.99 L1952.94 163.018 Q1950.65 163.99 1948.24 164.5 Q1945.84 165.009 1943.36 165.009 Q1937.16 165.009 1933.52 161.398 Q1929.91 157.787 1929.91 151.629 Q1929.91 145.264 1933.34 141.537 Q1936.78 137.787 1942.62 137.787 Q1947.85 137.787 1950.88 141.166 Q1953.94 144.523 1953.94 150.31 M1949.68 149.06 Q1949.63 145.565 1947.71 143.481 Q1945.81 141.398 1942.66 141.398 Q1939.1 141.398 1936.95 143.412 Q1934.82 145.426 1934.49 149.083 L1949.68 149.06 Z" fill="#000000" fill-rule="nonzero" fill-opacity="1" /><path clip-path="url(#clip080)" d="M1972.71 151.305 Q1967.55 151.305 1965.56 152.486 Q1963.57 153.666 1963.57 156.514 Q1963.57 158.782 1965.05 160.125 Q1966.55 161.444 1969.12 161.444 Q1972.66 161.444 1974.79 158.944 Q1976.95 156.421 1976.95 152.254 L1976.95 151.305 L1972.71 151.305 M1981.21 149.546 L1981.21 164.338 L1976.95 164.338 L1976.95 160.402 Q1975.49 162.763 1973.31 163.898 Q1971.14 165.009 1967.99 165.009 Q1964.01 165.009 1961.65 162.787 Q1959.31 160.541 1959.31 156.791 Q1959.31 152.416 1962.22 150.194 Q1965.16 147.972 1970.97 147.972 L1976.95 147.972 L1976.95 147.555 Q1976.95 144.615 1975 143.018 Q1973.08 141.398 1969.59 141.398 Q1967.36 141.398 1965.26 141.93 Q1963.15 142.463 1961.21 143.527 L1961.21 139.592 Q1963.54 138.69 1965.74 138.25 Q1967.94 137.787 1970.03 137.787 Q1975.65 137.787 1978.43 140.703 Q1981.21 143.62 1981.21 149.546 Z" fill="#000000" fill-rule="nonzero" fill-opacity="1" /><path clip-path="url(#clip080)" d="M1989.98 128.319 L1994.24 128.319 L1994.24 164.338 L1989.98 164.338 L1989.98 128.319 Z" fill="#000000" fill-rule="nonzero" fill-opacity="1" /><path clip-path="url(#clip080)" d="M2022.34 160.449 L2022.34 174.199 L2018.06 174.199 L2018.06 138.412 L2022.34 138.412 L2022.34 142.347 Q2023.68 140.032 2025.72 138.921 Q2027.78 137.787 2030.63 137.787 Q2035.35 137.787 2038.29 141.537 Q2041.25 145.287 2041.25 151.398 Q2041.25 157.509 2038.29 161.259 Q2035.35 165.009 2030.63 165.009 Q2027.78 165.009 2025.72 163.898 Q2023.68 162.763 2022.34 160.449 M2036.83 151.398 Q2036.83 146.699 2034.89 144.037 Q2032.96 141.352 2029.59 141.352 Q2026.21 141.352 2024.26 144.037 Q2022.34 146.699 2022.34 151.398 Q2022.34 156.097 2024.26 158.782 Q2026.21 161.444 2029.59 161.444 Q2032.96 161.444 2034.89 158.782 Q2036.83 156.097 2036.83 151.398 Z" fill="#000000" fill-rule="nonzero" fill-opacity="1" /><path clip-path="url(#clip080)" d="M2060.09 151.305 Q2054.93 151.305 2052.94 152.486 Q2050.95 153.666 2050.95 156.514 Q2050.95 158.782 2052.43 160.125 Q2053.94 161.444 2056.51 161.444 Q2060.05 161.444 2062.18 158.944 Q2064.33 156.421 2064.33 152.254 L2064.33 151.305 L2060.09 151.305 M2068.59 149.546 L2068.59 164.338 L2064.33 164.338 L2064.33 160.402 Q2062.87 162.763 2060.7 163.898 Q2058.52 165.009 2055.37 165.009 Q2051.39 165.009 2049.03 162.787 Q2046.69 160.541 2046.69 156.791 Q2046.69 152.416 2049.61 150.194 Q2052.55 147.972 2058.36 147.972 L2064.33 147.972 L2064.33 147.555 Q2064.33 144.615 2062.39 143.018 Q2060.46 141.398 2056.97 141.398 Q2054.75 141.398 2052.64 141.93 Q2050.53 142.463 2048.59 143.527 L2048.59 139.592 Q2050.93 138.69 2053.13 138.25 Q2055.33 137.787 2057.41 137.787 Q2063.03 137.787 2065.81 140.703 Q2068.59 143.62 2068.59 149.546 Z" fill="#000000" fill-rule="nonzero" fill-opacity="1" /><path clip-path="url(#clip080)" d="M2092.39 142.393 Q2091.67 141.977 2090.81 141.791 Q2089.98 141.583 2088.96 141.583 Q2085.35 141.583 2083.4 143.944 Q2081.48 146.282 2081.48 150.68 L2081.48 164.338 L2077.2 164.338 L2077.2 138.412 L2081.48 138.412 L2081.48 142.44 Q2082.83 140.078 2084.98 138.944 Q2087.13 137.787 2090.21 137.787 Q2090.65 137.787 2091.18 137.856 Q2091.71 137.903 2092.36 138.018 L2092.39 142.393 Z" fill="#000000" fill-rule="nonzero" fill-opacity="1" /><path clip-path="url(#clip080)" d="M2101.07 131.051 L2101.07 138.412 L2109.84 138.412 L2109.84 141.722 L2101.07 141.722 L2101.07 155.796 Q2101.07 158.967 2101.92 159.87 Q2102.8 160.773 2105.46 160.773 L2109.84 160.773 L2109.84 164.338 L2105.46 164.338 Q2100.53 164.338 2098.66 162.509 Q2096.78 160.657 2096.78 155.796 L2096.78 141.722 L2093.66 141.722 L2093.66 138.412 L2096.78 138.412 L2096.78 131.051 L2101.07 131.051 Z" fill="#000000" fill-rule="nonzero" fill-opacity="1" /><polyline clip-path="url(#clip080)" style="stroke:#e26f46; stroke-linecap:round; stroke-linejoin:round; stroke-width:4; stroke-opacity:1; fill:none" points="1747.59,198.898 1889.5,198.898 "/>
<path clip-path="url(#clip080)" d="M1913.15 190.252 L1917.41 190.252 L1917.41 216.178 L1913.15 216.178 L1913.15 190.252 M1913.15 180.159 L1917.41 180.159 L1917.41 185.553 L1913.15 185.553 L1913.15 180.159 Z" fill="#000000" fill-rule="nonzero" fill-opacity="1" /><path clip-path="url(#clip080)" d="M1946.51 195.229 Q1948.1 192.358 1950.33 190.993 Q1952.55 189.627 1955.56 189.627 Q1959.61 189.627 1961.81 192.474 Q1964.01 195.298 1964.01 200.529 L1964.01 216.178 L1959.72 216.178 L1959.72 200.668 Q1959.72 196.942 1958.41 195.136 Q1957.09 193.33 1954.38 193.33 Q1951.07 193.33 1949.15 195.53 Q1947.22 197.729 1947.22 201.525 L1947.22 216.178 L1942.94 216.178 L1942.94 200.668 Q1942.94 196.918 1941.62 195.136 Q1940.3 193.33 1937.55 193.33 Q1934.28 193.33 1932.36 195.553 Q1930.44 197.752 1930.44 201.525 L1930.44 216.178 L1926.16 216.178 L1926.16 190.252 L1930.44 190.252 L1930.44 194.28 Q1931.9 191.895 1933.94 190.761 Q1935.97 189.627 1938.78 189.627 Q1941.6 189.627 1943.57 191.062 Q1945.56 192.497 1946.51 195.229 Z" fill="#000000" fill-rule="nonzero" fill-opacity="1" /><path clip-path="url(#clip080)" d="M1984.28 203.145 Q1979.12 203.145 1977.13 204.326 Q1975.14 205.506 1975.14 208.354 Q1975.14 210.622 1976.62 211.965 Q1978.13 213.284 1980.7 213.284 Q1984.24 213.284 1986.37 210.784 Q1988.52 208.261 1988.52 204.094 L1988.52 203.145 L1984.28 203.145 M1992.78 201.386 L1992.78 216.178 L1988.52 216.178 L1988.52 212.242 Q1987.06 214.603 1984.89 215.738 Q1982.71 216.849 1979.56 216.849 Q1975.58 216.849 1973.22 214.627 Q1970.88 212.381 1970.88 208.631 Q1970.88 204.256 1973.8 202.034 Q1976.74 199.812 1982.55 199.812 L1988.52 199.812 L1988.52 199.395 Q1988.52 196.455 1986.58 194.858 Q1984.65 193.238 1981.16 193.238 Q1978.94 193.238 1976.83 193.77 Q1974.72 194.303 1972.78 195.367 L1972.78 191.432 Q1975.12 190.53 1977.32 190.09 Q1979.52 189.627 1981.6 189.627 Q1987.22 189.627 1990 192.543 Q1992.78 195.46 1992.78 201.386 Z" fill="#000000" fill-rule="nonzero" fill-opacity="1" /><path clip-path="url(#clip080)" d="M2018.61 202.914 Q2018.61 198.284 2016.69 195.738 Q2014.79 193.192 2011.34 193.192 Q2007.92 193.192 2006 195.738 Q2004.1 198.284 2004.1 202.914 Q2004.1 207.52 2006 210.066 Q2007.92 212.613 2011.34 212.613 Q2014.79 212.613 2016.69 210.066 Q2018.61 207.52 2018.61 202.914 M2022.87 212.96 Q2022.87 219.58 2019.93 222.798 Q2016.99 226.039 2010.93 226.039 Q2008.68 226.039 2006.69 225.691 Q2004.7 225.367 2002.83 224.673 L2002.83 220.529 Q2004.7 221.548 2006.53 222.034 Q2008.36 222.52 2010.26 222.52 Q2014.45 222.52 2016.53 220.321 Q2018.61 218.145 2018.61 213.724 L2018.61 211.617 Q2017.29 213.909 2015.23 215.043 Q2013.17 216.178 2010.3 216.178 Q2005.53 216.178 2002.62 212.543 Q1999.7 208.909 1999.7 202.914 Q1999.7 196.895 2002.62 193.261 Q2005.53 189.627 2010.3 189.627 Q2013.17 189.627 2015.23 190.761 Q2017.29 191.895 2018.61 194.187 L2018.61 190.252 L2022.87 190.252 L2022.87 212.96 Z" fill="#000000" fill-rule="nonzero" fill-opacity="1" /><path clip-path="url(#clip080)" d="M2031.65 190.252 L2035.9 190.252 L2035.9 216.178 L2031.65 216.178 L2031.65 190.252 M2031.65 180.159 L2035.9 180.159 L2035.9 185.553 L2031.65 185.553 L2031.65 180.159 Z" fill="#000000" fill-rule="nonzero" fill-opacity="1" /><path clip-path="url(#clip080)" d="M2066.37 200.529 L2066.37 216.178 L2062.11 216.178 L2062.11 200.668 Q2062.11 196.988 2060.67 195.159 Q2059.24 193.33 2056.37 193.33 Q2052.92 193.33 2050.93 195.53 Q2048.94 197.729 2048.94 201.525 L2048.94 216.178 L2044.65 216.178 L2044.65 190.252 L2048.94 190.252 L2048.94 194.28 Q2050.46 191.942 2052.52 190.784 Q2054.61 189.627 2057.32 189.627 Q2061.78 189.627 2064.08 192.405 Q2066.37 195.159 2066.37 200.529 Z" fill="#000000" fill-rule="nonzero" fill-opacity="1" /><path clip-path="url(#clip080)" d="M2086.65 203.145 Q2081.48 203.145 2079.49 204.326 Q2077.5 205.506 2077.5 208.354 Q2077.5 210.622 2078.98 211.965 Q2080.49 213.284 2083.06 213.284 Q2086.6 213.284 2088.73 210.784 Q2090.88 208.261 2090.88 204.094 L2090.88 203.145 L2086.65 203.145 M2095.14 201.386 L2095.14 216.178 L2090.88 216.178 L2090.88 212.242 Q2089.42 214.603 2087.25 215.738 Q2085.07 216.849 2081.92 216.849 Q2077.94 216.849 2075.58 214.627 Q2073.24 212.381 2073.24 208.631 Q2073.24 204.256 2076.16 202.034 Q2079.1 199.812 2084.91 199.812 L2090.88 199.812 L2090.88 199.395 Q2090.88 196.455 2088.94 194.858 Q2087.02 193.238 2083.52 193.238 Q2081.3 193.238 2079.19 193.77 Q2077.09 194.303 2075.14 195.367 L2075.14 191.432 Q2077.48 190.53 2079.68 190.09 Q2081.88 189.627 2083.96 189.627 Q2089.58 189.627 2092.36 192.543 Q2095.14 195.46 2095.14 201.386 Z" fill="#000000" fill-rule="nonzero" fill-opacity="1" /><path clip-path="url(#clip080)" d="M2118.94 194.233 Q2118.22 193.817 2117.36 193.631 Q2116.53 193.423 2115.51 193.423 Q2111.9 193.423 2109.96 195.784 Q2108.03 198.122 2108.03 202.52 L2108.03 216.178 L2103.75 216.178 L2103.75 190.252 L2108.03 190.252 L2108.03 194.28 Q2109.38 191.918 2111.53 190.784 Q2113.68 189.627 2116.76 189.627 Q2117.2 189.627 2117.73 189.696 Q2118.27 189.743 2118.91 189.858 L2118.94 194.233 Z" fill="#000000" fill-rule="nonzero" fill-opacity="1" /><path clip-path="url(#clip080)" d="M2134.19 218.585 Q2132.39 223.215 2130.67 224.627 Q2128.96 226.039 2126.09 226.039 L2122.69 226.039 L2122.69 222.474 L2125.19 222.474 Q2126.95 222.474 2127.92 221.64 Q2128.89 220.807 2130.07 217.705 L2130.83 215.761 L2120.35 190.252 L2124.86 190.252 L2132.96 210.529 L2141.07 190.252 L2145.58 190.252 L2134.19 218.585 Z" fill="#000000" fill-rule="nonzero" fill-opacity="1" /><path clip-path="url(#clip080)" d="M2170.65 212.289 L2170.65 226.039 L2166.37 226.039 L2166.37 190.252 L2170.65 190.252 L2170.65 194.187 Q2171.99 191.872 2174.03 190.761 Q2176.09 189.627 2178.94 189.627 Q2183.66 189.627 2186.6 193.377 Q2189.56 197.127 2189.56 203.238 Q2189.56 209.349 2186.6 213.099 Q2183.66 216.849 2178.94 216.849 Q2176.09 216.849 2174.03 215.738 Q2171.99 214.603 2170.65 212.289 M2185.14 203.238 Q2185.14 198.539 2183.2 195.877 Q2181.27 193.192 2177.89 193.192 Q2174.52 193.192 2172.57 195.877 Q2170.65 198.539 2170.65 203.238 Q2170.65 207.937 2172.57 210.622 Q2174.52 213.284 2177.89 213.284 Q2181.27 213.284 2183.2 210.622 Q2185.14 207.937 2185.14 203.238 Z" fill="#000000" fill-rule="nonzero" fill-opacity="1" /><path clip-path="url(#clip080)" d="M2208.4 203.145 Q2203.24 203.145 2201.25 204.326 Q2199.26 205.506 2199.26 208.354 Q2199.26 210.622 2200.74 211.965 Q2202.25 213.284 2204.82 213.284 Q2208.36 213.284 2210.49 210.784 Q2212.64 208.261 2212.64 204.094 L2212.64 203.145 L2208.4 203.145 M2216.9 201.386 L2216.9 216.178 L2212.64 216.178 L2212.64 212.242 Q2211.18 214.603 2209.01 215.738 Q2206.83 216.849 2203.68 216.849 Q2199.7 216.849 2197.34 214.627 Q2195 212.381 2195 208.631 Q2195 204.256 2197.92 202.034 Q2200.86 199.812 2206.67 199.812 L2212.64 199.812 L2212.64 199.395 Q2212.64 196.455 2210.7 194.858 Q2208.77 193.238 2205.28 193.238 Q2203.06 193.238 2200.95 193.77 Q2198.84 194.303 2196.9 195.367 L2196.9 191.432 Q2199.24 190.53 2201.44 190.09 Q2203.64 189.627 2205.72 189.627 Q2211.34 189.627 2214.12 192.543 Q2216.9 195.46 2216.9 201.386 Z" fill="#000000" fill-rule="nonzero" fill-opacity="1" /><path clip-path="url(#clip080)" d="M2240.7 194.233 Q2239.98 193.817 2239.12 193.631 Q2238.29 193.423 2237.27 193.423 Q2233.66 193.423 2231.71 195.784 Q2229.79 198.122 2229.79 202.52 L2229.79 216.178 L2225.51 216.178 L2225.51 190.252 L2229.79 190.252 L2229.79 194.28 Q2231.14 191.918 2233.29 190.784 Q2235.44 189.627 2238.52 189.627 Q2238.96 189.627 2239.49 189.696 Q2240.02 189.743 2240.67 189.858 L2240.7 194.233 Z" fill="#000000" fill-rule="nonzero" fill-opacity="1" /><path clip-path="url(#clip080)" d="M2249.38 182.891 L2249.38 190.252 L2258.15 190.252 L2258.15 193.562 L2249.38 193.562 L2249.38 207.636 Q2249.38 210.807 2250.23 211.71 Q2251.11 212.613 2253.77 212.613 L2258.15 212.613 L2258.15 216.178 L2253.77 216.178 Q2248.84 216.178 2246.97 214.349 Q2245.09 212.497 2245.09 207.636 L2245.09 193.562 L2241.97 193.562 L2241.97 190.252 L2245.09 190.252 L2245.09 182.891 L2249.38 182.891 Z" fill="#000000" fill-rule="nonzero" fill-opacity="1" /></svg>
