<?xml version="1.0" encoding="utf-8"?>
<svg xmlns="http://www.w3.org/2000/svg" xmlns:xlink="http://www.w3.org/1999/xlink" width="600" height="400" viewBox="0 0 2400 1600">
<defs>
  <clipPath id="clip440">
    <rect x="0" y="0" width="2400" height="1600"/>
  </clipPath>
</defs>
<path clip-path="url(#clip440)" d="M0 1600 L2400 1600 L2400 0 L0 0  Z" fill="#ffffff" fill-rule="evenodd" fill-opacity="1"/>
<defs>
  <clipPath id="clip441">
    <rect x="480" y="0" width="1681" height="1600"/>
  </clipPath>
</defs>
<path clip-path="url(#clip440)" d="M141.853 1423.18 L2352.76 1423.18 L2352.76 47.2441 L141.853 47.2441  Z" fill="#ffffff" fill-rule="evenodd" fill-opacity="1"/>
<defs>
  <clipPath id="clip442">
    <rect x="141" y="47" width="2212" height="1377"/>
  </clipPath>
</defs>
<polyline clip-path="url(#clip442)" style="stroke:#000000; stroke-linecap:round; stroke-linejoin:round; stroke-width:2; stroke-opacity:0.1; fill:none" points="395.959,1423.18 395.959,47.2441 "/>
<polyline clip-path="url(#clip442)" style="stroke:#000000; stroke-linecap:round; stroke-linejoin:round; stroke-width:2; stroke-opacity:0.1; fill:none" points="679.741,1423.18 679.741,47.2441 "/>
<polyline clip-path="url(#clip442)" style="stroke:#000000; stroke-linecap:round; stroke-linejoin:round; stroke-width:2; stroke-opacity:0.1; fill:none" points="963.523,1423.18 963.523,47.2441 "/>
<polyline clip-path="url(#clip442)" style="stroke:#000000; stroke-linecap:round; stroke-linejoin:round; stroke-width:2; stroke-opacity:0.1; fill:none" points="1247.3,1423.18 1247.3,47.2441 "/>
<polyline clip-path="url(#clip442)" style="stroke:#000000; stroke-linecap:round; stroke-linejoin:round; stroke-width:2; stroke-opacity:0.1; fill:none" points="1531.09,1423.18 1531.09,47.2441 "/>
<polyline clip-path="url(#clip442)" style="stroke:#000000; stroke-linecap:round; stroke-linejoin:round; stroke-width:2; stroke-opacity:0.1; fill:none" points="1814.87,1423.18 1814.87,47.2441 "/>
<polyline clip-path="url(#clip442)" style="stroke:#000000; stroke-linecap:round; stroke-linejoin:round; stroke-width:2; stroke-opacity:0.1; fill:none" points="2098.65,1423.18 2098.65,47.2441 "/>
<polyline clip-path="url(#clip440)" style="stroke:#000000; stroke-linecap:round; stroke-linejoin:round; stroke-width:4; stroke-opacity:1; fill:none" points="141.853,1423.18 2352.76,1423.18 "/>
<polyline clip-path="url(#clip440)" style="stroke:#000000; stroke-linecap:round; stroke-linejoin:round; stroke-width:4; stroke-opacity:1; fill:none" points="395.959,1423.18 395.959,1404.28 "/>
<polyline clip-path="url(#clip440)" style="stroke:#000000; stroke-linecap:round; stroke-linejoin:round; stroke-width:4; stroke-opacity:1; fill:none" points="679.741,1423.18 679.741,1404.28 "/>
<polyline clip-path="url(#clip440)" style="stroke:#000000; stroke-linecap:round; stroke-linejoin:round; stroke-width:4; stroke-opacity:1; fill:none" points="963.523,1423.18 963.523,1404.28 "/>
<polyline clip-path="url(#clip440)" style="stroke:#000000; stroke-linecap:round; stroke-linejoin:round; stroke-width:4; stroke-opacity:1; fill:none" points="1247.3,1423.18 1247.3,1404.28 "/>
<polyline clip-path="url(#clip440)" style="stroke:#000000; stroke-linecap:round; stroke-linejoin:round; stroke-width:4; stroke-opacity:1; fill:none" points="1531.09,1423.18 1531.09,1404.28 "/>
<polyline clip-path="url(#clip440)" style="stroke:#000000; stroke-linecap:round; stroke-linejoin:round; stroke-width:4; stroke-opacity:1; fill:none" points="1814.87,1423.18 1814.87,1404.28 "/>
<polyline clip-path="url(#clip440)" style="stroke:#000000; stroke-linecap:round; stroke-linejoin:round; stroke-width:4; stroke-opacity:1; fill:none" points="2098.65,1423.18 2098.65,1404.28 "/>
<path clip-path="url(#clip440)" d="M342.811 1468.75 L372.487 1468.75 L372.487 1472.69 L342.811 1472.69 L342.811 1468.75 Z" fill="#000000" fill-rule="nonzero" fill-opacity="1" /><path clip-path="url(#clip440)" d="M392.58 1454.1 Q388.968 1454.1 387.14 1457.66 Q385.334 1461.2 385.334 1468.33 Q385.334 1475.44 387.14 1479.01 Q388.968 1482.55 392.58 1482.55 Q396.214 1482.55 398.019 1479.01 Q399.848 1475.44 399.848 1468.33 Q399.848 1461.2 398.019 1457.66 Q396.214 1454.1 392.58 1454.1 M392.58 1450.39 Q398.39 1450.39 401.445 1455 Q404.524 1459.58 404.524 1468.33 Q404.524 1477.06 401.445 1481.67 Q398.39 1486.25 392.58 1486.25 Q386.769 1486.25 383.691 1481.67 Q380.635 1477.06 380.635 1468.33 Q380.635 1459.58 383.691 1455 Q386.769 1450.39 392.58 1450.39 Z" fill="#000000" fill-rule="nonzero" fill-opacity="1" /><path clip-path="url(#clip440)" d="M412.741 1479.7 L417.626 1479.7 L417.626 1485.58 L412.741 1485.58 L412.741 1479.7 Z" fill="#000000" fill-rule="nonzero" fill-opacity="1" /><path clip-path="url(#clip440)" d="M441.977 1466.95 Q445.334 1467.66 447.209 1469.93 Q449.107 1472.2 449.107 1475.53 Q449.107 1480.65 445.588 1483.45 Q442.07 1486.25 435.589 1486.25 Q433.413 1486.25 431.098 1485.81 Q428.806 1485.39 426.352 1484.54 L426.352 1480.02 Q428.297 1481.16 430.612 1481.74 Q432.927 1482.32 435.45 1482.32 Q439.848 1482.32 442.139 1480.58 Q444.454 1478.84 444.454 1475.53 Q444.454 1472.48 442.301 1470.77 Q440.172 1469.03 436.352 1469.03 L432.325 1469.03 L432.325 1465.19 L436.538 1465.19 Q439.987 1465.19 441.815 1463.82 Q443.644 1462.43 443.644 1459.84 Q443.644 1457.18 441.746 1455.77 Q439.871 1454.33 436.352 1454.33 Q434.431 1454.33 432.232 1454.75 Q430.033 1455.16 427.394 1456.04 L427.394 1451.88 Q430.056 1451.14 432.371 1450.77 Q434.709 1450.39 436.769 1450.39 Q442.093 1450.39 445.195 1452.83 Q448.297 1455.23 448.297 1459.35 Q448.297 1462.22 446.653 1464.21 Q445.01 1466.18 441.977 1466.95 Z" fill="#000000" fill-rule="nonzero" fill-opacity="1" /><path clip-path="url(#clip440)" d="M627.068 1468.75 L656.743 1468.75 L656.743 1472.69 L627.068 1472.69 L627.068 1468.75 Z" fill="#000000" fill-rule="nonzero" fill-opacity="1" /><path clip-path="url(#clip440)" d="M676.836 1454.1 Q673.225 1454.1 671.396 1457.66 Q669.59 1461.2 669.59 1468.33 Q669.59 1475.44 671.396 1479.01 Q673.225 1482.55 676.836 1482.55 Q680.47 1482.55 682.276 1479.01 Q684.104 1475.44 684.104 1468.33 Q684.104 1461.2 682.276 1457.66 Q680.47 1454.1 676.836 1454.1 M676.836 1450.39 Q682.646 1450.39 685.702 1455 Q688.78 1459.58 688.78 1468.33 Q688.78 1477.06 685.702 1481.67 Q682.646 1486.25 676.836 1486.25 Q671.026 1486.25 667.947 1481.67 Q664.891 1477.06 664.891 1468.33 Q664.891 1459.58 667.947 1455 Q671.026 1450.39 676.836 1450.39 Z" fill="#000000" fill-rule="nonzero" fill-opacity="1" /><path clip-path="url(#clip440)" d="M696.998 1479.7 L701.882 1479.7 L701.882 1485.58 L696.998 1485.58 L696.998 1479.7 Z" fill="#000000" fill-rule="nonzero" fill-opacity="1" /><path clip-path="url(#clip440)" d="M716.095 1481.64 L732.414 1481.64 L732.414 1485.58 L710.47 1485.58 L710.47 1481.64 Q713.132 1478.89 717.715 1474.26 Q722.322 1469.61 723.502 1468.27 Q725.748 1465.74 726.627 1464.01 Q727.53 1462.25 727.53 1460.56 Q727.53 1457.8 725.586 1456.07 Q723.664 1454.33 720.562 1454.33 Q718.363 1454.33 715.91 1455.09 Q713.479 1455.86 710.701 1457.41 L710.701 1452.69 Q713.525 1451.55 715.979 1450.97 Q718.433 1450.39 720.47 1450.39 Q725.84 1450.39 729.035 1453.08 Q732.229 1455.77 732.229 1460.26 Q732.229 1462.39 731.419 1464.31 Q730.632 1466.2 728.525 1468.8 Q727.947 1469.47 724.845 1472.69 Q721.743 1475.88 716.095 1481.64 Z" fill="#000000" fill-rule="nonzero" fill-opacity="1" /><path clip-path="url(#clip440)" d="M910.664 1468.75 L940.34 1468.75 L940.34 1472.69 L910.664 1472.69 L910.664 1468.75 Z" fill="#000000" fill-rule="nonzero" fill-opacity="1" /><path clip-path="url(#clip440)" d="M960.432 1454.1 Q956.821 1454.1 954.993 1457.66 Q953.187 1461.2 953.187 1468.33 Q953.187 1475.44 954.993 1479.01 Q956.821 1482.55 960.432 1482.55 Q964.067 1482.55 965.872 1479.01 Q967.701 1475.44 967.701 1468.33 Q967.701 1461.2 965.872 1457.66 Q964.067 1454.1 960.432 1454.1 M960.432 1450.39 Q966.243 1450.39 969.298 1455 Q972.377 1459.58 972.377 1468.33 Q972.377 1477.06 969.298 1481.67 Q966.243 1486.25 960.432 1486.25 Q954.622 1486.25 951.544 1481.67 Q948.488 1477.06 948.488 1468.33 Q948.488 1459.58 951.544 1455 Q954.622 1450.39 960.432 1450.39 Z" fill="#000000" fill-rule="nonzero" fill-opacity="1" /><path clip-path="url(#clip440)" d="M980.594 1479.7 L985.479 1479.7 L985.479 1485.58 L980.594 1485.58 L980.594 1479.7 Z" fill="#000000" fill-rule="nonzero" fill-opacity="1" /><path clip-path="url(#clip440)" d="M996.474 1481.64 L1004.11 1481.64 L1004.11 1455.28 L995.803 1456.95 L995.803 1452.69 L1004.07 1451.02 L1008.74 1451.02 L1008.74 1481.64 L1016.38 1481.64 L1016.38 1485.58 L996.474 1485.58 L996.474 1481.64 Z" fill="#000000" fill-rule="nonzero" fill-opacity="1" /><path clip-path="url(#clip440)" d="M1224.69 1454.1 Q1221.08 1454.1 1219.25 1457.66 Q1217.44 1461.2 1217.44 1468.33 Q1217.44 1475.44 1219.25 1479.01 Q1221.08 1482.55 1224.69 1482.55 Q1228.32 1482.55 1230.13 1479.01 Q1231.96 1475.44 1231.96 1468.33 Q1231.96 1461.2 1230.13 1457.66 Q1228.32 1454.1 1224.69 1454.1 M1224.69 1450.39 Q1230.5 1450.39 1233.55 1455 Q1236.63 1459.58 1236.63 1468.33 Q1236.63 1477.06 1233.55 1481.67 Q1230.5 1486.25 1224.69 1486.25 Q1218.88 1486.25 1215.8 1481.67 Q1212.74 1477.06 1212.74 1468.33 Q1212.74 1459.58 1215.8 1455 Q1218.88 1450.39 1224.69 1450.39 Z" fill="#000000" fill-rule="nonzero" fill-opacity="1" /><path clip-path="url(#clip440)" d="M1244.85 1479.7 L1249.73 1479.7 L1249.73 1485.58 L1244.85 1485.58 L1244.85 1479.7 Z" fill="#000000" fill-rule="nonzero" fill-opacity="1" /><path clip-path="url(#clip440)" d="M1269.92 1454.1 Q1266.31 1454.1 1264.48 1457.66 Q1262.67 1461.2 1262.67 1468.33 Q1262.67 1475.44 1264.48 1479.01 Q1266.31 1482.55 1269.92 1482.55 Q1273.55 1482.55 1275.36 1479.01 Q1277.19 1475.44 1277.19 1468.33 Q1277.19 1461.2 1275.36 1457.66 Q1273.55 1454.1 1269.92 1454.1 M1269.92 1450.39 Q1275.73 1450.39 1278.79 1455 Q1281.86 1459.58 1281.86 1468.33 Q1281.86 1477.06 1278.79 1481.67 Q1275.73 1486.25 1269.92 1486.25 Q1264.11 1486.25 1261.03 1481.67 Q1257.98 1477.06 1257.98 1468.33 Q1257.98 1459.58 1261.03 1455 Q1264.11 1450.39 1269.92 1450.39 Z" fill="#000000" fill-rule="nonzero" fill-opacity="1" /><path clip-path="url(#clip440)" d="M1509.08 1454.1 Q1505.47 1454.1 1503.64 1457.66 Q1501.84 1461.2 1501.84 1468.33 Q1501.84 1475.44 1503.64 1479.01 Q1505.47 1482.55 1509.08 1482.55 Q1512.72 1482.55 1514.52 1479.01 Q1516.35 1475.44 1516.35 1468.33 Q1516.35 1461.2 1514.52 1457.66 Q1512.72 1454.1 1509.08 1454.1 M1509.08 1450.39 Q1514.89 1450.39 1517.95 1455 Q1521.03 1459.58 1521.03 1468.33 Q1521.03 1477.06 1517.95 1481.67 Q1514.89 1486.25 1509.08 1486.25 Q1503.27 1486.25 1500.2 1481.67 Q1497.14 1477.06 1497.14 1468.33 Q1497.14 1459.58 1500.2 1455 Q1503.27 1450.39 1509.08 1450.39 Z" fill="#000000" fill-rule="nonzero" fill-opacity="1" /><path clip-path="url(#clip440)" d="M1529.25 1479.7 L1534.13 1479.7 L1534.13 1485.58 L1529.25 1485.58 L1529.25 1479.7 Z" fill="#000000" fill-rule="nonzero" fill-opacity="1" /><path clip-path="url(#clip440)" d="M1545.13 1481.64 L1552.76 1481.64 L1552.76 1455.28 L1544.45 1456.95 L1544.45 1452.69 L1552.72 1451.02 L1557.39 1451.02 L1557.39 1481.64 L1565.03 1481.64 L1565.03 1485.58 L1545.13 1485.58 L1545.13 1481.64 Z" fill="#000000" fill-rule="nonzero" fill-opacity="1" /><path clip-path="url(#clip440)" d="M1793.05 1454.1 Q1789.44 1454.1 1787.61 1457.66 Q1785.81 1461.2 1785.81 1468.33 Q1785.81 1475.44 1787.61 1479.01 Q1789.44 1482.55 1793.05 1482.55 Q1796.69 1482.55 1798.49 1479.01 Q1800.32 1475.44 1800.32 1468.33 Q1800.32 1461.2 1798.49 1457.66 Q1796.69 1454.1 1793.05 1454.1 M1793.05 1450.39 Q1798.86 1450.39 1801.92 1455 Q1805 1459.58 1805 1468.33 Q1805 1477.06 1801.92 1481.67 Q1798.86 1486.25 1793.05 1486.25 Q1787.24 1486.25 1784.16 1481.67 Q1781.11 1477.06 1781.11 1468.33 Q1781.11 1459.58 1784.16 1455 Q1787.24 1450.39 1793.05 1450.39 Z" fill="#000000" fill-rule="nonzero" fill-opacity="1" /><path clip-path="url(#clip440)" d="M1813.21 1479.7 L1818.1 1479.7 L1818.1 1485.58 L1813.21 1485.58 L1813.21 1479.7 Z" fill="#000000" fill-rule="nonzero" fill-opacity="1" /><path clip-path="url(#clip440)" d="M1832.31 1481.64 L1848.63 1481.64 L1848.63 1485.58 L1826.69 1485.58 L1826.69 1481.64 Q1829.35 1478.89 1833.93 1474.26 Q1838.54 1469.61 1839.72 1468.27 Q1841.96 1465.74 1842.84 1464.01 Q1843.75 1462.25 1843.75 1460.56 Q1843.75 1457.8 1841.8 1456.07 Q1839.88 1454.33 1836.78 1454.33 Q1834.58 1454.33 1832.12 1455.09 Q1829.69 1455.86 1826.92 1457.41 L1826.92 1452.69 Q1829.74 1451.55 1832.19 1450.97 Q1834.65 1450.39 1836.68 1450.39 Q1842.06 1450.39 1845.25 1453.08 Q1848.44 1455.77 1848.44 1460.26 Q1848.44 1462.39 1847.63 1464.31 Q1846.85 1466.2 1844.74 1468.8 Q1844.16 1469.47 1841.06 1472.69 Q1837.96 1475.88 1832.31 1481.64 Z" fill="#000000" fill-rule="nonzero" fill-opacity="1" /><path clip-path="url(#clip440)" d="M2076.36 1454.1 Q2072.75 1454.1 2070.92 1457.66 Q2069.11 1461.2 2069.11 1468.33 Q2069.11 1475.44 2070.92 1479.01 Q2072.75 1482.55 2076.36 1482.55 Q2079.99 1482.55 2081.8 1479.01 Q2083.63 1475.44 2083.63 1468.33 Q2083.63 1461.2 2081.8 1457.66 Q2079.99 1454.1 2076.36 1454.1 M2076.36 1450.39 Q2082.17 1450.39 2085.22 1455 Q2088.3 1459.58 2088.3 1468.33 Q2088.3 1477.06 2085.22 1481.67 Q2082.17 1486.25 2076.36 1486.25 Q2070.55 1486.25 2067.47 1481.67 Q2064.41 1477.06 2064.41 1468.33 Q2064.41 1459.58 2067.47 1455 Q2070.55 1450.39 2076.36 1450.39 Z" fill="#000000" fill-rule="nonzero" fill-opacity="1" /><path clip-path="url(#clip440)" d="M2096.52 1479.7 L2101.4 1479.7 L2101.4 1485.58 L2096.52 1485.58 L2096.52 1479.7 Z" fill="#000000" fill-rule="nonzero" fill-opacity="1" /><path clip-path="url(#clip440)" d="M2125.76 1466.95 Q2129.11 1467.66 2130.99 1469.93 Q2132.89 1472.2 2132.89 1475.53 Q2132.89 1480.65 2129.37 1483.45 Q2125.85 1486.25 2119.37 1486.25 Q2117.19 1486.25 2114.88 1485.81 Q2112.58 1485.39 2110.13 1484.54 L2110.13 1480.02 Q2112.08 1481.16 2114.39 1481.74 Q2116.71 1482.32 2119.23 1482.32 Q2123.63 1482.32 2125.92 1480.58 Q2128.23 1478.84 2128.23 1475.53 Q2128.23 1472.48 2126.08 1470.77 Q2123.95 1469.03 2120.13 1469.03 L2116.1 1469.03 L2116.1 1465.19 L2120.32 1465.19 Q2123.77 1465.19 2125.59 1463.82 Q2127.42 1462.43 2127.42 1459.84 Q2127.42 1457.18 2125.52 1455.77 Q2123.65 1454.33 2120.13 1454.33 Q2118.21 1454.33 2116.01 1454.75 Q2113.81 1455.16 2111.17 1456.04 L2111.17 1451.88 Q2113.83 1451.14 2116.15 1450.77 Q2118.49 1450.39 2120.55 1450.39 Q2125.87 1450.39 2128.97 1452.83 Q2132.08 1455.23 2132.08 1459.35 Q2132.08 1462.22 2130.43 1464.21 Q2128.79 1466.18 2125.76 1466.95 Z" fill="#000000" fill-rule="nonzero" fill-opacity="1" /><path clip-path="url(#clip440)" d="M933.73 1548.76 L933.73 1551.62 L906.803 1551.62 Q907.185 1557.67 910.431 1560.85 Q913.71 1564 919.534 1564 Q922.908 1564 926.059 1563.17 Q929.242 1562.35 932.361 1560.69 L932.361 1566.23 Q929.21 1567.57 925.9 1568.27 Q922.59 1568.97 919.184 1568.97 Q910.654 1568.97 905.657 1564 Q900.692 1559.04 900.692 1550.57 Q900.692 1541.82 905.402 1536.69 Q910.145 1531.54 918.166 1531.54 Q925.359 1531.54 929.528 1536.18 Q933.73 1540.8 933.73 1548.76 M927.873 1547.04 Q927.81 1542.23 925.168 1539.37 Q922.558 1536.5 918.229 1536.5 Q913.328 1536.5 910.368 1539.27 Q907.439 1542.04 906.994 1547.07 L927.873 1547.04 Z" fill="#000000" fill-rule="nonzero" fill-opacity="1" /><path clip-path="url(#clip440)" d="M943.342 1532.4 L949.198 1532.4 L949.198 1568.04 L943.342 1568.04 L943.342 1532.4 M943.342 1518.52 L949.198 1518.52 L949.198 1525.93 L943.342 1525.93 L943.342 1518.52 Z" fill="#000000" fill-rule="nonzero" fill-opacity="1" /><path clip-path="url(#clip440)" d="M984.91 1549.81 Q984.91 1543.44 982.268 1539.94 Q979.658 1536.44 974.916 1536.44 Q970.205 1536.44 967.563 1539.94 Q964.954 1543.44 964.954 1549.81 Q964.954 1556.14 967.563 1559.64 Q970.205 1563.14 974.916 1563.14 Q979.658 1563.14 982.268 1559.64 Q984.91 1556.14 984.91 1549.81 M990.766 1563.62 Q990.766 1572.72 986.724 1577.15 Q982.682 1581.6 974.343 1581.6 Q971.256 1581.6 968.518 1581.13 Q965.781 1580.68 963.203 1579.72 L963.203 1574.03 Q965.781 1575.43 968.296 1576.1 Q970.81 1576.76 973.42 1576.76 Q979.181 1576.76 982.045 1573.74 Q984.91 1570.75 984.91 1564.67 L984.91 1561.77 Q983.096 1564.92 980.263 1566.48 Q977.43 1568.04 973.484 1568.04 Q966.927 1568.04 962.916 1563.05 Q958.906 1558.05 958.906 1549.81 Q958.906 1541.53 962.916 1536.53 Q966.927 1531.54 973.484 1531.54 Q977.43 1531.54 980.263 1533.1 Q983.096 1534.66 984.91 1537.81 L984.91 1532.4 L990.766 1532.4 L990.766 1563.62 Z" fill="#000000" fill-rule="nonzero" fill-opacity="1" /><path clip-path="url(#clip440)" d="M1033.32 1548.76 L1033.32 1551.62 L1006.39 1551.62 Q1006.78 1557.67 1010.02 1560.85 Q1013.3 1564 1019.13 1564 Q1022.5 1564 1025.65 1563.17 Q1028.83 1562.35 1031.95 1560.69 L1031.95 1566.23 Q1028.8 1567.57 1025.49 1568.27 Q1022.18 1568.97 1018.78 1568.97 Q1010.25 1568.97 1005.25 1564 Q1000.28 1559.04 1000.28 1550.57 Q1000.28 1541.82 1004.99 1536.69 Q1009.74 1531.54 1017.76 1531.54 Q1024.95 1531.54 1029.12 1536.18 Q1033.32 1540.8 1033.32 1548.76 M1027.46 1547.04 Q1027.4 1542.23 1024.76 1539.37 Q1022.15 1536.5 1017.82 1536.5 Q1012.92 1536.5 1009.96 1539.27 Q1007.03 1542.04 1006.59 1547.07 L1027.46 1547.04 Z" fill="#000000" fill-rule="nonzero" fill-opacity="1" /><path clip-path="url(#clip440)" d="M1072.57 1546.53 L1072.57 1568.04 L1066.71 1568.04 L1066.71 1546.72 Q1066.71 1541.66 1064.74 1539.14 Q1062.76 1536.63 1058.82 1536.63 Q1054.07 1536.63 1051.34 1539.65 Q1048.6 1542.68 1048.6 1547.9 L1048.6 1568.04 L1042.71 1568.04 L1042.71 1532.4 L1048.6 1532.4 L1048.6 1537.93 Q1050.7 1534.72 1053.53 1533.13 Q1056.4 1531.54 1060.12 1531.54 Q1066.26 1531.54 1069.41 1535.36 Q1072.57 1539.14 1072.57 1546.53 Z" fill="#000000" fill-rule="nonzero" fill-opacity="1" /><path clip-path="url(#clip440)" d="M1080.05 1532.4 L1086.25 1532.4 L1097.39 1562.31 L1108.53 1532.4 L1114.74 1532.4 L1101.37 1568.04 L1093.41 1568.04 L1080.05 1532.4 Z" fill="#000000" fill-rule="nonzero" fill-opacity="1" /><path clip-path="url(#clip440)" d="M1139.02 1550.12 Q1131.93 1550.12 1129.19 1551.75 Q1126.45 1553.37 1126.45 1557.29 Q1126.45 1560.4 1128.49 1562.25 Q1130.56 1564.07 1134.09 1564.07 Q1138.96 1564.07 1141.89 1560.63 Q1144.85 1557.16 1144.85 1551.43 L1144.85 1550.12 L1139.02 1550.12 M1150.7 1547.71 L1150.7 1568.04 L1144.85 1568.04 L1144.85 1562.63 Q1142.84 1565.88 1139.85 1567.44 Q1136.86 1568.97 1132.53 1568.97 Q1127.06 1568.97 1123.81 1565.91 Q1120.6 1562.82 1120.6 1557.67 Q1120.6 1551.65 1124.61 1548.6 Q1128.65 1545.54 1136.64 1545.54 L1144.85 1545.54 L1144.85 1544.97 Q1144.85 1540.93 1142.17 1538.73 Q1139.53 1536.5 1134.73 1536.5 Q1131.67 1536.5 1128.77 1537.23 Q1125.88 1537.97 1123.2 1539.43 L1123.2 1534.02 Q1126.42 1532.78 1129.44 1532.17 Q1132.47 1531.54 1135.33 1531.54 Q1143.07 1531.54 1146.89 1535.55 Q1150.7 1539.56 1150.7 1547.71 Z" fill="#000000" fill-rule="nonzero" fill-opacity="1" /><path clip-path="url(#clip440)" d="M1162.77 1518.52 L1168.62 1518.52 L1168.62 1568.04 L1162.77 1568.04 L1162.77 1518.52 Z" fill="#000000" fill-rule="nonzero" fill-opacity="1" /><path clip-path="url(#clip440)" d="M1180.27 1553.98 L1180.27 1532.4 L1186.13 1532.4 L1186.13 1553.75 Q1186.13 1558.81 1188.1 1561.36 Q1190.08 1563.87 1194.02 1563.87 Q1198.77 1563.87 1201.5 1560.85 Q1204.27 1557.83 1204.27 1552.61 L1204.27 1532.4 L1210.13 1532.4 L1210.13 1568.04 L1204.27 1568.04 L1204.27 1562.57 Q1202.14 1565.82 1199.31 1567.41 Q1196.51 1568.97 1192.78 1568.97 Q1186.64 1568.97 1183.46 1565.15 Q1180.27 1561.33 1180.27 1553.98 M1195.01 1531.54 L1195.01 1531.54 Z" fill="#000000" fill-rule="nonzero" fill-opacity="1" /><path clip-path="url(#clip440)" d="M1252.68 1548.76 L1252.68 1551.62 L1225.76 1551.62 Q1226.14 1557.67 1229.38 1560.85 Q1232.66 1564 1238.49 1564 Q1241.86 1564 1245.01 1563.17 Q1248.2 1562.35 1251.31 1560.69 L1251.31 1566.23 Q1248.16 1567.57 1244.85 1568.27 Q1241.54 1568.97 1238.14 1568.97 Q1229.61 1568.97 1224.61 1564 Q1219.65 1559.04 1219.65 1550.57 Q1219.65 1541.82 1224.36 1536.69 Q1229.1 1531.54 1237.12 1531.54 Q1244.31 1531.54 1248.48 1536.18 Q1252.68 1540.8 1252.68 1548.76 M1246.83 1547.04 Q1246.76 1542.23 1244.12 1539.37 Q1241.51 1536.5 1237.18 1536.5 Q1232.28 1536.5 1229.32 1539.27 Q1226.39 1542.04 1225.95 1547.07 L1246.83 1547.04 Z" fill="#000000" fill-rule="nonzero" fill-opacity="1" /><path clip-path="url(#clip440)" d="M1285.02 1533.45 L1285.02 1538.98 Q1282.54 1537.71 1279.87 1537.07 Q1277.19 1536.44 1274.33 1536.44 Q1269.97 1536.44 1267.77 1537.77 Q1265.61 1539.11 1265.61 1541.79 Q1265.61 1543.82 1267.17 1545 Q1268.73 1546.15 1273.44 1547.2 L1275.44 1547.64 Q1281.68 1548.98 1284.29 1551.43 Q1286.93 1553.85 1286.93 1558.21 Q1286.93 1563.17 1282.98 1566.07 Q1279.07 1568.97 1272.19 1568.97 Q1269.33 1568.97 1266.21 1568.39 Q1263.12 1567.85 1259.69 1566.74 L1259.69 1560.69 Q1262.93 1562.38 1266.08 1563.24 Q1269.23 1564.07 1272.32 1564.07 Q1276.46 1564.07 1278.69 1562.66 Q1280.92 1561.23 1280.92 1558.65 Q1280.92 1556.27 1279.29 1554.99 Q1277.7 1553.72 1272.26 1552.54 L1270.22 1552.07 Q1264.78 1550.92 1262.36 1548.56 Q1259.94 1546.18 1259.94 1542.04 Q1259.94 1537.01 1263.51 1534.27 Q1267.07 1531.54 1273.63 1531.54 Q1276.87 1531.54 1279.74 1532.01 Q1282.6 1532.49 1285.02 1533.45 Z" fill="#000000" fill-rule="nonzero" fill-opacity="1" /><path clip-path="url(#clip440)" d="M1314.02 1547.58 L1331.17 1547.58 L1331.17 1552.8 L1314.02 1552.8 L1314.02 1547.58 Z" fill="#000000" fill-rule="nonzero" fill-opacity="1" /><path clip-path="url(#clip440)" d="M1346.93 1548.82 Q1343.36 1548.06 1341.45 1545.99 Q1339.54 1543.95 1339.54 1540.99 Q1339.54 1536.5 1343.17 1533.99 Q1346.77 1531.5 1353.01 1531.5 Q1355.43 1531.5 1358.13 1531.89 Q1360.84 1532.27 1363.96 1533.03 L1363.96 1538.35 Q1360.87 1537.42 1358.32 1537.01 Q1355.74 1536.6 1353.48 1536.6 Q1349.7 1536.6 1347.5 1538.06 Q1345.27 1539.53 1345.27 1541.56 Q1345.27 1543.79 1347.44 1545.22 Q1349.57 1546.62 1353.26 1546.62 L1358.2 1546.62 L1358.2 1551.46 L1353.48 1551.46 Q1349.12 1551.46 1346.83 1553.08 Q1344.35 1554.87 1344.35 1557.67 Q1344.35 1560.53 1347.02 1562.31 Q1349.73 1564.1 1354.53 1564.1 Q1357.49 1564.1 1360.2 1563.52 Q1362.91 1562.92 1365.17 1561.74 L1365.17 1567.18 Q1362.3 1568.08 1359.63 1568.52 Q1356.92 1568.97 1354.38 1568.97 Q1346.8 1568.97 1342.69 1566.07 Q1338.59 1563.17 1338.59 1557.67 Q1338.59 1554.23 1340.78 1551.91 Q1342.98 1549.58 1346.93 1548.82 Z" fill="#000000" fill-rule="nonzero" fill-opacity="1" /><path clip-path="url(#clip440)" d="M1402.82 1578.87 L1402.82 1583.42 L1368.95 1583.42 L1368.95 1578.87 L1402.82 1578.87 Z" fill="#000000" fill-rule="nonzero" fill-opacity="1" /><path clip-path="url(#clip440)" d="M1408.58 1520.52 L1435.89 1520.52 L1435.89 1525.93 L1415.01 1525.93 L1415.01 1539.94 L1433.85 1539.94 L1433.85 1545.35 L1415.01 1545.35 L1415.01 1568.04 L1408.58 1568.04 L1408.58 1520.52 Z" fill="#000000" fill-rule="nonzero" fill-opacity="1" /><path clip-path="url(#clip440)" d="M1501.33 1518.58 Q1497.06 1525.9 1494.99 1533.06 Q1492.93 1540.23 1492.93 1547.58 Q1492.93 1554.93 1494.99 1562.16 Q1497.09 1569.35 1501.33 1576.64 L1496.24 1576.64 Q1491.46 1569.16 1489.07 1561.93 Q1486.72 1554.71 1486.72 1547.58 Q1486.72 1540.48 1489.07 1533.29 Q1491.43 1526.09 1496.24 1518.58 L1501.33 1518.58 Z" fill="#000000" fill-rule="nonzero" fill-opacity="1" /><path clip-path="url(#clip440)" d="M1512.95 1520.52 L1542.99 1520.52 L1542.99 1525.93 L1519.37 1525.93 L1519.37 1540 L1542 1540 L1542 1545.41 L1519.37 1545.41 L1519.37 1562.63 L1543.56 1562.63 L1543.56 1568.04 L1512.95 1568.04 L1512.95 1520.52 Z" fill="#000000" fill-rule="nonzero" fill-opacity="1" /><path clip-path="url(#clip440)" d="M1570.27 1555.98 L1570.27 1568.04 L1566.58 1568.04 L1566.58 1556.11 Q1566.58 1553.28 1565.34 1551.87 Q1564.09 1550.44 1561.61 1550.44 Q1558.62 1550.44 1556.9 1552.16 Q1555.18 1553.85 1555.18 1556.78 L1555.18 1568.04 L1551.46 1568.04 L1551.46 1540.32 L1555.18 1540.32 L1555.18 1551.17 Q1556.49 1549.39 1558.27 1548.5 Q1560.08 1547.61 1562.44 1547.61 Q1566.29 1547.61 1568.26 1549.74 Q1570.27 1551.87 1570.27 1555.98 Z" fill="#000000" fill-rule="nonzero" fill-opacity="1" /><path clip-path="url(#clip440)" d="M1579.31 1518.58 L1584.4 1518.58 Q1589.17 1526.09 1591.53 1533.29 Q1593.92 1540.48 1593.92 1547.58 Q1593.92 1554.71 1591.53 1561.93 Q1589.17 1569.16 1584.4 1576.64 L1579.31 1576.64 Q1583.54 1569.35 1585.61 1562.16 Q1587.71 1554.93 1587.71 1547.58 Q1587.71 1540.23 1585.61 1533.06 Q1583.54 1525.9 1579.31 1518.58 Z" fill="#000000" fill-rule="nonzero" fill-opacity="1" /><polyline clip-path="url(#clip442)" style="stroke:#000000; stroke-linecap:round; stroke-linejoin:round; stroke-width:2; stroke-opacity:0.1; fill:none" points="141.853,1384.25 2352.76,1384.25 "/>
<polyline clip-path="url(#clip442)" style="stroke:#000000; stroke-linecap:round; stroke-linejoin:round; stroke-width:2; stroke-opacity:0.1; fill:none" points="141.853,1185.12 2352.76,1185.12 "/>
<polyline clip-path="url(#clip442)" style="stroke:#000000; stroke-linecap:round; stroke-linejoin:round; stroke-width:2; stroke-opacity:0.1; fill:none" points="141.853,985.992 2352.76,985.992 "/>
<polyline clip-path="url(#clip442)" style="stroke:#000000; stroke-linecap:round; stroke-linejoin:round; stroke-width:2; stroke-opacity:0.1; fill:none" points="141.853,786.865 2352.76,786.865 "/>
<polyline clip-path="url(#clip442)" style="stroke:#000000; stroke-linecap:round; stroke-linejoin:round; stroke-width:2; stroke-opacity:0.1; fill:none" points="141.853,587.738 2352.76,587.738 "/>
<polyline clip-path="url(#clip442)" style="stroke:#000000; stroke-linecap:round; stroke-linejoin:round; stroke-width:2; stroke-opacity:0.1; fill:none" points="141.853,388.611 2352.76,388.611 "/>
<polyline clip-path="url(#clip442)" style="stroke:#000000; stroke-linecap:round; stroke-linejoin:round; stroke-width:2; stroke-opacity:0.1; fill:none" points="141.853,189.484 2352.76,189.484 "/>
<polyline clip-path="url(#clip440)" style="stroke:#000000; stroke-linecap:round; stroke-linejoin:round; stroke-width:4; stroke-opacity:1; fill:none" points="141.853,1423.18 141.853,47.2441 "/>
<polyline clip-path="url(#clip440)" style="stroke:#000000; stroke-linecap:round; stroke-linejoin:round; stroke-width:4; stroke-opacity:1; fill:none" points="141.853,1384.25 160.751,1384.25 "/>
<polyline clip-path="url(#clip440)" style="stroke:#000000; stroke-linecap:round; stroke-linejoin:round; stroke-width:4; stroke-opacity:1; fill:none" points="141.853,1185.12 160.751,1185.12 "/>
<polyline clip-path="url(#clip440)" style="stroke:#000000; stroke-linecap:round; stroke-linejoin:round; stroke-width:4; stroke-opacity:1; fill:none" points="141.853,985.992 160.751,985.992 "/>
<polyline clip-path="url(#clip440)" style="stroke:#000000; stroke-linecap:round; stroke-linejoin:round; stroke-width:4; stroke-opacity:1; fill:none" points="141.853,786.865 160.751,786.865 "/>
<polyline clip-path="url(#clip440)" style="stroke:#000000; stroke-linecap:round; stroke-linejoin:round; stroke-width:4; stroke-opacity:1; fill:none" points="141.853,587.738 160.751,587.738 "/>
<polyline clip-path="url(#clip440)" style="stroke:#000000; stroke-linecap:round; stroke-linejoin:round; stroke-width:4; stroke-opacity:1; fill:none" points="141.853,388.611 160.751,388.611 "/>
<polyline clip-path="url(#clip440)" style="stroke:#000000; stroke-linecap:round; stroke-linejoin:round; stroke-width:4; stroke-opacity:1; fill:none" points="141.853,189.484 160.751,189.484 "/>
<path clip-path="url(#clip440)" d="M93.9086 1370.05 Q90.2975 1370.05 88.4688 1373.61 Q86.6632 1377.15 86.6632 1384.28 Q86.6632 1391.39 88.4688 1394.95 Q90.2975 1398.49 93.9086 1398.49 Q97.5428 1398.49 99.3483 1394.95 Q101.177 1391.39 101.177 1384.28 Q101.177 1377.15 99.3483 1373.61 Q97.5428 1370.05 93.9086 1370.05 M93.9086 1366.34 Q99.7187 1366.34 102.774 1370.95 Q105.853 1375.53 105.853 1384.28 Q105.853 1393.01 102.774 1397.61 Q99.7187 1402.2 93.9086 1402.2 Q88.0984 1402.2 85.0197 1397.61 Q81.9642 1393.01 81.9642 1384.28 Q81.9642 1375.53 85.0197 1370.95 Q88.0984 1366.34 93.9086 1366.34 Z" fill="#000000" fill-rule="nonzero" fill-opacity="1" /><path clip-path="url(#clip440)" d="M54.5569 1198.46 L62.1958 1198.46 L62.1958 1172.1 L53.8856 1173.77 L53.8856 1169.51 L62.1495 1167.84 L66.8254 1167.84 L66.8254 1198.46 L74.4642 1198.46 L74.4642 1202.4 L54.5569 1202.4 L54.5569 1198.46 Z" fill="#000000" fill-rule="nonzero" fill-opacity="1" /><path clip-path="url(#clip440)" d="M93.9086 1170.92 Q90.2975 1170.92 88.4688 1174.48 Q86.6632 1178.02 86.6632 1185.15 Q86.6632 1192.26 88.4688 1195.83 Q90.2975 1199.37 93.9086 1199.37 Q97.5428 1199.37 99.3483 1195.83 Q101.177 1192.26 101.177 1185.15 Q101.177 1178.02 99.3483 1174.48 Q97.5428 1170.92 93.9086 1170.92 M93.9086 1167.21 Q99.7187 1167.21 102.774 1171.82 Q105.853 1176.4 105.853 1185.15 Q105.853 1193.88 102.774 1198.49 Q99.7187 1203.07 93.9086 1203.07 Q88.0984 1203.07 85.0197 1198.49 Q81.9642 1193.88 81.9642 1185.15 Q81.9642 1176.4 85.0197 1171.82 Q88.0984 1167.21 93.9086 1167.21 Z" fill="#000000" fill-rule="nonzero" fill-opacity="1" /><path clip-path="url(#clip440)" d="M57.7745 999.337 L74.0939 999.337 L74.0939 1003.27 L52.1495 1003.27 L52.1495 999.337 Q54.8115 996.583 59.3949 991.953 Q64.0013 987.3 65.1819 985.958 Q67.4272 983.435 68.3068 981.699 Q69.2096 979.939 69.2096 978.249 Q69.2096 975.495 67.2652 973.759 Q65.3439 972.023 62.2421 972.023 Q60.043 972.023 57.5893 972.787 Q55.1588 973.55 52.381 975.101 L52.381 970.379 Q55.2051 969.245 57.6588 968.666 Q60.1124 968.087 62.1495 968.087 Q67.5198 968.087 70.7142 970.773 Q73.9087 973.458 73.9087 977.949 Q73.9087 980.078 73.0985 981.999 Q72.3115 983.898 70.205 986.49 Q69.6263 987.161 66.5245 990.379 Q63.4226 993.573 57.7745 999.337 Z" fill="#000000" fill-rule="nonzero" fill-opacity="1" /><path clip-path="url(#clip440)" d="M93.9086 971.791 Q90.2975 971.791 88.4688 975.356 Q86.6632 978.898 86.6632 986.027 Q86.6632 993.134 88.4688 996.698 Q90.2975 1000.24 93.9086 1000.24 Q97.5428 1000.24 99.3483 996.698 Q101.177 993.134 101.177 986.027 Q101.177 978.898 99.3483 975.356 Q97.5428 971.791 93.9086 971.791 M93.9086 968.087 Q99.7187 968.087 102.774 972.694 Q105.853 977.277 105.853 986.027 Q105.853 994.754 102.774 999.36 Q99.7187 1003.94 93.9086 1003.94 Q88.0984 1003.94 85.0197 999.36 Q81.9642 994.754 81.9642 986.027 Q81.9642 977.277 85.0197 972.694 Q88.0984 968.087 93.9086 968.087 Z" fill="#000000" fill-rule="nonzero" fill-opacity="1" /><path clip-path="url(#clip440)" d="M67.9133 785.511 Q71.2698 786.229 73.1448 788.497 Q75.0429 790.766 75.0429 794.099 Q75.0429 799.215 71.5244 802.016 Q68.0059 804.817 61.5245 804.817 Q59.3486 804.817 57.0338 804.377 Q54.7421 803.96 52.2884 803.104 L52.2884 798.59 Q54.2328 799.724 56.5477 800.303 Q58.8625 800.882 61.3856 800.882 Q65.7837 800.882 68.0754 799.145 Q70.3902 797.409 70.3902 794.099 Q70.3902 791.044 68.2374 789.331 Q66.1078 787.595 62.2884 787.595 L58.2606 787.595 L58.2606 783.752 L62.4735 783.752 Q65.9226 783.752 67.7513 782.386 Q69.58 780.997 69.58 778.405 Q69.58 775.743 67.6819 774.331 Q65.8069 772.896 62.2884 772.896 Q60.3671 772.896 58.168 773.312 Q55.969 773.729 53.3301 774.608 L53.3301 770.442 Q55.9921 769.701 58.3069 769.331 Q60.6449 768.96 62.705 768.96 Q68.0291 768.96 71.1309 771.391 Q74.2327 773.798 74.2327 777.919 Q74.2327 780.789 72.5892 782.78 Q70.9457 784.747 67.9133 785.511 Z" fill="#000000" fill-rule="nonzero" fill-opacity="1" /><path clip-path="url(#clip440)" d="M93.9086 772.664 Q90.2975 772.664 88.4688 776.229 Q86.6632 779.771 86.6632 786.9 Q86.6632 794.007 88.4688 797.571 Q90.2975 801.113 93.9086 801.113 Q97.5428 801.113 99.3483 797.571 Q101.177 794.007 101.177 786.9 Q101.177 779.771 99.3483 776.229 Q97.5428 772.664 93.9086 772.664 M93.9086 768.96 Q99.7187 768.96 102.774 773.567 Q105.853 778.15 105.853 786.9 Q105.853 795.627 102.774 800.233 Q99.7187 804.817 93.9086 804.817 Q88.0984 804.817 85.0197 800.233 Q81.9642 795.627 81.9642 786.9 Q81.9642 778.15 85.0197 773.567 Q88.0984 768.96 93.9086 768.96 Z" fill="#000000" fill-rule="nonzero" fill-opacity="1" /><path clip-path="url(#clip440)" d="M66.5939 574.532 L54.7884 592.981 L66.5939 592.981 L66.5939 574.532 M65.367 570.458 L71.2466 570.458 L71.2466 592.981 L76.1772 592.981 L76.1772 596.87 L71.2466 596.87 L71.2466 605.018 L66.5939 605.018 L66.5939 596.87 L50.9921 596.87 L50.9921 592.356 L65.367 570.458 Z" fill="#000000" fill-rule="nonzero" fill-opacity="1" /><path clip-path="url(#clip440)" d="M93.9086 573.537 Q90.2975 573.537 88.4688 577.102 Q86.6632 580.643 86.6632 587.773 Q86.6632 594.879 88.4688 598.444 Q90.2975 601.986 93.9086 601.986 Q97.5428 601.986 99.3483 598.444 Q101.177 594.879 101.177 587.773 Q101.177 580.643 99.3483 577.102 Q97.5428 573.537 93.9086 573.537 M93.9086 569.833 Q99.7187 569.833 102.774 574.44 Q105.853 579.023 105.853 587.773 Q105.853 596.5 102.774 601.106 Q99.7187 605.69 93.9086 605.69 Q88.0984 605.69 85.0197 601.106 Q81.9642 596.5 81.9642 587.773 Q81.9642 579.023 85.0197 574.44 Q88.0984 569.833 93.9086 569.833 Z" fill="#000000" fill-rule="nonzero" fill-opacity="1" /><path clip-path="url(#clip440)" d="M53.793 371.331 L72.1494 371.331 L72.1494 375.266 L58.0754 375.266 L58.0754 383.739 Q59.0939 383.391 60.1124 383.229 Q61.131 383.044 62.1495 383.044 Q67.9365 383.044 71.3161 386.215 Q74.6957 389.387 74.6957 394.803 Q74.6957 400.382 71.2235 403.484 Q67.7513 406.562 61.4319 406.562 Q59.256 406.562 56.9875 406.192 Q54.7421 405.822 52.3347 405.081 L52.3347 400.382 Q54.418 401.516 56.6402 402.072 Q58.8625 402.627 61.3393 402.627 Q65.3439 402.627 67.6819 400.521 Q70.0198 398.414 70.0198 394.803 Q70.0198 391.192 67.6819 389.086 Q65.3439 386.979 61.3393 386.979 Q59.4643 386.979 57.5893 387.396 Q55.7375 387.813 53.793 388.692 L53.793 371.331 Z" fill="#000000" fill-rule="nonzero" fill-opacity="1" /><path clip-path="url(#clip440)" d="M93.9086 374.41 Q90.2975 374.41 88.4688 377.975 Q86.6632 381.516 86.6632 388.646 Q86.6632 395.752 88.4688 399.317 Q90.2975 402.859 93.9086 402.859 Q97.5428 402.859 99.3483 399.317 Q101.177 395.752 101.177 388.646 Q101.177 381.516 99.3483 377.975 Q97.5428 374.41 93.9086 374.41 M93.9086 370.706 Q99.7187 370.706 102.774 375.313 Q105.853 379.896 105.853 388.646 Q105.853 397.373 102.774 401.979 Q99.7187 406.562 93.9086 406.562 Q88.0984 406.562 85.0197 401.979 Q81.9642 397.373 81.9642 388.646 Q81.9642 379.896 85.0197 375.313 Q88.0984 370.706 93.9086 370.706 Z" fill="#000000" fill-rule="nonzero" fill-opacity="1" /><path clip-path="url(#clip440)" d="M64.3254 187.621 Q61.1773 187.621 59.3254 189.773 Q57.4967 191.926 57.4967 195.676 Q57.4967 199.403 59.3254 201.579 Q61.1773 203.732 64.3254 203.732 Q67.4735 203.732 69.3022 201.579 Q71.1541 199.403 71.1541 195.676 Q71.1541 191.926 69.3022 189.773 Q67.4735 187.621 64.3254 187.621 M73.6077 172.968 L73.6077 177.227 Q71.8485 176.394 70.0429 175.954 Q68.2606 175.514 66.5013 175.514 Q61.8717 175.514 59.418 178.639 Q56.9875 181.764 56.6402 188.084 Q58.006 186.07 60.0662 185.005 Q62.1263 183.917 64.6032 183.917 Q69.8115 183.917 72.8207 187.088 Q75.8531 190.236 75.8531 195.676 Q75.8531 201 72.705 204.218 Q69.5568 207.435 64.3254 207.435 Q58.33 207.435 55.1588 202.852 Q51.9875 198.246 51.9875 189.519 Q51.9875 181.324 55.8764 176.463 Q59.7652 171.579 66.3161 171.579 Q68.0754 171.579 69.8578 171.926 Q71.6633 172.274 73.6077 172.968 Z" fill="#000000" fill-rule="nonzero" fill-opacity="1" /><path clip-path="url(#clip440)" d="M93.9086 175.283 Q90.2975 175.283 88.4688 178.848 Q86.6632 182.389 86.6632 189.519 Q86.6632 196.625 88.4688 200.19 Q90.2975 203.732 93.9086 203.732 Q97.5428 203.732 99.3483 200.19 Q101.177 196.625 101.177 189.519 Q101.177 182.389 99.3483 178.848 Q97.5428 175.283 93.9086 175.283 M93.9086 171.579 Q99.7187 171.579 102.774 176.186 Q105.853 180.769 105.853 189.519 Q105.853 198.246 102.774 202.852 Q99.7187 207.435 93.9086 207.435 Q88.0984 207.435 85.0197 202.852 Q81.9642 198.246 81.9642 189.519 Q81.9642 180.769 85.0197 176.186 Q88.0984 171.579 93.9086 171.579 Z" fill="#000000" fill-rule="nonzero" fill-opacity="1" /><polyline clip-path="url(#clip442)" style="stroke:#0000ff; stroke-linecap:round; stroke-linejoin:round; stroke-width:4; stroke-opacity:1; fill:none" points="204.426,1384.24 206.514,1384.24 208.601,1384.24 210.689,1384.24 212.777,1384.24 214.865,1384.23 216.953,1384.23 219.041,1384.23 221.128,1384.23 223.216,1384.23 225.304,1384.23 227.392,1384.23 229.48,1384.23 231.568,1384.22 233.656,1384.22 235.743,1384.22 237.831,1384.22 239.919,1384.22 242.007,1384.22 244.095,1384.21 246.183,1384.21 248.27,1384.21 250.358,1384.2 252.446,1384.2 254.534,1384.2 256.622,1384.19 258.71,1384.19 260.797,1384.19 262.885,1384.18 264.973,1384.18 267.061,1384.17 269.149,1384.16 271.237,1384.16 273.325,1384.15 275.412,1384.14 277.5,1384.14 279.588,1384.13 281.676,1384.12 283.764,1384.11 285.852,1384.1 287.939,1384.09 290.027,1384.08 292.115,1384.06 294.203,1384.05 296.291,1384.03 298.379,1384.02 300.467,1384 302.554,1383.98 304.642,1383.96 306.73,1383.94 308.818,1383.92 310.906,1383.89 312.994,1383.86 315.081,1383.83 317.169,1383.8 319.257,1383.77 321.345,1383.73 323.433,1383.69 325.521,1383.65 327.609,1383.61 329.696,1383.56 331.784,1383.5 333.872,1383.45 335.96,1383.39 338.048,1383.32 340.136,1383.25 342.223,1383.18 344.311,1383.1 346.399,1383.01 348.487,1382.92 350.575,1382.82 352.663,1382.71 354.751,1382.59 356.838,1382.47 358.926,1382.34 361.014,1382.19 363.102,1382.04 365.19,1381.87 367.278,1381.7 369.365,1381.51 371.453,1381.3 373.541,1381.09 375.629,1380.85 377.717,1380.6 379.805,1380.33 381.893,1380.04 383.98,1379.74 386.068,1379.41 388.156,1379.05 390.244,1378.68 392.332,1378.28 394.42,1377.85 396.507,1377.39 398.595,1376.9 400.683,1376.38 402.771,1375.82 404.859,1375.23 406.947,1374.61 409.035,1373.94 411.122,1373.23 413.21,1372.49 415.298,1371.69 417.386,1370.85 419.474,1369.97 421.562,1369.03 423.649,1368.05 425.737,1367.02 427.825,1365.93 429.913,1364.8 432.001,1363.61 434.089,1362.37 436.177,1361.08 438.264,1359.74 440.352,1358.36 442.44,1356.92 444.528,1355.45 446.616,1353.94 448.704,1352.39 450.791,1350.82 452.879,1349.22 454.967,1347.6 457.055,1345.98 459.143,1344.35 461.231,1342.73 463.318,1341.13 465.406,1339.55 467.494,1338.01 469.582,1336.52 471.67,1335.09 473.758,1333.72 475.846,1332.44 477.933,1331.24 480.021,1330.14 482.109,1329.15 484.197,1328.28 486.285,1327.53 488.373,1326.9 490.46,1326.41 492.548,1326.05 494.636,1325.82 496.724,1325.73 498.812,1325.76 500.9,1325.93 502.988,1326.21 505.075,1326.6 507.163,1327.1 509.251,1327.69 511.339,1328.37 513.427,1329.11 515.515,1329.91 517.602,1330.76 519.69,1331.64 521.778,1332.53 523.866,1333.43 525.954,1334.32 528.042,1335.19 530.13,1336.02 532.217,1336.8 534.305,1337.53 536.393,1338.18 538.481,1338.75 540.569,1339.23 542.657,1339.61 544.744,1339.88 546.832,1340.03 548.92,1340.06 551.008,1339.95 553.096,1339.71 555.184,1339.32 557.272,1338.78 559.359,1338.08 561.447,1337.22 563.535,1336.19 565.623,1335 567.711,1333.63 569.799,1332.08 571.886,1330.36 573.974,1328.45 576.062,1326.35 578.15,1324.08 580.238,1321.61 582.326,1318.96 584.414,1316.12 586.501,1313.1 588.589,1309.9 590.677,1306.52 592.765,1302.97 594.853,1299.26 596.941,1295.38 599.028,1291.35 601.116,1287.18 603.204,1282.88 605.292,1278.45 607.38,1273.92 609.468,1269.3 611.556,1264.59 613.643,1259.82 615.731,1255 617.819,1250.15 619.907,1245.27 621.995,1240.38 624.083,1235.5 626.17,1230.63 628.258,1225.79 630.346,1220.98 632.434,1216.2 634.522,1211.47 636.61,1206.77 638.698,1202.11 640.785,1197.47 642.873,1192.86 644.961,1188.26 647.049,1183.65 649.137,1179.01 651.225,1174.34 653.312,1169.62 655.4,1164.81 657.488,1159.91 659.576,1154.89 661.664,1149.74 663.752,1144.45 665.839,1139 667.927,1133.38 670.015,1127.59 672.103,1121.63 674.191,1115.51 676.279,1109.23 678.367,1102.82 680.454,1096.29 682.542,1089.68 684.63,1083.02 686.718,1076.34 688.806,1069.7 690.894,1063.15 692.981,1056.73 695.069,1050.51 697.157,1044.55 699.245,1038.9 701.333,1033.63 703.421,1028.79 705.509,1024.45 707.596,1020.66 709.684,1017.45 711.772,1014.89 713.86,1012.99 715.948,1011.79 718.036,1011.3 720.123,1011.53 722.211,1012.48 724.299,1014.14 726.387,1016.48 728.475,1019.47 730.563,1023.08 732.651,1027.25 734.738,1031.93 736.826,1037.06 738.914,1042.57 741.002,1048.38 743.09,1054.43 745.178,1060.63 747.265,1066.92 749.353,1073.21 751.441,1079.42 753.529,1085.49 755.617,1091.34 757.705,1096.9 759.793,1102.11 761.88,1106.9 763.968,1111.22 766.056,1115.01 768.144,1118.22 770.232,1120.81 772.32,1122.73 774.407,1123.95 776.495,1124.43 778.583,1124.14 780.671,1123.05 782.759,1121.15 784.847,1118.4 786.935,1114.8 789.022,1110.33 791.11,1104.98 793.198,1098.75 795.286,1091.63 797.374,1083.62 799.462,1074.74 801.549,1065 803.637,1054.41 805.725,1043 807.813,1030.8 809.901,1017.85 811.989,1004.19 814.077,989.88 816.164,974.974 818.252,959.544 820.34,943.671 822.428,927.441 824.516,910.952 826.604,894.31 828.691,877.628 830.779,861.028 832.867,844.638 834.955,828.593 837.043,813.029 839.131,798.087 841.219,783.91 843.306,770.635 845.394,758.399 847.482,747.332 849.57,737.557 851.658,729.184 853.746,722.312 855.833,717.026 857.921,713.394 860.009,711.464 862.097,711.27 864.185,712.822 866.273,716.113 868.36,721.116 870.448,727.785 872.536,736.057 874.624,745.853 876.712,757.079 878.8,769.629 880.888,783.386 882.975,798.227 885.063,814.023 887.151,830.64 889.239,847.945 891.327,865.805 893.415,884.09 895.502,902.675 897.59,921.441 899.678,940.275 901.766,959.073 903.854,977.738 905.942,996.185 908.03,1014.34 910.117,1032.12 912.205,1049.48 914.293,1066.37 916.381,1082.74 918.469,1098.55 920.557,1113.79 922.644,1128.43 924.732,1142.45 926.82,1155.85 928.908,1168.62 930.996,1180.77 933.084,1192.3 935.172,1203.21 937.259,1213.51 939.347,1223.22 941.435,1232.35 943.523,1240.92 945.611,1248.94 947.699,1256.42 949.786,1263.4 951.874,1269.87 953.962,1275.87 956.05,1281.41 958.138,1286.5 960.226,1291.17 962.314,1295.43 964.401,1299.29 966.489,1302.78 968.577,1305.9 970.665,1308.67 972.753,1311.1 974.841,1313.21 976.928,1315.01 979.016,1316.51 981.104,1317.72 983.192,1318.66 985.28,1319.33 987.368,1319.74 989.456,1319.91 991.543,1319.84 993.631,1319.55 995.719,1319.04 997.807,1318.32 999.895,1317.41 1001.98,1316.31 1004.07,1315.04 1006.16,1313.6 1008.25,1312 1010.33,1310.26 1012.42,1308.39 1014.51,1306.39 1016.6,1304.28 1018.69,1302.06 1020.77,1299.75 1022.86,1297.35 1024.95,1294.88 1027.04,1292.35 1029.12,1289.75 1031.21,1287.1 1033.3,1284.4 1035.39,1281.65 1037.48,1278.86 1039.56,1276.03 1041.65,1273.15 1043.74,1270.23 1045.83,1267.26 1047.92,1264.24 1050,1261.15 1052.09,1258 1054.18,1254.77 1056.27,1251.44 1058.35,1248.02 1060.44,1244.49 1062.53,1240.84 1064.62,1237.05 1066.71,1233.12 1068.79,1229.03 1070.88,1224.78 1072.97,1220.34 1075.06,1215.71 1077.15,1210.88 1079.23,1205.85 1081.32,1200.59 1083.41,1195.11 1085.5,1189.39 1087.58,1183.44 1089.67,1177.23 1091.76,1170.78 1093.85,1164.07 1095.94,1157.11 1098.02,1149.89 1100.11,1142.42 1102.2,1134.69 1104.29,1126.72 1106.37,1118.5 1108.46,1110.06 1110.55,1101.4 1112.64,1092.54 1114.73,1083.5 1116.81,1074.31 1118.9,1065 1120.99,1055.59 1123.08,1046.11 1125.17,1036.62 1127.25,1027.15 1129.34,1017.73 1131.43,1008.43 1133.52,999.265 1135.6,990.299 1137.69,981.567 1139.78,973.11 1141.87,964.964 1143.96,957.159 1146.04,949.72 1148.13,942.665 1150.22,936.004 1152.31,929.738 1154.4,923.858 1156.48,918.349 1158.57,913.182 1160.66,908.321 1162.75,903.72 1164.83,899.325 1166.92,895.074 1169.01,890.898 1171.1,886.722 1173.19,882.468 1175.27,878.053 1177.36,873.396 1179.45,868.412 1181.54,863.019 1183.63,857.139 1185.71,850.697 1187.8,843.623 1189.89,835.856 1191.98,827.341 1194.06,818.032 1196.15,807.894 1198.24,796.9 1200.33,785.038 1202.42,772.304 1204.5,758.707 1206.59,744.268 1208.68,729.022 1210.77,713.011 1212.85,696.294 1214.94,678.938 1217.03,661.022 1219.12,642.633 1221.21,623.869 1223.29,604.835 1225.38,585.642 1227.47,566.409 1229.56,547.256 1231.65,528.309 1233.73,509.693 1235.82,491.535 1237.91,473.96 1240,457.091 1242.08,441.046 1244.17,425.94 1246.26,411.88 1248.35,398.968 1250.44,387.298 1252.52,376.955 1254.61,368.016 1256.7,360.549 1258.79,354.612 1260.88,350.253 1262.96,347.511 1265.05,346.413 1267.14,346.975 1269.23,349.204 1271.31,353.095 1273.4,358.631 1275.49,365.784 1277.58,374.514 1279.67,384.771 1281.75,396.49 1283.84,409.599 1285.93,424.011 1288.02,439.632 1290.11,456.355 1292.19,474.067 1294.28,492.645 1296.37,511.961 1298.46,531.882 1300.54,552.27 1302.63,572.985 1304.72,593.888 1306.81,614.839 1308.9,635.702 1310.98,656.343 1313.07,676.637 1315.16,696.46 1317.25,715.7 1319.34,734.251 1321.42,752.017 1323.51,768.912 1325.6,784.857 1327.69,799.788 1329.77,813.648 1331.86,826.391 1333.95,837.982 1336.04,848.397 1338.13,857.62 1340.21,865.645 1342.3,872.477 1344.39,878.129 1346.48,882.623 1348.56,885.987 1350.65,888.26 1352.74,889.485 1354.83,889.715 1356.92,889.005 1359,887.419 1361.09,885.025 1363.18,881.893 1365.27,878.099 1367.36,873.721 1369.44,868.839 1371.53,863.534 1373.62,857.889 1375.71,851.984 1377.79,845.902 1379.88,839.721 1381.97,833.519 1384.06,827.37 1386.15,821.346 1388.23,815.515 1390.32,809.939 1392.41,804.678 1394.5,799.783 1396.59,795.304 1398.67,791.283 1400.76,787.754 1402.85,784.747 1404.94,782.284 1407.02,780.378 1409.11,779.038 1411.2,778.261 1413.29,778.038 1415.38,778.351 1417.46,779.172 1419.55,780.468 1421.64,782.193 1423.73,784.298 1425.82,786.721 1427.9,789.399 1429.99,792.258 1432.08,795.223 1434.17,798.21 1436.25,801.138 1438.34,803.921 1440.43,806.473 1442.52,808.711 1444.61,810.553 1446.69,811.922 1448.78,812.747 1450.87,812.963 1452.96,812.512 1455.05,811.348 1457.13,809.433 1459.22,806.741 1461.31,803.257 1463.4,798.98 1465.48,793.921 1467.57,788.105 1469.66,781.571 1471.75,774.371 1473.84,766.571 1475.92,758.25 1478.01,749.501 1480.1,740.425 1482.19,731.139 1484.27,721.765 1486.36,712.435 1488.45,703.287 1490.54,694.463 1492.63,686.108 1494.71,678.364 1496.8,671.371 1498.89,665.266 1500.98,660.175 1503.07,656.215 1505.15,653.491 1507.24,652.09 1509.33,652.087 1511.42,653.536 1513.5,656.472 1515.59,660.911 1517.68,666.849 1519.77,674.262 1521.86,683.108 1523.94,693.326 1526.03,704.839 1528.12,717.556 1530.21,731.373 1532.3,746.175 1534.38,761.841 1536.47,778.242 1538.56,795.248 1540.65,812.725 1542.73,830.541 1544.82,848.568 1546.91,866.679 1549,884.756 1551.09,902.686 1553.17,920.362 1555.26,937.688 1557.35,954.574 1559.44,970.94 1561.53,986.715 1563.61,1001.83 1565.7,1016.25 1567.79,1029.9 1569.88,1042.76 1571.96,1054.79 1574.05,1065.97 1576.14,1076.27 1578.23,1085.69 1580.32,1094.2 1582.4,1101.82 1584.49,1108.54 1586.58,1114.36 1588.67,1119.28 1590.75,1123.33 1592.84,1126.51 1594.93,1128.84 1597.02,1130.34 1599.11,1131.03 1601.19,1130.93 1603.28,1130.08 1605.37,1128.51 1607.46,1126.24 1609.55,1123.32 1611.63,1119.79 1613.72,1115.69 1615.81,1111.07 1617.9,1105.97 1619.98,1100.46 1622.07,1094.59 1624.16,1088.41 1626.25,1081.99 1628.34,1075.39 1630.42,1068.68 1632.51,1061.92 1634.6,1055.18 1636.69,1048.53 1638.78,1042.03 1640.86,1035.74 1642.95,1029.73 1645.04,1024.05 1647.13,1018.74 1649.21,1013.87 1651.3,1009.47 1653.39,1005.56 1655.48,1002.19 1657.57,999.357 1659.65,997.084 1661.74,995.371 1663.83,994.213 1665.92,993.596 1668.01,993.502 1670.09,993.903 1672.18,994.767 1674.27,996.056 1676.36,997.73 1678.44,999.742 1680.53,1002.04 1682.62,1004.59 1684.71,1007.33 1686.8,1010.21 1688.88,1013.2 1690.97,1016.23 1693.06,1019.29 1695.15,1022.31 1697.24,1025.28 1699.32,1028.17 1701.41,1030.95 1703.5,1033.61 1705.59,1036.14 1707.67,1038.52 1709.76,1040.77 1711.85,1042.88 1713.94,1044.85 1716.03,1046.71 1718.11,1048.47 1720.2,1050.15 1722.29,1051.76 1724.38,1053.33 1726.46,1054.88 1728.55,1056.42 1730.64,1057.99 1732.73,1059.59 1734.82,1061.25 1736.9,1062.98 1738.99,1064.78 1741.08,1066.67 1743.17,1068.65 1745.26,1070.7 1747.34,1072.83 1749.43,1075.03 1751.52,1077.28 1753.61,1079.56 1755.69,1081.84 1757.78,1084.1 1759.87,1086.3 1761.96,1088.41 1764.05,1090.39 1766.13,1092.2 1768.22,1093.81 1770.31,1095.16 1772.4,1096.21 1774.49,1096.92 1776.57,1097.25 1778.66,1097.15 1780.75,1096.58 1782.84,1095.5 1784.92,1093.89 1787.01,1091.69 1789.1,1088.89 1791.19,1085.45 1793.28,1081.35 1795.36,1076.58 1797.45,1071.1 1799.54,1064.92 1801.63,1058.02 1803.72,1050.4 1805.8,1042.06 1807.89,1033 1809.98,1023.24 1812.07,1012.78 1814.15,1001.64 1816.24,989.833 1818.33,977.386 1820.42,964.32 1822.51,950.66 1824.59,936.432 1826.68,921.664 1828.77,906.382 1830.86,890.614 1832.95,874.387 1835.03,857.726 1837.12,840.656 1839.21,823.2 1841.3,805.379 1843.38,787.213 1845.47,768.72 1847.56,749.919 1849.65,730.825 1851.74,711.456 1853.82,691.827 1855.91,671.958 1858,651.867 1860.09,631.576 1862.17,611.109 1864.26,590.496 1866.35,569.766 1868.44,548.955 1870.53,528.103 1872.61,507.252 1874.7,486.449 1876.79,465.744 1878.88,445.187 1880.97,424.833 1883.05,404.734 1885.14,384.944 1887.23,365.516 1889.32,346.5 1891.4,327.942 1893.49,309.885 1895.58,292.369 1897.67,275.427 1899.76,259.089 1901.84,243.379 1903.93,228.316 1906.02,213.917 1908.11,200.193 1910.2,187.157 1912.28,174.815 1914.37,163.178 1916.46,152.256 1918.55,142.061 1920.63,132.608 1922.72,123.919 1924.81,116.019 1926.9,108.94 1928.99,102.719 1931.07,97.3994 1933.16,93.0304 1935.25,89.6661 1937.34,87.3643 1939.43,86.1857 1941.51,86.192 1943.6,87.4444 1945.69,90.0019 1947.78,93.9193 1949.86,99.2456 1951.95,106.022 1954.04,114.281 1956.13,124.045 1958.22,135.323 1960.3,148.114 1962.39,162.402 1964.48,178.159 1966.57,195.343 1968.65,213.9 1970.74,233.763 1972.83,254.851 1974.92,277.076 1977.01,300.338 1979.09,324.526 1981.18,349.525 1983.27,375.212 1985.36,401.457 1987.45,428.13 1989.53,455.096 1991.62,482.218 1993.71,509.362 1995.8,536.394 1997.88,563.181 1999.97,589.596 2002.06,615.514 2004.15,640.817 2006.24,665.393 2008.32,689.135 2010.41,711.946 2012.5,733.733 2014.59,754.414 2016.68,773.911 2018.76,792.158 2020.85,809.093 2022.94,824.665 2025.03,838.829 2027.11,851.545 2029.2,862.785 2031.29,872.523 2033.38,880.743 2035.47,887.433 2037.55,892.59 2039.64,896.215 2041.73,898.316 2043.82,898.907 2045.91,898.008 2047.99,895.647 2050.08,891.857 2052.17,886.679 2054.26,880.159 2056.34,872.354 2058.43,863.325 2060.52,853.144 2062.61,841.889 2064.7,829.648 2066.78,816.516 2068.87,802.597 2070.96,788.003 2073.05,772.853 2075.14,757.274 2077.22,741.398 2079.31,725.362 2081.4,709.307 2083.49,693.378 2085.57,677.717 2087.66,662.467 2089.75,647.766 2091.84,633.747 2093.93,620.535 2096.01,608.247 2098.1,596.984 2100.19,586.838 2102.28,577.882 2104.36,570.174 2106.45,563.756 2108.54,558.652 2110.63,554.866 2112.72,552.387 2114.8,551.189 2116.89,551.229 2118.98,552.45 2121.07,554.788 2123.16,558.165 2125.24,562.501 2127.33,567.707 2129.42,573.697 2131.51,580.381 2133.59,587.676 2135.68,595.498 2137.77,603.775 2139.86,612.437 2141.95,621.424 2144.03,630.684 2146.12,640.174 2148.21,649.859 2150.3,659.712 2152.39,669.71 2154.47,679.84 2156.56,690.089 2158.65,700.451 2160.74,710.918 2162.82,721.485 2164.91,732.144 2167,742.885 2169.09,753.697 2171.18,764.561 2173.26,775.456 2175.35,786.356 2177.44,797.228 2179.53,808.037 2181.62,818.741 2183.7,829.296 2185.79,839.653 2187.88,849.764 2189.97,859.576 2192.05,869.039 2194.14,878.102 2196.23,886.719 2198.32,894.845 2200.41,902.44 2202.49,909.469 2204.58,915.903 2206.67,921.721 2208.76,926.907 2210.85,931.456 2212.93,935.368 2215.02,938.653 2217.11,941.329 2219.2,943.423 2221.28,944.968 2223.37,946.007 2225.46,946.588 2227.55,946.767 2229.64,946.604 2231.72,946.164 2233.81,945.516 2235.9,944.73 2237.99,943.878 2240.07,943.032 2242.16,942.26 2244.25,941.629 2246.34,941.2 2248.43,941.029 2250.51,941.164 2252.6,941.646 2254.69,942.505 2256.78,943.764 2258.87,945.433 2260.95,947.514 2263.04,949.996 2265.13,952.859 2267.22,956.073 2269.3,959.6 2271.39,963.393 2273.48,967.395 2275.57,971.548 2277.66,975.785 2279.74,980.036 2281.83,984.231 2283.92,988.296 2286.01,992.159 2288.1,995.747 2290.18,998.992 "/>
<polyline clip-path="url(#clip442)" style="stroke:#008000; stroke-linecap:round; stroke-linejoin:round; stroke-width:6; stroke-opacity:1; fill:none" points="1247.3,2799.12 1247.3,-1328.69 "/>
<path clip-path="url(#clip440)" d="M215.55 248.629 L533.26 248.629 L533.26 93.1086 L215.55 93.1086  Z" fill="#ffffff" fill-rule="evenodd" fill-opacity="1"/>
<polyline clip-path="url(#clip440)" style="stroke:#000000; stroke-linecap:round; stroke-linejoin:round; stroke-width:4; stroke-opacity:1; fill:none" points="215.55,248.629 533.26,248.629 533.26,93.1086 215.55,93.1086 215.55,248.629 "/>
<polyline clip-path="url(#clip440)" style="stroke:#0000ff; stroke-linecap:round; stroke-linejoin:round; stroke-width:4; stroke-opacity:1; fill:none" points="240.115,144.949 387.509,144.949 "/>
<path clip-path="url(#clip440)" d="M416.75 131.511 L416.75 158.386 L422.398 158.386 Q429.551 158.386 432.861 155.145 Q436.195 151.905 436.195 144.914 Q436.195 137.969 432.861 134.752 Q429.551 131.511 422.398 131.511 L416.75 131.511 M412.074 127.669 L421.681 127.669 Q431.727 127.669 436.426 131.858 Q441.125 136.025 441.125 144.914 Q441.125 153.849 436.403 158.039 Q431.681 162.229 421.681 162.229 L412.074 162.229 L412.074 127.669 Z" fill="#000000" fill-rule="nonzero" fill-opacity="1" /><path clip-path="url(#clip440)" d="M462.607 130.84 Q457.514 130.84 454.505 134.636 Q451.519 138.432 451.519 144.983 Q451.519 151.511 454.505 155.307 Q457.514 159.104 462.607 159.104 Q467.699 159.104 470.662 155.307 Q473.648 151.511 473.648 144.983 Q473.648 138.432 470.662 134.636 Q467.699 130.84 462.607 130.84 M462.607 127.044 Q469.875 127.044 474.227 131.928 Q478.579 136.789 478.579 144.983 Q478.579 153.155 474.227 158.039 Q469.875 162.9 462.607 162.9 Q455.315 162.9 450.94 158.039 Q446.588 153.178 446.588 144.983 Q446.588 136.789 450.94 131.928 Q455.315 127.044 462.607 127.044 Z" fill="#000000" fill-rule="nonzero" fill-opacity="1" /><path clip-path="url(#clip440)" d="M506.611 128.803 L506.611 133.363 Q503.949 132.09 501.588 131.465 Q499.227 130.84 497.028 130.84 Q493.208 130.84 491.125 132.321 Q489.065 133.803 489.065 136.534 Q489.065 138.826 490.43 140.007 Q491.819 141.164 495.662 141.882 L498.486 142.46 Q503.717 143.456 506.194 145.979 Q508.694 148.479 508.694 152.692 Q508.694 157.715 505.315 160.307 Q501.958 162.9 495.454 162.9 Q493 162.9 490.222 162.344 Q487.468 161.789 484.505 160.701 L484.505 155.886 Q487.352 157.483 490.083 158.293 Q492.815 159.104 495.454 159.104 Q499.458 159.104 501.634 157.53 Q503.81 155.956 503.81 153.039 Q503.81 150.493 502.236 149.057 Q500.685 147.622 497.12 146.905 L494.273 146.349 Q489.042 145.307 486.704 143.085 Q484.366 140.863 484.366 136.905 Q484.366 132.321 487.583 129.682 Q490.824 127.044 496.495 127.044 Q498.926 127.044 501.449 127.483 Q503.972 127.923 506.611 128.803 Z" fill="#000000" fill-rule="nonzero" fill-opacity="1" /><polyline clip-path="url(#clip440)" style="stroke:#008000; stroke-linecap:round; stroke-linejoin:round; stroke-width:6; stroke-opacity:1; fill:none" points="240.115,196.789 387.509,196.789 "/>
<path clip-path="url(#clip440)" d="M418.139 200.087 Q415.547 199.532 414.158 198.027 Q412.769 196.546 412.769 194.393 Q412.769 191.129 415.408 189.3 Q418.023 187.495 422.56 187.495 Q424.32 187.495 426.287 187.772 Q428.255 188.05 430.523 188.606 L430.523 192.472 Q428.278 191.8 426.426 191.499 Q424.551 191.198 422.908 191.198 Q420.153 191.198 418.556 192.263 Q416.936 193.328 416.936 194.809 Q416.936 196.43 418.51 197.471 Q420.06 198.49 422.746 198.49 L426.334 198.49 L426.334 202.008 L422.908 202.008 Q419.736 202.008 418.07 203.189 Q416.264 204.485 416.264 206.522 Q416.264 208.606 418.209 209.902 Q420.176 211.198 423.672 211.198 Q425.824 211.198 427.792 210.782 Q429.76 210.342 431.403 209.485 L431.403 213.444 Q429.32 214.092 427.375 214.416 Q425.408 214.74 423.556 214.74 Q418.047 214.74 415.061 212.633 Q412.074 210.527 412.074 206.522 Q412.074 204.022 413.672 202.333 Q415.269 200.643 418.139 200.087 Z" fill="#000000" fill-rule="nonzero" fill-opacity="1" /><path clip-path="url(#clip440)" d="M439.273 179.509 L459.134 179.509 L459.134 183.444 L443.949 183.444 L443.949 193.629 L457.653 193.629 L457.653 197.564 L443.949 197.564 L443.949 214.069 L439.273 214.069 L439.273 179.509 Z" fill="#000000" fill-rule="nonzero" fill-opacity="1" /></svg>
