<?xml version="1.0" encoding="utf-8"?>
<svg xmlns="http://www.w3.org/2000/svg" xmlns:xlink="http://www.w3.org/1999/xlink" width="600" height="400" viewBox="0 0 2400 1600">
<defs>
  <clipPath id="clip520">
    <rect x="0" y="0" width="2400" height="1600"/>
  </clipPath>
</defs>
<path clip-path="url(#clip520)" d="M0 1600 L2400 1600 L2400 0 L0 0  Z" fill="#ffffff" fill-rule="evenodd" fill-opacity="1"/>
<defs>
  <clipPath id="clip521">
    <rect x="480" y="0" width="1681" height="1600"/>
  </clipPath>
</defs>
<path clip-path="url(#clip520)" d="M279.704 1423.18 L2352.76 1423.18 L2352.76 47.2441 L279.704 47.2441  Z" fill="#ffffff" fill-rule="evenodd" fill-opacity="1"/>
<defs>
  <clipPath id="clip522">
    <rect x="279" y="47" width="2074" height="1377"/>
  </clipPath>
</defs>
<polyline clip-path="url(#clip522)" style="stroke:#000000; stroke-linecap:round; stroke-linejoin:round; stroke-width:2; stroke-opacity:0.1; fill:none" points="338.375,1423.18 338.375,47.2441 "/>
<polyline clip-path="url(#clip522)" style="stroke:#000000; stroke-linecap:round; stroke-linejoin:round; stroke-width:2; stroke-opacity:0.1; fill:none" points="743.005,1423.18 743.005,47.2441 "/>
<polyline clip-path="url(#clip522)" style="stroke:#000000; stroke-linecap:round; stroke-linejoin:round; stroke-width:2; stroke-opacity:0.1; fill:none" points="1147.63,1423.18 1147.63,47.2441 "/>
<polyline clip-path="url(#clip522)" style="stroke:#000000; stroke-linecap:round; stroke-linejoin:round; stroke-width:2; stroke-opacity:0.1; fill:none" points="1552.26,1423.18 1552.26,47.2441 "/>
<polyline clip-path="url(#clip522)" style="stroke:#000000; stroke-linecap:round; stroke-linejoin:round; stroke-width:2; stroke-opacity:0.1; fill:none" points="1956.89,1423.18 1956.89,47.2441 "/>
<polyline clip-path="url(#clip520)" style="stroke:#000000; stroke-linecap:round; stroke-linejoin:round; stroke-width:4; stroke-opacity:1; fill:none" points="279.704,1423.18 2352.76,1423.18 "/>
<polyline clip-path="url(#clip520)" style="stroke:#000000; stroke-linecap:round; stroke-linejoin:round; stroke-width:4; stroke-opacity:1; fill:none" points="338.375,1423.18 338.375,1404.28 "/>
<polyline clip-path="url(#clip520)" style="stroke:#000000; stroke-linecap:round; stroke-linejoin:round; stroke-width:4; stroke-opacity:1; fill:none" points="743.005,1423.18 743.005,1404.28 "/>
<polyline clip-path="url(#clip520)" style="stroke:#000000; stroke-linecap:round; stroke-linejoin:round; stroke-width:4; stroke-opacity:1; fill:none" points="1147.63,1423.18 1147.63,1404.28 "/>
<polyline clip-path="url(#clip520)" style="stroke:#000000; stroke-linecap:round; stroke-linejoin:round; stroke-width:4; stroke-opacity:1; fill:none" points="1552.26,1423.18 1552.26,1404.28 "/>
<polyline clip-path="url(#clip520)" style="stroke:#000000; stroke-linecap:round; stroke-linejoin:round; stroke-width:4; stroke-opacity:1; fill:none" points="1956.89,1423.18 1956.89,1404.28 "/>
<path clip-path="url(#clip520)" d="M315.76 1454.1 Q312.148 1454.1 310.32 1457.66 Q308.514 1461.2 308.514 1468.33 Q308.514 1475.44 310.32 1479.01 Q312.148 1482.55 315.76 1482.55 Q319.394 1482.55 321.199 1479.01 Q323.028 1475.44 323.028 1468.33 Q323.028 1461.2 321.199 1457.66 Q319.394 1454.1 315.76 1454.1 M315.76 1450.39 Q321.57 1450.39 324.625 1455 Q327.704 1459.58 327.704 1468.33 Q327.704 1477.06 324.625 1481.67 Q321.57 1486.25 315.76 1486.25 Q309.949 1486.25 306.871 1481.67 Q303.815 1477.06 303.815 1468.33 Q303.815 1459.58 306.871 1455 Q309.949 1450.39 315.76 1450.39 Z" fill="#000000" fill-rule="nonzero" fill-opacity="1" /><path clip-path="url(#clip520)" d="M335.922 1479.7 L340.806 1479.7 L340.806 1485.58 L335.922 1485.58 L335.922 1479.7 Z" fill="#000000" fill-rule="nonzero" fill-opacity="1" /><path clip-path="url(#clip520)" d="M360.991 1454.1 Q357.38 1454.1 355.551 1457.66 Q353.745 1461.2 353.745 1468.33 Q353.745 1475.44 355.551 1479.01 Q357.38 1482.55 360.991 1482.55 Q364.625 1482.55 366.431 1479.01 Q368.259 1475.44 368.259 1468.33 Q368.259 1461.2 366.431 1457.66 Q364.625 1454.1 360.991 1454.1 M360.991 1450.39 Q366.801 1450.39 369.857 1455 Q372.935 1459.58 372.935 1468.33 Q372.935 1477.06 369.857 1481.67 Q366.801 1486.25 360.991 1486.25 Q355.181 1486.25 352.102 1481.67 Q349.046 1477.06 349.046 1468.33 Q349.046 1459.58 352.102 1455 Q355.181 1450.39 360.991 1450.39 Z" fill="#000000" fill-rule="nonzero" fill-opacity="1" /><path clip-path="url(#clip520)" d="M721.188 1454.1 Q717.577 1454.1 715.748 1457.66 Q713.942 1461.2 713.942 1468.33 Q713.942 1475.44 715.748 1479.01 Q717.577 1482.55 721.188 1482.55 Q724.822 1482.55 726.628 1479.01 Q728.456 1475.44 728.456 1468.33 Q728.456 1461.2 726.628 1457.66 Q724.822 1454.1 721.188 1454.1 M721.188 1450.39 Q726.998 1450.39 730.053 1455 Q733.132 1459.58 733.132 1468.33 Q733.132 1477.06 730.053 1481.67 Q726.998 1486.25 721.188 1486.25 Q715.378 1486.25 712.299 1481.67 Q709.243 1477.06 709.243 1468.33 Q709.243 1459.58 712.299 1455 Q715.378 1450.39 721.188 1450.39 Z" fill="#000000" fill-rule="nonzero" fill-opacity="1" /><path clip-path="url(#clip520)" d="M741.35 1479.7 L746.234 1479.7 L746.234 1485.58 L741.35 1485.58 L741.35 1479.7 Z" fill="#000000" fill-rule="nonzero" fill-opacity="1" /><path clip-path="url(#clip520)" d="M760.447 1481.64 L776.766 1481.64 L776.766 1485.58 L754.822 1485.58 L754.822 1481.64 Q757.484 1478.89 762.067 1474.26 Q766.674 1469.61 767.854 1468.27 Q770.099 1465.74 770.979 1464.01 Q771.882 1462.25 771.882 1460.56 Q771.882 1457.8 769.937 1456.07 Q768.016 1454.33 764.914 1454.33 Q762.715 1454.33 760.262 1455.09 Q757.831 1455.86 755.053 1457.41 L755.053 1452.69 Q757.877 1451.55 760.331 1450.97 Q762.785 1450.39 764.822 1450.39 Q770.192 1450.39 773.387 1453.08 Q776.581 1455.77 776.581 1460.26 Q776.581 1462.39 775.771 1464.31 Q774.984 1466.2 772.877 1468.8 Q772.299 1469.47 769.197 1472.69 Q766.095 1475.88 760.447 1481.64 Z" fill="#000000" fill-rule="nonzero" fill-opacity="1" /><path clip-path="url(#clip520)" d="M1124.78 1454.1 Q1121.16 1454.1 1119.34 1457.66 Q1117.53 1461.2 1117.53 1468.33 Q1117.53 1475.44 1119.34 1479.01 Q1121.16 1482.55 1124.78 1482.55 Q1128.41 1482.55 1130.22 1479.01 Q1132.04 1475.44 1132.04 1468.33 Q1132.04 1461.2 1130.22 1457.66 Q1128.41 1454.1 1124.78 1454.1 M1124.78 1450.39 Q1130.59 1450.39 1133.64 1455 Q1136.72 1459.58 1136.72 1468.33 Q1136.72 1477.06 1133.64 1481.67 Q1130.59 1486.25 1124.78 1486.25 Q1118.97 1486.25 1115.89 1481.67 Q1112.83 1477.06 1112.83 1468.33 Q1112.83 1459.58 1115.89 1455 Q1118.97 1450.39 1124.78 1450.39 Z" fill="#000000" fill-rule="nonzero" fill-opacity="1" /><path clip-path="url(#clip520)" d="M1144.94 1479.7 L1149.82 1479.7 L1149.82 1485.58 L1144.94 1485.58 L1144.94 1479.7 Z" fill="#000000" fill-rule="nonzero" fill-opacity="1" /><path clip-path="url(#clip520)" d="M1172.85 1455.09 L1161.05 1473.54 L1172.85 1473.54 L1172.85 1455.09 M1171.63 1451.02 L1177.51 1451.02 L1177.51 1473.54 L1182.44 1473.54 L1182.44 1477.43 L1177.51 1477.43 L1177.51 1485.58 L1172.85 1485.58 L1172.85 1477.43 L1157.25 1477.43 L1157.25 1472.92 L1171.63 1451.02 Z" fill="#000000" fill-rule="nonzero" fill-opacity="1" /><path clip-path="url(#clip520)" d="M1529.57 1454.1 Q1525.96 1454.1 1524.13 1457.66 Q1522.32 1461.2 1522.32 1468.33 Q1522.32 1475.44 1524.13 1479.01 Q1525.96 1482.55 1529.57 1482.55 Q1533.2 1482.55 1535.01 1479.01 Q1536.84 1475.44 1536.84 1468.33 Q1536.84 1461.2 1535.01 1457.66 Q1533.2 1454.1 1529.57 1454.1 M1529.57 1450.39 Q1535.38 1450.39 1538.43 1455 Q1541.51 1459.58 1541.51 1468.33 Q1541.51 1477.06 1538.43 1481.67 Q1535.38 1486.25 1529.57 1486.25 Q1523.76 1486.25 1520.68 1481.67 Q1517.62 1477.06 1517.62 1468.33 Q1517.62 1459.58 1520.68 1455 Q1523.76 1450.39 1529.57 1450.39 Z" fill="#000000" fill-rule="nonzero" fill-opacity="1" /><path clip-path="url(#clip520)" d="M1549.73 1479.7 L1554.61 1479.7 L1554.61 1485.58 L1549.73 1485.58 L1549.73 1479.7 Z" fill="#000000" fill-rule="nonzero" fill-opacity="1" /><path clip-path="url(#clip520)" d="M1575.38 1466.44 Q1572.23 1466.44 1570.38 1468.59 Q1568.55 1470.74 1568.55 1474.49 Q1568.55 1478.22 1570.38 1480.39 Q1572.23 1482.55 1575.38 1482.55 Q1578.53 1482.55 1580.35 1480.39 Q1582.21 1478.22 1582.21 1474.49 Q1582.21 1470.74 1580.35 1468.59 Q1578.53 1466.44 1575.38 1466.44 M1584.66 1451.78 L1584.66 1456.04 Q1582.9 1455.21 1581.09 1454.77 Q1579.31 1454.33 1577.55 1454.33 Q1572.92 1454.33 1570.47 1457.45 Q1568.04 1460.58 1567.69 1466.9 Q1569.06 1464.89 1571.12 1463.82 Q1573.18 1462.73 1575.65 1462.73 Q1580.86 1462.73 1583.87 1465.9 Q1586.9 1469.05 1586.9 1474.49 Q1586.9 1479.82 1583.76 1483.03 Q1580.61 1486.25 1575.38 1486.25 Q1569.38 1486.25 1566.21 1481.67 Q1563.04 1477.06 1563.04 1468.33 Q1563.04 1460.14 1566.93 1455.28 Q1570.82 1450.39 1577.37 1450.39 Q1579.13 1450.39 1580.91 1450.74 Q1582.72 1451.09 1584.66 1451.78 Z" fill="#000000" fill-rule="nonzero" fill-opacity="1" /><path clip-path="url(#clip520)" d="M1934.32 1454.1 Q1930.71 1454.1 1928.88 1457.66 Q1927.08 1461.2 1927.08 1468.33 Q1927.08 1475.44 1928.88 1479.01 Q1930.71 1482.55 1934.32 1482.55 Q1937.96 1482.55 1939.76 1479.01 Q1941.59 1475.44 1941.59 1468.33 Q1941.59 1461.2 1939.76 1457.66 Q1937.96 1454.1 1934.32 1454.1 M1934.32 1450.39 Q1940.13 1450.39 1943.19 1455 Q1946.27 1459.58 1946.27 1468.33 Q1946.27 1477.06 1943.19 1481.67 Q1940.13 1486.25 1934.32 1486.25 Q1928.51 1486.25 1925.44 1481.67 Q1922.38 1477.06 1922.38 1468.33 Q1922.38 1459.58 1925.44 1455 Q1928.51 1450.39 1934.32 1450.39 Z" fill="#000000" fill-rule="nonzero" fill-opacity="1" /><path clip-path="url(#clip520)" d="M1954.49 1479.7 L1959.37 1479.7 L1959.37 1485.58 L1954.49 1485.58 L1954.49 1479.7 Z" fill="#000000" fill-rule="nonzero" fill-opacity="1" /><path clip-path="url(#clip520)" d="M1979.56 1469.17 Q1976.22 1469.17 1974.3 1470.95 Q1972.4 1472.73 1972.4 1475.86 Q1972.4 1478.98 1974.3 1480.77 Q1976.22 1482.55 1979.56 1482.55 Q1982.89 1482.55 1984.81 1480.77 Q1986.73 1478.96 1986.73 1475.86 Q1986.73 1472.73 1984.81 1470.95 Q1982.91 1469.17 1979.56 1469.17 M1974.88 1467.18 Q1971.87 1466.44 1970.18 1464.38 Q1968.51 1462.32 1968.51 1459.35 Q1968.51 1455.21 1971.45 1452.8 Q1974.42 1450.39 1979.56 1450.39 Q1984.72 1450.39 1987.66 1452.8 Q1990.6 1455.21 1990.6 1459.35 Q1990.6 1462.32 1988.91 1464.38 Q1987.24 1466.44 1984.25 1467.18 Q1987.63 1467.96 1989.51 1470.26 Q1991.41 1472.55 1991.41 1475.86 Q1991.41 1480.88 1988.33 1483.57 Q1985.27 1486.25 1979.56 1486.25 Q1973.84 1486.25 1970.76 1483.57 Q1967.7 1480.88 1967.7 1475.86 Q1967.7 1472.55 1969.6 1470.26 Q1971.5 1467.96 1974.88 1467.18 M1973.17 1459.79 Q1973.17 1462.48 1974.83 1463.98 Q1976.52 1465.49 1979.56 1465.49 Q1982.56 1465.49 1984.25 1463.98 Q1985.97 1462.48 1985.97 1459.79 Q1985.97 1457.11 1984.25 1455.6 Q1982.56 1454.1 1979.56 1454.1 Q1976.52 1454.1 1974.83 1455.6 Q1973.17 1457.11 1973.17 1459.79 Z" fill="#000000" fill-rule="nonzero" fill-opacity="1" /><path clip-path="url(#clip520)" d="M1332.84 1532.4 L1319.95 1549.74 L1333.51 1568.04 L1326.61 1568.04 L1316.23 1554.04 L1305.85 1568.04 L1298.95 1568.04 L1312.79 1549.39 L1300.12 1532.4 L1307.03 1532.4 L1316.48 1545.1 L1325.94 1532.4 L1332.84 1532.4 Z" fill="#000000" fill-rule="nonzero" fill-opacity="1" /><polyline clip-path="url(#clip522)" style="stroke:#000000; stroke-linecap:round; stroke-linejoin:round; stroke-width:2; stroke-opacity:0.1; fill:none" points="279.704,1267.75 2352.76,1267.75 "/>
<polyline clip-path="url(#clip522)" style="stroke:#000000; stroke-linecap:round; stroke-linejoin:round; stroke-width:2; stroke-opacity:0.1; fill:none" points="279.704,1036.83 2352.76,1036.83 "/>
<polyline clip-path="url(#clip522)" style="stroke:#000000; stroke-linecap:round; stroke-linejoin:round; stroke-width:2; stroke-opacity:0.1; fill:none" points="279.704,805.915 2352.76,805.915 "/>
<polyline clip-path="url(#clip522)" style="stroke:#000000; stroke-linecap:round; stroke-linejoin:round; stroke-width:2; stroke-opacity:0.1; fill:none" points="279.704,574.996 2352.76,574.996 "/>
<polyline clip-path="url(#clip522)" style="stroke:#000000; stroke-linecap:round; stroke-linejoin:round; stroke-width:2; stroke-opacity:0.1; fill:none" points="279.704,344.077 2352.76,344.077 "/>
<polyline clip-path="url(#clip522)" style="stroke:#000000; stroke-linecap:round; stroke-linejoin:round; stroke-width:2; stroke-opacity:0.1; fill:none" points="279.704,113.158 2352.76,113.158 "/>
<polyline clip-path="url(#clip520)" style="stroke:#000000; stroke-linecap:round; stroke-linejoin:round; stroke-width:4; stroke-opacity:1; fill:none" points="279.704,1423.18 279.704,47.2441 "/>
<polyline clip-path="url(#clip520)" style="stroke:#000000; stroke-linecap:round; stroke-linejoin:round; stroke-width:4; stroke-opacity:1; fill:none" points="279.704,1267.75 298.602,1267.75 "/>
<polyline clip-path="url(#clip520)" style="stroke:#000000; stroke-linecap:round; stroke-linejoin:round; stroke-width:4; stroke-opacity:1; fill:none" points="279.704,1036.83 298.602,1036.83 "/>
<polyline clip-path="url(#clip520)" style="stroke:#000000; stroke-linecap:round; stroke-linejoin:round; stroke-width:4; stroke-opacity:1; fill:none" points="279.704,805.915 298.602,805.915 "/>
<polyline clip-path="url(#clip520)" style="stroke:#000000; stroke-linecap:round; stroke-linejoin:round; stroke-width:4; stroke-opacity:1; fill:none" points="279.704,574.996 298.602,574.996 "/>
<polyline clip-path="url(#clip520)" style="stroke:#000000; stroke-linecap:round; stroke-linejoin:round; stroke-width:4; stroke-opacity:1; fill:none" points="279.704,344.077 298.602,344.077 "/>
<polyline clip-path="url(#clip520)" style="stroke:#000000; stroke-linecap:round; stroke-linejoin:round; stroke-width:4; stroke-opacity:1; fill:none" points="279.704,113.158 298.602,113.158 "/>
<path clip-path="url(#clip520)" d="M126.205 1253.55 Q122.593 1253.55 120.765 1257.12 Q118.959 1260.66 118.959 1267.79 Q118.959 1274.89 120.765 1278.46 Q122.593 1282 126.205 1282 Q129.839 1282 131.644 1278.46 Q133.473 1274.89 133.473 1267.79 Q133.473 1260.66 131.644 1257.12 Q129.839 1253.55 126.205 1253.55 M126.205 1249.85 Q132.015 1249.85 135.07 1254.45 Q138.149 1259.04 138.149 1267.79 Q138.149 1276.51 135.07 1281.12 Q132.015 1285.7 126.205 1285.7 Q120.394 1285.7 117.316 1281.12 Q114.26 1276.51 114.26 1267.79 Q114.26 1259.04 117.316 1254.45 Q120.394 1249.85 126.205 1249.85 Z" fill="#000000" fill-rule="nonzero" fill-opacity="1" /><path clip-path="url(#clip520)" d="M146.366 1279.15 L151.251 1279.15 L151.251 1285.03 L146.366 1285.03 L146.366 1279.15 Z" fill="#000000" fill-rule="nonzero" fill-opacity="1" /><path clip-path="url(#clip520)" d="M171.436 1253.55 Q167.825 1253.55 165.996 1257.12 Q164.19 1260.66 164.19 1267.79 Q164.19 1274.89 165.996 1278.46 Q167.825 1282 171.436 1282 Q175.07 1282 176.876 1278.46 Q178.704 1274.89 178.704 1267.79 Q178.704 1260.66 176.876 1257.12 Q175.07 1253.55 171.436 1253.55 M171.436 1249.85 Q177.246 1249.85 180.301 1254.45 Q183.38 1259.04 183.38 1267.79 Q183.38 1276.51 180.301 1281.12 Q177.246 1285.7 171.436 1285.7 Q165.626 1285.7 162.547 1281.12 Q159.491 1276.51 159.491 1267.79 Q159.491 1259.04 162.547 1254.45 Q165.626 1249.85 171.436 1249.85 Z" fill="#000000" fill-rule="nonzero" fill-opacity="1" /><path clip-path="url(#clip520)" d="M202.176 1265.89 Q199.028 1265.89 197.176 1268.04 Q195.348 1270.19 195.348 1273.94 Q195.348 1277.67 197.176 1279.85 Q199.028 1282 202.176 1282 Q205.324 1282 207.153 1279.85 Q209.005 1277.67 209.005 1273.94 Q209.005 1270.19 207.153 1268.04 Q205.324 1265.89 202.176 1265.89 M211.459 1251.24 L211.459 1255.5 Q209.699 1254.66 207.894 1254.22 Q206.112 1253.78 204.352 1253.78 Q199.723 1253.78 197.269 1256.91 Q194.838 1260.03 194.491 1266.35 Q195.857 1264.34 197.917 1263.27 Q199.977 1262.19 202.454 1262.19 Q207.662 1262.19 210.672 1265.36 Q213.704 1268.51 213.704 1273.94 Q213.704 1279.27 210.556 1282.49 Q207.408 1285.7 202.176 1285.7 Q196.181 1285.7 193.01 1281.12 Q189.838 1276.51 189.838 1267.79 Q189.838 1259.59 193.727 1254.73 Q197.616 1249.85 204.167 1249.85 Q205.926 1249.85 207.709 1250.19 Q209.514 1250.54 211.459 1251.24 Z" fill="#000000" fill-rule="nonzero" fill-opacity="1" /><path clip-path="url(#clip520)" d="M231.76 1253.55 Q228.148 1253.55 226.32 1257.12 Q224.514 1260.66 224.514 1267.79 Q224.514 1274.89 226.32 1278.46 Q228.148 1282 231.76 1282 Q235.394 1282 237.199 1278.46 Q239.028 1274.89 239.028 1267.79 Q239.028 1260.66 237.199 1257.12 Q235.394 1253.55 231.76 1253.55 M231.76 1249.85 Q237.57 1249.85 240.625 1254.45 Q243.704 1259.04 243.704 1267.79 Q243.704 1276.51 240.625 1281.12 Q237.57 1285.7 231.76 1285.7 Q225.949 1285.7 222.871 1281.12 Q219.815 1276.51 219.815 1267.79 Q219.815 1259.04 222.871 1254.45 Q225.949 1249.85 231.76 1249.85 Z" fill="#000000" fill-rule="nonzero" fill-opacity="1" /><path clip-path="url(#clip520)" d="M127.2 1022.63 Q123.589 1022.63 121.76 1026.2 Q119.955 1029.74 119.955 1036.87 Q119.955 1043.98 121.76 1047.54 Q123.589 1051.08 127.2 1051.08 Q130.834 1051.08 132.64 1047.54 Q134.468 1043.98 134.468 1036.87 Q134.468 1029.74 132.64 1026.2 Q130.834 1022.63 127.2 1022.63 M127.2 1018.93 Q133.01 1018.93 136.066 1023.54 Q139.144 1028.12 139.144 1036.87 Q139.144 1045.6 136.066 1050.2 Q133.01 1054.79 127.2 1054.79 Q121.39 1054.79 118.311 1050.2 Q115.256 1045.6 115.256 1036.87 Q115.256 1028.12 118.311 1023.54 Q121.39 1018.93 127.2 1018.93 Z" fill="#000000" fill-rule="nonzero" fill-opacity="1" /><path clip-path="url(#clip520)" d="M147.362 1048.23 L152.246 1048.23 L152.246 1054.11 L147.362 1054.11 L147.362 1048.23 Z" fill="#000000" fill-rule="nonzero" fill-opacity="1" /><path clip-path="url(#clip520)" d="M172.431 1022.63 Q168.82 1022.63 166.991 1026.2 Q165.186 1029.74 165.186 1036.87 Q165.186 1043.98 166.991 1047.54 Q168.82 1051.08 172.431 1051.08 Q176.065 1051.08 177.871 1047.54 Q179.7 1043.98 179.7 1036.87 Q179.7 1029.74 177.871 1026.2 Q176.065 1022.63 172.431 1022.63 M172.431 1018.93 Q178.241 1018.93 181.297 1023.54 Q184.376 1028.12 184.376 1036.87 Q184.376 1045.6 181.297 1050.2 Q178.241 1054.79 172.431 1054.79 Q166.621 1054.79 163.542 1050.2 Q160.487 1045.6 160.487 1036.87 Q160.487 1028.12 163.542 1023.54 Q166.621 1018.93 172.431 1018.93 Z" fill="#000000" fill-rule="nonzero" fill-opacity="1" /><path clip-path="url(#clip520)" d="M203.172 1034.97 Q200.024 1034.97 198.172 1037.12 Q196.343 1039.28 196.343 1043.03 Q196.343 1046.75 198.172 1048.93 Q200.024 1051.08 203.172 1051.08 Q206.32 1051.08 208.149 1048.93 Q210 1046.75 210 1043.03 Q210 1039.28 208.149 1037.12 Q206.32 1034.97 203.172 1034.97 M212.454 1020.32 L212.454 1024.58 Q210.695 1023.74 208.889 1023.3 Q207.107 1022.86 205.348 1022.86 Q200.718 1022.86 198.264 1025.99 Q195.834 1029.11 195.487 1035.43 Q196.852 1033.42 198.912 1032.35 Q200.973 1031.27 203.449 1031.27 Q208.658 1031.27 211.667 1034.44 Q214.699 1037.59 214.699 1043.03 Q214.699 1048.35 211.551 1051.57 Q208.403 1054.79 203.172 1054.79 Q197.176 1054.79 194.005 1050.2 Q190.834 1045.6 190.834 1036.87 Q190.834 1028.67 194.723 1023.81 Q198.612 1018.93 205.162 1018.93 Q206.922 1018.93 208.704 1019.28 Q210.51 1019.62 212.454 1020.32 Z" fill="#000000" fill-rule="nonzero" fill-opacity="1" /><path clip-path="url(#clip520)" d="M222.801 1019.55 L241.158 1019.55 L241.158 1023.49 L227.084 1023.49 L227.084 1031.96 Q228.102 1031.61 229.121 1031.45 Q230.139 1031.27 231.158 1031.27 Q236.945 1031.27 240.324 1034.44 Q243.704 1037.61 243.704 1043.03 Q243.704 1048.6 240.232 1051.71 Q236.76 1054.79 230.44 1054.79 Q228.264 1054.79 225.996 1054.41 Q223.75 1054.04 221.343 1053.3 L221.343 1048.6 Q223.426 1049.74 225.648 1050.29 Q227.871 1050.85 230.347 1050.85 Q234.352 1050.85 236.69 1048.74 Q239.028 1046.64 239.028 1043.03 Q239.028 1039.41 236.69 1037.31 Q234.352 1035.2 230.347 1035.2 Q228.473 1035.2 226.598 1035.62 Q224.746 1036.04 222.801 1036.91 L222.801 1019.55 Z" fill="#000000" fill-rule="nonzero" fill-opacity="1" /><path clip-path="url(#clip520)" d="M126.205 791.714 Q122.593 791.714 120.765 795.279 Q118.959 798.82 118.959 805.95 Q118.959 813.056 120.765 816.621 Q122.593 820.163 126.205 820.163 Q129.839 820.163 131.644 816.621 Q133.473 813.056 133.473 805.95 Q133.473 798.82 131.644 795.279 Q129.839 791.714 126.205 791.714 M126.205 788.01 Q132.015 788.01 135.07 792.617 Q138.149 797.2 138.149 805.95 Q138.149 814.677 135.07 819.283 Q132.015 823.866 126.205 823.866 Q120.394 823.866 117.316 819.283 Q114.26 814.677 114.26 805.95 Q114.26 797.2 117.316 792.617 Q120.394 788.01 126.205 788.01 Z" fill="#000000" fill-rule="nonzero" fill-opacity="1" /><path clip-path="url(#clip520)" d="M146.366 817.315 L151.251 817.315 L151.251 823.195 L146.366 823.195 L146.366 817.315 Z" fill="#000000" fill-rule="nonzero" fill-opacity="1" /><path clip-path="url(#clip520)" d="M171.436 791.714 Q167.825 791.714 165.996 795.279 Q164.19 798.82 164.19 805.95 Q164.19 813.056 165.996 816.621 Q167.825 820.163 171.436 820.163 Q175.07 820.163 176.876 816.621 Q178.704 813.056 178.704 805.95 Q178.704 798.82 176.876 795.279 Q175.07 791.714 171.436 791.714 M171.436 788.01 Q177.246 788.01 180.301 792.617 Q183.38 797.2 183.38 805.95 Q183.38 814.677 180.301 819.283 Q177.246 823.866 171.436 823.866 Q165.626 823.866 162.547 819.283 Q159.491 814.677 159.491 805.95 Q159.491 797.2 162.547 792.617 Q165.626 788.01 171.436 788.01 Z" fill="#000000" fill-rule="nonzero" fill-opacity="1" /><path clip-path="url(#clip520)" d="M190.417 788.635 L212.639 788.635 L212.639 790.626 L200.093 823.195 L195.209 823.195 L207.014 792.57 L190.417 792.57 L190.417 788.635 Z" fill="#000000" fill-rule="nonzero" fill-opacity="1" /><path clip-path="url(#clip520)" d="M231.76 791.714 Q228.148 791.714 226.32 795.279 Q224.514 798.82 224.514 805.95 Q224.514 813.056 226.32 816.621 Q228.148 820.163 231.76 820.163 Q235.394 820.163 237.199 816.621 Q239.028 813.056 239.028 805.95 Q239.028 798.82 237.199 795.279 Q235.394 791.714 231.76 791.714 M231.76 788.01 Q237.57 788.01 240.625 792.617 Q243.704 797.2 243.704 805.95 Q243.704 814.677 240.625 819.283 Q237.57 823.866 231.76 823.866 Q225.949 823.866 222.871 819.283 Q219.815 814.677 219.815 805.95 Q219.815 797.2 222.871 792.617 Q225.949 788.01 231.76 788.01 Z" fill="#000000" fill-rule="nonzero" fill-opacity="1" /><path clip-path="url(#clip520)" d="M127.2 560.795 Q123.589 560.795 121.76 564.36 Q119.955 567.901 119.955 575.031 Q119.955 582.137 121.76 585.702 Q123.589 589.244 127.2 589.244 Q130.834 589.244 132.64 585.702 Q134.468 582.137 134.468 575.031 Q134.468 567.901 132.64 564.36 Q130.834 560.795 127.2 560.795 M127.2 557.091 Q133.01 557.091 136.066 561.698 Q139.144 566.281 139.144 575.031 Q139.144 583.758 136.066 588.364 Q133.01 592.947 127.2 592.947 Q121.39 592.947 118.311 588.364 Q115.256 583.758 115.256 575.031 Q115.256 566.281 118.311 561.698 Q121.39 557.091 127.2 557.091 Z" fill="#000000" fill-rule="nonzero" fill-opacity="1" /><path clip-path="url(#clip520)" d="M147.362 586.397 L152.246 586.397 L152.246 592.276 L147.362 592.276 L147.362 586.397 Z" fill="#000000" fill-rule="nonzero" fill-opacity="1" /><path clip-path="url(#clip520)" d="M172.431 560.795 Q168.82 560.795 166.991 564.36 Q165.186 567.901 165.186 575.031 Q165.186 582.137 166.991 585.702 Q168.82 589.244 172.431 589.244 Q176.065 589.244 177.871 585.702 Q179.7 582.137 179.7 575.031 Q179.7 567.901 177.871 564.36 Q176.065 560.795 172.431 560.795 M172.431 557.091 Q178.241 557.091 181.297 561.698 Q184.376 566.281 184.376 575.031 Q184.376 583.758 181.297 588.364 Q178.241 592.947 172.431 592.947 Q166.621 592.947 163.542 588.364 Q160.487 583.758 160.487 575.031 Q160.487 566.281 163.542 561.698 Q166.621 557.091 172.431 557.091 Z" fill="#000000" fill-rule="nonzero" fill-opacity="1" /><path clip-path="url(#clip520)" d="M191.413 557.716 L213.635 557.716 L213.635 559.707 L201.088 592.276 L196.204 592.276 L208.01 561.651 L191.413 561.651 L191.413 557.716 Z" fill="#000000" fill-rule="nonzero" fill-opacity="1" /><path clip-path="url(#clip520)" d="M222.801 557.716 L241.158 557.716 L241.158 561.651 L227.084 561.651 L227.084 570.124 Q228.102 569.776 229.121 569.614 Q230.139 569.429 231.158 569.429 Q236.945 569.429 240.324 572.6 Q243.704 575.772 243.704 581.188 Q243.704 586.767 240.232 589.869 Q236.76 592.947 230.44 592.947 Q228.264 592.947 225.996 592.577 Q223.75 592.207 221.343 591.466 L221.343 586.767 Q223.426 587.901 225.648 588.457 Q227.871 589.012 230.347 589.012 Q234.352 589.012 236.69 586.906 Q239.028 584.799 239.028 581.188 Q239.028 577.577 236.69 575.471 Q234.352 573.364 230.347 573.364 Q228.473 573.364 226.598 573.781 Q224.746 574.198 222.801 575.077 L222.801 557.716 Z" fill="#000000" fill-rule="nonzero" fill-opacity="1" /><path clip-path="url(#clip520)" d="M126.205 329.876 Q122.593 329.876 120.765 333.441 Q118.959 336.982 118.959 344.112 Q118.959 351.218 120.765 354.783 Q122.593 358.325 126.205 358.325 Q129.839 358.325 131.644 354.783 Q133.473 351.218 133.473 344.112 Q133.473 336.982 131.644 333.441 Q129.839 329.876 126.205 329.876 M126.205 326.172 Q132.015 326.172 135.07 330.779 Q138.149 335.362 138.149 344.112 Q138.149 352.839 135.07 357.445 Q132.015 362.029 126.205 362.029 Q120.394 362.029 117.316 357.445 Q114.26 352.839 114.26 344.112 Q114.26 335.362 117.316 330.779 Q120.394 326.172 126.205 326.172 Z" fill="#000000" fill-rule="nonzero" fill-opacity="1" /><path clip-path="url(#clip520)" d="M146.366 355.478 L151.251 355.478 L151.251 361.357 L146.366 361.357 L146.366 355.478 Z" fill="#000000" fill-rule="nonzero" fill-opacity="1" /><path clip-path="url(#clip520)" d="M171.436 329.876 Q167.825 329.876 165.996 333.441 Q164.19 336.982 164.19 344.112 Q164.19 351.218 165.996 354.783 Q167.825 358.325 171.436 358.325 Q175.07 358.325 176.876 354.783 Q178.704 351.218 178.704 344.112 Q178.704 336.982 176.876 333.441 Q175.07 329.876 171.436 329.876 M171.436 326.172 Q177.246 326.172 180.301 330.779 Q183.38 335.362 183.38 344.112 Q183.38 352.839 180.301 357.445 Q177.246 362.029 171.436 362.029 Q165.626 362.029 162.547 357.445 Q159.491 352.839 159.491 344.112 Q159.491 335.362 162.547 330.779 Q165.626 326.172 171.436 326.172 Z" fill="#000000" fill-rule="nonzero" fill-opacity="1" /><path clip-path="url(#clip520)" d="M201.598 344.945 Q198.264 344.945 196.343 346.728 Q194.445 348.51 194.445 351.635 Q194.445 354.76 196.343 356.543 Q198.264 358.325 201.598 358.325 Q204.931 358.325 206.852 356.543 Q208.774 354.737 208.774 351.635 Q208.774 348.51 206.852 346.728 Q204.954 344.945 201.598 344.945 M196.922 342.955 Q193.913 342.214 192.223 340.154 Q190.556 338.094 190.556 335.131 Q190.556 330.987 193.496 328.58 Q196.459 326.172 201.598 326.172 Q206.76 326.172 209.699 328.58 Q212.639 330.987 212.639 335.131 Q212.639 338.094 210.949 340.154 Q209.283 342.214 206.297 342.955 Q209.676 343.742 211.551 346.033 Q213.449 348.325 213.449 351.635 Q213.449 356.658 210.371 359.343 Q207.315 362.029 201.598 362.029 Q195.88 362.029 192.801 359.343 Q189.746 356.658 189.746 351.635 Q189.746 348.325 191.644 346.033 Q193.542 343.742 196.922 342.955 M195.209 335.57 Q195.209 338.256 196.875 339.76 Q198.565 341.265 201.598 341.265 Q204.607 341.265 206.297 339.76 Q208.01 338.256 208.01 335.57 Q208.01 332.885 206.297 331.381 Q204.607 329.876 201.598 329.876 Q198.565 329.876 196.875 331.381 Q195.209 332.885 195.209 335.57 Z" fill="#000000" fill-rule="nonzero" fill-opacity="1" /><path clip-path="url(#clip520)" d="M231.76 329.876 Q228.148 329.876 226.32 333.441 Q224.514 336.982 224.514 344.112 Q224.514 351.218 226.32 354.783 Q228.148 358.325 231.76 358.325 Q235.394 358.325 237.199 354.783 Q239.028 351.218 239.028 344.112 Q239.028 336.982 237.199 333.441 Q235.394 329.876 231.76 329.876 M231.76 326.172 Q237.57 326.172 240.625 330.779 Q243.704 335.362 243.704 344.112 Q243.704 352.839 240.625 357.445 Q237.57 362.029 231.76 362.029 Q225.949 362.029 222.871 357.445 Q219.815 352.839 219.815 344.112 Q219.815 335.362 222.871 330.779 Q225.949 326.172 231.76 326.172 Z" fill="#000000" fill-rule="nonzero" fill-opacity="1" /><path clip-path="url(#clip520)" d="M127.2 98.9572 Q123.589 98.9572 121.76 102.522 Q119.955 106.064 119.955 113.193 Q119.955 120.3 121.76 123.864 Q123.589 127.406 127.2 127.406 Q130.834 127.406 132.64 123.864 Q134.468 120.3 134.468 113.193 Q134.468 106.064 132.64 102.522 Q130.834 98.9572 127.2 98.9572 M127.2 95.2535 Q133.01 95.2535 136.066 99.8599 Q139.144 104.443 139.144 113.193 Q139.144 121.92 136.066 126.526 Q133.01 131.11 127.2 131.11 Q121.39 131.11 118.311 126.526 Q115.256 121.92 115.256 113.193 Q115.256 104.443 118.311 99.8599 Q121.39 95.2535 127.2 95.2535 Z" fill="#000000" fill-rule="nonzero" fill-opacity="1" /><path clip-path="url(#clip520)" d="M147.362 124.559 L152.246 124.559 L152.246 130.438 L147.362 130.438 L147.362 124.559 Z" fill="#000000" fill-rule="nonzero" fill-opacity="1" /><path clip-path="url(#clip520)" d="M172.431 98.9572 Q168.82 98.9572 166.991 102.522 Q165.186 106.064 165.186 113.193 Q165.186 120.3 166.991 123.864 Q168.82 127.406 172.431 127.406 Q176.065 127.406 177.871 123.864 Q179.7 120.3 179.7 113.193 Q179.7 106.064 177.871 102.522 Q176.065 98.9572 172.431 98.9572 M172.431 95.2535 Q178.241 95.2535 181.297 99.8599 Q184.376 104.443 184.376 113.193 Q184.376 121.92 181.297 126.526 Q178.241 131.11 172.431 131.11 Q166.621 131.11 163.542 126.526 Q160.487 121.92 160.487 113.193 Q160.487 104.443 163.542 99.8599 Q166.621 95.2535 172.431 95.2535 Z" fill="#000000" fill-rule="nonzero" fill-opacity="1" /><path clip-path="url(#clip520)" d="M202.593 114.027 Q199.26 114.027 197.338 115.809 Q195.44 117.591 195.44 120.716 Q195.44 123.841 197.338 125.624 Q199.26 127.406 202.593 127.406 Q205.926 127.406 207.848 125.624 Q209.769 123.818 209.769 120.716 Q209.769 117.591 207.848 115.809 Q205.949 114.027 202.593 114.027 M197.917 112.036 Q194.908 111.295 193.218 109.235 Q191.551 107.175 191.551 104.212 Q191.551 100.068 194.491 97.6609 Q197.454 95.2535 202.593 95.2535 Q207.755 95.2535 210.695 97.6609 Q213.635 100.068 213.635 104.212 Q213.635 107.175 211.945 109.235 Q210.278 111.295 207.292 112.036 Q210.672 112.823 212.547 115.114 Q214.445 117.406 214.445 120.716 Q214.445 125.739 211.366 128.425 Q208.311 131.11 202.593 131.11 Q196.875 131.11 193.797 128.425 Q190.741 125.739 190.741 120.716 Q190.741 117.406 192.639 115.114 Q194.538 112.823 197.917 112.036 M196.204 104.652 Q196.204 107.337 197.871 108.841 Q199.561 110.346 202.593 110.346 Q205.602 110.346 207.292 108.841 Q209.005 107.337 209.005 104.652 Q209.005 101.966 207.292 100.462 Q205.602 98.9572 202.593 98.9572 Q199.561 98.9572 197.871 100.462 Q196.204 101.966 196.204 104.652 Z" fill="#000000" fill-rule="nonzero" fill-opacity="1" /><path clip-path="url(#clip520)" d="M222.801 95.8785 L241.158 95.8785 L241.158 99.8136 L227.084 99.8136 L227.084 108.286 Q228.102 107.939 229.121 107.777 Q230.139 107.591 231.158 107.591 Q236.945 107.591 240.324 110.763 Q243.704 113.934 243.704 119.351 Q243.704 124.929 240.232 128.031 Q236.76 131.11 230.44 131.11 Q228.264 131.11 225.996 130.739 Q223.75 130.369 221.343 129.628 L221.343 124.929 Q223.426 126.063 225.648 126.619 Q227.871 127.175 230.347 127.175 Q234.352 127.175 236.69 125.068 Q239.028 122.962 239.028 119.351 Q239.028 115.739 236.69 113.633 Q234.352 111.527 230.347 111.527 Q228.473 111.527 226.598 111.943 Q224.746 112.36 222.801 113.239 L222.801 95.8785 Z" fill="#000000" fill-rule="nonzero" fill-opacity="1" /><path clip-path="url(#clip520)" d="M34.7219 748.293 Q31.4754 746.352 28.6108 741.546 Q27.4968 739.668 27.4968 733.875 Q27.4968 727.382 32.6531 723.34 Q37.8093 719.266 46.212 719.266 Q54.6147 719.266 59.771 723.34 Q64.9272 727.382 64.9272 733.875 Q64.9272 737.79 63.3994 740.623 Q61.8398 743.424 58.657 745.27 L77.5631 745.27 L77.5631 751.158 L46.5303 751.158 Q39.1779 751.158 34.7219 748.293 M46.212 725.345 Q39.7508 725.345 36.0905 728.019 Q32.3984 730.66 32.3984 735.307 Q32.3984 739.954 36.0905 742.628 Q39.7508 745.27 46.212 745.27 Q52.6732 745.27 56.3653 742.628 Q60.0256 739.954 60.0256 735.307 Q60.0256 730.66 56.3653 728.019 Q52.6732 725.345 46.212 725.345 Z" fill="#000000" fill-rule="nonzero" fill-opacity="1" /><polyline clip-path="url(#clip522)" style="stroke:#009af9; stroke-linecap:round; stroke-linejoin:round; stroke-width:4; stroke-opacity:1; fill:none" points="338.375,86.1857 405.813,103.302 473.252,165.39 540.69,300.506 608.128,534.441 675.566,853.252 743.005,1176.9 810.443,1384.24 877.881,1384.24 945.319,1176.9 1012.76,853.252 1080.2,534.441 1147.63,300.506 1215.07,165.39 1282.51,103.302 1349.95,86.1857 1417.39,103.302 1484.83,165.39 1552.26,300.506 1619.7,534.441 1687.14,853.252 1754.58,1176.9 1822.02,1384.24 1889.46,1384.24 1956.89,1176.9 2024.33,853.252 2091.77,534.441 2159.21,300.506 2226.65,165.39 2294.08,103.302 "/>
<circle clip-path="url(#clip522)" cx="338.375" cy="86.1857" r="7.2" fill="#009af9" fill-rule="evenodd" fill-opacity="1" stroke="#000000" stroke-opacity="1" stroke-width="3.2"/>
<circle clip-path="url(#clip522)" cx="405.813" cy="103.302" r="7.2" fill="#009af9" fill-rule="evenodd" fill-opacity="1" stroke="#000000" stroke-opacity="1" stroke-width="3.2"/>
<circle clip-path="url(#clip522)" cx="473.252" cy="165.39" r="7.2" fill="#009af9" fill-rule="evenodd" fill-opacity="1" stroke="#000000" stroke-opacity="1" stroke-width="3.2"/>
<circle clip-path="url(#clip522)" cx="540.69" cy="300.506" r="7.2" fill="#009af9" fill-rule="evenodd" fill-opacity="1" stroke="#000000" stroke-opacity="1" stroke-width="3.2"/>
<circle clip-path="url(#clip522)" cx="608.128" cy="534.441" r="7.2" fill="#009af9" fill-rule="evenodd" fill-opacity="1" stroke="#000000" stroke-opacity="1" stroke-width="3.2"/>
<circle clip-path="url(#clip522)" cx="675.566" cy="853.252" r="7.2" fill="#009af9" fill-rule="evenodd" fill-opacity="1" stroke="#000000" stroke-opacity="1" stroke-width="3.2"/>
<circle clip-path="url(#clip522)" cx="743.005" cy="1176.9" r="7.2" fill="#009af9" fill-rule="evenodd" fill-opacity="1" stroke="#000000" stroke-opacity="1" stroke-width="3.2"/>
<circle clip-path="url(#clip522)" cx="810.443" cy="1384.24" r="7.2" fill="#009af9" fill-rule="evenodd" fill-opacity="1" stroke="#000000" stroke-opacity="1" stroke-width="3.2"/>
<circle clip-path="url(#clip522)" cx="877.881" cy="1384.24" r="7.2" fill="#009af9" fill-rule="evenodd" fill-opacity="1" stroke="#000000" stroke-opacity="1" stroke-width="3.2"/>
<circle clip-path="url(#clip522)" cx="945.319" cy="1176.9" r="7.2" fill="#009af9" fill-rule="evenodd" fill-opacity="1" stroke="#000000" stroke-opacity="1" stroke-width="3.2"/>
<circle clip-path="url(#clip522)" cx="1012.76" cy="853.252" r="7.2" fill="#009af9" fill-rule="evenodd" fill-opacity="1" stroke="#000000" stroke-opacity="1" stroke-width="3.2"/>
<circle clip-path="url(#clip522)" cx="1080.2" cy="534.441" r="7.2" fill="#009af9" fill-rule="evenodd" fill-opacity="1" stroke="#000000" stroke-opacity="1" stroke-width="3.2"/>
<circle clip-path="url(#clip522)" cx="1147.63" cy="300.506" r="7.2" fill="#009af9" fill-rule="evenodd" fill-opacity="1" stroke="#000000" stroke-opacity="1" stroke-width="3.2"/>
<circle clip-path="url(#clip522)" cx="1215.07" cy="165.39" r="7.2" fill="#009af9" fill-rule="evenodd" fill-opacity="1" stroke="#000000" stroke-opacity="1" stroke-width="3.2"/>
<circle clip-path="url(#clip522)" cx="1282.51" cy="103.302" r="7.2" fill="#009af9" fill-rule="evenodd" fill-opacity="1" stroke="#000000" stroke-opacity="1" stroke-width="3.2"/>
<circle clip-path="url(#clip522)" cx="1349.95" cy="86.1857" r="7.2" fill="#009af9" fill-rule="evenodd" fill-opacity="1" stroke="#000000" stroke-opacity="1" stroke-width="3.2"/>
<circle clip-path="url(#clip522)" cx="1417.39" cy="103.302" r="7.2" fill="#009af9" fill-rule="evenodd" fill-opacity="1" stroke="#000000" stroke-opacity="1" stroke-width="3.2"/>
<circle clip-path="url(#clip522)" cx="1484.83" cy="165.39" r="7.2" fill="#009af9" fill-rule="evenodd" fill-opacity="1" stroke="#000000" stroke-opacity="1" stroke-width="3.2"/>
<circle clip-path="url(#clip522)" cx="1552.26" cy="300.506" r="7.2" fill="#009af9" fill-rule="evenodd" fill-opacity="1" stroke="#000000" stroke-opacity="1" stroke-width="3.2"/>
<circle clip-path="url(#clip522)" cx="1619.7" cy="534.441" r="7.2" fill="#009af9" fill-rule="evenodd" fill-opacity="1" stroke="#000000" stroke-opacity="1" stroke-width="3.2"/>
<circle clip-path="url(#clip522)" cx="1687.14" cy="853.252" r="7.2" fill="#009af9" fill-rule="evenodd" fill-opacity="1" stroke="#000000" stroke-opacity="1" stroke-width="3.2"/>
<circle clip-path="url(#clip522)" cx="1754.58" cy="1176.9" r="7.2" fill="#009af9" fill-rule="evenodd" fill-opacity="1" stroke="#000000" stroke-opacity="1" stroke-width="3.2"/>
<circle clip-path="url(#clip522)" cx="1822.02" cy="1384.24" r="7.2" fill="#009af9" fill-rule="evenodd" fill-opacity="1" stroke="#000000" stroke-opacity="1" stroke-width="3.2"/>
<circle clip-path="url(#clip522)" cx="1889.46" cy="1384.24" r="7.2" fill="#009af9" fill-rule="evenodd" fill-opacity="1" stroke="#000000" stroke-opacity="1" stroke-width="3.2"/>
<circle clip-path="url(#clip522)" cx="1956.89" cy="1176.9" r="7.2" fill="#009af9" fill-rule="evenodd" fill-opacity="1" stroke="#000000" stroke-opacity="1" stroke-width="3.2"/>
<circle clip-path="url(#clip522)" cx="2024.33" cy="853.252" r="7.2" fill="#009af9" fill-rule="evenodd" fill-opacity="1" stroke="#000000" stroke-opacity="1" stroke-width="3.2"/>
<circle clip-path="url(#clip522)" cx="2091.77" cy="534.441" r="7.2" fill="#009af9" fill-rule="evenodd" fill-opacity="1" stroke="#000000" stroke-opacity="1" stroke-width="3.2"/>
<circle clip-path="url(#clip522)" cx="2159.21" cy="300.506" r="7.2" fill="#009af9" fill-rule="evenodd" fill-opacity="1" stroke="#000000" stroke-opacity="1" stroke-width="3.2"/>
<circle clip-path="url(#clip522)" cx="2226.65" cy="165.39" r="7.2" fill="#009af9" fill-rule="evenodd" fill-opacity="1" stroke="#000000" stroke-opacity="1" stroke-width="3.2"/>
<circle clip-path="url(#clip522)" cx="2294.08" cy="103.302" r="7.2" fill="#009af9" fill-rule="evenodd" fill-opacity="1" stroke="#000000" stroke-opacity="1" stroke-width="3.2"/>
</svg>
