<?xml version="1.0" encoding="utf-8"?>
<svg xmlns="http://www.w3.org/2000/svg" xmlns:xlink="http://www.w3.org/1999/xlink" width="600" height="400" viewBox="0 0 2400 1600">
<defs>
  <clipPath id="clip910">
    <rect x="0" y="0" width="2400" height="1600"/>
  </clipPath>
</defs>
<path clip-path="url(#clip910)" d="M0 1600 L2400 1600 L2400 0 L0 0  Z" fill="#ffffff" fill-rule="evenodd" fill-opacity="1"/>
<defs>
  <clipPath id="clip911">
    <rect x="480" y="0" width="1681" height="1600"/>
  </clipPath>
</defs>
<path clip-path="url(#clip910)" d="M317.69 1423.18 L2352.76 1423.18 L2352.76 47.2441 L317.69 47.2441  Z" fill="#ffffff" fill-rule="evenodd" fill-opacity="1"/>
<defs>
  <clipPath id="clip912">
    <rect x="317" y="47" width="2036" height="1377"/>
  </clipPath>
</defs>
<polyline clip-path="url(#clip912)" style="stroke:#000000; stroke-linecap:round; stroke-linejoin:round; stroke-width:2; stroke-opacity:0.1; fill:none" points="586.734,1423.18 586.734,47.2441 "/>
<polyline clip-path="url(#clip912)" style="stroke:#000000; stroke-linecap:round; stroke-linejoin:round; stroke-width:2; stroke-opacity:0.1; fill:none" points="1054.54,1423.18 1054.54,47.2441 "/>
<polyline clip-path="url(#clip912)" style="stroke:#000000; stroke-linecap:round; stroke-linejoin:round; stroke-width:2; stroke-opacity:0.1; fill:none" points="1522.35,1423.18 1522.35,47.2441 "/>
<polyline clip-path="url(#clip912)" style="stroke:#000000; stroke-linecap:round; stroke-linejoin:round; stroke-width:2; stroke-opacity:0.1; fill:none" points="1990.15,1423.18 1990.15,47.2441 "/>
<polyline clip-path="url(#clip912)" style="stroke:#000000; stroke-linecap:round; stroke-linejoin:round; stroke-width:2; stroke-opacity:0.1; fill:none" points="317.69,1254.9 2352.76,1254.9 "/>
<polyline clip-path="url(#clip912)" style="stroke:#000000; stroke-linecap:round; stroke-linejoin:round; stroke-width:2; stroke-opacity:0.1; fill:none" points="317.69,1023.07 2352.76,1023.07 "/>
<polyline clip-path="url(#clip912)" style="stroke:#000000; stroke-linecap:round; stroke-linejoin:round; stroke-width:2; stroke-opacity:0.1; fill:none" points="317.69,791.233 2352.76,791.233 "/>
<polyline clip-path="url(#clip912)" style="stroke:#000000; stroke-linecap:round; stroke-linejoin:round; stroke-width:2; stroke-opacity:0.1; fill:none" points="317.69,559.399 2352.76,559.399 "/>
<polyline clip-path="url(#clip912)" style="stroke:#000000; stroke-linecap:round; stroke-linejoin:round; stroke-width:2; stroke-opacity:0.1; fill:none" points="317.69,327.565 2352.76,327.565 "/>
<polyline clip-path="url(#clip912)" style="stroke:#000000; stroke-linecap:round; stroke-linejoin:round; stroke-width:2; stroke-opacity:0.1; fill:none" points="317.69,95.7314 2352.76,95.7314 "/>
<polyline clip-path="url(#clip910)" style="stroke:#000000; stroke-linecap:round; stroke-linejoin:round; stroke-width:4; stroke-opacity:1; fill:none" points="317.69,1423.18 2352.76,1423.18 "/>
<polyline clip-path="url(#clip910)" style="stroke:#000000; stroke-linecap:round; stroke-linejoin:round; stroke-width:4; stroke-opacity:1; fill:none" points="586.734,1423.18 586.734,1404.28 "/>
<polyline clip-path="url(#clip910)" style="stroke:#000000; stroke-linecap:round; stroke-linejoin:round; stroke-width:4; stroke-opacity:1; fill:none" points="1054.54,1423.18 1054.54,1404.28 "/>
<polyline clip-path="url(#clip910)" style="stroke:#000000; stroke-linecap:round; stroke-linejoin:round; stroke-width:4; stroke-opacity:1; fill:none" points="1522.35,1423.18 1522.35,1404.28 "/>
<polyline clip-path="url(#clip910)" style="stroke:#000000; stroke-linecap:round; stroke-linejoin:round; stroke-width:4; stroke-opacity:1; fill:none" points="1990.15,1423.18 1990.15,1404.28 "/>
<path clip-path="url(#clip910)" d="M539.42 1481.64 L547.058 1481.64 L547.058 1455.28 L538.748 1456.95 L538.748 1452.69 L547.012 1451.02 L551.688 1451.02 L551.688 1481.64 L559.327 1481.64 L559.327 1485.58 L539.42 1485.58 L539.42 1481.64 Z" fill="#000000" fill-rule="nonzero" fill-opacity="1" /><path clip-path="url(#clip910)" d="M578.771 1454.1 Q575.16 1454.1 573.331 1457.66 Q571.526 1461.2 571.526 1468.33 Q571.526 1475.44 573.331 1479.01 Q575.16 1482.55 578.771 1482.55 Q582.405 1482.55 584.211 1479.01 Q586.04 1475.44 586.04 1468.33 Q586.04 1461.2 584.211 1457.66 Q582.405 1454.1 578.771 1454.1 M578.771 1450.39 Q584.581 1450.39 587.637 1455 Q590.716 1459.58 590.716 1468.33 Q590.716 1477.06 587.637 1481.67 Q584.581 1486.25 578.771 1486.25 Q572.961 1486.25 569.882 1481.67 Q566.827 1477.06 566.827 1468.33 Q566.827 1459.58 569.882 1455 Q572.961 1450.39 578.771 1450.39 Z" fill="#000000" fill-rule="nonzero" fill-opacity="1" /><path clip-path="url(#clip910)" d="M598.933 1479.7 L603.817 1479.7 L603.817 1485.58 L598.933 1485.58 L598.933 1479.7 Z" fill="#000000" fill-rule="nonzero" fill-opacity="1" /><path clip-path="url(#clip910)" d="M614.813 1481.64 L622.452 1481.64 L622.452 1455.28 L614.141 1456.95 L614.141 1452.69 L622.405 1451.02 L627.081 1451.02 L627.081 1481.64 L634.72 1481.64 L634.72 1485.58 L614.813 1485.58 L614.813 1481.64 Z" fill="#000000" fill-rule="nonzero" fill-opacity="1" /><path clip-path="url(#clip910)" d="M1007.41 1481.64 L1015.05 1481.64 L1015.05 1455.28 L1006.74 1456.95 L1006.74 1452.69 L1015 1451.02 L1019.68 1451.02 L1019.68 1481.64 L1027.32 1481.64 L1027.32 1485.58 L1007.41 1485.58 L1007.41 1481.64 Z" fill="#000000" fill-rule="nonzero" fill-opacity="1" /><path clip-path="url(#clip910)" d="M1046.76 1454.1 Q1043.15 1454.1 1041.32 1457.66 Q1039.52 1461.2 1039.52 1468.33 Q1039.52 1475.44 1041.32 1479.01 Q1043.15 1482.55 1046.76 1482.55 Q1050.4 1482.55 1052.2 1479.01 Q1054.03 1475.44 1054.03 1468.33 Q1054.03 1461.2 1052.2 1457.66 Q1050.4 1454.1 1046.76 1454.1 M1046.76 1450.39 Q1052.57 1450.39 1055.63 1455 Q1058.71 1459.58 1058.71 1468.33 Q1058.71 1477.06 1055.63 1481.67 Q1052.57 1486.25 1046.76 1486.25 Q1040.95 1486.25 1037.87 1481.67 Q1034.82 1477.06 1034.82 1468.33 Q1034.82 1459.58 1037.87 1455 Q1040.95 1450.39 1046.76 1450.39 Z" fill="#000000" fill-rule="nonzero" fill-opacity="1" /><path clip-path="url(#clip910)" d="M1066.92 1479.7 L1071.81 1479.7 L1071.81 1485.58 L1066.92 1485.58 L1066.92 1479.7 Z" fill="#000000" fill-rule="nonzero" fill-opacity="1" /><path clip-path="url(#clip910)" d="M1086.02 1481.64 L1102.34 1481.64 L1102.34 1485.58 L1080.4 1485.58 L1080.4 1481.64 Q1083.06 1478.89 1087.64 1474.26 Q1092.25 1469.61 1093.43 1468.27 Q1095.67 1465.74 1096.55 1464.01 Q1097.46 1462.25 1097.46 1460.56 Q1097.46 1457.8 1095.51 1456.07 Q1093.59 1454.33 1090.49 1454.33 Q1088.29 1454.33 1085.84 1455.09 Q1083.41 1455.86 1080.63 1457.41 L1080.63 1452.69 Q1083.45 1451.55 1085.91 1450.97 Q1088.36 1450.39 1090.4 1450.39 Q1095.77 1450.39 1098.96 1453.08 Q1102.16 1455.77 1102.16 1460.26 Q1102.16 1462.39 1101.34 1464.31 Q1100.56 1466.2 1098.45 1468.8 Q1097.87 1469.47 1094.77 1472.69 Q1091.67 1475.88 1086.02 1481.64 Z" fill="#000000" fill-rule="nonzero" fill-opacity="1" /><path clip-path="url(#clip910)" d="M1474.74 1481.64 L1482.38 1481.64 L1482.38 1455.28 L1474.07 1456.95 L1474.07 1452.69 L1482.33 1451.02 L1487.01 1451.02 L1487.01 1481.64 L1494.65 1481.64 L1494.65 1485.58 L1474.74 1485.58 L1474.74 1481.64 Z" fill="#000000" fill-rule="nonzero" fill-opacity="1" /><path clip-path="url(#clip910)" d="M1514.09 1454.1 Q1510.48 1454.1 1508.65 1457.66 Q1506.85 1461.2 1506.85 1468.33 Q1506.85 1475.44 1508.65 1479.01 Q1510.48 1482.55 1514.09 1482.55 Q1517.73 1482.55 1519.53 1479.01 Q1521.36 1475.44 1521.36 1468.33 Q1521.36 1461.2 1519.53 1457.66 Q1517.73 1454.1 1514.09 1454.1 M1514.09 1450.39 Q1519.9 1450.39 1522.96 1455 Q1526.04 1459.58 1526.04 1468.33 Q1526.04 1477.06 1522.96 1481.67 Q1519.9 1486.25 1514.09 1486.25 Q1508.28 1486.25 1505.2 1481.67 Q1502.15 1477.06 1502.15 1468.33 Q1502.15 1459.58 1505.2 1455 Q1508.28 1450.39 1514.09 1450.39 Z" fill="#000000" fill-rule="nonzero" fill-opacity="1" /><path clip-path="url(#clip910)" d="M1534.25 1479.7 L1539.14 1479.7 L1539.14 1485.58 L1534.25 1485.58 L1534.25 1479.7 Z" fill="#000000" fill-rule="nonzero" fill-opacity="1" /><path clip-path="url(#clip910)" d="M1563.49 1466.95 Q1566.85 1467.66 1568.72 1469.93 Q1570.62 1472.2 1570.62 1475.53 Q1570.62 1480.65 1567.1 1483.45 Q1563.58 1486.25 1557.1 1486.25 Q1554.93 1486.25 1552.61 1485.81 Q1550.32 1485.39 1547.87 1484.54 L1547.87 1480.02 Q1549.81 1481.16 1552.12 1481.74 Q1554.44 1482.32 1556.96 1482.32 Q1561.36 1482.32 1563.65 1480.58 Q1565.97 1478.84 1565.97 1475.53 Q1565.97 1472.48 1563.81 1470.77 Q1561.69 1469.03 1557.87 1469.03 L1553.84 1469.03 L1553.84 1465.19 L1558.05 1465.19 Q1561.5 1465.19 1563.33 1463.82 Q1565.16 1462.43 1565.16 1459.84 Q1565.16 1457.18 1563.26 1455.77 Q1561.38 1454.33 1557.87 1454.33 Q1555.94 1454.33 1553.75 1454.75 Q1551.55 1455.16 1548.91 1456.04 L1548.91 1451.88 Q1551.57 1451.14 1553.88 1450.77 Q1556.22 1450.39 1558.28 1450.39 Q1563.61 1450.39 1566.71 1452.83 Q1569.81 1455.23 1569.81 1459.35 Q1569.81 1462.22 1568.17 1464.21 Q1566.52 1466.18 1563.49 1466.95 Z" fill="#000000" fill-rule="nonzero" fill-opacity="1" /><path clip-path="url(#clip910)" d="M1941.98 1481.64 L1949.62 1481.64 L1949.62 1455.28 L1941.31 1456.95 L1941.31 1452.69 L1949.57 1451.02 L1954.25 1451.02 L1954.25 1481.64 L1961.89 1481.64 L1961.89 1485.58 L1941.98 1485.58 L1941.98 1481.64 Z" fill="#000000" fill-rule="nonzero" fill-opacity="1" /><path clip-path="url(#clip910)" d="M1981.33 1454.1 Q1977.72 1454.1 1975.89 1457.66 Q1974.09 1461.2 1974.09 1468.33 Q1974.09 1475.44 1975.89 1479.01 Q1977.72 1482.55 1981.33 1482.55 Q1984.97 1482.55 1986.77 1479.01 Q1988.6 1475.44 1988.6 1468.33 Q1988.6 1461.2 1986.77 1457.66 Q1984.97 1454.1 1981.33 1454.1 M1981.33 1450.39 Q1987.14 1450.39 1990.2 1455 Q1993.28 1459.58 1993.28 1468.33 Q1993.28 1477.06 1990.2 1481.67 Q1987.14 1486.25 1981.33 1486.25 Q1975.52 1486.25 1972.44 1481.67 Q1969.39 1477.06 1969.39 1468.33 Q1969.39 1459.58 1972.44 1455 Q1975.52 1450.39 1981.33 1450.39 Z" fill="#000000" fill-rule="nonzero" fill-opacity="1" /><path clip-path="url(#clip910)" d="M2001.49 1479.7 L2006.38 1479.7 L2006.38 1485.58 L2001.49 1485.58 L2001.49 1479.7 Z" fill="#000000" fill-rule="nonzero" fill-opacity="1" /><path clip-path="url(#clip910)" d="M2029.41 1455.09 L2017.6 1473.54 L2029.41 1473.54 L2029.41 1455.09 M2028.18 1451.02 L2034.06 1451.02 L2034.06 1473.54 L2038.99 1473.54 L2038.99 1477.43 L2034.06 1477.43 L2034.06 1485.58 L2029.41 1485.58 L2029.41 1477.43 L2013.81 1477.43 L2013.81 1472.92 L2028.18 1451.02 Z" fill="#000000" fill-rule="nonzero" fill-opacity="1" /><path clip-path="url(#clip910)" d="M957.896 1518.52 L963.752 1518.52 L963.752 1568.04 L957.896 1568.04 L957.896 1518.52 Z" fill="#000000" fill-rule="nonzero" fill-opacity="1" /><path clip-path="url(#clip910)" d="M992.207 1550.12 Q985.109 1550.12 982.372 1551.75 Q979.634 1553.37 979.634 1557.29 Q979.634 1560.4 981.672 1562.25 Q983.74 1564.07 987.273 1564.07 Q992.143 1564.07 995.071 1560.63 Q998.031 1557.16 998.031 1551.43 L998.031 1550.12 L992.207 1550.12 M1003.89 1547.71 L1003.89 1568.04 L998.031 1568.04 L998.031 1562.63 Q996.026 1565.88 993.034 1567.44 Q990.042 1568.97 985.714 1568.97 Q980.239 1568.97 976.993 1565.91 Q973.778 1562.82 973.778 1557.67 Q973.778 1551.65 977.788 1548.6 Q981.831 1545.54 989.82 1545.54 L998.031 1545.54 L998.031 1544.97 Q998.031 1540.93 995.358 1538.73 Q992.716 1536.5 987.91 1536.5 Q984.854 1536.5 981.958 1537.23 Q979.062 1537.97 976.388 1539.43 L976.388 1534.02 Q979.603 1532.78 982.626 1532.17 Q985.65 1531.54 988.515 1531.54 Q996.249 1531.54 1000.07 1535.55 Q1003.89 1539.56 1003.89 1547.71 Z" fill="#000000" fill-rule="nonzero" fill-opacity="1" /><path clip-path="url(#clip910)" d="M1021.74 1522.27 L1021.74 1532.4 L1033.81 1532.4 L1033.81 1536.95 L1021.74 1536.95 L1021.74 1556.3 Q1021.74 1560.66 1022.92 1561.9 Q1024.13 1563.14 1027.79 1563.14 L1033.81 1563.14 L1033.81 1568.04 L1027.79 1568.04 Q1021.01 1568.04 1018.43 1565.53 Q1015.86 1562.98 1015.86 1556.3 L1015.86 1536.95 L1011.56 1536.95 L1011.56 1532.4 L1015.86 1532.4 L1015.86 1522.27 L1021.74 1522.27 Z" fill="#000000" fill-rule="nonzero" fill-opacity="1" /><path clip-path="url(#clip910)" d="M1047.3 1522.27 L1047.3 1532.4 L1059.36 1532.4 L1059.36 1536.95 L1047.3 1536.95 L1047.3 1556.3 Q1047.3 1560.66 1048.48 1561.9 Q1049.69 1563.14 1053.35 1563.14 L1059.36 1563.14 L1059.36 1568.04 L1053.35 1568.04 Q1046.57 1568.04 1043.99 1565.53 Q1041.41 1562.98 1041.41 1556.3 L1041.41 1536.95 L1037.12 1536.95 L1037.12 1532.4 L1041.41 1532.4 L1041.41 1522.27 L1047.3 1522.27 Z" fill="#000000" fill-rule="nonzero" fill-opacity="1" /><path clip-path="url(#clip910)" d="M1067.07 1532.4 L1072.92 1532.4 L1072.92 1568.04 L1067.07 1568.04 L1067.07 1532.4 M1067.07 1518.52 L1072.92 1518.52 L1072.92 1525.93 L1067.07 1525.93 L1067.07 1518.52 Z" fill="#000000" fill-rule="nonzero" fill-opacity="1" /><path clip-path="url(#clip910)" d="M1110.83 1533.76 L1110.83 1539.24 Q1108.35 1537.87 1105.83 1537.2 Q1103.35 1536.5 1100.81 1536.5 Q1095.11 1536.5 1091.96 1540.13 Q1088.81 1543.73 1088.81 1550.25 Q1088.81 1556.78 1091.96 1560.4 Q1095.11 1564 1100.81 1564 Q1103.35 1564 1105.83 1563.33 Q1108.35 1562.63 1110.83 1561.26 L1110.83 1566.68 Q1108.38 1567.82 1105.74 1568.39 Q1103.13 1568.97 1100.17 1568.97 Q1092.12 1568.97 1087.37 1563.91 Q1082.63 1558.85 1082.63 1550.25 Q1082.63 1541.53 1087.41 1536.53 Q1092.21 1531.54 1100.55 1531.54 Q1103.26 1531.54 1105.83 1532.11 Q1108.41 1532.65 1110.83 1533.76 Z" fill="#000000" fill-rule="nonzero" fill-opacity="1" /><path clip-path="url(#clip910)" d="M1151.51 1548.76 L1151.51 1551.62 L1124.58 1551.62 Q1124.96 1557.67 1128.21 1560.85 Q1131.49 1564 1137.31 1564 Q1140.69 1564 1143.84 1563.17 Q1147.02 1562.35 1150.14 1560.69 L1150.14 1566.23 Q1146.99 1567.57 1143.68 1568.27 Q1140.37 1568.97 1136.96 1568.97 Q1128.43 1568.97 1123.44 1564 Q1118.47 1559.04 1118.47 1550.57 Q1118.47 1541.82 1123.18 1536.69 Q1127.92 1531.54 1135.94 1531.54 Q1143.14 1531.54 1147.31 1536.18 Q1151.51 1540.8 1151.51 1548.76 M1145.65 1547.04 Q1145.59 1542.23 1142.95 1539.37 Q1140.34 1536.5 1136.01 1536.5 Q1131.11 1536.5 1128.15 1539.27 Q1125.22 1542.04 1124.77 1547.07 L1145.65 1547.04 Z" fill="#000000" fill-rule="nonzero" fill-opacity="1" /><path clip-path="url(#clip910)" d="M1187.51 1562.7 L1187.51 1581.6 L1181.62 1581.6 L1181.62 1532.4 L1187.51 1532.4 L1187.51 1537.81 Q1189.35 1534.62 1192.15 1533.1 Q1194.99 1531.54 1198.9 1531.54 Q1205.39 1531.54 1209.44 1536.69 Q1213.51 1541.85 1213.51 1550.25 Q1213.51 1558.65 1209.44 1563.81 Q1205.39 1568.97 1198.9 1568.97 Q1194.99 1568.97 1192.15 1567.44 Q1189.35 1565.88 1187.51 1562.7 M1207.43 1550.25 Q1207.43 1543.79 1204.76 1540.13 Q1202.12 1536.44 1197.47 1536.44 Q1192.82 1536.44 1190.15 1540.13 Q1187.51 1543.79 1187.51 1550.25 Q1187.51 1556.71 1190.15 1560.4 Q1192.82 1564.07 1197.47 1564.07 Q1202.12 1564.07 1204.76 1560.4 Q1207.43 1556.71 1207.43 1550.25 Z" fill="#000000" fill-rule="nonzero" fill-opacity="1" /><path clip-path="url(#clip910)" d="M1239.42 1550.12 Q1232.32 1550.12 1229.58 1551.75 Q1226.85 1553.37 1226.85 1557.29 Q1226.85 1560.4 1228.88 1562.25 Q1230.95 1564.07 1234.49 1564.07 Q1239.36 1564.07 1242.28 1560.63 Q1245.24 1557.16 1245.24 1551.43 L1245.24 1550.12 L1239.42 1550.12 M1251.1 1547.71 L1251.1 1568.04 L1245.24 1568.04 L1245.24 1562.63 Q1243.24 1565.88 1240.25 1567.44 Q1237.25 1568.97 1232.93 1568.97 Q1227.45 1568.97 1224.2 1565.91 Q1220.99 1562.82 1220.99 1557.67 Q1220.99 1551.65 1225 1548.6 Q1229.04 1545.54 1237.03 1545.54 L1245.24 1545.54 L1245.24 1544.97 Q1245.24 1540.93 1242.57 1538.73 Q1239.93 1536.5 1235.12 1536.5 Q1232.07 1536.5 1229.17 1537.23 Q1226.27 1537.97 1223.6 1539.43 L1223.6 1534.02 Q1226.81 1532.78 1229.84 1532.17 Q1232.86 1531.54 1235.73 1531.54 Q1243.46 1531.54 1247.28 1535.55 Q1251.1 1539.56 1251.1 1547.71 Z" fill="#000000" fill-rule="nonzero" fill-opacity="1" /><path clip-path="url(#clip910)" d="M1283.82 1537.87 Q1282.83 1537.3 1281.66 1537.04 Q1280.51 1536.76 1279.11 1536.76 Q1274.14 1536.76 1271.47 1540 Q1268.83 1543.22 1268.83 1549.27 L1268.83 1568.04 L1262.94 1568.04 L1262.94 1532.4 L1268.83 1532.4 L1268.83 1537.93 Q1270.67 1534.69 1273.63 1533.13 Q1276.59 1531.54 1280.83 1531.54 Q1281.43 1531.54 1282.16 1531.63 Q1282.9 1531.7 1283.79 1531.85 L1283.82 1537.87 Z" fill="#000000" fill-rule="nonzero" fill-opacity="1" /><path clip-path="url(#clip910)" d="M1306.16 1550.12 Q1299.07 1550.12 1296.33 1551.75 Q1293.59 1553.37 1293.59 1557.29 Q1293.59 1560.4 1295.63 1562.25 Q1297.7 1564.07 1301.23 1564.07 Q1306.1 1564.07 1309.03 1560.63 Q1311.99 1557.16 1311.99 1551.43 L1311.99 1550.12 L1306.16 1550.12 M1317.84 1547.71 L1317.84 1568.04 L1311.99 1568.04 L1311.99 1562.63 Q1309.98 1565.88 1306.99 1567.44 Q1304 1568.97 1299.67 1568.97 Q1294.2 1568.97 1290.95 1565.91 Q1287.73 1562.82 1287.73 1557.67 Q1287.73 1551.65 1291.75 1548.6 Q1295.79 1545.54 1303.78 1545.54 L1311.99 1545.54 L1311.99 1544.97 Q1311.99 1540.93 1309.31 1538.73 Q1306.67 1536.5 1301.87 1536.5 Q1298.81 1536.5 1295.91 1537.23 Q1293.02 1537.97 1290.34 1539.43 L1290.34 1534.02 Q1293.56 1532.78 1296.58 1532.17 Q1299.61 1531.54 1302.47 1531.54 Q1310.21 1531.54 1314.03 1535.55 Q1317.84 1539.56 1317.84 1547.71 Z" fill="#000000" fill-rule="nonzero" fill-opacity="1" /><path clip-path="url(#clip910)" d="M1357.66 1539.24 Q1359.86 1535.29 1362.91 1533.41 Q1365.97 1531.54 1370.11 1531.54 Q1375.68 1531.54 1378.7 1535.45 Q1381.72 1539.33 1381.72 1546.53 L1381.72 1568.04 L1375.84 1568.04 L1375.84 1546.72 Q1375.84 1541.59 1374.02 1539.11 Q1372.21 1536.63 1368.48 1536.63 Q1363.93 1536.63 1361.29 1539.65 Q1358.65 1542.68 1358.65 1547.9 L1358.65 1568.04 L1352.76 1568.04 L1352.76 1546.72 Q1352.76 1541.56 1350.95 1539.11 Q1349.13 1536.63 1345.34 1536.63 Q1340.86 1536.63 1338.21 1539.68 Q1335.57 1542.71 1335.57 1547.9 L1335.57 1568.04 L1329.68 1568.04 L1329.68 1532.4 L1335.57 1532.4 L1335.57 1537.93 Q1337.58 1534.66 1340.38 1533.1 Q1343.18 1531.54 1347.03 1531.54 Q1350.91 1531.54 1353.62 1533.51 Q1356.36 1535.48 1357.66 1539.24 Z" fill="#000000" fill-rule="nonzero" fill-opacity="1" /><path clip-path="url(#clip910)" d="M1423.9 1548.76 L1423.9 1551.62 L1396.97 1551.62 Q1397.35 1557.67 1400.6 1560.85 Q1403.88 1564 1409.7 1564 Q1413.08 1564 1416.23 1563.17 Q1419.41 1562.35 1422.53 1560.69 L1422.53 1566.23 Q1419.38 1567.57 1416.07 1568.27 Q1412.76 1568.97 1409.35 1568.97 Q1400.82 1568.97 1395.82 1564 Q1390.86 1559.04 1390.86 1550.57 Q1390.86 1541.82 1395.57 1536.69 Q1400.31 1531.54 1408.33 1531.54 Q1415.53 1531.54 1419.7 1536.18 Q1423.9 1540.8 1423.9 1548.76 M1418.04 1547.04 Q1417.98 1542.23 1415.34 1539.37 Q1412.73 1536.5 1408.4 1536.5 Q1403.5 1536.5 1400.54 1539.27 Q1397.61 1542.04 1397.16 1547.07 L1418.04 1547.04 Z" fill="#000000" fill-rule="nonzero" fill-opacity="1" /><path clip-path="url(#clip910)" d="M1439.3 1522.27 L1439.3 1532.4 L1451.37 1532.4 L1451.37 1536.95 L1439.3 1536.95 L1439.3 1556.3 Q1439.3 1560.66 1440.48 1561.9 Q1441.69 1563.14 1445.35 1563.14 L1451.37 1563.14 L1451.37 1568.04 L1445.35 1568.04 Q1438.57 1568.04 1435.99 1565.53 Q1433.41 1562.98 1433.41 1556.3 L1433.41 1536.95 L1429.12 1536.95 L1429.12 1532.4 L1433.41 1532.4 L1433.41 1522.27 L1439.3 1522.27 Z" fill="#000000" fill-rule="nonzero" fill-opacity="1" /><path clip-path="url(#clip910)" d="M1489.56 1548.76 L1489.56 1551.62 L1462.63 1551.62 Q1463.01 1557.67 1466.26 1560.85 Q1469.54 1564 1475.36 1564 Q1478.74 1564 1481.89 1563.17 Q1485.07 1562.35 1488.19 1560.69 L1488.19 1566.23 Q1485.04 1567.57 1481.73 1568.27 Q1478.42 1568.97 1475.01 1568.97 Q1466.48 1568.97 1461.49 1564 Q1456.52 1559.04 1456.52 1550.57 Q1456.52 1541.82 1461.23 1536.69 Q1465.97 1531.54 1474 1531.54 Q1481.19 1531.54 1485.36 1536.18 Q1489.56 1540.8 1489.56 1548.76 M1483.7 1547.04 Q1483.64 1542.23 1481 1539.37 Q1478.39 1536.5 1474.06 1536.5 Q1469.16 1536.5 1466.2 1539.27 Q1463.27 1542.04 1462.82 1547.07 L1483.7 1547.04 Z" fill="#000000" fill-rule="nonzero" fill-opacity="1" /><path clip-path="url(#clip910)" d="M1519.83 1537.87 Q1518.84 1537.3 1517.66 1537.04 Q1516.52 1536.76 1515.12 1536.76 Q1510.15 1536.76 1507.48 1540 Q1504.84 1543.22 1504.84 1549.27 L1504.84 1568.04 L1498.95 1568.04 L1498.95 1532.4 L1504.84 1532.4 L1504.84 1537.93 Q1506.68 1534.69 1509.64 1533.13 Q1512.6 1531.54 1516.84 1531.54 Q1517.44 1531.54 1518.17 1531.63 Q1518.91 1531.7 1519.8 1531.85 L1519.83 1537.87 Z" fill="#000000" fill-rule="nonzero" fill-opacity="1" /><path clip-path="url(#clip910)" d="M1562.89 1550.12 Q1555.79 1550.12 1553.06 1551.75 Q1550.32 1553.37 1550.32 1557.29 Q1550.32 1560.4 1552.36 1562.25 Q1554.43 1564.07 1557.96 1564.07 Q1562.83 1564.07 1565.76 1560.63 Q1568.72 1557.16 1568.72 1551.43 L1568.72 1550.12 L1562.89 1550.12 M1574.57 1547.71 L1574.57 1568.04 L1568.72 1568.04 L1568.72 1562.63 Q1566.71 1565.88 1563.72 1567.44 Q1560.73 1568.97 1556.4 1568.97 Q1550.92 1568.97 1547.68 1565.91 Q1544.46 1562.82 1544.46 1557.67 Q1544.46 1551.65 1548.47 1548.6 Q1552.52 1545.54 1560.51 1545.54 L1568.72 1545.54 L1568.72 1544.97 Q1568.72 1540.93 1566.04 1538.73 Q1563.4 1536.5 1558.6 1536.5 Q1555.54 1536.5 1552.64 1537.23 Q1549.75 1537.97 1547.07 1539.43 L1547.07 1534.02 Q1550.29 1532.78 1553.31 1532.17 Q1556.34 1531.54 1559.2 1531.54 Q1566.93 1531.54 1570.75 1535.55 Q1574.57 1539.56 1574.57 1547.71 Z" fill="#000000" fill-rule="nonzero" fill-opacity="1" /><path clip-path="url(#clip910)" d="M1621.43 1518.58 Q1617.16 1525.9 1615.09 1533.06 Q1613.02 1540.23 1613.02 1547.58 Q1613.02 1554.93 1615.09 1562.16 Q1617.19 1569.35 1621.43 1576.64 L1616.33 1576.64 Q1611.56 1569.16 1609.17 1561.93 Q1606.82 1554.71 1606.82 1547.58 Q1606.82 1540.48 1609.17 1533.29 Q1611.53 1526.09 1616.33 1518.58 L1621.43 1518.58 Z" fill="#000000" fill-rule="nonzero" fill-opacity="1" /><path clip-path="url(#clip910)" d="M1648.99 1550.12 Q1641.89 1550.12 1639.15 1551.75 Q1636.42 1553.37 1636.42 1557.29 Q1636.42 1560.4 1638.45 1562.25 Q1640.52 1564.07 1644.06 1564.07 Q1648.92 1564.07 1651.85 1560.63 Q1654.81 1557.16 1654.81 1551.43 L1654.81 1550.12 L1648.99 1550.12 M1660.67 1547.71 L1660.67 1568.04 L1654.81 1568.04 L1654.81 1562.63 Q1652.81 1565.88 1649.82 1567.44 Q1646.82 1568.97 1642.5 1568.97 Q1637.02 1568.97 1633.77 1565.91 Q1630.56 1562.82 1630.56 1557.67 Q1630.56 1551.65 1634.57 1548.6 Q1638.61 1545.54 1646.6 1545.54 L1654.81 1545.54 L1654.81 1544.97 Q1654.81 1540.93 1652.14 1538.73 Q1649.5 1536.5 1644.69 1536.5 Q1641.64 1536.5 1638.74 1537.23 Q1635.84 1537.97 1633.17 1539.43 L1633.17 1534.02 Q1636.38 1532.78 1639.41 1532.17 Q1642.43 1531.54 1645.3 1531.54 Q1653.03 1531.54 1656.85 1535.55 Q1660.67 1539.56 1660.67 1547.71 Z" fill="#000000" fill-rule="nonzero" fill-opacity="1" /><path clip-path="url(#clip910)" d="M1684.73 1546.5 Q1683.14 1543.76 1679.93 1543.76 Q1676.71 1543.76 1675.12 1546.5 Q1673.5 1549.23 1673.5 1554.71 Q1673.5 1560.21 1675.12 1562.95 Q1676.71 1565.69 1679.93 1565.69 Q1683.14 1565.69 1684.73 1562.95 Q1686.36 1560.21 1686.36 1554.71 Q1686.36 1549.23 1684.73 1546.5 M1679.93 1540.93 Q1685.05 1540.93 1687.76 1544.46 Q1690.46 1547.99 1690.46 1554.71 Q1690.46 1561.46 1687.76 1564.99 Q1685.05 1568.52 1679.93 1568.52 Q1674.77 1568.52 1672.06 1564.99 Q1669.36 1561.46 1669.36 1554.71 Q1669.36 1547.99 1672.06 1544.46 Q1674.77 1540.93 1679.93 1540.93 Z" fill="#000000" fill-rule="nonzero" fill-opacity="1" /><path clip-path="url(#clip910)" d="M1697.94 1518.58 L1703.03 1518.58 Q1707.81 1526.09 1710.16 1533.29 Q1712.55 1540.48 1712.55 1547.58 Q1712.55 1554.71 1710.16 1561.93 Q1707.81 1569.16 1703.03 1576.64 L1697.94 1576.64 Q1702.17 1569.35 1704.24 1562.16 Q1706.34 1554.93 1706.34 1547.58 Q1706.34 1540.23 1704.24 1533.06 Q1702.17 1525.9 1697.94 1518.58 Z" fill="#000000" fill-rule="nonzero" fill-opacity="1" /><polyline clip-path="url(#clip910)" style="stroke:#000000; stroke-linecap:round; stroke-linejoin:round; stroke-width:4; stroke-opacity:1; fill:none" points="317.69,1423.18 317.69,47.2441 "/>
<polyline clip-path="url(#clip910)" style="stroke:#000000; stroke-linecap:round; stroke-linejoin:round; stroke-width:4; stroke-opacity:1; fill:none" points="317.69,1254.9 336.587,1254.9 "/>
<polyline clip-path="url(#clip910)" style="stroke:#000000; stroke-linecap:round; stroke-linejoin:round; stroke-width:4; stroke-opacity:1; fill:none" points="317.69,1023.07 336.587,1023.07 "/>
<polyline clip-path="url(#clip910)" style="stroke:#000000; stroke-linecap:round; stroke-linejoin:round; stroke-width:4; stroke-opacity:1; fill:none" points="317.69,791.233 336.587,791.233 "/>
<polyline clip-path="url(#clip910)" style="stroke:#000000; stroke-linecap:round; stroke-linejoin:round; stroke-width:4; stroke-opacity:1; fill:none" points="317.69,559.399 336.587,559.399 "/>
<polyline clip-path="url(#clip910)" style="stroke:#000000; stroke-linecap:round; stroke-linejoin:round; stroke-width:4; stroke-opacity:1; fill:none" points="317.69,327.565 336.587,327.565 "/>
<polyline clip-path="url(#clip910)" style="stroke:#000000; stroke-linecap:round; stroke-linejoin:round; stroke-width:4; stroke-opacity:1; fill:none" points="317.69,95.7314 336.587,95.7314 "/>
<path clip-path="url(#clip910)" d="M115.649 1255.35 L145.325 1255.35 L145.325 1259.29 L115.649 1259.29 L115.649 1255.35 Z" fill="#000000" fill-rule="nonzero" fill-opacity="1" /><path clip-path="url(#clip910)" d="M154.237 1237.62 L176.459 1237.62 L176.459 1239.61 L163.913 1272.18 L159.028 1272.18 L170.834 1241.56 L154.237 1241.56 L154.237 1237.62 Z" fill="#000000" fill-rule="nonzero" fill-opacity="1" /><path clip-path="url(#clip910)" d="M185.579 1266.3 L190.463 1266.3 L190.463 1272.18 L185.579 1272.18 L185.579 1266.3 Z" fill="#000000" fill-rule="nonzero" fill-opacity="1" /><path clip-path="url(#clip910)" d="M210.649 1255.77 Q207.315 1255.77 205.394 1257.55 Q203.496 1259.33 203.496 1262.46 Q203.496 1265.58 205.394 1267.37 Q207.315 1269.15 210.649 1269.15 Q213.982 1269.15 215.903 1267.37 Q217.824 1265.56 217.824 1262.46 Q217.824 1259.33 215.903 1257.55 Q214.005 1255.77 210.649 1255.77 M205.973 1253.78 Q202.963 1253.04 201.274 1250.98 Q199.607 1248.92 199.607 1245.95 Q199.607 1241.81 202.547 1239.4 Q205.51 1237 210.649 1237 Q215.811 1237 218.75 1239.4 Q221.69 1241.81 221.69 1245.95 Q221.69 1248.92 220 1250.98 Q218.334 1253.04 215.348 1253.78 Q218.727 1254.56 220.602 1256.86 Q222.5 1259.15 222.5 1262.46 Q222.5 1267.48 219.422 1270.17 Q216.366 1272.85 210.649 1272.85 Q204.931 1272.85 201.852 1270.17 Q198.797 1267.48 198.797 1262.46 Q198.797 1259.15 200.695 1256.86 Q202.593 1254.56 205.973 1253.78 M204.26 1246.39 Q204.26 1249.08 205.926 1250.58 Q207.616 1252.09 210.649 1252.09 Q213.658 1252.09 215.348 1250.58 Q217.061 1249.08 217.061 1246.39 Q217.061 1243.71 215.348 1242.2 Q213.658 1240.7 210.649 1240.7 Q207.616 1240.7 205.926 1242.2 Q204.26 1243.71 204.26 1246.39 Z" fill="#000000" fill-rule="nonzero" fill-opacity="1" /><path clip-path="url(#clip910)" d="M229.63 1237.62 L251.852 1237.62 L251.852 1239.61 L239.306 1272.18 L234.422 1272.18 L246.227 1241.56 L229.63 1241.56 L229.63 1237.62 Z" fill="#000000" fill-rule="nonzero" fill-opacity="1" /><path clip-path="url(#clip910)" d="M261.783 1268.25 L269.421 1268.25 L269.421 1241.88 L261.111 1243.55 L261.111 1239.29 L269.375 1237.62 L274.051 1237.62 L274.051 1268.25 L281.69 1268.25 L281.69 1272.18 L261.783 1272.18 L261.783 1268.25 Z" fill="#000000" fill-rule="nonzero" fill-opacity="1" /><path clip-path="url(#clip910)" d="M114.422 1023.52 L144.098 1023.52 L144.098 1027.45 L114.422 1027.45 L114.422 1023.52 Z" fill="#000000" fill-rule="nonzero" fill-opacity="1" /><path clip-path="url(#clip910)" d="M153.01 1005.79 L175.232 1005.79 L175.232 1007.78 L162.686 1040.35 L157.802 1040.35 L169.607 1009.72 L153.01 1009.72 L153.01 1005.79 Z" fill="#000000" fill-rule="nonzero" fill-opacity="1" /><path clip-path="url(#clip910)" d="M184.352 1034.47 L189.237 1034.47 L189.237 1040.35 L184.352 1040.35 L184.352 1034.47 Z" fill="#000000" fill-rule="nonzero" fill-opacity="1" /><path clip-path="url(#clip910)" d="M209.422 1023.93 Q206.088 1023.93 204.167 1025.72 Q202.269 1027.5 202.269 1030.62 Q202.269 1033.75 204.167 1035.53 Q206.088 1037.31 209.422 1037.31 Q212.755 1037.31 214.676 1035.53 Q216.598 1033.73 216.598 1030.62 Q216.598 1027.5 214.676 1025.72 Q212.778 1023.93 209.422 1023.93 M204.746 1021.94 Q201.737 1021.2 200.047 1019.14 Q198.38 1017.08 198.38 1014.12 Q198.38 1009.98 201.32 1007.57 Q204.283 1005.16 209.422 1005.16 Q214.584 1005.16 217.523 1007.57 Q220.463 1009.98 220.463 1014.12 Q220.463 1017.08 218.773 1019.14 Q217.107 1021.2 214.121 1021.94 Q217.5 1022.73 219.375 1025.02 Q221.273 1027.31 221.273 1030.62 Q221.273 1035.65 218.195 1038.33 Q215.139 1041.02 209.422 1041.02 Q203.704 1041.02 200.625 1038.33 Q197.57 1035.65 197.57 1030.62 Q197.57 1027.31 199.468 1025.02 Q201.366 1022.73 204.746 1021.94 M203.033 1014.56 Q203.033 1017.24 204.699 1018.75 Q206.389 1020.25 209.422 1020.25 Q212.431 1020.25 214.121 1018.75 Q215.834 1017.24 215.834 1014.56 Q215.834 1011.87 214.121 1010.37 Q212.431 1008.87 209.422 1008.87 Q206.389 1008.87 204.699 1010.37 Q203.033 1011.87 203.033 1014.56 Z" fill="#000000" fill-rule="nonzero" fill-opacity="1" /><path clip-path="url(#clip910)" d="M228.403 1005.79 L250.625 1005.79 L250.625 1007.78 L238.079 1040.35 L233.195 1040.35 L245 1009.72 L228.403 1009.72 L228.403 1005.79 Z" fill="#000000" fill-rule="nonzero" fill-opacity="1" /><path clip-path="url(#clip910)" d="M269.745 1008.87 Q266.134 1008.87 264.306 1012.43 Q262.5 1015.97 262.5 1023.1 Q262.5 1030.21 264.306 1033.77 Q266.134 1037.31 269.745 1037.31 Q273.38 1037.31 275.185 1033.77 Q277.014 1030.21 277.014 1023.1 Q277.014 1015.97 275.185 1012.43 Q273.38 1008.87 269.745 1008.87 M269.745 1005.16 Q275.556 1005.16 278.611 1009.77 Q281.69 1014.35 281.69 1023.1 Q281.69 1031.83 278.611 1036.43 Q275.556 1041.02 269.745 1041.02 Q263.935 1041.02 260.857 1036.43 Q257.801 1031.83 257.801 1023.1 Q257.801 1014.35 260.857 1009.77 Q263.935 1005.16 269.745 1005.16 Z" fill="#000000" fill-rule="nonzero" fill-opacity="1" /><path clip-path="url(#clip910)" d="M114.607 791.684 L144.283 791.684 L144.283 795.619 L114.607 795.619 L114.607 791.684 Z" fill="#000000" fill-rule="nonzero" fill-opacity="1" /><path clip-path="url(#clip910)" d="M153.195 773.953 L175.417 773.953 L175.417 775.944 L162.871 808.513 L157.987 808.513 L169.792 777.888 L153.195 777.888 L153.195 773.953 Z" fill="#000000" fill-rule="nonzero" fill-opacity="1" /><path clip-path="url(#clip910)" d="M184.538 802.633 L189.422 802.633 L189.422 808.513 L184.538 808.513 L184.538 802.633 Z" fill="#000000" fill-rule="nonzero" fill-opacity="1" /><path clip-path="url(#clip910)" d="M209.607 792.101 Q206.274 792.101 204.352 793.883 Q202.454 795.666 202.454 798.791 Q202.454 801.916 204.352 803.698 Q206.274 805.48 209.607 805.48 Q212.94 805.48 214.861 803.698 Q216.783 801.892 216.783 798.791 Q216.783 795.666 214.861 793.883 Q212.963 792.101 209.607 792.101 M204.931 790.11 Q201.922 789.369 200.232 787.309 Q198.565 785.249 198.565 782.286 Q198.565 778.143 201.505 775.735 Q204.468 773.328 209.607 773.328 Q214.769 773.328 217.709 775.735 Q220.648 778.143 220.648 782.286 Q220.648 785.249 218.959 787.309 Q217.292 789.369 214.306 790.11 Q217.686 790.897 219.561 793.189 Q221.459 795.48 221.459 798.791 Q221.459 803.814 218.38 806.499 Q215.324 809.184 209.607 809.184 Q203.889 809.184 200.811 806.499 Q197.755 803.814 197.755 798.791 Q197.755 795.48 199.653 793.189 Q201.551 790.897 204.931 790.11 M203.218 782.726 Q203.218 785.411 204.885 786.916 Q206.574 788.42 209.607 788.42 Q212.616 788.42 214.306 786.916 Q216.019 785.411 216.019 782.726 Q216.019 780.041 214.306 778.536 Q212.616 777.031 209.607 777.031 Q206.574 777.031 204.885 778.536 Q203.218 780.041 203.218 782.726 Z" fill="#000000" fill-rule="nonzero" fill-opacity="1" /><path clip-path="url(#clip910)" d="M240.347 789.369 Q237.199 789.369 235.347 791.522 Q233.519 793.675 233.519 797.425 Q233.519 801.152 235.347 803.328 Q237.199 805.48 240.347 805.48 Q243.496 805.48 245.324 803.328 Q247.176 801.152 247.176 797.425 Q247.176 793.675 245.324 791.522 Q243.496 789.369 240.347 789.369 M249.63 774.717 L249.63 778.976 Q247.871 778.143 246.065 777.703 Q244.283 777.263 242.523 777.263 Q237.894 777.263 235.44 780.388 Q233.01 783.513 232.662 789.832 Q234.028 787.818 236.088 786.754 Q238.148 785.666 240.625 785.666 Q245.834 785.666 248.843 788.837 Q251.875 791.985 251.875 797.425 Q251.875 802.749 248.727 805.967 Q245.579 809.184 240.347 809.184 Q234.352 809.184 231.181 804.601 Q228.01 799.994 228.01 791.268 Q228.01 783.073 231.898 778.212 Q235.787 773.328 242.338 773.328 Q244.097 773.328 245.88 773.675 Q247.685 774.022 249.63 774.717 Z" fill="#000000" fill-rule="nonzero" fill-opacity="1" /><path clip-path="url(#clip910)" d="M260.07 807.795 L260.07 803.536 Q261.829 804.369 263.634 804.809 Q265.44 805.249 267.176 805.249 Q271.806 805.249 274.236 802.147 Q276.69 799.022 277.037 792.68 Q275.694 794.67 273.634 795.735 Q271.574 796.8 269.074 796.8 Q263.889 796.8 260.857 793.675 Q257.847 790.527 257.847 785.087 Q257.847 779.763 260.995 776.545 Q264.144 773.328 269.375 773.328 Q275.37 773.328 278.519 777.934 Q281.69 782.518 281.69 791.268 Q281.69 799.439 277.801 804.323 Q273.935 809.184 267.384 809.184 Q265.625 809.184 263.82 808.837 Q262.014 808.49 260.07 807.795 M269.375 793.143 Q272.523 793.143 274.352 790.99 Q276.204 788.837 276.204 785.087 Q276.204 781.36 274.352 779.207 Q272.523 777.031 269.375 777.031 Q266.227 777.031 264.375 779.207 Q262.546 781.36 262.546 785.087 Q262.546 788.837 264.375 790.99 Q266.227 793.143 269.375 793.143 Z" fill="#000000" fill-rule="nonzero" fill-opacity="1" /><path clip-path="url(#clip910)" d="M114.515 559.85 L144.191 559.85 L144.191 563.786 L114.515 563.786 L114.515 559.85 Z" fill="#000000" fill-rule="nonzero" fill-opacity="1" /><path clip-path="url(#clip910)" d="M153.103 542.119 L175.325 542.119 L175.325 544.11 L162.778 576.679 L157.894 576.679 L169.7 546.054 L153.103 546.054 L153.103 542.119 Z" fill="#000000" fill-rule="nonzero" fill-opacity="1" /><path clip-path="url(#clip910)" d="M184.445 570.799 L189.329 570.799 L189.329 576.679 L184.445 576.679 L184.445 570.799 Z" fill="#000000" fill-rule="nonzero" fill-opacity="1" /><path clip-path="url(#clip910)" d="M209.514 560.267 Q206.181 560.267 204.26 562.049 Q202.362 563.832 202.362 566.957 Q202.362 570.082 204.26 571.864 Q206.181 573.647 209.514 573.647 Q212.848 573.647 214.769 571.864 Q216.69 570.059 216.69 566.957 Q216.69 563.832 214.769 562.049 Q212.871 560.267 209.514 560.267 M204.838 558.276 Q201.829 557.536 200.139 555.475 Q198.473 553.415 198.473 550.452 Q198.473 546.309 201.412 543.901 Q204.375 541.494 209.514 541.494 Q214.676 541.494 217.616 543.901 Q220.556 546.309 220.556 550.452 Q220.556 553.415 218.866 555.475 Q217.199 557.536 214.213 558.276 Q217.593 559.063 219.468 561.355 Q221.366 563.647 221.366 566.957 Q221.366 571.98 218.287 574.665 Q215.232 577.35 209.514 577.35 Q203.797 577.35 200.718 574.665 Q197.662 571.98 197.662 566.957 Q197.662 563.647 199.561 561.355 Q201.459 559.063 204.838 558.276 M203.125 550.892 Q203.125 553.577 204.792 555.082 Q206.482 556.587 209.514 556.587 Q212.524 556.587 214.213 555.082 Q215.926 553.577 215.926 550.892 Q215.926 548.207 214.213 546.702 Q212.524 545.198 209.514 545.198 Q206.482 545.198 204.792 546.702 Q203.125 548.207 203.125 550.892 Z" fill="#000000" fill-rule="nonzero" fill-opacity="1" /><path clip-path="url(#clip910)" d="M240.255 557.536 Q237.107 557.536 235.255 559.688 Q233.426 561.841 233.426 565.591 Q233.426 569.318 235.255 571.494 Q237.107 573.647 240.255 573.647 Q243.403 573.647 245.232 571.494 Q247.084 569.318 247.084 565.591 Q247.084 561.841 245.232 559.688 Q243.403 557.536 240.255 557.536 M249.537 542.883 L249.537 547.142 Q247.778 546.309 245.972 545.869 Q244.19 545.429 242.431 545.429 Q237.801 545.429 235.347 548.554 Q232.917 551.679 232.57 557.999 Q233.935 555.985 235.996 554.92 Q238.056 553.832 240.533 553.832 Q245.741 553.832 248.75 557.003 Q251.783 560.151 251.783 565.591 Q251.783 570.915 248.634 574.133 Q245.486 577.35 240.255 577.35 Q234.26 577.35 231.088 572.767 Q227.917 568.161 227.917 559.434 Q227.917 551.239 231.806 546.378 Q235.695 541.494 242.246 541.494 Q244.005 541.494 245.787 541.841 Q247.593 542.188 249.537 542.883 Z" fill="#000000" fill-rule="nonzero" fill-opacity="1" /><path clip-path="url(#clip910)" d="M269.838 560.267 Q266.505 560.267 264.583 562.049 Q262.685 563.832 262.685 566.957 Q262.685 570.082 264.583 571.864 Q266.505 573.647 269.838 573.647 Q273.171 573.647 275.093 571.864 Q277.014 570.059 277.014 566.957 Q277.014 563.832 275.093 562.049 Q273.194 560.267 269.838 560.267 M265.162 558.276 Q262.153 557.536 260.463 555.475 Q258.796 553.415 258.796 550.452 Q258.796 546.309 261.736 543.901 Q264.699 541.494 269.838 541.494 Q275 541.494 277.94 543.901 Q280.88 546.309 280.88 550.452 Q280.88 553.415 279.19 555.475 Q277.523 557.536 274.537 558.276 Q277.917 559.063 279.792 561.355 Q281.69 563.647 281.69 566.957 Q281.69 571.98 278.611 574.665 Q275.556 577.35 269.838 577.35 Q264.12 577.35 261.042 574.665 Q257.986 571.98 257.986 566.957 Q257.986 563.647 259.884 561.355 Q261.783 559.063 265.162 558.276 M263.449 550.892 Q263.449 553.577 265.116 555.082 Q266.806 556.587 269.838 556.587 Q272.847 556.587 274.537 555.082 Q276.25 553.577 276.25 550.892 Q276.25 548.207 274.537 546.702 Q272.847 545.198 269.838 545.198 Q266.806 545.198 265.116 546.702 Q263.449 548.207 263.449 550.892 Z" fill="#000000" fill-rule="nonzero" fill-opacity="1" /><path clip-path="url(#clip910)" d="M115.325 328.017 L145.001 328.017 L145.001 331.952 L115.325 331.952 L115.325 328.017 Z" fill="#000000" fill-rule="nonzero" fill-opacity="1" /><path clip-path="url(#clip910)" d="M153.913 310.285 L176.135 310.285 L176.135 312.276 L163.589 344.845 L158.704 344.845 L170.51 314.22 L153.913 314.22 L153.913 310.285 Z" fill="#000000" fill-rule="nonzero" fill-opacity="1" /><path clip-path="url(#clip910)" d="M185.255 338.966 L190.139 338.966 L190.139 344.845 L185.255 344.845 L185.255 338.966 Z" fill="#000000" fill-rule="nonzero" fill-opacity="1" /><path clip-path="url(#clip910)" d="M210.324 328.433 Q206.991 328.433 205.07 330.216 Q203.172 331.998 203.172 335.123 Q203.172 338.248 205.07 340.03 Q206.991 341.813 210.324 341.813 Q213.658 341.813 215.579 340.03 Q217.5 338.225 217.5 335.123 Q217.5 331.998 215.579 330.216 Q213.681 328.433 210.324 328.433 M205.649 326.443 Q202.639 325.702 200.95 323.642 Q199.283 321.581 199.283 318.618 Q199.283 314.475 202.223 312.068 Q205.186 309.66 210.324 309.66 Q215.486 309.66 218.426 312.068 Q221.366 314.475 221.366 318.618 Q221.366 321.581 219.676 323.642 Q218.01 325.702 215.024 326.443 Q218.403 327.23 220.278 329.521 Q222.176 331.813 222.176 335.123 Q222.176 340.146 219.098 342.831 Q216.042 345.516 210.324 345.516 Q204.607 345.516 201.528 342.831 Q198.473 340.146 198.473 335.123 Q198.473 331.813 200.371 329.521 Q202.269 327.23 205.649 326.443 M203.936 319.058 Q203.936 321.743 205.602 323.248 Q207.292 324.753 210.324 324.753 Q213.334 324.753 215.024 323.248 Q216.736 321.743 216.736 319.058 Q216.736 316.373 215.024 314.869 Q213.334 313.364 210.324 313.364 Q207.292 313.364 205.602 314.869 Q203.936 316.373 203.936 319.058 Z" fill="#000000" fill-rule="nonzero" fill-opacity="1" /><path clip-path="url(#clip910)" d="M241.065 325.702 Q237.917 325.702 236.065 327.855 Q234.236 330.007 234.236 333.757 Q234.236 337.484 236.065 339.66 Q237.917 341.813 241.065 341.813 Q244.213 341.813 246.042 339.66 Q247.894 337.484 247.894 333.757 Q247.894 330.007 246.042 327.855 Q244.213 325.702 241.065 325.702 M250.347 311.049 L250.347 315.308 Q248.588 314.475 246.783 314.035 Q245 313.595 243.241 313.595 Q238.611 313.595 236.158 316.72 Q233.727 319.845 233.38 326.165 Q234.746 324.151 236.806 323.086 Q238.866 321.998 241.343 321.998 Q246.551 321.998 249.56 325.169 Q252.593 328.318 252.593 333.757 Q252.593 339.081 249.445 342.299 Q246.296 345.516 241.065 345.516 Q235.07 345.516 231.898 340.933 Q228.727 336.327 228.727 327.6 Q228.727 319.406 232.616 314.544 Q236.505 309.66 243.056 309.66 Q244.815 309.66 246.597 310.007 Q248.403 310.355 250.347 311.049 Z" fill="#000000" fill-rule="nonzero" fill-opacity="1" /><path clip-path="url(#clip910)" d="M259.468 310.285 L281.69 310.285 L281.69 312.276 L269.144 344.845 L264.259 344.845 L276.065 314.22 L259.468 314.22 L259.468 310.285 Z" fill="#000000" fill-rule="nonzero" fill-opacity="1" /><path clip-path="url(#clip910)" d="M114.26 96.1828 L143.936 96.1828 L143.936 100.118 L114.26 100.118 L114.26 96.1828 Z" fill="#000000" fill-rule="nonzero" fill-opacity="1" /><path clip-path="url(#clip910)" d="M152.848 78.4514 L175.07 78.4514 L175.07 80.4421 L162.524 113.011 L157.64 113.011 L169.445 82.3866 L152.848 82.3866 L152.848 78.4514 Z" fill="#000000" fill-rule="nonzero" fill-opacity="1" /><path clip-path="url(#clip910)" d="M184.19 107.132 L189.075 107.132 L189.075 113.011 L184.19 113.011 L184.19 107.132 Z" fill="#000000" fill-rule="nonzero" fill-opacity="1" /><path clip-path="url(#clip910)" d="M209.26 96.5995 Q205.926 96.5995 204.005 98.3819 Q202.107 100.164 202.107 103.289 Q202.107 106.414 204.005 108.197 Q205.926 109.979 209.26 109.979 Q212.593 109.979 214.514 108.197 Q216.436 106.391 216.436 103.289 Q216.436 100.164 214.514 98.3819 Q212.616 96.5995 209.26 96.5995 M204.584 94.6087 Q201.575 93.868 199.885 91.8078 Q198.218 89.7476 198.218 86.7847 Q198.218 82.6412 201.158 80.2338 Q204.121 77.8264 209.26 77.8264 Q214.422 77.8264 217.361 80.2338 Q220.301 82.6412 220.301 86.7847 Q220.301 89.7476 218.611 91.8078 Q216.945 93.868 213.959 94.6087 Q217.338 95.3958 219.213 97.6874 Q221.111 99.9791 221.111 103.289 Q221.111 108.312 218.033 110.998 Q214.977 113.683 209.26 113.683 Q203.542 113.683 200.463 110.998 Q197.408 108.312 197.408 103.289 Q197.408 99.9791 199.306 97.6874 Q201.204 95.3958 204.584 94.6087 M202.871 87.2245 Q202.871 89.9097 204.537 91.4143 Q206.227 92.9189 209.26 92.9189 Q212.269 92.9189 213.959 91.4143 Q215.672 89.9097 215.672 87.2245 Q215.672 84.5393 213.959 83.0347 Q212.269 81.5301 209.26 81.5301 Q206.227 81.5301 204.537 83.0347 Q202.871 84.5393 202.871 87.2245 Z" fill="#000000" fill-rule="nonzero" fill-opacity="1" /><path clip-path="url(#clip910)" d="M240 93.868 Q236.852 93.868 235 96.0208 Q233.172 98.1735 233.172 101.924 Q233.172 105.65 235 107.826 Q236.852 109.979 240 109.979 Q243.148 109.979 244.977 107.826 Q246.829 105.65 246.829 101.924 Q246.829 98.1735 244.977 96.0208 Q243.148 93.868 240 93.868 M249.283 79.2153 L249.283 83.4745 Q247.523 82.6412 245.718 82.2014 Q243.935 81.7616 242.176 81.7616 Q237.547 81.7616 235.093 84.8866 Q232.662 88.0115 232.315 94.3309 Q233.681 92.3171 235.741 91.2523 Q237.801 90.1643 240.278 90.1643 Q245.486 90.1643 248.496 93.3356 Q251.528 96.4837 251.528 101.924 Q251.528 107.248 248.38 110.465 Q245.232 113.683 240 113.683 Q234.005 113.683 230.834 109.099 Q227.662 104.493 227.662 95.7661 Q227.662 87.5717 231.551 82.7106 Q235.44 77.8264 241.991 77.8264 Q243.75 77.8264 245.533 78.1736 Q247.338 78.5208 249.283 79.2153 Z" fill="#000000" fill-rule="nonzero" fill-opacity="1" /><path clip-path="url(#clip910)" d="M270.162 93.868 Q267.014 93.868 265.162 96.0208 Q263.333 98.1735 263.333 101.924 Q263.333 105.65 265.162 107.826 Q267.014 109.979 270.162 109.979 Q273.31 109.979 275.139 107.826 Q276.991 105.65 276.991 101.924 Q276.991 98.1735 275.139 96.0208 Q273.31 93.868 270.162 93.868 M279.444 79.2153 L279.444 83.4745 Q277.685 82.6412 275.88 82.2014 Q274.097 81.7616 272.338 81.7616 Q267.708 81.7616 265.255 84.8866 Q262.824 88.0115 262.477 94.3309 Q263.843 92.3171 265.903 91.2523 Q267.963 90.1643 270.44 90.1643 Q275.648 90.1643 278.657 93.3356 Q281.69 96.4837 281.69 101.924 Q281.69 107.248 278.542 110.465 Q275.394 113.683 270.162 113.683 Q264.167 113.683 260.995 109.099 Q257.824 104.493 257.824 95.7661 Q257.824 87.5717 261.713 82.7106 Q265.602 77.8264 272.153 77.8264 Q273.912 77.8264 275.694 78.1736 Q277.5 78.5208 279.444 79.2153 Z" fill="#000000" fill-rule="nonzero" fill-opacity="1" /><path clip-path="url(#clip910)" d="M57.2247 1112.44 L44.4614 1112.44 L44.4614 1122.95 L39.1779 1122.95 L39.1779 1106.08 L59.58 1106.08 Q62.2218 1109.8 63.5904 1114.29 Q64.9272 1118.78 64.9272 1123.87 Q64.9272 1135.01 58.4342 1141.31 Q51.9093 1147.58 40.2919 1147.58 Q28.6427 1147.58 22.1496 1141.31 Q15.6248 1135.01 15.6248 1123.87 Q15.6248 1119.22 16.7706 1115.05 Q17.9164 1110.85 20.1444 1107.32 L26.9876 1107.32 Q23.9639 1110.88 22.4361 1114.89 Q20.9083 1118.9 20.9083 1123.33 Q20.9083 1132.05 25.7781 1136.44 Q30.6479 1140.8 40.2919 1140.8 Q49.9041 1140.8 54.7739 1136.44 Q59.6436 1132.05 59.6436 1123.33 Q59.6436 1119.92 59.0707 1117.25 Q58.466 1114.58 57.2247 1112.44 Z" fill="#000000" fill-rule="nonzero" fill-opacity="1" /><path clip-path="url(#clip910)" d="M33.8307 1073.93 Q33.2578 1074.92 33.0032 1076.1 Q32.7167 1077.24 32.7167 1078.64 Q32.7167 1083.61 35.9632 1086.28 Q39.1779 1088.92 45.2253 1088.92 L64.0042 1088.92 L64.0042 1094.81 L28.3562 1094.81 L28.3562 1088.92 L33.8944 1088.92 Q30.6479 1087.08 29.0883 1084.12 Q27.4968 1081.16 27.4968 1076.92 Q27.4968 1076.32 27.5923 1075.59 Q27.656 1074.85 27.8151 1073.96 L33.8307 1073.93 Z" fill="#000000" fill-rule="nonzero" fill-opacity="1" /><path clip-path="url(#clip910)" d="M32.4621 1055.41 Q32.4621 1060.12 36.1542 1062.85 Q39.8145 1065.59 46.212 1065.59 Q52.6095 1065.59 56.3017 1062.89 Q59.9619 1060.15 59.9619 1055.41 Q59.9619 1050.73 56.2698 1047.99 Q52.5777 1045.25 46.212 1045.25 Q39.8781 1045.25 36.186 1047.99 Q32.4621 1050.73 32.4621 1055.41 M27.4968 1055.41 Q27.4968 1047.77 32.4621 1043.41 Q37.4273 1039.05 46.212 1039.05 Q54.9649 1039.05 59.9619 1043.41 Q64.9272 1047.77 64.9272 1055.41 Q64.9272 1063.08 59.9619 1067.44 Q54.9649 1071.77 46.212 1071.77 Q37.4273 1071.77 32.4621 1067.44 Q27.4968 1063.08 27.4968 1055.41 Z" fill="#000000" fill-rule="nonzero" fill-opacity="1" /><path clip-path="url(#clip910)" d="M49.9359 1029.94 L28.3562 1029.94 L28.3562 1024.09 L49.7131 1024.09 Q54.7739 1024.09 57.3202 1022.11 Q59.8346 1020.14 59.8346 1016.19 Q59.8346 1011.45 56.8109 1008.71 Q53.7872 1005.95 48.5673 1005.95 L28.3562 1005.95 L28.3562 1000.09 L64.0042 1000.09 L64.0042 1005.95 L58.5296 1005.95 Q61.7762 1008.08 63.3676 1010.91 Q64.9272 1013.71 64.9272 1017.44 Q64.9272 1023.58 61.1078 1026.76 Q57.2883 1029.94 49.9359 1029.94 M27.4968 1015.21 L27.4968 1015.21 Z" fill="#000000" fill-rule="nonzero" fill-opacity="1" /><path clip-path="url(#clip910)" d="M42.4881 958.394 L64.0042 958.394 L64.0042 964.25 L42.679 964.25 Q37.6183 964.25 35.1038 966.223 Q32.5894 968.197 32.5894 972.144 Q32.5894 976.886 35.6131 979.623 Q38.6368 982.361 43.8567 982.361 L64.0042 982.361 L64.0042 988.249 L28.3562 988.249 L28.3562 982.361 L33.8944 982.361 Q30.6797 980.26 29.0883 977.427 Q27.4968 974.563 27.4968 970.839 Q27.4968 964.696 31.3163 961.545 Q35.1038 958.394 42.4881 958.394 Z" fill="#000000" fill-rule="nonzero" fill-opacity="1" /><path clip-path="url(#clip910)" d="M33.7671 923.255 L14.479 923.255 L14.479 917.398 L64.0042 917.398 L64.0042 923.255 L58.657 923.255 Q61.8398 925.101 63.3994 927.934 Q64.9272 930.735 64.9272 934.681 Q64.9272 941.143 59.771 945.217 Q54.6147 949.259 46.212 949.259 Q37.8093 949.259 32.6531 945.217 Q27.4968 941.143 27.4968 934.681 Q27.4968 930.735 29.0564 927.934 Q30.5842 925.101 33.7671 923.255 M46.212 943.211 Q52.6732 943.211 56.3653 940.57 Q60.0256 937.896 60.0256 933.249 Q60.0256 928.602 56.3653 925.929 Q52.6732 923.255 46.212 923.255 Q39.7508 923.255 36.0905 925.929 Q32.3984 928.602 32.3984 933.249 Q32.3984 937.896 36.0905 940.57 Q39.7508 943.211 46.212 943.211 Z" fill="#000000" fill-rule="nonzero" fill-opacity="1" /><path clip-path="url(#clip910)" d="M29.4065 861.89 L34.9447 861.89 Q33.6716 864.372 33.035 867.046 Q32.3984 869.719 32.3984 872.584 Q32.3984 876.944 33.7352 879.141 Q35.072 881.305 37.7456 881.305 Q39.7826 881.305 40.9603 879.745 Q42.1061 878.186 43.1565 873.475 L43.6021 871.47 Q44.9389 865.232 47.3897 862.622 Q49.8086 859.98 54.1691 859.98 Q59.1344 859.98 62.0308 863.927 Q64.9272 867.841 64.9272 874.716 Q64.9272 877.581 64.3543 880.7 Q63.8132 883.788 62.6992 887.225 L56.6518 887.225 Q58.3387 883.979 59.198 880.828 Q60.0256 877.676 60.0256 874.589 Q60.0256 870.451 58.6251 868.223 Q57.1929 865.995 54.6147 865.995 Q52.2276 865.995 50.9545 867.619 Q49.6813 869.21 48.5037 874.653 L48.0262 876.69 Q46.8804 882.132 44.5251 884.551 Q42.138 886.97 38.0002 886.97 Q32.9713 886.97 30.2341 883.406 Q27.4968 879.841 27.4968 873.284 Q27.4968 870.038 27.9743 867.173 Q28.4517 864.308 29.4065 861.89 Z" fill="#000000" fill-rule="nonzero" fill-opacity="1" /><path clip-path="url(#clip910)" d="M18.2347 844.861 L28.3562 844.861 L28.3562 832.798 L32.9077 832.798 L32.9077 844.861 L52.2594 844.861 Q56.6199 844.861 57.8613 843.684 Q59.1026 842.474 59.1026 838.814 L59.1026 832.798 L64.0042 832.798 L64.0042 838.814 Q64.0042 845.593 61.4897 848.171 Q58.9434 850.75 52.2594 850.75 L32.9077 850.75 L32.9077 855.046 L28.3562 855.046 L28.3562 850.75 L18.2347 850.75 L18.2347 844.861 Z" fill="#000000" fill-rule="nonzero" fill-opacity="1" /><path clip-path="url(#clip910)" d="M46.0847 808.895 Q46.0847 815.993 47.7079 818.73 Q49.3312 821.467 53.2461 821.467 Q56.3653 821.467 58.2114 819.43 Q60.0256 817.361 60.0256 813.828 Q60.0256 808.959 56.5881 806.03 Q53.1188 803.07 47.3897 803.07 L46.0847 803.07 L46.0847 808.895 M43.6657 797.214 L64.0042 797.214 L64.0042 803.07 L58.5933 803.07 Q61.8398 805.076 63.3994 808.067 Q64.9272 811.059 64.9272 815.388 Q64.9272 820.863 61.8716 824.109 Q58.7843 827.324 53.6281 827.324 Q47.6125 827.324 44.5569 823.313 Q41.5014 819.271 41.5014 811.282 L41.5014 803.07 L40.9285 803.07 Q36.8862 803.07 34.6901 805.744 Q32.4621 808.386 32.4621 813.192 Q32.4621 816.247 33.1941 819.144 Q33.9262 822.04 35.3903 824.714 L29.9795 824.714 Q28.7381 821.499 28.1334 818.475 Q27.4968 815.452 27.4968 812.587 Q27.4968 804.853 31.5072 801.033 Q35.5176 797.214 43.6657 797.214 Z" fill="#000000" fill-rule="nonzero" fill-opacity="1" /><path clip-path="url(#clip910)" d="M18.2347 779.358 L28.3562 779.358 L28.3562 767.295 L32.9077 767.295 L32.9077 779.358 L52.2594 779.358 Q56.6199 779.358 57.8613 778.18 Q59.1026 776.971 59.1026 773.311 L59.1026 767.295 L64.0042 767.295 L64.0042 773.311 Q64.0042 780.09 61.4897 782.668 Q58.9434 785.246 52.2594 785.246 L32.9077 785.246 L32.9077 789.543 L28.3562 789.543 L28.3562 785.246 L18.2347 785.246 L18.2347 779.358 Z" fill="#000000" fill-rule="nonzero" fill-opacity="1" /><path clip-path="url(#clip910)" d="M44.7161 729.101 L47.5806 729.101 L47.5806 756.028 Q53.6281 755.646 56.8109 752.399 Q59.9619 749.121 59.9619 743.296 Q59.9619 739.923 59.1344 736.772 Q58.3069 733.589 56.6518 730.47 L62.1899 730.47 Q63.5267 733.621 64.227 736.931 Q64.9272 740.241 64.9272 743.647 Q64.9272 752.177 59.9619 757.174 Q54.9967 762.139 46.5303 762.139 Q37.7774 762.139 32.6531 757.428 Q27.4968 752.686 27.4968 744.665 Q27.4968 737.472 32.1438 733.302 Q36.7589 729.101 44.7161 729.101 M42.9973 734.957 Q38.1912 735.021 35.3266 737.663 Q32.4621 740.273 32.4621 744.601 Q32.4621 749.503 35.2312 752.463 Q38.0002 755.391 43.0292 755.837 L42.9973 734.957 Z" fill="#000000" fill-rule="nonzero" fill-opacity="1" /><path clip-path="url(#clip910)" d="M44.7161 668.277 L47.5806 668.277 L47.5806 695.204 Q53.6281 694.822 56.8109 691.575 Q59.9619 688.297 59.9619 682.472 Q59.9619 679.098 59.1344 675.947 Q58.3069 672.764 56.6518 669.645 L62.1899 669.645 Q63.5267 672.796 64.227 676.106 Q64.9272 679.417 64.9272 682.822 Q64.9272 691.352 59.9619 696.349 Q54.9967 701.315 46.5303 701.315 Q37.7774 701.315 32.6531 696.604 Q27.4968 691.862 27.4968 683.841 Q27.4968 676.647 32.1438 672.478 Q36.7589 668.277 44.7161 668.277 M42.9973 674.133 Q38.1912 674.197 35.3266 676.838 Q32.4621 679.448 32.4621 683.777 Q32.4621 688.679 35.2312 691.639 Q38.0002 694.567 43.0292 695.013 L42.9973 674.133 Z" fill="#000000" fill-rule="nonzero" fill-opacity="1" /><path clip-path="url(#clip910)" d="M42.4881 629.032 L64.0042 629.032 L64.0042 634.888 L42.679 634.888 Q37.6183 634.888 35.1038 636.862 Q32.5894 638.835 32.5894 642.782 Q32.5894 647.524 35.6131 650.262 Q38.6368 652.999 43.8567 652.999 L64.0042 652.999 L64.0042 658.887 L28.3562 658.887 L28.3562 652.999 L33.8944 652.999 Q30.6797 650.898 29.0883 648.065 Q27.4968 645.201 27.4968 641.477 Q27.4968 635.334 31.3163 632.183 Q35.1038 629.032 42.4881 629.032 Z" fill="#000000" fill-rule="nonzero" fill-opacity="1" /><path clip-path="url(#clip910)" d="M44.7161 586.859 L47.5806 586.859 L47.5806 613.786 Q53.6281 613.404 56.8109 610.158 Q59.9619 606.879 59.9619 601.055 Q59.9619 597.681 59.1344 594.53 Q58.3069 591.347 56.6518 588.228 L62.1899 588.228 Q63.5267 591.379 64.227 594.689 Q64.9272 597.999 64.9272 601.405 Q64.9272 609.935 59.9619 614.932 Q54.9967 619.897 46.5303 619.897 Q37.7774 619.897 32.6531 615.187 Q27.4968 610.444 27.4968 602.423 Q27.4968 595.23 32.1438 591.061 Q36.7589 586.859 44.7161 586.859 M42.9973 592.716 Q38.1912 592.779 35.3266 595.421 Q32.4621 598.031 32.4621 602.36 Q32.4621 607.261 35.2312 610.221 Q38.0002 613.15 43.0292 613.595 L42.9973 592.716 Z" fill="#000000" fill-rule="nonzero" fill-opacity="1" /><path clip-path="url(#clip910)" d="M33.8307 556.59 Q33.2578 557.577 33.0032 558.755 Q32.7167 559.9 32.7167 561.301 Q32.7167 566.266 35.9632 568.94 Q39.1779 571.581 45.2253 571.581 L64.0042 571.581 L64.0042 577.47 L28.3562 577.47 L28.3562 571.581 L33.8944 571.581 Q30.6479 569.735 29.0883 566.775 Q27.4968 563.815 27.4968 559.582 Q27.4968 558.977 27.5923 558.245 Q27.656 557.513 27.8151 556.622 L33.8307 556.59 Z" fill="#000000" fill-rule="nonzero" fill-opacity="1" /><path clip-path="url(#clip910)" d="M45.7664 528.136 Q39.4007 528.136 35.8996 530.777 Q32.3984 533.387 32.3984 538.13 Q32.3984 542.84 35.8996 545.482 Q39.4007 548.092 45.7664 548.092 Q52.1003 548.092 55.6014 545.482 Q59.1026 542.84 59.1026 538.13 Q59.1026 533.387 55.6014 530.777 Q52.1003 528.136 45.7664 528.136 M59.58 522.279 Q68.683 522.279 73.1071 526.321 Q77.5631 530.364 77.5631 538.703 Q77.5631 541.79 77.0857 544.527 Q76.6401 547.264 75.6852 549.843 L69.9879 549.843 Q71.3884 547.264 72.0568 544.75 Q72.7252 542.236 72.7252 539.626 Q72.7252 533.865 69.7015 531 Q66.7096 528.136 60.6303 528.136 L57.7339 528.136 Q60.885 529.95 62.4446 532.782 Q64.0042 535.615 64.0042 539.562 Q64.0042 546.119 59.0071 550.129 Q54.01 554.139 45.7664 554.139 Q37.491 554.139 32.4939 550.129 Q27.4968 546.119 27.4968 539.562 Q27.4968 535.615 29.0564 532.782 Q30.616 529.95 33.7671 528.136 L28.3562 528.136 L28.3562 522.279 L59.58 522.279 Z" fill="#000000" fill-rule="nonzero" fill-opacity="1" /><path clip-path="url(#clip910)" d="M67.3143 495.384 Q73.68 497.867 75.6216 500.222 Q77.5631 502.577 77.5631 506.524 L77.5631 511.203 L72.6615 511.203 L72.6615 507.765 Q72.6615 505.346 71.5157 504.01 Q70.3699 502.673 66.1048 501.049 L63.4312 499.999 L28.3562 514.417 L28.3562 508.211 L56.238 497.071 L28.3562 485.931 L28.3562 479.724 L67.3143 495.384 Z" fill="#000000" fill-rule="nonzero" fill-opacity="1" /><path clip-path="url(#clip910)" d="M14.5426 436.851 Q21.8632 441.116 29.0246 443.185 Q36.186 445.254 43.5384 445.254 Q50.8908 445.254 58.1159 443.185 Q65.3091 441.084 72.5979 436.851 L72.5979 441.944 Q65.1182 446.718 57.8931 449.105 Q50.668 451.461 43.5384 451.461 Q36.4406 451.461 29.2474 449.105 Q22.0542 446.75 14.5426 441.944 L14.5426 436.851 Z" fill="#000000" fill-rule="nonzero" fill-opacity="1" /><path clip-path="url(#clip910)" d="M16.4842 425.234 L16.4842 418.805 L35.9632 418.805 L35.9632 395.442 L16.4842 395.442 L16.4842 389.013 L64.0042 389.013 L64.0042 395.442 L41.3741 395.442 L41.3741 418.805 L64.0042 418.805 L64.0042 425.234 L16.4842 425.234 Z" fill="#000000" fill-rule="nonzero" fill-opacity="1" /><path clip-path="url(#clip910)" d="M46.0847 360.272 Q46.0847 367.37 47.7079 370.107 Q49.3312 372.844 53.2461 372.844 Q56.3653 372.844 58.2114 370.807 Q60.0256 368.738 60.0256 365.205 Q60.0256 360.336 56.5881 357.407 Q53.1188 354.447 47.3897 354.447 L46.0847 354.447 L46.0847 360.272 M43.6657 348.591 L64.0042 348.591 L64.0042 354.447 L58.5933 354.447 Q61.8398 356.452 63.3994 359.444 Q64.9272 362.436 64.9272 366.765 Q64.9272 372.239 61.8716 375.486 Q58.7843 378.701 53.6281 378.701 Q47.6125 378.701 44.5569 374.69 Q41.5014 370.648 41.5014 362.659 L41.5014 354.447 L40.9285 354.447 Q36.8862 354.447 34.6901 357.121 Q32.4621 359.763 32.4621 364.569 Q32.4621 367.624 33.1941 370.521 Q33.9262 373.417 35.3903 376.091 L29.9795 376.091 Q28.7381 372.876 28.1334 369.852 Q27.4968 366.829 27.4968 363.964 Q27.4968 356.23 31.5072 352.41 Q35.5176 348.591 43.6657 348.591 Z" fill="#000000" fill-rule="nonzero" fill-opacity="1" /><path clip-path="url(#clip910)" d="M14.5426 337.451 L14.5426 332.358 Q22.0542 327.584 29.2474 325.229 Q36.4406 322.841 43.5384 322.841 Q50.668 322.841 57.8931 325.229 Q65.1182 327.584 72.5979 332.358 L72.5979 337.451 Q65.3091 333.218 58.1159 331.149 Q50.8908 329.048 43.5384 329.048 Q36.186 329.048 29.0246 331.149 Q21.8632 333.218 14.5426 337.451 Z" fill="#000000" fill-rule="nonzero" fill-opacity="1" /><polyline clip-path="url(#clip912)" style="stroke:#009af9; stroke-linecap:round; stroke-linejoin:round; stroke-width:4; stroke-opacity:1; fill:none" points="375.286,86.1857 476.332,418.966 577.378,399.154 678.424,369.114 779.47,502 880.516,453.016 981.562,1231.17 1082.61,1166.09 1183.65,1091.63 1284.7,1217.19 1385.75,1281.05 1486.79,1279.79 1587.84,1171.62 1688.88,1103.3 1789.93,978.163 1890.98,1316.47 1992.02,1176.5 2093.07,1384.24 2194.11,1229.87 2295.16,1350.75 "/>
<polyline clip-path="url(#clip912)" style="stroke:#e26f46; stroke-linecap:round; stroke-linejoin:round; stroke-width:4; stroke-opacity:1; fill:none" points="375.286,420.128 476.332,530.537 577.378,631.281 678.424,722.543 779.47,804.502 880.516,877.334 981.562,941.215 1082.61,996.316 1183.65,1042.81 1284.7,1080.85 1385.75,1110.62 1486.79,1132.28 1587.84,1145.98 1688.88,1151.88 1789.93,1150.14 1890.98,1140.92 1992.02,1124.36 2093.07,1100.61 2194.11,1069.82 2295.16,1032.15 "/>
<path clip-path="url(#clip910)" d="M1854.35 248.629 L2284.92 248.629 L2284.92 93.1086 L1854.35 93.1086  Z" fill="#ffffff" fill-rule="evenodd" fill-opacity="1"/>
<polyline clip-path="url(#clip910)" style="stroke:#000000; stroke-linecap:round; stroke-linejoin:round; stroke-width:4; stroke-opacity:1; fill:none" points="1854.35,248.629 2284.92,248.629 2284.92,93.1086 1854.35,93.1086 1854.35,248.629 "/>
<polyline clip-path="url(#clip910)" style="stroke:#009af9; stroke-linecap:round; stroke-linejoin:round; stroke-width:4; stroke-opacity:1; fill:none" points="1876.97,144.949 2012.64,144.949 "/>
<path clip-path="url(#clip910)" d="M2035.25 127.669 L2057.1 127.669 L2057.1 131.604 L2039.93 131.604 L2039.93 141.835 L2056.38 141.835 L2056.38 145.77 L2039.93 145.77 L2039.93 158.293 L2057.52 158.293 L2057.52 162.229 L2035.25 162.229 L2035.25 127.669 Z" fill="#000000" fill-rule="nonzero" fill-opacity="1" /><path clip-path="url(#clip910)" d="M2083.68 137.298 L2083.68 141.28 Q2081.87 140.284 2080.04 139.798 Q2078.24 139.289 2076.38 139.289 Q2072.24 139.289 2069.95 141.928 Q2067.66 144.544 2067.66 149.289 Q2067.66 154.034 2069.95 156.673 Q2072.24 159.289 2076.38 159.289 Q2078.24 159.289 2080.04 158.803 Q2081.87 158.293 2083.68 157.298 L2083.68 161.233 Q2081.89 162.067 2079.97 162.483 Q2078.07 162.9 2075.92 162.9 Q2070.06 162.9 2066.62 159.219 Q2063.17 155.539 2063.17 149.289 Q2063.17 142.946 2066.64 139.312 Q2070.13 135.678 2076.2 135.678 Q2078.17 135.678 2080.04 136.095 Q2081.92 136.488 2083.68 137.298 Z" fill="#000000" fill-rule="nonzero" fill-opacity="1" /><path clip-path="url(#clip910)" d="M2090.64 151.997 L2090.64 136.303 L2094.9 136.303 L2094.9 151.835 Q2094.9 155.516 2096.34 157.368 Q2097.77 159.196 2100.64 159.196 Q2104.09 159.196 2106.08 156.997 Q2108.1 154.798 2108.1 151.002 L2108.1 136.303 L2112.36 136.303 L2112.36 162.229 L2108.1 162.229 L2108.1 158.247 Q2106.55 160.608 2104.49 161.766 Q2102.45 162.9 2099.74 162.9 Q2095.27 162.9 2092.96 160.122 Q2090.64 157.344 2090.64 151.997 M2101.36 135.678 L2101.36 135.678 Z" fill="#000000" fill-rule="nonzero" fill-opacity="1" /><path clip-path="url(#clip910)" d="M2125.34 128.942 L2125.34 136.303 L2134.11 136.303 L2134.11 139.613 L2125.34 139.613 L2125.34 153.687 Q2125.34 156.858 2126.2 157.761 Q2127.08 158.664 2129.74 158.664 L2134.11 158.664 L2134.11 162.229 L2129.74 162.229 Q2124.81 162.229 2122.93 160.4 Q2121.06 158.548 2121.06 153.687 L2121.06 139.613 L2117.93 139.613 L2117.93 136.303 L2121.06 136.303 L2121.06 128.942 L2125.34 128.942 Z" fill="#000000" fill-rule="nonzero" fill-opacity="1" /><path clip-path="url(#clip910)" d="M2140.27 140.701 L2169.95 140.701 L2169.95 144.59 L2140.27 144.59 L2140.27 140.701 M2140.27 150.145 L2169.95 150.145 L2169.95 154.081 L2140.27 154.081 L2140.27 150.145 Z" fill="#000000" fill-rule="nonzero" fill-opacity="1" /><path clip-path="url(#clip910)" d="M2180.09 127.669 L2198.44 127.669 L2198.44 131.604 L2184.37 131.604 L2184.37 140.076 Q2185.39 139.729 2186.41 139.567 Q2187.42 139.382 2188.44 139.382 Q2194.23 139.382 2197.61 142.553 Q2200.99 145.724 2200.99 151.141 Q2200.99 156.719 2197.52 159.821 Q2194.05 162.9 2187.73 162.9 Q2185.55 162.9 2183.28 162.53 Q2181.04 162.159 2178.63 161.418 L2178.63 156.719 Q2180.71 157.854 2182.93 158.409 Q2185.16 158.965 2187.63 158.965 Q2191.64 158.965 2193.98 156.858 Q2196.31 154.752 2196.31 151.141 Q2196.31 147.53 2193.98 145.423 Q2191.64 143.317 2187.63 143.317 Q2185.76 143.317 2183.88 143.733 Q2182.03 144.15 2180.09 145.03 L2180.09 127.669 Z" fill="#000000" fill-rule="nonzero" fill-opacity="1" /><polyline clip-path="url(#clip910)" style="stroke:#e26f46; stroke-linecap:round; stroke-linejoin:round; stroke-width:4; stroke-opacity:1; fill:none" points="1876.97,196.789 2012.64,196.789 "/>
<path clip-path="url(#clip910)" d="M2035.25 179.509 L2057.1 179.509 L2057.1 183.444 L2039.93 183.444 L2039.93 193.675 L2056.38 193.675 L2056.38 197.61 L2039.93 197.61 L2039.93 210.133 L2057.52 210.133 L2057.52 214.069 L2035.25 214.069 L2035.25 179.509 Z" fill="#000000" fill-rule="nonzero" fill-opacity="1" /><path clip-path="url(#clip910)" d="M2083.68 189.138 L2083.68 193.12 Q2081.87 192.124 2080.04 191.638 Q2078.24 191.129 2076.38 191.129 Q2072.24 191.129 2069.95 193.768 Q2067.66 196.384 2067.66 201.129 Q2067.66 205.874 2069.95 208.513 Q2072.24 211.129 2076.38 211.129 Q2078.24 211.129 2080.04 210.643 Q2081.87 210.133 2083.68 209.138 L2083.68 213.073 Q2081.89 213.907 2079.97 214.323 Q2078.07 214.74 2075.92 214.74 Q2070.06 214.74 2066.62 211.059 Q2063.17 207.379 2063.17 201.129 Q2063.17 194.786 2066.64 191.152 Q2070.13 187.518 2076.2 187.518 Q2078.17 187.518 2080.04 187.935 Q2081.92 188.328 2083.68 189.138 Z" fill="#000000" fill-rule="nonzero" fill-opacity="1" /><path clip-path="url(#clip910)" d="M2090.64 203.837 L2090.64 188.143 L2094.9 188.143 L2094.9 203.675 Q2094.9 207.356 2096.34 209.208 Q2097.77 211.036 2100.64 211.036 Q2104.09 211.036 2106.08 208.837 Q2108.1 206.638 2108.1 202.842 L2108.1 188.143 L2112.36 188.143 L2112.36 214.069 L2108.1 214.069 L2108.1 210.087 Q2106.55 212.448 2104.49 213.606 Q2102.45 214.74 2099.74 214.74 Q2095.27 214.74 2092.96 211.962 Q2090.64 209.184 2090.64 203.837 M2101.36 187.518 L2101.36 187.518 Z" fill="#000000" fill-rule="nonzero" fill-opacity="1" /><path clip-path="url(#clip910)" d="M2125.34 180.782 L2125.34 188.143 L2134.11 188.143 L2134.11 191.453 L2125.34 191.453 L2125.34 205.527 Q2125.34 208.698 2126.2 209.601 Q2127.08 210.504 2129.74 210.504 L2134.11 210.504 L2134.11 214.069 L2129.74 214.069 Q2124.81 214.069 2122.93 212.24 Q2121.06 210.388 2121.06 205.527 L2121.06 191.453 L2117.93 191.453 L2117.93 188.143 L2121.06 188.143 L2121.06 180.782 L2125.34 180.782 Z" fill="#000000" fill-rule="nonzero" fill-opacity="1" /><path clip-path="url(#clip910)" d="M2140.27 192.541 L2169.95 192.541 L2169.95 196.43 L2140.27 196.43 L2140.27 192.541 M2140.27 201.985 L2169.95 201.985 L2169.95 205.921 L2140.27 205.921 L2140.27 201.985 Z" fill="#000000" fill-rule="nonzero" fill-opacity="1" /><path clip-path="url(#clip910)" d="M2180.85 210.133 L2188.49 210.133 L2188.49 183.768 L2180.18 185.435 L2180.18 181.175 L2188.44 179.509 L2193.12 179.509 L2193.12 210.133 L2200.76 210.133 L2200.76 214.069 L2180.85 214.069 L2180.85 210.133 Z" fill="#000000" fill-rule="nonzero" fill-opacity="1" /><path clip-path="url(#clip910)" d="M2220.2 182.587 Q2216.59 182.587 2214.76 186.152 Q2212.96 189.694 2212.96 196.823 Q2212.96 203.93 2214.76 207.495 Q2216.59 211.036 2220.2 211.036 Q2223.84 211.036 2225.64 207.495 Q2227.47 203.93 2227.47 196.823 Q2227.47 189.694 2225.64 186.152 Q2223.84 182.587 2220.2 182.587 M2220.2 178.884 Q2226.01 178.884 2229.07 183.49 Q2232.15 188.073 2232.15 196.823 Q2232.15 205.55 2229.07 210.157 Q2226.01 214.74 2220.2 214.74 Q2214.39 214.74 2211.31 210.157 Q2208.26 205.55 2208.26 196.823 Q2208.26 188.073 2211.31 183.49 Q2214.39 178.884 2220.2 178.884 Z" fill="#000000" fill-rule="nonzero" fill-opacity="1" /><path clip-path="url(#clip910)" d="M2250.36 182.587 Q2246.75 182.587 2244.92 186.152 Q2243.12 189.694 2243.12 196.823 Q2243.12 203.93 2244.92 207.495 Q2246.75 211.036 2250.36 211.036 Q2254 211.036 2255.8 207.495 Q2257.63 203.93 2257.63 196.823 Q2257.63 189.694 2255.8 186.152 Q2254 182.587 2250.36 182.587 M2250.36 178.884 Q2256.17 178.884 2259.23 183.49 Q2262.31 188.073 2262.31 196.823 Q2262.31 205.55 2259.23 210.157 Q2256.17 214.74 2250.36 214.74 Q2244.55 214.74 2241.48 210.157 Q2238.42 205.55 2238.42 196.823 Q2238.42 188.073 2241.48 183.49 Q2244.55 178.884 2250.36 178.884 Z" fill="#000000" fill-rule="nonzero" fill-opacity="1" /></svg>
