<?xml version="1.0" encoding="utf-8"?>
<svg xmlns="http://www.w3.org/2000/svg" xmlns:xlink="http://www.w3.org/1999/xlink" width="600" height="400" viewBox="0 0 2400 1600">
<defs>
  <clipPath id="clip000">
    <rect x="0" y="0" width="2400" height="1600"/>
  </clipPath>
</defs>
<path clip-path="url(#clip000)" d="M0 1600 L2400 1600 L2400 0 L0 0  Z" fill="#ffffff" fill-rule="evenodd" fill-opacity="1"/>
<defs>
  <clipPath id="clip001">
    <rect x="480" y="0" width="1681" height="1600"/>
  </clipPath>
</defs>
<path clip-path="url(#clip000)" d="M279.704 1423.18 L2352.76 1423.18 L2352.76 47.2441 L279.704 47.2441  Z" fill="#ffffff" fill-rule="evenodd" fill-opacity="1"/>
<defs>
  <clipPath id="clip002">
    <rect x="279" y="47" width="2074" height="1377"/>
  </clipPath>
</defs>
<polyline clip-path="url(#clip002)" style="stroke:#000000; stroke-linecap:round; stroke-linejoin:round; stroke-width:2; stroke-opacity:0.1; fill:none" points="338.375,1423.18 338.375,47.2441 "/>
<polyline clip-path="url(#clip002)" style="stroke:#000000; stroke-linecap:round; stroke-linejoin:round; stroke-width:2; stroke-opacity:0.1; fill:none" points="750.103,1423.18 750.103,47.2441 "/>
<polyline clip-path="url(#clip002)" style="stroke:#000000; stroke-linecap:round; stroke-linejoin:round; stroke-width:2; stroke-opacity:0.1; fill:none" points="1161.83,1423.18 1161.83,47.2441 "/>
<polyline clip-path="url(#clip002)" style="stroke:#000000; stroke-linecap:round; stroke-linejoin:round; stroke-width:2; stroke-opacity:0.1; fill:none" points="1573.56,1423.18 1573.56,47.2441 "/>
<polyline clip-path="url(#clip002)" style="stroke:#000000; stroke-linecap:round; stroke-linejoin:round; stroke-width:2; stroke-opacity:0.1; fill:none" points="1985.29,1423.18 1985.29,47.2441 "/>
<polyline clip-path="url(#clip002)" style="stroke:#000000; stroke-linecap:round; stroke-linejoin:round; stroke-width:2; stroke-opacity:0.1; fill:none" points="279.704,1370.5 2352.76,1370.5 "/>
<polyline clip-path="url(#clip002)" style="stroke:#000000; stroke-linecap:round; stroke-linejoin:round; stroke-width:2; stroke-opacity:0.1; fill:none" points="279.704,1162.89 2352.76,1162.89 "/>
<polyline clip-path="url(#clip002)" style="stroke:#000000; stroke-linecap:round; stroke-linejoin:round; stroke-width:2; stroke-opacity:0.1; fill:none" points="279.704,955.283 2352.76,955.283 "/>
<polyline clip-path="url(#clip002)" style="stroke:#000000; stroke-linecap:round; stroke-linejoin:round; stroke-width:2; stroke-opacity:0.1; fill:none" points="279.704,747.677 2352.76,747.677 "/>
<polyline clip-path="url(#clip002)" style="stroke:#000000; stroke-linecap:round; stroke-linejoin:round; stroke-width:2; stroke-opacity:0.1; fill:none" points="279.704,540.071 2352.76,540.071 "/>
<polyline clip-path="url(#clip002)" style="stroke:#000000; stroke-linecap:round; stroke-linejoin:round; stroke-width:2; stroke-opacity:0.1; fill:none" points="279.704,332.464 2352.76,332.464 "/>
<polyline clip-path="url(#clip002)" style="stroke:#000000; stroke-linecap:round; stroke-linejoin:round; stroke-width:2; stroke-opacity:0.1; fill:none" points="279.704,124.858 2352.76,124.858 "/>
<polyline clip-path="url(#clip000)" style="stroke:#000000; stroke-linecap:round; stroke-linejoin:round; stroke-width:4; stroke-opacity:1; fill:none" points="279.704,1423.18 2352.76,1423.18 "/>
<polyline clip-path="url(#clip000)" style="stroke:#000000; stroke-linecap:round; stroke-linejoin:round; stroke-width:4; stroke-opacity:1; fill:none" points="338.375,1423.18 338.375,1404.28 "/>
<polyline clip-path="url(#clip000)" style="stroke:#000000; stroke-linecap:round; stroke-linejoin:round; stroke-width:4; stroke-opacity:1; fill:none" points="750.103,1423.18 750.103,1404.28 "/>
<polyline clip-path="url(#clip000)" style="stroke:#000000; stroke-linecap:round; stroke-linejoin:round; stroke-width:4; stroke-opacity:1; fill:none" points="1161.83,1423.18 1161.83,1404.28 "/>
<polyline clip-path="url(#clip000)" style="stroke:#000000; stroke-linecap:round; stroke-linejoin:round; stroke-width:4; stroke-opacity:1; fill:none" points="1573.56,1423.18 1573.56,1404.28 "/>
<polyline clip-path="url(#clip000)" style="stroke:#000000; stroke-linecap:round; stroke-linejoin:round; stroke-width:4; stroke-opacity:1; fill:none" points="1985.29,1423.18 1985.29,1404.28 "/>
<path clip-path="url(#clip000)" d="M315.76 1454.1 Q312.148 1454.1 310.32 1457.66 Q308.514 1461.2 308.514 1468.33 Q308.514 1475.44 310.32 1479.01 Q312.148 1482.55 315.76 1482.55 Q319.394 1482.55 321.199 1479.01 Q323.028 1475.44 323.028 1468.33 Q323.028 1461.2 321.199 1457.66 Q319.394 1454.1 315.76 1454.1 M315.76 1450.39 Q321.57 1450.39 324.625 1455 Q327.704 1459.58 327.704 1468.33 Q327.704 1477.06 324.625 1481.67 Q321.57 1486.25 315.76 1486.25 Q309.949 1486.25 306.871 1481.67 Q303.815 1477.06 303.815 1468.33 Q303.815 1459.58 306.871 1455 Q309.949 1450.39 315.76 1450.39 Z" fill="#000000" fill-rule="nonzero" fill-opacity="1" /><path clip-path="url(#clip000)" d="M335.922 1479.7 L340.806 1479.7 L340.806 1485.58 L335.922 1485.58 L335.922 1479.7 Z" fill="#000000" fill-rule="nonzero" fill-opacity="1" /><path clip-path="url(#clip000)" d="M360.991 1454.1 Q357.38 1454.1 355.551 1457.66 Q353.745 1461.2 353.745 1468.33 Q353.745 1475.44 355.551 1479.01 Q357.38 1482.55 360.991 1482.55 Q364.625 1482.55 366.431 1479.01 Q368.259 1475.44 368.259 1468.33 Q368.259 1461.2 366.431 1457.66 Q364.625 1454.1 360.991 1454.1 M360.991 1450.39 Q366.801 1450.39 369.857 1455 Q372.935 1459.58 372.935 1468.33 Q372.935 1477.06 369.857 1481.67 Q366.801 1486.25 360.991 1486.25 Q355.181 1486.25 352.102 1481.67 Q349.046 1477.06 349.046 1468.33 Q349.046 1459.58 352.102 1455 Q355.181 1450.39 360.991 1450.39 Z" fill="#000000" fill-rule="nonzero" fill-opacity="1" /><path clip-path="url(#clip000)" d="M728.286 1454.1 Q724.675 1454.1 722.847 1457.66 Q721.041 1461.2 721.041 1468.33 Q721.041 1475.44 722.847 1479.01 Q724.675 1482.55 728.286 1482.55 Q731.921 1482.55 733.726 1479.01 Q735.555 1475.44 735.555 1468.33 Q735.555 1461.2 733.726 1457.66 Q731.921 1454.1 728.286 1454.1 M728.286 1450.39 Q734.097 1450.39 737.152 1455 Q740.231 1459.58 740.231 1468.33 Q740.231 1477.06 737.152 1481.67 Q734.097 1486.25 728.286 1486.25 Q722.476 1486.25 719.398 1481.67 Q716.342 1477.06 716.342 1468.33 Q716.342 1459.58 719.398 1455 Q722.476 1450.39 728.286 1450.39 Z" fill="#000000" fill-rule="nonzero" fill-opacity="1" /><path clip-path="url(#clip000)" d="M748.448 1479.7 L753.333 1479.7 L753.333 1485.58 L748.448 1485.58 L748.448 1479.7 Z" fill="#000000" fill-rule="nonzero" fill-opacity="1" /><path clip-path="url(#clip000)" d="M767.546 1481.64 L783.865 1481.64 L783.865 1485.58 L761.921 1485.58 L761.921 1481.64 Q764.583 1478.89 769.166 1474.26 Q773.772 1469.61 774.953 1468.27 Q777.198 1465.74 778.078 1464.01 Q778.981 1462.25 778.981 1460.56 Q778.981 1457.8 777.036 1456.07 Q775.115 1454.33 772.013 1454.33 Q769.814 1454.33 767.36 1455.09 Q764.93 1455.86 762.152 1457.41 L762.152 1452.69 Q764.976 1451.55 767.43 1450.97 Q769.883 1450.39 771.921 1450.39 Q777.291 1450.39 780.485 1453.08 Q783.68 1455.77 783.68 1460.26 Q783.68 1462.39 782.87 1464.31 Q782.082 1466.2 779.976 1468.8 Q779.397 1469.47 776.295 1472.69 Q773.194 1475.88 767.546 1481.64 Z" fill="#000000" fill-rule="nonzero" fill-opacity="1" /><path clip-path="url(#clip000)" d="M1138.97 1454.1 Q1135.36 1454.1 1133.53 1457.66 Q1131.73 1461.2 1131.73 1468.33 Q1131.73 1475.44 1133.53 1479.01 Q1135.36 1482.55 1138.97 1482.55 Q1142.61 1482.55 1144.41 1479.01 Q1146.24 1475.44 1146.24 1468.33 Q1146.24 1461.2 1144.41 1457.66 Q1142.61 1454.1 1138.97 1454.1 M1138.97 1450.39 Q1144.78 1450.39 1147.84 1455 Q1150.92 1459.58 1150.92 1468.33 Q1150.92 1477.06 1147.84 1481.67 Q1144.78 1486.25 1138.97 1486.25 Q1133.16 1486.25 1130.08 1481.67 Q1127.03 1477.06 1127.03 1468.33 Q1127.03 1459.58 1130.08 1455 Q1133.16 1450.39 1138.97 1450.39 Z" fill="#000000" fill-rule="nonzero" fill-opacity="1" /><path clip-path="url(#clip000)" d="M1159.14 1479.7 L1164.02 1479.7 L1164.02 1485.58 L1159.14 1485.58 L1159.14 1479.7 Z" fill="#000000" fill-rule="nonzero" fill-opacity="1" /><path clip-path="url(#clip000)" d="M1187.05 1455.09 L1175.25 1473.54 L1187.05 1473.54 L1187.05 1455.09 M1185.82 1451.02 L1191.7 1451.02 L1191.7 1473.54 L1196.63 1473.54 L1196.63 1477.43 L1191.7 1477.43 L1191.7 1485.58 L1187.05 1485.58 L1187.05 1477.43 L1171.45 1477.43 L1171.45 1472.92 L1185.82 1451.02 Z" fill="#000000" fill-rule="nonzero" fill-opacity="1" /><path clip-path="url(#clip000)" d="M1550.86 1454.1 Q1547.25 1454.1 1545.42 1457.66 Q1543.62 1461.2 1543.62 1468.33 Q1543.62 1475.44 1545.42 1479.01 Q1547.25 1482.55 1550.86 1482.55 Q1554.5 1482.55 1556.3 1479.01 Q1558.13 1475.44 1558.13 1468.33 Q1558.13 1461.2 1556.3 1457.66 Q1554.5 1454.1 1550.86 1454.1 M1550.86 1450.39 Q1556.67 1450.39 1559.73 1455 Q1562.81 1459.58 1562.81 1468.33 Q1562.81 1477.06 1559.73 1481.67 Q1556.67 1486.25 1550.86 1486.25 Q1545.05 1486.25 1541.97 1481.67 Q1538.92 1477.06 1538.92 1468.33 Q1538.92 1459.58 1541.97 1455 Q1545.05 1450.39 1550.86 1450.39 Z" fill="#000000" fill-rule="nonzero" fill-opacity="1" /><path clip-path="url(#clip000)" d="M1571.03 1479.7 L1575.91 1479.7 L1575.91 1485.58 L1571.03 1485.58 L1571.03 1479.7 Z" fill="#000000" fill-rule="nonzero" fill-opacity="1" /><path clip-path="url(#clip000)" d="M1596.67 1466.44 Q1593.53 1466.44 1591.67 1468.59 Q1589.84 1470.74 1589.84 1474.49 Q1589.84 1478.22 1591.67 1480.39 Q1593.53 1482.55 1596.67 1482.55 Q1599.82 1482.55 1601.65 1480.39 Q1603.5 1478.22 1603.5 1474.49 Q1603.5 1470.74 1601.65 1468.59 Q1599.82 1466.44 1596.67 1466.44 M1605.96 1451.78 L1605.96 1456.04 Q1604.2 1455.21 1602.39 1454.77 Q1600.61 1454.33 1598.85 1454.33 Q1594.22 1454.33 1591.77 1457.45 Q1589.34 1460.58 1588.99 1466.9 Q1590.35 1464.89 1592.41 1463.82 Q1594.47 1462.73 1596.95 1462.73 Q1602.16 1462.73 1605.17 1465.9 Q1608.2 1469.05 1608.2 1474.49 Q1608.2 1479.82 1605.05 1483.03 Q1601.9 1486.25 1596.67 1486.25 Q1590.68 1486.25 1587.51 1481.67 Q1584.34 1477.06 1584.34 1468.33 Q1584.34 1460.14 1588.22 1455.28 Q1592.11 1450.39 1598.66 1450.39 Q1600.42 1450.39 1602.21 1450.74 Q1604.01 1451.09 1605.96 1451.78 Z" fill="#000000" fill-rule="nonzero" fill-opacity="1" /><path clip-path="url(#clip000)" d="M1962.72 1454.1 Q1959.11 1454.1 1957.28 1457.66 Q1955.47 1461.2 1955.47 1468.33 Q1955.47 1475.44 1957.28 1479.01 Q1959.11 1482.55 1962.72 1482.55 Q1966.35 1482.55 1968.16 1479.01 Q1969.99 1475.44 1969.99 1468.33 Q1969.99 1461.2 1968.16 1457.66 Q1966.35 1454.1 1962.72 1454.1 M1962.72 1450.39 Q1968.53 1450.39 1971.58 1455 Q1974.66 1459.58 1974.66 1468.33 Q1974.66 1477.06 1971.58 1481.67 Q1968.53 1486.25 1962.72 1486.25 Q1956.91 1486.25 1953.83 1481.67 Q1950.77 1477.06 1950.77 1468.33 Q1950.77 1459.58 1953.83 1455 Q1956.91 1450.39 1962.72 1450.39 Z" fill="#000000" fill-rule="nonzero" fill-opacity="1" /><path clip-path="url(#clip000)" d="M1982.88 1479.7 L1987.77 1479.7 L1987.77 1485.58 L1982.88 1485.58 L1982.88 1479.7 Z" fill="#000000" fill-rule="nonzero" fill-opacity="1" /><path clip-path="url(#clip000)" d="M2007.95 1469.17 Q2004.62 1469.17 2002.7 1470.95 Q2000.8 1472.73 2000.8 1475.86 Q2000.8 1478.98 2002.7 1480.77 Q2004.62 1482.55 2007.95 1482.55 Q2011.28 1482.55 2013.2 1480.77 Q2015.13 1478.96 2015.13 1475.86 Q2015.13 1472.73 2013.2 1470.95 Q2011.31 1469.17 2007.95 1469.17 M2003.27 1467.18 Q2000.27 1466.44 1998.58 1464.38 Q1996.91 1462.32 1996.91 1459.35 Q1996.91 1455.21 1999.85 1452.8 Q2002.81 1450.39 2007.95 1450.39 Q2013.11 1450.39 2016.05 1452.8 Q2018.99 1455.21 2018.99 1459.35 Q2018.99 1462.32 2017.3 1464.38 Q2015.64 1466.44 2012.65 1467.18 Q2016.03 1467.96 2017.9 1470.26 Q2019.8 1472.55 2019.8 1475.86 Q2019.8 1480.88 2016.72 1483.57 Q2013.67 1486.25 2007.95 1486.25 Q2002.23 1486.25 1999.15 1483.57 Q1996.1 1480.88 1996.1 1475.86 Q1996.1 1472.55 1998 1470.26 Q1999.89 1467.96 2003.27 1467.18 M2001.56 1459.79 Q2001.56 1462.48 2003.23 1463.98 Q2004.92 1465.49 2007.95 1465.49 Q2010.96 1465.49 2012.65 1463.98 Q2014.36 1462.48 2014.36 1459.79 Q2014.36 1457.11 2012.65 1455.6 Q2010.96 1454.1 2007.95 1454.1 Q2004.92 1454.1 2003.23 1455.6 Q2001.56 1457.11 2001.56 1459.79 Z" fill="#000000" fill-rule="nonzero" fill-opacity="1" /><path clip-path="url(#clip000)" d="M1332.84 1532.4 L1319.95 1549.74 L1333.51 1568.04 L1326.61 1568.04 L1316.23 1554.04 L1305.85 1568.04 L1298.95 1568.04 L1312.79 1549.39 L1300.12 1532.4 L1307.03 1532.4 L1316.48 1545.1 L1325.94 1532.4 L1332.84 1532.4 Z" fill="#000000" fill-rule="nonzero" fill-opacity="1" /><polyline clip-path="url(#clip000)" style="stroke:#000000; stroke-linecap:round; stroke-linejoin:round; stroke-width:4; stroke-opacity:1; fill:none" points="279.704,1423.18 279.704,47.2441 "/>
<polyline clip-path="url(#clip000)" style="stroke:#000000; stroke-linecap:round; stroke-linejoin:round; stroke-width:4; stroke-opacity:1; fill:none" points="279.704,1370.5 298.602,1370.5 "/>
<polyline clip-path="url(#clip000)" style="stroke:#000000; stroke-linecap:round; stroke-linejoin:round; stroke-width:4; stroke-opacity:1; fill:none" points="279.704,1162.89 298.602,1162.89 "/>
<polyline clip-path="url(#clip000)" style="stroke:#000000; stroke-linecap:round; stroke-linejoin:round; stroke-width:4; stroke-opacity:1; fill:none" points="279.704,955.283 298.602,955.283 "/>
<polyline clip-path="url(#clip000)" style="stroke:#000000; stroke-linecap:round; stroke-linejoin:round; stroke-width:4; stroke-opacity:1; fill:none" points="279.704,747.677 298.602,747.677 "/>
<polyline clip-path="url(#clip000)" style="stroke:#000000; stroke-linecap:round; stroke-linejoin:round; stroke-width:4; stroke-opacity:1; fill:none" points="279.704,540.071 298.602,540.071 "/>
<polyline clip-path="url(#clip000)" style="stroke:#000000; stroke-linecap:round; stroke-linejoin:round; stroke-width:4; stroke-opacity:1; fill:none" points="279.704,332.464 298.602,332.464 "/>
<polyline clip-path="url(#clip000)" style="stroke:#000000; stroke-linecap:round; stroke-linejoin:round; stroke-width:4; stroke-opacity:1; fill:none" points="279.704,124.858 298.602,124.858 "/>
<path clip-path="url(#clip000)" d="M127.2 1356.29 Q123.589 1356.29 121.76 1359.86 Q119.955 1363.4 119.955 1370.53 Q119.955 1377.64 121.76 1381.2 Q123.589 1384.74 127.2 1384.74 Q130.834 1384.74 132.64 1381.2 Q134.468 1377.64 134.468 1370.53 Q134.468 1363.4 132.64 1359.86 Q130.834 1356.29 127.2 1356.29 M127.2 1352.59 Q133.01 1352.59 136.066 1357.2 Q139.144 1361.78 139.144 1370.53 Q139.144 1379.26 136.066 1383.86 Q133.01 1388.45 127.2 1388.45 Q121.39 1388.45 118.311 1383.86 Q115.256 1379.26 115.256 1370.53 Q115.256 1361.78 118.311 1357.2 Q121.39 1352.59 127.2 1352.59 Z" fill="#000000" fill-rule="nonzero" fill-opacity="1" /><path clip-path="url(#clip000)" d="M147.362 1381.9 L152.246 1381.9 L152.246 1387.78 L147.362 1387.78 L147.362 1381.9 Z" fill="#000000" fill-rule="nonzero" fill-opacity="1" /><path clip-path="url(#clip000)" d="M172.431 1356.29 Q168.82 1356.29 166.991 1359.86 Q165.186 1363.4 165.186 1370.53 Q165.186 1377.64 166.991 1381.2 Q168.82 1384.74 172.431 1384.74 Q176.065 1384.74 177.871 1381.2 Q179.7 1377.64 179.7 1370.53 Q179.7 1363.4 177.871 1359.86 Q176.065 1356.29 172.431 1356.29 M172.431 1352.59 Q178.241 1352.59 181.297 1357.2 Q184.376 1361.78 184.376 1370.53 Q184.376 1379.26 181.297 1383.86 Q178.241 1388.45 172.431 1388.45 Q166.621 1388.45 163.542 1383.86 Q160.487 1379.26 160.487 1370.53 Q160.487 1361.78 163.542 1357.2 Q166.621 1352.59 172.431 1352.59 Z" fill="#000000" fill-rule="nonzero" fill-opacity="1" /><path clip-path="url(#clip000)" d="M192.639 1353.22 L210.996 1353.22 L210.996 1357.15 L196.922 1357.15 L196.922 1365.62 Q197.94 1365.28 198.959 1365.11 Q199.977 1364.93 200.996 1364.93 Q206.783 1364.93 210.162 1368.1 Q213.542 1371.27 213.542 1376.69 Q213.542 1382.27 210.07 1385.37 Q206.598 1388.45 200.278 1388.45 Q198.102 1388.45 195.834 1388.08 Q193.588 1387.71 191.181 1386.97 L191.181 1382.27 Q193.264 1383.4 195.487 1383.96 Q197.709 1384.51 200.186 1384.51 Q204.19 1384.51 206.528 1382.41 Q208.866 1380.3 208.866 1376.69 Q208.866 1373.08 206.528 1370.97 Q204.19 1368.86 200.186 1368.86 Q198.311 1368.86 196.436 1369.28 Q194.584 1369.7 192.639 1370.58 L192.639 1353.22 Z" fill="#000000" fill-rule="nonzero" fill-opacity="1" /><path clip-path="url(#clip000)" d="M222.801 1353.22 L241.158 1353.22 L241.158 1357.15 L227.084 1357.15 L227.084 1365.62 Q228.102 1365.28 229.121 1365.11 Q230.139 1364.93 231.158 1364.93 Q236.945 1364.93 240.324 1368.1 Q243.704 1371.27 243.704 1376.69 Q243.704 1382.27 240.232 1385.37 Q236.76 1388.45 230.44 1388.45 Q228.264 1388.45 225.996 1388.08 Q223.75 1387.71 221.343 1386.97 L221.343 1382.27 Q223.426 1383.4 225.648 1383.96 Q227.871 1384.51 230.347 1384.51 Q234.352 1384.51 236.69 1382.41 Q239.028 1380.3 239.028 1376.69 Q239.028 1373.08 236.69 1370.97 Q234.352 1368.86 230.347 1368.86 Q228.473 1368.86 226.598 1369.28 Q224.746 1369.7 222.801 1370.58 L222.801 1353.22 Z" fill="#000000" fill-rule="nonzero" fill-opacity="1" /><path clip-path="url(#clip000)" d="M126.205 1148.69 Q122.593 1148.69 120.765 1152.25 Q118.959 1155.79 118.959 1162.92 Q118.959 1170.03 120.765 1173.6 Q122.593 1177.14 126.205 1177.14 Q129.839 1177.14 131.644 1173.6 Q133.473 1170.03 133.473 1162.92 Q133.473 1155.79 131.644 1152.25 Q129.839 1148.69 126.205 1148.69 M126.205 1144.98 Q132.015 1144.98 135.07 1149.59 Q138.149 1154.17 138.149 1162.92 Q138.149 1171.65 135.07 1176.26 Q132.015 1180.84 126.205 1180.84 Q120.394 1180.84 117.316 1176.26 Q114.26 1171.65 114.26 1162.92 Q114.26 1154.17 117.316 1149.59 Q120.394 1144.98 126.205 1144.98 Z" fill="#000000" fill-rule="nonzero" fill-opacity="1" /><path clip-path="url(#clip000)" d="M146.366 1174.29 L151.251 1174.29 L151.251 1180.17 L146.366 1180.17 L146.366 1174.29 Z" fill="#000000" fill-rule="nonzero" fill-opacity="1" /><path clip-path="url(#clip000)" d="M171.436 1148.69 Q167.825 1148.69 165.996 1152.25 Q164.19 1155.79 164.19 1162.92 Q164.19 1170.03 165.996 1173.6 Q167.825 1177.14 171.436 1177.14 Q175.07 1177.14 176.876 1173.6 Q178.704 1170.03 178.704 1162.92 Q178.704 1155.79 176.876 1152.25 Q175.07 1148.69 171.436 1148.69 M171.436 1144.98 Q177.246 1144.98 180.301 1149.59 Q183.38 1154.17 183.38 1162.92 Q183.38 1171.65 180.301 1176.26 Q177.246 1180.84 171.436 1180.84 Q165.626 1180.84 162.547 1176.26 Q159.491 1171.65 159.491 1162.92 Q159.491 1154.17 162.547 1149.59 Q165.626 1144.98 171.436 1144.98 Z" fill="#000000" fill-rule="nonzero" fill-opacity="1" /><path clip-path="url(#clip000)" d="M202.176 1161.03 Q199.028 1161.03 197.176 1163.18 Q195.348 1165.33 195.348 1169.08 Q195.348 1172.81 197.176 1174.98 Q199.028 1177.14 202.176 1177.14 Q205.324 1177.14 207.153 1174.98 Q209.005 1172.81 209.005 1169.08 Q209.005 1165.33 207.153 1163.18 Q205.324 1161.03 202.176 1161.03 M211.459 1146.37 L211.459 1150.63 Q209.699 1149.8 207.894 1149.36 Q206.112 1148.92 204.352 1148.92 Q199.723 1148.92 197.269 1152.04 Q194.838 1155.17 194.491 1161.49 Q195.857 1159.48 197.917 1158.41 Q199.977 1157.32 202.454 1157.32 Q207.662 1157.32 210.672 1160.49 Q213.704 1163.64 213.704 1169.08 Q213.704 1174.41 210.556 1177.62 Q207.408 1180.84 202.176 1180.84 Q196.181 1180.84 193.01 1176.26 Q189.838 1171.65 189.838 1162.92 Q189.838 1154.73 193.727 1149.87 Q197.616 1144.98 204.167 1144.98 Q205.926 1144.98 207.709 1145.33 Q209.514 1145.68 211.459 1146.37 Z" fill="#000000" fill-rule="nonzero" fill-opacity="1" /><path clip-path="url(#clip000)" d="M231.76 1148.69 Q228.148 1148.69 226.32 1152.25 Q224.514 1155.79 224.514 1162.92 Q224.514 1170.03 226.32 1173.6 Q228.148 1177.14 231.76 1177.14 Q235.394 1177.14 237.199 1173.6 Q239.028 1170.03 239.028 1162.92 Q239.028 1155.79 237.199 1152.25 Q235.394 1148.69 231.76 1148.69 M231.76 1144.98 Q237.57 1144.98 240.625 1149.59 Q243.704 1154.17 243.704 1162.92 Q243.704 1171.65 240.625 1176.26 Q237.57 1180.84 231.76 1180.84 Q225.949 1180.84 222.871 1176.26 Q219.815 1171.65 219.815 1162.92 Q219.815 1154.17 222.871 1149.59 Q225.949 1144.98 231.76 1144.98 Z" fill="#000000" fill-rule="nonzero" fill-opacity="1" /><path clip-path="url(#clip000)" d="M127.2 941.082 Q123.589 941.082 121.76 944.647 Q119.955 948.189 119.955 955.318 Q119.955 962.425 121.76 965.989 Q123.589 969.531 127.2 969.531 Q130.834 969.531 132.64 965.989 Q134.468 962.425 134.468 955.318 Q134.468 948.189 132.64 944.647 Q130.834 941.082 127.2 941.082 M127.2 937.378 Q133.01 937.378 136.066 941.985 Q139.144 946.568 139.144 955.318 Q139.144 964.045 136.066 968.651 Q133.01 973.235 127.2 973.235 Q121.39 973.235 118.311 968.651 Q115.256 964.045 115.256 955.318 Q115.256 946.568 118.311 941.985 Q121.39 937.378 127.2 937.378 Z" fill="#000000" fill-rule="nonzero" fill-opacity="1" /><path clip-path="url(#clip000)" d="M147.362 966.684 L152.246 966.684 L152.246 972.563 L147.362 972.563 L147.362 966.684 Z" fill="#000000" fill-rule="nonzero" fill-opacity="1" /><path clip-path="url(#clip000)" d="M172.431 941.082 Q168.82 941.082 166.991 944.647 Q165.186 948.189 165.186 955.318 Q165.186 962.425 166.991 965.989 Q168.82 969.531 172.431 969.531 Q176.065 969.531 177.871 965.989 Q179.7 962.425 179.7 955.318 Q179.7 948.189 177.871 944.647 Q176.065 941.082 172.431 941.082 M172.431 937.378 Q178.241 937.378 181.297 941.985 Q184.376 946.568 184.376 955.318 Q184.376 964.045 181.297 968.651 Q178.241 973.235 172.431 973.235 Q166.621 973.235 163.542 968.651 Q160.487 964.045 160.487 955.318 Q160.487 946.568 163.542 941.985 Q166.621 937.378 172.431 937.378 Z" fill="#000000" fill-rule="nonzero" fill-opacity="1" /><path clip-path="url(#clip000)" d="M203.172 953.42 Q200.024 953.42 198.172 955.573 Q196.343 957.726 196.343 961.476 Q196.343 965.202 198.172 967.378 Q200.024 969.531 203.172 969.531 Q206.32 969.531 208.149 967.378 Q210 965.202 210 961.476 Q210 957.726 208.149 955.573 Q206.32 953.42 203.172 953.42 M212.454 938.767 L212.454 943.027 Q210.695 942.193 208.889 941.753 Q207.107 941.314 205.348 941.314 Q200.718 941.314 198.264 944.439 Q195.834 947.564 195.487 953.883 Q196.852 951.869 198.912 950.804 Q200.973 949.716 203.449 949.716 Q208.658 949.716 211.667 952.888 Q214.699 956.036 214.699 961.476 Q214.699 966.8 211.551 970.017 Q208.403 973.235 203.172 973.235 Q197.176 973.235 194.005 968.651 Q190.834 964.045 190.834 955.318 Q190.834 947.124 194.723 942.263 Q198.612 937.378 205.162 937.378 Q206.922 937.378 208.704 937.726 Q210.51 938.073 212.454 938.767 Z" fill="#000000" fill-rule="nonzero" fill-opacity="1" /><path clip-path="url(#clip000)" d="M222.801 938.003 L241.158 938.003 L241.158 941.939 L227.084 941.939 L227.084 950.411 Q228.102 950.064 229.121 949.902 Q230.139 949.716 231.158 949.716 Q236.945 949.716 240.324 952.888 Q243.704 956.059 243.704 961.476 Q243.704 967.054 240.232 970.156 Q236.76 973.235 230.44 973.235 Q228.264 973.235 225.996 972.864 Q223.75 972.494 221.343 971.753 L221.343 967.054 Q223.426 968.188 225.648 968.744 Q227.871 969.3 230.347 969.3 Q234.352 969.3 236.69 967.193 Q239.028 965.087 239.028 961.476 Q239.028 957.864 236.69 955.758 Q234.352 953.651 230.347 953.651 Q228.473 953.651 226.598 954.068 Q224.746 954.485 222.801 955.364 L222.801 938.003 Z" fill="#000000" fill-rule="nonzero" fill-opacity="1" /><path clip-path="url(#clip000)" d="M126.205 733.476 Q122.593 733.476 120.765 737.041 Q118.959 740.582 118.959 747.712 Q118.959 754.818 120.765 758.383 Q122.593 761.925 126.205 761.925 Q129.839 761.925 131.644 758.383 Q133.473 754.818 133.473 747.712 Q133.473 740.582 131.644 737.041 Q129.839 733.476 126.205 733.476 M126.205 729.772 Q132.015 729.772 135.07 734.379 Q138.149 738.962 138.149 747.712 Q138.149 756.439 135.07 761.045 Q132.015 765.628 126.205 765.628 Q120.394 765.628 117.316 761.045 Q114.26 756.439 114.26 747.712 Q114.26 738.962 117.316 734.379 Q120.394 729.772 126.205 729.772 Z" fill="#000000" fill-rule="nonzero" fill-opacity="1" /><path clip-path="url(#clip000)" d="M146.366 759.077 L151.251 759.077 L151.251 764.957 L146.366 764.957 L146.366 759.077 Z" fill="#000000" fill-rule="nonzero" fill-opacity="1" /><path clip-path="url(#clip000)" d="M171.436 733.476 Q167.825 733.476 165.996 737.041 Q164.19 740.582 164.19 747.712 Q164.19 754.818 165.996 758.383 Q167.825 761.925 171.436 761.925 Q175.07 761.925 176.876 758.383 Q178.704 754.818 178.704 747.712 Q178.704 740.582 176.876 737.041 Q175.07 733.476 171.436 733.476 M171.436 729.772 Q177.246 729.772 180.301 734.379 Q183.38 738.962 183.38 747.712 Q183.38 756.439 180.301 761.045 Q177.246 765.628 171.436 765.628 Q165.626 765.628 162.547 761.045 Q159.491 756.439 159.491 747.712 Q159.491 738.962 162.547 734.379 Q165.626 729.772 171.436 729.772 Z" fill="#000000" fill-rule="nonzero" fill-opacity="1" /><path clip-path="url(#clip000)" d="M190.417 730.397 L212.639 730.397 L212.639 732.388 L200.093 764.957 L195.209 764.957 L207.014 734.332 L190.417 734.332 L190.417 730.397 Z" fill="#000000" fill-rule="nonzero" fill-opacity="1" /><path clip-path="url(#clip000)" d="M231.76 733.476 Q228.148 733.476 226.32 737.041 Q224.514 740.582 224.514 747.712 Q224.514 754.818 226.32 758.383 Q228.148 761.925 231.76 761.925 Q235.394 761.925 237.199 758.383 Q239.028 754.818 239.028 747.712 Q239.028 740.582 237.199 737.041 Q235.394 733.476 231.76 733.476 M231.76 729.772 Q237.57 729.772 240.625 734.379 Q243.704 738.962 243.704 747.712 Q243.704 756.439 240.625 761.045 Q237.57 765.628 231.76 765.628 Q225.949 765.628 222.871 761.045 Q219.815 756.439 219.815 747.712 Q219.815 738.962 222.871 734.379 Q225.949 729.772 231.76 729.772 Z" fill="#000000" fill-rule="nonzero" fill-opacity="1" /><path clip-path="url(#clip000)" d="M127.2 525.869 Q123.589 525.869 121.76 529.434 Q119.955 532.976 119.955 540.105 Q119.955 547.212 121.76 550.777 Q123.589 554.318 127.2 554.318 Q130.834 554.318 132.64 550.777 Q134.468 547.212 134.468 540.105 Q134.468 532.976 132.64 529.434 Q130.834 525.869 127.2 525.869 M127.2 522.166 Q133.01 522.166 136.066 526.772 Q139.144 531.355 139.144 540.105 Q139.144 548.832 136.066 553.439 Q133.01 558.022 127.2 558.022 Q121.39 558.022 118.311 553.439 Q115.256 548.832 115.256 540.105 Q115.256 531.355 118.311 526.772 Q121.39 522.166 127.2 522.166 Z" fill="#000000" fill-rule="nonzero" fill-opacity="1" /><path clip-path="url(#clip000)" d="M147.362 551.471 L152.246 551.471 L152.246 557.351 L147.362 557.351 L147.362 551.471 Z" fill="#000000" fill-rule="nonzero" fill-opacity="1" /><path clip-path="url(#clip000)" d="M172.431 525.869 Q168.82 525.869 166.991 529.434 Q165.186 532.976 165.186 540.105 Q165.186 547.212 166.991 550.777 Q168.82 554.318 172.431 554.318 Q176.065 554.318 177.871 550.777 Q179.7 547.212 179.7 540.105 Q179.7 532.976 177.871 529.434 Q176.065 525.869 172.431 525.869 M172.431 522.166 Q178.241 522.166 181.297 526.772 Q184.376 531.355 184.376 540.105 Q184.376 548.832 181.297 553.439 Q178.241 558.022 172.431 558.022 Q166.621 558.022 163.542 553.439 Q160.487 548.832 160.487 540.105 Q160.487 531.355 163.542 526.772 Q166.621 522.166 172.431 522.166 Z" fill="#000000" fill-rule="nonzero" fill-opacity="1" /><path clip-path="url(#clip000)" d="M191.413 522.791 L213.635 522.791 L213.635 524.781 L201.088 557.351 L196.204 557.351 L208.01 526.726 L191.413 526.726 L191.413 522.791 Z" fill="#000000" fill-rule="nonzero" fill-opacity="1" /><path clip-path="url(#clip000)" d="M222.801 522.791 L241.158 522.791 L241.158 526.726 L227.084 526.726 L227.084 535.198 Q228.102 534.851 229.121 534.689 Q230.139 534.504 231.158 534.504 Q236.945 534.504 240.324 537.675 Q243.704 540.846 243.704 546.263 Q243.704 551.841 240.232 554.943 Q236.76 558.022 230.44 558.022 Q228.264 558.022 225.996 557.652 Q223.75 557.281 221.343 556.541 L221.343 551.841 Q223.426 552.976 225.648 553.531 Q227.871 554.087 230.347 554.087 Q234.352 554.087 236.69 551.98 Q239.028 549.874 239.028 546.263 Q239.028 542.652 236.69 540.545 Q234.352 538.439 230.347 538.439 Q228.473 538.439 226.598 538.855 Q224.746 539.272 222.801 540.152 L222.801 522.791 Z" fill="#000000" fill-rule="nonzero" fill-opacity="1" /><path clip-path="url(#clip000)" d="M126.205 318.263 Q122.593 318.263 120.765 321.828 Q118.959 325.369 118.959 332.499 Q118.959 339.605 120.765 343.17 Q122.593 346.712 126.205 346.712 Q129.839 346.712 131.644 343.17 Q133.473 339.605 133.473 332.499 Q133.473 325.369 131.644 321.828 Q129.839 318.263 126.205 318.263 M126.205 314.559 Q132.015 314.559 135.07 319.166 Q138.149 323.749 138.149 332.499 Q138.149 341.226 135.07 345.832 Q132.015 350.416 126.205 350.416 Q120.394 350.416 117.316 345.832 Q114.26 341.226 114.26 332.499 Q114.26 323.749 117.316 319.166 Q120.394 314.559 126.205 314.559 Z" fill="#000000" fill-rule="nonzero" fill-opacity="1" /><path clip-path="url(#clip000)" d="M146.366 343.865 L151.251 343.865 L151.251 349.744 L146.366 349.744 L146.366 343.865 Z" fill="#000000" fill-rule="nonzero" fill-opacity="1" /><path clip-path="url(#clip000)" d="M171.436 318.263 Q167.825 318.263 165.996 321.828 Q164.19 325.369 164.19 332.499 Q164.19 339.605 165.996 343.17 Q167.825 346.712 171.436 346.712 Q175.07 346.712 176.876 343.17 Q178.704 339.605 178.704 332.499 Q178.704 325.369 176.876 321.828 Q175.07 318.263 171.436 318.263 M171.436 314.559 Q177.246 314.559 180.301 319.166 Q183.38 323.749 183.38 332.499 Q183.38 341.226 180.301 345.832 Q177.246 350.416 171.436 350.416 Q165.626 350.416 162.547 345.832 Q159.491 341.226 159.491 332.499 Q159.491 323.749 162.547 319.166 Q165.626 314.559 171.436 314.559 Z" fill="#000000" fill-rule="nonzero" fill-opacity="1" /><path clip-path="url(#clip000)" d="M201.598 333.332 Q198.264 333.332 196.343 335.115 Q194.445 336.897 194.445 340.022 Q194.445 343.147 196.343 344.93 Q198.264 346.712 201.598 346.712 Q204.931 346.712 206.852 344.93 Q208.774 343.124 208.774 340.022 Q208.774 336.897 206.852 335.115 Q204.954 333.332 201.598 333.332 M196.922 331.342 Q193.913 330.601 192.223 328.541 Q190.556 326.481 190.556 323.518 Q190.556 319.374 193.496 316.967 Q196.459 314.559 201.598 314.559 Q206.76 314.559 209.699 316.967 Q212.639 319.374 212.639 323.518 Q212.639 326.481 210.949 328.541 Q209.283 330.601 206.297 331.342 Q209.676 332.129 211.551 334.42 Q213.449 336.712 213.449 340.022 Q213.449 345.045 210.371 347.73 Q207.315 350.416 201.598 350.416 Q195.88 350.416 192.801 347.73 Q189.746 345.045 189.746 340.022 Q189.746 336.712 191.644 334.42 Q193.542 332.129 196.922 331.342 M195.209 323.957 Q195.209 326.643 196.875 328.147 Q198.565 329.652 201.598 329.652 Q204.607 329.652 206.297 328.147 Q208.01 326.643 208.01 323.957 Q208.01 321.272 206.297 319.768 Q204.607 318.263 201.598 318.263 Q198.565 318.263 196.875 319.768 Q195.209 321.272 195.209 323.957 Z" fill="#000000" fill-rule="nonzero" fill-opacity="1" /><path clip-path="url(#clip000)" d="M231.76 318.263 Q228.148 318.263 226.32 321.828 Q224.514 325.369 224.514 332.499 Q224.514 339.605 226.32 343.17 Q228.148 346.712 231.76 346.712 Q235.394 346.712 237.199 343.17 Q239.028 339.605 239.028 332.499 Q239.028 325.369 237.199 321.828 Q235.394 318.263 231.76 318.263 M231.76 314.559 Q237.57 314.559 240.625 319.166 Q243.704 323.749 243.704 332.499 Q243.704 341.226 240.625 345.832 Q237.57 350.416 231.76 350.416 Q225.949 350.416 222.871 345.832 Q219.815 341.226 219.815 332.499 Q219.815 323.749 222.871 319.166 Q225.949 314.559 231.76 314.559 Z" fill="#000000" fill-rule="nonzero" fill-opacity="1" /><path clip-path="url(#clip000)" d="M127.2 110.657 Q123.589 110.657 121.76 114.221 Q119.955 117.763 119.955 124.893 Q119.955 131.999 121.76 135.564 Q123.589 139.106 127.2 139.106 Q130.834 139.106 132.64 135.564 Q134.468 131.999 134.468 124.893 Q134.468 117.763 132.64 114.221 Q130.834 110.657 127.2 110.657 M127.2 106.953 Q133.01 106.953 136.066 111.559 Q139.144 116.143 139.144 124.893 Q139.144 133.619 136.066 138.226 Q133.01 142.809 127.2 142.809 Q121.39 142.809 118.311 138.226 Q115.256 133.619 115.256 124.893 Q115.256 116.143 118.311 111.559 Q121.39 106.953 127.2 106.953 Z" fill="#000000" fill-rule="nonzero" fill-opacity="1" /><path clip-path="url(#clip000)" d="M147.362 136.258 L152.246 136.258 L152.246 142.138 L147.362 142.138 L147.362 136.258 Z" fill="#000000" fill-rule="nonzero" fill-opacity="1" /><path clip-path="url(#clip000)" d="M172.431 110.657 Q168.82 110.657 166.991 114.221 Q165.186 117.763 165.186 124.893 Q165.186 131.999 166.991 135.564 Q168.82 139.106 172.431 139.106 Q176.065 139.106 177.871 135.564 Q179.7 131.999 179.7 124.893 Q179.7 117.763 177.871 114.221 Q176.065 110.657 172.431 110.657 M172.431 106.953 Q178.241 106.953 181.297 111.559 Q184.376 116.143 184.376 124.893 Q184.376 133.619 181.297 138.226 Q178.241 142.809 172.431 142.809 Q166.621 142.809 163.542 138.226 Q160.487 133.619 160.487 124.893 Q160.487 116.143 163.542 111.559 Q166.621 106.953 172.431 106.953 Z" fill="#000000" fill-rule="nonzero" fill-opacity="1" /><path clip-path="url(#clip000)" d="M202.593 125.726 Q199.26 125.726 197.338 127.508 Q195.44 129.291 195.44 132.416 Q195.44 135.541 197.338 137.323 Q199.26 139.106 202.593 139.106 Q205.926 139.106 207.848 137.323 Q209.769 135.518 209.769 132.416 Q209.769 129.291 207.848 127.508 Q205.949 125.726 202.593 125.726 M197.917 123.735 Q194.908 122.995 193.218 120.934 Q191.551 118.874 191.551 115.911 Q191.551 111.768 194.491 109.36 Q197.454 106.953 202.593 106.953 Q207.755 106.953 210.695 109.36 Q213.635 111.768 213.635 115.911 Q213.635 118.874 211.945 120.934 Q210.278 122.995 207.292 123.735 Q210.672 124.522 212.547 126.814 Q214.445 129.106 214.445 132.416 Q214.445 137.439 211.366 140.124 Q208.311 142.809 202.593 142.809 Q196.875 142.809 193.797 140.124 Q190.741 137.439 190.741 132.416 Q190.741 129.106 192.639 126.814 Q194.538 124.522 197.917 123.735 M196.204 116.351 Q196.204 119.036 197.871 120.541 Q199.561 122.045 202.593 122.045 Q205.602 122.045 207.292 120.541 Q209.005 119.036 209.005 116.351 Q209.005 113.666 207.292 112.161 Q205.602 110.657 202.593 110.657 Q199.561 110.657 197.871 112.161 Q196.204 113.666 196.204 116.351 Z" fill="#000000" fill-rule="nonzero" fill-opacity="1" /><path clip-path="url(#clip000)" d="M222.801 107.578 L241.158 107.578 L241.158 111.513 L227.084 111.513 L227.084 119.985 Q228.102 119.638 229.121 119.476 Q230.139 119.291 231.158 119.291 Q236.945 119.291 240.324 122.462 Q243.704 125.633 243.704 131.05 Q243.704 136.629 240.232 139.731 Q236.76 142.809 230.44 142.809 Q228.264 142.809 225.996 142.439 Q223.75 142.068 221.343 141.328 L221.343 136.629 Q223.426 137.763 225.648 138.319 Q227.871 138.874 230.347 138.874 Q234.352 138.874 236.69 136.768 Q239.028 134.661 239.028 131.05 Q239.028 127.439 236.69 125.332 Q234.352 123.226 230.347 123.226 Q228.473 123.226 226.598 123.643 Q224.746 124.059 222.801 124.939 L222.801 107.578 Z" fill="#000000" fill-rule="nonzero" fill-opacity="1" /><path clip-path="url(#clip000)" d="M34.7219 748.293 Q31.4754 746.352 28.6108 741.546 Q27.4968 739.668 27.4968 733.875 Q27.4968 727.382 32.6531 723.34 Q37.8093 719.266 46.212 719.266 Q54.6147 719.266 59.771 723.34 Q64.9272 727.382 64.9272 733.875 Q64.9272 737.79 63.3994 740.623 Q61.8398 743.424 58.657 745.27 L77.5631 745.27 L77.5631 751.158 L46.5303 751.158 Q39.1779 751.158 34.7219 748.293 M46.212 725.345 Q39.7508 725.345 36.0905 728.019 Q32.3984 730.66 32.3984 735.307 Q32.3984 739.954 36.0905 742.628 Q39.7508 745.27 46.212 745.27 Q52.6732 745.27 56.3653 742.628 Q60.0256 739.954 60.0256 735.307 Q60.0256 730.66 56.3653 728.019 Q52.6732 725.345 46.212 725.345 Z" fill="#000000" fill-rule="nonzero" fill-opacity="1" /><polyline clip-path="url(#clip002)" style="stroke:#009af9; stroke-linecap:round; stroke-linejoin:round; stroke-width:4; stroke-opacity:1; fill:none" points="338.375,86.1857 441.307,128.864 544.239,321.455 647.171,722.678 750.103,1179.11 853.036,1384.24 955.968,1179.11 1058.9,722.678 1161.83,321.455 1264.76,128.864 1367.7,86.1857 1470.63,128.864 1573.56,321.455 1676.49,722.678 1779.42,1179.11 1882.36,1384.24 1985.29,1179.11 2088.22,722.678 2191.15,321.455 2294.08,128.864 "/>
<circle clip-path="url(#clip002)" cx="338.375" cy="86.1857" r="7.2" fill="#009af9" fill-rule="evenodd" fill-opacity="1" stroke="#000000" stroke-opacity="1" stroke-width="3.2"/>
<circle clip-path="url(#clip002)" cx="441.307" cy="128.864" r="7.2" fill="#009af9" fill-rule="evenodd" fill-opacity="1" stroke="#000000" stroke-opacity="1" stroke-width="3.2"/>
<circle clip-path="url(#clip002)" cx="544.239" cy="321.455" r="7.2" fill="#009af9" fill-rule="evenodd" fill-opacity="1" stroke="#000000" stroke-opacity="1" stroke-width="3.2"/>
<circle clip-path="url(#clip002)" cx="647.171" cy="722.678" r="7.2" fill="#009af9" fill-rule="evenodd" fill-opacity="1" stroke="#000000" stroke-opacity="1" stroke-width="3.2"/>
<circle clip-path="url(#clip002)" cx="750.103" cy="1179.11" r="7.2" fill="#009af9" fill-rule="evenodd" fill-opacity="1" stroke="#000000" stroke-opacity="1" stroke-width="3.2"/>
<circle clip-path="url(#clip002)" cx="853.036" cy="1384.24" r="7.2" fill="#009af9" fill-rule="evenodd" fill-opacity="1" stroke="#000000" stroke-opacity="1" stroke-width="3.2"/>
<circle clip-path="url(#clip002)" cx="955.968" cy="1179.11" r="7.2" fill="#009af9" fill-rule="evenodd" fill-opacity="1" stroke="#000000" stroke-opacity="1" stroke-width="3.2"/>
<circle clip-path="url(#clip002)" cx="1058.9" cy="722.678" r="7.2" fill="#009af9" fill-rule="evenodd" fill-opacity="1" stroke="#000000" stroke-opacity="1" stroke-width="3.2"/>
<circle clip-path="url(#clip002)" cx="1161.83" cy="321.455" r="7.2" fill="#009af9" fill-rule="evenodd" fill-opacity="1" stroke="#000000" stroke-opacity="1" stroke-width="3.2"/>
<circle clip-path="url(#clip002)" cx="1264.76" cy="128.864" r="7.2" fill="#009af9" fill-rule="evenodd" fill-opacity="1" stroke="#000000" stroke-opacity="1" stroke-width="3.2"/>
<circle clip-path="url(#clip002)" cx="1367.7" cy="86.1857" r="7.2" fill="#009af9" fill-rule="evenodd" fill-opacity="1" stroke="#000000" stroke-opacity="1" stroke-width="3.2"/>
<circle clip-path="url(#clip002)" cx="1470.63" cy="128.864" r="7.2" fill="#009af9" fill-rule="evenodd" fill-opacity="1" stroke="#000000" stroke-opacity="1" stroke-width="3.2"/>
<circle clip-path="url(#clip002)" cx="1573.56" cy="321.455" r="7.2" fill="#009af9" fill-rule="evenodd" fill-opacity="1" stroke="#000000" stroke-opacity="1" stroke-width="3.2"/>
<circle clip-path="url(#clip002)" cx="1676.49" cy="722.678" r="7.2" fill="#009af9" fill-rule="evenodd" fill-opacity="1" stroke="#000000" stroke-opacity="1" stroke-width="3.2"/>
<circle clip-path="url(#clip002)" cx="1779.42" cy="1179.11" r="7.2" fill="#009af9" fill-rule="evenodd" fill-opacity="1" stroke="#000000" stroke-opacity="1" stroke-width="3.2"/>
<circle clip-path="url(#clip002)" cx="1882.36" cy="1384.24" r="7.2" fill="#009af9" fill-rule="evenodd" fill-opacity="1" stroke="#000000" stroke-opacity="1" stroke-width="3.2"/>
<circle clip-path="url(#clip002)" cx="1985.29" cy="1179.11" r="7.2" fill="#009af9" fill-rule="evenodd" fill-opacity="1" stroke="#000000" stroke-opacity="1" stroke-width="3.2"/>
<circle clip-path="url(#clip002)" cx="2088.22" cy="722.678" r="7.2" fill="#009af9" fill-rule="evenodd" fill-opacity="1" stroke="#000000" stroke-opacity="1" stroke-width="3.2"/>
<circle clip-path="url(#clip002)" cx="2191.15" cy="321.455" r="7.2" fill="#009af9" fill-rule="evenodd" fill-opacity="1" stroke="#000000" stroke-opacity="1" stroke-width="3.2"/>
<circle clip-path="url(#clip002)" cx="2294.08" cy="128.864" r="7.2" fill="#009af9" fill-rule="evenodd" fill-opacity="1" stroke="#000000" stroke-opacity="1" stroke-width="3.2"/>
</svg>
