<?xml version="1.0" encoding="utf-8"?>
<svg xmlns="http://www.w3.org/2000/svg" xmlns:xlink="http://www.w3.org/1999/xlink" width="600" height="400" viewBox="0 0 2400 1600">
<defs>
  <clipPath id="clip570">
    <rect x="0" y="0" width="2400" height="1600"/>
  </clipPath>
</defs>
<path clip-path="url(#clip570)" d="M0 1600 L2400 1600 L2400 0 L0 0  Z" fill="#ffffff" fill-rule="evenodd" fill-opacity="1"/>
<defs>
  <clipPath id="clip571">
    <rect x="480" y="0" width="1681" height="1600"/>
  </clipPath>
</defs>
<path clip-path="url(#clip570)" d="M189.496 1486.45 L2352.76 1486.45 L2352.76 47.2441 L189.496 47.2441  Z" fill="#ffffff" fill-rule="evenodd" fill-opacity="1"/>
<defs>
  <clipPath id="clip572">
    <rect x="189" y="47" width="2164" height="1440"/>
  </clipPath>
</defs>
<polyline clip-path="url(#clip572)" style="stroke:#000000; stroke-linecap:round; stroke-linejoin:round; stroke-width:2; stroke-opacity:0.1; fill:none" points="542.265,1486.45 542.265,47.2441 "/>
<polyline clip-path="url(#clip572)" style="stroke:#000000; stroke-linecap:round; stroke-linejoin:round; stroke-width:2; stroke-opacity:0.1; fill:none" points="1125.35,1486.45 1125.35,47.2441 "/>
<polyline clip-path="url(#clip572)" style="stroke:#000000; stroke-linecap:round; stroke-linejoin:round; stroke-width:2; stroke-opacity:0.1; fill:none" points="1708.44,1486.45 1708.44,47.2441 "/>
<polyline clip-path="url(#clip572)" style="stroke:#000000; stroke-linecap:round; stroke-linejoin:round; stroke-width:2; stroke-opacity:0.1; fill:none" points="2291.53,1486.45 2291.53,47.2441 "/>
<polyline clip-path="url(#clip570)" style="stroke:#000000; stroke-linecap:round; stroke-linejoin:round; stroke-width:4; stroke-opacity:1; fill:none" points="189.496,1486.45 2352.76,1486.45 "/>
<polyline clip-path="url(#clip570)" style="stroke:#000000; stroke-linecap:round; stroke-linejoin:round; stroke-width:4; stroke-opacity:1; fill:none" points="542.265,1486.45 542.265,1467.55 "/>
<polyline clip-path="url(#clip570)" style="stroke:#000000; stroke-linecap:round; stroke-linejoin:round; stroke-width:4; stroke-opacity:1; fill:none" points="1125.35,1486.45 1125.35,1467.55 "/>
<polyline clip-path="url(#clip570)" style="stroke:#000000; stroke-linecap:round; stroke-linejoin:round; stroke-width:4; stroke-opacity:1; fill:none" points="1708.44,1486.45 1708.44,1467.55 "/>
<polyline clip-path="url(#clip570)" style="stroke:#000000; stroke-linecap:round; stroke-linejoin:round; stroke-width:4; stroke-opacity:1; fill:none" points="2291.53,1486.45 2291.53,1467.55 "/>
<path clip-path="url(#clip570)" d="M536.918 1544.91 L553.237 1544.91 L553.237 1548.85 L531.293 1548.85 L531.293 1544.91 Q533.955 1542.16 538.538 1537.53 Q543.144 1532.88 544.325 1531.53 Q546.57 1529.01 547.45 1527.27 Q548.353 1525.51 548.353 1523.82 Q548.353 1521.07 546.408 1519.33 Q544.487 1517.6 541.385 1517.6 Q539.186 1517.6 536.732 1518.36 Q534.302 1519.13 531.524 1520.68 L531.524 1515.95 Q534.348 1514.82 536.802 1514.24 Q539.255 1513.66 541.293 1513.66 Q546.663 1513.66 549.857 1516.35 Q553.052 1519.03 553.052 1523.52 Q553.052 1525.65 552.242 1527.57 Q551.454 1529.47 549.348 1532.07 Q548.769 1532.74 545.667 1535.95 Q542.566 1539.15 536.918 1544.91 Z" fill="#000000" fill-rule="nonzero" fill-opacity="1" /><path clip-path="url(#clip570)" d="M1128.36 1518.36 L1116.56 1536.81 L1128.36 1536.81 L1128.36 1518.36 M1127.14 1514.29 L1133.02 1514.29 L1133.02 1536.81 L1137.95 1536.81 L1137.95 1540.7 L1133.02 1540.7 L1133.02 1548.85 L1128.36 1548.85 L1128.36 1540.7 L1112.76 1540.7 L1112.76 1536.19 L1127.14 1514.29 Z" fill="#000000" fill-rule="nonzero" fill-opacity="1" /><path clip-path="url(#clip570)" d="M1708.85 1529.7 Q1705.7 1529.7 1703.85 1531.86 Q1702.02 1534.01 1702.02 1537.76 Q1702.02 1541.49 1703.85 1543.66 Q1705.7 1545.82 1708.85 1545.82 Q1712 1545.82 1713.82 1543.66 Q1715.68 1541.49 1715.68 1537.76 Q1715.68 1534.01 1713.82 1531.86 Q1712 1529.7 1708.85 1529.7 M1718.13 1515.05 L1718.13 1519.31 Q1716.37 1518.48 1714.57 1518.04 Q1712.78 1517.6 1711.02 1517.6 Q1706.39 1517.6 1703.94 1520.72 Q1701.51 1523.85 1701.16 1530.17 Q1702.53 1528.15 1704.59 1527.09 Q1706.65 1526 1709.13 1526 Q1714.33 1526 1717.34 1529.17 Q1720.38 1532.32 1720.38 1537.76 Q1720.38 1543.08 1717.23 1546.3 Q1714.08 1549.52 1708.85 1549.52 Q1702.85 1549.52 1699.68 1544.94 Q1696.51 1540.33 1696.51 1531.6 Q1696.51 1523.41 1700.4 1518.55 Q1704.29 1513.66 1710.84 1513.66 Q1712.6 1513.66 1714.38 1514.01 Q1716.19 1514.36 1718.13 1515.05 Z" fill="#000000" fill-rule="nonzero" fill-opacity="1" /><path clip-path="url(#clip570)" d="M2291.53 1532.44 Q2288.2 1532.44 2286.28 1534.22 Q2284.38 1536 2284.38 1539.13 Q2284.38 1542.25 2286.28 1544.03 Q2288.2 1545.82 2291.53 1545.82 Q2294.86 1545.82 2296.79 1544.03 Q2298.71 1542.23 2298.71 1539.13 Q2298.71 1536 2296.79 1534.22 Q2294.89 1532.44 2291.53 1532.44 M2286.86 1530.45 Q2283.85 1529.7 2282.16 1527.64 Q2280.49 1525.58 2280.49 1522.62 Q2280.49 1518.48 2283.43 1516.07 Q2286.39 1513.66 2291.53 1513.66 Q2296.69 1513.66 2299.63 1516.07 Q2302.57 1518.48 2302.57 1522.62 Q2302.57 1525.58 2300.88 1527.64 Q2299.22 1529.7 2296.23 1530.45 Q2299.61 1531.23 2301.49 1533.52 Q2303.38 1535.82 2303.38 1539.13 Q2303.38 1544.15 2300.3 1546.83 Q2297.25 1549.52 2291.53 1549.52 Q2285.81 1549.52 2282.74 1546.83 Q2279.68 1544.15 2279.68 1539.13 Q2279.68 1535.82 2281.58 1533.52 Q2283.48 1531.23 2286.86 1530.45 M2285.14 1523.06 Q2285.14 1525.75 2286.81 1527.25 Q2288.5 1528.76 2291.53 1528.76 Q2294.54 1528.76 2296.23 1527.25 Q2297.94 1525.75 2297.94 1523.06 Q2297.94 1520.38 2296.23 1518.87 Q2294.54 1517.37 2291.53 1517.37 Q2288.5 1517.37 2286.81 1518.87 Q2285.14 1520.38 2285.14 1523.06 Z" fill="#000000" fill-rule="nonzero" fill-opacity="1" /><polyline clip-path="url(#clip572)" style="stroke:#000000; stroke-linecap:round; stroke-linejoin:round; stroke-width:2; stroke-opacity:0.1; fill:none" points="189.496,1336.89 2352.76,1336.89 "/>
<polyline clip-path="url(#clip572)" style="stroke:#000000; stroke-linecap:round; stroke-linejoin:round; stroke-width:2; stroke-opacity:0.1; fill:none" points="189.496,1027.51 2352.76,1027.51 "/>
<polyline clip-path="url(#clip572)" style="stroke:#000000; stroke-linecap:round; stroke-linejoin:round; stroke-width:2; stroke-opacity:0.1; fill:none" points="189.496,718.13 2352.76,718.13 "/>
<polyline clip-path="url(#clip572)" style="stroke:#000000; stroke-linecap:round; stroke-linejoin:round; stroke-width:2; stroke-opacity:0.1; fill:none" points="189.496,408.75 2352.76,408.75 "/>
<polyline clip-path="url(#clip572)" style="stroke:#000000; stroke-linecap:round; stroke-linejoin:round; stroke-width:2; stroke-opacity:0.1; fill:none" points="189.496,99.3696 2352.76,99.3696 "/>
<polyline clip-path="url(#clip570)" style="stroke:#000000; stroke-linecap:round; stroke-linejoin:round; stroke-width:4; stroke-opacity:1; fill:none" points="189.496,1486.45 189.496,47.2441 "/>
<polyline clip-path="url(#clip570)" style="stroke:#000000; stroke-linecap:round; stroke-linejoin:round; stroke-width:4; stroke-opacity:1; fill:none" points="189.496,1336.89 208.394,1336.89 "/>
<polyline clip-path="url(#clip570)" style="stroke:#000000; stroke-linecap:round; stroke-linejoin:round; stroke-width:4; stroke-opacity:1; fill:none" points="189.496,1027.51 208.394,1027.51 "/>
<polyline clip-path="url(#clip570)" style="stroke:#000000; stroke-linecap:round; stroke-linejoin:round; stroke-width:4; stroke-opacity:1; fill:none" points="189.496,718.13 208.394,718.13 "/>
<polyline clip-path="url(#clip570)" style="stroke:#000000; stroke-linecap:round; stroke-linejoin:round; stroke-width:4; stroke-opacity:1; fill:none" points="189.496,408.75 208.394,408.75 "/>
<polyline clip-path="url(#clip570)" style="stroke:#000000; stroke-linecap:round; stroke-linejoin:round; stroke-width:4; stroke-opacity:1; fill:none" points="189.496,99.3696 208.394,99.3696 "/>
<path clip-path="url(#clip570)" d="M51.6634 1356.68 L59.3023 1356.68 L59.3023 1330.32 L50.9921 1331.98 L50.9921 1327.72 L59.256 1326.06 L63.9319 1326.06 L63.9319 1356.68 L71.5707 1356.68 L71.5707 1360.62 L51.6634 1360.62 L51.6634 1356.68 Z" fill="#000000" fill-rule="nonzero" fill-opacity="1" /><path clip-path="url(#clip570)" d="M91.0151 1329.14 Q87.404 1329.14 85.5753 1332.7 Q83.7697 1336.24 83.7697 1343.37 Q83.7697 1350.48 85.5753 1354.04 Q87.404 1357.59 91.0151 1357.59 Q94.6493 1357.59 96.4548 1354.04 Q98.2835 1350.48 98.2835 1343.37 Q98.2835 1336.24 96.4548 1332.7 Q94.6493 1329.14 91.0151 1329.14 M91.0151 1325.43 Q96.8252 1325.43 99.8808 1330.04 Q102.959 1334.62 102.959 1343.37 Q102.959 1352.1 99.8808 1356.71 Q96.8252 1361.29 91.0151 1361.29 Q85.2049 1361.29 82.1262 1356.71 Q79.0707 1352.1 79.0707 1343.37 Q79.0707 1334.62 82.1262 1330.04 Q85.2049 1325.43 91.0151 1325.43 Z" fill="#000000" fill-rule="nonzero" fill-opacity="1" /><path clip-path="url(#clip570)" d="M102.959 1319.53 L127.071 1319.53 L127.071 1322.73 L102.959 1322.73 L102.959 1319.53 Z" fill="#000000" fill-rule="nonzero" fill-opacity="1" /><path clip-path="url(#clip570)" d="M145.71 1308.44 L136.118 1323.43 L145.71 1323.43 L145.71 1308.44 M144.713 1305.13 L149.49 1305.13 L149.49 1323.43 L153.496 1323.43 L153.496 1326.59 L149.49 1326.59 L149.49 1333.21 L145.71 1333.21 L145.71 1326.59 L133.033 1326.59 L133.033 1322.92 L144.713 1305.13 Z" fill="#000000" fill-rule="nonzero" fill-opacity="1" /><path clip-path="url(#clip570)" d="M52.585 1047.3 L60.2238 1047.3 L60.2238 1020.94 L51.9137 1022.6 L51.9137 1018.34 L60.1776 1016.68 L64.8535 1016.68 L64.8535 1047.3 L72.4923 1047.3 L72.4923 1051.24 L52.585 1051.24 L52.585 1047.3 Z" fill="#000000" fill-rule="nonzero" fill-opacity="1" /><path clip-path="url(#clip570)" d="M91.9366 1019.76 Q88.3255 1019.76 86.4969 1023.32 Q84.6913 1026.86 84.6913 1033.99 Q84.6913 1041.1 86.4969 1044.66 Q88.3255 1048.2 91.9366 1048.2 Q95.5709 1048.2 97.3764 1044.66 Q99.2051 1041.1 99.2051 1033.99 Q99.2051 1026.86 97.3764 1023.32 Q95.5709 1019.76 91.9366 1019.76 M91.9366 1016.05 Q97.7468 1016.05 100.802 1020.66 Q103.881 1025.24 103.881 1033.99 Q103.881 1042.72 100.802 1047.33 Q97.7468 1051.91 91.9366 1051.91 Q86.1265 1051.91 83.0478 1047.33 Q79.9923 1042.72 79.9923 1033.99 Q79.9923 1025.24 83.0478 1020.66 Q86.1265 1016.05 91.9366 1016.05 Z" fill="#000000" fill-rule="nonzero" fill-opacity="1" /><path clip-path="url(#clip570)" d="M103.881 1010.15 L127.993 1010.15 L127.993 1013.35 L103.881 1013.35 L103.881 1010.15 Z" fill="#000000" fill-rule="nonzero" fill-opacity="1" /><path clip-path="url(#clip570)" d="M147.703 1008.69 Q150.43 1009.27 151.954 1011.11 Q153.496 1012.96 153.496 1015.66 Q153.496 1019.82 150.637 1022.1 Q147.778 1024.37 142.512 1024.37 Q140.744 1024.37 138.863 1024.02 Q137.002 1023.68 135.008 1022.98 L135.008 1019.31 Q136.588 1020.23 138.469 1020.7 Q140.349 1021.18 142.399 1021.18 Q145.973 1021.18 147.835 1019.76 Q149.716 1018.35 149.716 1015.66 Q149.716 1013.18 147.966 1011.79 Q146.236 1010.38 143.133 1010.38 L139.86 1010.38 L139.86 1007.26 L143.283 1007.26 Q146.086 1007.26 147.571 1006.15 Q149.057 1005.02 149.057 1002.91 Q149.057 1000.75 147.515 999.603 Q145.992 998.436 143.133 998.436 Q141.572 998.436 139.785 998.775 Q137.998 999.114 135.854 999.828 L135.854 996.443 Q138.017 995.841 139.898 995.54 Q141.797 995.239 143.471 995.239 Q147.797 995.239 150.317 997.214 Q152.838 999.17 152.838 1002.52 Q152.838 1004.85 151.502 1006.47 Q150.167 1008.07 147.703 1008.69 Z" fill="#000000" fill-rule="nonzero" fill-opacity="1" /><path clip-path="url(#clip570)" d="M53.3561 737.922 L60.995 737.922 L60.995 711.557 L52.6848 713.223 L52.6848 708.964 L60.9487 707.297 L65.6246 707.297 L65.6246 737.922 L73.2634 737.922 L73.2634 741.857 L53.3561 741.857 L53.3561 737.922 Z" fill="#000000" fill-rule="nonzero" fill-opacity="1" /><path clip-path="url(#clip570)" d="M92.7078 710.376 Q89.0967 710.376 87.268 713.941 Q85.4624 717.482 85.4624 724.612 Q85.4624 731.718 87.268 735.283 Q89.0967 738.825 92.7078 738.825 Q96.342 738.825 98.1475 735.283 Q99.9762 731.718 99.9762 724.612 Q99.9762 717.482 98.1475 713.941 Q96.342 710.376 92.7078 710.376 M92.7078 706.672 Q98.5179 706.672 101.573 711.279 Q104.652 715.862 104.652 724.612 Q104.652 733.339 101.573 737.945 Q98.5179 742.529 92.7078 742.529 Q86.8976 742.529 83.8189 737.945 Q80.7634 733.339 80.7634 724.612 Q80.7634 715.862 83.8189 711.279 Q86.8976 706.672 92.7078 706.672 Z" fill="#000000" fill-rule="nonzero" fill-opacity="1" /><path clip-path="url(#clip570)" d="M104.652 700.774 L128.764 700.774 L128.764 703.971 L104.652 703.971 L104.652 700.774 Z" fill="#000000" fill-rule="nonzero" fill-opacity="1" /><path clip-path="url(#clip570)" d="M140.236 711.25 L153.496 711.25 L153.496 714.447 L135.666 714.447 L135.666 711.25 Q137.829 709.011 141.553 705.25 Q145.296 701.47 146.255 700.379 Q148.079 698.329 148.794 696.918 Q149.527 695.489 149.527 694.116 Q149.527 691.878 147.948 690.467 Q146.387 689.056 143.866 689.056 Q142.08 689.056 140.086 689.677 Q138.111 690.298 135.854 691.558 L135.854 687.721 Q138.149 686.799 140.142 686.329 Q142.136 685.859 143.791 685.859 Q148.155 685.859 150.75 688.041 Q153.345 690.223 153.345 693.871 Q153.345 695.602 152.687 697.163 Q152.048 698.705 150.336 700.811 Q149.866 701.357 147.346 703.971 Q144.826 706.566 140.236 711.25 Z" fill="#000000" fill-rule="nonzero" fill-opacity="1" /><path clip-path="url(#clip570)" d="M53.0552 428.542 L60.694 428.542 L60.694 402.177 L52.3839 403.843 L52.3839 399.584 L60.6477 397.917 L65.3236 397.917 L65.3236 428.542 L72.9625 428.542 L72.9625 432.477 L53.0552 432.477 L53.0552 428.542 Z" fill="#000000" fill-rule="nonzero" fill-opacity="1" /><path clip-path="url(#clip570)" d="M92.4068 400.996 Q88.7957 400.996 86.967 404.561 Q85.1615 408.102 85.1615 415.232 Q85.1615 422.338 86.967 425.903 Q88.7957 429.445 92.4068 429.445 Q96.0411 429.445 97.8466 425.903 Q99.6753 422.338 99.6753 415.232 Q99.6753 408.102 97.8466 404.561 Q96.0411 400.996 92.4068 400.996 M92.4068 397.292 Q98.217 397.292 101.273 401.899 Q104.351 406.482 104.351 415.232 Q104.351 423.959 101.273 428.565 Q98.217 433.149 92.4068 433.149 Q86.5967 433.149 83.518 428.565 Q80.4625 423.959 80.4625 415.232 Q80.4625 406.482 83.518 401.899 Q86.5967 397.292 92.4068 397.292 Z" fill="#000000" fill-rule="nonzero" fill-opacity="1" /><path clip-path="url(#clip570)" d="M104.351 391.394 L128.463 391.394 L128.463 394.591 L104.351 394.591 L104.351 391.394 Z" fill="#000000" fill-rule="nonzero" fill-opacity="1" /><path clip-path="url(#clip570)" d="M137.321 401.87 L143.528 401.87 L143.528 380.448 L136.776 381.802 L136.776 378.341 L143.49 376.987 L147.289 376.987 L147.289 401.87 L153.496 401.87 L153.496 405.067 L137.321 405.067 L137.321 401.87 Z" fill="#000000" fill-rule="nonzero" fill-opacity="1" /><path clip-path="url(#clip570)" d="M82.7903 119.162 L90.4291 119.162 L90.4291 92.7965 L82.119 94.4631 L82.119 90.2039 L90.3828 88.5372 L95.0587 88.5372 L95.0587 119.162 L102.698 119.162 L102.698 123.097 L82.7903 123.097 L82.7903 119.162 Z" fill="#000000" fill-rule="nonzero" fill-opacity="1" /><path clip-path="url(#clip570)" d="M122.142 91.6159 Q118.531 91.6159 116.702 95.1807 Q114.897 98.7224 114.897 105.852 Q114.897 112.958 116.702 116.523 Q118.531 120.065 122.142 120.065 Q125.776 120.065 127.582 116.523 Q129.41 112.958 129.41 105.852 Q129.41 98.7224 127.582 95.1807 Q125.776 91.6159 122.142 91.6159 M122.142 87.9122 Q127.952 87.9122 131.008 92.5187 Q134.086 97.102 134.086 105.852 Q134.086 114.579 131.008 119.185 Q127.952 123.769 122.142 123.769 Q116.332 123.769 113.253 119.185 Q110.198 114.579 110.198 105.852 Q110.198 97.102 113.253 92.5187 Q116.332 87.9122 122.142 87.9122 Z" fill="#000000" fill-rule="nonzero" fill-opacity="1" /><path clip-path="url(#clip570)" d="M143.791 70.1083 Q140.857 70.1083 139.371 73.0047 Q137.904 75.8823 137.904 81.6751 Q137.904 87.449 139.371 90.3454 Q140.857 93.223 143.791 93.223 Q146.744 93.223 148.211 90.3454 Q149.697 87.449 149.697 81.6751 Q149.697 75.8823 148.211 73.0047 Q146.744 70.1083 143.791 70.1083 M143.791 67.099 Q148.512 67.099 150.994 70.8418 Q153.496 74.5657 153.496 81.6751 Q153.496 88.7656 150.994 92.5083 Q148.512 96.2323 143.791 96.2323 Q139.07 96.2323 136.569 92.5083 Q134.086 88.7656 134.086 81.6751 Q134.086 74.5657 136.569 70.8418 Q139.07 67.099 143.791 67.099 Z" fill="#000000" fill-rule="nonzero" fill-opacity="1" /><polyline clip-path="url(#clip572)" style="stroke:#009af9; stroke-linecap:round; stroke-linejoin:round; stroke-width:4; stroke-opacity:1; fill:none" points="250.72,87.9763 542.265,338.503 833.809,678.765 1125.35,739.765 1416.9,752.127 1708.44,1122.03 1999.99,1282.71 2291.53,1445.72 "/>
<line clip-path="url(#clip572)" x1="250.72" y1="87.9763" x2="234.72" y2="71.9763" style="stroke:#009af9; stroke-width:4; stroke-opacity:1"/>
<line clip-path="url(#clip572)" x1="250.72" y1="87.9763" x2="234.72" y2="103.976" style="stroke:#009af9; stroke-width:4; stroke-opacity:1"/>
<line clip-path="url(#clip572)" x1="250.72" y1="87.9763" x2="266.72" y2="103.976" style="stroke:#009af9; stroke-width:4; stroke-opacity:1"/>
<line clip-path="url(#clip572)" x1="250.72" y1="87.9763" x2="266.72" y2="71.9763" style="stroke:#009af9; stroke-width:4; stroke-opacity:1"/>
<line clip-path="url(#clip572)" x1="542.265" y1="338.503" x2="526.265" y2="322.503" style="stroke:#009af9; stroke-width:4; stroke-opacity:1"/>
<line clip-path="url(#clip572)" x1="542.265" y1="338.503" x2="526.265" y2="354.503" style="stroke:#009af9; stroke-width:4; stroke-opacity:1"/>
<line clip-path="url(#clip572)" x1="542.265" y1="338.503" x2="558.265" y2="354.503" style="stroke:#009af9; stroke-width:4; stroke-opacity:1"/>
<line clip-path="url(#clip572)" x1="542.265" y1="338.503" x2="558.265" y2="322.503" style="stroke:#009af9; stroke-width:4; stroke-opacity:1"/>
<line clip-path="url(#clip572)" x1="833.809" y1="678.765" x2="817.809" y2="662.765" style="stroke:#009af9; stroke-width:4; stroke-opacity:1"/>
<line clip-path="url(#clip572)" x1="833.809" y1="678.765" x2="817.809" y2="694.765" style="stroke:#009af9; stroke-width:4; stroke-opacity:1"/>
<line clip-path="url(#clip572)" x1="833.809" y1="678.765" x2="849.809" y2="694.765" style="stroke:#009af9; stroke-width:4; stroke-opacity:1"/>
<line clip-path="url(#clip572)" x1="833.809" y1="678.765" x2="849.809" y2="662.765" style="stroke:#009af9; stroke-width:4; stroke-opacity:1"/>
<line clip-path="url(#clip572)" x1="1125.35" y1="739.765" x2="1109.35" y2="723.765" style="stroke:#009af9; stroke-width:4; stroke-opacity:1"/>
<line clip-path="url(#clip572)" x1="1125.35" y1="739.765" x2="1109.35" y2="755.765" style="stroke:#009af9; stroke-width:4; stroke-opacity:1"/>
<line clip-path="url(#clip572)" x1="1125.35" y1="739.765" x2="1141.35" y2="755.765" style="stroke:#009af9; stroke-width:4; stroke-opacity:1"/>
<line clip-path="url(#clip572)" x1="1125.35" y1="739.765" x2="1141.35" y2="723.765" style="stroke:#009af9; stroke-width:4; stroke-opacity:1"/>
<line clip-path="url(#clip572)" x1="1416.9" y1="752.127" x2="1400.9" y2="736.127" style="stroke:#009af9; stroke-width:4; stroke-opacity:1"/>
<line clip-path="url(#clip572)" x1="1416.9" y1="752.127" x2="1400.9" y2="768.127" style="stroke:#009af9; stroke-width:4; stroke-opacity:1"/>
<line clip-path="url(#clip572)" x1="1416.9" y1="752.127" x2="1432.9" y2="768.127" style="stroke:#009af9; stroke-width:4; stroke-opacity:1"/>
<line clip-path="url(#clip572)" x1="1416.9" y1="752.127" x2="1432.9" y2="736.127" style="stroke:#009af9; stroke-width:4; stroke-opacity:1"/>
<line clip-path="url(#clip572)" x1="1708.44" y1="1122.03" x2="1692.44" y2="1106.03" style="stroke:#009af9; stroke-width:4; stroke-opacity:1"/>
<line clip-path="url(#clip572)" x1="1708.44" y1="1122.03" x2="1692.44" y2="1138.03" style="stroke:#009af9; stroke-width:4; stroke-opacity:1"/>
<line clip-path="url(#clip572)" x1="1708.44" y1="1122.03" x2="1724.44" y2="1138.03" style="stroke:#009af9; stroke-width:4; stroke-opacity:1"/>
<line clip-path="url(#clip572)" x1="1708.44" y1="1122.03" x2="1724.44" y2="1106.03" style="stroke:#009af9; stroke-width:4; stroke-opacity:1"/>
<line clip-path="url(#clip572)" x1="1999.99" y1="1282.71" x2="1983.99" y2="1266.71" style="stroke:#009af9; stroke-width:4; stroke-opacity:1"/>
<line clip-path="url(#clip572)" x1="1999.99" y1="1282.71" x2="1983.99" y2="1298.71" style="stroke:#009af9; stroke-width:4; stroke-opacity:1"/>
<line clip-path="url(#clip572)" x1="1999.99" y1="1282.71" x2="2015.99" y2="1298.71" style="stroke:#009af9; stroke-width:4; stroke-opacity:1"/>
<line clip-path="url(#clip572)" x1="1999.99" y1="1282.71" x2="2015.99" y2="1266.71" style="stroke:#009af9; stroke-width:4; stroke-opacity:1"/>
<line clip-path="url(#clip572)" x1="2291.53" y1="1445.72" x2="2275.53" y2="1429.72" style="stroke:#009af9; stroke-width:4; stroke-opacity:1"/>
<line clip-path="url(#clip572)" x1="2291.53" y1="1445.72" x2="2275.53" y2="1461.72" style="stroke:#009af9; stroke-width:4; stroke-opacity:1"/>
<line clip-path="url(#clip572)" x1="2291.53" y1="1445.72" x2="2307.53" y2="1461.72" style="stroke:#009af9; stroke-width:4; stroke-opacity:1"/>
<line clip-path="url(#clip572)" x1="2291.53" y1="1445.72" x2="2307.53" y2="1429.72" style="stroke:#009af9; stroke-width:4; stroke-opacity:1"/>
<path clip-path="url(#clip570)" d="M1816.13 198.898 L2280.65 198.898 L2280.65 95.2176 L1816.13 95.2176  Z" fill="#ffffff" fill-rule="evenodd" fill-opacity="1"/>
<polyline clip-path="url(#clip570)" style="stroke:#000000; stroke-linecap:round; stroke-linejoin:round; stroke-width:4; stroke-opacity:1; fill:none" points="1816.13,198.898 2280.65,198.898 2280.65,95.2176 1816.13,95.2176 1816.13,198.898 "/>
<polyline clip-path="url(#clip570)" style="stroke:#009af9; stroke-linecap:round; stroke-linejoin:round; stroke-width:4; stroke-opacity:1; fill:none" points="1840.16,147.058 1984.38,147.058 "/>
<line clip-path="url(#clip570)" x1="1912.27" y1="147.058" x2="1890.02" y2="124.802" style="stroke:#009af9; stroke-width:4.55111; stroke-opacity:1"/>
<line clip-path="url(#clip570)" x1="1912.27" y1="147.058" x2="1890.02" y2="169.313" style="stroke:#009af9; stroke-width:4.55111; stroke-opacity:1"/>
<line clip-path="url(#clip570)" x1="1912.27" y1="147.058" x2="1934.53" y2="169.313" style="stroke:#009af9; stroke-width:4.55111; stroke-opacity:1"/>
<line clip-path="url(#clip570)" x1="1912.27" y1="147.058" x2="1934.53" y2="124.802" style="stroke:#009af9; stroke-width:4.55111; stroke-opacity:1"/>
<path clip-path="url(#clip570)" d="M2012.35 128.111 L2012.35 175.518 L2008.42 175.518 L2008.42 128.111 L2012.35 128.111 Z" fill="#000000" fill-rule="nonzero" fill-opacity="1" /><path clip-path="url(#clip570)" d="M2024.76 143.041 Q2026.17 140.68 2029.67 138.597 Q2031.03 137.787 2035.25 137.787 Q2039.97 137.787 2042.91 141.537 Q2045.87 145.287 2045.87 151.398 Q2045.87 157.509 2042.91 161.259 Q2039.97 165.009 2035.25 165.009 Q2032.4 165.009 2030.34 163.898 Q2028.3 162.763 2026.96 160.449 L2026.96 174.199 L2022.68 174.199 L2022.68 151.629 Q2022.68 146.282 2024.76 143.041 M2041.45 151.398 Q2041.45 146.699 2039.51 144.037 Q2037.58 141.352 2034.2 141.352 Q2030.83 141.352 2028.88 144.037 Q2026.96 146.699 2026.96 151.398 Q2026.96 156.097 2028.88 158.782 Q2030.83 161.444 2034.2 161.444 Q2037.58 161.444 2039.51 158.782 Q2041.45 156.097 2041.45 151.398 Z" fill="#000000" fill-rule="nonzero" fill-opacity="1" /><path clip-path="url(#clip570)" d="M2062.98 141.398 Q2059.55 141.398 2057.56 144.083 Q2055.57 146.745 2055.57 151.398 Q2055.57 156.051 2057.54 158.736 Q2059.53 161.398 2062.98 161.398 Q2066.38 161.398 2068.37 158.713 Q2070.36 156.027 2070.36 151.398 Q2070.36 146.791 2068.37 144.106 Q2066.38 141.398 2062.98 141.398 M2062.98 137.787 Q2068.53 137.787 2071.7 141.398 Q2074.88 145.009 2074.88 151.398 Q2074.88 157.764 2071.7 161.398 Q2068.53 165.009 2062.98 165.009 Q2057.4 165.009 2054.23 161.398 Q2051.08 157.764 2051.08 151.398 Q2051.08 145.009 2054.23 141.398 Q2057.4 137.787 2062.98 137.787 Z" fill="#000000" fill-rule="nonzero" fill-opacity="1" /><path clip-path="url(#clip570)" d="M2081.5 154.106 L2081.5 138.412 L2085.76 138.412 L2085.76 153.944 Q2085.76 157.625 2087.19 159.476 Q2088.63 161.305 2091.5 161.305 Q2094.95 161.305 2096.94 159.106 Q2098.95 156.907 2098.95 153.111 L2098.95 138.412 L2103.21 138.412 L2103.21 164.338 L2098.95 164.338 L2098.95 160.356 Q2097.4 162.717 2095.34 163.875 Q2093.3 165.009 2090.59 165.009 Q2086.13 165.009 2083.81 162.231 Q2081.5 159.453 2081.5 154.106 M2092.21 137.787 L2092.21 137.787 Z" fill="#000000" fill-rule="nonzero" fill-opacity="1" /><path clip-path="url(#clip570)" d="M2116.2 131.051 L2116.2 138.412 L2124.97 138.412 L2124.97 141.722 L2116.2 141.722 L2116.2 155.796 Q2116.2 158.967 2117.05 159.87 Q2117.93 160.773 2120.59 160.773 L2124.97 160.773 L2124.97 164.338 L2120.59 164.338 Q2115.66 164.338 2113.79 162.509 Q2111.91 160.657 2111.91 155.796 L2111.91 141.722 L2108.79 141.722 L2108.79 138.412 L2111.91 138.412 L2111.91 131.051 L2116.2 131.051 Z" fill="#000000" fill-rule="nonzero" fill-opacity="1" /><path clip-path="url(#clip570)" d="M2143.49 149.453 L2155.96 149.453 L2155.96 153.25 L2143.49 153.25 L2143.49 149.453 Z" fill="#000000" fill-rule="nonzero" fill-opacity="1" /><path clip-path="url(#clip570)" d="M2179.74 143.041 Q2181.15 140.68 2184.64 138.597 Q2186.01 137.787 2190.22 137.787 Q2194.94 137.787 2197.88 141.537 Q2200.85 145.287 2200.85 151.398 Q2200.85 157.509 2197.88 161.259 Q2194.94 165.009 2190.22 165.009 Q2187.38 165.009 2185.32 163.898 Q2183.28 162.763 2181.94 160.449 L2181.94 174.199 L2177.65 174.199 L2177.65 151.629 Q2177.65 146.282 2179.74 143.041 M2196.43 151.398 Q2196.43 146.699 2194.48 144.037 Q2192.56 141.352 2189.18 141.352 Q2185.8 141.352 2183.86 144.037 Q2181.94 146.699 2181.94 151.398 Q2181.94 156.097 2183.86 158.782 Q2185.8 161.444 2189.18 161.444 Q2192.56 161.444 2194.48 158.782 Q2196.43 156.097 2196.43 151.398 Z" fill="#000000" fill-rule="nonzero" fill-opacity="1" /><path clip-path="url(#clip570)" d="M2207.91 138.412 L2212.17 138.412 L2212.17 164.338 L2207.91 164.338 L2207.91 138.412 M2207.91 128.319 L2212.17 128.319 L2212.17 133.713 L2207.91 133.713 L2207.91 128.319 Z" fill="#000000" fill-rule="nonzero" fill-opacity="1" /><path clip-path="url(#clip570)" d="M2242.63 148.689 L2242.63 164.338 L2238.37 164.338 L2238.37 148.828 Q2238.37 145.148 2236.94 143.319 Q2235.5 141.49 2232.63 141.49 Q2229.18 141.49 2227.19 143.69 Q2225.2 145.889 2225.2 149.685 L2225.2 164.338 L2220.92 164.338 L2220.92 138.412 L2225.2 138.412 L2225.2 142.44 Q2226.73 140.102 2228.79 138.944 Q2230.87 137.787 2233.58 137.787 Q2238.05 137.787 2240.34 140.565 Q2242.63 143.319 2242.63 148.689 Z" fill="#000000" fill-rule="nonzero" fill-opacity="1" /><path clip-path="url(#clip570)" d="M2256.61 128.111 L2256.61 175.518 L2252.68 175.518 L2252.68 128.111 L2256.61 128.111 Z" fill="#000000" fill-rule="nonzero" fill-opacity="1" /></svg>
