<?xml version="1.0" encoding="utf-8"?>
<svg xmlns="http://www.w3.org/2000/svg" xmlns:xlink="http://www.w3.org/1999/xlink" width="600" height="400" viewBox="0 0 2400 1600">
<defs>
  <clipPath id="clip390">
    <rect x="0" y="0" width="2400" height="1600"/>
  </clipPath>
</defs>
<path clip-path="url(#clip390)" d="M0 1600 L2400 1600 L2400 0 L0 0  Z" fill="#ffffff" fill-rule="evenodd" fill-opacity="1"/>
<defs>
  <clipPath id="clip391">
    <rect x="480" y="0" width="1681" height="1600"/>
  </clipPath>
</defs>
<path clip-path="url(#clip390)" d="M250.028 1423.18 L2352.76 1423.18 L2352.76 47.2441 L250.028 47.2441  Z" fill="#ffffff" fill-rule="evenodd" fill-opacity="1"/>
<defs>
  <clipPath id="clip392">
    <rect x="250" y="47" width="2104" height="1377"/>
  </clipPath>
</defs>
<polyline clip-path="url(#clip392)" style="stroke:#000000; stroke-linecap:round; stroke-linejoin:round; stroke-width:2; stroke-opacity:0.1; fill:none" points="309.539,1423.18 309.539,47.2441 "/>
<polyline clip-path="url(#clip392)" style="stroke:#000000; stroke-linecap:round; stroke-linejoin:round; stroke-width:2; stroke-opacity:0.1; fill:none" points="719.078,1423.18 719.078,47.2441 "/>
<polyline clip-path="url(#clip392)" style="stroke:#000000; stroke-linecap:round; stroke-linejoin:round; stroke-width:2; stroke-opacity:0.1; fill:none" points="1128.62,1423.18 1128.62,47.2441 "/>
<polyline clip-path="url(#clip392)" style="stroke:#000000; stroke-linecap:round; stroke-linejoin:round; stroke-width:2; stroke-opacity:0.1; fill:none" points="1538.16,1423.18 1538.16,47.2441 "/>
<polyline clip-path="url(#clip392)" style="stroke:#000000; stroke-linecap:round; stroke-linejoin:round; stroke-width:2; stroke-opacity:0.1; fill:none" points="1947.7,1423.18 1947.7,47.2441 "/>
<polyline clip-path="url(#clip392)" style="stroke:#000000; stroke-linecap:round; stroke-linejoin:round; stroke-width:2; stroke-opacity:0.1; fill:none" points="250.028,1385.86 2352.76,1385.86 "/>
<polyline clip-path="url(#clip392)" style="stroke:#000000; stroke-linecap:round; stroke-linejoin:round; stroke-width:2; stroke-opacity:0.1; fill:none" points="250.028,1177.24 2352.76,1177.24 "/>
<polyline clip-path="url(#clip392)" style="stroke:#000000; stroke-linecap:round; stroke-linejoin:round; stroke-width:2; stroke-opacity:0.1; fill:none" points="250.028,968.63 2352.76,968.63 "/>
<polyline clip-path="url(#clip392)" style="stroke:#000000; stroke-linecap:round; stroke-linejoin:round; stroke-width:2; stroke-opacity:0.1; fill:none" points="250.028,760.016 2352.76,760.016 "/>
<polyline clip-path="url(#clip392)" style="stroke:#000000; stroke-linecap:round; stroke-linejoin:round; stroke-width:2; stroke-opacity:0.1; fill:none" points="250.028,551.402 2352.76,551.402 "/>
<polyline clip-path="url(#clip392)" style="stroke:#000000; stroke-linecap:round; stroke-linejoin:round; stroke-width:2; stroke-opacity:0.1; fill:none" points="250.028,342.787 2352.76,342.787 "/>
<polyline clip-path="url(#clip392)" style="stroke:#000000; stroke-linecap:round; stroke-linejoin:round; stroke-width:2; stroke-opacity:0.1; fill:none" points="250.028,134.173 2352.76,134.173 "/>
<polyline clip-path="url(#clip390)" style="stroke:#000000; stroke-linecap:round; stroke-linejoin:round; stroke-width:4; stroke-opacity:1; fill:none" points="250.028,1423.18 2352.76,1423.18 "/>
<polyline clip-path="url(#clip390)" style="stroke:#000000; stroke-linecap:round; stroke-linejoin:round; stroke-width:4; stroke-opacity:1; fill:none" points="309.539,1423.18 309.539,1404.28 "/>
<polyline clip-path="url(#clip390)" style="stroke:#000000; stroke-linecap:round; stroke-linejoin:round; stroke-width:4; stroke-opacity:1; fill:none" points="719.078,1423.18 719.078,1404.28 "/>
<polyline clip-path="url(#clip390)" style="stroke:#000000; stroke-linecap:round; stroke-linejoin:round; stroke-width:4; stroke-opacity:1; fill:none" points="1128.62,1423.18 1128.62,1404.28 "/>
<polyline clip-path="url(#clip390)" style="stroke:#000000; stroke-linecap:round; stroke-linejoin:round; stroke-width:4; stroke-opacity:1; fill:none" points="1538.16,1423.18 1538.16,1404.28 "/>
<polyline clip-path="url(#clip390)" style="stroke:#000000; stroke-linecap:round; stroke-linejoin:round; stroke-width:4; stroke-opacity:1; fill:none" points="1947.7,1423.18 1947.7,1404.28 "/>
<path clip-path="url(#clip390)" d="M286.924 1454.1 Q283.313 1454.1 281.484 1457.66 Q279.678 1461.2 279.678 1468.33 Q279.678 1475.44 281.484 1479.01 Q283.313 1482.55 286.924 1482.55 Q290.558 1482.55 292.363 1479.01 Q294.192 1475.44 294.192 1468.33 Q294.192 1461.2 292.363 1457.66 Q290.558 1454.1 286.924 1454.1 M286.924 1450.39 Q292.734 1450.39 295.789 1455 Q298.868 1459.58 298.868 1468.33 Q298.868 1477.06 295.789 1481.67 Q292.734 1486.25 286.924 1486.25 Q281.114 1486.25 278.035 1481.67 Q274.979 1477.06 274.979 1468.33 Q274.979 1459.58 278.035 1455 Q281.114 1450.39 286.924 1450.39 Z" fill="#000000" fill-rule="nonzero" fill-opacity="1" /><path clip-path="url(#clip390)" d="M307.086 1479.7 L311.97 1479.7 L311.97 1485.58 L307.086 1485.58 L307.086 1479.7 Z" fill="#000000" fill-rule="nonzero" fill-opacity="1" /><path clip-path="url(#clip390)" d="M332.155 1454.1 Q328.544 1454.1 326.715 1457.66 Q324.91 1461.2 324.91 1468.33 Q324.91 1475.44 326.715 1479.01 Q328.544 1482.55 332.155 1482.55 Q335.789 1482.55 337.595 1479.01 Q339.423 1475.44 339.423 1468.33 Q339.423 1461.2 337.595 1457.66 Q335.789 1454.1 332.155 1454.1 M332.155 1450.39 Q337.965 1450.39 341.021 1455 Q344.099 1459.58 344.099 1468.33 Q344.099 1477.06 341.021 1481.67 Q337.965 1486.25 332.155 1486.25 Q326.345 1486.25 323.266 1481.67 Q320.211 1477.06 320.211 1468.33 Q320.211 1459.58 323.266 1455 Q326.345 1450.39 332.155 1450.39 Z" fill="#000000" fill-rule="nonzero" fill-opacity="1" /><path clip-path="url(#clip390)" d="M697.261 1454.1 Q693.65 1454.1 691.822 1457.66 Q690.016 1461.2 690.016 1468.33 Q690.016 1475.44 691.822 1479.01 Q693.65 1482.55 697.261 1482.55 Q700.896 1482.55 702.701 1479.01 Q704.53 1475.44 704.53 1468.33 Q704.53 1461.2 702.701 1457.66 Q700.896 1454.1 697.261 1454.1 M697.261 1450.39 Q703.072 1450.39 706.127 1455 Q709.206 1459.58 709.206 1468.33 Q709.206 1477.06 706.127 1481.67 Q703.072 1486.25 697.261 1486.25 Q691.451 1486.25 688.373 1481.67 Q685.317 1477.06 685.317 1468.33 Q685.317 1459.58 688.373 1455 Q691.451 1450.39 697.261 1450.39 Z" fill="#000000" fill-rule="nonzero" fill-opacity="1" /><path clip-path="url(#clip390)" d="M717.423 1479.7 L722.308 1479.7 L722.308 1485.58 L717.423 1485.58 L717.423 1479.7 Z" fill="#000000" fill-rule="nonzero" fill-opacity="1" /><path clip-path="url(#clip390)" d="M736.521 1481.64 L752.84 1481.64 L752.84 1485.58 L730.896 1485.58 L730.896 1481.64 Q733.558 1478.89 738.141 1474.26 Q742.747 1469.61 743.928 1468.27 Q746.173 1465.74 747.053 1464.01 Q747.956 1462.25 747.956 1460.56 Q747.956 1457.8 746.011 1456.07 Q744.09 1454.33 740.988 1454.33 Q738.789 1454.33 736.335 1455.09 Q733.905 1455.86 731.127 1457.41 L731.127 1452.69 Q733.951 1451.55 736.405 1450.97 Q738.858 1450.39 740.896 1450.39 Q746.266 1450.39 749.46 1453.08 Q752.655 1455.77 752.655 1460.26 Q752.655 1462.39 751.845 1464.31 Q751.057 1466.2 748.951 1468.8 Q748.372 1469.47 745.27 1472.69 Q742.169 1475.88 736.521 1481.64 Z" fill="#000000" fill-rule="nonzero" fill-opacity="1" /><path clip-path="url(#clip390)" d="M1105.76 1454.1 Q1102.15 1454.1 1100.32 1457.66 Q1098.51 1461.2 1098.51 1468.33 Q1098.51 1475.44 1100.32 1479.01 Q1102.15 1482.55 1105.76 1482.55 Q1109.39 1482.55 1111.2 1479.01 Q1113.03 1475.44 1113.03 1468.33 Q1113.03 1461.2 1111.2 1457.66 Q1109.39 1454.1 1105.76 1454.1 M1105.76 1450.39 Q1111.57 1450.39 1114.62 1455 Q1117.7 1459.58 1117.7 1468.33 Q1117.7 1477.06 1114.62 1481.67 Q1111.57 1486.25 1105.76 1486.25 Q1099.95 1486.25 1096.87 1481.67 Q1093.81 1477.06 1093.81 1468.33 Q1093.81 1459.58 1096.87 1455 Q1099.95 1450.39 1105.76 1450.39 Z" fill="#000000" fill-rule="nonzero" fill-opacity="1" /><path clip-path="url(#clip390)" d="M1125.92 1479.7 L1130.81 1479.7 L1130.81 1485.58 L1125.92 1485.58 L1125.92 1479.7 Z" fill="#000000" fill-rule="nonzero" fill-opacity="1" /><path clip-path="url(#clip390)" d="M1153.84 1455.09 L1142.03 1473.54 L1153.84 1473.54 L1153.84 1455.09 M1152.61 1451.02 L1158.49 1451.02 L1158.49 1473.54 L1163.42 1473.54 L1163.42 1477.43 L1158.49 1477.43 L1158.49 1485.58 L1153.84 1485.58 L1153.84 1477.43 L1138.24 1477.43 L1138.24 1472.92 L1152.61 1451.02 Z" fill="#000000" fill-rule="nonzero" fill-opacity="1" /><path clip-path="url(#clip390)" d="M1515.46 1454.1 Q1511.85 1454.1 1510.02 1457.66 Q1508.21 1461.2 1508.21 1468.33 Q1508.21 1475.44 1510.02 1479.01 Q1511.85 1482.55 1515.46 1482.55 Q1519.09 1482.55 1520.9 1479.01 Q1522.73 1475.44 1522.73 1468.33 Q1522.73 1461.2 1520.9 1457.66 Q1519.09 1454.1 1515.46 1454.1 M1515.46 1450.39 Q1521.27 1450.39 1524.33 1455 Q1527.4 1459.58 1527.4 1468.33 Q1527.4 1477.06 1524.33 1481.67 Q1521.27 1486.25 1515.46 1486.25 Q1509.65 1486.25 1506.57 1481.67 Q1503.52 1477.06 1503.52 1468.33 Q1503.52 1459.58 1506.57 1455 Q1509.65 1450.39 1515.46 1450.39 Z" fill="#000000" fill-rule="nonzero" fill-opacity="1" /><path clip-path="url(#clip390)" d="M1535.62 1479.7 L1540.51 1479.7 L1540.51 1485.58 L1535.62 1485.58 L1535.62 1479.7 Z" fill="#000000" fill-rule="nonzero" fill-opacity="1" /><path clip-path="url(#clip390)" d="M1561.27 1466.44 Q1558.12 1466.44 1556.27 1468.59 Q1554.44 1470.74 1554.44 1474.49 Q1554.44 1478.22 1556.27 1480.39 Q1558.12 1482.55 1561.27 1482.55 Q1564.42 1482.55 1566.25 1480.39 Q1568.1 1478.22 1568.1 1474.49 Q1568.1 1470.74 1566.25 1468.59 Q1564.42 1466.44 1561.27 1466.44 M1570.55 1451.78 L1570.55 1456.04 Q1568.79 1455.21 1566.99 1454.77 Q1565.21 1454.33 1563.45 1454.33 Q1558.82 1454.33 1556.36 1457.45 Q1553.93 1460.58 1553.59 1466.9 Q1554.95 1464.89 1557.01 1463.82 Q1559.07 1462.73 1561.55 1462.73 Q1566.76 1462.73 1569.77 1465.9 Q1572.8 1469.05 1572.8 1474.49 Q1572.8 1479.82 1569.65 1483.03 Q1566.5 1486.25 1561.27 1486.25 Q1555.27 1486.25 1552.1 1481.67 Q1548.93 1477.06 1548.93 1468.33 Q1548.93 1460.14 1552.82 1455.28 Q1556.71 1450.39 1563.26 1450.39 Q1565.02 1450.39 1566.8 1450.74 Q1568.61 1451.09 1570.55 1451.78 Z" fill="#000000" fill-rule="nonzero" fill-opacity="1" /><path clip-path="url(#clip390)" d="M1925.13 1454.1 Q1921.52 1454.1 1919.69 1457.66 Q1917.88 1461.2 1917.88 1468.33 Q1917.88 1475.44 1919.69 1479.01 Q1921.52 1482.55 1925.13 1482.55 Q1928.76 1482.55 1930.57 1479.01 Q1932.4 1475.44 1932.4 1468.33 Q1932.4 1461.2 1930.57 1457.66 Q1928.76 1454.1 1925.13 1454.1 M1925.13 1450.39 Q1930.94 1450.39 1933.99 1455 Q1937.07 1459.58 1937.07 1468.33 Q1937.07 1477.06 1933.99 1481.67 Q1930.94 1486.25 1925.13 1486.25 Q1919.32 1486.25 1916.24 1481.67 Q1913.18 1477.06 1913.18 1468.33 Q1913.18 1459.58 1916.24 1455 Q1919.32 1450.39 1925.13 1450.39 Z" fill="#000000" fill-rule="nonzero" fill-opacity="1" /><path clip-path="url(#clip390)" d="M1945.29 1479.7 L1950.17 1479.7 L1950.17 1485.58 L1945.29 1485.58 L1945.29 1479.7 Z" fill="#000000" fill-rule="nonzero" fill-opacity="1" /><path clip-path="url(#clip390)" d="M1970.36 1469.17 Q1967.02 1469.17 1965.1 1470.95 Q1963.21 1472.73 1963.21 1475.86 Q1963.21 1478.98 1965.1 1480.77 Q1967.02 1482.55 1970.36 1482.55 Q1973.69 1482.55 1975.61 1480.77 Q1977.53 1478.96 1977.53 1475.86 Q1977.53 1472.73 1975.61 1470.95 Q1973.71 1469.17 1970.36 1469.17 M1965.68 1467.18 Q1962.67 1466.44 1960.98 1464.38 Q1959.32 1462.32 1959.32 1459.35 Q1959.32 1455.21 1962.26 1452.8 Q1965.22 1450.39 1970.36 1450.39 Q1975.52 1450.39 1978.46 1452.8 Q1981.4 1455.21 1981.4 1459.35 Q1981.4 1462.32 1979.71 1464.38 Q1978.04 1466.44 1975.06 1467.18 Q1978.44 1467.96 1980.31 1470.26 Q1982.21 1472.55 1982.21 1475.86 Q1982.21 1480.88 1979.13 1483.57 Q1976.08 1486.25 1970.36 1486.25 Q1964.64 1486.25 1961.56 1483.57 Q1958.51 1480.88 1958.51 1475.86 Q1958.51 1472.55 1960.4 1470.26 Q1962.3 1467.96 1965.68 1467.18 M1963.97 1459.79 Q1963.97 1462.48 1965.64 1463.98 Q1967.33 1465.49 1970.36 1465.49 Q1973.37 1465.49 1975.06 1463.98 Q1976.77 1462.48 1976.77 1459.79 Q1976.77 1457.11 1975.06 1455.6 Q1973.37 1454.1 1970.36 1454.1 Q1967.33 1454.1 1965.64 1455.6 Q1963.97 1457.11 1963.97 1459.79 Z" fill="#000000" fill-rule="nonzero" fill-opacity="1" /><path clip-path="url(#clip390)" d="M1318.01 1532.4 L1305.12 1549.74 L1318.67 1568.04 L1311.77 1568.04 L1301.39 1554.04 L1291.02 1568.04 L1284.11 1568.04 L1297.95 1549.39 L1285.29 1532.4 L1292.19 1532.4 L1301.65 1545.1 L1311.1 1532.4 L1318.01 1532.4 Z" fill="#000000" fill-rule="nonzero" fill-opacity="1" /><polyline clip-path="url(#clip390)" style="stroke:#000000; stroke-linecap:round; stroke-linejoin:round; stroke-width:4; stroke-opacity:1; fill:none" points="250.028,1423.18 250.028,47.2441 "/>
<polyline clip-path="url(#clip390)" style="stroke:#000000; stroke-linecap:round; stroke-linejoin:round; stroke-width:4; stroke-opacity:1; fill:none" points="250.028,1385.86 268.926,1385.86 "/>
<polyline clip-path="url(#clip390)" style="stroke:#000000; stroke-linecap:round; stroke-linejoin:round; stroke-width:4; stroke-opacity:1; fill:none" points="250.028,1177.24 268.926,1177.24 "/>
<polyline clip-path="url(#clip390)" style="stroke:#000000; stroke-linecap:round; stroke-linejoin:round; stroke-width:4; stroke-opacity:1; fill:none" points="250.028,968.63 268.926,968.63 "/>
<polyline clip-path="url(#clip390)" style="stroke:#000000; stroke-linecap:round; stroke-linejoin:round; stroke-width:4; stroke-opacity:1; fill:none" points="250.028,760.016 268.926,760.016 "/>
<polyline clip-path="url(#clip390)" style="stroke:#000000; stroke-linecap:round; stroke-linejoin:round; stroke-width:4; stroke-opacity:1; fill:none" points="250.028,551.402 268.926,551.402 "/>
<polyline clip-path="url(#clip390)" style="stroke:#000000; stroke-linecap:round; stroke-linejoin:round; stroke-width:4; stroke-opacity:1; fill:none" points="250.028,342.787 268.926,342.787 "/>
<polyline clip-path="url(#clip390)" style="stroke:#000000; stroke-linecap:round; stroke-linejoin:round; stroke-width:4; stroke-opacity:1; fill:none" points="250.028,134.173 268.926,134.173 "/>
<path clip-path="url(#clip390)" d="M126.691 1371.66 Q123.08 1371.66 121.251 1375.22 Q119.445 1378.76 119.445 1385.89 Q119.445 1393 121.251 1396.56 Q123.08 1400.11 126.691 1400.11 Q130.325 1400.11 132.13 1396.56 Q133.959 1393 133.959 1385.89 Q133.959 1378.76 132.13 1375.22 Q130.325 1371.66 126.691 1371.66 M126.691 1367.95 Q132.501 1367.95 135.556 1372.56 Q138.635 1377.14 138.635 1385.89 Q138.635 1394.62 135.556 1399.23 Q132.501 1403.81 126.691 1403.81 Q120.88 1403.81 117.802 1399.23 Q114.746 1394.62 114.746 1385.89 Q114.746 1377.14 117.802 1372.56 Q120.88 1367.95 126.691 1367.95 Z" fill="#000000" fill-rule="nonzero" fill-opacity="1" /><path clip-path="url(#clip390)" d="M146.853 1397.26 L151.737 1397.26 L151.737 1403.14 L146.853 1403.14 L146.853 1397.26 Z" fill="#000000" fill-rule="nonzero" fill-opacity="1" /><path clip-path="url(#clip390)" d="M171.922 1371.66 Q168.311 1371.66 166.482 1375.22 Q164.677 1378.76 164.677 1385.89 Q164.677 1393 166.482 1396.56 Q168.311 1400.11 171.922 1400.11 Q175.556 1400.11 177.362 1396.56 Q179.19 1393 179.19 1385.89 Q179.19 1378.76 177.362 1375.22 Q175.556 1371.66 171.922 1371.66 M171.922 1367.95 Q177.732 1367.95 180.788 1372.56 Q183.866 1377.14 183.866 1385.89 Q183.866 1394.62 180.788 1399.23 Q177.732 1403.81 171.922 1403.81 Q166.112 1403.81 163.033 1399.23 Q159.978 1394.62 159.978 1385.89 Q159.978 1377.14 163.033 1372.56 Q166.112 1367.95 171.922 1367.95 Z" fill="#000000" fill-rule="nonzero" fill-opacity="1" /><path clip-path="url(#clip390)" d="M202.084 1371.66 Q198.473 1371.66 196.644 1375.22 Q194.838 1378.76 194.838 1385.89 Q194.838 1393 196.644 1396.56 Q198.473 1400.11 202.084 1400.11 Q205.718 1400.11 207.524 1396.56 Q209.352 1393 209.352 1385.89 Q209.352 1378.76 207.524 1375.22 Q205.718 1371.66 202.084 1371.66 M202.084 1367.95 Q207.894 1367.95 210.949 1372.56 Q214.028 1377.14 214.028 1385.89 Q214.028 1394.62 210.949 1399.23 Q207.894 1403.81 202.084 1403.81 Q196.274 1403.81 193.195 1399.23 Q190.139 1394.62 190.139 1385.89 Q190.139 1377.14 193.195 1372.56 Q196.274 1367.95 202.084 1367.95 Z" fill="#000000" fill-rule="nonzero" fill-opacity="1" /><path clip-path="url(#clip390)" d="M127.917 1163.04 Q124.306 1163.04 122.478 1166.61 Q120.672 1170.15 120.672 1177.28 Q120.672 1184.39 122.478 1187.95 Q124.306 1191.49 127.917 1191.49 Q131.552 1191.49 133.357 1187.95 Q135.186 1184.39 135.186 1177.28 Q135.186 1170.15 133.357 1166.61 Q131.552 1163.04 127.917 1163.04 M127.917 1159.34 Q133.728 1159.34 136.783 1163.95 Q139.862 1168.53 139.862 1177.28 Q139.862 1186.01 136.783 1190.61 Q133.728 1195.2 127.917 1195.2 Q122.107 1195.2 119.029 1190.61 Q115.973 1186.01 115.973 1177.28 Q115.973 1168.53 119.029 1163.95 Q122.107 1159.34 127.917 1159.34 Z" fill="#000000" fill-rule="nonzero" fill-opacity="1" /><path clip-path="url(#clip390)" d="M148.079 1188.64 L152.964 1188.64 L152.964 1194.52 L148.079 1194.52 L148.079 1188.64 Z" fill="#000000" fill-rule="nonzero" fill-opacity="1" /><path clip-path="url(#clip390)" d="M173.149 1163.04 Q169.538 1163.04 167.709 1166.61 Q165.903 1170.15 165.903 1177.28 Q165.903 1184.39 167.709 1187.95 Q169.538 1191.49 173.149 1191.49 Q176.783 1191.49 178.589 1187.95 Q180.417 1184.39 180.417 1177.28 Q180.417 1170.15 178.589 1166.61 Q176.783 1163.04 173.149 1163.04 M173.149 1159.34 Q178.959 1159.34 182.014 1163.95 Q185.093 1168.53 185.093 1177.28 Q185.093 1186.01 182.014 1190.61 Q178.959 1195.2 173.149 1195.2 Q167.339 1195.2 164.26 1190.61 Q161.204 1186.01 161.204 1177.28 Q161.204 1168.53 164.26 1163.95 Q167.339 1159.34 173.149 1159.34 Z" fill="#000000" fill-rule="nonzero" fill-opacity="1" /><path clip-path="url(#clip390)" d="M194.121 1190.59 L201.76 1190.59 L201.76 1164.22 L193.45 1165.89 L193.45 1161.63 L201.713 1159.96 L206.389 1159.96 L206.389 1190.59 L214.028 1190.59 L214.028 1194.52 L194.121 1194.52 L194.121 1190.59 Z" fill="#000000" fill-rule="nonzero" fill-opacity="1" /><path clip-path="url(#clip390)" d="M128.288 954.429 Q124.677 954.429 122.848 957.993 Q121.043 961.535 121.043 968.665 Q121.043 975.771 122.848 979.336 Q124.677 982.877 128.288 982.877 Q131.922 982.877 133.728 979.336 Q135.556 975.771 135.556 968.665 Q135.556 961.535 133.728 957.993 Q131.922 954.429 128.288 954.429 M128.288 950.725 Q134.098 950.725 137.154 955.331 Q140.232 959.915 140.232 968.665 Q140.232 977.391 137.154 981.998 Q134.098 986.581 128.288 986.581 Q122.478 986.581 119.399 981.998 Q116.343 977.391 116.343 968.665 Q116.343 959.915 119.399 955.331 Q122.478 950.725 128.288 950.725 Z" fill="#000000" fill-rule="nonzero" fill-opacity="1" /><path clip-path="url(#clip390)" d="M148.45 980.03 L153.334 980.03 L153.334 985.91 L148.45 985.91 L148.45 980.03 Z" fill="#000000" fill-rule="nonzero" fill-opacity="1" /><path clip-path="url(#clip390)" d="M173.519 954.429 Q169.908 954.429 168.079 957.993 Q166.274 961.535 166.274 968.665 Q166.274 975.771 168.079 979.336 Q169.908 982.877 173.519 982.877 Q177.153 982.877 178.959 979.336 Q180.788 975.771 180.788 968.665 Q180.788 961.535 178.959 957.993 Q177.153 954.429 173.519 954.429 M173.519 950.725 Q179.329 950.725 182.385 955.331 Q185.463 959.915 185.463 968.665 Q185.463 977.391 182.385 981.998 Q179.329 986.581 173.519 986.581 Q167.709 986.581 164.63 981.998 Q161.575 977.391 161.575 968.665 Q161.575 959.915 164.63 955.331 Q167.709 950.725 173.519 950.725 Z" fill="#000000" fill-rule="nonzero" fill-opacity="1" /><path clip-path="url(#clip390)" d="M197.709 981.975 L214.028 981.975 L214.028 985.91 L192.084 985.91 L192.084 981.975 Q194.746 979.22 199.329 974.59 Q203.936 969.938 205.116 968.595 Q207.362 966.072 208.241 964.336 Q209.144 962.577 209.144 960.887 Q209.144 958.132 207.199 956.396 Q205.278 954.66 202.176 954.66 Q199.977 954.66 197.524 955.424 Q195.093 956.188 192.315 957.739 L192.315 953.016 Q195.139 951.882 197.593 951.304 Q200.047 950.725 202.084 950.725 Q207.454 950.725 210.649 953.41 Q213.843 956.095 213.843 960.586 Q213.843 962.716 213.033 964.637 Q212.246 966.535 210.139 969.128 Q209.561 969.799 206.459 973.016 Q203.357 976.211 197.709 981.975 Z" fill="#000000" fill-rule="nonzero" fill-opacity="1" /><path clip-path="url(#clip390)" d="M127.339 745.814 Q123.728 745.814 121.899 749.379 Q120.093 752.921 120.093 760.05 Q120.093 767.157 121.899 770.722 Q123.728 774.263 127.339 774.263 Q130.973 774.263 132.779 770.722 Q134.607 767.157 134.607 760.05 Q134.607 752.921 132.779 749.379 Q130.973 745.814 127.339 745.814 M127.339 742.111 Q133.149 742.111 136.204 746.717 Q139.283 751.3 139.283 760.05 Q139.283 768.777 136.204 773.384 Q133.149 777.967 127.339 777.967 Q121.529 777.967 118.45 773.384 Q115.394 768.777 115.394 760.05 Q115.394 751.3 118.45 746.717 Q121.529 742.111 127.339 742.111 Z" fill="#000000" fill-rule="nonzero" fill-opacity="1" /><path clip-path="url(#clip390)" d="M147.501 771.416 L152.385 771.416 L152.385 777.296 L147.501 777.296 L147.501 771.416 Z" fill="#000000" fill-rule="nonzero" fill-opacity="1" /><path clip-path="url(#clip390)" d="M172.57 745.814 Q168.959 745.814 167.13 749.379 Q165.325 752.921 165.325 760.05 Q165.325 767.157 167.13 770.722 Q168.959 774.263 172.57 774.263 Q176.204 774.263 178.01 770.722 Q179.839 767.157 179.839 760.05 Q179.839 752.921 178.01 749.379 Q176.204 745.814 172.57 745.814 M172.57 742.111 Q178.38 742.111 181.436 746.717 Q184.514 751.3 184.514 760.05 Q184.514 768.777 181.436 773.384 Q178.38 777.967 172.57 777.967 Q166.76 777.967 163.681 773.384 Q160.626 768.777 160.626 760.05 Q160.626 751.3 163.681 746.717 Q166.76 742.111 172.57 742.111 Z" fill="#000000" fill-rule="nonzero" fill-opacity="1" /><path clip-path="url(#clip390)" d="M206.899 758.662 Q210.255 759.379 212.13 761.648 Q214.028 763.916 214.028 767.249 Q214.028 772.365 210.51 775.166 Q206.991 777.967 200.51 777.967 Q198.334 777.967 196.019 777.527 Q193.727 777.111 191.274 776.254 L191.274 771.74 Q193.218 772.874 195.533 773.453 Q197.848 774.032 200.371 774.032 Q204.769 774.032 207.061 772.296 Q209.375 770.56 209.375 767.249 Q209.375 764.194 207.223 762.481 Q205.093 760.745 201.274 760.745 L197.246 760.745 L197.246 756.902 L201.459 756.902 Q204.908 756.902 206.737 755.537 Q208.565 754.148 208.565 751.555 Q208.565 748.893 206.667 747.481 Q204.792 746.046 201.274 746.046 Q199.352 746.046 197.153 746.463 Q194.954 746.879 192.315 747.759 L192.315 743.592 Q194.977 742.851 197.292 742.481 Q199.63 742.111 201.69 742.111 Q207.014 742.111 210.116 744.541 Q213.218 746.949 213.218 751.069 Q213.218 753.939 211.574 755.93 Q209.931 757.898 206.899 758.662 Z" fill="#000000" fill-rule="nonzero" fill-opacity="1" /><path clip-path="url(#clip390)" d="M126.205 537.2 Q122.593 537.2 120.765 540.765 Q118.959 544.307 118.959 551.436 Q118.959 558.543 120.765 562.108 Q122.593 565.649 126.205 565.649 Q129.839 565.649 131.644 562.108 Q133.473 558.543 133.473 551.436 Q133.473 544.307 131.644 540.765 Q129.839 537.2 126.205 537.2 M126.205 533.497 Q132.015 533.497 135.07 538.103 Q138.149 542.686 138.149 551.436 Q138.149 560.163 135.07 564.77 Q132.015 569.353 126.205 569.353 Q120.394 569.353 117.316 564.77 Q114.26 560.163 114.26 551.436 Q114.26 542.686 117.316 538.103 Q120.394 533.497 126.205 533.497 Z" fill="#000000" fill-rule="nonzero" fill-opacity="1" /><path clip-path="url(#clip390)" d="M146.366 562.802 L151.251 562.802 L151.251 568.682 L146.366 568.682 L146.366 562.802 Z" fill="#000000" fill-rule="nonzero" fill-opacity="1" /><path clip-path="url(#clip390)" d="M171.436 537.2 Q167.825 537.2 165.996 540.765 Q164.19 544.307 164.19 551.436 Q164.19 558.543 165.996 562.108 Q167.825 565.649 171.436 565.649 Q175.07 565.649 176.876 562.108 Q178.704 558.543 178.704 551.436 Q178.704 544.307 176.876 540.765 Q175.07 537.2 171.436 537.2 M171.436 533.497 Q177.246 533.497 180.301 538.103 Q183.38 542.686 183.38 551.436 Q183.38 560.163 180.301 564.77 Q177.246 569.353 171.436 569.353 Q165.626 569.353 162.547 564.77 Q159.491 560.163 159.491 551.436 Q159.491 542.686 162.547 538.103 Q165.626 533.497 171.436 533.497 Z" fill="#000000" fill-rule="nonzero" fill-opacity="1" /><path clip-path="url(#clip390)" d="M204.445 538.196 L192.639 556.645 L204.445 556.645 L204.445 538.196 M203.218 534.122 L209.098 534.122 L209.098 556.645 L214.028 556.645 L214.028 560.533 L209.098 560.533 L209.098 568.682 L204.445 568.682 L204.445 560.533 L188.843 560.533 L188.843 556.02 L203.218 534.122 Z" fill="#000000" fill-rule="nonzero" fill-opacity="1" /><path clip-path="url(#clip390)" d="M127.686 328.586 Q124.075 328.586 122.246 332.151 Q120.441 335.693 120.441 342.822 Q120.441 349.929 122.246 353.493 Q124.075 357.035 127.686 357.035 Q131.32 357.035 133.126 353.493 Q134.954 349.929 134.954 342.822 Q134.954 335.693 133.126 332.151 Q131.32 328.586 127.686 328.586 M127.686 324.882 Q133.496 324.882 136.552 329.489 Q139.63 334.072 139.63 342.822 Q139.63 351.549 136.552 356.155 Q133.496 360.739 127.686 360.739 Q121.876 360.739 118.797 356.155 Q115.742 351.549 115.742 342.822 Q115.742 334.072 118.797 329.489 Q121.876 324.882 127.686 324.882 Z" fill="#000000" fill-rule="nonzero" fill-opacity="1" /><path clip-path="url(#clip390)" d="M147.848 354.188 L152.732 354.188 L152.732 360.067 L147.848 360.067 L147.848 354.188 Z" fill="#000000" fill-rule="nonzero" fill-opacity="1" /><path clip-path="url(#clip390)" d="M172.917 328.586 Q169.306 328.586 167.477 332.151 Q165.672 335.693 165.672 342.822 Q165.672 349.929 167.477 353.493 Q169.306 357.035 172.917 357.035 Q176.551 357.035 178.357 353.493 Q180.186 349.929 180.186 342.822 Q180.186 335.693 178.357 332.151 Q176.551 328.586 172.917 328.586 M172.917 324.882 Q178.727 324.882 181.783 329.489 Q184.862 334.072 184.862 342.822 Q184.862 351.549 181.783 356.155 Q178.727 360.739 172.917 360.739 Q167.107 360.739 164.028 356.155 Q160.973 351.549 160.973 342.822 Q160.973 334.072 164.028 329.489 Q167.107 324.882 172.917 324.882 Z" fill="#000000" fill-rule="nonzero" fill-opacity="1" /><path clip-path="url(#clip390)" d="M193.125 325.507 L211.482 325.507 L211.482 329.443 L197.408 329.443 L197.408 337.915 Q198.426 337.568 199.445 337.405 Q200.463 337.22 201.482 337.22 Q207.269 337.22 210.649 340.392 Q214.028 343.563 214.028 348.979 Q214.028 354.558 210.556 357.66 Q207.084 360.739 200.764 360.739 Q198.588 360.739 196.32 360.368 Q194.075 359.998 191.667 359.257 L191.667 354.558 Q193.75 355.692 195.973 356.248 Q198.195 356.804 200.672 356.804 Q204.676 356.804 207.014 354.697 Q209.352 352.591 209.352 348.979 Q209.352 345.368 207.014 343.262 Q204.676 341.155 200.672 341.155 Q198.797 341.155 196.922 341.572 Q195.07 341.989 193.125 342.868 L193.125 325.507 Z" fill="#000000" fill-rule="nonzero" fill-opacity="1" /><path clip-path="url(#clip390)" d="M126.529 119.972 Q122.918 119.972 121.089 123.537 Q119.283 127.078 119.283 134.208 Q119.283 141.314 121.089 144.879 Q122.918 148.421 126.529 148.421 Q130.163 148.421 131.968 144.879 Q133.797 141.314 133.797 134.208 Q133.797 127.078 131.968 123.537 Q130.163 119.972 126.529 119.972 M126.529 116.268 Q132.339 116.268 135.394 120.875 Q138.473 125.458 138.473 134.208 Q138.473 142.935 135.394 147.541 Q132.339 152.125 126.529 152.125 Q120.718 152.125 117.64 147.541 Q114.584 142.935 114.584 134.208 Q114.584 125.458 117.64 120.875 Q120.718 116.268 126.529 116.268 Z" fill="#000000" fill-rule="nonzero" fill-opacity="1" /><path clip-path="url(#clip390)" d="M146.691 145.574 L151.575 145.574 L151.575 151.453 L146.691 151.453 L146.691 145.574 Z" fill="#000000" fill-rule="nonzero" fill-opacity="1" /><path clip-path="url(#clip390)" d="M171.76 119.972 Q168.149 119.972 166.32 123.537 Q164.515 127.078 164.515 134.208 Q164.515 141.314 166.32 144.879 Q168.149 148.421 171.76 148.421 Q175.394 148.421 177.2 144.879 Q179.028 141.314 179.028 134.208 Q179.028 127.078 177.2 123.537 Q175.394 119.972 171.76 119.972 M171.76 116.268 Q177.57 116.268 180.626 120.875 Q183.704 125.458 183.704 134.208 Q183.704 142.935 180.626 147.541 Q177.57 152.125 171.76 152.125 Q165.95 152.125 162.871 147.541 Q159.815 142.935 159.815 134.208 Q159.815 125.458 162.871 120.875 Q165.95 116.268 171.76 116.268 Z" fill="#000000" fill-rule="nonzero" fill-opacity="1" /><path clip-path="url(#clip390)" d="M202.5 132.31 Q199.352 132.31 197.5 134.463 Q195.672 136.615 195.672 140.365 Q195.672 144.092 197.5 146.268 Q199.352 148.421 202.5 148.421 Q205.649 148.421 207.477 146.268 Q209.329 144.092 209.329 140.365 Q209.329 136.615 207.477 134.463 Q205.649 132.31 202.5 132.31 M211.783 117.657 L211.783 121.916 Q210.024 121.083 208.218 120.643 Q206.436 120.203 204.676 120.203 Q200.047 120.203 197.593 123.328 Q195.163 126.453 194.815 132.773 Q196.181 130.759 198.241 129.694 Q200.301 128.606 202.778 128.606 Q207.987 128.606 210.996 131.777 Q214.028 134.926 214.028 140.365 Q214.028 145.689 210.88 148.907 Q207.732 152.125 202.5 152.125 Q196.505 152.125 193.334 147.541 Q190.163 142.935 190.163 134.208 Q190.163 126.014 194.051 121.152 Q197.94 116.268 204.491 116.268 Q206.25 116.268 208.033 116.615 Q209.838 116.963 211.783 117.657 Z" fill="#000000" fill-rule="nonzero" fill-opacity="1" /><path clip-path="url(#clip390)" d="M34.7219 748.293 Q31.4754 746.352 28.6108 741.546 Q27.4968 739.668 27.4968 733.875 Q27.4968 727.382 32.6531 723.34 Q37.8093 719.266 46.212 719.266 Q54.6147 719.266 59.771 723.34 Q64.9272 727.382 64.9272 733.875 Q64.9272 737.79 63.3994 740.623 Q61.8398 743.424 58.657 745.27 L77.5631 745.27 L77.5631 751.158 L46.5303 751.158 Q39.1779 751.158 34.7219 748.293 M46.212 725.345 Q39.7508 725.345 36.0905 728.019 Q32.3984 730.66 32.3984 735.307 Q32.3984 739.954 36.0905 742.628 Q39.7508 745.27 46.212 745.27 Q52.6732 745.27 56.3653 742.628 Q60.0256 739.954 60.0256 735.307 Q60.0256 730.66 56.3653 728.019 Q52.6732 725.345 46.212 725.345 Z" fill="#000000" fill-rule="nonzero" fill-opacity="1" /><polyline clip-path="url(#clip392)" style="stroke:#009af9; stroke-linecap:round; stroke-linejoin:round; stroke-width:4; stroke-opacity:1; fill:none" points="309.539,1384.24 373.53,1362.85 437.52,1247.17 501.511,972.06 565.501,590.474 629.492,255.387 693.482,86.1857 757.473,90.3876 821.463,199.811 885.454,343.154 949.444,481.118 1013.43,600.994 1077.43,700.097 1141.42,776.756 1205.41,829.8 1269.4,860.086 1333.39,869.797 1397.38,860.086 1461.37,829.8 1525.36,776.756 1589.35,700.097 1653.34,600.994 1717.33,481.118 1781.32,343.154 1845.31,199.811 1909.3,90.3876 1973.29,86.1857 2037.28,255.387 2101.27,590.474 2165.26,972.06 2229.25,1247.17 2293.24,1362.85 "/>
<circle clip-path="url(#clip392)" cx="309.539" cy="1384.24" r="7.2" fill="#009af9" fill-rule="evenodd" fill-opacity="1" stroke="#000000" stroke-opacity="1" stroke-width="3.2"/>
<circle clip-path="url(#clip392)" cx="373.53" cy="1362.85" r="7.2" fill="#009af9" fill-rule="evenodd" fill-opacity="1" stroke="#000000" stroke-opacity="1" stroke-width="3.2"/>
<circle clip-path="url(#clip392)" cx="437.52" cy="1247.17" r="7.2" fill="#009af9" fill-rule="evenodd" fill-opacity="1" stroke="#000000" stroke-opacity="1" stroke-width="3.2"/>
<circle clip-path="url(#clip392)" cx="501.511" cy="972.06" r="7.2" fill="#009af9" fill-rule="evenodd" fill-opacity="1" stroke="#000000" stroke-opacity="1" stroke-width="3.2"/>
<circle clip-path="url(#clip392)" cx="565.501" cy="590.474" r="7.2" fill="#009af9" fill-rule="evenodd" fill-opacity="1" stroke="#000000" stroke-opacity="1" stroke-width="3.2"/>
<circle clip-path="url(#clip392)" cx="629.492" cy="255.387" r="7.2" fill="#009af9" fill-rule="evenodd" fill-opacity="1" stroke="#000000" stroke-opacity="1" stroke-width="3.2"/>
<circle clip-path="url(#clip392)" cx="693.482" cy="86.1857" r="7.2" fill="#009af9" fill-rule="evenodd" fill-opacity="1" stroke="#000000" stroke-opacity="1" stroke-width="3.2"/>
<circle clip-path="url(#clip392)" cx="757.473" cy="90.3876" r="7.2" fill="#009af9" fill-rule="evenodd" fill-opacity="1" stroke="#000000" stroke-opacity="1" stroke-width="3.2"/>
<circle clip-path="url(#clip392)" cx="821.463" cy="199.811" r="7.2" fill="#009af9" fill-rule="evenodd" fill-opacity="1" stroke="#000000" stroke-opacity="1" stroke-width="3.2"/>
<circle clip-path="url(#clip392)" cx="885.454" cy="343.154" r="7.2" fill="#009af9" fill-rule="evenodd" fill-opacity="1" stroke="#000000" stroke-opacity="1" stroke-width="3.2"/>
<circle clip-path="url(#clip392)" cx="949.444" cy="481.118" r="7.2" fill="#009af9" fill-rule="evenodd" fill-opacity="1" stroke="#000000" stroke-opacity="1" stroke-width="3.2"/>
<circle clip-path="url(#clip392)" cx="1013.43" cy="600.994" r="7.2" fill="#009af9" fill-rule="evenodd" fill-opacity="1" stroke="#000000" stroke-opacity="1" stroke-width="3.2"/>
<circle clip-path="url(#clip392)" cx="1077.43" cy="700.097" r="7.2" fill="#009af9" fill-rule="evenodd" fill-opacity="1" stroke="#000000" stroke-opacity="1" stroke-width="3.2"/>
<circle clip-path="url(#clip392)" cx="1141.42" cy="776.756" r="7.2" fill="#009af9" fill-rule="evenodd" fill-opacity="1" stroke="#000000" stroke-opacity="1" stroke-width="3.2"/>
<circle clip-path="url(#clip392)" cx="1205.41" cy="829.8" r="7.2" fill="#009af9" fill-rule="evenodd" fill-opacity="1" stroke="#000000" stroke-opacity="1" stroke-width="3.2"/>
<circle clip-path="url(#clip392)" cx="1269.4" cy="860.086" r="7.2" fill="#009af9" fill-rule="evenodd" fill-opacity="1" stroke="#000000" stroke-opacity="1" stroke-width="3.2"/>
<circle clip-path="url(#clip392)" cx="1333.39" cy="869.797" r="7.2" fill="#009af9" fill-rule="evenodd" fill-opacity="1" stroke="#000000" stroke-opacity="1" stroke-width="3.2"/>
<circle clip-path="url(#clip392)" cx="1397.38" cy="860.086" r="7.2" fill="#009af9" fill-rule="evenodd" fill-opacity="1" stroke="#000000" stroke-opacity="1" stroke-width="3.2"/>
<circle clip-path="url(#clip392)" cx="1461.37" cy="829.8" r="7.2" fill="#009af9" fill-rule="evenodd" fill-opacity="1" stroke="#000000" stroke-opacity="1" stroke-width="3.2"/>
<circle clip-path="url(#clip392)" cx="1525.36" cy="776.756" r="7.2" fill="#009af9" fill-rule="evenodd" fill-opacity="1" stroke="#000000" stroke-opacity="1" stroke-width="3.2"/>
<circle clip-path="url(#clip392)" cx="1589.35" cy="700.097" r="7.2" fill="#009af9" fill-rule="evenodd" fill-opacity="1" stroke="#000000" stroke-opacity="1" stroke-width="3.2"/>
<circle clip-path="url(#clip392)" cx="1653.34" cy="600.994" r="7.2" fill="#009af9" fill-rule="evenodd" fill-opacity="1" stroke="#000000" stroke-opacity="1" stroke-width="3.2"/>
<circle clip-path="url(#clip392)" cx="1717.33" cy="481.118" r="7.2" fill="#009af9" fill-rule="evenodd" fill-opacity="1" stroke="#000000" stroke-opacity="1" stroke-width="3.2"/>
<circle clip-path="url(#clip392)" cx="1781.32" cy="343.154" r="7.2" fill="#009af9" fill-rule="evenodd" fill-opacity="1" stroke="#000000" stroke-opacity="1" stroke-width="3.2"/>
<circle clip-path="url(#clip392)" cx="1845.31" cy="199.811" r="7.2" fill="#009af9" fill-rule="evenodd" fill-opacity="1" stroke="#000000" stroke-opacity="1" stroke-width="3.2"/>
<circle clip-path="url(#clip392)" cx="1909.3" cy="90.3876" r="7.2" fill="#009af9" fill-rule="evenodd" fill-opacity="1" stroke="#000000" stroke-opacity="1" stroke-width="3.2"/>
<circle clip-path="url(#clip392)" cx="1973.29" cy="86.1857" r="7.2" fill="#009af9" fill-rule="evenodd" fill-opacity="1" stroke="#000000" stroke-opacity="1" stroke-width="3.2"/>
<circle clip-path="url(#clip392)" cx="2037.28" cy="255.387" r="7.2" fill="#009af9" fill-rule="evenodd" fill-opacity="1" stroke="#000000" stroke-opacity="1" stroke-width="3.2"/>
<circle clip-path="url(#clip392)" cx="2101.27" cy="590.474" r="7.2" fill="#009af9" fill-rule="evenodd" fill-opacity="1" stroke="#000000" stroke-opacity="1" stroke-width="3.2"/>
<circle clip-path="url(#clip392)" cx="2165.26" cy="972.06" r="7.2" fill="#009af9" fill-rule="evenodd" fill-opacity="1" stroke="#000000" stroke-opacity="1" stroke-width="3.2"/>
<circle clip-path="url(#clip392)" cx="2229.25" cy="1247.17" r="7.2" fill="#009af9" fill-rule="evenodd" fill-opacity="1" stroke="#000000" stroke-opacity="1" stroke-width="3.2"/>
<circle clip-path="url(#clip392)" cx="2293.24" cy="1362.85" r="7.2" fill="#009af9" fill-rule="evenodd" fill-opacity="1" stroke="#000000" stroke-opacity="1" stroke-width="3.2"/>
</svg>
