<?xml version="1.0" encoding="utf-8"?>
<svg xmlns="http://www.w3.org/2000/svg" xmlns:xlink="http://www.w3.org/1999/xlink" width="600" height="400" viewBox="0 0 2400 1600">
<defs>
  <clipPath id="clip480">
    <rect x="0" y="0" width="2400" height="1600"/>
  </clipPath>
</defs>
<path clip-path="url(#clip480)" d="M0 1600 L2400 1600 L2400 0 L0 0  Z" fill="#ffffff" fill-rule="evenodd" fill-opacity="1"/>
<defs>
  <clipPath id="clip481">
    <rect x="480" y="0" width="1681" height="1600"/>
  </clipPath>
</defs>
<path clip-path="url(#clip480)" d="M188.574 1486.45 L2352.76 1486.45 L2352.76 47.2441 L188.574 47.2441  Z" fill="#ffffff" fill-rule="evenodd" fill-opacity="1"/>
<defs>
  <clipPath id="clip482">
    <rect x="188" y="47" width="2165" height="1440"/>
  </clipPath>
</defs>
<polyline clip-path="url(#clip482)" style="stroke:#000000; stroke-linecap:round; stroke-linejoin:round; stroke-width:2; stroke-opacity:0.1; fill:none" points="505.035,1486.45 505.035,47.2441 "/>
<polyline clip-path="url(#clip482)" style="stroke:#000000; stroke-linecap:round; stroke-linejoin:round; stroke-width:2; stroke-opacity:0.1; fill:none" points="1015.46,1486.45 1015.46,47.2441 "/>
<polyline clip-path="url(#clip482)" style="stroke:#000000; stroke-linecap:round; stroke-linejoin:round; stroke-width:2; stroke-opacity:0.1; fill:none" points="1525.88,1486.45 1525.88,47.2441 "/>
<polyline clip-path="url(#clip482)" style="stroke:#000000; stroke-linecap:round; stroke-linejoin:round; stroke-width:2; stroke-opacity:0.1; fill:none" points="2036.3,1486.45 2036.3,47.2441 "/>
<polyline clip-path="url(#clip482)" style="stroke:#000000; stroke-linecap:round; stroke-linejoin:round; stroke-width:2; stroke-opacity:0.1; fill:none" points="188.574,841.784 2352.76,841.784 "/>
<polyline clip-path="url(#clip482)" style="stroke:#000000; stroke-linecap:round; stroke-linejoin:round; stroke-width:2; stroke-opacity:0.1; fill:none" points="188.574,47.4465 2352.76,47.4465 "/>
<polyline clip-path="url(#clip480)" style="stroke:#000000; stroke-linecap:round; stroke-linejoin:round; stroke-width:4; stroke-opacity:1; fill:none" points="188.574,1486.45 2352.76,1486.45 "/>
<polyline clip-path="url(#clip480)" style="stroke:#000000; stroke-linecap:round; stroke-linejoin:round; stroke-width:4; stroke-opacity:1; fill:none" points="505.035,1486.45 505.035,1467.55 "/>
<polyline clip-path="url(#clip480)" style="stroke:#000000; stroke-linecap:round; stroke-linejoin:round; stroke-width:4; stroke-opacity:1; fill:none" points="1015.46,1486.45 1015.46,1467.55 "/>
<polyline clip-path="url(#clip480)" style="stroke:#000000; stroke-linecap:round; stroke-linejoin:round; stroke-width:4; stroke-opacity:1; fill:none" points="1525.88,1486.45 1525.88,1467.55 "/>
<polyline clip-path="url(#clip480)" style="stroke:#000000; stroke-linecap:round; stroke-linejoin:round; stroke-width:4; stroke-opacity:1; fill:none" points="2036.3,1486.45 2036.3,1467.55 "/>
<path clip-path="url(#clip480)" d="M499.688 1544.91 L516.007 1544.91 L516.007 1548.85 L494.063 1548.85 L494.063 1544.91 Q496.725 1542.16 501.308 1537.53 Q505.914 1532.88 507.095 1531.53 Q509.34 1529.01 510.22 1527.27 Q511.123 1525.51 511.123 1523.82 Q511.123 1521.07 509.178 1519.33 Q507.257 1517.6 504.155 1517.6 Q501.956 1517.6 499.502 1518.36 Q497.072 1519.13 494.294 1520.68 L494.294 1515.95 Q497.118 1514.82 499.572 1514.24 Q502.026 1513.66 504.063 1513.66 Q509.433 1513.66 512.627 1516.35 Q515.822 1519.03 515.822 1523.52 Q515.822 1525.65 515.012 1527.57 Q514.225 1529.47 512.118 1532.07 Q511.539 1532.74 508.438 1535.95 Q505.336 1539.15 499.688 1544.91 Z" fill="#000000" fill-rule="nonzero" fill-opacity="1" /><path clip-path="url(#clip480)" d="M1018.46 1518.36 L1006.66 1536.81 L1018.46 1536.81 L1018.46 1518.36 M1017.24 1514.29 L1023.12 1514.29 L1023.12 1536.81 L1028.05 1536.81 L1028.05 1540.7 L1023.12 1540.7 L1023.12 1548.85 L1018.46 1548.85 L1018.46 1540.7 L1002.86 1540.7 L1002.86 1536.19 L1017.24 1514.29 Z" fill="#000000" fill-rule="nonzero" fill-opacity="1" /><path clip-path="url(#clip480)" d="M1526.28 1529.7 Q1523.13 1529.7 1521.28 1531.86 Q1519.45 1534.01 1519.45 1537.76 Q1519.45 1541.49 1521.28 1543.66 Q1523.13 1545.82 1526.28 1545.82 Q1529.43 1545.82 1531.26 1543.66 Q1533.11 1541.49 1533.11 1537.76 Q1533.11 1534.01 1531.26 1531.86 Q1529.43 1529.7 1526.28 1529.7 M1535.56 1515.05 L1535.56 1519.31 Q1533.8 1518.48 1532 1518.04 Q1530.22 1517.6 1528.46 1517.6 Q1523.83 1517.6 1521.37 1520.72 Q1518.94 1523.85 1518.6 1530.17 Q1519.96 1528.15 1522.02 1527.09 Q1524.08 1526 1526.56 1526 Q1531.77 1526 1534.78 1529.17 Q1537.81 1532.32 1537.81 1537.76 Q1537.81 1543.08 1534.66 1546.3 Q1531.51 1549.52 1526.28 1549.52 Q1520.28 1549.52 1517.11 1544.94 Q1513.94 1540.33 1513.94 1531.6 Q1513.94 1523.41 1517.83 1518.55 Q1521.72 1513.66 1528.27 1513.66 Q1530.03 1513.66 1531.81 1514.01 Q1533.62 1514.36 1535.56 1515.05 Z" fill="#000000" fill-rule="nonzero" fill-opacity="1" /><path clip-path="url(#clip480)" d="M2036.3 1532.44 Q2032.96 1532.44 2031.04 1534.22 Q2029.14 1536 2029.14 1539.13 Q2029.14 1542.25 2031.04 1544.03 Q2032.96 1545.82 2036.3 1545.82 Q2039.63 1545.82 2041.55 1544.03 Q2043.47 1542.23 2043.47 1539.13 Q2043.47 1536 2041.55 1534.22 Q2039.65 1532.44 2036.3 1532.44 M2031.62 1530.45 Q2028.61 1529.7 2026.92 1527.64 Q2025.25 1525.58 2025.25 1522.62 Q2025.25 1518.48 2028.19 1516.07 Q2031.16 1513.66 2036.3 1513.66 Q2041.46 1513.66 2044.4 1516.07 Q2047.34 1518.48 2047.34 1522.62 Q2047.34 1525.58 2045.65 1527.64 Q2043.98 1529.7 2040.99 1530.45 Q2044.37 1531.23 2046.25 1533.52 Q2048.15 1535.82 2048.15 1539.13 Q2048.15 1544.15 2045.07 1546.83 Q2042.01 1549.52 2036.3 1549.52 Q2030.58 1549.52 2027.5 1546.83 Q2024.44 1544.15 2024.44 1539.13 Q2024.44 1535.82 2026.34 1533.52 Q2028.24 1531.23 2031.62 1530.45 M2029.91 1523.06 Q2029.91 1525.75 2031.57 1527.25 Q2033.26 1528.76 2036.3 1528.76 Q2039.3 1528.76 2040.99 1527.25 Q2042.71 1525.75 2042.71 1523.06 Q2042.71 1520.38 2040.99 1518.87 Q2039.3 1517.37 2036.3 1517.37 Q2033.26 1517.37 2031.57 1518.87 Q2029.91 1520.38 2029.91 1523.06 Z" fill="#000000" fill-rule="nonzero" fill-opacity="1" /><polyline clip-path="url(#clip480)" style="stroke:#000000; stroke-linecap:round; stroke-linejoin:round; stroke-width:4; stroke-opacity:1; fill:none" points="188.574,1486.45 188.574,47.2441 "/>
<polyline clip-path="url(#clip480)" style="stroke:#000000; stroke-linecap:round; stroke-linejoin:round; stroke-width:4; stroke-opacity:1; fill:none" points="188.574,841.784 207.472,841.784 "/>
<polyline clip-path="url(#clip480)" style="stroke:#000000; stroke-linecap:round; stroke-linejoin:round; stroke-width:4; stroke-opacity:1; fill:none" points="188.574,47.4465 207.472,47.4465 "/>
<path clip-path="url(#clip480)" d="M51.6634 861.576 L59.3023 861.576 L59.3023 835.21 L50.9921 836.877 L50.9921 832.618 L59.256 830.951 L63.9319 830.951 L63.9319 861.576 L71.5707 861.576 L71.5707 865.511 L51.6634 865.511 L51.6634 861.576 Z" fill="#000000" fill-rule="nonzero" fill-opacity="1" /><path clip-path="url(#clip480)" d="M91.0151 834.03 Q87.404 834.03 85.5753 837.595 Q83.7697 841.136 83.7697 848.266 Q83.7697 855.372 85.5753 858.937 Q87.404 862.479 91.0151 862.479 Q94.6493 862.479 96.4548 858.937 Q98.2835 855.372 98.2835 848.266 Q98.2835 841.136 96.4548 837.595 Q94.6493 834.03 91.0151 834.03 M91.0151 830.326 Q96.8252 830.326 99.8808 834.933 Q102.959 839.516 102.959 848.266 Q102.959 856.993 99.8808 861.599 Q96.8252 866.183 91.0151 866.183 Q85.2049 866.183 82.1262 861.599 Q79.0707 856.993 79.0707 848.266 Q79.0707 839.516 82.1262 834.933 Q85.2049 830.326 91.0151 830.326 Z" fill="#000000" fill-rule="nonzero" fill-opacity="1" /><path clip-path="url(#clip480)" d="M102.959 824.428 L127.071 824.428 L127.071 827.625 L102.959 827.625 L102.959 824.428 Z" fill="#000000" fill-rule="nonzero" fill-opacity="1" /><path clip-path="url(#clip480)" d="M146.782 822.961 Q149.509 823.544 151.032 825.387 Q152.574 827.23 152.574 829.938 Q152.574 834.095 149.716 836.371 Q146.857 838.646 141.591 838.646 Q139.823 838.646 137.942 838.289 Q136.08 837.95 134.086 837.254 L134.086 833.587 Q135.666 834.509 137.547 834.979 Q139.428 835.449 141.478 835.449 Q145.051 835.449 146.913 834.038 Q148.794 832.628 148.794 829.938 Q148.794 827.456 147.045 826.064 Q145.315 824.653 142.211 824.653 L138.939 824.653 L138.939 821.531 L142.362 821.531 Q145.164 821.531 146.65 820.422 Q148.136 819.293 148.136 817.187 Q148.136 815.024 146.593 813.876 Q145.07 812.71 142.211 812.71 Q140.65 812.71 138.863 813.049 Q137.077 813.387 134.933 814.102 L134.933 810.717 Q137.096 810.115 138.976 809.814 Q140.876 809.513 142.55 809.513 Q146.876 809.513 149.396 811.488 Q151.916 813.444 151.916 816.792 Q151.916 819.124 150.581 820.741 Q149.245 822.34 146.782 822.961 Z" fill="#000000" fill-rule="nonzero" fill-opacity="1" /><path clip-path="url(#clip480)" d="M81.8687 67.239 L89.5075 67.239 L89.5075 40.8734 L81.1974 42.54 L81.1974 38.2808 L89.4612 36.6141 L94.1371 36.6141 L94.1371 67.239 L101.776 67.239 L101.776 71.1741 L81.8687 71.1741 L81.8687 67.239 Z" fill="#000000" fill-rule="nonzero" fill-opacity="1" /><path clip-path="url(#clip480)" d="M121.22 39.6928 Q117.609 39.6928 115.781 43.2576 Q113.975 46.7993 113.975 53.9289 Q113.975 61.0353 115.781 64.6001 Q117.609 68.1417 121.22 68.1417 Q124.855 68.1417 126.66 64.6001 Q128.489 61.0353 128.489 53.9289 Q128.489 46.7993 126.66 43.2576 Q124.855 39.6928 121.22 39.6928 M121.22 35.9891 Q127.03 35.9891 130.086 40.5956 Q133.165 45.1789 133.165 53.9289 Q133.165 62.6557 130.086 67.2621 Q127.03 71.8454 121.22 71.8454 Q115.41 71.8454 112.331 67.2621 Q109.276 62.6557 109.276 53.9289 Q109.276 45.1789 112.331 40.5956 Q115.41 35.9891 121.22 35.9891 Z" fill="#000000" fill-rule="nonzero" fill-opacity="1" /><path clip-path="url(#clip480)" d="M142.87 18.1852 Q139.936 18.1852 138.45 21.0816 Q136.983 23.9591 136.983 29.7519 Q136.983 35.5259 138.45 38.4223 Q139.936 41.2999 142.87 41.2999 Q145.822 41.2999 147.289 38.4223 Q148.775 35.5259 148.775 29.7519 Q148.775 23.9591 147.289 21.0816 Q145.822 18.1852 142.87 18.1852 M142.87 15.1759 Q147.59 15.1759 150.073 18.9187 Q152.574 22.6426 152.574 29.7519 Q152.574 36.8425 150.073 40.5852 Q147.59 44.3092 142.87 44.3092 Q138.149 44.3092 135.647 40.5852 Q133.165 36.8425 133.165 29.7519 Q133.165 22.6426 135.647 18.9187 Q138.149 15.1759 142.87 15.1759 Z" fill="#000000" fill-rule="nonzero" fill-opacity="1" /><polyline clip-path="url(#clip482)" style="stroke:#009af9; stroke-linecap:round; stroke-linejoin:round; stroke-width:4; stroke-opacity:1; fill:none" points="249.825,87.9763 505.035,309.966 760.245,620.866 1015.46,624.381 1270.67,614.474 1525.88,1069.99 1781.09,1013.55 2036.3,1166.79 2291.51,1445.72 "/>
<line clip-path="url(#clip482)" x1="249.825" y1="87.9763" x2="233.825" y2="71.9763" style="stroke:#009af9; stroke-width:4; stroke-opacity:1"/>
<line clip-path="url(#clip482)" x1="249.825" y1="87.9763" x2="233.825" y2="103.976" style="stroke:#009af9; stroke-width:4; stroke-opacity:1"/>
<line clip-path="url(#clip482)" x1="249.825" y1="87.9763" x2="265.825" y2="103.976" style="stroke:#009af9; stroke-width:4; stroke-opacity:1"/>
<line clip-path="url(#clip482)" x1="249.825" y1="87.9763" x2="265.825" y2="71.9763" style="stroke:#009af9; stroke-width:4; stroke-opacity:1"/>
<line clip-path="url(#clip482)" x1="505.035" y1="309.966" x2="489.035" y2="293.966" style="stroke:#009af9; stroke-width:4; stroke-opacity:1"/>
<line clip-path="url(#clip482)" x1="505.035" y1="309.966" x2="489.035" y2="325.966" style="stroke:#009af9; stroke-width:4; stroke-opacity:1"/>
<line clip-path="url(#clip482)" x1="505.035" y1="309.966" x2="521.035" y2="325.966" style="stroke:#009af9; stroke-width:4; stroke-opacity:1"/>
<line clip-path="url(#clip482)" x1="505.035" y1="309.966" x2="521.035" y2="293.966" style="stroke:#009af9; stroke-width:4; stroke-opacity:1"/>
<line clip-path="url(#clip482)" x1="760.245" y1="620.866" x2="744.245" y2="604.866" style="stroke:#009af9; stroke-width:4; stroke-opacity:1"/>
<line clip-path="url(#clip482)" x1="760.245" y1="620.866" x2="744.245" y2="636.866" style="stroke:#009af9; stroke-width:4; stroke-opacity:1"/>
<line clip-path="url(#clip482)" x1="760.245" y1="620.866" x2="776.245" y2="636.866" style="stroke:#009af9; stroke-width:4; stroke-opacity:1"/>
<line clip-path="url(#clip482)" x1="760.245" y1="620.866" x2="776.245" y2="604.866" style="stroke:#009af9; stroke-width:4; stroke-opacity:1"/>
<line clip-path="url(#clip482)" x1="1015.46" y1="624.381" x2="999.455" y2="608.381" style="stroke:#009af9; stroke-width:4; stroke-opacity:1"/>
<line clip-path="url(#clip482)" x1="1015.46" y1="624.381" x2="999.455" y2="640.381" style="stroke:#009af9; stroke-width:4; stroke-opacity:1"/>
<line clip-path="url(#clip482)" x1="1015.46" y1="624.381" x2="1031.46" y2="640.381" style="stroke:#009af9; stroke-width:4; stroke-opacity:1"/>
<line clip-path="url(#clip482)" x1="1015.46" y1="624.381" x2="1031.46" y2="608.381" style="stroke:#009af9; stroke-width:4; stroke-opacity:1"/>
<line clip-path="url(#clip482)" x1="1270.67" y1="614.474" x2="1254.67" y2="598.474" style="stroke:#009af9; stroke-width:4; stroke-opacity:1"/>
<line clip-path="url(#clip482)" x1="1270.67" y1="614.474" x2="1254.67" y2="630.474" style="stroke:#009af9; stroke-width:4; stroke-opacity:1"/>
<line clip-path="url(#clip482)" x1="1270.67" y1="614.474" x2="1286.67" y2="630.474" style="stroke:#009af9; stroke-width:4; stroke-opacity:1"/>
<line clip-path="url(#clip482)" x1="1270.67" y1="614.474" x2="1286.67" y2="598.474" style="stroke:#009af9; stroke-width:4; stroke-opacity:1"/>
<line clip-path="url(#clip482)" x1="1525.88" y1="1069.99" x2="1509.88" y2="1053.99" style="stroke:#009af9; stroke-width:4; stroke-opacity:1"/>
<line clip-path="url(#clip482)" x1="1525.88" y1="1069.99" x2="1509.88" y2="1085.99" style="stroke:#009af9; stroke-width:4; stroke-opacity:1"/>
<line clip-path="url(#clip482)" x1="1525.88" y1="1069.99" x2="1541.88" y2="1085.99" style="stroke:#009af9; stroke-width:4; stroke-opacity:1"/>
<line clip-path="url(#clip482)" x1="1525.88" y1="1069.99" x2="1541.88" y2="1053.99" style="stroke:#009af9; stroke-width:4; stroke-opacity:1"/>
<line clip-path="url(#clip482)" x1="1781.09" y1="1013.55" x2="1765.09" y2="997.548" style="stroke:#009af9; stroke-width:4; stroke-opacity:1"/>
<line clip-path="url(#clip482)" x1="1781.09" y1="1013.55" x2="1765.09" y2="1029.55" style="stroke:#009af9; stroke-width:4; stroke-opacity:1"/>
<line clip-path="url(#clip482)" x1="1781.09" y1="1013.55" x2="1797.09" y2="1029.55" style="stroke:#009af9; stroke-width:4; stroke-opacity:1"/>
<line clip-path="url(#clip482)" x1="1781.09" y1="1013.55" x2="1797.09" y2="997.548" style="stroke:#009af9; stroke-width:4; stroke-opacity:1"/>
<line clip-path="url(#clip482)" x1="2036.3" y1="1166.79" x2="2020.3" y2="1150.79" style="stroke:#009af9; stroke-width:4; stroke-opacity:1"/>
<line clip-path="url(#clip482)" x1="2036.3" y1="1166.79" x2="2020.3" y2="1182.79" style="stroke:#009af9; stroke-width:4; stroke-opacity:1"/>
<line clip-path="url(#clip482)" x1="2036.3" y1="1166.79" x2="2052.3" y2="1182.79" style="stroke:#009af9; stroke-width:4; stroke-opacity:1"/>
<line clip-path="url(#clip482)" x1="2036.3" y1="1166.79" x2="2052.3" y2="1150.79" style="stroke:#009af9; stroke-width:4; stroke-opacity:1"/>
<line clip-path="url(#clip482)" x1="2291.51" y1="1445.72" x2="2275.51" y2="1429.72" style="stroke:#009af9; stroke-width:4; stroke-opacity:1"/>
<line clip-path="url(#clip482)" x1="2291.51" y1="1445.72" x2="2275.51" y2="1461.72" style="stroke:#009af9; stroke-width:4; stroke-opacity:1"/>
<line clip-path="url(#clip482)" x1="2291.51" y1="1445.72" x2="2307.51" y2="1461.72" style="stroke:#009af9; stroke-width:4; stroke-opacity:1"/>
<line clip-path="url(#clip482)" x1="2291.51" y1="1445.72" x2="2307.51" y2="1429.72" style="stroke:#009af9; stroke-width:4; stroke-opacity:1"/>
<path clip-path="url(#clip480)" d="M1816.01 198.898 L2280.62 198.898 L2280.62 95.2176 L1816.01 95.2176  Z" fill="#ffffff" fill-rule="evenodd" fill-opacity="1"/>
<polyline clip-path="url(#clip480)" style="stroke:#000000; stroke-linecap:round; stroke-linejoin:round; stroke-width:4; stroke-opacity:1; fill:none" points="1816.01,198.898 2280.62,198.898 2280.62,95.2176 1816.01,95.2176 1816.01,198.898 "/>
<polyline clip-path="url(#clip480)" style="stroke:#009af9; stroke-linecap:round; stroke-linejoin:round; stroke-width:4; stroke-opacity:1; fill:none" points="1840.05,147.058 1984.33,147.058 "/>
<line clip-path="url(#clip480)" x1="1912.19" y1="147.058" x2="1889.93" y2="124.792" style="stroke:#009af9; stroke-width:4.55111; stroke-opacity:1"/>
<line clip-path="url(#clip480)" x1="1912.19" y1="147.058" x2="1889.93" y2="169.323" style="stroke:#009af9; stroke-width:4.55111; stroke-opacity:1"/>
<line clip-path="url(#clip480)" x1="1912.19" y1="147.058" x2="1934.46" y2="169.323" style="stroke:#009af9; stroke-width:4.55111; stroke-opacity:1"/>
<line clip-path="url(#clip480)" x1="1912.19" y1="147.058" x2="1934.46" y2="124.792" style="stroke:#009af9; stroke-width:4.55111; stroke-opacity:1"/>
<path clip-path="url(#clip480)" d="M2012.31 128.111 L2012.31 175.518 L2008.38 175.518 L2008.38 128.111 L2012.31 128.111 Z" fill="#000000" fill-rule="nonzero" fill-opacity="1" /><path clip-path="url(#clip480)" d="M2024.72 143.041 Q2026.13 140.68 2029.63 138.597 Q2030.99 137.787 2035.21 137.787 Q2039.93 137.787 2042.87 141.537 Q2045.83 145.287 2045.83 151.398 Q2045.83 157.509 2042.87 161.259 Q2039.93 165.009 2035.21 165.009 Q2032.36 165.009 2030.3 163.898 Q2028.26 162.763 2026.92 160.449 L2026.92 174.199 L2022.64 174.199 L2022.64 151.629 Q2022.64 146.282 2024.72 143.041 M2041.41 151.398 Q2041.41 146.699 2039.46 144.037 Q2037.54 141.352 2034.16 141.352 Q2030.78 141.352 2028.84 144.037 Q2026.92 146.699 2026.92 151.398 Q2026.92 156.097 2028.84 158.782 Q2030.78 161.444 2034.16 161.444 Q2037.54 161.444 2039.46 158.782 Q2041.41 156.097 2041.41 151.398 Z" fill="#000000" fill-rule="nonzero" fill-opacity="1" /><path clip-path="url(#clip480)" d="M2062.94 141.398 Q2059.51 141.398 2057.52 144.083 Q2055.53 146.745 2055.53 151.398 Q2055.53 156.051 2057.5 158.736 Q2059.49 161.398 2062.94 161.398 Q2066.34 161.398 2068.33 158.713 Q2070.32 156.027 2070.32 151.398 Q2070.32 146.791 2068.33 144.106 Q2066.34 141.398 2062.94 141.398 M2062.94 137.787 Q2068.49 137.787 2071.66 141.398 Q2074.83 145.009 2074.83 151.398 Q2074.83 157.764 2071.66 161.398 Q2068.49 165.009 2062.94 165.009 Q2057.36 165.009 2054.19 161.398 Q2051.04 157.764 2051.04 151.398 Q2051.04 145.009 2054.19 141.398 Q2057.36 137.787 2062.94 137.787 Z" fill="#000000" fill-rule="nonzero" fill-opacity="1" /><path clip-path="url(#clip480)" d="M2081.46 154.106 L2081.46 138.412 L2085.71 138.412 L2085.71 153.944 Q2085.71 157.625 2087.15 159.476 Q2088.58 161.305 2091.46 161.305 Q2094.9 161.305 2096.89 159.106 Q2098.91 156.907 2098.91 153.111 L2098.91 138.412 L2103.17 138.412 L2103.17 164.338 L2098.91 164.338 L2098.91 160.356 Q2097.36 162.717 2095.3 163.875 Q2093.26 165.009 2090.55 165.009 Q2086.08 165.009 2083.77 162.231 Q2081.46 159.453 2081.46 154.106 M2092.17 137.787 L2092.17 137.787 Z" fill="#000000" fill-rule="nonzero" fill-opacity="1" /><path clip-path="url(#clip480)" d="M2116.15 131.051 L2116.15 138.412 L2124.93 138.412 L2124.93 141.722 L2116.15 141.722 L2116.15 155.796 Q2116.15 158.967 2117.01 159.87 Q2117.89 160.773 2120.55 160.773 L2124.93 160.773 L2124.93 164.338 L2120.55 164.338 Q2115.62 164.338 2113.75 162.509 Q2111.87 160.657 2111.87 155.796 L2111.87 141.722 L2108.75 141.722 L2108.75 138.412 L2111.87 138.412 L2111.87 131.051 L2116.15 131.051 Z" fill="#000000" fill-rule="nonzero" fill-opacity="1" /><path clip-path="url(#clip480)" d="M2143.45 149.453 L2155.92 149.453 L2155.92 153.25 L2143.45 153.25 L2143.45 149.453 Z" fill="#000000" fill-rule="nonzero" fill-opacity="1" /><path clip-path="url(#clip480)" d="M2179.7 143.041 Q2181.11 140.68 2184.6 138.597 Q2185.97 137.787 2190.18 137.787 Q2194.9 137.787 2197.84 141.537 Q2200.81 145.287 2200.81 151.398 Q2200.81 157.509 2197.84 161.259 Q2194.9 165.009 2190.18 165.009 Q2187.33 165.009 2185.27 163.898 Q2183.24 162.763 2181.89 160.449 L2181.89 174.199 L2177.61 174.199 L2177.61 151.629 Q2177.61 146.282 2179.7 143.041 M2196.39 151.398 Q2196.39 146.699 2194.44 144.037 Q2192.52 141.352 2189.14 141.352 Q2185.76 141.352 2183.82 144.037 Q2181.89 146.699 2181.89 151.398 Q2181.89 156.097 2183.82 158.782 Q2185.76 161.444 2189.14 161.444 Q2192.52 161.444 2194.44 158.782 Q2196.39 156.097 2196.39 151.398 Z" fill="#000000" fill-rule="nonzero" fill-opacity="1" /><path clip-path="url(#clip480)" d="M2207.87 138.412 L2212.13 138.412 L2212.13 164.338 L2207.87 164.338 L2207.87 138.412 M2207.87 128.319 L2212.13 128.319 L2212.13 133.713 L2207.87 133.713 L2207.87 128.319 Z" fill="#000000" fill-rule="nonzero" fill-opacity="1" /><path clip-path="url(#clip480)" d="M2242.59 148.689 L2242.59 164.338 L2238.33 164.338 L2238.33 148.828 Q2238.33 145.148 2236.89 143.319 Q2235.46 141.49 2232.59 141.49 Q2229.14 141.49 2227.15 143.69 Q2225.16 145.889 2225.16 149.685 L2225.16 164.338 L2220.88 164.338 L2220.88 138.412 L2225.16 138.412 L2225.16 142.44 Q2226.69 140.102 2228.75 138.944 Q2230.83 137.787 2233.54 137.787 Q2238.01 137.787 2240.3 140.565 Q2242.59 143.319 2242.59 148.689 Z" fill="#000000" fill-rule="nonzero" fill-opacity="1" /><path clip-path="url(#clip480)" d="M2256.57 128.111 L2256.57 175.518 L2252.63 175.518 L2252.63 128.111 L2256.57 128.111 Z" fill="#000000" fill-rule="nonzero" fill-opacity="1" /></svg>
