<?xml version="1.0" encoding="utf-8"?>
<svg xmlns="http://www.w3.org/2000/svg" xmlns:xlink="http://www.w3.org/1999/xlink" width="600" height="400" viewBox="0 0 2400 1600">
<defs>
  <clipPath id="clip410">
    <rect x="0" y="0" width="2400" height="1600"/>
  </clipPath>
</defs>
<path clip-path="url(#clip410)" d="M0 1600 L2400 1600 L2400 0 L0 0  Z" fill="#ffffff" fill-rule="evenodd" fill-opacity="1"/>
<defs>
  <clipPath id="clip411">
    <rect x="480" y="0" width="1681" height="1600"/>
  </clipPath>
</defs>
<path clip-path="url(#clip410)" d="M189.496 1486.45 L2352.76 1486.45 L2352.76 47.2441 L189.496 47.2441  Z" fill="#ffffff" fill-rule="evenodd" fill-opacity="1"/>
<defs>
  <clipPath id="clip412">
    <rect x="189" y="47" width="2164" height="1440"/>
  </clipPath>
</defs>
<polyline clip-path="url(#clip412)" style="stroke:#000000; stroke-linecap:round; stroke-linejoin:round; stroke-width:2; stroke-opacity:0.1; fill:none" points="542.265,1486.45 542.265,47.2441 "/>
<polyline clip-path="url(#clip412)" style="stroke:#000000; stroke-linecap:round; stroke-linejoin:round; stroke-width:2; stroke-opacity:0.1; fill:none" points="1125.35,1486.45 1125.35,47.2441 "/>
<polyline clip-path="url(#clip412)" style="stroke:#000000; stroke-linecap:round; stroke-linejoin:round; stroke-width:2; stroke-opacity:0.1; fill:none" points="1708.44,1486.45 1708.44,47.2441 "/>
<polyline clip-path="url(#clip412)" style="stroke:#000000; stroke-linecap:round; stroke-linejoin:round; stroke-width:2; stroke-opacity:0.1; fill:none" points="2291.53,1486.45 2291.53,47.2441 "/>
<polyline clip-path="url(#clip410)" style="stroke:#000000; stroke-linecap:round; stroke-linejoin:round; stroke-width:4; stroke-opacity:1; fill:none" points="189.496,1486.45 2352.76,1486.45 "/>
<polyline clip-path="url(#clip410)" style="stroke:#000000; stroke-linecap:round; stroke-linejoin:round; stroke-width:4; stroke-opacity:1; fill:none" points="542.265,1486.45 542.265,1467.55 "/>
<polyline clip-path="url(#clip410)" style="stroke:#000000; stroke-linecap:round; stroke-linejoin:round; stroke-width:4; stroke-opacity:1; fill:none" points="1125.35,1486.45 1125.35,1467.55 "/>
<polyline clip-path="url(#clip410)" style="stroke:#000000; stroke-linecap:round; stroke-linejoin:round; stroke-width:4; stroke-opacity:1; fill:none" points="1708.44,1486.45 1708.44,1467.55 "/>
<polyline clip-path="url(#clip410)" style="stroke:#000000; stroke-linecap:round; stroke-linejoin:round; stroke-width:4; stroke-opacity:1; fill:none" points="2291.53,1486.45 2291.53,1467.55 "/>
<path clip-path="url(#clip410)" d="M536.918 1544.91 L553.237 1544.91 L553.237 1548.85 L531.293 1548.85 L531.293 1544.91 Q533.955 1542.16 538.538 1537.53 Q543.144 1532.88 544.325 1531.53 Q546.57 1529.01 547.45 1527.27 Q548.353 1525.51 548.353 1523.82 Q548.353 1521.07 546.408 1519.33 Q544.487 1517.6 541.385 1517.6 Q539.186 1517.6 536.732 1518.36 Q534.302 1519.13 531.524 1520.68 L531.524 1515.95 Q534.348 1514.82 536.802 1514.24 Q539.255 1513.66 541.293 1513.66 Q546.663 1513.66 549.857 1516.35 Q553.052 1519.03 553.052 1523.52 Q553.052 1525.65 552.242 1527.57 Q551.454 1529.47 549.348 1532.07 Q548.769 1532.74 545.667 1535.95 Q542.566 1539.15 536.918 1544.91 Z" fill="#000000" fill-rule="nonzero" fill-opacity="1" /><path clip-path="url(#clip410)" d="M1128.36 1518.36 L1116.56 1536.81 L1128.36 1536.81 L1128.36 1518.36 M1127.14 1514.29 L1133.02 1514.29 L1133.02 1536.81 L1137.95 1536.81 L1137.95 1540.7 L1133.02 1540.7 L1133.02 1548.85 L1128.36 1548.85 L1128.36 1540.7 L1112.76 1540.7 L1112.76 1536.19 L1127.14 1514.29 Z" fill="#000000" fill-rule="nonzero" fill-opacity="1" /><path clip-path="url(#clip410)" d="M1708.85 1529.7 Q1705.7 1529.7 1703.85 1531.86 Q1702.02 1534.01 1702.02 1537.76 Q1702.02 1541.49 1703.85 1543.66 Q1705.7 1545.82 1708.85 1545.82 Q1712 1545.82 1713.82 1543.66 Q1715.68 1541.49 1715.68 1537.76 Q1715.68 1534.01 1713.82 1531.86 Q1712 1529.7 1708.85 1529.7 M1718.13 1515.05 L1718.13 1519.31 Q1716.37 1518.48 1714.57 1518.04 Q1712.78 1517.6 1711.02 1517.6 Q1706.39 1517.6 1703.94 1520.72 Q1701.51 1523.85 1701.16 1530.17 Q1702.53 1528.15 1704.59 1527.09 Q1706.65 1526 1709.13 1526 Q1714.33 1526 1717.34 1529.17 Q1720.38 1532.32 1720.38 1537.76 Q1720.38 1543.08 1717.23 1546.3 Q1714.08 1549.52 1708.85 1549.52 Q1702.85 1549.52 1699.68 1544.94 Q1696.51 1540.33 1696.51 1531.6 Q1696.51 1523.41 1700.4 1518.55 Q1704.29 1513.66 1710.84 1513.66 Q1712.6 1513.66 1714.38 1514.01 Q1716.19 1514.36 1718.13 1515.05 Z" fill="#000000" fill-rule="nonzero" fill-opacity="1" /><path clip-path="url(#clip410)" d="M2291.53 1532.44 Q2288.2 1532.44 2286.28 1534.22 Q2284.38 1536 2284.38 1539.13 Q2284.38 1542.25 2286.28 1544.03 Q2288.2 1545.82 2291.53 1545.82 Q2294.86 1545.82 2296.79 1544.03 Q2298.71 1542.23 2298.71 1539.13 Q2298.71 1536 2296.79 1534.22 Q2294.89 1532.44 2291.53 1532.44 M2286.86 1530.45 Q2283.85 1529.7 2282.16 1527.64 Q2280.49 1525.58 2280.49 1522.62 Q2280.49 1518.48 2283.43 1516.07 Q2286.39 1513.66 2291.53 1513.66 Q2296.69 1513.66 2299.63 1516.07 Q2302.57 1518.48 2302.57 1522.62 Q2302.57 1525.58 2300.88 1527.64 Q2299.22 1529.7 2296.23 1530.45 Q2299.61 1531.23 2301.49 1533.52 Q2303.38 1535.82 2303.38 1539.13 Q2303.38 1544.15 2300.3 1546.83 Q2297.25 1549.52 2291.53 1549.52 Q2285.81 1549.52 2282.74 1546.83 Q2279.68 1544.15 2279.68 1539.13 Q2279.68 1535.82 2281.58 1533.52 Q2283.48 1531.23 2286.86 1530.45 M2285.14 1523.06 Q2285.14 1525.75 2286.81 1527.25 Q2288.5 1528.76 2291.53 1528.76 Q2294.54 1528.76 2296.23 1527.25 Q2297.94 1525.75 2297.94 1523.06 Q2297.94 1520.38 2296.23 1518.87 Q2294.54 1517.37 2291.53 1517.37 Q2288.5 1517.37 2286.81 1518.87 Q2285.14 1520.38 2285.14 1523.06 Z" fill="#000000" fill-rule="nonzero" fill-opacity="1" /><polyline clip-path="url(#clip412)" style="stroke:#000000; stroke-linecap:round; stroke-linejoin:round; stroke-width:2; stroke-opacity:0.1; fill:none" points="189.496,1310.53 2352.76,1310.53 "/>
<polyline clip-path="url(#clip412)" style="stroke:#000000; stroke-linecap:round; stroke-linejoin:round; stroke-width:2; stroke-opacity:0.1; fill:none" points="189.496,1007.7 2352.76,1007.7 "/>
<polyline clip-path="url(#clip412)" style="stroke:#000000; stroke-linecap:round; stroke-linejoin:round; stroke-width:2; stroke-opacity:0.1; fill:none" points="189.496,704.861 2352.76,704.861 "/>
<polyline clip-path="url(#clip412)" style="stroke:#000000; stroke-linecap:round; stroke-linejoin:round; stroke-width:2; stroke-opacity:0.1; fill:none" points="189.496,402.024 2352.76,402.024 "/>
<polyline clip-path="url(#clip412)" style="stroke:#000000; stroke-linecap:round; stroke-linejoin:round; stroke-width:2; stroke-opacity:0.1; fill:none" points="189.496,99.1876 2352.76,99.1876 "/>
<polyline clip-path="url(#clip410)" style="stroke:#000000; stroke-linecap:round; stroke-linejoin:round; stroke-width:4; stroke-opacity:1; fill:none" points="189.496,1486.45 189.496,47.2441 "/>
<polyline clip-path="url(#clip410)" style="stroke:#000000; stroke-linecap:round; stroke-linejoin:round; stroke-width:4; stroke-opacity:1; fill:none" points="189.496,1310.53 208.394,1310.53 "/>
<polyline clip-path="url(#clip410)" style="stroke:#000000; stroke-linecap:round; stroke-linejoin:round; stroke-width:4; stroke-opacity:1; fill:none" points="189.496,1007.7 208.394,1007.7 "/>
<polyline clip-path="url(#clip410)" style="stroke:#000000; stroke-linecap:round; stroke-linejoin:round; stroke-width:4; stroke-opacity:1; fill:none" points="189.496,704.861 208.394,704.861 "/>
<polyline clip-path="url(#clip410)" style="stroke:#000000; stroke-linecap:round; stroke-linejoin:round; stroke-width:4; stroke-opacity:1; fill:none" points="189.496,402.024 208.394,402.024 "/>
<polyline clip-path="url(#clip410)" style="stroke:#000000; stroke-linecap:round; stroke-linejoin:round; stroke-width:4; stroke-opacity:1; fill:none" points="189.496,99.1876 208.394,99.1876 "/>
<path clip-path="url(#clip410)" d="M51.6634 1330.33 L59.3023 1330.33 L59.3023 1303.96 L50.9921 1305.63 L50.9921 1301.37 L59.256 1299.7 L63.9319 1299.7 L63.9319 1330.33 L71.5707 1330.33 L71.5707 1334.26 L51.6634 1334.26 L51.6634 1330.33 Z" fill="#000000" fill-rule="nonzero" fill-opacity="1" /><path clip-path="url(#clip410)" d="M91.0151 1302.78 Q87.404 1302.78 85.5753 1306.35 Q83.7697 1309.89 83.7697 1317.02 Q83.7697 1324.12 85.5753 1327.69 Q87.404 1331.23 91.0151 1331.23 Q94.6493 1331.23 96.4548 1327.69 Q98.2835 1324.12 98.2835 1317.02 Q98.2835 1309.89 96.4548 1306.35 Q94.6493 1302.78 91.0151 1302.78 M91.0151 1299.08 Q96.8252 1299.08 99.8808 1303.68 Q102.959 1308.27 102.959 1317.02 Q102.959 1325.74 99.8808 1330.35 Q96.8252 1334.93 91.0151 1334.93 Q85.2049 1334.93 82.1262 1330.35 Q79.0707 1325.74 79.0707 1317.02 Q79.0707 1308.27 82.1262 1303.68 Q85.2049 1299.08 91.0151 1299.08 Z" fill="#000000" fill-rule="nonzero" fill-opacity="1" /><path clip-path="url(#clip410)" d="M102.959 1293.18 L127.071 1293.18 L127.071 1296.38 L102.959 1296.38 L102.959 1293.18 Z" fill="#000000" fill-rule="nonzero" fill-opacity="1" /><path clip-path="url(#clip410)" d="M145.71 1282.08 L136.118 1297.07 L145.71 1297.07 L145.71 1282.08 M144.713 1278.77 L149.49 1278.77 L149.49 1297.07 L153.496 1297.07 L153.496 1300.23 L149.49 1300.23 L149.49 1306.85 L145.71 1306.85 L145.71 1300.23 L133.033 1300.23 L133.033 1296.56 L144.713 1278.77 Z" fill="#000000" fill-rule="nonzero" fill-opacity="1" /><path clip-path="url(#clip410)" d="M52.585 1027.49 L60.2238 1027.49 L60.2238 1001.12 L51.9137 1002.79 L51.9137 998.532 L60.1776 996.865 L64.8535 996.865 L64.8535 1027.49 L72.4923 1027.49 L72.4923 1031.43 L52.585 1031.43 L52.585 1027.49 Z" fill="#000000" fill-rule="nonzero" fill-opacity="1" /><path clip-path="url(#clip410)" d="M91.9366 999.944 Q88.3255 999.944 86.4969 1003.51 Q84.6913 1007.05 84.6913 1014.18 Q84.6913 1021.29 86.4969 1024.85 Q88.3255 1028.39 91.9366 1028.39 Q95.5709 1028.39 97.3764 1024.85 Q99.2051 1021.29 99.2051 1014.18 Q99.2051 1007.05 97.3764 1003.51 Q95.5709 999.944 91.9366 999.944 M91.9366 996.241 Q97.7468 996.241 100.802 1000.85 Q103.881 1005.43 103.881 1014.18 Q103.881 1022.91 100.802 1027.51 Q97.7468 1032.1 91.9366 1032.1 Q86.1265 1032.1 83.0478 1027.51 Q79.9923 1022.91 79.9923 1014.18 Q79.9923 1005.43 83.0478 1000.85 Q86.1265 996.241 91.9366 996.241 Z" fill="#000000" fill-rule="nonzero" fill-opacity="1" /><path clip-path="url(#clip410)" d="M103.881 990.342 L127.993 990.342 L127.993 993.539 L103.881 993.539 L103.881 990.342 Z" fill="#000000" fill-rule="nonzero" fill-opacity="1" /><path clip-path="url(#clip410)" d="M147.703 988.875 Q150.43 989.458 151.954 991.301 Q153.496 993.144 153.496 995.853 Q153.496 1000.01 150.637 1002.28 Q147.778 1004.56 142.512 1004.56 Q140.744 1004.56 138.863 1004.2 Q137.002 1003.86 135.008 1003.17 L135.008 999.501 Q136.588 1000.42 138.469 1000.89 Q140.349 1001.36 142.399 1001.36 Q145.973 1001.36 147.835 999.953 Q149.716 998.542 149.716 995.853 Q149.716 993.37 147.966 991.978 Q146.236 990.568 143.133 990.568 L139.86 990.568 L139.86 987.445 L143.283 987.445 Q146.086 987.445 147.571 986.336 Q149.057 985.207 149.057 983.101 Q149.057 980.938 147.515 979.791 Q145.992 978.625 143.133 978.625 Q141.572 978.625 139.785 978.963 Q137.998 979.302 135.854 980.016 L135.854 976.631 Q138.017 976.029 139.898 975.728 Q141.797 975.427 143.471 975.427 Q147.797 975.427 150.317 977.402 Q152.838 979.358 152.838 982.706 Q152.838 985.038 151.502 986.656 Q150.167 988.254 147.703 988.875 Z" fill="#000000" fill-rule="nonzero" fill-opacity="1" /><path clip-path="url(#clip410)" d="M53.3561 724.654 L60.995 724.654 L60.995 698.288 L52.6848 699.955 L52.6848 695.695 L60.9487 694.029 L65.6246 694.029 L65.6246 724.654 L73.2634 724.654 L73.2634 728.589 L53.3561 728.589 L53.3561 724.654 Z" fill="#000000" fill-rule="nonzero" fill-opacity="1" /><path clip-path="url(#clip410)" d="M92.7078 697.107 Q89.0967 697.107 87.268 700.672 Q85.4624 704.214 85.4624 711.343 Q85.4624 718.45 87.268 722.015 Q89.0967 725.556 92.7078 725.556 Q96.342 725.556 98.1475 722.015 Q99.9762 718.45 99.9762 711.343 Q99.9762 704.214 98.1475 700.672 Q96.342 697.107 92.7078 697.107 M92.7078 693.404 Q98.5179 693.404 101.573 698.01 Q104.652 702.594 104.652 711.343 Q104.652 720.07 101.573 724.677 Q98.5179 729.26 92.7078 729.26 Q86.8976 729.26 83.8189 724.677 Q80.7634 720.07 80.7634 711.343 Q80.7634 702.594 83.8189 698.01 Q86.8976 693.404 92.7078 693.404 Z" fill="#000000" fill-rule="nonzero" fill-opacity="1" /><path clip-path="url(#clip410)" d="M104.652 687.505 L128.764 687.505 L128.764 690.702 L104.652 690.702 L104.652 687.505 Z" fill="#000000" fill-rule="nonzero" fill-opacity="1" /><path clip-path="url(#clip410)" d="M140.236 697.981 L153.496 697.981 L153.496 701.178 L135.666 701.178 L135.666 697.981 Q137.829 695.743 141.553 691.981 Q145.296 688.201 146.255 687.11 Q148.079 685.06 148.794 683.649 Q149.527 682.22 149.527 680.847 Q149.527 678.609 147.948 677.198 Q146.387 675.788 143.866 675.788 Q142.08 675.788 140.086 676.409 Q138.111 677.029 135.854 678.289 L135.854 674.452 Q138.149 673.531 140.142 673.061 Q142.136 672.591 143.791 672.591 Q148.155 672.591 150.75 674.772 Q153.345 676.954 153.345 680.603 Q153.345 682.333 152.687 683.894 Q152.048 685.436 150.336 687.543 Q149.866 688.088 147.346 690.702 Q144.826 693.298 140.236 697.981 Z" fill="#000000" fill-rule="nonzero" fill-opacity="1" /><path clip-path="url(#clip410)" d="M53.0552 421.817 L60.694 421.817 L60.694 395.451 L52.3839 397.118 L52.3839 392.859 L60.6477 391.192 L65.3236 391.192 L65.3236 421.817 L72.9625 421.817 L72.9625 425.752 L53.0552 425.752 L53.0552 421.817 Z" fill="#000000" fill-rule="nonzero" fill-opacity="1" /><path clip-path="url(#clip410)" d="M92.4068 394.271 Q88.7957 394.271 86.967 397.835 Q85.1615 401.377 85.1615 408.507 Q85.1615 415.613 86.967 419.178 Q88.7957 422.72 92.4068 422.72 Q96.0411 422.72 97.8466 419.178 Q99.6753 415.613 99.6753 408.507 Q99.6753 401.377 97.8466 397.835 Q96.0411 394.271 92.4068 394.271 M92.4068 390.567 Q98.217 390.567 101.273 395.173 Q104.351 399.757 104.351 408.507 Q104.351 417.234 101.273 421.84 Q98.217 426.423 92.4068 426.423 Q86.5967 426.423 83.518 421.84 Q80.4625 417.234 80.4625 408.507 Q80.4625 399.757 83.518 395.173 Q86.5967 390.567 92.4068 390.567 Z" fill="#000000" fill-rule="nonzero" fill-opacity="1" /><path clip-path="url(#clip410)" d="M104.351 384.668 L128.463 384.668 L128.463 387.866 L104.351 387.866 L104.351 384.668 Z" fill="#000000" fill-rule="nonzero" fill-opacity="1" /><path clip-path="url(#clip410)" d="M137.321 395.144 L143.528 395.144 L143.528 373.722 L136.776 375.076 L136.776 371.616 L143.49 370.262 L147.289 370.262 L147.289 395.144 L153.496 395.144 L153.496 398.342 L137.321 398.342 L137.321 395.144 Z" fill="#000000" fill-rule="nonzero" fill-opacity="1" /><path clip-path="url(#clip410)" d="M82.7903 118.98 L90.4291 118.98 L90.4291 92.6144 L82.119 94.2811 L82.119 90.0219 L90.3828 88.3552 L95.0587 88.3552 L95.0587 118.98 L102.698 118.98 L102.698 122.915 L82.7903 122.915 L82.7903 118.98 Z" fill="#000000" fill-rule="nonzero" fill-opacity="1" /><path clip-path="url(#clip410)" d="M122.142 91.4339 Q118.531 91.4339 116.702 94.9987 Q114.897 98.5403 114.897 105.67 Q114.897 112.776 116.702 116.341 Q118.531 119.883 122.142 119.883 Q125.776 119.883 127.582 116.341 Q129.41 112.776 129.41 105.67 Q129.41 98.5403 127.582 94.9987 Q125.776 91.4339 122.142 91.4339 M122.142 87.7302 Q127.952 87.7302 131.008 92.3367 Q134.086 96.92 134.086 105.67 Q134.086 114.397 131.008 119.003 Q127.952 123.587 122.142 123.587 Q116.332 123.587 113.253 119.003 Q110.198 114.397 110.198 105.67 Q110.198 96.92 113.253 92.3367 Q116.332 87.7302 122.142 87.7302 Z" fill="#000000" fill-rule="nonzero" fill-opacity="1" /><path clip-path="url(#clip410)" d="M143.791 69.9262 Q140.857 69.9262 139.371 72.8226 Q137.904 75.7002 137.904 81.493 Q137.904 87.267 139.371 90.1634 Q140.857 93.041 143.791 93.041 Q146.744 93.041 148.211 90.1634 Q149.697 87.267 149.697 81.493 Q149.697 75.7002 148.211 72.8226 Q146.744 69.9262 143.791 69.9262 M143.791 66.917 Q148.512 66.917 150.994 70.6597 Q153.496 74.3837 153.496 81.493 Q153.496 88.5836 150.994 92.3263 Q148.512 96.0502 143.791 96.0502 Q139.07 96.0502 136.569 92.3263 Q134.086 88.5836 134.086 81.493 Q134.086 74.3837 136.569 70.6597 Q139.07 66.917 143.791 66.917 Z" fill="#000000" fill-rule="nonzero" fill-opacity="1" /><polyline clip-path="url(#clip412)" style="stroke:#009af9; stroke-linecap:round; stroke-linejoin:round; stroke-width:4; stroke-opacity:1; fill:none" points="250.72,87.9763 542.265,333.696 833.809,663.213 1125.35,727.191 1416.9,742.084 1708.44,1144.56 1999.99,1239.65 2291.53,1445.72 "/>
<line clip-path="url(#clip412)" x1="250.72" y1="87.9763" x2="234.72" y2="71.9763" style="stroke:#009af9; stroke-width:4; stroke-opacity:1"/>
<line clip-path="url(#clip412)" x1="250.72" y1="87.9763" x2="234.72" y2="103.976" style="stroke:#009af9; stroke-width:4; stroke-opacity:1"/>
<line clip-path="url(#clip412)" x1="250.72" y1="87.9763" x2="266.72" y2="103.976" style="stroke:#009af9; stroke-width:4; stroke-opacity:1"/>
<line clip-path="url(#clip412)" x1="250.72" y1="87.9763" x2="266.72" y2="71.9763" style="stroke:#009af9; stroke-width:4; stroke-opacity:1"/>
<line clip-path="url(#clip412)" x1="542.265" y1="333.696" x2="526.265" y2="317.696" style="stroke:#009af9; stroke-width:4; stroke-opacity:1"/>
<line clip-path="url(#clip412)" x1="542.265" y1="333.696" x2="526.265" y2="349.696" style="stroke:#009af9; stroke-width:4; stroke-opacity:1"/>
<line clip-path="url(#clip412)" x1="542.265" y1="333.696" x2="558.265" y2="349.696" style="stroke:#009af9; stroke-width:4; stroke-opacity:1"/>
<line clip-path="url(#clip412)" x1="542.265" y1="333.696" x2="558.265" y2="317.696" style="stroke:#009af9; stroke-width:4; stroke-opacity:1"/>
<line clip-path="url(#clip412)" x1="833.809" y1="663.213" x2="817.809" y2="647.213" style="stroke:#009af9; stroke-width:4; stroke-opacity:1"/>
<line clip-path="url(#clip412)" x1="833.809" y1="663.213" x2="817.809" y2="679.213" style="stroke:#009af9; stroke-width:4; stroke-opacity:1"/>
<line clip-path="url(#clip412)" x1="833.809" y1="663.213" x2="849.809" y2="679.213" style="stroke:#009af9; stroke-width:4; stroke-opacity:1"/>
<line clip-path="url(#clip412)" x1="833.809" y1="663.213" x2="849.809" y2="647.213" style="stroke:#009af9; stroke-width:4; stroke-opacity:1"/>
<line clip-path="url(#clip412)" x1="1125.35" y1="727.191" x2="1109.35" y2="711.191" style="stroke:#009af9; stroke-width:4; stroke-opacity:1"/>
<line clip-path="url(#clip412)" x1="1125.35" y1="727.191" x2="1109.35" y2="743.191" style="stroke:#009af9; stroke-width:4; stroke-opacity:1"/>
<line clip-path="url(#clip412)" x1="1125.35" y1="727.191" x2="1141.35" y2="743.191" style="stroke:#009af9; stroke-width:4; stroke-opacity:1"/>
<line clip-path="url(#clip412)" x1="1125.35" y1="727.191" x2="1141.35" y2="711.191" style="stroke:#009af9; stroke-width:4; stroke-opacity:1"/>
<line clip-path="url(#clip412)" x1="1416.9" y1="742.084" x2="1400.9" y2="726.084" style="stroke:#009af9; stroke-width:4; stroke-opacity:1"/>
<line clip-path="url(#clip412)" x1="1416.9" y1="742.084" x2="1400.9" y2="758.084" style="stroke:#009af9; stroke-width:4; stroke-opacity:1"/>
<line clip-path="url(#clip412)" x1="1416.9" y1="742.084" x2="1432.9" y2="758.084" style="stroke:#009af9; stroke-width:4; stroke-opacity:1"/>
<line clip-path="url(#clip412)" x1="1416.9" y1="742.084" x2="1432.9" y2="726.084" style="stroke:#009af9; stroke-width:4; stroke-opacity:1"/>
<line clip-path="url(#clip412)" x1="1708.44" y1="1144.56" x2="1692.44" y2="1128.56" style="stroke:#009af9; stroke-width:4; stroke-opacity:1"/>
<line clip-path="url(#clip412)" x1="1708.44" y1="1144.56" x2="1692.44" y2="1160.56" style="stroke:#009af9; stroke-width:4; stroke-opacity:1"/>
<line clip-path="url(#clip412)" x1="1708.44" y1="1144.56" x2="1724.44" y2="1160.56" style="stroke:#009af9; stroke-width:4; stroke-opacity:1"/>
<line clip-path="url(#clip412)" x1="1708.44" y1="1144.56" x2="1724.44" y2="1128.56" style="stroke:#009af9; stroke-width:4; stroke-opacity:1"/>
<line clip-path="url(#clip412)" x1="1999.99" y1="1239.65" x2="1983.99" y2="1223.65" style="stroke:#009af9; stroke-width:4; stroke-opacity:1"/>
<line clip-path="url(#clip412)" x1="1999.99" y1="1239.65" x2="1983.99" y2="1255.65" style="stroke:#009af9; stroke-width:4; stroke-opacity:1"/>
<line clip-path="url(#clip412)" x1="1999.99" y1="1239.65" x2="2015.99" y2="1255.65" style="stroke:#009af9; stroke-width:4; stroke-opacity:1"/>
<line clip-path="url(#clip412)" x1="1999.99" y1="1239.65" x2="2015.99" y2="1223.65" style="stroke:#009af9; stroke-width:4; stroke-opacity:1"/>
<line clip-path="url(#clip412)" x1="2291.53" y1="1445.72" x2="2275.53" y2="1429.72" style="stroke:#009af9; stroke-width:4; stroke-opacity:1"/>
<line clip-path="url(#clip412)" x1="2291.53" y1="1445.72" x2="2275.53" y2="1461.72" style="stroke:#009af9; stroke-width:4; stroke-opacity:1"/>
<line clip-path="url(#clip412)" x1="2291.53" y1="1445.72" x2="2307.53" y2="1461.72" style="stroke:#009af9; stroke-width:4; stroke-opacity:1"/>
<line clip-path="url(#clip412)" x1="2291.53" y1="1445.72" x2="2307.53" y2="1429.72" style="stroke:#009af9; stroke-width:4; stroke-opacity:1"/>
<path clip-path="url(#clip410)" d="M1816.13 198.898 L2280.65 198.898 L2280.65 95.2176 L1816.13 95.2176  Z" fill="#ffffff" fill-rule="evenodd" fill-opacity="1"/>
<polyline clip-path="url(#clip410)" style="stroke:#000000; stroke-linecap:round; stroke-linejoin:round; stroke-width:4; stroke-opacity:1; fill:none" points="1816.13,198.898 2280.65,198.898 2280.65,95.2176 1816.13,95.2176 1816.13,198.898 "/>
<polyline clip-path="url(#clip410)" style="stroke:#009af9; stroke-linecap:round; stroke-linejoin:round; stroke-width:4; stroke-opacity:1; fill:none" points="1840.16,147.058 1984.38,147.058 "/>
<line clip-path="url(#clip410)" x1="1912.27" y1="147.058" x2="1890.02" y2="124.802" style="stroke:#009af9; stroke-width:4.55111; stroke-opacity:1"/>
<line clip-path="url(#clip410)" x1="1912.27" y1="147.058" x2="1890.02" y2="169.313" style="stroke:#009af9; stroke-width:4.55111; stroke-opacity:1"/>
<line clip-path="url(#clip410)" x1="1912.27" y1="147.058" x2="1934.53" y2="169.313" style="stroke:#009af9; stroke-width:4.55111; stroke-opacity:1"/>
<line clip-path="url(#clip410)" x1="1912.27" y1="147.058" x2="1934.53" y2="124.802" style="stroke:#009af9; stroke-width:4.55111; stroke-opacity:1"/>
<path clip-path="url(#clip410)" d="M2012.35 128.111 L2012.35 175.518 L2008.42 175.518 L2008.42 128.111 L2012.35 128.111 Z" fill="#000000" fill-rule="nonzero" fill-opacity="1" /><path clip-path="url(#clip410)" d="M2024.76 143.041 Q2026.17 140.68 2029.67 138.597 Q2031.03 137.787 2035.25 137.787 Q2039.97 137.787 2042.91 141.537 Q2045.87 145.287 2045.87 151.398 Q2045.87 157.509 2042.91 161.259 Q2039.97 165.009 2035.25 165.009 Q2032.4 165.009 2030.34 163.898 Q2028.3 162.763 2026.96 160.449 L2026.96 174.199 L2022.68 174.199 L2022.68 151.629 Q2022.68 146.282 2024.76 143.041 M2041.45 151.398 Q2041.45 146.699 2039.51 144.037 Q2037.58 141.352 2034.2 141.352 Q2030.83 141.352 2028.88 144.037 Q2026.96 146.699 2026.96 151.398 Q2026.96 156.097 2028.88 158.782 Q2030.83 161.444 2034.2 161.444 Q2037.58 161.444 2039.51 158.782 Q2041.45 156.097 2041.45 151.398 Z" fill="#000000" fill-rule="nonzero" fill-opacity="1" /><path clip-path="url(#clip410)" d="M2062.98 141.398 Q2059.55 141.398 2057.56 144.083 Q2055.57 146.745 2055.57 151.398 Q2055.57 156.051 2057.54 158.736 Q2059.53 161.398 2062.98 161.398 Q2066.38 161.398 2068.37 158.713 Q2070.36 156.027 2070.36 151.398 Q2070.36 146.791 2068.37 144.106 Q2066.38 141.398 2062.98 141.398 M2062.98 137.787 Q2068.53 137.787 2071.7 141.398 Q2074.88 145.009 2074.88 151.398 Q2074.88 157.764 2071.7 161.398 Q2068.53 165.009 2062.98 165.009 Q2057.4 165.009 2054.23 161.398 Q2051.08 157.764 2051.08 151.398 Q2051.08 145.009 2054.23 141.398 Q2057.4 137.787 2062.98 137.787 Z" fill="#000000" fill-rule="nonzero" fill-opacity="1" /><path clip-path="url(#clip410)" d="M2081.5 154.106 L2081.5 138.412 L2085.76 138.412 L2085.76 153.944 Q2085.76 157.625 2087.19 159.476 Q2088.63 161.305 2091.5 161.305 Q2094.95 161.305 2096.94 159.106 Q2098.95 156.907 2098.95 153.111 L2098.95 138.412 L2103.21 138.412 L2103.21 164.338 L2098.95 164.338 L2098.95 160.356 Q2097.4 162.717 2095.34 163.875 Q2093.3 165.009 2090.59 165.009 Q2086.13 165.009 2083.81 162.231 Q2081.5 159.453 2081.5 154.106 M2092.21 137.787 L2092.21 137.787 Z" fill="#000000" fill-rule="nonzero" fill-opacity="1" /><path clip-path="url(#clip410)" d="M2116.2 131.051 L2116.2 138.412 L2124.97 138.412 L2124.97 141.722 L2116.2 141.722 L2116.2 155.796 Q2116.2 158.967 2117.05 159.87 Q2117.93 160.773 2120.59 160.773 L2124.97 160.773 L2124.97 164.338 L2120.59 164.338 Q2115.66 164.338 2113.79 162.509 Q2111.91 160.657 2111.91 155.796 L2111.91 141.722 L2108.79 141.722 L2108.79 138.412 L2111.91 138.412 L2111.91 131.051 L2116.2 131.051 Z" fill="#000000" fill-rule="nonzero" fill-opacity="1" /><path clip-path="url(#clip410)" d="M2143.49 149.453 L2155.96 149.453 L2155.96 153.25 L2143.49 153.25 L2143.49 149.453 Z" fill="#000000" fill-rule="nonzero" fill-opacity="1" /><path clip-path="url(#clip410)" d="M2179.74 143.041 Q2181.15 140.68 2184.64 138.597 Q2186.01 137.787 2190.22 137.787 Q2194.94 137.787 2197.88 141.537 Q2200.85 145.287 2200.85 151.398 Q2200.85 157.509 2197.88 161.259 Q2194.94 165.009 2190.22 165.009 Q2187.38 165.009 2185.32 163.898 Q2183.28 162.763 2181.94 160.449 L2181.94 174.199 L2177.65 174.199 L2177.65 151.629 Q2177.65 146.282 2179.74 143.041 M2196.43 151.398 Q2196.43 146.699 2194.48 144.037 Q2192.56 141.352 2189.18 141.352 Q2185.8 141.352 2183.86 144.037 Q2181.94 146.699 2181.94 151.398 Q2181.94 156.097 2183.86 158.782 Q2185.8 161.444 2189.18 161.444 Q2192.56 161.444 2194.48 158.782 Q2196.43 156.097 2196.43 151.398 Z" fill="#000000" fill-rule="nonzero" fill-opacity="1" /><path clip-path="url(#clip410)" d="M2207.91 138.412 L2212.17 138.412 L2212.17 164.338 L2207.91 164.338 L2207.91 138.412 M2207.91 128.319 L2212.17 128.319 L2212.17 133.713 L2207.91 133.713 L2207.91 128.319 Z" fill="#000000" fill-rule="nonzero" fill-opacity="1" /><path clip-path="url(#clip410)" d="M2242.63 148.689 L2242.63 164.338 L2238.37 164.338 L2238.37 148.828 Q2238.37 145.148 2236.94 143.319 Q2235.5 141.49 2232.63 141.49 Q2229.18 141.49 2227.19 143.69 Q2225.2 145.889 2225.2 149.685 L2225.2 164.338 L2220.92 164.338 L2220.92 138.412 L2225.2 138.412 L2225.2 142.44 Q2226.73 140.102 2228.79 138.944 Q2230.87 137.787 2233.58 137.787 Q2238.05 137.787 2240.34 140.565 Q2242.63 143.319 2242.63 148.689 Z" fill="#000000" fill-rule="nonzero" fill-opacity="1" /><path clip-path="url(#clip410)" d="M2256.61 128.111 L2256.61 175.518 L2252.68 175.518 L2252.68 128.111 L2256.61 128.111 Z" fill="#000000" fill-rule="nonzero" fill-opacity="1" /></svg>
