<?xml version="1.0" encoding="utf-8"?>
<svg xmlns="http://www.w3.org/2000/svg" xmlns:xlink="http://www.w3.org/1999/xlink" width="600" height="400" viewBox="0 0 2400 1600">
<defs>
  <clipPath id="clip860">
    <rect x="0" y="0" width="2400" height="1600"/>
  </clipPath>
</defs>
<path clip-path="url(#clip860)" d="M0 1600 L2400 1600 L2400 0 L0 0  Z" fill="#ffffff" fill-rule="evenodd" fill-opacity="1"/>
<defs>
  <clipPath id="clip861">
    <rect x="480" y="0" width="1681" height="1600"/>
  </clipPath>
</defs>
<path clip-path="url(#clip860)" d="M252.764 1423.18 L2352.76 1423.18 L2352.76 47.2441 L252.764 47.2441  Z" fill="#ffffff" fill-rule="evenodd" fill-opacity="1"/>
<defs>
  <clipPath id="clip862">
    <rect x="252" y="47" width="2101" height="1377"/>
  </clipPath>
</defs>
<polyline clip-path="url(#clip862)" style="stroke:#000000; stroke-linecap:round; stroke-linejoin:round; stroke-width:2; stroke-opacity:0.1; fill:none" points="532.323,1423.18 532.323,47.2441 "/>
<polyline clip-path="url(#clip862)" style="stroke:#000000; stroke-linecap:round; stroke-linejoin:round; stroke-width:2; stroke-opacity:0.1; fill:none" points="972.573,1423.18 972.573,47.2441 "/>
<polyline clip-path="url(#clip862)" style="stroke:#000000; stroke-linecap:round; stroke-linejoin:round; stroke-width:2; stroke-opacity:0.1; fill:none" points="1412.82,1423.18 1412.82,47.2441 "/>
<polyline clip-path="url(#clip862)" style="stroke:#000000; stroke-linecap:round; stroke-linejoin:round; stroke-width:2; stroke-opacity:0.1; fill:none" points="1853.07,1423.18 1853.07,47.2441 "/>
<polyline clip-path="url(#clip862)" style="stroke:#000000; stroke-linecap:round; stroke-linejoin:round; stroke-width:2; stroke-opacity:0.1; fill:none" points="2293.32,1423.18 2293.32,47.2441 "/>
<polyline clip-path="url(#clip862)" style="stroke:#000000; stroke-linecap:round; stroke-linejoin:round; stroke-width:2; stroke-opacity:0.1; fill:none" points="252.764,1306.29 2352.76,1306.29 "/>
<polyline clip-path="url(#clip862)" style="stroke:#000000; stroke-linecap:round; stroke-linejoin:round; stroke-width:2; stroke-opacity:0.1; fill:none" points="252.764,698.837 2352.76,698.837 "/>
<polyline clip-path="url(#clip862)" style="stroke:#000000; stroke-linecap:round; stroke-linejoin:round; stroke-width:2; stroke-opacity:0.1; fill:none" points="252.764,91.3846 2352.76,91.3846 "/>
<polyline clip-path="url(#clip860)" style="stroke:#000000; stroke-linecap:round; stroke-linejoin:round; stroke-width:4; stroke-opacity:1; fill:none" points="252.764,1423.18 2352.76,1423.18 "/>
<polyline clip-path="url(#clip860)" style="stroke:#000000; stroke-linecap:round; stroke-linejoin:round; stroke-width:4; stroke-opacity:1; fill:none" points="532.323,1423.18 532.323,1404.28 "/>
<polyline clip-path="url(#clip860)" style="stroke:#000000; stroke-linecap:round; stroke-linejoin:round; stroke-width:4; stroke-opacity:1; fill:none" points="972.573,1423.18 972.573,1404.28 "/>
<polyline clip-path="url(#clip860)" style="stroke:#000000; stroke-linecap:round; stroke-linejoin:round; stroke-width:4; stroke-opacity:1; fill:none" points="1412.82,1423.18 1412.82,1404.28 "/>
<polyline clip-path="url(#clip860)" style="stroke:#000000; stroke-linecap:round; stroke-linejoin:round; stroke-width:4; stroke-opacity:1; fill:none" points="1853.07,1423.18 1853.07,1404.28 "/>
<polyline clip-path="url(#clip860)" style="stroke:#000000; stroke-linecap:round; stroke-linejoin:round; stroke-width:4; stroke-opacity:1; fill:none" points="2293.32,1423.18 2293.32,1404.28 "/>
<path clip-path="url(#clip860)" d="M511.096 1481.64 L527.415 1481.64 L527.415 1485.58 L505.471 1485.58 L505.471 1481.64 Q508.133 1478.89 512.716 1474.26 Q517.323 1469.61 518.503 1468.27 Q520.749 1465.74 521.628 1464.01 Q522.531 1462.25 522.531 1460.56 Q522.531 1457.8 520.587 1456.07 Q518.665 1454.33 515.563 1454.33 Q513.364 1454.33 510.911 1455.09 Q508.48 1455.86 505.702 1457.41 L505.702 1452.69 Q508.526 1451.55 510.98 1450.97 Q513.434 1450.39 515.471 1450.39 Q520.841 1450.39 524.036 1453.08 Q527.23 1455.77 527.23 1460.26 Q527.23 1462.39 526.42 1464.31 Q525.633 1466.2 523.526 1468.8 Q522.948 1469.47 519.846 1472.69 Q516.744 1475.88 511.096 1481.64 Z" fill="#000000" fill-rule="nonzero" fill-opacity="1" /><path clip-path="url(#clip860)" d="M547.23 1454.1 Q543.619 1454.1 541.79 1457.66 Q539.985 1461.2 539.985 1468.33 Q539.985 1475.44 541.79 1479.01 Q543.619 1482.55 547.23 1482.55 Q550.864 1482.55 552.67 1479.01 Q554.498 1475.44 554.498 1468.33 Q554.498 1461.2 552.67 1457.66 Q550.864 1454.1 547.23 1454.1 M547.23 1450.39 Q553.04 1450.39 556.096 1455 Q559.174 1459.58 559.174 1468.33 Q559.174 1477.06 556.096 1481.67 Q553.04 1486.25 547.23 1486.25 Q541.42 1486.25 538.341 1481.67 Q535.286 1477.06 535.286 1468.33 Q535.286 1459.58 538.341 1455 Q541.42 1450.39 547.23 1450.39 Z" fill="#000000" fill-rule="nonzero" fill-opacity="1" /><path clip-path="url(#clip860)" d="M960.744 1455.09 L948.938 1473.54 L960.744 1473.54 L960.744 1455.09 M959.517 1451.02 L965.397 1451.02 L965.397 1473.54 L970.327 1473.54 L970.327 1477.43 L965.397 1477.43 L965.397 1485.58 L960.744 1485.58 L960.744 1477.43 L945.142 1477.43 L945.142 1472.92 L959.517 1451.02 Z" fill="#000000" fill-rule="nonzero" fill-opacity="1" /><path clip-path="url(#clip860)" d="M988.059 1454.1 Q984.447 1454.1 982.619 1457.66 Q980.813 1461.2 980.813 1468.33 Q980.813 1475.44 982.619 1479.01 Q984.447 1482.55 988.059 1482.55 Q991.693 1482.55 993.498 1479.01 Q995.327 1475.44 995.327 1468.33 Q995.327 1461.2 993.498 1457.66 Q991.693 1454.1 988.059 1454.1 M988.059 1450.39 Q993.869 1450.39 996.924 1455 Q1000 1459.58 1000 1468.33 Q1000 1477.06 996.924 1481.67 Q993.869 1486.25 988.059 1486.25 Q982.248 1486.25 979.17 1481.67 Q976.114 1477.06 976.114 1468.33 Q976.114 1459.58 979.17 1455 Q982.248 1450.39 988.059 1450.39 Z" fill="#000000" fill-rule="nonzero" fill-opacity="1" /><path clip-path="url(#clip860)" d="M1398.23 1466.44 Q1395.08 1466.44 1393.23 1468.59 Q1391.4 1470.74 1391.4 1474.49 Q1391.4 1478.22 1393.23 1480.39 Q1395.08 1482.55 1398.23 1482.55 Q1401.38 1482.55 1403.2 1480.39 Q1405.06 1478.22 1405.06 1474.49 Q1405.06 1470.74 1403.2 1468.59 Q1401.38 1466.44 1398.23 1466.44 M1407.51 1451.78 L1407.51 1456.04 Q1405.75 1455.21 1403.95 1454.77 Q1402.16 1454.33 1400.4 1454.33 Q1395.77 1454.33 1393.32 1457.45 Q1390.89 1460.58 1390.54 1466.9 Q1391.91 1464.89 1393.97 1463.82 Q1396.03 1462.73 1398.51 1462.73 Q1403.71 1462.73 1406.72 1465.9 Q1409.76 1469.05 1409.76 1474.49 Q1409.76 1479.82 1406.61 1483.03 Q1403.46 1486.25 1398.23 1486.25 Q1392.23 1486.25 1389.06 1481.67 Q1385.89 1477.06 1385.89 1468.33 Q1385.89 1460.14 1389.78 1455.28 Q1393.67 1450.39 1400.22 1450.39 Q1401.98 1450.39 1403.76 1450.74 Q1405.57 1451.09 1407.51 1451.78 Z" fill="#000000" fill-rule="nonzero" fill-opacity="1" /><path clip-path="url(#clip860)" d="M1427.81 1454.1 Q1424.2 1454.1 1422.37 1457.66 Q1420.57 1461.2 1420.57 1468.33 Q1420.57 1475.44 1422.37 1479.01 Q1424.2 1482.55 1427.81 1482.55 Q1431.44 1482.55 1433.25 1479.01 Q1435.08 1475.44 1435.08 1468.33 Q1435.08 1461.2 1433.25 1457.66 Q1431.44 1454.1 1427.81 1454.1 M1427.81 1450.39 Q1433.62 1450.39 1436.68 1455 Q1439.76 1459.58 1439.76 1468.33 Q1439.76 1477.06 1436.68 1481.67 Q1433.62 1486.25 1427.81 1486.25 Q1422 1486.25 1418.92 1481.67 Q1415.87 1477.06 1415.87 1468.33 Q1415.87 1459.58 1418.92 1455 Q1422 1450.39 1427.81 1450.39 Z" fill="#000000" fill-rule="nonzero" fill-opacity="1" /><path clip-path="url(#clip860)" d="M1837.95 1469.17 Q1834.61 1469.17 1832.69 1470.95 Q1830.79 1472.73 1830.79 1475.86 Q1830.79 1478.98 1832.69 1480.77 Q1834.61 1482.55 1837.95 1482.55 Q1841.28 1482.55 1843.2 1480.77 Q1845.12 1478.96 1845.12 1475.86 Q1845.12 1472.73 1843.2 1470.95 Q1841.3 1469.17 1837.95 1469.17 M1833.27 1467.18 Q1830.26 1466.44 1828.57 1464.38 Q1826.9 1462.32 1826.9 1459.35 Q1826.9 1455.21 1829.84 1452.8 Q1832.81 1450.39 1837.95 1450.39 Q1843.11 1450.39 1846.05 1452.8 Q1848.99 1455.21 1848.99 1459.35 Q1848.99 1462.32 1847.3 1464.38 Q1845.63 1466.44 1842.64 1467.18 Q1846.02 1467.96 1847.9 1470.26 Q1849.8 1472.55 1849.8 1475.86 Q1849.8 1480.88 1846.72 1483.57 Q1843.66 1486.25 1837.95 1486.25 Q1832.23 1486.25 1829.15 1483.57 Q1826.09 1480.88 1826.09 1475.86 Q1826.09 1472.55 1827.99 1470.26 Q1829.89 1467.96 1833.27 1467.18 M1831.56 1459.79 Q1831.56 1462.48 1833.22 1463.98 Q1834.91 1465.49 1837.95 1465.49 Q1840.95 1465.49 1842.64 1463.98 Q1844.36 1462.48 1844.36 1459.79 Q1844.36 1457.11 1842.64 1455.6 Q1840.95 1454.1 1837.95 1454.1 Q1834.91 1454.1 1833.22 1455.6 Q1831.56 1457.11 1831.56 1459.79 Z" fill="#000000" fill-rule="nonzero" fill-opacity="1" /><path clip-path="url(#clip860)" d="M1868.11 1454.1 Q1864.5 1454.1 1862.67 1457.66 Q1860.86 1461.2 1860.86 1468.33 Q1860.86 1475.44 1862.67 1479.01 Q1864.5 1482.55 1868.11 1482.55 Q1871.74 1482.55 1873.55 1479.01 Q1875.38 1475.44 1875.38 1468.33 Q1875.38 1461.2 1873.55 1457.66 Q1871.74 1454.1 1868.11 1454.1 M1868.11 1450.39 Q1873.92 1450.39 1876.97 1455 Q1880.05 1459.58 1880.05 1468.33 Q1880.05 1477.06 1876.97 1481.67 Q1873.92 1486.25 1868.11 1486.25 Q1862.3 1486.25 1859.22 1481.67 Q1856.16 1477.06 1856.16 1468.33 Q1856.16 1459.58 1859.22 1455 Q1862.3 1450.39 1868.11 1450.39 Z" fill="#000000" fill-rule="nonzero" fill-opacity="1" /><path clip-path="url(#clip860)" d="M2252.93 1481.64 L2260.57 1481.64 L2260.57 1455.28 L2252.26 1456.95 L2252.26 1452.69 L2260.52 1451.02 L2265.2 1451.02 L2265.2 1481.64 L2272.84 1481.64 L2272.84 1485.58 L2252.93 1485.58 L2252.93 1481.64 Z" fill="#000000" fill-rule="nonzero" fill-opacity="1" /><path clip-path="url(#clip860)" d="M2292.28 1454.1 Q2288.67 1454.1 2286.84 1457.66 Q2285.04 1461.2 2285.04 1468.33 Q2285.04 1475.44 2286.84 1479.01 Q2288.67 1482.55 2292.28 1482.55 Q2295.91 1482.55 2297.72 1479.01 Q2299.55 1475.44 2299.55 1468.33 Q2299.55 1461.2 2297.72 1457.66 Q2295.91 1454.1 2292.28 1454.1 M2292.28 1450.39 Q2298.09 1450.39 2301.15 1455 Q2304.22 1459.58 2304.22 1468.33 Q2304.22 1477.06 2301.15 1481.67 Q2298.09 1486.25 2292.28 1486.25 Q2286.47 1486.25 2283.39 1481.67 Q2280.34 1477.06 2280.34 1468.33 Q2280.34 1459.58 2283.39 1455 Q2286.47 1450.39 2292.28 1450.39 Z" fill="#000000" fill-rule="nonzero" fill-opacity="1" /><path clip-path="url(#clip860)" d="M2322.44 1454.1 Q2318.83 1454.1 2317 1457.66 Q2315.2 1461.2 2315.2 1468.33 Q2315.2 1475.44 2317 1479.01 Q2318.83 1482.55 2322.44 1482.55 Q2326.08 1482.55 2327.88 1479.01 Q2329.71 1475.44 2329.71 1468.33 Q2329.71 1461.2 2327.88 1457.66 Q2326.08 1454.1 2322.44 1454.1 M2322.44 1450.39 Q2328.25 1450.39 2331.31 1455 Q2334.39 1459.58 2334.39 1468.33 Q2334.39 1477.06 2331.31 1481.67 Q2328.25 1486.25 2322.44 1486.25 Q2316.63 1486.25 2313.55 1481.67 Q2310.5 1477.06 2310.5 1468.33 Q2310.5 1459.58 2313.55 1455 Q2316.63 1450.39 2322.44 1450.39 Z" fill="#000000" fill-rule="nonzero" fill-opacity="1" /><path clip-path="url(#clip860)" d="M1284.78 1520.52 L1293.43 1520.52 L1314.5 1560.28 L1314.5 1520.52 L1320.74 1520.52 L1320.74 1568.04 L1312.09 1568.04 L1291.02 1528.29 L1291.02 1568.04 L1284.78 1568.04 L1284.78 1520.52 Z" fill="#000000" fill-rule="nonzero" fill-opacity="1" /><polyline clip-path="url(#clip860)" style="stroke:#000000; stroke-linecap:round; stroke-linejoin:round; stroke-width:4; stroke-opacity:1; fill:none" points="252.764,1423.18 252.764,47.2441 "/>
<polyline clip-path="url(#clip860)" style="stroke:#000000; stroke-linecap:round; stroke-linejoin:round; stroke-width:4; stroke-opacity:1; fill:none" points="252.764,1306.29 271.662,1306.29 "/>
<polyline clip-path="url(#clip860)" style="stroke:#000000; stroke-linecap:round; stroke-linejoin:round; stroke-width:4; stroke-opacity:1; fill:none" points="252.764,698.837 271.662,698.837 "/>
<polyline clip-path="url(#clip860)" style="stroke:#000000; stroke-linecap:round; stroke-linejoin:round; stroke-width:4; stroke-opacity:1; fill:none" points="252.764,91.3846 271.662,91.3846 "/>
<path clip-path="url(#clip860)" d="M114.931 1326.08 L122.57 1326.08 L122.57 1299.72 L114.26 1301.38 L114.26 1297.12 L122.524 1295.46 L127.2 1295.46 L127.2 1326.08 L134.839 1326.08 L134.839 1330.02 L114.931 1330.02 L114.931 1326.08 Z" fill="#000000" fill-rule="nonzero" fill-opacity="1" /><path clip-path="url(#clip860)" d="M154.283 1298.54 Q150.672 1298.54 148.843 1302.1 Q147.038 1305.64 147.038 1312.77 Q147.038 1319.88 148.843 1323.44 Q150.672 1326.98 154.283 1326.98 Q157.917 1326.98 159.723 1323.44 Q161.552 1319.88 161.552 1312.77 Q161.552 1305.64 159.723 1302.1 Q157.917 1298.54 154.283 1298.54 M154.283 1294.83 Q160.093 1294.83 163.149 1299.44 Q166.227 1304.02 166.227 1312.77 Q166.227 1321.5 163.149 1326.11 Q160.093 1330.69 154.283 1330.69 Q148.473 1330.69 145.394 1326.11 Q142.339 1321.5 142.339 1312.77 Q142.339 1304.02 145.394 1299.44 Q148.473 1294.83 154.283 1294.83 Z" fill="#000000" fill-rule="nonzero" fill-opacity="1" /><path clip-path="url(#clip860)" d="M166.227 1288.93 L190.339 1288.93 L190.339 1292.13 L166.227 1292.13 L166.227 1288.93 Z" fill="#000000" fill-rule="nonzero" fill-opacity="1" /><path clip-path="url(#clip860)" d="M208.978 1277.84 L199.386 1292.83 L208.978 1292.83 L208.978 1277.84 M207.981 1274.53 L212.758 1274.53 L212.758 1292.83 L216.764 1292.83 L216.764 1295.99 L212.758 1295.99 L212.758 1302.61 L208.978 1302.61 L208.978 1295.99 L196.301 1295.99 L196.301 1292.32 L207.981 1274.53 Z" fill="#000000" fill-rule="nonzero" fill-opacity="1" /><path clip-path="url(#clip860)" d="M115.853 718.629 L123.492 718.629 L123.492 692.264 L115.182 693.93 L115.182 689.671 L123.446 688.005 L128.121 688.005 L128.121 718.629 L135.76 718.629 L135.76 722.565 L115.853 722.565 L115.853 718.629 Z" fill="#000000" fill-rule="nonzero" fill-opacity="1" /><path clip-path="url(#clip860)" d="M155.205 691.083 Q151.594 691.083 149.765 694.648 Q147.959 698.19 147.959 705.319 Q147.959 712.426 149.765 715.991 Q151.594 719.532 155.205 719.532 Q158.839 719.532 160.644 715.991 Q162.473 712.426 162.473 705.319 Q162.473 698.19 160.644 694.648 Q158.839 691.083 155.205 691.083 M155.205 687.38 Q161.015 687.38 164.07 691.986 Q167.149 696.569 167.149 705.319 Q167.149 714.046 164.07 718.653 Q161.015 723.236 155.205 723.236 Q149.395 723.236 146.316 718.653 Q143.26 714.046 143.26 705.319 Q143.26 696.569 146.316 691.986 Q149.395 687.38 155.205 687.38 Z" fill="#000000" fill-rule="nonzero" fill-opacity="1" /><path clip-path="url(#clip860)" d="M167.149 681.481 L191.261 681.481 L191.261 684.678 L167.149 684.678 L167.149 681.481 Z" fill="#000000" fill-rule="nonzero" fill-opacity="1" /><path clip-path="url(#clip860)" d="M210.971 680.014 Q213.698 680.597 215.222 682.44 Q216.764 684.283 216.764 686.992 Q216.764 691.148 213.905 693.424 Q211.046 695.7 205.78 695.7 Q204.012 695.7 202.132 695.342 Q200.27 695.004 198.276 694.308 L198.276 690.64 Q199.856 691.562 201.737 692.032 Q203.617 692.502 205.667 692.502 Q209.241 692.502 211.103 691.092 Q212.984 689.681 212.984 686.992 Q212.984 684.509 211.234 683.117 Q209.504 681.707 206.401 681.707 L203.128 681.707 L203.128 678.585 L206.551 678.585 Q209.354 678.585 210.84 677.475 Q212.325 676.346 212.325 674.24 Q212.325 672.077 210.783 670.93 Q209.26 669.764 206.401 669.764 Q204.84 669.764 203.053 670.102 Q201.266 670.441 199.122 671.155 L199.122 667.77 Q201.285 667.168 203.166 666.867 Q205.066 666.566 206.739 666.566 Q211.065 666.566 213.585 668.541 Q216.106 670.497 216.106 673.845 Q216.106 676.177 214.77 677.795 Q213.435 679.393 210.971 680.014 Z" fill="#000000" fill-rule="nonzero" fill-opacity="1" /><path clip-path="url(#clip860)" d="M116.624 111.177 L124.263 111.177 L124.263 84.8114 L115.953 86.4781 L115.953 82.2188 L124.217 80.5522 L128.893 80.5522 L128.893 111.177 L136.531 111.177 L136.531 115.112 L116.624 115.112 L116.624 111.177 Z" fill="#000000" fill-rule="nonzero" fill-opacity="1" /><path clip-path="url(#clip860)" d="M155.976 83.6308 Q152.365 83.6308 150.536 87.1956 Q148.73 90.7373 148.73 97.8669 Q148.73 104.973 150.536 108.538 Q152.365 112.08 155.976 112.08 Q159.61 112.08 161.416 108.538 Q163.244 104.973 163.244 97.8669 Q163.244 90.7373 161.416 87.1956 Q159.61 83.6308 155.976 83.6308 M155.976 79.9272 Q161.786 79.9272 164.841 84.5336 Q167.92 89.1169 167.92 97.8669 Q167.92 106.594 164.841 111.2 Q161.786 115.783 155.976 115.783 Q150.166 115.783 147.087 111.2 Q144.031 106.594 144.031 97.8669 Q144.031 89.1169 147.087 84.5336 Q150.166 79.9272 155.976 79.9272 Z" fill="#000000" fill-rule="nonzero" fill-opacity="1" /><path clip-path="url(#clip860)" d="M167.92 74.0285 L192.032 74.0285 L192.032 77.2258 L167.92 77.2258 L167.92 74.0285 Z" fill="#000000" fill-rule="nonzero" fill-opacity="1" /><path clip-path="url(#clip860)" d="M203.504 84.5044 L216.764 84.5044 L216.764 87.7018 L198.934 87.7018 L198.934 84.5044 Q201.097 82.2663 204.821 78.5048 Q208.564 74.7244 209.523 73.6336 Q211.347 71.5835 212.062 70.1729 Q212.796 68.7435 212.796 67.3706 Q212.796 65.1324 211.216 63.7219 Q209.655 62.3113 207.134 62.3113 Q205.348 62.3113 203.354 62.9319 Q201.379 63.5526 199.122 64.8127 L199.122 60.9759 Q201.417 60.0543 203.41 59.5841 Q205.404 59.114 207.059 59.114 Q211.423 59.114 214.018 61.2957 Q216.613 63.4774 216.613 67.1261 Q216.613 68.8564 215.955 70.4174 Q215.316 71.9597 213.604 74.0661 Q213.134 74.6116 210.614 77.2258 Q208.094 79.8213 203.504 84.5044 Z" fill="#000000" fill-rule="nonzero" fill-opacity="1" /><path clip-path="url(#clip860)" d="M22.818 944.898 L46.4666 953.619 L46.4666 936.145 L22.818 944.898 M16.4842 948.527 L16.4842 941.238 L64.0042 923.128 L64.0042 929.812 L51.8138 934.14 L51.8138 955.561 L64.0042 959.89 L64.0042 966.669 L16.4842 948.527 Z" fill="#000000" fill-rule="nonzero" fill-opacity="1" /><path clip-path="url(#clip860)" d="M46.212 890.853 Q39.7508 890.853 36.0905 893.527 Q32.3984 896.169 32.3984 900.816 Q32.3984 905.463 36.0905 908.136 Q39.7508 910.778 46.212 910.778 Q52.6732 910.778 56.3653 908.136 Q60.0256 905.463 60.0256 900.816 Q60.0256 896.169 56.3653 893.527 Q52.6732 890.853 46.212 890.853 M33.7671 910.778 Q30.5842 908.932 29.0564 906.131 Q27.4968 903.298 27.4968 899.384 Q27.4968 892.891 32.6531 888.848 Q37.8093 884.774 46.212 884.774 Q54.6147 884.774 59.771 888.848 Q64.9272 892.891 64.9272 899.384 Q64.9272 903.298 63.3994 906.131 Q61.8398 908.932 58.657 910.778 L64.0042 910.778 L64.0042 916.666 L14.479 916.666 L14.479 910.778 L33.7671 910.778 Z" fill="#000000" fill-rule="nonzero" fill-opacity="1" /><path clip-path="url(#clip860)" d="M29.4065 852.341 L34.9447 852.341 Q33.6716 854.824 33.035 857.497 Q32.3984 860.171 32.3984 863.035 Q32.3984 867.396 33.7352 869.592 Q35.072 871.756 37.7456 871.756 Q39.7826 871.756 40.9603 870.197 Q42.1061 868.637 43.1565 863.927 L43.6021 861.921 Q44.9389 855.683 47.3897 853.073 Q49.8086 850.431 54.1691 850.431 Q59.1344 850.431 62.0308 854.378 Q64.9272 858.293 64.9272 865.168 Q64.9272 868.032 64.3543 871.152 Q63.8132 874.239 62.6992 877.676 L56.6518 877.676 Q58.3387 874.43 59.198 871.279 Q60.0256 868.128 60.0256 865.041 Q60.0256 860.903 58.6251 858.675 Q57.1929 856.447 54.6147 856.447 Q52.2276 856.447 50.9545 858.07 Q49.6813 859.662 48.5037 865.104 L48.0262 867.141 Q46.8804 872.584 44.5251 875.003 Q42.138 877.422 38.0002 877.422 Q32.9713 877.422 30.2341 873.857 Q27.4968 870.292 27.4968 863.736 Q27.4968 860.489 27.9743 857.625 Q28.4517 854.76 29.4065 852.341 Z" fill="#000000" fill-rule="nonzero" fill-opacity="1" /><path clip-path="url(#clip860)" d="M32.4621 827.292 Q32.4621 832.003 36.1542 834.74 Q39.8145 837.477 46.212 837.477 Q52.6095 837.477 56.3017 834.772 Q59.9619 832.034 59.9619 827.292 Q59.9619 822.613 56.2698 819.876 Q52.5777 817.139 46.212 817.139 Q39.8781 817.139 36.186 819.876 Q32.4621 822.613 32.4621 827.292 M27.4968 827.292 Q27.4968 819.653 32.4621 815.293 Q37.4273 810.932 46.212 810.932 Q54.9649 810.932 59.9619 815.293 Q64.9272 819.653 64.9272 827.292 Q64.9272 834.963 59.9619 839.323 Q54.9649 843.652 46.212 843.652 Q37.4273 843.652 32.4621 839.323 Q27.4968 834.963 27.4968 827.292 Z" fill="#000000" fill-rule="nonzero" fill-opacity="1" /><path clip-path="url(#clip860)" d="M14.479 801.224 L14.479 795.368 L64.0042 795.368 L64.0042 801.224 L14.479 801.224 Z" fill="#000000" fill-rule="nonzero" fill-opacity="1" /><path clip-path="url(#clip860)" d="M49.9359 783.719 L28.3562 783.719 L28.3562 777.862 L49.7131 777.862 Q54.7739 777.862 57.3202 775.889 Q59.8346 773.915 59.8346 769.969 Q59.8346 765.226 56.8109 762.489 Q53.7872 759.72 48.5673 759.72 L28.3562 759.72 L28.3562 753.863 L64.0042 753.863 L64.0042 759.72 L58.5296 759.72 Q61.7762 761.852 63.3676 764.685 Q64.9272 767.486 64.9272 771.21 Q64.9272 777.353 61.1078 780.536 Q57.2883 783.719 49.9359 783.719 M27.4968 768.982 L27.4968 768.982 Z" fill="#000000" fill-rule="nonzero" fill-opacity="1" /><path clip-path="url(#clip860)" d="M18.2347 736.008 L28.3562 736.008 L28.3562 723.945 L32.9077 723.945 L32.9077 736.008 L52.2594 736.008 Q56.6199 736.008 57.8613 734.83 Q59.1026 733.621 59.1026 729.96 L59.1026 723.945 L64.0042 723.945 L64.0042 729.96 Q64.0042 736.74 61.4897 739.318 Q58.9434 741.896 52.2594 741.896 L32.9077 741.896 L32.9077 746.193 L28.3562 746.193 L28.3562 741.896 L18.2347 741.896 L18.2347 736.008 Z" fill="#000000" fill-rule="nonzero" fill-opacity="1" /><path clip-path="url(#clip860)" d="M44.7161 685.75 L47.5806 685.75 L47.5806 712.677 Q53.6281 712.295 56.8109 709.049 Q59.9619 705.771 59.9619 699.946 Q59.9619 696.572 59.1344 693.421 Q58.3069 690.238 56.6518 687.119 L62.1899 687.119 Q63.5267 690.27 64.227 693.58 Q64.9272 696.89 64.9272 700.296 Q64.9272 708.826 59.9619 713.823 Q54.9967 718.788 46.5303 718.788 Q37.7774 718.788 32.6531 714.078 Q27.4968 709.335 27.4968 701.315 Q27.4968 694.121 32.1438 689.952 Q36.7589 685.75 44.7161 685.75 M42.9973 691.607 Q38.1912 691.671 35.3266 694.312 Q32.4621 696.922 32.4621 701.251 Q32.4621 706.153 35.2312 709.113 Q38.0002 712.041 43.0292 712.486 L42.9973 691.607 Z" fill="#000000" fill-rule="nonzero" fill-opacity="1" /><path clip-path="url(#clip860)" d="M44.7161 624.926 L47.5806 624.926 L47.5806 651.853 Q53.6281 651.471 56.8109 648.225 Q59.9619 644.946 59.9619 639.122 Q59.9619 635.748 59.1344 632.597 Q58.3069 629.414 56.6518 626.295 L62.1899 626.295 Q63.5267 629.446 64.227 632.756 Q64.9272 636.066 64.9272 639.472 Q64.9272 648.002 59.9619 652.999 Q54.9967 657.964 46.5303 657.964 Q37.7774 657.964 32.6531 653.253 Q27.4968 648.511 27.4968 640.49 Q27.4968 633.297 32.1438 629.127 Q36.7589 624.926 44.7161 624.926 M42.9973 630.783 Q38.1912 630.846 35.3266 633.488 Q32.4621 636.098 32.4621 640.427 Q32.4621 645.328 35.2312 648.288 Q38.0002 651.216 43.0292 651.662 L42.9973 630.783 Z" fill="#000000" fill-rule="nonzero" fill-opacity="1" /><path clip-path="url(#clip860)" d="M33.8307 594.657 Q33.2578 595.644 33.0032 596.822 Q32.7167 597.967 32.7167 599.368 Q32.7167 604.333 35.9632 607.007 Q39.1779 609.648 45.2253 609.648 L64.0042 609.648 L64.0042 615.537 L28.3562 615.537 L28.3562 609.648 L33.8944 609.648 Q30.6479 607.802 29.0883 604.842 Q27.4968 601.882 27.4968 597.649 Q27.4968 597.044 27.5923 596.312 Q27.656 595.58 27.8151 594.689 L33.8307 594.657 Z" fill="#000000" fill-rule="nonzero" fill-opacity="1" /><path clip-path="url(#clip860)" d="M33.8307 569.003 Q33.2578 569.99 33.0032 571.168 Q32.7167 572.314 32.7167 573.714 Q32.7167 578.679 35.9632 581.353 Q39.1779 583.995 45.2253 583.995 L64.0042 583.995 L64.0042 589.883 L28.3562 589.883 L28.3562 583.995 L33.8944 583.995 Q30.6479 582.149 29.0883 579.188 Q27.4968 576.228 27.4968 571.995 Q27.4968 571.391 27.5923 570.658 Q27.656 569.926 27.8151 569.035 L33.8307 569.003 Z" fill="#000000" fill-rule="nonzero" fill-opacity="1" /><path clip-path="url(#clip860)" d="M32.4621 550.479 Q32.4621 555.19 36.1542 557.927 Q39.8145 560.664 46.212 560.664 Q52.6095 560.664 56.3017 557.959 Q59.9619 555.222 59.9619 550.479 Q59.9619 545.8 56.2698 543.063 Q52.5777 540.326 46.212 540.326 Q39.8781 540.326 36.186 543.063 Q32.4621 545.8 32.4621 550.479 M27.4968 550.479 Q27.4968 542.84 32.4621 538.48 Q37.4273 534.119 46.212 534.119 Q54.9649 534.119 59.9619 538.48 Q64.9272 542.84 64.9272 550.479 Q64.9272 558.15 59.9619 562.51 Q54.9649 566.839 46.212 566.839 Q37.4273 566.839 32.4621 562.51 Q27.4968 558.15 27.4968 550.479 Z" fill="#000000" fill-rule="nonzero" fill-opacity="1" /><path clip-path="url(#clip860)" d="M33.8307 503.755 Q33.2578 504.742 33.0032 505.919 Q32.7167 507.065 32.7167 508.465 Q32.7167 513.431 35.9632 516.104 Q39.1779 518.746 45.2253 518.746 L64.0042 518.746 L64.0042 524.634 L28.3562 524.634 L28.3562 518.746 L33.8944 518.746 Q30.6479 516.9 29.0883 513.94 Q27.4968 510.98 27.4968 506.747 Q27.4968 506.142 27.5923 505.41 Q27.656 504.678 27.8151 503.787 L33.8307 503.755 Z" fill="#000000" fill-rule="nonzero" fill-opacity="1" /><polyline clip-path="url(#clip862)" style="stroke:#009af9; stroke-linecap:round; stroke-linejoin:round; stroke-width:4; stroke-opacity:1; fill:none" points="312.198,86.1857 532.323,459.989 752.448,678.338 972.573,835.26 1192.7,959.422 1412.82,1063.57 1632.95,1154.55 1853.07,1236.56 2073.2,1312.43 2293.32,1384.24 "/>
<line clip-path="url(#clip862)" x1="312.198" y1="86.1857" x2="296.198" y2="70.1857" style="stroke:#009af9; stroke-width:4; stroke-opacity:1"/>
<line clip-path="url(#clip862)" x1="312.198" y1="86.1857" x2="296.198" y2="102.186" style="stroke:#009af9; stroke-width:4; stroke-opacity:1"/>
<line clip-path="url(#clip862)" x1="312.198" y1="86.1857" x2="328.198" y2="102.186" style="stroke:#009af9; stroke-width:4; stroke-opacity:1"/>
<line clip-path="url(#clip862)" x1="312.198" y1="86.1857" x2="328.198" y2="70.1857" style="stroke:#009af9; stroke-width:4; stroke-opacity:1"/>
<line clip-path="url(#clip862)" x1="532.323" y1="459.989" x2="516.323" y2="443.989" style="stroke:#009af9; stroke-width:4; stroke-opacity:1"/>
<line clip-path="url(#clip862)" x1="532.323" y1="459.989" x2="516.323" y2="475.989" style="stroke:#009af9; stroke-width:4; stroke-opacity:1"/>
<line clip-path="url(#clip862)" x1="532.323" y1="459.989" x2="548.323" y2="475.989" style="stroke:#009af9; stroke-width:4; stroke-opacity:1"/>
<line clip-path="url(#clip862)" x1="532.323" y1="459.989" x2="548.323" y2="443.989" style="stroke:#009af9; stroke-width:4; stroke-opacity:1"/>
<line clip-path="url(#clip862)" x1="752.448" y1="678.338" x2="736.448" y2="662.338" style="stroke:#009af9; stroke-width:4; stroke-opacity:1"/>
<line clip-path="url(#clip862)" x1="752.448" y1="678.338" x2="736.448" y2="694.338" style="stroke:#009af9; stroke-width:4; stroke-opacity:1"/>
<line clip-path="url(#clip862)" x1="752.448" y1="678.338" x2="768.448" y2="694.338" style="stroke:#009af9; stroke-width:4; stroke-opacity:1"/>
<line clip-path="url(#clip862)" x1="752.448" y1="678.338" x2="768.448" y2="662.338" style="stroke:#009af9; stroke-width:4; stroke-opacity:1"/>
<line clip-path="url(#clip862)" x1="972.573" y1="835.26" x2="956.573" y2="819.26" style="stroke:#009af9; stroke-width:4; stroke-opacity:1"/>
<line clip-path="url(#clip862)" x1="972.573" y1="835.26" x2="956.573" y2="851.26" style="stroke:#009af9; stroke-width:4; stroke-opacity:1"/>
<line clip-path="url(#clip862)" x1="972.573" y1="835.26" x2="988.573" y2="851.26" style="stroke:#009af9; stroke-width:4; stroke-opacity:1"/>
<line clip-path="url(#clip862)" x1="972.573" y1="835.26" x2="988.573" y2="819.26" style="stroke:#009af9; stroke-width:4; stroke-opacity:1"/>
<line clip-path="url(#clip862)" x1="1192.7" y1="959.422" x2="1176.7" y2="943.422" style="stroke:#009af9; stroke-width:4; stroke-opacity:1"/>
<line clip-path="url(#clip862)" x1="1192.7" y1="959.422" x2="1176.7" y2="975.422" style="stroke:#009af9; stroke-width:4; stroke-opacity:1"/>
<line clip-path="url(#clip862)" x1="1192.7" y1="959.422" x2="1208.7" y2="975.422" style="stroke:#009af9; stroke-width:4; stroke-opacity:1"/>
<line clip-path="url(#clip862)" x1="1192.7" y1="959.422" x2="1208.7" y2="943.422" style="stroke:#009af9; stroke-width:4; stroke-opacity:1"/>
<line clip-path="url(#clip862)" x1="1412.82" y1="1063.57" x2="1396.82" y2="1047.57" style="stroke:#009af9; stroke-width:4; stroke-opacity:1"/>
<line clip-path="url(#clip862)" x1="1412.82" y1="1063.57" x2="1396.82" y2="1079.57" style="stroke:#009af9; stroke-width:4; stroke-opacity:1"/>
<line clip-path="url(#clip862)" x1="1412.82" y1="1063.57" x2="1428.82" y2="1079.57" style="stroke:#009af9; stroke-width:4; stroke-opacity:1"/>
<line clip-path="url(#clip862)" x1="1412.82" y1="1063.57" x2="1428.82" y2="1047.57" style="stroke:#009af9; stroke-width:4; stroke-opacity:1"/>
<line clip-path="url(#clip862)" x1="1632.95" y1="1154.55" x2="1616.95" y2="1138.55" style="stroke:#009af9; stroke-width:4; stroke-opacity:1"/>
<line clip-path="url(#clip862)" x1="1632.95" y1="1154.55" x2="1616.95" y2="1170.55" style="stroke:#009af9; stroke-width:4; stroke-opacity:1"/>
<line clip-path="url(#clip862)" x1="1632.95" y1="1154.55" x2="1648.95" y2="1170.55" style="stroke:#009af9; stroke-width:4; stroke-opacity:1"/>
<line clip-path="url(#clip862)" x1="1632.95" y1="1154.55" x2="1648.95" y2="1138.55" style="stroke:#009af9; stroke-width:4; stroke-opacity:1"/>
<line clip-path="url(#clip862)" x1="1853.07" y1="1236.56" x2="1837.07" y2="1220.56" style="stroke:#009af9; stroke-width:4; stroke-opacity:1"/>
<line clip-path="url(#clip862)" x1="1853.07" y1="1236.56" x2="1837.07" y2="1252.56" style="stroke:#009af9; stroke-width:4; stroke-opacity:1"/>
<line clip-path="url(#clip862)" x1="1853.07" y1="1236.56" x2="1869.07" y2="1252.56" style="stroke:#009af9; stroke-width:4; stroke-opacity:1"/>
<line clip-path="url(#clip862)" x1="1853.07" y1="1236.56" x2="1869.07" y2="1220.56" style="stroke:#009af9; stroke-width:4; stroke-opacity:1"/>
<line clip-path="url(#clip862)" x1="2073.2" y1="1312.43" x2="2057.2" y2="1296.43" style="stroke:#009af9; stroke-width:4; stroke-opacity:1"/>
<line clip-path="url(#clip862)" x1="2073.2" y1="1312.43" x2="2057.2" y2="1328.43" style="stroke:#009af9; stroke-width:4; stroke-opacity:1"/>
<line clip-path="url(#clip862)" x1="2073.2" y1="1312.43" x2="2089.2" y2="1328.43" style="stroke:#009af9; stroke-width:4; stroke-opacity:1"/>
<line clip-path="url(#clip862)" x1="2073.2" y1="1312.43" x2="2089.2" y2="1296.43" style="stroke:#009af9; stroke-width:4; stroke-opacity:1"/>
<line clip-path="url(#clip862)" x1="2293.32" y1="1384.24" x2="2277.32" y2="1368.24" style="stroke:#009af9; stroke-width:4; stroke-opacity:1"/>
<line clip-path="url(#clip862)" x1="2293.32" y1="1384.24" x2="2277.32" y2="1400.24" style="stroke:#009af9; stroke-width:4; stroke-opacity:1"/>
<line clip-path="url(#clip862)" x1="2293.32" y1="1384.24" x2="2309.32" y2="1400.24" style="stroke:#009af9; stroke-width:4; stroke-opacity:1"/>
<line clip-path="url(#clip862)" x1="2293.32" y1="1384.24" x2="2309.32" y2="1368.24" style="stroke:#009af9; stroke-width:4; stroke-opacity:1"/>
</svg>
