<?xml version="1.0" encoding="utf-8"?>
<svg xmlns="http://www.w3.org/2000/svg" xmlns:xlink="http://www.w3.org/1999/xlink" width="600" height="400" viewBox="0 0 2400 1600">
<defs>
  <clipPath id="clip520">
    <rect x="0" y="0" width="2400" height="1600"/>
  </clipPath>
</defs>
<path clip-path="url(#clip520)" d="M0 1600 L2400 1600 L2400 0 L0 0  Z" fill="#ffffff" fill-rule="evenodd" fill-opacity="1"/>
<defs>
  <clipPath id="clip521">
    <rect x="480" y="0" width="1681" height="1600"/>
  </clipPath>
</defs>
<path clip-path="url(#clip520)" d="M279.704 1423.18 L2352.76 1423.18 L2352.76 47.2441 L279.704 47.2441  Z" fill="#ffffff" fill-rule="evenodd" fill-opacity="1"/>
<defs>
  <clipPath id="clip522">
    <rect x="279" y="47" width="2074" height="1377"/>
  </clipPath>
</defs>
<polyline clip-path="url(#clip522)" style="stroke:#000000; stroke-linecap:round; stroke-linejoin:round; stroke-width:2; stroke-opacity:0.1; fill:none" points="338.375,1423.18 338.375,47.2441 "/>
<polyline clip-path="url(#clip522)" style="stroke:#000000; stroke-linecap:round; stroke-linejoin:round; stroke-width:2; stroke-opacity:0.1; fill:none" points="750.103,1423.18 750.103,47.2441 "/>
<polyline clip-path="url(#clip522)" style="stroke:#000000; stroke-linecap:round; stroke-linejoin:round; stroke-width:2; stroke-opacity:0.1; fill:none" points="1161.83,1423.18 1161.83,47.2441 "/>
<polyline clip-path="url(#clip522)" style="stroke:#000000; stroke-linecap:round; stroke-linejoin:round; stroke-width:2; stroke-opacity:0.1; fill:none" points="1573.56,1423.18 1573.56,47.2441 "/>
<polyline clip-path="url(#clip522)" style="stroke:#000000; stroke-linecap:round; stroke-linejoin:round; stroke-width:2; stroke-opacity:0.1; fill:none" points="1985.29,1423.18 1985.29,47.2441 "/>
<polyline clip-path="url(#clip522)" style="stroke:#000000; stroke-linecap:round; stroke-linejoin:round; stroke-width:2; stroke-opacity:0.1; fill:none" points="279.704,1370.49 2352.76,1370.49 "/>
<polyline clip-path="url(#clip522)" style="stroke:#000000; stroke-linecap:round; stroke-linejoin:round; stroke-width:2; stroke-opacity:0.1; fill:none" points="279.704,1162.88 2352.76,1162.88 "/>
<polyline clip-path="url(#clip522)" style="stroke:#000000; stroke-linecap:round; stroke-linejoin:round; stroke-width:2; stroke-opacity:0.1; fill:none" points="279.704,955.278 2352.76,955.278 "/>
<polyline clip-path="url(#clip522)" style="stroke:#000000; stroke-linecap:round; stroke-linejoin:round; stroke-width:2; stroke-opacity:0.1; fill:none" points="279.704,747.671 2352.76,747.671 "/>
<polyline clip-path="url(#clip522)" style="stroke:#000000; stroke-linecap:round; stroke-linejoin:round; stroke-width:2; stroke-opacity:0.1; fill:none" points="279.704,540.064 2352.76,540.064 "/>
<polyline clip-path="url(#clip522)" style="stroke:#000000; stroke-linecap:round; stroke-linejoin:round; stroke-width:2; stroke-opacity:0.1; fill:none" points="279.704,332.457 2352.76,332.457 "/>
<polyline clip-path="url(#clip522)" style="stroke:#000000; stroke-linecap:round; stroke-linejoin:round; stroke-width:2; stroke-opacity:0.1; fill:none" points="279.704,124.85 2352.76,124.85 "/>
<polyline clip-path="url(#clip520)" style="stroke:#000000; stroke-linecap:round; stroke-linejoin:round; stroke-width:4; stroke-opacity:1; fill:none" points="279.704,1423.18 2352.76,1423.18 "/>
<polyline clip-path="url(#clip520)" style="stroke:#000000; stroke-linecap:round; stroke-linejoin:round; stroke-width:4; stroke-opacity:1; fill:none" points="338.375,1423.18 338.375,1404.28 "/>
<polyline clip-path="url(#clip520)" style="stroke:#000000; stroke-linecap:round; stroke-linejoin:round; stroke-width:4; stroke-opacity:1; fill:none" points="750.103,1423.18 750.103,1404.28 "/>
<polyline clip-path="url(#clip520)" style="stroke:#000000; stroke-linecap:round; stroke-linejoin:round; stroke-width:4; stroke-opacity:1; fill:none" points="1161.83,1423.18 1161.83,1404.28 "/>
<polyline clip-path="url(#clip520)" style="stroke:#000000; stroke-linecap:round; stroke-linejoin:round; stroke-width:4; stroke-opacity:1; fill:none" points="1573.56,1423.18 1573.56,1404.28 "/>
<polyline clip-path="url(#clip520)" style="stroke:#000000; stroke-linecap:round; stroke-linejoin:round; stroke-width:4; stroke-opacity:1; fill:none" points="1985.29,1423.18 1985.29,1404.28 "/>
<path clip-path="url(#clip520)" d="M315.76 1454.1 Q312.148 1454.1 310.32 1457.66 Q308.514 1461.2 308.514 1468.33 Q308.514 1475.44 310.32 1479.01 Q312.148 1482.55 315.76 1482.55 Q319.394 1482.55 321.199 1479.01 Q323.028 1475.44 323.028 1468.33 Q323.028 1461.2 321.199 1457.66 Q319.394 1454.1 315.76 1454.1 M315.76 1450.39 Q321.57 1450.39 324.625 1455 Q327.704 1459.58 327.704 1468.33 Q327.704 1477.06 324.625 1481.67 Q321.57 1486.25 315.76 1486.25 Q309.949 1486.25 306.871 1481.67 Q303.815 1477.06 303.815 1468.33 Q303.815 1459.58 306.871 1455 Q309.949 1450.39 315.76 1450.39 Z" fill="#000000" fill-rule="nonzero" fill-opacity="1" /><path clip-path="url(#clip520)" d="M335.922 1479.7 L340.806 1479.7 L340.806 1485.58 L335.922 1485.58 L335.922 1479.7 Z" fill="#000000" fill-rule="nonzero" fill-opacity="1" /><path clip-path="url(#clip520)" d="M360.991 1454.1 Q357.38 1454.1 355.551 1457.66 Q353.745 1461.2 353.745 1468.33 Q353.745 1475.44 355.551 1479.01 Q357.38 1482.55 360.991 1482.55 Q364.625 1482.55 366.431 1479.01 Q368.259 1475.44 368.259 1468.33 Q368.259 1461.2 366.431 1457.66 Q364.625 1454.1 360.991 1454.1 M360.991 1450.39 Q366.801 1450.39 369.857 1455 Q372.935 1459.58 372.935 1468.33 Q372.935 1477.06 369.857 1481.67 Q366.801 1486.25 360.991 1486.25 Q355.181 1486.25 352.102 1481.67 Q349.046 1477.06 349.046 1468.33 Q349.046 1459.58 352.102 1455 Q355.181 1450.39 360.991 1450.39 Z" fill="#000000" fill-rule="nonzero" fill-opacity="1" /><path clip-path="url(#clip520)" d="M728.286 1454.1 Q724.675 1454.1 722.847 1457.66 Q721.041 1461.2 721.041 1468.33 Q721.041 1475.44 722.847 1479.01 Q724.675 1482.55 728.286 1482.55 Q731.921 1482.55 733.726 1479.01 Q735.555 1475.44 735.555 1468.33 Q735.555 1461.2 733.726 1457.66 Q731.921 1454.1 728.286 1454.1 M728.286 1450.39 Q734.097 1450.39 737.152 1455 Q740.231 1459.58 740.231 1468.33 Q740.231 1477.06 737.152 1481.67 Q734.097 1486.25 728.286 1486.25 Q722.476 1486.25 719.398 1481.67 Q716.342 1477.06 716.342 1468.33 Q716.342 1459.58 719.398 1455 Q722.476 1450.39 728.286 1450.39 Z" fill="#000000" fill-rule="nonzero" fill-opacity="1" /><path clip-path="url(#clip520)" d="M748.448 1479.7 L753.333 1479.7 L753.333 1485.58 L748.448 1485.58 L748.448 1479.7 Z" fill="#000000" fill-rule="nonzero" fill-opacity="1" /><path clip-path="url(#clip520)" d="M767.546 1481.64 L783.865 1481.64 L783.865 1485.58 L761.921 1485.58 L761.921 1481.64 Q764.583 1478.89 769.166 1474.26 Q773.772 1469.61 774.953 1468.27 Q777.198 1465.74 778.078 1464.01 Q778.981 1462.25 778.981 1460.56 Q778.981 1457.8 777.036 1456.07 Q775.115 1454.33 772.013 1454.33 Q769.814 1454.33 767.36 1455.09 Q764.93 1455.86 762.152 1457.41 L762.152 1452.69 Q764.976 1451.55 767.43 1450.97 Q769.883 1450.39 771.921 1450.39 Q777.291 1450.39 780.485 1453.08 Q783.68 1455.77 783.68 1460.26 Q783.68 1462.39 782.87 1464.31 Q782.082 1466.2 779.976 1468.8 Q779.397 1469.47 776.295 1472.69 Q773.194 1475.88 767.546 1481.64 Z" fill="#000000" fill-rule="nonzero" fill-opacity="1" /><path clip-path="url(#clip520)" d="M1138.97 1454.1 Q1135.36 1454.1 1133.53 1457.66 Q1131.73 1461.2 1131.73 1468.33 Q1131.73 1475.44 1133.53 1479.01 Q1135.36 1482.55 1138.97 1482.55 Q1142.61 1482.55 1144.41 1479.01 Q1146.24 1475.44 1146.24 1468.33 Q1146.24 1461.2 1144.41 1457.66 Q1142.61 1454.1 1138.97 1454.1 M1138.97 1450.39 Q1144.78 1450.39 1147.84 1455 Q1150.92 1459.58 1150.92 1468.33 Q1150.92 1477.06 1147.84 1481.67 Q1144.78 1486.25 1138.97 1486.25 Q1133.16 1486.25 1130.08 1481.67 Q1127.03 1477.06 1127.03 1468.33 Q1127.03 1459.58 1130.08 1455 Q1133.16 1450.39 1138.97 1450.39 Z" fill="#000000" fill-rule="nonzero" fill-opacity="1" /><path clip-path="url(#clip520)" d="M1159.14 1479.7 L1164.02 1479.7 L1164.02 1485.58 L1159.14 1485.58 L1159.14 1479.7 Z" fill="#000000" fill-rule="nonzero" fill-opacity="1" /><path clip-path="url(#clip520)" d="M1187.05 1455.09 L1175.25 1473.54 L1187.05 1473.54 L1187.05 1455.09 M1185.82 1451.02 L1191.7 1451.02 L1191.7 1473.54 L1196.63 1473.54 L1196.63 1477.43 L1191.7 1477.43 L1191.7 1485.58 L1187.05 1485.58 L1187.05 1477.43 L1171.45 1477.43 L1171.45 1472.92 L1185.82 1451.02 Z" fill="#000000" fill-rule="nonzero" fill-opacity="1" /><path clip-path="url(#clip520)" d="M1550.86 1454.1 Q1547.25 1454.1 1545.42 1457.66 Q1543.62 1461.2 1543.62 1468.33 Q1543.62 1475.44 1545.42 1479.01 Q1547.25 1482.55 1550.86 1482.55 Q1554.5 1482.55 1556.3 1479.01 Q1558.13 1475.44 1558.13 1468.33 Q1558.13 1461.2 1556.3 1457.66 Q1554.5 1454.1 1550.86 1454.1 M1550.86 1450.39 Q1556.67 1450.39 1559.73 1455 Q1562.81 1459.58 1562.81 1468.33 Q1562.81 1477.06 1559.73 1481.67 Q1556.67 1486.25 1550.86 1486.25 Q1545.05 1486.25 1541.97 1481.67 Q1538.92 1477.06 1538.92 1468.33 Q1538.92 1459.58 1541.97 1455 Q1545.05 1450.39 1550.86 1450.39 Z" fill="#000000" fill-rule="nonzero" fill-opacity="1" /><path clip-path="url(#clip520)" d="M1571.03 1479.7 L1575.91 1479.7 L1575.91 1485.58 L1571.03 1485.58 L1571.03 1479.7 Z" fill="#000000" fill-rule="nonzero" fill-opacity="1" /><path clip-path="url(#clip520)" d="M1596.67 1466.44 Q1593.53 1466.44 1591.67 1468.59 Q1589.84 1470.74 1589.84 1474.49 Q1589.84 1478.22 1591.67 1480.39 Q1593.53 1482.55 1596.67 1482.55 Q1599.82 1482.55 1601.65 1480.39 Q1603.5 1478.22 1603.5 1474.49 Q1603.5 1470.74 1601.65 1468.59 Q1599.82 1466.44 1596.67 1466.44 M1605.96 1451.78 L1605.96 1456.04 Q1604.2 1455.21 1602.39 1454.77 Q1600.61 1454.33 1598.85 1454.33 Q1594.22 1454.33 1591.77 1457.45 Q1589.34 1460.58 1588.99 1466.9 Q1590.35 1464.89 1592.41 1463.82 Q1594.47 1462.73 1596.95 1462.73 Q1602.16 1462.73 1605.17 1465.9 Q1608.2 1469.05 1608.2 1474.49 Q1608.2 1479.82 1605.05 1483.03 Q1601.9 1486.25 1596.67 1486.25 Q1590.68 1486.25 1587.51 1481.67 Q1584.34 1477.06 1584.34 1468.33 Q1584.34 1460.14 1588.22 1455.28 Q1592.11 1450.39 1598.66 1450.39 Q1600.42 1450.39 1602.21 1450.74 Q1604.01 1451.09 1605.96 1451.78 Z" fill="#000000" fill-rule="nonzero" fill-opacity="1" /><path clip-path="url(#clip520)" d="M1962.72 1454.1 Q1959.11 1454.1 1957.28 1457.66 Q1955.47 1461.2 1955.47 1468.33 Q1955.47 1475.44 1957.28 1479.01 Q1959.11 1482.55 1962.72 1482.55 Q1966.35 1482.55 1968.16 1479.01 Q1969.99 1475.44 1969.99 1468.33 Q1969.99 1461.2 1968.16 1457.66 Q1966.35 1454.1 1962.72 1454.1 M1962.72 1450.39 Q1968.53 1450.39 1971.58 1455 Q1974.66 1459.58 1974.66 1468.33 Q1974.66 1477.06 1971.58 1481.67 Q1968.53 1486.25 1962.72 1486.25 Q1956.91 1486.25 1953.83 1481.67 Q1950.77 1477.06 1950.77 1468.33 Q1950.77 1459.58 1953.83 1455 Q1956.91 1450.39 1962.72 1450.39 Z" fill="#000000" fill-rule="nonzero" fill-opacity="1" /><path clip-path="url(#clip520)" d="M1982.88 1479.7 L1987.77 1479.7 L1987.77 1485.58 L1982.88 1485.58 L1982.88 1479.7 Z" fill="#000000" fill-rule="nonzero" fill-opacity="1" /><path clip-path="url(#clip520)" d="M2007.95 1469.17 Q2004.62 1469.17 2002.7 1470.95 Q2000.8 1472.73 2000.8 1475.86 Q2000.8 1478.98 2002.7 1480.77 Q2004.62 1482.55 2007.95 1482.55 Q2011.28 1482.55 2013.2 1480.77 Q2015.13 1478.96 2015.13 1475.86 Q2015.13 1472.73 2013.2 1470.95 Q2011.31 1469.17 2007.95 1469.17 M2003.27 1467.18 Q2000.27 1466.44 1998.58 1464.38 Q1996.91 1462.32 1996.91 1459.35 Q1996.91 1455.21 1999.85 1452.8 Q2002.81 1450.39 2007.95 1450.39 Q2013.11 1450.39 2016.05 1452.8 Q2018.99 1455.21 2018.99 1459.35 Q2018.99 1462.32 2017.3 1464.38 Q2015.64 1466.44 2012.65 1467.18 Q2016.03 1467.96 2017.9 1470.26 Q2019.8 1472.55 2019.8 1475.86 Q2019.8 1480.88 2016.72 1483.57 Q2013.67 1486.25 2007.95 1486.25 Q2002.23 1486.25 1999.15 1483.57 Q1996.1 1480.88 1996.1 1475.86 Q1996.1 1472.55 1998 1470.26 Q1999.89 1467.96 2003.27 1467.18 M2001.56 1459.79 Q2001.56 1462.48 2003.23 1463.98 Q2004.92 1465.49 2007.95 1465.49 Q2010.96 1465.49 2012.65 1463.98 Q2014.36 1462.48 2014.36 1459.79 Q2014.36 1457.11 2012.65 1455.6 Q2010.96 1454.1 2007.95 1454.1 Q2004.92 1454.1 2003.23 1455.6 Q2001.56 1457.11 2001.56 1459.79 Z" fill="#000000" fill-rule="nonzero" fill-opacity="1" /><path clip-path="url(#clip520)" d="M1332.84 1532.4 L1319.95 1549.74 L1333.51 1568.04 L1326.61 1568.04 L1316.23 1554.04 L1305.85 1568.04 L1298.95 1568.04 L1312.79 1549.39 L1300.12 1532.4 L1307.03 1532.4 L1316.48 1545.1 L1325.94 1532.4 L1332.84 1532.4 Z" fill="#000000" fill-rule="nonzero" fill-opacity="1" /><polyline clip-path="url(#clip520)" style="stroke:#000000; stroke-linecap:round; stroke-linejoin:round; stroke-width:4; stroke-opacity:1; fill:none" points="279.704,1423.18 279.704,47.2441 "/>
<polyline clip-path="url(#clip520)" style="stroke:#000000; stroke-linecap:round; stroke-linejoin:round; stroke-width:4; stroke-opacity:1; fill:none" points="279.704,1370.49 298.602,1370.49 "/>
<polyline clip-path="url(#clip520)" style="stroke:#000000; stroke-linecap:round; stroke-linejoin:round; stroke-width:4; stroke-opacity:1; fill:none" points="279.704,1162.88 298.602,1162.88 "/>
<polyline clip-path="url(#clip520)" style="stroke:#000000; stroke-linecap:round; stroke-linejoin:round; stroke-width:4; stroke-opacity:1; fill:none" points="279.704,955.278 298.602,955.278 "/>
<polyline clip-path="url(#clip520)" style="stroke:#000000; stroke-linecap:round; stroke-linejoin:round; stroke-width:4; stroke-opacity:1; fill:none" points="279.704,747.671 298.602,747.671 "/>
<polyline clip-path="url(#clip520)" style="stroke:#000000; stroke-linecap:round; stroke-linejoin:round; stroke-width:4; stroke-opacity:1; fill:none" points="279.704,540.064 298.602,540.064 "/>
<polyline clip-path="url(#clip520)" style="stroke:#000000; stroke-linecap:round; stroke-linejoin:round; stroke-width:4; stroke-opacity:1; fill:none" points="279.704,332.457 298.602,332.457 "/>
<polyline clip-path="url(#clip520)" style="stroke:#000000; stroke-linecap:round; stroke-linejoin:round; stroke-width:4; stroke-opacity:1; fill:none" points="279.704,124.85 298.602,124.85 "/>
<path clip-path="url(#clip520)" d="M127.2 1356.29 Q123.589 1356.29 121.76 1359.86 Q119.955 1363.4 119.955 1370.53 Q119.955 1377.63 121.76 1381.2 Q123.589 1384.74 127.2 1384.74 Q130.834 1384.74 132.64 1381.2 Q134.468 1377.63 134.468 1370.53 Q134.468 1363.4 132.64 1359.86 Q130.834 1356.29 127.2 1356.29 M127.2 1352.59 Q133.01 1352.59 136.066 1357.19 Q139.144 1361.78 139.144 1370.53 Q139.144 1379.25 136.066 1383.86 Q133.01 1388.44 127.2 1388.44 Q121.39 1388.44 118.311 1383.86 Q115.256 1379.25 115.256 1370.53 Q115.256 1361.78 118.311 1357.19 Q121.39 1352.59 127.2 1352.59 Z" fill="#000000" fill-rule="nonzero" fill-opacity="1" /><path clip-path="url(#clip520)" d="M147.362 1381.89 L152.246 1381.89 L152.246 1387.77 L147.362 1387.77 L147.362 1381.89 Z" fill="#000000" fill-rule="nonzero" fill-opacity="1" /><path clip-path="url(#clip520)" d="M172.431 1356.29 Q168.82 1356.29 166.991 1359.86 Q165.186 1363.4 165.186 1370.53 Q165.186 1377.63 166.991 1381.2 Q168.82 1384.74 172.431 1384.74 Q176.065 1384.74 177.871 1381.2 Q179.7 1377.63 179.7 1370.53 Q179.7 1363.4 177.871 1359.86 Q176.065 1356.29 172.431 1356.29 M172.431 1352.59 Q178.241 1352.59 181.297 1357.19 Q184.376 1361.78 184.376 1370.53 Q184.376 1379.25 181.297 1383.86 Q178.241 1388.44 172.431 1388.44 Q166.621 1388.44 163.542 1383.86 Q160.487 1379.25 160.487 1370.53 Q160.487 1361.78 163.542 1357.19 Q166.621 1352.59 172.431 1352.59 Z" fill="#000000" fill-rule="nonzero" fill-opacity="1" /><path clip-path="url(#clip520)" d="M192.639 1353.21 L210.996 1353.21 L210.996 1357.15 L196.922 1357.15 L196.922 1365.62 Q197.94 1365.27 198.959 1365.11 Q199.977 1364.92 200.996 1364.92 Q206.783 1364.92 210.162 1368.1 Q213.542 1371.27 213.542 1376.68 Q213.542 1382.26 210.07 1385.36 Q206.598 1388.44 200.278 1388.44 Q198.102 1388.44 195.834 1388.07 Q193.588 1387.7 191.181 1386.96 L191.181 1382.26 Q193.264 1383.4 195.487 1383.95 Q197.709 1384.51 200.186 1384.51 Q204.19 1384.51 206.528 1382.4 Q208.866 1380.29 208.866 1376.68 Q208.866 1373.07 206.528 1370.97 Q204.19 1368.86 200.186 1368.86 Q198.311 1368.86 196.436 1369.28 Q194.584 1369.69 192.639 1370.57 L192.639 1353.21 Z" fill="#000000" fill-rule="nonzero" fill-opacity="1" /><path clip-path="url(#clip520)" d="M222.801 1353.21 L241.158 1353.21 L241.158 1357.15 L227.084 1357.15 L227.084 1365.62 Q228.102 1365.27 229.121 1365.11 Q230.139 1364.92 231.158 1364.92 Q236.945 1364.92 240.324 1368.1 Q243.704 1371.27 243.704 1376.68 Q243.704 1382.26 240.232 1385.36 Q236.76 1388.44 230.44 1388.44 Q228.264 1388.44 225.996 1388.07 Q223.75 1387.7 221.343 1386.96 L221.343 1382.26 Q223.426 1383.4 225.648 1383.95 Q227.871 1384.51 230.347 1384.51 Q234.352 1384.51 236.69 1382.4 Q239.028 1380.29 239.028 1376.68 Q239.028 1373.07 236.69 1370.97 Q234.352 1368.86 230.347 1368.86 Q228.473 1368.86 226.598 1369.28 Q224.746 1369.69 222.801 1370.57 L222.801 1353.21 Z" fill="#000000" fill-rule="nonzero" fill-opacity="1" /><path clip-path="url(#clip520)" d="M126.205 1148.68 Q122.593 1148.68 120.765 1152.25 Q118.959 1155.79 118.959 1162.92 Q118.959 1170.03 120.765 1173.59 Q122.593 1177.13 126.205 1177.13 Q129.839 1177.13 131.644 1173.59 Q133.473 1170.03 133.473 1162.92 Q133.473 1155.79 131.644 1152.25 Q129.839 1148.68 126.205 1148.68 M126.205 1144.98 Q132.015 1144.98 135.07 1149.59 Q138.149 1154.17 138.149 1162.92 Q138.149 1171.65 135.07 1176.25 Q132.015 1180.84 126.205 1180.84 Q120.394 1180.84 117.316 1176.25 Q114.26 1171.65 114.26 1162.92 Q114.26 1154.17 117.316 1149.59 Q120.394 1144.98 126.205 1144.98 Z" fill="#000000" fill-rule="nonzero" fill-opacity="1" /><path clip-path="url(#clip520)" d="M146.366 1174.29 L151.251 1174.29 L151.251 1180.16 L146.366 1180.16 L146.366 1174.29 Z" fill="#000000" fill-rule="nonzero" fill-opacity="1" /><path clip-path="url(#clip520)" d="M171.436 1148.68 Q167.825 1148.68 165.996 1152.25 Q164.19 1155.79 164.19 1162.92 Q164.19 1170.03 165.996 1173.59 Q167.825 1177.13 171.436 1177.13 Q175.07 1177.13 176.876 1173.59 Q178.704 1170.03 178.704 1162.92 Q178.704 1155.79 176.876 1152.25 Q175.07 1148.68 171.436 1148.68 M171.436 1144.98 Q177.246 1144.98 180.301 1149.59 Q183.38 1154.17 183.38 1162.92 Q183.38 1171.65 180.301 1176.25 Q177.246 1180.84 171.436 1180.84 Q165.626 1180.84 162.547 1176.25 Q159.491 1171.65 159.491 1162.92 Q159.491 1154.17 162.547 1149.59 Q165.626 1144.98 171.436 1144.98 Z" fill="#000000" fill-rule="nonzero" fill-opacity="1" /><path clip-path="url(#clip520)" d="M202.176 1161.02 Q199.028 1161.02 197.176 1163.17 Q195.348 1165.33 195.348 1169.08 Q195.348 1172.8 197.176 1174.98 Q199.028 1177.13 202.176 1177.13 Q205.324 1177.13 207.153 1174.98 Q209.005 1172.8 209.005 1169.08 Q209.005 1165.33 207.153 1163.17 Q205.324 1161.02 202.176 1161.02 M211.459 1146.37 L211.459 1150.63 Q209.699 1149.79 207.894 1149.35 Q206.112 1148.91 204.352 1148.91 Q199.723 1148.91 197.269 1152.04 Q194.838 1155.16 194.491 1161.48 Q195.857 1159.47 197.917 1158.41 Q199.977 1157.32 202.454 1157.32 Q207.662 1157.32 210.672 1160.49 Q213.704 1163.64 213.704 1169.08 Q213.704 1174.4 210.556 1177.62 Q207.408 1180.84 202.176 1180.84 Q196.181 1180.84 193.01 1176.25 Q189.838 1171.65 189.838 1162.92 Q189.838 1154.72 193.727 1149.86 Q197.616 1144.98 204.167 1144.98 Q205.926 1144.98 207.709 1145.33 Q209.514 1145.67 211.459 1146.37 Z" fill="#000000" fill-rule="nonzero" fill-opacity="1" /><path clip-path="url(#clip520)" d="M231.76 1148.68 Q228.148 1148.68 226.32 1152.25 Q224.514 1155.79 224.514 1162.92 Q224.514 1170.03 226.32 1173.59 Q228.148 1177.13 231.76 1177.13 Q235.394 1177.13 237.199 1173.59 Q239.028 1170.03 239.028 1162.92 Q239.028 1155.79 237.199 1152.25 Q235.394 1148.68 231.76 1148.68 M231.76 1144.98 Q237.57 1144.98 240.625 1149.59 Q243.704 1154.17 243.704 1162.92 Q243.704 1171.65 240.625 1176.25 Q237.57 1180.84 231.76 1180.84 Q225.949 1180.84 222.871 1176.25 Q219.815 1171.65 219.815 1162.92 Q219.815 1154.17 222.871 1149.59 Q225.949 1144.98 231.76 1144.98 Z" fill="#000000" fill-rule="nonzero" fill-opacity="1" /><path clip-path="url(#clip520)" d="M127.2 941.076 Q123.589 941.076 121.76 944.641 Q119.955 948.183 119.955 955.312 Q119.955 962.419 121.76 965.984 Q123.589 969.525 127.2 969.525 Q130.834 969.525 132.64 965.984 Q134.468 962.419 134.468 955.312 Q134.468 948.183 132.64 944.641 Q130.834 941.076 127.2 941.076 M127.2 937.373 Q133.01 937.373 136.066 941.979 Q139.144 946.562 139.144 955.312 Q139.144 964.039 136.066 968.646 Q133.01 973.229 127.2 973.229 Q121.39 973.229 118.311 968.646 Q115.256 964.039 115.256 955.312 Q115.256 946.562 118.311 941.979 Q121.39 937.373 127.2 937.373 Z" fill="#000000" fill-rule="nonzero" fill-opacity="1" /><path clip-path="url(#clip520)" d="M147.362 966.678 L152.246 966.678 L152.246 972.558 L147.362 972.558 L147.362 966.678 Z" fill="#000000" fill-rule="nonzero" fill-opacity="1" /><path clip-path="url(#clip520)" d="M172.431 941.076 Q168.82 941.076 166.991 944.641 Q165.186 948.183 165.186 955.312 Q165.186 962.419 166.991 965.984 Q168.82 969.525 172.431 969.525 Q176.065 969.525 177.871 965.984 Q179.7 962.419 179.7 955.312 Q179.7 948.183 177.871 944.641 Q176.065 941.076 172.431 941.076 M172.431 937.373 Q178.241 937.373 181.297 941.979 Q184.376 946.562 184.376 955.312 Q184.376 964.039 181.297 968.646 Q178.241 973.229 172.431 973.229 Q166.621 973.229 163.542 968.646 Q160.487 964.039 160.487 955.312 Q160.487 946.562 163.542 941.979 Q166.621 937.373 172.431 937.373 Z" fill="#000000" fill-rule="nonzero" fill-opacity="1" /><path clip-path="url(#clip520)" d="M203.172 953.414 Q200.024 953.414 198.172 955.567 Q196.343 957.72 196.343 961.47 Q196.343 965.197 198.172 967.373 Q200.024 969.525 203.172 969.525 Q206.32 969.525 208.149 967.373 Q210 965.197 210 961.47 Q210 957.72 208.149 955.567 Q206.32 953.414 203.172 953.414 M212.454 938.762 L212.454 943.021 Q210.695 942.187 208.889 941.748 Q207.107 941.308 205.348 941.308 Q200.718 941.308 198.264 944.433 Q195.834 947.558 195.487 953.877 Q196.852 951.863 198.912 950.799 Q200.973 949.711 203.449 949.711 Q208.658 949.711 211.667 952.882 Q214.699 956.03 214.699 961.47 Q214.699 966.794 211.551 970.011 Q208.403 973.229 203.172 973.229 Q197.176 973.229 194.005 968.646 Q190.834 964.039 190.834 955.312 Q190.834 947.118 194.723 942.257 Q198.612 937.373 205.162 937.373 Q206.922 937.373 208.704 937.72 Q210.51 938.067 212.454 938.762 Z" fill="#000000" fill-rule="nonzero" fill-opacity="1" /><path clip-path="url(#clip520)" d="M222.801 937.998 L241.158 937.998 L241.158 941.933 L227.084 941.933 L227.084 950.405 Q228.102 950.058 229.121 949.896 Q230.139 949.711 231.158 949.711 Q236.945 949.711 240.324 952.882 Q243.704 956.053 243.704 961.47 Q243.704 967.048 240.232 970.15 Q236.76 973.229 230.44 973.229 Q228.264 973.229 225.996 972.859 Q223.75 972.488 221.343 971.747 L221.343 967.048 Q223.426 968.183 225.648 968.738 Q227.871 969.294 230.347 969.294 Q234.352 969.294 236.69 967.187 Q239.028 965.081 239.028 961.47 Q239.028 957.859 236.69 955.752 Q234.352 953.646 230.347 953.646 Q228.473 953.646 226.598 954.062 Q224.746 954.479 222.801 955.359 L222.801 937.998 Z" fill="#000000" fill-rule="nonzero" fill-opacity="1" /><path clip-path="url(#clip520)" d="M126.205 733.469 Q122.593 733.469 120.765 737.034 Q118.959 740.576 118.959 747.705 Q118.959 754.812 120.765 758.377 Q122.593 761.918 126.205 761.918 Q129.839 761.918 131.644 758.377 Q133.473 754.812 133.473 747.705 Q133.473 740.576 131.644 737.034 Q129.839 733.469 126.205 733.469 M126.205 729.766 Q132.015 729.766 135.07 734.372 Q138.149 738.955 138.149 747.705 Q138.149 756.432 135.07 761.039 Q132.015 765.622 126.205 765.622 Q120.394 765.622 117.316 761.039 Q114.26 756.432 114.26 747.705 Q114.26 738.955 117.316 734.372 Q120.394 729.766 126.205 729.766 Z" fill="#000000" fill-rule="nonzero" fill-opacity="1" /><path clip-path="url(#clip520)" d="M146.366 759.071 L151.251 759.071 L151.251 764.951 L146.366 764.951 L146.366 759.071 Z" fill="#000000" fill-rule="nonzero" fill-opacity="1" /><path clip-path="url(#clip520)" d="M171.436 733.469 Q167.825 733.469 165.996 737.034 Q164.19 740.576 164.19 747.705 Q164.19 754.812 165.996 758.377 Q167.825 761.918 171.436 761.918 Q175.07 761.918 176.876 758.377 Q178.704 754.812 178.704 747.705 Q178.704 740.576 176.876 737.034 Q175.07 733.469 171.436 733.469 M171.436 729.766 Q177.246 729.766 180.301 734.372 Q183.38 738.955 183.38 747.705 Q183.38 756.432 180.301 761.039 Q177.246 765.622 171.436 765.622 Q165.626 765.622 162.547 761.039 Q159.491 756.432 159.491 747.705 Q159.491 738.955 162.547 734.372 Q165.626 729.766 171.436 729.766 Z" fill="#000000" fill-rule="nonzero" fill-opacity="1" /><path clip-path="url(#clip520)" d="M190.417 730.391 L212.639 730.391 L212.639 732.381 L200.093 764.951 L195.209 764.951 L207.014 734.326 L190.417 734.326 L190.417 730.391 Z" fill="#000000" fill-rule="nonzero" fill-opacity="1" /><path clip-path="url(#clip520)" d="M231.76 733.469 Q228.148 733.469 226.32 737.034 Q224.514 740.576 224.514 747.705 Q224.514 754.812 226.32 758.377 Q228.148 761.918 231.76 761.918 Q235.394 761.918 237.199 758.377 Q239.028 754.812 239.028 747.705 Q239.028 740.576 237.199 737.034 Q235.394 733.469 231.76 733.469 M231.76 729.766 Q237.57 729.766 240.625 734.372 Q243.704 738.955 243.704 747.705 Q243.704 756.432 240.625 761.039 Q237.57 765.622 231.76 765.622 Q225.949 765.622 222.871 761.039 Q219.815 756.432 219.815 747.705 Q219.815 738.955 222.871 734.372 Q225.949 729.766 231.76 729.766 Z" fill="#000000" fill-rule="nonzero" fill-opacity="1" /><path clip-path="url(#clip520)" d="M127.2 525.862 Q123.589 525.862 121.76 529.427 Q119.955 532.969 119.955 540.098 Q119.955 547.205 121.76 550.77 Q123.589 554.311 127.2 554.311 Q130.834 554.311 132.64 550.77 Q134.468 547.205 134.468 540.098 Q134.468 532.969 132.64 529.427 Q130.834 525.862 127.2 525.862 M127.2 522.159 Q133.01 522.159 136.066 526.765 Q139.144 531.348 139.144 540.098 Q139.144 548.825 136.066 553.432 Q133.01 558.015 127.2 558.015 Q121.39 558.015 118.311 553.432 Q115.256 548.825 115.256 540.098 Q115.256 531.348 118.311 526.765 Q121.39 522.159 127.2 522.159 Z" fill="#000000" fill-rule="nonzero" fill-opacity="1" /><path clip-path="url(#clip520)" d="M147.362 551.464 L152.246 551.464 L152.246 557.344 L147.362 557.344 L147.362 551.464 Z" fill="#000000" fill-rule="nonzero" fill-opacity="1" /><path clip-path="url(#clip520)" d="M172.431 525.862 Q168.82 525.862 166.991 529.427 Q165.186 532.969 165.186 540.098 Q165.186 547.205 166.991 550.77 Q168.82 554.311 172.431 554.311 Q176.065 554.311 177.871 550.77 Q179.7 547.205 179.7 540.098 Q179.7 532.969 177.871 529.427 Q176.065 525.862 172.431 525.862 M172.431 522.159 Q178.241 522.159 181.297 526.765 Q184.376 531.348 184.376 540.098 Q184.376 548.825 181.297 553.432 Q178.241 558.015 172.431 558.015 Q166.621 558.015 163.542 553.432 Q160.487 548.825 160.487 540.098 Q160.487 531.348 163.542 526.765 Q166.621 522.159 172.431 522.159 Z" fill="#000000" fill-rule="nonzero" fill-opacity="1" /><path clip-path="url(#clip520)" d="M191.413 522.784 L213.635 522.784 L213.635 524.774 L201.088 557.344 L196.204 557.344 L208.01 526.719 L191.413 526.719 L191.413 522.784 Z" fill="#000000" fill-rule="nonzero" fill-opacity="1" /><path clip-path="url(#clip520)" d="M222.801 522.784 L241.158 522.784 L241.158 526.719 L227.084 526.719 L227.084 535.191 Q228.102 534.844 229.121 534.682 Q230.139 534.497 231.158 534.497 Q236.945 534.497 240.324 537.668 Q243.704 540.839 243.704 546.256 Q243.704 551.834 240.232 554.936 Q236.76 558.015 230.44 558.015 Q228.264 558.015 225.996 557.645 Q223.75 557.274 221.343 556.534 L221.343 551.834 Q223.426 552.969 225.648 553.524 Q227.871 554.08 230.347 554.08 Q234.352 554.08 236.69 551.973 Q239.028 549.867 239.028 546.256 Q239.028 542.645 236.69 540.538 Q234.352 538.432 230.347 538.432 Q228.473 538.432 226.598 538.848 Q224.746 539.265 222.801 540.145 L222.801 522.784 Z" fill="#000000" fill-rule="nonzero" fill-opacity="1" /><path clip-path="url(#clip520)" d="M126.205 318.255 Q122.593 318.255 120.765 321.82 Q118.959 325.362 118.959 332.491 Q118.959 339.598 120.765 343.163 Q122.593 346.704 126.205 346.704 Q129.839 346.704 131.644 343.163 Q133.473 339.598 133.473 332.491 Q133.473 325.362 131.644 321.82 Q129.839 318.255 126.205 318.255 M126.205 314.552 Q132.015 314.552 135.07 319.158 Q138.149 323.741 138.149 332.491 Q138.149 341.218 135.07 345.825 Q132.015 350.408 126.205 350.408 Q120.394 350.408 117.316 345.825 Q114.26 341.218 114.26 332.491 Q114.26 323.741 117.316 319.158 Q120.394 314.552 126.205 314.552 Z" fill="#000000" fill-rule="nonzero" fill-opacity="1" /><path clip-path="url(#clip520)" d="M146.366 343.857 L151.251 343.857 L151.251 349.737 L146.366 349.737 L146.366 343.857 Z" fill="#000000" fill-rule="nonzero" fill-opacity="1" /><path clip-path="url(#clip520)" d="M171.436 318.255 Q167.825 318.255 165.996 321.82 Q164.19 325.362 164.19 332.491 Q164.19 339.598 165.996 343.163 Q167.825 346.704 171.436 346.704 Q175.07 346.704 176.876 343.163 Q178.704 339.598 178.704 332.491 Q178.704 325.362 176.876 321.82 Q175.07 318.255 171.436 318.255 M171.436 314.552 Q177.246 314.552 180.301 319.158 Q183.38 323.741 183.38 332.491 Q183.38 341.218 180.301 345.825 Q177.246 350.408 171.436 350.408 Q165.626 350.408 162.547 345.825 Q159.491 341.218 159.491 332.491 Q159.491 323.741 162.547 319.158 Q165.626 314.552 171.436 314.552 Z" fill="#000000" fill-rule="nonzero" fill-opacity="1" /><path clip-path="url(#clip520)" d="M201.598 333.325 Q198.264 333.325 196.343 335.107 Q194.445 336.89 194.445 340.015 Q194.445 343.14 196.343 344.922 Q198.264 346.704 201.598 346.704 Q204.931 346.704 206.852 344.922 Q208.774 343.116 208.774 340.015 Q208.774 336.89 206.852 335.107 Q204.954 333.325 201.598 333.325 M196.922 331.334 Q193.913 330.593 192.223 328.533 Q190.556 326.473 190.556 323.51 Q190.556 319.366 193.496 316.959 Q196.459 314.552 201.598 314.552 Q206.76 314.552 209.699 316.959 Q212.639 319.366 212.639 323.51 Q212.639 326.473 210.949 328.533 Q209.283 330.593 206.297 331.334 Q209.676 332.121 211.551 334.413 Q213.449 336.704 213.449 340.015 Q213.449 345.038 210.371 347.723 Q207.315 350.408 201.598 350.408 Q195.88 350.408 192.801 347.723 Q189.746 345.038 189.746 340.015 Q189.746 336.704 191.644 334.413 Q193.542 332.121 196.922 331.334 M195.209 323.95 Q195.209 326.635 196.875 328.14 Q198.565 329.644 201.598 329.644 Q204.607 329.644 206.297 328.14 Q208.01 326.635 208.01 323.95 Q208.01 321.265 206.297 319.76 Q204.607 318.255 201.598 318.255 Q198.565 318.255 196.875 319.76 Q195.209 321.265 195.209 323.95 Z" fill="#000000" fill-rule="nonzero" fill-opacity="1" /><path clip-path="url(#clip520)" d="M231.76 318.255 Q228.148 318.255 226.32 321.82 Q224.514 325.362 224.514 332.491 Q224.514 339.598 226.32 343.163 Q228.148 346.704 231.76 346.704 Q235.394 346.704 237.199 343.163 Q239.028 339.598 239.028 332.491 Q239.028 325.362 237.199 321.82 Q235.394 318.255 231.76 318.255 M231.76 314.552 Q237.57 314.552 240.625 319.158 Q243.704 323.741 243.704 332.491 Q243.704 341.218 240.625 345.825 Q237.57 350.408 231.76 350.408 Q225.949 350.408 222.871 345.825 Q219.815 341.218 219.815 332.491 Q219.815 323.741 222.871 319.158 Q225.949 314.552 231.76 314.552 Z" fill="#000000" fill-rule="nonzero" fill-opacity="1" /><path clip-path="url(#clip520)" d="M127.2 110.648 Q123.589 110.648 121.76 114.213 Q119.955 117.755 119.955 124.884 Q119.955 131.991 121.76 135.556 Q123.589 139.097 127.2 139.097 Q130.834 139.097 132.64 135.556 Q134.468 131.991 134.468 124.884 Q134.468 117.755 132.64 114.213 Q130.834 110.648 127.2 110.648 M127.2 106.945 Q133.01 106.945 136.066 111.551 Q139.144 116.134 139.144 124.884 Q139.144 133.611 136.066 138.218 Q133.01 142.801 127.2 142.801 Q121.39 142.801 118.311 138.218 Q115.256 133.611 115.256 124.884 Q115.256 116.134 118.311 111.551 Q121.39 106.945 127.2 106.945 Z" fill="#000000" fill-rule="nonzero" fill-opacity="1" /><path clip-path="url(#clip520)" d="M147.362 136.25 L152.246 136.25 L152.246 142.13 L147.362 142.13 L147.362 136.25 Z" fill="#000000" fill-rule="nonzero" fill-opacity="1" /><path clip-path="url(#clip520)" d="M172.431 110.648 Q168.82 110.648 166.991 114.213 Q165.186 117.755 165.186 124.884 Q165.186 131.991 166.991 135.556 Q168.82 139.097 172.431 139.097 Q176.065 139.097 177.871 135.556 Q179.7 131.991 179.7 124.884 Q179.7 117.755 177.871 114.213 Q176.065 110.648 172.431 110.648 M172.431 106.945 Q178.241 106.945 181.297 111.551 Q184.376 116.134 184.376 124.884 Q184.376 133.611 181.297 138.218 Q178.241 142.801 172.431 142.801 Q166.621 142.801 163.542 138.218 Q160.487 133.611 160.487 124.884 Q160.487 116.134 163.542 111.551 Q166.621 106.945 172.431 106.945 Z" fill="#000000" fill-rule="nonzero" fill-opacity="1" /><path clip-path="url(#clip520)" d="M202.593 125.718 Q199.26 125.718 197.338 127.5 Q195.44 129.283 195.44 132.408 Q195.44 135.533 197.338 137.315 Q199.26 139.097 202.593 139.097 Q205.926 139.097 207.848 137.315 Q209.769 135.509 209.769 132.408 Q209.769 129.283 207.848 127.5 Q205.949 125.718 202.593 125.718 M197.917 123.727 Q194.908 122.986 193.218 120.926 Q191.551 118.866 191.551 115.903 Q191.551 111.759 194.491 109.352 Q197.454 106.945 202.593 106.945 Q207.755 106.945 210.695 109.352 Q213.635 111.759 213.635 115.903 Q213.635 118.866 211.945 120.926 Q210.278 122.986 207.292 123.727 Q210.672 124.514 212.547 126.806 Q214.445 129.097 214.445 132.408 Q214.445 137.431 211.366 140.116 Q208.311 142.801 202.593 142.801 Q196.875 142.801 193.797 140.116 Q190.741 137.431 190.741 132.408 Q190.741 129.097 192.639 126.806 Q194.538 124.514 197.917 123.727 M196.204 116.343 Q196.204 119.028 197.871 120.533 Q199.561 122.037 202.593 122.037 Q205.602 122.037 207.292 120.533 Q209.005 119.028 209.005 116.343 Q209.005 113.658 207.292 112.153 Q205.602 110.648 202.593 110.648 Q199.561 110.648 197.871 112.153 Q196.204 113.658 196.204 116.343 Z" fill="#000000" fill-rule="nonzero" fill-opacity="1" /><path clip-path="url(#clip520)" d="M222.801 107.57 L241.158 107.57 L241.158 111.505 L227.084 111.505 L227.084 119.977 Q228.102 119.63 229.121 119.468 Q230.139 119.283 231.158 119.283 Q236.945 119.283 240.324 122.454 Q243.704 125.625 243.704 131.042 Q243.704 136.62 240.232 139.722 Q236.76 142.801 230.44 142.801 Q228.264 142.801 225.996 142.431 Q223.75 142.06 221.343 141.32 L221.343 136.62 Q223.426 137.755 225.648 138.31 Q227.871 138.866 230.347 138.866 Q234.352 138.866 236.69 136.759 Q239.028 134.653 239.028 131.042 Q239.028 127.431 236.69 125.324 Q234.352 123.218 230.347 123.218 Q228.473 123.218 226.598 123.634 Q224.746 124.051 222.801 124.931 L222.801 107.57 Z" fill="#000000" fill-rule="nonzero" fill-opacity="1" /><path clip-path="url(#clip520)" d="M34.7219 748.293 Q31.4754 746.352 28.6108 741.546 Q27.4968 739.668 27.4968 733.875 Q27.4968 727.382 32.6531 723.34 Q37.8093 719.266 46.212 719.266 Q54.6147 719.266 59.771 723.34 Q64.9272 727.382 64.9272 733.875 Q64.9272 737.79 63.3994 740.623 Q61.8398 743.424 58.657 745.27 L77.5631 745.27 L77.5631 751.158 L46.5303 751.158 Q39.1779 751.158 34.7219 748.293 M46.212 725.345 Q39.7508 725.345 36.0905 728.019 Q32.3984 730.66 32.3984 735.307 Q32.3984 739.954 36.0905 742.628 Q39.7508 745.27 46.212 745.27 Q52.6732 745.27 56.3653 742.628 Q60.0256 739.954 60.0256 735.307 Q60.0256 730.66 56.3653 728.019 Q52.6732 725.345 46.212 725.345 Z" fill="#000000" fill-rule="nonzero" fill-opacity="1" /><polyline clip-path="url(#clip522)" style="stroke:#009af9; stroke-linecap:round; stroke-linejoin:round; stroke-width:4; stroke-opacity:1; fill:none" points="338.375,86.1857 441.307,128.864 544.239,321.454 647.171,722.677 750.103,1179.11 853.036,1384.24 955.968,1179.11 1058.9,722.677 1161.83,321.454 1264.76,128.864 1367.7,86.1857 1470.63,128.864 1573.56,321.454 1676.49,722.677 1779.42,1179.11 1882.36,1384.24 1985.29,1179.11 2088.22,722.677 2191.15,321.454 2294.08,128.864 "/>
<circle clip-path="url(#clip522)" cx="338.375" cy="86.1857" r="7.2" fill="#009af9" fill-rule="evenodd" fill-opacity="1" stroke="#000000" stroke-opacity="1" stroke-width="3.2"/>
<circle clip-path="url(#clip522)" cx="441.307" cy="128.864" r="7.2" fill="#009af9" fill-rule="evenodd" fill-opacity="1" stroke="#000000" stroke-opacity="1" stroke-width="3.2"/>
<circle clip-path="url(#clip522)" cx="544.239" cy="321.454" r="7.2" fill="#009af9" fill-rule="evenodd" fill-opacity="1" stroke="#000000" stroke-opacity="1" stroke-width="3.2"/>
<circle clip-path="url(#clip522)" cx="647.171" cy="722.677" r="7.2" fill="#009af9" fill-rule="evenodd" fill-opacity="1" stroke="#000000" stroke-opacity="1" stroke-width="3.2"/>
<circle clip-path="url(#clip522)" cx="750.103" cy="1179.11" r="7.2" fill="#009af9" fill-rule="evenodd" fill-opacity="1" stroke="#000000" stroke-opacity="1" stroke-width="3.2"/>
<circle clip-path="url(#clip522)" cx="853.036" cy="1384.24" r="7.2" fill="#009af9" fill-rule="evenodd" fill-opacity="1" stroke="#000000" stroke-opacity="1" stroke-width="3.2"/>
<circle clip-path="url(#clip522)" cx="955.968" cy="1179.11" r="7.2" fill="#009af9" fill-rule="evenodd" fill-opacity="1" stroke="#000000" stroke-opacity="1" stroke-width="3.2"/>
<circle clip-path="url(#clip522)" cx="1058.9" cy="722.677" r="7.2" fill="#009af9" fill-rule="evenodd" fill-opacity="1" stroke="#000000" stroke-opacity="1" stroke-width="3.2"/>
<circle clip-path="url(#clip522)" cx="1161.83" cy="321.454" r="7.2" fill="#009af9" fill-rule="evenodd" fill-opacity="1" stroke="#000000" stroke-opacity="1" stroke-width="3.2"/>
<circle clip-path="url(#clip522)" cx="1264.76" cy="128.864" r="7.2" fill="#009af9" fill-rule="evenodd" fill-opacity="1" stroke="#000000" stroke-opacity="1" stroke-width="3.2"/>
<circle clip-path="url(#clip522)" cx="1367.7" cy="86.1857" r="7.2" fill="#009af9" fill-rule="evenodd" fill-opacity="1" stroke="#000000" stroke-opacity="1" stroke-width="3.2"/>
<circle clip-path="url(#clip522)" cx="1470.63" cy="128.864" r="7.2" fill="#009af9" fill-rule="evenodd" fill-opacity="1" stroke="#000000" stroke-opacity="1" stroke-width="3.2"/>
<circle clip-path="url(#clip522)" cx="1573.56" cy="321.454" r="7.2" fill="#009af9" fill-rule="evenodd" fill-opacity="1" stroke="#000000" stroke-opacity="1" stroke-width="3.2"/>
<circle clip-path="url(#clip522)" cx="1676.49" cy="722.677" r="7.2" fill="#009af9" fill-rule="evenodd" fill-opacity="1" stroke="#000000" stroke-opacity="1" stroke-width="3.2"/>
<circle clip-path="url(#clip522)" cx="1779.42" cy="1179.11" r="7.2" fill="#009af9" fill-rule="evenodd" fill-opacity="1" stroke="#000000" stroke-opacity="1" stroke-width="3.2"/>
<circle clip-path="url(#clip522)" cx="1882.36" cy="1384.24" r="7.2" fill="#009af9" fill-rule="evenodd" fill-opacity="1" stroke="#000000" stroke-opacity="1" stroke-width="3.2"/>
<circle clip-path="url(#clip522)" cx="1985.29" cy="1179.11" r="7.2" fill="#009af9" fill-rule="evenodd" fill-opacity="1" stroke="#000000" stroke-opacity="1" stroke-width="3.2"/>
<circle clip-path="url(#clip522)" cx="2088.22" cy="722.677" r="7.2" fill="#009af9" fill-rule="evenodd" fill-opacity="1" stroke="#000000" stroke-opacity="1" stroke-width="3.2"/>
<circle clip-path="url(#clip522)" cx="2191.15" cy="321.454" r="7.2" fill="#009af9" fill-rule="evenodd" fill-opacity="1" stroke="#000000" stroke-opacity="1" stroke-width="3.2"/>
<circle clip-path="url(#clip522)" cx="2294.08" cy="128.864" r="7.2" fill="#009af9" fill-rule="evenodd" fill-opacity="1" stroke="#000000" stroke-opacity="1" stroke-width="3.2"/>
</svg>
