<?xml version="1.0" encoding="utf-8"?>
<svg xmlns="http://www.w3.org/2000/svg" xmlns:xlink="http://www.w3.org/1999/xlink" width="600" height="400" viewBox="0 0 2400 1600">
<defs>
  <clipPath id="clip840">
    <rect x="0" y="0" width="2400" height="1600"/>
  </clipPath>
</defs>
<path clip-path="url(#clip840)" d="M0 1600 L2400 1600 L2400 0 L0 0  Z" fill="#ffffff" fill-rule="evenodd" fill-opacity="1"/>
<defs>
  <clipPath id="clip841">
    <rect x="480" y="0" width="1681" height="1600"/>
  </clipPath>
</defs>
<path clip-path="url(#clip840)" d="M141.853 1423.18 L2352.76 1423.18 L2352.76 47.2441 L141.853 47.2441  Z" fill="#ffffff" fill-rule="evenodd" fill-opacity="1"/>
<defs>
  <clipPath id="clip842">
    <rect x="141" y="47" width="2212" height="1377"/>
  </clipPath>
</defs>
<polyline clip-path="url(#clip842)" style="stroke:#000000; stroke-linecap:round; stroke-linejoin:round; stroke-width:2; stroke-opacity:0.1; fill:none" points="395.959,1423.18 395.959,47.2441 "/>
<polyline clip-path="url(#clip842)" style="stroke:#000000; stroke-linecap:round; stroke-linejoin:round; stroke-width:2; stroke-opacity:0.1; fill:none" points="679.741,1423.18 679.741,47.2441 "/>
<polyline clip-path="url(#clip842)" style="stroke:#000000; stroke-linecap:round; stroke-linejoin:round; stroke-width:2; stroke-opacity:0.1; fill:none" points="963.523,1423.18 963.523,47.2441 "/>
<polyline clip-path="url(#clip842)" style="stroke:#000000; stroke-linecap:round; stroke-linejoin:round; stroke-width:2; stroke-opacity:0.1; fill:none" points="1247.3,1423.18 1247.3,47.2441 "/>
<polyline clip-path="url(#clip842)" style="stroke:#000000; stroke-linecap:round; stroke-linejoin:round; stroke-width:2; stroke-opacity:0.1; fill:none" points="1531.09,1423.18 1531.09,47.2441 "/>
<polyline clip-path="url(#clip842)" style="stroke:#000000; stroke-linecap:round; stroke-linejoin:round; stroke-width:2; stroke-opacity:0.1; fill:none" points="1814.87,1423.18 1814.87,47.2441 "/>
<polyline clip-path="url(#clip842)" style="stroke:#000000; stroke-linecap:round; stroke-linejoin:round; stroke-width:2; stroke-opacity:0.1; fill:none" points="2098.65,1423.18 2098.65,47.2441 "/>
<polyline clip-path="url(#clip840)" style="stroke:#000000; stroke-linecap:round; stroke-linejoin:round; stroke-width:4; stroke-opacity:1; fill:none" points="141.853,1423.18 2352.76,1423.18 "/>
<polyline clip-path="url(#clip840)" style="stroke:#000000; stroke-linecap:round; stroke-linejoin:round; stroke-width:4; stroke-opacity:1; fill:none" points="395.959,1423.18 395.959,1404.28 "/>
<polyline clip-path="url(#clip840)" style="stroke:#000000; stroke-linecap:round; stroke-linejoin:round; stroke-width:4; stroke-opacity:1; fill:none" points="679.741,1423.18 679.741,1404.28 "/>
<polyline clip-path="url(#clip840)" style="stroke:#000000; stroke-linecap:round; stroke-linejoin:round; stroke-width:4; stroke-opacity:1; fill:none" points="963.523,1423.18 963.523,1404.28 "/>
<polyline clip-path="url(#clip840)" style="stroke:#000000; stroke-linecap:round; stroke-linejoin:round; stroke-width:4; stroke-opacity:1; fill:none" points="1247.3,1423.18 1247.3,1404.28 "/>
<polyline clip-path="url(#clip840)" style="stroke:#000000; stroke-linecap:round; stroke-linejoin:round; stroke-width:4; stroke-opacity:1; fill:none" points="1531.09,1423.18 1531.09,1404.28 "/>
<polyline clip-path="url(#clip840)" style="stroke:#000000; stroke-linecap:round; stroke-linejoin:round; stroke-width:4; stroke-opacity:1; fill:none" points="1814.87,1423.18 1814.87,1404.28 "/>
<polyline clip-path="url(#clip840)" style="stroke:#000000; stroke-linecap:round; stroke-linejoin:round; stroke-width:4; stroke-opacity:1; fill:none" points="2098.65,1423.18 2098.65,1404.28 "/>
<path clip-path="url(#clip840)" d="M342.811 1468.75 L372.487 1468.75 L372.487 1472.69 L342.811 1472.69 L342.811 1468.75 Z" fill="#000000" fill-rule="nonzero" fill-opacity="1" /><path clip-path="url(#clip840)" d="M392.58 1454.1 Q388.968 1454.1 387.14 1457.66 Q385.334 1461.2 385.334 1468.33 Q385.334 1475.44 387.14 1479.01 Q388.968 1482.55 392.58 1482.55 Q396.214 1482.55 398.019 1479.01 Q399.848 1475.44 399.848 1468.33 Q399.848 1461.2 398.019 1457.66 Q396.214 1454.1 392.58 1454.1 M392.58 1450.39 Q398.39 1450.39 401.445 1455 Q404.524 1459.58 404.524 1468.33 Q404.524 1477.06 401.445 1481.67 Q398.39 1486.25 392.58 1486.25 Q386.769 1486.25 383.691 1481.67 Q380.635 1477.06 380.635 1468.33 Q380.635 1459.58 383.691 1455 Q386.769 1450.39 392.58 1450.39 Z" fill="#000000" fill-rule="nonzero" fill-opacity="1" /><path clip-path="url(#clip840)" d="M412.741 1479.7 L417.626 1479.7 L417.626 1485.58 L412.741 1485.58 L412.741 1479.7 Z" fill="#000000" fill-rule="nonzero" fill-opacity="1" /><path clip-path="url(#clip840)" d="M441.977 1466.95 Q445.334 1467.66 447.209 1469.93 Q449.107 1472.2 449.107 1475.53 Q449.107 1480.65 445.588 1483.45 Q442.07 1486.25 435.589 1486.25 Q433.413 1486.25 431.098 1485.81 Q428.806 1485.39 426.352 1484.54 L426.352 1480.02 Q428.297 1481.16 430.612 1481.74 Q432.927 1482.32 435.45 1482.32 Q439.848 1482.32 442.139 1480.58 Q444.454 1478.84 444.454 1475.53 Q444.454 1472.48 442.301 1470.77 Q440.172 1469.03 436.352 1469.03 L432.325 1469.03 L432.325 1465.19 L436.538 1465.19 Q439.987 1465.19 441.815 1463.82 Q443.644 1462.43 443.644 1459.84 Q443.644 1457.18 441.746 1455.77 Q439.871 1454.33 436.352 1454.33 Q434.431 1454.33 432.232 1454.75 Q430.033 1455.16 427.394 1456.04 L427.394 1451.88 Q430.056 1451.14 432.371 1450.77 Q434.709 1450.39 436.769 1450.39 Q442.093 1450.39 445.195 1452.83 Q448.297 1455.23 448.297 1459.35 Q448.297 1462.22 446.653 1464.21 Q445.01 1466.18 441.977 1466.95 Z" fill="#000000" fill-rule="nonzero" fill-opacity="1" /><path clip-path="url(#clip840)" d="M627.068 1468.75 L656.743 1468.75 L656.743 1472.69 L627.068 1472.69 L627.068 1468.75 Z" fill="#000000" fill-rule="nonzero" fill-opacity="1" /><path clip-path="url(#clip840)" d="M676.836 1454.1 Q673.225 1454.1 671.396 1457.66 Q669.59 1461.2 669.59 1468.33 Q669.59 1475.44 671.396 1479.01 Q673.225 1482.55 676.836 1482.55 Q680.47 1482.55 682.276 1479.01 Q684.104 1475.44 684.104 1468.33 Q684.104 1461.2 682.276 1457.66 Q680.47 1454.1 676.836 1454.1 M676.836 1450.39 Q682.646 1450.39 685.702 1455 Q688.78 1459.58 688.78 1468.33 Q688.78 1477.06 685.702 1481.67 Q682.646 1486.25 676.836 1486.25 Q671.026 1486.25 667.947 1481.67 Q664.891 1477.06 664.891 1468.33 Q664.891 1459.58 667.947 1455 Q671.026 1450.39 676.836 1450.39 Z" fill="#000000" fill-rule="nonzero" fill-opacity="1" /><path clip-path="url(#clip840)" d="M696.998 1479.7 L701.882 1479.7 L701.882 1485.58 L696.998 1485.58 L696.998 1479.7 Z" fill="#000000" fill-rule="nonzero" fill-opacity="1" /><path clip-path="url(#clip840)" d="M716.095 1481.64 L732.414 1481.64 L732.414 1485.58 L710.47 1485.58 L710.47 1481.64 Q713.132 1478.89 717.715 1474.26 Q722.322 1469.61 723.502 1468.27 Q725.748 1465.74 726.627 1464.01 Q727.53 1462.25 727.53 1460.56 Q727.53 1457.8 725.586 1456.07 Q723.664 1454.33 720.562 1454.33 Q718.363 1454.33 715.91 1455.09 Q713.479 1455.86 710.701 1457.41 L710.701 1452.69 Q713.525 1451.55 715.979 1450.97 Q718.433 1450.39 720.47 1450.39 Q725.84 1450.39 729.035 1453.08 Q732.229 1455.77 732.229 1460.26 Q732.229 1462.39 731.419 1464.31 Q730.632 1466.2 728.525 1468.8 Q727.947 1469.47 724.845 1472.69 Q721.743 1475.88 716.095 1481.64 Z" fill="#000000" fill-rule="nonzero" fill-opacity="1" /><path clip-path="url(#clip840)" d="M910.664 1468.75 L940.34 1468.75 L940.34 1472.69 L910.664 1472.69 L910.664 1468.75 Z" fill="#000000" fill-rule="nonzero" fill-opacity="1" /><path clip-path="url(#clip840)" d="M960.432 1454.1 Q956.821 1454.1 954.993 1457.66 Q953.187 1461.2 953.187 1468.33 Q953.187 1475.44 954.993 1479.01 Q956.821 1482.55 960.432 1482.55 Q964.067 1482.55 965.872 1479.01 Q967.701 1475.44 967.701 1468.33 Q967.701 1461.2 965.872 1457.66 Q964.067 1454.1 960.432 1454.1 M960.432 1450.39 Q966.243 1450.39 969.298 1455 Q972.377 1459.58 972.377 1468.33 Q972.377 1477.06 969.298 1481.67 Q966.243 1486.25 960.432 1486.25 Q954.622 1486.25 951.544 1481.67 Q948.488 1477.06 948.488 1468.33 Q948.488 1459.58 951.544 1455 Q954.622 1450.39 960.432 1450.39 Z" fill="#000000" fill-rule="nonzero" fill-opacity="1" /><path clip-path="url(#clip840)" d="M980.594 1479.7 L985.479 1479.7 L985.479 1485.58 L980.594 1485.58 L980.594 1479.7 Z" fill="#000000" fill-rule="nonzero" fill-opacity="1" /><path clip-path="url(#clip840)" d="M996.474 1481.64 L1004.11 1481.64 L1004.11 1455.28 L995.803 1456.95 L995.803 1452.69 L1004.07 1451.02 L1008.74 1451.02 L1008.74 1481.64 L1016.38 1481.64 L1016.38 1485.58 L996.474 1485.58 L996.474 1481.64 Z" fill="#000000" fill-rule="nonzero" fill-opacity="1" /><path clip-path="url(#clip840)" d="M1224.69 1454.1 Q1221.08 1454.1 1219.25 1457.66 Q1217.44 1461.2 1217.44 1468.33 Q1217.44 1475.44 1219.25 1479.01 Q1221.08 1482.55 1224.69 1482.55 Q1228.32 1482.55 1230.13 1479.01 Q1231.96 1475.44 1231.96 1468.33 Q1231.96 1461.2 1230.13 1457.66 Q1228.32 1454.1 1224.69 1454.1 M1224.69 1450.39 Q1230.5 1450.39 1233.55 1455 Q1236.63 1459.58 1236.63 1468.33 Q1236.63 1477.06 1233.55 1481.67 Q1230.5 1486.25 1224.69 1486.25 Q1218.88 1486.25 1215.8 1481.67 Q1212.74 1477.06 1212.74 1468.33 Q1212.74 1459.58 1215.8 1455 Q1218.88 1450.39 1224.69 1450.39 Z" fill="#000000" fill-rule="nonzero" fill-opacity="1" /><path clip-path="url(#clip840)" d="M1244.85 1479.7 L1249.73 1479.7 L1249.73 1485.58 L1244.85 1485.58 L1244.85 1479.7 Z" fill="#000000" fill-rule="nonzero" fill-opacity="1" /><path clip-path="url(#clip840)" d="M1269.92 1454.1 Q1266.31 1454.1 1264.48 1457.66 Q1262.67 1461.2 1262.67 1468.33 Q1262.67 1475.44 1264.48 1479.01 Q1266.31 1482.55 1269.92 1482.55 Q1273.55 1482.55 1275.36 1479.01 Q1277.19 1475.44 1277.19 1468.33 Q1277.19 1461.2 1275.36 1457.66 Q1273.55 1454.1 1269.92 1454.1 M1269.92 1450.39 Q1275.73 1450.39 1278.79 1455 Q1281.86 1459.58 1281.86 1468.33 Q1281.86 1477.06 1278.79 1481.67 Q1275.73 1486.25 1269.92 1486.25 Q1264.11 1486.25 1261.03 1481.67 Q1257.98 1477.06 1257.98 1468.33 Q1257.98 1459.58 1261.03 1455 Q1264.11 1450.39 1269.92 1450.39 Z" fill="#000000" fill-rule="nonzero" fill-opacity="1" /><path clip-path="url(#clip840)" d="M1509.08 1454.1 Q1505.47 1454.1 1503.64 1457.66 Q1501.84 1461.2 1501.84 1468.33 Q1501.84 1475.44 1503.64 1479.01 Q1505.47 1482.55 1509.08 1482.55 Q1512.72 1482.55 1514.52 1479.01 Q1516.35 1475.44 1516.35 1468.33 Q1516.35 1461.2 1514.52 1457.66 Q1512.72 1454.1 1509.08 1454.1 M1509.08 1450.39 Q1514.89 1450.39 1517.95 1455 Q1521.03 1459.58 1521.03 1468.33 Q1521.03 1477.06 1517.95 1481.67 Q1514.89 1486.25 1509.08 1486.25 Q1503.27 1486.25 1500.2 1481.67 Q1497.14 1477.06 1497.14 1468.33 Q1497.14 1459.58 1500.2 1455 Q1503.27 1450.39 1509.08 1450.39 Z" fill="#000000" fill-rule="nonzero" fill-opacity="1" /><path clip-path="url(#clip840)" d="M1529.25 1479.7 L1534.13 1479.7 L1534.13 1485.58 L1529.25 1485.58 L1529.25 1479.7 Z" fill="#000000" fill-rule="nonzero" fill-opacity="1" /><path clip-path="url(#clip840)" d="M1545.13 1481.64 L1552.76 1481.64 L1552.76 1455.28 L1544.45 1456.95 L1544.45 1452.69 L1552.72 1451.02 L1557.39 1451.02 L1557.39 1481.64 L1565.03 1481.64 L1565.03 1485.58 L1545.13 1485.58 L1545.13 1481.64 Z" fill="#000000" fill-rule="nonzero" fill-opacity="1" /><path clip-path="url(#clip840)" d="M1793.05 1454.1 Q1789.44 1454.1 1787.61 1457.66 Q1785.81 1461.2 1785.81 1468.33 Q1785.81 1475.44 1787.61 1479.01 Q1789.44 1482.55 1793.05 1482.55 Q1796.69 1482.55 1798.49 1479.01 Q1800.32 1475.44 1800.32 1468.33 Q1800.32 1461.2 1798.49 1457.66 Q1796.69 1454.1 1793.05 1454.1 M1793.05 1450.39 Q1798.86 1450.39 1801.92 1455 Q1805 1459.58 1805 1468.33 Q1805 1477.06 1801.92 1481.67 Q1798.86 1486.25 1793.05 1486.25 Q1787.24 1486.25 1784.16 1481.67 Q1781.11 1477.06 1781.11 1468.33 Q1781.11 1459.58 1784.16 1455 Q1787.24 1450.39 1793.05 1450.39 Z" fill="#000000" fill-rule="nonzero" fill-opacity="1" /><path clip-path="url(#clip840)" d="M1813.21 1479.7 L1818.1 1479.7 L1818.1 1485.58 L1813.21 1485.58 L1813.21 1479.7 Z" fill="#000000" fill-rule="nonzero" fill-opacity="1" /><path clip-path="url(#clip840)" d="M1832.31 1481.64 L1848.63 1481.64 L1848.63 1485.58 L1826.69 1485.58 L1826.69 1481.64 Q1829.35 1478.89 1833.93 1474.26 Q1838.54 1469.61 1839.72 1468.27 Q1841.96 1465.74 1842.84 1464.01 Q1843.75 1462.25 1843.75 1460.56 Q1843.75 1457.8 1841.8 1456.07 Q1839.88 1454.33 1836.78 1454.33 Q1834.58 1454.33 1832.12 1455.09 Q1829.69 1455.86 1826.92 1457.41 L1826.92 1452.69 Q1829.74 1451.55 1832.19 1450.97 Q1834.65 1450.39 1836.68 1450.39 Q1842.06 1450.39 1845.25 1453.08 Q1848.44 1455.77 1848.44 1460.26 Q1848.44 1462.39 1847.63 1464.31 Q1846.85 1466.2 1844.74 1468.8 Q1844.16 1469.47 1841.06 1472.69 Q1837.96 1475.88 1832.31 1481.64 Z" fill="#000000" fill-rule="nonzero" fill-opacity="1" /><path clip-path="url(#clip840)" d="M2076.36 1454.1 Q2072.75 1454.1 2070.92 1457.66 Q2069.11 1461.2 2069.11 1468.33 Q2069.11 1475.44 2070.92 1479.01 Q2072.75 1482.55 2076.36 1482.55 Q2079.99 1482.55 2081.8 1479.01 Q2083.63 1475.44 2083.63 1468.33 Q2083.63 1461.2 2081.8 1457.66 Q2079.99 1454.1 2076.36 1454.1 M2076.36 1450.39 Q2082.17 1450.39 2085.22 1455 Q2088.3 1459.58 2088.3 1468.33 Q2088.3 1477.06 2085.22 1481.67 Q2082.17 1486.25 2076.36 1486.25 Q2070.55 1486.25 2067.47 1481.67 Q2064.41 1477.06 2064.41 1468.33 Q2064.41 1459.58 2067.47 1455 Q2070.55 1450.39 2076.36 1450.39 Z" fill="#000000" fill-rule="nonzero" fill-opacity="1" /><path clip-path="url(#clip840)" d="M2096.52 1479.7 L2101.4 1479.7 L2101.4 1485.58 L2096.52 1485.58 L2096.52 1479.7 Z" fill="#000000" fill-rule="nonzero" fill-opacity="1" /><path clip-path="url(#clip840)" d="M2125.76 1466.95 Q2129.11 1467.66 2130.99 1469.93 Q2132.89 1472.2 2132.89 1475.53 Q2132.89 1480.65 2129.37 1483.45 Q2125.85 1486.25 2119.37 1486.25 Q2117.19 1486.25 2114.88 1485.81 Q2112.58 1485.39 2110.13 1484.54 L2110.13 1480.02 Q2112.08 1481.16 2114.39 1481.74 Q2116.71 1482.32 2119.23 1482.32 Q2123.63 1482.32 2125.92 1480.58 Q2128.23 1478.84 2128.23 1475.53 Q2128.23 1472.48 2126.08 1470.77 Q2123.95 1469.03 2120.13 1469.03 L2116.1 1469.03 L2116.1 1465.19 L2120.32 1465.19 Q2123.77 1465.19 2125.59 1463.82 Q2127.42 1462.43 2127.42 1459.84 Q2127.42 1457.18 2125.52 1455.77 Q2123.65 1454.33 2120.13 1454.33 Q2118.21 1454.33 2116.01 1454.75 Q2113.81 1455.16 2111.17 1456.04 L2111.17 1451.88 Q2113.83 1451.14 2116.15 1450.77 Q2118.49 1450.39 2120.55 1450.39 Q2125.87 1450.39 2128.97 1452.83 Q2132.08 1455.23 2132.08 1459.35 Q2132.08 1462.22 2130.43 1464.21 Q2128.79 1466.18 2125.76 1466.95 Z" fill="#000000" fill-rule="nonzero" fill-opacity="1" /><path clip-path="url(#clip840)" d="M933.73 1548.76 L933.73 1551.62 L906.803 1551.62 Q907.185 1557.67 910.431 1560.85 Q913.71 1564 919.534 1564 Q922.908 1564 926.059 1563.17 Q929.242 1562.35 932.361 1560.69 L932.361 1566.23 Q929.21 1567.57 925.9 1568.27 Q922.59 1568.97 919.184 1568.97 Q910.654 1568.97 905.657 1564 Q900.692 1559.04 900.692 1550.57 Q900.692 1541.82 905.402 1536.69 Q910.145 1531.54 918.166 1531.54 Q925.359 1531.54 929.528 1536.18 Q933.73 1540.8 933.73 1548.76 M927.873 1547.04 Q927.81 1542.23 925.168 1539.37 Q922.558 1536.5 918.229 1536.5 Q913.328 1536.5 910.368 1539.27 Q907.439 1542.04 906.994 1547.07 L927.873 1547.04 Z" fill="#000000" fill-rule="nonzero" fill-opacity="1" /><path clip-path="url(#clip840)" d="M943.342 1532.4 L949.198 1532.4 L949.198 1568.04 L943.342 1568.04 L943.342 1532.4 M943.342 1518.52 L949.198 1518.52 L949.198 1525.93 L943.342 1525.93 L943.342 1518.52 Z" fill="#000000" fill-rule="nonzero" fill-opacity="1" /><path clip-path="url(#clip840)" d="M984.91 1549.81 Q984.91 1543.44 982.268 1539.94 Q979.658 1536.44 974.916 1536.44 Q970.205 1536.44 967.563 1539.94 Q964.954 1543.44 964.954 1549.81 Q964.954 1556.14 967.563 1559.64 Q970.205 1563.14 974.916 1563.14 Q979.658 1563.14 982.268 1559.64 Q984.91 1556.14 984.91 1549.81 M990.766 1563.62 Q990.766 1572.72 986.724 1577.15 Q982.682 1581.6 974.343 1581.6 Q971.256 1581.6 968.518 1581.13 Q965.781 1580.68 963.203 1579.72 L963.203 1574.03 Q965.781 1575.43 968.296 1576.1 Q970.81 1576.76 973.42 1576.76 Q979.181 1576.76 982.045 1573.74 Q984.91 1570.75 984.91 1564.67 L984.91 1561.77 Q983.096 1564.92 980.263 1566.48 Q977.43 1568.04 973.484 1568.04 Q966.927 1568.04 962.916 1563.05 Q958.906 1558.05 958.906 1549.81 Q958.906 1541.53 962.916 1536.53 Q966.927 1531.54 973.484 1531.54 Q977.43 1531.54 980.263 1533.1 Q983.096 1534.66 984.91 1537.81 L984.91 1532.4 L990.766 1532.4 L990.766 1563.62 Z" fill="#000000" fill-rule="nonzero" fill-opacity="1" /><path clip-path="url(#clip840)" d="M1033.32 1548.76 L1033.32 1551.62 L1006.39 1551.62 Q1006.78 1557.67 1010.02 1560.85 Q1013.3 1564 1019.13 1564 Q1022.5 1564 1025.65 1563.17 Q1028.83 1562.35 1031.95 1560.69 L1031.95 1566.23 Q1028.8 1567.57 1025.49 1568.27 Q1022.18 1568.97 1018.78 1568.97 Q1010.25 1568.97 1005.25 1564 Q1000.28 1559.04 1000.28 1550.57 Q1000.28 1541.82 1004.99 1536.69 Q1009.74 1531.54 1017.76 1531.54 Q1024.95 1531.54 1029.12 1536.18 Q1033.32 1540.8 1033.32 1548.76 M1027.46 1547.04 Q1027.4 1542.23 1024.76 1539.37 Q1022.15 1536.5 1017.82 1536.5 Q1012.92 1536.5 1009.96 1539.27 Q1007.03 1542.04 1006.59 1547.07 L1027.46 1547.04 Z" fill="#000000" fill-rule="nonzero" fill-opacity="1" /><path clip-path="url(#clip840)" d="M1072.57 1546.53 L1072.57 1568.04 L1066.71 1568.04 L1066.71 1546.72 Q1066.71 1541.66 1064.74 1539.14 Q1062.76 1536.63 1058.82 1536.63 Q1054.07 1536.63 1051.34 1539.65 Q1048.6 1542.68 1048.6 1547.9 L1048.6 1568.04 L1042.71 1568.04 L1042.71 1532.4 L1048.6 1532.4 L1048.6 1537.93 Q1050.7 1534.72 1053.53 1533.13 Q1056.4 1531.54 1060.12 1531.54 Q1066.26 1531.54 1069.41 1535.36 Q1072.57 1539.14 1072.57 1546.53 Z" fill="#000000" fill-rule="nonzero" fill-opacity="1" /><path clip-path="url(#clip840)" d="M1080.05 1532.4 L1086.25 1532.4 L1097.39 1562.31 L1108.53 1532.4 L1114.74 1532.4 L1101.37 1568.04 L1093.41 1568.04 L1080.05 1532.4 Z" fill="#000000" fill-rule="nonzero" fill-opacity="1" /><path clip-path="url(#clip840)" d="M1139.02 1550.12 Q1131.93 1550.12 1129.19 1551.75 Q1126.45 1553.37 1126.45 1557.29 Q1126.45 1560.4 1128.49 1562.25 Q1130.56 1564.07 1134.09 1564.07 Q1138.96 1564.07 1141.89 1560.63 Q1144.85 1557.16 1144.85 1551.43 L1144.85 1550.12 L1139.02 1550.12 M1150.7 1547.71 L1150.7 1568.04 L1144.85 1568.04 L1144.85 1562.63 Q1142.84 1565.88 1139.85 1567.44 Q1136.86 1568.97 1132.53 1568.97 Q1127.06 1568.97 1123.81 1565.91 Q1120.6 1562.82 1120.6 1557.67 Q1120.6 1551.65 1124.61 1548.6 Q1128.65 1545.54 1136.64 1545.54 L1144.85 1545.54 L1144.85 1544.97 Q1144.85 1540.93 1142.17 1538.73 Q1139.53 1536.5 1134.73 1536.5 Q1131.67 1536.5 1128.77 1537.23 Q1125.88 1537.97 1123.2 1539.43 L1123.2 1534.02 Q1126.42 1532.78 1129.44 1532.17 Q1132.47 1531.54 1135.33 1531.54 Q1143.07 1531.54 1146.89 1535.55 Q1150.7 1539.56 1150.7 1547.71 Z" fill="#000000" fill-rule="nonzero" fill-opacity="1" /><path clip-path="url(#clip840)" d="M1162.77 1518.52 L1168.62 1518.52 L1168.62 1568.04 L1162.77 1568.04 L1162.77 1518.52 Z" fill="#000000" fill-rule="nonzero" fill-opacity="1" /><path clip-path="url(#clip840)" d="M1180.27 1553.98 L1180.27 1532.4 L1186.13 1532.4 L1186.13 1553.75 Q1186.13 1558.81 1188.1 1561.36 Q1190.08 1563.87 1194.02 1563.87 Q1198.77 1563.87 1201.5 1560.85 Q1204.27 1557.83 1204.27 1552.61 L1204.27 1532.4 L1210.13 1532.4 L1210.13 1568.04 L1204.27 1568.04 L1204.27 1562.57 Q1202.14 1565.82 1199.31 1567.41 Q1196.51 1568.97 1192.78 1568.97 Q1186.64 1568.97 1183.46 1565.15 Q1180.27 1561.33 1180.27 1553.98 M1195.01 1531.54 L1195.01 1531.54 Z" fill="#000000" fill-rule="nonzero" fill-opacity="1" /><path clip-path="url(#clip840)" d="M1252.68 1548.76 L1252.68 1551.62 L1225.76 1551.62 Q1226.14 1557.67 1229.38 1560.85 Q1232.66 1564 1238.49 1564 Q1241.86 1564 1245.01 1563.17 Q1248.2 1562.35 1251.31 1560.69 L1251.31 1566.23 Q1248.16 1567.57 1244.85 1568.27 Q1241.54 1568.97 1238.14 1568.97 Q1229.61 1568.97 1224.61 1564 Q1219.65 1559.04 1219.65 1550.57 Q1219.65 1541.82 1224.36 1536.69 Q1229.1 1531.54 1237.12 1531.54 Q1244.31 1531.54 1248.48 1536.18 Q1252.68 1540.8 1252.68 1548.76 M1246.83 1547.04 Q1246.76 1542.23 1244.12 1539.37 Q1241.51 1536.5 1237.18 1536.5 Q1232.28 1536.5 1229.32 1539.27 Q1226.39 1542.04 1225.95 1547.07 L1246.83 1547.04 Z" fill="#000000" fill-rule="nonzero" fill-opacity="1" /><path clip-path="url(#clip840)" d="M1285.02 1533.45 L1285.02 1538.98 Q1282.54 1537.71 1279.87 1537.07 Q1277.19 1536.44 1274.33 1536.44 Q1269.97 1536.44 1267.77 1537.77 Q1265.61 1539.11 1265.61 1541.79 Q1265.61 1543.82 1267.17 1545 Q1268.73 1546.15 1273.44 1547.2 L1275.44 1547.64 Q1281.68 1548.98 1284.29 1551.43 Q1286.93 1553.85 1286.93 1558.21 Q1286.93 1563.17 1282.98 1566.07 Q1279.07 1568.97 1272.19 1568.97 Q1269.33 1568.97 1266.21 1568.39 Q1263.12 1567.85 1259.69 1566.74 L1259.69 1560.69 Q1262.93 1562.38 1266.08 1563.24 Q1269.23 1564.07 1272.32 1564.07 Q1276.46 1564.07 1278.69 1562.66 Q1280.92 1561.23 1280.92 1558.65 Q1280.92 1556.27 1279.29 1554.99 Q1277.7 1553.72 1272.26 1552.54 L1270.22 1552.07 Q1264.78 1550.92 1262.36 1548.56 Q1259.94 1546.18 1259.94 1542.04 Q1259.94 1537.01 1263.51 1534.27 Q1267.07 1531.54 1273.63 1531.54 Q1276.87 1531.54 1279.74 1532.01 Q1282.6 1532.49 1285.02 1533.45 Z" fill="#000000" fill-rule="nonzero" fill-opacity="1" /><path clip-path="url(#clip840)" d="M1314.02 1547.58 L1331.17 1547.58 L1331.17 1552.8 L1314.02 1552.8 L1314.02 1547.58 Z" fill="#000000" fill-rule="nonzero" fill-opacity="1" /><path clip-path="url(#clip840)" d="M1346.93 1548.82 Q1343.36 1548.06 1341.45 1545.99 Q1339.54 1543.95 1339.54 1540.99 Q1339.54 1536.5 1343.17 1533.99 Q1346.77 1531.5 1353.01 1531.5 Q1355.43 1531.5 1358.13 1531.89 Q1360.84 1532.27 1363.96 1533.03 L1363.96 1538.35 Q1360.87 1537.42 1358.32 1537.01 Q1355.74 1536.6 1353.48 1536.6 Q1349.7 1536.6 1347.5 1538.06 Q1345.27 1539.53 1345.27 1541.56 Q1345.27 1543.79 1347.44 1545.22 Q1349.57 1546.62 1353.26 1546.62 L1358.2 1546.62 L1358.2 1551.46 L1353.48 1551.46 Q1349.12 1551.46 1346.83 1553.08 Q1344.35 1554.87 1344.35 1557.67 Q1344.35 1560.53 1347.02 1562.31 Q1349.73 1564.1 1354.53 1564.1 Q1357.49 1564.1 1360.2 1563.52 Q1362.91 1562.92 1365.17 1561.74 L1365.17 1567.18 Q1362.3 1568.08 1359.63 1568.52 Q1356.92 1568.97 1354.38 1568.97 Q1346.8 1568.97 1342.69 1566.07 Q1338.59 1563.17 1338.59 1557.67 Q1338.59 1554.23 1340.78 1551.91 Q1342.98 1549.58 1346.93 1548.82 Z" fill="#000000" fill-rule="nonzero" fill-opacity="1" /><path clip-path="url(#clip840)" d="M1402.82 1578.87 L1402.82 1583.42 L1368.95 1583.42 L1368.95 1578.87 L1402.82 1578.87 Z" fill="#000000" fill-rule="nonzero" fill-opacity="1" /><path clip-path="url(#clip840)" d="M1408.58 1520.52 L1435.89 1520.52 L1435.89 1525.93 L1415.01 1525.93 L1415.01 1539.94 L1433.85 1539.94 L1433.85 1545.35 L1415.01 1545.35 L1415.01 1568.04 L1408.58 1568.04 L1408.58 1520.52 Z" fill="#000000" fill-rule="nonzero" fill-opacity="1" /><path clip-path="url(#clip840)" d="M1501.33 1518.58 Q1497.06 1525.9 1494.99 1533.06 Q1492.93 1540.23 1492.93 1547.58 Q1492.93 1554.93 1494.99 1562.16 Q1497.09 1569.35 1501.33 1576.64 L1496.24 1576.64 Q1491.46 1569.16 1489.07 1561.93 Q1486.72 1554.71 1486.72 1547.58 Q1486.72 1540.48 1489.07 1533.29 Q1491.43 1526.09 1496.24 1518.58 L1501.33 1518.58 Z" fill="#000000" fill-rule="nonzero" fill-opacity="1" /><path clip-path="url(#clip840)" d="M1512.95 1520.52 L1542.99 1520.52 L1542.99 1525.93 L1519.37 1525.93 L1519.37 1540 L1542 1540 L1542 1545.41 L1519.37 1545.41 L1519.37 1562.63 L1543.56 1562.63 L1543.56 1568.04 L1512.95 1568.04 L1512.95 1520.52 Z" fill="#000000" fill-rule="nonzero" fill-opacity="1" /><path clip-path="url(#clip840)" d="M1570.27 1555.98 L1570.27 1568.04 L1566.58 1568.04 L1566.58 1556.11 Q1566.58 1553.28 1565.34 1551.87 Q1564.09 1550.44 1561.61 1550.44 Q1558.62 1550.44 1556.9 1552.16 Q1555.18 1553.85 1555.18 1556.78 L1555.18 1568.04 L1551.46 1568.04 L1551.46 1540.32 L1555.18 1540.32 L1555.18 1551.17 Q1556.49 1549.39 1558.27 1548.5 Q1560.08 1547.61 1562.44 1547.61 Q1566.29 1547.61 1568.26 1549.74 Q1570.27 1551.87 1570.27 1555.98 Z" fill="#000000" fill-rule="nonzero" fill-opacity="1" /><path clip-path="url(#clip840)" d="M1579.31 1518.58 L1584.4 1518.58 Q1589.17 1526.09 1591.53 1533.29 Q1593.92 1540.48 1593.92 1547.58 Q1593.92 1554.71 1591.53 1561.93 Q1589.17 1569.16 1584.4 1576.64 L1579.31 1576.64 Q1583.54 1569.35 1585.61 1562.16 Q1587.71 1554.93 1587.71 1547.58 Q1587.71 1540.23 1585.61 1533.06 Q1583.54 1525.9 1579.31 1518.58 Z" fill="#000000" fill-rule="nonzero" fill-opacity="1" /><polyline clip-path="url(#clip842)" style="stroke:#000000; stroke-linecap:round; stroke-linejoin:round; stroke-width:2; stroke-opacity:0.1; fill:none" points="141.853,1389.38 2352.76,1389.38 "/>
<polyline clip-path="url(#clip842)" style="stroke:#000000; stroke-linecap:round; stroke-linejoin:round; stroke-width:2; stroke-opacity:0.1; fill:none" points="141.853,1065.13 2352.76,1065.13 "/>
<polyline clip-path="url(#clip842)" style="stroke:#000000; stroke-linecap:round; stroke-linejoin:round; stroke-width:2; stroke-opacity:0.1; fill:none" points="141.853,740.889 2352.76,740.889 "/>
<polyline clip-path="url(#clip842)" style="stroke:#000000; stroke-linecap:round; stroke-linejoin:round; stroke-width:2; stroke-opacity:0.1; fill:none" points="141.853,416.644 2352.76,416.644 "/>
<polyline clip-path="url(#clip842)" style="stroke:#000000; stroke-linecap:round; stroke-linejoin:round; stroke-width:2; stroke-opacity:0.1; fill:none" points="141.853,92.3993 2352.76,92.3993 "/>
<polyline clip-path="url(#clip840)" style="stroke:#000000; stroke-linecap:round; stroke-linejoin:round; stroke-width:4; stroke-opacity:1; fill:none" points="141.853,1423.18 141.853,47.2441 "/>
<polyline clip-path="url(#clip840)" style="stroke:#000000; stroke-linecap:round; stroke-linejoin:round; stroke-width:4; stroke-opacity:1; fill:none" points="141.853,1389.38 160.751,1389.38 "/>
<polyline clip-path="url(#clip840)" style="stroke:#000000; stroke-linecap:round; stroke-linejoin:round; stroke-width:4; stroke-opacity:1; fill:none" points="141.853,1065.13 160.751,1065.13 "/>
<polyline clip-path="url(#clip840)" style="stroke:#000000; stroke-linecap:round; stroke-linejoin:round; stroke-width:4; stroke-opacity:1; fill:none" points="141.853,740.889 160.751,740.889 "/>
<polyline clip-path="url(#clip840)" style="stroke:#000000; stroke-linecap:round; stroke-linejoin:round; stroke-width:4; stroke-opacity:1; fill:none" points="141.853,416.644 160.751,416.644 "/>
<polyline clip-path="url(#clip840)" style="stroke:#000000; stroke-linecap:round; stroke-linejoin:round; stroke-width:4; stroke-opacity:1; fill:none" points="141.853,92.3993 160.751,92.3993 "/>
<path clip-path="url(#clip840)" d="M93.9086 1375.18 Q90.2975 1375.18 88.4688 1378.74 Q86.6632 1382.28 86.6632 1389.41 Q86.6632 1396.52 88.4688 1400.08 Q90.2975 1403.63 93.9086 1403.63 Q97.5428 1403.63 99.3483 1400.08 Q101.177 1396.52 101.177 1389.41 Q101.177 1382.28 99.3483 1378.74 Q97.5428 1375.18 93.9086 1375.18 M93.9086 1371.47 Q99.7187 1371.47 102.774 1376.08 Q105.853 1380.66 105.853 1389.41 Q105.853 1398.14 102.774 1402.75 Q99.7187 1407.33 93.9086 1407.33 Q88.0984 1407.33 85.0197 1402.75 Q81.9642 1398.14 81.9642 1389.41 Q81.9642 1380.66 85.0197 1376.08 Q88.0984 1371.47 93.9086 1371.47 Z" fill="#000000" fill-rule="nonzero" fill-opacity="1" /><path clip-path="url(#clip840)" d="M54.5569 1078.48 L62.1958 1078.48 L62.1958 1052.11 L53.8856 1053.78 L53.8856 1049.52 L62.1495 1047.85 L66.8254 1047.85 L66.8254 1078.48 L74.4642 1078.48 L74.4642 1082.41 L54.5569 1082.41 L54.5569 1078.48 Z" fill="#000000" fill-rule="nonzero" fill-opacity="1" /><path clip-path="url(#clip840)" d="M93.9086 1050.93 Q90.2975 1050.93 88.4688 1054.5 Q86.6632 1058.04 86.6632 1065.17 Q86.6632 1072.27 88.4688 1075.84 Q90.2975 1079.38 93.9086 1079.38 Q97.5428 1079.38 99.3483 1075.84 Q101.177 1072.27 101.177 1065.17 Q101.177 1058.04 99.3483 1054.5 Q97.5428 1050.93 93.9086 1050.93 M93.9086 1047.23 Q99.7187 1047.23 102.774 1051.84 Q105.853 1056.42 105.853 1065.17 Q105.853 1073.9 102.774 1078.5 Q99.7187 1083.09 93.9086 1083.09 Q88.0984 1083.09 85.0197 1078.5 Q81.9642 1073.9 81.9642 1065.17 Q81.9642 1056.42 85.0197 1051.84 Q88.0984 1047.23 93.9086 1047.23 Z" fill="#000000" fill-rule="nonzero" fill-opacity="1" /><path clip-path="url(#clip840)" d="M57.7745 754.234 L74.0939 754.234 L74.0939 758.169 L52.1495 758.169 L52.1495 754.234 Q54.8115 751.479 59.3949 746.85 Q64.0013 742.197 65.1819 740.854 Q67.4272 738.331 68.3068 736.595 Q69.2096 734.836 69.2096 733.146 Q69.2096 730.391 67.2652 728.655 Q65.3439 726.919 62.2421 726.919 Q60.043 726.919 57.5893 727.683 Q55.1588 728.447 52.381 729.998 L52.381 725.276 Q55.2051 724.141 57.6588 723.563 Q60.1124 722.984 62.1495 722.984 Q67.5198 722.984 70.7142 725.669 Q73.9087 728.354 73.9087 732.845 Q73.9087 734.975 73.0985 736.896 Q72.3115 738.794 70.205 741.387 Q69.6263 742.058 66.5245 745.275 Q63.4226 748.47 57.7745 754.234 Z" fill="#000000" fill-rule="nonzero" fill-opacity="1" /><path clip-path="url(#clip840)" d="M93.9086 726.688 Q90.2975 726.688 88.4688 730.252 Q86.6632 733.794 86.6632 740.924 Q86.6632 748.03 88.4688 751.595 Q90.2975 755.137 93.9086 755.137 Q97.5428 755.137 99.3483 751.595 Q101.177 748.03 101.177 740.924 Q101.177 733.794 99.3483 730.252 Q97.5428 726.688 93.9086 726.688 M93.9086 722.984 Q99.7187 722.984 102.774 727.59 Q105.853 732.174 105.853 740.924 Q105.853 749.65 102.774 754.257 Q99.7187 758.84 93.9086 758.84 Q88.0984 758.84 85.0197 754.257 Q81.9642 749.65 81.9642 740.924 Q81.9642 732.174 85.0197 727.59 Q88.0984 722.984 93.9086 722.984 Z" fill="#000000" fill-rule="nonzero" fill-opacity="1" /><path clip-path="url(#clip840)" d="M67.9133 415.29 Q71.2698 416.008 73.1448 418.276 Q75.0429 420.545 75.0429 423.878 Q75.0429 428.994 71.5244 431.795 Q68.0059 434.595 61.5245 434.595 Q59.3486 434.595 57.0338 434.156 Q54.7421 433.739 52.2884 432.882 L52.2884 428.369 Q54.2328 429.503 56.5477 430.082 Q58.8625 430.66 61.3856 430.66 Q65.7837 430.66 68.0754 428.924 Q70.3902 427.188 70.3902 423.878 Q70.3902 420.822 68.2374 419.109 Q66.1078 417.373 62.2884 417.373 L58.2606 417.373 L58.2606 413.531 L62.4735 413.531 Q65.9226 413.531 67.7513 412.165 Q69.58 410.776 69.58 408.184 Q69.58 405.521 67.6819 404.109 Q65.8069 402.674 62.2884 402.674 Q60.3671 402.674 58.168 403.091 Q55.969 403.508 53.3301 404.387 L53.3301 400.221 Q55.9921 399.48 58.3069 399.109 Q60.6449 398.739 62.705 398.739 Q68.0291 398.739 71.1309 401.17 Q74.2327 403.577 74.2327 407.697 Q74.2327 410.568 72.5892 412.558 Q70.9457 414.526 67.9133 415.29 Z" fill="#000000" fill-rule="nonzero" fill-opacity="1" /><path clip-path="url(#clip840)" d="M93.9086 402.443 Q90.2975 402.443 88.4688 406.008 Q86.6632 409.549 86.6632 416.679 Q86.6632 423.785 88.4688 427.35 Q90.2975 430.892 93.9086 430.892 Q97.5428 430.892 99.3483 427.35 Q101.177 423.785 101.177 416.679 Q101.177 409.549 99.3483 406.008 Q97.5428 402.443 93.9086 402.443 M93.9086 398.739 Q99.7187 398.739 102.774 403.346 Q105.853 407.929 105.853 416.679 Q105.853 425.406 102.774 430.012 Q99.7187 434.595 93.9086 434.595 Q88.0984 434.595 85.0197 430.012 Q81.9642 425.406 81.9642 416.679 Q81.9642 407.929 85.0197 403.346 Q88.0984 398.739 93.9086 398.739 Z" fill="#000000" fill-rule="nonzero" fill-opacity="1" /><path clip-path="url(#clip840)" d="M66.5939 79.1933 L54.7884 97.6423 L66.5939 97.6423 L66.5939 79.1933 M65.367 75.1193 L71.2466 75.1193 L71.2466 97.6423 L76.1772 97.6423 L76.1772 101.531 L71.2466 101.531 L71.2466 109.679 L66.5939 109.679 L66.5939 101.531 L50.9921 101.531 L50.9921 97.0173 L65.367 75.1193 Z" fill="#000000" fill-rule="nonzero" fill-opacity="1" /><path clip-path="url(#clip840)" d="M93.9086 78.198 Q90.2975 78.198 88.4688 81.7628 Q86.6632 85.3044 86.6632 92.434 Q86.6632 99.5405 88.4688 103.105 Q90.2975 106.647 93.9086 106.647 Q97.5428 106.647 99.3483 103.105 Q101.177 99.5405 101.177 92.434 Q101.177 85.3044 99.3483 81.7628 Q97.5428 78.198 93.9086 78.198 M93.9086 74.4943 Q99.7187 74.4943 102.774 79.1008 Q105.853 83.6841 105.853 92.434 Q105.853 101.161 102.774 105.767 Q99.7187 110.351 93.9086 110.351 Q88.0984 110.351 85.0197 105.767 Q81.9642 101.161 81.9642 92.434 Q81.9642 83.6841 85.0197 79.1008 Q88.0984 74.4943 93.9086 74.4943 Z" fill="#000000" fill-rule="nonzero" fill-opacity="1" /><polyline clip-path="url(#clip842)" style="stroke:#0000ff; stroke-linecap:round; stroke-linejoin:round; stroke-width:4; stroke-opacity:1; fill:none" points="204.426,1379.08 206.514,1379.5 208.601,1379.87 210.689,1380.19 212.777,1380.46 214.865,1380.68 216.953,1380.85 219.041,1380.98 221.128,1381.07 223.216,1381.11 225.304,1381.11 227.392,1381.07 229.48,1380.98 231.568,1380.84 233.656,1380.67 235.743,1380.44 237.831,1380.17 239.919,1379.86 242.007,1379.49 244.095,1379.07 246.183,1378.6 248.27,1378.08 250.358,1377.5 252.446,1376.85 254.534,1376.15 256.622,1375.38 258.71,1374.54 260.797,1373.63 262.885,1372.65 264.973,1371.58 267.061,1370.43 269.149,1369.2 271.237,1367.87 273.325,1366.44 275.412,1364.91 277.5,1363.28 279.588,1361.53 281.676,1359.66 283.764,1357.67 285.852,1355.56 287.939,1353.3 290.027,1350.91 292.115,1348.38 294.203,1345.7 296.291,1342.87 298.379,1339.87 300.467,1336.72 302.554,1333.41 304.642,1329.93 306.73,1326.28 308.818,1322.47 310.906,1318.5 312.994,1314.36 315.081,1310.07 317.169,1305.63 319.257,1301.04 321.345,1296.32 323.433,1291.48 325.521,1286.54 327.609,1281.5 329.696,1276.4 331.784,1271.26 333.872,1266.09 335.96,1260.92 338.048,1255.79 340.136,1250.73 342.223,1245.76 344.311,1240.93 346.399,1236.26 348.487,1231.8 350.575,1227.58 352.663,1223.63 354.751,1220 356.838,1216.7 358.926,1213.78 361.014,1211.25 363.102,1209.15 365.19,1207.48 367.278,1206.27 369.365,1205.51 371.453,1205.23 373.541,1205.41 375.629,1206.05 377.717,1207.13 379.805,1208.64 381.893,1210.56 383.98,1212.85 386.068,1215.5 388.156,1218.47 390.244,1221.72 392.332,1225.21 394.42,1228.91 396.507,1232.77 398.595,1236.76 400.683,1240.83 402.771,1244.95 404.859,1249.08 406.947,1253.18 409.035,1257.22 411.122,1261.17 413.21,1264.98 415.298,1268.65 417.386,1272.13 419.474,1275.4 421.562,1278.45 423.649,1281.25 425.737,1283.78 427.825,1286.03 429.913,1287.98 432.001,1289.61 434.089,1290.91 436.177,1291.86 438.264,1292.47 440.352,1292.7 442.44,1292.56 444.528,1292.02 446.616,1291.09 448.704,1289.73 450.791,1287.95 452.879,1285.73 454.967,1283.06 457.055,1279.92 459.143,1276.3 461.231,1272.19 463.318,1267.56 465.406,1262.4 467.494,1256.7 469.582,1250.44 471.67,1243.6 473.758,1236.17 475.846,1228.12 477.933,1219.44 480.021,1210.11 482.109,1200.12 484.197,1189.46 486.285,1178.11 488.373,1166.05 490.46,1153.29 492.548,1139.81 494.636,1125.62 496.724,1110.71 498.812,1095.1 500.9,1078.8 502.988,1061.82 505.075,1044.19 507.163,1025.94 509.251,1007.12 511.339,987.766 513.427,967.945 515.515,947.72 517.602,927.168 519.69,906.373 521.778,885.43 523.866,864.442 525.954,843.521 528.042,822.785 530.13,802.36 532.217,782.374 534.305,762.962 536.393,744.257 538.481,726.395 540.569,709.506 542.657,693.717 544.744,679.146 546.832,665.902 548.92,654.084 551.008,643.773 553.096,635.036 555.184,627.923 557.272,622.464 559.359,618.67 561.447,616.531 563.535,616.016 565.623,617.077 567.711,619.645 569.799,623.632 571.886,628.938 573.974,635.446 576.062,643.028 578.15,651.546 580.238,660.856 582.326,670.808 584.414,681.252 586.501,692.038 588.589,703.017 590.677,714.047 592.765,724.992 594.853,735.724 596.941,746.124 599.028,756.087 601.116,765.518 603.204,774.334 605.292,782.467 607.38,789.862 609.468,796.476 611.556,802.282 613.643,807.265 615.731,811.422 617.819,814.765 619.907,817.316 621.995,819.109 624.083,820.187 626.17,820.604 628.258,820.422 630.346,819.712 632.434,818.55 634.522,817.018 636.61,815.203 638.698,813.196 640.785,811.09 642.873,808.978 644.961,806.955 647.049,805.115 649.137,803.549 651.225,802.346 653.312,801.589 655.4,801.359 657.488,801.728 659.576,802.762 661.664,804.521 663.752,807.052 665.839,810.398 667.927,814.587 670.015,819.641 672.103,825.569 674.191,832.369 676.279,840.03 678.367,848.529 680.454,857.833 682.542,867.902 684.63,878.683 686.718,890.12 688.806,902.147 690.894,914.692 692.981,927.682 695.069,941.038 697.157,954.678 699.245,968.523 701.333,982.491 703.421,996.502 705.509,1010.48 707.596,1024.35 709.684,1038.04 711.772,1051.49 713.86,1064.63 715.948,1077.41 718.036,1089.77 720.123,1101.67 722.211,1113.08 724.299,1123.94 726.387,1134.23 728.475,1143.93 730.563,1153.01 732.651,1161.45 734.738,1169.23 736.826,1176.35 738.914,1182.79 741.002,1188.55 743.09,1193.61 745.178,1197.99 747.265,1201.66 749.353,1204.64 751.441,1206.92 753.529,1208.51 755.617,1209.4 757.705,1209.6 759.793,1209.11 761.88,1207.94 763.968,1206.09 766.056,1203.58 768.144,1200.39 770.232,1196.56 772.32,1192.08 774.407,1186.97 776.495,1181.25 778.583,1174.93 780.671,1168.03 782.759,1160.57 784.847,1152.6 786.935,1144.12 789.022,1135.19 791.11,1125.84 793.198,1116.12 795.286,1106.07 797.374,1095.75 799.462,1085.23 801.549,1074.56 803.637,1063.82 805.725,1053.08 807.813,1042.42 809.901,1031.91 811.989,1021.65 814.077,1011.72 816.164,1002.19 818.252,993.159 820.34,984.705 822.428,976.908 824.516,969.841 826.604,963.574 828.691,958.168 830.779,953.678 832.867,950.148 834.955,947.616 837.043,946.106 839.131,945.634 841.219,946.205 843.306,947.812 845.394,950.439 847.482,954.06 849.57,958.641 851.658,964.136 853.746,970.495 855.833,977.66 857.921,985.568 860.009,994.15 862.097,1003.34 864.185,1013.05 866.273,1023.22 868.36,1033.78 870.448,1044.64 872.536,1055.73 874.624,1066.98 876.712,1078.33 878.8,1089.71 880.888,1101.06 882.975,1112.31 885.063,1123.43 887.151,1134.35 889.239,1145.03 891.327,1155.44 893.415,1165.54 895.502,1175.3 897.59,1184.68 899.678,1193.67 901.766,1202.25 903.854,1210.39 905.942,1218.09 908.03,1225.33 910.117,1232.1 912.205,1238.4 914.293,1244.23 916.381,1249.57 918.469,1254.43 920.557,1258.8 922.644,1262.69 924.732,1266.1 926.82,1269.02 928.908,1271.46 930.996,1273.42 933.084,1274.89 935.172,1275.88 937.259,1276.39 939.347,1276.42 941.435,1275.97 943.523,1275.03 945.611,1273.61 947.699,1271.7 949.786,1269.31 951.874,1266.42 953.962,1263.04 956.05,1259.17 958.138,1254.8 960.226,1249.94 962.314,1244.57 964.401,1238.72 966.489,1232.36 968.577,1225.52 970.665,1218.19 972.753,1210.39 974.841,1202.11 976.928,1193.38 979.016,1184.22 981.104,1174.63 983.192,1164.65 985.28,1154.3 987.368,1143.61 989.456,1132.61 991.543,1121.36 993.631,1109.89 995.719,1098.25 997.807,1086.49 999.895,1074.67 1001.98,1062.85 1004.07,1051.08 1006.16,1039.43 1008.25,1027.97 1010.33,1016.74 1012.42,1005.82 1014.51,995.25 1016.6,985.093 1018.69,975.392 1020.77,966.188 1022.86,957.512 1024.95,949.387 1027.04,941.827 1029.12,934.834 1031.21,928.401 1033.3,922.508 1035.39,917.127 1037.48,912.216 1039.56,907.726 1041.65,903.598 1043.74,899.764 1045.83,896.15 1047.92,892.678 1050,889.264 1052.09,885.822 1054.18,882.267 1056.27,878.514 1058.35,874.48 1060.44,870.087 1062.53,865.262 1064.62,859.94 1066.71,854.063 1068.79,847.583 1070.88,840.461 1072.97,832.669 1075.06,824.192 1077.15,815.024 1079.23,805.174 1081.32,794.66 1083.41,783.514 1085.5,771.779 1087.58,759.507 1089.67,746.762 1091.76,733.617 1093.85,720.15 1095.94,706.448 1098.02,692.603 1100.11,678.708 1102.2,664.858 1104.29,651.148 1106.37,637.669 1108.46,624.508 1110.55,611.746 1112.64,599.455 1114.73,587.697 1116.81,576.524 1118.9,565.973 1120.99,556.071 1123.08,546.83 1125.17,538.248 1127.25,530.31 1129.34,522.99 1131.43,516.247 1133.52,510.03 1135.6,504.279 1137.69,498.925 1139.78,493.892 1141.87,489.1 1143.96,484.463 1146.04,479.894 1148.13,475.306 1150.22,470.61 1152.31,465.721 1154.4,460.554 1156.48,455.03 1158.57,449.073 1160.66,442.613 1162.75,435.587 1164.83,427.935 1166.92,419.61 1169.01,410.569 1171.1,400.781 1173.19,390.225 1175.27,378.889 1177.36,366.776 1179.45,353.901 1181.54,340.292 1183.63,325.993 1185.71,311.063 1187.8,295.579 1189.89,279.631 1191.98,263.329 1194.06,246.795 1196.15,230.171 1198.24,213.609 1200.33,197.277 1202.42,181.353 1204.5,166.022 1206.59,151.479 1208.68,137.919 1210.77,125.538 1212.85,114.53 1214.94,105.08 1217.03,97.3661 1219.12,91.5506 1221.21,87.7811 1223.29,86.1857 1225.38,86.8709 1227.47,89.9202 1229.56,95.3918 1231.65,103.318 1233.73,113.706 1235.82,126.534 1237.91,141.758 1240,159.307 1242.08,179.089 1244.17,200.99 1246.26,224.876 1248.35,250.6 1250.44,277.999 1252.52,306.9 1254.61,337.122 1256.7,368.48 1258.79,400.784 1260.88,433.847 1262.96,467.482 1265.05,501.51 1267.14,535.755 1269.23,570.052 1271.31,604.245 1273.4,638.188 1275.49,671.747 1277.58,704.802 1279.67,737.244 1281.75,768.975 1283.84,799.914 1285.93,829.988 1288.02,859.138 1290.11,887.316 1292.19,914.484 1294.28,940.616 1296.37,965.692 1298.46,989.702 1300.54,1012.64 1302.63,1034.52 1304.72,1055.35 1306.81,1075.13 1308.9,1093.89 1310.98,1111.66 1313.07,1128.45 1315.16,1144.3 1317.25,1159.24 1319.34,1173.29 1321.42,1186.49 1323.51,1198.87 1325.6,1210.47 1327.69,1221.32 1329.77,1231.44 1331.86,1240.87 1333.95,1249.65 1336.04,1257.79 1338.13,1265.33 1340.21,1272.3 1342.3,1278.73 1344.39,1284.62 1346.48,1290.02 1348.56,1294.94 1350.65,1299.41 1352.74,1303.43 1354.83,1307.04 1356.92,1310.23 1359,1313.04 1361.09,1315.48 1363.18,1317.54 1365.27,1319.26 1367.36,1320.63 1369.44,1321.66 1371.53,1322.37 1373.62,1322.76 1375.71,1322.83 1377.79,1322.58 1379.88,1322.03 1381.97,1321.18 1384.06,1320.02 1386.15,1318.56 1388.23,1316.8 1390.32,1314.75 1392.41,1312.4 1394.5,1309.75 1396.59,1306.81 1398.67,1303.57 1400.76,1300.05 1402.85,1296.24 1404.94,1292.15 1407.02,1287.78 1409.11,1283.14 1411.2,1278.25 1413.29,1273.1 1415.38,1267.72 1417.46,1262.11 1419.55,1256.31 1421.64,1250.32 1423.73,1244.18 1425.82,1237.9 1427.9,1231.53 1429.99,1225.09 1432.08,1218.62 1434.17,1212.17 1436.25,1205.76 1438.34,1199.46 1440.43,1193.3 1442.52,1187.33 1444.61,1181.61 1446.69,1176.18 1448.78,1171.09 1450.87,1166.4 1452.96,1162.14 1455.05,1158.37 1457.13,1155.11 1459.22,1152.41 1461.31,1150.29 1463.4,1148.79 1465.48,1147.9 1467.57,1147.66 1469.66,1148.06 1471.75,1149.09 1473.84,1150.76 1475.92,1153.03 1478.01,1155.89 1480.1,1159.31 1482.19,1163.26 1484.27,1167.69 1486.36,1172.56 1488.45,1177.83 1490.54,1183.45 1492.63,1189.38 1494.71,1195.56 1496.8,1201.94 1498.89,1208.48 1500.98,1215.14 1503.07,1221.86 1505.15,1228.6 1507.24,1235.34 1509.33,1242.03 1511.42,1248.65 1513.5,1255.15 1515.59,1261.53 1517.68,1267.75 1519.77,1273.79 1521.86,1279.65 1523.94,1285.31 1526.03,1290.75 1528.12,1295.97 1530.21,1300.97 1532.3,1305.74 1534.38,1310.28 1536.47,1314.58 1538.56,1318.65 1540.65,1322.49 1542.73,1326.11 1544.82,1329.5 1546.91,1332.67 1549,1335.63 1551.09,1338.38 1553.17,1340.92 1555.26,1343.26 1557.35,1345.41 1559.44,1347.37 1561.53,1349.14 1563.61,1350.73 1565.7,1352.15 1567.79,1353.39 1569.88,1354.46 1571.96,1355.37 1574.05,1356.11 1576.14,1356.69 1578.23,1357.11 1580.32,1357.37 1582.4,1357.47 1584.49,1357.4 1586.58,1357.18 1588.67,1356.8 1590.75,1356.25 1592.84,1355.54 1594.93,1354.65 1597.02,1353.6 1599.11,1352.36 1601.19,1350.93 1603.28,1349.32 1605.37,1347.51 1607.46,1345.5 1609.55,1343.27 1611.63,1340.82 1613.72,1338.14 1615.81,1335.21 1617.9,1332.04 1619.98,1328.6 1622.07,1324.89 1624.16,1320.9 1626.25,1316.6 1628.34,1311.99 1630.42,1307.05 1632.51,1301.78 1634.6,1296.15 1636.69,1290.16 1638.78,1283.78 1640.86,1277.02 1642.95,1269.85 1645.04,1262.28 1647.13,1254.27 1649.21,1245.84 1651.3,1236.97 1653.39,1227.67 1655.48,1217.92 1657.57,1207.73 1659.65,1197.11 1661.74,1186.07 1663.83,1174.62 1665.92,1162.78 1668.01,1150.57 1670.09,1138.03 1672.18,1125.19 1674.27,1112.09 1676.36,1098.79 1678.44,1085.33 1680.53,1071.79 1682.62,1058.22 1684.71,1044.71 1686.8,1031.34 1688.88,1018.19 1690.97,1005.36 1693.06,992.928 1695.15,981.005 1697.24,969.684 1699.32,959.063 1701.41,949.237 1703.5,940.296 1705.59,932.327 1707.67,925.408 1709.76,919.61 1711.85,914.992 1713.94,911.603 1716.03,909.479 1718.11,908.643 1720.2,909.104 1722.29,910.856 1724.38,913.88 1726.46,918.145 1728.55,923.605 1730.64,930.202 1732.73,937.869 1734.82,946.53 1736.9,956.101 1738.99,966.491 1741.08,977.606 1743.17,989.35 1745.26,1001.62 1747.34,1014.33 1749.43,1027.38 1751.52,1040.67 1753.61,1054.12 1755.69,1067.65 1757.78,1081.17 1759.87,1094.63 1761.96,1107.94 1764.05,1121.06 1766.13,1133.93 1768.22,1146.52 1770.31,1158.77 1772.4,1170.66 1774.49,1182.17 1776.57,1193.27 1778.66,1203.94 1780.75,1214.18 1782.84,1223.97 1784.92,1233.32 1787.01,1242.23 1789.1,1250.69 1791.19,1258.71 1793.28,1266.3 1795.36,1273.46 1797.45,1280.22 1799.54,1286.56 1801.63,1292.52 1803.72,1298.09 1805.8,1303.3 1807.89,1308.15 1809.98,1312.66 1812.07,1316.84 1814.15,1320.7 1816.24,1324.26 1818.33,1327.52 1820.42,1330.49 1822.51,1333.19 1824.59,1335.62 1826.68,1337.8 1828.77,1339.73 1830.86,1341.41 1832.95,1342.87 1835.03,1344.09 1837.12,1345.08 1839.21,1345.86 1841.3,1346.42 1843.38,1346.76 1845.47,1346.89 1847.56,1346.81 1849.65,1346.51 1851.74,1346 1853.82,1345.28 1855.91,1344.34 1858,1343.18 1860.09,1341.79 1862.17,1340.17 1864.26,1338.33 1866.35,1336.24 1868.44,1333.9 1870.53,1331.31 1872.61,1328.46 1874.7,1325.34 1876.79,1321.95 1878.88,1318.27 1880.97,1314.29 1883.05,1310.01 1885.14,1305.42 1887.23,1300.5 1889.32,1295.26 1891.4,1289.68 1893.49,1283.76 1895.58,1277.49 1897.67,1270.86 1899.76,1263.88 1901.84,1256.53 1903.93,1248.84 1906.02,1240.78 1908.11,1232.38 1910.2,1223.65 1912.28,1214.58 1914.37,1205.21 1916.46,1195.55 1918.55,1185.63 1920.63,1175.47 1922.72,1165.11 1924.81,1154.6 1926.9,1143.97 1928.99,1133.27 1931.07,1122.55 1933.16,1111.88 1935.25,1101.32 1937.34,1090.92 1939.43,1080.76 1941.51,1070.91 1943.6,1061.43 1945.69,1052.39 1947.78,1043.86 1949.86,1035.9 1951.95,1028.57 1954.04,1021.93 1956.13,1016.03 1958.22,1010.89 1960.3,1006.57 1962.39,1003.06 1964.48,1000.4 1966.57,998.566 1968.65,997.561 1970.74,997.36 1972.83,997.932 1974.92,999.232 1977.01,1001.21 1979.09,1003.81 1981.18,1006.96 1983.27,1010.59 1985.36,1014.62 1987.45,1018.97 1989.53,1023.56 1991.62,1028.3 1993.71,1033.11 1995.8,1037.9 1997.88,1042.61 1999.97,1047.15 2002.06,1051.46 2004.15,1055.46 2006.24,1059.1 2008.32,1062.32 2010.41,1065.09 2012.5,1067.35 2014.59,1069.08 2016.68,1070.26 2018.76,1070.87 2020.85,1070.89 2022.94,1070.34 2025.03,1069.21 2027.11,1067.52 2029.2,1065.3 2031.29,1062.58 2033.38,1059.39 2035.47,1055.79 2037.55,1051.81 2039.64,1047.53 2041.73,1043.01 2043.82,1038.31 2045.91,1033.52 2047.99,1028.71 2050.08,1023.96 2052.17,1019.35 2054.26,1014.97 2056.34,1010.91 2058.43,1007.24 2060.52,1004.05 2062.61,1001.4 2064.7,999.36 2066.78,997.996 2068.87,997.358 2070.96,997.488 2073.05,998.419 2075.14,1000.17 2077.22,1002.77 2079.31,1006.19 2081.4,1010.45 2083.49,1015.51 2085.57,1021.34 2087.66,1027.92 2089.75,1035.18 2091.84,1043.08 2093.93,1051.56 2096.01,1060.56 2098.1,1070 2100.19,1079.82 2102.28,1089.95 2104.36,1100.32 2106.45,1110.87 2108.54,1121.53 2110.63,1132.23 2112.72,1142.93 2114.8,1153.56 2116.89,1164.08 2118.98,1174.44 2121.07,1184.61 2123.16,1194.54 2125.24,1204.22 2127.33,1213.6 2129.42,1222.68 2131.51,1231.44 2133.59,1239.85 2135.68,1247.92 2137.77,1255.63 2139.86,1262.99 2141.95,1269.99 2144.03,1276.62 2146.12,1282.91 2148.21,1288.84 2150.3,1294.43 2152.39,1299.67 2154.47,1304.59 2156.56,1309.19 2158.65,1313.47 2160.74,1317.44 2162.82,1321.12 2164.91,1324.51 2167,1327.62 2169.09,1330.46 2171.18,1333.04 2173.26,1335.36 2175.35,1337.44 2177.44,1339.27 2179.53,1340.88 2181.62,1342.25 2183.7,1343.4 2185.79,1344.34 2187.88,1345.06 2189.97,1345.57 2192.05,1345.87 2194.14,1345.97 2196.23,1345.86 2198.32,1345.56 2200.41,1345.05 2202.49,1344.34 2204.58,1343.43 2206.67,1342.32 2208.76,1341.01 2210.85,1339.5 2212.93,1337.78 2215.02,1335.87 2217.11,1333.75 2219.2,1331.42 2221.28,1328.89 2223.37,1326.16 2225.46,1323.23 2227.55,1320.09 2229.64,1316.76 2231.72,1313.24 2233.81,1309.52 2235.9,1305.63 2237.99,1301.56 2240.07,1297.32 2242.16,1292.94 2244.25,1288.42 2246.34,1283.78 2248.43,1279.03 2250.51,1274.21 2252.6,1269.33 2254.69,1264.41 2256.78,1259.5 2258.87,1254.61 2260.95,1249.79 2263.04,1245.06 2265.13,1240.46 2267.22,1236.03 2269.3,1231.8 2271.39,1227.81 2273.48,1224.1 2275.57,1220.71 2277.66,1217.66 2279.74,1214.99 2281.83,1212.72 2283.92,1210.88 2286.01,1209.5 2288.1,1208.57 2290.18,1208.12 "/>
<polyline clip-path="url(#clip842)" style="stroke:#ff0000; stroke-linecap:round; stroke-linejoin:round; stroke-width:4; stroke-opacity:1; fill:none" points="204.426,1094.16 206.514,1103.56 208.601,1113.26 210.689,1123.17 212.777,1133.25 214.865,1143.41 216.953,1153.61 219.041,1163.79 221.128,1173.89 223.216,1183.87 225.304,1193.69 227.392,1203.32 229.48,1212.71 231.568,1221.86 233.656,1230.73 235.743,1239.31 237.831,1247.59 239.919,1255.55 242.007,1263.19 244.095,1270.5 246.183,1277.5 248.27,1284.16 250.358,1290.51 252.446,1296.54 254.534,1302.27 256.622,1307.69 258.71,1312.82 260.797,1317.67 262.885,1322.25 264.973,1326.56 267.061,1330.62 269.149,1334.44 271.237,1338.04 273.325,1341.41 275.412,1344.58 277.5,1347.54 279.588,1350.33 281.676,1352.93 283.764,1355.36 285.852,1357.64 287.939,1359.77 290.027,1361.76 292.115,1363.61 294.203,1365.34 296.291,1366.95 298.379,1368.46 300.467,1369.85 302.554,1371.16 304.642,1372.37 306.73,1373.49 308.818,1374.53 310.906,1375.5 312.994,1376.39 315.081,1377.22 317.169,1377.99 319.257,1378.7 321.345,1379.35 323.433,1379.95 325.521,1380.5 327.609,1381 329.696,1381.46 331.784,1381.88 333.872,1382.26 335.96,1382.6 338.048,1382.9 340.136,1383.17 342.223,1383.41 344.311,1383.62 346.399,1383.79 348.487,1383.94 350.575,1384.05 352.663,1384.14 354.751,1384.2 356.838,1384.23 358.926,1384.24 361.014,1384.22 363.102,1384.17 365.19,1384.09 367.278,1383.98 369.365,1383.85 371.453,1383.68 373.541,1383.49 375.629,1383.26 377.717,1383.01 379.805,1382.72 381.893,1382.39 383.98,1382.03 386.068,1381.63 388.156,1381.19 390.244,1380.71 392.332,1380.19 394.42,1379.62 396.507,1379 398.595,1378.32 400.683,1377.6 402.771,1376.81 404.859,1375.96 406.947,1375.05 409.035,1374.07 411.122,1373.02 413.21,1371.88 415.298,1370.67 417.386,1369.37 419.474,1367.98 421.562,1366.5 423.649,1364.91 425.737,1363.22 427.825,1361.41 429.913,1359.49 432.001,1357.45 434.089,1355.28 436.177,1352.97 438.264,1350.53 440.352,1347.95 442.44,1345.22 444.528,1342.33 446.616,1339.29 448.704,1336.1 450.791,1332.74 452.879,1329.21 454.967,1325.53 457.055,1321.68 459.143,1317.67 461.231,1313.5 463.318,1309.18 465.406,1304.72 467.494,1300.12 469.582,1295.39 471.67,1290.55 473.758,1285.61 475.846,1280.6 477.933,1275.53 480.021,1270.42 482.109,1265.31 484.197,1260.21 486.285,1255.16 488.373,1250.2 490.46,1245.35 492.548,1240.65 494.636,1236.14 496.724,1231.85 498.812,1227.82 500.9,1224.08 502.988,1220.67 505.075,1217.63 507.163,1214.97 509.251,1212.73 511.339,1210.93 513.427,1209.59 515.515,1208.72 517.602,1208.33 519.69,1208.41 521.778,1208.98 523.866,1210.02 525.954,1211.52 528.042,1213.47 530.13,1215.83 532.217,1218.59 534.305,1221.72 536.393,1225.18 538.481,1228.94 540.569,1232.97 542.657,1237.22 544.744,1241.67 546.832,1246.26 548.92,1250.97 551.008,1255.77 553.096,1260.61 555.184,1265.46 557.272,1270.29 559.359,1275.09 561.447,1279.81 563.535,1284.44 565.623,1288.95 567.711,1293.34 569.799,1297.57 571.886,1301.65 573.974,1305.54 576.062,1309.26 578.15,1312.78 580.238,1316.1 582.326,1319.22 584.414,1322.13 586.501,1324.82 588.589,1327.3 590.677,1329.56 592.765,1331.61 594.853,1333.43 596.941,1335.04 599.028,1336.42 601.116,1337.59 603.204,1338.53 605.292,1339.25 607.38,1339.74 609.468,1340.01 611.556,1340.05 613.643,1339.86 615.731,1339.44 617.819,1338.78 619.907,1337.87 621.995,1336.72 624.083,1335.32 626.17,1333.66 628.258,1331.72 630.346,1329.52 632.434,1327.02 634.522,1324.24 636.61,1321.15 638.698,1317.74 640.785,1314 642.873,1309.92 644.961,1305.49 647.049,1300.69 649.137,1295.51 651.225,1289.93 653.312,1283.94 655.4,1277.52 657.488,1270.66 659.576,1263.34 661.664,1255.56 663.752,1247.28 665.839,1238.52 667.927,1229.24 670.015,1219.45 672.103,1209.14 674.191,1198.3 676.279,1186.93 678.367,1175.02 680.454,1162.6 682.542,1149.65 684.63,1136.21 686.718,1122.28 688.806,1107.9 690.894,1093.08 692.981,1077.88 695.069,1062.32 697.157,1046.46 699.245,1030.36 701.333,1014.07 703.421,997.671 705.509,981.228 707.596,964.824 709.684,948.543 711.772,932.472 713.86,916.702 715.948,901.324 718.036,886.431 720.123,872.112 722.211,858.456 724.299,845.546 726.387,833.459 728.475,822.266 730.563,812.028 732.651,802.799 734.738,794.621 736.826,787.524 738.914,781.53 741.002,776.647 743.09,772.874 745.178,770.198 747.265,768.598 749.353,768.044 751.441,768.498 753.529,769.917 755.617,772.253 757.705,775.456 759.793,779.472 761.88,784.247 763.968,789.729 766.056,795.865 768.144,802.604 770.232,809.898 772.32,817.702 774.407,825.972 776.495,834.666 778.583,843.744 780.671,853.169 782.759,862.904 784.847,872.911 786.935,883.152 789.022,893.589 791.11,904.183 793.198,914.891 795.286,925.672 797.374,936.479 799.462,947.265 801.549,957.98 803.637,968.573 805.725,978.992 807.813,989.183 809.901,999.093 811.989,1008.67 814.077,1017.85 816.164,1026.59 818.252,1034.84 820.34,1042.55 822.428,1049.66 824.516,1056.15 826.604,1061.95 828.691,1067.04 830.779,1071.39 832.867,1074.95 834.955,1077.71 837.043,1079.64 839.131,1080.72 841.219,1080.94 843.306,1080.28 845.394,1078.75 847.482,1076.33 849.57,1073.04 851.658,1068.88 853.746,1063.87 855.833,1058.03 857.921,1051.39 860.009,1043.97 862.097,1035.82 864.185,1026.99 866.273,1017.53 868.36,1007.5 870.448,996.963 872.536,986.004 874.624,974.704 876.712,963.154 878.8,951.45 880.888,939.696 882.975,928.001 885.063,916.478 887.151,905.245 889.239,894.418 891.327,884.118 893.415,874.461 895.502,865.562 897.59,857.532 899.678,850.472 901.766,844.478 903.854,839.633 905.942,836.009 908.03,833.667 910.117,832.649 912.205,832.987 914.293,834.692 916.381,837.763 918.469,842.182 920.557,847.914 922.644,854.913 924.732,863.116 926.82,872.452 928.908,882.836 930.996,894.178 933.084,906.378 935.172,919.335 937.259,932.941 939.347,947.089 941.435,961.673 943.523,976.589 945.611,991.735 947.699,1007.01 949.786,1022.33 951.874,1037.61 953.962,1052.77 956.05,1067.73 958.138,1082.44 960.226,1096.83 962.314,1110.86 964.401,1124.48 966.489,1137.67 968.577,1150.38 970.665,1162.59 972.753,1174.29 974.841,1185.47 976.928,1196.11 979.016,1206.2 981.104,1215.75 983.192,1224.76 985.28,1233.23 987.368,1241.17 989.456,1248.57 991.543,1255.46 993.631,1261.83 995.719,1267.71 997.807,1273.09 999.895,1277.99 1001.98,1282.43 1004.07,1286.4 1006.16,1289.92 1008.25,1292.99 1010.33,1295.64 1012.42,1297.85 1014.51,1299.65 1016.6,1301.03 1018.69,1302 1020.77,1302.57 1022.86,1302.73 1024.95,1302.5 1027.04,1301.87 1029.12,1300.83 1031.21,1299.4 1033.3,1297.58 1035.39,1295.35 1037.48,1292.72 1039.56,1289.68 1041.65,1286.24 1043.74,1282.39 1045.83,1278.12 1047.92,1273.45 1050,1268.36 1052.09,1262.85 1054.18,1256.93 1056.27,1250.59 1058.35,1243.85 1060.44,1236.71 1062.53,1229.17 1064.62,1221.25 1066.71,1212.96 1068.79,1204.31 1070.88,1195.34 1072.97,1186.07 1075.06,1176.52 1077.15,1166.73 1079.23,1156.74 1081.32,1146.59 1083.41,1136.34 1085.5,1126.03 1087.58,1115.72 1089.67,1105.48 1091.76,1095.37 1093.85,1085.46 1095.94,1075.81 1098.02,1066.51 1100.11,1057.61 1102.2,1049.2 1104.29,1041.34 1106.37,1034.09 1108.46,1027.52 1110.55,1021.68 1112.64,1016.61 1114.73,1012.36 1116.81,1008.96 1118.9,1006.43 1120.99,1004.77 1123.08,1004 1125.17,1004.09 1127.25,1005.03 1129.34,1006.79 1131.43,1009.33 1133.52,1012.59 1135.6,1016.54 1137.69,1021.1 1139.78,1026.21 1141.87,1031.8 1143.96,1037.8 1146.04,1044.14 1148.13,1050.75 1150.22,1057.55 1152.31,1064.49 1154.4,1071.49 1156.48,1078.5 1158.57,1085.46 1160.66,1092.34 1162.75,1099.07 1164.83,1105.63 1166.92,1111.99 1169.01,1118.11 1171.1,1123.99 1173.19,1129.6 1175.27,1134.94 1177.36,1140 1179.45,1144.78 1181.54,1149.28 1183.63,1153.5 1185.71,1157.45 1187.8,1161.14 1189.89,1164.58 1191.98,1167.76 1194.06,1170.7 1196.15,1173.39 1198.24,1175.86 1200.33,1178.08 1202.42,1180.07 1204.5,1181.83 1206.59,1183.34 1208.68,1184.6 1210.77,1185.6 1212.85,1186.32 1214.94,1186.76 1217.03,1186.9 1219.12,1186.72 1221.21,1186.2 1223.29,1185.34 1225.38,1184.1 1227.47,1182.49 1229.56,1180.47 1231.65,1178.05 1233.73,1175.21 1235.82,1171.93 1237.91,1168.23 1240,1164.08 1242.08,1159.51 1244.17,1154.52 1246.26,1149.11 1248.35,1143.31 1250.44,1137.14 1252.52,1130.62 1254.61,1123.8 1256.7,1116.7 1258.79,1109.38 1260.88,1101.89 1262.96,1094.28 1265.05,1086.62 1267.14,1078.96 1269.23,1071.39 1271.31,1063.97 1273.4,1056.78 1275.49,1049.9 1277.58,1043.4 1279.67,1037.36 1281.75,1031.86 1283.84,1026.95 1285.93,1022.72 1288.02,1019.21 1290.11,1016.49 1292.19,1014.59 1294.28,1013.55 1296.37,1013.39 1298.46,1014.13 1300.54,1015.77 1302.63,1018.3 1304.72,1021.72 1306.81,1025.98 1308.9,1031.05 1310.98,1036.89 1313.07,1043.45 1315.16,1050.65 1317.25,1058.45 1319.34,1066.77 1321.42,1075.54 1323.51,1084.69 1325.6,1094.15 1327.69,1103.83 1329.77,1113.68 1331.86,1123.62 1333.95,1133.6 1336.04,1143.54 1338.13,1153.4 1340.21,1163.12 1342.3,1172.65 1344.39,1181.95 1346.48,1190.99 1348.56,1199.73 1350.65,1208.14 1352.74,1216.2 1354.83,1223.89 1356.92,1231.18 1359,1238.07 1361.09,1244.55 1363.18,1250.6 1365.27,1256.21 1367.36,1261.4 1369.44,1266.14 1371.53,1270.44 1373.62,1274.3 1375.71,1277.72 1377.79,1280.7 1379.88,1283.23 1381.97,1285.31 1384.06,1286.96 1386.15,1288.15 1388.23,1288.91 1390.32,1289.21 1392.41,1289.07 1394.5,1288.47 1396.59,1287.42 1398.67,1285.9 1400.76,1283.92 1402.85,1281.46 1404.94,1278.52 1407.02,1275.09 1409.11,1271.16 1411.2,1266.73 1413.29,1261.78 1415.38,1256.3 1417.46,1250.27 1419.55,1243.7 1421.64,1236.57 1423.73,1228.87 1425.82,1220.58 1427.9,1211.7 1429.99,1202.22 1432.08,1192.14 1434.17,1181.44 1436.25,1170.12 1438.34,1158.19 1440.43,1145.64 1442.52,1132.47 1444.61,1118.7 1446.69,1104.34 1448.78,1089.39 1450.87,1073.88 1452.96,1057.83 1455.05,1041.26 1457.13,1024.21 1459.22,1006.71 1461.31,988.803 1463.4,970.536 1465.48,951.958 1467.57,933.122 1469.66,914.087 1471.75,894.915 1473.84,875.672 1475.92,856.427 1478.01,837.253 1480.1,818.224 1482.19,799.415 1484.27,780.905 1486.36,762.771 1488.45,745.09 1490.54,727.939 1492.63,711.393 1494.71,695.523 1496.8,680.398 1498.89,666.08 1500.98,652.627 1503.07,640.089 1505.15,628.508 1507.24,617.918 1509.33,608.34 1511.42,599.786 1513.5,592.255 1515.59,585.736 1517.68,580.201 1519.77,575.614 1521.86,571.921 1523.94,569.061 1526.03,566.956 1528.12,565.522 1530.21,564.663 1532.3,564.276 1534.38,564.252 1536.47,564.478 1538.56,564.838 1540.65,565.218 1542.73,565.502 1544.82,565.582 1546.91,565.353 1549,564.718 1551.09,563.59 1553.17,561.893 1555.26,559.559 1557.35,556.537 1559.44,552.787 1561.53,548.282 1563.61,543.01 1565.7,536.972 1567.79,530.181 1569.88,522.664 1571.96,514.461 1574.05,505.62 1576.14,496.2 1578.23,486.27 1580.32,475.904 1582.4,465.184 1584.49,454.195 1586.58,443.027 1588.67,431.77 1590.75,420.517 1592.84,409.36 1594.93,398.387 1597.02,387.688 1599.11,377.347 1601.19,367.446 1603.28,358.06 1605.37,349.263 1607.46,341.121 1609.55,333.696 1611.63,327.044 1613.72,321.214 1615.81,316.251 1617.9,312.193 1619.98,309.072 1622.07,306.913 1624.16,305.736 1626.25,305.554 1628.34,306.373 1630.42,308.194 1632.51,311.014 1634.6,314.821 1636.69,319.599 1638.78,325.329 1640.86,331.985 1642.95,339.54 1645.04,347.962 1647.13,357.215 1649.21,367.264 1651.3,378.068 1653.39,389.588 1655.48,401.782 1657.57,414.606 1659.65,428.015 1661.74,441.964 1663.83,456.406 1665.92,471.294 1668.01,486.579 1670.09,502.21 1672.18,518.139 1674.27,534.314 1676.36,550.684 1678.44,567.198 1680.53,583.808 1682.62,600.464 1684.71,617.122 1686.8,633.738 1688.88,650.274 1690.97,666.694 1693.06,682.968 1695.15,699.073 1697.24,714.989 1699.32,730.704 1701.41,746.211 1703.5,761.508 1705.59,776.601 1707.67,791.498 1709.76,806.214 1711.85,820.766 1713.94,835.172 1716.03,849.455 1718.11,863.635 1720.2,877.735 1722.29,891.775 1724.38,905.771 1726.46,919.739 1728.55,933.689 1730.64,947.629 1732.73,961.562 1734.82,975.484 1736.9,989.391 1738.99,1003.27 1741.08,1017.11 1743.17,1030.89 1745.26,1044.59 1747.34,1058.18 1749.43,1071.65 1751.52,1084.96 1753.61,1098.08 1755.69,1111 1757.78,1123.68 1759.87,1136.1 1761.96,1148.23 1764.05,1160.06 1766.13,1171.56 1768.22,1182.73 1770.31,1193.53 1772.4,1203.97 1774.49,1214.04 1776.57,1223.72 1778.66,1233.02 1780.75,1241.92 1782.84,1250.44 1784.92,1258.58 1787.01,1266.33 1789.1,1273.71 1791.19,1280.73 1793.28,1287.39 1795.36,1293.69 1797.45,1299.66 1799.54,1305.31 1801.63,1310.64 1803.72,1315.66 1805.8,1320.4 1807.89,1324.85 1809.98,1329.04 1812.07,1332.98 1814.15,1336.68 1816.24,1340.14 1818.33,1343.39 1820.42,1346.43 1822.51,1349.28 1824.59,1351.94 1826.68,1354.43 1828.77,1356.76 1830.86,1358.92 1832.95,1360.95 1835.03,1362.83 1837.12,1364.59 1839.21,1366.22 1841.3,1367.74 1843.38,1369.15 1845.47,1370.45 1847.56,1371.67 1849.65,1372.79 1851.74,1373.83 1853.82,1374.79 1855.91,1375.67 1858,1376.48 1860.09,1377.23 1862.17,1377.91 1864.26,1378.53 1866.35,1379.1 1868.44,1379.61 1870.53,1380.07 1872.61,1380.48 1874.7,1380.84 1876.79,1381.16 1878.88,1381.44 1880.97,1381.67 1883.05,1381.86 1885.14,1382.01 1887.23,1382.12 1889.32,1382.2 1891.4,1382.23 1893.49,1382.23 1895.58,1382.19 1897.67,1382.11 1899.76,1381.99 1901.84,1381.83 1903.93,1381.63 1906.02,1381.39 1908.11,1381.11 1910.2,1380.79 1912.28,1380.41 1914.37,1379.99 1916.46,1379.52 1918.55,1379 1920.63,1378.43 1922.72,1377.79 1924.81,1377.1 1926.9,1376.34 1928.99,1375.51 1931.07,1374.61 1933.16,1373.63 1935.25,1372.58 1937.34,1371.43 1939.43,1370.2 1941.51,1368.86 1943.6,1367.42 1945.69,1365.87 1947.78,1364.2 1949.86,1362.41 1951.95,1360.48 1954.04,1358.41 1956.13,1356.18 1958.22,1353.8 1960.3,1351.24 1962.39,1348.5 1964.48,1345.57 1966.57,1342.43 1968.65,1339.07 1970.74,1335.49 1972.83,1331.66 1974.92,1327.57 1977.01,1323.22 1979.09,1318.58 1981.18,1313.64 1983.27,1308.38 1985.36,1302.8 1987.45,1296.88 1989.53,1290.6 1991.62,1283.95 1993.71,1276.91 1995.8,1269.48 1997.88,1261.64 1999.97,1253.39 2002.06,1244.71 2004.15,1235.6 2006.24,1226.06 2008.32,1216.08 2010.41,1205.67 2012.5,1194.84 2014.59,1183.59 2016.68,1171.94 2018.76,1159.91 2020.85,1147.53 2022.94,1134.82 2025.03,1121.83 2027.11,1108.6 2029.2,1095.17 2031.29,1081.61 2033.38,1067.98 2035.47,1054.36 2037.55,1040.81 2039.64,1027.42 2041.73,1014.28 2043.82,1001.47 2045.91,989.101 2047.99,977.261 2050.08,966.049 2052.17,955.56 2054.26,945.888 2056.34,937.124 2058.43,929.349 2060.52,922.64 2062.61,917.065 2064.7,912.679 2066.78,909.527 2068.87,907.64 2070.96,907.037 2073.05,907.723 2075.14,909.686 2077.22,912.904 2079.31,917.34 2081.4,922.943 2083.49,929.653 2085.57,937.399 2087.66,946.1 2089.75,955.67 2091.84,966.015 2093.93,977.039 2096.01,988.644 2098.1,1000.73 2100.19,1013.2 2102.28,1025.96 2104.36,1038.91 2106.45,1051.96 2108.54,1065.04 2110.63,1078.06 2112.72,1090.95 2114.8,1103.65 2116.89,1116.1 2118.98,1128.24 2121.07,1140.03 2123.16,1151.43 2125.24,1162.41 2127.33,1172.94 2129.42,1182.99 2131.51,1192.55 2133.59,1201.59 2135.68,1210.12 2137.77,1218.12 2139.86,1225.58 2141.95,1232.51 2144.03,1238.9 2146.12,1244.75 2148.21,1250.08 2150.3,1254.87 2152.39,1259.13 2154.47,1262.87 2156.56,1266.09 2158.65,1268.79 2160.74,1270.99 2162.82,1272.68 2164.91,1273.86 2167,1274.54 2169.09,1274.73 2171.18,1274.42 2173.26,1273.62 2175.35,1272.32 2177.44,1270.53 2179.53,1268.25 2181.62,1265.48 2183.7,1262.22 2185.79,1258.47 2187.88,1254.23 2189.97,1249.51 2192.05,1244.3 2194.14,1238.61 2196.23,1232.46 2198.32,1225.83 2200.41,1218.75 2202.49,1211.23 2204.58,1203.27 2206.67,1194.91 2208.76,1186.15 2210.85,1177.03 2212.93,1167.58 2215.02,1157.82 2217.11,1147.81 2219.2,1137.57 2221.28,1127.15 2223.37,1116.62 2225.46,1106.02 2227.55,1095.41 2229.64,1084.86 2231.72,1074.44 2233.81,1064.2 2235.9,1054.22 2237.99,1044.56 2240.07,1035.31 2242.16,1026.51 2244.25,1018.23 2246.34,1010.53 2248.43,1003.45 2250.51,997.056 2252.6,991.365 2254.69,986.41 2256.78,982.207 2258.87,978.761 2260.95,976.069 2263.04,974.114 2265.13,972.871 2267.22,972.305 2269.3,972.368 2271.39,973.008 2273.48,974.163 2275.57,975.765 2277.66,977.741 2279.74,980.015 2281.83,982.508 2283.92,985.143 2286.01,987.84 2288.1,990.525 2290.18,993.125 "/>
<polyline clip-path="url(#clip842)" style="stroke:#008000; stroke-linecap:round; stroke-linejoin:round; stroke-width:6; stroke-opacity:1; fill:none" points="1247.3,2799.12 1247.3,-1328.69 "/>
<path clip-path="url(#clip840)" d="M1706.67 300.469 L2279.06 300.469 L2279.06 93.1086 L1706.67 93.1086  Z" fill="#ffffff" fill-rule="evenodd" fill-opacity="1"/>
<polyline clip-path="url(#clip840)" style="stroke:#000000; stroke-linecap:round; stroke-linejoin:round; stroke-width:4; stroke-opacity:1; fill:none" points="1706.67,300.469 2279.06,300.469 2279.06,93.1086 1706.67,93.1086 1706.67,300.469 "/>
<polyline clip-path="url(#clip840)" style="stroke:#0000ff; stroke-linecap:round; stroke-linejoin:round; stroke-width:4; stroke-opacity:1; fill:none" points="1731.24,144.949 1878.63,144.949 "/>
<path clip-path="url(#clip840)" d="M1907.88 131.511 L1907.88 158.386 L1913.52 158.386 Q1920.68 158.386 1923.99 155.145 Q1927.32 151.905 1927.32 144.914 Q1927.32 137.969 1923.99 134.752 Q1920.68 131.511 1913.52 131.511 L1907.88 131.511 M1903.2 127.669 L1912.81 127.669 Q1922.85 127.669 1927.55 131.858 Q1932.25 136.025 1932.25 144.914 Q1932.25 153.849 1927.53 158.039 Q1922.81 162.229 1912.81 162.229 L1903.2 162.229 L1903.2 127.669 Z" fill="#000000" fill-rule="nonzero" fill-opacity="1" /><path clip-path="url(#clip840)" d="M1953.73 130.84 Q1948.64 130.84 1945.63 134.636 Q1942.64 138.432 1942.64 144.983 Q1942.64 151.511 1945.63 155.307 Q1948.64 159.104 1953.73 159.104 Q1958.82 159.104 1961.79 155.307 Q1964.77 151.511 1964.77 144.983 Q1964.77 138.432 1961.79 134.636 Q1958.82 130.84 1953.73 130.84 M1953.73 127.044 Q1961 127.044 1965.35 131.928 Q1969.7 136.789 1969.7 144.983 Q1969.7 153.155 1965.35 158.039 Q1961 162.9 1953.73 162.9 Q1946.44 162.9 1942.06 158.039 Q1937.71 153.178 1937.71 144.983 Q1937.71 136.789 1942.06 131.928 Q1946.44 127.044 1953.73 127.044 Z" fill="#000000" fill-rule="nonzero" fill-opacity="1" /><path clip-path="url(#clip840)" d="M1997.74 128.803 L1997.74 133.363 Q1995.07 132.09 1992.71 131.465 Q1990.35 130.84 1988.15 130.84 Q1984.33 130.84 1982.25 132.321 Q1980.19 133.803 1980.19 136.534 Q1980.19 138.826 1981.56 140.007 Q1982.94 141.164 1986.79 141.882 L1989.61 142.46 Q1994.84 143.456 1997.32 145.979 Q1999.82 148.479 1999.82 152.692 Q1999.82 157.715 1996.44 160.307 Q1993.08 162.9 1986.58 162.9 Q1984.12 162.9 1981.35 162.344 Q1978.59 161.789 1975.63 160.701 L1975.63 155.886 Q1978.48 157.483 1981.21 158.293 Q1983.94 159.104 1986.58 159.104 Q1990.58 159.104 1992.76 157.53 Q1994.93 155.956 1994.93 153.039 Q1994.93 150.493 1993.36 149.057 Q1991.81 147.622 1988.24 146.905 L1985.4 146.349 Q1980.17 145.307 1977.83 143.085 Q1975.49 140.863 1975.49 136.905 Q1975.49 132.321 1978.71 129.682 Q1981.95 127.044 1987.62 127.044 Q1990.05 127.044 1992.57 127.483 Q1995.1 127.923 1997.74 128.803 Z" fill="#000000" fill-rule="nonzero" fill-opacity="1" /><path clip-path="url(#clip840)" d="M2021.55 151.997 L2021.55 136.303 L2025.81 136.303 L2025.81 151.835 Q2025.81 155.516 2027.25 157.368 Q2028.68 159.196 2031.55 159.196 Q2035 159.196 2036.99 156.997 Q2039.01 154.798 2039.01 151.002 L2039.01 136.303 L2043.27 136.303 L2043.27 162.229 L2039.01 162.229 L2039.01 158.247 Q2037.46 160.608 2035.4 161.766 Q2033.36 162.9 2030.65 162.9 Q2026.18 162.9 2023.87 160.122 Q2021.55 157.344 2021.55 151.997 M2032.27 135.678 L2032.27 135.678 Z" fill="#000000" fill-rule="nonzero" fill-opacity="1" /><path clip-path="url(#clip840)" d="M2056.16 158.34 L2056.16 172.09 L2051.88 172.09 L2051.88 136.303 L2056.16 136.303 L2056.16 140.238 Q2057.5 137.923 2059.54 136.812 Q2061.6 135.678 2064.45 135.678 Q2069.17 135.678 2072.11 139.428 Q2075.07 143.178 2075.07 149.289 Q2075.07 155.4 2072.11 159.15 Q2069.17 162.9 2064.45 162.9 Q2061.6 162.9 2059.54 161.789 Q2057.5 160.655 2056.16 158.34 M2070.65 149.289 Q2070.65 144.59 2068.71 141.928 Q2066.79 139.243 2063.41 139.243 Q2060.03 139.243 2058.08 141.928 Q2056.16 144.59 2056.16 149.289 Q2056.16 153.988 2058.08 156.673 Q2060.03 159.335 2063.41 159.335 Q2066.79 159.335 2068.71 156.673 Q2070.65 153.988 2070.65 149.289 Z" fill="#000000" fill-rule="nonzero" fill-opacity="1" /><path clip-path="url(#clip840)" d="M2113.73 137.067 L2113.73 141.094 Q2111.92 140.169 2109.98 139.706 Q2108.04 139.243 2105.95 139.243 Q2102.78 139.243 2101.18 140.215 Q2099.61 141.187 2099.61 143.131 Q2099.61 144.613 2100.74 145.469 Q2101.88 146.303 2105.3 147.067 L2106.76 147.391 Q2111.3 148.363 2113.2 150.145 Q2115.12 151.905 2115.12 155.076 Q2115.12 158.687 2112.25 160.793 Q2109.4 162.9 2104.4 162.9 Q2102.32 162.9 2100.05 162.483 Q2097.8 162.09 2095.3 161.28 L2095.3 156.881 Q2097.67 158.108 2099.96 158.733 Q2102.25 159.335 2104.49 159.335 Q2107.5 159.335 2109.12 158.317 Q2110.74 157.275 2110.74 155.4 Q2110.74 153.664 2109.56 152.738 Q2108.41 151.812 2104.45 150.956 L2102.97 150.608 Q2099.01 149.775 2097.25 148.062 Q2095.49 146.326 2095.49 143.317 Q2095.49 139.659 2098.08 137.669 Q2100.67 135.678 2105.44 135.678 Q2107.8 135.678 2109.89 136.025 Q2111.97 136.372 2113.73 137.067 Z" fill="#000000" fill-rule="nonzero" fill-opacity="1" /><path clip-path="url(#clip840)" d="M2126.02 158.34 L2126.02 172.09 L2121.74 172.09 L2121.74 136.303 L2126.02 136.303 L2126.02 140.238 Q2127.36 137.923 2129.4 136.812 Q2131.46 135.678 2134.31 135.678 Q2139.03 135.678 2141.97 139.428 Q2144.93 143.178 2144.93 149.289 Q2144.93 155.4 2141.97 159.15 Q2139.03 162.9 2134.31 162.9 Q2131.46 162.9 2129.4 161.789 Q2127.36 160.655 2126.02 158.34 M2140.51 149.289 Q2140.51 144.59 2138.57 141.928 Q2136.65 139.243 2133.27 139.243 Q2129.89 139.243 2127.94 141.928 Q2126.02 144.59 2126.02 149.289 Q2126.02 153.988 2127.94 156.673 Q2129.89 159.335 2133.27 159.335 Q2136.65 159.335 2138.57 156.673 Q2140.51 153.988 2140.51 149.289 Z" fill="#000000" fill-rule="nonzero" fill-opacity="1" /><path clip-path="url(#clip840)" d="M2151.99 136.303 L2156.25 136.303 L2156.25 162.229 L2151.99 162.229 L2151.99 136.303 M2151.99 126.21 L2156.25 126.21 L2156.25 131.604 L2151.99 131.604 L2151.99 126.21 Z" fill="#000000" fill-rule="nonzero" fill-opacity="1" /><path clip-path="url(#clip840)" d="M2186.72 146.581 L2186.72 162.229 L2182.46 162.229 L2182.46 146.719 Q2182.46 143.039 2181.02 141.21 Q2179.59 139.382 2176.72 139.382 Q2173.27 139.382 2171.28 141.581 Q2169.29 143.78 2169.29 147.576 L2169.29 162.229 L2165 162.229 L2165 136.303 L2169.29 136.303 L2169.29 140.331 Q2170.81 137.993 2172.87 136.835 Q2174.96 135.678 2177.67 135.678 Q2182.13 135.678 2184.42 138.456 Q2186.72 141.21 2186.72 146.581 Z" fill="#000000" fill-rule="nonzero" fill-opacity="1" /><polyline clip-path="url(#clip840)" style="stroke:#ff0000; stroke-linecap:round; stroke-linejoin:round; stroke-width:4; stroke-opacity:1; fill:none" points="1731.24,196.789 1878.63,196.789 "/>
<path clip-path="url(#clip840)" d="M1907.88 183.351 L1907.88 210.226 L1913.52 210.226 Q1920.68 210.226 1923.99 206.985 Q1927.32 203.745 1927.32 196.754 Q1927.32 189.809 1923.99 186.592 Q1920.68 183.351 1913.52 183.351 L1907.88 183.351 M1903.2 179.509 L1912.81 179.509 Q1922.85 179.509 1927.55 183.698 Q1932.25 187.865 1932.25 196.754 Q1932.25 205.689 1927.53 209.879 Q1922.81 214.069 1912.81 214.069 L1903.2 214.069 L1903.2 179.509 Z" fill="#000000" fill-rule="nonzero" fill-opacity="1" /><path clip-path="url(#clip840)" d="M1953.73 182.68 Q1948.64 182.68 1945.63 186.476 Q1942.64 190.272 1942.64 196.823 Q1942.64 203.351 1945.63 207.147 Q1948.64 210.944 1953.73 210.944 Q1958.82 210.944 1961.79 207.147 Q1964.77 203.351 1964.77 196.823 Q1964.77 190.272 1961.79 186.476 Q1958.82 182.68 1953.73 182.68 M1953.73 178.884 Q1961 178.884 1965.35 183.768 Q1969.7 188.629 1969.7 196.823 Q1969.7 204.995 1965.35 209.879 Q1961 214.74 1953.73 214.74 Q1946.44 214.74 1942.06 209.879 Q1937.71 205.018 1937.71 196.823 Q1937.71 188.629 1942.06 183.768 Q1946.44 178.884 1953.73 178.884 Z" fill="#000000" fill-rule="nonzero" fill-opacity="1" /><path clip-path="url(#clip840)" d="M1997.74 180.643 L1997.74 185.203 Q1995.07 183.93 1992.71 183.305 Q1990.35 182.68 1988.15 182.68 Q1984.33 182.68 1982.25 184.161 Q1980.19 185.643 1980.19 188.374 Q1980.19 190.666 1981.56 191.847 Q1982.94 193.004 1986.79 193.722 L1989.61 194.3 Q1994.84 195.296 1997.32 197.819 Q1999.82 200.319 1999.82 204.532 Q1999.82 209.555 1996.44 212.147 Q1993.08 214.74 1986.58 214.74 Q1984.12 214.74 1981.35 214.184 Q1978.59 213.629 1975.63 212.541 L1975.63 207.726 Q1978.48 209.323 1981.21 210.133 Q1983.94 210.944 1986.58 210.944 Q1990.58 210.944 1992.76 209.37 Q1994.93 207.796 1994.93 204.879 Q1994.93 202.333 1993.36 200.897 Q1991.81 199.462 1988.24 198.745 L1985.4 198.189 Q1980.17 197.147 1977.83 194.925 Q1975.49 192.703 1975.49 188.745 Q1975.49 184.161 1978.71 181.522 Q1981.95 178.884 1987.62 178.884 Q1990.05 178.884 1992.57 179.323 Q1995.1 179.763 1997.74 180.643 Z" fill="#000000" fill-rule="nonzero" fill-opacity="1" /><path clip-path="url(#clip840)" d="M2039.05 192.078 L2039.05 178.05 L2043.31 178.05 L2043.31 214.069 L2039.05 214.069 L2039.05 210.18 Q2037.71 212.495 2035.65 213.629 Q2033.62 214.74 2030.74 214.74 Q2026.05 214.74 2023.08 210.99 Q2020.14 207.24 2020.14 201.129 Q2020.14 195.018 2023.08 191.268 Q2026.05 187.518 2030.74 187.518 Q2033.62 187.518 2035.65 188.652 Q2037.71 189.763 2039.05 192.078 M2024.54 201.129 Q2024.54 205.828 2026.46 208.513 Q2028.41 211.175 2031.79 211.175 Q2035.17 211.175 2037.11 208.513 Q2039.05 205.828 2039.05 201.129 Q2039.05 196.43 2037.11 193.768 Q2035.17 191.083 2031.79 191.083 Q2028.41 191.083 2026.46 193.768 Q2024.54 196.43 2024.54 201.129 Z" fill="#000000" fill-rule="nonzero" fill-opacity="1" /><path clip-path="url(#clip840)" d="M2062.13 191.129 Q2058.71 191.129 2056.72 193.814 Q2054.73 196.476 2054.73 201.129 Q2054.73 205.782 2056.69 208.467 Q2058.68 211.129 2062.13 211.129 Q2065.54 211.129 2067.53 208.444 Q2069.52 205.758 2069.52 201.129 Q2069.52 196.522 2067.53 193.837 Q2065.54 191.129 2062.13 191.129 M2062.13 187.518 Q2067.69 187.518 2070.86 191.129 Q2074.03 194.74 2074.03 201.129 Q2074.03 207.495 2070.86 211.129 Q2067.69 214.74 2062.13 214.74 Q2056.55 214.74 2053.38 211.129 Q2050.24 207.495 2050.24 201.129 Q2050.24 194.74 2053.38 191.129 Q2056.55 187.518 2062.13 187.518 Z" fill="#000000" fill-rule="nonzero" fill-opacity="1" /><path clip-path="url(#clip840)" d="M2078.61 188.143 L2082.87 188.143 L2088.2 208.374 L2093.5 188.143 L2098.52 188.143 L2103.85 208.374 L2109.15 188.143 L2113.41 188.143 L2106.62 214.069 L2101.6 214.069 L2096.02 192.819 L2090.42 214.069 L2085.4 214.069 L2078.61 188.143 Z" fill="#000000" fill-rule="nonzero" fill-opacity="1" /><path clip-path="url(#clip840)" d="M2141.42 198.421 L2141.42 214.069 L2137.16 214.069 L2137.16 198.559 Q2137.16 194.879 2135.72 193.05 Q2134.29 191.222 2131.42 191.222 Q2127.97 191.222 2125.98 193.421 Q2123.98 195.62 2123.98 199.416 L2123.98 214.069 L2119.7 214.069 L2119.7 188.143 L2123.98 188.143 L2123.98 192.171 Q2125.51 189.833 2127.57 188.675 Q2129.66 187.518 2132.36 187.518 Q2136.83 187.518 2139.12 190.296 Q2141.42 193.05 2141.42 198.421 Z" fill="#000000" fill-rule="nonzero" fill-opacity="1" /><path clip-path="url(#clip840)" d="M2181.51 188.907 L2181.51 192.934 Q2179.7 192.009 2177.76 191.546 Q2175.81 191.083 2173.73 191.083 Q2170.56 191.083 2168.96 192.055 Q2167.39 193.027 2167.39 194.971 Q2167.39 196.453 2168.52 197.309 Q2169.66 198.143 2173.08 198.907 L2174.54 199.231 Q2179.08 200.203 2180.98 201.985 Q2182.9 203.745 2182.9 206.916 Q2182.9 210.527 2180.03 212.633 Q2177.18 214.74 2172.18 214.74 Q2170.1 214.74 2167.83 214.323 Q2165.58 213.93 2163.08 213.12 L2163.08 208.721 Q2165.44 209.948 2167.73 210.573 Q2170.03 211.175 2172.27 211.175 Q2175.28 211.175 2176.9 210.157 Q2178.52 209.115 2178.52 207.24 Q2178.52 205.504 2177.34 204.578 Q2176.18 203.652 2172.23 202.796 L2170.74 202.448 Q2166.79 201.615 2165.03 199.902 Q2163.27 198.166 2163.27 195.157 Q2163.27 191.499 2165.86 189.509 Q2168.45 187.518 2173.22 187.518 Q2175.58 187.518 2177.67 187.865 Q2179.75 188.212 2181.51 188.907 Z" fill="#000000" fill-rule="nonzero" fill-opacity="1" /><path clip-path="url(#clip840)" d="M2193.8 210.18 L2193.8 223.93 L2189.52 223.93 L2189.52 188.143 L2193.8 188.143 L2193.8 192.078 Q2195.14 189.763 2197.18 188.652 Q2199.24 187.518 2202.09 187.518 Q2206.81 187.518 2209.75 191.268 Q2212.71 195.018 2212.71 201.129 Q2212.71 207.24 2209.75 210.99 Q2206.81 214.74 2202.09 214.74 Q2199.24 214.74 2197.18 213.629 Q2195.14 212.495 2193.8 210.18 M2208.29 201.129 Q2208.29 196.43 2206.35 193.768 Q2204.42 191.083 2201.04 191.083 Q2197.67 191.083 2195.72 193.768 Q2193.8 196.43 2193.8 201.129 Q2193.8 205.828 2195.72 208.513 Q2197.67 211.175 2201.04 211.175 Q2204.42 211.175 2206.35 208.513 Q2208.29 205.828 2208.29 201.129 Z" fill="#000000" fill-rule="nonzero" fill-opacity="1" /><path clip-path="url(#clip840)" d="M2219.77 188.143 L2224.03 188.143 L2224.03 214.069 L2219.77 214.069 L2219.77 188.143 M2219.77 178.05 L2224.03 178.05 L2224.03 183.444 L2219.77 183.444 L2219.77 178.05 Z" fill="#000000" fill-rule="nonzero" fill-opacity="1" /><path clip-path="url(#clip840)" d="M2254.49 198.421 L2254.49 214.069 L2250.23 214.069 L2250.23 198.559 Q2250.23 194.879 2248.8 193.05 Q2247.36 191.222 2244.49 191.222 Q2241.04 191.222 2239.05 193.421 Q2237.06 195.62 2237.06 199.416 L2237.06 214.069 L2232.78 214.069 L2232.78 188.143 L2237.06 188.143 L2237.06 192.171 Q2238.59 189.833 2240.65 188.675 Q2242.73 187.518 2245.44 187.518 Q2249.91 187.518 2252.2 190.296 Q2254.49 193.05 2254.49 198.421 Z" fill="#000000" fill-rule="nonzero" fill-opacity="1" /><polyline clip-path="url(#clip840)" style="stroke:#008000; stroke-linecap:round; stroke-linejoin:round; stroke-width:6; stroke-opacity:1; fill:none" points="1731.24,248.629 1878.63,248.629 "/>
<path clip-path="url(#clip840)" d="M1909.26 251.927 Q1906.67 251.372 1905.28 249.867 Q1903.89 248.386 1903.89 246.233 Q1903.89 242.969 1906.53 241.14 Q1909.15 239.335 1913.69 239.335 Q1915.44 239.335 1917.41 239.612 Q1919.38 239.89 1921.65 240.446 L1921.65 244.312 Q1919.4 243.64 1917.55 243.339 Q1915.68 243.038 1914.03 243.038 Q1911.28 243.038 1909.68 244.103 Q1908.06 245.168 1908.06 246.649 Q1908.06 248.27 1909.63 249.311 Q1911.19 250.33 1913.87 250.33 L1917.46 250.33 L1917.46 253.848 L1914.03 253.848 Q1910.86 253.848 1909.19 255.029 Q1907.39 256.325 1907.39 258.362 Q1907.39 260.446 1909.33 261.742 Q1911.3 263.038 1914.8 263.038 Q1916.95 263.038 1918.92 262.622 Q1920.88 262.182 1922.53 261.325 L1922.53 265.284 Q1920.44 265.932 1918.5 266.256 Q1916.53 266.58 1914.68 266.58 Q1909.17 266.58 1906.19 264.473 Q1903.2 262.367 1903.2 258.362 Q1903.2 255.862 1904.8 254.173 Q1906.39 252.483 1909.26 251.927 Z" fill="#000000" fill-rule="nonzero" fill-opacity="1" /><path clip-path="url(#clip840)" d="M1930.4 231.349 L1950.26 231.349 L1950.26 235.284 L1935.07 235.284 L1935.07 245.469 L1948.78 245.469 L1948.78 249.404 L1935.07 249.404 L1935.07 265.909 L1930.4 265.909 L1930.4 231.349 Z" fill="#000000" fill-rule="nonzero" fill-opacity="1" /></svg>
