<?xml version="1.0" encoding="utf-8"?>
<svg xmlns="http://www.w3.org/2000/svg" xmlns:xlink="http://www.w3.org/1999/xlink" width="600" height="400" viewBox="0 0 2400 1600">
<defs>
  <clipPath id="clip050">
    <rect x="0" y="0" width="2400" height="1600"/>
  </clipPath>
</defs>
<path clip-path="url(#clip050)" d="M0 1600 L2400 1600 L2400 0 L0 0  Z" fill="#ffffff" fill-rule="evenodd" fill-opacity="1"/>
<defs>
  <clipPath id="clip051">
    <rect x="480" y="0" width="1681" height="1600"/>
  </clipPath>
</defs>
<path clip-path="url(#clip050)" d="M189.496 1486.45 L2352.76 1486.45 L2352.76 47.2441 L189.496 47.2441  Z" fill="#ffffff" fill-rule="evenodd" fill-opacity="1"/>
<defs>
  <clipPath id="clip052">
    <rect x="189" y="47" width="2164" height="1440"/>
  </clipPath>
</defs>
<polyline clip-path="url(#clip052)" style="stroke:#000000; stroke-linecap:round; stroke-linejoin:round; stroke-width:2; stroke-opacity:0.1; fill:none" points="542.265,1486.45 542.265,47.2441 "/>
<polyline clip-path="url(#clip052)" style="stroke:#000000; stroke-linecap:round; stroke-linejoin:round; stroke-width:2; stroke-opacity:0.1; fill:none" points="1125.35,1486.45 1125.35,47.2441 "/>
<polyline clip-path="url(#clip052)" style="stroke:#000000; stroke-linecap:round; stroke-linejoin:round; stroke-width:2; stroke-opacity:0.1; fill:none" points="1708.44,1486.45 1708.44,47.2441 "/>
<polyline clip-path="url(#clip052)" style="stroke:#000000; stroke-linecap:round; stroke-linejoin:round; stroke-width:2; stroke-opacity:0.1; fill:none" points="2291.53,1486.45 2291.53,47.2441 "/>
<polyline clip-path="url(#clip050)" style="stroke:#000000; stroke-linecap:round; stroke-linejoin:round; stroke-width:4; stroke-opacity:1; fill:none" points="189.496,1486.45 2352.76,1486.45 "/>
<polyline clip-path="url(#clip050)" style="stroke:#000000; stroke-linecap:round; stroke-linejoin:round; stroke-width:4; stroke-opacity:1; fill:none" points="542.265,1486.45 542.265,1467.55 "/>
<polyline clip-path="url(#clip050)" style="stroke:#000000; stroke-linecap:round; stroke-linejoin:round; stroke-width:4; stroke-opacity:1; fill:none" points="1125.35,1486.45 1125.35,1467.55 "/>
<polyline clip-path="url(#clip050)" style="stroke:#000000; stroke-linecap:round; stroke-linejoin:round; stroke-width:4; stroke-opacity:1; fill:none" points="1708.44,1486.45 1708.44,1467.55 "/>
<polyline clip-path="url(#clip050)" style="stroke:#000000; stroke-linecap:round; stroke-linejoin:round; stroke-width:4; stroke-opacity:1; fill:none" points="2291.53,1486.45 2291.53,1467.55 "/>
<path clip-path="url(#clip050)" d="M536.918 1544.91 L553.237 1544.91 L553.237 1548.85 L531.293 1548.85 L531.293 1544.91 Q533.955 1542.16 538.538 1537.53 Q543.144 1532.88 544.325 1531.53 Q546.57 1529.01 547.45 1527.27 Q548.353 1525.51 548.353 1523.82 Q548.353 1521.07 546.408 1519.33 Q544.487 1517.6 541.385 1517.6 Q539.186 1517.6 536.732 1518.36 Q534.302 1519.13 531.524 1520.68 L531.524 1515.95 Q534.348 1514.82 536.802 1514.24 Q539.255 1513.66 541.293 1513.66 Q546.663 1513.66 549.857 1516.35 Q553.052 1519.03 553.052 1523.52 Q553.052 1525.65 552.242 1527.57 Q551.454 1529.47 549.348 1532.07 Q548.769 1532.74 545.667 1535.95 Q542.566 1539.15 536.918 1544.91 Z" fill="#000000" fill-rule="nonzero" fill-opacity="1" /><path clip-path="url(#clip050)" d="M1128.36 1518.36 L1116.56 1536.81 L1128.36 1536.81 L1128.36 1518.36 M1127.14 1514.29 L1133.02 1514.29 L1133.02 1536.81 L1137.95 1536.81 L1137.95 1540.7 L1133.02 1540.7 L1133.02 1548.85 L1128.36 1548.85 L1128.36 1540.7 L1112.76 1540.7 L1112.76 1536.19 L1127.14 1514.29 Z" fill="#000000" fill-rule="nonzero" fill-opacity="1" /><path clip-path="url(#clip050)" d="M1708.85 1529.7 Q1705.7 1529.7 1703.85 1531.86 Q1702.02 1534.01 1702.02 1537.76 Q1702.02 1541.49 1703.85 1543.66 Q1705.7 1545.82 1708.85 1545.82 Q1712 1545.82 1713.82 1543.66 Q1715.68 1541.49 1715.68 1537.76 Q1715.68 1534.01 1713.82 1531.86 Q1712 1529.7 1708.85 1529.7 M1718.13 1515.05 L1718.13 1519.31 Q1716.37 1518.48 1714.57 1518.04 Q1712.78 1517.6 1711.02 1517.6 Q1706.39 1517.6 1703.94 1520.72 Q1701.51 1523.85 1701.16 1530.17 Q1702.53 1528.15 1704.59 1527.09 Q1706.65 1526 1709.13 1526 Q1714.33 1526 1717.34 1529.17 Q1720.38 1532.32 1720.38 1537.76 Q1720.38 1543.08 1717.23 1546.3 Q1714.08 1549.52 1708.85 1549.52 Q1702.85 1549.52 1699.68 1544.94 Q1696.51 1540.33 1696.51 1531.6 Q1696.51 1523.41 1700.4 1518.55 Q1704.29 1513.66 1710.84 1513.66 Q1712.6 1513.66 1714.38 1514.01 Q1716.19 1514.36 1718.13 1515.05 Z" fill="#000000" fill-rule="nonzero" fill-opacity="1" /><path clip-path="url(#clip050)" d="M2291.53 1532.44 Q2288.2 1532.44 2286.28 1534.22 Q2284.38 1536 2284.38 1539.13 Q2284.38 1542.25 2286.28 1544.03 Q2288.2 1545.82 2291.53 1545.82 Q2294.86 1545.82 2296.79 1544.03 Q2298.71 1542.23 2298.71 1539.13 Q2298.71 1536 2296.79 1534.22 Q2294.89 1532.44 2291.53 1532.44 M2286.86 1530.45 Q2283.85 1529.7 2282.16 1527.64 Q2280.49 1525.58 2280.49 1522.62 Q2280.49 1518.48 2283.43 1516.07 Q2286.39 1513.66 2291.53 1513.66 Q2296.69 1513.66 2299.63 1516.07 Q2302.57 1518.48 2302.57 1522.62 Q2302.57 1525.58 2300.88 1527.64 Q2299.22 1529.7 2296.23 1530.45 Q2299.61 1531.23 2301.49 1533.52 Q2303.38 1535.82 2303.38 1539.13 Q2303.38 1544.15 2300.3 1546.83 Q2297.25 1549.52 2291.53 1549.52 Q2285.81 1549.52 2282.74 1546.83 Q2279.68 1544.15 2279.68 1539.13 Q2279.68 1535.82 2281.58 1533.52 Q2283.48 1531.23 2286.86 1530.45 M2285.14 1523.06 Q2285.14 1525.75 2286.81 1527.25 Q2288.5 1528.76 2291.53 1528.76 Q2294.54 1528.76 2296.23 1527.25 Q2297.94 1525.75 2297.94 1523.06 Q2297.94 1520.38 2296.23 1518.87 Q2294.54 1517.37 2291.53 1517.37 Q2288.5 1517.37 2286.81 1518.87 Q2285.14 1520.38 2285.14 1523.06 Z" fill="#000000" fill-rule="nonzero" fill-opacity="1" /><polyline clip-path="url(#clip052)" style="stroke:#000000; stroke-linecap:round; stroke-linejoin:round; stroke-width:2; stroke-opacity:0.1; fill:none" points="189.496,1240.39 2352.76,1240.39 "/>
<polyline clip-path="url(#clip052)" style="stroke:#000000; stroke-linecap:round; stroke-linejoin:round; stroke-width:2; stroke-opacity:0.1; fill:none" points="189.496,954.905 2352.76,954.905 "/>
<polyline clip-path="url(#clip052)" style="stroke:#000000; stroke-linecap:round; stroke-linejoin:round; stroke-width:2; stroke-opacity:0.1; fill:none" points="189.496,669.422 2352.76,669.422 "/>
<polyline clip-path="url(#clip052)" style="stroke:#000000; stroke-linecap:round; stroke-linejoin:round; stroke-width:2; stroke-opacity:0.1; fill:none" points="189.496,383.938 2352.76,383.938 "/>
<polyline clip-path="url(#clip052)" style="stroke:#000000; stroke-linecap:round; stroke-linejoin:round; stroke-width:2; stroke-opacity:0.1; fill:none" points="189.496,98.4553 2352.76,98.4553 "/>
<polyline clip-path="url(#clip050)" style="stroke:#000000; stroke-linecap:round; stroke-linejoin:round; stroke-width:4; stroke-opacity:1; fill:none" points="189.496,1486.45 189.496,47.2441 "/>
<polyline clip-path="url(#clip050)" style="stroke:#000000; stroke-linecap:round; stroke-linejoin:round; stroke-width:4; stroke-opacity:1; fill:none" points="189.496,1240.39 208.394,1240.39 "/>
<polyline clip-path="url(#clip050)" style="stroke:#000000; stroke-linecap:round; stroke-linejoin:round; stroke-width:4; stroke-opacity:1; fill:none" points="189.496,954.905 208.394,954.905 "/>
<polyline clip-path="url(#clip050)" style="stroke:#000000; stroke-linecap:round; stroke-linejoin:round; stroke-width:4; stroke-opacity:1; fill:none" points="189.496,669.422 208.394,669.422 "/>
<polyline clip-path="url(#clip050)" style="stroke:#000000; stroke-linecap:round; stroke-linejoin:round; stroke-width:4; stroke-opacity:1; fill:none" points="189.496,383.938 208.394,383.938 "/>
<polyline clip-path="url(#clip050)" style="stroke:#000000; stroke-linecap:round; stroke-linejoin:round; stroke-width:4; stroke-opacity:1; fill:none" points="189.496,98.4553 208.394,98.4553 "/>
<path clip-path="url(#clip050)" d="M51.6634 1260.18 L59.3023 1260.18 L59.3023 1233.81 L50.9921 1235.48 L50.9921 1231.22 L59.256 1229.56 L63.9319 1229.56 L63.9319 1260.18 L71.5707 1260.18 L71.5707 1264.12 L51.6634 1264.12 L51.6634 1260.18 Z" fill="#000000" fill-rule="nonzero" fill-opacity="1" /><path clip-path="url(#clip050)" d="M91.0151 1232.63 Q87.404 1232.63 85.5753 1236.2 Q83.7697 1239.74 83.7697 1246.87 Q83.7697 1253.98 85.5753 1257.54 Q87.404 1261.08 91.0151 1261.08 Q94.6493 1261.08 96.4548 1257.54 Q98.2835 1253.98 98.2835 1246.87 Q98.2835 1239.74 96.4548 1236.2 Q94.6493 1232.63 91.0151 1232.63 M91.0151 1228.93 Q96.8252 1228.93 99.8808 1233.54 Q102.959 1238.12 102.959 1246.87 Q102.959 1255.6 99.8808 1260.2 Q96.8252 1264.79 91.0151 1264.79 Q85.2049 1264.79 82.1262 1260.2 Q79.0707 1255.6 79.0707 1246.87 Q79.0707 1238.12 82.1262 1233.54 Q85.2049 1228.93 91.0151 1228.93 Z" fill="#000000" fill-rule="nonzero" fill-opacity="1" /><path clip-path="url(#clip050)" d="M102.959 1223.03 L127.071 1223.03 L127.071 1226.23 L102.959 1226.23 L102.959 1223.03 Z" fill="#000000" fill-rule="nonzero" fill-opacity="1" /><path clip-path="url(#clip050)" d="M145.71 1211.94 L136.118 1226.93 L145.71 1226.93 L145.71 1211.94 M144.713 1208.63 L149.49 1208.63 L149.49 1226.93 L153.496 1226.93 L153.496 1230.08 L149.49 1230.08 L149.49 1236.71 L145.71 1236.71 L145.71 1230.08 L133.033 1230.08 L133.033 1226.42 L144.713 1208.63 Z" fill="#000000" fill-rule="nonzero" fill-opacity="1" /><path clip-path="url(#clip050)" d="M52.585 974.697 L60.2238 974.697 L60.2238 948.332 L51.9137 949.998 L51.9137 945.739 L60.1776 944.072 L64.8535 944.072 L64.8535 974.697 L72.4923 974.697 L72.4923 978.632 L52.585 978.632 L52.585 974.697 Z" fill="#000000" fill-rule="nonzero" fill-opacity="1" /><path clip-path="url(#clip050)" d="M91.9366 947.151 Q88.3255 947.151 86.4969 950.716 Q84.6913 954.258 84.6913 961.387 Q84.6913 968.494 86.4969 972.058 Q88.3255 975.6 91.9366 975.6 Q95.5709 975.6 97.3764 972.058 Q99.2051 968.494 99.2051 961.387 Q99.2051 954.258 97.3764 950.716 Q95.5709 947.151 91.9366 947.151 M91.9366 943.447 Q97.7468 943.447 100.802 948.054 Q103.881 952.637 103.881 961.387 Q103.881 970.114 100.802 974.72 Q97.7468 979.304 91.9366 979.304 Q86.1265 979.304 83.0478 974.72 Q79.9923 970.114 79.9923 961.387 Q79.9923 952.637 83.0478 948.054 Q86.1265 943.447 91.9366 943.447 Z" fill="#000000" fill-rule="nonzero" fill-opacity="1" /><path clip-path="url(#clip050)" d="M103.881 937.549 L127.993 937.549 L127.993 940.746 L103.881 940.746 L103.881 937.549 Z" fill="#000000" fill-rule="nonzero" fill-opacity="1" /><path clip-path="url(#clip050)" d="M147.703 936.082 Q150.43 936.665 151.954 938.508 Q153.496 940.351 153.496 943.059 Q153.496 947.216 150.637 949.492 Q147.778 951.767 142.512 951.767 Q140.744 951.767 138.863 951.41 Q137.002 951.072 135.008 950.376 L135.008 946.708 Q136.588 947.63 138.469 948.1 Q140.349 948.57 142.399 948.57 Q145.973 948.57 147.835 947.16 Q149.716 945.749 149.716 943.059 Q149.716 940.577 147.966 939.185 Q146.236 937.774 143.133 937.774 L139.86 937.774 L139.86 934.652 L143.283 934.652 Q146.086 934.652 147.571 933.543 Q149.057 932.414 149.057 930.308 Q149.057 928.145 147.515 926.998 Q145.992 925.832 143.133 925.832 Q141.572 925.832 139.785 926.17 Q137.998 926.509 135.854 927.223 L135.854 923.838 Q138.017 923.236 139.898 922.935 Q141.797 922.634 143.471 922.634 Q147.797 922.634 150.317 924.609 Q152.838 926.565 152.838 929.913 Q152.838 932.245 151.502 933.862 Q150.167 935.461 147.703 936.082 Z" fill="#000000" fill-rule="nonzero" fill-opacity="1" /><path clip-path="url(#clip050)" d="M53.3561 689.214 L60.995 689.214 L60.995 662.849 L52.6848 664.515 L52.6848 660.256 L60.9487 658.589 L65.6246 658.589 L65.6246 689.214 L73.2634 689.214 L73.2634 693.149 L53.3561 693.149 L53.3561 689.214 Z" fill="#000000" fill-rule="nonzero" fill-opacity="1" /><path clip-path="url(#clip050)" d="M92.7078 661.668 Q89.0967 661.668 87.268 665.233 Q85.4624 668.774 85.4624 675.904 Q85.4624 683.01 87.268 686.575 Q89.0967 690.117 92.7078 690.117 Q96.342 690.117 98.1475 686.575 Q99.9762 683.01 99.9762 675.904 Q99.9762 668.774 98.1475 665.233 Q96.342 661.668 92.7078 661.668 M92.7078 657.964 Q98.5179 657.964 101.573 662.571 Q104.652 667.154 104.652 675.904 Q104.652 684.631 101.573 689.237 Q98.5179 693.821 92.7078 693.821 Q86.8976 693.821 83.8189 689.237 Q80.7634 684.631 80.7634 675.904 Q80.7634 667.154 83.8189 662.571 Q86.8976 657.964 92.7078 657.964 Z" fill="#000000" fill-rule="nonzero" fill-opacity="1" /><path clip-path="url(#clip050)" d="M104.652 652.066 L128.764 652.066 L128.764 655.263 L104.652 655.263 L104.652 652.066 Z" fill="#000000" fill-rule="nonzero" fill-opacity="1" /><path clip-path="url(#clip050)" d="M140.236 662.542 L153.496 662.542 L153.496 665.739 L135.666 665.739 L135.666 662.542 Q137.829 660.303 141.553 656.542 Q145.296 652.762 146.255 651.671 Q148.079 649.621 148.794 648.21 Q149.527 646.781 149.527 645.408 Q149.527 643.17 147.948 641.759 Q146.387 640.348 143.866 640.348 Q142.08 640.348 140.086 640.969 Q138.111 641.59 135.854 642.85 L135.854 639.013 Q138.149 638.091 140.142 637.621 Q142.136 637.151 143.791 637.151 Q148.155 637.151 150.75 639.333 Q153.345 641.514 153.345 645.163 Q153.345 646.893 152.687 648.455 Q152.048 649.997 150.336 652.103 Q149.866 652.649 147.346 655.263 Q144.826 657.858 140.236 662.542 Z" fill="#000000" fill-rule="nonzero" fill-opacity="1" /><path clip-path="url(#clip050)" d="M53.0552 403.731 L60.694 403.731 L60.694 377.365 L52.3839 379.032 L52.3839 374.773 L60.6477 373.106 L65.3236 373.106 L65.3236 403.731 L72.9625 403.731 L72.9625 407.666 L53.0552 407.666 L53.0552 403.731 Z" fill="#000000" fill-rule="nonzero" fill-opacity="1" /><path clip-path="url(#clip050)" d="M92.4068 376.185 Q88.7957 376.185 86.967 379.75 Q85.1615 383.291 85.1615 390.421 Q85.1615 397.527 86.967 401.092 Q88.7957 404.634 92.4068 404.634 Q96.0411 404.634 97.8466 401.092 Q99.6753 397.527 99.6753 390.421 Q99.6753 383.291 97.8466 379.75 Q96.0411 376.185 92.4068 376.185 M92.4068 372.481 Q98.217 372.481 101.273 377.088 Q104.351 381.671 104.351 390.421 Q104.351 399.148 101.273 403.754 Q98.217 408.337 92.4068 408.337 Q86.5967 408.337 83.518 403.754 Q80.4625 399.148 80.4625 390.421 Q80.4625 381.671 83.518 377.088 Q86.5967 372.481 92.4068 372.481 Z" fill="#000000" fill-rule="nonzero" fill-opacity="1" /><path clip-path="url(#clip050)" d="M104.351 366.582 L128.463 366.582 L128.463 369.78 L104.351 369.78 L104.351 366.582 Z" fill="#000000" fill-rule="nonzero" fill-opacity="1" /><path clip-path="url(#clip050)" d="M137.321 377.058 L143.528 377.058 L143.528 355.636 L136.776 356.99 L136.776 353.53 L143.49 352.176 L147.289 352.176 L147.289 377.058 L153.496 377.058 L153.496 380.256 L137.321 380.256 L137.321 377.058 Z" fill="#000000" fill-rule="nonzero" fill-opacity="1" /><path clip-path="url(#clip050)" d="M82.7903 118.248 L90.4291 118.248 L90.4291 91.8822 L82.119 93.5488 L82.119 89.2896 L90.3828 87.6229 L95.0587 87.6229 L95.0587 118.248 L102.698 118.248 L102.698 122.183 L82.7903 122.183 L82.7903 118.248 Z" fill="#000000" fill-rule="nonzero" fill-opacity="1" /><path clip-path="url(#clip050)" d="M122.142 90.7016 Q118.531 90.7016 116.702 94.2664 Q114.897 97.808 114.897 104.938 Q114.897 112.044 116.702 115.609 Q118.531 119.151 122.142 119.151 Q125.776 119.151 127.582 115.609 Q129.41 112.044 129.41 104.938 Q129.41 97.808 127.582 94.2664 Q125.776 90.7016 122.142 90.7016 M122.142 86.9979 Q127.952 86.9979 131.008 91.6044 Q134.086 96.1877 134.086 104.938 Q134.086 113.664 131.008 118.271 Q127.952 122.854 122.142 122.854 Q116.332 122.854 113.253 118.271 Q110.198 113.664 110.198 104.938 Q110.198 96.1877 113.253 91.6044 Q116.332 86.9979 122.142 86.9979 Z" fill="#000000" fill-rule="nonzero" fill-opacity="1" /><path clip-path="url(#clip050)" d="M143.791 69.1939 Q140.857 69.1939 139.371 72.0903 Q137.904 74.9679 137.904 80.7607 Q137.904 86.5347 139.371 89.4311 Q140.857 92.3087 143.791 92.3087 Q146.744 92.3087 148.211 89.4311 Q149.697 86.5347 149.697 80.7607 Q149.697 74.9679 148.211 72.0903 Q146.744 69.1939 143.791 69.1939 M143.791 66.1847 Q148.512 66.1847 150.994 69.9275 Q153.496 73.6514 153.496 80.7607 Q153.496 87.8513 150.994 91.594 Q148.512 95.3179 143.791 95.3179 Q139.07 95.3179 136.569 91.594 Q134.086 87.8513 134.086 80.7607 Q134.086 73.6514 136.569 69.9275 Q139.07 66.1847 143.791 66.1847 Z" fill="#000000" fill-rule="nonzero" fill-opacity="1" /><polyline clip-path="url(#clip052)" style="stroke:#009af9; stroke-linecap:round; stroke-linejoin:round; stroke-width:4; stroke-opacity:1; fill:none" points="250.72,87.9763 542.265,321.252 833.809,628.587 1125.35,725.733 1416.9,818.014 1708.44,1114.15 1999.99,1313.9 2291.53,1445.72 "/>
<line clip-path="url(#clip052)" x1="250.72" y1="87.9763" x2="234.72" y2="71.9763" style="stroke:#009af9; stroke-width:4; stroke-opacity:1"/>
<line clip-path="url(#clip052)" x1="250.72" y1="87.9763" x2="234.72" y2="103.976" style="stroke:#009af9; stroke-width:4; stroke-opacity:1"/>
<line clip-path="url(#clip052)" x1="250.72" y1="87.9763" x2="266.72" y2="103.976" style="stroke:#009af9; stroke-width:4; stroke-opacity:1"/>
<line clip-path="url(#clip052)" x1="250.72" y1="87.9763" x2="266.72" y2="71.9763" style="stroke:#009af9; stroke-width:4; stroke-opacity:1"/>
<line clip-path="url(#clip052)" x1="542.265" y1="321.252" x2="526.265" y2="305.252" style="stroke:#009af9; stroke-width:4; stroke-opacity:1"/>
<line clip-path="url(#clip052)" x1="542.265" y1="321.252" x2="526.265" y2="337.252" style="stroke:#009af9; stroke-width:4; stroke-opacity:1"/>
<line clip-path="url(#clip052)" x1="542.265" y1="321.252" x2="558.265" y2="337.252" style="stroke:#009af9; stroke-width:4; stroke-opacity:1"/>
<line clip-path="url(#clip052)" x1="542.265" y1="321.252" x2="558.265" y2="305.252" style="stroke:#009af9; stroke-width:4; stroke-opacity:1"/>
<line clip-path="url(#clip052)" x1="833.809" y1="628.587" x2="817.809" y2="612.587" style="stroke:#009af9; stroke-width:4; stroke-opacity:1"/>
<line clip-path="url(#clip052)" x1="833.809" y1="628.587" x2="817.809" y2="644.587" style="stroke:#009af9; stroke-width:4; stroke-opacity:1"/>
<line clip-path="url(#clip052)" x1="833.809" y1="628.587" x2="849.809" y2="644.587" style="stroke:#009af9; stroke-width:4; stroke-opacity:1"/>
<line clip-path="url(#clip052)" x1="833.809" y1="628.587" x2="849.809" y2="612.587" style="stroke:#009af9; stroke-width:4; stroke-opacity:1"/>
<line clip-path="url(#clip052)" x1="1125.35" y1="725.733" x2="1109.35" y2="709.733" style="stroke:#009af9; stroke-width:4; stroke-opacity:1"/>
<line clip-path="url(#clip052)" x1="1125.35" y1="725.733" x2="1109.35" y2="741.733" style="stroke:#009af9; stroke-width:4; stroke-opacity:1"/>
<line clip-path="url(#clip052)" x1="1125.35" y1="725.733" x2="1141.35" y2="741.733" style="stroke:#009af9; stroke-width:4; stroke-opacity:1"/>
<line clip-path="url(#clip052)" x1="1125.35" y1="725.733" x2="1141.35" y2="709.733" style="stroke:#009af9; stroke-width:4; stroke-opacity:1"/>
<line clip-path="url(#clip052)" x1="1416.9" y1="818.014" x2="1400.9" y2="802.014" style="stroke:#009af9; stroke-width:4; stroke-opacity:1"/>
<line clip-path="url(#clip052)" x1="1416.9" y1="818.014" x2="1400.9" y2="834.014" style="stroke:#009af9; stroke-width:4; stroke-opacity:1"/>
<line clip-path="url(#clip052)" x1="1416.9" y1="818.014" x2="1432.9" y2="834.014" style="stroke:#009af9; stroke-width:4; stroke-opacity:1"/>
<line clip-path="url(#clip052)" x1="1416.9" y1="818.014" x2="1432.9" y2="802.014" style="stroke:#009af9; stroke-width:4; stroke-opacity:1"/>
<line clip-path="url(#clip052)" x1="1708.44" y1="1114.15" x2="1692.44" y2="1098.15" style="stroke:#009af9; stroke-width:4; stroke-opacity:1"/>
<line clip-path="url(#clip052)" x1="1708.44" y1="1114.15" x2="1692.44" y2="1130.15" style="stroke:#009af9; stroke-width:4; stroke-opacity:1"/>
<line clip-path="url(#clip052)" x1="1708.44" y1="1114.15" x2="1724.44" y2="1130.15" style="stroke:#009af9; stroke-width:4; stroke-opacity:1"/>
<line clip-path="url(#clip052)" x1="1708.44" y1="1114.15" x2="1724.44" y2="1098.15" style="stroke:#009af9; stroke-width:4; stroke-opacity:1"/>
<line clip-path="url(#clip052)" x1="1999.99" y1="1313.9" x2="1983.99" y2="1297.9" style="stroke:#009af9; stroke-width:4; stroke-opacity:1"/>
<line clip-path="url(#clip052)" x1="1999.99" y1="1313.9" x2="1983.99" y2="1329.9" style="stroke:#009af9; stroke-width:4; stroke-opacity:1"/>
<line clip-path="url(#clip052)" x1="1999.99" y1="1313.9" x2="2015.99" y2="1329.9" style="stroke:#009af9; stroke-width:4; stroke-opacity:1"/>
<line clip-path="url(#clip052)" x1="1999.99" y1="1313.9" x2="2015.99" y2="1297.9" style="stroke:#009af9; stroke-width:4; stroke-opacity:1"/>
<line clip-path="url(#clip052)" x1="2291.53" y1="1445.72" x2="2275.53" y2="1429.72" style="stroke:#009af9; stroke-width:4; stroke-opacity:1"/>
<line clip-path="url(#clip052)" x1="2291.53" y1="1445.72" x2="2275.53" y2="1461.72" style="stroke:#009af9; stroke-width:4; stroke-opacity:1"/>
<line clip-path="url(#clip052)" x1="2291.53" y1="1445.72" x2="2307.53" y2="1461.72" style="stroke:#009af9; stroke-width:4; stroke-opacity:1"/>
<line clip-path="url(#clip052)" x1="2291.53" y1="1445.72" x2="2307.53" y2="1429.72" style="stroke:#009af9; stroke-width:4; stroke-opacity:1"/>
<path clip-path="url(#clip050)" d="M1816.13 198.898 L2280.65 198.898 L2280.65 95.2176 L1816.13 95.2176  Z" fill="#ffffff" fill-rule="evenodd" fill-opacity="1"/>
<polyline clip-path="url(#clip050)" style="stroke:#000000; stroke-linecap:round; stroke-linejoin:round; stroke-width:4; stroke-opacity:1; fill:none" points="1816.13,198.898 2280.65,198.898 2280.65,95.2176 1816.13,95.2176 1816.13,198.898 "/>
<polyline clip-path="url(#clip050)" style="stroke:#009af9; stroke-linecap:round; stroke-linejoin:round; stroke-width:4; stroke-opacity:1; fill:none" points="1840.16,147.058 1984.38,147.058 "/>
<line clip-path="url(#clip050)" x1="1912.27" y1="147.058" x2="1890.02" y2="124.802" style="stroke:#009af9; stroke-width:4.55111; stroke-opacity:1"/>
<line clip-path="url(#clip050)" x1="1912.27" y1="147.058" x2="1890.02" y2="169.313" style="stroke:#009af9; stroke-width:4.55111; stroke-opacity:1"/>
<line clip-path="url(#clip050)" x1="1912.27" y1="147.058" x2="1934.53" y2="169.313" style="stroke:#009af9; stroke-width:4.55111; stroke-opacity:1"/>
<line clip-path="url(#clip050)" x1="1912.27" y1="147.058" x2="1934.53" y2="124.802" style="stroke:#009af9; stroke-width:4.55111; stroke-opacity:1"/>
<path clip-path="url(#clip050)" d="M2012.35 128.111 L2012.35 175.518 L2008.42 175.518 L2008.42 128.111 L2012.35 128.111 Z" fill="#000000" fill-rule="nonzero" fill-opacity="1" /><path clip-path="url(#clip050)" d="M2024.76 143.041 Q2026.17 140.68 2029.67 138.597 Q2031.03 137.787 2035.25 137.787 Q2039.97 137.787 2042.91 141.537 Q2045.87 145.287 2045.87 151.398 Q2045.87 157.509 2042.91 161.259 Q2039.97 165.009 2035.25 165.009 Q2032.4 165.009 2030.34 163.898 Q2028.3 162.763 2026.96 160.449 L2026.96 174.199 L2022.68 174.199 L2022.68 151.629 Q2022.68 146.282 2024.76 143.041 M2041.45 151.398 Q2041.45 146.699 2039.51 144.037 Q2037.58 141.352 2034.2 141.352 Q2030.83 141.352 2028.88 144.037 Q2026.96 146.699 2026.96 151.398 Q2026.96 156.097 2028.88 158.782 Q2030.83 161.444 2034.2 161.444 Q2037.58 161.444 2039.51 158.782 Q2041.45 156.097 2041.45 151.398 Z" fill="#000000" fill-rule="nonzero" fill-opacity="1" /><path clip-path="url(#clip050)" d="M2062.98 141.398 Q2059.55 141.398 2057.56 144.083 Q2055.57 146.745 2055.57 151.398 Q2055.57 156.051 2057.54 158.736 Q2059.53 161.398 2062.98 161.398 Q2066.38 161.398 2068.37 158.713 Q2070.36 156.027 2070.36 151.398 Q2070.36 146.791 2068.37 144.106 Q2066.38 141.398 2062.98 141.398 M2062.98 137.787 Q2068.53 137.787 2071.7 141.398 Q2074.88 145.009 2074.88 151.398 Q2074.88 157.764 2071.7 161.398 Q2068.53 165.009 2062.98 165.009 Q2057.4 165.009 2054.23 161.398 Q2051.08 157.764 2051.08 151.398 Q2051.08 145.009 2054.23 141.398 Q2057.4 137.787 2062.98 137.787 Z" fill="#000000" fill-rule="nonzero" fill-opacity="1" /><path clip-path="url(#clip050)" d="M2081.5 154.106 L2081.5 138.412 L2085.76 138.412 L2085.76 153.944 Q2085.76 157.625 2087.19 159.476 Q2088.63 161.305 2091.5 161.305 Q2094.95 161.305 2096.94 159.106 Q2098.95 156.907 2098.95 153.111 L2098.95 138.412 L2103.21 138.412 L2103.21 164.338 L2098.95 164.338 L2098.95 160.356 Q2097.4 162.717 2095.34 163.875 Q2093.3 165.009 2090.59 165.009 Q2086.13 165.009 2083.81 162.231 Q2081.5 159.453 2081.5 154.106 M2092.21 137.787 L2092.21 137.787 Z" fill="#000000" fill-rule="nonzero" fill-opacity="1" /><path clip-path="url(#clip050)" d="M2116.2 131.051 L2116.2 138.412 L2124.97 138.412 L2124.97 141.722 L2116.2 141.722 L2116.2 155.796 Q2116.2 158.967 2117.05 159.87 Q2117.93 160.773 2120.59 160.773 L2124.97 160.773 L2124.97 164.338 L2120.59 164.338 Q2115.66 164.338 2113.79 162.509 Q2111.91 160.657 2111.91 155.796 L2111.91 141.722 L2108.79 141.722 L2108.79 138.412 L2111.91 138.412 L2111.91 131.051 L2116.2 131.051 Z" fill="#000000" fill-rule="nonzero" fill-opacity="1" /><path clip-path="url(#clip050)" d="M2143.49 149.453 L2155.96 149.453 L2155.96 153.25 L2143.49 153.25 L2143.49 149.453 Z" fill="#000000" fill-rule="nonzero" fill-opacity="1" /><path clip-path="url(#clip050)" d="M2179.74 143.041 Q2181.15 140.68 2184.64 138.597 Q2186.01 137.787 2190.22 137.787 Q2194.94 137.787 2197.88 141.537 Q2200.85 145.287 2200.85 151.398 Q2200.85 157.509 2197.88 161.259 Q2194.94 165.009 2190.22 165.009 Q2187.38 165.009 2185.32 163.898 Q2183.28 162.763 2181.94 160.449 L2181.94 174.199 L2177.65 174.199 L2177.65 151.629 Q2177.65 146.282 2179.74 143.041 M2196.43 151.398 Q2196.43 146.699 2194.48 144.037 Q2192.56 141.352 2189.18 141.352 Q2185.8 141.352 2183.86 144.037 Q2181.94 146.699 2181.94 151.398 Q2181.94 156.097 2183.86 158.782 Q2185.8 161.444 2189.18 161.444 Q2192.56 161.444 2194.48 158.782 Q2196.43 156.097 2196.43 151.398 Z" fill="#000000" fill-rule="nonzero" fill-opacity="1" /><path clip-path="url(#clip050)" d="M2207.91 138.412 L2212.17 138.412 L2212.17 164.338 L2207.91 164.338 L2207.91 138.412 M2207.91 128.319 L2212.17 128.319 L2212.17 133.713 L2207.91 133.713 L2207.91 128.319 Z" fill="#000000" fill-rule="nonzero" fill-opacity="1" /><path clip-path="url(#clip050)" d="M2242.63 148.689 L2242.63 164.338 L2238.37 164.338 L2238.37 148.828 Q2238.37 145.148 2236.94 143.319 Q2235.5 141.49 2232.63 141.49 Q2229.18 141.49 2227.19 143.69 Q2225.2 145.889 2225.2 149.685 L2225.2 164.338 L2220.92 164.338 L2220.92 138.412 L2225.2 138.412 L2225.2 142.44 Q2226.73 140.102 2228.79 138.944 Q2230.87 137.787 2233.58 137.787 Q2238.05 137.787 2240.34 140.565 Q2242.63 143.319 2242.63 148.689 Z" fill="#000000" fill-rule="nonzero" fill-opacity="1" /><path clip-path="url(#clip050)" d="M2256.61 128.111 L2256.61 175.518 L2252.68 175.518 L2252.68 128.111 L2256.61 128.111 Z" fill="#000000" fill-rule="nonzero" fill-opacity="1" /></svg>
