<?xml version="1.0" encoding="utf-8"?>
<svg xmlns="http://www.w3.org/2000/svg" xmlns:xlink="http://www.w3.org/1999/xlink" width="600" height="400" viewBox="0 0 2400 1600">
<defs>
  <clipPath id="clip050">
    <rect x="0" y="0" width="2400" height="1600"/>
  </clipPath>
</defs>
<path clip-path="url(#clip050)" d="M0 1600 L2400 1600 L2400 0 L0 0  Z" fill="#ffffff" fill-rule="evenodd" fill-opacity="1"/>
<defs>
  <clipPath id="clip051">
    <rect x="480" y="0" width="1681" height="1600"/>
  </clipPath>
</defs>
<path clip-path="url(#clip050)" d="M202.227 1423.18 L2352.76 1423.18 L2352.76 47.2441 L202.227 47.2441  Z" fill="#ffffff" fill-rule="evenodd" fill-opacity="1"/>
<defs>
  <clipPath id="clip052">
    <rect x="202" y="47" width="2152" height="1377"/>
  </clipPath>
</defs>
<polyline clip-path="url(#clip052)" style="stroke:#000000; stroke-linecap:round; stroke-linejoin:round; stroke-width:2; stroke-opacity:0.1; fill:none" points="620.787,1423.18 620.787,47.2441 "/>
<polyline clip-path="url(#clip052)" style="stroke:#000000; stroke-linecap:round; stroke-linejoin:round; stroke-width:2; stroke-opacity:0.1; fill:none" points="1053.78,1423.18 1053.78,47.2441 "/>
<polyline clip-path="url(#clip052)" style="stroke:#000000; stroke-linecap:round; stroke-linejoin:round; stroke-width:2; stroke-opacity:0.1; fill:none" points="1486.77,1423.18 1486.77,47.2441 "/>
<polyline clip-path="url(#clip052)" style="stroke:#000000; stroke-linecap:round; stroke-linejoin:round; stroke-width:2; stroke-opacity:0.1; fill:none" points="1919.76,1423.18 1919.76,47.2441 "/>
<polyline clip-path="url(#clip050)" style="stroke:#000000; stroke-linecap:round; stroke-linejoin:round; stroke-width:4; stroke-opacity:1; fill:none" points="202.227,1423.18 2352.76,1423.18 "/>
<polyline clip-path="url(#clip050)" style="stroke:#000000; stroke-linecap:round; stroke-linejoin:round; stroke-width:4; stroke-opacity:1; fill:none" points="620.787,1423.18 620.787,1404.28 "/>
<polyline clip-path="url(#clip050)" style="stroke:#000000; stroke-linecap:round; stroke-linejoin:round; stroke-width:4; stroke-opacity:1; fill:none" points="1053.78,1423.18 1053.78,1404.28 "/>
<polyline clip-path="url(#clip050)" style="stroke:#000000; stroke-linecap:round; stroke-linejoin:round; stroke-width:4; stroke-opacity:1; fill:none" points="1486.77,1423.18 1486.77,1404.28 "/>
<polyline clip-path="url(#clip050)" style="stroke:#000000; stroke-linecap:round; stroke-linejoin:round; stroke-width:4; stroke-opacity:1; fill:none" points="1919.76,1423.18 1919.76,1404.28 "/>
<path clip-path="url(#clip050)" d="M598.495 1454.1 Q594.884 1454.1 593.055 1457.66 Q591.25 1461.2 591.25 1468.33 Q591.25 1475.44 593.055 1479.01 Q594.884 1482.55 598.495 1482.55 Q602.129 1482.55 603.935 1479.01 Q605.764 1475.44 605.764 1468.33 Q605.764 1461.2 603.935 1457.66 Q602.129 1454.1 598.495 1454.1 M598.495 1450.39 Q604.305 1450.39 607.361 1455 Q610.44 1459.58 610.44 1468.33 Q610.44 1477.06 607.361 1481.67 Q604.305 1486.25 598.495 1486.25 Q592.685 1486.25 589.606 1481.67 Q586.551 1477.06 586.551 1468.33 Q586.551 1459.58 589.606 1455 Q592.685 1450.39 598.495 1450.39 Z" fill="#000000" fill-rule="nonzero" fill-opacity="1" /><path clip-path="url(#clip050)" d="M618.657 1479.7 L623.541 1479.7 L623.541 1485.58 L618.657 1485.58 L618.657 1479.7 Z" fill="#000000" fill-rule="nonzero" fill-opacity="1" /><path clip-path="url(#clip050)" d="M647.893 1466.95 Q651.249 1467.66 653.124 1469.93 Q655.023 1472.2 655.023 1475.53 Q655.023 1480.65 651.504 1483.45 Q647.986 1486.25 641.504 1486.25 Q639.328 1486.25 637.013 1485.81 Q634.722 1485.39 632.268 1484.54 L632.268 1480.02 Q634.213 1481.16 636.527 1481.74 Q638.842 1482.32 641.365 1482.32 Q645.763 1482.32 648.055 1480.58 Q650.37 1478.84 650.37 1475.53 Q650.37 1472.48 648.217 1470.77 Q646.087 1469.03 642.268 1469.03 L638.24 1469.03 L638.24 1465.19 L642.453 1465.19 Q645.902 1465.19 647.731 1463.82 Q649.56 1462.43 649.56 1459.84 Q649.56 1457.18 647.662 1455.77 Q645.787 1454.33 642.268 1454.33 Q640.347 1454.33 638.148 1454.75 Q635.949 1455.16 633.31 1456.04 L633.31 1451.88 Q635.972 1451.14 638.287 1450.77 Q640.625 1450.39 642.685 1450.39 Q648.009 1450.39 651.111 1452.83 Q654.212 1455.23 654.212 1459.35 Q654.212 1462.22 652.569 1464.21 Q650.925 1466.18 647.893 1466.95 Z" fill="#000000" fill-rule="nonzero" fill-opacity="1" /><path clip-path="url(#clip050)" d="M1031.08 1454.1 Q1027.47 1454.1 1025.64 1457.66 Q1023.84 1461.2 1023.84 1468.33 Q1023.84 1475.44 1025.64 1479.01 Q1027.47 1482.55 1031.08 1482.55 Q1034.72 1482.55 1036.52 1479.01 Q1038.35 1475.44 1038.35 1468.33 Q1038.35 1461.2 1036.52 1457.66 Q1034.72 1454.1 1031.08 1454.1 M1031.08 1450.39 Q1036.89 1450.39 1039.95 1455 Q1043.03 1459.58 1043.03 1468.33 Q1043.03 1477.06 1039.95 1481.67 Q1036.89 1486.25 1031.08 1486.25 Q1025.27 1486.25 1022.19 1481.67 Q1019.14 1477.06 1019.14 1468.33 Q1019.14 1459.58 1022.19 1455 Q1025.27 1450.39 1031.08 1450.39 Z" fill="#000000" fill-rule="nonzero" fill-opacity="1" /><path clip-path="url(#clip050)" d="M1051.24 1479.7 L1056.13 1479.7 L1056.13 1485.58 L1051.24 1485.58 L1051.24 1479.7 Z" fill="#000000" fill-rule="nonzero" fill-opacity="1" /><path clip-path="url(#clip050)" d="M1076.89 1466.44 Q1073.74 1466.44 1071.89 1468.59 Q1070.06 1470.74 1070.06 1474.49 Q1070.06 1478.22 1071.89 1480.39 Q1073.74 1482.55 1076.89 1482.55 Q1080.04 1482.55 1081.87 1480.39 Q1083.72 1478.22 1083.72 1474.49 Q1083.72 1470.74 1081.87 1468.59 Q1080.04 1466.44 1076.89 1466.44 M1086.17 1451.78 L1086.17 1456.04 Q1084.42 1455.21 1082.61 1454.77 Q1080.83 1454.33 1079.07 1454.33 Q1074.44 1454.33 1071.98 1457.45 Q1069.55 1460.58 1069.21 1466.9 Q1070.57 1464.89 1072.63 1463.82 Q1074.69 1462.73 1077.17 1462.73 Q1082.38 1462.73 1085.39 1465.9 Q1088.42 1469.05 1088.42 1474.49 Q1088.42 1479.82 1085.27 1483.03 Q1082.12 1486.25 1076.89 1486.25 Q1070.9 1486.25 1067.73 1481.67 Q1064.55 1477.06 1064.55 1468.33 Q1064.55 1460.14 1068.44 1455.28 Q1072.33 1450.39 1078.88 1450.39 Q1080.64 1450.39 1082.42 1450.74 Q1084.23 1451.09 1086.17 1451.78 Z" fill="#000000" fill-rule="nonzero" fill-opacity="1" /><path clip-path="url(#clip050)" d="M1464.25 1454.1 Q1460.64 1454.1 1458.81 1457.66 Q1457 1461.2 1457 1468.33 Q1457 1475.44 1458.81 1479.01 Q1460.64 1482.55 1464.25 1482.55 Q1467.88 1482.55 1469.69 1479.01 Q1471.52 1475.44 1471.52 1468.33 Q1471.52 1461.2 1469.69 1457.66 Q1467.88 1454.1 1464.25 1454.1 M1464.25 1450.39 Q1470.06 1450.39 1473.11 1455 Q1476.19 1459.58 1476.19 1468.33 Q1476.19 1477.06 1473.11 1481.67 Q1470.06 1486.25 1464.25 1486.25 Q1458.44 1486.25 1455.36 1481.67 Q1452.3 1477.06 1452.3 1468.33 Q1452.3 1459.58 1455.36 1455 Q1458.44 1450.39 1464.25 1450.39 Z" fill="#000000" fill-rule="nonzero" fill-opacity="1" /><path clip-path="url(#clip050)" d="M1484.41 1479.7 L1489.29 1479.7 L1489.29 1485.58 L1484.41 1485.58 L1484.41 1479.7 Z" fill="#000000" fill-rule="nonzero" fill-opacity="1" /><path clip-path="url(#clip050)" d="M1499.62 1484.86 L1499.62 1480.6 Q1501.38 1481.44 1503.18 1481.88 Q1504.99 1482.32 1506.72 1482.32 Q1511.35 1482.32 1513.79 1479.21 Q1516.24 1476.09 1516.59 1469.75 Q1515.24 1471.74 1513.18 1472.8 Q1511.12 1473.87 1508.62 1473.87 Q1503.44 1473.87 1500.41 1470.74 Q1497.4 1467.59 1497.4 1462.15 Q1497.4 1456.83 1500.54 1453.61 Q1503.69 1450.39 1508.92 1450.39 Q1514.92 1450.39 1518.07 1455 Q1521.24 1459.58 1521.24 1468.33 Q1521.24 1476.51 1517.35 1481.39 Q1513.48 1486.25 1506.93 1486.25 Q1505.17 1486.25 1503.37 1485.9 Q1501.56 1485.56 1499.62 1484.86 M1508.92 1470.21 Q1512.07 1470.21 1513.9 1468.06 Q1515.75 1465.9 1515.75 1462.15 Q1515.75 1458.43 1513.9 1456.27 Q1512.07 1454.1 1508.92 1454.1 Q1505.78 1454.1 1503.92 1456.27 Q1502.1 1458.43 1502.1 1462.15 Q1502.1 1465.9 1503.92 1468.06 Q1505.78 1470.21 1508.92 1470.21 Z" fill="#000000" fill-rule="nonzero" fill-opacity="1" /><path clip-path="url(#clip050)" d="M1887.72 1481.64 L1895.35 1481.64 L1895.35 1455.28 L1887.04 1456.95 L1887.04 1452.69 L1895.31 1451.02 L1899.98 1451.02 L1899.98 1481.64 L1907.62 1481.64 L1907.62 1485.58 L1887.72 1485.58 L1887.72 1481.64 Z" fill="#000000" fill-rule="nonzero" fill-opacity="1" /><path clip-path="url(#clip050)" d="M1917.07 1479.7 L1921.95 1479.7 L1921.95 1485.58 L1917.07 1485.58 L1917.07 1479.7 Z" fill="#000000" fill-rule="nonzero" fill-opacity="1" /><path clip-path="url(#clip050)" d="M1936.16 1481.64 L1952.48 1481.64 L1952.48 1485.58 L1930.54 1485.58 L1930.54 1481.64 Q1933.2 1478.89 1937.78 1474.26 Q1942.39 1469.61 1943.57 1468.27 Q1945.82 1465.74 1946.7 1464.01 Q1947.6 1462.25 1947.6 1460.56 Q1947.6 1457.8 1945.65 1456.07 Q1943.73 1454.33 1940.63 1454.33 Q1938.43 1454.33 1935.98 1455.09 Q1933.55 1455.86 1930.77 1457.41 L1930.77 1452.69 Q1933.59 1451.55 1936.05 1450.97 Q1938.5 1450.39 1940.54 1450.39 Q1945.91 1450.39 1949.1 1453.08 Q1952.3 1455.77 1952.3 1460.26 Q1952.3 1462.39 1951.49 1464.31 Q1950.7 1466.2 1948.59 1468.8 Q1948.02 1469.47 1944.91 1472.69 Q1941.81 1475.88 1936.16 1481.64 Z" fill="#000000" fill-rule="nonzero" fill-opacity="1" /><path clip-path="url(#clip050)" d="M1267.61 1550.25 Q1267.61 1556.71 1270.25 1560.4 Q1272.92 1564.07 1277.57 1564.07 Q1282.22 1564.07 1284.89 1560.4 Q1287.57 1556.71 1287.57 1550.25 Q1287.57 1543.79 1284.89 1540.13 Q1282.22 1536.44 1277.57 1536.44 Q1272.92 1536.44 1270.25 1540.13 Q1267.61 1543.79 1267.61 1550.25 M1287.57 1562.7 Q1285.72 1565.88 1282.89 1567.44 Q1280.09 1568.97 1276.14 1568.97 Q1269.68 1568.97 1265.6 1563.81 Q1261.56 1558.65 1261.56 1550.25 Q1261.56 1541.85 1265.6 1536.69 Q1269.68 1531.54 1276.14 1531.54 Q1280.09 1531.54 1282.89 1533.1 Q1285.72 1534.62 1287.57 1537.81 L1287.57 1532.4 L1293.42 1532.4 L1293.42 1581.6 L1287.57 1581.6 L1287.57 1562.7 Z" fill="#000000" fill-rule="nonzero" fill-opacity="1" /><polyline clip-path="url(#clip052)" style="stroke:#000000; stroke-linecap:round; stroke-linejoin:round; stroke-width:2; stroke-opacity:0.1; fill:none" points="202.227,1423.18 2352.76,1423.18 "/>
<polyline clip-path="url(#clip052)" style="stroke:#000000; stroke-linecap:round; stroke-linejoin:round; stroke-width:2; stroke-opacity:0.1; fill:none" points="202.227,993.2 2352.76,993.2 "/>
<polyline clip-path="url(#clip052)" style="stroke:#000000; stroke-linecap:round; stroke-linejoin:round; stroke-width:2; stroke-opacity:0.1; fill:none" points="202.227,563.22 2352.76,563.22 "/>
<polyline clip-path="url(#clip052)" style="stroke:#000000; stroke-linecap:round; stroke-linejoin:round; stroke-width:2; stroke-opacity:0.1; fill:none" points="202.227,133.24 2352.76,133.24 "/>
<polyline clip-path="url(#clip050)" style="stroke:#000000; stroke-linecap:round; stroke-linejoin:round; stroke-width:4; stroke-opacity:1; fill:none" points="202.227,1423.18 202.227,47.2441 "/>
<polyline clip-path="url(#clip050)" style="stroke:#000000; stroke-linecap:round; stroke-linejoin:round; stroke-width:4; stroke-opacity:1; fill:none" points="202.227,1423.18 221.125,1423.18 "/>
<polyline clip-path="url(#clip050)" style="stroke:#000000; stroke-linecap:round; stroke-linejoin:round; stroke-width:4; stroke-opacity:1; fill:none" points="202.227,993.2 221.125,993.2 "/>
<polyline clip-path="url(#clip050)" style="stroke:#000000; stroke-linecap:round; stroke-linejoin:round; stroke-width:4; stroke-opacity:1; fill:none" points="202.227,563.22 221.125,563.22 "/>
<polyline clip-path="url(#clip050)" style="stroke:#000000; stroke-linecap:round; stroke-linejoin:round; stroke-width:4; stroke-opacity:1; fill:none" points="202.227,133.24 221.125,133.24 "/>
<path clip-path="url(#clip050)" d="M154.283 1408.98 Q150.672 1408.98 148.843 1412.54 Q147.038 1416.08 147.038 1423.21 Q147.038 1430.32 148.843 1433.89 Q150.672 1437.43 154.283 1437.43 Q157.917 1437.43 159.723 1433.89 Q161.552 1430.32 161.552 1423.21 Q161.552 1416.08 159.723 1412.54 Q157.917 1408.98 154.283 1408.98 M154.283 1405.27 Q160.093 1405.27 163.149 1409.88 Q166.227 1414.46 166.227 1423.21 Q166.227 1431.94 163.149 1436.55 Q160.093 1441.13 154.283 1441.13 Q148.473 1441.13 145.394 1436.55 Q142.339 1431.94 142.339 1423.21 Q142.339 1414.46 145.394 1409.88 Q148.473 1405.27 154.283 1405.27 Z" fill="#000000" fill-rule="nonzero" fill-opacity="1" /><path clip-path="url(#clip050)" d="M145.325 975.92 L163.681 975.92 L163.681 979.855 L149.607 979.855 L149.607 988.327 Q150.626 987.98 151.644 987.818 Q152.663 987.633 153.681 987.633 Q159.468 987.633 162.848 990.804 Q166.227 993.975 166.227 999.392 Q166.227 1004.97 162.755 1008.07 Q159.283 1011.15 152.964 1011.15 Q150.788 1011.15 148.519 1010.78 Q146.274 1010.41 143.866 1009.67 L143.866 1004.97 Q145.95 1006.1 148.172 1006.66 Q150.394 1007.22 152.871 1007.22 Q156.876 1007.22 159.214 1005.11 Q161.552 1003 161.552 999.392 Q161.552 995.781 159.214 993.674 Q156.876 991.568 152.871 991.568 Q150.996 991.568 149.121 991.985 Q147.269 992.401 145.325 993.281 L145.325 975.92 Z" fill="#000000" fill-rule="nonzero" fill-opacity="1" /><path clip-path="url(#clip050)" d="M114.931 576.565 L122.57 576.565 L122.57 550.199 L114.26 551.866 L114.26 547.607 L122.524 545.94 L127.2 545.94 L127.2 576.565 L134.839 576.565 L134.839 580.5 L114.931 580.5 L114.931 576.565 Z" fill="#000000" fill-rule="nonzero" fill-opacity="1" /><path clip-path="url(#clip050)" d="M154.283 549.019 Q150.672 549.019 148.843 552.583 Q147.038 556.125 147.038 563.255 Q147.038 570.361 148.843 573.926 Q150.672 577.468 154.283 577.468 Q157.917 577.468 159.723 573.926 Q161.552 570.361 161.552 563.255 Q161.552 556.125 159.723 552.583 Q157.917 549.019 154.283 549.019 M154.283 545.315 Q160.093 545.315 163.149 549.921 Q166.227 554.505 166.227 563.255 Q166.227 571.982 163.149 576.588 Q160.093 581.171 154.283 581.171 Q148.473 581.171 145.394 576.588 Q142.339 571.982 142.339 563.255 Q142.339 554.505 145.394 549.921 Q148.473 545.315 154.283 545.315 Z" fill="#000000" fill-rule="nonzero" fill-opacity="1" /><path clip-path="url(#clip050)" d="M115.927 146.585 L123.566 146.585 L123.566 120.219 L115.256 121.886 L115.256 117.627 L123.519 115.96 L128.195 115.96 L128.195 146.585 L135.834 146.585 L135.834 150.52 L115.927 150.52 L115.927 146.585 Z" fill="#000000" fill-rule="nonzero" fill-opacity="1" /><path clip-path="url(#clip050)" d="M145.325 115.96 L163.681 115.96 L163.681 119.895 L149.607 119.895 L149.607 128.367 Q150.626 128.02 151.644 127.858 Q152.663 127.673 153.681 127.673 Q159.468 127.673 162.848 130.844 Q166.227 134.016 166.227 139.432 Q166.227 145.011 162.755 148.113 Q159.283 151.191 152.964 151.191 Q150.788 151.191 148.519 150.821 Q146.274 150.451 143.866 149.71 L143.866 145.011 Q145.95 146.145 148.172 146.701 Q150.394 147.256 152.871 147.256 Q156.876 147.256 159.214 145.15 Q161.552 143.043 161.552 139.432 Q161.552 135.821 159.214 133.715 Q156.876 131.608 152.871 131.608 Q150.996 131.608 149.121 132.025 Q147.269 132.441 145.325 133.321 L145.325 115.96 Z" fill="#000000" fill-rule="nonzero" fill-opacity="1" /><path clip-path="url(#clip050)" d="M44.7797 785.692 Q44.0158 789.257 41.947 791.167 Q39.91 793.076 36.9499 793.076 Q32.4621 793.076 29.9476 789.448 Q27.465 785.851 27.465 779.613 Q27.465 777.194 27.8469 774.488 Q28.2289 771.783 28.9928 768.664 L34.3081 768.664 Q33.3851 771.751 32.9713 774.297 Q32.5576 776.876 32.5576 779.135 Q32.5576 782.923 34.0217 785.119 Q35.4858 787.347 37.5228 787.347 Q39.7508 787.347 41.1831 785.183 Q42.5836 783.05 42.5836 779.358 L42.5836 774.425 L47.4215 774.425 L47.4215 779.135 Q47.4215 783.496 49.0447 785.788 Q50.8271 788.27 53.6281 788.27 Q56.4926 788.27 58.275 785.597 Q60.0574 782.891 60.0574 778.085 Q60.0574 775.125 59.4845 772.42 Q58.8798 769.714 57.7021 767.454 L63.1448 767.454 Q64.036 770.319 64.4816 772.992 Q64.9272 775.698 64.9272 778.244 Q64.9272 785.819 62.0308 789.925 Q59.1344 794.031 53.6281 794.031 Q50.1906 794.031 47.8671 791.835 Q45.5436 789.639 44.7797 785.692 Z" fill="#000000" fill-rule="nonzero" fill-opacity="1" /><path clip-path="url(#clip050)" d="M14.5426 742.819 Q21.8632 747.084 29.0246 749.153 Q36.186 751.222 43.5384 751.222 Q50.8908 751.222 58.1159 749.153 Q65.3091 747.052 72.5979 742.819 L72.5979 747.912 Q65.1182 752.686 57.8931 755.073 Q50.668 757.428 43.5384 757.428 Q36.4406 757.428 29.2474 755.073 Q22.0542 752.718 14.5426 747.912 L14.5426 742.819 Z" fill="#000000" fill-rule="nonzero" fill-opacity="1" /><path clip-path="url(#clip050)" d="M46.212 727.955 Q52.6732 727.955 56.3653 725.313 Q60.0256 722.64 60.0256 717.993 Q60.0256 713.346 56.3653 710.672 Q52.6732 707.999 46.212 707.999 Q39.7508 707.999 36.0905 710.672 Q32.3984 713.346 32.3984 717.993 Q32.3984 722.64 36.0905 725.313 Q39.7508 727.955 46.212 727.955 M58.657 707.999 Q61.8398 709.845 63.3994 712.677 Q64.9272 715.478 64.9272 719.425 Q64.9272 725.886 59.771 729.96 Q54.6147 734.002 46.212 734.002 Q37.8093 734.002 32.6531 729.96 Q27.4968 725.886 27.4968 719.425 Q27.4968 715.478 29.0564 712.677 Q30.5842 709.845 33.7671 707.999 L28.3562 707.999 L28.3562 702.142 L77.5631 702.142 L77.5631 707.999 L58.657 707.999 Z" fill="#000000" fill-rule="nonzero" fill-opacity="1" /><path clip-path="url(#clip050)" d="M14.5426 691.002 L14.5426 685.91 Q22.0542 681.135 29.2474 678.78 Q36.4406 676.393 43.5384 676.393 Q50.668 676.393 57.8931 678.78 Q65.1182 681.135 72.5979 685.91 L72.5979 691.002 Q65.3091 686.769 58.1159 684.7 Q50.8908 682.599 43.5384 682.599 Q36.186 682.599 29.0246 684.7 Q21.8632 686.769 14.5426 691.002 Z" fill="#000000" fill-rule="nonzero" fill-opacity="1" /><polyline clip-path="url(#clip052)" style="stroke:#009af9; stroke-linecap:round; stroke-linejoin:round; stroke-width:4; stroke-opacity:1; fill:none" points="202.227,-858623 202.446,-833134 202.665,-808762 202.884,-785443 203.103,-763116 203.321,-741726 203.54,-721221 203.759,-701554 203.978,-682679 204.196,-664554 204.415,-647140 204.634,-630400 204.853,-614301 205.071,-598808 205.29,-583894 205.509,-569528 205.728,-555686 206.165,-529469 206.603,-505060 207.04,-482297 207.478,-461035 207.915,-441145 208.353,-422511 208.79,-405030 209.228,-388609 209.666,-373163 210.103,-358617 210.541,-344902 210.978,-331957 211.416,-319724 211.853,-308153 212.291,-297196 212.728,-286811 213.603,-267602 214.478,-250252 214.916,-242200 215.354,-234529 215.791,-227214 216.229,-220235 217.24,-205275 218.251,-191780 219.263,-179566 220.274,-168475 221.286,-158373 222.297,-149147 223.308,-140698 224.32,-132941 226.343,-119218 228.366,-107496 230.388,-97404.5 232.411,-88654 234.434,-81017.2 236.457,-74312.8 238.48,-68395 240.502,-63145.4 244.548,-54279.9 248.594,-47124.5 252.639,-41266.1 256.685,-36409.3 260.731,-32337.9 264.776,-28891.5 272.868,-23414.8 280.959,-19302.1 289.05,-16135.4 297.141,-13645.2 305.233,-11651.8 313.324,-10031.3 329.507,-7583.17 345.689,-5848.38 365.139,-4358.67 384.589,-3288.42 404.039,-2493.74 423.489,-1887.56 456.379,-1146.14 489.269,-633.856 560.723,49.1012 626.598,406.815 697.223,646.898 779.049,824.739 851.766,930.837 915.532,998.928 985.055,1055.35 1054.99,1098.97 1132.31,1136.38 1205.88,1164.35 1282.38,1187.66 1346.77,1203.82 1425.39,1220.22 1497.41,1232.73 1563.92,1242.59 1631.3,1251.21 1706.81,1259.55 1775.24,1266.1 1853.58,1272.62 1926.12,1277.9 1997.63,1282.49 2067.07,1286.46 2138.25,1290.09 2216.23,1293.65 2329.52,1298.13 2352.76,1298.96 "/>
<polyline clip-path="url(#clip052)" style="stroke:#e26f46; stroke-linecap:round; stroke-linejoin:round; stroke-width:4; stroke-opacity:1; fill:none" stroke-dasharray="16, 10" points="202.227,143.499 205.728,144.399 209.228,145.493 212.728,146.778 216.229,148.254 224.32,152.387 232.411,157.509 240.502,163.595 248.594,170.614 256.685,178.532 264.776,187.31 272.868,196.907 280.959,207.279 297.141,230.161 313.324,255.566 329.507,283.09 345.689,312.328 365.139,349.183 384.589,387.306 404.039,426.116 423.489,465.102 456.379,530.254 489.269,593.095 507.132,625.861 524.996,657.513 542.86,687.973 560.723,717.193 577.192,743.01 593.661,767.746 610.13,791.409 626.598,814.013 644.254,837.099 661.911,859.03 679.567,879.848 697.223,899.596 717.68,921.199 738.136,941.503 758.592,960.58 779.049,978.505 797.228,993.524 815.408,1007.74 833.587,1021.19 851.766,1033.93 883.649,1054.66 915.532,1073.53 950.294,1092.21 985.055,1109.12 1020.02,1124.55 1054.99,1138.56 1093.65,1152.59 1132.31,1165.26 1169.1,1176.2 1205.88,1186.18 1282.38,1204.29 1346.77,1217.2 1425.39,1230.65 1497.41,1241.13 1563.92,1249.52 1631.3,1256.98 1706.81,1264.28 1775.24,1270.09 1853.58,1275.93 1926.12,1280.7 1997.63,1284.89 2067.07,1288.52 2138.25,1291.88 2216.23,1295.18 2329.52,1299.37 2352.76,1300.15 "/>
<polyline clip-path="url(#clip052)" style="stroke:#3da44d; stroke-linecap:round; stroke-linejoin:round; stroke-width:4; stroke-opacity:1; fill:none" stroke-dasharray="16, 8, 2, 8" points="202.227,1294.19 205.728,1294.19 209.228,1294.19 212.728,1294.19 216.229,1294.19 248.594,1294.22 280.959,1294.28 313.324,1294.35 345.689,1294.44 384.589,1294.58 423.489,1294.75 456.379,1294.92 489.269,1295.1 524.996,1295.33 560.723,1295.57 593.661,1295.82 626.598,1296.09 661.911,1296.39 697.223,1296.71 738.136,1297.1 779.049,1297.51 851.766,1298.3 915.532,1299.04 985.055,1299.88 1054.99,1300.76 1132.31,1301.77 1205.88,1302.75 1282.38,1303.79 1346.77,1304.67 1425.39,1305.74 1497.41,1306.72 1563.92,1307.62 1631.3,1308.52 1706.81,1309.51 1775.24,1310.39 1853.58,1311.38 1926.12,1312.26 1997.63,1313.11 2067.07,1313.91 2138.25,1314.71 2216.23,1315.55 2329.52,1316.72 2352.76,1316.95 "/>
<path clip-path="url(#clip050)" d="M1502.9 300.469 L2281.07 300.469 L2281.07 93.1086 L1502.9 93.1086  Z" fill="#ffffff" fill-rule="evenodd" fill-opacity="1"/>
<polyline clip-path="url(#clip050)" style="stroke:#000000; stroke-linecap:round; stroke-linejoin:round; stroke-width:4; stroke-opacity:1; fill:none" points="1502.9,300.469 2281.07,300.469 2281.07,93.1086 1502.9,93.1086 1502.9,300.469 "/>
<polyline clip-path="url(#clip050)" style="stroke:#009af9; stroke-linecap:round; stroke-linejoin:round; stroke-width:4; stroke-opacity:1; fill:none" points="1526.79,144.949 1670.16,144.949 "/>
<path clip-path="url(#clip050)" d="M1707.46 149.196 Q1702.3 149.196 1700.3 150.377 Q1698.31 151.557 1698.31 154.405 Q1698.31 156.673 1699.8 158.016 Q1701.3 159.335 1703.87 159.335 Q1707.41 159.335 1709.54 156.835 Q1711.69 154.312 1711.69 150.145 L1711.69 149.196 L1707.46 149.196 M1715.95 147.437 L1715.95 162.229 L1711.69 162.229 L1711.69 158.293 Q1710.24 160.655 1708.06 161.789 Q1705.88 162.9 1702.74 162.9 Q1698.75 162.9 1696.39 160.678 Q1694.05 158.432 1694.05 154.682 Q1694.05 150.307 1696.97 148.085 Q1699.91 145.863 1705.72 145.863 L1711.69 145.863 L1711.69 145.446 Q1711.69 142.507 1709.75 140.909 Q1707.83 139.289 1704.33 139.289 Q1702.11 139.289 1700 139.821 Q1697.9 140.354 1695.95 141.419 L1695.95 137.483 Q1698.29 136.581 1700.49 136.141 Q1702.69 135.678 1704.77 135.678 Q1710.4 135.678 1713.18 138.594 Q1715.95 141.511 1715.95 147.437 Z" fill="#000000" fill-rule="nonzero" fill-opacity="1" /><path clip-path="url(#clip050)" d="M1724.73 126.21 L1728.99 126.21 L1728.99 162.229 L1724.73 162.229 L1724.73 126.21 Z" fill="#000000" fill-rule="nonzero" fill-opacity="1" /><path clip-path="url(#clip050)" d="M1737.46 151.997 L1737.46 136.303 L1741.72 136.303 L1741.72 151.835 Q1741.72 155.516 1743.15 157.368 Q1744.59 159.196 1747.46 159.196 Q1750.91 159.196 1752.9 156.997 Q1754.91 154.798 1754.91 151.002 L1754.91 136.303 L1759.17 136.303 L1759.17 162.229 L1754.91 162.229 L1754.91 158.247 Q1753.36 160.608 1751.3 161.766 Q1749.26 162.9 1746.55 162.9 Q1742.09 162.9 1739.77 160.122 Q1737.46 157.344 1737.46 151.997 M1748.17 135.678 L1748.17 135.678 Z" fill="#000000" fill-rule="nonzero" fill-opacity="1" /><path clip-path="url(#clip050)" d="M1788.13 141.28 Q1789.73 138.409 1791.95 137.044 Q1794.17 135.678 1797.18 135.678 Q1801.23 135.678 1803.43 138.525 Q1805.63 141.349 1805.63 146.581 L1805.63 162.229 L1801.35 162.229 L1801.35 146.719 Q1801.35 142.993 1800.03 141.187 Q1798.71 139.382 1796 139.382 Q1792.69 139.382 1790.77 141.581 Q1788.85 143.78 1788.85 147.576 L1788.85 162.229 L1784.56 162.229 L1784.56 146.719 Q1784.56 142.969 1783.24 141.187 Q1781.92 139.382 1779.17 139.382 Q1775.91 139.382 1773.99 141.604 Q1772.06 143.803 1772.06 147.576 L1772.06 162.229 L1767.78 162.229 L1767.78 136.303 L1772.06 136.303 L1772.06 140.331 Q1773.52 137.946 1775.56 136.812 Q1777.6 135.678 1780.4 135.678 Q1783.22 135.678 1785.19 137.113 Q1787.18 138.548 1788.13 141.28 Z" fill="#000000" fill-rule="nonzero" fill-opacity="1" /><path clip-path="url(#clip050)" d="M1814.12 136.303 L1818.38 136.303 L1818.38 162.229 L1814.12 162.229 L1814.12 136.303 M1814.12 126.21 L1818.38 126.21 L1818.38 131.604 L1814.12 131.604 L1814.12 126.21 Z" fill="#000000" fill-rule="nonzero" fill-opacity="1" /><path clip-path="url(#clip050)" d="M1848.85 146.581 L1848.85 162.229 L1844.59 162.229 L1844.59 146.719 Q1844.59 143.039 1843.15 141.21 Q1841.72 139.382 1838.85 139.382 Q1835.4 139.382 1833.41 141.581 Q1831.42 143.78 1831.42 147.576 L1831.42 162.229 L1827.13 162.229 L1827.13 136.303 L1831.42 136.303 L1831.42 140.331 Q1832.94 137.993 1835 136.835 Q1837.09 135.678 1839.79 135.678 Q1844.26 135.678 1846.55 138.456 Q1848.85 141.21 1848.85 146.581 Z" fill="#000000" fill-rule="nonzero" fill-opacity="1" /><path clip-path="url(#clip050)" d="M1857.34 136.303 L1861.6 136.303 L1861.6 162.229 L1857.34 162.229 L1857.34 136.303 M1857.34 126.21 L1861.6 126.21 L1861.6 131.604 L1857.34 131.604 L1857.34 126.21 Z" fill="#000000" fill-rule="nonzero" fill-opacity="1" /><path clip-path="url(#clip050)" d="M1870.07 151.997 L1870.07 136.303 L1874.33 136.303 L1874.33 151.835 Q1874.33 155.516 1875.77 157.368 Q1877.2 159.196 1880.07 159.196 Q1883.52 159.196 1885.51 156.997 Q1887.53 154.798 1887.53 151.002 L1887.53 136.303 L1891.79 136.303 L1891.79 162.229 L1887.53 162.229 L1887.53 158.247 Q1885.98 160.608 1883.91 161.766 Q1881.88 162.9 1879.17 162.9 Q1874.7 162.9 1872.39 160.122 Q1870.07 157.344 1870.07 151.997 M1880.79 135.678 L1880.79 135.678 Z" fill="#000000" fill-rule="nonzero" fill-opacity="1" /><path clip-path="url(#clip050)" d="M1920.74 141.28 Q1922.34 138.409 1924.56 137.044 Q1926.79 135.678 1929.79 135.678 Q1933.85 135.678 1936.04 138.525 Q1938.24 141.349 1938.24 146.581 L1938.24 162.229 L1933.96 162.229 L1933.96 146.719 Q1933.96 142.993 1932.64 141.187 Q1931.32 139.382 1928.61 139.382 Q1925.3 139.382 1923.38 141.581 Q1921.46 143.78 1921.46 147.576 L1921.46 162.229 L1917.18 162.229 L1917.18 146.719 Q1917.18 142.969 1915.86 141.187 Q1914.54 139.382 1911.79 139.382 Q1908.52 139.382 1906.6 141.604 Q1904.68 143.803 1904.68 147.576 L1904.68 162.229 L1900.4 162.229 L1900.4 136.303 L1904.68 136.303 L1904.68 140.331 Q1906.14 137.946 1908.17 136.812 Q1910.21 135.678 1913.01 135.678 Q1915.84 135.678 1917.8 137.113 Q1919.79 138.548 1920.74 141.28 Z" fill="#000000" fill-rule="nonzero" fill-opacity="1" /><path clip-path="url(#clip050)" d="M1972.04 126.257 Q1968.94 131.581 1967.43 136.789 Q1965.93 141.997 1965.93 147.344 Q1965.93 152.692 1967.43 157.946 Q1968.96 163.178 1972.04 168.479 L1968.34 168.479 Q1964.86 163.039 1963.13 157.784 Q1961.41 152.53 1961.41 147.344 Q1961.41 142.182 1963.13 136.951 Q1964.84 131.72 1968.34 126.257 L1972.04 126.257 Z" fill="#000000" fill-rule="nonzero" fill-opacity="1" /><path clip-path="url(#clip050)" d="M1992.04 132.275 L1985.7 149.474 L1998.41 149.474 L1992.04 132.275 M1989.4 127.669 L1994.7 127.669 L2007.87 162.229 L2003.01 162.229 L1999.86 153.363 L1984.28 153.363 L1981.14 162.229 L1976.21 162.229 L1989.4 127.669 Z" fill="#000000" fill-rule="nonzero" fill-opacity="1" /><path clip-path="url(#clip050)" d="M2012.73 126.21 L2016.99 126.21 L2016.99 162.229 L2012.73 162.229 L2012.73 126.21 Z" fill="#000000" fill-rule="nonzero" fill-opacity="1" /><path clip-path="url(#clip050)" d="M2025.23 126.257 L2028.94 126.257 Q2032.41 131.72 2034.12 136.951 Q2035.86 142.182 2035.86 147.344 Q2035.86 152.53 2034.12 157.784 Q2032.41 163.039 2028.94 168.479 L2025.23 168.479 Q2028.31 163.178 2029.82 157.946 Q2031.34 152.692 2031.34 147.344 Q2031.34 141.997 2029.82 136.789 Q2028.31 131.581 2025.23 126.257 Z" fill="#000000" fill-rule="nonzero" fill-opacity="1" /><polyline clip-path="url(#clip050)" style="stroke:#e26f46; stroke-linecap:round; stroke-linejoin:round; stroke-width:4; stroke-opacity:1; fill:none" stroke-dasharray="16, 10" points="1526.79,196.789 1670.16,196.789 "/>
<path clip-path="url(#clip050)" d="M1712.97 200.805 Q1712.97 196.175 1711.05 193.629 Q1709.15 191.083 1705.7 191.083 Q1702.27 191.083 1700.35 193.629 Q1698.45 196.175 1698.45 200.805 Q1698.45 205.411 1700.35 207.958 Q1702.27 210.504 1705.7 210.504 Q1709.15 210.504 1711.05 207.958 Q1712.97 205.411 1712.97 200.805 M1717.23 210.851 Q1717.23 217.471 1714.29 220.689 Q1711.35 223.93 1705.28 223.93 Q1703.04 223.93 1701.05 223.582 Q1699.05 223.258 1697.18 222.564 L1697.18 218.42 Q1699.05 219.439 1700.88 219.925 Q1702.71 220.411 1704.61 220.411 Q1708.8 220.411 1710.88 218.212 Q1712.97 216.036 1712.97 211.615 L1712.97 209.508 Q1711.65 211.8 1709.59 212.934 Q1707.53 214.069 1704.66 214.069 Q1699.89 214.069 1696.97 210.434 Q1694.05 206.8 1694.05 200.805 Q1694.05 194.786 1696.97 191.152 Q1699.89 187.518 1704.66 187.518 Q1707.53 187.518 1709.59 188.652 Q1711.65 189.786 1712.97 192.078 L1712.97 188.143 L1717.23 188.143 L1717.23 210.851 Z" fill="#000000" fill-rule="nonzero" fill-opacity="1" /><path clip-path="url(#clip050)" d="M1737.78 201.036 Q1732.62 201.036 1730.63 202.217 Q1728.64 203.397 1728.64 206.245 Q1728.64 208.513 1730.12 209.856 Q1731.62 211.175 1734.19 211.175 Q1737.74 211.175 1739.86 208.675 Q1742.02 206.152 1742.02 201.985 L1742.02 201.036 L1737.78 201.036 M1746.28 199.277 L1746.28 214.069 L1742.02 214.069 L1742.02 210.133 Q1740.56 212.495 1738.38 213.629 Q1736.21 214.74 1733.06 214.74 Q1729.08 214.74 1726.72 212.518 Q1724.38 210.272 1724.38 206.522 Q1724.38 202.147 1727.3 199.925 Q1730.24 197.703 1736.05 197.703 L1742.02 197.703 L1742.02 197.286 Q1742.02 194.347 1740.07 192.749 Q1738.15 191.129 1734.66 191.129 Q1732.43 191.129 1730.33 191.661 Q1728.22 192.194 1726.28 193.259 L1726.28 189.323 Q1728.61 188.421 1730.81 187.981 Q1733.01 187.518 1735.1 187.518 Q1740.72 187.518 1743.5 190.434 Q1746.28 193.351 1746.28 199.277 Z" fill="#000000" fill-rule="nonzero" fill-opacity="1" /><path clip-path="url(#clip050)" d="M1755.05 178.05 L1759.31 178.05 L1759.31 214.069 L1755.05 214.069 L1755.05 178.05 Z" fill="#000000" fill-rule="nonzero" fill-opacity="1" /><path clip-path="url(#clip050)" d="M1768.22 178.05 L1772.48 178.05 L1772.48 214.069 L1768.22 214.069 L1768.22 178.05 Z" fill="#000000" fill-rule="nonzero" fill-opacity="1" /><path clip-path="url(#clip050)" d="M1781.39 188.143 L1785.65 188.143 L1785.65 214.069 L1781.39 214.069 L1781.39 188.143 M1781.39 178.05 L1785.65 178.05 L1785.65 183.444 L1781.39 183.444 L1781.39 178.05 Z" fill="#000000" fill-rule="nonzero" fill-opacity="1" /><path clip-path="url(#clip050)" d="M1794.12 203.837 L1794.12 188.143 L1798.38 188.143 L1798.38 203.675 Q1798.38 207.356 1799.82 209.208 Q1801.25 211.036 1804.12 211.036 Q1807.57 211.036 1809.56 208.837 Q1811.58 206.638 1811.58 202.842 L1811.58 188.143 L1815.84 188.143 L1815.84 214.069 L1811.58 214.069 L1811.58 210.087 Q1810.03 212.448 1807.97 213.606 Q1805.93 214.74 1803.22 214.74 Q1798.75 214.74 1796.44 211.962 Q1794.12 209.184 1794.12 203.837 M1804.84 187.518 L1804.84 187.518 Z" fill="#000000" fill-rule="nonzero" fill-opacity="1" /><path clip-path="url(#clip050)" d="M1844.79 193.12 Q1846.39 190.249 1848.61 188.884 Q1850.84 187.518 1853.85 187.518 Q1857.9 187.518 1860.1 190.365 Q1862.29 193.189 1862.29 198.421 L1862.29 214.069 L1858.01 214.069 L1858.01 198.559 Q1858.01 194.833 1856.69 193.027 Q1855.37 191.222 1852.67 191.222 Q1849.35 191.222 1847.43 193.421 Q1845.51 195.62 1845.51 199.416 L1845.51 214.069 L1841.23 214.069 L1841.23 198.559 Q1841.23 194.809 1839.91 193.027 Q1838.59 191.222 1835.84 191.222 Q1832.57 191.222 1830.65 193.444 Q1828.73 195.643 1828.73 199.416 L1828.73 214.069 L1824.45 214.069 L1824.45 188.143 L1828.73 188.143 L1828.73 192.171 Q1830.19 189.786 1832.23 188.652 Q1834.26 187.518 1837.06 187.518 Q1839.89 187.518 1841.86 188.953 Q1843.85 190.388 1844.79 193.12 Z" fill="#000000" fill-rule="nonzero" fill-opacity="1" /><path clip-path="url(#clip050)" d="M1897.64 201.036 Q1892.48 201.036 1890.49 202.217 Q1888.5 203.397 1888.5 206.245 Q1888.5 208.513 1889.98 209.856 Q1891.48 211.175 1894.05 211.175 Q1897.6 211.175 1899.73 208.675 Q1901.88 206.152 1901.88 201.985 L1901.88 201.036 L1897.64 201.036 M1906.14 199.277 L1906.14 214.069 L1901.88 214.069 L1901.88 210.133 Q1900.42 212.495 1898.24 213.629 Q1896.07 214.74 1892.92 214.74 Q1888.94 214.74 1886.58 212.518 Q1884.24 210.272 1884.24 206.522 Q1884.24 202.147 1887.16 199.925 Q1890.1 197.703 1895.91 197.703 L1901.88 197.703 L1901.88 197.286 Q1901.88 194.347 1899.93 192.749 Q1898.01 191.129 1894.52 191.129 Q1892.29 191.129 1890.19 191.661 Q1888.08 192.194 1886.14 193.259 L1886.14 189.323 Q1888.48 188.421 1890.67 187.981 Q1892.87 187.518 1894.96 187.518 Q1900.58 187.518 1903.36 190.434 Q1906.14 193.351 1906.14 199.277 Z" fill="#000000" fill-rule="nonzero" fill-opacity="1" /><path clip-path="url(#clip050)" d="M1929.93 192.124 Q1929.22 191.708 1928.36 191.522 Q1927.53 191.314 1926.51 191.314 Q1922.9 191.314 1920.95 193.675 Q1919.03 196.013 1919.03 200.411 L1919.03 214.069 L1914.75 214.069 L1914.75 188.143 L1919.03 188.143 L1919.03 192.171 Q1920.37 189.809 1922.53 188.675 Q1924.68 187.518 1927.76 187.518 Q1928.2 187.518 1928.73 187.587 Q1929.26 187.634 1929.91 187.749 L1929.93 192.124 Z" fill="#000000" fill-rule="nonzero" fill-opacity="1" /><path clip-path="url(#clip050)" d="M1950.93 188.907 L1950.93 192.934 Q1949.12 192.009 1947.18 191.546 Q1945.23 191.083 1943.15 191.083 Q1939.98 191.083 1938.38 192.055 Q1936.81 193.027 1936.81 194.971 Q1936.81 196.453 1937.94 197.309 Q1939.08 198.143 1942.5 198.907 L1943.96 199.231 Q1948.5 200.203 1950.4 201.985 Q1952.32 203.745 1952.32 206.916 Q1952.32 210.527 1949.45 212.633 Q1946.6 214.74 1941.6 214.74 Q1939.52 214.74 1937.25 214.323 Q1935 213.93 1932.5 213.12 L1932.5 208.721 Q1934.86 209.948 1937.16 210.573 Q1939.45 211.175 1941.69 211.175 Q1944.7 211.175 1946.32 210.157 Q1947.94 209.115 1947.94 207.24 Q1947.94 205.504 1946.76 204.578 Q1945.6 203.652 1941.65 202.796 L1940.16 202.448 Q1936.21 201.615 1934.45 199.902 Q1932.69 198.166 1932.69 195.157 Q1932.69 191.499 1935.28 189.509 Q1937.87 187.518 1942.64 187.518 Q1945 187.518 1947.09 187.865 Q1949.17 188.212 1950.93 188.907 Z" fill="#000000" fill-rule="nonzero" fill-opacity="1" /><path clip-path="url(#clip050)" d="M1981.28 200.041 L1981.28 202.124 L1961.69 202.124 Q1961.97 206.522 1964.33 208.837 Q1966.72 211.129 1970.95 211.129 Q1973.41 211.129 1975.7 210.527 Q1978.01 209.925 1980.28 208.721 L1980.28 212.749 Q1977.99 213.721 1975.58 214.231 Q1973.17 214.74 1970.7 214.74 Q1964.49 214.74 1960.86 211.129 Q1957.25 207.518 1957.25 201.36 Q1957.25 194.995 1960.67 191.268 Q1964.12 187.518 1969.96 187.518 Q1975.19 187.518 1978.22 190.897 Q1981.28 194.254 1981.28 200.041 M1977.02 198.791 Q1976.97 195.296 1975.05 193.212 Q1973.15 191.129 1970 191.129 Q1966.44 191.129 1964.28 193.143 Q1962.16 195.157 1961.83 198.814 L1977.02 198.791 Z" fill="#000000" fill-rule="nonzero" fill-opacity="1" /><path clip-path="url(#clip050)" d="M2009.82 198.421 L2009.82 214.069 L2005.56 214.069 L2005.56 198.559 Q2005.56 194.879 2004.12 193.05 Q2002.69 191.222 1999.82 191.222 Q1996.37 191.222 1994.38 193.421 Q1992.39 195.62 1992.39 199.416 L1992.39 214.069 L1988.1 214.069 L1988.1 188.143 L1992.39 188.143 L1992.39 192.171 Q1993.91 189.833 1995.97 188.675 Q1998.06 187.518 2000.77 187.518 Q2005.23 187.518 2007.53 190.296 Q2009.82 193.05 2009.82 198.421 Z" fill="#000000" fill-rule="nonzero" fill-opacity="1" /><path clip-path="url(#clip050)" d="M2018.31 188.143 L2022.57 188.143 L2022.57 214.069 L2018.31 214.069 L2018.31 188.143 M2018.31 178.05 L2022.57 178.05 L2022.57 183.444 L2018.31 183.444 L2018.31 178.05 Z" fill="#000000" fill-rule="nonzero" fill-opacity="1" /><path clip-path="url(#clip050)" d="M2048.54 192.078 L2048.54 178.05 L2052.8 178.05 L2052.8 214.069 L2048.54 214.069 L2048.54 210.18 Q2047.2 212.495 2045.14 213.629 Q2043.1 214.74 2040.23 214.74 Q2035.53 214.74 2032.57 210.99 Q2029.63 207.24 2029.63 201.129 Q2029.63 195.018 2032.57 191.268 Q2035.53 187.518 2040.23 187.518 Q2043.1 187.518 2045.14 188.652 Q2047.2 189.763 2048.54 192.078 M2034.03 201.129 Q2034.03 205.828 2035.95 208.513 Q2037.9 211.175 2041.28 211.175 Q2044.65 211.175 2046.6 208.513 Q2048.54 205.828 2048.54 201.129 Q2048.54 196.43 2046.6 193.768 Q2044.65 191.083 2041.28 191.083 Q2037.9 191.083 2035.95 193.768 Q2034.03 196.43 2034.03 201.129 Z" fill="#000000" fill-rule="nonzero" fill-opacity="1" /><path clip-path="url(#clip050)" d="M2083.75 200.041 L2083.75 202.124 L2064.17 202.124 Q2064.45 206.522 2066.81 208.837 Q2069.19 211.129 2073.43 211.129 Q2075.88 211.129 2078.17 210.527 Q2080.49 209.925 2082.76 208.721 L2082.76 212.749 Q2080.46 213.721 2078.06 214.231 Q2075.65 214.74 2073.17 214.74 Q2066.97 214.74 2063.34 211.129 Q2059.72 207.518 2059.72 201.36 Q2059.72 194.995 2063.15 191.268 Q2066.6 187.518 2072.43 187.518 Q2077.66 187.518 2080.7 190.897 Q2083.75 194.254 2083.75 200.041 M2079.49 198.791 Q2079.45 195.296 2077.53 193.212 Q2075.63 191.129 2072.48 191.129 Q2068.91 191.129 2066.76 193.143 Q2064.63 195.157 2064.31 198.814 L2079.49 198.791 Z" fill="#000000" fill-rule="nonzero" fill-opacity="1" /><path clip-path="url(#clip050)" d="M2116.04 178.097 Q2112.94 183.421 2111.44 188.629 Q2109.93 193.837 2109.93 199.184 Q2109.93 204.532 2111.44 209.786 Q2112.96 215.018 2116.04 220.319 L2112.34 220.319 Q2108.87 214.879 2107.13 209.624 Q2105.42 204.37 2105.42 199.184 Q2105.42 194.022 2107.13 188.791 Q2108.84 183.56 2112.34 178.097 L2116.04 178.097 Z" fill="#000000" fill-rule="nonzero" fill-opacity="1" /><path clip-path="url(#clip050)" d="M2148.06 209.138 L2148.06 199.856 L2140.42 199.856 L2140.42 196.013 L2152.69 196.013 L2152.69 210.851 Q2149.98 212.772 2146.71 213.768 Q2143.45 214.74 2139.75 214.74 Q2131.65 214.74 2127.06 210.018 Q2122.5 205.272 2122.5 196.823 Q2122.5 188.351 2127.06 183.629 Q2131.65 178.884 2139.75 178.884 Q2143.13 178.884 2146.16 179.717 Q2149.21 180.55 2151.78 182.171 L2151.78 187.147 Q2149.19 184.948 2146.27 183.837 Q2143.36 182.726 2140.14 182.726 Q2133.8 182.726 2130.6 186.268 Q2127.43 189.809 2127.43 196.823 Q2127.43 203.814 2130.6 207.356 Q2133.8 210.897 2140.14 210.897 Q2142.62 210.897 2144.56 210.481 Q2146.51 210.041 2148.06 209.138 Z" fill="#000000" fill-rule="nonzero" fill-opacity="1" /><path clip-path="url(#clip050)" d="M2172.83 201.036 Q2167.66 201.036 2165.67 202.217 Q2163.68 203.397 2163.68 206.245 Q2163.68 208.513 2165.16 209.856 Q2166.67 211.175 2169.24 211.175 Q2172.78 211.175 2174.91 208.675 Q2177.06 206.152 2177.06 201.985 L2177.06 201.036 L2172.83 201.036 M2181.32 199.277 L2181.32 214.069 L2177.06 214.069 L2177.06 210.133 Q2175.6 212.495 2173.43 213.629 Q2171.25 214.74 2168.1 214.74 Q2164.12 214.74 2161.76 212.518 Q2159.42 210.272 2159.42 206.522 Q2159.42 202.147 2162.34 199.925 Q2165.28 197.703 2171.09 197.703 L2177.06 197.703 L2177.06 197.286 Q2177.06 194.347 2175.12 192.749 Q2173.2 191.129 2169.7 191.129 Q2167.48 191.129 2165.37 191.661 Q2163.27 192.194 2161.32 193.259 L2161.32 189.323 Q2163.66 188.421 2165.86 187.981 Q2168.06 187.518 2170.14 187.518 Q2175.77 187.518 2178.54 190.434 Q2181.32 193.351 2181.32 199.277 Z" fill="#000000" fill-rule="nonzero" fill-opacity="1" /><path clip-path="url(#clip050)" d="M2201.83 184.115 L2195.49 201.314 L2208.2 201.314 L2201.83 184.115 M2199.19 179.509 L2204.49 179.509 L2217.66 214.069 L2212.8 214.069 L2209.65 205.203 L2194.08 205.203 L2190.93 214.069 L2186 214.069 L2199.19 179.509 Z" fill="#000000" fill-rule="nonzero" fill-opacity="1" /><path clip-path="url(#clip050)" d="M2239.05 188.907 L2239.05 192.934 Q2237.25 192.009 2235.3 191.546 Q2233.36 191.083 2231.27 191.083 Q2228.1 191.083 2226.51 192.055 Q2224.93 193.027 2224.93 194.971 Q2224.93 196.453 2226.07 197.309 Q2227.2 198.143 2230.63 198.907 L2232.08 199.231 Q2236.62 200.203 2238.52 201.985 Q2240.44 203.745 2240.44 206.916 Q2240.44 210.527 2237.57 212.633 Q2234.72 214.74 2229.72 214.74 Q2227.64 214.74 2225.37 214.323 Q2223.13 213.93 2220.63 213.12 L2220.63 208.721 Q2222.99 209.948 2225.28 210.573 Q2227.57 211.175 2229.82 211.175 Q2232.83 211.175 2234.45 210.157 Q2236.07 209.115 2236.07 207.24 Q2236.07 205.504 2234.89 204.578 Q2233.73 203.652 2229.77 202.796 L2228.29 202.448 Q2224.33 201.615 2222.57 199.902 Q2220.81 198.166 2220.81 195.157 Q2220.81 191.499 2223.4 189.509 Q2226 187.518 2230.76 187.518 Q2233.13 187.518 2235.21 187.865 Q2237.29 188.212 2239.05 188.907 Z" fill="#000000" fill-rule="nonzero" fill-opacity="1" /><path clip-path="url(#clip050)" d="M2246.55 178.097 L2250.26 178.097 Q2253.73 183.56 2255.44 188.791 Q2257.18 194.022 2257.18 199.184 Q2257.18 204.37 2255.44 209.624 Q2253.73 214.879 2250.26 220.319 L2246.55 220.319 Q2249.63 215.018 2251.14 209.786 Q2252.66 204.532 2252.66 199.184 Q2252.66 193.837 2251.14 188.629 Q2249.63 183.421 2246.55 178.097 Z" fill="#000000" fill-rule="nonzero" fill-opacity="1" /><polyline clip-path="url(#clip050)" style="stroke:#3da44d; stroke-linecap:round; stroke-linejoin:round; stroke-width:4; stroke-opacity:1; fill:none" stroke-dasharray="16, 8, 2, 8" points="1526.79,248.629 1670.16,248.629 "/>
<path clip-path="url(#clip050)" d="M1712.48 240.747 L1712.48 244.774 Q1710.68 243.849 1708.73 243.386 Q1706.79 242.923 1704.7 242.923 Q1701.53 242.923 1699.93 243.895 Q1698.36 244.867 1698.36 246.811 Q1698.36 248.293 1699.49 249.149 Q1700.63 249.983 1704.05 250.747 L1705.51 251.071 Q1710.05 252.043 1711.95 253.825 Q1713.87 255.585 1713.87 258.756 Q1713.87 262.367 1711 264.473 Q1708.15 266.58 1703.15 266.58 Q1701.07 266.58 1698.8 266.163 Q1696.55 265.77 1694.05 264.96 L1694.05 260.561 Q1696.42 261.788 1698.71 262.413 Q1701 263.015 1703.24 263.015 Q1706.25 263.015 1707.87 261.997 Q1709.49 260.955 1709.49 259.08 Q1709.49 257.344 1708.31 256.418 Q1707.16 255.492 1703.2 254.636 L1701.72 254.288 Q1697.76 253.455 1696 251.742 Q1694.24 250.006 1694.24 246.997 Q1694.24 243.339 1696.83 241.349 Q1699.43 239.358 1704.19 239.358 Q1706.55 239.358 1708.64 239.705 Q1710.72 240.052 1712.48 240.747 Z" fill="#000000" fill-rule="nonzero" fill-opacity="1" /><path clip-path="url(#clip050)" d="M1720.65 239.983 L1724.91 239.983 L1724.91 265.909 L1720.65 265.909 L1720.65 239.983 M1720.65 229.89 L1724.91 229.89 L1724.91 235.284 L1720.65 235.284 L1720.65 229.89 Z" fill="#000000" fill-rule="nonzero" fill-opacity="1" /><path clip-path="url(#clip050)" d="M1733.82 229.89 L1738.08 229.89 L1738.08 265.909 L1733.82 265.909 L1733.82 229.89 Z" fill="#000000" fill-rule="nonzero" fill-opacity="1" /><path clip-path="url(#clip050)" d="M1746.99 239.983 L1751.25 239.983 L1751.25 265.909 L1746.99 265.909 L1746.99 239.983 M1746.99 229.89 L1751.25 229.89 L1751.25 235.284 L1746.99 235.284 L1746.99 229.89 Z" fill="#000000" fill-rule="nonzero" fill-opacity="1" /><path clip-path="url(#clip050)" d="M1778.82 240.978 L1778.82 244.96 Q1777.02 243.964 1775.19 243.478 Q1773.38 242.969 1771.53 242.969 Q1767.39 242.969 1765.1 245.608 Q1762.8 248.224 1762.8 252.969 Q1762.8 257.714 1765.1 260.353 Q1767.39 262.969 1771.53 262.969 Q1773.38 262.969 1775.19 262.483 Q1777.02 261.973 1778.82 260.978 L1778.82 264.913 Q1777.04 265.747 1775.12 266.163 Q1773.22 266.58 1771.07 266.58 Q1765.21 266.58 1761.76 262.899 Q1758.31 259.219 1758.31 252.969 Q1758.31 246.626 1761.79 242.992 Q1765.28 239.358 1771.35 239.358 Q1773.31 239.358 1775.19 239.775 Q1777.06 240.168 1778.82 240.978 Z" fill="#000000" fill-rule="nonzero" fill-opacity="1" /><path clip-path="url(#clip050)" d="M1798.01 252.876 Q1792.85 252.876 1790.86 254.057 Q1788.87 255.237 1788.87 258.085 Q1788.87 260.353 1790.35 261.696 Q1791.86 263.015 1794.42 263.015 Q1797.97 263.015 1800.1 260.515 Q1802.25 257.992 1802.25 253.825 L1802.25 252.876 L1798.01 252.876 M1806.51 251.117 L1806.51 265.909 L1802.25 265.909 L1802.25 261.973 Q1800.79 264.335 1798.61 265.469 Q1796.44 266.58 1793.29 266.58 Q1789.31 266.58 1786.95 264.358 Q1784.61 262.112 1784.61 258.362 Q1784.61 253.987 1787.53 251.765 Q1790.47 249.543 1796.28 249.543 L1802.25 249.543 L1802.25 249.126 Q1802.25 246.187 1800.3 244.589 Q1798.38 242.969 1794.89 242.969 Q1792.67 242.969 1790.56 243.501 Q1788.45 244.034 1786.51 245.099 L1786.51 241.163 Q1788.85 240.261 1791.05 239.821 Q1793.24 239.358 1795.33 239.358 Q1800.95 239.358 1803.73 242.274 Q1806.51 245.191 1806.51 251.117 Z" fill="#000000" fill-rule="nonzero" fill-opacity="1" /><path clip-path="url(#clip050)" d="M1840.58 229.937 Q1837.48 235.261 1835.98 240.469 Q1834.47 245.677 1834.47 251.024 Q1834.47 256.372 1835.98 261.626 Q1837.5 266.858 1840.58 272.159 L1836.88 272.159 Q1833.41 266.719 1831.67 261.464 Q1829.96 256.21 1829.96 251.024 Q1829.96 245.862 1831.67 240.631 Q1833.38 235.4 1836.88 229.937 L1840.58 229.937 Z" fill="#000000" fill-rule="nonzero" fill-opacity="1" /><path clip-path="url(#clip050)" d="M1869.75 232.483 L1869.75 237.043 Q1867.09 235.77 1864.73 235.145 Q1862.36 234.52 1860.17 234.52 Q1856.35 234.52 1854.26 236.001 Q1852.2 237.483 1852.2 240.214 Q1852.2 242.506 1853.57 243.687 Q1854.96 244.844 1858.8 245.562 L1861.62 246.14 Q1866.85 247.136 1869.33 249.659 Q1871.83 252.159 1871.83 256.372 Q1871.83 261.395 1868.45 263.987 Q1865.1 266.58 1858.59 266.58 Q1856.14 266.58 1853.36 266.024 Q1850.6 265.469 1847.64 264.381 L1847.64 259.566 Q1850.49 261.163 1853.22 261.973 Q1855.95 262.784 1858.59 262.784 Q1862.6 262.784 1864.77 261.21 Q1866.95 259.636 1866.95 256.719 Q1866.95 254.173 1865.37 252.737 Q1863.82 251.302 1860.26 250.585 L1857.41 250.029 Q1852.18 248.987 1849.84 246.765 Q1847.5 244.543 1847.5 240.585 Q1847.5 236.001 1850.72 233.362 Q1853.96 230.724 1859.63 230.724 Q1862.06 230.724 1864.59 231.163 Q1867.11 231.603 1869.75 232.483 Z" fill="#000000" fill-rule="nonzero" fill-opacity="1" /><path clip-path="url(#clip050)" d="M1878.94 239.983 L1883.2 239.983 L1883.2 265.909 L1878.94 265.909 L1878.94 239.983 M1878.94 229.89 L1883.2 229.89 L1883.2 235.284 L1878.94 235.284 L1878.94 229.89 Z" fill="#000000" fill-rule="nonzero" fill-opacity="1" /><path clip-path="url(#clip050)" d="M1906.32 234.52 Q1901.23 234.52 1898.22 238.316 Q1895.23 242.112 1895.23 248.663 Q1895.23 255.191 1898.22 258.987 Q1901.23 262.784 1906.32 262.784 Q1911.41 262.784 1914.38 258.987 Q1917.36 255.191 1917.36 248.663 Q1917.36 242.112 1914.38 238.316 Q1911.41 234.52 1906.32 234.52 M1906.32 230.724 Q1913.59 230.724 1917.94 235.608 Q1922.29 240.469 1922.29 248.663 Q1922.29 256.835 1917.94 261.719 Q1913.59 266.58 1906.32 266.58 Q1899.03 266.58 1894.66 261.719 Q1890.3 256.858 1890.3 248.663 Q1890.3 240.469 1894.66 235.608 Q1899.03 230.724 1906.32 230.724 Z" fill="#000000" fill-rule="nonzero" fill-opacity="1" /><path clip-path="url(#clip050)" d="M1931.16 263.27 L1940.97 263.27 L1940.97 265.909 L1927.13 265.909 L1927.13 263.362 Q1927.92 262.645 1929.38 261.348 Q1937.34 254.288 1937.34 252.112 Q1937.34 250.585 1936.14 249.659 Q1934.93 248.71 1932.97 248.71 Q1931.76 248.71 1930.35 249.126 Q1928.94 249.52 1927.27 250.33 L1927.27 247.483 Q1929.05 246.835 1930.58 246.511 Q1932.13 246.187 1933.45 246.187 Q1936.81 246.187 1938.82 247.714 Q1940.84 249.242 1940.84 251.742 Q1940.84 254.96 1933.17 261.534 Q1931.88 262.645 1931.16 263.27 Z" fill="#000000" fill-rule="nonzero" fill-opacity="1" /><path clip-path="url(#clip050)" d="M1947.76 229.937 L1951.46 229.937 Q1954.93 235.4 1956.65 240.631 Q1958.38 245.862 1958.38 251.024 Q1958.38 256.21 1956.65 261.464 Q1954.93 266.719 1951.46 272.159 L1947.76 272.159 Q1950.84 266.858 1952.34 261.626 Q1953.87 256.372 1953.87 251.024 Q1953.87 245.677 1952.34 240.469 Q1950.84 235.261 1947.76 229.937 Z" fill="#000000" fill-rule="nonzero" fill-opacity="1" /></svg>
