<?xml version="1.0" encoding="utf-8"?>
<svg xmlns="http://www.w3.org/2000/svg" xmlns:xlink="http://www.w3.org/1999/xlink" width="600" height="400" viewBox="0 0 2400 1600">
<defs>
  <clipPath id="clip900">
    <rect x="0" y="0" width="2400" height="1600"/>
  </clipPath>
</defs>
<path clip-path="url(#clip900)" d="M0 1600 L2400 1600 L2400 0 L0 0  Z" fill="#ffffff" fill-rule="evenodd" fill-opacity="1"/>
<defs>
  <clipPath id="clip901">
    <rect x="480" y="0" width="1681" height="1600"/>
  </clipPath>
</defs>
<path clip-path="url(#clip900)" d="M279.704 1423.18 L2352.76 1423.18 L2352.76 47.2441 L279.704 47.2441  Z" fill="#ffffff" fill-rule="evenodd" fill-opacity="1"/>
<defs>
  <clipPath id="clip902">
    <rect x="279" y="47" width="2074" height="1377"/>
  </clipPath>
</defs>
<polyline clip-path="url(#clip902)" style="stroke:#000000; stroke-linecap:round; stroke-linejoin:round; stroke-width:2; stroke-opacity:0.1; fill:none" points="338.375,1423.18 338.375,47.2441 "/>
<polyline clip-path="url(#clip902)" style="stroke:#000000; stroke-linecap:round; stroke-linejoin:round; stroke-width:2; stroke-opacity:0.1; fill:none" points="750.103,1423.18 750.103,47.2441 "/>
<polyline clip-path="url(#clip902)" style="stroke:#000000; stroke-linecap:round; stroke-linejoin:round; stroke-width:2; stroke-opacity:0.1; fill:none" points="1161.83,1423.18 1161.83,47.2441 "/>
<polyline clip-path="url(#clip902)" style="stroke:#000000; stroke-linecap:round; stroke-linejoin:round; stroke-width:2; stroke-opacity:0.1; fill:none" points="1573.56,1423.18 1573.56,47.2441 "/>
<polyline clip-path="url(#clip902)" style="stroke:#000000; stroke-linecap:round; stroke-linejoin:round; stroke-width:2; stroke-opacity:0.1; fill:none" points="1985.29,1423.18 1985.29,47.2441 "/>
<polyline clip-path="url(#clip902)" style="stroke:#000000; stroke-linecap:round; stroke-linejoin:round; stroke-width:2; stroke-opacity:0.1; fill:none" points="279.704,1370.49 2352.76,1370.49 "/>
<polyline clip-path="url(#clip902)" style="stroke:#000000; stroke-linecap:round; stroke-linejoin:round; stroke-width:2; stroke-opacity:0.1; fill:none" points="279.704,1162.88 2352.76,1162.88 "/>
<polyline clip-path="url(#clip902)" style="stroke:#000000; stroke-linecap:round; stroke-linejoin:round; stroke-width:2; stroke-opacity:0.1; fill:none" points="279.704,955.275 2352.76,955.275 "/>
<polyline clip-path="url(#clip902)" style="stroke:#000000; stroke-linecap:round; stroke-linejoin:round; stroke-width:2; stroke-opacity:0.1; fill:none" points="279.704,747.668 2352.76,747.668 "/>
<polyline clip-path="url(#clip902)" style="stroke:#000000; stroke-linecap:round; stroke-linejoin:round; stroke-width:2; stroke-opacity:0.1; fill:none" points="279.704,540.06 2352.76,540.06 "/>
<polyline clip-path="url(#clip902)" style="stroke:#000000; stroke-linecap:round; stroke-linejoin:round; stroke-width:2; stroke-opacity:0.1; fill:none" points="279.704,332.453 2352.76,332.453 "/>
<polyline clip-path="url(#clip902)" style="stroke:#000000; stroke-linecap:round; stroke-linejoin:round; stroke-width:2; stroke-opacity:0.1; fill:none" points="279.704,124.846 2352.76,124.846 "/>
<polyline clip-path="url(#clip900)" style="stroke:#000000; stroke-linecap:round; stroke-linejoin:round; stroke-width:4; stroke-opacity:1; fill:none" points="279.704,1423.18 2352.76,1423.18 "/>
<polyline clip-path="url(#clip900)" style="stroke:#000000; stroke-linecap:round; stroke-linejoin:round; stroke-width:4; stroke-opacity:1; fill:none" points="338.375,1423.18 338.375,1404.28 "/>
<polyline clip-path="url(#clip900)" style="stroke:#000000; stroke-linecap:round; stroke-linejoin:round; stroke-width:4; stroke-opacity:1; fill:none" points="750.103,1423.18 750.103,1404.28 "/>
<polyline clip-path="url(#clip900)" style="stroke:#000000; stroke-linecap:round; stroke-linejoin:round; stroke-width:4; stroke-opacity:1; fill:none" points="1161.83,1423.18 1161.83,1404.28 "/>
<polyline clip-path="url(#clip900)" style="stroke:#000000; stroke-linecap:round; stroke-linejoin:round; stroke-width:4; stroke-opacity:1; fill:none" points="1573.56,1423.18 1573.56,1404.28 "/>
<polyline clip-path="url(#clip900)" style="stroke:#000000; stroke-linecap:round; stroke-linejoin:round; stroke-width:4; stroke-opacity:1; fill:none" points="1985.29,1423.18 1985.29,1404.28 "/>
<path clip-path="url(#clip900)" d="M315.76 1454.1 Q312.148 1454.1 310.32 1457.66 Q308.514 1461.2 308.514 1468.33 Q308.514 1475.44 310.32 1479.01 Q312.148 1482.55 315.76 1482.55 Q319.394 1482.55 321.199 1479.01 Q323.028 1475.44 323.028 1468.33 Q323.028 1461.2 321.199 1457.66 Q319.394 1454.1 315.76 1454.1 M315.76 1450.39 Q321.57 1450.39 324.625 1455 Q327.704 1459.58 327.704 1468.33 Q327.704 1477.06 324.625 1481.67 Q321.57 1486.25 315.76 1486.25 Q309.949 1486.25 306.871 1481.67 Q303.815 1477.06 303.815 1468.33 Q303.815 1459.58 306.871 1455 Q309.949 1450.39 315.76 1450.39 Z" fill="#000000" fill-rule="nonzero" fill-opacity="1" /><path clip-path="url(#clip900)" d="M335.922 1479.7 L340.806 1479.7 L340.806 1485.58 L335.922 1485.58 L335.922 1479.7 Z" fill="#000000" fill-rule="nonzero" fill-opacity="1" /><path clip-path="url(#clip900)" d="M360.991 1454.1 Q357.38 1454.1 355.551 1457.66 Q353.745 1461.2 353.745 1468.33 Q353.745 1475.44 355.551 1479.01 Q357.38 1482.55 360.991 1482.55 Q364.625 1482.55 366.431 1479.01 Q368.259 1475.44 368.259 1468.33 Q368.259 1461.2 366.431 1457.66 Q364.625 1454.1 360.991 1454.1 M360.991 1450.39 Q366.801 1450.39 369.857 1455 Q372.935 1459.58 372.935 1468.33 Q372.935 1477.06 369.857 1481.67 Q366.801 1486.25 360.991 1486.25 Q355.181 1486.25 352.102 1481.67 Q349.046 1477.06 349.046 1468.33 Q349.046 1459.58 352.102 1455 Q355.181 1450.39 360.991 1450.39 Z" fill="#000000" fill-rule="nonzero" fill-opacity="1" /><path clip-path="url(#clip900)" d="M728.286 1454.1 Q724.675 1454.1 722.847 1457.66 Q721.041 1461.2 721.041 1468.33 Q721.041 1475.44 722.847 1479.01 Q724.675 1482.55 728.286 1482.55 Q731.921 1482.55 733.726 1479.01 Q735.555 1475.44 735.555 1468.33 Q735.555 1461.2 733.726 1457.66 Q731.921 1454.1 728.286 1454.1 M728.286 1450.39 Q734.097 1450.39 737.152 1455 Q740.231 1459.58 740.231 1468.33 Q740.231 1477.06 737.152 1481.67 Q734.097 1486.25 728.286 1486.25 Q722.476 1486.25 719.398 1481.67 Q716.342 1477.06 716.342 1468.33 Q716.342 1459.58 719.398 1455 Q722.476 1450.39 728.286 1450.39 Z" fill="#000000" fill-rule="nonzero" fill-opacity="1" /><path clip-path="url(#clip900)" d="M748.448 1479.7 L753.333 1479.7 L753.333 1485.58 L748.448 1485.58 L748.448 1479.7 Z" fill="#000000" fill-rule="nonzero" fill-opacity="1" /><path clip-path="url(#clip900)" d="M767.546 1481.64 L783.865 1481.64 L783.865 1485.58 L761.921 1485.58 L761.921 1481.64 Q764.583 1478.89 769.166 1474.26 Q773.772 1469.61 774.953 1468.27 Q777.198 1465.74 778.078 1464.01 Q778.981 1462.25 778.981 1460.56 Q778.981 1457.8 777.036 1456.07 Q775.115 1454.33 772.013 1454.33 Q769.814 1454.33 767.36 1455.09 Q764.93 1455.86 762.152 1457.41 L762.152 1452.69 Q764.976 1451.55 767.43 1450.97 Q769.883 1450.39 771.921 1450.39 Q777.291 1450.39 780.485 1453.08 Q783.68 1455.77 783.68 1460.26 Q783.68 1462.39 782.87 1464.31 Q782.082 1466.2 779.976 1468.8 Q779.397 1469.47 776.295 1472.69 Q773.194 1475.88 767.546 1481.64 Z" fill="#000000" fill-rule="nonzero" fill-opacity="1" /><path clip-path="url(#clip900)" d="M1138.97 1454.1 Q1135.36 1454.1 1133.53 1457.66 Q1131.73 1461.2 1131.73 1468.33 Q1131.73 1475.44 1133.53 1479.01 Q1135.36 1482.55 1138.97 1482.55 Q1142.61 1482.55 1144.41 1479.01 Q1146.24 1475.44 1146.24 1468.33 Q1146.24 1461.2 1144.41 1457.66 Q1142.61 1454.1 1138.97 1454.1 M1138.97 1450.39 Q1144.78 1450.39 1147.84 1455 Q1150.92 1459.58 1150.92 1468.33 Q1150.92 1477.06 1147.84 1481.67 Q1144.78 1486.25 1138.97 1486.25 Q1133.16 1486.25 1130.08 1481.67 Q1127.03 1477.06 1127.03 1468.33 Q1127.03 1459.58 1130.08 1455 Q1133.16 1450.39 1138.97 1450.39 Z" fill="#000000" fill-rule="nonzero" fill-opacity="1" /><path clip-path="url(#clip900)" d="M1159.14 1479.7 L1164.02 1479.7 L1164.02 1485.58 L1159.14 1485.58 L1159.14 1479.7 Z" fill="#000000" fill-rule="nonzero" fill-opacity="1" /><path clip-path="url(#clip900)" d="M1187.05 1455.09 L1175.25 1473.54 L1187.05 1473.54 L1187.05 1455.09 M1185.82 1451.02 L1191.7 1451.02 L1191.7 1473.54 L1196.63 1473.54 L1196.63 1477.43 L1191.7 1477.43 L1191.7 1485.58 L1187.05 1485.58 L1187.05 1477.43 L1171.45 1477.43 L1171.45 1472.92 L1185.82 1451.02 Z" fill="#000000" fill-rule="nonzero" fill-opacity="1" /><path clip-path="url(#clip900)" d="M1550.86 1454.1 Q1547.25 1454.1 1545.42 1457.66 Q1543.62 1461.2 1543.62 1468.33 Q1543.62 1475.44 1545.42 1479.01 Q1547.25 1482.55 1550.86 1482.55 Q1554.5 1482.55 1556.3 1479.01 Q1558.13 1475.44 1558.13 1468.33 Q1558.13 1461.2 1556.3 1457.66 Q1554.5 1454.1 1550.86 1454.1 M1550.86 1450.39 Q1556.67 1450.39 1559.73 1455 Q1562.81 1459.58 1562.81 1468.33 Q1562.81 1477.06 1559.73 1481.67 Q1556.67 1486.25 1550.86 1486.25 Q1545.05 1486.25 1541.97 1481.67 Q1538.92 1477.06 1538.92 1468.33 Q1538.92 1459.58 1541.97 1455 Q1545.05 1450.39 1550.86 1450.39 Z" fill="#000000" fill-rule="nonzero" fill-opacity="1" /><path clip-path="url(#clip900)" d="M1571.03 1479.7 L1575.91 1479.7 L1575.91 1485.58 L1571.03 1485.58 L1571.03 1479.7 Z" fill="#000000" fill-rule="nonzero" fill-opacity="1" /><path clip-path="url(#clip900)" d="M1596.67 1466.44 Q1593.53 1466.44 1591.67 1468.59 Q1589.84 1470.74 1589.84 1474.49 Q1589.84 1478.22 1591.67 1480.39 Q1593.53 1482.55 1596.67 1482.55 Q1599.82 1482.55 1601.65 1480.39 Q1603.5 1478.22 1603.5 1474.49 Q1603.5 1470.74 1601.65 1468.59 Q1599.82 1466.44 1596.67 1466.44 M1605.96 1451.78 L1605.96 1456.04 Q1604.2 1455.21 1602.39 1454.77 Q1600.61 1454.33 1598.85 1454.33 Q1594.22 1454.33 1591.77 1457.45 Q1589.34 1460.58 1588.99 1466.9 Q1590.35 1464.89 1592.41 1463.82 Q1594.47 1462.73 1596.95 1462.73 Q1602.16 1462.73 1605.17 1465.9 Q1608.2 1469.05 1608.2 1474.49 Q1608.2 1479.82 1605.05 1483.03 Q1601.9 1486.25 1596.67 1486.25 Q1590.68 1486.25 1587.51 1481.67 Q1584.34 1477.06 1584.34 1468.33 Q1584.34 1460.14 1588.22 1455.28 Q1592.11 1450.39 1598.66 1450.39 Q1600.42 1450.39 1602.21 1450.74 Q1604.01 1451.09 1605.96 1451.78 Z" fill="#000000" fill-rule="nonzero" fill-opacity="1" /><path clip-path="url(#clip900)" d="M1962.72 1454.1 Q1959.11 1454.1 1957.28 1457.66 Q1955.47 1461.2 1955.47 1468.33 Q1955.47 1475.44 1957.28 1479.01 Q1959.11 1482.55 1962.72 1482.55 Q1966.35 1482.55 1968.16 1479.01 Q1969.99 1475.44 1969.99 1468.33 Q1969.99 1461.2 1968.16 1457.66 Q1966.35 1454.1 1962.72 1454.1 M1962.72 1450.39 Q1968.53 1450.39 1971.58 1455 Q1974.66 1459.58 1974.66 1468.33 Q1974.66 1477.06 1971.58 1481.67 Q1968.53 1486.25 1962.72 1486.25 Q1956.91 1486.25 1953.83 1481.67 Q1950.77 1477.06 1950.77 1468.33 Q1950.77 1459.58 1953.83 1455 Q1956.91 1450.39 1962.72 1450.39 Z" fill="#000000" fill-rule="nonzero" fill-opacity="1" /><path clip-path="url(#clip900)" d="M1982.88 1479.7 L1987.77 1479.7 L1987.77 1485.58 L1982.88 1485.58 L1982.88 1479.7 Z" fill="#000000" fill-rule="nonzero" fill-opacity="1" /><path clip-path="url(#clip900)" d="M2007.95 1469.17 Q2004.62 1469.17 2002.7 1470.95 Q2000.8 1472.73 2000.8 1475.86 Q2000.8 1478.98 2002.7 1480.77 Q2004.62 1482.55 2007.95 1482.55 Q2011.28 1482.55 2013.2 1480.77 Q2015.13 1478.96 2015.13 1475.86 Q2015.13 1472.73 2013.2 1470.95 Q2011.31 1469.17 2007.95 1469.17 M2003.27 1467.18 Q2000.27 1466.44 1998.58 1464.38 Q1996.91 1462.32 1996.91 1459.35 Q1996.91 1455.21 1999.85 1452.8 Q2002.81 1450.39 2007.95 1450.39 Q2013.11 1450.39 2016.05 1452.8 Q2018.99 1455.21 2018.99 1459.35 Q2018.99 1462.32 2017.3 1464.38 Q2015.64 1466.44 2012.65 1467.18 Q2016.03 1467.96 2017.9 1470.26 Q2019.8 1472.55 2019.8 1475.86 Q2019.8 1480.88 2016.72 1483.57 Q2013.67 1486.25 2007.95 1486.25 Q2002.23 1486.25 1999.15 1483.57 Q1996.1 1480.88 1996.1 1475.86 Q1996.1 1472.55 1998 1470.26 Q1999.89 1467.96 2003.27 1467.18 M2001.56 1459.79 Q2001.56 1462.48 2003.23 1463.98 Q2004.92 1465.49 2007.95 1465.49 Q2010.96 1465.49 2012.65 1463.98 Q2014.36 1462.48 2014.36 1459.79 Q2014.36 1457.11 2012.65 1455.6 Q2010.96 1454.1 2007.95 1454.1 Q2004.92 1454.1 2003.23 1455.6 Q2001.56 1457.11 2001.56 1459.79 Z" fill="#000000" fill-rule="nonzero" fill-opacity="1" /><path clip-path="url(#clip900)" d="M1332.84 1532.4 L1319.95 1549.74 L1333.51 1568.04 L1326.61 1568.04 L1316.23 1554.04 L1305.85 1568.04 L1298.95 1568.04 L1312.79 1549.39 L1300.12 1532.4 L1307.03 1532.4 L1316.48 1545.1 L1325.94 1532.4 L1332.84 1532.4 Z" fill="#000000" fill-rule="nonzero" fill-opacity="1" /><polyline clip-path="url(#clip900)" style="stroke:#000000; stroke-linecap:round; stroke-linejoin:round; stroke-width:4; stroke-opacity:1; fill:none" points="279.704,1423.18 279.704,47.2441 "/>
<polyline clip-path="url(#clip900)" style="stroke:#000000; stroke-linecap:round; stroke-linejoin:round; stroke-width:4; stroke-opacity:1; fill:none" points="279.704,1370.49 298.602,1370.49 "/>
<polyline clip-path="url(#clip900)" style="stroke:#000000; stroke-linecap:round; stroke-linejoin:round; stroke-width:4; stroke-opacity:1; fill:none" points="279.704,1162.88 298.602,1162.88 "/>
<polyline clip-path="url(#clip900)" style="stroke:#000000; stroke-linecap:round; stroke-linejoin:round; stroke-width:4; stroke-opacity:1; fill:none" points="279.704,955.275 298.602,955.275 "/>
<polyline clip-path="url(#clip900)" style="stroke:#000000; stroke-linecap:round; stroke-linejoin:round; stroke-width:4; stroke-opacity:1; fill:none" points="279.704,747.668 298.602,747.668 "/>
<polyline clip-path="url(#clip900)" style="stroke:#000000; stroke-linecap:round; stroke-linejoin:round; stroke-width:4; stroke-opacity:1; fill:none" points="279.704,540.06 298.602,540.06 "/>
<polyline clip-path="url(#clip900)" style="stroke:#000000; stroke-linecap:round; stroke-linejoin:round; stroke-width:4; stroke-opacity:1; fill:none" points="279.704,332.453 298.602,332.453 "/>
<polyline clip-path="url(#clip900)" style="stroke:#000000; stroke-linecap:round; stroke-linejoin:round; stroke-width:4; stroke-opacity:1; fill:none" points="279.704,124.846 298.602,124.846 "/>
<path clip-path="url(#clip900)" d="M127.2 1356.29 Q123.589 1356.29 121.76 1359.85 Q119.955 1363.4 119.955 1370.52 Q119.955 1377.63 121.76 1381.2 Q123.589 1384.74 127.2 1384.74 Q130.834 1384.74 132.64 1381.2 Q134.468 1377.63 134.468 1370.52 Q134.468 1363.4 132.64 1359.85 Q130.834 1356.29 127.2 1356.29 M127.2 1352.59 Q133.01 1352.59 136.066 1357.19 Q139.144 1361.77 139.144 1370.52 Q139.144 1379.25 136.066 1383.86 Q133.01 1388.44 127.2 1388.44 Q121.39 1388.44 118.311 1383.86 Q115.256 1379.25 115.256 1370.52 Q115.256 1361.77 118.311 1357.19 Q121.39 1352.59 127.2 1352.59 Z" fill="#000000" fill-rule="nonzero" fill-opacity="1" /><path clip-path="url(#clip900)" d="M147.362 1381.89 L152.246 1381.89 L152.246 1387.77 L147.362 1387.77 L147.362 1381.89 Z" fill="#000000" fill-rule="nonzero" fill-opacity="1" /><path clip-path="url(#clip900)" d="M172.431 1356.29 Q168.82 1356.29 166.991 1359.85 Q165.186 1363.4 165.186 1370.52 Q165.186 1377.63 166.991 1381.2 Q168.82 1384.74 172.431 1384.74 Q176.065 1384.74 177.871 1381.2 Q179.7 1377.63 179.7 1370.52 Q179.7 1363.4 177.871 1359.85 Q176.065 1356.29 172.431 1356.29 M172.431 1352.59 Q178.241 1352.59 181.297 1357.19 Q184.376 1361.77 184.376 1370.52 Q184.376 1379.25 181.297 1383.86 Q178.241 1388.44 172.431 1388.44 Q166.621 1388.44 163.542 1383.86 Q160.487 1379.25 160.487 1370.52 Q160.487 1361.77 163.542 1357.19 Q166.621 1352.59 172.431 1352.59 Z" fill="#000000" fill-rule="nonzero" fill-opacity="1" /><path clip-path="url(#clip900)" d="M192.639 1353.21 L210.996 1353.21 L210.996 1357.15 L196.922 1357.15 L196.922 1365.62 Q197.94 1365.27 198.959 1365.11 Q199.977 1364.92 200.996 1364.92 Q206.783 1364.92 210.162 1368.09 Q213.542 1371.27 213.542 1376.68 Q213.542 1382.26 210.07 1385.36 Q206.598 1388.44 200.278 1388.44 Q198.102 1388.44 195.834 1388.07 Q193.588 1387.7 191.181 1386.96 L191.181 1382.26 Q193.264 1383.4 195.487 1383.95 Q197.709 1384.51 200.186 1384.51 Q204.19 1384.51 206.528 1382.4 Q208.866 1380.29 208.866 1376.68 Q208.866 1373.07 206.528 1370.96 Q204.19 1368.86 200.186 1368.86 Q198.311 1368.86 196.436 1369.27 Q194.584 1369.69 192.639 1370.57 L192.639 1353.21 Z" fill="#000000" fill-rule="nonzero" fill-opacity="1" /><path clip-path="url(#clip900)" d="M222.801 1353.21 L241.158 1353.21 L241.158 1357.15 L227.084 1357.15 L227.084 1365.62 Q228.102 1365.27 229.121 1365.11 Q230.139 1364.92 231.158 1364.92 Q236.945 1364.92 240.324 1368.09 Q243.704 1371.27 243.704 1376.68 Q243.704 1382.26 240.232 1385.36 Q236.76 1388.44 230.44 1388.44 Q228.264 1388.44 225.996 1388.07 Q223.75 1387.7 221.343 1386.96 L221.343 1382.26 Q223.426 1383.4 225.648 1383.95 Q227.871 1384.51 230.347 1384.51 Q234.352 1384.51 236.69 1382.4 Q239.028 1380.29 239.028 1376.68 Q239.028 1373.07 236.69 1370.96 Q234.352 1368.86 230.347 1368.86 Q228.473 1368.86 226.598 1369.27 Q224.746 1369.69 222.801 1370.57 L222.801 1353.21 Z" fill="#000000" fill-rule="nonzero" fill-opacity="1" /><path clip-path="url(#clip900)" d="M126.205 1148.68 Q122.593 1148.68 120.765 1152.25 Q118.959 1155.79 118.959 1162.92 Q118.959 1170.02 120.765 1173.59 Q122.593 1177.13 126.205 1177.13 Q129.839 1177.13 131.644 1173.59 Q133.473 1170.02 133.473 1162.92 Q133.473 1155.79 131.644 1152.25 Q129.839 1148.68 126.205 1148.68 M126.205 1144.98 Q132.015 1144.98 135.07 1149.58 Q138.149 1154.17 138.149 1162.92 Q138.149 1171.64 135.07 1176.25 Q132.015 1180.83 126.205 1180.83 Q120.394 1180.83 117.316 1176.25 Q114.26 1171.64 114.26 1162.92 Q114.26 1154.17 117.316 1149.58 Q120.394 1144.98 126.205 1144.98 Z" fill="#000000" fill-rule="nonzero" fill-opacity="1" /><path clip-path="url(#clip900)" d="M146.366 1174.28 L151.251 1174.28 L151.251 1180.16 L146.366 1180.16 L146.366 1174.28 Z" fill="#000000" fill-rule="nonzero" fill-opacity="1" /><path clip-path="url(#clip900)" d="M171.436 1148.68 Q167.825 1148.68 165.996 1152.25 Q164.19 1155.79 164.19 1162.92 Q164.19 1170.02 165.996 1173.59 Q167.825 1177.13 171.436 1177.13 Q175.07 1177.13 176.876 1173.59 Q178.704 1170.02 178.704 1162.92 Q178.704 1155.79 176.876 1152.25 Q175.07 1148.68 171.436 1148.68 M171.436 1144.98 Q177.246 1144.98 180.301 1149.58 Q183.38 1154.17 183.38 1162.92 Q183.38 1171.64 180.301 1176.25 Q177.246 1180.83 171.436 1180.83 Q165.626 1180.83 162.547 1176.25 Q159.491 1171.64 159.491 1162.92 Q159.491 1154.17 162.547 1149.58 Q165.626 1144.98 171.436 1144.98 Z" fill="#000000" fill-rule="nonzero" fill-opacity="1" /><path clip-path="url(#clip900)" d="M202.176 1161.02 Q199.028 1161.02 197.176 1163.17 Q195.348 1165.32 195.348 1169.07 Q195.348 1172.8 197.176 1174.98 Q199.028 1177.13 202.176 1177.13 Q205.324 1177.13 207.153 1174.98 Q209.005 1172.8 209.005 1169.07 Q209.005 1165.32 207.153 1163.17 Q205.324 1161.02 202.176 1161.02 M211.459 1146.37 L211.459 1150.63 Q209.699 1149.79 207.894 1149.35 Q206.112 1148.91 204.352 1148.91 Q199.723 1148.91 197.269 1152.04 Q194.838 1155.16 194.491 1161.48 Q195.857 1159.47 197.917 1158.4 Q199.977 1157.32 202.454 1157.32 Q207.662 1157.32 210.672 1160.49 Q213.704 1163.63 213.704 1169.07 Q213.704 1174.4 210.556 1177.62 Q207.408 1180.83 202.176 1180.83 Q196.181 1180.83 193.01 1176.25 Q189.838 1171.64 189.838 1162.92 Q189.838 1154.72 193.727 1149.86 Q197.616 1144.98 204.167 1144.98 Q205.926 1144.98 207.709 1145.32 Q209.514 1145.67 211.459 1146.37 Z" fill="#000000" fill-rule="nonzero" fill-opacity="1" /><path clip-path="url(#clip900)" d="M231.76 1148.68 Q228.148 1148.68 226.32 1152.25 Q224.514 1155.79 224.514 1162.92 Q224.514 1170.02 226.32 1173.59 Q228.148 1177.13 231.76 1177.13 Q235.394 1177.13 237.199 1173.59 Q239.028 1170.02 239.028 1162.92 Q239.028 1155.79 237.199 1152.25 Q235.394 1148.68 231.76 1148.68 M231.76 1144.98 Q237.57 1144.98 240.625 1149.58 Q243.704 1154.17 243.704 1162.92 Q243.704 1171.64 240.625 1176.25 Q237.57 1180.83 231.76 1180.83 Q225.949 1180.83 222.871 1176.25 Q219.815 1171.64 219.815 1162.92 Q219.815 1154.17 222.871 1149.58 Q225.949 1144.98 231.76 1144.98 Z" fill="#000000" fill-rule="nonzero" fill-opacity="1" /><path clip-path="url(#clip900)" d="M127.2 941.074 Q123.589 941.074 121.76 944.639 Q119.955 948.18 119.955 955.31 Q119.955 962.416 121.76 965.981 Q123.589 969.523 127.2 969.523 Q130.834 969.523 132.64 965.981 Q134.468 962.416 134.468 955.31 Q134.468 948.18 132.64 944.639 Q130.834 941.074 127.2 941.074 M127.2 937.37 Q133.01 937.37 136.066 941.977 Q139.144 946.56 139.144 955.31 Q139.144 964.037 136.066 968.643 Q133.01 973.227 127.2 973.227 Q121.39 973.227 118.311 968.643 Q115.256 964.037 115.256 955.31 Q115.256 946.56 118.311 941.977 Q121.39 937.37 127.2 937.37 Z" fill="#000000" fill-rule="nonzero" fill-opacity="1" /><path clip-path="url(#clip900)" d="M147.362 966.676 L152.246 966.676 L152.246 972.555 L147.362 972.555 L147.362 966.676 Z" fill="#000000" fill-rule="nonzero" fill-opacity="1" /><path clip-path="url(#clip900)" d="M172.431 941.074 Q168.82 941.074 166.991 944.639 Q165.186 948.18 165.186 955.31 Q165.186 962.416 166.991 965.981 Q168.82 969.523 172.431 969.523 Q176.065 969.523 177.871 965.981 Q179.7 962.416 179.7 955.31 Q179.7 948.18 177.871 944.639 Q176.065 941.074 172.431 941.074 M172.431 937.37 Q178.241 937.37 181.297 941.977 Q184.376 946.56 184.376 955.31 Q184.376 964.037 181.297 968.643 Q178.241 973.227 172.431 973.227 Q166.621 973.227 163.542 968.643 Q160.487 964.037 160.487 955.31 Q160.487 946.56 163.542 941.977 Q166.621 937.37 172.431 937.37 Z" fill="#000000" fill-rule="nonzero" fill-opacity="1" /><path clip-path="url(#clip900)" d="M203.172 953.412 Q200.024 953.412 198.172 955.565 Q196.343 957.717 196.343 961.467 Q196.343 965.194 198.172 967.37 Q200.024 969.523 203.172 969.523 Q206.32 969.523 208.149 967.37 Q210 965.194 210 961.467 Q210 957.717 208.149 955.565 Q206.32 953.412 203.172 953.412 M212.454 938.759 L212.454 943.018 Q210.695 942.185 208.889 941.745 Q207.107 941.305 205.348 941.305 Q200.718 941.305 198.264 944.43 Q195.834 947.555 195.487 953.875 Q196.852 951.861 198.912 950.796 Q200.973 949.708 203.449 949.708 Q208.658 949.708 211.667 952.879 Q214.699 956.028 214.699 961.467 Q214.699 966.791 211.551 970.009 Q208.403 973.227 203.172 973.227 Q197.176 973.227 194.005 968.643 Q190.834 964.037 190.834 955.31 Q190.834 947.116 194.723 942.254 Q198.612 937.37 205.162 937.37 Q206.922 937.37 208.704 937.717 Q210.51 938.065 212.454 938.759 Z" fill="#000000" fill-rule="nonzero" fill-opacity="1" /><path clip-path="url(#clip900)" d="M222.801 937.995 L241.158 937.995 L241.158 941.93 L227.084 941.93 L227.084 950.403 Q228.102 950.055 229.121 949.893 Q230.139 949.708 231.158 949.708 Q236.945 949.708 240.324 952.879 Q243.704 956.051 243.704 961.467 Q243.704 967.046 240.232 970.148 Q236.76 973.227 230.44 973.227 Q228.264 973.227 225.996 972.856 Q223.75 972.486 221.343 971.745 L221.343 967.046 Q223.426 968.18 225.648 968.736 Q227.871 969.291 230.347 969.291 Q234.352 969.291 236.69 967.185 Q239.028 965.078 239.028 961.467 Q239.028 957.856 236.69 955.75 Q234.352 953.643 230.347 953.643 Q228.473 953.643 226.598 954.06 Q224.746 954.477 222.801 955.356 L222.801 937.995 Z" fill="#000000" fill-rule="nonzero" fill-opacity="1" /><path clip-path="url(#clip900)" d="M126.205 733.466 Q122.593 733.466 120.765 737.031 Q118.959 740.573 118.959 747.703 Q118.959 754.809 120.765 758.374 Q122.593 761.915 126.205 761.915 Q129.839 761.915 131.644 758.374 Q133.473 754.809 133.473 747.703 Q133.473 740.573 131.644 737.031 Q129.839 733.466 126.205 733.466 M126.205 729.763 Q132.015 729.763 135.07 734.369 Q138.149 738.953 138.149 747.703 Q138.149 756.429 135.07 761.036 Q132.015 765.619 126.205 765.619 Q120.394 765.619 117.316 761.036 Q114.26 756.429 114.26 747.703 Q114.26 738.953 117.316 734.369 Q120.394 729.763 126.205 729.763 Z" fill="#000000" fill-rule="nonzero" fill-opacity="1" /><path clip-path="url(#clip900)" d="M146.366 759.068 L151.251 759.068 L151.251 764.948 L146.366 764.948 L146.366 759.068 Z" fill="#000000" fill-rule="nonzero" fill-opacity="1" /><path clip-path="url(#clip900)" d="M171.436 733.466 Q167.825 733.466 165.996 737.031 Q164.19 740.573 164.19 747.703 Q164.19 754.809 165.996 758.374 Q167.825 761.915 171.436 761.915 Q175.07 761.915 176.876 758.374 Q178.704 754.809 178.704 747.703 Q178.704 740.573 176.876 737.031 Q175.07 733.466 171.436 733.466 M171.436 729.763 Q177.246 729.763 180.301 734.369 Q183.38 738.953 183.38 747.703 Q183.38 756.429 180.301 761.036 Q177.246 765.619 171.436 765.619 Q165.626 765.619 162.547 761.036 Q159.491 756.429 159.491 747.703 Q159.491 738.953 162.547 734.369 Q165.626 729.763 171.436 729.763 Z" fill="#000000" fill-rule="nonzero" fill-opacity="1" /><path clip-path="url(#clip900)" d="M190.417 730.388 L212.639 730.388 L212.639 732.379 L200.093 764.948 L195.209 764.948 L207.014 734.323 L190.417 734.323 L190.417 730.388 Z" fill="#000000" fill-rule="nonzero" fill-opacity="1" /><path clip-path="url(#clip900)" d="M231.76 733.466 Q228.148 733.466 226.32 737.031 Q224.514 740.573 224.514 747.703 Q224.514 754.809 226.32 758.374 Q228.148 761.915 231.76 761.915 Q235.394 761.915 237.199 758.374 Q239.028 754.809 239.028 747.703 Q239.028 740.573 237.199 737.031 Q235.394 733.466 231.76 733.466 M231.76 729.763 Q237.57 729.763 240.625 734.369 Q243.704 738.953 243.704 747.703 Q243.704 756.429 240.625 761.036 Q237.57 765.619 231.76 765.619 Q225.949 765.619 222.871 761.036 Q219.815 756.429 219.815 747.703 Q219.815 738.953 222.871 734.369 Q225.949 729.763 231.76 729.763 Z" fill="#000000" fill-rule="nonzero" fill-opacity="1" /><path clip-path="url(#clip900)" d="M127.2 525.859 Q123.589 525.859 121.76 529.424 Q119.955 532.966 119.955 540.095 Q119.955 547.202 121.76 550.766 Q123.589 554.308 127.2 554.308 Q130.834 554.308 132.64 550.766 Q134.468 547.202 134.468 540.095 Q134.468 532.966 132.64 529.424 Q130.834 525.859 127.2 525.859 M127.2 522.155 Q133.01 522.155 136.066 526.762 Q139.144 531.345 139.144 540.095 Q139.144 548.822 136.066 553.428 Q133.01 558.012 127.2 558.012 Q121.39 558.012 118.311 553.428 Q115.256 548.822 115.256 540.095 Q115.256 531.345 118.311 526.762 Q121.39 522.155 127.2 522.155 Z" fill="#000000" fill-rule="nonzero" fill-opacity="1" /><path clip-path="url(#clip900)" d="M147.362 551.461 L152.246 551.461 L152.246 557.34 L147.362 557.34 L147.362 551.461 Z" fill="#000000" fill-rule="nonzero" fill-opacity="1" /><path clip-path="url(#clip900)" d="M172.431 525.859 Q168.82 525.859 166.991 529.424 Q165.186 532.966 165.186 540.095 Q165.186 547.202 166.991 550.766 Q168.82 554.308 172.431 554.308 Q176.065 554.308 177.871 550.766 Q179.7 547.202 179.7 540.095 Q179.7 532.966 177.871 529.424 Q176.065 525.859 172.431 525.859 M172.431 522.155 Q178.241 522.155 181.297 526.762 Q184.376 531.345 184.376 540.095 Q184.376 548.822 181.297 553.428 Q178.241 558.012 172.431 558.012 Q166.621 558.012 163.542 553.428 Q160.487 548.822 160.487 540.095 Q160.487 531.345 163.542 526.762 Q166.621 522.155 172.431 522.155 Z" fill="#000000" fill-rule="nonzero" fill-opacity="1" /><path clip-path="url(#clip900)" d="M191.413 522.78 L213.635 522.78 L213.635 524.771 L201.088 557.34 L196.204 557.34 L208.01 526.716 L191.413 526.716 L191.413 522.78 Z" fill="#000000" fill-rule="nonzero" fill-opacity="1" /><path clip-path="url(#clip900)" d="M222.801 522.78 L241.158 522.78 L241.158 526.716 L227.084 526.716 L227.084 535.188 Q228.102 534.84 229.121 534.678 Q230.139 534.493 231.158 534.493 Q236.945 534.493 240.324 537.665 Q243.704 540.836 243.704 546.252 Q243.704 551.831 240.232 554.933 Q236.76 558.012 230.44 558.012 Q228.264 558.012 225.996 557.641 Q223.75 557.271 221.343 556.53 L221.343 551.831 Q223.426 552.965 225.648 553.521 Q227.871 554.076 230.347 554.076 Q234.352 554.076 236.69 551.97 Q239.028 549.864 239.028 546.252 Q239.028 542.641 236.69 540.535 Q234.352 538.428 230.347 538.428 Q228.473 538.428 226.598 538.845 Q224.746 539.262 222.801 540.141 L222.801 522.78 Z" fill="#000000" fill-rule="nonzero" fill-opacity="1" /><path clip-path="url(#clip900)" d="M126.205 318.252 Q122.593 318.252 120.765 321.816 Q118.959 325.358 118.959 332.488 Q118.959 339.594 120.765 343.159 Q122.593 346.701 126.205 346.701 Q129.839 346.701 131.644 343.159 Q133.473 339.594 133.473 332.488 Q133.473 325.358 131.644 321.816 Q129.839 318.252 126.205 318.252 M126.205 314.548 Q132.015 314.548 135.07 319.154 Q138.149 323.738 138.149 332.488 Q138.149 341.214 135.07 345.821 Q132.015 350.404 126.205 350.404 Q120.394 350.404 117.316 345.821 Q114.26 341.214 114.26 332.488 Q114.26 323.738 117.316 319.154 Q120.394 314.548 126.205 314.548 Z" fill="#000000" fill-rule="nonzero" fill-opacity="1" /><path clip-path="url(#clip900)" d="M146.366 343.853 L151.251 343.853 L151.251 349.733 L146.366 349.733 L146.366 343.853 Z" fill="#000000" fill-rule="nonzero" fill-opacity="1" /><path clip-path="url(#clip900)" d="M171.436 318.252 Q167.825 318.252 165.996 321.816 Q164.19 325.358 164.19 332.488 Q164.19 339.594 165.996 343.159 Q167.825 346.701 171.436 346.701 Q175.07 346.701 176.876 343.159 Q178.704 339.594 178.704 332.488 Q178.704 325.358 176.876 321.816 Q175.07 318.252 171.436 318.252 M171.436 314.548 Q177.246 314.548 180.301 319.154 Q183.38 323.738 183.38 332.488 Q183.38 341.214 180.301 345.821 Q177.246 350.404 171.436 350.404 Q165.626 350.404 162.547 345.821 Q159.491 341.214 159.491 332.488 Q159.491 323.738 162.547 319.154 Q165.626 314.548 171.436 314.548 Z" fill="#000000" fill-rule="nonzero" fill-opacity="1" /><path clip-path="url(#clip900)" d="M201.598 333.321 Q198.264 333.321 196.343 335.103 Q194.445 336.886 194.445 340.011 Q194.445 343.136 196.343 344.918 Q198.264 346.701 201.598 346.701 Q204.931 346.701 206.852 344.918 Q208.774 343.113 208.774 340.011 Q208.774 336.886 206.852 335.103 Q204.954 333.321 201.598 333.321 M196.922 331.33 Q193.913 330.59 192.223 328.529 Q190.556 326.469 190.556 323.506 Q190.556 319.363 193.496 316.955 Q196.459 314.548 201.598 314.548 Q206.76 314.548 209.699 316.955 Q212.639 319.363 212.639 323.506 Q212.639 326.469 210.949 328.529 Q209.283 330.59 206.297 331.33 Q209.676 332.117 211.551 334.409 Q213.449 336.701 213.449 340.011 Q213.449 345.034 210.371 347.719 Q207.315 350.404 201.598 350.404 Q195.88 350.404 192.801 347.719 Q189.746 345.034 189.746 340.011 Q189.746 336.701 191.644 334.409 Q193.542 332.117 196.922 331.33 M195.209 323.946 Q195.209 326.631 196.875 328.136 Q198.565 329.64 201.598 329.64 Q204.607 329.64 206.297 328.136 Q208.01 326.631 208.01 323.946 Q208.01 321.261 206.297 319.756 Q204.607 318.252 201.598 318.252 Q198.565 318.252 196.875 319.756 Q195.209 321.261 195.209 323.946 Z" fill="#000000" fill-rule="nonzero" fill-opacity="1" /><path clip-path="url(#clip900)" d="M231.76 318.252 Q228.148 318.252 226.32 321.816 Q224.514 325.358 224.514 332.488 Q224.514 339.594 226.32 343.159 Q228.148 346.701 231.76 346.701 Q235.394 346.701 237.199 343.159 Q239.028 339.594 239.028 332.488 Q239.028 325.358 237.199 321.816 Q235.394 318.252 231.76 318.252 M231.76 314.548 Q237.57 314.548 240.625 319.154 Q243.704 323.738 243.704 332.488 Q243.704 341.214 240.625 345.821 Q237.57 350.404 231.76 350.404 Q225.949 350.404 222.871 345.821 Q219.815 341.214 219.815 332.488 Q219.815 323.738 222.871 319.154 Q225.949 314.548 231.76 314.548 Z" fill="#000000" fill-rule="nonzero" fill-opacity="1" /><path clip-path="url(#clip900)" d="M127.2 110.644 Q123.589 110.644 121.76 114.209 Q119.955 117.751 119.955 124.88 Q119.955 131.987 121.76 135.551 Q123.589 139.093 127.2 139.093 Q130.834 139.093 132.64 135.551 Q134.468 131.987 134.468 124.88 Q134.468 117.751 132.64 114.209 Q130.834 110.644 127.2 110.644 M127.2 106.941 Q133.01 106.941 136.066 111.547 Q139.144 116.13 139.144 124.88 Q139.144 133.607 136.066 138.213 Q133.01 142.797 127.2 142.797 Q121.39 142.797 118.311 138.213 Q115.256 133.607 115.256 124.88 Q115.256 116.13 118.311 111.547 Q121.39 106.941 127.2 106.941 Z" fill="#000000" fill-rule="nonzero" fill-opacity="1" /><path clip-path="url(#clip900)" d="M147.362 136.246 L152.246 136.246 L152.246 142.126 L147.362 142.126 L147.362 136.246 Z" fill="#000000" fill-rule="nonzero" fill-opacity="1" /><path clip-path="url(#clip900)" d="M172.431 110.644 Q168.82 110.644 166.991 114.209 Q165.186 117.751 165.186 124.88 Q165.186 131.987 166.991 135.551 Q168.82 139.093 172.431 139.093 Q176.065 139.093 177.871 135.551 Q179.7 131.987 179.7 124.88 Q179.7 117.751 177.871 114.209 Q176.065 110.644 172.431 110.644 M172.431 106.941 Q178.241 106.941 181.297 111.547 Q184.376 116.13 184.376 124.88 Q184.376 133.607 181.297 138.213 Q178.241 142.797 172.431 142.797 Q166.621 142.797 163.542 138.213 Q160.487 133.607 160.487 124.88 Q160.487 116.13 163.542 111.547 Q166.621 106.941 172.431 106.941 Z" fill="#000000" fill-rule="nonzero" fill-opacity="1" /><path clip-path="url(#clip900)" d="M202.593 125.714 Q199.26 125.714 197.338 127.496 Q195.44 129.278 195.44 132.403 Q195.44 135.528 197.338 137.311 Q199.26 139.093 202.593 139.093 Q205.926 139.093 207.848 137.311 Q209.769 135.505 209.769 132.403 Q209.769 129.278 207.848 127.496 Q205.949 125.714 202.593 125.714 M197.917 123.723 Q194.908 122.982 193.218 120.922 Q191.551 118.862 191.551 115.899 Q191.551 111.755 194.491 109.348 Q197.454 106.941 202.593 106.941 Q207.755 106.941 210.695 109.348 Q213.635 111.755 213.635 115.899 Q213.635 118.862 211.945 120.922 Q210.278 122.982 207.292 123.723 Q210.672 124.51 212.547 126.802 Q214.445 129.093 214.445 132.403 Q214.445 137.426 211.366 140.112 Q208.311 142.797 202.593 142.797 Q196.875 142.797 193.797 140.112 Q190.741 137.426 190.741 132.403 Q190.741 129.093 192.639 126.802 Q194.538 124.51 197.917 123.723 M196.204 116.339 Q196.204 119.024 197.871 120.528 Q199.561 122.033 202.593 122.033 Q205.602 122.033 207.292 120.528 Q209.005 119.024 209.005 116.339 Q209.005 113.653 207.292 112.149 Q205.602 110.644 202.593 110.644 Q199.561 110.644 197.871 112.149 Q196.204 113.653 196.204 116.339 Z" fill="#000000" fill-rule="nonzero" fill-opacity="1" /><path clip-path="url(#clip900)" d="M222.801 107.566 L241.158 107.566 L241.158 111.501 L227.084 111.501 L227.084 119.973 Q228.102 119.626 229.121 119.464 Q230.139 119.278 231.158 119.278 Q236.945 119.278 240.324 122.45 Q243.704 125.621 243.704 131.038 Q243.704 136.616 240.232 139.718 Q236.76 142.797 230.44 142.797 Q228.264 142.797 225.996 142.426 Q223.75 142.056 221.343 141.315 L221.343 136.616 Q223.426 137.751 225.648 138.306 Q227.871 138.862 230.347 138.862 Q234.352 138.862 236.69 136.755 Q239.028 134.649 239.028 131.038 Q239.028 127.427 236.69 125.32 Q234.352 123.214 230.347 123.214 Q228.473 123.214 226.598 123.63 Q224.746 124.047 222.801 124.927 L222.801 107.566 Z" fill="#000000" fill-rule="nonzero" fill-opacity="1" /><path clip-path="url(#clip900)" d="M34.7219 748.293 Q31.4754 746.352 28.6108 741.546 Q27.4968 739.668 27.4968 733.875 Q27.4968 727.382 32.6531 723.34 Q37.8093 719.266 46.212 719.266 Q54.6147 719.266 59.771 723.34 Q64.9272 727.382 64.9272 733.875 Q64.9272 737.79 63.3994 740.623 Q61.8398 743.424 58.657 745.27 L77.5631 745.27 L77.5631 751.158 L46.5303 751.158 Q39.1779 751.158 34.7219 748.293 M46.212 725.345 Q39.7508 725.345 36.0905 728.019 Q32.3984 730.66 32.3984 735.307 Q32.3984 739.954 36.0905 742.628 Q39.7508 745.27 46.212 745.27 Q52.6732 745.27 56.3653 742.628 Q60.0256 739.954 60.0256 735.307 Q60.0256 730.66 56.3653 728.019 Q52.6732 725.345 46.212 725.345 Z" fill="#000000" fill-rule="nonzero" fill-opacity="1" /><polyline clip-path="url(#clip902)" style="stroke:#009af9; stroke-linecap:round; stroke-linejoin:round; stroke-width:4; stroke-opacity:1; fill:none" points="338.375,86.1857 441.307,128.864 544.239,321.454 647.171,722.677 750.103,1179.11 853.036,1384.24 955.968,1179.11 1058.9,722.677 1161.83,321.454 1264.76,128.864 1367.7,86.1857 1470.63,128.864 1573.56,321.454 1676.49,722.677 1779.42,1179.11 1882.36,1384.24 1985.29,1179.11 2088.22,722.677 2191.15,321.454 2294.08,128.864 "/>
<circle clip-path="url(#clip902)" cx="338.375" cy="86.1857" r="7.2" fill="#009af9" fill-rule="evenodd" fill-opacity="1" stroke="#000000" stroke-opacity="1" stroke-width="3.2"/>
<circle clip-path="url(#clip902)" cx="441.307" cy="128.864" r="7.2" fill="#009af9" fill-rule="evenodd" fill-opacity="1" stroke="#000000" stroke-opacity="1" stroke-width="3.2"/>
<circle clip-path="url(#clip902)" cx="544.239" cy="321.454" r="7.2" fill="#009af9" fill-rule="evenodd" fill-opacity="1" stroke="#000000" stroke-opacity="1" stroke-width="3.2"/>
<circle clip-path="url(#clip902)" cx="647.171" cy="722.677" r="7.2" fill="#009af9" fill-rule="evenodd" fill-opacity="1" stroke="#000000" stroke-opacity="1" stroke-width="3.2"/>
<circle clip-path="url(#clip902)" cx="750.103" cy="1179.11" r="7.2" fill="#009af9" fill-rule="evenodd" fill-opacity="1" stroke="#000000" stroke-opacity="1" stroke-width="3.2"/>
<circle clip-path="url(#clip902)" cx="853.036" cy="1384.24" r="7.2" fill="#009af9" fill-rule="evenodd" fill-opacity="1" stroke="#000000" stroke-opacity="1" stroke-width="3.2"/>
<circle clip-path="url(#clip902)" cx="955.968" cy="1179.11" r="7.2" fill="#009af9" fill-rule="evenodd" fill-opacity="1" stroke="#000000" stroke-opacity="1" stroke-width="3.2"/>
<circle clip-path="url(#clip902)" cx="1058.9" cy="722.677" r="7.2" fill="#009af9" fill-rule="evenodd" fill-opacity="1" stroke="#000000" stroke-opacity="1" stroke-width="3.2"/>
<circle clip-path="url(#clip902)" cx="1161.83" cy="321.454" r="7.2" fill="#009af9" fill-rule="evenodd" fill-opacity="1" stroke="#000000" stroke-opacity="1" stroke-width="3.2"/>
<circle clip-path="url(#clip902)" cx="1264.76" cy="128.864" r="7.2" fill="#009af9" fill-rule="evenodd" fill-opacity="1" stroke="#000000" stroke-opacity="1" stroke-width="3.2"/>
<circle clip-path="url(#clip902)" cx="1367.7" cy="86.1857" r="7.2" fill="#009af9" fill-rule="evenodd" fill-opacity="1" stroke="#000000" stroke-opacity="1" stroke-width="3.2"/>
<circle clip-path="url(#clip902)" cx="1470.63" cy="128.864" r="7.2" fill="#009af9" fill-rule="evenodd" fill-opacity="1" stroke="#000000" stroke-opacity="1" stroke-width="3.2"/>
<circle clip-path="url(#clip902)" cx="1573.56" cy="321.454" r="7.2" fill="#009af9" fill-rule="evenodd" fill-opacity="1" stroke="#000000" stroke-opacity="1" stroke-width="3.2"/>
<circle clip-path="url(#clip902)" cx="1676.49" cy="722.677" r="7.2" fill="#009af9" fill-rule="evenodd" fill-opacity="1" stroke="#000000" stroke-opacity="1" stroke-width="3.2"/>
<circle clip-path="url(#clip902)" cx="1779.42" cy="1179.11" r="7.2" fill="#009af9" fill-rule="evenodd" fill-opacity="1" stroke="#000000" stroke-opacity="1" stroke-width="3.2"/>
<circle clip-path="url(#clip902)" cx="1882.36" cy="1384.24" r="7.2" fill="#009af9" fill-rule="evenodd" fill-opacity="1" stroke="#000000" stroke-opacity="1" stroke-width="3.2"/>
<circle clip-path="url(#clip902)" cx="1985.29" cy="1179.11" r="7.2" fill="#009af9" fill-rule="evenodd" fill-opacity="1" stroke="#000000" stroke-opacity="1" stroke-width="3.2"/>
<circle clip-path="url(#clip902)" cx="2088.22" cy="722.677" r="7.2" fill="#009af9" fill-rule="evenodd" fill-opacity="1" stroke="#000000" stroke-opacity="1" stroke-width="3.2"/>
<circle clip-path="url(#clip902)" cx="2191.15" cy="321.454" r="7.2" fill="#009af9" fill-rule="evenodd" fill-opacity="1" stroke="#000000" stroke-opacity="1" stroke-width="3.2"/>
<circle clip-path="url(#clip902)" cx="2294.08" cy="128.864" r="7.2" fill="#009af9" fill-rule="evenodd" fill-opacity="1" stroke="#000000" stroke-opacity="1" stroke-width="3.2"/>
</svg>
