<?xml version="1.0" encoding="utf-8"?>
<svg xmlns="http://www.w3.org/2000/svg" xmlns:xlink="http://www.w3.org/1999/xlink" width="600" height="400" viewBox="0 0 2400 1600">
<defs>
  <clipPath id="clip560">
    <rect x="0" y="0" width="2400" height="1600"/>
  </clipPath>
</defs>
<path clip-path="url(#clip560)" d="M0 1600 L2400 1600 L2400 0 L0 0  Z" fill="#ffffff" fill-rule="evenodd" fill-opacity="1"/>
<defs>
  <clipPath id="clip561">
    <rect x="480" y="0" width="1681" height="1600"/>
  </clipPath>
</defs>
<path clip-path="url(#clip560)" d="M189.496 1486.45 L2352.76 1486.45 L2352.76 47.2441 L189.496 47.2441  Z" fill="#ffffff" fill-rule="evenodd" fill-opacity="1"/>
<defs>
  <clipPath id="clip562">
    <rect x="189" y="47" width="2164" height="1440"/>
  </clipPath>
</defs>
<polyline clip-path="url(#clip562)" style="stroke:#000000; stroke-linecap:round; stroke-linejoin:round; stroke-width:2; stroke-opacity:0.1; fill:none" points="250.72,1486.45 250.72,47.2441 "/>
<polyline clip-path="url(#clip562)" style="stroke:#000000; stroke-linecap:round; stroke-linejoin:round; stroke-width:2; stroke-opacity:0.1; fill:none" points="590.855,1486.45 590.855,47.2441 "/>
<polyline clip-path="url(#clip562)" style="stroke:#000000; stroke-linecap:round; stroke-linejoin:round; stroke-width:2; stroke-opacity:0.1; fill:none" points="930.991,1486.45 930.991,47.2441 "/>
<polyline clip-path="url(#clip562)" style="stroke:#000000; stroke-linecap:round; stroke-linejoin:round; stroke-width:2; stroke-opacity:0.1; fill:none" points="1271.13,1486.45 1271.13,47.2441 "/>
<polyline clip-path="url(#clip562)" style="stroke:#000000; stroke-linecap:round; stroke-linejoin:round; stroke-width:2; stroke-opacity:0.1; fill:none" points="1611.26,1486.45 1611.26,47.2441 "/>
<polyline clip-path="url(#clip562)" style="stroke:#000000; stroke-linecap:round; stroke-linejoin:round; stroke-width:2; stroke-opacity:0.1; fill:none" points="1951.4,1486.45 1951.4,47.2441 "/>
<polyline clip-path="url(#clip562)" style="stroke:#000000; stroke-linecap:round; stroke-linejoin:round; stroke-width:2; stroke-opacity:0.1; fill:none" points="2291.53,1486.45 2291.53,47.2441 "/>
<polyline clip-path="url(#clip560)" style="stroke:#000000; stroke-linecap:round; stroke-linejoin:round; stroke-width:4; stroke-opacity:1; fill:none" points="189.496,1486.45 2352.76,1486.45 "/>
<polyline clip-path="url(#clip560)" style="stroke:#000000; stroke-linecap:round; stroke-linejoin:round; stroke-width:4; stroke-opacity:1; fill:none" points="250.72,1486.45 250.72,1467.55 "/>
<polyline clip-path="url(#clip560)" style="stroke:#000000; stroke-linecap:round; stroke-linejoin:round; stroke-width:4; stroke-opacity:1; fill:none" points="590.855,1486.45 590.855,1467.55 "/>
<polyline clip-path="url(#clip560)" style="stroke:#000000; stroke-linecap:round; stroke-linejoin:round; stroke-width:4; stroke-opacity:1; fill:none" points="930.991,1486.45 930.991,1467.55 "/>
<polyline clip-path="url(#clip560)" style="stroke:#000000; stroke-linecap:round; stroke-linejoin:round; stroke-width:4; stroke-opacity:1; fill:none" points="1271.13,1486.45 1271.13,1467.55 "/>
<polyline clip-path="url(#clip560)" style="stroke:#000000; stroke-linecap:round; stroke-linejoin:round; stroke-width:4; stroke-opacity:1; fill:none" points="1611.26,1486.45 1611.26,1467.55 "/>
<polyline clip-path="url(#clip560)" style="stroke:#000000; stroke-linecap:round; stroke-linejoin:round; stroke-width:4; stroke-opacity:1; fill:none" points="1951.4,1486.45 1951.4,1467.55 "/>
<polyline clip-path="url(#clip560)" style="stroke:#000000; stroke-linecap:round; stroke-linejoin:round; stroke-width:4; stroke-opacity:1; fill:none" points="2291.53,1486.45 2291.53,1467.55 "/>
<path clip-path="url(#clip560)" d="M241.102 1544.91 L248.741 1544.91 L248.741 1518.55 L240.431 1520.21 L240.431 1515.95 L248.695 1514.29 L253.371 1514.29 L253.371 1544.91 L261.01 1544.91 L261.01 1548.85 L241.102 1548.85 L241.102 1544.91 Z" fill="#000000" fill-rule="nonzero" fill-opacity="1" /><path clip-path="url(#clip560)" d="M585.508 1544.91 L601.828 1544.91 L601.828 1548.85 L579.883 1548.85 L579.883 1544.91 Q582.545 1542.16 587.129 1537.53 Q591.735 1532.88 592.916 1531.53 Q595.161 1529.01 596.041 1527.27 Q596.943 1525.51 596.943 1523.82 Q596.943 1521.07 594.999 1519.33 Q593.078 1517.6 589.976 1517.6 Q587.777 1517.6 585.323 1518.36 Q582.893 1519.13 580.115 1520.68 L580.115 1515.95 Q582.939 1514.82 585.393 1514.24 Q587.846 1513.66 589.883 1513.66 Q595.254 1513.66 598.448 1516.35 Q601.642 1519.03 601.642 1523.52 Q601.642 1525.65 600.832 1527.57 Q600.045 1529.47 597.939 1532.07 Q597.36 1532.74 594.258 1535.95 Q591.156 1539.15 585.508 1544.91 Z" fill="#000000" fill-rule="nonzero" fill-opacity="1" /><path clip-path="url(#clip560)" d="M935.238 1530.21 Q938.595 1530.93 940.47 1533.2 Q942.368 1535.47 942.368 1538.8 Q942.368 1543.92 938.849 1546.72 Q935.331 1549.52 928.85 1549.52 Q926.674 1549.52 924.359 1549.08 Q922.067 1548.66 919.613 1547.81 L919.613 1543.29 Q921.558 1544.43 923.873 1545.01 Q926.187 1545.58 928.711 1545.58 Q933.109 1545.58 935.4 1543.85 Q937.715 1542.11 937.715 1538.8 Q937.715 1535.75 935.562 1534.03 Q933.433 1532.3 929.613 1532.3 L925.586 1532.3 L925.586 1528.45 L929.799 1528.45 Q933.248 1528.45 935.076 1527.09 Q936.905 1525.7 936.905 1523.11 Q936.905 1520.45 935.007 1519.03 Q933.132 1517.6 929.613 1517.6 Q927.692 1517.6 925.493 1518.01 Q923.294 1518.43 920.655 1519.31 L920.655 1515.14 Q923.317 1514.4 925.632 1514.03 Q927.97 1513.66 930.03 1513.66 Q935.354 1513.66 938.456 1516.09 Q941.558 1518.5 941.558 1522.62 Q941.558 1525.49 939.914 1527.48 Q938.271 1529.45 935.238 1530.21 Z" fill="#000000" fill-rule="nonzero" fill-opacity="1" /><path clip-path="url(#clip560)" d="M1274.14 1518.36 L1262.33 1536.81 L1274.14 1536.81 L1274.14 1518.36 M1272.91 1514.29 L1278.79 1514.29 L1278.79 1536.81 L1283.72 1536.81 L1283.72 1540.7 L1278.79 1540.7 L1278.79 1548.85 L1274.14 1548.85 L1274.14 1540.7 L1258.53 1540.7 L1258.53 1536.19 L1272.91 1514.29 Z" fill="#000000" fill-rule="nonzero" fill-opacity="1" /><path clip-path="url(#clip560)" d="M1601.54 1514.29 L1619.9 1514.29 L1619.9 1518.22 L1605.82 1518.22 L1605.82 1526.7 Q1606.84 1526.35 1607.86 1526.19 Q1608.88 1526 1609.9 1526 Q1615.68 1526 1619.06 1529.17 Q1622.44 1532.34 1622.44 1537.76 Q1622.44 1543.34 1618.97 1546.44 Q1615.5 1549.52 1609.18 1549.52 Q1607 1549.52 1604.73 1549.15 Q1602.49 1548.78 1600.08 1548.04 L1600.08 1543.34 Q1602.16 1544.47 1604.39 1545.03 Q1606.61 1545.58 1609.09 1545.58 Q1613.09 1545.58 1615.43 1543.48 Q1617.77 1541.37 1617.77 1537.76 Q1617.77 1534.15 1615.43 1532.04 Q1613.09 1529.94 1609.09 1529.94 Q1607.21 1529.94 1605.34 1530.35 Q1603.48 1530.77 1601.54 1531.65 L1601.54 1514.29 Z" fill="#000000" fill-rule="nonzero" fill-opacity="1" /><path clip-path="url(#clip560)" d="M1951.8 1529.7 Q1948.65 1529.7 1946.8 1531.86 Q1944.97 1534.01 1944.97 1537.76 Q1944.97 1541.49 1946.8 1543.66 Q1948.65 1545.82 1951.8 1545.82 Q1954.95 1545.82 1956.78 1543.66 Q1958.63 1541.49 1958.63 1537.76 Q1958.63 1534.01 1956.78 1531.86 Q1954.95 1529.7 1951.8 1529.7 M1961.08 1515.05 L1961.08 1519.31 Q1959.32 1518.48 1957.52 1518.04 Q1955.74 1517.6 1953.98 1517.6 Q1949.35 1517.6 1946.89 1520.72 Q1944.46 1523.85 1944.12 1530.17 Q1945.48 1528.15 1947.54 1527.09 Q1949.6 1526 1952.08 1526 Q1957.29 1526 1960.3 1529.17 Q1963.33 1532.32 1963.33 1537.76 Q1963.33 1543.08 1960.18 1546.3 Q1957.03 1549.52 1951.8 1549.52 Q1945.81 1549.52 1942.63 1544.94 Q1939.46 1540.33 1939.46 1531.6 Q1939.46 1523.41 1943.35 1518.55 Q1947.24 1513.66 1953.79 1513.66 Q1955.55 1513.66 1957.33 1514.01 Q1959.14 1514.36 1961.08 1515.05 Z" fill="#000000" fill-rule="nonzero" fill-opacity="1" /><path clip-path="url(#clip560)" d="M2280.42 1514.29 L2302.64 1514.29 L2302.64 1516.28 L2290.1 1548.85 L2285.21 1548.85 L2297.02 1518.22 L2280.42 1518.22 L2280.42 1514.29 Z" fill="#000000" fill-rule="nonzero" fill-opacity="1" /><polyline clip-path="url(#clip562)" style="stroke:#000000; stroke-linecap:round; stroke-linejoin:round; stroke-width:2; stroke-opacity:0.1; fill:none" points="189.496,1291.14 2352.76,1291.14 "/>
<polyline clip-path="url(#clip562)" style="stroke:#000000; stroke-linecap:round; stroke-linejoin:round; stroke-width:2; stroke-opacity:0.1; fill:none" points="189.496,993.086 2352.76,993.086 "/>
<polyline clip-path="url(#clip562)" style="stroke:#000000; stroke-linecap:round; stroke-linejoin:round; stroke-width:2; stroke-opacity:0.1; fill:none" points="189.496,695.036 2352.76,695.036 "/>
<polyline clip-path="url(#clip562)" style="stroke:#000000; stroke-linecap:round; stroke-linejoin:round; stroke-width:2; stroke-opacity:0.1; fill:none" points="189.496,396.985 2352.76,396.985 "/>
<polyline clip-path="url(#clip562)" style="stroke:#000000; stroke-linecap:round; stroke-linejoin:round; stroke-width:2; stroke-opacity:0.1; fill:none" points="189.496,98.934 2352.76,98.934 "/>
<polyline clip-path="url(#clip560)" style="stroke:#000000; stroke-linecap:round; stroke-linejoin:round; stroke-width:4; stroke-opacity:1; fill:none" points="189.496,1486.45 189.496,47.2441 "/>
<polyline clip-path="url(#clip560)" style="stroke:#000000; stroke-linecap:round; stroke-linejoin:round; stroke-width:4; stroke-opacity:1; fill:none" points="189.496,1291.14 208.394,1291.14 "/>
<polyline clip-path="url(#clip560)" style="stroke:#000000; stroke-linecap:round; stroke-linejoin:round; stroke-width:4; stroke-opacity:1; fill:none" points="189.496,993.086 208.394,993.086 "/>
<polyline clip-path="url(#clip560)" style="stroke:#000000; stroke-linecap:round; stroke-linejoin:round; stroke-width:4; stroke-opacity:1; fill:none" points="189.496,695.036 208.394,695.036 "/>
<polyline clip-path="url(#clip560)" style="stroke:#000000; stroke-linecap:round; stroke-linejoin:round; stroke-width:4; stroke-opacity:1; fill:none" points="189.496,396.985 208.394,396.985 "/>
<polyline clip-path="url(#clip560)" style="stroke:#000000; stroke-linecap:round; stroke-linejoin:round; stroke-width:4; stroke-opacity:1; fill:none" points="189.496,98.934 208.394,98.934 "/>
<path clip-path="url(#clip560)" d="M51.6634 1310.93 L59.3023 1310.93 L59.3023 1284.56 L50.9921 1286.23 L50.9921 1281.97 L59.256 1280.3 L63.9319 1280.3 L63.9319 1310.93 L71.5707 1310.93 L71.5707 1314.86 L51.6634 1314.86 L51.6634 1310.93 Z" fill="#000000" fill-rule="nonzero" fill-opacity="1" /><path clip-path="url(#clip560)" d="M91.0151 1283.38 Q87.404 1283.38 85.5753 1286.95 Q83.7697 1290.49 83.7697 1297.62 Q83.7697 1304.73 85.5753 1308.29 Q87.404 1311.83 91.0151 1311.83 Q94.6493 1311.83 96.4548 1308.29 Q98.2835 1304.73 98.2835 1297.62 Q98.2835 1290.49 96.4548 1286.95 Q94.6493 1283.38 91.0151 1283.38 M91.0151 1279.68 Q96.8252 1279.68 99.8808 1284.29 Q102.959 1288.87 102.959 1297.62 Q102.959 1306.35 99.8808 1310.95 Q96.8252 1315.54 91.0151 1315.54 Q85.2049 1315.54 82.1262 1310.95 Q79.0707 1306.35 79.0707 1297.62 Q79.0707 1288.87 82.1262 1284.29 Q85.2049 1279.68 91.0151 1279.68 Z" fill="#000000" fill-rule="nonzero" fill-opacity="1" /><path clip-path="url(#clip560)" d="M102.959 1273.78 L127.071 1273.78 L127.071 1276.98 L102.959 1276.98 L102.959 1273.78 Z" fill="#000000" fill-rule="nonzero" fill-opacity="1" /><path clip-path="url(#clip560)" d="M145.71 1262.68 L136.118 1277.67 L145.71 1277.67 L145.71 1262.68 M144.713 1259.37 L149.49 1259.37 L149.49 1277.67 L153.496 1277.67 L153.496 1280.83 L149.49 1280.83 L149.49 1287.45 L145.71 1287.45 L145.71 1280.83 L133.033 1280.83 L133.033 1277.17 L144.713 1259.37 Z" fill="#000000" fill-rule="nonzero" fill-opacity="1" /><path clip-path="url(#clip560)" d="M52.585 1012.88 L60.2238 1012.88 L60.2238 986.513 L51.9137 988.18 L51.9137 983.921 L60.1776 982.254 L64.8535 982.254 L64.8535 1012.88 L72.4923 1012.88 L72.4923 1016.81 L52.585 1016.81 L52.585 1012.88 Z" fill="#000000" fill-rule="nonzero" fill-opacity="1" /><path clip-path="url(#clip560)" d="M91.9366 985.333 Q88.3255 985.333 86.4969 988.897 Q84.6913 992.439 84.6913 999.569 Q84.6913 1006.68 86.4969 1010.24 Q88.3255 1013.78 91.9366 1013.78 Q95.5709 1013.78 97.3764 1010.24 Q99.2051 1006.68 99.2051 999.569 Q99.2051 992.439 97.3764 988.897 Q95.5709 985.333 91.9366 985.333 M91.9366 981.629 Q97.7468 981.629 100.802 986.235 Q103.881 990.819 103.881 999.569 Q103.881 1008.3 100.802 1012.9 Q97.7468 1017.49 91.9366 1017.49 Q86.1265 1017.49 83.0478 1012.9 Q79.9923 1008.3 79.9923 999.569 Q79.9923 990.819 83.0478 986.235 Q86.1265 981.629 91.9366 981.629 Z" fill="#000000" fill-rule="nonzero" fill-opacity="1" /><path clip-path="url(#clip560)" d="M103.881 975.73 L127.993 975.73 L127.993 978.928 L103.881 978.928 L103.881 975.73 Z" fill="#000000" fill-rule="nonzero" fill-opacity="1" /><path clip-path="url(#clip560)" d="M147.703 974.263 Q150.43 974.846 151.954 976.69 Q153.496 978.533 153.496 981.241 Q153.496 985.398 150.637 987.673 Q147.778 989.949 142.512 989.949 Q140.744 989.949 138.863 989.592 Q137.002 989.253 135.008 988.557 L135.008 984.89 Q136.588 985.811 138.469 986.281 Q140.349 986.752 142.399 986.752 Q145.973 986.752 147.835 985.341 Q149.716 983.931 149.716 981.241 Q149.716 978.758 147.966 977.367 Q146.236 975.956 143.133 975.956 L139.86 975.956 L139.86 972.834 L143.283 972.834 Q146.086 972.834 147.571 971.724 Q149.057 970.596 149.057 968.489 Q149.057 966.326 147.515 965.179 Q145.992 964.013 143.133 964.013 Q141.572 964.013 139.785 964.352 Q137.998 964.69 135.854 965.405 L135.854 962.019 Q138.017 961.418 139.898 961.117 Q141.797 960.816 143.471 960.816 Q147.797 960.816 150.317 962.791 Q152.838 964.747 152.838 968.094 Q152.838 970.427 151.502 972.044 Q150.167 973.643 147.703 974.263 Z" fill="#000000" fill-rule="nonzero" fill-opacity="1" /><path clip-path="url(#clip560)" d="M53.3561 714.828 L60.995 714.828 L60.995 688.462 L52.6848 690.129 L52.6848 685.87 L60.9487 684.203 L65.6246 684.203 L65.6246 714.828 L73.2634 714.828 L73.2634 718.763 L53.3561 718.763 L53.3561 714.828 Z" fill="#000000" fill-rule="nonzero" fill-opacity="1" /><path clip-path="url(#clip560)" d="M92.7078 687.282 Q89.0967 687.282 87.268 690.847 Q85.4624 694.388 85.4624 701.518 Q85.4624 708.624 87.268 712.189 Q89.0967 715.731 92.7078 715.731 Q96.342 715.731 98.1475 712.189 Q99.9762 708.624 99.9762 701.518 Q99.9762 694.388 98.1475 690.847 Q96.342 687.282 92.7078 687.282 M92.7078 683.578 Q98.5179 683.578 101.573 688.185 Q104.652 692.768 104.652 701.518 Q104.652 710.245 101.573 714.851 Q98.5179 719.434 92.7078 719.434 Q86.8976 719.434 83.8189 714.851 Q80.7634 710.245 80.7634 701.518 Q80.7634 692.768 83.8189 688.185 Q86.8976 683.578 92.7078 683.578 Z" fill="#000000" fill-rule="nonzero" fill-opacity="1" /><path clip-path="url(#clip560)" d="M104.652 677.68 L128.764 677.68 L128.764 680.877 L104.652 680.877 L104.652 677.68 Z" fill="#000000" fill-rule="nonzero" fill-opacity="1" /><path clip-path="url(#clip560)" d="M140.236 688.155 L153.496 688.155 L153.496 691.353 L135.666 691.353 L135.666 688.155 Q137.829 685.917 141.553 682.156 Q145.296 678.375 146.255 677.285 Q148.079 675.235 148.794 673.824 Q149.527 672.395 149.527 671.022 Q149.527 668.783 147.948 667.373 Q146.387 665.962 143.866 665.962 Q142.08 665.962 140.086 666.583 Q138.111 667.204 135.854 668.464 L135.854 664.627 Q138.149 663.705 140.142 663.235 Q142.136 662.765 143.791 662.765 Q148.155 662.765 150.75 664.947 Q153.345 667.128 153.345 670.777 Q153.345 672.507 152.687 674.068 Q152.048 675.611 150.336 677.717 Q149.866 678.263 147.346 680.877 Q144.826 683.472 140.236 688.155 Z" fill="#000000" fill-rule="nonzero" fill-opacity="1" /><path clip-path="url(#clip560)" d="M53.0552 416.777 L60.694 416.777 L60.694 390.412 L52.3839 392.078 L52.3839 387.819 L60.6477 386.152 L65.3236 386.152 L65.3236 416.777 L72.9625 416.777 L72.9625 420.712 L53.0552 420.712 L53.0552 416.777 Z" fill="#000000" fill-rule="nonzero" fill-opacity="1" /><path clip-path="url(#clip560)" d="M92.4068 389.231 Q88.7957 389.231 86.967 392.796 Q85.1615 396.338 85.1615 403.467 Q85.1615 410.574 86.967 414.138 Q88.7957 417.68 92.4068 417.68 Q96.0411 417.68 97.8466 414.138 Q99.6753 410.574 99.6753 403.467 Q99.6753 396.338 97.8466 392.796 Q96.0411 389.231 92.4068 389.231 M92.4068 385.527 Q98.217 385.527 101.273 390.134 Q104.351 394.717 104.351 403.467 Q104.351 412.194 101.273 416.8 Q98.217 421.384 92.4068 421.384 Q86.5967 421.384 83.518 416.8 Q80.4625 412.194 80.4625 403.467 Q80.4625 394.717 83.518 390.134 Q86.5967 385.527 92.4068 385.527 Z" fill="#000000" fill-rule="nonzero" fill-opacity="1" /><path clip-path="url(#clip560)" d="M104.351 379.629 L128.463 379.629 L128.463 382.826 L104.351 382.826 L104.351 379.629 Z" fill="#000000" fill-rule="nonzero" fill-opacity="1" /><path clip-path="url(#clip560)" d="M137.321 390.105 L143.528 390.105 L143.528 368.683 L136.776 370.037 L136.776 366.576 L143.49 365.222 L147.289 365.222 L147.289 390.105 L153.496 390.105 L153.496 393.302 L137.321 393.302 L137.321 390.105 Z" fill="#000000" fill-rule="nonzero" fill-opacity="1" /><path clip-path="url(#clip560)" d="M82.7903 118.726 L90.4291 118.726 L90.4291 92.3609 L82.119 94.0275 L82.119 89.7683 L90.3828 88.1016 L95.0587 88.1016 L95.0587 118.726 L102.698 118.726 L102.698 122.662 L82.7903 122.662 L82.7903 118.726 Z" fill="#000000" fill-rule="nonzero" fill-opacity="1" /><path clip-path="url(#clip560)" d="M122.142 91.1803 Q118.531 91.1803 116.702 94.7451 Q114.897 98.2867 114.897 105.416 Q114.897 112.523 116.702 116.088 Q118.531 119.629 122.142 119.629 Q125.776 119.629 127.582 116.088 Q129.41 112.523 129.41 105.416 Q129.41 98.2867 127.582 94.7451 Q125.776 91.1803 122.142 91.1803 M122.142 87.4766 Q127.952 87.4766 131.008 92.0831 Q134.086 96.6664 134.086 105.416 Q134.086 114.143 131.008 118.75 Q127.952 123.333 122.142 123.333 Q116.332 123.333 113.253 118.75 Q110.198 114.143 110.198 105.416 Q110.198 96.6664 113.253 92.0831 Q116.332 87.4766 122.142 87.4766 Z" fill="#000000" fill-rule="nonzero" fill-opacity="1" /><path clip-path="url(#clip560)" d="M143.791 69.6727 Q140.857 69.6727 139.371 72.569 Q137.904 75.4466 137.904 81.2394 Q137.904 87.0134 139.371 89.9098 Q140.857 92.7874 143.791 92.7874 Q146.744 92.7874 148.211 89.9098 Q149.697 87.0134 149.697 81.2394 Q149.697 75.4466 148.211 72.569 Q146.744 69.6727 143.791 69.6727 M143.791 66.6634 Q148.512 66.6634 150.994 70.4062 Q153.496 74.1301 153.496 81.2394 Q153.496 88.33 150.994 92.0727 Q148.512 95.7966 143.791 95.7966 Q139.07 95.7966 136.569 92.0727 Q134.086 88.33 134.086 81.2394 Q134.086 74.1301 136.569 70.4062 Q139.07 66.6634 143.791 66.6634 Z" fill="#000000" fill-rule="nonzero" fill-opacity="1" /><polyline clip-path="url(#clip562)" style="stroke:#009af9; stroke-linecap:round; stroke-linejoin:round; stroke-width:4; stroke-opacity:1; fill:none" points="250.72,87.9763 590.855,331.87 930.991,654.109 1271.13,758.325 1611.26,854.186 1951.4,1240.65 2291.53,1445.72 "/>
<line clip-path="url(#clip562)" x1="250.72" y1="87.9763" x2="234.72" y2="71.9763" style="stroke:#009af9; stroke-width:4; stroke-opacity:1"/>
<line clip-path="url(#clip562)" x1="250.72" y1="87.9763" x2="234.72" y2="103.976" style="stroke:#009af9; stroke-width:4; stroke-opacity:1"/>
<line clip-path="url(#clip562)" x1="250.72" y1="87.9763" x2="266.72" y2="103.976" style="stroke:#009af9; stroke-width:4; stroke-opacity:1"/>
<line clip-path="url(#clip562)" x1="250.72" y1="87.9763" x2="266.72" y2="71.9763" style="stroke:#009af9; stroke-width:4; stroke-opacity:1"/>
<line clip-path="url(#clip562)" x1="590.855" y1="331.87" x2="574.855" y2="315.87" style="stroke:#009af9; stroke-width:4; stroke-opacity:1"/>
<line clip-path="url(#clip562)" x1="590.855" y1="331.87" x2="574.855" y2="347.87" style="stroke:#009af9; stroke-width:4; stroke-opacity:1"/>
<line clip-path="url(#clip562)" x1="590.855" y1="331.87" x2="606.855" y2="347.87" style="stroke:#009af9; stroke-width:4; stroke-opacity:1"/>
<line clip-path="url(#clip562)" x1="590.855" y1="331.87" x2="606.855" y2="315.87" style="stroke:#009af9; stroke-width:4; stroke-opacity:1"/>
<line clip-path="url(#clip562)" x1="930.991" y1="654.109" x2="914.991" y2="638.109" style="stroke:#009af9; stroke-width:4; stroke-opacity:1"/>
<line clip-path="url(#clip562)" x1="930.991" y1="654.109" x2="914.991" y2="670.109" style="stroke:#009af9; stroke-width:4; stroke-opacity:1"/>
<line clip-path="url(#clip562)" x1="930.991" y1="654.109" x2="946.991" y2="670.109" style="stroke:#009af9; stroke-width:4; stroke-opacity:1"/>
<line clip-path="url(#clip562)" x1="930.991" y1="654.109" x2="946.991" y2="638.109" style="stroke:#009af9; stroke-width:4; stroke-opacity:1"/>
<line clip-path="url(#clip562)" x1="1271.13" y1="758.325" x2="1255.13" y2="742.325" style="stroke:#009af9; stroke-width:4; stroke-opacity:1"/>
<line clip-path="url(#clip562)" x1="1271.13" y1="758.325" x2="1255.13" y2="774.325" style="stroke:#009af9; stroke-width:4; stroke-opacity:1"/>
<line clip-path="url(#clip562)" x1="1271.13" y1="758.325" x2="1287.13" y2="774.325" style="stroke:#009af9; stroke-width:4; stroke-opacity:1"/>
<line clip-path="url(#clip562)" x1="1271.13" y1="758.325" x2="1287.13" y2="742.325" style="stroke:#009af9; stroke-width:4; stroke-opacity:1"/>
<line clip-path="url(#clip562)" x1="1611.26" y1="854.186" x2="1595.26" y2="838.186" style="stroke:#009af9; stroke-width:4; stroke-opacity:1"/>
<line clip-path="url(#clip562)" x1="1611.26" y1="854.186" x2="1595.26" y2="870.186" style="stroke:#009af9; stroke-width:4; stroke-opacity:1"/>
<line clip-path="url(#clip562)" x1="1611.26" y1="854.186" x2="1627.26" y2="870.186" style="stroke:#009af9; stroke-width:4; stroke-opacity:1"/>
<line clip-path="url(#clip562)" x1="1611.26" y1="854.186" x2="1627.26" y2="838.186" style="stroke:#009af9; stroke-width:4; stroke-opacity:1"/>
<line clip-path="url(#clip562)" x1="1951.4" y1="1240.65" x2="1935.4" y2="1224.65" style="stroke:#009af9; stroke-width:4; stroke-opacity:1"/>
<line clip-path="url(#clip562)" x1="1951.4" y1="1240.65" x2="1935.4" y2="1256.65" style="stroke:#009af9; stroke-width:4; stroke-opacity:1"/>
<line clip-path="url(#clip562)" x1="1951.4" y1="1240.65" x2="1967.4" y2="1256.65" style="stroke:#009af9; stroke-width:4; stroke-opacity:1"/>
<line clip-path="url(#clip562)" x1="1951.4" y1="1240.65" x2="1967.4" y2="1224.65" style="stroke:#009af9; stroke-width:4; stroke-opacity:1"/>
<line clip-path="url(#clip562)" x1="2291.53" y1="1445.72" x2="2275.53" y2="1429.72" style="stroke:#009af9; stroke-width:4; stroke-opacity:1"/>
<line clip-path="url(#clip562)" x1="2291.53" y1="1445.72" x2="2275.53" y2="1461.72" style="stroke:#009af9; stroke-width:4; stroke-opacity:1"/>
<line clip-path="url(#clip562)" x1="2291.53" y1="1445.72" x2="2307.53" y2="1461.72" style="stroke:#009af9; stroke-width:4; stroke-opacity:1"/>
<line clip-path="url(#clip562)" x1="2291.53" y1="1445.72" x2="2307.53" y2="1429.72" style="stroke:#009af9; stroke-width:4; stroke-opacity:1"/>
<path clip-path="url(#clip560)" d="M1816.13 198.898 L2280.65 198.898 L2280.65 95.2176 L1816.13 95.2176  Z" fill="#ffffff" fill-rule="evenodd" fill-opacity="1"/>
<polyline clip-path="url(#clip560)" style="stroke:#000000; stroke-linecap:round; stroke-linejoin:round; stroke-width:4; stroke-opacity:1; fill:none" points="1816.13,198.898 2280.65,198.898 2280.65,95.2176 1816.13,95.2176 1816.13,198.898 "/>
<polyline clip-path="url(#clip560)" style="stroke:#009af9; stroke-linecap:round; stroke-linejoin:round; stroke-width:4; stroke-opacity:1; fill:none" points="1840.16,147.058 1984.38,147.058 "/>
<line clip-path="url(#clip560)" x1="1912.27" y1="147.058" x2="1890.02" y2="124.802" style="stroke:#009af9; stroke-width:4.55111; stroke-opacity:1"/>
<line clip-path="url(#clip560)" x1="1912.27" y1="147.058" x2="1890.02" y2="169.313" style="stroke:#009af9; stroke-width:4.55111; stroke-opacity:1"/>
<line clip-path="url(#clip560)" x1="1912.27" y1="147.058" x2="1934.53" y2="169.313" style="stroke:#009af9; stroke-width:4.55111; stroke-opacity:1"/>
<line clip-path="url(#clip560)" x1="1912.27" y1="147.058" x2="1934.53" y2="124.802" style="stroke:#009af9; stroke-width:4.55111; stroke-opacity:1"/>
<path clip-path="url(#clip560)" d="M2012.35 128.111 L2012.35 175.518 L2008.42 175.518 L2008.42 128.111 L2012.35 128.111 Z" fill="#000000" fill-rule="nonzero" fill-opacity="1" /><path clip-path="url(#clip560)" d="M2024.76 143.041 Q2026.17 140.68 2029.67 138.597 Q2031.03 137.787 2035.25 137.787 Q2039.97 137.787 2042.91 141.537 Q2045.87 145.287 2045.87 151.398 Q2045.87 157.509 2042.91 161.259 Q2039.97 165.009 2035.25 165.009 Q2032.4 165.009 2030.34 163.898 Q2028.3 162.763 2026.96 160.449 L2026.96 174.199 L2022.68 174.199 L2022.68 151.629 Q2022.68 146.282 2024.76 143.041 M2041.45 151.398 Q2041.45 146.699 2039.51 144.037 Q2037.58 141.352 2034.2 141.352 Q2030.83 141.352 2028.88 144.037 Q2026.96 146.699 2026.96 151.398 Q2026.96 156.097 2028.88 158.782 Q2030.83 161.444 2034.2 161.444 Q2037.58 161.444 2039.51 158.782 Q2041.45 156.097 2041.45 151.398 Z" fill="#000000" fill-rule="nonzero" fill-opacity="1" /><path clip-path="url(#clip560)" d="M2062.98 141.398 Q2059.55 141.398 2057.56 144.083 Q2055.57 146.745 2055.57 151.398 Q2055.57 156.051 2057.54 158.736 Q2059.53 161.398 2062.98 161.398 Q2066.38 161.398 2068.37 158.713 Q2070.36 156.027 2070.36 151.398 Q2070.36 146.791 2068.37 144.106 Q2066.38 141.398 2062.98 141.398 M2062.98 137.787 Q2068.53 137.787 2071.7 141.398 Q2074.88 145.009 2074.88 151.398 Q2074.88 157.764 2071.7 161.398 Q2068.53 165.009 2062.98 165.009 Q2057.4 165.009 2054.23 161.398 Q2051.08 157.764 2051.08 151.398 Q2051.08 145.009 2054.23 141.398 Q2057.4 137.787 2062.98 137.787 Z" fill="#000000" fill-rule="nonzero" fill-opacity="1" /><path clip-path="url(#clip560)" d="M2081.5 154.106 L2081.5 138.412 L2085.76 138.412 L2085.76 153.944 Q2085.76 157.625 2087.19 159.476 Q2088.63 161.305 2091.5 161.305 Q2094.95 161.305 2096.94 159.106 Q2098.95 156.907 2098.95 153.111 L2098.95 138.412 L2103.21 138.412 L2103.21 164.338 L2098.95 164.338 L2098.95 160.356 Q2097.4 162.717 2095.34 163.875 Q2093.3 165.009 2090.59 165.009 Q2086.13 165.009 2083.81 162.231 Q2081.5 159.453 2081.5 154.106 M2092.21 137.787 L2092.21 137.787 Z" fill="#000000" fill-rule="nonzero" fill-opacity="1" /><path clip-path="url(#clip560)" d="M2116.2 131.051 L2116.2 138.412 L2124.97 138.412 L2124.97 141.722 L2116.2 141.722 L2116.2 155.796 Q2116.2 158.967 2117.05 159.87 Q2117.93 160.773 2120.59 160.773 L2124.97 160.773 L2124.97 164.338 L2120.59 164.338 Q2115.66 164.338 2113.79 162.509 Q2111.91 160.657 2111.91 155.796 L2111.91 141.722 L2108.79 141.722 L2108.79 138.412 L2111.91 138.412 L2111.91 131.051 L2116.2 131.051 Z" fill="#000000" fill-rule="nonzero" fill-opacity="1" /><path clip-path="url(#clip560)" d="M2143.49 149.453 L2155.96 149.453 L2155.96 153.25 L2143.49 153.25 L2143.49 149.453 Z" fill="#000000" fill-rule="nonzero" fill-opacity="1" /><path clip-path="url(#clip560)" d="M2179.74 143.041 Q2181.15 140.68 2184.64 138.597 Q2186.01 137.787 2190.22 137.787 Q2194.94 137.787 2197.88 141.537 Q2200.85 145.287 2200.85 151.398 Q2200.85 157.509 2197.88 161.259 Q2194.94 165.009 2190.22 165.009 Q2187.38 165.009 2185.32 163.898 Q2183.28 162.763 2181.94 160.449 L2181.94 174.199 L2177.65 174.199 L2177.65 151.629 Q2177.65 146.282 2179.74 143.041 M2196.43 151.398 Q2196.43 146.699 2194.48 144.037 Q2192.56 141.352 2189.18 141.352 Q2185.8 141.352 2183.86 144.037 Q2181.94 146.699 2181.94 151.398 Q2181.94 156.097 2183.86 158.782 Q2185.8 161.444 2189.18 161.444 Q2192.56 161.444 2194.48 158.782 Q2196.43 156.097 2196.43 151.398 Z" fill="#000000" fill-rule="nonzero" fill-opacity="1" /><path clip-path="url(#clip560)" d="M2207.91 138.412 L2212.17 138.412 L2212.17 164.338 L2207.91 164.338 L2207.91 138.412 M2207.91 128.319 L2212.17 128.319 L2212.17 133.713 L2207.91 133.713 L2207.91 128.319 Z" fill="#000000" fill-rule="nonzero" fill-opacity="1" /><path clip-path="url(#clip560)" d="M2242.63 148.689 L2242.63 164.338 L2238.37 164.338 L2238.37 148.828 Q2238.37 145.148 2236.94 143.319 Q2235.5 141.49 2232.63 141.49 Q2229.18 141.49 2227.19 143.69 Q2225.2 145.889 2225.2 149.685 L2225.2 164.338 L2220.92 164.338 L2220.92 138.412 L2225.2 138.412 L2225.2 142.44 Q2226.73 140.102 2228.79 138.944 Q2230.87 137.787 2233.58 137.787 Q2238.05 137.787 2240.34 140.565 Q2242.63 143.319 2242.63 148.689 Z" fill="#000000" fill-rule="nonzero" fill-opacity="1" /><path clip-path="url(#clip560)" d="M2256.61 128.111 L2256.61 175.518 L2252.68 175.518 L2252.68 128.111 L2256.61 128.111 Z" fill="#000000" fill-rule="nonzero" fill-opacity="1" /></svg>
