<?xml version="1.0" encoding="utf-8"?>
<svg xmlns="http://www.w3.org/2000/svg" xmlns:xlink="http://www.w3.org/1999/xlink" width="600" height="400" viewBox="0 0 2400 1600">
<defs>
  <clipPath id="clip330">
    <rect x="0" y="0" width="2400" height="1600"/>
  </clipPath>
</defs>
<path clip-path="url(#clip330)" d="M0 1600 L2400 1600 L2400 0 L0 0  Z" fill="#ffffff" fill-rule="evenodd" fill-opacity="1"/>
<defs>
  <clipPath id="clip331">
    <rect x="480" y="0" width="1681" height="1600"/>
  </clipPath>
</defs>
<path clip-path="url(#clip330)" d="M140.696 1423.18 L2352.76 1423.18 L2352.76 47.2441 L140.696 47.2441  Z" fill="#ffffff" fill-rule="evenodd" fill-opacity="1"/>
<defs>
  <clipPath id="clip332">
    <rect x="140" y="47" width="2213" height="1377"/>
  </clipPath>
</defs>
<polyline clip-path="url(#clip332)" style="stroke:#000000; stroke-linecap:round; stroke-linejoin:round; stroke-width:2; stroke-opacity:0.1; fill:none" points="394.935,1423.18 394.935,47.2441 "/>
<polyline clip-path="url(#clip332)" style="stroke:#000000; stroke-linecap:round; stroke-linejoin:round; stroke-width:2; stroke-opacity:0.1; fill:none" points="678.865,1423.18 678.865,47.2441 "/>
<polyline clip-path="url(#clip332)" style="stroke:#000000; stroke-linecap:round; stroke-linejoin:round; stroke-width:2; stroke-opacity:0.1; fill:none" points="962.795,1423.18 962.795,47.2441 "/>
<polyline clip-path="url(#clip332)" style="stroke:#000000; stroke-linecap:round; stroke-linejoin:round; stroke-width:2; stroke-opacity:0.1; fill:none" points="1246.73,1423.18 1246.73,47.2441 "/>
<polyline clip-path="url(#clip332)" style="stroke:#000000; stroke-linecap:round; stroke-linejoin:round; stroke-width:2; stroke-opacity:0.1; fill:none" points="1530.66,1423.18 1530.66,47.2441 "/>
<polyline clip-path="url(#clip332)" style="stroke:#000000; stroke-linecap:round; stroke-linejoin:round; stroke-width:2; stroke-opacity:0.1; fill:none" points="1814.59,1423.18 1814.59,47.2441 "/>
<polyline clip-path="url(#clip332)" style="stroke:#000000; stroke-linecap:round; stroke-linejoin:round; stroke-width:2; stroke-opacity:0.1; fill:none" points="2098.52,1423.18 2098.52,47.2441 "/>
<polyline clip-path="url(#clip330)" style="stroke:#000000; stroke-linecap:round; stroke-linejoin:round; stroke-width:4; stroke-opacity:1; fill:none" points="140.696,1423.18 2352.76,1423.18 "/>
<polyline clip-path="url(#clip330)" style="stroke:#000000; stroke-linecap:round; stroke-linejoin:round; stroke-width:4; stroke-opacity:1; fill:none" points="394.935,1423.18 394.935,1404.28 "/>
<polyline clip-path="url(#clip330)" style="stroke:#000000; stroke-linecap:round; stroke-linejoin:round; stroke-width:4; stroke-opacity:1; fill:none" points="678.865,1423.18 678.865,1404.28 "/>
<polyline clip-path="url(#clip330)" style="stroke:#000000; stroke-linecap:round; stroke-linejoin:round; stroke-width:4; stroke-opacity:1; fill:none" points="962.795,1423.18 962.795,1404.28 "/>
<polyline clip-path="url(#clip330)" style="stroke:#000000; stroke-linecap:round; stroke-linejoin:round; stroke-width:4; stroke-opacity:1; fill:none" points="1246.73,1423.18 1246.73,1404.28 "/>
<polyline clip-path="url(#clip330)" style="stroke:#000000; stroke-linecap:round; stroke-linejoin:round; stroke-width:4; stroke-opacity:1; fill:none" points="1530.66,1423.18 1530.66,1404.28 "/>
<polyline clip-path="url(#clip330)" style="stroke:#000000; stroke-linecap:round; stroke-linejoin:round; stroke-width:4; stroke-opacity:1; fill:none" points="1814.59,1423.18 1814.59,1404.28 "/>
<polyline clip-path="url(#clip330)" style="stroke:#000000; stroke-linecap:round; stroke-linejoin:round; stroke-width:4; stroke-opacity:1; fill:none" points="2098.52,1423.18 2098.52,1404.28 "/>
<path clip-path="url(#clip330)" d="M341.787 1468.75 L371.463 1468.75 L371.463 1472.69 L341.787 1472.69 L341.787 1468.75 Z" fill="#000000" fill-rule="nonzero" fill-opacity="1" /><path clip-path="url(#clip330)" d="M391.555 1454.1 Q387.944 1454.1 386.115 1457.66 Q384.31 1461.2 384.31 1468.33 Q384.31 1475.44 386.115 1479.01 Q387.944 1482.55 391.555 1482.55 Q395.189 1482.55 396.995 1479.01 Q398.824 1475.44 398.824 1468.33 Q398.824 1461.2 396.995 1457.66 Q395.189 1454.1 391.555 1454.1 M391.555 1450.39 Q397.365 1450.39 400.421 1455 Q403.5 1459.58 403.5 1468.33 Q403.5 1477.06 400.421 1481.67 Q397.365 1486.25 391.555 1486.25 Q385.745 1486.25 382.666 1481.67 Q379.611 1477.06 379.611 1468.33 Q379.611 1459.58 382.666 1455 Q385.745 1450.39 391.555 1450.39 Z" fill="#000000" fill-rule="nonzero" fill-opacity="1" /><path clip-path="url(#clip330)" d="M411.717 1479.7 L416.601 1479.7 L416.601 1485.58 L411.717 1485.58 L411.717 1479.7 Z" fill="#000000" fill-rule="nonzero" fill-opacity="1" /><path clip-path="url(#clip330)" d="M440.953 1466.95 Q444.309 1467.66 446.184 1469.93 Q448.083 1472.2 448.083 1475.53 Q448.083 1480.65 444.564 1483.45 Q441.046 1486.25 434.564 1486.25 Q432.388 1486.25 430.073 1485.81 Q427.782 1485.39 425.328 1484.54 L425.328 1480.02 Q427.273 1481.16 429.587 1481.74 Q431.902 1482.32 434.425 1482.32 Q438.823 1482.32 441.115 1480.58 Q443.43 1478.84 443.43 1475.53 Q443.43 1472.48 441.277 1470.77 Q439.147 1469.03 435.328 1469.03 L431.3 1469.03 L431.3 1465.19 L435.513 1465.19 Q438.962 1465.19 440.791 1463.82 Q442.62 1462.43 442.62 1459.84 Q442.62 1457.18 440.722 1455.77 Q438.847 1454.33 435.328 1454.33 Q433.407 1454.33 431.208 1454.75 Q429.009 1455.16 426.37 1456.04 L426.37 1451.88 Q429.032 1451.14 431.347 1450.77 Q433.685 1450.39 435.745 1450.39 Q441.069 1450.39 444.171 1452.83 Q447.272 1455.23 447.272 1459.35 Q447.272 1462.22 445.629 1464.21 Q443.985 1466.18 440.953 1466.95 Z" fill="#000000" fill-rule="nonzero" fill-opacity="1" /><path clip-path="url(#clip330)" d="M626.192 1468.75 L655.868 1468.75 L655.868 1472.69 L626.192 1472.69 L626.192 1468.75 Z" fill="#000000" fill-rule="nonzero" fill-opacity="1" /><path clip-path="url(#clip330)" d="M675.96 1454.1 Q672.349 1454.1 670.52 1457.66 Q668.715 1461.2 668.715 1468.33 Q668.715 1475.44 670.52 1479.01 Q672.349 1482.55 675.96 1482.55 Q679.594 1482.55 681.4 1479.01 Q683.228 1475.44 683.228 1468.33 Q683.228 1461.2 681.4 1457.66 Q679.594 1454.1 675.96 1454.1 M675.96 1450.39 Q681.77 1450.39 684.826 1455 Q687.904 1459.58 687.904 1468.33 Q687.904 1477.06 684.826 1481.67 Q681.77 1486.25 675.96 1486.25 Q670.15 1486.25 667.071 1481.67 Q664.016 1477.06 664.016 1468.33 Q664.016 1459.58 667.071 1455 Q670.15 1450.39 675.96 1450.39 Z" fill="#000000" fill-rule="nonzero" fill-opacity="1" /><path clip-path="url(#clip330)" d="M696.122 1479.7 L701.006 1479.7 L701.006 1485.58 L696.122 1485.58 L696.122 1479.7 Z" fill="#000000" fill-rule="nonzero" fill-opacity="1" /><path clip-path="url(#clip330)" d="M715.219 1481.64 L731.538 1481.64 L731.538 1485.58 L709.594 1485.58 L709.594 1481.64 Q712.256 1478.89 716.839 1474.26 Q721.446 1469.61 722.626 1468.27 Q724.872 1465.74 725.751 1464.01 Q726.654 1462.25 726.654 1460.56 Q726.654 1457.8 724.71 1456.07 Q722.788 1454.33 719.687 1454.33 Q717.488 1454.33 715.034 1455.09 Q712.603 1455.86 709.826 1457.41 L709.826 1452.69 Q712.65 1451.55 715.103 1450.97 Q717.557 1450.39 719.594 1450.39 Q724.964 1450.39 728.159 1453.08 Q731.353 1455.77 731.353 1460.26 Q731.353 1462.39 730.543 1464.31 Q729.756 1466.2 727.65 1468.8 Q727.071 1469.47 723.969 1472.69 Q720.867 1475.88 715.219 1481.64 Z" fill="#000000" fill-rule="nonzero" fill-opacity="1" /><path clip-path="url(#clip330)" d="M909.937 1468.75 L939.613 1468.75 L939.613 1472.69 L909.937 1472.69 L909.937 1468.75 Z" fill="#000000" fill-rule="nonzero" fill-opacity="1" /><path clip-path="url(#clip330)" d="M959.705 1454.1 Q956.094 1454.1 954.265 1457.66 Q952.46 1461.2 952.46 1468.33 Q952.46 1475.44 954.265 1479.01 Q956.094 1482.55 959.705 1482.55 Q963.339 1482.55 965.145 1479.01 Q966.974 1475.44 966.974 1468.33 Q966.974 1461.2 965.145 1457.66 Q963.339 1454.1 959.705 1454.1 M959.705 1450.39 Q965.515 1450.39 968.571 1455 Q971.65 1459.58 971.65 1468.33 Q971.65 1477.06 968.571 1481.67 Q965.515 1486.25 959.705 1486.25 Q953.895 1486.25 950.816 1481.67 Q947.761 1477.06 947.761 1468.33 Q947.761 1459.58 950.816 1455 Q953.895 1450.39 959.705 1450.39 Z" fill="#000000" fill-rule="nonzero" fill-opacity="1" /><path clip-path="url(#clip330)" d="M979.867 1479.7 L984.751 1479.7 L984.751 1485.58 L979.867 1485.58 L979.867 1479.7 Z" fill="#000000" fill-rule="nonzero" fill-opacity="1" /><path clip-path="url(#clip330)" d="M995.747 1481.64 L1003.39 1481.64 L1003.39 1455.28 L995.075 1456.95 L995.075 1452.69 L1003.34 1451.02 L1008.02 1451.02 L1008.02 1481.64 L1015.65 1481.64 L1015.65 1485.58 L995.747 1485.58 L995.747 1481.64 Z" fill="#000000" fill-rule="nonzero" fill-opacity="1" /><path clip-path="url(#clip330)" d="M1224.11 1454.1 Q1220.5 1454.1 1218.67 1457.66 Q1216.86 1461.2 1216.86 1468.33 Q1216.86 1475.44 1218.67 1479.01 Q1220.5 1482.55 1224.11 1482.55 Q1227.74 1482.55 1229.55 1479.01 Q1231.38 1475.44 1231.38 1468.33 Q1231.38 1461.2 1229.55 1457.66 Q1227.74 1454.1 1224.11 1454.1 M1224.11 1450.39 Q1229.92 1450.39 1232.98 1455 Q1236.05 1459.58 1236.05 1468.33 Q1236.05 1477.06 1232.98 1481.67 Q1229.92 1486.25 1224.11 1486.25 Q1218.3 1486.25 1215.22 1481.67 Q1212.17 1477.06 1212.17 1468.33 Q1212.17 1459.58 1215.22 1455 Q1218.3 1450.39 1224.11 1450.39 Z" fill="#000000" fill-rule="nonzero" fill-opacity="1" /><path clip-path="url(#clip330)" d="M1244.27 1479.7 L1249.16 1479.7 L1249.16 1485.58 L1244.27 1485.58 L1244.27 1479.7 Z" fill="#000000" fill-rule="nonzero" fill-opacity="1" /><path clip-path="url(#clip330)" d="M1269.34 1454.1 Q1265.73 1454.1 1263.9 1457.66 Q1262.1 1461.2 1262.1 1468.33 Q1262.1 1475.44 1263.9 1479.01 Q1265.73 1482.55 1269.34 1482.55 Q1272.98 1482.55 1274.78 1479.01 Q1276.61 1475.44 1276.61 1468.33 Q1276.61 1461.2 1274.78 1457.66 Q1272.98 1454.1 1269.34 1454.1 M1269.34 1450.39 Q1275.15 1450.39 1278.21 1455 Q1281.29 1459.58 1281.29 1468.33 Q1281.29 1477.06 1278.21 1481.67 Q1275.15 1486.25 1269.34 1486.25 Q1263.53 1486.25 1260.45 1481.67 Q1257.4 1477.06 1257.4 1468.33 Q1257.4 1459.58 1260.45 1455 Q1263.53 1450.39 1269.34 1450.39 Z" fill="#000000" fill-rule="nonzero" fill-opacity="1" /><path clip-path="url(#clip330)" d="M1508.65 1454.1 Q1505.04 1454.1 1503.21 1457.66 Q1501.41 1461.2 1501.41 1468.33 Q1501.41 1475.44 1503.21 1479.01 Q1505.04 1482.55 1508.65 1482.55 Q1512.29 1482.55 1514.09 1479.01 Q1515.92 1475.44 1515.92 1468.33 Q1515.92 1461.2 1514.09 1457.66 Q1512.29 1454.1 1508.65 1454.1 M1508.65 1450.39 Q1514.46 1450.39 1517.52 1455 Q1520.6 1459.58 1520.6 1468.33 Q1520.6 1477.06 1517.52 1481.67 Q1514.46 1486.25 1508.65 1486.25 Q1502.84 1486.25 1499.77 1481.67 Q1496.71 1477.06 1496.71 1468.33 Q1496.71 1459.58 1499.77 1455 Q1502.84 1450.39 1508.65 1450.39 Z" fill="#000000" fill-rule="nonzero" fill-opacity="1" /><path clip-path="url(#clip330)" d="M1528.82 1479.7 L1533.7 1479.7 L1533.7 1485.58 L1528.82 1485.58 L1528.82 1479.7 Z" fill="#000000" fill-rule="nonzero" fill-opacity="1" /><path clip-path="url(#clip330)" d="M1544.7 1481.64 L1552.33 1481.64 L1552.33 1455.28 L1544.02 1456.95 L1544.02 1452.69 L1552.29 1451.02 L1556.96 1451.02 L1556.96 1481.64 L1564.6 1481.64 L1564.6 1485.58 L1544.7 1485.58 L1544.7 1481.64 Z" fill="#000000" fill-rule="nonzero" fill-opacity="1" /><path clip-path="url(#clip330)" d="M1792.77 1454.1 Q1789.16 1454.1 1787.33 1457.66 Q1785.52 1461.2 1785.52 1468.33 Q1785.52 1475.44 1787.33 1479.01 Q1789.16 1482.55 1792.77 1482.55 Q1796.4 1482.55 1798.21 1479.01 Q1800.04 1475.44 1800.04 1468.33 Q1800.04 1461.2 1798.21 1457.66 Q1796.4 1454.1 1792.77 1454.1 M1792.77 1450.39 Q1798.58 1450.39 1801.64 1455 Q1804.71 1459.58 1804.71 1468.33 Q1804.71 1477.06 1801.64 1481.67 Q1798.58 1486.25 1792.77 1486.25 Q1786.96 1486.25 1783.88 1481.67 Q1780.82 1477.06 1780.82 1468.33 Q1780.82 1459.58 1783.88 1455 Q1786.96 1450.39 1792.77 1450.39 Z" fill="#000000" fill-rule="nonzero" fill-opacity="1" /><path clip-path="url(#clip330)" d="M1812.93 1479.7 L1817.82 1479.7 L1817.82 1485.58 L1812.93 1485.58 L1812.93 1479.7 Z" fill="#000000" fill-rule="nonzero" fill-opacity="1" /><path clip-path="url(#clip330)" d="M1832.03 1481.64 L1848.35 1481.64 L1848.35 1485.58 L1826.4 1485.58 L1826.4 1481.64 Q1829.07 1478.89 1833.65 1474.26 Q1838.26 1469.61 1839.44 1468.27 Q1841.68 1465.74 1842.56 1464.01 Q1843.46 1462.25 1843.46 1460.56 Q1843.46 1457.8 1841.52 1456.07 Q1839.6 1454.33 1836.5 1454.33 Q1834.3 1454.33 1831.84 1455.09 Q1829.41 1455.86 1826.63 1457.41 L1826.63 1452.69 Q1829.46 1451.55 1831.91 1450.97 Q1834.37 1450.39 1836.4 1450.39 Q1841.77 1450.39 1844.97 1453.08 Q1848.16 1455.77 1848.16 1460.26 Q1848.16 1462.39 1847.35 1464.31 Q1846.57 1466.2 1844.46 1468.8 Q1843.88 1469.47 1840.78 1472.69 Q1837.68 1475.88 1832.03 1481.64 Z" fill="#000000" fill-rule="nonzero" fill-opacity="1" /><path clip-path="url(#clip330)" d="M2076.23 1454.1 Q2072.61 1454.1 2070.79 1457.66 Q2068.98 1461.2 2068.98 1468.33 Q2068.98 1475.44 2070.79 1479.01 Q2072.61 1482.55 2076.23 1482.55 Q2079.86 1482.55 2081.66 1479.01 Q2083.49 1475.44 2083.49 1468.33 Q2083.49 1461.2 2081.66 1457.66 Q2079.86 1454.1 2076.23 1454.1 M2076.23 1450.39 Q2082.04 1450.39 2085.09 1455 Q2088.17 1459.58 2088.17 1468.33 Q2088.17 1477.06 2085.09 1481.67 Q2082.04 1486.25 2076.23 1486.25 Q2070.41 1486.25 2067.34 1481.67 Q2064.28 1477.06 2064.28 1468.33 Q2064.28 1459.58 2067.34 1455 Q2070.41 1450.39 2076.23 1450.39 Z" fill="#000000" fill-rule="nonzero" fill-opacity="1" /><path clip-path="url(#clip330)" d="M2096.39 1479.7 L2101.27 1479.7 L2101.27 1485.58 L2096.39 1485.58 L2096.39 1479.7 Z" fill="#000000" fill-rule="nonzero" fill-opacity="1" /><path clip-path="url(#clip330)" d="M2125.62 1466.95 Q2128.98 1467.66 2130.85 1469.93 Q2132.75 1472.2 2132.75 1475.53 Q2132.75 1480.65 2129.23 1483.45 Q2125.72 1486.25 2119.23 1486.25 Q2117.06 1486.25 2114.74 1485.81 Q2112.45 1485.39 2110 1484.54 L2110 1480.02 Q2111.94 1481.16 2114.26 1481.74 Q2116.57 1482.32 2119.1 1482.32 Q2123.49 1482.32 2125.79 1480.58 Q2128.1 1478.84 2128.1 1475.53 Q2128.1 1472.48 2125.95 1470.77 Q2123.82 1469.03 2120 1469.03 L2115.97 1469.03 L2115.97 1465.19 L2120.18 1465.19 Q2123.63 1465.19 2125.46 1463.82 Q2127.29 1462.43 2127.29 1459.84 Q2127.29 1457.18 2125.39 1455.77 Q2123.52 1454.33 2120 1454.33 Q2118.08 1454.33 2115.88 1454.75 Q2113.68 1455.16 2111.04 1456.04 L2111.04 1451.88 Q2113.7 1451.14 2116.02 1450.77 Q2118.35 1450.39 2120.41 1450.39 Q2125.74 1450.39 2128.84 1452.83 Q2131.94 1455.23 2131.94 1459.35 Q2131.94 1462.22 2130.3 1464.21 Q2128.66 1466.18 2125.62 1466.95 Z" fill="#000000" fill-rule="nonzero" fill-opacity="1" /><path clip-path="url(#clip330)" d="M933.151 1548.76 L933.151 1551.62 L906.224 1551.62 Q906.606 1557.67 909.853 1560.85 Q913.131 1564 918.955 1564 Q922.329 1564 925.48 1563.17 Q928.663 1562.35 931.782 1560.69 L931.782 1566.23 Q928.631 1567.57 925.321 1568.27 Q922.011 1568.97 918.605 1568.97 Q910.075 1568.97 905.078 1564 Q900.113 1559.04 900.113 1550.57 Q900.113 1541.82 904.824 1536.69 Q909.566 1531.54 917.587 1531.54 Q924.78 1531.54 928.95 1536.18 Q933.151 1540.8 933.151 1548.76 M927.295 1547.04 Q927.231 1542.23 924.589 1539.37 Q921.979 1536.5 917.651 1536.5 Q912.749 1536.5 909.789 1539.27 Q906.861 1542.04 906.415 1547.07 L927.295 1547.04 Z" fill="#000000" fill-rule="nonzero" fill-opacity="1" /><path clip-path="url(#clip330)" d="M942.763 1532.4 L948.62 1532.4 L948.62 1568.04 L942.763 1568.04 L942.763 1532.4 M942.763 1518.52 L948.62 1518.52 L948.62 1525.93 L942.763 1525.93 L942.763 1518.52 Z" fill="#000000" fill-rule="nonzero" fill-opacity="1" /><path clip-path="url(#clip330)" d="M984.331 1549.81 Q984.331 1543.44 981.69 1539.94 Q979.08 1536.44 974.337 1536.44 Q969.627 1536.44 966.985 1539.94 Q964.375 1543.44 964.375 1549.81 Q964.375 1556.14 966.985 1559.64 Q969.627 1563.14 974.337 1563.14 Q979.08 1563.14 981.69 1559.64 Q984.331 1556.14 984.331 1549.81 M990.188 1563.62 Q990.188 1572.72 986.146 1577.15 Q982.103 1581.6 973.764 1581.6 Q970.677 1581.6 967.94 1581.13 Q965.202 1580.68 962.624 1579.72 L962.624 1574.03 Q965.202 1575.43 967.717 1576.1 Q970.231 1576.76 972.841 1576.76 Q978.602 1576.76 981.467 1573.74 Q984.331 1570.75 984.331 1564.67 L984.331 1561.77 Q982.517 1564.92 979.684 1566.48 Q976.852 1568.04 972.905 1568.04 Q966.348 1568.04 962.338 1563.05 Q958.327 1558.05 958.327 1549.81 Q958.327 1541.53 962.338 1536.53 Q966.348 1531.54 972.905 1531.54 Q976.852 1531.54 979.684 1533.1 Q982.517 1534.66 984.331 1537.81 L984.331 1532.4 L990.188 1532.4 L990.188 1563.62 Z" fill="#000000" fill-rule="nonzero" fill-opacity="1" /><path clip-path="url(#clip330)" d="M1032.74 1548.76 L1032.74 1551.62 L1005.82 1551.62 Q1006.2 1557.67 1009.44 1560.85 Q1012.72 1564 1018.55 1564 Q1021.92 1564 1025.07 1563.17 Q1028.25 1562.35 1031.37 1560.69 L1031.37 1566.23 Q1028.22 1567.57 1024.91 1568.27 Q1021.6 1568.97 1018.2 1568.97 Q1009.67 1568.97 1004.67 1564 Q999.704 1559.04 999.704 1550.57 Q999.704 1541.82 1004.42 1536.69 Q1009.16 1531.54 1017.18 1531.54 Q1024.37 1531.54 1028.54 1536.18 Q1032.74 1540.8 1032.74 1548.76 M1026.89 1547.04 Q1026.82 1542.23 1024.18 1539.37 Q1021.57 1536.5 1017.24 1536.5 Q1012.34 1536.5 1009.38 1539.27 Q1006.45 1542.04 1006.01 1547.07 L1026.89 1547.04 Z" fill="#000000" fill-rule="nonzero" fill-opacity="1" /><path clip-path="url(#clip330)" d="M1071.99 1546.53 L1071.99 1568.04 L1066.13 1568.04 L1066.13 1546.72 Q1066.13 1541.66 1064.16 1539.14 Q1062.18 1536.63 1058.24 1536.63 Q1053.49 1536.63 1050.76 1539.65 Q1048.02 1542.68 1048.02 1547.9 L1048.02 1568.04 L1042.13 1568.04 L1042.13 1532.4 L1048.02 1532.4 L1048.02 1537.93 Q1050.12 1534.72 1052.95 1533.13 Q1055.82 1531.54 1059.54 1531.54 Q1065.69 1531.54 1068.84 1535.36 Q1071.99 1539.14 1071.99 1546.53 Z" fill="#000000" fill-rule="nonzero" fill-opacity="1" /><path clip-path="url(#clip330)" d="M1079.47 1532.4 L1085.67 1532.4 L1096.81 1562.31 L1107.95 1532.4 L1114.16 1532.4 L1100.79 1568.04 L1092.83 1568.04 L1079.47 1532.4 Z" fill="#000000" fill-rule="nonzero" fill-opacity="1" /><path clip-path="url(#clip330)" d="M1138.45 1550.12 Q1131.35 1550.12 1128.61 1551.75 Q1125.87 1553.37 1125.87 1557.29 Q1125.87 1560.4 1127.91 1562.25 Q1129.98 1564.07 1133.51 1564.07 Q1138.38 1564.07 1141.31 1560.63 Q1144.27 1557.16 1144.27 1551.43 L1144.27 1550.12 L1138.45 1550.12 M1150.13 1547.71 L1150.13 1568.04 L1144.27 1568.04 L1144.27 1562.63 Q1142.26 1565.88 1139.27 1567.44 Q1136.28 1568.97 1131.95 1568.97 Q1126.48 1568.97 1123.23 1565.91 Q1120.02 1562.82 1120.02 1557.67 Q1120.02 1551.65 1124.03 1548.6 Q1128.07 1545.54 1136.06 1545.54 L1144.27 1545.54 L1144.27 1544.97 Q1144.27 1540.93 1141.6 1538.73 Q1138.95 1536.5 1134.15 1536.5 Q1131.09 1536.5 1128.2 1537.23 Q1125.3 1537.97 1122.63 1539.43 L1122.63 1534.02 Q1125.84 1532.78 1128.86 1532.17 Q1131.89 1531.54 1134.75 1531.54 Q1142.49 1531.54 1146.31 1535.55 Q1150.13 1539.56 1150.13 1547.71 Z" fill="#000000" fill-rule="nonzero" fill-opacity="1" /><path clip-path="url(#clip330)" d="M1162.19 1518.52 L1168.05 1518.52 L1168.05 1568.04 L1162.19 1568.04 L1162.19 1518.52 Z" fill="#000000" fill-rule="nonzero" fill-opacity="1" /><path clip-path="url(#clip330)" d="M1179.69 1553.98 L1179.69 1532.4 L1185.55 1532.4 L1185.55 1553.75 Q1185.55 1558.81 1187.52 1561.36 Q1189.5 1563.87 1193.44 1563.87 Q1198.19 1563.87 1200.92 1560.85 Q1203.69 1557.83 1203.69 1552.61 L1203.69 1532.4 L1209.55 1532.4 L1209.55 1568.04 L1203.69 1568.04 L1203.69 1562.57 Q1201.56 1565.82 1198.73 1567.41 Q1195.93 1568.97 1192.2 1568.97 Q1186.06 1568.97 1182.88 1565.15 Q1179.69 1561.33 1179.69 1553.98 M1194.43 1531.54 L1194.43 1531.54 Z" fill="#000000" fill-rule="nonzero" fill-opacity="1" /><path clip-path="url(#clip330)" d="M1252.1 1548.76 L1252.1 1551.62 L1225.18 1551.62 Q1225.56 1557.67 1228.81 1560.85 Q1232.08 1564 1237.91 1564 Q1241.28 1564 1244.43 1563.17 Q1247.62 1562.35 1250.74 1560.69 L1250.74 1566.23 Q1247.59 1567.57 1244.27 1568.27 Q1240.96 1568.97 1237.56 1568.97 Q1229.03 1568.97 1224.03 1564 Q1219.07 1559.04 1219.07 1550.57 Q1219.07 1541.82 1223.78 1536.69 Q1228.52 1531.54 1236.54 1531.54 Q1243.73 1531.54 1247.9 1536.18 Q1252.1 1540.8 1252.1 1548.76 M1246.25 1547.04 Q1246.18 1542.23 1243.54 1539.37 Q1240.93 1536.5 1236.6 1536.5 Q1231.7 1536.5 1228.74 1539.27 Q1225.81 1542.04 1225.37 1547.07 L1246.25 1547.04 Z" fill="#000000" fill-rule="nonzero" fill-opacity="1" /><path clip-path="url(#clip330)" d="M1284.44 1533.45 L1284.44 1538.98 Q1281.96 1537.71 1279.29 1537.07 Q1276.61 1536.44 1273.75 1536.44 Q1269.39 1536.44 1267.19 1537.77 Q1265.03 1539.11 1265.03 1541.79 Q1265.03 1543.82 1266.59 1545 Q1268.15 1546.15 1272.86 1547.2 L1274.86 1547.64 Q1281.1 1548.98 1283.71 1551.43 Q1286.35 1553.85 1286.35 1558.21 Q1286.35 1563.17 1282.41 1566.07 Q1278.49 1568.97 1271.62 1568.97 Q1268.75 1568.97 1265.63 1568.39 Q1262.54 1567.85 1259.11 1566.74 L1259.11 1560.69 Q1262.35 1562.38 1265.5 1563.24 Q1268.66 1564.07 1271.74 1564.07 Q1275.88 1564.07 1278.11 1562.66 Q1280.34 1561.23 1280.34 1558.65 Q1280.34 1556.27 1278.71 1554.99 Q1277.12 1553.72 1271.68 1552.54 L1269.64 1552.07 Q1264.2 1550.92 1261.78 1548.56 Q1259.36 1546.18 1259.36 1542.04 Q1259.36 1537.01 1262.93 1534.27 Q1266.49 1531.54 1273.05 1531.54 Q1276.29 1531.54 1279.16 1532.01 Q1282.02 1532.49 1284.44 1533.45 Z" fill="#000000" fill-rule="nonzero" fill-opacity="1" /><path clip-path="url(#clip330)" d="M1313.44 1547.58 L1330.59 1547.58 L1330.59 1552.8 L1313.44 1552.8 L1313.44 1547.58 Z" fill="#000000" fill-rule="nonzero" fill-opacity="1" /><path clip-path="url(#clip330)" d="M1346.35 1548.82 Q1342.78 1548.06 1340.87 1545.99 Q1338.96 1543.95 1338.96 1540.99 Q1338.96 1536.5 1342.59 1533.99 Q1346.19 1531.5 1352.43 1531.5 Q1354.85 1531.5 1357.55 1531.89 Q1360.26 1532.27 1363.38 1533.03 L1363.38 1538.35 Q1360.29 1537.42 1357.74 1537.01 Q1355.17 1536.6 1352.91 1536.6 Q1349.12 1536.6 1346.92 1538.06 Q1344.69 1539.53 1344.69 1541.56 Q1344.69 1543.79 1346.86 1545.22 Q1348.99 1546.62 1352.68 1546.62 L1357.62 1546.62 L1357.62 1551.46 L1352.91 1551.46 Q1348.55 1551.46 1346.25 1553.08 Q1343.77 1554.87 1343.77 1557.67 Q1343.77 1560.53 1346.44 1562.31 Q1349.15 1564.1 1353.96 1564.1 Q1356.92 1564.1 1359.62 1563.52 Q1362.33 1562.92 1364.59 1561.74 L1364.59 1567.18 Q1361.72 1568.08 1359.05 1568.52 Q1356.34 1568.97 1353.8 1568.97 Q1346.22 1568.97 1342.12 1566.07 Q1338.01 1563.17 1338.01 1557.67 Q1338.01 1554.23 1340.21 1551.91 Q1342.4 1549.58 1346.35 1548.82 Z" fill="#000000" fill-rule="nonzero" fill-opacity="1" /><path clip-path="url(#clip330)" d="M1402.24 1578.87 L1402.24 1583.42 L1368.37 1583.42 L1368.37 1578.87 L1402.24 1578.87 Z" fill="#000000" fill-rule="nonzero" fill-opacity="1" /><path clip-path="url(#clip330)" d="M1408 1520.52 L1435.31 1520.52 L1435.31 1525.93 L1414.43 1525.93 L1414.43 1539.94 L1433.27 1539.94 L1433.27 1545.35 L1414.43 1545.35 L1414.43 1568.04 L1408 1568.04 L1408 1520.52 Z" fill="#000000" fill-rule="nonzero" fill-opacity="1" /><path clip-path="url(#clip330)" d="M1500.75 1518.58 Q1496.48 1525.9 1494.42 1533.06 Q1492.35 1540.23 1492.35 1547.58 Q1492.35 1554.93 1494.42 1562.16 Q1496.52 1569.35 1500.75 1576.64 L1495.66 1576.64 Q1490.88 1569.16 1488.5 1561.93 Q1486.14 1554.71 1486.14 1547.58 Q1486.14 1540.48 1488.5 1533.29 Q1490.85 1526.09 1495.66 1518.58 L1500.75 1518.58 Z" fill="#000000" fill-rule="nonzero" fill-opacity="1" /><path clip-path="url(#clip330)" d="M1512.37 1520.52 L1542.41 1520.52 L1542.41 1525.93 L1518.8 1525.93 L1518.8 1540 L1541.43 1540 L1541.43 1545.41 L1518.8 1545.41 L1518.8 1562.63 L1542.99 1562.63 L1542.99 1568.04 L1512.37 1568.04 L1512.37 1520.52 Z" fill="#000000" fill-rule="nonzero" fill-opacity="1" /><path clip-path="url(#clip330)" d="M1569.69 1555.98 L1569.69 1568.04 L1566 1568.04 L1566 1556.11 Q1566 1553.28 1564.76 1551.87 Q1563.52 1550.44 1561.03 1550.44 Q1558.04 1550.44 1556.32 1552.16 Q1554.6 1553.85 1554.6 1556.78 L1554.6 1568.04 L1550.88 1568.04 L1550.88 1540.32 L1554.6 1540.32 L1554.6 1551.17 Q1555.91 1549.39 1557.69 1548.5 Q1559.5 1547.61 1561.86 1547.61 Q1565.71 1547.61 1567.68 1549.74 Q1569.69 1551.87 1569.69 1555.98 Z" fill="#000000" fill-rule="nonzero" fill-opacity="1" /><path clip-path="url(#clip330)" d="M1578.73 1518.58 L1583.82 1518.58 Q1588.6 1526.09 1590.95 1533.29 Q1593.34 1540.48 1593.34 1547.58 Q1593.34 1554.71 1590.95 1561.93 Q1588.6 1569.16 1583.82 1576.64 L1578.73 1576.64 Q1582.96 1569.35 1585.03 1562.16 Q1587.13 1554.93 1587.13 1547.58 Q1587.13 1540.23 1585.03 1533.06 Q1582.96 1525.9 1578.73 1518.58 Z" fill="#000000" fill-rule="nonzero" fill-opacity="1" /><polyline clip-path="url(#clip332)" style="stroke:#000000; stroke-linecap:round; stroke-linejoin:round; stroke-width:2; stroke-opacity:0.1; fill:none" points="140.696,1234.61 2352.76,1234.61 "/>
<polyline clip-path="url(#clip332)" style="stroke:#000000; stroke-linecap:round; stroke-linejoin:round; stroke-width:2; stroke-opacity:0.1; fill:none" points="140.696,980.943 2352.76,980.943 "/>
<polyline clip-path="url(#clip332)" style="stroke:#000000; stroke-linecap:round; stroke-linejoin:round; stroke-width:2; stroke-opacity:0.1; fill:none" points="140.696,727.28 2352.76,727.28 "/>
<polyline clip-path="url(#clip332)" style="stroke:#000000; stroke-linecap:round; stroke-linejoin:round; stroke-width:2; stroke-opacity:0.1; fill:none" points="140.696,473.617 2352.76,473.617 "/>
<polyline clip-path="url(#clip332)" style="stroke:#000000; stroke-linecap:round; stroke-linejoin:round; stroke-width:2; stroke-opacity:0.1; fill:none" points="140.696,219.953 2352.76,219.953 "/>
<polyline clip-path="url(#clip330)" style="stroke:#000000; stroke-linecap:round; stroke-linejoin:round; stroke-width:4; stroke-opacity:1; fill:none" points="140.696,1423.18 140.696,47.2441 "/>
<polyline clip-path="url(#clip330)" style="stroke:#000000; stroke-linecap:round; stroke-linejoin:round; stroke-width:4; stroke-opacity:1; fill:none" points="140.696,1234.61 159.593,1234.61 "/>
<polyline clip-path="url(#clip330)" style="stroke:#000000; stroke-linecap:round; stroke-linejoin:round; stroke-width:4; stroke-opacity:1; fill:none" points="140.696,980.943 159.593,980.943 "/>
<polyline clip-path="url(#clip330)" style="stroke:#000000; stroke-linecap:round; stroke-linejoin:round; stroke-width:4; stroke-opacity:1; fill:none" points="140.696,727.28 159.593,727.28 "/>
<polyline clip-path="url(#clip330)" style="stroke:#000000; stroke-linecap:round; stroke-linejoin:round; stroke-width:4; stroke-opacity:1; fill:none" points="140.696,473.617 159.593,473.617 "/>
<polyline clip-path="url(#clip330)" style="stroke:#000000; stroke-linecap:round; stroke-linejoin:round; stroke-width:4; stroke-opacity:1; fill:none" points="140.696,219.953 159.593,219.953 "/>
<path clip-path="url(#clip330)" d="M83.7929 1217.33 L102.149 1217.33 L102.149 1221.26 L88.0753 1221.26 L88.0753 1229.73 Q89.0938 1229.39 90.1123 1229.22 Q91.1308 1229.04 92.1493 1229.04 Q97.9363 1229.04 101.316 1232.21 Q104.696 1235.38 104.696 1240.8 Q104.696 1246.38 101.223 1249.48 Q97.7511 1252.56 91.4317 1252.56 Q89.2558 1252.56 86.9873 1252.19 Q84.7419 1251.82 82.3346 1251.08 L82.3346 1246.38 Q84.4179 1247.51 86.6401 1248.07 Q88.8623 1248.62 91.3391 1248.62 Q95.3437 1248.62 97.6817 1246.52 Q100.02 1244.41 100.02 1240.8 Q100.02 1237.19 97.6817 1235.08 Q95.3437 1232.97 91.3391 1232.97 Q89.4641 1232.97 87.5892 1233.39 Q85.7373 1233.81 83.7929 1234.69 L83.7929 1217.33 Z" fill="#000000" fill-rule="nonzero" fill-opacity="1" /><path clip-path="url(#clip330)" d="M53.3995 994.288 L61.0384 994.288 L61.0384 967.923 L52.7282 969.589 L52.7282 965.33 L60.9921 963.663 L65.668 963.663 L65.668 994.288 L73.3068 994.288 L73.3068 998.223 L53.3995 998.223 L53.3995 994.288 Z" fill="#000000" fill-rule="nonzero" fill-opacity="1" /><path clip-path="url(#clip330)" d="M92.7512 966.742 Q89.1401 966.742 87.3114 970.307 Q85.5058 973.849 85.5058 980.978 Q85.5058 988.085 87.3114 991.649 Q89.1401 995.191 92.7512 995.191 Q96.3854 995.191 98.1909 991.649 Q100.02 988.085 100.02 980.978 Q100.02 973.849 98.1909 970.307 Q96.3854 966.742 92.7512 966.742 M92.7512 963.038 Q98.5613 963.038 101.617 967.645 Q104.696 972.228 104.696 980.978 Q104.696 989.705 101.617 994.311 Q98.5613 998.895 92.7512 998.895 Q86.941 998.895 83.8623 994.311 Q80.8068 989.705 80.8068 980.978 Q80.8068 972.228 83.8623 967.645 Q86.941 963.038 92.7512 963.038 Z" fill="#000000" fill-rule="nonzero" fill-opacity="1" /><path clip-path="url(#clip330)" d="M54.3949 740.625 L62.0337 740.625 L62.0337 714.259 L53.7236 715.926 L53.7236 711.667 L61.9874 710 L66.6633 710 L66.6633 740.625 L74.3022 740.625 L74.3022 744.56 L54.3949 744.56 L54.3949 740.625 Z" fill="#000000" fill-rule="nonzero" fill-opacity="1" /><path clip-path="url(#clip330)" d="M83.7929 710 L102.149 710 L102.149 713.935 L88.0753 713.935 L88.0753 722.407 Q89.0938 722.06 90.1123 721.898 Q91.1308 721.713 92.1493 721.713 Q97.9363 721.713 101.316 724.884 Q104.696 728.056 104.696 733.472 Q104.696 739.051 101.223 742.153 Q97.7511 745.231 91.4317 745.231 Q89.2558 745.231 86.9873 744.861 Q84.7419 744.491 82.3346 743.75 L82.3346 739.051 Q84.4179 740.185 86.6401 740.741 Q88.8623 741.296 91.3391 741.296 Q95.3437 741.296 97.6817 739.19 Q100.02 737.083 100.02 733.472 Q100.02 729.861 97.6817 727.755 Q95.3437 725.648 91.3391 725.648 Q89.4641 725.648 87.5892 726.065 Q85.7373 726.482 83.7929 727.361 L83.7929 710 Z" fill="#000000" fill-rule="nonzero" fill-opacity="1" /><path clip-path="url(#clip330)" d="M56.6171 486.962 L72.9365 486.962 L72.9365 490.897 L50.9921 490.897 L50.9921 486.962 Q53.6541 484.207 58.2375 479.577 Q62.8439 474.925 64.0245 473.582 Q66.2698 471.059 67.1494 469.323 Q68.0522 467.564 68.0522 465.874 Q68.0522 463.119 66.1078 461.383 Q64.1865 459.647 61.0847 459.647 Q58.8856 459.647 56.4319 460.411 Q54.0014 461.175 51.2236 462.726 L51.2236 458.003 Q54.0477 456.869 56.5014 456.29 Q58.955 455.712 60.9921 455.712 Q66.3624 455.712 69.5568 458.397 Q72.7513 461.082 72.7513 465.573 Q72.7513 467.702 71.9411 469.624 Q71.1541 471.522 69.0476 474.114 Q68.4689 474.786 65.367 478.003 Q62.2652 481.198 56.6171 486.962 Z" fill="#000000" fill-rule="nonzero" fill-opacity="1" /><path clip-path="url(#clip330)" d="M92.7512 459.415 Q89.1401 459.415 87.3114 462.98 Q85.5058 466.522 85.5058 473.652 Q85.5058 480.758 87.3114 484.323 Q89.1401 487.864 92.7512 487.864 Q96.3854 487.864 98.1909 484.323 Q100.02 480.758 100.02 473.652 Q100.02 466.522 98.1909 462.98 Q96.3854 459.415 92.7512 459.415 M92.7512 455.712 Q98.5613 455.712 101.617 460.318 Q104.696 464.902 104.696 473.652 Q104.696 482.378 101.617 486.985 Q98.5613 491.568 92.7512 491.568 Q86.941 491.568 83.8623 486.985 Q80.8068 482.378 80.8068 473.652 Q80.8068 464.902 83.8623 460.318 Q86.941 455.712 92.7512 455.712 Z" fill="#000000" fill-rule="nonzero" fill-opacity="1" /><path clip-path="url(#clip330)" d="M57.6125 233.298 L73.9318 233.298 L73.9318 237.233 L51.9875 237.233 L51.9875 233.298 Q54.6495 230.544 59.2328 225.914 Q63.8393 221.261 65.0198 219.919 Q67.2652 217.396 68.1448 215.659 Q69.0476 213.9 69.0476 212.21 Q69.0476 209.456 67.1032 207.72 Q65.1819 205.984 62.08 205.984 Q59.881 205.984 57.4273 206.747 Q54.9967 207.511 52.219 209.062 L52.219 204.34 Q55.043 203.206 57.4967 202.627 Q59.9504 202.048 61.9874 202.048 Q67.3578 202.048 70.5522 204.734 Q73.7466 207.419 73.7466 211.91 Q73.7466 214.039 72.9365 215.96 Q72.1494 217.859 70.0429 220.451 Q69.4642 221.122 66.3624 224.34 Q63.2606 227.534 57.6125 233.298 Z" fill="#000000" fill-rule="nonzero" fill-opacity="1" /><path clip-path="url(#clip330)" d="M83.7929 202.673 L102.149 202.673 L102.149 206.609 L88.0753 206.609 L88.0753 215.081 Q89.0938 214.734 90.1123 214.572 Q91.1308 214.386 92.1493 214.386 Q97.9363 214.386 101.316 217.558 Q104.696 220.729 104.696 226.146 Q104.696 231.724 101.223 234.826 Q97.7511 237.905 91.4317 237.905 Q89.2558 237.905 86.9873 237.534 Q84.7419 237.164 82.3346 236.423 L82.3346 231.724 Q84.4179 232.858 86.6401 233.414 Q88.8623 233.97 91.3391 233.97 Q95.3437 233.97 97.6817 231.863 Q100.02 229.757 100.02 226.146 Q100.02 222.534 97.6817 220.428 Q95.3437 218.322 91.3391 218.322 Q89.4641 218.322 87.5892 218.738 Q85.7373 219.155 83.7929 220.034 L83.7929 202.673 Z" fill="#000000" fill-rule="nonzero" fill-opacity="1" /><polyline clip-path="url(#clip332)" style="stroke:#0000ff; stroke-linecap:round; stroke-linejoin:round; stroke-width:4; stroke-opacity:1; fill:none" points="203.301,1341.37 205.39,1341.22 207.479,1340.82 209.568,1340.16 211.657,1339.22 213.746,1338.01 215.835,1336.52 217.924,1334.75 220.013,1332.69 222.101,1330.35 224.19,1327.73 226.279,1324.81 228.368,1321.62 230.457,1318.14 232.546,1314.39 234.635,1310.35 236.724,1306.03 238.813,1301.44 240.902,1296.57 242.991,1291.44 245.08,1286.05 247.169,1280.4 249.258,1274.51 251.347,1268.38 253.436,1262.03 255.524,1255.48 257.613,1248.75 259.702,1241.85 261.791,1234.83 263.88,1227.7 265.969,1220.52 268.058,1213.3 270.147,1206.11 272.236,1198.98 274.325,1191.97 276.414,1185.12 278.503,1178.5 280.592,1172.15 282.681,1166.14 284.77,1160.51 286.859,1155.31 288.947,1150.6 291.036,1146.43 293.125,1142.82 295.214,1139.82 297.303,1137.46 299.392,1135.75 301.481,1134.71 303.57,1134.34 305.659,1134.64 307.748,1135.6 309.837,1137.19 311.926,1139.4 314.015,1142.18 316.104,1145.5 318.193,1149.3 320.282,1153.55 322.371,1158.17 324.459,1163.13 326.548,1168.35 328.637,1173.78 330.726,1179.36 332.815,1185.02 334.904,1190.72 336.993,1196.4 339.082,1202 341.171,1207.48 343.26,1212.79 345.349,1217.89 347.438,1222.74 349.527,1227.31 351.616,1231.57 353.705,1235.5 355.794,1239.07 357.882,1242.26 359.971,1245.06 362.06,1247.46 364.149,1249.45 366.238,1251.02 368.327,1252.17 370.416,1252.9 372.505,1253.21 374.594,1253.11 376.683,1252.59 378.772,1251.66 380.861,1250.34 382.95,1248.63 385.039,1246.55 387.128,1244.1 389.217,1241.32 391.305,1238.2 393.394,1234.77 395.483,1231.06 397.572,1227.07 399.661,1222.84 401.75,1218.39 403.839,1213.74 405.928,1208.92 408.017,1203.96 410.106,1198.88 412.195,1193.71 414.284,1188.47 416.373,1183.2 418.462,1177.92 420.551,1172.65 422.64,1167.43 424.728,1162.26 426.817,1157.18 428.906,1152.21 430.995,1147.37 433.084,1142.66 435.173,1138.11 437.262,1133.73 439.351,1129.53 441.44,1125.51 443.529,1121.68 445.618,1118.05 447.707,1114.6 449.796,1111.35 451.885,1108.28 453.974,1105.39 456.063,1102.67 458.152,1100.11 460.24,1097.69 462.329,1095.4 464.418,1093.22 466.507,1091.15 468.596,1089.15 470.685,1087.21 472.774,1085.3 474.863,1083.41 476.952,1081.52 479.041,1079.58 481.13,1077.6 483.219,1075.52 485.308,1073.34 487.397,1071.01 489.486,1068.52 491.575,1065.82 493.663,1062.9 495.752,1059.71 497.841,1056.24 499.93,1052.44 502.019,1048.29 504.108,1043.76 506.197,1038.81 508.286,1033.43 510.375,1027.58 512.464,1021.25 514.553,1014.41 516.642,1007.04 518.731,999.131 520.82,990.674 522.909,981.664 524.998,972.101 527.086,961.99 529.175,951.343 531.264,940.178 533.353,928.518 535.442,916.395 537.531,903.844 539.62,890.91 541.709,877.641 543.798,864.093 545.887,850.327 547.976,836.406 550.065,822.402 552.154,808.388 554.243,794.438 556.332,780.63 558.421,767.042 560.509,753.753 562.598,740.84 564.687,728.376 566.776,716.435 568.865,705.084 570.954,694.387 573.043,684.401 575.132,675.179 577.221,666.767 579.31,659.203 581.399,652.521 583.488,646.745 585.577,641.894 587.666,637.981 589.755,635.009 591.844,632.979 593.932,631.885 596.021,631.715 598.11,632.453 600.199,634.081 602.288,636.573 604.377,639.904 606.466,644.043 608.555,648.958 610.644,654.613 612.733,660.972 614.822,667.994 616.911,675.64 619,683.864 621.089,692.623 623.178,701.87 625.267,711.555 627.356,721.632 629.444,732.048 631.533,742.754 633.622,753.7 635.711,764.835 637.8,776.111 639.889,787.48 641.978,798.898 644.067,810.323 646.156,821.714 648.245,833.037 650.334,844.259 652.423,855.353 654.512,866.294 656.601,877.062 658.69,887.639 660.779,898.012 662.867,908.17 664.956,918.103 667.045,927.803 669.134,937.262 671.223,946.474 673.312,955.429 675.401,964.117 677.49,972.527 679.579,980.643 681.668,988.448 683.757,995.92 685.846,1003.03 687.935,1009.76 690.024,1016.08 692.113,1021.94 694.202,1027.32 696.29,1032.17 698.379,1036.46 700.468,1040.14 702.557,1043.18 704.646,1045.54 706.735,1047.17 708.824,1048.05 710.913,1048.15 713.002,1047.43 715.091,1045.87 717.18,1043.47 719.269,1040.2 721.358,1036.07 723.447,1031.07 725.536,1025.23 727.625,1018.55 729.713,1011.06 731.802,1002.81 733.891,993.819 735.98,984.153 738.069,973.866 740.158,963.023 742.247,951.695 744.336,939.96 746.425,927.901 748.514,915.604 750.603,903.159 752.692,890.658 754.781,878.193 756.87,865.855 758.959,853.733 761.048,841.914 763.136,830.478 765.225,819.5 767.314,809.047 769.403,799.179 771.492,789.946 773.581,781.388 775.67,773.535 777.759,766.407 779.848,760.013 781.937,754.353 784.026,749.416 786.115,745.182 788.204,741.624 790.293,738.709 792.382,736.394 794.471,734.637 796.56,733.388 798.648,732.599 800.737,732.217 802.826,732.196 804.915,732.485 807.004,733.042 809.093,733.827 811.182,734.803 813.271,735.941 815.36,737.219 817.449,738.617 819.538,740.126 821.627,741.74 823.716,743.461 825.805,745.296 827.894,747.257 829.983,749.36 832.071,751.624 834.16,754.072 836.249,756.728 838.338,759.618 840.427,762.768 842.516,766.203 844.605,769.946 846.694,774.02 848.783,778.446 850.872,783.238 852.961,788.413 855.05,793.978 857.139,799.941 859.228,806.303 861.317,813.063 863.406,820.213 865.494,827.743 867.583,835.638 869.672,843.879 871.761,852.442 873.85,861.299 875.939,870.419 878.028,879.768 880.117,889.306 882.206,898.992 884.295,908.784 886.384,918.633 888.473,928.492 890.562,938.312 892.651,948.041 894.74,957.628 896.829,967.021 898.917,976.171 901.006,985.025 903.095,993.534 905.184,1001.65 907.273,1009.33 909.362,1016.52 911.451,1023.19 913.54,1029.3 915.629,1034.81 917.718,1039.68 919.807,1043.9 921.896,1047.43 923.985,1050.25 926.074,1052.34 928.163,1053.7 930.252,1054.31 932.341,1054.16 934.429,1053.27 936.518,1051.62 938.607,1049.24 940.696,1046.14 942.785,1042.32 944.874,1037.83 946.963,1032.68 949.052,1026.9 951.141,1020.54 953.23,1013.63 955.319,1006.21 957.408,998.34 959.497,990.059 961.586,981.425 963.675,972.494 965.764,963.325 967.852,953.978 969.941,944.516 972.03,935 974.119,925.494 976.208,916.061 978.297,906.761 980.386,897.655 982.475,888.797 984.564,880.242 986.653,872.037 988.742,864.227 990.831,856.848 992.92,849.933 995.009,843.505 997.098,837.581 999.187,832.169 1001.28,827.271 1003.36,822.879 1005.45,818.978 1007.54,815.544 1009.63,812.546 1011.72,809.945 1013.81,807.698 1015.9,805.751 1017.99,804.05 1020.08,802.532 1022.16,801.133 1024.25,799.784 1026.34,798.416 1028.43,796.957 1030.52,795.337 1032.61,793.486 1034.7,791.333 1036.79,788.814 1038.88,785.864 1040.97,782.425 1043.05,778.442 1045.14,773.865 1047.23,768.649 1049.32,762.758 1051.41,756.157 1053.5,748.819 1055.59,740.726 1057.68,731.86 1059.77,722.213 1061.85,711.78 1063.94,700.562 1066.03,688.565 1068.12,675.798 1070.21,662.275 1072.3,648.014 1074.39,633.034 1076.48,617.361 1078.57,601.021 1080.66,584.047 1082.74,566.473 1084.83,548.338 1086.92,529.684 1089.01,510.559 1091.1,491.014 1093.19,471.108 1095.28,450.902 1097.37,430.464 1099.46,409.869 1101.54,389.195 1103.63,368.528 1105.72,347.955 1107.81,327.57 1109.9,307.469 1111.99,287.751 1114.08,268.515 1116.17,249.86 1118.26,231.884 1120.34,214.68 1122.43,198.336 1124.52,182.934 1126.61,168.549 1128.7,155.245 1130.79,143.075 1132.88,132.081 1134.97,122.291 1137.06,113.72 1139.15,106.37 1141.23,100.226 1143.32,95.2615 1145.41,91.4355 1147.5,88.6936 1149.59,86.9694 1151.68,86.1857 1153.77,86.2553 1155.86,87.0834 1157.95,88.5683 1160.03,90.6043 1162.12,93.0829 1164.21,95.895 1166.3,98.9331 1168.39,102.093 1170.48,105.277 1172.57,108.393 1174.66,111.36 1176.75,114.106 1178.84,116.575 1180.92,118.721 1183.01,120.516 1185.1,121.948 1187.19,123.019 1189.28,123.753 1191.37,124.189 1193.46,124.383 1195.55,124.409 1197.64,124.357 1199.72,124.331 1201.81,124.45 1203.9,124.842 1205.99,125.646 1208.08,127.007 1210.17,129.072 1212.26,131.99 1214.35,135.907 1216.44,140.962 1218.53,147.286 1220.61,154.997 1222.7,164.198 1224.79,174.975 1226.88,187.392 1228.97,201.494 1231.06,217.303 1233.15,234.814 1235.24,254.004 1237.33,274.823 1239.41,297.2 1241.5,321.043 1243.59,346.242 1245.68,372.67 1247.77,400.187 1249.86,428.64 1251.95,457.867 1254.04,487.703 1256.13,517.978 1258.21,548.521 1260.3,579.165 1262.39,609.746 1264.48,640.107 1266.57,670.098 1268.66,699.58 1270.75,728.422 1272.84,756.508 1274.93,783.73 1277.02,809.994 1279.1,835.219 1281.19,859.335 1283.28,882.284 1285.37,904.019 1287.46,924.505 1289.55,943.716 1291.64,961.635 1293.73,978.256 1295.82,993.579 1297.9,1007.61 1299.99,1020.37 1302.08,1031.87 1304.17,1042.14 1306.26,1051.2 1308.35,1059.1 1310.44,1065.86 1312.53,1071.53 1314.62,1076.14 1316.71,1079.74 1318.79,1082.38 1320.88,1084.08 1322.97,1084.91 1325.06,1084.9 1327.15,1084.1 1329.24,1082.56 1331.33,1080.31 1333.42,1077.4 1335.51,1073.87 1337.59,1069.76 1339.68,1065.1 1341.77,1059.95 1343.86,1054.32 1345.95,1048.25 1348.04,1041.78 1350.13,1034.92 1352.22,1027.72 1354.31,1020.18 1356.39,1012.35 1358.48,1004.23 1360.57,995.851 1362.66,987.235 1364.75,978.403 1366.84,969.375 1368.93,960.177 1371.02,950.833 1373.11,941.372 1375.2,931.825 1377.28,922.226 1379.37,912.615 1381.46,903.035 1383.55,893.533 1385.64,884.161 1387.73,874.977 1389.82,866.04 1391.91,857.414 1394,849.166 1396.08,841.364 1398.17,834.079 1400.26,827.381 1402.35,821.337 1404.44,816.015 1406.53,811.478 1408.62,807.784 1410.71,804.987 1412.8,803.133 1414.89,802.262 1416.97,802.405 1419.06,803.585 1421.15,805.816 1423.24,809.103 1425.33,813.442 1427.42,818.822 1429.51,825.22 1431.6,832.607 1433.69,840.948 1435.77,850.197 1437.86,860.306 1439.95,871.22 1442.04,882.879 1444.13,895.22 1446.22,908.175 1448.31,921.678 1450.4,935.656 1452.49,950.04 1454.58,964.758 1456.66,979.739 1458.75,994.914 1460.84,1010.21 1462.93,1025.57 1465.02,1040.93 1467.11,1056.22 1469.2,1071.39 1471.29,1086.38 1473.38,1101.14 1475.46,1115.62 1477.55,1129.79 1479.64,1143.6 1481.73,1157.02 1483.82,1170.02 1485.91,1182.57 1488,1194.65 1490.09,1206.24 1492.18,1217.33 1494.26,1227.91 1496.35,1237.98 1498.44,1247.52 1500.53,1256.56 1502.62,1265.08 1504.71,1273.1 1506.8,1280.63 1508.89,1287.69 1510.98,1294.29 1513.07,1300.45 1515.15,1306.19 1517.24,1311.54 1519.33,1316.52 1521.42,1321.16 1523.51,1325.47 1525.6,1329.49 1527.69,1333.25 1529.78,1336.76 1531.87,1340.06 1533.95,1343.16 1536.04,1346.09 1538.13,1348.87 1540.22,1351.51 1542.31,1354.04 1544.4,1356.46 1546.49,1358.78 1548.58,1361.01 1550.67,1363.17 1552.76,1365.23 1554.84,1367.22 1556.93,1369.12 1559.02,1370.92 1561.11,1372.63 1563.2,1374.22 1565.29,1375.69 1567.38,1377.02 1569.47,1378.19 1571.56,1379.2 1573.64,1380.02 1575.73,1380.64 1577.82,1381.03 1579.91,1381.18 1582,1381.07 1584.09,1380.68 1586.18,1379.99 1588.27,1378.99 1590.36,1377.65 1592.45,1375.96 1594.53,1373.89 1596.62,1371.44 1598.71,1368.58 1600.8,1365.3 1602.89,1361.59 1604.98,1357.42 1607.07,1352.78 1609.16,1347.66 1611.25,1342.04 1613.33,1335.92 1615.42,1329.27 1617.51,1322.1 1619.6,1314.38 1621.69,1306.12 1623.78,1297.3 1625.87,1287.93 1627.96,1277.99 1630.05,1267.5 1632.13,1256.45 1634.22,1244.84 1636.31,1232.69 1638.4,1220 1640.49,1206.8 1642.58,1193.09 1644.67,1178.9 1646.76,1164.26 1648.85,1149.2 1650.94,1133.74 1653.02,1117.93 1655.11,1101.8 1657.2,1085.41 1659.29,1068.81 1661.38,1052.04 1663.47,1035.17 1665.56,1018.27 1667.65,1001.39 1669.74,984.618 1671.82,968.02 1673.91,951.676 1676,935.669 1678.09,920.083 1680.18,905.003 1682.27,890.518 1684.36,876.715 1686.45,863.683 1688.54,851.508 1690.63,840.275 1692.71,830.063 1694.8,820.949 1696.89,813.002 1698.98,806.284 1701.07,800.848 1703.16,796.738 1705.25,793.987 1707.34,792.614 1709.43,792.629 1711.51,794.028 1713.6,796.793 1715.69,800.895 1717.78,806.292 1719.87,812.931 1721.96,820.748 1724.05,829.671 1726.14,839.619 1728.23,850.506 1730.31,862.24 1732.4,874.726 1734.49,887.87 1736.58,901.576 1738.67,915.75 1740.76,930.301 1742.85,945.144 1744.94,960.197 1747.03,975.385 1749.12,990.639 1751.2,1005.9 1753.29,1021.1 1755.38,1036.21 1757.47,1051.17 1759.56,1065.95 1761.65,1080.53 1763.74,1094.86 1765.83,1108.94 1767.92,1122.74 1770,1136.25 1772.09,1149.46 1774.18,1162.36 1776.27,1174.93 1778.36,1187.18 1780.45,1199.09 1782.54,1210.65 1784.63,1221.86 1786.72,1232.71 1788.81,1243.2 1790.89,1253.31 1792.98,1263.05 1795.07,1272.4 1797.16,1281.36 1799.25,1289.92 1801.34,1298.07 1803.43,1305.81 1805.52,1313.14 1807.61,1320.05 1809.69,1326.53 1811.78,1332.59 1813.87,1338.22 1815.96,1343.41 1818.05,1348.18 1820.14,1352.51 1822.23,1356.42 1824.32,1359.9 1826.41,1362.95 1828.5,1365.59 1830.58,1367.8 1832.67,1369.61 1834.76,1371.01 1836.85,1372.02 1838.94,1372.64 1841.03,1372.87 1843.12,1372.74 1845.21,1372.25 1847.3,1371.41 1849.38,1370.24 1851.47,1368.75 1853.56,1366.95 1855.65,1364.88 1857.74,1362.54 1859.83,1359.96 1861.92,1357.15 1864.01,1354.15 1866.1,1350.97 1868.18,1347.65 1870.27,1344.21 1872.36,1340.68 1874.45,1337.08 1876.54,1333.46 1878.63,1329.83 1880.72,1326.23 1882.81,1322.68 1884.9,1319.21 1886.99,1315.84 1889.07,1312.61 1891.16,1309.52 1893.25,1306.59 1895.34,1303.84 1897.43,1301.28 1899.52,1298.91 1901.61,1296.73 1903.7,1294.75 1905.79,1292.95 1907.87,1291.32 1909.96,1289.86 1912.05,1288.53 1914.14,1287.34 1916.23,1286.24 1918.32,1285.22 1920.41,1284.26 1922.5,1283.32 1924.59,1282.39 1926.68,1281.43 1928.76,1280.43 1930.85,1279.35 1932.94,1278.19 1935.03,1276.91 1937.12,1275.51 1939.21,1273.97 1941.3,1272.28 1943.39,1270.44 1945.48,1268.43 1947.56,1266.25 1949.65,1263.91 1951.74,1261.42 1953.83,1258.76 1955.92,1255.96 1958.01,1253.02 1960.1,1249.95 1962.19,1246.78 1964.28,1243.5 1966.36,1240.15 1968.45,1236.73 1970.54,1233.28 1972.63,1229.8 1974.72,1226.33 1976.81,1222.89 1978.9,1219.49 1980.99,1216.17 1983.08,1212.95 1985.17,1209.87 1987.25,1206.93 1989.34,1204.18 1991.43,1201.64 1993.52,1199.33 1995.61,1197.28 1997.7,1195.51 1999.79,1194.04 2001.88,1192.89 2003.97,1192.06 2006.05,1191.58 2008.14,1191.45 2010.23,1191.67 2012.32,1192.25 2014.41,1193.17 2016.5,1194.42 2018.59,1195.99 2020.68,1197.87 2022.77,1200.02 2024.86,1202.43 2026.94,1205.07 2029.03,1207.9 2031.12,1210.9 2033.21,1214.03 2035.3,1217.25 2037.39,1220.54 2039.48,1223.86 2041.57,1227.17 2043.66,1230.44 2045.74,1233.66 2047.83,1236.77 2049.92,1239.78 2052.01,1242.63 2054.1,1245.33 2056.19,1247.84 2058.28,1250.15 2060.37,1252.24 2062.46,1254.1 2064.55,1255.72 2066.63,1257.07 2068.72,1258.15 2070.81,1258.95 2072.9,1259.45 2074.99,1259.64 2077.08,1259.5 2079.17,1259.03 2081.26,1258.21 2083.35,1257.02 2085.43,1255.46 2087.52,1253.49 2089.61,1251.12 2091.7,1248.32 2093.79,1245.08 2095.88,1241.39 2097.97,1237.23 2100.06,1232.6 2102.15,1227.49 2104.23,1221.89 2106.32,1215.8 2108.41,1209.23 2110.5,1202.17 2112.59,1194.65 2114.68,1186.66 2116.77,1178.24 2118.86,1169.39 2120.95,1160.16 2123.04,1150.56 2125.12,1140.64 2127.21,1130.44 2129.3,1119.99 2131.39,1109.36 2133.48,1098.58 2135.57,1087.72 2137.66,1076.83 2139.75,1065.96 2141.84,1055.19 2143.92,1044.57 2146.01,1034.15 2148.1,1024.01 2150.19,1014.2 2152.28,1004.77 2154.37,995.78 2156.46,987.283 2158.55,979.324 2160.64,971.947 2162.73,965.19 2164.81,959.086 2166.9,953.662 2168.99,948.94 2171.08,944.938 2173.17,941.665 2175.26,939.127 2177.35,937.324 2179.44,936.249 2181.53,935.895 2183.61,936.246 2185.7,937.285 2187.79,938.992 2189.88,941.345 2191.97,944.318 2194.06,947.887 2196.15,952.025 2198.24,956.704 2200.33,961.9 2202.42,967.583 2204.5,973.729 2206.59,980.312 2208.68,987.304 2210.77,994.681 2212.86,1002.42 2214.95,1010.48 2217.04,1018.86 2219.13,1027.51 2221.22,1036.4 2223.3,1045.52 2225.39,1054.82 2227.48,1064.28 2229.57,1073.86 2231.66,1083.53 2233.75,1093.25 2235.84,1102.99 2237.93,1112.7 2240.02,1122.37 2242.1,1131.94 2244.19,1141.39 2246.28,1150.69 2248.37,1159.8 2250.46,1168.7 2252.55,1177.36 2254.64,1185.77 2256.73,1193.9 2258.82,1201.73 2260.91,1209.26 2262.99,1216.48 2265.08,1223.37 2267.17,1229.94 2269.26,1236.17 2271.35,1242.09 2273.44,1247.68 2275.53,1252.95 2277.62,1257.9 2279.71,1262.55 2281.79,1266.89 2283.88,1270.94 2285.97,1274.69 2288.06,1278.16 2290.15,1281.35 "/>
<polyline clip-path="url(#clip332)" style="stroke:#ff0000; stroke-linecap:round; stroke-linejoin:round; stroke-width:4; stroke-opacity:1; fill:none" points="203.301,1384.24 205.39,1384.22 207.479,1384.08 209.568,1383.82 211.657,1383.43 213.746,1382.88 215.835,1382.18 217.924,1381.31 220.013,1380.27 222.101,1379.05 224.19,1377.66 226.279,1376.09 228.368,1374.35 230.457,1372.44 232.546,1370.37 234.635,1368.16 236.724,1365.81 238.813,1363.35 240.902,1360.79 242.991,1358.15 245.08,1355.46 247.169,1352.74 249.258,1350.02 251.347,1347.32 253.436,1344.68 255.524,1342.12 257.613,1339.68 259.702,1337.37 261.791,1335.24 263.88,1333.3 265.969,1331.57 268.058,1330.09 270.147,1328.86 272.236,1327.9 274.325,1327.22 276.414,1326.83 278.503,1326.73 280.592,1326.91 282.681,1327.38 284.77,1328.12 286.859,1329.11 288.947,1330.34 291.036,1331.79 293.125,1333.44 295.214,1335.25 297.303,1337.21 299.392,1339.27 301.481,1341.42 303.57,1343.62 305.659,1345.84 307.748,1348.06 309.837,1350.24 311.926,1352.37 314.015,1354.41 316.104,1356.34 318.193,1358.14 320.282,1359.8 322.371,1361.3 324.459,1362.62 326.548,1363.76 328.637,1364.69 330.726,1365.43 332.815,1365.96 334.904,1366.27 336.993,1366.37 339.082,1366.26 341.171,1365.93 343.26,1365.39 345.349,1364.64 347.438,1363.67 349.527,1362.5 351.616,1361.12 353.705,1359.54 355.794,1357.74 357.882,1355.75 359.971,1353.54 362.06,1351.13 364.149,1348.5 366.238,1345.67 368.327,1342.61 370.416,1339.32 372.505,1335.81 374.594,1332.06 376.683,1328.08 378.772,1323.85 380.861,1319.37 382.95,1314.64 385.039,1309.67 387.128,1304.45 389.217,1298.98 391.305,1293.29 393.394,1287.36 395.483,1281.23 397.572,1274.91 399.661,1268.43 401.75,1261.8 403.839,1255.07 405.928,1248.26 408.017,1241.43 410.106,1234.6 412.195,1227.83 414.284,1221.18 416.373,1214.68 418.462,1208.39 420.551,1202.37 422.64,1196.68 424.728,1191.35 426.817,1186.45 428.906,1182.02 430.995,1178.11 433.084,1174.74 435.173,1171.96 437.262,1169.78 439.351,1168.23 441.44,1167.31 443.529,1167.02 445.618,1167.37 447.707,1168.34 449.796,1169.9 451.885,1172.03 453.974,1174.7 456.063,1177.87 458.152,1181.49 460.24,1185.52 462.329,1189.91 464.418,1194.61 466.507,1199.57 468.596,1204.74 470.685,1210.07 472.774,1215.52 474.863,1221.03 476.952,1226.57 479.041,1232.1 481.13,1237.59 483.219,1243 485.308,1248.31 487.397,1253.49 489.486,1258.52 491.575,1263.4 493.663,1268.09 495.752,1272.59 497.841,1276.89 499.93,1280.99 502.019,1284.87 504.108,1288.52 506.197,1291.95 508.286,1295.15 510.375,1298.11 512.464,1300.82 514.553,1303.29 516.642,1305.5 518.731,1307.46 520.82,1309.14 522.909,1310.56 524.998,1311.69 527.086,1312.53 529.175,1313.08 531.264,1313.33 533.353,1313.27 535.442,1312.9 537.531,1312.22 539.62,1311.21 541.709,1309.89 543.798,1308.26 545.887,1306.31 547.976,1304.06 550.065,1301.52 552.154,1298.69 554.243,1295.6 556.332,1292.26 558.421,1288.7 560.509,1284.94 562.598,1281.02 564.687,1276.95 566.776,1272.79 568.865,1268.55 570.954,1264.29 573.043,1260.04 575.132,1255.85 577.221,1251.74 579.31,1247.77 581.399,1243.97 583.488,1240.37 585.577,1237.01 587.666,1233.92 589.755,1231.12 591.844,1228.63 593.932,1226.47 596.021,1224.64 598.11,1223.14 600.199,1221.97 602.288,1221.12 604.377,1220.57 606.466,1220.3 608.555,1220.28 610.644,1220.47 612.733,1220.83 614.822,1221.32 616.911,1221.91 619,1222.52 621.089,1223.13 623.178,1223.68 625.267,1224.13 627.356,1224.41 629.444,1224.49 631.533,1224.32 633.622,1223.86 635.711,1223.08 637.8,1221.93 639.889,1220.38 641.978,1218.41 644.067,1216 646.156,1213.13 648.245,1209.78 650.334,1205.94 652.423,1201.61 654.512,1196.78 656.601,1191.46 658.69,1185.66 660.779,1179.39 662.867,1172.65 664.956,1165.47 667.045,1157.86 669.134,1149.85 671.223,1141.47 673.312,1132.75 675.401,1123.71 677.49,1114.4 679.579,1104.85 681.668,1095.1 683.757,1085.19 685.846,1075.17 687.935,1065.09 690.024,1054.99 692.113,1044.92 694.202,1034.95 696.29,1025.11 698.379,1015.46 700.468,1006.06 702.557,996.947 704.646,988.18 706.735,979.804 708.824,971.86 710.913,964.387 713.002,957.418 715.091,950.979 717.18,945.09 719.269,939.763 721.358,935.002 723.447,930.804 725.536,927.154 727.625,924.031 729.713,921.405 731.802,919.236 733.891,917.48 735.98,916.082 738.069,914.985 740.158,914.126 742.247,913.438 744.336,912.852 746.425,912.299 748.514,911.71 750.603,911.02 752.692,910.165 754.781,909.088 756.87,907.738 758.959,906.07 761.048,904.049 763.136,901.648 765.225,898.85 767.314,895.65 769.403,892.052 771.492,888.071 773.581,883.733 775.67,879.074 777.759,874.14 779.848,868.986 781.937,863.675 784.026,858.277 786.115,852.869 788.204,847.532 790.293,842.35 792.382,837.407 794.471,832.789 796.56,828.58 798.648,824.86 800.737,821.705 802.826,819.183 804.915,817.358 807.004,816.283 809.093,816.001 811.182,816.547 813.271,817.944 815.36,820.205 817.449,823.333 819.538,827.319 821.627,832.147 823.716,837.788 825.805,844.207 827.894,851.362 829.983,859.204 832.071,867.676 834.16,876.719 836.249,886.27 838.338,896.263 840.427,906.63 842.516,917.302 844.605,928.209 846.694,939.283 848.783,950.455 850.872,961.659 852.961,972.831 855.05,983.909 857.139,994.832 859.228,1005.55 861.317,1016 863.406,1026.14 865.494,1035.93 867.583,1045.32 869.672,1054.28 871.761,1062.79 873.85,1070.82 875.939,1078.34 878.028,1085.35 880.117,1091.84 882.206,1097.81 884.295,1103.25 886.384,1108.18 888.473,1112.6 890.562,1116.55 892.651,1120.02 894.74,1123.06 896.829,1125.69 898.917,1127.93 901.006,1129.82 903.095,1131.4 905.184,1132.69 907.273,1133.73 909.362,1134.56 911.451,1135.21 913.54,1135.7 915.629,1136.07 917.718,1136.34 919.807,1136.55 921.896,1136.7 923.985,1136.81 926.074,1136.9 928.163,1136.97 930.252,1137.03 932.341,1137.07 934.429,1137.09 936.518,1137.08 938.607,1137.03 940.696,1136.91 942.785,1136.69 944.874,1136.36 946.963,1135.88 949.052,1135.22 951.141,1134.33 953.23,1133.19 955.319,1131.76 957.408,1129.98 959.497,1127.84 961.586,1125.29 963.675,1122.29 965.764,1118.82 967.852,1114.84 969.941,1110.34 972.03,1105.29 974.119,1099.69 976.208,1093.53 978.297,1086.81 980.386,1079.55 982.475,1071.75 984.564,1063.45 986.653,1054.68 988.742,1045.48 990.831,1035.9 992.92,1025.99 995.009,1015.82 997.098,1005.47 999.187,994.998 1001.28,984.492 1003.36,974.033 1005.45,963.705 1007.54,953.593 1009.63,943.781 1011.72,934.351 1013.81,925.38 1015.9,916.94 1017.99,909.097 1020.08,901.909 1022.16,895.424 1024.25,889.682 1026.34,884.711 1028.43,880.529 1030.52,877.144 1032.61,874.552 1034.7,872.739 1036.79,871.681 1038.88,871.346 1040.97,871.693 1043.05,872.675 1045.14,874.237 1047.23,876.321 1049.32,878.865 1051.41,881.803 1053.5,885.07 1055.59,888.598 1057.68,892.32 1059.77,896.172 1061.85,900.09 1063.94,904.014 1066.03,907.887 1068.12,911.657 1070.21,915.276 1072.3,918.699 1074.39,921.89 1076.48,924.817 1078.57,927.454 1080.66,929.782 1082.74,931.788 1084.83,933.466 1086.92,934.816 1089.01,935.846 1091.1,936.569 1093.19,937.003 1095.28,937.175 1097.37,937.114 1099.46,936.855 1101.54,936.435 1103.63,935.896 1105.72,935.282 1107.81,934.635 1109.9,934.002 1111.99,933.426 1114.08,932.949 1116.17,932.612 1118.26,932.452 1120.34,932.503 1122.43,932.793 1124.52,933.349 1126.61,934.189 1128.7,935.33 1130.79,936.781 1132.88,938.549 1134.97,940.636 1137.06,943.038 1139.15,945.75 1141.23,948.762 1143.32,952.062 1145.41,955.636 1147.5,959.467 1149.59,963.538 1151.68,967.831 1153.77,972.324 1155.86,976.999 1157.95,981.834 1160.03,986.807 1162.12,991.898 1164.21,997.085 1166.3,1002.35 1168.39,1007.66 1170.48,1013 1172.57,1018.35 1174.66,1023.69 1176.75,1028.99 1178.84,1034.22 1180.92,1039.38 1183.01,1044.43 1185.1,1049.36 1187.19,1054.14 1189.28,1058.75 1191.37,1063.18 1193.46,1067.4 1195.55,1071.39 1197.64,1075.15 1199.72,1078.65 1201.81,1081.88 1203.9,1084.82 1205.99,1087.48 1208.08,1089.83 1210.17,1091.87 1212.26,1093.59 1214.35,1095 1216.44,1096.08 1218.53,1096.84 1220.61,1097.29 1222.7,1097.41 1224.79,1097.23 1226.88,1096.74 1228.97,1095.96 1231.06,1094.89 1233.15,1093.55 1235.24,1091.96 1237.33,1090.13 1239.41,1088.07 1241.5,1085.8 1243.59,1083.35 1245.68,1080.73 1247.77,1077.97 1249.86,1075.07 1251.95,1072.07 1254.04,1068.99 1256.13,1065.83 1258.21,1062.62 1260.3,1059.38 1262.39,1056.12 1264.48,1052.86 1266.57,1049.61 1268.66,1046.39 1270.75,1043.21 1272.84,1040.07 1274.93,1036.99 1277.02,1033.98 1279.1,1031.04 1281.19,1028.19 1283.28,1025.44 1285.37,1022.79 1287.46,1020.25 1289.55,1017.83 1291.64,1015.55 1293.73,1013.42 1295.82,1011.45 1297.9,1009.65 1299.99,1008.03 1302.08,1006.62 1304.17,1005.43 1306.26,1004.47 1308.35,1003.76 1310.44,1003.32 1312.53,1003.16 1314.62,1003.3 1316.71,1003.74 1318.79,1004.51 1320.88,1005.6 1322.97,1007.03 1325.06,1008.79 1327.15,1010.88 1329.24,1013.31 1331.33,1016.05 1333.42,1019.1 1335.51,1022.44 1337.59,1026.05 1339.68,1029.9 1341.77,1033.97 1343.86,1038.24 1345.95,1042.65 1348.04,1047.19 1350.13,1051.82 1352.22,1056.49 1354.31,1061.18 1356.39,1065.85 1358.48,1070.46 1360.57,1074.97 1362.66,1079.36 1364.75,1083.6 1366.84,1087.65 1368.93,1091.49 1371.02,1095.11 1373.11,1098.47 1375.2,1101.58 1377.28,1104.4 1379.37,1106.95 1381.46,1109.2 1383.55,1111.17 1385.64,1112.85 1387.73,1114.24 1389.82,1115.35 1391.91,1116.18 1394,1116.75 1396.08,1117.06 1398.17,1117.13 1400.26,1116.94 1402.35,1116.51 1404.44,1115.84 1406.53,1114.93 1408.62,1113.77 1410.71,1112.36 1412.8,1110.66 1414.89,1108.68 1416.97,1106.38 1419.06,1103.73 1421.15,1100.7 1423.24,1097.26 1425.33,1093.35 1427.42,1088.93 1429.51,1083.96 1431.6,1078.39 1433.69,1072.16 1435.77,1065.23 1437.86,1057.54 1439.95,1049.04 1442.04,1039.69 1444.13,1029.45 1446.22,1018.28 1448.31,1006.13 1450.4,992.997 1452.49,978.846 1454.58,963.667 1456.66,947.456 1458.75,930.215 1460.84,911.958 1462.93,892.706 1465.02,872.493 1467.11,851.359 1469.2,829.357 1471.29,806.551 1473.38,783.012 1475.46,758.824 1477.55,734.077 1479.64,708.874 1481.73,683.321 1483.82,657.534 1485.91,631.636 1488,605.752 1490.09,580.011 1492.18,554.546 1494.26,529.489 1496.35,504.968 1498.44,481.113 1500.53,458.046 1502.62,435.882 1504.71,414.729 1506.8,394.687 1508.89,375.841 1510.98,358.266 1513.07,342.024 1515.15,327.161 1517.24,313.707 1519.33,301.68 1521.42,291.079 1523.51,281.888 1525.6,274.077 1527.69,267.602 1529.78,262.403 1531.87,258.41 1533.95,255.542 1536.04,253.708 1538.13,252.812 1540.22,252.749 1542.31,253.414 1544.4,254.699 1546.49,256.499 1548.58,258.709 1550.67,261.23 1552.76,263.969 1554.84,266.839 1556.93,269.765 1559.02,272.677 1561.11,275.519 1563.2,278.241 1565.29,280.805 1567.38,283.185 1569.47,285.36 1571.56,287.32 1573.64,289.061 1575.73,290.588 1577.82,291.907 1579.91,293.032 1582,293.978 1584.09,294.762 1586.18,295.404 1588.27,295.922 1590.36,296.333 1592.45,296.655 1594.53,296.902 1596.62,297.09 1598.71,297.23 1600.8,297.334 1602.89,297.411 1604.98,297.47 1607.07,297.522 1609.16,297.577 1611.25,297.646 1613.33,297.745 1615.42,297.888 1617.51,298.099 1619.6,298.4 1621.69,298.823 1623.78,299.401 1625.87,300.173 1627.96,301.184 1630.05,302.482 1632.13,304.12 1634.22,306.155 1636.31,308.644 1638.4,311.647 1640.49,315.225 1642.58,319.435 1644.67,324.335 1646.76,329.976 1648.85,336.405 1650.94,343.663 1653.02,351.782 1655.11,360.786 1657.2,370.689 1659.29,381.494 1661.38,393.195 1663.47,405.775 1665.56,419.206 1667.65,433.451 1669.74,448.46 1671.82,464.18 1673.91,480.545 1676,497.486 1678.09,514.928 1680.18,532.791 1682.27,550.993 1684.36,569.451 1686.45,588.082 1688.54,606.804 1690.63,625.537 1692.71,644.203 1694.8,662.73 1696.89,681.049 1698.98,699.095 1701.07,716.81 1703.16,734.14 1705.25,751.036 1707.34,767.455 1709.43,783.358 1711.51,798.711 1713.6,813.482 1715.69,827.646 1717.78,841.177 1719.87,854.054 1721.96,866.26 1724.05,877.775 1726.14,888.585 1728.23,898.675 1730.31,908.032 1732.4,916.645 1734.49,924.503 1736.58,931.597 1738.67,937.919 1740.76,943.465 1742.85,948.231 1744.94,952.218 1747.03,955.427 1749.12,957.868 1751.2,959.55 1753.29,960.489 1755.38,960.708 1757.47,960.231 1759.56,959.093 1761.65,957.332 1763.74,954.993 1765.83,952.128 1767.92,948.794 1770,945.056 1772.09,940.983 1774.18,936.652 1776.27,932.14 1778.36,927.534 1780.45,922.919 1782.54,918.383 1784.63,914.018 1786.72,909.913 1788.81,906.154 1790.89,902.828 1792.98,900.015 1795.07,897.79 1797.16,896.223 1799.25,895.375 1801.34,895.298 1803.43,896.035 1805.52,897.62 1807.61,900.076 1809.69,903.413 1811.78,907.634 1813.87,912.728 1815.96,918.676 1818.05,925.448 1820.14,933.005 1822.23,941.299 1824.32,950.276 1826.41,959.876 1828.5,970.032 1830.58,980.673 1832.67,991.727 1834.76,1003.12 1836.85,1014.77 1838.94,1026.62 1841.03,1038.57 1843.12,1050.57 1845.21,1062.55 1847.3,1074.44 1849.38,1086.18 1851.47,1097.72 1853.56,1109.01 1855.65,1120 1857.74,1130.67 1859.83,1140.97 1861.92,1150.89 1864.01,1160.39 1866.1,1169.47 1868.18,1178.11 1870.27,1186.3 1872.36,1194.05 1874.45,1201.34 1876.54,1208.18 1878.63,1214.57 1880.72,1220.51 1882.81,1226.02 1884.9,1231.09 1886.99,1235.74 1889.07,1239.96 1891.16,1243.76 1893.25,1247.14 1895.34,1250.11 1897.43,1252.66 1899.52,1254.8 1901.61,1256.52 1903.7,1257.83 1905.79,1258.71 1907.87,1259.15 1909.96,1259.17 1912.05,1258.74 1914.14,1257.86 1916.23,1256.52 1918.32,1254.71 1920.41,1252.43 1922.5,1249.66 1924.59,1246.38 1926.68,1242.6 1928.76,1238.31 1930.85,1233.48 1932.94,1228.11 1935.03,1222.2 1937.12,1215.73 1939.21,1208.69 1941.3,1201.08 1943.39,1192.9 1945.48,1184.14 1947.56,1174.8 1949.65,1164.88 1951.74,1154.4 1953.83,1143.35 1955.92,1131.76 1958.01,1119.65 1960.1,1107.04 1962.19,1093.97 1964.28,1080.47 1966.36,1066.59 1968.45,1052.39 1970.54,1037.92 1972.63,1023.25 1974.72,1008.46 1976.81,993.627 1978.9,978.837 1980.99,964.183 1983.08,949.761 1985.17,935.669 1987.25,922.009 1989.34,908.883 1991.43,896.39 1993.52,884.628 1995.61,873.692 1997.7,863.668 1999.79,854.638 2001.88,846.675 2003.97,839.842 2006.05,834.191 2008.14,829.763 2010.23,826.589 2012.32,824.685 2014.41,824.056 2016.5,824.695 2018.59,826.583 2020.68,829.692 2022.77,833.981 2024.86,839.402 2026.94,845.898 2029.03,853.407 2031.12,861.86 2033.21,871.183 2035.3,881.3 2037.39,892.134 2039.48,903.607 2041.57,915.639 2043.66,928.155 2045.74,941.079 2047.83,954.34 2049.92,967.867 2052.01,981.597 2054.1,995.467 2056.19,1009.42 2058.28,1023.41 2060.37,1037.37 2062.46,1051.27 2064.55,1065.07 2066.63,1078.72 2068.72,1092.2 2070.81,1105.47 2072.9,1118.5 2074.99,1131.27 2077.08,1143.75 2079.17,1155.93 2081.26,1167.78 2083.35,1179.29 2085.43,1190.44 2087.52,1201.21 2089.61,1211.6 2091.7,1221.59 2093.79,1231.18 2095.88,1240.36 2097.97,1249.12 2100.06,1257.46 2102.15,1265.38 2104.23,1272.87 2106.32,1279.94 2108.41,1286.59 2110.5,1292.83 2112.59,1298.65 2114.68,1304.07 2116.77,1309.09 2118.86,1313.72 2120.95,1317.96 2123.04,1321.83 2125.12,1325.33 2127.21,1328.46 2129.3,1331.25 2131.39,1333.69 2133.48,1335.79 2135.57,1337.55 2137.66,1338.99 2139.75,1340.1 2141.84,1340.9 2143.92,1341.39 2146.01,1341.56 2148.1,1341.44 2150.19,1341.01 2152.28,1340.29 2154.37,1339.29 2156.46,1338 2158.55,1336.44 2160.64,1334.61 2162.73,1332.53 2164.81,1330.21 2166.9,1327.67 2168.99,1324.91 2171.08,1321.95 2173.17,1318.82 2175.26,1315.54 2177.35,1312.12 2179.44,1308.59 2181.53,1304.97 2183.61,1301.29 2185.7,1297.57 2187.79,1293.83 2189.88,1290.1 2191.97,1286.4 2194.06,1282.75 2196.15,1279.17 2198.24,1275.67 2200.33,1272.27 2202.42,1268.96 2204.5,1265.77 2206.59,1262.69 2208.68,1259.72 2210.77,1256.86 2212.86,1254.1 2214.95,1251.42 2217.04,1248.82 2219.13,1246.28 2221.22,1243.77 2223.3,1241.29 2225.39,1238.82 2227.48,1236.33 2229.57,1233.8 2231.66,1231.22 2233.75,1228.58 2235.84,1225.84 2237.93,1223.02 2240.02,1220.08 2242.1,1217.03 2244.19,1213.86 2246.28,1210.57 2248.37,1207.16 2250.46,1203.63 2252.55,1199.99 2254.64,1196.25 2256.73,1192.42 2258.82,1188.52 2260.91,1184.56 2262.99,1180.56 2265.08,1176.54 2267.17,1172.53 2269.26,1168.55 2271.35,1164.62 2273.44,1160.76 2275.53,1157.01 2277.62,1153.39 2279.71,1149.92 2281.79,1146.63 2283.88,1143.53 2285.97,1140.66 2288.06,1138.01 2290.15,1135.62 "/>
<polyline clip-path="url(#clip332)" style="stroke:#008000; stroke-linecap:round; stroke-linejoin:round; stroke-width:6; stroke-opacity:1; fill:none" points="1246.73,2799.12 1246.73,-1328.69 "/>
<path clip-path="url(#clip330)" d="M1706.52 300.469 L2279.02 300.469 L2279.02 93.1086 L1706.52 93.1086  Z" fill="#ffffff" fill-rule="evenodd" fill-opacity="1"/>
<polyline clip-path="url(#clip330)" style="stroke:#000000; stroke-linecap:round; stroke-linejoin:round; stroke-width:4; stroke-opacity:1; fill:none" points="1706.52,300.469 2279.02,300.469 2279.02,93.1086 1706.52,93.1086 1706.52,300.469 "/>
<polyline clip-path="url(#clip330)" style="stroke:#0000ff; stroke-linecap:round; stroke-linejoin:round; stroke-width:4; stroke-opacity:1; fill:none" points="1731.1,144.949 1878.57,144.949 "/>
<path clip-path="url(#clip330)" d="M1907.82 131.511 L1907.82 158.386 L1913.47 158.386 Q1920.62 158.386 1923.93 155.145 Q1927.27 151.905 1927.27 144.914 Q1927.27 137.969 1923.93 134.752 Q1920.62 131.511 1913.47 131.511 L1907.82 131.511 M1903.15 127.669 L1912.75 127.669 Q1922.8 127.669 1927.5 131.858 Q1932.2 136.025 1932.2 144.914 Q1932.2 153.849 1927.48 158.039 Q1922.75 162.229 1912.75 162.229 L1903.15 162.229 L1903.15 127.669 Z" fill="#000000" fill-rule="nonzero" fill-opacity="1" /><path clip-path="url(#clip330)" d="M1953.68 130.84 Q1948.59 130.84 1945.58 134.636 Q1942.59 138.432 1942.59 144.983 Q1942.59 151.511 1945.58 155.307 Q1948.59 159.104 1953.68 159.104 Q1958.77 159.104 1961.74 155.307 Q1964.72 151.511 1964.72 144.983 Q1964.72 138.432 1961.74 134.636 Q1958.77 130.84 1953.68 130.84 M1953.68 127.044 Q1960.95 127.044 1965.3 131.928 Q1969.65 136.789 1969.65 144.983 Q1969.65 153.155 1965.3 158.039 Q1960.95 162.9 1953.68 162.9 Q1946.39 162.9 1942.01 158.039 Q1937.66 153.178 1937.66 144.983 Q1937.66 136.789 1942.01 131.928 Q1946.39 127.044 1953.68 127.044 Z" fill="#000000" fill-rule="nonzero" fill-opacity="1" /><path clip-path="url(#clip330)" d="M1997.68 128.803 L1997.68 133.363 Q1995.02 132.09 1992.66 131.465 Q1990.3 130.84 1988.1 130.84 Q1984.28 130.84 1982.2 132.321 Q1980.14 133.803 1980.14 136.534 Q1980.14 138.826 1981.5 140.007 Q1982.89 141.164 1986.74 141.882 L1989.56 142.46 Q1994.79 143.456 1997.27 145.979 Q1999.77 148.479 1999.77 152.692 Q1999.77 157.715 1996.39 160.307 Q1993.03 162.9 1986.53 162.9 Q1984.07 162.9 1981.3 162.344 Q1978.54 161.789 1975.58 160.701 L1975.58 155.886 Q1978.43 157.483 1981.16 158.293 Q1983.89 159.104 1986.53 159.104 Q1990.53 159.104 1992.71 157.53 Q1994.88 155.956 1994.88 153.039 Q1994.88 150.493 1993.31 149.057 Q1991.76 147.622 1988.19 146.905 L1985.35 146.349 Q1980.11 145.307 1977.78 143.085 Q1975.44 140.863 1975.44 136.905 Q1975.44 132.321 1978.66 129.682 Q1981.9 127.044 1987.57 127.044 Q1990 127.044 1992.52 127.483 Q1995.05 127.923 1997.68 128.803 Z" fill="#000000" fill-rule="nonzero" fill-opacity="1" /><path clip-path="url(#clip330)" d="M2021.5 151.997 L2021.5 136.303 L2025.76 136.303 L2025.76 151.835 Q2025.76 155.516 2027.2 157.368 Q2028.63 159.196 2031.5 159.196 Q2034.95 159.196 2036.94 156.997 Q2038.96 154.798 2038.96 151.002 L2038.96 136.303 L2043.22 136.303 L2043.22 162.229 L2038.96 162.229 L2038.96 158.247 Q2037.41 160.608 2035.35 161.766 Q2033.31 162.9 2030.6 162.9 Q2026.13 162.9 2023.82 160.122 Q2021.5 157.344 2021.5 151.997 M2032.22 135.678 L2032.22 135.678 Z" fill="#000000" fill-rule="nonzero" fill-opacity="1" /><path clip-path="url(#clip330)" d="M2056.11 158.34 L2056.11 172.09 L2051.83 172.09 L2051.83 136.303 L2056.11 136.303 L2056.11 140.238 Q2057.45 137.923 2059.49 136.812 Q2061.55 135.678 2064.4 135.678 Q2069.12 135.678 2072.06 139.428 Q2075.02 143.178 2075.02 149.289 Q2075.02 155.4 2072.06 159.15 Q2069.12 162.9 2064.4 162.9 Q2061.55 162.9 2059.49 161.789 Q2057.45 160.655 2056.11 158.34 M2070.6 149.289 Q2070.6 144.59 2068.66 141.928 Q2066.73 139.243 2063.36 139.243 Q2059.98 139.243 2058.03 141.928 Q2056.11 144.59 2056.11 149.289 Q2056.11 153.988 2058.03 156.673 Q2059.98 159.335 2063.36 159.335 Q2066.73 159.335 2068.66 156.673 Q2070.6 153.988 2070.6 149.289 Z" fill="#000000" fill-rule="nonzero" fill-opacity="1" /><path clip-path="url(#clip330)" d="M2113.68 137.067 L2113.68 141.094 Q2111.87 140.169 2109.93 139.706 Q2107.98 139.243 2105.9 139.243 Q2102.73 139.243 2101.13 140.215 Q2099.56 141.187 2099.56 143.131 Q2099.56 144.613 2100.69 145.469 Q2101.83 146.303 2105.25 147.067 L2106.71 147.391 Q2111.25 148.363 2113.15 150.145 Q2115.07 151.905 2115.07 155.076 Q2115.07 158.687 2112.2 160.793 Q2109.35 162.9 2104.35 162.9 Q2102.27 162.9 2100 162.483 Q2097.75 162.09 2095.25 161.28 L2095.25 156.881 Q2097.61 158.108 2099.91 158.733 Q2102.2 159.335 2104.44 159.335 Q2107.45 159.335 2109.07 158.317 Q2110.69 157.275 2110.69 155.4 Q2110.69 153.664 2109.51 152.738 Q2108.35 151.812 2104.4 150.956 L2102.92 150.608 Q2098.96 149.775 2097.2 148.062 Q2095.44 146.326 2095.44 143.317 Q2095.44 139.659 2098.03 137.669 Q2100.62 135.678 2105.39 135.678 Q2107.75 135.678 2109.84 136.025 Q2111.92 136.372 2113.68 137.067 Z" fill="#000000" fill-rule="nonzero" fill-opacity="1" /><path clip-path="url(#clip330)" d="M2125.97 158.34 L2125.97 172.09 L2121.69 172.09 L2121.69 136.303 L2125.97 136.303 L2125.97 140.238 Q2127.31 137.923 2129.35 136.812 Q2131.41 135.678 2134.26 135.678 Q2138.98 135.678 2141.92 139.428 Q2144.88 143.178 2144.88 149.289 Q2144.88 155.4 2141.92 159.15 Q2138.98 162.9 2134.26 162.9 Q2131.41 162.9 2129.35 161.789 Q2127.31 160.655 2125.97 158.34 M2140.46 149.289 Q2140.46 144.59 2138.52 141.928 Q2136.6 139.243 2133.22 139.243 Q2129.84 139.243 2127.89 141.928 Q2125.97 144.59 2125.97 149.289 Q2125.97 153.988 2127.89 156.673 Q2129.84 159.335 2133.22 159.335 Q2136.6 159.335 2138.52 156.673 Q2140.46 153.988 2140.46 149.289 Z" fill="#000000" fill-rule="nonzero" fill-opacity="1" /><path clip-path="url(#clip330)" d="M2151.94 136.303 L2156.2 136.303 L2156.2 162.229 L2151.94 162.229 L2151.94 136.303 M2151.94 126.21 L2156.2 126.21 L2156.2 131.604 L2151.94 131.604 L2151.94 126.21 Z" fill="#000000" fill-rule="nonzero" fill-opacity="1" /><path clip-path="url(#clip330)" d="M2186.66 146.581 L2186.66 162.229 L2182.41 162.229 L2182.41 146.719 Q2182.41 143.039 2180.97 141.21 Q2179.54 139.382 2176.66 139.382 Q2173.22 139.382 2171.22 141.581 Q2169.23 143.78 2169.23 147.576 L2169.23 162.229 L2164.95 162.229 L2164.95 136.303 L2169.23 136.303 L2169.23 140.331 Q2170.76 137.993 2172.82 136.835 Q2174.91 135.678 2177.61 135.678 Q2182.08 135.678 2184.37 138.456 Q2186.66 141.21 2186.66 146.581 Z" fill="#000000" fill-rule="nonzero" fill-opacity="1" /><polyline clip-path="url(#clip330)" style="stroke:#ff0000; stroke-linecap:round; stroke-linejoin:round; stroke-width:4; stroke-opacity:1; fill:none" points="1731.1,196.789 1878.57,196.789 "/>
<path clip-path="url(#clip330)" d="M1907.82 183.351 L1907.82 210.226 L1913.47 210.226 Q1920.62 210.226 1923.93 206.985 Q1927.27 203.745 1927.27 196.754 Q1927.27 189.809 1923.93 186.592 Q1920.62 183.351 1913.47 183.351 L1907.82 183.351 M1903.15 179.509 L1912.75 179.509 Q1922.8 179.509 1927.5 183.698 Q1932.2 187.865 1932.2 196.754 Q1932.2 205.689 1927.48 209.879 Q1922.75 214.069 1912.75 214.069 L1903.15 214.069 L1903.15 179.509 Z" fill="#000000" fill-rule="nonzero" fill-opacity="1" /><path clip-path="url(#clip330)" d="M1953.68 182.68 Q1948.59 182.68 1945.58 186.476 Q1942.59 190.272 1942.59 196.823 Q1942.59 203.351 1945.58 207.147 Q1948.59 210.944 1953.68 210.944 Q1958.77 210.944 1961.74 207.147 Q1964.72 203.351 1964.72 196.823 Q1964.72 190.272 1961.74 186.476 Q1958.77 182.68 1953.68 182.68 M1953.68 178.884 Q1960.95 178.884 1965.3 183.768 Q1969.65 188.629 1969.65 196.823 Q1969.65 204.995 1965.3 209.879 Q1960.95 214.74 1953.68 214.74 Q1946.39 214.74 1942.01 209.879 Q1937.66 205.018 1937.66 196.823 Q1937.66 188.629 1942.01 183.768 Q1946.39 178.884 1953.68 178.884 Z" fill="#000000" fill-rule="nonzero" fill-opacity="1" /><path clip-path="url(#clip330)" d="M1997.68 180.643 L1997.68 185.203 Q1995.02 183.93 1992.66 183.305 Q1990.3 182.68 1988.1 182.68 Q1984.28 182.68 1982.2 184.161 Q1980.14 185.643 1980.14 188.374 Q1980.14 190.666 1981.5 191.847 Q1982.89 193.004 1986.74 193.722 L1989.56 194.3 Q1994.79 195.296 1997.27 197.819 Q1999.77 200.319 1999.77 204.532 Q1999.77 209.555 1996.39 212.147 Q1993.03 214.74 1986.53 214.74 Q1984.07 214.74 1981.3 214.184 Q1978.54 213.629 1975.58 212.541 L1975.58 207.726 Q1978.43 209.323 1981.16 210.133 Q1983.89 210.944 1986.53 210.944 Q1990.53 210.944 1992.71 209.37 Q1994.88 207.796 1994.88 204.879 Q1994.88 202.333 1993.31 200.897 Q1991.76 199.462 1988.19 198.745 L1985.35 198.189 Q1980.11 197.147 1977.78 194.925 Q1975.44 192.703 1975.44 188.745 Q1975.44 184.161 1978.66 181.522 Q1981.9 178.884 1987.57 178.884 Q1990 178.884 1992.52 179.323 Q1995.05 179.763 1997.68 180.643 Z" fill="#000000" fill-rule="nonzero" fill-opacity="1" /><path clip-path="url(#clip330)" d="M2039 192.078 L2039 178.05 L2043.26 178.05 L2043.26 214.069 L2039 214.069 L2039 210.18 Q2037.66 212.495 2035.6 213.629 Q2033.56 214.74 2030.69 214.74 Q2025.99 214.74 2023.03 210.99 Q2020.09 207.24 2020.09 201.129 Q2020.09 195.018 2023.03 191.268 Q2025.99 187.518 2030.69 187.518 Q2033.56 187.518 2035.6 188.652 Q2037.66 189.763 2039 192.078 M2024.49 201.129 Q2024.49 205.828 2026.41 208.513 Q2028.36 211.175 2031.73 211.175 Q2035.11 211.175 2037.06 208.513 Q2039 205.828 2039 201.129 Q2039 196.43 2037.06 193.768 Q2035.11 191.083 2031.73 191.083 Q2028.36 191.083 2026.41 193.768 Q2024.49 196.43 2024.49 201.129 Z" fill="#000000" fill-rule="nonzero" fill-opacity="1" /><path clip-path="url(#clip330)" d="M2062.08 191.129 Q2058.66 191.129 2056.67 193.814 Q2054.67 196.476 2054.67 201.129 Q2054.67 205.782 2056.64 208.467 Q2058.63 211.129 2062.08 211.129 Q2065.48 211.129 2067.48 208.444 Q2069.47 205.758 2069.47 201.129 Q2069.47 196.522 2067.48 193.837 Q2065.48 191.129 2062.08 191.129 M2062.08 187.518 Q2067.64 187.518 2070.81 191.129 Q2073.98 194.74 2073.98 201.129 Q2073.98 207.495 2070.81 211.129 Q2067.64 214.74 2062.08 214.74 Q2056.5 214.74 2053.33 211.129 Q2050.18 207.495 2050.18 201.129 Q2050.18 194.74 2053.33 191.129 Q2056.5 187.518 2062.08 187.518 Z" fill="#000000" fill-rule="nonzero" fill-opacity="1" /><path clip-path="url(#clip330)" d="M2078.56 188.143 L2082.82 188.143 L2088.15 208.374 L2093.45 188.143 L2098.47 188.143 L2103.79 208.374 L2109.1 188.143 L2113.35 188.143 L2106.57 214.069 L2101.55 214.069 L2095.97 192.819 L2090.37 214.069 L2085.35 214.069 L2078.56 188.143 Z" fill="#000000" fill-rule="nonzero" fill-opacity="1" /><path clip-path="url(#clip330)" d="M2141.36 198.421 L2141.36 214.069 L2137.1 214.069 L2137.1 198.559 Q2137.1 194.879 2135.67 193.05 Q2134.23 191.222 2131.36 191.222 Q2127.92 191.222 2125.92 193.421 Q2123.93 195.62 2123.93 199.416 L2123.93 214.069 L2119.65 214.069 L2119.65 188.143 L2123.93 188.143 L2123.93 192.171 Q2125.46 189.833 2127.52 188.675 Q2129.6 187.518 2132.31 187.518 Q2136.78 187.518 2139.07 190.296 Q2141.36 193.05 2141.36 198.421 Z" fill="#000000" fill-rule="nonzero" fill-opacity="1" /><path clip-path="url(#clip330)" d="M2181.46 188.907 L2181.46 192.934 Q2179.65 192.009 2177.71 191.546 Q2175.76 191.083 2173.68 191.083 Q2170.51 191.083 2168.91 192.055 Q2167.34 193.027 2167.34 194.971 Q2167.34 196.453 2168.47 197.309 Q2169.6 198.143 2173.03 198.907 L2174.49 199.231 Q2179.03 200.203 2180.92 201.985 Q2182.85 203.745 2182.85 206.916 Q2182.85 210.527 2179.97 212.633 Q2177.13 214.74 2172.13 214.74 Q2170.04 214.74 2167.78 214.323 Q2165.53 213.93 2163.03 213.12 L2163.03 208.721 Q2165.39 209.948 2167.68 210.573 Q2169.97 211.175 2172.22 211.175 Q2175.23 211.175 2176.85 210.157 Q2178.47 209.115 2178.47 207.24 Q2178.47 205.504 2177.29 204.578 Q2176.13 203.652 2172.17 202.796 L2170.69 202.448 Q2166.73 201.615 2164.97 199.902 Q2163.22 198.166 2163.22 195.157 Q2163.22 191.499 2165.81 189.509 Q2168.4 187.518 2173.17 187.518 Q2175.53 187.518 2177.61 187.865 Q2179.7 188.212 2181.46 188.907 Z" fill="#000000" fill-rule="nonzero" fill-opacity="1" /><path clip-path="url(#clip330)" d="M2193.75 210.18 L2193.75 223.93 L2189.47 223.93 L2189.47 188.143 L2193.75 188.143 L2193.75 192.078 Q2195.09 189.763 2197.13 188.652 Q2199.19 187.518 2202.03 187.518 Q2206.76 187.518 2209.7 191.268 Q2212.66 195.018 2212.66 201.129 Q2212.66 207.24 2209.7 210.99 Q2206.76 214.74 2202.03 214.74 Q2199.19 214.74 2197.13 213.629 Q2195.09 212.495 2193.75 210.18 M2208.24 201.129 Q2208.24 196.43 2206.29 193.768 Q2204.37 191.083 2200.99 191.083 Q2197.61 191.083 2195.67 193.768 Q2193.75 196.43 2193.75 201.129 Q2193.75 205.828 2195.67 208.513 Q2197.61 211.175 2200.99 211.175 Q2204.37 211.175 2206.29 208.513 Q2208.24 205.828 2208.24 201.129 Z" fill="#000000" fill-rule="nonzero" fill-opacity="1" /><path clip-path="url(#clip330)" d="M2219.72 188.143 L2223.98 188.143 L2223.98 214.069 L2219.72 214.069 L2219.72 188.143 M2219.72 178.05 L2223.98 178.05 L2223.98 183.444 L2219.72 183.444 L2219.72 178.05 Z" fill="#000000" fill-rule="nonzero" fill-opacity="1" /><path clip-path="url(#clip330)" d="M2254.44 198.421 L2254.44 214.069 L2250.18 214.069 L2250.18 198.559 Q2250.18 194.879 2248.75 193.05 Q2247.31 191.222 2244.44 191.222 Q2240.99 191.222 2239 193.421 Q2237.01 195.62 2237.01 199.416 L2237.01 214.069 L2232.73 214.069 L2232.73 188.143 L2237.01 188.143 L2237.01 192.171 Q2238.54 189.833 2240.6 188.675 Q2242.68 187.518 2245.39 187.518 Q2249.86 187.518 2252.15 190.296 Q2254.44 193.05 2254.44 198.421 Z" fill="#000000" fill-rule="nonzero" fill-opacity="1" /><polyline clip-path="url(#clip330)" style="stroke:#008000; stroke-linecap:round; stroke-linejoin:round; stroke-width:6; stroke-opacity:1; fill:none" points="1731.1,248.629 1878.57,248.629 "/>
<path clip-path="url(#clip330)" d="M1909.21 251.927 Q1906.62 251.372 1905.23 249.867 Q1903.84 248.386 1903.84 246.233 Q1903.84 242.969 1906.48 241.14 Q1909.1 239.335 1913.63 239.335 Q1915.39 239.335 1917.36 239.612 Q1919.33 239.89 1921.6 240.446 L1921.6 244.312 Q1919.35 243.64 1917.5 243.339 Q1915.62 243.038 1913.98 243.038 Q1911.23 243.038 1909.63 244.103 Q1908.01 245.168 1908.01 246.649 Q1908.01 248.27 1909.58 249.311 Q1911.13 250.33 1913.82 250.33 L1917.41 250.33 L1917.41 253.848 L1913.98 253.848 Q1910.81 253.848 1909.14 255.029 Q1907.34 256.325 1907.34 258.362 Q1907.34 260.446 1909.28 261.742 Q1911.25 263.038 1914.74 263.038 Q1916.9 263.038 1918.87 262.622 Q1920.83 262.182 1922.48 261.325 L1922.48 265.284 Q1920.39 265.932 1918.45 266.256 Q1916.48 266.58 1914.63 266.58 Q1909.12 266.58 1906.13 264.473 Q1903.15 262.367 1903.15 258.362 Q1903.15 255.862 1904.74 254.173 Q1906.34 252.483 1909.21 251.927 Z" fill="#000000" fill-rule="nonzero" fill-opacity="1" /><path clip-path="url(#clip330)" d="M1930.35 231.349 L1950.21 231.349 L1950.21 235.284 L1935.02 235.284 L1935.02 245.469 L1948.73 245.469 L1948.73 249.404 L1935.02 249.404 L1935.02 265.909 L1930.35 265.909 L1930.35 231.349 Z" fill="#000000" fill-rule="nonzero" fill-opacity="1" /></svg>
