<?xml version="1.0" encoding="utf-8"?>
<svg xmlns="http://www.w3.org/2000/svg" xmlns:xlink="http://www.w3.org/1999/xlink" width="600" height="400" viewBox="0 0 2400 1600">
<defs>
  <clipPath id="clip380">
    <rect x="0" y="0" width="2400" height="1600"/>
  </clipPath>
</defs>
<path clip-path="url(#clip380)" d="M0 1600 L2400 1600 L2400 0 L0 0  Z" fill="#ffffff" fill-rule="evenodd" fill-opacity="1"/>
<defs>
  <clipPath id="clip381">
    <rect x="480" y="0" width="1681" height="1600"/>
  </clipPath>
</defs>
<path clip-path="url(#clip380)" d="M250.028 1423.18 L2352.76 1423.18 L2352.76 47.2441 L250.028 47.2441  Z" fill="#ffffff" fill-rule="evenodd" fill-opacity="1"/>
<defs>
  <clipPath id="clip382">
    <rect x="250" y="47" width="2104" height="1377"/>
  </clipPath>
</defs>
<polyline clip-path="url(#clip382)" style="stroke:#000000; stroke-linecap:round; stroke-linejoin:round; stroke-width:2; stroke-opacity:0.1; fill:none" points="309.539,1423.18 309.539,47.2441 "/>
<polyline clip-path="url(#clip382)" style="stroke:#000000; stroke-linecap:round; stroke-linejoin:round; stroke-width:2; stroke-opacity:0.1; fill:none" points="719.078,1423.18 719.078,47.2441 "/>
<polyline clip-path="url(#clip382)" style="stroke:#000000; stroke-linecap:round; stroke-linejoin:round; stroke-width:2; stroke-opacity:0.1; fill:none" points="1128.62,1423.18 1128.62,47.2441 "/>
<polyline clip-path="url(#clip382)" style="stroke:#000000; stroke-linecap:round; stroke-linejoin:round; stroke-width:2; stroke-opacity:0.1; fill:none" points="1538.16,1423.18 1538.16,47.2441 "/>
<polyline clip-path="url(#clip382)" style="stroke:#000000; stroke-linecap:round; stroke-linejoin:round; stroke-width:2; stroke-opacity:0.1; fill:none" points="1947.7,1423.18 1947.7,47.2441 "/>
<polyline clip-path="url(#clip382)" style="stroke:#000000; stroke-linecap:round; stroke-linejoin:round; stroke-width:2; stroke-opacity:0.1; fill:none" points="250.028,1385.86 2352.76,1385.86 "/>
<polyline clip-path="url(#clip382)" style="stroke:#000000; stroke-linecap:round; stroke-linejoin:round; stroke-width:2; stroke-opacity:0.1; fill:none" points="250.028,1177.25 2352.76,1177.25 "/>
<polyline clip-path="url(#clip382)" style="stroke:#000000; stroke-linecap:round; stroke-linejoin:round; stroke-width:2; stroke-opacity:0.1; fill:none" points="250.028,968.633 2352.76,968.633 "/>
<polyline clip-path="url(#clip382)" style="stroke:#000000; stroke-linecap:round; stroke-linejoin:round; stroke-width:2; stroke-opacity:0.1; fill:none" points="250.028,760.021 2352.76,760.021 "/>
<polyline clip-path="url(#clip382)" style="stroke:#000000; stroke-linecap:round; stroke-linejoin:round; stroke-width:2; stroke-opacity:0.1; fill:none" points="250.028,551.408 2352.76,551.408 "/>
<polyline clip-path="url(#clip382)" style="stroke:#000000; stroke-linecap:round; stroke-linejoin:round; stroke-width:2; stroke-opacity:0.1; fill:none" points="250.028,342.795 2352.76,342.795 "/>
<polyline clip-path="url(#clip382)" style="stroke:#000000; stroke-linecap:round; stroke-linejoin:round; stroke-width:2; stroke-opacity:0.1; fill:none" points="250.028,134.183 2352.76,134.183 "/>
<polyline clip-path="url(#clip380)" style="stroke:#000000; stroke-linecap:round; stroke-linejoin:round; stroke-width:4; stroke-opacity:1; fill:none" points="250.028,1423.18 2352.76,1423.18 "/>
<polyline clip-path="url(#clip380)" style="stroke:#000000; stroke-linecap:round; stroke-linejoin:round; stroke-width:4; stroke-opacity:1; fill:none" points="309.539,1423.18 309.539,1404.28 "/>
<polyline clip-path="url(#clip380)" style="stroke:#000000; stroke-linecap:round; stroke-linejoin:round; stroke-width:4; stroke-opacity:1; fill:none" points="719.078,1423.18 719.078,1404.28 "/>
<polyline clip-path="url(#clip380)" style="stroke:#000000; stroke-linecap:round; stroke-linejoin:round; stroke-width:4; stroke-opacity:1; fill:none" points="1128.62,1423.18 1128.62,1404.28 "/>
<polyline clip-path="url(#clip380)" style="stroke:#000000; stroke-linecap:round; stroke-linejoin:round; stroke-width:4; stroke-opacity:1; fill:none" points="1538.16,1423.18 1538.16,1404.28 "/>
<polyline clip-path="url(#clip380)" style="stroke:#000000; stroke-linecap:round; stroke-linejoin:round; stroke-width:4; stroke-opacity:1; fill:none" points="1947.7,1423.18 1947.7,1404.28 "/>
<path clip-path="url(#clip380)" d="M286.924 1454.1 Q283.313 1454.1 281.484 1457.66 Q279.678 1461.2 279.678 1468.33 Q279.678 1475.44 281.484 1479.01 Q283.313 1482.55 286.924 1482.55 Q290.558 1482.55 292.363 1479.01 Q294.192 1475.44 294.192 1468.33 Q294.192 1461.2 292.363 1457.66 Q290.558 1454.1 286.924 1454.1 M286.924 1450.39 Q292.734 1450.39 295.789 1455 Q298.868 1459.58 298.868 1468.33 Q298.868 1477.06 295.789 1481.67 Q292.734 1486.25 286.924 1486.25 Q281.114 1486.25 278.035 1481.67 Q274.979 1477.06 274.979 1468.33 Q274.979 1459.58 278.035 1455 Q281.114 1450.39 286.924 1450.39 Z" fill="#000000" fill-rule="nonzero" fill-opacity="1" /><path clip-path="url(#clip380)" d="M307.086 1479.7 L311.97 1479.7 L311.97 1485.58 L307.086 1485.58 L307.086 1479.7 Z" fill="#000000" fill-rule="nonzero" fill-opacity="1" /><path clip-path="url(#clip380)" d="M332.155 1454.1 Q328.544 1454.1 326.715 1457.66 Q324.91 1461.2 324.91 1468.33 Q324.91 1475.44 326.715 1479.01 Q328.544 1482.55 332.155 1482.55 Q335.789 1482.55 337.595 1479.01 Q339.423 1475.44 339.423 1468.33 Q339.423 1461.2 337.595 1457.66 Q335.789 1454.1 332.155 1454.1 M332.155 1450.39 Q337.965 1450.39 341.021 1455 Q344.099 1459.58 344.099 1468.33 Q344.099 1477.06 341.021 1481.67 Q337.965 1486.25 332.155 1486.25 Q326.345 1486.25 323.266 1481.67 Q320.211 1477.06 320.211 1468.33 Q320.211 1459.58 323.266 1455 Q326.345 1450.39 332.155 1450.39 Z" fill="#000000" fill-rule="nonzero" fill-opacity="1" /><path clip-path="url(#clip380)" d="M697.261 1454.1 Q693.65 1454.1 691.822 1457.66 Q690.016 1461.2 690.016 1468.33 Q690.016 1475.44 691.822 1479.01 Q693.65 1482.55 697.261 1482.55 Q700.896 1482.55 702.701 1479.01 Q704.53 1475.44 704.53 1468.33 Q704.53 1461.2 702.701 1457.66 Q700.896 1454.1 697.261 1454.1 M697.261 1450.39 Q703.072 1450.39 706.127 1455 Q709.206 1459.58 709.206 1468.33 Q709.206 1477.06 706.127 1481.67 Q703.072 1486.25 697.261 1486.25 Q691.451 1486.25 688.373 1481.67 Q685.317 1477.06 685.317 1468.33 Q685.317 1459.58 688.373 1455 Q691.451 1450.39 697.261 1450.39 Z" fill="#000000" fill-rule="nonzero" fill-opacity="1" /><path clip-path="url(#clip380)" d="M717.423 1479.7 L722.308 1479.7 L722.308 1485.58 L717.423 1485.58 L717.423 1479.7 Z" fill="#000000" fill-rule="nonzero" fill-opacity="1" /><path clip-path="url(#clip380)" d="M736.521 1481.64 L752.84 1481.64 L752.84 1485.58 L730.896 1485.58 L730.896 1481.64 Q733.558 1478.89 738.141 1474.26 Q742.747 1469.61 743.928 1468.27 Q746.173 1465.74 747.053 1464.01 Q747.956 1462.25 747.956 1460.56 Q747.956 1457.8 746.011 1456.07 Q744.09 1454.33 740.988 1454.33 Q738.789 1454.33 736.335 1455.09 Q733.905 1455.86 731.127 1457.41 L731.127 1452.69 Q733.951 1451.55 736.405 1450.97 Q738.858 1450.39 740.896 1450.39 Q746.266 1450.39 749.46 1453.08 Q752.655 1455.77 752.655 1460.26 Q752.655 1462.39 751.845 1464.31 Q751.057 1466.2 748.951 1468.8 Q748.372 1469.47 745.27 1472.69 Q742.169 1475.88 736.521 1481.64 Z" fill="#000000" fill-rule="nonzero" fill-opacity="1" /><path clip-path="url(#clip380)" d="M1105.76 1454.1 Q1102.15 1454.1 1100.32 1457.66 Q1098.51 1461.2 1098.51 1468.33 Q1098.51 1475.44 1100.32 1479.01 Q1102.15 1482.55 1105.76 1482.55 Q1109.39 1482.55 1111.2 1479.01 Q1113.03 1475.44 1113.03 1468.33 Q1113.03 1461.2 1111.2 1457.66 Q1109.39 1454.1 1105.76 1454.1 M1105.76 1450.39 Q1111.57 1450.39 1114.62 1455 Q1117.7 1459.58 1117.7 1468.33 Q1117.7 1477.06 1114.62 1481.67 Q1111.57 1486.25 1105.76 1486.25 Q1099.95 1486.25 1096.87 1481.67 Q1093.81 1477.06 1093.81 1468.33 Q1093.81 1459.58 1096.87 1455 Q1099.95 1450.39 1105.76 1450.39 Z" fill="#000000" fill-rule="nonzero" fill-opacity="1" /><path clip-path="url(#clip380)" d="M1125.92 1479.7 L1130.81 1479.7 L1130.81 1485.58 L1125.92 1485.58 L1125.92 1479.7 Z" fill="#000000" fill-rule="nonzero" fill-opacity="1" /><path clip-path="url(#clip380)" d="M1153.84 1455.09 L1142.03 1473.54 L1153.84 1473.54 L1153.84 1455.09 M1152.61 1451.02 L1158.49 1451.02 L1158.49 1473.54 L1163.42 1473.54 L1163.42 1477.43 L1158.49 1477.43 L1158.49 1485.58 L1153.84 1485.58 L1153.84 1477.43 L1138.24 1477.43 L1138.24 1472.92 L1152.61 1451.02 Z" fill="#000000" fill-rule="nonzero" fill-opacity="1" /><path clip-path="url(#clip380)" d="M1515.46 1454.1 Q1511.85 1454.1 1510.02 1457.66 Q1508.21 1461.2 1508.21 1468.33 Q1508.21 1475.44 1510.02 1479.01 Q1511.85 1482.55 1515.46 1482.55 Q1519.09 1482.55 1520.9 1479.01 Q1522.73 1475.44 1522.73 1468.33 Q1522.73 1461.2 1520.9 1457.66 Q1519.09 1454.1 1515.46 1454.1 M1515.46 1450.39 Q1521.27 1450.39 1524.33 1455 Q1527.4 1459.58 1527.4 1468.33 Q1527.4 1477.06 1524.33 1481.67 Q1521.27 1486.25 1515.46 1486.25 Q1509.65 1486.25 1506.57 1481.67 Q1503.52 1477.06 1503.52 1468.33 Q1503.52 1459.58 1506.57 1455 Q1509.65 1450.39 1515.46 1450.39 Z" fill="#000000" fill-rule="nonzero" fill-opacity="1" /><path clip-path="url(#clip380)" d="M1535.62 1479.7 L1540.51 1479.7 L1540.51 1485.58 L1535.62 1485.58 L1535.62 1479.7 Z" fill="#000000" fill-rule="nonzero" fill-opacity="1" /><path clip-path="url(#clip380)" d="M1561.27 1466.44 Q1558.12 1466.44 1556.27 1468.59 Q1554.44 1470.74 1554.44 1474.49 Q1554.44 1478.22 1556.27 1480.39 Q1558.12 1482.55 1561.27 1482.55 Q1564.42 1482.55 1566.25 1480.39 Q1568.1 1478.22 1568.1 1474.49 Q1568.1 1470.74 1566.25 1468.59 Q1564.42 1466.44 1561.27 1466.44 M1570.55 1451.78 L1570.55 1456.04 Q1568.79 1455.21 1566.99 1454.77 Q1565.21 1454.33 1563.45 1454.33 Q1558.82 1454.33 1556.36 1457.45 Q1553.93 1460.58 1553.59 1466.9 Q1554.95 1464.89 1557.01 1463.82 Q1559.07 1462.73 1561.55 1462.73 Q1566.76 1462.73 1569.77 1465.9 Q1572.8 1469.05 1572.8 1474.49 Q1572.8 1479.82 1569.65 1483.03 Q1566.5 1486.25 1561.27 1486.25 Q1555.27 1486.25 1552.1 1481.67 Q1548.93 1477.06 1548.93 1468.33 Q1548.93 1460.14 1552.82 1455.28 Q1556.71 1450.39 1563.26 1450.39 Q1565.02 1450.39 1566.8 1450.74 Q1568.61 1451.09 1570.55 1451.78 Z" fill="#000000" fill-rule="nonzero" fill-opacity="1" /><path clip-path="url(#clip380)" d="M1925.13 1454.1 Q1921.52 1454.1 1919.69 1457.66 Q1917.88 1461.2 1917.88 1468.33 Q1917.88 1475.44 1919.69 1479.01 Q1921.52 1482.55 1925.13 1482.55 Q1928.76 1482.55 1930.57 1479.01 Q1932.4 1475.44 1932.4 1468.33 Q1932.4 1461.2 1930.57 1457.66 Q1928.76 1454.1 1925.13 1454.1 M1925.13 1450.39 Q1930.94 1450.39 1933.99 1455 Q1937.07 1459.58 1937.07 1468.33 Q1937.07 1477.06 1933.99 1481.67 Q1930.94 1486.25 1925.13 1486.25 Q1919.32 1486.25 1916.24 1481.67 Q1913.18 1477.06 1913.18 1468.33 Q1913.18 1459.58 1916.24 1455 Q1919.32 1450.39 1925.13 1450.39 Z" fill="#000000" fill-rule="nonzero" fill-opacity="1" /><path clip-path="url(#clip380)" d="M1945.29 1479.7 L1950.17 1479.7 L1950.17 1485.58 L1945.29 1485.58 L1945.29 1479.7 Z" fill="#000000" fill-rule="nonzero" fill-opacity="1" /><path clip-path="url(#clip380)" d="M1970.36 1469.17 Q1967.02 1469.17 1965.1 1470.95 Q1963.21 1472.73 1963.21 1475.86 Q1963.21 1478.98 1965.1 1480.77 Q1967.02 1482.55 1970.36 1482.55 Q1973.69 1482.55 1975.61 1480.77 Q1977.53 1478.96 1977.53 1475.86 Q1977.53 1472.73 1975.61 1470.95 Q1973.71 1469.17 1970.36 1469.17 M1965.68 1467.18 Q1962.67 1466.44 1960.98 1464.38 Q1959.32 1462.32 1959.32 1459.35 Q1959.32 1455.21 1962.26 1452.8 Q1965.22 1450.39 1970.36 1450.39 Q1975.52 1450.39 1978.46 1452.8 Q1981.4 1455.21 1981.4 1459.35 Q1981.4 1462.32 1979.71 1464.38 Q1978.04 1466.44 1975.06 1467.18 Q1978.44 1467.96 1980.31 1470.26 Q1982.21 1472.55 1982.21 1475.86 Q1982.21 1480.88 1979.13 1483.57 Q1976.08 1486.25 1970.36 1486.25 Q1964.64 1486.25 1961.56 1483.57 Q1958.51 1480.88 1958.51 1475.86 Q1958.51 1472.55 1960.4 1470.26 Q1962.3 1467.96 1965.68 1467.18 M1963.97 1459.79 Q1963.97 1462.48 1965.64 1463.98 Q1967.33 1465.49 1970.36 1465.49 Q1973.37 1465.49 1975.06 1463.98 Q1976.77 1462.48 1976.77 1459.79 Q1976.77 1457.11 1975.06 1455.6 Q1973.37 1454.1 1970.36 1454.1 Q1967.33 1454.1 1965.64 1455.6 Q1963.97 1457.11 1963.97 1459.79 Z" fill="#000000" fill-rule="nonzero" fill-opacity="1" /><path clip-path="url(#clip380)" d="M1318.01 1532.4 L1305.12 1549.74 L1318.67 1568.04 L1311.77 1568.04 L1301.39 1554.04 L1291.02 1568.04 L1284.11 1568.04 L1297.95 1549.39 L1285.29 1532.4 L1292.19 1532.4 L1301.65 1545.1 L1311.1 1532.4 L1318.01 1532.4 Z" fill="#000000" fill-rule="nonzero" fill-opacity="1" /><polyline clip-path="url(#clip380)" style="stroke:#000000; stroke-linecap:round; stroke-linejoin:round; stroke-width:4; stroke-opacity:1; fill:none" points="250.028,1423.18 250.028,47.2441 "/>
<polyline clip-path="url(#clip380)" style="stroke:#000000; stroke-linecap:round; stroke-linejoin:round; stroke-width:4; stroke-opacity:1; fill:none" points="250.028,1385.86 268.926,1385.86 "/>
<polyline clip-path="url(#clip380)" style="stroke:#000000; stroke-linecap:round; stroke-linejoin:round; stroke-width:4; stroke-opacity:1; fill:none" points="250.028,1177.25 268.926,1177.25 "/>
<polyline clip-path="url(#clip380)" style="stroke:#000000; stroke-linecap:round; stroke-linejoin:round; stroke-width:4; stroke-opacity:1; fill:none" points="250.028,968.633 268.926,968.633 "/>
<polyline clip-path="url(#clip380)" style="stroke:#000000; stroke-linecap:round; stroke-linejoin:round; stroke-width:4; stroke-opacity:1; fill:none" points="250.028,760.021 268.926,760.021 "/>
<polyline clip-path="url(#clip380)" style="stroke:#000000; stroke-linecap:round; stroke-linejoin:round; stroke-width:4; stroke-opacity:1; fill:none" points="250.028,551.408 268.926,551.408 "/>
<polyline clip-path="url(#clip380)" style="stroke:#000000; stroke-linecap:round; stroke-linejoin:round; stroke-width:4; stroke-opacity:1; fill:none" points="250.028,342.795 268.926,342.795 "/>
<polyline clip-path="url(#clip380)" style="stroke:#000000; stroke-linecap:round; stroke-linejoin:round; stroke-width:4; stroke-opacity:1; fill:none" points="250.028,134.183 268.926,134.183 "/>
<path clip-path="url(#clip380)" d="M126.691 1371.66 Q123.08 1371.66 121.251 1375.22 Q119.445 1378.76 119.445 1385.89 Q119.445 1393 121.251 1396.56 Q123.08 1400.11 126.691 1400.11 Q130.325 1400.11 132.13 1396.56 Q133.959 1393 133.959 1385.89 Q133.959 1378.76 132.13 1375.22 Q130.325 1371.66 126.691 1371.66 M126.691 1367.95 Q132.501 1367.95 135.556 1372.56 Q138.635 1377.14 138.635 1385.89 Q138.635 1394.62 135.556 1399.23 Q132.501 1403.81 126.691 1403.81 Q120.88 1403.81 117.802 1399.23 Q114.746 1394.62 114.746 1385.89 Q114.746 1377.14 117.802 1372.56 Q120.88 1367.95 126.691 1367.95 Z" fill="#000000" fill-rule="nonzero" fill-opacity="1" /><path clip-path="url(#clip380)" d="M146.853 1397.26 L151.737 1397.26 L151.737 1403.14 L146.853 1403.14 L146.853 1397.26 Z" fill="#000000" fill-rule="nonzero" fill-opacity="1" /><path clip-path="url(#clip380)" d="M171.922 1371.66 Q168.311 1371.66 166.482 1375.22 Q164.677 1378.76 164.677 1385.89 Q164.677 1393 166.482 1396.56 Q168.311 1400.11 171.922 1400.11 Q175.556 1400.11 177.362 1396.56 Q179.19 1393 179.19 1385.89 Q179.19 1378.76 177.362 1375.22 Q175.556 1371.66 171.922 1371.66 M171.922 1367.95 Q177.732 1367.95 180.788 1372.56 Q183.866 1377.14 183.866 1385.89 Q183.866 1394.62 180.788 1399.23 Q177.732 1403.81 171.922 1403.81 Q166.112 1403.81 163.033 1399.23 Q159.978 1394.62 159.978 1385.89 Q159.978 1377.14 163.033 1372.56 Q166.112 1367.95 171.922 1367.95 Z" fill="#000000" fill-rule="nonzero" fill-opacity="1" /><path clip-path="url(#clip380)" d="M202.084 1371.66 Q198.473 1371.66 196.644 1375.22 Q194.838 1378.76 194.838 1385.89 Q194.838 1393 196.644 1396.56 Q198.473 1400.11 202.084 1400.11 Q205.718 1400.11 207.524 1396.56 Q209.352 1393 209.352 1385.89 Q209.352 1378.76 207.524 1375.22 Q205.718 1371.66 202.084 1371.66 M202.084 1367.95 Q207.894 1367.95 210.949 1372.56 Q214.028 1377.14 214.028 1385.89 Q214.028 1394.62 210.949 1399.23 Q207.894 1403.81 202.084 1403.81 Q196.274 1403.81 193.195 1399.23 Q190.139 1394.62 190.139 1385.89 Q190.139 1377.14 193.195 1372.56 Q196.274 1367.95 202.084 1367.95 Z" fill="#000000" fill-rule="nonzero" fill-opacity="1" /><path clip-path="url(#clip380)" d="M127.917 1163.04 Q124.306 1163.04 122.478 1166.61 Q120.672 1170.15 120.672 1177.28 Q120.672 1184.39 122.478 1187.95 Q124.306 1191.49 127.917 1191.49 Q131.552 1191.49 133.357 1187.95 Q135.186 1184.39 135.186 1177.28 Q135.186 1170.15 133.357 1166.61 Q131.552 1163.04 127.917 1163.04 M127.917 1159.34 Q133.728 1159.34 136.783 1163.95 Q139.862 1168.53 139.862 1177.28 Q139.862 1186.01 136.783 1190.61 Q133.728 1195.2 127.917 1195.2 Q122.107 1195.2 119.029 1190.61 Q115.973 1186.01 115.973 1177.28 Q115.973 1168.53 119.029 1163.95 Q122.107 1159.34 127.917 1159.34 Z" fill="#000000" fill-rule="nonzero" fill-opacity="1" /><path clip-path="url(#clip380)" d="M148.079 1188.65 L152.964 1188.65 L152.964 1194.53 L148.079 1194.53 L148.079 1188.65 Z" fill="#000000" fill-rule="nonzero" fill-opacity="1" /><path clip-path="url(#clip380)" d="M173.149 1163.04 Q169.538 1163.04 167.709 1166.61 Q165.903 1170.15 165.903 1177.28 Q165.903 1184.39 167.709 1187.95 Q169.538 1191.49 173.149 1191.49 Q176.783 1191.49 178.589 1187.95 Q180.417 1184.39 180.417 1177.28 Q180.417 1170.15 178.589 1166.61 Q176.783 1163.04 173.149 1163.04 M173.149 1159.34 Q178.959 1159.34 182.014 1163.95 Q185.093 1168.53 185.093 1177.28 Q185.093 1186.01 182.014 1190.61 Q178.959 1195.2 173.149 1195.2 Q167.339 1195.2 164.26 1190.61 Q161.204 1186.01 161.204 1177.28 Q161.204 1168.53 164.26 1163.95 Q167.339 1159.34 173.149 1159.34 Z" fill="#000000" fill-rule="nonzero" fill-opacity="1" /><path clip-path="url(#clip380)" d="M194.121 1190.59 L201.76 1190.59 L201.76 1164.23 L193.45 1165.89 L193.45 1161.63 L201.713 1159.97 L206.389 1159.97 L206.389 1190.59 L214.028 1190.59 L214.028 1194.53 L194.121 1194.53 L194.121 1190.59 Z" fill="#000000" fill-rule="nonzero" fill-opacity="1" /><path clip-path="url(#clip380)" d="M128.288 954.432 Q124.677 954.432 122.848 957.997 Q121.043 961.538 121.043 968.668 Q121.043 975.774 122.848 979.339 Q124.677 982.881 128.288 982.881 Q131.922 982.881 133.728 979.339 Q135.556 975.774 135.556 968.668 Q135.556 961.538 133.728 957.997 Q131.922 954.432 128.288 954.432 M128.288 950.728 Q134.098 950.728 137.154 955.335 Q140.232 959.918 140.232 968.668 Q140.232 977.395 137.154 982.001 Q134.098 986.585 128.288 986.585 Q122.478 986.585 119.399 982.001 Q116.343 977.395 116.343 968.668 Q116.343 959.918 119.399 955.335 Q122.478 950.728 128.288 950.728 Z" fill="#000000" fill-rule="nonzero" fill-opacity="1" /><path clip-path="url(#clip380)" d="M148.45 980.034 L153.334 980.034 L153.334 985.913 L148.45 985.913 L148.45 980.034 Z" fill="#000000" fill-rule="nonzero" fill-opacity="1" /><path clip-path="url(#clip380)" d="M173.519 954.432 Q169.908 954.432 168.079 957.997 Q166.274 961.538 166.274 968.668 Q166.274 975.774 168.079 979.339 Q169.908 982.881 173.519 982.881 Q177.153 982.881 178.959 979.339 Q180.788 975.774 180.788 968.668 Q180.788 961.538 178.959 957.997 Q177.153 954.432 173.519 954.432 M173.519 950.728 Q179.329 950.728 182.385 955.335 Q185.463 959.918 185.463 968.668 Q185.463 977.395 182.385 982.001 Q179.329 986.585 173.519 986.585 Q167.709 986.585 164.63 982.001 Q161.575 977.395 161.575 968.668 Q161.575 959.918 164.63 955.335 Q167.709 950.728 173.519 950.728 Z" fill="#000000" fill-rule="nonzero" fill-opacity="1" /><path clip-path="url(#clip380)" d="M197.709 981.978 L214.028 981.978 L214.028 985.913 L192.084 985.913 L192.084 981.978 Q194.746 979.223 199.329 974.594 Q203.936 969.941 205.116 968.599 Q207.362 966.075 208.241 964.339 Q209.144 962.58 209.144 960.89 Q209.144 958.136 207.199 956.4 Q205.278 954.663 202.176 954.663 Q199.977 954.663 197.524 955.427 Q195.093 956.191 192.315 957.742 L192.315 953.02 Q195.139 951.886 197.593 951.307 Q200.047 950.728 202.084 950.728 Q207.454 950.728 210.649 953.413 Q213.843 956.099 213.843 960.589 Q213.843 962.719 213.033 964.64 Q212.246 966.538 210.139 969.131 Q209.561 969.802 206.459 973.02 Q203.357 976.214 197.709 981.978 Z" fill="#000000" fill-rule="nonzero" fill-opacity="1" /><path clip-path="url(#clip380)" d="M127.339 745.819 Q123.728 745.819 121.899 749.384 Q120.093 752.926 120.093 760.055 Q120.093 767.162 121.899 770.727 Q123.728 774.268 127.339 774.268 Q130.973 774.268 132.779 770.727 Q134.607 767.162 134.607 760.055 Q134.607 752.926 132.779 749.384 Q130.973 745.819 127.339 745.819 M127.339 742.116 Q133.149 742.116 136.204 746.722 Q139.283 751.305 139.283 760.055 Q139.283 768.782 136.204 773.389 Q133.149 777.972 127.339 777.972 Q121.529 777.972 118.45 773.389 Q115.394 768.782 115.394 760.055 Q115.394 751.305 118.45 746.722 Q121.529 742.116 127.339 742.116 Z" fill="#000000" fill-rule="nonzero" fill-opacity="1" /><path clip-path="url(#clip380)" d="M147.501 771.421 L152.385 771.421 L152.385 777.301 L147.501 777.301 L147.501 771.421 Z" fill="#000000" fill-rule="nonzero" fill-opacity="1" /><path clip-path="url(#clip380)" d="M172.57 745.819 Q168.959 745.819 167.13 749.384 Q165.325 752.926 165.325 760.055 Q165.325 767.162 167.13 770.727 Q168.959 774.268 172.57 774.268 Q176.204 774.268 178.01 770.727 Q179.839 767.162 179.839 760.055 Q179.839 752.926 178.01 749.384 Q176.204 745.819 172.57 745.819 M172.57 742.116 Q178.38 742.116 181.436 746.722 Q184.514 751.305 184.514 760.055 Q184.514 768.782 181.436 773.389 Q178.38 777.972 172.57 777.972 Q166.76 777.972 163.681 773.389 Q160.626 768.782 160.626 760.055 Q160.626 751.305 163.681 746.722 Q166.76 742.116 172.57 742.116 Z" fill="#000000" fill-rule="nonzero" fill-opacity="1" /><path clip-path="url(#clip380)" d="M206.899 758.666 Q210.255 759.384 212.13 761.653 Q214.028 763.921 214.028 767.254 Q214.028 772.37 210.51 775.171 Q206.991 777.972 200.51 777.972 Q198.334 777.972 196.019 777.532 Q193.727 777.115 191.274 776.259 L191.274 771.745 Q193.218 772.879 195.533 773.458 Q197.848 774.037 200.371 774.037 Q204.769 774.037 207.061 772.301 Q209.375 770.565 209.375 767.254 Q209.375 764.199 207.223 762.486 Q205.093 760.75 201.274 760.75 L197.246 760.75 L197.246 756.907 L201.459 756.907 Q204.908 756.907 206.737 755.541 Q208.565 754.153 208.565 751.56 Q208.565 748.898 206.667 747.486 Q204.792 746.051 201.274 746.051 Q199.352 746.051 197.153 746.467 Q194.954 746.884 192.315 747.764 L192.315 743.597 Q194.977 742.856 197.292 742.486 Q199.63 742.116 201.69 742.116 Q207.014 742.116 210.116 744.546 Q213.218 746.954 213.218 751.074 Q213.218 753.944 211.574 755.935 Q209.931 757.903 206.899 758.666 Z" fill="#000000" fill-rule="nonzero" fill-opacity="1" /><path clip-path="url(#clip380)" d="M126.205 537.207 Q122.593 537.207 120.765 540.771 Q118.959 544.313 118.959 551.443 Q118.959 558.549 120.765 562.114 Q122.593 565.656 126.205 565.656 Q129.839 565.656 131.644 562.114 Q133.473 558.549 133.473 551.443 Q133.473 544.313 131.644 540.771 Q129.839 537.207 126.205 537.207 M126.205 533.503 Q132.015 533.503 135.07 538.109 Q138.149 542.693 138.149 551.443 Q138.149 560.17 135.07 564.776 Q132.015 569.359 126.205 569.359 Q120.394 569.359 117.316 564.776 Q114.26 560.17 114.26 551.443 Q114.26 542.693 117.316 538.109 Q120.394 533.503 126.205 533.503 Z" fill="#000000" fill-rule="nonzero" fill-opacity="1" /><path clip-path="url(#clip380)" d="M146.366 562.808 L151.251 562.808 L151.251 568.688 L146.366 568.688 L146.366 562.808 Z" fill="#000000" fill-rule="nonzero" fill-opacity="1" /><path clip-path="url(#clip380)" d="M171.436 537.207 Q167.825 537.207 165.996 540.771 Q164.19 544.313 164.19 551.443 Q164.19 558.549 165.996 562.114 Q167.825 565.656 171.436 565.656 Q175.07 565.656 176.876 562.114 Q178.704 558.549 178.704 551.443 Q178.704 544.313 176.876 540.771 Q175.07 537.207 171.436 537.207 M171.436 533.503 Q177.246 533.503 180.301 538.109 Q183.38 542.693 183.38 551.443 Q183.38 560.17 180.301 564.776 Q177.246 569.359 171.436 569.359 Q165.626 569.359 162.547 564.776 Q159.491 560.17 159.491 551.443 Q159.491 542.693 162.547 538.109 Q165.626 533.503 171.436 533.503 Z" fill="#000000" fill-rule="nonzero" fill-opacity="1" /><path clip-path="url(#clip380)" d="M204.445 538.202 L192.639 556.651 L204.445 556.651 L204.445 538.202 M203.218 534.128 L209.098 534.128 L209.098 556.651 L214.028 556.651 L214.028 560.54 L209.098 560.54 L209.098 568.688 L204.445 568.688 L204.445 560.54 L188.843 560.54 L188.843 556.026 L203.218 534.128 Z" fill="#000000" fill-rule="nonzero" fill-opacity="1" /><path clip-path="url(#clip380)" d="M127.686 328.594 Q124.075 328.594 122.246 332.159 Q120.441 335.7 120.441 342.83 Q120.441 349.937 122.246 353.501 Q124.075 357.043 127.686 357.043 Q131.32 357.043 133.126 353.501 Q134.954 349.937 134.954 342.83 Q134.954 335.7 133.126 332.159 Q131.32 328.594 127.686 328.594 M127.686 324.89 Q133.496 324.89 136.552 329.497 Q139.63 334.08 139.63 342.83 Q139.63 351.557 136.552 356.163 Q133.496 360.747 127.686 360.747 Q121.876 360.747 118.797 356.163 Q115.742 351.557 115.742 342.83 Q115.742 334.08 118.797 329.497 Q121.876 324.89 127.686 324.89 Z" fill="#000000" fill-rule="nonzero" fill-opacity="1" /><path clip-path="url(#clip380)" d="M147.848 354.196 L152.732 354.196 L152.732 360.075 L147.848 360.075 L147.848 354.196 Z" fill="#000000" fill-rule="nonzero" fill-opacity="1" /><path clip-path="url(#clip380)" d="M172.917 328.594 Q169.306 328.594 167.477 332.159 Q165.672 335.7 165.672 342.83 Q165.672 349.937 167.477 353.501 Q169.306 357.043 172.917 357.043 Q176.551 357.043 178.357 353.501 Q180.186 349.937 180.186 342.83 Q180.186 335.7 178.357 332.159 Q176.551 328.594 172.917 328.594 M172.917 324.89 Q178.727 324.89 181.783 329.497 Q184.862 334.08 184.862 342.83 Q184.862 351.557 181.783 356.163 Q178.727 360.747 172.917 360.747 Q167.107 360.747 164.028 356.163 Q160.973 351.557 160.973 342.83 Q160.973 334.08 164.028 329.497 Q167.107 324.89 172.917 324.89 Z" fill="#000000" fill-rule="nonzero" fill-opacity="1" /><path clip-path="url(#clip380)" d="M193.125 325.515 L211.482 325.515 L211.482 329.451 L197.408 329.451 L197.408 337.923 Q198.426 337.575 199.445 337.413 Q200.463 337.228 201.482 337.228 Q207.269 337.228 210.649 340.4 Q214.028 343.571 214.028 348.987 Q214.028 354.566 210.556 357.668 Q207.084 360.747 200.764 360.747 Q198.588 360.747 196.32 360.376 Q194.075 360.006 191.667 359.265 L191.667 354.566 Q193.75 355.7 195.973 356.256 Q198.195 356.811 200.672 356.811 Q204.676 356.811 207.014 354.705 Q209.352 352.599 209.352 348.987 Q209.352 345.376 207.014 343.27 Q204.676 341.163 200.672 341.163 Q198.797 341.163 196.922 341.58 Q195.07 341.997 193.125 342.876 L193.125 325.515 Z" fill="#000000" fill-rule="nonzero" fill-opacity="1" /><path clip-path="url(#clip380)" d="M126.529 119.981 Q122.918 119.981 121.089 123.546 Q119.283 127.088 119.283 134.217 Q119.283 141.324 121.089 144.889 Q122.918 148.43 126.529 148.43 Q130.163 148.43 131.968 144.889 Q133.797 141.324 133.797 134.217 Q133.797 127.088 131.968 123.546 Q130.163 119.981 126.529 119.981 M126.529 116.278 Q132.339 116.278 135.394 120.884 Q138.473 125.468 138.473 134.217 Q138.473 142.944 135.394 147.551 Q132.339 152.134 126.529 152.134 Q120.718 152.134 117.64 147.551 Q114.584 142.944 114.584 134.217 Q114.584 125.468 117.64 120.884 Q120.718 116.278 126.529 116.278 Z" fill="#000000" fill-rule="nonzero" fill-opacity="1" /><path clip-path="url(#clip380)" d="M146.691 145.583 L151.575 145.583 L151.575 151.463 L146.691 151.463 L146.691 145.583 Z" fill="#000000" fill-rule="nonzero" fill-opacity="1" /><path clip-path="url(#clip380)" d="M171.76 119.981 Q168.149 119.981 166.32 123.546 Q164.515 127.088 164.515 134.217 Q164.515 141.324 166.32 144.889 Q168.149 148.43 171.76 148.43 Q175.394 148.43 177.2 144.889 Q179.028 141.324 179.028 134.217 Q179.028 127.088 177.2 123.546 Q175.394 119.981 171.76 119.981 M171.76 116.278 Q177.57 116.278 180.626 120.884 Q183.704 125.468 183.704 134.217 Q183.704 142.944 180.626 147.551 Q177.57 152.134 171.76 152.134 Q165.95 152.134 162.871 147.551 Q159.815 142.944 159.815 134.217 Q159.815 125.468 162.871 120.884 Q165.95 116.278 171.76 116.278 Z" fill="#000000" fill-rule="nonzero" fill-opacity="1" /><path clip-path="url(#clip380)" d="M202.5 132.319 Q199.352 132.319 197.5 134.472 Q195.672 136.625 195.672 140.375 Q195.672 144.102 197.5 146.278 Q199.352 148.43 202.5 148.43 Q205.649 148.43 207.477 146.278 Q209.329 144.102 209.329 140.375 Q209.329 136.625 207.477 134.472 Q205.649 132.319 202.5 132.319 M211.783 117.667 L211.783 121.926 Q210.024 121.093 208.218 120.653 Q206.436 120.213 204.676 120.213 Q200.047 120.213 197.593 123.338 Q195.163 126.463 194.815 132.782 Q196.181 130.768 198.241 129.704 Q200.301 128.616 202.778 128.616 Q207.987 128.616 210.996 131.787 Q214.028 134.935 214.028 140.375 Q214.028 145.699 210.88 148.916 Q207.732 152.134 202.5 152.134 Q196.505 152.134 193.334 147.551 Q190.163 142.944 190.163 134.217 Q190.163 126.023 194.051 121.162 Q197.94 116.278 204.491 116.278 Q206.25 116.278 208.033 116.625 Q209.838 116.972 211.783 117.667 Z" fill="#000000" fill-rule="nonzero" fill-opacity="1" /><path clip-path="url(#clip380)" d="M34.7219 748.293 Q31.4754 746.352 28.6108 741.546 Q27.4968 739.668 27.4968 733.875 Q27.4968 727.382 32.6531 723.34 Q37.8093 719.266 46.212 719.266 Q54.6147 719.266 59.771 723.34 Q64.9272 727.382 64.9272 733.875 Q64.9272 737.79 63.3994 740.623 Q61.8398 743.424 58.657 745.27 L77.5631 745.27 L77.5631 751.158 L46.5303 751.158 Q39.1779 751.158 34.7219 748.293 M46.212 725.345 Q39.7508 725.345 36.0905 728.019 Q32.3984 730.66 32.3984 735.307 Q32.3984 739.954 36.0905 742.628 Q39.7508 745.27 46.212 745.27 Q52.6732 745.27 56.3653 742.628 Q60.0256 739.954 60.0256 735.307 Q60.0256 730.66 56.3653 728.019 Q52.6732 725.345 46.212 725.345 Z" fill="#000000" fill-rule="nonzero" fill-opacity="1" /><polyline clip-path="url(#clip382)" style="stroke:#009af9; stroke-linecap:round; stroke-linejoin:round; stroke-width:4; stroke-opacity:1; fill:none" points="309.539,1384.24 373.53,1362.85 437.52,1247.17 501.511,972.064 565.501,590.476 629.492,255.388 693.482,86.1857 757.473,90.3895 821.463,199.815 885.454,343.16 949.444,481.124 1013.43,601 1077.43,700.104 1141.42,776.763 1205.41,829.809 1269.4,860.095 1333.39,869.807 1397.38,860.095 1461.37,829.809 1525.36,776.763 1589.35,700.104 1653.34,601 1717.33,481.124 1781.32,343.16 1845.31,199.815 1909.3,90.3895 1973.29,86.1857 2037.28,255.388 2101.27,590.476 2165.26,972.064 2229.25,1247.17 2293.24,1362.85 "/>
<circle clip-path="url(#clip382)" cx="309.539" cy="1384.24" r="7.2" fill="#009af9" fill-rule="evenodd" fill-opacity="1" stroke="#000000" stroke-opacity="1" stroke-width="3.2"/>
<circle clip-path="url(#clip382)" cx="373.53" cy="1362.85" r="7.2" fill="#009af9" fill-rule="evenodd" fill-opacity="1" stroke="#000000" stroke-opacity="1" stroke-width="3.2"/>
<circle clip-path="url(#clip382)" cx="437.52" cy="1247.17" r="7.2" fill="#009af9" fill-rule="evenodd" fill-opacity="1" stroke="#000000" stroke-opacity="1" stroke-width="3.2"/>
<circle clip-path="url(#clip382)" cx="501.511" cy="972.064" r="7.2" fill="#009af9" fill-rule="evenodd" fill-opacity="1" stroke="#000000" stroke-opacity="1" stroke-width="3.2"/>
<circle clip-path="url(#clip382)" cx="565.501" cy="590.476" r="7.2" fill="#009af9" fill-rule="evenodd" fill-opacity="1" stroke="#000000" stroke-opacity="1" stroke-width="3.2"/>
<circle clip-path="url(#clip382)" cx="629.492" cy="255.388" r="7.2" fill="#009af9" fill-rule="evenodd" fill-opacity="1" stroke="#000000" stroke-opacity="1" stroke-width="3.2"/>
<circle clip-path="url(#clip382)" cx="693.482" cy="86.1857" r="7.2" fill="#009af9" fill-rule="evenodd" fill-opacity="1" stroke="#000000" stroke-opacity="1" stroke-width="3.2"/>
<circle clip-path="url(#clip382)" cx="757.473" cy="90.3895" r="7.2" fill="#009af9" fill-rule="evenodd" fill-opacity="1" stroke="#000000" stroke-opacity="1" stroke-width="3.2"/>
<circle clip-path="url(#clip382)" cx="821.463" cy="199.815" r="7.2" fill="#009af9" fill-rule="evenodd" fill-opacity="1" stroke="#000000" stroke-opacity="1" stroke-width="3.2"/>
<circle clip-path="url(#clip382)" cx="885.454" cy="343.16" r="7.2" fill="#009af9" fill-rule="evenodd" fill-opacity="1" stroke="#000000" stroke-opacity="1" stroke-width="3.2"/>
<circle clip-path="url(#clip382)" cx="949.444" cy="481.124" r="7.2" fill="#009af9" fill-rule="evenodd" fill-opacity="1" stroke="#000000" stroke-opacity="1" stroke-width="3.2"/>
<circle clip-path="url(#clip382)" cx="1013.43" cy="601" r="7.2" fill="#009af9" fill-rule="evenodd" fill-opacity="1" stroke="#000000" stroke-opacity="1" stroke-width="3.2"/>
<circle clip-path="url(#clip382)" cx="1077.43" cy="700.104" r="7.2" fill="#009af9" fill-rule="evenodd" fill-opacity="1" stroke="#000000" stroke-opacity="1" stroke-width="3.2"/>
<circle clip-path="url(#clip382)" cx="1141.42" cy="776.763" r="7.2" fill="#009af9" fill-rule="evenodd" fill-opacity="1" stroke="#000000" stroke-opacity="1" stroke-width="3.2"/>
<circle clip-path="url(#clip382)" cx="1205.41" cy="829.809" r="7.2" fill="#009af9" fill-rule="evenodd" fill-opacity="1" stroke="#000000" stroke-opacity="1" stroke-width="3.2"/>
<circle clip-path="url(#clip382)" cx="1269.4" cy="860.095" r="7.2" fill="#009af9" fill-rule="evenodd" fill-opacity="1" stroke="#000000" stroke-opacity="1" stroke-width="3.2"/>
<circle clip-path="url(#clip382)" cx="1333.39" cy="869.807" r="7.2" fill="#009af9" fill-rule="evenodd" fill-opacity="1" stroke="#000000" stroke-opacity="1" stroke-width="3.2"/>
<circle clip-path="url(#clip382)" cx="1397.38" cy="860.095" r="7.2" fill="#009af9" fill-rule="evenodd" fill-opacity="1" stroke="#000000" stroke-opacity="1" stroke-width="3.2"/>
<circle clip-path="url(#clip382)" cx="1461.37" cy="829.809" r="7.2" fill="#009af9" fill-rule="evenodd" fill-opacity="1" stroke="#000000" stroke-opacity="1" stroke-width="3.2"/>
<circle clip-path="url(#clip382)" cx="1525.36" cy="776.763" r="7.2" fill="#009af9" fill-rule="evenodd" fill-opacity="1" stroke="#000000" stroke-opacity="1" stroke-width="3.2"/>
<circle clip-path="url(#clip382)" cx="1589.35" cy="700.104" r="7.2" fill="#009af9" fill-rule="evenodd" fill-opacity="1" stroke="#000000" stroke-opacity="1" stroke-width="3.2"/>
<circle clip-path="url(#clip382)" cx="1653.34" cy="601" r="7.2" fill="#009af9" fill-rule="evenodd" fill-opacity="1" stroke="#000000" stroke-opacity="1" stroke-width="3.2"/>
<circle clip-path="url(#clip382)" cx="1717.33" cy="481.124" r="7.2" fill="#009af9" fill-rule="evenodd" fill-opacity="1" stroke="#000000" stroke-opacity="1" stroke-width="3.2"/>
<circle clip-path="url(#clip382)" cx="1781.32" cy="343.16" r="7.2" fill="#009af9" fill-rule="evenodd" fill-opacity="1" stroke="#000000" stroke-opacity="1" stroke-width="3.2"/>
<circle clip-path="url(#clip382)" cx="1845.31" cy="199.815" r="7.2" fill="#009af9" fill-rule="evenodd" fill-opacity="1" stroke="#000000" stroke-opacity="1" stroke-width="3.2"/>
<circle clip-path="url(#clip382)" cx="1909.3" cy="90.3895" r="7.2" fill="#009af9" fill-rule="evenodd" fill-opacity="1" stroke="#000000" stroke-opacity="1" stroke-width="3.2"/>
<circle clip-path="url(#clip382)" cx="1973.29" cy="86.1857" r="7.2" fill="#009af9" fill-rule="evenodd" fill-opacity="1" stroke="#000000" stroke-opacity="1" stroke-width="3.2"/>
<circle clip-path="url(#clip382)" cx="2037.28" cy="255.388" r="7.2" fill="#009af9" fill-rule="evenodd" fill-opacity="1" stroke="#000000" stroke-opacity="1" stroke-width="3.2"/>
<circle clip-path="url(#clip382)" cx="2101.27" cy="590.476" r="7.2" fill="#009af9" fill-rule="evenodd" fill-opacity="1" stroke="#000000" stroke-opacity="1" stroke-width="3.2"/>
<circle clip-path="url(#clip382)" cx="2165.26" cy="972.064" r="7.2" fill="#009af9" fill-rule="evenodd" fill-opacity="1" stroke="#000000" stroke-opacity="1" stroke-width="3.2"/>
<circle clip-path="url(#clip382)" cx="2229.25" cy="1247.17" r="7.2" fill="#009af9" fill-rule="evenodd" fill-opacity="1" stroke="#000000" stroke-opacity="1" stroke-width="3.2"/>
<circle clip-path="url(#clip382)" cx="2293.24" cy="1362.85" r="7.2" fill="#009af9" fill-rule="evenodd" fill-opacity="1" stroke="#000000" stroke-opacity="1" stroke-width="3.2"/>
</svg>
