<?xml version="1.0" encoding="utf-8"?>
<svg xmlns="http://www.w3.org/2000/svg" xmlns:xlink="http://www.w3.org/1999/xlink" width="600" height="400" viewBox="0 0 2400 1600">
<defs>
  <clipPath id="clip930">
    <rect x="0" y="0" width="2400" height="1600"/>
  </clipPath>
</defs>
<path clip-path="url(#clip930)" d="M0 1600 L2400 1600 L2400 0 L0 0  Z" fill="#ffffff" fill-rule="evenodd" fill-opacity="1"/>
<defs>
  <clipPath id="clip931">
    <rect x="480" y="0" width="1681" height="1600"/>
  </clipPath>
</defs>
<path clip-path="url(#clip930)" d="M141.853 1423.18 L2352.76 1423.18 L2352.76 47.2441 L141.853 47.2441  Z" fill="#ffffff" fill-rule="evenodd" fill-opacity="1"/>
<defs>
  <clipPath id="clip932">
    <rect x="141" y="47" width="2212" height="1377"/>
  </clipPath>
</defs>
<polyline clip-path="url(#clip932)" style="stroke:#000000; stroke-linecap:round; stroke-linejoin:round; stroke-width:2; stroke-opacity:0.1; fill:none" points="395.959,1423.18 395.959,47.2441 "/>
<polyline clip-path="url(#clip932)" style="stroke:#000000; stroke-linecap:round; stroke-linejoin:round; stroke-width:2; stroke-opacity:0.1; fill:none" points="679.741,1423.18 679.741,47.2441 "/>
<polyline clip-path="url(#clip932)" style="stroke:#000000; stroke-linecap:round; stroke-linejoin:round; stroke-width:2; stroke-opacity:0.1; fill:none" points="963.523,1423.18 963.523,47.2441 "/>
<polyline clip-path="url(#clip932)" style="stroke:#000000; stroke-linecap:round; stroke-linejoin:round; stroke-width:2; stroke-opacity:0.1; fill:none" points="1247.3,1423.18 1247.3,47.2441 "/>
<polyline clip-path="url(#clip932)" style="stroke:#000000; stroke-linecap:round; stroke-linejoin:round; stroke-width:2; stroke-opacity:0.1; fill:none" points="1531.09,1423.18 1531.09,47.2441 "/>
<polyline clip-path="url(#clip932)" style="stroke:#000000; stroke-linecap:round; stroke-linejoin:round; stroke-width:2; stroke-opacity:0.1; fill:none" points="1814.87,1423.18 1814.87,47.2441 "/>
<polyline clip-path="url(#clip932)" style="stroke:#000000; stroke-linecap:round; stroke-linejoin:round; stroke-width:2; stroke-opacity:0.1; fill:none" points="2098.65,1423.18 2098.65,47.2441 "/>
<polyline clip-path="url(#clip930)" style="stroke:#000000; stroke-linecap:round; stroke-linejoin:round; stroke-width:4; stroke-opacity:1; fill:none" points="141.853,1423.18 2352.76,1423.18 "/>
<polyline clip-path="url(#clip930)" style="stroke:#000000; stroke-linecap:round; stroke-linejoin:round; stroke-width:4; stroke-opacity:1; fill:none" points="395.959,1423.18 395.959,1404.28 "/>
<polyline clip-path="url(#clip930)" style="stroke:#000000; stroke-linecap:round; stroke-linejoin:round; stroke-width:4; stroke-opacity:1; fill:none" points="679.741,1423.18 679.741,1404.28 "/>
<polyline clip-path="url(#clip930)" style="stroke:#000000; stroke-linecap:round; stroke-linejoin:round; stroke-width:4; stroke-opacity:1; fill:none" points="963.523,1423.18 963.523,1404.28 "/>
<polyline clip-path="url(#clip930)" style="stroke:#000000; stroke-linecap:round; stroke-linejoin:round; stroke-width:4; stroke-opacity:1; fill:none" points="1247.3,1423.18 1247.3,1404.28 "/>
<polyline clip-path="url(#clip930)" style="stroke:#000000; stroke-linecap:round; stroke-linejoin:round; stroke-width:4; stroke-opacity:1; fill:none" points="1531.09,1423.18 1531.09,1404.28 "/>
<polyline clip-path="url(#clip930)" style="stroke:#000000; stroke-linecap:round; stroke-linejoin:round; stroke-width:4; stroke-opacity:1; fill:none" points="1814.87,1423.18 1814.87,1404.28 "/>
<polyline clip-path="url(#clip930)" style="stroke:#000000; stroke-linecap:round; stroke-linejoin:round; stroke-width:4; stroke-opacity:1; fill:none" points="2098.65,1423.18 2098.65,1404.28 "/>
<path clip-path="url(#clip930)" d="M342.811 1468.75 L372.487 1468.75 L372.487 1472.69 L342.811 1472.69 L342.811 1468.75 Z" fill="#000000" fill-rule="nonzero" fill-opacity="1" /><path clip-path="url(#clip930)" d="M392.58 1454.1 Q388.968 1454.1 387.14 1457.66 Q385.334 1461.2 385.334 1468.33 Q385.334 1475.44 387.14 1479.01 Q388.968 1482.55 392.58 1482.55 Q396.214 1482.55 398.019 1479.01 Q399.848 1475.44 399.848 1468.33 Q399.848 1461.2 398.019 1457.66 Q396.214 1454.1 392.58 1454.1 M392.58 1450.39 Q398.39 1450.39 401.445 1455 Q404.524 1459.58 404.524 1468.33 Q404.524 1477.06 401.445 1481.67 Q398.39 1486.25 392.58 1486.25 Q386.769 1486.25 383.691 1481.67 Q380.635 1477.06 380.635 1468.33 Q380.635 1459.58 383.691 1455 Q386.769 1450.39 392.58 1450.39 Z" fill="#000000" fill-rule="nonzero" fill-opacity="1" /><path clip-path="url(#clip930)" d="M412.741 1479.7 L417.626 1479.7 L417.626 1485.58 L412.741 1485.58 L412.741 1479.7 Z" fill="#000000" fill-rule="nonzero" fill-opacity="1" /><path clip-path="url(#clip930)" d="M441.977 1466.95 Q445.334 1467.66 447.209 1469.93 Q449.107 1472.2 449.107 1475.53 Q449.107 1480.65 445.588 1483.45 Q442.07 1486.25 435.589 1486.25 Q433.413 1486.25 431.098 1485.81 Q428.806 1485.39 426.352 1484.54 L426.352 1480.02 Q428.297 1481.16 430.612 1481.74 Q432.927 1482.32 435.45 1482.32 Q439.848 1482.32 442.139 1480.58 Q444.454 1478.84 444.454 1475.53 Q444.454 1472.48 442.301 1470.77 Q440.172 1469.03 436.352 1469.03 L432.325 1469.03 L432.325 1465.19 L436.538 1465.19 Q439.987 1465.19 441.815 1463.82 Q443.644 1462.43 443.644 1459.84 Q443.644 1457.18 441.746 1455.77 Q439.871 1454.33 436.352 1454.33 Q434.431 1454.33 432.232 1454.75 Q430.033 1455.16 427.394 1456.04 L427.394 1451.88 Q430.056 1451.14 432.371 1450.77 Q434.709 1450.39 436.769 1450.39 Q442.093 1450.39 445.195 1452.83 Q448.297 1455.23 448.297 1459.35 Q448.297 1462.22 446.653 1464.21 Q445.01 1466.18 441.977 1466.95 Z" fill="#000000" fill-rule="nonzero" fill-opacity="1" /><path clip-path="url(#clip930)" d="M627.068 1468.75 L656.743 1468.75 L656.743 1472.69 L627.068 1472.69 L627.068 1468.75 Z" fill="#000000" fill-rule="nonzero" fill-opacity="1" /><path clip-path="url(#clip930)" d="M676.836 1454.1 Q673.225 1454.1 671.396 1457.66 Q669.59 1461.2 669.59 1468.33 Q669.59 1475.44 671.396 1479.01 Q673.225 1482.55 676.836 1482.55 Q680.47 1482.55 682.276 1479.01 Q684.104 1475.44 684.104 1468.33 Q684.104 1461.2 682.276 1457.66 Q680.47 1454.1 676.836 1454.1 M676.836 1450.39 Q682.646 1450.39 685.702 1455 Q688.78 1459.58 688.78 1468.33 Q688.78 1477.06 685.702 1481.67 Q682.646 1486.25 676.836 1486.25 Q671.026 1486.25 667.947 1481.67 Q664.891 1477.06 664.891 1468.33 Q664.891 1459.58 667.947 1455 Q671.026 1450.39 676.836 1450.39 Z" fill="#000000" fill-rule="nonzero" fill-opacity="1" /><path clip-path="url(#clip930)" d="M696.998 1479.7 L701.882 1479.7 L701.882 1485.58 L696.998 1485.58 L696.998 1479.7 Z" fill="#000000" fill-rule="nonzero" fill-opacity="1" /><path clip-path="url(#clip930)" d="M716.095 1481.64 L732.414 1481.64 L732.414 1485.58 L710.47 1485.58 L710.47 1481.64 Q713.132 1478.89 717.715 1474.26 Q722.322 1469.61 723.502 1468.27 Q725.748 1465.74 726.627 1464.01 Q727.53 1462.25 727.53 1460.56 Q727.53 1457.8 725.586 1456.07 Q723.664 1454.33 720.562 1454.33 Q718.363 1454.33 715.91 1455.09 Q713.479 1455.86 710.701 1457.41 L710.701 1452.69 Q713.525 1451.55 715.979 1450.97 Q718.433 1450.39 720.47 1450.39 Q725.84 1450.39 729.035 1453.08 Q732.229 1455.77 732.229 1460.26 Q732.229 1462.39 731.419 1464.31 Q730.632 1466.2 728.525 1468.8 Q727.947 1469.47 724.845 1472.69 Q721.743 1475.88 716.095 1481.64 Z" fill="#000000" fill-rule="nonzero" fill-opacity="1" /><path clip-path="url(#clip930)" d="M910.664 1468.75 L940.34 1468.75 L940.34 1472.69 L910.664 1472.69 L910.664 1468.75 Z" fill="#000000" fill-rule="nonzero" fill-opacity="1" /><path clip-path="url(#clip930)" d="M960.432 1454.1 Q956.821 1454.1 954.993 1457.66 Q953.187 1461.2 953.187 1468.33 Q953.187 1475.44 954.993 1479.01 Q956.821 1482.55 960.432 1482.55 Q964.067 1482.55 965.872 1479.01 Q967.701 1475.44 967.701 1468.33 Q967.701 1461.2 965.872 1457.66 Q964.067 1454.1 960.432 1454.1 M960.432 1450.39 Q966.243 1450.39 969.298 1455 Q972.377 1459.58 972.377 1468.33 Q972.377 1477.06 969.298 1481.67 Q966.243 1486.25 960.432 1486.25 Q954.622 1486.25 951.544 1481.67 Q948.488 1477.06 948.488 1468.33 Q948.488 1459.58 951.544 1455 Q954.622 1450.39 960.432 1450.39 Z" fill="#000000" fill-rule="nonzero" fill-opacity="1" /><path clip-path="url(#clip930)" d="M980.594 1479.7 L985.479 1479.7 L985.479 1485.58 L980.594 1485.58 L980.594 1479.7 Z" fill="#000000" fill-rule="nonzero" fill-opacity="1" /><path clip-path="url(#clip930)" d="M996.474 1481.64 L1004.11 1481.64 L1004.11 1455.28 L995.803 1456.95 L995.803 1452.69 L1004.07 1451.02 L1008.74 1451.02 L1008.74 1481.64 L1016.38 1481.64 L1016.38 1485.58 L996.474 1485.58 L996.474 1481.64 Z" fill="#000000" fill-rule="nonzero" fill-opacity="1" /><path clip-path="url(#clip930)" d="M1224.69 1454.1 Q1221.08 1454.1 1219.25 1457.66 Q1217.44 1461.2 1217.44 1468.33 Q1217.44 1475.44 1219.25 1479.01 Q1221.08 1482.55 1224.69 1482.55 Q1228.32 1482.55 1230.13 1479.01 Q1231.96 1475.44 1231.96 1468.33 Q1231.96 1461.2 1230.13 1457.66 Q1228.32 1454.1 1224.69 1454.1 M1224.69 1450.39 Q1230.5 1450.39 1233.55 1455 Q1236.63 1459.58 1236.63 1468.33 Q1236.63 1477.06 1233.55 1481.67 Q1230.5 1486.25 1224.69 1486.25 Q1218.88 1486.25 1215.8 1481.67 Q1212.74 1477.06 1212.74 1468.33 Q1212.74 1459.58 1215.8 1455 Q1218.88 1450.39 1224.69 1450.39 Z" fill="#000000" fill-rule="nonzero" fill-opacity="1" /><path clip-path="url(#clip930)" d="M1244.85 1479.7 L1249.73 1479.7 L1249.73 1485.58 L1244.85 1485.58 L1244.85 1479.7 Z" fill="#000000" fill-rule="nonzero" fill-opacity="1" /><path clip-path="url(#clip930)" d="M1269.92 1454.1 Q1266.31 1454.1 1264.48 1457.66 Q1262.67 1461.2 1262.67 1468.33 Q1262.67 1475.44 1264.48 1479.01 Q1266.31 1482.55 1269.92 1482.55 Q1273.55 1482.55 1275.36 1479.01 Q1277.19 1475.44 1277.19 1468.33 Q1277.19 1461.2 1275.36 1457.66 Q1273.55 1454.1 1269.92 1454.1 M1269.92 1450.39 Q1275.73 1450.39 1278.79 1455 Q1281.86 1459.58 1281.86 1468.33 Q1281.86 1477.06 1278.79 1481.67 Q1275.73 1486.25 1269.92 1486.25 Q1264.11 1486.25 1261.03 1481.67 Q1257.98 1477.06 1257.98 1468.33 Q1257.98 1459.58 1261.03 1455 Q1264.11 1450.39 1269.92 1450.39 Z" fill="#000000" fill-rule="nonzero" fill-opacity="1" /><path clip-path="url(#clip930)" d="M1509.08 1454.1 Q1505.47 1454.1 1503.64 1457.66 Q1501.84 1461.2 1501.84 1468.33 Q1501.84 1475.44 1503.64 1479.01 Q1505.47 1482.55 1509.08 1482.55 Q1512.72 1482.55 1514.52 1479.01 Q1516.35 1475.44 1516.35 1468.33 Q1516.35 1461.2 1514.52 1457.66 Q1512.72 1454.1 1509.08 1454.1 M1509.08 1450.39 Q1514.89 1450.39 1517.95 1455 Q1521.03 1459.58 1521.03 1468.33 Q1521.03 1477.06 1517.95 1481.67 Q1514.89 1486.25 1509.08 1486.25 Q1503.27 1486.25 1500.2 1481.67 Q1497.14 1477.06 1497.14 1468.33 Q1497.14 1459.58 1500.2 1455 Q1503.27 1450.39 1509.08 1450.39 Z" fill="#000000" fill-rule="nonzero" fill-opacity="1" /><path clip-path="url(#clip930)" d="M1529.25 1479.7 L1534.13 1479.7 L1534.13 1485.58 L1529.25 1485.58 L1529.25 1479.7 Z" fill="#000000" fill-rule="nonzero" fill-opacity="1" /><path clip-path="url(#clip930)" d="M1545.13 1481.64 L1552.76 1481.64 L1552.76 1455.28 L1544.45 1456.95 L1544.45 1452.69 L1552.72 1451.02 L1557.39 1451.02 L1557.39 1481.64 L1565.03 1481.64 L1565.03 1485.58 L1545.13 1485.58 L1545.13 1481.64 Z" fill="#000000" fill-rule="nonzero" fill-opacity="1" /><path clip-path="url(#clip930)" d="M1793.05 1454.1 Q1789.44 1454.1 1787.61 1457.66 Q1785.81 1461.2 1785.81 1468.33 Q1785.81 1475.44 1787.61 1479.01 Q1789.44 1482.55 1793.05 1482.55 Q1796.69 1482.55 1798.49 1479.01 Q1800.32 1475.44 1800.32 1468.33 Q1800.32 1461.2 1798.49 1457.66 Q1796.69 1454.1 1793.05 1454.1 M1793.05 1450.39 Q1798.86 1450.39 1801.92 1455 Q1805 1459.58 1805 1468.33 Q1805 1477.06 1801.92 1481.67 Q1798.86 1486.25 1793.05 1486.25 Q1787.24 1486.25 1784.16 1481.67 Q1781.11 1477.06 1781.11 1468.33 Q1781.11 1459.58 1784.16 1455 Q1787.24 1450.39 1793.05 1450.39 Z" fill="#000000" fill-rule="nonzero" fill-opacity="1" /><path clip-path="url(#clip930)" d="M1813.21 1479.7 L1818.1 1479.7 L1818.1 1485.58 L1813.21 1485.58 L1813.21 1479.7 Z" fill="#000000" fill-rule="nonzero" fill-opacity="1" /><path clip-path="url(#clip930)" d="M1832.31 1481.64 L1848.63 1481.64 L1848.63 1485.58 L1826.69 1485.58 L1826.69 1481.64 Q1829.35 1478.89 1833.93 1474.26 Q1838.54 1469.61 1839.72 1468.27 Q1841.96 1465.74 1842.84 1464.01 Q1843.75 1462.25 1843.75 1460.56 Q1843.75 1457.8 1841.8 1456.07 Q1839.88 1454.33 1836.78 1454.33 Q1834.58 1454.33 1832.12 1455.09 Q1829.69 1455.86 1826.92 1457.41 L1826.92 1452.69 Q1829.74 1451.55 1832.19 1450.97 Q1834.65 1450.39 1836.68 1450.39 Q1842.06 1450.39 1845.25 1453.08 Q1848.44 1455.77 1848.44 1460.26 Q1848.44 1462.39 1847.63 1464.31 Q1846.85 1466.2 1844.74 1468.8 Q1844.16 1469.47 1841.06 1472.69 Q1837.96 1475.88 1832.31 1481.64 Z" fill="#000000" fill-rule="nonzero" fill-opacity="1" /><path clip-path="url(#clip930)" d="M2076.36 1454.1 Q2072.75 1454.1 2070.92 1457.66 Q2069.11 1461.2 2069.11 1468.33 Q2069.11 1475.44 2070.92 1479.01 Q2072.75 1482.55 2076.36 1482.55 Q2079.99 1482.55 2081.8 1479.01 Q2083.63 1475.44 2083.63 1468.33 Q2083.63 1461.2 2081.8 1457.66 Q2079.99 1454.1 2076.36 1454.1 M2076.36 1450.39 Q2082.17 1450.39 2085.22 1455 Q2088.3 1459.58 2088.3 1468.33 Q2088.3 1477.06 2085.22 1481.67 Q2082.17 1486.25 2076.36 1486.25 Q2070.55 1486.25 2067.47 1481.67 Q2064.41 1477.06 2064.41 1468.33 Q2064.41 1459.58 2067.47 1455 Q2070.55 1450.39 2076.36 1450.39 Z" fill="#000000" fill-rule="nonzero" fill-opacity="1" /><path clip-path="url(#clip930)" d="M2096.52 1479.7 L2101.4 1479.7 L2101.4 1485.58 L2096.52 1485.58 L2096.52 1479.7 Z" fill="#000000" fill-rule="nonzero" fill-opacity="1" /><path clip-path="url(#clip930)" d="M2125.76 1466.95 Q2129.11 1467.66 2130.99 1469.93 Q2132.89 1472.2 2132.89 1475.53 Q2132.89 1480.65 2129.37 1483.45 Q2125.85 1486.25 2119.37 1486.25 Q2117.19 1486.25 2114.88 1485.81 Q2112.58 1485.39 2110.13 1484.54 L2110.13 1480.02 Q2112.08 1481.16 2114.39 1481.74 Q2116.71 1482.32 2119.23 1482.32 Q2123.63 1482.32 2125.92 1480.58 Q2128.23 1478.84 2128.23 1475.53 Q2128.23 1472.48 2126.08 1470.77 Q2123.95 1469.03 2120.13 1469.03 L2116.1 1469.03 L2116.1 1465.19 L2120.32 1465.19 Q2123.77 1465.19 2125.59 1463.82 Q2127.42 1462.43 2127.42 1459.84 Q2127.42 1457.18 2125.52 1455.77 Q2123.65 1454.33 2120.13 1454.33 Q2118.21 1454.33 2116.01 1454.75 Q2113.81 1455.16 2111.17 1456.04 L2111.17 1451.88 Q2113.83 1451.14 2116.15 1450.77 Q2118.49 1450.39 2120.55 1450.39 Q2125.87 1450.39 2128.97 1452.83 Q2132.08 1455.23 2132.08 1459.35 Q2132.08 1462.22 2130.43 1464.21 Q2128.79 1466.18 2125.76 1466.95 Z" fill="#000000" fill-rule="nonzero" fill-opacity="1" /><path clip-path="url(#clip930)" d="M933.73 1548.76 L933.73 1551.62 L906.803 1551.62 Q907.185 1557.67 910.431 1560.85 Q913.71 1564 919.534 1564 Q922.908 1564 926.059 1563.17 Q929.242 1562.35 932.361 1560.69 L932.361 1566.23 Q929.21 1567.57 925.9 1568.27 Q922.59 1568.97 919.184 1568.97 Q910.654 1568.97 905.657 1564 Q900.692 1559.04 900.692 1550.57 Q900.692 1541.82 905.402 1536.69 Q910.145 1531.54 918.166 1531.54 Q925.359 1531.54 929.528 1536.18 Q933.73 1540.8 933.73 1548.76 M927.873 1547.04 Q927.81 1542.23 925.168 1539.37 Q922.558 1536.5 918.229 1536.5 Q913.328 1536.5 910.368 1539.27 Q907.439 1542.04 906.994 1547.07 L927.873 1547.04 Z" fill="#000000" fill-rule="nonzero" fill-opacity="1" /><path clip-path="url(#clip930)" d="M943.342 1532.4 L949.198 1532.4 L949.198 1568.04 L943.342 1568.04 L943.342 1532.4 M943.342 1518.52 L949.198 1518.52 L949.198 1525.93 L943.342 1525.93 L943.342 1518.52 Z" fill="#000000" fill-rule="nonzero" fill-opacity="1" /><path clip-path="url(#clip930)" d="M984.91 1549.81 Q984.91 1543.44 982.268 1539.94 Q979.658 1536.44 974.916 1536.44 Q970.205 1536.44 967.563 1539.94 Q964.954 1543.44 964.954 1549.81 Q964.954 1556.14 967.563 1559.64 Q970.205 1563.14 974.916 1563.14 Q979.658 1563.14 982.268 1559.64 Q984.91 1556.14 984.91 1549.81 M990.766 1563.62 Q990.766 1572.72 986.724 1577.15 Q982.682 1581.6 974.343 1581.6 Q971.256 1581.6 968.518 1581.13 Q965.781 1580.68 963.203 1579.72 L963.203 1574.03 Q965.781 1575.43 968.296 1576.1 Q970.81 1576.76 973.42 1576.76 Q979.181 1576.76 982.045 1573.74 Q984.91 1570.75 984.91 1564.67 L984.91 1561.77 Q983.096 1564.92 980.263 1566.48 Q977.43 1568.04 973.484 1568.04 Q966.927 1568.04 962.916 1563.05 Q958.906 1558.05 958.906 1549.81 Q958.906 1541.53 962.916 1536.53 Q966.927 1531.54 973.484 1531.54 Q977.43 1531.54 980.263 1533.1 Q983.096 1534.66 984.91 1537.81 L984.91 1532.4 L990.766 1532.4 L990.766 1563.62 Z" fill="#000000" fill-rule="nonzero" fill-opacity="1" /><path clip-path="url(#clip930)" d="M1033.32 1548.76 L1033.32 1551.62 L1006.39 1551.62 Q1006.78 1557.67 1010.02 1560.85 Q1013.3 1564 1019.13 1564 Q1022.5 1564 1025.65 1563.17 Q1028.83 1562.35 1031.95 1560.69 L1031.95 1566.23 Q1028.8 1567.57 1025.49 1568.27 Q1022.18 1568.97 1018.78 1568.97 Q1010.25 1568.97 1005.25 1564 Q1000.28 1559.04 1000.28 1550.57 Q1000.28 1541.82 1004.99 1536.69 Q1009.74 1531.54 1017.76 1531.54 Q1024.95 1531.54 1029.12 1536.18 Q1033.32 1540.8 1033.32 1548.76 M1027.46 1547.04 Q1027.4 1542.23 1024.76 1539.37 Q1022.15 1536.5 1017.82 1536.5 Q1012.92 1536.5 1009.96 1539.27 Q1007.03 1542.04 1006.59 1547.07 L1027.46 1547.04 Z" fill="#000000" fill-rule="nonzero" fill-opacity="1" /><path clip-path="url(#clip930)" d="M1072.57 1546.53 L1072.57 1568.04 L1066.71 1568.04 L1066.71 1546.72 Q1066.71 1541.66 1064.74 1539.14 Q1062.76 1536.63 1058.82 1536.63 Q1054.07 1536.63 1051.34 1539.65 Q1048.6 1542.68 1048.6 1547.9 L1048.6 1568.04 L1042.71 1568.04 L1042.71 1532.4 L1048.6 1532.4 L1048.6 1537.93 Q1050.7 1534.72 1053.53 1533.13 Q1056.4 1531.54 1060.12 1531.54 Q1066.26 1531.54 1069.41 1535.36 Q1072.57 1539.14 1072.57 1546.53 Z" fill="#000000" fill-rule="nonzero" fill-opacity="1" /><path clip-path="url(#clip930)" d="M1080.05 1532.4 L1086.25 1532.4 L1097.39 1562.31 L1108.53 1532.4 L1114.74 1532.4 L1101.37 1568.04 L1093.41 1568.04 L1080.05 1532.4 Z" fill="#000000" fill-rule="nonzero" fill-opacity="1" /><path clip-path="url(#clip930)" d="M1139.02 1550.12 Q1131.93 1550.12 1129.19 1551.75 Q1126.45 1553.37 1126.45 1557.29 Q1126.45 1560.4 1128.49 1562.25 Q1130.56 1564.07 1134.09 1564.07 Q1138.96 1564.07 1141.89 1560.63 Q1144.85 1557.16 1144.85 1551.43 L1144.85 1550.12 L1139.02 1550.12 M1150.7 1547.71 L1150.7 1568.04 L1144.85 1568.04 L1144.85 1562.63 Q1142.84 1565.88 1139.85 1567.44 Q1136.86 1568.97 1132.53 1568.97 Q1127.06 1568.97 1123.81 1565.91 Q1120.6 1562.82 1120.6 1557.67 Q1120.6 1551.65 1124.61 1548.6 Q1128.65 1545.54 1136.64 1545.54 L1144.85 1545.54 L1144.85 1544.97 Q1144.85 1540.93 1142.17 1538.73 Q1139.53 1536.5 1134.73 1536.5 Q1131.67 1536.5 1128.77 1537.23 Q1125.88 1537.97 1123.2 1539.43 L1123.2 1534.02 Q1126.42 1532.78 1129.44 1532.17 Q1132.47 1531.54 1135.33 1531.54 Q1143.07 1531.54 1146.89 1535.55 Q1150.7 1539.56 1150.7 1547.71 Z" fill="#000000" fill-rule="nonzero" fill-opacity="1" /><path clip-path="url(#clip930)" d="M1162.77 1518.52 L1168.62 1518.52 L1168.62 1568.04 L1162.77 1568.04 L1162.77 1518.52 Z" fill="#000000" fill-rule="nonzero" fill-opacity="1" /><path clip-path="url(#clip930)" d="M1180.27 1553.98 L1180.27 1532.4 L1186.13 1532.4 L1186.13 1553.75 Q1186.13 1558.81 1188.1 1561.36 Q1190.08 1563.87 1194.02 1563.87 Q1198.77 1563.87 1201.5 1560.85 Q1204.27 1557.83 1204.27 1552.61 L1204.27 1532.4 L1210.13 1532.4 L1210.13 1568.04 L1204.27 1568.04 L1204.27 1562.57 Q1202.14 1565.82 1199.31 1567.41 Q1196.51 1568.97 1192.78 1568.97 Q1186.64 1568.97 1183.46 1565.15 Q1180.27 1561.33 1180.27 1553.98 M1195.01 1531.54 L1195.01 1531.54 Z" fill="#000000" fill-rule="nonzero" fill-opacity="1" /><path clip-path="url(#clip930)" d="M1252.68 1548.76 L1252.68 1551.62 L1225.76 1551.62 Q1226.14 1557.67 1229.38 1560.85 Q1232.66 1564 1238.49 1564 Q1241.86 1564 1245.01 1563.17 Q1248.2 1562.35 1251.31 1560.69 L1251.31 1566.23 Q1248.16 1567.57 1244.85 1568.27 Q1241.54 1568.97 1238.14 1568.97 Q1229.61 1568.97 1224.61 1564 Q1219.65 1559.04 1219.65 1550.57 Q1219.65 1541.82 1224.36 1536.69 Q1229.1 1531.54 1237.12 1531.54 Q1244.31 1531.54 1248.48 1536.18 Q1252.68 1540.8 1252.68 1548.76 M1246.83 1547.04 Q1246.76 1542.23 1244.12 1539.37 Q1241.51 1536.5 1237.18 1536.5 Q1232.28 1536.5 1229.32 1539.27 Q1226.39 1542.04 1225.95 1547.07 L1246.83 1547.04 Z" fill="#000000" fill-rule="nonzero" fill-opacity="1" /><path clip-path="url(#clip930)" d="M1285.02 1533.45 L1285.02 1538.98 Q1282.54 1537.71 1279.87 1537.07 Q1277.19 1536.44 1274.33 1536.44 Q1269.97 1536.44 1267.77 1537.77 Q1265.61 1539.11 1265.61 1541.79 Q1265.61 1543.82 1267.17 1545 Q1268.73 1546.15 1273.44 1547.2 L1275.44 1547.64 Q1281.68 1548.98 1284.29 1551.43 Q1286.93 1553.85 1286.93 1558.21 Q1286.93 1563.17 1282.98 1566.07 Q1279.07 1568.97 1272.19 1568.97 Q1269.33 1568.97 1266.21 1568.39 Q1263.12 1567.85 1259.69 1566.74 L1259.69 1560.69 Q1262.93 1562.38 1266.08 1563.24 Q1269.23 1564.07 1272.32 1564.07 Q1276.46 1564.07 1278.69 1562.66 Q1280.92 1561.23 1280.92 1558.65 Q1280.92 1556.27 1279.29 1554.99 Q1277.7 1553.72 1272.26 1552.54 L1270.22 1552.07 Q1264.78 1550.92 1262.36 1548.56 Q1259.94 1546.18 1259.94 1542.04 Q1259.94 1537.01 1263.51 1534.27 Q1267.07 1531.54 1273.63 1531.54 Q1276.87 1531.54 1279.74 1532.01 Q1282.6 1532.49 1285.02 1533.45 Z" fill="#000000" fill-rule="nonzero" fill-opacity="1" /><path clip-path="url(#clip930)" d="M1314.02 1547.58 L1331.17 1547.58 L1331.17 1552.8 L1314.02 1552.8 L1314.02 1547.58 Z" fill="#000000" fill-rule="nonzero" fill-opacity="1" /><path clip-path="url(#clip930)" d="M1346.93 1548.82 Q1343.36 1548.06 1341.45 1545.99 Q1339.54 1543.95 1339.54 1540.99 Q1339.54 1536.5 1343.17 1533.99 Q1346.77 1531.5 1353.01 1531.5 Q1355.43 1531.5 1358.13 1531.89 Q1360.84 1532.27 1363.96 1533.03 L1363.96 1538.35 Q1360.87 1537.42 1358.32 1537.01 Q1355.74 1536.6 1353.48 1536.6 Q1349.7 1536.6 1347.5 1538.06 Q1345.27 1539.53 1345.27 1541.56 Q1345.27 1543.79 1347.44 1545.22 Q1349.57 1546.62 1353.26 1546.62 L1358.2 1546.62 L1358.2 1551.46 L1353.48 1551.46 Q1349.12 1551.46 1346.83 1553.08 Q1344.35 1554.87 1344.35 1557.67 Q1344.35 1560.53 1347.02 1562.31 Q1349.73 1564.1 1354.53 1564.1 Q1357.49 1564.1 1360.2 1563.52 Q1362.91 1562.92 1365.17 1561.74 L1365.17 1567.18 Q1362.3 1568.08 1359.63 1568.52 Q1356.92 1568.97 1354.38 1568.97 Q1346.8 1568.97 1342.69 1566.07 Q1338.59 1563.17 1338.59 1557.67 Q1338.59 1554.23 1340.78 1551.91 Q1342.98 1549.58 1346.93 1548.82 Z" fill="#000000" fill-rule="nonzero" fill-opacity="1" /><path clip-path="url(#clip930)" d="M1402.82 1578.87 L1402.82 1583.42 L1368.95 1583.42 L1368.95 1578.87 L1402.82 1578.87 Z" fill="#000000" fill-rule="nonzero" fill-opacity="1" /><path clip-path="url(#clip930)" d="M1408.58 1520.52 L1435.89 1520.52 L1435.89 1525.93 L1415.01 1525.93 L1415.01 1539.94 L1433.85 1539.94 L1433.85 1545.35 L1415.01 1545.35 L1415.01 1568.04 L1408.58 1568.04 L1408.58 1520.52 Z" fill="#000000" fill-rule="nonzero" fill-opacity="1" /><path clip-path="url(#clip930)" d="M1501.33 1518.58 Q1497.06 1525.9 1494.99 1533.06 Q1492.93 1540.23 1492.93 1547.58 Q1492.93 1554.93 1494.99 1562.16 Q1497.09 1569.35 1501.33 1576.64 L1496.24 1576.64 Q1491.46 1569.16 1489.07 1561.93 Q1486.72 1554.71 1486.72 1547.58 Q1486.72 1540.48 1489.07 1533.29 Q1491.43 1526.09 1496.24 1518.58 L1501.33 1518.58 Z" fill="#000000" fill-rule="nonzero" fill-opacity="1" /><path clip-path="url(#clip930)" d="M1512.95 1520.52 L1542.99 1520.52 L1542.99 1525.93 L1519.37 1525.93 L1519.37 1540 L1542 1540 L1542 1545.41 L1519.37 1545.41 L1519.37 1562.63 L1543.56 1562.63 L1543.56 1568.04 L1512.95 1568.04 L1512.95 1520.52 Z" fill="#000000" fill-rule="nonzero" fill-opacity="1" /><path clip-path="url(#clip930)" d="M1570.27 1555.98 L1570.27 1568.04 L1566.58 1568.04 L1566.58 1556.11 Q1566.58 1553.28 1565.34 1551.87 Q1564.09 1550.44 1561.61 1550.44 Q1558.62 1550.44 1556.9 1552.16 Q1555.18 1553.85 1555.18 1556.78 L1555.18 1568.04 L1551.46 1568.04 L1551.46 1540.32 L1555.18 1540.32 L1555.18 1551.17 Q1556.49 1549.39 1558.27 1548.5 Q1560.08 1547.61 1562.44 1547.61 Q1566.29 1547.61 1568.26 1549.74 Q1570.27 1551.87 1570.27 1555.98 Z" fill="#000000" fill-rule="nonzero" fill-opacity="1" /><path clip-path="url(#clip930)" d="M1579.31 1518.58 L1584.4 1518.58 Q1589.17 1526.09 1591.53 1533.29 Q1593.92 1540.48 1593.92 1547.58 Q1593.92 1554.71 1591.53 1561.93 Q1589.17 1569.16 1584.4 1576.64 L1579.31 1576.64 Q1583.54 1569.35 1585.61 1562.16 Q1587.71 1554.93 1587.71 1547.58 Q1587.71 1540.23 1585.61 1533.06 Q1583.54 1525.9 1579.31 1518.58 Z" fill="#000000" fill-rule="nonzero" fill-opacity="1" /><polyline clip-path="url(#clip932)" style="stroke:#000000; stroke-linecap:round; stroke-linejoin:round; stroke-width:2; stroke-opacity:0.1; fill:none" points="141.853,1384.24 2352.76,1384.24 "/>
<polyline clip-path="url(#clip932)" style="stroke:#000000; stroke-linecap:round; stroke-linejoin:round; stroke-width:2; stroke-opacity:0.1; fill:none" points="141.853,1167.64 2352.76,1167.64 "/>
<polyline clip-path="url(#clip932)" style="stroke:#000000; stroke-linecap:round; stroke-linejoin:round; stroke-width:2; stroke-opacity:0.1; fill:none" points="141.853,951.039 2352.76,951.039 "/>
<polyline clip-path="url(#clip932)" style="stroke:#000000; stroke-linecap:round; stroke-linejoin:round; stroke-width:2; stroke-opacity:0.1; fill:none" points="141.853,734.437 2352.76,734.437 "/>
<polyline clip-path="url(#clip932)" style="stroke:#000000; stroke-linecap:round; stroke-linejoin:round; stroke-width:2; stroke-opacity:0.1; fill:none" points="141.853,517.835 2352.76,517.835 "/>
<polyline clip-path="url(#clip932)" style="stroke:#000000; stroke-linecap:round; stroke-linejoin:round; stroke-width:2; stroke-opacity:0.1; fill:none" points="141.853,301.233 2352.76,301.233 "/>
<polyline clip-path="url(#clip932)" style="stroke:#000000; stroke-linecap:round; stroke-linejoin:round; stroke-width:2; stroke-opacity:0.1; fill:none" points="141.853,84.6305 2352.76,84.6305 "/>
<polyline clip-path="url(#clip930)" style="stroke:#000000; stroke-linecap:round; stroke-linejoin:round; stroke-width:4; stroke-opacity:1; fill:none" points="141.853,1423.18 141.853,47.2441 "/>
<polyline clip-path="url(#clip930)" style="stroke:#000000; stroke-linecap:round; stroke-linejoin:round; stroke-width:4; stroke-opacity:1; fill:none" points="141.853,1384.24 160.751,1384.24 "/>
<polyline clip-path="url(#clip930)" style="stroke:#000000; stroke-linecap:round; stroke-linejoin:round; stroke-width:4; stroke-opacity:1; fill:none" points="141.853,1167.64 160.751,1167.64 "/>
<polyline clip-path="url(#clip930)" style="stroke:#000000; stroke-linecap:round; stroke-linejoin:round; stroke-width:4; stroke-opacity:1; fill:none" points="141.853,951.039 160.751,951.039 "/>
<polyline clip-path="url(#clip930)" style="stroke:#000000; stroke-linecap:round; stroke-linejoin:round; stroke-width:4; stroke-opacity:1; fill:none" points="141.853,734.437 160.751,734.437 "/>
<polyline clip-path="url(#clip930)" style="stroke:#000000; stroke-linecap:round; stroke-linejoin:round; stroke-width:4; stroke-opacity:1; fill:none" points="141.853,517.835 160.751,517.835 "/>
<polyline clip-path="url(#clip930)" style="stroke:#000000; stroke-linecap:round; stroke-linejoin:round; stroke-width:4; stroke-opacity:1; fill:none" points="141.853,301.233 160.751,301.233 "/>
<polyline clip-path="url(#clip930)" style="stroke:#000000; stroke-linecap:round; stroke-linejoin:round; stroke-width:4; stroke-opacity:1; fill:none" points="141.853,84.6305 160.751,84.6305 "/>
<path clip-path="url(#clip930)" d="M93.9086 1370.04 Q90.2975 1370.04 88.4688 1373.61 Q86.6632 1377.15 86.6632 1384.28 Q86.6632 1391.38 88.4688 1394.95 Q90.2975 1398.49 93.9086 1398.49 Q97.5428 1398.49 99.3483 1394.95 Q101.177 1391.38 101.177 1384.28 Q101.177 1377.15 99.3483 1373.61 Q97.5428 1370.04 93.9086 1370.04 M93.9086 1366.34 Q99.7187 1366.34 102.774 1370.95 Q105.853 1375.53 105.853 1384.28 Q105.853 1393.01 102.774 1397.61 Q99.7187 1402.2 93.9086 1402.2 Q88.0984 1402.2 85.0197 1397.61 Q81.9642 1393.01 81.9642 1384.28 Q81.9642 1375.53 85.0197 1370.95 Q88.0984 1366.34 93.9086 1366.34 Z" fill="#000000" fill-rule="nonzero" fill-opacity="1" /><path clip-path="url(#clip930)" d="M54.5569 1180.99 L62.1958 1180.99 L62.1958 1154.62 L53.8856 1156.29 L53.8856 1152.03 L62.1495 1150.36 L66.8254 1150.36 L66.8254 1180.99 L74.4642 1180.99 L74.4642 1184.92 L54.5569 1184.92 L54.5569 1180.99 Z" fill="#000000" fill-rule="nonzero" fill-opacity="1" /><path clip-path="url(#clip930)" d="M93.9086 1153.44 Q90.2975 1153.44 88.4688 1157.01 Q86.6632 1160.55 86.6632 1167.68 Q86.6632 1174.78 88.4688 1178.35 Q90.2975 1181.89 93.9086 1181.89 Q97.5428 1181.89 99.3483 1178.35 Q101.177 1174.78 101.177 1167.68 Q101.177 1160.55 99.3483 1157.01 Q97.5428 1153.44 93.9086 1153.44 M93.9086 1149.74 Q99.7187 1149.74 102.774 1154.34 Q105.853 1158.93 105.853 1167.68 Q105.853 1176.4 102.774 1181.01 Q99.7187 1185.59 93.9086 1185.59 Q88.0984 1185.59 85.0197 1181.01 Q81.9642 1176.4 81.9642 1167.68 Q81.9642 1158.93 85.0197 1154.34 Q88.0984 1149.74 93.9086 1149.74 Z" fill="#000000" fill-rule="nonzero" fill-opacity="1" /><path clip-path="url(#clip930)" d="M57.7745 964.384 L74.0939 964.384 L74.0939 968.319 L52.1495 968.319 L52.1495 964.384 Q54.8115 961.63 59.3949 957 Q64.0013 952.347 65.1819 951.005 Q67.4272 948.481 68.3068 946.745 Q69.2096 944.986 69.2096 943.296 Q69.2096 940.542 67.2652 938.806 Q65.3439 937.07 62.2421 937.07 Q60.043 937.07 57.5893 937.833 Q55.1588 938.597 52.381 940.148 L52.381 935.426 Q55.2051 934.292 57.6588 933.713 Q60.1124 933.134 62.1495 933.134 Q67.5198 933.134 70.7142 935.82 Q73.9087 938.505 73.9087 942.995 Q73.9087 945.125 73.0985 947.046 Q72.3115 948.944 70.205 951.537 Q69.6263 952.208 66.5245 955.426 Q63.4226 958.62 57.7745 964.384 Z" fill="#000000" fill-rule="nonzero" fill-opacity="1" /><path clip-path="url(#clip930)" d="M93.9086 936.838 Q90.2975 936.838 88.4688 940.403 Q86.6632 943.944 86.6632 951.074 Q86.6632 958.181 88.4688 961.745 Q90.2975 965.287 93.9086 965.287 Q97.5428 965.287 99.3483 961.745 Q101.177 958.181 101.177 951.074 Q101.177 943.944 99.3483 940.403 Q97.5428 936.838 93.9086 936.838 M93.9086 933.134 Q99.7187 933.134 102.774 937.741 Q105.853 942.324 105.853 951.074 Q105.853 959.801 102.774 964.407 Q99.7187 968.991 93.9086 968.991 Q88.0984 968.991 85.0197 964.407 Q81.9642 959.801 81.9642 951.074 Q81.9642 942.324 85.0197 937.741 Q88.0984 933.134 93.9086 933.134 Z" fill="#000000" fill-rule="nonzero" fill-opacity="1" /><path clip-path="url(#clip930)" d="M67.9133 733.083 Q71.2698 733.801 73.1448 736.069 Q75.0429 738.338 75.0429 741.671 Q75.0429 746.787 71.5244 749.588 Q68.0059 752.388 61.5245 752.388 Q59.3486 752.388 57.0338 751.949 Q54.7421 751.532 52.2884 750.675 L52.2884 746.162 Q54.2328 747.296 56.5477 747.875 Q58.8625 748.453 61.3856 748.453 Q65.7837 748.453 68.0754 746.717 Q70.3902 744.981 70.3902 741.671 Q70.3902 738.615 68.2374 736.902 Q66.1078 735.166 62.2884 735.166 L58.2606 735.166 L58.2606 731.324 L62.4735 731.324 Q65.9226 731.324 67.7513 729.958 Q69.58 728.569 69.58 725.977 Q69.58 723.315 67.6819 721.902 Q65.8069 720.467 62.2884 720.467 Q60.3671 720.467 58.168 720.884 Q55.969 721.301 53.3301 722.18 L53.3301 718.014 Q55.9921 717.273 58.3069 716.903 Q60.6449 716.532 62.705 716.532 Q68.0291 716.532 71.1309 718.963 Q74.2327 721.37 74.2327 725.49 Q74.2327 728.361 72.5892 730.352 Q70.9457 732.319 67.9133 733.083 Z" fill="#000000" fill-rule="nonzero" fill-opacity="1" /><path clip-path="url(#clip930)" d="M93.9086 720.236 Q90.2975 720.236 88.4688 723.801 Q86.6632 727.342 86.6632 734.472 Q86.6632 741.578 88.4688 745.143 Q90.2975 748.685 93.9086 748.685 Q97.5428 748.685 99.3483 745.143 Q101.177 741.578 101.177 734.472 Q101.177 727.342 99.3483 723.801 Q97.5428 720.236 93.9086 720.236 M93.9086 716.532 Q99.7187 716.532 102.774 721.139 Q105.853 725.722 105.853 734.472 Q105.853 743.199 102.774 747.805 Q99.7187 752.388 93.9086 752.388 Q88.0984 752.388 85.0197 747.805 Q81.9642 743.199 81.9642 734.472 Q81.9642 725.722 85.0197 721.139 Q88.0984 716.532 93.9086 716.532 Z" fill="#000000" fill-rule="nonzero" fill-opacity="1" /><path clip-path="url(#clip930)" d="M66.5939 504.629 L54.7884 523.078 L66.5939 523.078 L66.5939 504.629 M65.367 500.555 L71.2466 500.555 L71.2466 523.078 L76.1772 523.078 L76.1772 526.967 L71.2466 526.967 L71.2466 535.115 L66.5939 535.115 L66.5939 526.967 L50.9921 526.967 L50.9921 522.453 L65.367 500.555 Z" fill="#000000" fill-rule="nonzero" fill-opacity="1" /><path clip-path="url(#clip930)" d="M93.9086 503.634 Q90.2975 503.634 88.4688 507.198 Q86.6632 510.74 86.6632 517.87 Q86.6632 524.976 88.4688 528.541 Q90.2975 532.083 93.9086 532.083 Q97.5428 532.083 99.3483 528.541 Q101.177 524.976 101.177 517.87 Q101.177 510.74 99.3483 507.198 Q97.5428 503.634 93.9086 503.634 M93.9086 499.93 Q99.7187 499.93 102.774 504.536 Q105.853 509.12 105.853 517.87 Q105.853 526.596 102.774 531.203 Q99.7187 535.786 93.9086 535.786 Q88.0984 535.786 85.0197 531.203 Q81.9642 526.596 81.9642 517.87 Q81.9642 509.12 85.0197 504.536 Q88.0984 499.93 93.9086 499.93 Z" fill="#000000" fill-rule="nonzero" fill-opacity="1" /><path clip-path="url(#clip930)" d="M53.793 283.953 L72.1494 283.953 L72.1494 287.888 L58.0754 287.888 L58.0754 296.36 Q59.0939 296.013 60.1124 295.851 Q61.131 295.666 62.1495 295.666 Q67.9365 295.666 71.3161 298.837 Q74.6957 302.008 74.6957 307.425 Q74.6957 313.004 71.2235 316.105 Q67.7513 319.184 61.4319 319.184 Q59.256 319.184 56.9875 318.814 Q54.7421 318.443 52.3347 317.703 L52.3347 313.004 Q54.418 314.138 56.6402 314.693 Q58.8625 315.249 61.3393 315.249 Q65.3439 315.249 67.6819 313.142 Q70.0198 311.036 70.0198 307.425 Q70.0198 303.814 67.6819 301.707 Q65.3439 299.601 61.3393 299.601 Q59.4643 299.601 57.5893 300.017 Q55.7375 300.434 53.793 301.314 L53.793 283.953 Z" fill="#000000" fill-rule="nonzero" fill-opacity="1" /><path clip-path="url(#clip930)" d="M93.9086 287.031 Q90.2975 287.031 88.4688 290.596 Q86.6632 294.138 86.6632 301.267 Q86.6632 308.374 88.4688 311.939 Q90.2975 315.48 93.9086 315.48 Q97.5428 315.48 99.3483 311.939 Q101.177 308.374 101.177 301.267 Q101.177 294.138 99.3483 290.596 Q97.5428 287.031 93.9086 287.031 M93.9086 283.328 Q99.7187 283.328 102.774 287.934 Q105.853 292.518 105.853 301.267 Q105.853 309.994 102.774 314.601 Q99.7187 319.184 93.9086 319.184 Q88.0984 319.184 85.0197 314.601 Q81.9642 309.994 81.9642 301.267 Q81.9642 292.518 85.0197 287.934 Q88.0984 283.328 93.9086 283.328 Z" fill="#000000" fill-rule="nonzero" fill-opacity="1" /><path clip-path="url(#clip930)" d="M64.3254 82.7671 Q61.1773 82.7671 59.3254 84.9199 Q57.4967 87.0727 57.4967 90.8226 Q57.4967 94.5495 59.3254 96.7254 Q61.1773 98.8782 64.3254 98.8782 Q67.4735 98.8782 69.3022 96.7254 Q71.1541 94.5495 71.1541 90.8226 Q71.1541 87.0727 69.3022 84.9199 Q67.4735 82.7671 64.3254 82.7671 M73.6077 68.1144 L73.6077 72.3737 Q71.8485 71.5403 70.0429 71.1005 Q68.2606 70.6607 66.5013 70.6607 Q61.8717 70.6607 59.418 73.7857 Q56.9875 76.9107 56.6402 83.2301 Q58.006 81.2162 60.0662 80.1514 Q62.1263 79.0634 64.6032 79.0634 Q69.8115 79.0634 72.8207 82.2347 Q75.8531 85.3829 75.8531 90.8226 Q75.8531 96.1467 72.705 99.3643 Q69.5568 102.582 64.3254 102.582 Q58.33 102.582 55.1588 97.9985 Q51.9875 93.3921 51.9875 84.6653 Q51.9875 76.4709 55.8764 71.6098 Q59.7652 66.7255 66.3161 66.7255 Q68.0754 66.7255 69.8578 67.0728 Q71.6633 67.42 73.6077 68.1144 Z" fill="#000000" fill-rule="nonzero" fill-opacity="1" /><path clip-path="url(#clip930)" d="M93.9086 70.4292 Q90.2975 70.4292 88.4688 73.994 Q86.6632 77.5357 86.6632 84.6653 Q86.6632 91.7717 88.4688 95.3365 Q90.2975 98.8782 93.9086 98.8782 Q97.5428 98.8782 99.3483 95.3365 Q101.177 91.7717 101.177 84.6653 Q101.177 77.5357 99.3483 73.994 Q97.5428 70.4292 93.9086 70.4292 M93.9086 66.7255 Q99.7187 66.7255 102.774 71.332 Q105.853 75.9153 105.853 84.6653 Q105.853 93.3921 102.774 97.9985 Q99.7187 102.582 93.9086 102.582 Q88.0984 102.582 85.0197 97.9985 Q81.9642 93.3921 81.9642 84.6653 Q81.9642 75.9153 85.0197 71.332 Q88.0984 66.7255 93.9086 66.7255 Z" fill="#000000" fill-rule="nonzero" fill-opacity="1" /><polyline clip-path="url(#clip932)" style="stroke:#0000ff; stroke-linecap:round; stroke-linejoin:round; stroke-width:4; stroke-opacity:1; fill:none" points="204.426,1384.24 206.514,1384.24 208.601,1384.24 210.689,1384.24 212.777,1384.24 214.865,1384.24 216.953,1384.24 219.041,1384.23 221.128,1384.23 223.216,1384.23 225.304,1384.23 227.392,1384.23 229.48,1384.23 231.568,1384.23 233.656,1384.23 235.743,1384.23 237.831,1384.23 239.919,1384.22 242.007,1384.22 244.095,1384.22 246.183,1384.22 248.27,1384.22 250.358,1384.22 252.446,1384.21 254.534,1384.21 256.622,1384.21 258.71,1384.21 260.797,1384.2 262.885,1384.2 264.973,1384.2 267.061,1384.19 269.149,1384.19 271.237,1384.19 273.325,1384.18 275.412,1384.18 277.5,1384.17 279.588,1384.17 281.676,1384.16 283.764,1384.15 285.852,1384.15 287.939,1384.14 290.027,1384.13 292.115,1384.12 294.203,1384.11 296.291,1384.1 298.379,1384.09 300.467,1384.08 302.554,1384.07 304.642,1384.06 306.73,1384.04 308.818,1384.03 310.906,1384.01 312.994,1383.99 315.081,1383.97 317.169,1383.95 319.257,1383.93 321.345,1383.91 323.433,1383.88 325.521,1383.86 327.609,1383.83 329.696,1383.79 331.784,1383.76 333.872,1383.72 335.96,1383.68 338.048,1383.64 340.136,1383.6 342.223,1383.55 344.311,1383.49 346.399,1383.44 348.487,1383.38 350.575,1383.31 352.663,1383.24 354.751,1383.17 356.838,1383.08 358.926,1383 361.014,1382.9 363.102,1382.8 365.19,1382.7 367.278,1382.58 369.365,1382.46 371.453,1382.32 373.541,1382.18 375.629,1382.03 377.717,1381.86 379.805,1381.69 381.893,1381.5 383.98,1381.3 386.068,1381.08 388.156,1380.85 390.244,1380.6 392.332,1380.34 394.42,1380.06 396.507,1379.76 398.595,1379.43 400.683,1379.09 402.771,1378.73 404.859,1378.34 406.947,1377.93 409.035,1377.49 411.122,1377.02 413.21,1376.52 415.298,1376 417.386,1375.44 419.474,1374.85 421.562,1374.23 423.649,1373.58 425.737,1372.89 427.825,1372.16 429.913,1371.4 432.001,1370.6 434.089,1369.76 436.177,1368.89 438.264,1367.98 440.352,1367.04 442.44,1366.06 444.528,1365.05 446.616,1364 448.704,1362.93 450.791,1361.82 452.879,1360.7 454.967,1359.55 457.055,1358.38 459.143,1357.2 461.231,1356.01 463.318,1354.81 465.406,1353.62 467.494,1352.43 469.582,1351.25 471.67,1350.09 473.758,1348.94 475.846,1347.83 477.933,1346.74 480.021,1345.68 482.109,1344.67 484.197,1343.69 486.285,1342.76 488.373,1341.87 490.46,1341.02 492.548,1340.22 494.636,1339.45 496.724,1338.72 498.812,1338.02 500.9,1337.35 502.988,1336.69 505.075,1336.04 507.163,1335.4 509.251,1334.74 511.339,1334.06 513.427,1333.35 515.515,1332.6 517.602,1331.78 519.69,1330.9 521.778,1329.93 523.866,1328.86 525.954,1327.67 528.042,1326.37 530.13,1324.92 532.217,1323.31 534.305,1321.54 536.393,1319.59 538.481,1317.45 540.569,1315.11 542.657,1312.55 544.744,1309.76 546.832,1306.74 548.92,1303.48 551.008,1299.97 553.096,1296.19 555.184,1292.16 557.272,1287.86 559.359,1283.28 561.447,1278.44 563.535,1273.33 565.623,1267.95 567.711,1262.31 569.799,1256.41 571.886,1250.28 573.974,1243.91 576.062,1237.33 578.15,1230.57 580.238,1223.63 582.326,1216.54 584.414,1209.35 586.501,1202.07 588.589,1194.75 590.677,1187.43 592.765,1180.14 594.853,1172.94 596.941,1165.86 599.028,1158.96 601.116,1152.28 603.204,1145.88 605.292,1139.8 607.38,1134.1 609.468,1128.8 611.556,1123.96 613.643,1119.62 615.731,1115.81 617.819,1112.55 619.907,1109.88 621.995,1107.8 624.083,1106.33 626.17,1105.47 628.258,1105.22 630.346,1105.57 632.434,1106.49 634.522,1107.97 636.61,1109.98 638.698,1112.47 640.785,1115.41 642.873,1118.76 644.961,1122.45 647.049,1126.45 649.137,1130.7 651.225,1135.14 653.312,1139.71 655.4,1144.36 657.488,1149.02 659.576,1153.66 661.664,1158.2 663.752,1162.61 665.839,1166.82 667.927,1170.79 670.015,1174.48 672.103,1177.85 674.191,1180.84 676.279,1183.44 678.367,1185.6 680.454,1187.3 682.542,1188.5 684.63,1189.19 686.718,1189.34 688.806,1188.94 690.894,1187.97 692.981,1186.42 695.069,1184.27 697.157,1181.53 699.245,1178.19 701.333,1174.24 703.421,1169.7 705.509,1164.58 707.596,1158.87 709.684,1152.61 711.772,1145.8 713.86,1138.47 715.948,1130.66 718.036,1122.4 720.123,1113.72 722.211,1104.67 724.299,1095.3 726.387,1085.67 728.475,1075.84 730.563,1065.87 732.651,1055.84 734.738,1045.83 736.826,1035.91 738.914,1026.16 741.002,1016.67 743.09,1007.52 745.178,998.801 747.265,990.594 749.353,982.98 751.441,976.033 753.529,969.825 755.617,964.417 757.705,959.864 759.793,956.211 761.88,953.491 763.968,951.728 766.056,950.932 768.144,951.102 770.232,952.223 772.32,954.271 774.407,957.207 776.495,960.984 778.583,965.546 780.671,970.825 782.759,976.749 784.847,983.238 786.935,990.21 789.022,997.579 791.11,1005.26 793.198,1013.16 795.286,1021.2 797.374,1029.29 799.462,1037.35 801.549,1045.31 803.637,1053.1 805.725,1060.65 807.813,1067.91 809.901,1074.82 811.989,1081.34 814.077,1087.44 816.164,1093.08 818.252,1098.25 820.34,1102.92 822.428,1107.09 824.516,1110.75 826.604,1113.92 828.691,1116.6 830.779,1118.81 832.867,1120.57 834.955,1121.91 837.043,1122.87 839.131,1123.48 841.219,1123.78 843.306,1123.81 845.394,1123.63 847.482,1123.28 849.57,1122.81 851.658,1122.26 853.746,1121.69 855.833,1121.15 857.921,1120.67 860.009,1120.31 862.097,1120.1 864.185,1120.07 866.273,1120.25 868.36,1120.66 870.448,1121.33 872.536,1122.25 874.624,1123.44 876.712,1124.88 878.8,1126.57 880.888,1128.49 882.975,1130.61 885.063,1132.91 887.151,1135.35 889.239,1137.9 891.327,1140.5 893.415,1143.13 895.502,1145.72 897.59,1148.22 899.678,1150.6 901.766,1152.79 903.854,1154.74 905.942,1156.41 908.03,1157.75 910.117,1158.71 912.205,1159.25 914.293,1159.31 916.381,1158.87 918.469,1157.88 920.557,1156.31 922.644,1154.13 924.732,1151.31 926.82,1147.81 928.908,1143.62 930.996,1138.73 933.084,1133.1 935.172,1126.74 937.259,1119.62 939.347,1111.76 941.435,1103.14 943.523,1093.77 945.611,1083.67 947.699,1072.84 949.786,1061.3 951.874,1049.09 953.962,1036.23 956.05,1022.77 958.138,1008.74 960.226,994.211 962.314,979.23 964.401,963.868 966.489,948.198 968.577,932.301 970.665,916.263 972.753,900.179 974.841,884.145 976.928,868.265 979.016,852.644 981.104,837.391 983.192,822.614 985.28,808.422 987.368,794.922 989.456,782.218 991.543,770.406 993.631,759.579 995.719,749.819 997.807,741.198 999.895,733.779 1001.98,727.61 1004.07,722.728 1006.16,719.152 1008.25,716.89 1010.33,715.934 1012.42,716.26 1014.51,717.83 1016.6,720.594 1018.69,724.486 1020.77,729.431 1022.86,735.343 1024.95,742.125 1027.04,749.677 1029.12,757.89 1031.21,766.652 1033.3,775.852 1035.39,785.375 1037.48,795.109 1039.56,804.946 1041.65,814.78 1043.74,824.514 1045.83,834.054 1047.92,843.315 1050,852.221 1052.09,860.704 1054.18,868.706 1056.27,876.176 1058.35,883.075 1060.44,889.374 1062.53,895.051 1064.62,900.093 1066.71,904.499 1068.79,908.272 1070.88,911.424 1072.97,913.974 1075.06,915.946 1077.15,917.37 1079.23,918.278 1081.32,918.707 1083.41,918.694 1085.5,918.277 1087.58,917.496 1089.67,916.386 1091.76,914.984 1093.85,913.322 1095.94,911.427 1098.02,909.324 1100.11,907.034 1102.2,904.571 1104.29,901.948 1106.37,899.169 1108.46,896.238 1110.55,893.154 1112.64,889.914 1114.73,886.511 1116.81,882.941 1118.9,879.197 1120.99,875.273 1123.08,871.168 1125.17,866.881 1127.25,862.416 1129.34,857.782 1131.43,852.993 1133.52,848.069 1135.6,843.034 1137.69,837.92 1139.78,832.764 1141.87,827.607 1143.96,822.497 1146.04,817.484 1148.13,812.621 1150.22,807.964 1152.31,803.57 1154.4,799.494 1156.48,795.794 1158.57,792.519 1160.66,789.722 1162.75,787.445 1164.83,785.729 1166.92,784.607 1169.01,784.108 1171.1,784.252 1173.19,785.055 1175.27,786.524 1177.36,788.66 1179.45,791.46 1181.54,794.914 1183.63,799.008 1185.71,803.723 1187.8,809.038 1189.89,814.926 1191.98,821.362 1194.06,828.317 1196.15,835.76 1198.24,843.659 1200.33,851.983 1202.42,860.7 1204.5,869.775 1206.59,879.175 1208.68,888.865 1210.77,898.809 1212.85,908.969 1214.94,919.307 1217.03,929.784 1219.12,940.358 1221.21,950.985 1223.29,961.622 1225.38,972.222 1227.47,982.739 1229.56,993.124 1231.65,1003.33 1233.73,1013.3 1235.82,1023 1237.91,1032.38 1240,1041.38 1242.08,1049.96 1244.17,1058.08 1246.26,1065.7 1248.35,1072.78 1250.44,1079.29 1252.52,1085.18 1254.61,1090.44 1256.7,1095.03 1258.79,1098.93 1260.88,1102.13 1262.96,1104.61 1265.05,1106.36 1267.14,1107.37 1269.23,1107.65 1271.31,1107.18 1273.4,1105.98 1275.49,1104.06 1277.58,1101.43 1279.67,1098.1 1281.75,1094.1 1283.84,1089.46 1285.93,1084.2 1288.02,1078.36 1290.11,1071.97 1292.19,1065.08 1294.28,1057.72 1296.37,1049.96 1298.46,1041.83 1300.54,1033.38 1302.63,1024.69 1304.72,1015.79 1306.81,1006.74 1308.9,997.61 1310.98,988.445 1313.07,979.303 1315.16,970.238 1317.25,961.301 1319.34,952.541 1321.42,944.004 1323.51,935.73 1325.6,927.759 1327.69,920.123 1329.77,912.85 1331.86,905.964 1333.95,899.485 1336.04,893.425 1338.13,887.794 1340.21,882.594 1342.3,877.827 1344.39,873.486 1346.48,869.561 1348.56,866.039 1350.65,862.903 1352.74,860.133 1354.83,857.704 1356.92,855.592 1359,853.769 1361.09,852.205 1363.18,850.87 1365.27,849.734 1367.36,848.765 1369.44,847.934 1371.53,847.209 1373.62,846.561 1375.71,845.961 1377.79,845.382 1379.88,844.798 1381.97,844.182 1384.06,843.51 1386.15,842.758 1388.23,841.902 1390.32,840.918 1392.41,839.784 1394.5,838.474 1396.59,836.967 1398.67,835.237 1400.76,833.261 1402.85,831.013 1404.94,828.471 1407.02,825.612 1409.11,822.413 1411.2,818.855 1413.29,814.921 1415.38,810.596 1417.46,805.871 1419.55,800.74 1421.64,795.202 1423.73,789.263 1425.82,782.932 1427.9,776.228 1429.99,769.174 1432.08,761.797 1434.17,754.133 1436.25,746.22 1438.34,738.102 1440.43,729.825 1442.52,721.437 1444.61,712.987 1446.69,704.522 1448.78,696.089 1450.87,687.732 1452.96,679.487 1455.05,671.388 1457.13,663.461 1459.22,655.724 1461.31,648.187 1463.4,640.854 1465.48,633.718 1467.57,626.765 1469.66,619.974 1471.75,613.317 1473.84,606.761 1475.92,600.267 1478.01,593.796 1480.1,587.304 1482.19,580.749 1484.27,574.089 1486.36,567.286 1488.45,560.305 1490.54,553.118 1492.63,545.701 1494.71,538.04 1496.8,530.129 1498.89,521.968 1500.98,513.571 1503.07,504.959 1505.15,496.162 1507.24,487.221 1509.33,478.186 1511.42,469.116 1513.5,460.076 1515.59,451.141 1517.68,442.389 1519.77,433.905 1521.86,425.777 1523.94,418.095 1526.03,410.949 1528.12,404.43 1530.21,398.624 1532.3,393.615 1534.38,389.481 1536.47,386.291 1538.56,384.108 1540.65,382.985 1542.73,382.961 1544.82,384.067 1546.91,386.32 1549,389.725 1551.09,394.272 1553.17,399.941 1555.26,406.698 1557.35,414.497 1559.44,423.283 1561.53,432.991 1563.61,443.547 1565.7,454.872 1567.79,466.881 1569.88,479.488 1571.96,492.606 1574.05,506.147 1576.14,520.026 1578.23,534.165 1580.32,548.489 1582.4,562.93 1584.49,577.429 1586.58,591.933 1588.67,606.4 1590.75,620.797 1592.84,635.096 1594.93,649.282 1597.02,663.344 1599.11,677.277 1601.19,691.082 1603.28,704.766 1605.37,718.335 1607.46,731.797 1609.55,745.163 1611.63,758.438 1613.72,771.627 1615.81,784.732 1617.9,797.748 1619.98,810.667 1622.07,823.475 1624.16,836.153 1626.25,848.674 1628.34,861.009 1630.42,873.121 1632.51,884.97 1634.6,896.513 1636.69,907.702 1638.78,918.488 1640.86,928.822 1642.95,938.653 1645.04,947.93 1647.13,956.607 1649.21,964.635 1651.3,971.972 1653.39,978.579 1655.48,984.421 1657.57,989.466 1659.65,993.69 1661.74,997.074 1663.83,999.603 1665.92,1001.27 1668.01,1002.08 1670.09,1002.04 1672.18,1001.15 1674.27,999.448 1676.36,996.954 1678.44,993.706 1680.53,989.748 1682.62,985.129 1684.71,979.909 1686.8,974.152 1688.88,967.929 1690.97,961.318 1693.06,954.404 1695.15,947.272 1697.24,940.017 1699.32,932.733 1701.41,925.517 1703.5,918.468 1705.59,911.681 1707.67,905.253 1709.76,899.274 1711.85,893.832 1713.94,889.007 1716.03,884.871 1718.11,881.487 1720.2,878.91 1722.29,877.182 1724.38,876.333 1726.46,876.383 1728.55,877.338 1730.64,879.194 1732.73,881.931 1734.82,885.522 1736.9,889.928 1738.99,895.098 1741.08,900.974 1743.17,907.492 1745.26,914.579 1747.34,922.157 1749.43,930.146 1751.52,938.46 1753.61,947.015 1755.69,955.724 1757.78,964.5 1759.87,973.259 1761.96,981.917 1764.05,990.393 1766.13,998.61 1768.22,1006.49 1770.31,1013.97 1772.4,1020.98 1774.49,1027.46 1776.57,1033.35 1778.66,1038.6 1780.75,1043.16 1782.84,1046.98 1784.92,1050.03 1787.01,1052.28 1789.1,1053.69 1791.19,1054.23 1793.28,1053.9 1795.36,1052.66 1797.45,1050.52 1799.54,1047.46 1801.63,1043.47 1803.72,1038.57 1805.8,1032.75 1807.89,1026.02 1809.98,1018.4 1812.07,1009.91 1814.15,1000.57 1816.24,990.408 1818.33,979.448 1820.42,967.727 1822.51,955.284 1824.59,942.16 1826.68,928.398 1828.77,914.047 1830.86,899.156 1832.95,883.778 1835.03,867.966 1837.12,851.778 1839.21,835.27 1841.3,818.502 1843.38,801.533 1845.47,784.423 1847.56,767.233 1849.65,750.026 1851.74,732.861 1853.82,715.802 1855.91,698.91 1858,682.247 1860.09,665.875 1862.17,649.855 1864.26,634.249 1866.35,619.117 1868.44,604.518 1870.53,590.511 1872.61,577.152 1874.7,564.495 1876.79,552.592 1878.88,541.489 1880.97,531.232 1883.05,521.861 1885.14,513.411 1887.23,505.911 1889.32,499.388 1891.4,493.861 1893.49,489.344 1895.58,485.846 1897.67,483.371 1899.76,481.917 1901.84,481.477 1903.93,482.042 1906.02,483.595 1908.11,486.118 1910.2,489.587 1912.28,493.976 1914.37,499.255 1916.46,505.39 1918.55,512.345 1920.63,520.079 1922.72,528.549 1924.81,537.706 1926.9,547.498 1928.99,557.87 1931.07,568.76 1933.16,580.105 1935.25,591.835 1937.34,603.875 1939.43,616.146 1941.51,628.567 1943.6,641.049 1945.69,653.502 1947.78,665.833 1949.86,677.945 1951.95,689.74 1954.04,701.119 1956.13,711.983 1958.22,722.234 1960.3,731.774 1962.39,740.509 1964.48,748.349 1966.57,755.206 1968.65,760.998 1970.74,765.648 1972.83,769.086 1974.92,771.249 1977.01,772.081 1979.09,771.535 1981.18,769.57 1983.27,766.156 1985.36,761.271 1987.45,754.903 1989.53,747.05 1991.62,737.719 1993.71,726.928 1995.8,714.703 1997.88,701.084 1999.97,686.117 2002.06,669.861 2004.15,652.385 2006.24,633.765 2008.32,614.089 2010.41,593.453 2012.5,571.961 2014.59,549.724 2016.68,526.86 2018.76,503.493 2020.85,479.751 2022.94,455.766 2025.03,431.673 2027.11,407.605 2029.2,383.698 2031.29,360.085 2033.38,336.893 2035.47,314.25 2037.55,292.273 2039.64,271.076 2041.73,250.761 2043.82,231.424 2045.91,213.149 2047.99,196.009 2050.08,180.066 2052.17,165.367 2054.26,151.95 2056.34,139.836 2058.43,129.034 2060.52,119.541 2062.61,111.34 2064.7,104.4 2066.78,98.6789 2068.87,94.1248 2070.96,90.674 2073.05,88.2545 2075.14,86.7869 2077.22,86.1857 2079.31,86.3612 2081.4,87.2212 2083.49,88.6728 2085.57,90.6241 2087.66,92.9863 2089.75,95.675 2091.84,98.6118 2093.93,101.726 2096.01,104.956 2098.1,108.249 2100.19,111.564 2102.28,114.869 2104.36,118.146 2106.45,121.386 2108.54,124.591 2110.63,127.775 2112.72,130.96 2114.8,134.177 2116.89,137.466 2118.98,140.873 2121.07,144.447 2123.16,148.244 2125.24,152.32 2127.33,156.734 2129.42,161.544 2131.51,166.807 2133.59,172.576 2135.68,178.903 2137.77,185.833 2139.86,193.409 2141.95,201.664 2144.03,210.627 2146.12,220.321 2148.21,230.758 2150.3,241.948 2152.39,253.887 2154.47,266.568 2156.56,279.974 2158.65,294.081 2160.74,308.857 2162.82,324.263 2164.91,340.251 2167,356.769 2169.09,373.758 2171.18,391.153 2173.26,408.884 2175.35,426.879 2177.44,445.06 2179.53,463.351 2181.62,481.673 2183.7,499.947 2185.79,518.096 2187.88,536.048 2189.97,553.732 2192.05,571.083 2194.14,588.039 2196.23,604.547 2198.32,620.56 2200.41,636.035 2202.49,650.939 2204.58,665.243 2206.67,678.926 2208.76,691.971 2210.85,704.367 2212.93,716.108 2215.02,727.189 2217.11,737.612 2219.2,747.376 2221.28,756.485 2223.37,764.942 2225.46,772.751 2227.55,779.914 2229.64,786.434 2231.72,792.311 2233.81,797.546 2235.9,802.14 2237.99,806.092 2240.07,809.4 2242.16,812.066 2244.25,814.09 2246.34,815.474 2248.43,816.224 2250.51,816.346 2252.6,815.851 2254.69,814.752 2256.78,813.066 2258.87,810.816 2260.95,808.026 2263.04,804.726 2265.13,800.949 2267.22,796.732 2269.3,792.115 2271.39,787.142 2273.48,781.859 2275.57,776.316 2277.66,770.561 2279.74,764.649 2281.83,758.633 2283.92,752.566 2286.01,746.504 2288.1,740.502 2290.18,734.616 "/>
<polyline clip-path="url(#clip932)" style="stroke:#008000; stroke-linecap:round; stroke-linejoin:round; stroke-width:6; stroke-opacity:1; fill:none" points="1247.3,2799.12 1247.3,-1328.69 "/>
<path clip-path="url(#clip930)" d="M215.55 248.629 L533.26 248.629 L533.26 93.1086 L215.55 93.1086  Z" fill="#ffffff" fill-rule="evenodd" fill-opacity="1"/>
<polyline clip-path="url(#clip930)" style="stroke:#000000; stroke-linecap:round; stroke-linejoin:round; stroke-width:4; stroke-opacity:1; fill:none" points="215.55,248.629 533.26,248.629 533.26,93.1086 215.55,93.1086 215.55,248.629 "/>
<polyline clip-path="url(#clip930)" style="stroke:#0000ff; stroke-linecap:round; stroke-linejoin:round; stroke-width:4; stroke-opacity:1; fill:none" points="240.115,144.949 387.509,144.949 "/>
<path clip-path="url(#clip930)" d="M416.75 131.511 L416.75 158.386 L422.398 158.386 Q429.551 158.386 432.861 155.145 Q436.195 151.905 436.195 144.914 Q436.195 137.969 432.861 134.752 Q429.551 131.511 422.398 131.511 L416.75 131.511 M412.074 127.669 L421.681 127.669 Q431.727 127.669 436.426 131.858 Q441.125 136.025 441.125 144.914 Q441.125 153.849 436.403 158.039 Q431.681 162.229 421.681 162.229 L412.074 162.229 L412.074 127.669 Z" fill="#000000" fill-rule="nonzero" fill-opacity="1" /><path clip-path="url(#clip930)" d="M462.607 130.84 Q457.514 130.84 454.505 134.636 Q451.519 138.432 451.519 144.983 Q451.519 151.511 454.505 155.307 Q457.514 159.104 462.607 159.104 Q467.699 159.104 470.662 155.307 Q473.648 151.511 473.648 144.983 Q473.648 138.432 470.662 134.636 Q467.699 130.84 462.607 130.84 M462.607 127.044 Q469.875 127.044 474.227 131.928 Q478.579 136.789 478.579 144.983 Q478.579 153.155 474.227 158.039 Q469.875 162.9 462.607 162.9 Q455.315 162.9 450.94 158.039 Q446.588 153.178 446.588 144.983 Q446.588 136.789 450.94 131.928 Q455.315 127.044 462.607 127.044 Z" fill="#000000" fill-rule="nonzero" fill-opacity="1" /><path clip-path="url(#clip930)" d="M506.611 128.803 L506.611 133.363 Q503.949 132.09 501.588 131.465 Q499.227 130.84 497.028 130.84 Q493.208 130.84 491.125 132.321 Q489.065 133.803 489.065 136.534 Q489.065 138.826 490.43 140.007 Q491.819 141.164 495.662 141.882 L498.486 142.46 Q503.717 143.456 506.194 145.979 Q508.694 148.479 508.694 152.692 Q508.694 157.715 505.315 160.307 Q501.958 162.9 495.454 162.9 Q493 162.9 490.222 162.344 Q487.468 161.789 484.505 160.701 L484.505 155.886 Q487.352 157.483 490.083 158.293 Q492.815 159.104 495.454 159.104 Q499.458 159.104 501.634 157.53 Q503.81 155.956 503.81 153.039 Q503.81 150.493 502.236 149.057 Q500.685 147.622 497.12 146.905 L494.273 146.349 Q489.042 145.307 486.704 143.085 Q484.366 140.863 484.366 136.905 Q484.366 132.321 487.583 129.682 Q490.824 127.044 496.495 127.044 Q498.926 127.044 501.449 127.483 Q503.972 127.923 506.611 128.803 Z" fill="#000000" fill-rule="nonzero" fill-opacity="1" /><polyline clip-path="url(#clip930)" style="stroke:#008000; stroke-linecap:round; stroke-linejoin:round; stroke-width:6; stroke-opacity:1; fill:none" points="240.115,196.789 387.509,196.789 "/>
<path clip-path="url(#clip930)" d="M418.139 200.087 Q415.547 199.532 414.158 198.027 Q412.769 196.546 412.769 194.393 Q412.769 191.129 415.408 189.3 Q418.023 187.495 422.56 187.495 Q424.32 187.495 426.287 187.772 Q428.255 188.05 430.523 188.606 L430.523 192.472 Q428.278 191.8 426.426 191.499 Q424.551 191.198 422.908 191.198 Q420.153 191.198 418.556 192.263 Q416.936 193.328 416.936 194.809 Q416.936 196.43 418.51 197.471 Q420.06 198.49 422.746 198.49 L426.334 198.49 L426.334 202.008 L422.908 202.008 Q419.736 202.008 418.07 203.189 Q416.264 204.485 416.264 206.522 Q416.264 208.606 418.209 209.902 Q420.176 211.198 423.672 211.198 Q425.824 211.198 427.792 210.782 Q429.76 210.342 431.403 209.485 L431.403 213.444 Q429.32 214.092 427.375 214.416 Q425.408 214.74 423.556 214.74 Q418.047 214.74 415.061 212.633 Q412.074 210.527 412.074 206.522 Q412.074 204.022 413.672 202.333 Q415.269 200.643 418.139 200.087 Z" fill="#000000" fill-rule="nonzero" fill-opacity="1" /><path clip-path="url(#clip930)" d="M439.273 179.509 L459.134 179.509 L459.134 183.444 L443.949 183.444 L443.949 193.629 L457.653 193.629 L457.653 197.564 L443.949 197.564 L443.949 214.069 L439.273 214.069 L439.273 179.509 Z" fill="#000000" fill-rule="nonzero" fill-opacity="1" /></svg>
