<?xml version="1.0" encoding="utf-8"?>
<svg xmlns="http://www.w3.org/2000/svg" xmlns:xlink="http://www.w3.org/1999/xlink" width="600" height="400" viewBox="0 0 2400 1600">
<defs>
  <clipPath id="clip710">
    <rect x="0" y="0" width="2400" height="1600"/>
  </clipPath>
</defs>
<path clip-path="url(#clip710)" d="M0 1600 L2400 1600 L2400 0 L0 0  Z" fill="#ffffff" fill-rule="evenodd" fill-opacity="1"/>
<defs>
  <clipPath id="clip711">
    <rect x="194" y="47" width="2159" height="1440"/>
  </clipPath>
</defs>
<path clip-path="url(#clip710)" d="M194.422 1486.45 L2352.76 1486.45 L2352.76 47.2441 L194.422 47.2441  Z" fill="#ffffff" fill-rule="evenodd" fill-opacity="1"/>
<polyline clip-path="url(#clip711)" style="stroke:#000000; stroke-linecap:round; stroke-linejoin:round; stroke-width:2; stroke-opacity:0.1; fill:none" points="194.422,1486.45 194.422,47.2441 "/>
<polyline clip-path="url(#clip711)" style="stroke:#000000; stroke-linecap:round; stroke-linejoin:round; stroke-width:2; stroke-opacity:0.1; fill:none" points="734.006,1486.45 734.006,47.2441 "/>
<polyline clip-path="url(#clip711)" style="stroke:#000000; stroke-linecap:round; stroke-linejoin:round; stroke-width:2; stroke-opacity:0.1; fill:none" points="1273.59,1486.45 1273.59,47.2441 "/>
<polyline clip-path="url(#clip711)" style="stroke:#000000; stroke-linecap:round; stroke-linejoin:round; stroke-width:2; stroke-opacity:0.1; fill:none" points="1813.17,1486.45 1813.17,47.2441 "/>
<polyline clip-path="url(#clip711)" style="stroke:#000000; stroke-linecap:round; stroke-linejoin:round; stroke-width:2; stroke-opacity:0.1; fill:none" points="2352.76,1486.45 2352.76,47.2441 "/>
<polyline clip-path="url(#clip711)" style="stroke:#000000; stroke-linecap:round; stroke-linejoin:round; stroke-width:2; stroke-opacity:0.1; fill:none" points="194.422,1385.07 2352.76,1385.07 "/>
<polyline clip-path="url(#clip711)" style="stroke:#000000; stroke-linecap:round; stroke-linejoin:round; stroke-width:2; stroke-opacity:0.1; fill:none" points="194.422,1110.46 2352.76,1110.46 "/>
<polyline clip-path="url(#clip711)" style="stroke:#000000; stroke-linecap:round; stroke-linejoin:round; stroke-width:2; stroke-opacity:0.1; fill:none" points="194.422,835.846 2352.76,835.846 "/>
<polyline clip-path="url(#clip711)" style="stroke:#000000; stroke-linecap:round; stroke-linejoin:round; stroke-width:2; stroke-opacity:0.1; fill:none" points="194.422,561.232 2352.76,561.232 "/>
<polyline clip-path="url(#clip711)" style="stroke:#000000; stroke-linecap:round; stroke-linejoin:round; stroke-width:2; stroke-opacity:0.1; fill:none" points="194.422,286.619 2352.76,286.619 "/>
<polyline clip-path="url(#clip710)" style="stroke:#000000; stroke-linecap:round; stroke-linejoin:round; stroke-width:4; stroke-opacity:1; fill:none" points="194.422,1486.45 2352.76,1486.45 "/>
<polyline clip-path="url(#clip710)" style="stroke:#000000; stroke-linecap:round; stroke-linejoin:round; stroke-width:4; stroke-opacity:1; fill:none" points="194.422,1486.45 194.422,1467.55 "/>
<polyline clip-path="url(#clip710)" style="stroke:#000000; stroke-linecap:round; stroke-linejoin:round; stroke-width:4; stroke-opacity:1; fill:none" points="734.006,1486.45 734.006,1467.55 "/>
<polyline clip-path="url(#clip710)" style="stroke:#000000; stroke-linecap:round; stroke-linejoin:round; stroke-width:4; stroke-opacity:1; fill:none" points="1273.59,1486.45 1273.59,1467.55 "/>
<polyline clip-path="url(#clip710)" style="stroke:#000000; stroke-linecap:round; stroke-linejoin:round; stroke-width:4; stroke-opacity:1; fill:none" points="1813.17,1486.45 1813.17,1467.55 "/>
<polyline clip-path="url(#clip710)" style="stroke:#000000; stroke-linecap:round; stroke-linejoin:round; stroke-width:4; stroke-opacity:1; fill:none" points="2352.76,1486.45 2352.76,1467.55 "/>
<path clip-path="url(#clip710)" d="M148.485 1532.02 L178.161 1532.02 L178.161 1535.95 L148.485 1535.95 L148.485 1532.02 Z" fill="#000000" fill-rule="nonzero" fill-opacity="1" /><path clip-path="url(#clip710)" d="M189.063 1544.91 L196.702 1544.91 L196.702 1518.55 L188.392 1520.21 L188.392 1515.95 L196.656 1514.29 L201.332 1514.29 L201.332 1544.91 L208.971 1544.91 L208.971 1548.85 L189.063 1548.85 L189.063 1544.91 Z" fill="#000000" fill-rule="nonzero" fill-opacity="1" /><path clip-path="url(#clip710)" d="M228.415 1517.37 Q224.804 1517.37 222.975 1520.93 Q221.17 1524.47 221.17 1531.6 Q221.17 1538.71 222.975 1542.27 Q224.804 1545.82 228.415 1545.82 Q232.049 1545.82 233.855 1542.27 Q235.683 1538.71 235.683 1531.6 Q235.683 1524.47 233.855 1520.93 Q232.049 1517.37 228.415 1517.37 M228.415 1513.66 Q234.225 1513.66 237.281 1518.27 Q240.359 1522.85 240.359 1531.6 Q240.359 1540.33 237.281 1544.94 Q234.225 1549.52 228.415 1549.52 Q222.605 1549.52 219.526 1544.94 Q216.471 1540.33 216.471 1531.6 Q216.471 1522.85 219.526 1518.27 Q222.605 1513.66 228.415 1513.66 Z" fill="#000000" fill-rule="nonzero" fill-opacity="1" /><path clip-path="url(#clip710)" d="M703.647 1532.02 L733.323 1532.02 L733.323 1535.95 L703.647 1535.95 L703.647 1532.02 Z" fill="#000000" fill-rule="nonzero" fill-opacity="1" /><path clip-path="url(#clip710)" d="M743.462 1514.29 L761.818 1514.29 L761.818 1518.22 L747.744 1518.22 L747.744 1526.7 Q748.762 1526.35 749.781 1526.19 Q750.799 1526 751.818 1526 Q757.605 1526 760.985 1529.17 Q764.364 1532.34 764.364 1537.76 Q764.364 1543.34 760.892 1546.44 Q757.42 1549.52 751.1 1549.52 Q748.924 1549.52 746.656 1549.15 Q744.411 1548.78 742.003 1548.04 L742.003 1543.34 Q744.087 1544.47 746.309 1545.03 Q748.531 1545.58 751.008 1545.58 Q755.012 1545.58 757.35 1543.48 Q759.688 1541.37 759.688 1537.76 Q759.688 1534.15 757.35 1532.04 Q755.012 1529.94 751.008 1529.94 Q749.133 1529.94 747.258 1530.35 Q745.406 1530.77 743.462 1531.65 L743.462 1514.29 Z" fill="#000000" fill-rule="nonzero" fill-opacity="1" /><path clip-path="url(#clip710)" d="M1273.59 1517.37 Q1269.98 1517.37 1268.15 1520.93 Q1266.34 1524.47 1266.34 1531.6 Q1266.34 1538.71 1268.15 1542.27 Q1269.98 1545.82 1273.59 1545.82 Q1277.22 1545.82 1279.03 1542.27 Q1280.86 1538.71 1280.86 1531.6 Q1280.86 1524.47 1279.03 1520.93 Q1277.22 1517.37 1273.59 1517.37 M1273.59 1513.66 Q1279.4 1513.66 1282.45 1518.27 Q1285.53 1522.85 1285.53 1531.6 Q1285.53 1540.33 1282.45 1544.94 Q1279.4 1549.52 1273.59 1549.52 Q1267.78 1549.52 1264.7 1544.94 Q1261.64 1540.33 1261.64 1531.6 Q1261.64 1522.85 1264.7 1518.27 Q1267.78 1513.66 1273.59 1513.66 Z" fill="#000000" fill-rule="nonzero" fill-opacity="1" /><path clip-path="url(#clip710)" d="M1803.45 1514.29 L1821.81 1514.29 L1821.81 1518.22 L1807.73 1518.22 L1807.73 1526.7 Q1808.75 1526.35 1809.77 1526.19 Q1810.79 1526 1811.81 1526 Q1817.59 1526 1820.97 1529.17 Q1824.35 1532.34 1824.35 1537.76 Q1824.35 1543.34 1820.88 1546.44 Q1817.41 1549.52 1811.09 1549.52 Q1808.91 1549.52 1806.64 1549.15 Q1804.4 1548.78 1801.99 1548.04 L1801.99 1543.34 Q1804.08 1544.47 1806.3 1545.03 Q1808.52 1545.58 1811 1545.58 Q1815 1545.58 1817.34 1543.48 Q1819.68 1541.37 1819.68 1537.76 Q1819.68 1534.15 1817.34 1532.04 Q1815 1529.94 1811 1529.94 Q1809.12 1529.94 1807.25 1530.35 Q1805.39 1530.77 1803.45 1531.65 L1803.45 1514.29 Z" fill="#000000" fill-rule="nonzero" fill-opacity="1" /><path clip-path="url(#clip710)" d="M2327.44 1544.91 L2335.08 1544.91 L2335.08 1518.55 L2326.77 1520.21 L2326.77 1515.95 L2335.04 1514.29 L2339.71 1514.29 L2339.71 1544.91 L2347.35 1544.91 L2347.35 1548.85 L2327.44 1548.85 L2327.44 1544.91 Z" fill="#000000" fill-rule="nonzero" fill-opacity="1" /><path clip-path="url(#clip710)" d="M2366.8 1517.37 Q2363.18 1517.37 2361.36 1520.93 Q2359.55 1524.47 2359.55 1531.6 Q2359.55 1538.71 2361.36 1542.27 Q2363.18 1545.82 2366.8 1545.82 Q2370.43 1545.82 2372.23 1542.27 Q2374.06 1538.71 2374.06 1531.6 Q2374.06 1524.47 2372.23 1520.93 Q2370.43 1517.37 2366.8 1517.37 M2366.8 1513.66 Q2372.61 1513.66 2375.66 1518.27 Q2378.74 1522.85 2378.74 1531.6 Q2378.74 1540.33 2375.66 1544.94 Q2372.61 1549.52 2366.8 1549.52 Q2360.99 1549.52 2357.91 1544.94 Q2354.85 1540.33 2354.85 1531.6 Q2354.85 1522.85 2357.91 1518.27 Q2360.99 1513.66 2366.8 1513.66 Z" fill="#000000" fill-rule="nonzero" fill-opacity="1" /><polyline clip-path="url(#clip710)" style="stroke:#000000; stroke-linecap:round; stroke-linejoin:round; stroke-width:4; stroke-opacity:1; fill:none" points="194.422,1486.45 194.422,47.2441 "/>
<polyline clip-path="url(#clip710)" style="stroke:#000000; stroke-linecap:round; stroke-linejoin:round; stroke-width:4; stroke-opacity:1; fill:none" points="194.422,1385.07 213.32,1385.07 "/>
<polyline clip-path="url(#clip710)" style="stroke:#000000; stroke-linecap:round; stroke-linejoin:round; stroke-width:4; stroke-opacity:1; fill:none" points="194.422,1110.46 213.32,1110.46 "/>
<polyline clip-path="url(#clip710)" style="stroke:#000000; stroke-linecap:round; stroke-linejoin:round; stroke-width:4; stroke-opacity:1; fill:none" points="194.422,835.846 213.32,835.846 "/>
<polyline clip-path="url(#clip710)" style="stroke:#000000; stroke-linecap:round; stroke-linejoin:round; stroke-width:4; stroke-opacity:1; fill:none" points="194.422,561.232 213.32,561.232 "/>
<polyline clip-path="url(#clip710)" style="stroke:#000000; stroke-linecap:round; stroke-linejoin:round; stroke-width:4; stroke-opacity:1; fill:none" points="194.422,286.619 213.32,286.619 "/>
<path clip-path="url(#clip710)" d="M51.3162 1385.52 L80.992 1385.52 L80.992 1389.46 L51.3162 1389.46 L51.3162 1385.52 Z" fill="#000000" fill-rule="nonzero" fill-opacity="1" /><path clip-path="url(#clip710)" d="M101.084 1370.87 Q97.4734 1370.87 95.6447 1374.44 Q93.8391 1377.98 93.8391 1385.11 Q93.8391 1392.21 95.6447 1395.78 Q97.4734 1399.32 101.084 1399.32 Q104.719 1399.32 106.524 1395.78 Q108.353 1392.21 108.353 1385.11 Q108.353 1377.98 106.524 1374.44 Q104.719 1370.87 101.084 1370.87 M101.084 1367.17 Q106.895 1367.17 109.95 1371.77 Q113.029 1376.36 113.029 1385.11 Q113.029 1393.83 109.95 1398.44 Q106.895 1403.02 101.084 1403.02 Q95.2743 1403.02 92.1956 1398.44 Q89.1401 1393.83 89.1401 1385.11 Q89.1401 1376.36 92.1956 1371.77 Q95.2743 1367.17 101.084 1367.17 Z" fill="#000000" fill-rule="nonzero" fill-opacity="1" /><path clip-path="url(#clip710)" d="M121.246 1396.47 L126.131 1396.47 L126.131 1402.35 L121.246 1402.35 L121.246 1396.47 Z" fill="#000000" fill-rule="nonzero" fill-opacity="1" /><path clip-path="url(#clip710)" d="M146.894 1383.21 Q143.746 1383.21 141.894 1385.36 Q140.066 1387.51 140.066 1391.26 Q140.066 1394.99 141.894 1397.17 Q143.746 1399.32 146.894 1399.32 Q150.043 1399.32 151.871 1397.17 Q153.723 1394.99 153.723 1391.26 Q153.723 1387.51 151.871 1385.36 Q150.043 1383.21 146.894 1383.21 M156.177 1368.56 L156.177 1372.82 Q154.417 1371.98 152.612 1371.54 Q150.83 1371.1 149.07 1371.1 Q144.441 1371.1 141.987 1374.23 Q139.556 1377.35 139.209 1383.67 Q140.575 1381.66 142.635 1380.59 Q144.695 1379.51 147.172 1379.51 Q152.38 1379.51 155.39 1382.68 Q158.422 1385.82 158.422 1391.26 Q158.422 1396.59 155.274 1399.81 Q152.126 1403.02 146.894 1403.02 Q140.899 1403.02 137.728 1398.44 Q134.556 1393.83 134.556 1385.11 Q134.556 1376.91 138.445 1372.05 Q142.334 1367.17 148.885 1367.17 Q150.644 1367.17 152.427 1367.51 Q154.232 1367.86 156.177 1368.56 Z" fill="#000000" fill-rule="nonzero" fill-opacity="1" /><path clip-path="url(#clip710)" d="M50.9921 1110.91 L80.6679 1110.91 L80.6679 1114.85 L50.9921 1114.85 L50.9921 1110.91 Z" fill="#000000" fill-rule="nonzero" fill-opacity="1" /><path clip-path="url(#clip710)" d="M100.76 1096.26 Q97.1493 1096.26 95.3206 1099.82 Q93.515 1103.36 93.515 1110.49 Q93.515 1117.6 95.3206 1121.17 Q97.1493 1124.71 100.76 1124.71 Q104.395 1124.71 106.2 1121.17 Q108.029 1117.6 108.029 1110.49 Q108.029 1103.36 106.2 1099.82 Q104.395 1096.26 100.76 1096.26 M100.76 1092.55 Q106.571 1092.55 109.626 1097.16 Q112.705 1101.74 112.705 1110.49 Q112.705 1119.22 109.626 1123.83 Q106.571 1128.41 100.76 1128.41 Q94.9502 1128.41 91.8715 1123.83 Q88.816 1119.22 88.816 1110.49 Q88.816 1101.74 91.8715 1097.16 Q94.9502 1092.55 100.76 1092.55 Z" fill="#000000" fill-rule="nonzero" fill-opacity="1" /><path clip-path="url(#clip710)" d="M120.922 1121.86 L125.807 1121.86 L125.807 1127.74 L120.922 1127.74 L120.922 1121.86 Z" fill="#000000" fill-rule="nonzero" fill-opacity="1" /><path clip-path="url(#clip710)" d="M148.839 1097.25 L137.033 1115.7 L148.839 1115.7 L148.839 1097.25 M147.612 1093.18 L153.492 1093.18 L153.492 1115.7 L158.422 1115.7 L158.422 1119.59 L153.492 1119.59 L153.492 1127.74 L148.839 1127.74 L148.839 1119.59 L133.237 1119.59 L133.237 1115.08 L147.612 1093.18 Z" fill="#000000" fill-rule="nonzero" fill-opacity="1" /><path clip-path="url(#clip710)" d="M53.0754 836.297 L82.7512 836.297 L82.7512 840.232 L53.0754 840.232 L53.0754 836.297 Z" fill="#000000" fill-rule="nonzero" fill-opacity="1" /><path clip-path="url(#clip710)" d="M102.844 821.644 Q99.2326 821.644 97.4039 825.209 Q95.5984 828.751 95.5984 835.88 Q95.5984 842.987 97.4039 846.552 Q99.2326 850.093 102.844 850.093 Q106.478 850.093 108.283 846.552 Q110.112 842.987 110.112 835.88 Q110.112 828.751 108.283 825.209 Q106.478 821.644 102.844 821.644 M102.844 817.941 Q108.654 817.941 111.709 822.547 Q114.788 827.13 114.788 835.88 Q114.788 844.607 111.709 849.214 Q108.654 853.797 102.844 853.797 Q97.0335 853.797 93.9549 849.214 Q90.8993 844.607 90.8993 835.88 Q90.8993 827.13 93.9549 822.547 Q97.0335 817.941 102.844 817.941 Z" fill="#000000" fill-rule="nonzero" fill-opacity="1" /><path clip-path="url(#clip710)" d="M123.006 847.246 L127.89 847.246 L127.89 853.126 L123.006 853.126 L123.006 847.246 Z" fill="#000000" fill-rule="nonzero" fill-opacity="1" /><path clip-path="url(#clip710)" d="M142.103 849.191 L158.422 849.191 L158.422 853.126 L136.478 853.126 L136.478 849.191 Q139.14 846.436 143.723 841.806 Q148.33 837.154 149.51 835.811 Q151.755 833.288 152.635 831.552 Q153.538 829.793 153.538 828.103 Q153.538 825.348 151.593 823.612 Q149.672 821.876 146.57 821.876 Q144.371 821.876 141.918 822.64 Q139.487 823.404 136.709 824.955 L136.709 820.232 Q139.533 819.098 141.987 818.519 Q144.441 817.941 146.478 817.941 Q151.848 817.941 155.042 820.626 Q158.237 823.311 158.237 827.802 Q158.237 829.931 157.427 831.853 Q156.64 833.751 154.533 836.343 Q153.955 837.015 150.853 840.232 Q147.751 843.427 142.103 849.191 Z" fill="#000000" fill-rule="nonzero" fill-opacity="1" /><path clip-path="url(#clip710)" d="M101.246 547.031 Q97.6354 547.031 95.8067 550.596 Q94.0012 554.137 94.0012 561.267 Q94.0012 568.373 95.8067 571.938 Q97.6354 575.48 101.246 575.48 Q104.881 575.48 106.686 571.938 Q108.515 568.373 108.515 561.267 Q108.515 554.137 106.686 550.596 Q104.881 547.031 101.246 547.031 M101.246 543.327 Q107.057 543.327 110.112 547.934 Q113.191 552.517 113.191 561.267 Q113.191 569.994 110.112 574.6 Q107.057 579.184 101.246 579.184 Q95.4363 579.184 92.3576 574.6 Q89.3021 569.994 89.3021 561.267 Q89.3021 552.517 92.3576 547.934 Q95.4363 543.327 101.246 543.327 Z" fill="#000000" fill-rule="nonzero" fill-opacity="1" /><path clip-path="url(#clip710)" d="M121.408 572.633 L126.293 572.633 L126.293 578.512 L121.408 578.512 L121.408 572.633 Z" fill="#000000" fill-rule="nonzero" fill-opacity="1" /><path clip-path="url(#clip710)" d="M146.478 547.031 Q142.867 547.031 141.038 550.596 Q139.232 554.137 139.232 561.267 Q139.232 568.373 141.038 571.938 Q142.867 575.48 146.478 575.48 Q150.112 575.48 151.918 571.938 Q153.746 568.373 153.746 561.267 Q153.746 554.137 151.918 550.596 Q150.112 547.031 146.478 547.031 M146.478 543.327 Q152.288 543.327 155.343 547.934 Q158.422 552.517 158.422 561.267 Q158.422 569.994 155.343 574.6 Q152.288 579.184 146.478 579.184 Q140.668 579.184 137.589 574.6 Q134.533 569.994 134.533 561.267 Q134.533 552.517 137.589 547.934 Q140.668 543.327 146.478 543.327 Z" fill="#000000" fill-rule="nonzero" fill-opacity="1" /><path clip-path="url(#clip710)" d="M102.844 272.418 Q99.2326 272.418 97.4039 275.982 Q95.5984 279.524 95.5984 286.654 Q95.5984 293.76 97.4039 297.325 Q99.2326 300.866 102.844 300.866 Q106.478 300.866 108.283 297.325 Q110.112 293.76 110.112 286.654 Q110.112 279.524 108.283 275.982 Q106.478 272.418 102.844 272.418 M102.844 268.714 Q108.654 268.714 111.709 273.32 Q114.788 277.904 114.788 286.654 Q114.788 295.38 111.709 299.987 Q108.654 304.57 102.844 304.57 Q97.0335 304.57 93.9549 299.987 Q90.8993 295.38 90.8993 286.654 Q90.8993 277.904 93.9549 273.32 Q97.0335 268.714 102.844 268.714 Z" fill="#000000" fill-rule="nonzero" fill-opacity="1" /><path clip-path="url(#clip710)" d="M123.006 298.019 L127.89 298.019 L127.89 303.899 L123.006 303.899 L123.006 298.019 Z" fill="#000000" fill-rule="nonzero" fill-opacity="1" /><path clip-path="url(#clip710)" d="M142.103 299.964 L158.422 299.964 L158.422 303.899 L136.478 303.899 L136.478 299.964 Q139.14 297.209 143.723 292.579 Q148.33 287.927 149.51 286.584 Q151.755 284.061 152.635 282.325 Q153.538 280.566 153.538 278.876 Q153.538 276.121 151.593 274.385 Q149.672 272.649 146.57 272.649 Q144.371 272.649 141.918 273.413 Q139.487 274.177 136.709 275.728 L136.709 271.005 Q139.533 269.871 141.987 269.293 Q144.441 268.714 146.478 268.714 Q151.848 268.714 155.042 271.399 Q158.237 274.084 158.237 278.575 Q158.237 280.704 157.427 282.626 Q156.64 284.524 154.533 287.116 Q153.955 287.788 150.853 291.005 Q147.751 294.2 142.103 299.964 Z" fill="#000000" fill-rule="nonzero" fill-opacity="1" /><polyline clip-path="url(#clip711)" style="stroke:#009af9; stroke-linecap:round; stroke-linejoin:round; stroke-width:4; stroke-opacity:1; fill:none" points="1273.59,1192.87 1381.51,223.266 1489.42,629.23 1597.34,554.44 1705.26,561.631 1813.17,561.217 1921.09,561.233 2029.01,561.232 2136.92,561.232 2244.84,561.232 2352.76,561.232 2460.67,561.232 2568.59,561.232 2676.51,561.232 2784.42,561.232 2892.34,561.232 3000.26,561.232 3108.17,561.232 3216.09,561.232 3324.01,561.232 3431.92,561.232 3539.84,561.232 3647.76,561.232 3755.67,561.232 3863.59,561.232 3971.51,561.232 4079.42,561.232 4187.34,561.232 4295.26,561.232 4403.17,561.232 4511.09,561.232 4619.01,561.232 -2071.83,561.232 -1963.91,561.232 -1856,561.232 -1748.08,561.232 -1640.16,561.232 -1532.24,561.232 -1424.33,561.232 -1316.41,561.232 -1208.49,561.232 -1100.58,561.232 -992.661,561.232 -884.745,561.232 -776.828,561.232 -668.911,561.232 -560.995,561.232 -453.078,561.232 -345.161,561.232 -237.245,561.232 -129.328,561.232 -21.4113,561.232 86.5054,561.232 194.422,561.232 302.339,561.232 410.255,561.232 518.172,561.232 626.089,561.233 734.006,561.217 841.922,561.631 949.839,554.44 1057.76,629.23 1165.67,223.266 "/>
<polyline clip-path="url(#clip711)" style="stroke:#e26f46; stroke-linecap:round; stroke-linejoin:round; stroke-width:4; stroke-opacity:1; fill:none" points="1273.59,1445.72 1381.51,87.9763 1489.42,656.45 1597.34,551.721 1705.26,561.791 1813.17,561.211 1921.09,561.233 2029.01,561.232 2136.92,561.232 2244.84,561.232 2352.76,561.232 2460.67,561.232 2568.59,561.232 2676.51,561.232 2784.42,561.232 2892.34,561.232 3000.26,561.232 3108.17,561.232 3216.09,561.232 3324.01,561.232 3431.92,561.232 3539.84,561.232 3647.76,561.232 3755.67,561.232 3863.59,561.232 3971.51,561.232 4079.42,561.232 4187.34,561.232 4295.26,561.232 4403.17,561.232 4511.09,561.232 4619.01,561.232 -2071.83,561.232 -1963.91,561.232 -1856,561.232 -1748.08,561.232 -1640.16,561.232 -1532.24,561.232 -1424.33,561.232 -1316.41,561.232 -1208.49,561.232 -1100.58,561.232 -992.661,561.232 -884.745,561.232 -776.828,561.232 -668.911,561.232 -560.995,561.232 -453.078,561.232 -345.161,561.232 -237.245,561.232 -129.328,561.232 -21.4113,561.232 86.5054,561.232 194.422,561.232 302.339,561.232 410.255,561.232 518.172,561.232 626.089,561.233 734.006,561.211 841.922,561.791 949.839,551.721 1057.76,656.45 1165.67,87.9763 "/>
<path clip-path="url(#clip710)" d="M1719.98 250.738 L2280.81 250.738 L2280.81 95.2176 L1719.98 95.2176  Z" fill="#ffffff" fill-rule="evenodd" fill-opacity="1"/>
<polyline clip-path="url(#clip710)" style="stroke:#000000; stroke-linecap:round; stroke-linejoin:round; stroke-width:4; stroke-opacity:1; fill:none" points="1719.98,250.738 2280.81,250.738 2280.81,95.2176 1719.98,95.2176 1719.98,250.738 "/>
<polyline clip-path="url(#clip710)" style="stroke:#009af9; stroke-linecap:round; stroke-linejoin:round; stroke-width:4; stroke-opacity:1; fill:none" points="1743.96,147.058 1887.85,147.058 "/>
<path clip-path="url(#clip710)" d="M1927.02 142.393 Q1926.3 141.977 1925.44 141.791 Q1924.61 141.583 1923.59 141.583 Q1919.98 141.583 1918.04 143.944 Q1916.11 146.282 1916.11 150.68 L1916.11 164.338 L1911.83 164.338 L1911.83 138.412 L1916.11 138.412 L1916.11 142.44 Q1917.46 140.078 1919.61 138.944 Q1921.76 137.787 1924.84 137.787 Q1925.28 137.787 1925.81 137.856 Q1926.35 137.903 1926.99 138.018 L1927.02 142.393 Z" fill="#000000" fill-rule="nonzero" fill-opacity="1" /><path clip-path="url(#clip710)" d="M1952.62 150.31 L1952.62 152.393 L1933.04 152.393 Q1933.31 156.791 1935.67 159.106 Q1938.06 161.398 1942.29 161.398 Q1944.75 161.398 1947.04 160.796 Q1949.35 160.194 1951.62 158.99 L1951.62 163.018 Q1949.33 163.99 1946.92 164.5 Q1944.52 165.009 1942.04 165.009 Q1935.84 165.009 1932.2 161.398 Q1928.59 157.787 1928.59 151.629 Q1928.59 145.264 1932.02 141.537 Q1935.47 137.787 1941.3 137.787 Q1946.53 137.787 1949.56 141.166 Q1952.62 144.523 1952.62 150.31 M1948.36 149.06 Q1948.31 145.565 1946.39 143.481 Q1944.49 141.398 1941.35 141.398 Q1937.78 141.398 1935.63 143.412 Q1933.5 145.426 1933.17 149.083 L1948.36 149.06 Z" fill="#000000" fill-rule="nonzero" fill-opacity="1" /><path clip-path="url(#clip710)" d="M1971.39 151.305 Q1966.23 151.305 1964.24 152.486 Q1962.25 153.666 1962.25 156.514 Q1962.25 158.782 1963.73 160.125 Q1965.23 161.444 1967.8 161.444 Q1971.35 161.444 1973.47 158.944 Q1975.63 156.421 1975.63 152.254 L1975.63 151.305 L1971.39 151.305 M1979.89 149.546 L1979.89 164.338 L1975.63 164.338 L1975.63 160.402 Q1974.17 162.763 1971.99 163.898 Q1969.82 165.009 1966.67 165.009 Q1962.69 165.009 1960.33 162.787 Q1957.99 160.541 1957.99 156.791 Q1957.99 152.416 1960.91 150.194 Q1963.85 147.972 1969.66 147.972 L1975.63 147.972 L1975.63 147.555 Q1975.63 144.615 1973.68 143.018 Q1971.76 141.398 1968.27 141.398 Q1966.04 141.398 1963.94 141.93 Q1961.83 142.463 1959.89 143.527 L1959.89 139.592 Q1962.23 138.69 1964.42 138.25 Q1966.62 137.787 1968.71 137.787 Q1974.33 137.787 1977.11 140.703 Q1979.89 143.62 1979.89 149.546 Z" fill="#000000" fill-rule="nonzero" fill-opacity="1" /><path clip-path="url(#clip710)" d="M1988.66 128.319 L1992.92 128.319 L1992.92 164.338 L1988.66 164.338 L1988.66 128.319 Z" fill="#000000" fill-rule="nonzero" fill-opacity="1" /><path clip-path="url(#clip710)" d="M2021.02 160.449 L2021.02 174.199 L2016.74 174.199 L2016.74 138.412 L2021.02 138.412 L2021.02 142.347 Q2022.36 140.032 2024.4 138.921 Q2026.46 137.787 2029.31 137.787 Q2034.03 137.787 2036.97 141.537 Q2039.93 145.287 2039.93 151.398 Q2039.93 157.509 2036.97 161.259 Q2034.03 165.009 2029.31 165.009 Q2026.46 165.009 2024.4 163.898 Q2022.36 162.763 2021.02 160.449 M2035.51 151.398 Q2035.51 146.699 2033.57 144.037 Q2031.65 141.352 2028.27 141.352 Q2024.89 141.352 2022.94 144.037 Q2021.02 146.699 2021.02 151.398 Q2021.02 156.097 2022.94 158.782 Q2024.89 161.444 2028.27 161.444 Q2031.65 161.444 2033.57 158.782 Q2035.51 156.097 2035.51 151.398 Z" fill="#000000" fill-rule="nonzero" fill-opacity="1" /><path clip-path="url(#clip710)" d="M2058.78 151.305 Q2053.61 151.305 2051.62 152.486 Q2049.63 153.666 2049.63 156.514 Q2049.63 158.782 2051.11 160.125 Q2052.62 161.444 2055.19 161.444 Q2058.73 161.444 2060.86 158.944 Q2063.01 156.421 2063.01 152.254 L2063.01 151.305 L2058.78 151.305 M2067.27 149.546 L2067.27 164.338 L2063.01 164.338 L2063.01 160.402 Q2061.55 162.763 2059.38 163.898 Q2057.2 165.009 2054.05 165.009 Q2050.07 165.009 2047.71 162.787 Q2045.37 160.541 2045.37 156.791 Q2045.37 152.416 2048.29 150.194 Q2051.23 147.972 2057.04 147.972 L2063.01 147.972 L2063.01 147.555 Q2063.01 144.615 2061.07 143.018 Q2059.15 141.398 2055.65 141.398 Q2053.43 141.398 2051.32 141.93 Q2049.22 142.463 2047.27 143.527 L2047.27 139.592 Q2049.61 138.69 2051.81 138.25 Q2054.01 137.787 2056.09 137.787 Q2061.72 137.787 2064.49 140.703 Q2067.27 143.62 2067.27 149.546 Z" fill="#000000" fill-rule="nonzero" fill-opacity="1" /><path clip-path="url(#clip710)" d="M2091.07 142.393 Q2090.35 141.977 2089.49 141.791 Q2088.66 141.583 2087.64 141.583 Q2084.03 141.583 2082.09 143.944 Q2080.16 146.282 2080.16 150.68 L2080.16 164.338 L2075.88 164.338 L2075.88 138.412 L2080.16 138.412 L2080.16 142.44 Q2081.51 140.078 2083.66 138.944 Q2085.81 137.787 2088.89 137.787 Q2089.33 137.787 2089.86 137.856 Q2090.4 137.903 2091.04 138.018 L2091.07 142.393 Z" fill="#000000" fill-rule="nonzero" fill-opacity="1" /><path clip-path="url(#clip710)" d="M2099.75 131.051 L2099.75 138.412 L2108.52 138.412 L2108.52 141.722 L2099.75 141.722 L2099.75 155.796 Q2099.75 158.967 2100.6 159.87 Q2101.48 160.773 2104.15 160.773 L2108.52 160.773 L2108.52 164.338 L2104.15 164.338 Q2099.22 164.338 2097.34 162.509 Q2095.47 160.657 2095.47 155.796 L2095.47 141.722 L2092.34 141.722 L2092.34 138.412 L2095.47 138.412 L2095.47 131.051 L2099.75 131.051 Z" fill="#000000" fill-rule="nonzero" fill-opacity="1" /><polyline clip-path="url(#clip710)" style="stroke:#e26f46; stroke-linecap:round; stroke-linejoin:round; stroke-width:4; stroke-opacity:1; fill:none" points="1743.96,198.898 1887.85,198.898 "/>
<path clip-path="url(#clip710)" d="M1911.83 190.252 L1916.09 190.252 L1916.09 216.178 L1911.83 216.178 L1911.83 190.252 M1911.83 180.159 L1916.09 180.159 L1916.09 185.553 L1911.83 185.553 L1911.83 180.159 Z" fill="#000000" fill-rule="nonzero" fill-opacity="1" /><path clip-path="url(#clip710)" d="M1945.19 195.229 Q1946.79 192.358 1949.01 190.993 Q1951.23 189.627 1954.24 189.627 Q1958.29 189.627 1960.49 192.474 Q1962.69 195.298 1962.69 200.529 L1962.69 216.178 L1958.41 216.178 L1958.41 200.668 Q1958.41 196.942 1957.09 195.136 Q1955.77 193.33 1953.06 193.33 Q1949.75 193.33 1947.83 195.53 Q1945.91 197.729 1945.91 201.525 L1945.91 216.178 L1941.62 216.178 L1941.62 200.668 Q1941.62 196.918 1940.3 195.136 Q1938.98 193.33 1936.23 193.33 Q1932.97 193.33 1931.04 195.553 Q1929.12 197.752 1929.12 201.525 L1929.12 216.178 L1924.84 216.178 L1924.84 190.252 L1929.12 190.252 L1929.12 194.28 Q1930.58 191.895 1932.62 190.761 Q1934.66 189.627 1937.46 189.627 Q1940.28 189.627 1942.25 191.062 Q1944.24 192.497 1945.19 195.229 Z" fill="#000000" fill-rule="nonzero" fill-opacity="1" /><path clip-path="url(#clip710)" d="M1982.97 203.145 Q1977.8 203.145 1975.81 204.326 Q1973.82 205.506 1973.82 208.354 Q1973.82 210.622 1975.3 211.965 Q1976.81 213.284 1979.38 213.284 Q1982.92 213.284 1985.05 210.784 Q1987.2 208.261 1987.2 204.094 L1987.2 203.145 L1982.97 203.145 M1991.46 201.386 L1991.46 216.178 L1987.2 216.178 L1987.2 212.242 Q1985.74 214.603 1983.57 215.738 Q1981.39 216.849 1978.24 216.849 Q1974.26 216.849 1971.9 214.627 Q1969.56 212.381 1969.56 208.631 Q1969.56 204.256 1972.48 202.034 Q1975.42 199.812 1981.23 199.812 L1987.2 199.812 L1987.2 199.395 Q1987.2 196.455 1985.26 194.858 Q1983.34 193.238 1979.84 193.238 Q1977.62 193.238 1975.51 193.77 Q1973.41 194.303 1971.46 195.367 L1971.46 191.432 Q1973.8 190.53 1976 190.09 Q1978.2 189.627 1980.28 189.627 Q1985.91 189.627 1988.68 192.543 Q1991.46 195.46 1991.46 201.386 Z" fill="#000000" fill-rule="nonzero" fill-opacity="1" /><path clip-path="url(#clip710)" d="M2017.29 202.914 Q2017.29 198.284 2015.37 195.738 Q2013.47 193.192 2010.03 193.192 Q2006.6 193.192 2004.68 195.738 Q2002.78 198.284 2002.78 202.914 Q2002.78 207.52 2004.68 210.066 Q2006.6 212.613 2010.03 212.613 Q2013.47 212.613 2015.37 210.066 Q2017.29 207.52 2017.29 202.914 M2021.55 212.96 Q2021.55 219.58 2018.61 222.798 Q2015.67 226.039 2009.61 226.039 Q2007.36 226.039 2005.37 225.691 Q2003.38 225.367 2001.51 224.673 L2001.51 220.529 Q2003.38 221.548 2005.21 222.034 Q2007.04 222.52 2008.94 222.52 Q2013.13 222.52 2015.21 220.321 Q2017.29 218.145 2017.29 213.724 L2017.29 211.617 Q2015.97 213.909 2013.91 215.043 Q2011.85 216.178 2008.98 216.178 Q2004.22 216.178 2001.3 212.543 Q1998.38 208.909 1998.38 202.914 Q1998.38 196.895 2001.3 193.261 Q2004.22 189.627 2008.98 189.627 Q2011.85 189.627 2013.91 190.761 Q2015.97 191.895 2017.29 194.187 L2017.29 190.252 L2021.55 190.252 L2021.55 212.96 Z" fill="#000000" fill-rule="nonzero" fill-opacity="1" /><path clip-path="url(#clip710)" d="M2030.33 190.252 L2034.59 190.252 L2034.59 216.178 L2030.33 216.178 L2030.33 190.252 M2030.33 180.159 L2034.59 180.159 L2034.59 185.553 L2030.33 185.553 L2030.33 180.159 Z" fill="#000000" fill-rule="nonzero" fill-opacity="1" /><path clip-path="url(#clip710)" d="M2065.05 200.529 L2065.05 216.178 L2060.79 216.178 L2060.79 200.668 Q2060.79 196.988 2059.35 195.159 Q2057.92 193.33 2055.05 193.33 Q2051.6 193.33 2049.61 195.53 Q2047.62 197.729 2047.62 201.525 L2047.62 216.178 L2043.34 216.178 L2043.34 190.252 L2047.62 190.252 L2047.62 194.28 Q2049.15 191.942 2051.21 190.784 Q2053.29 189.627 2056 189.627 Q2060.47 189.627 2062.76 192.405 Q2065.05 195.159 2065.05 200.529 Z" fill="#000000" fill-rule="nonzero" fill-opacity="1" /><path clip-path="url(#clip710)" d="M2085.33 203.145 Q2080.16 203.145 2078.17 204.326 Q2076.18 205.506 2076.18 208.354 Q2076.18 210.622 2077.66 211.965 Q2079.17 213.284 2081.74 213.284 Q2085.28 213.284 2087.41 210.784 Q2089.56 208.261 2089.56 204.094 L2089.56 203.145 L2085.33 203.145 M2093.82 201.386 L2093.82 216.178 L2089.56 216.178 L2089.56 212.242 Q2088.1 214.603 2085.93 215.738 Q2083.75 216.849 2080.6 216.849 Q2076.62 216.849 2074.26 214.627 Q2071.92 212.381 2071.92 208.631 Q2071.92 204.256 2074.84 202.034 Q2077.78 199.812 2083.59 199.812 L2089.56 199.812 L2089.56 199.395 Q2089.56 196.455 2087.62 194.858 Q2085.7 193.238 2082.2 193.238 Q2079.98 193.238 2077.87 193.77 Q2075.77 194.303 2073.82 195.367 L2073.82 191.432 Q2076.16 190.53 2078.36 190.09 Q2080.56 189.627 2082.64 189.627 Q2088.27 189.627 2091.04 192.543 Q2093.82 195.46 2093.82 201.386 Z" fill="#000000" fill-rule="nonzero" fill-opacity="1" /><path clip-path="url(#clip710)" d="M2117.62 194.233 Q2116.9 193.817 2116.04 193.631 Q2115.21 193.423 2114.19 193.423 Q2110.58 193.423 2108.64 195.784 Q2106.72 198.122 2106.72 202.52 L2106.72 216.178 L2102.43 216.178 L2102.43 190.252 L2106.72 190.252 L2106.72 194.28 Q2108.06 191.918 2110.21 190.784 Q2112.36 189.627 2115.44 189.627 Q2115.88 189.627 2116.41 189.696 Q2116.95 189.743 2117.59 189.858 L2117.62 194.233 Z" fill="#000000" fill-rule="nonzero" fill-opacity="1" /><path clip-path="url(#clip710)" d="M2132.87 218.585 Q2131.07 223.215 2129.35 224.627 Q2127.64 226.039 2124.77 226.039 L2121.37 226.039 L2121.37 222.474 L2123.87 222.474 Q2125.63 222.474 2126.6 221.64 Q2127.57 220.807 2128.75 217.705 L2129.52 215.761 L2119.03 190.252 L2123.54 190.252 L2131.65 210.529 L2139.75 190.252 L2144.26 190.252 L2132.87 218.585 Z" fill="#000000" fill-rule="nonzero" fill-opacity="1" /><path clip-path="url(#clip710)" d="M2169.33 212.289 L2169.33 226.039 L2165.05 226.039 L2165.05 190.252 L2169.33 190.252 L2169.33 194.187 Q2170.67 191.872 2172.71 190.761 Q2174.77 189.627 2177.62 189.627 Q2182.34 189.627 2185.28 193.377 Q2188.24 197.127 2188.24 203.238 Q2188.24 209.349 2185.28 213.099 Q2182.34 216.849 2177.62 216.849 Q2174.77 216.849 2172.71 215.738 Q2170.67 214.603 2169.33 212.289 M2183.82 203.238 Q2183.82 198.539 2181.88 195.877 Q2179.96 193.192 2176.58 193.192 Q2173.2 193.192 2171.25 195.877 Q2169.33 198.539 2169.33 203.238 Q2169.33 207.937 2171.25 210.622 Q2173.2 213.284 2176.58 213.284 Q2179.96 213.284 2181.88 210.622 Q2183.82 207.937 2183.82 203.238 Z" fill="#000000" fill-rule="nonzero" fill-opacity="1" /><path clip-path="url(#clip710)" d="M2207.08 203.145 Q2201.92 203.145 2199.93 204.326 Q2197.94 205.506 2197.94 208.354 Q2197.94 210.622 2199.42 211.965 Q2200.93 213.284 2203.5 213.284 Q2207.04 213.284 2209.17 210.784 Q2211.32 208.261 2211.32 204.094 L2211.32 203.145 L2207.08 203.145 M2215.58 201.386 L2215.58 216.178 L2211.32 216.178 L2211.32 212.242 Q2209.86 214.603 2207.69 215.738 Q2205.51 216.849 2202.36 216.849 Q2198.38 216.849 2196.02 214.627 Q2193.68 212.381 2193.68 208.631 Q2193.68 204.256 2196.6 202.034 Q2199.54 199.812 2205.35 199.812 L2211.32 199.812 L2211.32 199.395 Q2211.32 196.455 2209.38 194.858 Q2207.46 193.238 2203.96 193.238 Q2201.74 193.238 2199.63 193.77 Q2197.52 194.303 2195.58 195.367 L2195.58 191.432 Q2197.92 190.53 2200.12 190.09 Q2202.32 189.627 2204.4 189.627 Q2210.02 189.627 2212.8 192.543 Q2215.58 195.46 2215.58 201.386 Z" fill="#000000" fill-rule="nonzero" fill-opacity="1" /><path clip-path="url(#clip710)" d="M2239.38 194.233 Q2238.66 193.817 2237.8 193.631 Q2236.97 193.423 2235.95 193.423 Q2232.34 193.423 2230.39 195.784 Q2228.47 198.122 2228.47 202.52 L2228.47 216.178 L2224.19 216.178 L2224.19 190.252 L2228.47 190.252 L2228.47 194.28 Q2229.82 191.918 2231.97 190.784 Q2234.12 189.627 2237.2 189.627 Q2237.64 189.627 2238.17 189.696 Q2238.71 189.743 2239.35 189.858 L2239.38 194.233 Z" fill="#000000" fill-rule="nonzero" fill-opacity="1" /><path clip-path="url(#clip710)" d="M2248.06 182.891 L2248.06 190.252 L2256.83 190.252 L2256.83 193.562 L2248.06 193.562 L2248.06 207.636 Q2248.06 210.807 2248.91 211.71 Q2249.79 212.613 2252.45 212.613 L2256.83 212.613 L2256.83 216.178 L2252.45 216.178 Q2247.52 216.178 2245.65 214.349 Q2243.77 212.497 2243.77 207.636 L2243.77 193.562 L2240.65 193.562 L2240.65 190.252 L2243.77 190.252 L2243.77 182.891 L2248.06 182.891 Z" fill="#000000" fill-rule="nonzero" fill-opacity="1" /></svg>
