<?xml version="1.0" encoding="utf-8"?>
<svg xmlns="http://www.w3.org/2000/svg" xmlns:xlink="http://www.w3.org/1999/xlink" width="600" height="400" viewBox="0 0 2400 1600">
<defs>
  <clipPath id="clip770">
    <rect x="0" y="0" width="2400" height="1600"/>
  </clipPath>
</defs>
<path clip-path="url(#clip770)" d="M0 1600 L2400 1600 L2400 0 L0 0  Z" fill="#ffffff" fill-rule="evenodd" fill-opacity="1"/>
<defs>
  <clipPath id="clip771">
    <rect x="480" y="0" width="1681" height="1600"/>
  </clipPath>
</defs>
<path clip-path="url(#clip770)" d="M224.098 1486.45 L2352.76 1486.45 L2352.76 47.2441 L224.098 47.2441  Z" fill="#ffffff" fill-rule="evenodd" fill-opacity="1"/>
<defs>
  <clipPath id="clip772">
    <rect x="224" y="47" width="2130" height="1440"/>
  </clipPath>
</defs>
<polyline clip-path="url(#clip772)" style="stroke:#000000; stroke-linecap:round; stroke-linejoin:round; stroke-width:2; stroke-opacity:0.1; fill:none" points="224.098,1486.45 224.098,47.2441 "/>
<polyline clip-path="url(#clip772)" style="stroke:#000000; stroke-linecap:round; stroke-linejoin:round; stroke-width:2; stroke-opacity:0.1; fill:none" points="756.262,1486.45 756.262,47.2441 "/>
<polyline clip-path="url(#clip772)" style="stroke:#000000; stroke-linecap:round; stroke-linejoin:round; stroke-width:2; stroke-opacity:0.1; fill:none" points="1288.43,1486.45 1288.43,47.2441 "/>
<polyline clip-path="url(#clip772)" style="stroke:#000000; stroke-linecap:round; stroke-linejoin:round; stroke-width:2; stroke-opacity:0.1; fill:none" points="1820.59,1486.45 1820.59,47.2441 "/>
<polyline clip-path="url(#clip772)" style="stroke:#000000; stroke-linecap:round; stroke-linejoin:round; stroke-width:2; stroke-opacity:0.1; fill:none" points="2352.76,1486.45 2352.76,47.2441 "/>
<polyline clip-path="url(#clip772)" style="stroke:#000000; stroke-linecap:round; stroke-linejoin:round; stroke-width:2; stroke-opacity:0.1; fill:none" points="224.098,1427.02 2352.76,1427.02 "/>
<polyline clip-path="url(#clip772)" style="stroke:#000000; stroke-linecap:round; stroke-linejoin:round; stroke-width:2; stroke-opacity:0.1; fill:none" points="224.098,1138.42 2352.76,1138.42 "/>
<polyline clip-path="url(#clip772)" style="stroke:#000000; stroke-linecap:round; stroke-linejoin:round; stroke-width:2; stroke-opacity:0.1; fill:none" points="224.098,849.828 2352.76,849.828 "/>
<polyline clip-path="url(#clip772)" style="stroke:#000000; stroke-linecap:round; stroke-linejoin:round; stroke-width:2; stroke-opacity:0.1; fill:none" points="224.098,561.232 2352.76,561.232 "/>
<polyline clip-path="url(#clip772)" style="stroke:#000000; stroke-linecap:round; stroke-linejoin:round; stroke-width:2; stroke-opacity:0.1; fill:none" points="224.098,272.637 2352.76,272.637 "/>
<polyline clip-path="url(#clip770)" style="stroke:#000000; stroke-linecap:round; stroke-linejoin:round; stroke-width:4; stroke-opacity:1; fill:none" points="224.098,1486.45 2352.76,1486.45 "/>
<polyline clip-path="url(#clip770)" style="stroke:#000000; stroke-linecap:round; stroke-linejoin:round; stroke-width:4; stroke-opacity:1; fill:none" points="224.098,1486.45 224.098,1467.55 "/>
<polyline clip-path="url(#clip770)" style="stroke:#000000; stroke-linecap:round; stroke-linejoin:round; stroke-width:4; stroke-opacity:1; fill:none" points="756.262,1486.45 756.262,1467.55 "/>
<polyline clip-path="url(#clip770)" style="stroke:#000000; stroke-linecap:round; stroke-linejoin:round; stroke-width:4; stroke-opacity:1; fill:none" points="1288.43,1486.45 1288.43,1467.55 "/>
<polyline clip-path="url(#clip770)" style="stroke:#000000; stroke-linecap:round; stroke-linejoin:round; stroke-width:4; stroke-opacity:1; fill:none" points="1820.59,1486.45 1820.59,1467.55 "/>
<polyline clip-path="url(#clip770)" style="stroke:#000000; stroke-linecap:round; stroke-linejoin:round; stroke-width:4; stroke-opacity:1; fill:none" points="2352.76,1486.45 2352.76,1467.55 "/>
<path clip-path="url(#clip770)" d="M178.161 1532.02 L207.836 1532.02 L207.836 1535.95 L178.161 1535.95 L178.161 1532.02 Z" fill="#000000" fill-rule="nonzero" fill-opacity="1" /><path clip-path="url(#clip770)" d="M218.739 1544.91 L226.378 1544.91 L226.378 1518.55 L218.068 1520.21 L218.068 1515.95 L226.332 1514.29 L231.008 1514.29 L231.008 1544.91 L238.646 1544.91 L238.646 1548.85 L218.739 1548.85 L218.739 1544.91 Z" fill="#000000" fill-rule="nonzero" fill-opacity="1" /><path clip-path="url(#clip770)" d="M258.091 1517.37 Q254.48 1517.37 252.651 1520.93 Q250.845 1524.47 250.845 1531.6 Q250.845 1538.71 252.651 1542.27 Q254.48 1545.82 258.091 1545.82 Q261.725 1545.82 263.531 1542.27 Q265.359 1538.71 265.359 1531.6 Q265.359 1524.47 263.531 1520.93 Q261.725 1517.37 258.091 1517.37 M258.091 1513.66 Q263.901 1513.66 266.956 1518.27 Q270.035 1522.85 270.035 1531.6 Q270.035 1540.33 266.956 1544.94 Q263.901 1549.52 258.091 1549.52 Q252.281 1549.52 249.202 1544.94 Q246.146 1540.33 246.146 1531.6 Q246.146 1522.85 249.202 1518.27 Q252.281 1513.66 258.091 1513.66 Z" fill="#000000" fill-rule="nonzero" fill-opacity="1" /><path clip-path="url(#clip770)" d="M725.904 1532.02 L755.58 1532.02 L755.58 1535.95 L725.904 1535.95 L725.904 1532.02 Z" fill="#000000" fill-rule="nonzero" fill-opacity="1" /><path clip-path="url(#clip770)" d="M765.718 1514.29 L784.075 1514.29 L784.075 1518.22 L770.001 1518.22 L770.001 1526.7 Q771.019 1526.35 772.038 1526.19 Q773.056 1526 774.075 1526 Q779.862 1526 783.241 1529.17 Q786.621 1532.34 786.621 1537.76 Q786.621 1543.34 783.149 1546.44 Q779.677 1549.52 773.357 1549.52 Q771.181 1549.52 768.913 1549.15 Q766.667 1548.78 764.26 1548.04 L764.26 1543.34 Q766.343 1544.47 768.566 1545.03 Q770.788 1545.58 773.265 1545.58 Q777.269 1545.58 779.607 1543.48 Q781.945 1541.37 781.945 1537.76 Q781.945 1534.15 779.607 1532.04 Q777.269 1529.94 773.265 1529.94 Q771.39 1529.94 769.515 1530.35 Q767.663 1530.77 765.718 1531.65 L765.718 1514.29 Z" fill="#000000" fill-rule="nonzero" fill-opacity="1" /><path clip-path="url(#clip770)" d="M1288.43 1517.37 Q1284.82 1517.37 1282.99 1520.93 Q1281.18 1524.47 1281.18 1531.6 Q1281.18 1538.71 1282.99 1542.27 Q1284.82 1545.82 1288.43 1545.82 Q1292.06 1545.82 1293.87 1542.27 Q1295.7 1538.71 1295.7 1531.6 Q1295.7 1524.47 1293.87 1520.93 Q1292.06 1517.37 1288.43 1517.37 M1288.43 1513.66 Q1294.24 1513.66 1297.29 1518.27 Q1300.37 1522.85 1300.37 1531.6 Q1300.37 1540.33 1297.29 1544.94 Q1294.24 1549.52 1288.43 1549.52 Q1282.62 1549.52 1279.54 1544.94 Q1276.48 1540.33 1276.48 1531.6 Q1276.48 1522.85 1279.54 1518.27 Q1282.62 1513.66 1288.43 1513.66 Z" fill="#000000" fill-rule="nonzero" fill-opacity="1" /><path clip-path="url(#clip770)" d="M1810.87 1514.29 L1829.23 1514.29 L1829.23 1518.22 L1815.15 1518.22 L1815.15 1526.7 Q1816.17 1526.35 1817.19 1526.19 Q1818.21 1526 1819.23 1526 Q1825.01 1526 1828.39 1529.17 Q1831.77 1532.34 1831.77 1537.76 Q1831.77 1543.34 1828.3 1546.44 Q1824.83 1549.52 1818.51 1549.52 Q1816.33 1549.52 1814.06 1549.15 Q1811.82 1548.78 1809.41 1548.04 L1809.41 1543.34 Q1811.49 1544.47 1813.72 1545.03 Q1815.94 1545.58 1818.42 1545.58 Q1822.42 1545.58 1824.76 1543.48 Q1827.1 1541.37 1827.1 1537.76 Q1827.1 1534.15 1824.76 1532.04 Q1822.42 1529.94 1818.42 1529.94 Q1816.54 1529.94 1814.67 1530.35 Q1812.81 1530.77 1810.87 1531.65 L1810.87 1514.29 Z" fill="#000000" fill-rule="nonzero" fill-opacity="1" /><path clip-path="url(#clip770)" d="M2327.44 1544.91 L2335.08 1544.91 L2335.08 1518.55 L2326.77 1520.21 L2326.77 1515.95 L2335.04 1514.29 L2339.71 1514.29 L2339.71 1544.91 L2347.35 1544.91 L2347.35 1548.85 L2327.44 1548.85 L2327.44 1544.91 Z" fill="#000000" fill-rule="nonzero" fill-opacity="1" /><path clip-path="url(#clip770)" d="M2366.8 1517.37 Q2363.18 1517.37 2361.36 1520.93 Q2359.55 1524.47 2359.55 1531.6 Q2359.55 1538.71 2361.36 1542.27 Q2363.18 1545.82 2366.8 1545.82 Q2370.43 1545.82 2372.23 1542.27 Q2374.06 1538.71 2374.06 1531.6 Q2374.06 1524.47 2372.23 1520.93 Q2370.43 1517.37 2366.8 1517.37 M2366.8 1513.66 Q2372.61 1513.66 2375.66 1518.27 Q2378.74 1522.85 2378.74 1531.6 Q2378.74 1540.33 2375.66 1544.94 Q2372.61 1549.52 2366.8 1549.52 Q2360.99 1549.52 2357.91 1544.94 Q2354.85 1540.33 2354.85 1531.6 Q2354.85 1522.85 2357.91 1518.27 Q2360.99 1513.66 2366.8 1513.66 Z" fill="#000000" fill-rule="nonzero" fill-opacity="1" /><polyline clip-path="url(#clip770)" style="stroke:#000000; stroke-linecap:round; stroke-linejoin:round; stroke-width:4; stroke-opacity:1; fill:none" points="224.098,1486.45 224.098,47.2441 "/>
<polyline clip-path="url(#clip770)" style="stroke:#000000; stroke-linecap:round; stroke-linejoin:round; stroke-width:4; stroke-opacity:1; fill:none" points="224.098,1427.02 242.996,1427.02 "/>
<polyline clip-path="url(#clip770)" style="stroke:#000000; stroke-linecap:round; stroke-linejoin:round; stroke-width:4; stroke-opacity:1; fill:none" points="224.098,1138.42 242.996,1138.42 "/>
<polyline clip-path="url(#clip770)" style="stroke:#000000; stroke-linecap:round; stroke-linejoin:round; stroke-width:4; stroke-opacity:1; fill:none" points="224.098,849.828 242.996,849.828 "/>
<polyline clip-path="url(#clip770)" style="stroke:#000000; stroke-linecap:round; stroke-linejoin:round; stroke-width:4; stroke-opacity:1; fill:none" points="224.098,561.232 242.996,561.232 "/>
<polyline clip-path="url(#clip770)" style="stroke:#000000; stroke-linecap:round; stroke-linejoin:round; stroke-width:4; stroke-opacity:1; fill:none" points="224.098,272.637 242.996,272.637 "/>
<path clip-path="url(#clip770)" d="M51.9875 1427.47 L81.6633 1427.47 L81.6633 1431.41 L51.9875 1431.41 L51.9875 1427.47 Z" fill="#000000" fill-rule="nonzero" fill-opacity="1" /><path clip-path="url(#clip770)" d="M101.756 1412.82 Q98.1447 1412.82 96.316 1416.38 Q94.5104 1419.92 94.5104 1427.05 Q94.5104 1434.16 96.316 1437.73 Q98.1447 1441.27 101.756 1441.27 Q105.39 1441.27 107.196 1437.73 Q109.024 1434.16 109.024 1427.05 Q109.024 1419.92 107.196 1416.38 Q105.39 1412.82 101.756 1412.82 M101.756 1409.11 Q107.566 1409.11 110.621 1413.72 Q113.7 1418.3 113.7 1427.05 Q113.7 1435.78 110.621 1440.39 Q107.566 1444.97 101.756 1444.97 Q95.9456 1444.97 92.8669 1440.39 Q89.8114 1435.78 89.8114 1427.05 Q89.8114 1418.3 92.8669 1413.72 Q95.9456 1409.11 101.756 1409.11 Z" fill="#000000" fill-rule="nonzero" fill-opacity="1" /><path clip-path="url(#clip770)" d="M121.918 1438.42 L126.802 1438.42 L126.802 1444.3 L121.918 1444.3 L121.918 1438.42 Z" fill="#000000" fill-rule="nonzero" fill-opacity="1" /><path clip-path="url(#clip770)" d="M135.806 1409.74 L158.029 1409.74 L158.029 1411.73 L145.482 1444.3 L140.598 1444.3 L152.404 1413.67 L135.806 1413.67 L135.806 1409.74 Z" fill="#000000" fill-rule="nonzero" fill-opacity="1" /><path clip-path="url(#clip770)" d="M167.195 1409.74 L185.552 1409.74 L185.552 1413.67 L171.478 1413.67 L171.478 1422.15 Q172.496 1421.8 173.515 1421.64 Q174.533 1421.45 175.552 1421.45 Q181.339 1421.45 184.718 1424.62 Q188.098 1427.79 188.098 1433.21 Q188.098 1438.79 184.626 1441.89 Q181.153 1444.97 174.834 1444.97 Q172.658 1444.97 170.39 1444.6 Q168.144 1444.23 165.737 1443.49 L165.737 1438.79 Q167.82 1439.92 170.042 1440.48 Q172.265 1441.04 174.741 1441.04 Q178.746 1441.04 181.084 1438.93 Q183.422 1436.82 183.422 1433.21 Q183.422 1429.6 181.084 1427.49 Q178.746 1425.39 174.741 1425.39 Q172.866 1425.39 170.991 1425.8 Q169.14 1426.22 167.195 1427.1 L167.195 1409.74 Z" fill="#000000" fill-rule="nonzero" fill-opacity="1" /><path clip-path="url(#clip770)" d="M50.9921 1138.88 L80.6679 1138.88 L80.6679 1142.81 L50.9921 1142.81 L50.9921 1138.88 Z" fill="#000000" fill-rule="nonzero" fill-opacity="1" /><path clip-path="url(#clip770)" d="M100.76 1124.22 Q97.1493 1124.22 95.3206 1127.79 Q93.515 1131.33 93.515 1138.46 Q93.515 1145.56 95.3206 1149.13 Q97.1493 1152.67 100.76 1152.67 Q104.395 1152.67 106.2 1149.13 Q108.029 1145.56 108.029 1138.46 Q108.029 1131.33 106.2 1127.79 Q104.395 1124.22 100.76 1124.22 M100.76 1120.52 Q106.571 1120.52 109.626 1125.13 Q112.705 1129.71 112.705 1138.46 Q112.705 1147.19 109.626 1151.79 Q106.571 1156.38 100.76 1156.38 Q94.9502 1156.38 91.8715 1151.79 Q88.816 1147.19 88.816 1138.46 Q88.816 1129.71 91.8715 1125.13 Q94.9502 1120.52 100.76 1120.52 Z" fill="#000000" fill-rule="nonzero" fill-opacity="1" /><path clip-path="url(#clip770)" d="M120.922 1149.82 L125.807 1149.82 L125.807 1155.7 L120.922 1155.7 L120.922 1149.82 Z" fill="#000000" fill-rule="nonzero" fill-opacity="1" /><path clip-path="url(#clip770)" d="M136.038 1121.14 L154.394 1121.14 L154.394 1125.08 L140.32 1125.08 L140.32 1133.55 Q141.339 1133.2 142.357 1133.04 Q143.376 1132.86 144.394 1132.86 Q150.181 1132.86 153.561 1136.03 Q156.941 1139.2 156.941 1144.62 Q156.941 1150.19 153.468 1153.3 Q149.996 1156.38 143.677 1156.38 Q141.501 1156.38 139.232 1156 Q136.987 1155.63 134.58 1154.89 L134.58 1150.19 Q136.663 1151.33 138.885 1151.88 Q141.107 1152.44 143.584 1152.44 Q147.589 1152.44 149.927 1150.33 Q152.265 1148.23 152.265 1144.62 Q152.265 1141 149.927 1138.9 Q147.589 1136.79 143.584 1136.79 Q141.709 1136.79 139.834 1137.21 Q137.982 1137.63 136.038 1138.5 L136.038 1121.14 Z" fill="#000000" fill-rule="nonzero" fill-opacity="1" /><path clip-path="url(#clip770)" d="M176.153 1124.22 Q172.542 1124.22 170.714 1127.79 Q168.908 1131.33 168.908 1138.46 Q168.908 1145.56 170.714 1149.13 Q172.542 1152.67 176.153 1152.67 Q179.788 1152.67 181.593 1149.13 Q183.422 1145.56 183.422 1138.46 Q183.422 1131.33 181.593 1127.79 Q179.788 1124.22 176.153 1124.22 M176.153 1120.52 Q181.964 1120.52 185.019 1125.13 Q188.098 1129.71 188.098 1138.46 Q188.098 1147.19 185.019 1151.79 Q181.964 1156.38 176.153 1156.38 Q170.343 1156.38 167.265 1151.79 Q164.209 1147.19 164.209 1138.46 Q164.209 1129.71 167.265 1125.13 Q170.343 1120.52 176.153 1120.52 Z" fill="#000000" fill-rule="nonzero" fill-opacity="1" /><path clip-path="url(#clip770)" d="M51.9875 850.279 L81.6633 850.279 L81.6633 854.215 L51.9875 854.215 L51.9875 850.279 Z" fill="#000000" fill-rule="nonzero" fill-opacity="1" /><path clip-path="url(#clip770)" d="M101.756 835.627 Q98.1447 835.627 96.316 839.191 Q94.5104 842.733 94.5104 849.863 Q94.5104 856.969 96.316 860.534 Q98.1447 864.076 101.756 864.076 Q105.39 864.076 107.196 860.534 Q109.024 856.969 109.024 849.863 Q109.024 842.733 107.196 839.191 Q105.39 835.627 101.756 835.627 M101.756 831.923 Q107.566 831.923 110.621 836.529 Q113.7 841.113 113.7 849.863 Q113.7 858.59 110.621 863.196 Q107.566 867.779 101.756 867.779 Q95.9456 867.779 92.8669 863.196 Q89.8114 858.59 89.8114 849.863 Q89.8114 841.113 92.8669 836.529 Q95.9456 831.923 101.756 831.923 Z" fill="#000000" fill-rule="nonzero" fill-opacity="1" /><path clip-path="url(#clip770)" d="M121.918 861.228 L126.802 861.228 L126.802 867.108 L121.918 867.108 L121.918 861.228 Z" fill="#000000" fill-rule="nonzero" fill-opacity="1" /><path clip-path="url(#clip770)" d="M141.015 863.173 L157.334 863.173 L157.334 867.108 L135.39 867.108 L135.39 863.173 Q138.052 860.418 142.635 855.789 Q147.242 851.136 148.422 849.793 Q150.668 847.27 151.547 845.534 Q152.45 843.775 152.45 842.085 Q152.45 839.33 150.505 837.594 Q148.584 835.858 145.482 835.858 Q143.283 835.858 140.83 836.622 Q138.399 837.386 135.621 838.937 L135.621 834.215 Q138.445 833.08 140.899 832.502 Q143.353 831.923 145.39 831.923 Q150.76 831.923 153.955 834.608 Q157.149 837.293 157.149 841.784 Q157.149 843.914 156.339 845.835 Q155.552 847.733 153.445 850.326 Q152.867 850.997 149.765 854.215 Q146.663 857.409 141.015 863.173 Z" fill="#000000" fill-rule="nonzero" fill-opacity="1" /><path clip-path="url(#clip770)" d="M167.195 832.548 L185.552 832.548 L185.552 836.483 L171.478 836.483 L171.478 844.955 Q172.496 844.608 173.515 844.446 Q174.533 844.261 175.552 844.261 Q181.339 844.261 184.718 847.432 Q188.098 850.603 188.098 856.02 Q188.098 861.599 184.626 864.701 Q181.153 867.779 174.834 867.779 Q172.658 867.779 170.39 867.409 Q168.144 867.039 165.737 866.298 L165.737 861.599 Q167.82 862.733 170.042 863.289 Q172.265 863.844 174.741 863.844 Q178.746 863.844 181.084 861.738 Q183.422 859.631 183.422 856.02 Q183.422 852.409 181.084 850.303 Q178.746 848.196 174.741 848.196 Q172.866 848.196 170.991 848.613 Q169.14 849.029 167.195 849.909 L167.195 832.548 Z" fill="#000000" fill-rule="nonzero" fill-opacity="1" /><path clip-path="url(#clip770)" d="M100.76 547.031 Q97.1493 547.031 95.3206 550.596 Q93.515 554.137 93.515 561.267 Q93.515 568.373 95.3206 571.938 Q97.1493 575.48 100.76 575.48 Q104.395 575.48 106.2 571.938 Q108.029 568.373 108.029 561.267 Q108.029 554.137 106.2 550.596 Q104.395 547.031 100.76 547.031 M100.76 543.327 Q106.571 543.327 109.626 547.934 Q112.705 552.517 112.705 561.267 Q112.705 569.994 109.626 574.6 Q106.571 579.184 100.76 579.184 Q94.9502 579.184 91.8715 574.6 Q88.816 569.994 88.816 561.267 Q88.816 552.517 91.8715 547.934 Q94.9502 543.327 100.76 543.327 Z" fill="#000000" fill-rule="nonzero" fill-opacity="1" /><path clip-path="url(#clip770)" d="M120.922 572.633 L125.807 572.633 L125.807 578.512 L120.922 578.512 L120.922 572.633 Z" fill="#000000" fill-rule="nonzero" fill-opacity="1" /><path clip-path="url(#clip770)" d="M145.992 547.031 Q142.381 547.031 140.552 550.596 Q138.746 554.137 138.746 561.267 Q138.746 568.373 140.552 571.938 Q142.381 575.48 145.992 575.48 Q149.626 575.48 151.431 571.938 Q153.26 568.373 153.26 561.267 Q153.26 554.137 151.431 550.596 Q149.626 547.031 145.992 547.031 M145.992 543.327 Q151.802 543.327 154.857 547.934 Q157.936 552.517 157.936 561.267 Q157.936 569.994 154.857 574.6 Q151.802 579.184 145.992 579.184 Q140.181 579.184 137.103 574.6 Q134.047 569.994 134.047 561.267 Q134.047 552.517 137.103 547.934 Q140.181 543.327 145.992 543.327 Z" fill="#000000" fill-rule="nonzero" fill-opacity="1" /><path clip-path="url(#clip770)" d="M176.153 547.031 Q172.542 547.031 170.714 550.596 Q168.908 554.137 168.908 561.267 Q168.908 568.373 170.714 571.938 Q172.542 575.48 176.153 575.48 Q179.788 575.48 181.593 571.938 Q183.422 568.373 183.422 561.267 Q183.422 554.137 181.593 550.596 Q179.788 547.031 176.153 547.031 M176.153 543.327 Q181.964 543.327 185.019 547.934 Q188.098 552.517 188.098 561.267 Q188.098 569.994 185.019 574.6 Q181.964 579.184 176.153 579.184 Q170.343 579.184 167.265 574.6 Q164.209 569.994 164.209 561.267 Q164.209 552.517 167.265 547.934 Q170.343 543.327 176.153 543.327 Z" fill="#000000" fill-rule="nonzero" fill-opacity="1" /><path clip-path="url(#clip770)" d="M101.756 258.435 Q98.1447 258.435 96.316 262 Q94.5104 265.542 94.5104 272.671 Q94.5104 279.778 96.316 283.343 Q98.1447 286.884 101.756 286.884 Q105.39 286.884 107.196 283.343 Q109.024 279.778 109.024 272.671 Q109.024 265.542 107.196 262 Q105.39 258.435 101.756 258.435 M101.756 254.732 Q107.566 254.732 110.621 259.338 Q113.7 263.921 113.7 272.671 Q113.7 281.398 110.621 286.005 Q107.566 290.588 101.756 290.588 Q95.9456 290.588 92.8669 286.005 Q89.8114 281.398 89.8114 272.671 Q89.8114 263.921 92.8669 259.338 Q95.9456 254.732 101.756 254.732 Z" fill="#000000" fill-rule="nonzero" fill-opacity="1" /><path clip-path="url(#clip770)" d="M121.918 284.037 L126.802 284.037 L126.802 289.917 L121.918 289.917 L121.918 284.037 Z" fill="#000000" fill-rule="nonzero" fill-opacity="1" /><path clip-path="url(#clip770)" d="M141.015 285.981 L157.334 285.981 L157.334 289.917 L135.39 289.917 L135.39 285.981 Q138.052 283.227 142.635 278.597 Q147.242 273.944 148.422 272.602 Q150.668 270.079 151.547 268.343 Q152.45 266.583 152.45 264.894 Q152.45 262.139 150.505 260.403 Q148.584 258.667 145.482 258.667 Q143.283 258.667 140.83 259.431 Q138.399 260.194 135.621 261.745 L135.621 257.023 Q138.445 255.889 140.899 255.31 Q143.353 254.732 145.39 254.732 Q150.76 254.732 153.955 257.417 Q157.149 260.102 157.149 264.593 Q157.149 266.722 156.339 268.644 Q155.552 270.542 153.445 273.134 Q152.867 273.806 149.765 277.023 Q146.663 280.218 141.015 285.981 Z" fill="#000000" fill-rule="nonzero" fill-opacity="1" /><path clip-path="url(#clip770)" d="M167.195 255.357 L185.552 255.357 L185.552 259.292 L171.478 259.292 L171.478 267.764 Q172.496 267.417 173.515 267.255 Q174.533 267.069 175.552 267.069 Q181.339 267.069 184.718 270.241 Q188.098 273.412 188.098 278.829 Q188.098 284.407 184.626 287.509 Q181.153 290.588 174.834 290.588 Q172.658 290.588 170.39 290.217 Q168.144 289.847 165.737 289.106 L165.737 284.407 Q167.82 285.542 170.042 286.097 Q172.265 286.653 174.741 286.653 Q178.746 286.653 181.084 284.546 Q183.422 282.44 183.422 278.829 Q183.422 275.218 181.084 273.111 Q178.746 271.005 174.741 271.005 Q172.866 271.005 170.991 271.421 Q169.14 271.838 167.195 272.718 L167.195 255.357 Z" fill="#000000" fill-rule="nonzero" fill-opacity="1" /><polyline clip-path="url(#clip772)" style="stroke:#009af9; stroke-linecap:round; stroke-linejoin:round; stroke-width:4; stroke-opacity:1; fill:none" points="1288.43,1445.72 1394.86,87.9763 1501.29,656.45 1607.73,551.721 1714.16,561.791 1820.59,561.211 1927.02,561.233 2033.46,561.232 2139.89,561.232 2246.32,561.232 2352.76,561.232 2459.19,561.232 2565.62,561.232 2672.05,561.232 2778.49,561.232 2884.92,561.232 2991.35,561.232 3097.79,561.232 3204.22,561.232 3310.65,561.232 3417.08,561.232 3523.52,561.232 3629.95,561.232 3736.38,561.232 3842.82,561.232 3949.25,561.232 4055.68,561.232 4162.12,561.232 4268.55,561.232 4374.98,561.232 4481.41,561.232 4587.85,561.232 -2010.99,561.232 -1904.56,561.232 -1798.13,561.232 -1691.69,561.232 -1585.26,561.232 -1478.83,561.232 -1372.4,561.232 -1265.96,561.232 -1159.53,561.232 -1053.1,561.232 -946.664,561.232 -840.231,561.232 -733.798,561.232 -627.365,561.232 -520.932,561.232 -414.5,561.232 -308.067,561.232 -201.634,561.232 -95.2008,561.232 11.2321,561.232 117.665,561.232 224.098,561.232 330.531,561.232 436.964,561.232 543.397,561.232 649.829,561.233 756.262,561.211 862.695,561.791 969.128,551.721 1075.56,656.45 1181.99,87.9763 "/>
<polyline clip-path="url(#clip772)" style="stroke:#e26f46; stroke-linecap:round; stroke-linejoin:round; stroke-width:4; stroke-opacity:1; fill:none" points="1288.43,790.692 1394.86,438.457 1501.29,585.934 1607.73,558.765 1714.16,561.377 1820.59,561.227 1927.02,561.232 2033.46,561.232 2139.89,561.232 2246.32,561.232 2352.76,561.232 2459.19,561.232 2565.62,561.232 2672.05,561.232 2778.49,561.232 2884.92,561.232 2991.35,561.232 3097.79,561.232 3204.22,561.232 3310.65,561.232 3417.08,561.232 3523.52,561.232 3629.95,561.232 3736.38,561.232 3842.82,561.232 3949.25,561.232 4055.68,561.232 4162.12,561.232 4268.55,561.232 4374.98,561.232 4481.41,561.232 4587.85,561.232 -2010.99,561.232 -1904.56,561.232 -1798.13,561.232 -1691.69,561.232 -1585.26,561.232 -1478.83,561.232 -1372.4,561.232 -1265.96,561.232 -1159.53,561.232 -1053.1,561.232 -946.664,561.232 -840.231,561.232 -733.798,561.232 -627.365,561.232 -520.932,561.232 -414.5,561.232 -308.067,561.232 -201.634,561.232 -95.2008,561.232 11.2321,561.232 117.665,561.232 224.098,561.232 330.531,561.232 436.964,561.232 543.397,561.232 649.829,561.232 756.262,561.227 862.695,561.377 969.128,558.765 1075.56,585.934 1181.99,438.457 "/>
<path clip-path="url(#clip770)" d="M1723.94 250.738 L2281.8 250.738 L2281.8 95.2176 L1723.94 95.2176  Z" fill="#ffffff" fill-rule="evenodd" fill-opacity="1"/>
<polyline clip-path="url(#clip770)" style="stroke:#000000; stroke-linecap:round; stroke-linejoin:round; stroke-width:4; stroke-opacity:1; fill:none" points="1723.94,250.738 2281.8,250.738 2281.8,95.2176 1723.94,95.2176 1723.94,250.738 "/>
<polyline clip-path="url(#clip770)" style="stroke:#009af9; stroke-linecap:round; stroke-linejoin:round; stroke-width:4; stroke-opacity:1; fill:none" points="1747.59,147.058 1889.5,147.058 "/>
<path clip-path="url(#clip770)" d="M1928.34 142.393 Q1927.62 141.977 1926.76 141.791 Q1925.93 141.583 1924.91 141.583 Q1921.3 141.583 1919.35 143.944 Q1917.43 146.282 1917.43 150.68 L1917.43 164.338 L1913.15 164.338 L1913.15 138.412 L1917.43 138.412 L1917.43 142.44 Q1918.78 140.078 1920.93 138.944 Q1923.08 137.787 1926.16 137.787 Q1926.6 137.787 1927.13 137.856 Q1927.66 137.903 1928.31 138.018 L1928.34 142.393 Z" fill="#000000" fill-rule="nonzero" fill-opacity="1" /><path clip-path="url(#clip770)" d="M1953.94 150.31 L1953.94 152.393 L1934.35 152.393 Q1934.63 156.791 1936.99 159.106 Q1939.38 161.398 1943.61 161.398 Q1946.07 161.398 1948.36 160.796 Q1950.67 160.194 1952.94 158.99 L1952.94 163.018 Q1950.65 163.99 1948.24 164.5 Q1945.84 165.009 1943.36 165.009 Q1937.16 165.009 1933.52 161.398 Q1929.91 157.787 1929.91 151.629 Q1929.91 145.264 1933.34 141.537 Q1936.78 137.787 1942.62 137.787 Q1947.85 137.787 1950.88 141.166 Q1953.94 144.523 1953.94 150.31 M1949.68 149.06 Q1949.63 145.565 1947.71 143.481 Q1945.81 141.398 1942.66 141.398 Q1939.1 141.398 1936.95 143.412 Q1934.82 145.426 1934.49 149.083 L1949.68 149.06 Z" fill="#000000" fill-rule="nonzero" fill-opacity="1" /><path clip-path="url(#clip770)" d="M1972.71 151.305 Q1967.55 151.305 1965.56 152.486 Q1963.57 153.666 1963.57 156.514 Q1963.57 158.782 1965.05 160.125 Q1966.55 161.444 1969.12 161.444 Q1972.66 161.444 1974.79 158.944 Q1976.95 156.421 1976.95 152.254 L1976.95 151.305 L1972.71 151.305 M1981.21 149.546 L1981.21 164.338 L1976.95 164.338 L1976.95 160.402 Q1975.49 162.763 1973.31 163.898 Q1971.14 165.009 1967.99 165.009 Q1964.01 165.009 1961.65 162.787 Q1959.31 160.541 1959.31 156.791 Q1959.31 152.416 1962.22 150.194 Q1965.16 147.972 1970.97 147.972 L1976.95 147.972 L1976.95 147.555 Q1976.95 144.615 1975 143.018 Q1973.08 141.398 1969.59 141.398 Q1967.36 141.398 1965.26 141.93 Q1963.15 142.463 1961.21 143.527 L1961.21 139.592 Q1963.54 138.69 1965.74 138.25 Q1967.94 137.787 1970.03 137.787 Q1975.65 137.787 1978.43 140.703 Q1981.21 143.62 1981.21 149.546 Z" fill="#000000" fill-rule="nonzero" fill-opacity="1" /><path clip-path="url(#clip770)" d="M1989.98 128.319 L1994.24 128.319 L1994.24 164.338 L1989.98 164.338 L1989.98 128.319 Z" fill="#000000" fill-rule="nonzero" fill-opacity="1" /><path clip-path="url(#clip770)" d="M2022.34 160.449 L2022.34 174.199 L2018.06 174.199 L2018.06 138.412 L2022.34 138.412 L2022.34 142.347 Q2023.68 140.032 2025.72 138.921 Q2027.78 137.787 2030.63 137.787 Q2035.35 137.787 2038.29 141.537 Q2041.25 145.287 2041.25 151.398 Q2041.25 157.509 2038.29 161.259 Q2035.35 165.009 2030.63 165.009 Q2027.78 165.009 2025.72 163.898 Q2023.68 162.763 2022.34 160.449 M2036.83 151.398 Q2036.83 146.699 2034.89 144.037 Q2032.96 141.352 2029.59 141.352 Q2026.21 141.352 2024.26 144.037 Q2022.34 146.699 2022.34 151.398 Q2022.34 156.097 2024.26 158.782 Q2026.21 161.444 2029.59 161.444 Q2032.96 161.444 2034.89 158.782 Q2036.83 156.097 2036.83 151.398 Z" fill="#000000" fill-rule="nonzero" fill-opacity="1" /><path clip-path="url(#clip770)" d="M2060.09 151.305 Q2054.93 151.305 2052.94 152.486 Q2050.95 153.666 2050.95 156.514 Q2050.95 158.782 2052.43 160.125 Q2053.94 161.444 2056.51 161.444 Q2060.05 161.444 2062.18 158.944 Q2064.33 156.421 2064.33 152.254 L2064.33 151.305 L2060.09 151.305 M2068.59 149.546 L2068.59 164.338 L2064.33 164.338 L2064.33 160.402 Q2062.87 162.763 2060.7 163.898 Q2058.52 165.009 2055.37 165.009 Q2051.39 165.009 2049.03 162.787 Q2046.69 160.541 2046.69 156.791 Q2046.69 152.416 2049.61 150.194 Q2052.55 147.972 2058.36 147.972 L2064.33 147.972 L2064.33 147.555 Q2064.33 144.615 2062.39 143.018 Q2060.46 141.398 2056.97 141.398 Q2054.75 141.398 2052.64 141.93 Q2050.53 142.463 2048.59 143.527 L2048.59 139.592 Q2050.93 138.69 2053.13 138.25 Q2055.33 137.787 2057.41 137.787 Q2063.03 137.787 2065.81 140.703 Q2068.59 143.62 2068.59 149.546 Z" fill="#000000" fill-rule="nonzero" fill-opacity="1" /><path clip-path="url(#clip770)" d="M2092.39 142.393 Q2091.67 141.977 2090.81 141.791 Q2089.98 141.583 2088.96 141.583 Q2085.35 141.583 2083.4 143.944 Q2081.48 146.282 2081.48 150.68 L2081.48 164.338 L2077.2 164.338 L2077.2 138.412 L2081.48 138.412 L2081.48 142.44 Q2082.83 140.078 2084.98 138.944 Q2087.13 137.787 2090.21 137.787 Q2090.65 137.787 2091.18 137.856 Q2091.71 137.903 2092.36 138.018 L2092.39 142.393 Z" fill="#000000" fill-rule="nonzero" fill-opacity="1" /><path clip-path="url(#clip770)" d="M2101.07 131.051 L2101.07 138.412 L2109.84 138.412 L2109.84 141.722 L2101.07 141.722 L2101.07 155.796 Q2101.07 158.967 2101.92 159.87 Q2102.8 160.773 2105.46 160.773 L2109.84 160.773 L2109.84 164.338 L2105.46 164.338 Q2100.53 164.338 2098.66 162.509 Q2096.78 160.657 2096.78 155.796 L2096.78 141.722 L2093.66 141.722 L2093.66 138.412 L2096.78 138.412 L2096.78 131.051 L2101.07 131.051 Z" fill="#000000" fill-rule="nonzero" fill-opacity="1" /><polyline clip-path="url(#clip770)" style="stroke:#e26f46; stroke-linecap:round; stroke-linejoin:round; stroke-width:4; stroke-opacity:1; fill:none" points="1747.59,198.898 1889.5,198.898 "/>
<path clip-path="url(#clip770)" d="M1913.15 190.252 L1917.41 190.252 L1917.41 216.178 L1913.15 216.178 L1913.15 190.252 M1913.15 180.159 L1917.41 180.159 L1917.41 185.553 L1913.15 185.553 L1913.15 180.159 Z" fill="#000000" fill-rule="nonzero" fill-opacity="1" /><path clip-path="url(#clip770)" d="M1946.51 195.229 Q1948.1 192.358 1950.33 190.993 Q1952.55 189.627 1955.56 189.627 Q1959.61 189.627 1961.81 192.474 Q1964.01 195.298 1964.01 200.529 L1964.01 216.178 L1959.72 216.178 L1959.72 200.668 Q1959.72 196.942 1958.41 195.136 Q1957.09 193.33 1954.38 193.33 Q1951.07 193.33 1949.15 195.53 Q1947.22 197.729 1947.22 201.525 L1947.22 216.178 L1942.94 216.178 L1942.94 200.668 Q1942.94 196.918 1941.62 195.136 Q1940.3 193.33 1937.55 193.33 Q1934.28 193.33 1932.36 195.553 Q1930.44 197.752 1930.44 201.525 L1930.44 216.178 L1926.16 216.178 L1926.16 190.252 L1930.44 190.252 L1930.44 194.28 Q1931.9 191.895 1933.94 190.761 Q1935.97 189.627 1938.78 189.627 Q1941.6 189.627 1943.57 191.062 Q1945.56 192.497 1946.51 195.229 Z" fill="#000000" fill-rule="nonzero" fill-opacity="1" /><path clip-path="url(#clip770)" d="M1984.28 203.145 Q1979.12 203.145 1977.13 204.326 Q1975.14 205.506 1975.14 208.354 Q1975.14 210.622 1976.62 211.965 Q1978.13 213.284 1980.7 213.284 Q1984.24 213.284 1986.37 210.784 Q1988.52 208.261 1988.52 204.094 L1988.52 203.145 L1984.28 203.145 M1992.78 201.386 L1992.78 216.178 L1988.52 216.178 L1988.52 212.242 Q1987.06 214.603 1984.89 215.738 Q1982.71 216.849 1979.56 216.849 Q1975.58 216.849 1973.22 214.627 Q1970.88 212.381 1970.88 208.631 Q1970.88 204.256 1973.8 202.034 Q1976.74 199.812 1982.55 199.812 L1988.52 199.812 L1988.52 199.395 Q1988.52 196.455 1986.58 194.858 Q1984.65 193.238 1981.16 193.238 Q1978.94 193.238 1976.83 193.77 Q1974.72 194.303 1972.78 195.367 L1972.78 191.432 Q1975.12 190.53 1977.32 190.09 Q1979.52 189.627 1981.6 189.627 Q1987.22 189.627 1990 192.543 Q1992.78 195.46 1992.78 201.386 Z" fill="#000000" fill-rule="nonzero" fill-opacity="1" /><path clip-path="url(#clip770)" d="M2018.61 202.914 Q2018.61 198.284 2016.69 195.738 Q2014.79 193.192 2011.34 193.192 Q2007.92 193.192 2006 195.738 Q2004.1 198.284 2004.1 202.914 Q2004.1 207.52 2006 210.066 Q2007.92 212.613 2011.34 212.613 Q2014.79 212.613 2016.69 210.066 Q2018.61 207.52 2018.61 202.914 M2022.87 212.96 Q2022.87 219.58 2019.93 222.798 Q2016.99 226.039 2010.93 226.039 Q2008.68 226.039 2006.69 225.691 Q2004.7 225.367 2002.83 224.673 L2002.83 220.529 Q2004.7 221.548 2006.53 222.034 Q2008.36 222.52 2010.26 222.52 Q2014.45 222.52 2016.53 220.321 Q2018.61 218.145 2018.61 213.724 L2018.61 211.617 Q2017.29 213.909 2015.23 215.043 Q2013.17 216.178 2010.3 216.178 Q2005.53 216.178 2002.62 212.543 Q1999.7 208.909 1999.7 202.914 Q1999.7 196.895 2002.62 193.261 Q2005.53 189.627 2010.3 189.627 Q2013.17 189.627 2015.23 190.761 Q2017.29 191.895 2018.61 194.187 L2018.61 190.252 L2022.87 190.252 L2022.87 212.96 Z" fill="#000000" fill-rule="nonzero" fill-opacity="1" /><path clip-path="url(#clip770)" d="M2031.65 190.252 L2035.9 190.252 L2035.9 216.178 L2031.65 216.178 L2031.65 190.252 M2031.65 180.159 L2035.9 180.159 L2035.9 185.553 L2031.65 185.553 L2031.65 180.159 Z" fill="#000000" fill-rule="nonzero" fill-opacity="1" /><path clip-path="url(#clip770)" d="M2066.37 200.529 L2066.37 216.178 L2062.11 216.178 L2062.11 200.668 Q2062.11 196.988 2060.67 195.159 Q2059.24 193.33 2056.37 193.33 Q2052.92 193.33 2050.93 195.53 Q2048.94 197.729 2048.94 201.525 L2048.94 216.178 L2044.65 216.178 L2044.65 190.252 L2048.94 190.252 L2048.94 194.28 Q2050.46 191.942 2052.52 190.784 Q2054.61 189.627 2057.32 189.627 Q2061.78 189.627 2064.08 192.405 Q2066.37 195.159 2066.37 200.529 Z" fill="#000000" fill-rule="nonzero" fill-opacity="1" /><path clip-path="url(#clip770)" d="M2086.65 203.145 Q2081.48 203.145 2079.49 204.326 Q2077.5 205.506 2077.5 208.354 Q2077.5 210.622 2078.98 211.965 Q2080.49 213.284 2083.06 213.284 Q2086.6 213.284 2088.73 210.784 Q2090.88 208.261 2090.88 204.094 L2090.88 203.145 L2086.65 203.145 M2095.14 201.386 L2095.14 216.178 L2090.88 216.178 L2090.88 212.242 Q2089.42 214.603 2087.25 215.738 Q2085.07 216.849 2081.92 216.849 Q2077.94 216.849 2075.58 214.627 Q2073.24 212.381 2073.24 208.631 Q2073.24 204.256 2076.16 202.034 Q2079.1 199.812 2084.91 199.812 L2090.88 199.812 L2090.88 199.395 Q2090.88 196.455 2088.94 194.858 Q2087.02 193.238 2083.52 193.238 Q2081.3 193.238 2079.19 193.77 Q2077.09 194.303 2075.14 195.367 L2075.14 191.432 Q2077.48 190.53 2079.68 190.09 Q2081.88 189.627 2083.96 189.627 Q2089.58 189.627 2092.36 192.543 Q2095.14 195.46 2095.14 201.386 Z" fill="#000000" fill-rule="nonzero" fill-opacity="1" /><path clip-path="url(#clip770)" d="M2118.94 194.233 Q2118.22 193.817 2117.36 193.631 Q2116.53 193.423 2115.51 193.423 Q2111.9 193.423 2109.96 195.784 Q2108.03 198.122 2108.03 202.52 L2108.03 216.178 L2103.75 216.178 L2103.75 190.252 L2108.03 190.252 L2108.03 194.28 Q2109.38 191.918 2111.53 190.784 Q2113.68 189.627 2116.76 189.627 Q2117.2 189.627 2117.73 189.696 Q2118.27 189.743 2118.91 189.858 L2118.94 194.233 Z" fill="#000000" fill-rule="nonzero" fill-opacity="1" /><path clip-path="url(#clip770)" d="M2134.19 218.585 Q2132.39 223.215 2130.67 224.627 Q2128.96 226.039 2126.09 226.039 L2122.69 226.039 L2122.69 222.474 L2125.19 222.474 Q2126.95 222.474 2127.92 221.64 Q2128.89 220.807 2130.07 217.705 L2130.83 215.761 L2120.35 190.252 L2124.86 190.252 L2132.96 210.529 L2141.07 190.252 L2145.58 190.252 L2134.19 218.585 Z" fill="#000000" fill-rule="nonzero" fill-opacity="1" /><path clip-path="url(#clip770)" d="M2170.65 212.289 L2170.65 226.039 L2166.37 226.039 L2166.37 190.252 L2170.65 190.252 L2170.65 194.187 Q2171.99 191.872 2174.03 190.761 Q2176.09 189.627 2178.94 189.627 Q2183.66 189.627 2186.6 193.377 Q2189.56 197.127 2189.56 203.238 Q2189.56 209.349 2186.6 213.099 Q2183.66 216.849 2178.94 216.849 Q2176.09 216.849 2174.03 215.738 Q2171.99 214.603 2170.65 212.289 M2185.14 203.238 Q2185.14 198.539 2183.2 195.877 Q2181.27 193.192 2177.89 193.192 Q2174.52 193.192 2172.57 195.877 Q2170.65 198.539 2170.65 203.238 Q2170.65 207.937 2172.57 210.622 Q2174.52 213.284 2177.89 213.284 Q2181.27 213.284 2183.2 210.622 Q2185.14 207.937 2185.14 203.238 Z" fill="#000000" fill-rule="nonzero" fill-opacity="1" /><path clip-path="url(#clip770)" d="M2208.4 203.145 Q2203.24 203.145 2201.25 204.326 Q2199.26 205.506 2199.26 208.354 Q2199.26 210.622 2200.74 211.965 Q2202.25 213.284 2204.82 213.284 Q2208.36 213.284 2210.49 210.784 Q2212.64 208.261 2212.64 204.094 L2212.64 203.145 L2208.4 203.145 M2216.9 201.386 L2216.9 216.178 L2212.64 216.178 L2212.64 212.242 Q2211.18 214.603 2209.01 215.738 Q2206.83 216.849 2203.68 216.849 Q2199.7 216.849 2197.34 214.627 Q2195 212.381 2195 208.631 Q2195 204.256 2197.92 202.034 Q2200.86 199.812 2206.67 199.812 L2212.64 199.812 L2212.64 199.395 Q2212.64 196.455 2210.7 194.858 Q2208.77 193.238 2205.28 193.238 Q2203.06 193.238 2200.95 193.77 Q2198.84 194.303 2196.9 195.367 L2196.9 191.432 Q2199.24 190.53 2201.44 190.09 Q2203.64 189.627 2205.72 189.627 Q2211.34 189.627 2214.12 192.543 Q2216.9 195.46 2216.9 201.386 Z" fill="#000000" fill-rule="nonzero" fill-opacity="1" /><path clip-path="url(#clip770)" d="M2240.7 194.233 Q2239.98 193.817 2239.12 193.631 Q2238.29 193.423 2237.27 193.423 Q2233.66 193.423 2231.71 195.784 Q2229.79 198.122 2229.79 202.52 L2229.79 216.178 L2225.51 216.178 L2225.51 190.252 L2229.79 190.252 L2229.79 194.28 Q2231.14 191.918 2233.29 190.784 Q2235.44 189.627 2238.52 189.627 Q2238.96 189.627 2239.49 189.696 Q2240.02 189.743 2240.67 189.858 L2240.7 194.233 Z" fill="#000000" fill-rule="nonzero" fill-opacity="1" /><path clip-path="url(#clip770)" d="M2249.38 182.891 L2249.38 190.252 L2258.15 190.252 L2258.15 193.562 L2249.38 193.562 L2249.38 207.636 Q2249.38 210.807 2250.23 211.71 Q2251.11 212.613 2253.77 212.613 L2258.15 212.613 L2258.15 216.178 L2253.77 216.178 Q2248.84 216.178 2246.97 214.349 Q2245.09 212.497 2245.09 207.636 L2245.09 193.562 L2241.97 193.562 L2241.97 190.252 L2245.09 190.252 L2245.09 182.891 L2249.38 182.891 Z" fill="#000000" fill-rule="nonzero" fill-opacity="1" /></svg>
