<?xml version="1.0" encoding="utf-8"?>
<svg xmlns="http://www.w3.org/2000/svg" xmlns:xlink="http://www.w3.org/1999/xlink" width="600" height="400" viewBox="0 0 2400 1600">
<defs>
  <clipPath id="clip200">
    <rect x="0" y="0" width="2400" height="1600"/>
  </clipPath>
</defs>
<path clip-path="url(#clip200)" d="M0 1600 L2400 1600 L2400 0 L0 0  Z" fill="#ffffff" fill-rule="evenodd" fill-opacity="1"/>
<defs>
  <clipPath id="clip201">
    <rect x="480" y="0" width="1681" height="1600"/>
  </clipPath>
</defs>
<path clip-path="url(#clip200)" d="M169.121 1423.18 L2352.76 1423.18 L2352.76 47.2441 L169.121 47.2441  Z" fill="#ffffff" fill-rule="evenodd" fill-opacity="1"/>
<defs>
  <clipPath id="clip202">
    <rect x="169" y="47" width="2185" height="1377"/>
  </clipPath>
</defs>
<polyline clip-path="url(#clip202)" style="stroke:#000000; stroke-linecap:round; stroke-linejoin:round; stroke-width:2; stroke-opacity:0.1; fill:none" points="209.882,1423.18 209.882,47.2441 "/>
<polyline clip-path="url(#clip202)" style="stroke:#000000; stroke-linecap:round; stroke-linejoin:round; stroke-width:2; stroke-opacity:0.1; fill:none" points="560.234,1423.18 560.234,47.2441 "/>
<polyline clip-path="url(#clip202)" style="stroke:#000000; stroke-linecap:round; stroke-linejoin:round; stroke-width:2; stroke-opacity:0.1; fill:none" points="910.586,1423.18 910.586,47.2441 "/>
<polyline clip-path="url(#clip202)" style="stroke:#000000; stroke-linecap:round; stroke-linejoin:round; stroke-width:2; stroke-opacity:0.1; fill:none" points="1260.94,1423.18 1260.94,47.2441 "/>
<polyline clip-path="url(#clip202)" style="stroke:#000000; stroke-linecap:round; stroke-linejoin:round; stroke-width:2; stroke-opacity:0.1; fill:none" points="1611.29,1423.18 1611.29,47.2441 "/>
<polyline clip-path="url(#clip202)" style="stroke:#000000; stroke-linecap:round; stroke-linejoin:round; stroke-width:2; stroke-opacity:0.1; fill:none" points="1961.64,1423.18 1961.64,47.2441 "/>
<polyline clip-path="url(#clip202)" style="stroke:#000000; stroke-linecap:round; stroke-linejoin:round; stroke-width:2; stroke-opacity:0.1; fill:none" points="2312,1423.18 2312,47.2441 "/>
<polyline clip-path="url(#clip202)" style="stroke:#000000; stroke-linecap:round; stroke-linejoin:round; stroke-width:2; stroke-opacity:0.1; fill:none" points="169.121,1384.24 2352.76,1384.24 "/>
<polyline clip-path="url(#clip202)" style="stroke:#000000; stroke-linecap:round; stroke-linejoin:round; stroke-width:2; stroke-opacity:0.1; fill:none" points="169.121,938.835 2352.76,938.835 "/>
<polyline clip-path="url(#clip202)" style="stroke:#000000; stroke-linecap:round; stroke-linejoin:round; stroke-width:2; stroke-opacity:0.1; fill:none" points="169.121,493.426 2352.76,493.426 "/>
<polyline clip-path="url(#clip202)" style="stroke:#000000; stroke-linecap:round; stroke-linejoin:round; stroke-width:2; stroke-opacity:0.1; fill:none" points="169.121,48.0167 2352.76,48.0167 "/>
<polyline clip-path="url(#clip200)" style="stroke:#000000; stroke-linecap:round; stroke-linejoin:round; stroke-width:4; stroke-opacity:1; fill:none" points="169.121,1423.18 2352.76,1423.18 "/>
<polyline clip-path="url(#clip200)" style="stroke:#000000; stroke-linecap:round; stroke-linejoin:round; stroke-width:4; stroke-opacity:1; fill:none" points="209.882,1423.18 209.882,1404.28 "/>
<polyline clip-path="url(#clip200)" style="stroke:#000000; stroke-linecap:round; stroke-linejoin:round; stroke-width:4; stroke-opacity:1; fill:none" points="560.234,1423.18 560.234,1404.28 "/>
<polyline clip-path="url(#clip200)" style="stroke:#000000; stroke-linecap:round; stroke-linejoin:round; stroke-width:4; stroke-opacity:1; fill:none" points="910.586,1423.18 910.586,1404.28 "/>
<polyline clip-path="url(#clip200)" style="stroke:#000000; stroke-linecap:round; stroke-linejoin:round; stroke-width:4; stroke-opacity:1; fill:none" points="1260.94,1423.18 1260.94,1404.28 "/>
<polyline clip-path="url(#clip200)" style="stroke:#000000; stroke-linecap:round; stroke-linejoin:round; stroke-width:4; stroke-opacity:1; fill:none" points="1611.29,1423.18 1611.29,1404.28 "/>
<polyline clip-path="url(#clip200)" style="stroke:#000000; stroke-linecap:round; stroke-linejoin:round; stroke-width:4; stroke-opacity:1; fill:none" points="1961.64,1423.18 1961.64,1404.28 "/>
<polyline clip-path="url(#clip200)" style="stroke:#000000; stroke-linecap:round; stroke-linejoin:round; stroke-width:4; stroke-opacity:1; fill:none" points="2312,1423.18 2312,1404.28 "/>
<path clip-path="url(#clip200)" d="M141.827 1468.75 L171.503 1468.75 L171.503 1472.69 L141.827 1472.69 L141.827 1468.75 Z" fill="#000000" fill-rule="nonzero" fill-opacity="1" /><path clip-path="url(#clip200)" d="M191.595 1454.1 Q187.984 1454.1 186.155 1457.66 Q184.35 1461.2 184.35 1468.33 Q184.35 1475.44 186.155 1479.01 Q187.984 1482.55 191.595 1482.55 Q195.229 1482.55 197.035 1479.01 Q198.864 1475.44 198.864 1468.33 Q198.864 1461.2 197.035 1457.66 Q195.229 1454.1 191.595 1454.1 M191.595 1450.39 Q197.405 1450.39 200.461 1455 Q203.54 1459.58 203.54 1468.33 Q203.54 1477.06 200.461 1481.67 Q197.405 1486.25 191.595 1486.25 Q185.785 1486.25 182.706 1481.67 Q179.651 1477.06 179.651 1468.33 Q179.651 1459.58 182.706 1455 Q185.785 1450.39 191.595 1450.39 Z" fill="#000000" fill-rule="nonzero" fill-opacity="1" /><path clip-path="url(#clip200)" d="M211.757 1479.7 L216.641 1479.7 L216.641 1485.58 L211.757 1485.58 L211.757 1479.7 Z" fill="#000000" fill-rule="nonzero" fill-opacity="1" /><path clip-path="url(#clip200)" d="M227.637 1481.64 L235.276 1481.64 L235.276 1455.28 L226.965 1456.95 L226.965 1452.69 L235.229 1451.02 L239.905 1451.02 L239.905 1481.64 L247.544 1481.64 L247.544 1485.58 L227.637 1485.58 L227.637 1481.64 Z" fill="#000000" fill-rule="nonzero" fill-opacity="1" /><path clip-path="url(#clip200)" d="M257.035 1451.02 L275.391 1451.02 L275.391 1454.96 L261.317 1454.96 L261.317 1463.43 Q262.336 1463.08 263.354 1462.92 Q264.373 1462.73 265.391 1462.73 Q271.178 1462.73 274.558 1465.9 Q277.937 1469.08 277.937 1474.49 Q277.937 1480.07 274.465 1483.17 Q270.993 1486.25 264.674 1486.25 Q262.498 1486.25 260.229 1485.88 Q257.984 1485.51 255.576 1484.77 L255.576 1480.07 Q257.66 1481.2 259.882 1481.76 Q262.104 1482.32 264.581 1482.32 Q268.586 1482.32 270.924 1480.21 Q273.261 1478.1 273.261 1474.49 Q273.261 1470.88 270.924 1468.77 Q268.586 1466.67 264.581 1466.67 Q262.706 1466.67 260.831 1467.08 Q258.979 1467.5 257.035 1468.38 L257.035 1451.02 Z" fill="#000000" fill-rule="nonzero" fill-opacity="1" /><path clip-path="url(#clip200)" d="M491.681 1468.75 L521.357 1468.75 L521.357 1472.69 L491.681 1472.69 L491.681 1468.75 Z" fill="#000000" fill-rule="nonzero" fill-opacity="1" /><path clip-path="url(#clip200)" d="M541.45 1454.1 Q537.839 1454.1 536.01 1457.66 Q534.204 1461.2 534.204 1468.33 Q534.204 1475.44 536.01 1479.01 Q537.839 1482.55 541.45 1482.55 Q545.084 1482.55 546.889 1479.01 Q548.718 1475.44 548.718 1468.33 Q548.718 1461.2 546.889 1457.66 Q545.084 1454.1 541.45 1454.1 M541.45 1450.39 Q547.26 1450.39 550.315 1455 Q553.394 1459.58 553.394 1468.33 Q553.394 1477.06 550.315 1481.67 Q547.26 1486.25 541.45 1486.25 Q535.64 1486.25 532.561 1481.67 Q529.505 1477.06 529.505 1468.33 Q529.505 1459.58 532.561 1455 Q535.64 1450.39 541.45 1450.39 Z" fill="#000000" fill-rule="nonzero" fill-opacity="1" /><path clip-path="url(#clip200)" d="M561.612 1479.7 L566.496 1479.7 L566.496 1485.58 L561.612 1485.58 L561.612 1479.7 Z" fill="#000000" fill-rule="nonzero" fill-opacity="1" /><path clip-path="url(#clip200)" d="M577.491 1481.64 L585.13 1481.64 L585.13 1455.28 L576.82 1456.95 L576.82 1452.69 L585.084 1451.02 L589.76 1451.02 L589.76 1481.64 L597.398 1481.64 L597.398 1485.58 L577.491 1485.58 L577.491 1481.64 Z" fill="#000000" fill-rule="nonzero" fill-opacity="1" /><path clip-path="url(#clip200)" d="M616.843 1454.1 Q613.232 1454.1 611.403 1457.66 Q609.597 1461.2 609.597 1468.33 Q609.597 1475.44 611.403 1479.01 Q613.232 1482.55 616.843 1482.55 Q620.477 1482.55 622.283 1479.01 Q624.111 1475.44 624.111 1468.33 Q624.111 1461.2 622.283 1457.66 Q620.477 1454.1 616.843 1454.1 M616.843 1450.39 Q622.653 1450.39 625.709 1455 Q628.787 1459.58 628.787 1468.33 Q628.787 1477.06 625.709 1481.67 Q622.653 1486.25 616.843 1486.25 Q611.033 1486.25 607.954 1481.67 Q604.898 1477.06 604.898 1468.33 Q604.898 1459.58 607.954 1455 Q611.033 1450.39 616.843 1450.39 Z" fill="#000000" fill-rule="nonzero" fill-opacity="1" /><path clip-path="url(#clip200)" d="M842.531 1468.75 L872.207 1468.75 L872.207 1472.69 L842.531 1472.69 L842.531 1468.75 Z" fill="#000000" fill-rule="nonzero" fill-opacity="1" /><path clip-path="url(#clip200)" d="M892.3 1454.1 Q888.688 1454.1 886.86 1457.66 Q885.054 1461.2 885.054 1468.33 Q885.054 1475.44 886.86 1479.01 Q888.688 1482.55 892.3 1482.55 Q895.934 1482.55 897.739 1479.01 Q899.568 1475.44 899.568 1468.33 Q899.568 1461.2 897.739 1457.66 Q895.934 1454.1 892.3 1454.1 M892.3 1450.39 Q898.11 1450.39 901.165 1455 Q904.244 1459.58 904.244 1468.33 Q904.244 1477.06 901.165 1481.67 Q898.11 1486.25 892.3 1486.25 Q886.489 1486.25 883.411 1481.67 Q880.355 1477.06 880.355 1468.33 Q880.355 1459.58 883.411 1455 Q886.489 1450.39 892.3 1450.39 Z" fill="#000000" fill-rule="nonzero" fill-opacity="1" /><path clip-path="url(#clip200)" d="M912.461 1479.7 L917.346 1479.7 L917.346 1485.58 L912.461 1485.58 L912.461 1479.7 Z" fill="#000000" fill-rule="nonzero" fill-opacity="1" /><path clip-path="url(#clip200)" d="M937.531 1454.1 Q933.92 1454.1 932.091 1457.66 Q930.285 1461.2 930.285 1468.33 Q930.285 1475.44 932.091 1479.01 Q933.92 1482.55 937.531 1482.55 Q941.165 1482.55 942.971 1479.01 Q944.799 1475.44 944.799 1468.33 Q944.799 1461.2 942.971 1457.66 Q941.165 1454.1 937.531 1454.1 M937.531 1450.39 Q943.341 1450.39 946.396 1455 Q949.475 1459.58 949.475 1468.33 Q949.475 1477.06 946.396 1481.67 Q943.341 1486.25 937.531 1486.25 Q931.721 1486.25 928.642 1481.67 Q925.586 1477.06 925.586 1468.33 Q925.586 1459.58 928.642 1455 Q931.721 1450.39 937.531 1450.39 Z" fill="#000000" fill-rule="nonzero" fill-opacity="1" /><path clip-path="url(#clip200)" d="M957.739 1451.02 L976.095 1451.02 L976.095 1454.96 L962.021 1454.96 L962.021 1463.43 Q963.04 1463.08 964.058 1462.92 Q965.077 1462.73 966.095 1462.73 Q971.882 1462.73 975.262 1465.9 Q978.642 1469.08 978.642 1474.49 Q978.642 1480.07 975.169 1483.17 Q971.697 1486.25 965.378 1486.25 Q963.202 1486.25 960.933 1485.88 Q958.688 1485.51 956.281 1484.77 L956.281 1480.07 Q958.364 1481.2 960.586 1481.76 Q962.808 1482.32 965.285 1482.32 Q969.29 1482.32 971.628 1480.21 Q973.966 1478.1 973.966 1474.49 Q973.966 1470.88 971.628 1468.77 Q969.29 1466.67 965.285 1466.67 Q963.41 1466.67 961.535 1467.08 Q959.683 1467.5 957.739 1468.38 L957.739 1451.02 Z" fill="#000000" fill-rule="nonzero" fill-opacity="1" /><path clip-path="url(#clip200)" d="M1223.24 1454.1 Q1219.63 1454.1 1217.8 1457.66 Q1216 1461.2 1216 1468.33 Q1216 1475.44 1217.8 1479.01 Q1219.63 1482.55 1223.24 1482.55 Q1226.88 1482.55 1228.68 1479.01 Q1230.51 1475.44 1230.51 1468.33 Q1230.51 1461.2 1228.68 1457.66 Q1226.88 1454.1 1223.24 1454.1 M1223.24 1450.39 Q1229.05 1450.39 1232.11 1455 Q1235.19 1459.58 1235.19 1468.33 Q1235.19 1477.06 1232.11 1481.67 Q1229.05 1486.25 1223.24 1486.25 Q1217.43 1486.25 1214.35 1481.67 Q1211.3 1477.06 1211.3 1468.33 Q1211.3 1459.58 1214.35 1455 Q1217.43 1450.39 1223.24 1450.39 Z" fill="#000000" fill-rule="nonzero" fill-opacity="1" /><path clip-path="url(#clip200)" d="M1243.4 1479.7 L1248.29 1479.7 L1248.29 1485.58 L1243.4 1485.58 L1243.4 1479.7 Z" fill="#000000" fill-rule="nonzero" fill-opacity="1" /><path clip-path="url(#clip200)" d="M1268.47 1454.1 Q1264.86 1454.1 1263.03 1457.66 Q1261.23 1461.2 1261.23 1468.33 Q1261.23 1475.44 1263.03 1479.01 Q1264.86 1482.55 1268.47 1482.55 Q1272.11 1482.55 1273.91 1479.01 Q1275.74 1475.44 1275.74 1468.33 Q1275.74 1461.2 1273.91 1457.66 Q1272.11 1454.1 1268.47 1454.1 M1268.47 1450.39 Q1274.28 1450.39 1277.34 1455 Q1280.42 1459.58 1280.42 1468.33 Q1280.42 1477.06 1277.34 1481.67 Q1274.28 1486.25 1268.47 1486.25 Q1262.66 1486.25 1259.58 1481.67 Q1256.53 1477.06 1256.53 1468.33 Q1256.53 1459.58 1259.58 1455 Q1262.66 1450.39 1268.47 1450.39 Z" fill="#000000" fill-rule="nonzero" fill-opacity="1" /><path clip-path="url(#clip200)" d="M1298.64 1454.1 Q1295.02 1454.1 1293.2 1457.66 Q1291.39 1461.2 1291.39 1468.33 Q1291.39 1475.44 1293.2 1479.01 Q1295.02 1482.55 1298.64 1482.55 Q1302.27 1482.55 1304.07 1479.01 Q1305.9 1475.44 1305.9 1468.33 Q1305.9 1461.2 1304.07 1457.66 Q1302.27 1454.1 1298.64 1454.1 M1298.64 1450.39 Q1304.45 1450.39 1307.5 1455 Q1310.58 1459.58 1310.58 1468.33 Q1310.58 1477.06 1307.5 1481.67 Q1304.45 1486.25 1298.64 1486.25 Q1292.83 1486.25 1289.75 1481.67 Q1286.69 1477.06 1286.69 1468.33 Q1286.69 1459.58 1289.75 1455 Q1292.83 1450.39 1298.64 1450.39 Z" fill="#000000" fill-rule="nonzero" fill-opacity="1" /><path clip-path="url(#clip200)" d="M1574.09 1454.1 Q1570.48 1454.1 1568.65 1457.66 Q1566.85 1461.2 1566.85 1468.33 Q1566.85 1475.44 1568.65 1479.01 Q1570.48 1482.55 1574.09 1482.55 Q1577.73 1482.55 1579.53 1479.01 Q1581.36 1475.44 1581.36 1468.33 Q1581.36 1461.2 1579.53 1457.66 Q1577.73 1454.1 1574.09 1454.1 M1574.09 1450.39 Q1579.9 1450.39 1582.96 1455 Q1586.04 1459.58 1586.04 1468.33 Q1586.04 1477.06 1582.96 1481.67 Q1579.9 1486.25 1574.09 1486.25 Q1568.28 1486.25 1565.2 1481.67 Q1562.15 1477.06 1562.15 1468.33 Q1562.15 1459.58 1565.2 1455 Q1568.28 1450.39 1574.09 1450.39 Z" fill="#000000" fill-rule="nonzero" fill-opacity="1" /><path clip-path="url(#clip200)" d="M1594.25 1479.7 L1599.14 1479.7 L1599.14 1485.58 L1594.25 1485.58 L1594.25 1479.7 Z" fill="#000000" fill-rule="nonzero" fill-opacity="1" /><path clip-path="url(#clip200)" d="M1619.32 1454.1 Q1615.71 1454.1 1613.88 1457.66 Q1612.08 1461.2 1612.08 1468.33 Q1612.08 1475.44 1613.88 1479.01 Q1615.71 1482.55 1619.32 1482.55 Q1622.96 1482.55 1624.76 1479.01 Q1626.59 1475.44 1626.59 1468.33 Q1626.59 1461.2 1624.76 1457.66 Q1622.96 1454.1 1619.32 1454.1 M1619.32 1450.39 Q1625.13 1450.39 1628.19 1455 Q1631.27 1459.58 1631.27 1468.33 Q1631.27 1477.06 1628.19 1481.67 Q1625.13 1486.25 1619.32 1486.25 Q1613.51 1486.25 1610.43 1481.67 Q1607.38 1477.06 1607.38 1468.33 Q1607.38 1459.58 1610.43 1455 Q1613.51 1450.39 1619.32 1450.39 Z" fill="#000000" fill-rule="nonzero" fill-opacity="1" /><path clip-path="url(#clip200)" d="M1639.53 1451.02 L1657.89 1451.02 L1657.89 1454.96 L1643.81 1454.96 L1643.81 1463.43 Q1644.83 1463.08 1645.85 1462.92 Q1646.87 1462.73 1647.89 1462.73 Q1653.67 1462.73 1657.05 1465.9 Q1660.43 1469.08 1660.43 1474.49 Q1660.43 1480.07 1656.96 1483.17 Q1653.49 1486.25 1647.17 1486.25 Q1644.99 1486.25 1642.73 1485.88 Q1640.48 1485.51 1638.07 1484.77 L1638.07 1480.07 Q1640.16 1481.2 1642.38 1481.76 Q1644.6 1482.32 1647.08 1482.32 Q1651.08 1482.32 1653.42 1480.21 Q1655.76 1478.1 1655.76 1474.49 Q1655.76 1470.88 1653.42 1468.77 Q1651.08 1466.67 1647.08 1466.67 Q1645.2 1466.67 1643.33 1467.08 Q1641.48 1467.5 1639.53 1468.38 L1639.53 1451.02 Z" fill="#000000" fill-rule="nonzero" fill-opacity="1" /><path clip-path="url(#clip200)" d="M1923.95 1454.1 Q1920.34 1454.1 1918.51 1457.66 Q1916.7 1461.2 1916.7 1468.33 Q1916.7 1475.44 1918.51 1479.01 Q1920.34 1482.55 1923.95 1482.55 Q1927.58 1482.55 1929.39 1479.01 Q1931.21 1475.44 1931.21 1468.33 Q1931.21 1461.2 1929.39 1457.66 Q1927.58 1454.1 1923.95 1454.1 M1923.95 1450.39 Q1929.76 1450.39 1932.81 1455 Q1935.89 1459.58 1935.89 1468.33 Q1935.89 1477.06 1932.81 1481.67 Q1929.76 1486.25 1923.95 1486.25 Q1918.14 1486.25 1915.06 1481.67 Q1912 1477.06 1912 1468.33 Q1912 1459.58 1915.06 1455 Q1918.14 1450.39 1923.95 1450.39 Z" fill="#000000" fill-rule="nonzero" fill-opacity="1" /><path clip-path="url(#clip200)" d="M1944.11 1479.7 L1948.99 1479.7 L1948.99 1485.58 L1944.11 1485.58 L1944.11 1479.7 Z" fill="#000000" fill-rule="nonzero" fill-opacity="1" /><path clip-path="url(#clip200)" d="M1959.99 1481.64 L1967.63 1481.64 L1967.63 1455.28 L1959.32 1456.95 L1959.32 1452.69 L1967.58 1451.02 L1972.26 1451.02 L1972.26 1481.64 L1979.9 1481.64 L1979.9 1485.58 L1959.99 1485.58 L1959.99 1481.64 Z" fill="#000000" fill-rule="nonzero" fill-opacity="1" /><path clip-path="url(#clip200)" d="M1999.34 1454.1 Q1995.73 1454.1 1993.9 1457.66 Q1992.09 1461.2 1992.09 1468.33 Q1992.09 1475.44 1993.9 1479.01 Q1995.73 1482.55 1999.34 1482.55 Q2002.97 1482.55 2004.78 1479.01 Q2006.61 1475.44 2006.61 1468.33 Q2006.61 1461.2 2004.78 1457.66 Q2002.97 1454.1 1999.34 1454.1 M1999.34 1450.39 Q2005.15 1450.39 2008.21 1455 Q2011.28 1459.58 2011.28 1468.33 Q2011.28 1477.06 2008.21 1481.67 Q2005.15 1486.25 1999.34 1486.25 Q1993.53 1486.25 1990.45 1481.67 Q1987.4 1477.06 1987.4 1468.33 Q1987.4 1459.58 1990.45 1455 Q1993.53 1450.39 1999.34 1450.39 Z" fill="#000000" fill-rule="nonzero" fill-opacity="1" /><path clip-path="url(#clip200)" d="M2274.8 1454.1 Q2271.19 1454.1 2269.36 1457.66 Q2267.55 1461.2 2267.55 1468.33 Q2267.55 1475.44 2269.36 1479.01 Q2271.19 1482.55 2274.8 1482.55 Q2278.43 1482.55 2280.24 1479.01 Q2282.06 1475.44 2282.06 1468.33 Q2282.06 1461.2 2280.24 1457.66 Q2278.43 1454.1 2274.8 1454.1 M2274.8 1450.39 Q2280.61 1450.39 2283.66 1455 Q2286.74 1459.58 2286.74 1468.33 Q2286.74 1477.06 2283.66 1481.67 Q2280.61 1486.25 2274.8 1486.25 Q2268.99 1486.25 2265.91 1481.67 Q2262.85 1477.06 2262.85 1468.33 Q2262.85 1459.58 2265.91 1455 Q2268.99 1450.39 2274.8 1450.39 Z" fill="#000000" fill-rule="nonzero" fill-opacity="1" /><path clip-path="url(#clip200)" d="M2294.96 1479.7 L2299.84 1479.7 L2299.84 1485.58 L2294.96 1485.58 L2294.96 1479.7 Z" fill="#000000" fill-rule="nonzero" fill-opacity="1" /><path clip-path="url(#clip200)" d="M2310.84 1481.64 L2318.48 1481.64 L2318.48 1455.28 L2310.17 1456.95 L2310.17 1452.69 L2318.43 1451.02 L2323.11 1451.02 L2323.11 1481.64 L2330.74 1481.64 L2330.74 1485.58 L2310.84 1485.58 L2310.84 1481.64 Z" fill="#000000" fill-rule="nonzero" fill-opacity="1" /><path clip-path="url(#clip200)" d="M2340.24 1451.02 L2358.59 1451.02 L2358.59 1454.96 L2344.52 1454.96 L2344.52 1463.43 Q2345.54 1463.08 2346.56 1462.92 Q2347.57 1462.73 2348.59 1462.73 Q2354.38 1462.73 2357.76 1465.9 Q2361.14 1469.08 2361.14 1474.49 Q2361.14 1480.07 2357.67 1483.17 Q2354.19 1486.25 2347.87 1486.25 Q2345.7 1486.25 2343.43 1485.88 Q2341.18 1485.51 2338.78 1484.77 L2338.78 1480.07 Q2340.86 1481.2 2343.08 1481.76 Q2345.31 1482.32 2347.78 1482.32 Q2351.79 1482.32 2354.12 1480.21 Q2356.46 1478.1 2356.46 1474.49 Q2356.46 1470.88 2354.12 1468.77 Q2351.79 1466.67 2347.78 1466.67 Q2345.91 1466.67 2344.03 1467.08 Q2342.18 1467.5 2340.24 1468.38 L2340.24 1451.02 Z" fill="#000000" fill-rule="nonzero" fill-opacity="1" /><path clip-path="url(#clip200)" d="M947.364 1548.76 L947.364 1551.62 L920.437 1551.62 Q920.819 1557.67 924.065 1560.85 Q927.344 1564 933.168 1564 Q936.542 1564 939.693 1563.17 Q942.876 1562.35 945.995 1560.69 L945.995 1566.23 Q942.844 1567.57 939.534 1568.27 Q936.224 1568.97 932.818 1568.97 Q924.288 1568.97 919.291 1564 Q914.326 1559.04 914.326 1550.57 Q914.326 1541.82 919.037 1536.69 Q923.779 1531.54 931.8 1531.54 Q938.993 1531.54 943.163 1536.18 Q947.364 1540.8 947.364 1548.76 M941.507 1547.04 Q941.444 1542.23 938.802 1539.37 Q936.192 1536.5 931.863 1536.5 Q926.962 1536.5 924.002 1539.27 Q921.074 1542.04 920.628 1547.07 L941.507 1547.04 Z" fill="#000000" fill-rule="nonzero" fill-opacity="1" /><path clip-path="url(#clip200)" d="M956.976 1532.4 L962.833 1532.4 L962.833 1568.04 L956.976 1568.04 L956.976 1532.4 M956.976 1518.52 L962.833 1518.52 L962.833 1525.93 L956.976 1525.93 L956.976 1518.52 Z" fill="#000000" fill-rule="nonzero" fill-opacity="1" /><path clip-path="url(#clip200)" d="M998.544 1549.81 Q998.544 1543.44 995.902 1539.94 Q993.292 1536.44 988.55 1536.44 Q983.839 1536.44 981.198 1539.94 Q978.588 1543.44 978.588 1549.81 Q978.588 1556.14 981.198 1559.64 Q983.839 1563.14 988.55 1563.14 Q993.292 1563.14 995.902 1559.64 Q998.544 1556.14 998.544 1549.81 M1004.4 1563.62 Q1004.4 1572.72 1000.36 1577.15 Q996.316 1581.6 987.977 1581.6 Q984.89 1581.6 982.152 1581.13 Q979.415 1580.68 976.837 1579.72 L976.837 1574.03 Q979.415 1575.43 981.93 1576.1 Q984.444 1576.76 987.054 1576.76 Q992.815 1576.76 995.68 1573.74 Q998.544 1570.75 998.544 1564.67 L998.544 1561.77 Q996.73 1564.92 993.897 1566.48 Q991.064 1568.04 987.118 1568.04 Q980.561 1568.04 976.551 1563.05 Q972.54 1558.05 972.54 1549.81 Q972.54 1541.53 976.551 1536.53 Q980.561 1531.54 987.118 1531.54 Q991.064 1531.54 993.897 1533.1 Q996.73 1534.66 998.544 1537.81 L998.544 1532.4 L1004.4 1532.4 L1004.4 1563.62 Z" fill="#000000" fill-rule="nonzero" fill-opacity="1" /><path clip-path="url(#clip200)" d="M1046.96 1548.76 L1046.96 1551.62 L1020.03 1551.62 Q1020.41 1557.67 1023.66 1560.85 Q1026.94 1564 1032.76 1564 Q1036.13 1564 1039.28 1563.17 Q1042.47 1562.35 1045.59 1560.69 L1045.59 1566.23 Q1042.44 1567.57 1039.13 1568.27 Q1035.82 1568.97 1032.41 1568.97 Q1023.88 1568.97 1018.88 1564 Q1013.92 1559.04 1013.92 1550.57 Q1013.92 1541.82 1018.63 1536.69 Q1023.37 1531.54 1031.39 1531.54 Q1038.58 1531.54 1042.75 1536.18 Q1046.96 1540.8 1046.96 1548.76 M1041.1 1547.04 Q1041.04 1542.23 1038.39 1539.37 Q1035.78 1536.5 1031.45 1536.5 Q1026.55 1536.5 1023.59 1539.27 Q1020.67 1542.04 1020.22 1547.07 L1041.1 1547.04 Z" fill="#000000" fill-rule="nonzero" fill-opacity="1" /><path clip-path="url(#clip200)" d="M1086.2 1546.53 L1086.2 1568.04 L1080.34 1568.04 L1080.34 1546.72 Q1080.34 1541.66 1078.37 1539.14 Q1076.4 1536.63 1072.45 1536.63 Q1067.71 1536.63 1064.97 1539.65 Q1062.23 1542.68 1062.23 1547.9 L1062.23 1568.04 L1056.34 1568.04 L1056.34 1532.4 L1062.23 1532.4 L1062.23 1537.93 Q1064.33 1534.72 1067.17 1533.13 Q1070.03 1531.54 1073.76 1531.54 Q1079.9 1531.54 1083.05 1535.36 Q1086.2 1539.14 1086.2 1546.53 Z" fill="#000000" fill-rule="nonzero" fill-opacity="1" /><path clip-path="url(#clip200)" d="M1093.68 1532.4 L1099.89 1532.4 L1111.03 1562.31 L1122.17 1532.4 L1128.37 1532.4 L1115 1568.04 L1107.05 1568.04 L1093.68 1532.4 Z" fill="#000000" fill-rule="nonzero" fill-opacity="1" /><path clip-path="url(#clip200)" d="M1152.66 1550.12 Q1145.56 1550.12 1142.82 1551.75 Q1140.09 1553.37 1140.09 1557.29 Q1140.09 1560.4 1142.12 1562.25 Q1144.19 1564.07 1147.72 1564.07 Q1152.59 1564.07 1155.52 1560.63 Q1158.48 1557.16 1158.48 1551.43 L1158.48 1550.12 L1152.66 1550.12 M1164.34 1547.71 L1164.34 1568.04 L1158.48 1568.04 L1158.48 1562.63 Q1156.48 1565.88 1153.49 1567.44 Q1150.49 1568.97 1146.16 1568.97 Q1140.69 1568.97 1137.44 1565.91 Q1134.23 1562.82 1134.23 1557.67 Q1134.23 1551.65 1138.24 1548.6 Q1142.28 1545.54 1150.27 1545.54 L1158.48 1545.54 L1158.48 1544.97 Q1158.48 1540.93 1155.81 1538.73 Q1153.17 1536.5 1148.36 1536.5 Q1145.31 1536.5 1142.41 1537.23 Q1139.51 1537.97 1136.84 1539.43 L1136.84 1534.02 Q1140.05 1532.78 1143.08 1532.17 Q1146.1 1531.54 1148.97 1531.54 Q1156.7 1531.54 1160.52 1535.55 Q1164.34 1539.56 1164.34 1547.71 Z" fill="#000000" fill-rule="nonzero" fill-opacity="1" /><path clip-path="url(#clip200)" d="M1176.4 1518.52 L1182.26 1518.52 L1182.26 1568.04 L1176.4 1568.04 L1176.4 1518.52 Z" fill="#000000" fill-rule="nonzero" fill-opacity="1" /><path clip-path="url(#clip200)" d="M1193.91 1553.98 L1193.91 1532.4 L1199.76 1532.4 L1199.76 1553.75 Q1199.76 1558.81 1201.74 1561.36 Q1203.71 1563.87 1207.66 1563.87 Q1212.4 1563.87 1215.14 1560.85 Q1217.91 1557.83 1217.91 1552.61 L1217.91 1532.4 L1223.76 1532.4 L1223.76 1568.04 L1217.91 1568.04 L1217.91 1562.57 Q1215.77 1565.82 1212.94 1567.41 Q1210.14 1568.97 1206.42 1568.97 Q1200.27 1568.97 1197.09 1565.15 Q1193.91 1561.33 1193.91 1553.98 M1208.64 1531.54 L1208.64 1531.54 Z" fill="#000000" fill-rule="nonzero" fill-opacity="1" /><path clip-path="url(#clip200)" d="M1266.32 1548.76 L1266.32 1551.62 L1239.39 1551.62 Q1239.77 1557.67 1243.02 1560.85 Q1246.3 1564 1252.12 1564 Q1255.5 1564 1258.65 1563.17 Q1261.83 1562.35 1264.95 1560.69 L1264.95 1566.23 Q1261.8 1567.57 1258.49 1568.27 Q1255.18 1568.97 1251.77 1568.97 Q1243.24 1568.97 1238.24 1564 Q1233.28 1559.04 1233.28 1550.57 Q1233.28 1541.82 1237.99 1536.69 Q1242.73 1531.54 1250.75 1531.54 Q1257.95 1531.54 1262.12 1536.18 Q1266.32 1540.8 1266.32 1548.76 M1260.46 1547.04 Q1260.4 1542.23 1257.76 1539.37 Q1255.15 1536.5 1250.82 1536.5 Q1245.92 1536.5 1242.96 1539.27 Q1240.03 1542.04 1239.58 1547.07 L1260.46 1547.04 Z" fill="#000000" fill-rule="nonzero" fill-opacity="1" /><path clip-path="url(#clip200)" d="M1298.66 1533.45 L1298.66 1538.98 Q1296.17 1537.71 1293.5 1537.07 Q1290.83 1536.44 1287.96 1536.44 Q1283.6 1536.44 1281.4 1537.77 Q1279.24 1539.11 1279.24 1541.79 Q1279.24 1543.82 1280.8 1545 Q1282.36 1546.15 1287.07 1547.2 L1289.08 1547.64 Q1295.31 1548.98 1297.92 1551.43 Q1300.57 1553.85 1300.57 1558.21 Q1300.57 1563.17 1296.62 1566.07 Q1292.7 1568.97 1285.83 1568.97 Q1282.96 1568.97 1279.84 1568.39 Q1276.76 1567.85 1273.32 1566.74 L1273.32 1560.69 Q1276.57 1562.38 1279.72 1563.24 Q1282.87 1564.07 1285.96 1564.07 Q1290.09 1564.07 1292.32 1562.66 Q1294.55 1561.23 1294.55 1558.65 Q1294.55 1556.27 1292.93 1554.99 Q1291.33 1553.72 1285.89 1552.54 L1283.86 1552.07 Q1278.41 1550.92 1275.99 1548.56 Q1273.57 1546.18 1273.57 1542.04 Q1273.57 1537.01 1277.14 1534.27 Q1280.7 1531.54 1287.26 1531.54 Q1290.51 1531.54 1293.37 1532.01 Q1296.24 1532.49 1298.66 1533.45 Z" fill="#000000" fill-rule="nonzero" fill-opacity="1" /><path clip-path="url(#clip200)" d="M1327.65 1547.58 L1344.81 1547.58 L1344.81 1552.8 L1327.65 1552.8 L1327.65 1547.58 Z" fill="#000000" fill-rule="nonzero" fill-opacity="1" /><path clip-path="url(#clip200)" d="M1360.56 1548.82 Q1357 1548.06 1355.09 1545.99 Q1353.18 1543.95 1353.18 1540.99 Q1353.18 1536.5 1356.81 1533.99 Q1360.4 1531.5 1366.64 1531.5 Q1369.06 1531.5 1371.77 1531.89 Q1374.47 1532.27 1377.59 1533.03 L1377.59 1538.35 Q1374.5 1537.42 1371.96 1537.01 Q1369.38 1536.6 1367.12 1536.6 Q1363.33 1536.6 1361.13 1538.06 Q1358.91 1539.53 1358.91 1541.56 Q1358.91 1543.79 1361.07 1545.22 Q1363.2 1546.62 1366.9 1546.62 L1371.83 1546.62 L1371.83 1551.46 L1367.12 1551.46 Q1362.76 1551.46 1360.47 1553.08 Q1357.98 1554.87 1357.98 1557.67 Q1357.98 1560.53 1360.66 1562.31 Q1363.36 1564.1 1368.17 1564.1 Q1371.13 1564.1 1373.83 1563.52 Q1376.54 1562.92 1378.8 1561.74 L1378.8 1567.18 Q1375.94 1568.08 1373.26 1568.52 Q1370.56 1568.97 1368.01 1568.97 Q1360.43 1568.97 1356.33 1566.07 Q1352.22 1563.17 1352.22 1557.67 Q1352.22 1554.23 1354.42 1551.91 Q1356.62 1549.58 1360.56 1548.82 Z" fill="#000000" fill-rule="nonzero" fill-opacity="1" /><path clip-path="url(#clip200)" d="M1416.45 1578.87 L1416.45 1583.42 L1382.59 1583.42 L1382.59 1578.87 L1416.45 1578.87 Z" fill="#000000" fill-rule="nonzero" fill-opacity="1" /><path clip-path="url(#clip200)" d="M1422.21 1520.52 L1449.52 1520.52 L1449.52 1525.93 L1428.64 1525.93 L1428.64 1539.94 L1447.49 1539.94 L1447.49 1545.35 L1428.64 1545.35 L1428.64 1568.04 L1422.21 1568.04 L1422.21 1520.52 Z" fill="#000000" fill-rule="nonzero" fill-opacity="1" /><path clip-path="url(#clip200)" d="M1514.96 1518.58 Q1510.7 1525.9 1508.63 1533.06 Q1506.56 1540.23 1506.56 1547.58 Q1506.56 1554.93 1508.63 1562.16 Q1510.73 1569.35 1514.96 1576.64 L1509.87 1576.64 Q1505.1 1569.16 1502.71 1561.93 Q1500.35 1554.71 1500.35 1547.58 Q1500.35 1540.48 1502.71 1533.29 Q1505.06 1526.09 1509.87 1518.58 L1514.96 1518.58 Z" fill="#000000" fill-rule="nonzero" fill-opacity="1" /><path clip-path="url(#clip200)" d="M1526.58 1520.52 L1556.63 1520.52 L1556.63 1525.93 L1533.01 1525.93 L1533.01 1540 L1555.64 1540 L1555.64 1545.41 L1533.01 1545.41 L1533.01 1562.63 L1557.2 1562.63 L1557.2 1568.04 L1526.58 1568.04 L1526.58 1520.52 Z" fill="#000000" fill-rule="nonzero" fill-opacity="1" /><path clip-path="url(#clip200)" d="M1583.9 1555.98 L1583.9 1568.04 L1580.21 1568.04 L1580.21 1556.11 Q1580.21 1553.28 1578.97 1551.87 Q1577.73 1550.44 1575.25 1550.44 Q1572.25 1550.44 1570.53 1552.16 Q1568.82 1553.85 1568.82 1556.78 L1568.82 1568.04 L1565.09 1568.04 L1565.09 1540.32 L1568.82 1540.32 L1568.82 1551.17 Q1570.12 1549.39 1571.9 1548.5 Q1573.72 1547.61 1576.07 1547.61 Q1579.92 1547.61 1581.9 1549.74 Q1583.9 1551.87 1583.9 1555.98 Z" fill="#000000" fill-rule="nonzero" fill-opacity="1" /><path clip-path="url(#clip200)" d="M1592.94 1518.58 L1598.03 1518.58 Q1602.81 1526.09 1605.16 1533.29 Q1607.55 1540.48 1607.55 1547.58 Q1607.55 1554.71 1605.16 1561.93 Q1602.81 1569.16 1598.03 1576.64 L1592.94 1576.64 Q1597.18 1569.35 1599.24 1562.16 Q1601.34 1554.93 1601.34 1547.58 Q1601.34 1540.23 1599.24 1533.06 Q1597.18 1525.9 1592.94 1518.58 Z" fill="#000000" fill-rule="nonzero" fill-opacity="1" /><polyline clip-path="url(#clip200)" style="stroke:#000000; stroke-linecap:round; stroke-linejoin:round; stroke-width:4; stroke-opacity:1; fill:none" points="169.121,1423.18 169.121,47.2441 "/>
<polyline clip-path="url(#clip200)" style="stroke:#000000; stroke-linecap:round; stroke-linejoin:round; stroke-width:4; stroke-opacity:1; fill:none" points="169.121,1384.24 188.019,1384.24 "/>
<polyline clip-path="url(#clip200)" style="stroke:#000000; stroke-linecap:round; stroke-linejoin:round; stroke-width:4; stroke-opacity:1; fill:none" points="169.121,938.835 188.019,938.835 "/>
<polyline clip-path="url(#clip200)" style="stroke:#000000; stroke-linecap:round; stroke-linejoin:round; stroke-width:4; stroke-opacity:1; fill:none" points="169.121,493.426 188.019,493.426 "/>
<polyline clip-path="url(#clip200)" style="stroke:#000000; stroke-linecap:round; stroke-linejoin:round; stroke-width:4; stroke-opacity:1; fill:none" points="169.121,48.0167 188.019,48.0167 "/>
<path clip-path="url(#clip200)" d="M121.177 1370.04 Q117.566 1370.04 115.737 1373.61 Q113.932 1377.15 113.932 1384.28 Q113.932 1391.39 115.737 1394.95 Q117.566 1398.49 121.177 1398.49 Q124.811 1398.49 126.617 1394.95 Q128.445 1391.39 128.445 1384.28 Q128.445 1377.15 126.617 1373.61 Q124.811 1370.04 121.177 1370.04 M121.177 1366.34 Q126.987 1366.34 130.043 1370.95 Q133.121 1375.53 133.121 1384.28 Q133.121 1393.01 130.043 1397.61 Q126.987 1402.2 121.177 1402.2 Q115.367 1402.2 112.288 1397.61 Q109.233 1393.01 109.233 1384.28 Q109.233 1375.53 112.288 1370.95 Q115.367 1366.34 121.177 1366.34 Z" fill="#000000" fill-rule="nonzero" fill-opacity="1" /><path clip-path="url(#clip200)" d="M81.0614 921.555 L99.4178 921.555 L99.4178 925.49 L85.3438 925.49 L85.3438 933.963 Q86.3623 933.615 87.3808 933.453 Q88.3993 933.268 89.4178 933.268 Q95.2049 933.268 98.5845 936.439 Q101.964 939.611 101.964 945.027 Q101.964 950.606 98.4919 953.708 Q95.0197 956.787 88.7003 956.787 Q86.5243 956.787 84.2558 956.416 Q82.0105 956.046 79.6031 955.305 L79.6031 950.606 Q81.6864 951.74 83.9086 952.296 Q86.1308 952.851 88.6077 952.851 Q92.6123 952.851 94.9502 950.745 Q97.2882 948.638 97.2882 945.027 Q97.2882 941.416 94.9502 939.31 Q92.6123 937.203 88.6077 937.203 Q86.7327 937.203 84.8577 937.62 Q83.0058 938.037 81.0614 938.916 L81.0614 921.555 Z" fill="#000000" fill-rule="nonzero" fill-opacity="1" /><path clip-path="url(#clip200)" d="M121.177 924.634 Q117.566 924.634 115.737 928.199 Q113.932 931.74 113.932 938.87 Q113.932 945.976 115.737 949.541 Q117.566 953.083 121.177 953.083 Q124.811 953.083 126.617 949.541 Q128.445 945.976 128.445 938.87 Q128.445 931.74 126.617 928.199 Q124.811 924.634 121.177 924.634 M121.177 920.93 Q126.987 920.93 130.043 925.537 Q133.121 930.12 133.121 938.87 Q133.121 947.597 130.043 952.203 Q126.987 956.787 121.177 956.787 Q115.367 956.787 112.288 952.203 Q109.233 947.597 109.233 938.87 Q109.233 930.12 112.288 925.537 Q115.367 920.93 121.177 920.93 Z" fill="#000000" fill-rule="nonzero" fill-opacity="1" /><path clip-path="url(#clip200)" d="M51.6634 506.771 L59.3023 506.771 L59.3023 480.405 L50.9921 482.072 L50.9921 477.813 L59.256 476.146 L63.9319 476.146 L63.9319 506.771 L71.5707 506.771 L71.5707 510.706 L51.6634 510.706 L51.6634 506.771 Z" fill="#000000" fill-rule="nonzero" fill-opacity="1" /><path clip-path="url(#clip200)" d="M91.0151 479.225 Q87.404 479.225 85.5753 482.789 Q83.7697 486.331 83.7697 493.461 Q83.7697 500.567 85.5753 504.132 Q87.404 507.674 91.0151 507.674 Q94.6493 507.674 96.4548 504.132 Q98.2835 500.567 98.2835 493.461 Q98.2835 486.331 96.4548 482.789 Q94.6493 479.225 91.0151 479.225 M91.0151 475.521 Q96.8252 475.521 99.8808 480.127 Q102.959 484.711 102.959 493.461 Q102.959 502.188 99.8808 506.794 Q96.8252 511.377 91.0151 511.377 Q85.2049 511.377 82.1262 506.794 Q79.0707 502.188 79.0707 493.461 Q79.0707 484.711 82.1262 480.127 Q85.2049 475.521 91.0151 475.521 Z" fill="#000000" fill-rule="nonzero" fill-opacity="1" /><path clip-path="url(#clip200)" d="M121.177 479.225 Q117.566 479.225 115.737 482.789 Q113.932 486.331 113.932 493.461 Q113.932 500.567 115.737 504.132 Q117.566 507.674 121.177 507.674 Q124.811 507.674 126.617 504.132 Q128.445 500.567 128.445 493.461 Q128.445 486.331 126.617 482.789 Q124.811 479.225 121.177 479.225 M121.177 475.521 Q126.987 475.521 130.043 480.127 Q133.121 484.711 133.121 493.461 Q133.121 502.188 130.043 506.794 Q126.987 511.377 121.177 511.377 Q115.367 511.377 112.288 506.794 Q109.233 502.188 109.233 493.461 Q109.233 484.711 112.288 480.127 Q115.367 475.521 121.177 475.521 Z" fill="#000000" fill-rule="nonzero" fill-opacity="1" /><path clip-path="url(#clip200)" d="M51.6634 61.3616 L59.3023 61.3616 L59.3023 34.996 L50.9921 36.6626 L50.9921 32.4034 L59.256 30.7367 L63.9319 30.7367 L63.9319 61.3616 L71.5707 61.3616 L71.5707 65.2967 L51.6634 65.2967 L51.6634 61.3616 Z" fill="#000000" fill-rule="nonzero" fill-opacity="1" /><path clip-path="url(#clip200)" d="M81.0614 30.7367 L99.4178 30.7367 L99.4178 34.6719 L85.3438 34.6719 L85.3438 43.1441 Q86.3623 42.7969 87.3808 42.6348 Q88.3993 42.4496 89.4178 42.4496 Q95.2049 42.4496 98.5845 45.6209 Q101.964 48.7922 101.964 54.2088 Q101.964 59.7875 98.4919 62.8893 Q95.0197 65.968 88.7003 65.968 Q86.5243 65.968 84.2558 65.5977 Q82.0105 65.2273 79.6031 64.4865 L79.6031 59.7875 Q81.6864 60.9218 83.9086 61.4773 Q86.1308 62.0329 88.6077 62.0329 Q92.6123 62.0329 94.9502 59.9264 Q97.2882 57.8199 97.2882 54.2088 Q97.2882 50.5977 94.9502 48.4913 Q92.6123 46.3848 88.6077 46.3848 Q86.7327 46.3848 84.8577 46.8015 Q83.0058 47.2181 81.0614 48.0977 L81.0614 30.7367 Z" fill="#000000" fill-rule="nonzero" fill-opacity="1" /><path clip-path="url(#clip200)" d="M121.177 33.8154 Q117.566 33.8154 115.737 37.3802 Q113.932 40.9219 113.932 48.0515 Q113.932 55.1579 115.737 58.7227 Q117.566 62.2643 121.177 62.2643 Q124.811 62.2643 126.617 58.7227 Q128.445 55.1579 128.445 48.0515 Q128.445 40.9219 126.617 37.3802 Q124.811 33.8154 121.177 33.8154 M121.177 30.1117 Q126.987 30.1117 130.043 34.7182 Q133.121 39.3015 133.121 48.0515 Q133.121 56.7783 130.043 61.3847 Q126.987 65.968 121.177 65.968 Q115.367 65.968 112.288 61.3847 Q109.233 56.7783 109.233 48.0515 Q109.233 39.3015 112.288 34.7182 Q115.367 30.1117 121.177 30.1117 Z" fill="#000000" fill-rule="nonzero" fill-opacity="1" /><polyline clip-path="url(#clip202)" style="stroke:#0000ff; stroke-linecap:round; stroke-linejoin:round; stroke-width:4; stroke-opacity:1; fill:none" points="230.922,86.1857 232.984,114.957 235.046,167.554 237.109,233.919 239.171,305.215 241.233,376.119 243.295,445.538 245.357,515.601 247.419,589.504 249.481,669.291 251.543,754.554 253.605,842.498 255.667,929.03 257.73,1010.11 259.792,1082.72 261.854,1145.27 263.916,1197.44 265.978,1239.82 268.04,1273.56 270.102,1299.99 272.164,1320.45 274.226,1336.13 276.288,1348.07 278.35,1357.11 280.413,1363.92 282.475,1369.04 284.537,1372.89 286.599,1375.76 288.661,1377.91 290.723,1379.52 292.785,1380.72 294.847,1381.61 296.909,1382.28 298.971,1382.78 301.034,1383.15 303.096,1383.42 305.158,1383.62 307.22,1383.77 309.282,1383.87 311.344,1383.94 313.406,1383.99 315.468,1384.01 317.53,1384.02 319.592,1384 321.654,1383.96 323.717,1383.9 325.779,1383.81 327.841,1383.68 329.903,1383.5 331.965,1383.25 334.027,1382.92 336.089,1382.47 338.151,1381.87 340.213,1381.06 342.275,1379.98 344.338,1378.53 346.4,1376.6 348.462,1374.01 350.524,1370.55 352.586,1365.96 354.648,1359.85 356.71,1351.79 358.772,1341.17 360.834,1327.31 362.896,1309.35 364.958,1286.38 367.021,1257.45 369.083,1221.8 371.145,1179.07 373.207,1129.72 375.269,1075.46 377.331,1019.61 379.393,967.154 381.455,924.198 383.517,896.748 385.579,889.106 387.641,902.51 389.704,934.715 391.766,980.732 393.828,1034.34 395.89,1089.62 397.952,1142.02 400.014,1188.62 402.076,1228.06 404.138,1260.04 406.2,1284.96 408.262,1303.46 410.325,1316.29 412.387,1324.06 414.449,1327.22 416.511,1326.01 418.573,1320.49 420.635,1310.55 422.697,1295.96 424.759,1276.5 426.821,1251.99 428.883,1222.4 430.945,1187.85 433.008,1148.48 435.07,1104.18 437.132,1054.28 439.194,997.431 441.256,931.77 443.318,855.713 445.38,769.074 447.442,674.322 449.504,577.466 451.566,488.05 453.629,417.822 455.691,378.093 457.753,376.533 459.815,414.702 461.877,487.544 463.939,585.045 466.001,695.195 468.063,806.867 470.125,911.64 472.187,1004.35 474.249,1082.68 476.312,1146.39 478.374,1196.46 480.436,1234.37 482.498,1261.72 484.56,1279.91 486.622,1290 488.684,1292.67 490.746,1288.24 492.808,1276.64 494.87,1257.58 496.933,1230.63 498.995,1195.49 501.057,1152.3 503.119,1102.1 505.181,1047.23 507.243,991.682 509.305,940.905 511.367,901.061 513.429,877.585 515.491,873.581 517.553,888.712 519.616,919.195 521.678,958.87 523.74,1000.79 525.802,1038.63 527.864,1067.48 529.926,1084.01 531.988,1086.37 534.05,1073.91 536.112,1047.13 538.174,1007.8 540.237,959.112 542.299,905.807 544.361,853.853 546.423,809.553 548.485,778.175 550.547,762.605 552.609,762.662 554.671,775.449 556.733,796.505 558.795,821.092 560.857,845.015 562.92,864.849 564.982,877.893 567.044,882.259 569.106,877.284 571.168,864.117 573.23,846.106 575.292,828.631 577.354,818.139 579.416,820.527 581.478,839.402 583.54,874.996 585.603,924.238 587.665,981.909 589.727,1042.25 591.789,1100.28 593.851,1152.52 595.913,1197.05 597.975,1233.2 600.037,1261.09 602.099,1281.27 604.161,1294.39 606.224,1301.03 608.286,1301.61 610.348,1296.39 612.41,1285.52 614.472,1269.16 616.534,1247.66 618.596,1221.82 620.658,1193.06 622.72,1163.52 624.782,1135.95 626.844,1113.13 628.907,1097.14 630.969,1088.54 633.031,1086.01 635.093,1086.54 637.155,1086.08 639.217,1080.51 641.279,1066.39 643.341,1041.56 645.403,1005.52 647.465,959.683 649.528,907.553 651.59,854.641 653.652,807.925 655.714,774.743 657.776,761.217 659.838,770.675 661.9,802.693 663.962,853.245 666.024,915.929 668.086,983.694 670.148,1050.36 672.211,1111.47 674.273,1164.43 676.335,1208.2 678.397,1242.81 680.459,1268.82 682.521,1287 684.583,1298.06 686.645,1302.48 688.707,1300.45 690.769,1291.78 692.832,1275.97 694.894,1252.15 696.956,1219.2 699.018,1175.86 701.08,1120.97 703.142,1053.87 705.204,974.902 707.266,885.985 709.328,791.06 711.39,696.181 713.452,609.003 715.515,537.666 717.577,489.396 719.639,469.265 721.701,479.424 723.763,518.818 725.825,583.331 727.887,666.372 729.949,759.985 732.011,856.237 734.073,948.492 736.136,1032.13 738.198,1104.69 740.26,1165.45 742.322,1214.95 744.384,1254.42 746.446,1285.38 748.508,1309.36 750.57,1327.75 752.632,1341.76 754.694,1352.36 756.756,1360.36 758.819,1366.37 760.881,1370.88 762.943,1374.25 765.005,1376.77 767.067,1378.64 769.129,1380.03 771.191,1381.06 773.253,1381.81 775.315,1382.35 777.377,1382.72 779.439,1382.96 781.502,1383.09 783.564,1383.12 785.626,1383.06 787.688,1382.88 789.75,1382.6 791.812,1382.16 793.874,1381.55 795.936,1380.7 797.998,1379.55 800.06,1377.99 802.123,1375.9 804.185,1373.1 806.247,1369.36 808.309,1364.37 810.371,1357.76 812.433,1349.02 814.495,1337.53 816.557,1322.53 818.619,1303.14 820.681,1278.37 822.743,1247.28 824.806,1209.06 826.868,1163.43 828.93,1110.96 830.992,1053.52 833.054,994.622 835.116,939.284 837.178,893.376 839.24,862.247 841.302,849.099 843.364,853.778 845.427,872.622 847.489,899.47 849.551,927.351 851.613,950.13 853.675,963.666 855.737,966.372 857.799,959.325 859.861,946.018 861.923,931.735 863.985,922.483 866.047,923.571 868.11,938.205 870.172,966.674 872.234,1006.48 874.296,1053.34 876.358,1102.5 878.42,1149.83 880.482,1192.42 882.544,1228.64 884.606,1257.87 886.668,1280.18 888.731,1295.92 890.793,1305.55 892.855,1309.43 894.917,1307.78 896.979,1300.63 899.041,1287.87 901.103,1269.35 903.165,1245.09 905.227,1215.51 907.289,1181.71 909.351,1145.81 911.414,1111 913.476,1081.32 915.538,1060.95 917.6,1053.16 919.662,1059.35 921.724,1078.55 923.786,1107.83 925.848,1143.14 927.91,1180.47 929.972,1216.54 932.035,1249.24 934.097,1277.46 936.159,1300.97 938.221,1320 940.283,1335.1 942.345,1346.9 944.407,1356 946.469,1362.96 948.531,1368.25 950.593,1372.25 952.655,1375.26 954.718,1377.52 956.78,1379.21 958.842,1380.47 960.904,1381.41 962.966,1382.1 965.028,1382.61 967.09,1382.98 969.152,1383.24 971.214,1383.41 973.276,1383.5 975.338,1383.54 977.401,1383.51 979.463,1383.42 981.525,1383.25 983.587,1383 985.649,1382.64 987.711,1382.14 989.773,1381.46 991.835,1380.54 993.897,1379.31 995.959,1377.66 998.022,1375.45 1000.08,1372.52 1002.15,1368.64 1004.21,1363.53 1006.27,1356.83 1008.33,1348.13 1010.39,1336.96 1012.46,1322.82 1014.52,1305.28 1016.58,1284.05 1018.64,1259.23 1020.7,1231.45 1022.77,1202.1 1024.83,1173.41 1026.89,1148.18 1028.95,1129.31 1031.02,1118.92 1033.08,1117.66 1035.14,1124.35 1037.2,1136.22 1039.26,1149.66 1041.33,1161.02 1043.39,1167.25 1045.45,1166.33 1047.51,1157.37 1049.57,1140.75 1051.64,1118.13 1053.7,1092.51 1055.76,1068.02 1057.82,1049.26 1059.88,1040.39 1061.95,1044.05 1064.01,1060.55 1066.07,1087.93 1068.13,1122.67 1070.19,1160.73 1072.26,1198.55 1074.32,1233.56 1076.38,1264.29 1078.44,1290.22 1080.51,1311.42 1082.57,1328.37 1084.63,1341.68 1086.69,1351.99 1088.75,1359.91 1090.82,1365.94 1092.88,1370.51 1094.94,1373.96 1097,1376.55 1099.06,1378.49 1101.13,1379.95 1103.19,1381.04 1105.25,1381.85 1107.31,1382.45 1109.37,1382.9 1111.44,1383.23 1113.5,1383.48 1115.56,1383.66 1117.62,1383.79 1119.69,1383.87 1121.75,1383.93 1123.81,1383.96 1125.87,1383.96 1127.93,1383.94 1130,1383.89 1132.06,1383.81 1134.12,1383.7 1136.18,1383.54 1138.24,1383.31 1140.31,1383.01 1142.37,1382.61 1144.43,1382.06 1146.49,1381.34 1148.55,1380.38 1150.62,1379.11 1152.68,1377.46 1154.74,1375.31 1156.8,1372.56 1158.86,1369.08 1160.93,1364.78 1162.99,1359.59 1165.05,1353.55 1167.11,1346.86 1169.18,1339.88 1171.24,1333.2 1173.3,1327.58 1175.36,1323.77 1177.42,1322.38 1179.49,1323.63 1181.55,1327.31 1183.61,1332.86 1185.67,1339.5 1187.73,1346.48 1189.8,1353.2 1191.86,1359.28 1193.92,1364.51 1195.98,1368.87 1198.04,1372.39 1200.11,1375.18 1202.17,1377.36 1204.23,1379.04 1206.29,1380.32 1208.36,1381.3 1210.42,1382.04 1212.48,1382.59 1214.54,1383.01 1216.6,1383.32 1218.67,1383.56 1220.73,1383.73 1222.79,1383.86 1224.85,1383.96 1226.91,1384.03 1228.98,1384.09 1231.04,1384.13 1233.1,1384.16 1235.16,1384.18 1237.22,1384.2 1239.29,1384.21 1241.35,1384.22 1243.41,1384.22 1245.47,1384.23 1247.53,1384.23 1249.6,1384.23 1251.66,1384.24 1253.72,1384.24 1255.78,1384.24 1257.85,1384.24 1259.91,1384.24 1261.97,1384.24 1264.03,1384.23 1266.09,1384.23 1268.16,1384.23 1270.22,1384.22 1272.28,1384.21 1274.34,1384.2 1276.4,1384.19 1278.47,1384.17 1280.53,1384.15 1282.59,1384.12 1284.65,1384.07 1286.71,1384.01 1288.78,1383.93 1290.84,1383.83 1292.9,1383.69 1294.96,1383.5 1297.03,1383.24 1299.09,1382.9 1301.15,1382.44 1303.21,1381.82 1305.27,1381 1307.34,1379.9 1309.4,1378.43 1311.46,1376.47 1313.52,1373.86 1315.58,1370.41 1317.65,1365.86 1319.71,1359.89 1321.77,1352.13 1323.83,1342.13 1325.89,1329.43 1327.96,1313.6 1330.02,1294.32 1332.08,1271.6 1334.14,1245.91 1336.21,1218.45 1338.27,1191.21 1340.33,1166.92 1342.39,1148.64 1344.45,1139.02 1346.52,1139.59 1348.58,1150.26 1350.64,1169.34 1352.7,1194.09 1354.76,1221.47 1356.83,1248.82 1358.89,1274.22 1360.95,1296.56 1363.01,1315.43 1365.07,1330.87 1367.14,1343.22 1369.2,1352.9 1371.26,1360.39 1373.32,1366.1 1375.38,1370.41 1377.45,1373.61 1379.51,1375.94 1381.57,1377.57 1383.63,1378.64 1385.7,1379.23 1387.76,1379.4 1389.82,1379.14 1391.88,1378.44 1393.94,1377.24 1396.01,1375.44 1398.07,1372.9 1400.13,1369.39 1402.19,1364.65 1404.25,1358.29 1406.32,1349.86 1408.38,1338.74 1410.44,1324.21 1412.5,1305.42 1414.56,1281.43 1416.63,1251.32 1418.69,1214.37 1420.75,1170.36 1422.81,1119.94 1424.88,1065.11 1426.94,1009.52 1429,958.412 1431.06,917.997 1433.12,894.093 1435.19,890.521 1437.25,907.877 1439.31,943.327 1441.37,991.547 1443.43,1046.29 1445.5,1101.88 1447.56,1154.08 1449.62,1200.38 1451.68,1239.72 1453.74,1272.08 1455.81,1298.04 1457.87,1318.5 1459.93,1334.39 1461.99,1346.6 1464.05,1355.92 1466.12,1362.98 1468.18,1368.32 1470.24,1372.33 1472.3,1375.34 1474.37,1377.59 1476.43,1379.28 1478.49,1380.54 1480.55,1381.48 1482.61,1382.18 1484.68,1382.7 1486.74,1383.08 1488.8,1383.37 1490.86,1383.58 1492.92,1383.73 1494.99,1383.84 1497.05,1383.91 1499.11,1383.95 1501.17,1383.97 1503.23,1383.96 1505.3,1383.93 1507.36,1383.88 1509.42,1383.79 1511.48,1383.66 1513.55,1383.47 1515.61,1383.23 1517.67,1382.89 1519.73,1382.43 1521.79,1381.82 1523.86,1381 1525.92,1379.91 1527.98,1378.44 1530.04,1376.47 1532.1,1373.86 1534.17,1370.38 1536.23,1365.78 1538.29,1359.7 1540.35,1351.73 1542.41,1341.36 1544.48,1328 1546.54,1311.03 1548.6,1289.86 1550.66,1264.07 1552.73,1233.64 1554.79,1199.19 1556.85,1162.28 1558.91,1125.56 1560.97,1092.65 1563.04,1067.59 1565.1,1053.89 1567.16,1053.58 1569.22,1066.44 1571.28,1090.12 1573.35,1120.8 1575.41,1154.22 1577.47,1186.62 1579.53,1215.2 1581.59,1238.23 1583.66,1254.92 1585.72,1265.15 1587.78,1269.34 1589.84,1268.27 1591.9,1263.13 1593.97,1255.43 1596.03,1246.98 1598.09,1239.57 1600.15,1234.65 1602.22,1232.92 1604.28,1234.16 1606.34,1237.23 1608.4,1240.49 1610.46,1242.26 1612.53,1241.26 1614.59,1236.91 1616.65,1229.51 1618.71,1220.23 1620.77,1210.97 1622.84,1203.95 1624.9,1201.22 1626.96,1204 1629.02,1212.38 1631.08,1225.24 1633.15,1240.68 1635.21,1256.5 1637.27,1270.66 1639.33,1281.56 1641.4,1287.98 1643.46,1289.03 1645.52,1283.96 1647.58,1272.03 1649.64,1252.41 1651.71,1224.2 1653.77,1186.55 1655.83,1138.89 1657.89,1081.3 1659.95,1015.01 1662.02,942.815 1664.08,869.298 1666.14,800.453 1668.2,742.632 1670.26,700.955 1672.33,677.755 1674.39,671.78 1676.45,678.592 1678.51,692.017 1680.57,706.092 1682.64,716.858 1684.7,723.491 1686.76,728.466 1688.82,736.671 1690.89,753.656 1692.95,783.591 1695.01,827.746 1697.07,884.118 1699.13,948.291 1701.2,1014.94 1703.26,1079.25 1705.32,1137.76 1707.38,1188.59 1709.44,1231.16 1711.51,1265.83 1713.57,1293.45 1715.63,1315.08 1717.69,1331.81 1719.75,1344.62 1721.82,1354.34 1723.88,1361.65 1725.94,1367.12 1728,1371.16 1730.07,1374.09 1732.13,1376.16 1734.19,1377.54 1736.25,1378.34 1738.31,1378.63 1740.38,1378.44 1742.44,1377.76 1744.5,1376.52 1746.56,1374.64 1748.62,1371.97 1750.69,1368.32 1752.75,1363.44 1754.81,1357.02 1756.87,1348.71 1758.93,1338.11 1761,1324.86 1763.06,1308.68 1765.12,1289.51 1767.18,1267.63 1769.24,1243.76 1771.31,1219.11 1773.37,1195.18 1775.43,1173.34 1777.49,1154.37 1779.56,1137.9 1781.62,1122.38 1783.68,1105.32 1785.74,1084.05 1787.8,1056.54 1789.87,1022.18 1791.93,982.388 1793.99,940.757 1796.05,902.774 1798.11,874.785 1800.18,862.42 1802.24,868.922 1804.3,894.1 1806.36,934.448 1808.42,984.312 1810.49,1037.53 1812.55,1088.81 1814.61,1134.48 1816.67,1172.61 1818.74,1202.79 1820.8,1225.67 1822.86,1242.59 1824.92,1255.14 1826.98,1264.78 1829.05,1272.58 1831.11,1278.94 1833.17,1283.65 1835.23,1285.97 1837.29,1284.83 1839.36,1279.01 1841.42,1267.23 1843.48,1248.16 1845.54,1220.47 1847.6,1182.89 1849.67,1134.35 1851.73,1074.33 1853.79,1003.23 1855.85,922.858 1857.92,836.727 1859.98,749.995 1862.04,668.813 1864.1,599.225 1866.16,546.044 1868.23,512.24 1870.29,499.034 1872.35,506.317 1874.41,532.792 1876.47,575.658 1878.54,630.219 1880.6,690.051 1882.66,747.92 1884.72,797.126 1886.78,832.742 1888.85,852.43 1890.91,856.79 1892.97,849.316 1895.03,835.947 1897.09,824.099 1899.16,821.139 1901.22,832.598 1903.28,860.756 1905.34,904.224 1907.41,958.731 1909.47,1018.67 1911.53,1078.64 1913.59,1134.52 1915.65,1183.77 1917.72,1225.29 1919.78,1259.02 1921.84,1285.51 1923.9,1305.59 1925.96,1320.11 1928.03,1329.83 1930.09,1335.33 1932.15,1336.98 1934.21,1334.96 1936.27,1329.27 1938.34,1319.78 1940.4,1306.29 1942.46,1288.69 1944.52,1267.08 1946.59,1242.03 1948.65,1214.78 1950.71,1187.4 1952.77,1162.67 1954.83,1143.72 1956.9,1133.25 1958.96,1132.78 1961.02,1142.11 1963.08,1159.33 1965.14,1181.42 1967.21,1205.03 1969.27,1227.14 1971.33,1245.45 1973.39,1258.4 1975.45,1265.03 1977.52,1264.77 1979.58,1257.31 1981.64,1242.53 1983.7,1220.6 1985.76,1192.18 1987.83,1158.66 1989.89,1122.41 1991.95,1086.83 1994.01,1055.97 1996.08,1033.77 1998.14,1022.95 2000.2,1024.17 2002.26,1035.66 2004.32,1053.76 2006.39,1073.86 2008.45,1091.38 2010.51,1102.46 2012.57,1104.1 2014.63,1094.24 2016.7,1071.68 2018.76,1036.23 2020.82,988.986 2022.88,932.775 2024.94,872.391 2027.01,814.471 2029.07,766.681 2031.13,736.243 2033.19,728.209 2035.26,744.17 2037.32,781.943 2039.38,836.328 2041.44,900.523 2043.5,967.633 2045.57,1031.79 2047.63,1088.69 2049.69,1135.67 2051.75,1171.34 2053.81,1195.14 2055.88,1206.92 2057.94,1206.59 2060,1193.93 2062.06,1168.49 2064.12,1129.76 2066.19,1077.33 2068.25,1011.33 2070.31,932.777 2072.37,844.067 2074.43,749.133 2076.5,653.388 2078.56,563.345 2080.62,486.104 2082.68,428.767 2084.75,397.692 2086.81,397.376 2088.87,429.098 2090.93,489.934 2092.99,572.903 2095.06,668.405 2097.12,766.335 2099.18,857.963 2101.24,936.944 2103.3,999.443 2105.37,1043.68 2107.43,1069.31 2109.49,1076.97 2111.55,1068.01 2113.61,1044.62 2115.68,1010.09 2117.74,969.072 2119.8,927.638 2121.86,892.712 2123.93,870.874 2125.99,866.778 2128.05,881.828 2130.11,913.807 2132.17,957.661 2134.24,1007.03 2136.3,1055.79 2138.36,1099.12 2140.42,1133.81 2142.48,1158.23 2144.55,1171.98 2146.61,1175.66 2148.67,1170.75 2150.73,1159.55 2152.79,1145.18 2154.86,1131.32 2156.92,1121.78 2158.98,1119.63 2161.04,1126.56 2163.11,1142.39 2165.17,1165.31 2167.23,1192.51 2169.29,1221.03 2171.35,1248.36 2173.42,1272.79 2175.48,1293.34 2177.54,1309.65 2179.6,1321.73 2181.66,1329.73 2183.73,1333.8 2185.79,1334.01 2187.85,1330.22 2189.91,1322.09 2191.97,1309.02 2194.04,1290.13 2196.1,1264.26 2198.16,1230.03 2200.22,1185.87 2202.28,1130.3 2204.35,1062.12 2206.41,980.903 2208.47,887.399 2210.53,783.873 2212.6,674.099 2214.66,562.854 2216.72,455.039 2218.78,354.888 2220.84,265.872 2222.91,191.47 2224.97,136.221 2227.03,105.962 2229.09,106.473 2231.15,140.908 2233.22,207.425 2235.28,298.494 2237.34,402.332 2239.4,505.638 2241.46,596.259 2243.53,664.854 2245.59,705.444 2247.65,715.28 2249.71,694.587 2251.78,646.538 2253.84,577.473 2255.9,497.058 2257.96,417.815 2260.02,353.517 2262.09,316.419 2264.15,314.109 2266.21,347.363 2268.27,410.167 2270.33,491.932 2272.4,580.815 2274.46,666.677 2276.52,742.743 2278.58,805.837 2280.64,855.682 2282.71,893.872 2284.77,923.026 2286.83,946.296 2288.89,967.082 2290.95,988.685 "/>
<polyline clip-path="url(#clip202)" style="stroke:#008000; stroke-linecap:round; stroke-linejoin:round; stroke-width:6; stroke-opacity:1; fill:none" points="1260.94,2799.12 1260.94,-1328.69 "/>
<path clip-path="url(#clip200)" d="M241.909 248.629 L556.892 248.629 L556.892 93.1086 L241.909 93.1086  Z" fill="#ffffff" fill-rule="evenodd" fill-opacity="1"/>
<polyline clip-path="url(#clip200)" style="stroke:#000000; stroke-linecap:round; stroke-linejoin:round; stroke-width:4; stroke-opacity:1; fill:none" points="241.909,248.629 556.892,248.629 556.892,93.1086 241.909,93.1086 241.909,248.629 "/>
<polyline clip-path="url(#clip200)" style="stroke:#0000ff; stroke-linecap:round; stroke-linejoin:round; stroke-width:4; stroke-opacity:1; fill:none" points="266.172,144.949 411.747,144.949 "/>
<path clip-path="url(#clip200)" d="M440.686 131.511 L440.686 158.386 L446.334 158.386 Q453.487 158.386 456.797 155.145 Q460.13 151.905 460.13 144.914 Q460.13 137.969 456.797 134.752 Q453.487 131.511 446.334 131.511 L440.686 131.511 M436.01 127.669 L445.616 127.669 Q455.663 127.669 460.362 131.858 Q465.061 136.025 465.061 144.914 Q465.061 153.849 460.339 158.039 Q455.616 162.229 445.616 162.229 L436.01 162.229 L436.01 127.669 Z" fill="#000000" fill-rule="nonzero" fill-opacity="1" /><path clip-path="url(#clip200)" d="M486.542 130.84 Q481.45 130.84 478.44 134.636 Q475.454 138.432 475.454 144.983 Q475.454 151.511 478.44 155.307 Q481.45 159.104 486.542 159.104 Q491.635 159.104 494.598 155.307 Q497.584 151.511 497.584 144.983 Q497.584 138.432 494.598 134.636 Q491.635 130.84 486.542 130.84 M486.542 127.044 Q493.811 127.044 498.162 131.928 Q502.514 136.789 502.514 144.983 Q502.514 153.155 498.162 158.039 Q493.811 162.9 486.542 162.9 Q479.25 162.9 474.876 158.039 Q470.524 153.178 470.524 144.983 Q470.524 136.789 474.876 131.928 Q479.25 127.044 486.542 127.044 Z" fill="#000000" fill-rule="nonzero" fill-opacity="1" /><path clip-path="url(#clip200)" d="M530.547 128.803 L530.547 133.363 Q527.884 132.09 525.523 131.465 Q523.162 130.84 520.963 130.84 Q517.144 130.84 515.06 132.321 Q513 133.803 513 136.534 Q513 138.826 514.366 140.007 Q515.755 141.164 519.598 141.882 L522.422 142.46 Q527.653 143.456 530.13 145.979 Q532.63 148.479 532.63 152.692 Q532.63 157.715 529.25 160.307 Q525.894 162.9 519.389 162.9 Q516.935 162.9 514.158 162.344 Q511.403 161.789 508.44 160.701 L508.44 155.886 Q511.287 157.483 514.019 158.293 Q516.75 159.104 519.389 159.104 Q523.394 159.104 525.57 157.53 Q527.746 155.956 527.746 153.039 Q527.746 150.493 526.172 149.057 Q524.621 147.622 521.056 146.905 L518.209 146.349 Q512.977 145.307 510.639 143.085 Q508.301 140.863 508.301 136.905 Q508.301 132.321 511.519 129.682 Q514.76 127.044 520.431 127.044 Q522.861 127.044 525.385 127.483 Q527.908 127.923 530.547 128.803 Z" fill="#000000" fill-rule="nonzero" fill-opacity="1" /><polyline clip-path="url(#clip200)" style="stroke:#008000; stroke-linecap:round; stroke-linejoin:round; stroke-width:6; stroke-opacity:1; fill:none" points="266.172,196.789 411.747,196.789 "/>
<path clip-path="url(#clip200)" d="M442.075 200.087 Q439.482 199.532 438.093 198.027 Q436.704 196.546 436.704 194.393 Q436.704 191.129 439.343 189.3 Q441.959 187.495 446.496 187.495 Q448.255 187.495 450.223 187.772 Q452.19 188.05 454.459 188.606 L454.459 192.472 Q452.214 191.8 450.362 191.499 Q448.487 191.198 446.843 191.198 Q444.089 191.198 442.491 192.263 Q440.871 193.328 440.871 194.809 Q440.871 196.43 442.445 197.471 Q443.996 198.49 446.681 198.49 L450.269 198.49 L450.269 202.008 L446.843 202.008 Q443.672 202.008 442.005 203.189 Q440.2 204.485 440.2 206.522 Q440.2 208.606 442.144 209.902 Q444.112 211.198 447.607 211.198 Q449.76 211.198 451.727 210.782 Q453.695 210.342 455.339 209.485 L455.339 213.444 Q453.255 214.092 451.311 214.416 Q449.343 214.74 447.491 214.74 Q441.982 214.74 438.996 212.633 Q436.01 210.527 436.01 206.522 Q436.01 204.022 437.607 202.333 Q439.204 200.643 442.075 200.087 Z" fill="#000000" fill-rule="nonzero" fill-opacity="1" /><path clip-path="url(#clip200)" d="M463.209 179.509 L483.07 179.509 L483.07 183.444 L467.885 183.444 L467.885 193.629 L481.588 193.629 L481.588 197.564 L467.885 197.564 L467.885 214.069 L463.209 214.069 L463.209 179.509 Z" fill="#000000" fill-rule="nonzero" fill-opacity="1" /></svg>
