<?xml version="1.0" encoding="utf-8"?>
<svg xmlns="http://www.w3.org/2000/svg" xmlns:xlink="http://www.w3.org/1999/xlink" width="600" height="400" viewBox="0 0 2400 1600">
<defs>
  <clipPath id="clip070">
    <rect x="0" y="0" width="2400" height="1600"/>
  </clipPath>
</defs>
<path clip-path="url(#clip070)" d="M0 1600 L2400 1600 L2400 0 L0 0  Z" fill="#ffffff" fill-rule="evenodd" fill-opacity="1"/>
<defs>
  <clipPath id="clip071">
    <rect x="480" y="0" width="1681" height="1600"/>
  </clipPath>
</defs>
<path clip-path="url(#clip070)" d="M189.496 1486.45 L2352.76 1486.45 L2352.76 47.2441 L189.496 47.2441  Z" fill="#ffffff" fill-rule="evenodd" fill-opacity="1"/>
<defs>
  <clipPath id="clip072">
    <rect x="189" y="47" width="2164" height="1440"/>
  </clipPath>
</defs>
<polyline clip-path="url(#clip072)" style="stroke:#000000; stroke-linecap:round; stroke-linejoin:round; stroke-width:2; stroke-opacity:0.1; fill:none" points="542.265,1486.45 542.265,47.2441 "/>
<polyline clip-path="url(#clip072)" style="stroke:#000000; stroke-linecap:round; stroke-linejoin:round; stroke-width:2; stroke-opacity:0.1; fill:none" points="1125.35,1486.45 1125.35,47.2441 "/>
<polyline clip-path="url(#clip072)" style="stroke:#000000; stroke-linecap:round; stroke-linejoin:round; stroke-width:2; stroke-opacity:0.1; fill:none" points="1708.44,1486.45 1708.44,47.2441 "/>
<polyline clip-path="url(#clip072)" style="stroke:#000000; stroke-linecap:round; stroke-linejoin:round; stroke-width:2; stroke-opacity:0.1; fill:none" points="2291.53,1486.45 2291.53,47.2441 "/>
<polyline clip-path="url(#clip070)" style="stroke:#000000; stroke-linecap:round; stroke-linejoin:round; stroke-width:4; stroke-opacity:1; fill:none" points="189.496,1486.45 2352.76,1486.45 "/>
<polyline clip-path="url(#clip070)" style="stroke:#000000; stroke-linecap:round; stroke-linejoin:round; stroke-width:4; stroke-opacity:1; fill:none" points="542.265,1486.45 542.265,1467.55 "/>
<polyline clip-path="url(#clip070)" style="stroke:#000000; stroke-linecap:round; stroke-linejoin:round; stroke-width:4; stroke-opacity:1; fill:none" points="1125.35,1486.45 1125.35,1467.55 "/>
<polyline clip-path="url(#clip070)" style="stroke:#000000; stroke-linecap:round; stroke-linejoin:round; stroke-width:4; stroke-opacity:1; fill:none" points="1708.44,1486.45 1708.44,1467.55 "/>
<polyline clip-path="url(#clip070)" style="stroke:#000000; stroke-linecap:round; stroke-linejoin:round; stroke-width:4; stroke-opacity:1; fill:none" points="2291.53,1486.45 2291.53,1467.55 "/>
<path clip-path="url(#clip070)" d="M536.918 1544.91 L553.237 1544.91 L553.237 1548.85 L531.293 1548.85 L531.293 1544.91 Q533.955 1542.16 538.538 1537.53 Q543.144 1532.88 544.325 1531.53 Q546.57 1529.01 547.45 1527.27 Q548.353 1525.51 548.353 1523.82 Q548.353 1521.07 546.408 1519.33 Q544.487 1517.6 541.385 1517.6 Q539.186 1517.6 536.732 1518.36 Q534.302 1519.13 531.524 1520.68 L531.524 1515.95 Q534.348 1514.82 536.802 1514.24 Q539.255 1513.66 541.293 1513.66 Q546.663 1513.66 549.857 1516.35 Q553.052 1519.03 553.052 1523.52 Q553.052 1525.65 552.242 1527.57 Q551.454 1529.47 549.348 1532.07 Q548.769 1532.74 545.667 1535.95 Q542.566 1539.15 536.918 1544.91 Z" fill="#000000" fill-rule="nonzero" fill-opacity="1" /><path clip-path="url(#clip070)" d="M1128.36 1518.36 L1116.56 1536.81 L1128.36 1536.81 L1128.36 1518.36 M1127.14 1514.29 L1133.02 1514.29 L1133.02 1536.81 L1137.95 1536.81 L1137.95 1540.7 L1133.02 1540.7 L1133.02 1548.85 L1128.36 1548.85 L1128.36 1540.7 L1112.76 1540.7 L1112.76 1536.19 L1127.14 1514.29 Z" fill="#000000" fill-rule="nonzero" fill-opacity="1" /><path clip-path="url(#clip070)" d="M1708.85 1529.7 Q1705.7 1529.7 1703.85 1531.86 Q1702.02 1534.01 1702.02 1537.76 Q1702.02 1541.49 1703.85 1543.66 Q1705.7 1545.82 1708.85 1545.82 Q1712 1545.82 1713.82 1543.66 Q1715.68 1541.49 1715.68 1537.76 Q1715.68 1534.01 1713.82 1531.86 Q1712 1529.7 1708.85 1529.7 M1718.13 1515.05 L1718.13 1519.31 Q1716.37 1518.48 1714.57 1518.04 Q1712.78 1517.6 1711.02 1517.6 Q1706.39 1517.6 1703.94 1520.72 Q1701.51 1523.85 1701.16 1530.17 Q1702.53 1528.15 1704.59 1527.09 Q1706.65 1526 1709.13 1526 Q1714.33 1526 1717.34 1529.17 Q1720.38 1532.32 1720.38 1537.76 Q1720.38 1543.08 1717.23 1546.3 Q1714.08 1549.52 1708.85 1549.52 Q1702.85 1549.52 1699.68 1544.94 Q1696.51 1540.33 1696.51 1531.6 Q1696.51 1523.41 1700.4 1518.55 Q1704.29 1513.66 1710.84 1513.66 Q1712.6 1513.66 1714.38 1514.01 Q1716.19 1514.36 1718.13 1515.05 Z" fill="#000000" fill-rule="nonzero" fill-opacity="1" /><path clip-path="url(#clip070)" d="M2291.53 1532.44 Q2288.2 1532.44 2286.28 1534.22 Q2284.38 1536 2284.38 1539.13 Q2284.38 1542.25 2286.28 1544.03 Q2288.2 1545.82 2291.53 1545.82 Q2294.86 1545.82 2296.79 1544.03 Q2298.71 1542.23 2298.71 1539.13 Q2298.71 1536 2296.79 1534.22 Q2294.89 1532.44 2291.53 1532.44 M2286.86 1530.45 Q2283.85 1529.7 2282.16 1527.64 Q2280.49 1525.58 2280.49 1522.62 Q2280.49 1518.48 2283.43 1516.07 Q2286.39 1513.66 2291.53 1513.66 Q2296.69 1513.66 2299.63 1516.07 Q2302.57 1518.48 2302.57 1522.62 Q2302.57 1525.58 2300.88 1527.64 Q2299.22 1529.7 2296.23 1530.45 Q2299.61 1531.23 2301.49 1533.52 Q2303.38 1535.82 2303.38 1539.13 Q2303.38 1544.15 2300.3 1546.83 Q2297.25 1549.52 2291.53 1549.52 Q2285.81 1549.52 2282.74 1546.83 Q2279.68 1544.15 2279.68 1539.13 Q2279.68 1535.82 2281.58 1533.52 Q2283.48 1531.23 2286.86 1530.45 M2285.14 1523.06 Q2285.14 1525.75 2286.81 1527.25 Q2288.5 1528.76 2291.53 1528.76 Q2294.54 1528.76 2296.23 1527.25 Q2297.94 1525.75 2297.94 1523.06 Q2297.94 1520.38 2296.23 1518.87 Q2294.54 1517.37 2291.53 1517.37 Q2288.5 1517.37 2286.81 1518.87 Q2285.14 1520.38 2285.14 1523.06 Z" fill="#000000" fill-rule="nonzero" fill-opacity="1" /><polyline clip-path="url(#clip072)" style="stroke:#000000; stroke-linecap:round; stroke-linejoin:round; stroke-width:2; stroke-opacity:0.1; fill:none" points="189.496,1326.78 2352.76,1326.78 "/>
<polyline clip-path="url(#clip072)" style="stroke:#000000; stroke-linecap:round; stroke-linejoin:round; stroke-width:2; stroke-opacity:0.1; fill:none" points="189.496,1019.91 2352.76,1019.91 "/>
<polyline clip-path="url(#clip072)" style="stroke:#000000; stroke-linecap:round; stroke-linejoin:round; stroke-width:2; stroke-opacity:0.1; fill:none" points="189.496,713.048 2352.76,713.048 "/>
<polyline clip-path="url(#clip072)" style="stroke:#000000; stroke-linecap:round; stroke-linejoin:round; stroke-width:2; stroke-opacity:0.1; fill:none" points="189.496,406.183 2352.76,406.183 "/>
<polyline clip-path="url(#clip072)" style="stroke:#000000; stroke-linecap:round; stroke-linejoin:round; stroke-width:2; stroke-opacity:0.1; fill:none" points="189.496,99.3193 2352.76,99.3193 "/>
<polyline clip-path="url(#clip070)" style="stroke:#000000; stroke-linecap:round; stroke-linejoin:round; stroke-width:4; stroke-opacity:1; fill:none" points="189.496,1486.45 189.496,47.2441 "/>
<polyline clip-path="url(#clip070)" style="stroke:#000000; stroke-linecap:round; stroke-linejoin:round; stroke-width:4; stroke-opacity:1; fill:none" points="189.496,1326.78 208.394,1326.78 "/>
<polyline clip-path="url(#clip070)" style="stroke:#000000; stroke-linecap:round; stroke-linejoin:round; stroke-width:4; stroke-opacity:1; fill:none" points="189.496,1019.91 208.394,1019.91 "/>
<polyline clip-path="url(#clip070)" style="stroke:#000000; stroke-linecap:round; stroke-linejoin:round; stroke-width:4; stroke-opacity:1; fill:none" points="189.496,713.048 208.394,713.048 "/>
<polyline clip-path="url(#clip070)" style="stroke:#000000; stroke-linecap:round; stroke-linejoin:round; stroke-width:4; stroke-opacity:1; fill:none" points="189.496,406.183 208.394,406.183 "/>
<polyline clip-path="url(#clip070)" style="stroke:#000000; stroke-linecap:round; stroke-linejoin:round; stroke-width:4; stroke-opacity:1; fill:none" points="189.496,99.3193 208.394,99.3193 "/>
<path clip-path="url(#clip070)" d="M51.6634 1346.57 L59.3023 1346.57 L59.3023 1320.2 L50.9921 1321.87 L50.9921 1317.61 L59.256 1315.94 L63.9319 1315.94 L63.9319 1346.57 L71.5707 1346.57 L71.5707 1350.5 L51.6634 1350.5 L51.6634 1346.57 Z" fill="#000000" fill-rule="nonzero" fill-opacity="1" /><path clip-path="url(#clip070)" d="M91.0151 1319.02 Q87.404 1319.02 85.5753 1322.59 Q83.7697 1326.13 83.7697 1333.26 Q83.7697 1340.36 85.5753 1343.93 Q87.404 1347.47 91.0151 1347.47 Q94.6493 1347.47 96.4548 1343.93 Q98.2835 1340.36 98.2835 1333.26 Q98.2835 1326.13 96.4548 1322.59 Q94.6493 1319.02 91.0151 1319.02 M91.0151 1315.32 Q96.8252 1315.32 99.8808 1319.93 Q102.959 1324.51 102.959 1333.26 Q102.959 1341.99 99.8808 1346.59 Q96.8252 1351.18 91.0151 1351.18 Q85.2049 1351.18 82.1262 1346.59 Q79.0707 1341.99 79.0707 1333.26 Q79.0707 1324.51 82.1262 1319.93 Q85.2049 1315.32 91.0151 1315.32 Z" fill="#000000" fill-rule="nonzero" fill-opacity="1" /><path clip-path="url(#clip070)" d="M102.959 1309.42 L127.071 1309.42 L127.071 1312.62 L102.959 1312.62 L102.959 1309.42 Z" fill="#000000" fill-rule="nonzero" fill-opacity="1" /><path clip-path="url(#clip070)" d="M145.71 1298.32 L136.118 1313.31 L145.71 1313.31 L145.71 1298.32 M144.713 1295.01 L149.49 1295.01 L149.49 1313.31 L153.496 1313.31 L153.496 1316.47 L149.49 1316.47 L149.49 1323.09 L145.71 1323.09 L145.71 1316.47 L133.033 1316.47 L133.033 1312.81 L144.713 1295.01 Z" fill="#000000" fill-rule="nonzero" fill-opacity="1" /><path clip-path="url(#clip070)" d="M52.585 1039.7 L60.2238 1039.7 L60.2238 1013.34 L51.9137 1015.01 L51.9137 1010.75 L60.1776 1009.08 L64.8535 1009.08 L64.8535 1039.7 L72.4923 1039.7 L72.4923 1043.64 L52.585 1043.64 L52.585 1039.7 Z" fill="#000000" fill-rule="nonzero" fill-opacity="1" /><path clip-path="url(#clip070)" d="M91.9366 1012.16 Q88.3255 1012.16 86.4969 1015.72 Q84.6913 1019.26 84.6913 1026.39 Q84.6913 1033.5 86.4969 1037.07 Q88.3255 1040.61 91.9366 1040.61 Q95.5709 1040.61 97.3764 1037.07 Q99.2051 1033.5 99.2051 1026.39 Q99.2051 1019.26 97.3764 1015.72 Q95.5709 1012.16 91.9366 1012.16 M91.9366 1008.45 Q97.7468 1008.45 100.802 1013.06 Q103.881 1017.64 103.881 1026.39 Q103.881 1035.12 100.802 1039.73 Q97.7468 1044.31 91.9366 1044.31 Q86.1265 1044.31 83.0478 1039.73 Q79.9923 1035.12 79.9923 1026.39 Q79.9923 1017.64 83.0478 1013.06 Q86.1265 1008.45 91.9366 1008.45 Z" fill="#000000" fill-rule="nonzero" fill-opacity="1" /><path clip-path="url(#clip070)" d="M103.881 1002.56 L127.993 1002.56 L127.993 1005.75 L103.881 1005.75 L103.881 1002.56 Z" fill="#000000" fill-rule="nonzero" fill-opacity="1" /><path clip-path="url(#clip070)" d="M147.703 1001.09 Q150.43 1001.67 151.954 1003.52 Q153.496 1005.36 153.496 1008.07 Q153.496 1012.22 150.637 1014.5 Q147.778 1016.77 142.512 1016.77 Q140.744 1016.77 138.863 1016.42 Q137.002 1016.08 135.008 1015.38 L135.008 1011.72 Q136.588 1012.64 138.469 1013.11 Q140.349 1013.58 142.399 1013.58 Q145.973 1013.58 147.835 1012.17 Q149.716 1010.76 149.716 1008.07 Q149.716 1005.58 147.966 1004.19 Q146.236 1002.78 143.133 1002.78 L139.86 1002.78 L139.86 999.659 L143.283 999.659 Q146.086 999.659 147.571 998.55 Q149.057 997.421 149.057 995.315 Q149.057 993.152 147.515 992.005 Q145.992 990.839 143.133 990.839 Q141.572 990.839 139.785 991.177 Q137.998 991.516 135.854 992.23 L135.854 988.845 Q138.017 988.243 139.898 987.942 Q141.797 987.641 143.471 987.641 Q147.797 987.641 150.317 989.616 Q152.838 991.572 152.838 994.92 Q152.838 997.252 151.502 998.87 Q150.167 1000.47 147.703 1001.09 Z" fill="#000000" fill-rule="nonzero" fill-opacity="1" /><path clip-path="url(#clip070)" d="M53.3561 732.84 L60.995 732.84 L60.995 706.475 L52.6848 708.141 L52.6848 703.882 L60.9487 702.215 L65.6246 702.215 L65.6246 732.84 L73.2634 732.84 L73.2634 736.775 L53.3561 736.775 L53.3561 732.84 Z" fill="#000000" fill-rule="nonzero" fill-opacity="1" /><path clip-path="url(#clip070)" d="M92.7078 705.294 Q89.0967 705.294 87.268 708.859 Q85.4624 712.4 85.4624 719.53 Q85.4624 726.636 87.268 730.201 Q89.0967 733.743 92.7078 733.743 Q96.342 733.743 98.1475 730.201 Q99.9762 726.636 99.9762 719.53 Q99.9762 712.4 98.1475 708.859 Q96.342 705.294 92.7078 705.294 M92.7078 701.59 Q98.5179 701.59 101.573 706.197 Q104.652 710.78 104.652 719.53 Q104.652 728.257 101.573 732.863 Q98.5179 737.447 92.7078 737.447 Q86.8976 737.447 83.8189 732.863 Q80.7634 728.257 80.7634 719.53 Q80.7634 710.78 83.8189 706.197 Q86.8976 701.59 92.7078 701.59 Z" fill="#000000" fill-rule="nonzero" fill-opacity="1" /><path clip-path="url(#clip070)" d="M104.652 695.692 L128.764 695.692 L128.764 698.889 L104.652 698.889 L104.652 695.692 Z" fill="#000000" fill-rule="nonzero" fill-opacity="1" /><path clip-path="url(#clip070)" d="M140.236 706.168 L153.496 706.168 L153.496 709.365 L135.666 709.365 L135.666 706.168 Q137.829 703.929 141.553 700.168 Q145.296 696.388 146.255 695.297 Q148.079 693.247 148.794 691.836 Q149.527 690.407 149.527 689.034 Q149.527 686.796 147.948 685.385 Q146.387 683.974 143.866 683.974 Q142.08 683.974 140.086 684.595 Q138.111 685.216 135.854 686.476 L135.854 682.639 Q138.149 681.717 140.142 681.247 Q142.136 680.777 143.791 680.777 Q148.155 680.777 150.75 682.959 Q153.345 685.14 153.345 688.789 Q153.345 690.52 152.687 692.081 Q152.048 693.623 150.336 695.729 Q149.866 696.275 147.346 698.889 Q144.826 701.484 140.236 706.168 Z" fill="#000000" fill-rule="nonzero" fill-opacity="1" /><path clip-path="url(#clip070)" d="M53.0552 425.976 L60.694 425.976 L60.694 399.61 L52.3839 401.277 L52.3839 397.018 L60.6477 395.351 L65.3236 395.351 L65.3236 425.976 L72.9625 425.976 L72.9625 429.911 L53.0552 429.911 L53.0552 425.976 Z" fill="#000000" fill-rule="nonzero" fill-opacity="1" /><path clip-path="url(#clip070)" d="M92.4068 398.43 Q88.7957 398.43 86.967 401.995 Q85.1615 405.536 85.1615 412.666 Q85.1615 419.772 86.967 423.337 Q88.7957 426.879 92.4068 426.879 Q96.0411 426.879 97.8466 423.337 Q99.6753 419.772 99.6753 412.666 Q99.6753 405.536 97.8466 401.995 Q96.0411 398.43 92.4068 398.43 M92.4068 394.726 Q98.217 394.726 101.273 399.333 Q104.351 403.916 104.351 412.666 Q104.351 421.393 101.273 425.999 Q98.217 430.582 92.4068 430.582 Q86.5967 430.582 83.518 425.999 Q80.4625 421.393 80.4625 412.666 Q80.4625 403.916 83.518 399.333 Q86.5967 394.726 92.4068 394.726 Z" fill="#000000" fill-rule="nonzero" fill-opacity="1" /><path clip-path="url(#clip070)" d="M104.351 388.827 L128.463 388.827 L128.463 392.025 L104.351 392.025 L104.351 388.827 Z" fill="#000000" fill-rule="nonzero" fill-opacity="1" /><path clip-path="url(#clip070)" d="M137.321 399.303 L143.528 399.303 L143.528 377.881 L136.776 379.235 L136.776 375.775 L143.49 374.421 L147.289 374.421 L147.289 399.303 L153.496 399.303 L153.496 402.501 L137.321 402.501 L137.321 399.303 Z" fill="#000000" fill-rule="nonzero" fill-opacity="1" /><path clip-path="url(#clip070)" d="M82.7903 119.112 L90.4291 119.112 L90.4291 92.7461 L82.119 94.4128 L82.119 90.1535 L90.3828 88.4869 L95.0587 88.4869 L95.0587 119.112 L102.698 119.112 L102.698 123.047 L82.7903 123.047 L82.7903 119.112 Z" fill="#000000" fill-rule="nonzero" fill-opacity="1" /><path clip-path="url(#clip070)" d="M122.142 91.5656 Q118.531 91.5656 116.702 95.1304 Q114.897 98.672 114.897 105.802 Q114.897 112.908 116.702 116.473 Q118.531 120.014 122.142 120.014 Q125.776 120.014 127.582 116.473 Q129.41 112.908 129.41 105.802 Q129.41 98.672 127.582 95.1304 Q125.776 91.5656 122.142 91.5656 M122.142 87.8619 Q127.952 87.8619 131.008 92.4683 Q134.086 97.0516 134.086 105.802 Q134.086 114.528 131.008 119.135 Q127.952 123.718 122.142 123.718 Q116.332 123.718 113.253 119.135 Q110.198 114.528 110.198 105.802 Q110.198 97.0516 113.253 92.4683 Q116.332 87.8619 122.142 87.8619 Z" fill="#000000" fill-rule="nonzero" fill-opacity="1" /><path clip-path="url(#clip070)" d="M143.791 70.0579 Q140.857 70.0579 139.371 72.9543 Q137.904 75.8319 137.904 81.6247 Q137.904 87.3987 139.371 90.2951 Q140.857 93.1727 143.791 93.1727 Q146.744 93.1727 148.211 90.2951 Q149.697 87.3987 149.697 81.6247 Q149.697 75.8319 148.211 72.9543 Q146.744 70.0579 143.791 70.0579 M143.791 67.0487 Q148.512 67.0487 150.994 70.7914 Q153.496 74.5154 153.496 81.6247 Q153.496 88.7152 150.994 92.458 Q148.512 96.1819 143.791 96.1819 Q139.07 96.1819 136.569 92.458 Q134.086 88.7152 134.086 81.6247 Q134.086 74.5154 136.569 70.7914 Q139.07 67.0487 143.791 67.0487 Z" fill="#000000" fill-rule="nonzero" fill-opacity="1" /><polyline clip-path="url(#clip072)" style="stroke:#009af9; stroke-linecap:round; stroke-linejoin:round; stroke-width:4; stroke-opacity:1; fill:none" points="250.72,87.9763 542.265,336.636 833.809,671.991 1125.35,732.528 1416.9,744.473 1708.44,1123.91 1999.99,1247.73 2291.53,1445.72 "/>
<line clip-path="url(#clip072)" x1="250.72" y1="87.9763" x2="234.72" y2="71.9763" style="stroke:#009af9; stroke-width:4; stroke-opacity:1"/>
<line clip-path="url(#clip072)" x1="250.72" y1="87.9763" x2="234.72" y2="103.976" style="stroke:#009af9; stroke-width:4; stroke-opacity:1"/>
<line clip-path="url(#clip072)" x1="250.72" y1="87.9763" x2="266.72" y2="103.976" style="stroke:#009af9; stroke-width:4; stroke-opacity:1"/>
<line clip-path="url(#clip072)" x1="250.72" y1="87.9763" x2="266.72" y2="71.9763" style="stroke:#009af9; stroke-width:4; stroke-opacity:1"/>
<line clip-path="url(#clip072)" x1="542.265" y1="336.636" x2="526.265" y2="320.636" style="stroke:#009af9; stroke-width:4; stroke-opacity:1"/>
<line clip-path="url(#clip072)" x1="542.265" y1="336.636" x2="526.265" y2="352.636" style="stroke:#009af9; stroke-width:4; stroke-opacity:1"/>
<line clip-path="url(#clip072)" x1="542.265" y1="336.636" x2="558.265" y2="352.636" style="stroke:#009af9; stroke-width:4; stroke-opacity:1"/>
<line clip-path="url(#clip072)" x1="542.265" y1="336.636" x2="558.265" y2="320.636" style="stroke:#009af9; stroke-width:4; stroke-opacity:1"/>
<line clip-path="url(#clip072)" x1="833.809" y1="671.991" x2="817.809" y2="655.991" style="stroke:#009af9; stroke-width:4; stroke-opacity:1"/>
<line clip-path="url(#clip072)" x1="833.809" y1="671.991" x2="817.809" y2="687.991" style="stroke:#009af9; stroke-width:4; stroke-opacity:1"/>
<line clip-path="url(#clip072)" x1="833.809" y1="671.991" x2="849.809" y2="687.991" style="stroke:#009af9; stroke-width:4; stroke-opacity:1"/>
<line clip-path="url(#clip072)" x1="833.809" y1="671.991" x2="849.809" y2="655.991" style="stroke:#009af9; stroke-width:4; stroke-opacity:1"/>
<line clip-path="url(#clip072)" x1="1125.35" y1="732.528" x2="1109.35" y2="716.528" style="stroke:#009af9; stroke-width:4; stroke-opacity:1"/>
<line clip-path="url(#clip072)" x1="1125.35" y1="732.528" x2="1109.35" y2="748.528" style="stroke:#009af9; stroke-width:4; stroke-opacity:1"/>
<line clip-path="url(#clip072)" x1="1125.35" y1="732.528" x2="1141.35" y2="748.528" style="stroke:#009af9; stroke-width:4; stroke-opacity:1"/>
<line clip-path="url(#clip072)" x1="1125.35" y1="732.528" x2="1141.35" y2="716.528" style="stroke:#009af9; stroke-width:4; stroke-opacity:1"/>
<line clip-path="url(#clip072)" x1="1416.9" y1="744.473" x2="1400.9" y2="728.473" style="stroke:#009af9; stroke-width:4; stroke-opacity:1"/>
<line clip-path="url(#clip072)" x1="1416.9" y1="744.473" x2="1400.9" y2="760.473" style="stroke:#009af9; stroke-width:4; stroke-opacity:1"/>
<line clip-path="url(#clip072)" x1="1416.9" y1="744.473" x2="1432.9" y2="760.473" style="stroke:#009af9; stroke-width:4; stroke-opacity:1"/>
<line clip-path="url(#clip072)" x1="1416.9" y1="744.473" x2="1432.9" y2="728.473" style="stroke:#009af9; stroke-width:4; stroke-opacity:1"/>
<line clip-path="url(#clip072)" x1="1708.44" y1="1123.91" x2="1692.44" y2="1107.91" style="stroke:#009af9; stroke-width:4; stroke-opacity:1"/>
<line clip-path="url(#clip072)" x1="1708.44" y1="1123.91" x2="1692.44" y2="1139.91" style="stroke:#009af9; stroke-width:4; stroke-opacity:1"/>
<line clip-path="url(#clip072)" x1="1708.44" y1="1123.91" x2="1724.44" y2="1139.91" style="stroke:#009af9; stroke-width:4; stroke-opacity:1"/>
<line clip-path="url(#clip072)" x1="1708.44" y1="1123.91" x2="1724.44" y2="1107.91" style="stroke:#009af9; stroke-width:4; stroke-opacity:1"/>
<line clip-path="url(#clip072)" x1="1999.99" y1="1247.73" x2="1983.99" y2="1231.73" style="stroke:#009af9; stroke-width:4; stroke-opacity:1"/>
<line clip-path="url(#clip072)" x1="1999.99" y1="1247.73" x2="1983.99" y2="1263.73" style="stroke:#009af9; stroke-width:4; stroke-opacity:1"/>
<line clip-path="url(#clip072)" x1="1999.99" y1="1247.73" x2="2015.99" y2="1263.73" style="stroke:#009af9; stroke-width:4; stroke-opacity:1"/>
<line clip-path="url(#clip072)" x1="1999.99" y1="1247.73" x2="2015.99" y2="1231.73" style="stroke:#009af9; stroke-width:4; stroke-opacity:1"/>
<line clip-path="url(#clip072)" x1="2291.53" y1="1445.72" x2="2275.53" y2="1429.72" style="stroke:#009af9; stroke-width:4; stroke-opacity:1"/>
<line clip-path="url(#clip072)" x1="2291.53" y1="1445.72" x2="2275.53" y2="1461.72" style="stroke:#009af9; stroke-width:4; stroke-opacity:1"/>
<line clip-path="url(#clip072)" x1="2291.53" y1="1445.72" x2="2307.53" y2="1461.72" style="stroke:#009af9; stroke-width:4; stroke-opacity:1"/>
<line clip-path="url(#clip072)" x1="2291.53" y1="1445.72" x2="2307.53" y2="1429.72" style="stroke:#009af9; stroke-width:4; stroke-opacity:1"/>
<path clip-path="url(#clip070)" d="M1816.13 198.898 L2280.65 198.898 L2280.65 95.2176 L1816.13 95.2176  Z" fill="#ffffff" fill-rule="evenodd" fill-opacity="1"/>
<polyline clip-path="url(#clip070)" style="stroke:#000000; stroke-linecap:round; stroke-linejoin:round; stroke-width:4; stroke-opacity:1; fill:none" points="1816.13,198.898 2280.65,198.898 2280.65,95.2176 1816.13,95.2176 1816.13,198.898 "/>
<polyline clip-path="url(#clip070)" style="stroke:#009af9; stroke-linecap:round; stroke-linejoin:round; stroke-width:4; stroke-opacity:1; fill:none" points="1840.16,147.058 1984.38,147.058 "/>
<line clip-path="url(#clip070)" x1="1912.27" y1="147.058" x2="1890.02" y2="124.802" style="stroke:#009af9; stroke-width:4.55111; stroke-opacity:1"/>
<line clip-path="url(#clip070)" x1="1912.27" y1="147.058" x2="1890.02" y2="169.313" style="stroke:#009af9; stroke-width:4.55111; stroke-opacity:1"/>
<line clip-path="url(#clip070)" x1="1912.27" y1="147.058" x2="1934.53" y2="169.313" style="stroke:#009af9; stroke-width:4.55111; stroke-opacity:1"/>
<line clip-path="url(#clip070)" x1="1912.27" y1="147.058" x2="1934.53" y2="124.802" style="stroke:#009af9; stroke-width:4.55111; stroke-opacity:1"/>
<path clip-path="url(#clip070)" d="M2012.35 128.111 L2012.35 175.518 L2008.42 175.518 L2008.42 128.111 L2012.35 128.111 Z" fill="#000000" fill-rule="nonzero" fill-opacity="1" /><path clip-path="url(#clip070)" d="M2024.76 143.041 Q2026.17 140.68 2029.67 138.597 Q2031.03 137.787 2035.25 137.787 Q2039.97 137.787 2042.91 141.537 Q2045.87 145.287 2045.87 151.398 Q2045.87 157.509 2042.91 161.259 Q2039.97 165.009 2035.25 165.009 Q2032.4 165.009 2030.34 163.898 Q2028.3 162.763 2026.96 160.449 L2026.96 174.199 L2022.68 174.199 L2022.68 151.629 Q2022.68 146.282 2024.76 143.041 M2041.45 151.398 Q2041.45 146.699 2039.51 144.037 Q2037.58 141.352 2034.2 141.352 Q2030.83 141.352 2028.88 144.037 Q2026.96 146.699 2026.96 151.398 Q2026.96 156.097 2028.88 158.782 Q2030.83 161.444 2034.2 161.444 Q2037.58 161.444 2039.51 158.782 Q2041.45 156.097 2041.45 151.398 Z" fill="#000000" fill-rule="nonzero" fill-opacity="1" /><path clip-path="url(#clip070)" d="M2062.98 141.398 Q2059.55 141.398 2057.56 144.083 Q2055.57 146.745 2055.57 151.398 Q2055.57 156.051 2057.54 158.736 Q2059.53 161.398 2062.98 161.398 Q2066.38 161.398 2068.37 158.713 Q2070.36 156.027 2070.36 151.398 Q2070.36 146.791 2068.37 144.106 Q2066.38 141.398 2062.98 141.398 M2062.98 137.787 Q2068.53 137.787 2071.7 141.398 Q2074.88 145.009 2074.88 151.398 Q2074.88 157.764 2071.7 161.398 Q2068.53 165.009 2062.98 165.009 Q2057.4 165.009 2054.23 161.398 Q2051.08 157.764 2051.08 151.398 Q2051.08 145.009 2054.23 141.398 Q2057.4 137.787 2062.98 137.787 Z" fill="#000000" fill-rule="nonzero" fill-opacity="1" /><path clip-path="url(#clip070)" d="M2081.5 154.106 L2081.5 138.412 L2085.76 138.412 L2085.76 153.944 Q2085.76 157.625 2087.19 159.476 Q2088.63 161.305 2091.5 161.305 Q2094.95 161.305 2096.94 159.106 Q2098.95 156.907 2098.95 153.111 L2098.95 138.412 L2103.21 138.412 L2103.21 164.338 L2098.95 164.338 L2098.95 160.356 Q2097.4 162.717 2095.34 163.875 Q2093.3 165.009 2090.59 165.009 Q2086.13 165.009 2083.81 162.231 Q2081.5 159.453 2081.5 154.106 M2092.21 137.787 L2092.21 137.787 Z" fill="#000000" fill-rule="nonzero" fill-opacity="1" /><path clip-path="url(#clip070)" d="M2116.2 131.051 L2116.2 138.412 L2124.97 138.412 L2124.97 141.722 L2116.2 141.722 L2116.2 155.796 Q2116.2 158.967 2117.05 159.87 Q2117.93 160.773 2120.59 160.773 L2124.97 160.773 L2124.97 164.338 L2120.59 164.338 Q2115.66 164.338 2113.79 162.509 Q2111.91 160.657 2111.91 155.796 L2111.91 141.722 L2108.79 141.722 L2108.79 138.412 L2111.91 138.412 L2111.91 131.051 L2116.2 131.051 Z" fill="#000000" fill-rule="nonzero" fill-opacity="1" /><path clip-path="url(#clip070)" d="M2143.49 149.453 L2155.96 149.453 L2155.96 153.25 L2143.49 153.25 L2143.49 149.453 Z" fill="#000000" fill-rule="nonzero" fill-opacity="1" /><path clip-path="url(#clip070)" d="M2179.74 143.041 Q2181.15 140.68 2184.64 138.597 Q2186.01 137.787 2190.22 137.787 Q2194.94 137.787 2197.88 141.537 Q2200.85 145.287 2200.85 151.398 Q2200.85 157.509 2197.88 161.259 Q2194.94 165.009 2190.22 165.009 Q2187.38 165.009 2185.32 163.898 Q2183.28 162.763 2181.94 160.449 L2181.94 174.199 L2177.65 174.199 L2177.65 151.629 Q2177.65 146.282 2179.74 143.041 M2196.43 151.398 Q2196.43 146.699 2194.48 144.037 Q2192.56 141.352 2189.18 141.352 Q2185.8 141.352 2183.86 144.037 Q2181.94 146.699 2181.94 151.398 Q2181.94 156.097 2183.86 158.782 Q2185.8 161.444 2189.18 161.444 Q2192.56 161.444 2194.48 158.782 Q2196.43 156.097 2196.43 151.398 Z" fill="#000000" fill-rule="nonzero" fill-opacity="1" /><path clip-path="url(#clip070)" d="M2207.91 138.412 L2212.17 138.412 L2212.17 164.338 L2207.91 164.338 L2207.91 138.412 M2207.91 128.319 L2212.17 128.319 L2212.17 133.713 L2207.91 133.713 L2207.91 128.319 Z" fill="#000000" fill-rule="nonzero" fill-opacity="1" /><path clip-path="url(#clip070)" d="M2242.63 148.689 L2242.63 164.338 L2238.37 164.338 L2238.37 148.828 Q2238.37 145.148 2236.94 143.319 Q2235.5 141.49 2232.63 141.49 Q2229.18 141.49 2227.19 143.69 Q2225.2 145.889 2225.2 149.685 L2225.2 164.338 L2220.92 164.338 L2220.92 138.412 L2225.2 138.412 L2225.2 142.44 Q2226.73 140.102 2228.79 138.944 Q2230.87 137.787 2233.58 137.787 Q2238.05 137.787 2240.34 140.565 Q2242.63 143.319 2242.63 148.689 Z" fill="#000000" fill-rule="nonzero" fill-opacity="1" /><path clip-path="url(#clip070)" d="M2256.61 128.111 L2256.61 175.518 L2252.68 175.518 L2252.68 128.111 L2256.61 128.111 Z" fill="#000000" fill-rule="nonzero" fill-opacity="1" /></svg>
