<?xml version="1.0" encoding="utf-8"?>
<svg xmlns="http://www.w3.org/2000/svg" xmlns:xlink="http://www.w3.org/1999/xlink" width="600" height="400" viewBox="0 0 2400 1600">
<defs>
  <clipPath id="clip340">
    <rect x="0" y="0" width="2400" height="1600"/>
  </clipPath>
</defs>
<path clip-path="url(#clip340)" d="M0 1600 L2400 1600 L2400 0 L0 0  Z" fill="#ffffff" fill-rule="evenodd" fill-opacity="1"/>
<defs>
  <clipPath id="clip341">
    <rect x="480" y="0" width="1681" height="1600"/>
  </clipPath>
</defs>
<path clip-path="url(#clip340)" d="M223.103 1486.45 L2352.76 1486.45 L2352.76 47.2441 L223.103 47.2441  Z" fill="#ffffff" fill-rule="evenodd" fill-opacity="1"/>
<defs>
  <clipPath id="clip342">
    <rect x="223" y="47" width="2131" height="1440"/>
  </clipPath>
</defs>
<polyline clip-path="url(#clip342)" style="stroke:#000000; stroke-linecap:round; stroke-linejoin:round; stroke-width:2; stroke-opacity:0.1; fill:none" points="223.103,1486.45 223.103,47.2441 "/>
<polyline clip-path="url(#clip342)" style="stroke:#000000; stroke-linecap:round; stroke-linejoin:round; stroke-width:2; stroke-opacity:0.1; fill:none" points="755.516,1486.45 755.516,47.2441 "/>
<polyline clip-path="url(#clip342)" style="stroke:#000000; stroke-linecap:round; stroke-linejoin:round; stroke-width:2; stroke-opacity:0.1; fill:none" points="1287.93,1486.45 1287.93,47.2441 "/>
<polyline clip-path="url(#clip342)" style="stroke:#000000; stroke-linecap:round; stroke-linejoin:round; stroke-width:2; stroke-opacity:0.1; fill:none" points="1820.34,1486.45 1820.34,47.2441 "/>
<polyline clip-path="url(#clip342)" style="stroke:#000000; stroke-linecap:round; stroke-linejoin:round; stroke-width:2; stroke-opacity:0.1; fill:none" points="2352.76,1486.45 2352.76,47.2441 "/>
<polyline clip-path="url(#clip342)" style="stroke:#000000; stroke-linecap:round; stroke-linejoin:round; stroke-width:2; stroke-opacity:0.1; fill:none" points="223.103,1261.29 2352.76,1261.29 "/>
<polyline clip-path="url(#clip342)" style="stroke:#000000; stroke-linecap:round; stroke-linejoin:round; stroke-width:2; stroke-opacity:0.1; fill:none" points="223.103,972.46 2352.76,972.46 "/>
<polyline clip-path="url(#clip342)" style="stroke:#000000; stroke-linecap:round; stroke-linejoin:round; stroke-width:2; stroke-opacity:0.1; fill:none" points="223.103,683.634 2352.76,683.634 "/>
<polyline clip-path="url(#clip342)" style="stroke:#000000; stroke-linecap:round; stroke-linejoin:round; stroke-width:2; stroke-opacity:0.1; fill:none" points="223.103,394.808 2352.76,394.808 "/>
<polyline clip-path="url(#clip342)" style="stroke:#000000; stroke-linecap:round; stroke-linejoin:round; stroke-width:2; stroke-opacity:0.1; fill:none" points="223.103,105.983 2352.76,105.983 "/>
<polyline clip-path="url(#clip340)" style="stroke:#000000; stroke-linecap:round; stroke-linejoin:round; stroke-width:4; stroke-opacity:1; fill:none" points="223.103,1486.45 2352.76,1486.45 "/>
<polyline clip-path="url(#clip340)" style="stroke:#000000; stroke-linecap:round; stroke-linejoin:round; stroke-width:4; stroke-opacity:1; fill:none" points="223.103,1486.45 223.103,1467.55 "/>
<polyline clip-path="url(#clip340)" style="stroke:#000000; stroke-linecap:round; stroke-linejoin:round; stroke-width:4; stroke-opacity:1; fill:none" points="755.516,1486.45 755.516,1467.55 "/>
<polyline clip-path="url(#clip340)" style="stroke:#000000; stroke-linecap:round; stroke-linejoin:round; stroke-width:4; stroke-opacity:1; fill:none" points="1287.93,1486.45 1287.93,1467.55 "/>
<polyline clip-path="url(#clip340)" style="stroke:#000000; stroke-linecap:round; stroke-linejoin:round; stroke-width:4; stroke-opacity:1; fill:none" points="1820.34,1486.45 1820.34,1467.55 "/>
<polyline clip-path="url(#clip340)" style="stroke:#000000; stroke-linecap:round; stroke-linejoin:round; stroke-width:4; stroke-opacity:1; fill:none" points="2352.76,1486.45 2352.76,1467.55 "/>
<path clip-path="url(#clip340)" d="M177.165 1532.02 L206.841 1532.02 L206.841 1535.95 L177.165 1535.95 L177.165 1532.02 Z" fill="#000000" fill-rule="nonzero" fill-opacity="1" /><path clip-path="url(#clip340)" d="M217.744 1544.91 L225.383 1544.91 L225.383 1518.55 L217.072 1520.21 L217.072 1515.95 L225.336 1514.29 L230.012 1514.29 L230.012 1544.91 L237.651 1544.91 L237.651 1548.85 L217.744 1548.85 L217.744 1544.91 Z" fill="#000000" fill-rule="nonzero" fill-opacity="1" /><path clip-path="url(#clip340)" d="M257.095 1517.37 Q253.484 1517.37 251.656 1520.93 Q249.85 1524.47 249.85 1531.6 Q249.85 1538.71 251.656 1542.27 Q253.484 1545.82 257.095 1545.82 Q260.73 1545.82 262.535 1542.27 Q264.364 1538.71 264.364 1531.6 Q264.364 1524.47 262.535 1520.93 Q260.73 1517.37 257.095 1517.37 M257.095 1513.66 Q262.906 1513.66 265.961 1518.27 Q269.04 1522.85 269.04 1531.6 Q269.04 1540.33 265.961 1544.94 Q262.906 1549.52 257.095 1549.52 Q251.285 1549.52 248.207 1544.94 Q245.151 1540.33 245.151 1531.6 Q245.151 1522.85 248.207 1518.27 Q251.285 1513.66 257.095 1513.66 Z" fill="#000000" fill-rule="nonzero" fill-opacity="1" /><path clip-path="url(#clip340)" d="M725.157 1532.02 L754.833 1532.02 L754.833 1535.95 L725.157 1535.95 L725.157 1532.02 Z" fill="#000000" fill-rule="nonzero" fill-opacity="1" /><path clip-path="url(#clip340)" d="M764.972 1514.29 L783.328 1514.29 L783.328 1518.22 L769.254 1518.22 L769.254 1526.7 Q770.273 1526.35 771.291 1526.19 Q772.31 1526 773.328 1526 Q779.115 1526 782.495 1529.17 Q785.874 1532.34 785.874 1537.76 Q785.874 1543.34 782.402 1546.44 Q778.93 1549.52 772.611 1549.52 Q770.435 1549.52 768.166 1549.15 Q765.921 1548.78 763.513 1548.04 L763.513 1543.34 Q765.597 1544.47 767.819 1545.03 Q770.041 1545.58 772.518 1545.58 Q776.523 1545.58 778.861 1543.48 Q781.199 1541.37 781.199 1537.76 Q781.199 1534.15 778.861 1532.04 Q776.523 1529.94 772.518 1529.94 Q770.643 1529.94 768.768 1530.35 Q766.916 1530.77 764.972 1531.65 L764.972 1514.29 Z" fill="#000000" fill-rule="nonzero" fill-opacity="1" /><path clip-path="url(#clip340)" d="M1287.93 1517.37 Q1284.32 1517.37 1282.49 1520.93 Q1280.68 1524.47 1280.68 1531.6 Q1280.68 1538.71 1282.49 1542.27 Q1284.32 1545.82 1287.93 1545.82 Q1291.56 1545.82 1293.37 1542.27 Q1295.2 1538.71 1295.2 1531.6 Q1295.2 1524.47 1293.37 1520.93 Q1291.56 1517.37 1287.93 1517.37 M1287.93 1513.66 Q1293.74 1513.66 1296.79 1518.27 Q1299.87 1522.85 1299.87 1531.6 Q1299.87 1540.33 1296.79 1544.94 Q1293.74 1549.52 1287.93 1549.52 Q1282.12 1549.52 1279.04 1544.94 Q1275.98 1540.33 1275.98 1531.6 Q1275.98 1522.85 1279.04 1518.27 Q1282.12 1513.66 1287.93 1513.66 Z" fill="#000000" fill-rule="nonzero" fill-opacity="1" /><path clip-path="url(#clip340)" d="M1810.62 1514.29 L1828.98 1514.29 L1828.98 1518.22 L1814.9 1518.22 L1814.9 1526.7 Q1815.92 1526.35 1816.94 1526.19 Q1817.96 1526 1818.98 1526 Q1824.76 1526 1828.14 1529.17 Q1831.52 1532.34 1831.52 1537.76 Q1831.52 1543.34 1828.05 1546.44 Q1824.58 1549.52 1818.26 1549.52 Q1816.08 1549.52 1813.81 1549.15 Q1811.57 1548.78 1809.16 1548.04 L1809.16 1543.34 Q1811.25 1544.47 1813.47 1545.03 Q1815.69 1545.58 1818.17 1545.58 Q1822.17 1545.58 1824.51 1543.48 Q1826.85 1541.37 1826.85 1537.76 Q1826.85 1534.15 1824.51 1532.04 Q1822.17 1529.94 1818.17 1529.94 Q1816.29 1529.94 1814.42 1530.35 Q1812.56 1530.77 1810.62 1531.65 L1810.62 1514.29 Z" fill="#000000" fill-rule="nonzero" fill-opacity="1" /><path clip-path="url(#clip340)" d="M2327.44 1544.91 L2335.08 1544.91 L2335.08 1518.55 L2326.77 1520.21 L2326.77 1515.95 L2335.04 1514.29 L2339.71 1514.29 L2339.71 1544.91 L2347.35 1544.91 L2347.35 1548.85 L2327.44 1548.85 L2327.44 1544.91 Z" fill="#000000" fill-rule="nonzero" fill-opacity="1" /><path clip-path="url(#clip340)" d="M2366.8 1517.37 Q2363.18 1517.37 2361.36 1520.93 Q2359.55 1524.47 2359.55 1531.6 Q2359.55 1538.71 2361.36 1542.27 Q2363.18 1545.82 2366.8 1545.82 Q2370.43 1545.82 2372.23 1542.27 Q2374.06 1538.71 2374.06 1531.6 Q2374.06 1524.47 2372.23 1520.93 Q2370.43 1517.37 2366.8 1517.37 M2366.8 1513.66 Q2372.61 1513.66 2375.66 1518.27 Q2378.74 1522.85 2378.74 1531.6 Q2378.74 1540.33 2375.66 1544.94 Q2372.61 1549.52 2366.8 1549.52 Q2360.99 1549.52 2357.91 1544.94 Q2354.85 1540.33 2354.85 1531.6 Q2354.85 1522.85 2357.91 1518.27 Q2360.99 1513.66 2366.8 1513.66 Z" fill="#000000" fill-rule="nonzero" fill-opacity="1" /><polyline clip-path="url(#clip340)" style="stroke:#000000; stroke-linecap:round; stroke-linejoin:round; stroke-width:4; stroke-opacity:1; fill:none" points="223.103,1486.45 223.103,47.2441 "/>
<polyline clip-path="url(#clip340)" style="stroke:#000000; stroke-linecap:round; stroke-linejoin:round; stroke-width:4; stroke-opacity:1; fill:none" points="223.103,1261.29 242,1261.29 "/>
<polyline clip-path="url(#clip340)" style="stroke:#000000; stroke-linecap:round; stroke-linejoin:round; stroke-width:4; stroke-opacity:1; fill:none" points="223.103,972.46 242,972.46 "/>
<polyline clip-path="url(#clip340)" style="stroke:#000000; stroke-linecap:round; stroke-linejoin:round; stroke-width:4; stroke-opacity:1; fill:none" points="223.103,683.634 242,683.634 "/>
<polyline clip-path="url(#clip340)" style="stroke:#000000; stroke-linecap:round; stroke-linejoin:round; stroke-width:4; stroke-opacity:1; fill:none" points="223.103,394.808 242,394.808 "/>
<polyline clip-path="url(#clip340)" style="stroke:#000000; stroke-linecap:round; stroke-linejoin:round; stroke-width:4; stroke-opacity:1; fill:none" points="223.103,105.983 242,105.983 "/>
<path clip-path="url(#clip340)" d="M50.9921 1261.74 L80.6679 1261.74 L80.6679 1265.67 L50.9921 1265.67 L50.9921 1261.74 Z" fill="#000000" fill-rule="nonzero" fill-opacity="1" /><path clip-path="url(#clip340)" d="M100.76 1247.08 Q97.1493 1247.08 95.3206 1250.65 Q93.515 1254.19 93.515 1261.32 Q93.515 1268.43 95.3206 1271.99 Q97.1493 1275.53 100.76 1275.53 Q104.395 1275.53 106.2 1271.99 Q108.029 1268.43 108.029 1261.32 Q108.029 1254.19 106.2 1250.65 Q104.395 1247.08 100.76 1247.08 M100.76 1243.38 Q106.571 1243.38 109.626 1247.99 Q112.705 1252.57 112.705 1261.32 Q112.705 1270.05 109.626 1274.65 Q106.571 1279.24 100.76 1279.24 Q94.9502 1279.24 91.8715 1274.65 Q88.816 1270.05 88.816 1261.32 Q88.816 1252.57 91.8715 1247.99 Q94.9502 1243.38 100.76 1243.38 Z" fill="#000000" fill-rule="nonzero" fill-opacity="1" /><path clip-path="url(#clip340)" d="M120.922 1272.69 L125.807 1272.69 L125.807 1278.57 L120.922 1278.57 L120.922 1272.69 Z" fill="#000000" fill-rule="nonzero" fill-opacity="1" /><path clip-path="url(#clip340)" d="M140.019 1274.63 L156.339 1274.63 L156.339 1278.57 L134.394 1278.57 L134.394 1274.63 Q137.056 1271.88 141.64 1267.25 Q146.246 1262.59 147.427 1261.25 Q149.672 1258.73 150.552 1256.99 Q151.455 1255.23 151.455 1253.54 Q151.455 1250.79 149.51 1249.05 Q147.589 1247.32 144.487 1247.32 Q142.288 1247.32 139.834 1248.08 Q137.404 1248.84 134.626 1250.39 L134.626 1245.67 Q137.45 1244.54 139.904 1243.96 Q142.357 1243.38 144.394 1243.38 Q149.765 1243.38 152.959 1246.07 Q156.154 1248.75 156.154 1253.24 Q156.154 1255.37 155.343 1257.29 Q154.556 1259.19 152.45 1261.78 Q151.871 1262.45 148.769 1265.67 Q145.668 1268.87 140.019 1274.63 Z" fill="#000000" fill-rule="nonzero" fill-opacity="1" /><path clip-path="url(#clip340)" d="M166.2 1244.01 L184.556 1244.01 L184.556 1247.94 L170.482 1247.94 L170.482 1256.41 Q171.501 1256.07 172.519 1255.9 Q173.538 1255.72 174.556 1255.72 Q180.343 1255.72 183.723 1258.89 Q187.103 1262.06 187.103 1267.48 Q187.103 1273.06 183.63 1276.16 Q180.158 1279.24 173.839 1279.24 Q171.663 1279.24 169.394 1278.87 Q167.149 1278.5 164.742 1277.76 L164.742 1273.06 Q166.825 1274.19 169.047 1274.75 Q171.269 1275.3 173.746 1275.3 Q177.751 1275.3 180.089 1273.2 Q182.427 1271.09 182.427 1267.48 Q182.427 1263.87 180.089 1261.76 Q177.751 1259.65 173.746 1259.65 Q171.871 1259.65 169.996 1260.07 Q168.144 1260.49 166.2 1261.37 L166.2 1244.01 Z" fill="#000000" fill-rule="nonzero" fill-opacity="1" /><path clip-path="url(#clip340)" d="M99.765 958.258 Q96.1539 958.258 94.3252 961.823 Q92.5197 965.365 92.5197 972.494 Q92.5197 979.601 94.3252 983.166 Q96.1539 986.707 99.765 986.707 Q103.399 986.707 105.205 983.166 Q107.033 979.601 107.033 972.494 Q107.033 965.365 105.205 961.823 Q103.399 958.258 99.765 958.258 M99.765 954.555 Q105.575 954.555 108.631 959.161 Q111.709 963.744 111.709 972.494 Q111.709 981.221 108.631 985.828 Q105.575 990.411 99.765 990.411 Q93.9549 990.411 90.8762 985.828 Q87.8206 981.221 87.8206 972.494 Q87.8206 963.744 90.8762 959.161 Q93.9549 954.555 99.765 954.555 Z" fill="#000000" fill-rule="nonzero" fill-opacity="1" /><path clip-path="url(#clip340)" d="M119.927 983.86 L124.811 983.86 L124.811 989.74 L119.927 989.74 L119.927 983.86 Z" fill="#000000" fill-rule="nonzero" fill-opacity="1" /><path clip-path="url(#clip340)" d="M144.996 958.258 Q141.385 958.258 139.556 961.823 Q137.751 965.365 137.751 972.494 Q137.751 979.601 139.556 983.166 Q141.385 986.707 144.996 986.707 Q148.63 986.707 150.436 983.166 Q152.265 979.601 152.265 972.494 Q152.265 965.365 150.436 961.823 Q148.63 958.258 144.996 958.258 M144.996 954.555 Q150.806 954.555 153.862 959.161 Q156.941 963.744 156.941 972.494 Q156.941 981.221 153.862 985.828 Q150.806 990.411 144.996 990.411 Q139.186 990.411 136.107 985.828 Q133.052 981.221 133.052 972.494 Q133.052 963.744 136.107 959.161 Q139.186 954.555 144.996 954.555 Z" fill="#000000" fill-rule="nonzero" fill-opacity="1" /><path clip-path="url(#clip340)" d="M175.158 958.258 Q171.547 958.258 169.718 961.823 Q167.913 965.365 167.913 972.494 Q167.913 979.601 169.718 983.166 Q171.547 986.707 175.158 986.707 Q178.792 986.707 180.598 983.166 Q182.427 979.601 182.427 972.494 Q182.427 965.365 180.598 961.823 Q178.792 958.258 175.158 958.258 M175.158 954.555 Q180.968 954.555 184.024 959.161 Q187.103 963.744 187.103 972.494 Q187.103 981.221 184.024 985.828 Q180.968 990.411 175.158 990.411 Q169.348 990.411 166.269 985.828 Q163.214 981.221 163.214 972.494 Q163.214 963.744 166.269 959.161 Q169.348 954.555 175.158 954.555 Z" fill="#000000" fill-rule="nonzero" fill-opacity="1" /><path clip-path="url(#clip340)" d="M100.76 669.433 Q97.1493 669.433 95.3206 672.998 Q93.515 676.539 93.515 683.669 Q93.515 690.775 95.3206 694.34 Q97.1493 697.882 100.76 697.882 Q104.395 697.882 106.2 694.34 Q108.029 690.775 108.029 683.669 Q108.029 676.539 106.2 672.998 Q104.395 669.433 100.76 669.433 M100.76 665.729 Q106.571 665.729 109.626 670.335 Q112.705 674.919 112.705 683.669 Q112.705 692.396 109.626 697.002 Q106.571 701.585 100.76 701.585 Q94.9502 701.585 91.8715 697.002 Q88.816 692.396 88.816 683.669 Q88.816 674.919 91.8715 670.335 Q94.9502 665.729 100.76 665.729 Z" fill="#000000" fill-rule="nonzero" fill-opacity="1" /><path clip-path="url(#clip340)" d="M120.922 695.034 L125.807 695.034 L125.807 700.914 L120.922 700.914 L120.922 695.034 Z" fill="#000000" fill-rule="nonzero" fill-opacity="1" /><path clip-path="url(#clip340)" d="M140.019 696.979 L156.339 696.979 L156.339 700.914 L134.394 700.914 L134.394 696.979 Q137.056 694.224 141.64 689.595 Q146.246 684.942 147.427 683.599 Q149.672 681.076 150.552 679.34 Q151.455 677.581 151.455 675.891 Q151.455 673.136 149.51 671.4 Q147.589 669.664 144.487 669.664 Q142.288 669.664 139.834 670.428 Q137.404 671.192 134.626 672.743 L134.626 668.021 Q137.45 666.886 139.904 666.308 Q142.357 665.729 144.394 665.729 Q149.765 665.729 152.959 668.414 Q156.154 671.099 156.154 675.59 Q156.154 677.72 155.343 679.641 Q154.556 681.539 152.45 684.132 Q151.871 684.803 148.769 688.021 Q145.668 691.215 140.019 696.979 Z" fill="#000000" fill-rule="nonzero" fill-opacity="1" /><path clip-path="url(#clip340)" d="M166.2 666.354 L184.556 666.354 L184.556 670.289 L170.482 670.289 L170.482 678.761 Q171.501 678.414 172.519 678.252 Q173.538 678.067 174.556 678.067 Q180.343 678.067 183.723 681.238 Q187.103 684.409 187.103 689.826 Q187.103 695.405 183.63 698.507 Q180.158 701.585 173.839 701.585 Q171.663 701.585 169.394 701.215 Q167.149 700.845 164.742 700.104 L164.742 695.405 Q166.825 696.539 169.047 697.095 Q171.269 697.65 173.746 697.65 Q177.751 697.65 180.089 695.544 Q182.427 693.437 182.427 689.826 Q182.427 686.215 180.089 684.109 Q177.751 682.002 173.746 682.002 Q171.871 682.002 169.996 682.419 Q168.144 682.835 166.2 683.715 L166.2 666.354 Z" fill="#000000" fill-rule="nonzero" fill-opacity="1" /><path clip-path="url(#clip340)" d="M99.765 380.607 Q96.1539 380.607 94.3252 384.172 Q92.5197 387.713 92.5197 394.843 Q92.5197 401.95 94.3252 405.514 Q96.1539 409.056 99.765 409.056 Q103.399 409.056 105.205 405.514 Q107.033 401.95 107.033 394.843 Q107.033 387.713 105.205 384.172 Q103.399 380.607 99.765 380.607 M99.765 376.903 Q105.575 376.903 108.631 381.51 Q111.709 386.093 111.709 394.843 Q111.709 403.57 108.631 408.176 Q105.575 412.76 99.765 412.76 Q93.9549 412.76 90.8762 408.176 Q87.8206 403.57 87.8206 394.843 Q87.8206 386.093 90.8762 381.51 Q93.9549 376.903 99.765 376.903 Z" fill="#000000" fill-rule="nonzero" fill-opacity="1" /><path clip-path="url(#clip340)" d="M119.927 406.209 L124.811 406.209 L124.811 412.088 L119.927 412.088 L119.927 406.209 Z" fill="#000000" fill-rule="nonzero" fill-opacity="1" /><path clip-path="url(#clip340)" d="M135.043 377.528 L153.399 377.528 L153.399 381.464 L139.325 381.464 L139.325 389.936 Q140.343 389.588 141.362 389.426 Q142.381 389.241 143.399 389.241 Q149.186 389.241 152.566 392.413 Q155.945 395.584 155.945 401 Q155.945 406.579 152.473 409.681 Q149.001 412.76 142.681 412.76 Q140.506 412.76 138.237 412.389 Q135.992 412.019 133.584 411.278 L133.584 406.579 Q135.668 407.713 137.89 408.269 Q140.112 408.824 142.589 408.824 Q146.593 408.824 148.931 406.718 Q151.269 404.612 151.269 401 Q151.269 397.389 148.931 395.283 Q146.593 393.176 142.589 393.176 Q140.714 393.176 138.839 393.593 Q136.987 394.01 135.043 394.889 L135.043 377.528 Z" fill="#000000" fill-rule="nonzero" fill-opacity="1" /><path clip-path="url(#clip340)" d="M175.158 380.607 Q171.547 380.607 169.718 384.172 Q167.913 387.713 167.913 394.843 Q167.913 401.95 169.718 405.514 Q171.547 409.056 175.158 409.056 Q178.792 409.056 180.598 405.514 Q182.427 401.95 182.427 394.843 Q182.427 387.713 180.598 384.172 Q178.792 380.607 175.158 380.607 M175.158 376.903 Q180.968 376.903 184.024 381.51 Q187.103 386.093 187.103 394.843 Q187.103 403.57 184.024 408.176 Q180.968 412.76 175.158 412.76 Q169.348 412.76 166.269 408.176 Q163.214 403.57 163.214 394.843 Q163.214 386.093 166.269 381.51 Q169.348 376.903 175.158 376.903 Z" fill="#000000" fill-rule="nonzero" fill-opacity="1" /><path clip-path="url(#clip340)" d="M100.76 91.7813 Q97.1493 91.7813 95.3206 95.3461 Q93.515 98.8878 93.515 106.017 Q93.515 113.124 95.3206 116.689 Q97.1493 120.23 100.76 120.23 Q104.395 120.23 106.2 116.689 Q108.029 113.124 108.029 106.017 Q108.029 98.8878 106.2 95.3461 Q104.395 91.7813 100.76 91.7813 M100.76 88.0777 Q106.571 88.0777 109.626 92.6841 Q112.705 97.2674 112.705 106.017 Q112.705 114.744 109.626 119.351 Q106.571 123.934 100.76 123.934 Q94.9502 123.934 91.8715 119.351 Q88.816 114.744 88.816 106.017 Q88.816 97.2674 91.8715 92.6841 Q94.9502 88.0777 100.76 88.0777 Z" fill="#000000" fill-rule="nonzero" fill-opacity="1" /><path clip-path="url(#clip340)" d="M120.922 117.383 L125.807 117.383 L125.807 123.263 L120.922 123.263 L120.922 117.383 Z" fill="#000000" fill-rule="nonzero" fill-opacity="1" /><path clip-path="url(#clip340)" d="M134.811 88.7027 L157.033 88.7027 L157.033 90.6934 L144.487 123.263 L139.603 123.263 L151.408 92.6378 L134.811 92.6378 L134.811 88.7027 Z" fill="#000000" fill-rule="nonzero" fill-opacity="1" /><path clip-path="url(#clip340)" d="M166.2 88.7027 L184.556 88.7027 L184.556 92.6378 L170.482 92.6378 L170.482 101.11 Q171.501 100.763 172.519 100.601 Q173.538 100.416 174.556 100.416 Q180.343 100.416 183.723 103.587 Q187.103 106.758 187.103 112.175 Q187.103 117.753 183.63 120.855 Q180.158 123.934 173.839 123.934 Q171.663 123.934 169.394 123.564 Q167.149 123.193 164.742 122.452 L164.742 117.753 Q166.825 118.888 169.047 119.443 Q171.269 119.999 173.746 119.999 Q177.751 119.999 180.089 117.892 Q182.427 115.786 182.427 112.175 Q182.427 108.564 180.089 106.457 Q177.751 104.351 173.746 104.351 Q171.871 104.351 169.996 104.767 Q168.144 105.184 166.2 106.064 L166.2 88.7027 Z" fill="#000000" fill-rule="nonzero" fill-opacity="1" /><polyline clip-path="url(#clip342)" style="stroke:#009af9; stroke-linecap:round; stroke-linejoin:round; stroke-width:4; stroke-opacity:1; fill:none" points="1287.93,87.9763 1394.41,1445.72 1500.89,877.242 1607.38,981.971 1713.86,971.901 1820.34,972.481 1926.83,972.459 2033.31,972.46 2139.79,972.46 2246.27,972.46 2352.76,972.46 2459.24,972.46 2565.72,972.46 2672.2,972.46 2778.69,972.46 2885.17,972.46 2991.65,972.46 3098.13,972.46 3204.62,972.46 3311.1,972.46 3417.58,972.46 3524.07,972.46 3630.55,972.46 3737.03,972.46 3843.51,972.46 3950,972.46 4056.48,972.46 4162.96,972.46 4269.44,972.46 4375.93,972.46 4482.41,972.46 4588.89,972.46 -2013.03,972.46 -1906.55,972.46 -1800.07,972.46 -1693.59,972.46 -1587.1,972.46 -1480.62,972.46 -1374.14,972.46 -1267.65,972.46 -1161.17,972.46 -1054.69,972.46 -948.207,972.46 -841.724,972.46 -735.242,972.46 -628.759,972.46 -522.276,972.46 -415.794,972.46 -309.311,972.46 -202.828,972.46 -96.3455,972.46 10.1372,972.46 116.62,972.46 223.103,972.46 329.585,972.46 436.068,972.46 542.551,972.46 649.033,972.459 755.516,972.481 861.999,971.901 968.481,981.971 1074.96,877.242 1181.45,1445.72 "/>
<polyline clip-path="url(#clip342)" style="stroke:#e26f46; stroke-linecap:round; stroke-linejoin:round; stroke-width:4; stroke-opacity:1; fill:none" points="1287.93,740.118 1394.41,1096.78 1500.89,947.447 1607.38,974.958 1713.86,972.313 1820.34,972.465 1926.83,972.46 2033.31,972.46 2139.79,972.46 2246.27,972.46 2352.76,972.46 2459.24,972.46 2565.72,972.46 2672.2,972.46 2778.69,972.46 2885.17,972.46 2991.65,972.46 3098.13,972.46 3204.62,972.46 3311.1,972.46 3417.58,972.46 3524.07,972.46 3630.55,972.46 3737.03,972.46 3843.51,972.46 3950,972.46 4056.48,972.46 4162.96,972.46 4269.44,972.46 4375.93,972.46 4482.41,972.46 4588.89,972.46 -2013.03,972.46 -1906.55,972.46 -1800.07,972.46 -1693.59,972.46 -1587.1,972.46 -1480.62,972.46 -1374.14,972.46 -1267.65,972.46 -1161.17,972.46 -1054.69,972.46 -948.207,972.46 -841.724,972.46 -735.242,972.46 -628.759,972.46 -522.276,972.46 -415.794,972.46 -309.311,972.46 -202.828,972.46 -96.3455,972.46 10.1372,972.46 116.62,972.46 223.103,972.46 329.585,972.46 436.068,972.46 542.551,972.46 649.033,972.46 755.516,972.465 861.999,972.313 968.481,974.958 1074.96,947.447 1181.45,1096.78 "/>
<path clip-path="url(#clip340)" d="M1723.8 250.738 L2281.77 250.738 L2281.77 95.2176 L1723.8 95.2176  Z" fill="#ffffff" fill-rule="evenodd" fill-opacity="1"/>
<polyline clip-path="url(#clip340)" style="stroke:#000000; stroke-linecap:round; stroke-linejoin:round; stroke-width:4; stroke-opacity:1; fill:none" points="1723.8,250.738 2281.77,250.738 2281.77,95.2176 1723.8,95.2176 1723.8,250.738 "/>
<polyline clip-path="url(#clip340)" style="stroke:#009af9; stroke-linecap:round; stroke-linejoin:round; stroke-width:4; stroke-opacity:1; fill:none" points="1747.47,147.058 1889.44,147.058 "/>
<path clip-path="url(#clip340)" d="M1928.29 142.393 Q1927.57 141.977 1926.72 141.791 Q1925.88 141.583 1924.87 141.583 Q1921.25 141.583 1919.31 143.944 Q1917.39 146.282 1917.39 150.68 L1917.39 164.338 L1913.11 164.338 L1913.11 138.412 L1917.39 138.412 L1917.39 142.44 Q1918.73 140.078 1920.88 138.944 Q1923.04 137.787 1926.12 137.787 Q1926.56 137.787 1927.09 137.856 Q1927.62 137.903 1928.27 138.018 L1928.29 142.393 Z" fill="#000000" fill-rule="nonzero" fill-opacity="1" /><path clip-path="url(#clip340)" d="M1953.89 150.31 L1953.89 152.393 L1934.31 152.393 Q1934.59 156.791 1936.95 159.106 Q1939.33 161.398 1943.57 161.398 Q1946.02 161.398 1948.31 160.796 Q1950.63 160.194 1952.9 158.99 L1952.9 163.018 Q1950.61 163.99 1948.2 164.5 Q1945.79 165.009 1943.31 165.009 Q1937.11 165.009 1933.48 161.398 Q1929.87 157.787 1929.87 151.629 Q1929.87 145.264 1933.29 141.537 Q1936.74 137.787 1942.57 137.787 Q1947.81 137.787 1950.84 141.166 Q1953.89 144.523 1953.89 150.31 M1949.63 149.06 Q1949.59 145.565 1947.67 143.481 Q1945.77 141.398 1942.62 141.398 Q1939.06 141.398 1936.9 143.412 Q1934.77 145.426 1934.45 149.083 L1949.63 149.06 Z" fill="#000000" fill-rule="nonzero" fill-opacity="1" /><path clip-path="url(#clip340)" d="M1972.67 151.305 Q1967.5 151.305 1965.51 152.486 Q1963.52 153.666 1963.52 156.514 Q1963.52 158.782 1965 160.125 Q1966.51 161.444 1969.08 161.444 Q1972.62 161.444 1974.75 158.944 Q1976.9 156.421 1976.9 152.254 L1976.9 151.305 L1972.67 151.305 M1981.16 149.546 L1981.16 164.338 L1976.9 164.338 L1976.9 160.402 Q1975.44 162.763 1973.27 163.898 Q1971.09 165.009 1967.94 165.009 Q1963.96 165.009 1961.6 162.787 Q1959.26 160.541 1959.26 156.791 Q1959.26 152.416 1962.18 150.194 Q1965.12 147.972 1970.93 147.972 L1976.9 147.972 L1976.9 147.555 Q1976.9 144.615 1974.96 143.018 Q1973.04 141.398 1969.54 141.398 Q1967.32 141.398 1965.21 141.93 Q1963.11 142.463 1961.16 143.527 L1961.16 139.592 Q1963.5 138.69 1965.7 138.25 Q1967.9 137.787 1969.98 137.787 Q1975.61 137.787 1978.38 140.703 Q1981.16 143.62 1981.16 149.546 Z" fill="#000000" fill-rule="nonzero" fill-opacity="1" /><path clip-path="url(#clip340)" d="M1989.93 128.319 L1994.19 128.319 L1994.19 164.338 L1989.93 164.338 L1989.93 128.319 Z" fill="#000000" fill-rule="nonzero" fill-opacity="1" /><path clip-path="url(#clip340)" d="M2022.3 160.449 L2022.3 174.199 L2018.01 174.199 L2018.01 138.412 L2022.3 138.412 L2022.3 142.347 Q2023.64 140.032 2025.68 138.921 Q2027.74 137.787 2030.58 137.787 Q2035.3 137.787 2038.24 141.537 Q2041.21 145.287 2041.21 151.398 Q2041.21 157.509 2038.24 161.259 Q2035.3 165.009 2030.58 165.009 Q2027.74 165.009 2025.68 163.898 Q2023.64 162.763 2022.3 160.449 M2036.79 151.398 Q2036.79 146.699 2034.84 144.037 Q2032.92 141.352 2029.54 141.352 Q2026.16 141.352 2024.22 144.037 Q2022.3 146.699 2022.3 151.398 Q2022.3 156.097 2024.22 158.782 Q2026.16 161.444 2029.54 161.444 Q2032.92 161.444 2034.84 158.782 Q2036.79 156.097 2036.79 151.398 Z" fill="#000000" fill-rule="nonzero" fill-opacity="1" /><path clip-path="url(#clip340)" d="M2060.05 151.305 Q2054.89 151.305 2052.9 152.486 Q2050.91 153.666 2050.91 156.514 Q2050.91 158.782 2052.39 160.125 Q2053.89 161.444 2056.46 161.444 Q2060 161.444 2062.13 158.944 Q2064.29 156.421 2064.29 152.254 L2064.29 151.305 L2060.05 151.305 M2068.55 149.546 L2068.55 164.338 L2064.29 164.338 L2064.29 160.402 Q2062.83 162.763 2060.65 163.898 Q2058.48 165.009 2055.33 165.009 Q2051.35 165.009 2048.99 162.787 Q2046.65 160.541 2046.65 156.791 Q2046.65 152.416 2049.56 150.194 Q2052.5 147.972 2058.31 147.972 L2064.29 147.972 L2064.29 147.555 Q2064.29 144.615 2062.34 143.018 Q2060.42 141.398 2056.93 141.398 Q2054.7 141.398 2052.6 141.93 Q2050.49 142.463 2048.55 143.527 L2048.55 139.592 Q2050.88 138.69 2053.08 138.25 Q2055.28 137.787 2057.36 137.787 Q2062.99 137.787 2065.77 140.703 Q2068.55 143.62 2068.55 149.546 Z" fill="#000000" fill-rule="nonzero" fill-opacity="1" /><path clip-path="url(#clip340)" d="M2092.34 142.393 Q2091.62 141.977 2090.77 141.791 Q2089.93 141.583 2088.92 141.583 Q2085.3 141.583 2083.36 143.944 Q2081.44 146.282 2081.44 150.68 L2081.44 164.338 L2077.16 164.338 L2077.16 138.412 L2081.44 138.412 L2081.44 142.44 Q2082.78 140.078 2084.93 138.944 Q2087.09 137.787 2090.17 137.787 Q2090.61 137.787 2091.14 137.856 Q2091.67 137.903 2092.32 138.018 L2092.34 142.393 Z" fill="#000000" fill-rule="nonzero" fill-opacity="1" /><path clip-path="url(#clip340)" d="M2101.02 131.051 L2101.02 138.412 L2109.8 138.412 L2109.8 141.722 L2101.02 141.722 L2101.02 155.796 Q2101.02 158.967 2101.88 159.87 Q2102.76 160.773 2105.42 160.773 L2109.8 160.773 L2109.8 164.338 L2105.42 164.338 Q2100.49 164.338 2098.61 162.509 Q2096.74 160.657 2096.74 155.796 L2096.74 141.722 L2093.61 141.722 L2093.61 138.412 L2096.74 138.412 L2096.74 131.051 L2101.02 131.051 Z" fill="#000000" fill-rule="nonzero" fill-opacity="1" /><polyline clip-path="url(#clip340)" style="stroke:#e26f46; stroke-linecap:round; stroke-linejoin:round; stroke-width:4; stroke-opacity:1; fill:none" points="1747.47,198.898 1889.44,198.898 "/>
<path clip-path="url(#clip340)" d="M1913.11 190.252 L1917.37 190.252 L1917.37 216.178 L1913.11 216.178 L1913.11 190.252 M1913.11 180.159 L1917.37 180.159 L1917.37 185.553 L1913.11 185.553 L1913.11 180.159 Z" fill="#000000" fill-rule="nonzero" fill-opacity="1" /><path clip-path="url(#clip340)" d="M1946.46 195.229 Q1948.06 192.358 1950.28 190.993 Q1952.5 189.627 1955.51 189.627 Q1959.56 189.627 1961.76 192.474 Q1963.96 195.298 1963.96 200.529 L1963.96 216.178 L1959.68 216.178 L1959.68 200.668 Q1959.68 196.942 1958.36 195.136 Q1957.04 193.33 1954.33 193.33 Q1951.02 193.33 1949.1 195.53 Q1947.18 197.729 1947.18 201.525 L1947.18 216.178 L1942.9 216.178 L1942.9 200.668 Q1942.9 196.918 1941.58 195.136 Q1940.26 193.33 1937.5 193.33 Q1934.24 193.33 1932.32 195.553 Q1930.4 197.752 1930.4 201.525 L1930.4 216.178 L1926.12 216.178 L1926.12 190.252 L1930.4 190.252 L1930.4 194.28 Q1931.86 191.895 1933.89 190.761 Q1935.93 189.627 1938.73 189.627 Q1941.56 189.627 1943.52 191.062 Q1945.51 192.497 1946.46 195.229 Z" fill="#000000" fill-rule="nonzero" fill-opacity="1" /><path clip-path="url(#clip340)" d="M1984.24 203.145 Q1979.08 203.145 1977.09 204.326 Q1975.1 205.506 1975.1 208.354 Q1975.1 210.622 1976.58 211.965 Q1978.08 213.284 1980.65 213.284 Q1984.19 213.284 1986.32 210.784 Q1988.48 208.261 1988.48 204.094 L1988.48 203.145 L1984.24 203.145 M1992.74 201.386 L1992.74 216.178 L1988.48 216.178 L1988.48 212.242 Q1987.02 214.603 1984.84 215.738 Q1982.67 216.849 1979.52 216.849 Q1975.54 216.849 1973.18 214.627 Q1970.84 212.381 1970.84 208.631 Q1970.84 204.256 1973.75 202.034 Q1976.69 199.812 1982.5 199.812 L1988.48 199.812 L1988.48 199.395 Q1988.48 196.455 1986.53 194.858 Q1984.61 193.238 1981.12 193.238 Q1978.89 193.238 1976.79 193.77 Q1974.68 194.303 1972.74 195.367 L1972.74 191.432 Q1975.07 190.53 1977.27 190.09 Q1979.47 189.627 1981.56 189.627 Q1987.18 189.627 1989.96 192.543 Q1992.74 195.46 1992.74 201.386 Z" fill="#000000" fill-rule="nonzero" fill-opacity="1" /><path clip-path="url(#clip340)" d="M2018.57 202.914 Q2018.57 198.284 2016.65 195.738 Q2014.75 193.192 2011.3 193.192 Q2007.87 193.192 2005.95 195.738 Q2004.06 198.284 2004.06 202.914 Q2004.06 207.52 2005.95 210.066 Q2007.87 212.613 2011.3 212.613 Q2014.75 212.613 2016.65 210.066 Q2018.57 207.52 2018.57 202.914 M2022.83 212.96 Q2022.83 219.58 2019.89 222.798 Q2016.95 226.039 2010.88 226.039 Q2008.64 226.039 2006.65 225.691 Q2004.66 225.367 2002.78 224.673 L2002.78 220.529 Q2004.66 221.548 2006.49 222.034 Q2008.31 222.52 2010.21 222.52 Q2014.4 222.52 2016.49 220.321 Q2018.57 218.145 2018.57 213.724 L2018.57 211.617 Q2017.25 213.909 2015.19 215.043 Q2013.13 216.178 2010.26 216.178 Q2005.49 216.178 2002.57 212.543 Q1999.66 208.909 1999.66 202.914 Q1999.66 196.895 2002.57 193.261 Q2005.49 189.627 2010.26 189.627 Q2013.13 189.627 2015.19 190.761 Q2017.25 191.895 2018.57 194.187 L2018.57 190.252 L2022.83 190.252 L2022.83 212.96 Z" fill="#000000" fill-rule="nonzero" fill-opacity="1" /><path clip-path="url(#clip340)" d="M2031.6 190.252 L2035.86 190.252 L2035.86 216.178 L2031.6 216.178 L2031.6 190.252 M2031.6 180.159 L2035.86 180.159 L2035.86 185.553 L2031.6 185.553 L2031.6 180.159 Z" fill="#000000" fill-rule="nonzero" fill-opacity="1" /><path clip-path="url(#clip340)" d="M2066.32 200.529 L2066.32 216.178 L2062.06 216.178 L2062.06 200.668 Q2062.06 196.988 2060.63 195.159 Q2059.19 193.33 2056.32 193.33 Q2052.87 193.33 2050.88 195.53 Q2048.89 197.729 2048.89 201.525 L2048.89 216.178 L2044.61 216.178 L2044.61 190.252 L2048.89 190.252 L2048.89 194.28 Q2050.42 191.942 2052.48 190.784 Q2054.56 189.627 2057.27 189.627 Q2061.74 189.627 2064.03 192.405 Q2066.32 195.159 2066.32 200.529 Z" fill="#000000" fill-rule="nonzero" fill-opacity="1" /><path clip-path="url(#clip340)" d="M2086.6 203.145 Q2081.44 203.145 2079.45 204.326 Q2077.46 205.506 2077.46 208.354 Q2077.46 210.622 2078.94 211.965 Q2080.44 213.284 2083.01 213.284 Q2086.55 213.284 2088.68 210.784 Q2090.84 208.261 2090.84 204.094 L2090.84 203.145 L2086.6 203.145 M2095.1 201.386 L2095.1 216.178 L2090.84 216.178 L2090.84 212.242 Q2089.38 214.603 2087.2 215.738 Q2085.03 216.849 2081.88 216.849 Q2077.9 216.849 2075.54 214.627 Q2073.2 212.381 2073.2 208.631 Q2073.2 204.256 2076.11 202.034 Q2079.05 199.812 2084.86 199.812 L2090.84 199.812 L2090.84 199.395 Q2090.84 196.455 2088.89 194.858 Q2086.97 193.238 2083.48 193.238 Q2081.25 193.238 2079.15 193.77 Q2077.04 194.303 2075.1 195.367 L2075.1 191.432 Q2077.43 190.53 2079.63 190.09 Q2081.83 189.627 2083.92 189.627 Q2089.54 189.627 2092.32 192.543 Q2095.1 195.46 2095.1 201.386 Z" fill="#000000" fill-rule="nonzero" fill-opacity="1" /><path clip-path="url(#clip340)" d="M2118.89 194.233 Q2118.17 193.817 2117.32 193.631 Q2116.49 193.423 2115.47 193.423 Q2111.86 193.423 2109.91 195.784 Q2107.99 198.122 2107.99 202.52 L2107.99 216.178 L2103.71 216.178 L2103.71 190.252 L2107.99 190.252 L2107.99 194.28 Q2109.33 191.918 2111.49 190.784 Q2113.64 189.627 2116.72 189.627 Q2117.16 189.627 2117.69 189.696 Q2118.22 189.743 2118.87 189.858 L2118.89 194.233 Z" fill="#000000" fill-rule="nonzero" fill-opacity="1" /><path clip-path="url(#clip340)" d="M2134.15 218.585 Q2132.34 223.215 2130.63 224.627 Q2128.92 226.039 2126.05 226.039 L2122.64 226.039 L2122.64 222.474 L2125.14 222.474 Q2126.9 222.474 2127.87 221.64 Q2128.85 220.807 2130.03 217.705 L2130.79 215.761 L2120.3 190.252 L2124.82 190.252 L2132.92 210.529 L2141.02 190.252 L2145.54 190.252 L2134.15 218.585 Z" fill="#000000" fill-rule="nonzero" fill-opacity="1" /><path clip-path="url(#clip340)" d="M2170.61 212.289 L2170.61 226.039 L2166.32 226.039 L2166.32 190.252 L2170.61 190.252 L2170.61 194.187 Q2171.95 191.872 2173.98 190.761 Q2176.04 189.627 2178.89 189.627 Q2183.61 189.627 2186.55 193.377 Q2189.52 197.127 2189.52 203.238 Q2189.52 209.349 2186.55 213.099 Q2183.61 216.849 2178.89 216.849 Q2176.04 216.849 2173.98 215.738 Q2171.95 214.603 2170.61 212.289 M2185.1 203.238 Q2185.1 198.539 2183.15 195.877 Q2181.23 193.192 2177.85 193.192 Q2174.47 193.192 2172.53 195.877 Q2170.61 198.539 2170.61 203.238 Q2170.61 207.937 2172.53 210.622 Q2174.47 213.284 2177.85 213.284 Q2181.23 213.284 2183.15 210.622 Q2185.1 207.937 2185.1 203.238 Z" fill="#000000" fill-rule="nonzero" fill-opacity="1" /><path clip-path="url(#clip340)" d="M2208.36 203.145 Q2203.2 203.145 2201.21 204.326 Q2199.22 205.506 2199.22 208.354 Q2199.22 210.622 2200.7 211.965 Q2202.2 213.284 2204.77 213.284 Q2208.31 213.284 2210.44 210.784 Q2212.6 208.261 2212.6 204.094 L2212.6 203.145 L2208.36 203.145 M2216.85 201.386 L2216.85 216.178 L2212.6 216.178 L2212.6 212.242 Q2211.14 214.603 2208.96 215.738 Q2206.79 216.849 2203.64 216.849 Q2199.66 216.849 2197.29 214.627 Q2194.96 212.381 2194.96 208.631 Q2194.96 204.256 2197.87 202.034 Q2200.81 199.812 2206.62 199.812 L2212.6 199.812 L2212.6 199.395 Q2212.6 196.455 2210.65 194.858 Q2208.73 193.238 2205.23 193.238 Q2203.01 193.238 2200.91 193.77 Q2198.8 194.303 2196.85 195.367 L2196.85 191.432 Q2199.19 190.53 2201.39 190.09 Q2203.59 189.627 2205.67 189.627 Q2211.3 189.627 2214.08 192.543 Q2216.85 195.46 2216.85 201.386 Z" fill="#000000" fill-rule="nonzero" fill-opacity="1" /><path clip-path="url(#clip340)" d="M2240.65 194.233 Q2239.93 193.817 2239.08 193.631 Q2238.24 193.423 2237.23 193.423 Q2233.61 193.423 2231.67 195.784 Q2229.75 198.122 2229.75 202.52 L2229.75 216.178 L2225.47 216.178 L2225.47 190.252 L2229.75 190.252 L2229.75 194.28 Q2231.09 191.918 2233.24 190.784 Q2235.4 189.627 2238.48 189.627 Q2238.91 189.627 2239.45 189.696 Q2239.98 189.743 2240.63 189.858 L2240.65 194.233 Z" fill="#000000" fill-rule="nonzero" fill-opacity="1" /><path clip-path="url(#clip340)" d="M2249.33 182.891 L2249.33 190.252 L2258.1 190.252 L2258.1 193.562 L2249.33 193.562 L2249.33 207.636 Q2249.33 210.807 2250.19 211.71 Q2251.07 212.613 2253.73 212.613 L2258.1 212.613 L2258.1 216.178 L2253.73 216.178 Q2248.8 216.178 2246.92 214.349 Q2245.05 212.497 2245.05 207.636 L2245.05 193.562 L2241.92 193.562 L2241.92 190.252 L2245.05 190.252 L2245.05 182.891 L2249.33 182.891 Z" fill="#000000" fill-rule="nonzero" fill-opacity="1" /></svg>
