<?xml version="1.0" encoding="utf-8"?>
<svg xmlns="http://www.w3.org/2000/svg" xmlns:xlink="http://www.w3.org/1999/xlink" width="600" height="400" viewBox="0 0 2400 1600">
<defs>
  <clipPath id="clip920">
    <rect x="0" y="0" width="2400" height="1600"/>
  </clipPath>
</defs>
<path clip-path="url(#clip920)" d="M0 1600 L2400 1600 L2400 0 L0 0  Z" fill="#ffffff" fill-rule="evenodd" fill-opacity="1"/>
<defs>
  <clipPath id="clip921">
    <rect x="279" y="47" width="2074" height="1377"/>
  </clipPath>
</defs>
<path clip-path="url(#clip920)" d="M279.704 1423.18 L2352.76 1423.18 L2352.76 47.2441 L279.704 47.2441  Z" fill="#ffffff" fill-rule="evenodd" fill-opacity="1"/>
<polyline clip-path="url(#clip921)" style="stroke:#000000; stroke-linecap:round; stroke-linejoin:round; stroke-width:2; stroke-opacity:0.1; fill:none" points="338.375,1423.18 338.375,47.2441 "/>
<polyline clip-path="url(#clip921)" style="stroke:#000000; stroke-linecap:round; stroke-linejoin:round; stroke-width:2; stroke-opacity:0.1; fill:none" points="750.103,1423.18 750.103,47.2441 "/>
<polyline clip-path="url(#clip921)" style="stroke:#000000; stroke-linecap:round; stroke-linejoin:round; stroke-width:2; stroke-opacity:0.1; fill:none" points="1161.83,1423.18 1161.83,47.2441 "/>
<polyline clip-path="url(#clip921)" style="stroke:#000000; stroke-linecap:round; stroke-linejoin:round; stroke-width:2; stroke-opacity:0.1; fill:none" points="1573.56,1423.18 1573.56,47.2441 "/>
<polyline clip-path="url(#clip921)" style="stroke:#000000; stroke-linecap:round; stroke-linejoin:round; stroke-width:2; stroke-opacity:0.1; fill:none" points="1985.29,1423.18 1985.29,47.2441 "/>
<polyline clip-path="url(#clip921)" style="stroke:#000000; stroke-linecap:round; stroke-linejoin:round; stroke-width:2; stroke-opacity:0.1; fill:none" points="279.704,1370.5 2352.76,1370.5 "/>
<polyline clip-path="url(#clip921)" style="stroke:#000000; stroke-linecap:round; stroke-linejoin:round; stroke-width:2; stroke-opacity:0.1; fill:none" points="279.704,1162.9 2352.76,1162.9 "/>
<polyline clip-path="url(#clip921)" style="stroke:#000000; stroke-linecap:round; stroke-linejoin:round; stroke-width:2; stroke-opacity:0.1; fill:none" points="279.704,955.29 2352.76,955.29 "/>
<polyline clip-path="url(#clip921)" style="stroke:#000000; stroke-linecap:round; stroke-linejoin:round; stroke-width:2; stroke-opacity:0.1; fill:none" points="279.704,747.685 2352.76,747.685 "/>
<polyline clip-path="url(#clip921)" style="stroke:#000000; stroke-linecap:round; stroke-linejoin:round; stroke-width:2; stroke-opacity:0.1; fill:none" points="279.704,540.079 2352.76,540.079 "/>
<polyline clip-path="url(#clip921)" style="stroke:#000000; stroke-linecap:round; stroke-linejoin:round; stroke-width:2; stroke-opacity:0.1; fill:none" points="279.704,332.474 2352.76,332.474 "/>
<polyline clip-path="url(#clip921)" style="stroke:#000000; stroke-linecap:round; stroke-linejoin:round; stroke-width:2; stroke-opacity:0.1; fill:none" points="279.704,124.869 2352.76,124.869 "/>
<polyline clip-path="url(#clip920)" style="stroke:#000000; stroke-linecap:round; stroke-linejoin:round; stroke-width:4; stroke-opacity:1; fill:none" points="279.704,1423.18 2352.76,1423.18 "/>
<polyline clip-path="url(#clip920)" style="stroke:#000000; stroke-linecap:round; stroke-linejoin:round; stroke-width:4; stroke-opacity:1; fill:none" points="338.375,1423.18 338.375,1404.28 "/>
<polyline clip-path="url(#clip920)" style="stroke:#000000; stroke-linecap:round; stroke-linejoin:round; stroke-width:4; stroke-opacity:1; fill:none" points="750.103,1423.18 750.103,1404.28 "/>
<polyline clip-path="url(#clip920)" style="stroke:#000000; stroke-linecap:round; stroke-linejoin:round; stroke-width:4; stroke-opacity:1; fill:none" points="1161.83,1423.18 1161.83,1404.28 "/>
<polyline clip-path="url(#clip920)" style="stroke:#000000; stroke-linecap:round; stroke-linejoin:round; stroke-width:4; stroke-opacity:1; fill:none" points="1573.56,1423.18 1573.56,1404.28 "/>
<polyline clip-path="url(#clip920)" style="stroke:#000000; stroke-linecap:round; stroke-linejoin:round; stroke-width:4; stroke-opacity:1; fill:none" points="1985.29,1423.18 1985.29,1404.28 "/>
<path clip-path="url(#clip920)" d="M315.76 1454.1 Q312.148 1454.1 310.32 1457.66 Q308.514 1461.2 308.514 1468.33 Q308.514 1475.44 310.32 1479.01 Q312.148 1482.55 315.76 1482.55 Q319.394 1482.55 321.199 1479.01 Q323.028 1475.44 323.028 1468.33 Q323.028 1461.2 321.199 1457.66 Q319.394 1454.1 315.76 1454.1 M315.76 1450.39 Q321.57 1450.39 324.625 1455 Q327.704 1459.58 327.704 1468.33 Q327.704 1477.06 324.625 1481.67 Q321.57 1486.25 315.76 1486.25 Q309.949 1486.25 306.871 1481.67 Q303.815 1477.06 303.815 1468.33 Q303.815 1459.58 306.871 1455 Q309.949 1450.39 315.76 1450.39 Z" fill="#000000" fill-rule="nonzero" fill-opacity="1" /><path clip-path="url(#clip920)" d="M335.922 1479.7 L340.806 1479.7 L340.806 1485.58 L335.922 1485.58 L335.922 1479.7 Z" fill="#000000" fill-rule="nonzero" fill-opacity="1" /><path clip-path="url(#clip920)" d="M360.991 1454.1 Q357.38 1454.1 355.551 1457.66 Q353.745 1461.2 353.745 1468.33 Q353.745 1475.44 355.551 1479.01 Q357.38 1482.55 360.991 1482.55 Q364.625 1482.55 366.431 1479.01 Q368.259 1475.44 368.259 1468.33 Q368.259 1461.2 366.431 1457.66 Q364.625 1454.1 360.991 1454.1 M360.991 1450.39 Q366.801 1450.39 369.857 1455 Q372.935 1459.58 372.935 1468.33 Q372.935 1477.06 369.857 1481.67 Q366.801 1486.25 360.991 1486.25 Q355.181 1486.25 352.102 1481.67 Q349.046 1477.06 349.046 1468.33 Q349.046 1459.58 352.102 1455 Q355.181 1450.39 360.991 1450.39 Z" fill="#000000" fill-rule="nonzero" fill-opacity="1" /><path clip-path="url(#clip920)" d="M728.286 1454.1 Q724.675 1454.1 722.847 1457.66 Q721.041 1461.2 721.041 1468.33 Q721.041 1475.44 722.847 1479.01 Q724.675 1482.55 728.286 1482.55 Q731.921 1482.55 733.726 1479.01 Q735.555 1475.44 735.555 1468.33 Q735.555 1461.2 733.726 1457.66 Q731.921 1454.1 728.286 1454.1 M728.286 1450.39 Q734.097 1450.39 737.152 1455 Q740.231 1459.58 740.231 1468.33 Q740.231 1477.06 737.152 1481.67 Q734.097 1486.25 728.286 1486.25 Q722.476 1486.25 719.398 1481.67 Q716.342 1477.06 716.342 1468.33 Q716.342 1459.58 719.398 1455 Q722.476 1450.39 728.286 1450.39 Z" fill="#000000" fill-rule="nonzero" fill-opacity="1" /><path clip-path="url(#clip920)" d="M748.448 1479.7 L753.333 1479.7 L753.333 1485.58 L748.448 1485.58 L748.448 1479.7 Z" fill="#000000" fill-rule="nonzero" fill-opacity="1" /><path clip-path="url(#clip920)" d="M767.546 1481.64 L783.865 1481.64 L783.865 1485.58 L761.921 1485.58 L761.921 1481.64 Q764.583 1478.89 769.166 1474.26 Q773.772 1469.61 774.953 1468.27 Q777.198 1465.74 778.078 1464.01 Q778.981 1462.25 778.981 1460.56 Q778.981 1457.8 777.036 1456.07 Q775.115 1454.33 772.013 1454.33 Q769.814 1454.33 767.36 1455.09 Q764.93 1455.86 762.152 1457.41 L762.152 1452.69 Q764.976 1451.55 767.43 1450.97 Q769.883 1450.39 771.921 1450.39 Q777.291 1450.39 780.485 1453.08 Q783.68 1455.77 783.68 1460.26 Q783.68 1462.39 782.87 1464.31 Q782.082 1466.2 779.976 1468.8 Q779.397 1469.47 776.295 1472.69 Q773.194 1475.88 767.546 1481.64 Z" fill="#000000" fill-rule="nonzero" fill-opacity="1" /><path clip-path="url(#clip920)" d="M1138.97 1454.1 Q1135.36 1454.1 1133.53 1457.66 Q1131.73 1461.2 1131.73 1468.33 Q1131.73 1475.44 1133.53 1479.01 Q1135.36 1482.55 1138.97 1482.55 Q1142.61 1482.55 1144.41 1479.01 Q1146.24 1475.44 1146.24 1468.33 Q1146.24 1461.2 1144.41 1457.66 Q1142.61 1454.1 1138.97 1454.1 M1138.97 1450.39 Q1144.78 1450.39 1147.84 1455 Q1150.92 1459.58 1150.92 1468.33 Q1150.92 1477.06 1147.84 1481.67 Q1144.78 1486.25 1138.97 1486.25 Q1133.16 1486.25 1130.08 1481.67 Q1127.03 1477.06 1127.03 1468.33 Q1127.03 1459.58 1130.08 1455 Q1133.16 1450.39 1138.97 1450.39 Z" fill="#000000" fill-rule="nonzero" fill-opacity="1" /><path clip-path="url(#clip920)" d="M1159.14 1479.7 L1164.02 1479.7 L1164.02 1485.58 L1159.14 1485.58 L1159.14 1479.7 Z" fill="#000000" fill-rule="nonzero" fill-opacity="1" /><path clip-path="url(#clip920)" d="M1187.05 1455.09 L1175.25 1473.54 L1187.05 1473.54 L1187.05 1455.09 M1185.82 1451.02 L1191.7 1451.02 L1191.7 1473.54 L1196.63 1473.54 L1196.63 1477.43 L1191.7 1477.43 L1191.7 1485.58 L1187.05 1485.58 L1187.05 1477.43 L1171.45 1477.43 L1171.45 1472.92 L1185.82 1451.02 Z" fill="#000000" fill-rule="nonzero" fill-opacity="1" /><path clip-path="url(#clip920)" d="M1550.86 1454.1 Q1547.25 1454.1 1545.42 1457.66 Q1543.62 1461.2 1543.62 1468.33 Q1543.62 1475.44 1545.42 1479.01 Q1547.25 1482.55 1550.86 1482.55 Q1554.5 1482.55 1556.3 1479.01 Q1558.13 1475.44 1558.13 1468.33 Q1558.13 1461.2 1556.3 1457.66 Q1554.5 1454.1 1550.86 1454.1 M1550.86 1450.39 Q1556.67 1450.39 1559.73 1455 Q1562.81 1459.58 1562.81 1468.33 Q1562.81 1477.06 1559.73 1481.67 Q1556.67 1486.25 1550.86 1486.25 Q1545.05 1486.25 1541.97 1481.67 Q1538.92 1477.06 1538.92 1468.33 Q1538.92 1459.58 1541.97 1455 Q1545.05 1450.39 1550.86 1450.39 Z" fill="#000000" fill-rule="nonzero" fill-opacity="1" /><path clip-path="url(#clip920)" d="M1571.03 1479.7 L1575.91 1479.7 L1575.91 1485.58 L1571.03 1485.58 L1571.03 1479.7 Z" fill="#000000" fill-rule="nonzero" fill-opacity="1" /><path clip-path="url(#clip920)" d="M1596.67 1466.44 Q1593.53 1466.44 1591.67 1468.59 Q1589.84 1470.74 1589.84 1474.49 Q1589.84 1478.22 1591.67 1480.39 Q1593.53 1482.55 1596.67 1482.55 Q1599.82 1482.55 1601.65 1480.39 Q1603.5 1478.22 1603.5 1474.49 Q1603.5 1470.74 1601.65 1468.59 Q1599.82 1466.44 1596.67 1466.44 M1605.96 1451.78 L1605.96 1456.04 Q1604.2 1455.21 1602.39 1454.77 Q1600.61 1454.33 1598.85 1454.33 Q1594.22 1454.33 1591.77 1457.45 Q1589.34 1460.58 1588.99 1466.9 Q1590.35 1464.89 1592.41 1463.82 Q1594.47 1462.73 1596.95 1462.73 Q1602.16 1462.73 1605.17 1465.9 Q1608.2 1469.05 1608.2 1474.49 Q1608.2 1479.82 1605.05 1483.03 Q1601.9 1486.25 1596.67 1486.25 Q1590.68 1486.25 1587.51 1481.67 Q1584.34 1477.06 1584.34 1468.33 Q1584.34 1460.14 1588.22 1455.28 Q1592.11 1450.39 1598.66 1450.39 Q1600.42 1450.39 1602.21 1450.74 Q1604.01 1451.09 1605.96 1451.78 Z" fill="#000000" fill-rule="nonzero" fill-opacity="1" /><path clip-path="url(#clip920)" d="M1962.72 1454.1 Q1959.11 1454.1 1957.28 1457.66 Q1955.47 1461.2 1955.47 1468.33 Q1955.47 1475.44 1957.28 1479.01 Q1959.11 1482.55 1962.72 1482.55 Q1966.35 1482.55 1968.16 1479.01 Q1969.99 1475.44 1969.99 1468.33 Q1969.99 1461.2 1968.16 1457.66 Q1966.35 1454.1 1962.72 1454.1 M1962.72 1450.39 Q1968.53 1450.39 1971.58 1455 Q1974.66 1459.58 1974.66 1468.33 Q1974.66 1477.06 1971.58 1481.67 Q1968.53 1486.25 1962.72 1486.25 Q1956.91 1486.25 1953.83 1481.67 Q1950.77 1477.06 1950.77 1468.33 Q1950.77 1459.58 1953.83 1455 Q1956.91 1450.39 1962.72 1450.39 Z" fill="#000000" fill-rule="nonzero" fill-opacity="1" /><path clip-path="url(#clip920)" d="M1982.88 1479.7 L1987.77 1479.7 L1987.77 1485.58 L1982.88 1485.58 L1982.88 1479.7 Z" fill="#000000" fill-rule="nonzero" fill-opacity="1" /><path clip-path="url(#clip920)" d="M2007.95 1469.17 Q2004.62 1469.17 2002.7 1470.95 Q2000.8 1472.73 2000.8 1475.86 Q2000.8 1478.98 2002.7 1480.77 Q2004.62 1482.55 2007.95 1482.55 Q2011.28 1482.55 2013.2 1480.77 Q2015.13 1478.96 2015.13 1475.86 Q2015.13 1472.73 2013.2 1470.95 Q2011.31 1469.17 2007.95 1469.17 M2003.27 1467.18 Q2000.27 1466.44 1998.58 1464.38 Q1996.91 1462.32 1996.91 1459.35 Q1996.91 1455.21 1999.85 1452.8 Q2002.81 1450.39 2007.95 1450.39 Q2013.11 1450.39 2016.05 1452.8 Q2018.99 1455.21 2018.99 1459.35 Q2018.99 1462.32 2017.3 1464.38 Q2015.64 1466.44 2012.65 1467.18 Q2016.03 1467.96 2017.9 1470.26 Q2019.8 1472.55 2019.8 1475.86 Q2019.8 1480.88 2016.72 1483.57 Q2013.67 1486.25 2007.95 1486.25 Q2002.23 1486.25 1999.15 1483.57 Q1996.1 1480.88 1996.1 1475.86 Q1996.1 1472.55 1998 1470.26 Q1999.89 1467.96 2003.27 1467.18 M2001.56 1459.79 Q2001.56 1462.48 2003.23 1463.98 Q2004.92 1465.49 2007.95 1465.49 Q2010.96 1465.49 2012.65 1463.98 Q2014.36 1462.48 2014.36 1459.79 Q2014.36 1457.11 2012.65 1455.6 Q2010.96 1454.1 2007.95 1454.1 Q2004.92 1454.1 2003.23 1455.6 Q2001.56 1457.11 2001.56 1459.79 Z" fill="#000000" fill-rule="nonzero" fill-opacity="1" /><path clip-path="url(#clip920)" d="M1332.84 1532.4 L1319.95 1549.74 L1333.51 1568.04 L1326.61 1568.04 L1316.23 1554.04 L1305.85 1568.04 L1298.95 1568.04 L1312.79 1549.39 L1300.12 1532.4 L1307.03 1532.4 L1316.48 1545.1 L1325.94 1532.4 L1332.84 1532.4 Z" fill="#000000" fill-rule="nonzero" fill-opacity="1" /><polyline clip-path="url(#clip920)" style="stroke:#000000; stroke-linecap:round; stroke-linejoin:round; stroke-width:4; stroke-opacity:1; fill:none" points="279.704,1423.18 279.704,47.2441 "/>
<polyline clip-path="url(#clip920)" style="stroke:#000000; stroke-linecap:round; stroke-linejoin:round; stroke-width:4; stroke-opacity:1; fill:none" points="279.704,1370.5 298.602,1370.5 "/>
<polyline clip-path="url(#clip920)" style="stroke:#000000; stroke-linecap:round; stroke-linejoin:round; stroke-width:4; stroke-opacity:1; fill:none" points="279.704,1162.9 298.602,1162.9 "/>
<polyline clip-path="url(#clip920)" style="stroke:#000000; stroke-linecap:round; stroke-linejoin:round; stroke-width:4; stroke-opacity:1; fill:none" points="279.704,955.29 298.602,955.29 "/>
<polyline clip-path="url(#clip920)" style="stroke:#000000; stroke-linecap:round; stroke-linejoin:round; stroke-width:4; stroke-opacity:1; fill:none" points="279.704,747.685 298.602,747.685 "/>
<polyline clip-path="url(#clip920)" style="stroke:#000000; stroke-linecap:round; stroke-linejoin:round; stroke-width:4; stroke-opacity:1; fill:none" points="279.704,540.079 298.602,540.079 "/>
<polyline clip-path="url(#clip920)" style="stroke:#000000; stroke-linecap:round; stroke-linejoin:round; stroke-width:4; stroke-opacity:1; fill:none" points="279.704,332.474 298.602,332.474 "/>
<polyline clip-path="url(#clip920)" style="stroke:#000000; stroke-linecap:round; stroke-linejoin:round; stroke-width:4; stroke-opacity:1; fill:none" points="279.704,124.869 298.602,124.869 "/>
<path clip-path="url(#clip920)" d="M127.2 1356.3 Q123.589 1356.3 121.76 1359.86 Q119.955 1363.41 119.955 1370.54 Q119.955 1377.64 121.76 1381.21 Q123.589 1384.75 127.2 1384.75 Q130.834 1384.75 132.64 1381.21 Q134.468 1377.64 134.468 1370.54 Q134.468 1363.41 132.64 1359.86 Q130.834 1356.3 127.2 1356.3 M127.2 1352.6 Q133.01 1352.6 136.066 1357.2 Q139.144 1361.79 139.144 1370.54 Q139.144 1379.26 136.066 1383.87 Q133.01 1388.45 127.2 1388.45 Q121.39 1388.45 118.311 1383.87 Q115.256 1379.26 115.256 1370.54 Q115.256 1361.79 118.311 1357.2 Q121.39 1352.6 127.2 1352.6 Z" fill="#000000" fill-rule="nonzero" fill-opacity="1" /><path clip-path="url(#clip920)" d="M147.362 1381.9 L152.246 1381.9 L152.246 1387.78 L147.362 1387.78 L147.362 1381.9 Z" fill="#000000" fill-rule="nonzero" fill-opacity="1" /><path clip-path="url(#clip920)" d="M172.431 1356.3 Q168.82 1356.3 166.991 1359.86 Q165.186 1363.41 165.186 1370.54 Q165.186 1377.64 166.991 1381.21 Q168.82 1384.75 172.431 1384.75 Q176.065 1384.75 177.871 1381.21 Q179.7 1377.64 179.7 1370.54 Q179.7 1363.41 177.871 1359.86 Q176.065 1356.3 172.431 1356.3 M172.431 1352.6 Q178.241 1352.6 181.297 1357.2 Q184.376 1361.79 184.376 1370.54 Q184.376 1379.26 181.297 1383.87 Q178.241 1388.45 172.431 1388.45 Q166.621 1388.45 163.542 1383.87 Q160.487 1379.26 160.487 1370.54 Q160.487 1361.79 163.542 1357.2 Q166.621 1352.6 172.431 1352.6 Z" fill="#000000" fill-rule="nonzero" fill-opacity="1" /><path clip-path="url(#clip920)" d="M192.639 1353.22 L210.996 1353.22 L210.996 1357.16 L196.922 1357.16 L196.922 1365.63 Q197.94 1365.28 198.959 1365.12 Q199.977 1364.93 200.996 1364.93 Q206.783 1364.93 210.162 1368.1 Q213.542 1371.28 213.542 1376.69 Q213.542 1382.27 210.07 1385.37 Q206.598 1388.45 200.278 1388.45 Q198.102 1388.45 195.834 1388.08 Q193.588 1387.71 191.181 1386.97 L191.181 1382.27 Q193.264 1383.41 195.487 1383.96 Q197.709 1384.52 200.186 1384.52 Q204.19 1384.52 206.528 1382.41 Q208.866 1380.3 208.866 1376.69 Q208.866 1373.08 206.528 1370.97 Q204.19 1368.87 200.186 1368.87 Q198.311 1368.87 196.436 1369.29 Q194.584 1369.7 192.639 1370.58 L192.639 1353.22 Z" fill="#000000" fill-rule="nonzero" fill-opacity="1" /><path clip-path="url(#clip920)" d="M222.801 1353.22 L241.158 1353.22 L241.158 1357.16 L227.084 1357.16 L227.084 1365.63 Q228.102 1365.28 229.121 1365.12 Q230.139 1364.93 231.158 1364.93 Q236.945 1364.93 240.324 1368.1 Q243.704 1371.28 243.704 1376.69 Q243.704 1382.27 240.232 1385.37 Q236.76 1388.45 230.44 1388.45 Q228.264 1388.45 225.996 1388.08 Q223.75 1387.71 221.343 1386.97 L221.343 1382.27 Q223.426 1383.41 225.648 1383.96 Q227.871 1384.52 230.347 1384.52 Q234.352 1384.52 236.69 1382.41 Q239.028 1380.3 239.028 1376.69 Q239.028 1373.08 236.69 1370.97 Q234.352 1368.87 230.347 1368.87 Q228.473 1368.87 226.598 1369.29 Q224.746 1369.7 222.801 1370.58 L222.801 1353.22 Z" fill="#000000" fill-rule="nonzero" fill-opacity="1" /><path clip-path="url(#clip920)" d="M126.205 1148.69 Q122.593 1148.69 120.765 1152.26 Q118.959 1155.8 118.959 1162.93 Q118.959 1170.04 120.765 1173.6 Q122.593 1177.14 126.205 1177.14 Q129.839 1177.14 131.644 1173.6 Q133.473 1170.04 133.473 1162.93 Q133.473 1155.8 131.644 1152.26 Q129.839 1148.69 126.205 1148.69 M126.205 1144.99 Q132.015 1144.99 135.07 1149.6 Q138.149 1154.18 138.149 1162.93 Q138.149 1171.66 135.07 1176.26 Q132.015 1180.85 126.205 1180.85 Q120.394 1180.85 117.316 1176.26 Q114.26 1171.66 114.26 1162.93 Q114.26 1154.18 117.316 1149.6 Q120.394 1144.99 126.205 1144.99 Z" fill="#000000" fill-rule="nonzero" fill-opacity="1" /><path clip-path="url(#clip920)" d="M146.366 1174.3 L151.251 1174.3 L151.251 1180.18 L146.366 1180.18 L146.366 1174.3 Z" fill="#000000" fill-rule="nonzero" fill-opacity="1" /><path clip-path="url(#clip920)" d="M171.436 1148.69 Q167.825 1148.69 165.996 1152.26 Q164.19 1155.8 164.19 1162.93 Q164.19 1170.04 165.996 1173.6 Q167.825 1177.14 171.436 1177.14 Q175.07 1177.14 176.876 1173.6 Q178.704 1170.04 178.704 1162.93 Q178.704 1155.8 176.876 1152.26 Q175.07 1148.69 171.436 1148.69 M171.436 1144.99 Q177.246 1144.99 180.301 1149.6 Q183.38 1154.18 183.38 1162.93 Q183.38 1171.66 180.301 1176.26 Q177.246 1180.85 171.436 1180.85 Q165.626 1180.85 162.547 1176.26 Q159.491 1171.66 159.491 1162.93 Q159.491 1154.18 162.547 1149.6 Q165.626 1144.99 171.436 1144.99 Z" fill="#000000" fill-rule="nonzero" fill-opacity="1" /><path clip-path="url(#clip920)" d="M202.176 1161.03 Q199.028 1161.03 197.176 1163.18 Q195.348 1165.34 195.348 1169.09 Q195.348 1172.81 197.176 1174.99 Q199.028 1177.14 202.176 1177.14 Q205.324 1177.14 207.153 1174.99 Q209.005 1172.81 209.005 1169.09 Q209.005 1165.34 207.153 1163.18 Q205.324 1161.03 202.176 1161.03 M211.459 1146.38 L211.459 1150.64 Q209.699 1149.8 207.894 1149.37 Q206.112 1148.93 204.352 1148.93 Q199.723 1148.93 197.269 1152.05 Q194.838 1155.18 194.491 1161.49 Q195.857 1159.48 197.917 1158.42 Q199.977 1157.33 202.454 1157.33 Q207.662 1157.33 210.672 1160.5 Q213.704 1163.65 213.704 1169.09 Q213.704 1174.41 210.556 1177.63 Q207.408 1180.85 202.176 1180.85 Q196.181 1180.85 193.01 1176.26 Q189.838 1171.66 189.838 1162.93 Q189.838 1154.74 193.727 1149.87 Q197.616 1144.99 204.167 1144.99 Q205.926 1144.99 207.709 1145.34 Q209.514 1145.68 211.459 1146.38 Z" fill="#000000" fill-rule="nonzero" fill-opacity="1" /><path clip-path="url(#clip920)" d="M231.76 1148.69 Q228.148 1148.69 226.32 1152.26 Q224.514 1155.8 224.514 1162.93 Q224.514 1170.04 226.32 1173.6 Q228.148 1177.14 231.76 1177.14 Q235.394 1177.14 237.199 1173.6 Q239.028 1170.04 239.028 1162.93 Q239.028 1155.8 237.199 1152.26 Q235.394 1148.69 231.76 1148.69 M231.76 1144.99 Q237.57 1144.99 240.625 1149.6 Q243.704 1154.18 243.704 1162.93 Q243.704 1171.66 240.625 1176.26 Q237.57 1180.85 231.76 1180.85 Q225.949 1180.85 222.871 1176.26 Q219.815 1171.66 219.815 1162.93 Q219.815 1154.18 222.871 1149.6 Q225.949 1144.99 231.76 1144.99 Z" fill="#000000" fill-rule="nonzero" fill-opacity="1" /><path clip-path="url(#clip920)" d="M127.2 941.089 Q123.589 941.089 121.76 944.653 Q119.955 948.195 119.955 955.325 Q119.955 962.431 121.76 965.996 Q123.589 969.537 127.2 969.537 Q130.834 969.537 132.64 965.996 Q134.468 962.431 134.468 955.325 Q134.468 948.195 132.64 944.653 Q130.834 941.089 127.2 941.089 M127.2 937.385 Q133.01 937.385 136.066 941.991 Q139.144 946.575 139.144 955.325 Q139.144 964.051 136.066 968.658 Q133.01 973.241 127.2 973.241 Q121.39 973.241 118.311 968.658 Q115.256 964.051 115.256 955.325 Q115.256 946.575 118.311 941.991 Q121.39 937.385 127.2 937.385 Z" fill="#000000" fill-rule="nonzero" fill-opacity="1" /><path clip-path="url(#clip920)" d="M147.362 966.69 L152.246 966.69 L152.246 972.57 L147.362 972.57 L147.362 966.69 Z" fill="#000000" fill-rule="nonzero" fill-opacity="1" /><path clip-path="url(#clip920)" d="M172.431 941.089 Q168.82 941.089 166.991 944.653 Q165.186 948.195 165.186 955.325 Q165.186 962.431 166.991 965.996 Q168.82 969.537 172.431 969.537 Q176.065 969.537 177.871 965.996 Q179.7 962.431 179.7 955.325 Q179.7 948.195 177.871 944.653 Q176.065 941.089 172.431 941.089 M172.431 937.385 Q178.241 937.385 181.297 941.991 Q184.376 946.575 184.376 955.325 Q184.376 964.051 181.297 968.658 Q178.241 973.241 172.431 973.241 Q166.621 973.241 163.542 968.658 Q160.487 964.051 160.487 955.325 Q160.487 946.575 163.542 941.991 Q166.621 937.385 172.431 937.385 Z" fill="#000000" fill-rule="nonzero" fill-opacity="1" /><path clip-path="url(#clip920)" d="M203.172 953.426 Q200.024 953.426 198.172 955.579 Q196.343 957.732 196.343 961.482 Q196.343 965.209 198.172 967.385 Q200.024 969.537 203.172 969.537 Q206.32 969.537 208.149 967.385 Q210 965.209 210 961.482 Q210 957.732 208.149 955.579 Q206.32 953.426 203.172 953.426 M212.454 938.774 L212.454 943.033 Q210.695 942.2 208.889 941.76 Q207.107 941.32 205.348 941.32 Q200.718 941.32 198.264 944.445 Q195.834 947.57 195.487 953.889 Q196.852 951.876 198.912 950.811 Q200.973 949.723 203.449 949.723 Q208.658 949.723 211.667 952.894 Q214.699 956.042 214.699 961.482 Q214.699 966.806 211.551 970.024 Q208.403 973.241 203.172 973.241 Q197.176 973.241 194.005 968.658 Q190.834 964.051 190.834 955.325 Q190.834 947.13 194.723 942.269 Q198.612 937.385 205.162 937.385 Q206.922 937.385 208.704 937.732 Q210.51 938.079 212.454 938.774 Z" fill="#000000" fill-rule="nonzero" fill-opacity="1" /><path clip-path="url(#clip920)" d="M222.801 938.01 L241.158 938.01 L241.158 941.945 L227.084 941.945 L227.084 950.417 Q228.102 950.07 229.121 949.908 Q230.139 949.723 231.158 949.723 Q236.945 949.723 240.324 952.894 Q243.704 956.065 243.704 961.482 Q243.704 967.061 240.232 970.162 Q236.76 973.241 230.44 973.241 Q228.264 973.241 225.996 972.871 Q223.75 972.5 221.343 971.76 L221.343 967.061 Q223.426 968.195 225.648 968.75 Q227.871 969.306 230.347 969.306 Q234.352 969.306 236.69 967.2 Q239.028 965.093 239.028 961.482 Q239.028 957.871 236.69 955.764 Q234.352 953.658 230.347 953.658 Q228.473 953.658 226.598 954.075 Q224.746 954.491 222.801 955.371 L222.801 938.01 Z" fill="#000000" fill-rule="nonzero" fill-opacity="1" /><path clip-path="url(#clip920)" d="M126.205 733.483 Q122.593 733.483 120.765 737.048 Q118.959 740.59 118.959 747.719 Q118.959 754.826 120.765 758.391 Q122.593 761.932 126.205 761.932 Q129.839 761.932 131.644 758.391 Q133.473 754.826 133.473 747.719 Q133.473 740.59 131.644 737.048 Q129.839 733.483 126.205 733.483 M126.205 729.78 Q132.015 729.78 135.07 734.386 Q138.149 738.969 138.149 747.719 Q138.149 756.446 135.07 761.053 Q132.015 765.636 126.205 765.636 Q120.394 765.636 117.316 761.053 Q114.26 756.446 114.26 747.719 Q114.26 738.969 117.316 734.386 Q120.394 729.78 126.205 729.78 Z" fill="#000000" fill-rule="nonzero" fill-opacity="1" /><path clip-path="url(#clip920)" d="M146.366 759.085 L151.251 759.085 L151.251 764.965 L146.366 764.965 L146.366 759.085 Z" fill="#000000" fill-rule="nonzero" fill-opacity="1" /><path clip-path="url(#clip920)" d="M171.436 733.483 Q167.825 733.483 165.996 737.048 Q164.19 740.59 164.19 747.719 Q164.19 754.826 165.996 758.391 Q167.825 761.932 171.436 761.932 Q175.07 761.932 176.876 758.391 Q178.704 754.826 178.704 747.719 Q178.704 740.59 176.876 737.048 Q175.07 733.483 171.436 733.483 M171.436 729.78 Q177.246 729.78 180.301 734.386 Q183.38 738.969 183.38 747.719 Q183.38 756.446 180.301 761.053 Q177.246 765.636 171.436 765.636 Q165.626 765.636 162.547 761.053 Q159.491 756.446 159.491 747.719 Q159.491 738.969 162.547 734.386 Q165.626 729.78 171.436 729.78 Z" fill="#000000" fill-rule="nonzero" fill-opacity="1" /><path clip-path="url(#clip920)" d="M190.417 730.405 L212.639 730.405 L212.639 732.395 L200.093 764.965 L195.209 764.965 L207.014 734.34 L190.417 734.34 L190.417 730.405 Z" fill="#000000" fill-rule="nonzero" fill-opacity="1" /><path clip-path="url(#clip920)" d="M231.76 733.483 Q228.148 733.483 226.32 737.048 Q224.514 740.59 224.514 747.719 Q224.514 754.826 226.32 758.391 Q228.148 761.932 231.76 761.932 Q235.394 761.932 237.199 758.391 Q239.028 754.826 239.028 747.719 Q239.028 740.59 237.199 737.048 Q235.394 733.483 231.76 733.483 M231.76 729.78 Q237.57 729.78 240.625 734.386 Q243.704 738.969 243.704 747.719 Q243.704 756.446 240.625 761.053 Q237.57 765.636 231.76 765.636 Q225.949 765.636 222.871 761.053 Q219.815 756.446 219.815 747.719 Q219.815 738.969 222.871 734.386 Q225.949 729.78 231.76 729.78 Z" fill="#000000" fill-rule="nonzero" fill-opacity="1" /><path clip-path="url(#clip920)" d="M127.2 525.878 Q123.589 525.878 121.76 529.443 Q119.955 532.985 119.955 540.114 Q119.955 547.221 121.76 550.785 Q123.589 554.327 127.2 554.327 Q130.834 554.327 132.64 550.785 Q134.468 547.221 134.468 540.114 Q134.468 532.985 132.64 529.443 Q130.834 525.878 127.2 525.878 M127.2 522.174 Q133.01 522.174 136.066 526.781 Q139.144 531.364 139.144 540.114 Q139.144 548.841 136.066 553.447 Q133.01 558.031 127.2 558.031 Q121.39 558.031 118.311 553.447 Q115.256 548.841 115.256 540.114 Q115.256 531.364 118.311 526.781 Q121.39 522.174 127.2 522.174 Z" fill="#000000" fill-rule="nonzero" fill-opacity="1" /><path clip-path="url(#clip920)" d="M147.362 551.48 L152.246 551.48 L152.246 557.359 L147.362 557.359 L147.362 551.48 Z" fill="#000000" fill-rule="nonzero" fill-opacity="1" /><path clip-path="url(#clip920)" d="M172.431 525.878 Q168.82 525.878 166.991 529.443 Q165.186 532.985 165.186 540.114 Q165.186 547.221 166.991 550.785 Q168.82 554.327 172.431 554.327 Q176.065 554.327 177.871 550.785 Q179.7 547.221 179.7 540.114 Q179.7 532.985 177.871 529.443 Q176.065 525.878 172.431 525.878 M172.431 522.174 Q178.241 522.174 181.297 526.781 Q184.376 531.364 184.376 540.114 Q184.376 548.841 181.297 553.447 Q178.241 558.031 172.431 558.031 Q166.621 558.031 163.542 553.447 Q160.487 548.841 160.487 540.114 Q160.487 531.364 163.542 526.781 Q166.621 522.174 172.431 522.174 Z" fill="#000000" fill-rule="nonzero" fill-opacity="1" /><path clip-path="url(#clip920)" d="M191.413 522.799 L213.635 522.799 L213.635 524.79 L201.088 557.359 L196.204 557.359 L208.01 526.735 L191.413 526.735 L191.413 522.799 Z" fill="#000000" fill-rule="nonzero" fill-opacity="1" /><path clip-path="url(#clip920)" d="M222.801 522.799 L241.158 522.799 L241.158 526.735 L227.084 526.735 L227.084 535.207 Q228.102 534.86 229.121 534.697 Q230.139 534.512 231.158 534.512 Q236.945 534.512 240.324 537.684 Q243.704 540.855 243.704 546.271 Q243.704 551.85 240.232 554.952 Q236.76 558.031 230.44 558.031 Q228.264 558.031 225.996 557.66 Q223.75 557.29 221.343 556.549 L221.343 551.85 Q223.426 552.984 225.648 553.54 Q227.871 554.096 230.347 554.096 Q234.352 554.096 236.69 551.989 Q239.028 549.883 239.028 546.271 Q239.028 542.66 236.69 540.554 Q234.352 538.447 230.347 538.447 Q228.473 538.447 226.598 538.864 Q224.746 539.281 222.801 540.16 L222.801 522.799 Z" fill="#000000" fill-rule="nonzero" fill-opacity="1" /><path clip-path="url(#clip920)" d="M126.205 318.273 Q122.593 318.273 120.765 321.838 Q118.959 325.379 118.959 332.509 Q118.959 339.615 120.765 343.18 Q122.593 346.722 126.205 346.722 Q129.839 346.722 131.644 343.18 Q133.473 339.615 133.473 332.509 Q133.473 325.379 131.644 321.838 Q129.839 318.273 126.205 318.273 M126.205 314.569 Q132.015 314.569 135.07 319.176 Q138.149 323.759 138.149 332.509 Q138.149 341.236 135.07 345.842 Q132.015 350.425 126.205 350.425 Q120.394 350.425 117.316 345.842 Q114.26 341.236 114.26 332.509 Q114.26 323.759 117.316 319.176 Q120.394 314.569 126.205 314.569 Z" fill="#000000" fill-rule="nonzero" fill-opacity="1" /><path clip-path="url(#clip920)" d="M146.366 343.875 L151.251 343.875 L151.251 349.754 L146.366 349.754 L146.366 343.875 Z" fill="#000000" fill-rule="nonzero" fill-opacity="1" /><path clip-path="url(#clip920)" d="M171.436 318.273 Q167.825 318.273 165.996 321.838 Q164.19 325.379 164.19 332.509 Q164.19 339.615 165.996 343.18 Q167.825 346.722 171.436 346.722 Q175.07 346.722 176.876 343.18 Q178.704 339.615 178.704 332.509 Q178.704 325.379 176.876 321.838 Q175.07 318.273 171.436 318.273 M171.436 314.569 Q177.246 314.569 180.301 319.176 Q183.38 323.759 183.38 332.509 Q183.38 341.236 180.301 345.842 Q177.246 350.425 171.436 350.425 Q165.626 350.425 162.547 345.842 Q159.491 341.236 159.491 332.509 Q159.491 323.759 162.547 319.176 Q165.626 314.569 171.436 314.569 Z" fill="#000000" fill-rule="nonzero" fill-opacity="1" /><path clip-path="url(#clip920)" d="M201.598 333.342 Q198.264 333.342 196.343 335.125 Q194.445 336.907 194.445 340.032 Q194.445 343.157 196.343 344.939 Q198.264 346.722 201.598 346.722 Q204.931 346.722 206.852 344.939 Q208.774 343.134 208.774 340.032 Q208.774 336.907 206.852 335.125 Q204.954 333.342 201.598 333.342 M196.922 331.351 Q193.913 330.611 192.223 328.551 Q190.556 326.49 190.556 323.527 Q190.556 319.384 193.496 316.977 Q196.459 314.569 201.598 314.569 Q206.76 314.569 209.699 316.977 Q212.639 319.384 212.639 323.527 Q212.639 326.49 210.949 328.551 Q209.283 330.611 206.297 331.351 Q209.676 332.139 211.551 334.43 Q213.449 336.722 213.449 340.032 Q213.449 345.055 210.371 347.74 Q207.315 350.425 201.598 350.425 Q195.88 350.425 192.801 347.74 Q189.746 345.055 189.746 340.032 Q189.746 336.722 191.644 334.43 Q193.542 332.139 196.922 331.351 M195.209 323.967 Q195.209 326.652 196.875 328.157 Q198.565 329.662 201.598 329.662 Q204.607 329.662 206.297 328.157 Q208.01 326.652 208.01 323.967 Q208.01 321.282 206.297 319.777 Q204.607 318.273 201.598 318.273 Q198.565 318.273 196.875 319.777 Q195.209 321.282 195.209 323.967 Z" fill="#000000" fill-rule="nonzero" fill-opacity="1" /><path clip-path="url(#clip920)" d="M231.76 318.273 Q228.148 318.273 226.32 321.838 Q224.514 325.379 224.514 332.509 Q224.514 339.615 226.32 343.18 Q228.148 346.722 231.76 346.722 Q235.394 346.722 237.199 343.18 Q239.028 339.615 239.028 332.509 Q239.028 325.379 237.199 321.838 Q235.394 318.273 231.76 318.273 M231.76 314.569 Q237.57 314.569 240.625 319.176 Q243.704 323.759 243.704 332.509 Q243.704 341.236 240.625 345.842 Q237.57 350.425 231.76 350.425 Q225.949 350.425 222.871 345.842 Q219.815 341.236 219.815 332.509 Q219.815 323.759 222.871 319.176 Q225.949 314.569 231.76 314.569 Z" fill="#000000" fill-rule="nonzero" fill-opacity="1" /><path clip-path="url(#clip920)" d="M127.2 110.668 Q123.589 110.668 121.76 114.232 Q119.955 117.774 119.955 124.904 Q119.955 132.01 121.76 135.575 Q123.589 139.117 127.2 139.117 Q130.834 139.117 132.64 135.575 Q134.468 132.01 134.468 124.904 Q134.468 117.774 132.64 114.232 Q130.834 110.668 127.2 110.668 M127.2 106.964 Q133.01 106.964 136.066 111.57 Q139.144 116.154 139.144 124.904 Q139.144 133.63 136.066 138.237 Q133.01 142.82 127.2 142.82 Q121.39 142.82 118.311 138.237 Q115.256 133.63 115.256 124.904 Q115.256 116.154 118.311 111.57 Q121.39 106.964 127.2 106.964 Z" fill="#000000" fill-rule="nonzero" fill-opacity="1" /><path clip-path="url(#clip920)" d="M147.362 136.269 L152.246 136.269 L152.246 142.149 L147.362 142.149 L147.362 136.269 Z" fill="#000000" fill-rule="nonzero" fill-opacity="1" /><path clip-path="url(#clip920)" d="M172.431 110.668 Q168.82 110.668 166.991 114.232 Q165.186 117.774 165.186 124.904 Q165.186 132.01 166.991 135.575 Q168.82 139.117 172.431 139.117 Q176.065 139.117 177.871 135.575 Q179.7 132.01 179.7 124.904 Q179.7 117.774 177.871 114.232 Q176.065 110.668 172.431 110.668 M172.431 106.964 Q178.241 106.964 181.297 111.57 Q184.376 116.154 184.376 124.904 Q184.376 133.63 181.297 138.237 Q178.241 142.82 172.431 142.82 Q166.621 142.82 163.542 138.237 Q160.487 133.63 160.487 124.904 Q160.487 116.154 163.542 111.57 Q166.621 106.964 172.431 106.964 Z" fill="#000000" fill-rule="nonzero" fill-opacity="1" /><path clip-path="url(#clip920)" d="M202.593 125.737 Q199.26 125.737 197.338 127.519 Q195.44 129.302 195.44 132.427 Q195.44 135.552 197.338 137.334 Q199.26 139.117 202.593 139.117 Q205.926 139.117 207.848 137.334 Q209.769 135.529 209.769 132.427 Q209.769 129.302 207.848 127.519 Q205.949 125.737 202.593 125.737 M197.917 123.746 Q194.908 123.006 193.218 120.945 Q191.551 118.885 191.551 115.922 Q191.551 111.779 194.491 109.371 Q197.454 106.964 202.593 106.964 Q207.755 106.964 210.695 109.371 Q213.635 111.779 213.635 115.922 Q213.635 118.885 211.945 120.945 Q210.278 123.006 207.292 123.746 Q210.672 124.533 212.547 126.825 Q214.445 129.117 214.445 132.427 Q214.445 137.45 211.366 140.135 Q208.311 142.82 202.593 142.82 Q196.875 142.82 193.797 140.135 Q190.741 137.45 190.741 132.427 Q190.741 129.117 192.639 126.825 Q194.538 124.533 197.917 123.746 M196.204 116.362 Q196.204 119.047 197.871 120.552 Q199.561 122.056 202.593 122.056 Q205.602 122.056 207.292 120.552 Q209.005 119.047 209.005 116.362 Q209.005 113.677 207.292 112.172 Q205.602 110.668 202.593 110.668 Q199.561 110.668 197.871 112.172 Q196.204 113.677 196.204 116.362 Z" fill="#000000" fill-rule="nonzero" fill-opacity="1" /><path clip-path="url(#clip920)" d="M222.801 107.589 L241.158 107.589 L241.158 111.524 L227.084 111.524 L227.084 119.996 Q228.102 119.649 229.121 119.487 Q230.139 119.302 231.158 119.302 Q236.945 119.302 240.324 122.473 Q243.704 125.644 243.704 131.061 Q243.704 136.64 240.232 139.742 Q236.76 142.82 230.44 142.82 Q228.264 142.82 225.996 142.45 Q223.75 142.079 221.343 141.339 L221.343 136.64 Q223.426 137.774 225.648 138.33 Q227.871 138.885 230.347 138.885 Q234.352 138.885 236.69 136.779 Q239.028 134.672 239.028 131.061 Q239.028 127.45 236.69 125.343 Q234.352 123.237 230.347 123.237 Q228.473 123.237 226.598 123.654 Q224.746 124.07 222.801 124.95 L222.801 107.589 Z" fill="#000000" fill-rule="nonzero" fill-opacity="1" /><path clip-path="url(#clip920)" d="M34.7219 748.293 Q31.4754 746.352 28.6108 741.546 Q27.4968 739.668 27.4968 733.875 Q27.4968 727.382 32.6531 723.34 Q37.8093 719.266 46.212 719.266 Q54.6147 719.266 59.771 723.34 Q64.9272 727.382 64.9272 733.875 Q64.9272 737.79 63.3994 740.623 Q61.8398 743.424 58.657 745.27 L77.5631 745.27 L77.5631 751.158 L46.5303 751.158 Q39.1779 751.158 34.7219 748.293 M46.212 725.345 Q39.7508 725.345 36.0905 728.019 Q32.3984 730.66 32.3984 735.307 Q32.3984 739.954 36.0905 742.628 Q39.7508 745.27 46.212 745.27 Q52.6732 745.27 56.3653 742.628 Q60.0256 739.954 60.0256 735.307 Q60.0256 730.66 56.3653 728.019 Q52.6732 725.345 46.212 725.345 Z" fill="#000000" fill-rule="nonzero" fill-opacity="1" /><polyline clip-path="url(#clip921)" style="stroke:#009af9; stroke-linecap:round; stroke-linejoin:round; stroke-width:4; stroke-opacity:1; fill:none" points="338.375,86.1857 441.307,128.864 544.239,321.454 647.171,722.677 750.103,1179.11 853.036,1384.24 955.968,1179.11 1058.9,722.677 1161.83,321.454 1264.76,128.864 1367.7,86.1857 1470.63,128.864 1573.56,321.454 1676.49,722.677 1779.42,1179.11 1882.36,1384.24 1985.29,1179.11 2088.22,722.677 2191.15,321.454 2294.08,128.864 "/>
<circle clip-path="url(#clip921)" cx="338.375" cy="86.1857" r="7.2" fill="#009af9" fill-rule="evenodd" fill-opacity="1" stroke="#000000" stroke-opacity="1" stroke-width="3.2"/>
<circle clip-path="url(#clip921)" cx="441.307" cy="128.864" r="7.2" fill="#009af9" fill-rule="evenodd" fill-opacity="1" stroke="#000000" stroke-opacity="1" stroke-width="3.2"/>
<circle clip-path="url(#clip921)" cx="544.239" cy="321.454" r="7.2" fill="#009af9" fill-rule="evenodd" fill-opacity="1" stroke="#000000" stroke-opacity="1" stroke-width="3.2"/>
<circle clip-path="url(#clip921)" cx="647.171" cy="722.677" r="7.2" fill="#009af9" fill-rule="evenodd" fill-opacity="1" stroke="#000000" stroke-opacity="1" stroke-width="3.2"/>
<circle clip-path="url(#clip921)" cx="750.103" cy="1179.11" r="7.2" fill="#009af9" fill-rule="evenodd" fill-opacity="1" stroke="#000000" stroke-opacity="1" stroke-width="3.2"/>
<circle clip-path="url(#clip921)" cx="853.036" cy="1384.24" r="7.2" fill="#009af9" fill-rule="evenodd" fill-opacity="1" stroke="#000000" stroke-opacity="1" stroke-width="3.2"/>
<circle clip-path="url(#clip921)" cx="955.968" cy="1179.11" r="7.2" fill="#009af9" fill-rule="evenodd" fill-opacity="1" stroke="#000000" stroke-opacity="1" stroke-width="3.2"/>
<circle clip-path="url(#clip921)" cx="1058.9" cy="722.677" r="7.2" fill="#009af9" fill-rule="evenodd" fill-opacity="1" stroke="#000000" stroke-opacity="1" stroke-width="3.2"/>
<circle clip-path="url(#clip921)" cx="1161.83" cy="321.454" r="7.2" fill="#009af9" fill-rule="evenodd" fill-opacity="1" stroke="#000000" stroke-opacity="1" stroke-width="3.2"/>
<circle clip-path="url(#clip921)" cx="1264.76" cy="128.864" r="7.2" fill="#009af9" fill-rule="evenodd" fill-opacity="1" stroke="#000000" stroke-opacity="1" stroke-width="3.2"/>
<circle clip-path="url(#clip921)" cx="1367.7" cy="86.1857" r="7.2" fill="#009af9" fill-rule="evenodd" fill-opacity="1" stroke="#000000" stroke-opacity="1" stroke-width="3.2"/>
<circle clip-path="url(#clip921)" cx="1470.63" cy="128.864" r="7.2" fill="#009af9" fill-rule="evenodd" fill-opacity="1" stroke="#000000" stroke-opacity="1" stroke-width="3.2"/>
<circle clip-path="url(#clip921)" cx="1573.56" cy="321.454" r="7.2" fill="#009af9" fill-rule="evenodd" fill-opacity="1" stroke="#000000" stroke-opacity="1" stroke-width="3.2"/>
<circle clip-path="url(#clip921)" cx="1676.49" cy="722.677" r="7.2" fill="#009af9" fill-rule="evenodd" fill-opacity="1" stroke="#000000" stroke-opacity="1" stroke-width="3.2"/>
<circle clip-path="url(#clip921)" cx="1779.42" cy="1179.11" r="7.2" fill="#009af9" fill-rule="evenodd" fill-opacity="1" stroke="#000000" stroke-opacity="1" stroke-width="3.2"/>
<circle clip-path="url(#clip921)" cx="1882.36" cy="1384.24" r="7.2" fill="#009af9" fill-rule="evenodd" fill-opacity="1" stroke="#000000" stroke-opacity="1" stroke-width="3.2"/>
<circle clip-path="url(#clip921)" cx="1985.29" cy="1179.11" r="7.2" fill="#009af9" fill-rule="evenodd" fill-opacity="1" stroke="#000000" stroke-opacity="1" stroke-width="3.2"/>
<circle clip-path="url(#clip921)" cx="2088.22" cy="722.677" r="7.2" fill="#009af9" fill-rule="evenodd" fill-opacity="1" stroke="#000000" stroke-opacity="1" stroke-width="3.2"/>
<circle clip-path="url(#clip921)" cx="2191.15" cy="321.454" r="7.2" fill="#009af9" fill-rule="evenodd" fill-opacity="1" stroke="#000000" stroke-opacity="1" stroke-width="3.2"/>
<circle clip-path="url(#clip921)" cx="2294.08" cy="128.864" r="7.2" fill="#009af9" fill-rule="evenodd" fill-opacity="1" stroke="#000000" stroke-opacity="1" stroke-width="3.2"/>
</svg>
