<?xml version="1.0" encoding="utf-8"?>
<svg xmlns="http://www.w3.org/2000/svg" xmlns:xlink="http://www.w3.org/1999/xlink" width="600" height="400" viewBox="0 0 2400 1600">
<defs>
  <clipPath id="clip960">
    <rect x="0" y="0" width="2400" height="1600"/>
  </clipPath>
</defs>
<path clip-path="url(#clip960)" d="M0 1600 L2400 1600 L2400 0 L0 0  Z" fill="#ffffff" fill-rule="evenodd" fill-opacity="1"/>
<defs>
  <clipPath id="clip961">
    <rect x="480" y="0" width="1681" height="1600"/>
  </clipPath>
</defs>
<path clip-path="url(#clip960)" d="M251.372 1423.18 L2352.76 1423.18 L2352.76 47.2441 L251.372 47.2441  Z" fill="#ffffff" fill-rule="evenodd" fill-opacity="1"/>
<defs>
  <clipPath id="clip962">
    <rect x="251" y="47" width="2102" height="1377"/>
  </clipPath>
</defs>
<polyline clip-path="url(#clip962)" style="stroke:#000000; stroke-linecap:round; stroke-linejoin:round; stroke-width:2; stroke-opacity:0.1; fill:none" points="310.845,1423.18 310.845,47.2441 "/>
<polyline clip-path="url(#clip962)" style="stroke:#000000; stroke-linecap:round; stroke-linejoin:round; stroke-width:2; stroke-opacity:0.1; fill:none" points="707.333,1423.18 707.333,47.2441 "/>
<polyline clip-path="url(#clip962)" style="stroke:#000000; stroke-linecap:round; stroke-linejoin:round; stroke-width:2; stroke-opacity:0.1; fill:none" points="1103.82,1423.18 1103.82,47.2441 "/>
<polyline clip-path="url(#clip962)" style="stroke:#000000; stroke-linecap:round; stroke-linejoin:round; stroke-width:2; stroke-opacity:0.1; fill:none" points="1500.31,1423.18 1500.31,47.2441 "/>
<polyline clip-path="url(#clip962)" style="stroke:#000000; stroke-linecap:round; stroke-linejoin:round; stroke-width:2; stroke-opacity:0.1; fill:none" points="1896.8,1423.18 1896.8,47.2441 "/>
<polyline clip-path="url(#clip962)" style="stroke:#000000; stroke-linecap:round; stroke-linejoin:round; stroke-width:2; stroke-opacity:0.1; fill:none" points="2293.28,1423.18 2293.28,47.2441 "/>
<polyline clip-path="url(#clip960)" style="stroke:#000000; stroke-linecap:round; stroke-linejoin:round; stroke-width:4; stroke-opacity:1; fill:none" points="251.372,1423.18 2352.76,1423.18 "/>
<polyline clip-path="url(#clip960)" style="stroke:#000000; stroke-linecap:round; stroke-linejoin:round; stroke-width:4; stroke-opacity:1; fill:none" points="310.845,1423.18 310.845,1404.28 "/>
<polyline clip-path="url(#clip960)" style="stroke:#000000; stroke-linecap:round; stroke-linejoin:round; stroke-width:4; stroke-opacity:1; fill:none" points="707.333,1423.18 707.333,1404.28 "/>
<polyline clip-path="url(#clip960)" style="stroke:#000000; stroke-linecap:round; stroke-linejoin:round; stroke-width:4; stroke-opacity:1; fill:none" points="1103.82,1423.18 1103.82,1404.28 "/>
<polyline clip-path="url(#clip960)" style="stroke:#000000; stroke-linecap:round; stroke-linejoin:round; stroke-width:4; stroke-opacity:1; fill:none" points="1500.31,1423.18 1500.31,1404.28 "/>
<polyline clip-path="url(#clip960)" style="stroke:#000000; stroke-linecap:round; stroke-linejoin:round; stroke-width:4; stroke-opacity:1; fill:none" points="1896.8,1423.18 1896.8,1404.28 "/>
<polyline clip-path="url(#clip960)" style="stroke:#000000; stroke-linecap:round; stroke-linejoin:round; stroke-width:4; stroke-opacity:1; fill:none" points="2293.28,1423.18 2293.28,1404.28 "/>
<path clip-path="url(#clip960)" d="M301.227 1481.64 L308.866 1481.64 L308.866 1455.28 L300.556 1456.95 L300.556 1452.69 L308.82 1451.02 L313.496 1451.02 L313.496 1481.64 L321.135 1481.64 L321.135 1485.58 L301.227 1485.58 L301.227 1481.64 Z" fill="#000000" fill-rule="nonzero" fill-opacity="1" /><path clip-path="url(#clip960)" d="M701.986 1481.64 L718.305 1481.64 L718.305 1485.58 L696.361 1485.58 L696.361 1481.64 Q699.023 1478.89 703.606 1474.26 Q708.212 1469.61 709.393 1468.27 Q711.638 1465.74 712.518 1464.01 Q713.421 1462.25 713.421 1460.56 Q713.421 1457.8 711.476 1456.07 Q709.555 1454.33 706.453 1454.33 Q704.254 1454.33 701.8 1455.09 Q699.37 1455.86 696.592 1457.41 L696.592 1452.69 Q699.416 1451.55 701.87 1450.97 Q704.324 1450.39 706.361 1450.39 Q711.731 1450.39 714.925 1453.08 Q718.12 1455.77 718.12 1460.26 Q718.12 1462.39 717.31 1464.31 Q716.523 1466.2 714.416 1468.8 Q713.837 1469.47 710.736 1472.69 Q707.634 1475.88 701.986 1481.64 Z" fill="#000000" fill-rule="nonzero" fill-opacity="1" /><path clip-path="url(#clip960)" d="M1108.07 1466.95 Q1111.42 1467.66 1113.3 1469.93 Q1115.2 1472.2 1115.2 1475.53 Q1115.2 1480.65 1111.68 1483.45 Q1108.16 1486.25 1101.68 1486.25 Q1099.5 1486.25 1097.19 1485.81 Q1094.9 1485.39 1092.44 1484.54 L1092.44 1480.02 Q1094.39 1481.16 1096.7 1481.74 Q1099.02 1482.32 1101.54 1482.32 Q1105.94 1482.32 1108.23 1480.58 Q1110.54 1478.84 1110.54 1475.53 Q1110.54 1472.48 1108.39 1470.77 Q1106.26 1469.03 1102.44 1469.03 L1098.42 1469.03 L1098.42 1465.19 L1102.63 1465.19 Q1106.08 1465.19 1107.91 1463.82 Q1109.73 1462.43 1109.73 1459.84 Q1109.73 1457.18 1107.84 1455.77 Q1105.96 1454.33 1102.44 1454.33 Q1100.52 1454.33 1098.32 1454.75 Q1096.12 1455.16 1093.48 1456.04 L1093.48 1451.88 Q1096.15 1451.14 1098.46 1450.77 Q1100.8 1450.39 1102.86 1450.39 Q1108.18 1450.39 1111.29 1452.83 Q1114.39 1455.23 1114.39 1459.35 Q1114.39 1462.22 1112.74 1464.21 Q1111.1 1466.18 1108.07 1466.95 Z" fill="#000000" fill-rule="nonzero" fill-opacity="1" /><path clip-path="url(#clip960)" d="M1503.32 1455.09 L1491.51 1473.54 L1503.32 1473.54 L1503.32 1455.09 M1502.09 1451.02 L1507.97 1451.02 L1507.97 1473.54 L1512.9 1473.54 L1512.9 1477.43 L1507.97 1477.43 L1507.97 1485.58 L1503.32 1485.58 L1503.32 1477.43 L1487.72 1477.43 L1487.72 1472.92 L1502.09 1451.02 Z" fill="#000000" fill-rule="nonzero" fill-opacity="1" /><path clip-path="url(#clip960)" d="M1887.07 1451.02 L1905.43 1451.02 L1905.43 1454.96 L1891.36 1454.96 L1891.36 1463.43 Q1892.37 1463.08 1893.39 1462.92 Q1894.41 1462.73 1895.43 1462.73 Q1901.22 1462.73 1904.6 1465.9 Q1907.98 1469.08 1907.98 1474.49 Q1907.98 1480.07 1904.5 1483.17 Q1901.03 1486.25 1894.71 1486.25 Q1892.54 1486.25 1890.27 1485.88 Q1888.02 1485.51 1885.61 1484.77 L1885.61 1480.07 Q1887.7 1481.2 1889.92 1481.76 Q1892.14 1482.32 1894.62 1482.32 Q1898.62 1482.32 1900.96 1480.21 Q1903.3 1478.1 1903.3 1474.49 Q1903.3 1470.88 1900.96 1468.77 Q1898.62 1466.67 1894.62 1466.67 Q1892.74 1466.67 1890.87 1467.08 Q1889.02 1467.5 1887.07 1468.38 L1887.07 1451.02 Z" fill="#000000" fill-rule="nonzero" fill-opacity="1" /><path clip-path="url(#clip960)" d="M2293.69 1466.44 Q2290.54 1466.44 2288.69 1468.59 Q2286.86 1470.74 2286.86 1474.49 Q2286.86 1478.22 2288.69 1480.39 Q2290.54 1482.55 2293.69 1482.55 Q2296.84 1482.55 2298.66 1480.39 Q2300.52 1478.22 2300.52 1474.49 Q2300.52 1470.74 2298.66 1468.59 Q2296.84 1466.44 2293.69 1466.44 M2302.97 1451.78 L2302.97 1456.04 Q2301.21 1455.21 2299.41 1454.77 Q2297.62 1454.33 2295.86 1454.33 Q2291.23 1454.33 2288.78 1457.45 Q2286.35 1460.58 2286 1466.9 Q2287.37 1464.89 2289.43 1463.82 Q2291.49 1462.73 2293.97 1462.73 Q2299.17 1462.73 2302.18 1465.9 Q2305.22 1469.05 2305.22 1474.49 Q2305.22 1479.82 2302.07 1483.03 Q2298.92 1486.25 2293.69 1486.25 Q2287.69 1486.25 2284.52 1481.67 Q2281.35 1477.06 2281.35 1468.33 Q2281.35 1460.14 2285.24 1455.28 Q2289.13 1450.39 2295.68 1450.39 Q2297.44 1450.39 2299.22 1450.74 Q2301.03 1451.09 2302.97 1451.78 Z" fill="#000000" fill-rule="nonzero" fill-opacity="1" /><path clip-path="url(#clip960)" d="M1213.52 1518.52 L1219.41 1518.52 L1219.41 1547.77 L1236.88 1532.4 L1244.36 1532.4 L1225.45 1549.07 L1245.15 1568.04 L1237.52 1568.04 L1219.41 1550.63 L1219.41 1568.04 L1213.52 1568.04 L1213.52 1518.52 Z" fill="#000000" fill-rule="nonzero" fill-opacity="1" /><path clip-path="url(#clip960)" d="M1248.53 1547.58 L1265.68 1547.58 L1265.68 1552.8 L1248.53 1552.8 L1248.53 1547.58 Z" fill="#000000" fill-rule="nonzero" fill-opacity="1" /><path clip-path="url(#clip960)" d="M1298.47 1549.81 Q1298.47 1543.44 1295.83 1539.94 Q1293.22 1536.44 1288.47 1536.44 Q1283.76 1536.44 1281.12 1539.94 Q1278.51 1543.44 1278.51 1549.81 Q1278.51 1556.14 1281.12 1559.64 Q1283.76 1563.14 1288.47 1563.14 Q1293.22 1563.14 1295.83 1559.64 Q1298.47 1556.14 1298.47 1549.81 M1304.32 1563.62 Q1304.32 1572.72 1300.28 1577.15 Q1296.24 1581.6 1287.9 1581.6 Q1284.81 1581.6 1282.08 1581.13 Q1279.34 1580.68 1276.76 1579.72 L1276.76 1574.03 Q1279.34 1575.43 1281.85 1576.1 Q1284.37 1576.76 1286.98 1576.76 Q1292.74 1576.76 1295.6 1573.74 Q1298.47 1570.75 1298.47 1564.67 L1298.47 1561.77 Q1296.65 1564.92 1293.82 1566.48 Q1290.99 1568.04 1287.04 1568.04 Q1280.48 1568.04 1276.47 1563.05 Q1272.46 1558.05 1272.46 1549.81 Q1272.46 1541.53 1276.47 1536.53 Q1280.48 1531.54 1287.04 1531.54 Q1290.99 1531.54 1293.82 1533.1 Q1296.65 1534.66 1298.47 1537.81 L1298.47 1532.4 L1304.32 1532.4 L1304.32 1563.62 Z" fill="#000000" fill-rule="nonzero" fill-opacity="1" /><path clip-path="url(#clip960)" d="M1337.04 1537.87 Q1336.06 1537.3 1334.88 1537.04 Q1333.73 1536.76 1332.33 1536.76 Q1327.37 1536.76 1324.69 1540 Q1322.05 1543.22 1322.05 1549.27 L1322.05 1568.04 L1316.16 1568.04 L1316.16 1532.4 L1322.05 1532.4 L1322.05 1537.93 Q1323.9 1534.69 1326.86 1533.13 Q1329.82 1531.54 1334.05 1531.54 Q1334.66 1531.54 1335.39 1531.63 Q1336.12 1531.7 1337.01 1531.85 L1337.04 1537.87 Z" fill="#000000" fill-rule="nonzero" fill-opacity="1" /><path clip-path="url(#clip960)" d="M1343.19 1532.4 L1349.04 1532.4 L1349.04 1568.04 L1343.19 1568.04 L1343.19 1532.4 M1343.19 1518.52 L1349.04 1518.52 L1349.04 1525.93 L1343.19 1525.93 L1343.19 1518.52 Z" fill="#000000" fill-rule="nonzero" fill-opacity="1" /><path clip-path="url(#clip960)" d="M1384.75 1537.81 L1384.75 1518.52 L1390.61 1518.52 L1390.61 1568.04 L1384.75 1568.04 L1384.75 1562.7 Q1382.91 1565.88 1380.08 1567.44 Q1377.27 1568.97 1373.33 1568.97 Q1366.87 1568.97 1362.79 1563.81 Q1358.75 1558.65 1358.75 1550.25 Q1358.75 1541.85 1362.79 1536.69 Q1366.87 1531.54 1373.33 1531.54 Q1377.27 1531.54 1380.08 1533.1 Q1382.91 1534.62 1384.75 1537.81 M1364.8 1550.25 Q1364.8 1556.71 1367.44 1560.4 Q1370.11 1564.07 1374.76 1564.07 Q1379.41 1564.07 1382.08 1560.4 Q1384.75 1556.71 1384.75 1550.25 Q1384.75 1543.79 1382.08 1540.13 Q1379.41 1536.44 1374.76 1536.44 Q1370.11 1536.44 1367.44 1540.13 Q1364.8 1543.79 1364.8 1550.25 Z" fill="#000000" fill-rule="nonzero" fill-opacity="1" /><polyline clip-path="url(#clip962)" style="stroke:#000000; stroke-linecap:round; stroke-linejoin:round; stroke-width:2; stroke-opacity:0.1; fill:none" points="251.372,1218.3 2352.76,1218.3 "/>
<polyline clip-path="url(#clip962)" style="stroke:#000000; stroke-linecap:round; stroke-linejoin:round; stroke-width:2; stroke-opacity:0.1; fill:none" points="251.372,465.501 2352.76,465.501 "/>
<polyline clip-path="url(#clip960)" style="stroke:#000000; stroke-linecap:round; stroke-linejoin:round; stroke-width:4; stroke-opacity:1; fill:none" points="251.372,1423.18 251.372,47.2441 "/>
<polyline clip-path="url(#clip960)" style="stroke:#000000; stroke-linecap:round; stroke-linejoin:round; stroke-width:4; stroke-opacity:1; fill:none" points="251.372,1218.3 270.27,1218.3 "/>
<polyline clip-path="url(#clip960)" style="stroke:#000000; stroke-linecap:round; stroke-linejoin:round; stroke-width:4; stroke-opacity:1; fill:none" points="251.372,465.501 270.27,465.501 "/>
<path clip-path="url(#clip960)" d="M115.232 1238.1 L122.871 1238.1 L122.871 1211.73 L114.561 1213.4 L114.561 1209.14 L122.825 1207.47 L127.501 1207.47 L127.501 1238.1 L135.14 1238.1 L135.14 1242.03 L115.232 1242.03 L115.232 1238.1 Z" fill="#000000" fill-rule="nonzero" fill-opacity="1" /><path clip-path="url(#clip960)" d="M154.584 1210.55 Q150.973 1210.55 149.144 1214.12 Q147.339 1217.66 147.339 1224.79 Q147.339 1231.89 149.144 1235.46 Q150.973 1239 154.584 1239 Q158.218 1239 160.024 1235.46 Q161.852 1231.89 161.852 1224.79 Q161.852 1217.66 160.024 1214.12 Q158.218 1210.55 154.584 1210.55 M154.584 1206.85 Q160.394 1206.85 163.45 1211.45 Q166.528 1216.04 166.528 1224.79 Q166.528 1233.51 163.45 1238.12 Q160.394 1242.7 154.584 1242.7 Q148.774 1242.7 145.695 1238.12 Q142.64 1233.51 142.64 1224.79 Q142.64 1216.04 145.695 1211.45 Q148.774 1206.85 154.584 1206.85 Z" fill="#000000" fill-rule="nonzero" fill-opacity="1" /><path clip-path="url(#clip960)" d="M166.528 1200.95 L190.64 1200.95 L190.64 1204.15 L166.528 1204.15 L166.528 1200.95 Z" fill="#000000" fill-rule="nonzero" fill-opacity="1" /><path clip-path="url(#clip960)" d="M202.113 1211.42 L215.372 1211.42 L215.372 1214.62 L197.542 1214.62 L197.542 1211.42 Q199.705 1209.19 203.429 1205.42 Q207.172 1201.64 208.131 1200.55 Q209.956 1198.5 210.67 1197.09 Q211.404 1195.66 211.404 1194.29 Q211.404 1192.05 209.824 1190.64 Q208.263 1189.23 205.743 1189.23 Q203.956 1189.23 201.962 1189.85 Q199.987 1190.47 197.73 1191.73 L197.73 1187.9 Q200.025 1186.97 202.019 1186.5 Q204.012 1186.03 205.667 1186.03 Q210.031 1186.03 212.626 1188.22 Q215.222 1190.4 215.222 1194.05 Q215.222 1195.78 214.563 1197.34 Q213.924 1198.88 212.212 1200.99 Q211.742 1201.53 209.222 1204.15 Q206.702 1206.74 202.113 1211.42 Z" fill="#000000" fill-rule="nonzero" fill-opacity="1" /><path clip-path="url(#clip960)" d="M114.931 485.294 L122.57 485.294 L122.57 458.928 L114.26 460.595 L114.26 456.335 L122.524 454.669 L127.2 454.669 L127.2 485.294 L134.839 485.294 L134.839 489.229 L114.931 489.229 L114.931 485.294 Z" fill="#000000" fill-rule="nonzero" fill-opacity="1" /><path clip-path="url(#clip960)" d="M154.283 457.747 Q150.672 457.747 148.843 461.312 Q147.038 464.854 147.038 471.983 Q147.038 479.09 148.843 482.655 Q150.672 486.196 154.283 486.196 Q157.917 486.196 159.723 482.655 Q161.552 479.09 161.552 471.983 Q161.552 464.854 159.723 461.312 Q157.917 457.747 154.283 457.747 M154.283 454.044 Q160.093 454.044 163.149 458.65 Q166.227 463.233 166.227 471.983 Q166.227 480.71 163.149 485.317 Q160.093 489.9 154.283 489.9 Q148.473 489.9 145.394 485.317 Q142.339 480.71 142.339 471.983 Q142.339 463.233 145.394 458.65 Q148.473 454.044 154.283 454.044 Z" fill="#000000" fill-rule="nonzero" fill-opacity="1" /><path clip-path="url(#clip960)" d="M166.227 448.145 L190.339 448.145 L190.339 451.342 L166.227 451.342 L166.227 448.145 Z" fill="#000000" fill-rule="nonzero" fill-opacity="1" /><path clip-path="url(#clip960)" d="M199.197 458.621 L205.404 458.621 L205.404 437.199 L198.652 438.553 L198.652 435.092 L205.366 433.738 L209.166 433.738 L209.166 458.621 L215.372 458.621 L215.372 461.818 L199.197 461.818 L199.197 458.621 Z" fill="#000000" fill-rule="nonzero" fill-opacity="1" /><path clip-path="url(#clip960)" d="M44.7161 1053.69 L47.5806 1053.69 L47.5806 1080.62 Q53.6281 1080.23 56.8109 1076.99 Q59.9619 1073.71 59.9619 1067.88 Q59.9619 1064.51 59.1344 1061.36 Q58.3069 1058.18 56.6518 1055.06 L62.1899 1055.06 Q63.5267 1058.21 64.227 1061.52 Q64.9272 1064.83 64.9272 1068.23 Q64.9272 1076.76 59.9619 1081.76 Q54.9967 1086.73 46.5303 1086.73 Q37.7774 1086.73 32.6531 1082.02 Q27.4968 1077.27 27.4968 1069.25 Q27.4968 1062.06 32.1438 1057.89 Q36.7589 1053.69 44.7161 1053.69 M42.9973 1059.54 Q38.1912 1059.61 35.3266 1062.25 Q32.4621 1064.86 32.4621 1069.19 Q32.4621 1074.09 35.2312 1077.05 Q38.0002 1079.98 43.0292 1080.42 L42.9973 1059.54 Z" fill="#000000" fill-rule="nonzero" fill-opacity="1" /><path clip-path="url(#clip960)" d="M42.4881 1014.44 L64.0042 1014.44 L64.0042 1020.3 L42.679 1020.3 Q37.6183 1020.3 35.1038 1022.27 Q32.5894 1024.25 32.5894 1028.19 Q32.5894 1032.94 35.6131 1035.67 Q38.6368 1038.41 43.8567 1038.41 L64.0042 1038.41 L64.0042 1044.3 L28.3562 1044.3 L28.3562 1038.41 L33.8944 1038.41 Q30.6797 1036.31 29.0883 1033.48 Q27.4968 1030.61 27.4968 1026.89 Q27.4968 1020.75 31.3163 1017.59 Q35.1038 1014.44 42.4881 1014.44 Z" fill="#000000" fill-rule="nonzero" fill-opacity="1" /><path clip-path="url(#clip960)" d="M44.7161 972.271 L47.5806 972.271 L47.5806 999.198 Q53.6281 998.816 56.8109 995.569 Q59.9619 992.291 59.9619 986.466 Q59.9619 983.093 59.1344 979.942 Q58.3069 976.759 56.6518 973.64 L62.1899 973.64 Q63.5267 976.791 64.227 980.101 Q64.9272 983.411 64.9272 986.817 Q64.9272 995.347 59.9619 1000.34 Q54.9967 1005.31 46.5303 1005.31 Q37.7774 1005.31 32.6531 1000.6 Q27.4968 995.856 27.4968 987.835 Q27.4968 980.642 32.1438 976.472 Q36.7589 972.271 44.7161 972.271 M42.9973 978.127 Q38.1912 978.191 35.3266 980.833 Q32.4621 983.443 32.4621 987.771 Q32.4621 992.673 35.2312 995.633 Q38.0002 998.561 43.0292 999.007 L42.9973 978.127 Z" fill="#000000" fill-rule="nonzero" fill-opacity="1" /><path clip-path="url(#clip960)" d="M33.8307 942.002 Q33.2578 942.989 33.0032 944.166 Q32.7167 945.312 32.7167 946.713 Q32.7167 951.678 35.9632 954.351 Q39.1779 956.993 45.2253 956.993 L64.0042 956.993 L64.0042 962.881 L28.3562 962.881 L28.3562 956.993 L33.8944 956.993 Q30.6479 955.147 29.0883 952.187 Q27.4968 949.227 27.4968 944.994 Q27.4968 944.389 27.5923 943.657 Q27.656 942.925 27.8151 942.034 L33.8307 942.002 Z" fill="#000000" fill-rule="nonzero" fill-opacity="1" /><path clip-path="url(#clip960)" d="M45.7664 913.547 Q39.4007 913.547 35.8996 916.189 Q32.3984 918.799 32.3984 923.541 Q32.3984 928.252 35.8996 930.894 Q39.4007 933.504 45.7664 933.504 Q52.1003 933.504 55.6014 930.894 Q59.1026 928.252 59.1026 923.541 Q59.1026 918.799 55.6014 916.189 Q52.1003 913.547 45.7664 913.547 M59.58 907.691 Q68.683 907.691 73.1071 911.733 Q77.5631 915.775 77.5631 924.114 Q77.5631 927.202 77.0857 929.939 Q76.6401 932.676 75.6852 935.254 L69.9879 935.254 Q71.3884 932.676 72.0568 930.162 Q72.7252 927.647 72.7252 925.037 Q72.7252 919.276 69.7015 916.412 Q66.7096 913.547 60.6303 913.547 L57.7339 913.547 Q60.885 915.361 62.4446 918.194 Q64.0042 921.027 64.0042 924.974 Q64.0042 931.53 59.0071 935.541 Q54.01 939.551 45.7664 939.551 Q37.491 939.551 32.4939 935.541 Q27.4968 931.53 27.4968 924.974 Q27.4968 921.027 29.0564 918.194 Q30.616 915.361 33.7671 913.547 L28.3562 913.547 L28.3562 907.691 L59.58 907.691 Z" fill="#000000" fill-rule="nonzero" fill-opacity="1" /><path clip-path="url(#clip960)" d="M67.3143 880.796 Q73.68 883.278 75.6216 885.634 Q77.5631 887.989 77.5631 891.936 L77.5631 896.614 L72.6615 896.614 L72.6615 893.177 Q72.6615 890.758 71.5157 889.421 Q70.3699 888.084 66.1048 886.461 L63.4312 885.411 L28.3562 899.829 L28.3562 893.623 L56.238 882.483 L28.3562 871.343 L28.3562 865.136 L67.3143 880.796 Z" fill="#000000" fill-rule="nonzero" fill-opacity="1" /><path clip-path="url(#clip960)" d="M46.0847 820.13 Q46.0847 827.228 47.7079 829.966 Q49.3312 832.703 53.2461 832.703 Q56.3653 832.703 58.2114 830.666 Q60.0256 828.597 60.0256 825.064 Q60.0256 820.194 56.5881 817.266 Q53.1188 814.306 47.3897 814.306 L46.0847 814.306 L46.0847 820.13 M43.6657 808.449 L64.0042 808.449 L64.0042 814.306 L58.5933 814.306 Q61.8398 816.311 63.3994 819.303 Q64.9272 822.295 64.9272 826.624 Q64.9272 832.098 61.8716 835.345 Q58.7843 838.559 53.6281 838.559 Q47.6125 838.559 44.5569 834.549 Q41.5014 830.507 41.5014 822.518 L41.5014 814.306 L40.9285 814.306 Q36.8862 814.306 34.6901 816.979 Q32.4621 819.621 32.4621 824.427 Q32.4621 827.483 33.1941 830.379 Q33.9262 833.276 35.3903 835.949 L29.9795 835.949 Q28.7381 832.735 28.1334 829.711 Q27.4968 826.687 27.4968 823.823 Q27.4968 816.088 31.5072 812.269 Q35.5176 808.449 43.6657 808.449 Z" fill="#000000" fill-rule="nonzero" fill-opacity="1" /><path clip-path="url(#clip960)" d="M46.212 770.796 Q39.7508 770.796 36.0905 773.47 Q32.3984 776.112 32.3984 780.759 Q32.3984 785.406 36.0905 788.079 Q39.7508 790.721 46.212 790.721 Q52.6732 790.721 56.3653 788.079 Q60.0256 785.406 60.0256 780.759 Q60.0256 776.112 56.3653 773.47 Q52.6732 770.796 46.212 770.796 M33.7671 790.721 Q30.5842 788.875 29.0564 786.074 Q27.4968 783.241 27.4968 779.326 Q27.4968 772.833 32.6531 768.791 Q37.8093 764.717 46.212 764.717 Q54.6147 764.717 59.771 768.791 Q64.9272 772.833 64.9272 779.326 Q64.9272 783.241 63.3994 786.074 Q61.8398 788.875 58.657 790.721 L64.0042 790.721 L64.0042 796.609 L14.479 796.609 L14.479 790.721 L33.7671 790.721 Z" fill="#000000" fill-rule="nonzero" fill-opacity="1" /><path clip-path="url(#clip960)" d="M29.4065 732.284 L34.9447 732.284 Q33.6716 734.766 33.035 737.44 Q32.3984 740.114 32.3984 742.978 Q32.3984 747.339 33.7352 749.535 Q35.072 751.699 37.7456 751.699 Q39.7826 751.699 40.9603 750.14 Q42.1061 748.58 43.1565 743.869 L43.6021 741.864 Q44.9389 735.626 47.3897 733.016 Q49.8086 730.374 54.1691 730.374 Q59.1344 730.374 62.0308 734.321 Q64.9272 738.236 64.9272 745.111 Q64.9272 747.975 64.3543 751.094 Q63.8132 754.182 62.6992 757.619 L56.6518 757.619 Q58.3387 754.373 59.198 751.222 Q60.0256 748.071 60.0256 744.983 Q60.0256 740.846 58.6251 738.618 Q57.1929 736.39 54.6147 736.39 Q52.2276 736.39 50.9545 738.013 Q49.6813 739.604 48.5037 745.047 L48.0262 747.084 Q46.8804 752.527 44.5251 754.946 Q42.138 757.365 38.0002 757.365 Q32.9713 757.365 30.2341 753.8 Q27.4968 750.235 27.4968 743.678 Q27.4968 740.432 27.9743 737.567 Q28.4517 734.703 29.4065 732.284 Z" fill="#000000" fill-rule="nonzero" fill-opacity="1" /><path clip-path="url(#clip960)" d="M32.4621 707.235 Q32.4621 711.945 36.1542 714.683 Q39.8145 717.42 46.212 717.42 Q52.6095 717.42 56.3017 714.714 Q59.9619 711.977 59.9619 707.235 Q59.9619 702.556 56.2698 699.819 Q52.5777 697.081 46.212 697.081 Q39.8781 697.081 36.186 699.819 Q32.4621 702.556 32.4621 707.235 M27.4968 707.235 Q27.4968 699.596 32.4621 695.235 Q37.4273 690.875 46.212 690.875 Q54.9649 690.875 59.9619 695.235 Q64.9272 699.596 64.9272 707.235 Q64.9272 714.905 59.9619 719.266 Q54.9649 723.595 46.212 723.595 Q37.4273 723.595 32.4621 719.266 Q27.4968 714.905 27.4968 707.235 Z" fill="#000000" fill-rule="nonzero" fill-opacity="1" /><path clip-path="url(#clip960)" d="M14.479 681.167 L14.479 675.311 L64.0042 675.311 L64.0042 681.167 L14.479 681.167 Z" fill="#000000" fill-rule="nonzero" fill-opacity="1" /><path clip-path="url(#clip960)" d="M49.9359 663.661 L28.3562 663.661 L28.3562 657.805 L49.7131 657.805 Q54.7739 657.805 57.3202 655.832 Q59.8346 653.858 59.8346 649.911 Q59.8346 645.169 56.8109 642.432 Q53.7872 639.663 48.5673 639.663 L28.3562 639.663 L28.3562 633.806 L64.0042 633.806 L64.0042 639.663 L58.5296 639.663 Q61.7762 641.795 63.3676 644.628 Q64.9272 647.429 64.9272 651.153 Q64.9272 657.296 61.1078 660.479 Q57.2883 663.661 49.9359 663.661 M27.4968 648.925 L27.4968 648.925 Z" fill="#000000" fill-rule="nonzero" fill-opacity="1" /><path clip-path="url(#clip960)" d="M18.2347 615.95 L28.3562 615.95 L28.3562 603.887 L32.9077 603.887 L32.9077 615.95 L52.2594 615.95 Q56.6199 615.95 57.8613 614.773 Q59.1026 613.563 59.1026 609.903 L59.1026 603.887 L64.0042 603.887 L64.0042 609.903 Q64.0042 616.683 61.4897 619.261 Q58.9434 621.839 52.2594 621.839 L32.9077 621.839 L32.9077 626.136 L28.3562 626.136 L28.3562 621.839 L18.2347 621.839 L18.2347 615.95 Z" fill="#000000" fill-rule="nonzero" fill-opacity="1" /><path clip-path="url(#clip960)" d="M44.7161 565.693 L47.5806 565.693 L47.5806 592.62 Q53.6281 592.238 56.8109 588.992 Q59.9619 585.713 59.9619 579.889 Q59.9619 576.515 59.1344 573.364 Q58.3069 570.181 56.6518 567.062 L62.1899 567.062 Q63.5267 570.213 64.227 573.523 Q64.9272 576.833 64.9272 580.239 Q64.9272 588.769 59.9619 593.766 Q54.9967 598.731 46.5303 598.731 Q37.7774 598.731 32.6531 594.021 Q27.4968 589.278 27.4968 581.257 Q27.4968 574.064 32.1438 569.895 Q36.7589 565.693 44.7161 565.693 M42.9973 571.55 Q38.1912 571.613 35.3266 574.255 Q32.4621 576.865 32.4621 581.194 Q32.4621 586.095 35.2312 589.055 Q38.0002 591.984 43.0292 592.429 L42.9973 571.55 Z" fill="#000000" fill-rule="nonzero" fill-opacity="1" /><path clip-path="url(#clip960)" d="M44.7161 504.869 L47.5806 504.869 L47.5806 531.796 Q53.6281 531.414 56.8109 528.167 Q59.9619 524.889 59.9619 519.064 Q59.9619 515.691 59.1344 512.54 Q58.3069 509.357 56.6518 506.238 L62.1899 506.238 Q63.5267 509.389 64.227 512.699 Q64.9272 516.009 64.9272 519.415 Q64.9272 527.945 59.9619 532.942 Q54.9967 537.907 46.5303 537.907 Q37.7774 537.907 32.6531 533.196 Q27.4968 528.454 27.4968 520.433 Q27.4968 513.24 32.1438 509.07 Q36.7589 504.869 44.7161 504.869 M42.9973 510.725 Q38.1912 510.789 35.3266 513.431 Q32.4621 516.041 32.4621 520.369 Q32.4621 525.271 35.2312 528.231 Q38.0002 531.159 43.0292 531.605 L42.9973 510.725 Z" fill="#000000" fill-rule="nonzero" fill-opacity="1" /><path clip-path="url(#clip960)" d="M33.8307 474.6 Q33.2578 475.587 33.0032 476.764 Q32.7167 477.91 32.7167 479.311 Q32.7167 484.276 35.9632 486.949 Q39.1779 489.591 45.2253 489.591 L64.0042 489.591 L64.0042 495.479 L28.3562 495.479 L28.3562 489.591 L33.8944 489.591 Q30.6479 487.745 29.0883 484.785 Q27.4968 481.825 27.4968 477.592 Q27.4968 476.987 27.5923 476.255 Q27.656 475.523 27.8151 474.632 L33.8307 474.6 Z" fill="#000000" fill-rule="nonzero" fill-opacity="1" /><path clip-path="url(#clip960)" d="M33.8307 448.946 Q33.2578 449.933 33.0032 451.11 Q32.7167 452.256 32.7167 453.657 Q32.7167 458.622 35.9632 461.296 Q39.1779 463.937 45.2253 463.937 L64.0042 463.937 L64.0042 469.826 L28.3562 469.826 L28.3562 463.937 L33.8944 463.937 Q30.6479 462.091 29.0883 459.131 Q27.4968 456.171 27.4968 451.938 Q27.4968 451.333 27.5923 450.601 Q27.656 449.869 27.8151 448.978 L33.8307 448.946 Z" fill="#000000" fill-rule="nonzero" fill-opacity="1" /><path clip-path="url(#clip960)" d="M32.4621 430.422 Q32.4621 435.133 36.1542 437.87 Q39.8145 440.607 46.212 440.607 Q52.6095 440.607 56.3017 437.902 Q59.9619 435.164 59.9619 430.422 Q59.9619 425.743 56.2698 423.006 Q52.5777 420.269 46.212 420.269 Q39.8781 420.269 36.186 423.006 Q32.4621 425.743 32.4621 430.422 M27.4968 430.422 Q27.4968 422.783 32.4621 418.423 Q37.4273 414.062 46.212 414.062 Q54.9649 414.062 59.9619 418.423 Q64.9272 422.783 64.9272 430.422 Q64.9272 438.093 59.9619 442.453 Q54.9649 446.782 46.212 446.782 Q37.4273 446.782 32.4621 442.453 Q27.4968 438.093 27.4968 430.422 Z" fill="#000000" fill-rule="nonzero" fill-opacity="1" /><path clip-path="url(#clip960)" d="M33.8307 383.698 Q33.2578 384.684 33.0032 385.862 Q32.7167 387.008 32.7167 388.408 Q32.7167 393.374 35.9632 396.047 Q39.1779 398.689 45.2253 398.689 L64.0042 398.689 L64.0042 404.577 L28.3562 404.577 L28.3562 398.689 L33.8944 398.689 Q30.6479 396.843 29.0883 393.883 Q27.4968 390.923 27.4968 386.69 Q27.4968 386.085 27.5923 385.353 Q27.656 384.621 27.8151 383.729 L33.8307 383.698 Z" fill="#000000" fill-rule="nonzero" fill-opacity="1" /><polyline clip-path="url(#clip962)" style="stroke:#009af9; stroke-linecap:round; stroke-linejoin:round; stroke-width:12; stroke-opacity:1; fill:none" points="310.845,86.1857 707.333,656.656 1103.82,740.156 1500.31,1103.23 1896.8,1271.38 2293.28,1384.24 "/>
<path clip-path="url(#clip962)" d="M310.845 102.186 L299.533 97.4977 L294.845 86.1857 L299.533 74.8737 L310.845 70.1857 L322.157 74.8737 L326.845 86.1857 L322.157 97.4977 Z" fill="#009af9" fill-rule="evenodd" fill-opacity="1" stroke="#000000" stroke-opacity="1" stroke-width="3.2"/>
<path clip-path="url(#clip962)" d="M707.333 672.656 L696.021 667.968 L691.333 656.656 L696.021 645.344 L707.333 640.656 L718.645 645.344 L723.333 656.656 L718.645 667.968 Z" fill="#009af9" fill-rule="evenodd" fill-opacity="1" stroke="#000000" stroke-opacity="1" stroke-width="3.2"/>
<path clip-path="url(#clip962)" d="M1103.82 756.156 L1092.51 751.468 L1087.82 740.156 L1092.51 728.844 L1103.82 724.156 L1115.13 728.844 L1119.82 740.156 L1115.13 751.468 Z" fill="#009af9" fill-rule="evenodd" fill-opacity="1" stroke="#000000" stroke-opacity="1" stroke-width="3.2"/>
<path clip-path="url(#clip962)" d="M1500.31 1119.23 L1489 1114.54 L1484.31 1103.23 L1489 1091.91 L1500.31 1087.23 L1511.62 1091.91 L1516.31 1103.23 L1511.62 1114.54 Z" fill="#009af9" fill-rule="evenodd" fill-opacity="1" stroke="#000000" stroke-opacity="1" stroke-width="3.2"/>
<path clip-path="url(#clip962)" d="M1896.8 1287.38 L1885.48 1282.69 L1880.8 1271.38 L1885.48 1260.07 L1896.8 1255.38 L1908.11 1260.07 L1912.8 1271.38 L1908.11 1282.69 Z" fill="#009af9" fill-rule="evenodd" fill-opacity="1" stroke="#000000" stroke-opacity="1" stroke-width="3.2"/>
<path clip-path="url(#clip962)" d="M2293.28 1400.24 L2281.97 1395.55 L2277.28 1384.24 L2281.97 1372.93 L2293.28 1368.24 L2304.59 1372.93 L2309.28 1384.24 L2304.59 1395.55 Z" fill="#009af9" fill-rule="evenodd" fill-opacity="1" stroke="#000000" stroke-opacity="1" stroke-width="3.2"/>
<path clip-path="url(#clip960)" d="M2020.14 196.789 L2282.71 196.789 L2282.71 93.1086 L2020.14 93.1086  Z" fill="#ffffff" fill-rule="evenodd" fill-opacity="1"/>
<polyline clip-path="url(#clip960)" style="stroke:#000000; stroke-linecap:round; stroke-linejoin:round; stroke-width:4; stroke-opacity:1; fill:none" points="2020.14,196.789 2282.71,196.789 2282.71,93.1086 2020.14,93.1086 2020.14,196.789 "/>
<polyline clip-path="url(#clip960)" style="stroke:#009af9; stroke-linecap:round; stroke-linejoin:round; stroke-width:12; stroke-opacity:1; fill:none" points="2043.49,144.949 2183.58,144.949 "/>
<path clip-path="url(#clip960)" d="M2113.54 166.568 L2098.25 160.233 L2091.92 144.949 L2098.25 129.664 L2113.54 123.329 L2128.82 129.664 L2135.16 144.949 L2128.82 160.233 Z" fill="#009af9" fill-rule="evenodd" fill-opacity="1" stroke="#000000" stroke-opacity="1" stroke-width="4.55111"/>
<path clip-path="url(#clip960)" d="M2220.77 164.636 Q2218.97 169.266 2217.25 170.678 Q2215.54 172.09 2212.67 172.09 L2209.27 172.09 L2209.27 168.525 L2211.77 168.525 Q2213.53 168.525 2214.5 167.692 Q2215.47 166.858 2216.65 163.756 L2217.42 161.812 L2206.93 136.303 L2211.44 136.303 L2219.55 156.581 L2227.65 136.303 L2232.16 136.303 L2220.77 164.636 Z" fill="#000000" fill-rule="nonzero" fill-opacity="1" /><path clip-path="url(#clip960)" d="M2239.45 158.293 L2247.09 158.293 L2247.09 131.928 L2238.78 133.595 L2238.78 129.335 L2247.05 127.669 L2251.72 127.669 L2251.72 158.293 L2259.36 158.293 L2259.36 162.229 L2239.45 162.229 L2239.45 158.293 Z" fill="#000000" fill-rule="nonzero" fill-opacity="1" /></svg>
