<?xml version="1.0" encoding="utf-8"?>
<svg xmlns="http://www.w3.org/2000/svg" xmlns:xlink="http://www.w3.org/1999/xlink" width="600" height="400" viewBox="0 0 2400 1600">
<defs>
  <clipPath id="clip300">
    <rect x="0" y="0" width="2400" height="1600"/>
  </clipPath>
</defs>
<path clip-path="url(#clip300)" d="M0 1600 L2400 1600 L2400 0 L0 0  Z" fill="#ffffff" fill-rule="evenodd" fill-opacity="1"/>
<defs>
  <clipPath id="clip301">
    <rect x="480" y="0" width="1681" height="1600"/>
  </clipPath>
</defs>
<path clip-path="url(#clip300)" d="M189.496 1486.45 L2352.76 1486.45 L2352.76 47.2441 L189.496 47.2441  Z" fill="#ffffff" fill-rule="evenodd" fill-opacity="1"/>
<defs>
  <clipPath id="clip302">
    <rect x="189" y="47" width="2164" height="1440"/>
  </clipPath>
</defs>
<polyline clip-path="url(#clip302)" style="stroke:#000000; stroke-linecap:round; stroke-linejoin:round; stroke-width:2; stroke-opacity:0.1; fill:none" points="250.72,1486.45 250.72,47.2441 "/>
<polyline clip-path="url(#clip302)" style="stroke:#000000; stroke-linecap:round; stroke-linejoin:round; stroke-width:2; stroke-opacity:0.1; fill:none" points="590.855,1486.45 590.855,47.2441 "/>
<polyline clip-path="url(#clip302)" style="stroke:#000000; stroke-linecap:round; stroke-linejoin:round; stroke-width:2; stroke-opacity:0.1; fill:none" points="930.991,1486.45 930.991,47.2441 "/>
<polyline clip-path="url(#clip302)" style="stroke:#000000; stroke-linecap:round; stroke-linejoin:round; stroke-width:2; stroke-opacity:0.1; fill:none" points="1271.13,1486.45 1271.13,47.2441 "/>
<polyline clip-path="url(#clip302)" style="stroke:#000000; stroke-linecap:round; stroke-linejoin:round; stroke-width:2; stroke-opacity:0.1; fill:none" points="1611.26,1486.45 1611.26,47.2441 "/>
<polyline clip-path="url(#clip302)" style="stroke:#000000; stroke-linecap:round; stroke-linejoin:round; stroke-width:2; stroke-opacity:0.1; fill:none" points="1951.4,1486.45 1951.4,47.2441 "/>
<polyline clip-path="url(#clip302)" style="stroke:#000000; stroke-linecap:round; stroke-linejoin:round; stroke-width:2; stroke-opacity:0.1; fill:none" points="2291.53,1486.45 2291.53,47.2441 "/>
<polyline clip-path="url(#clip302)" style="stroke:#000000; stroke-linecap:round; stroke-linejoin:round; stroke-width:2; stroke-opacity:0.1; fill:none" points="189.496,1340.17 2352.76,1340.17 "/>
<polyline clip-path="url(#clip302)" style="stroke:#000000; stroke-linecap:round; stroke-linejoin:round; stroke-width:2; stroke-opacity:0.1; fill:none" points="189.496,688.484 2352.76,688.484 "/>
<polyline clip-path="url(#clip300)" style="stroke:#000000; stroke-linecap:round; stroke-linejoin:round; stroke-width:4; stroke-opacity:1; fill:none" points="189.496,1486.45 2352.76,1486.45 "/>
<polyline clip-path="url(#clip300)" style="stroke:#000000; stroke-linecap:round; stroke-linejoin:round; stroke-width:4; stroke-opacity:1; fill:none" points="250.72,1486.45 250.72,1467.55 "/>
<polyline clip-path="url(#clip300)" style="stroke:#000000; stroke-linecap:round; stroke-linejoin:round; stroke-width:4; stroke-opacity:1; fill:none" points="590.855,1486.45 590.855,1467.55 "/>
<polyline clip-path="url(#clip300)" style="stroke:#000000; stroke-linecap:round; stroke-linejoin:round; stroke-width:4; stroke-opacity:1; fill:none" points="930.991,1486.45 930.991,1467.55 "/>
<polyline clip-path="url(#clip300)" style="stroke:#000000; stroke-linecap:round; stroke-linejoin:round; stroke-width:4; stroke-opacity:1; fill:none" points="1271.13,1486.45 1271.13,1467.55 "/>
<polyline clip-path="url(#clip300)" style="stroke:#000000; stroke-linecap:round; stroke-linejoin:round; stroke-width:4; stroke-opacity:1; fill:none" points="1611.26,1486.45 1611.26,1467.55 "/>
<polyline clip-path="url(#clip300)" style="stroke:#000000; stroke-linecap:round; stroke-linejoin:round; stroke-width:4; stroke-opacity:1; fill:none" points="1951.4,1486.45 1951.4,1467.55 "/>
<polyline clip-path="url(#clip300)" style="stroke:#000000; stroke-linecap:round; stroke-linejoin:round; stroke-width:4; stroke-opacity:1; fill:none" points="2291.53,1486.45 2291.53,1467.55 "/>
<path clip-path="url(#clip300)" d="M241.102 1544.91 L248.741 1544.91 L248.741 1518.55 L240.431 1520.21 L240.431 1515.95 L248.695 1514.29 L253.371 1514.29 L253.371 1544.91 L261.01 1544.91 L261.01 1548.85 L241.102 1548.85 L241.102 1544.91 Z" fill="#000000" fill-rule="nonzero" fill-opacity="1" /><path clip-path="url(#clip300)" d="M585.508 1544.91 L601.828 1544.91 L601.828 1548.85 L579.883 1548.85 L579.883 1544.91 Q582.545 1542.16 587.129 1537.53 Q591.735 1532.88 592.916 1531.53 Q595.161 1529.01 596.041 1527.27 Q596.943 1525.51 596.943 1523.82 Q596.943 1521.07 594.999 1519.33 Q593.078 1517.6 589.976 1517.6 Q587.777 1517.6 585.323 1518.36 Q582.893 1519.13 580.115 1520.68 L580.115 1515.95 Q582.939 1514.82 585.393 1514.24 Q587.846 1513.66 589.883 1513.66 Q595.254 1513.66 598.448 1516.35 Q601.642 1519.03 601.642 1523.52 Q601.642 1525.65 600.832 1527.57 Q600.045 1529.47 597.939 1532.07 Q597.36 1532.74 594.258 1535.95 Q591.156 1539.15 585.508 1544.91 Z" fill="#000000" fill-rule="nonzero" fill-opacity="1" /><path clip-path="url(#clip300)" d="M935.238 1530.21 Q938.595 1530.93 940.47 1533.2 Q942.368 1535.47 942.368 1538.8 Q942.368 1543.92 938.849 1546.72 Q935.331 1549.52 928.85 1549.52 Q926.674 1549.52 924.359 1549.08 Q922.067 1548.66 919.613 1547.81 L919.613 1543.29 Q921.558 1544.43 923.873 1545.01 Q926.187 1545.58 928.711 1545.58 Q933.109 1545.58 935.4 1543.85 Q937.715 1542.11 937.715 1538.8 Q937.715 1535.75 935.562 1534.03 Q933.433 1532.3 929.613 1532.3 L925.586 1532.3 L925.586 1528.45 L929.799 1528.45 Q933.248 1528.45 935.076 1527.09 Q936.905 1525.7 936.905 1523.11 Q936.905 1520.45 935.007 1519.03 Q933.132 1517.6 929.613 1517.6 Q927.692 1517.6 925.493 1518.01 Q923.294 1518.43 920.655 1519.31 L920.655 1515.14 Q923.317 1514.4 925.632 1514.03 Q927.97 1513.66 930.03 1513.66 Q935.354 1513.66 938.456 1516.09 Q941.558 1518.5 941.558 1522.62 Q941.558 1525.49 939.914 1527.48 Q938.271 1529.45 935.238 1530.21 Z" fill="#000000" fill-rule="nonzero" fill-opacity="1" /><path clip-path="url(#clip300)" d="M1274.14 1518.36 L1262.33 1536.81 L1274.14 1536.81 L1274.14 1518.36 M1272.91 1514.29 L1278.79 1514.29 L1278.79 1536.81 L1283.72 1536.81 L1283.72 1540.7 L1278.79 1540.7 L1278.79 1548.85 L1274.14 1548.85 L1274.14 1540.7 L1258.53 1540.7 L1258.53 1536.19 L1272.91 1514.29 Z" fill="#000000" fill-rule="nonzero" fill-opacity="1" /><path clip-path="url(#clip300)" d="M1601.54 1514.29 L1619.9 1514.29 L1619.9 1518.22 L1605.82 1518.22 L1605.82 1526.7 Q1606.84 1526.35 1607.86 1526.19 Q1608.88 1526 1609.9 1526 Q1615.68 1526 1619.06 1529.17 Q1622.44 1532.34 1622.44 1537.76 Q1622.44 1543.34 1618.97 1546.44 Q1615.5 1549.52 1609.18 1549.52 Q1607 1549.52 1604.73 1549.15 Q1602.49 1548.78 1600.08 1548.04 L1600.08 1543.34 Q1602.16 1544.47 1604.39 1545.03 Q1606.61 1545.58 1609.09 1545.58 Q1613.09 1545.58 1615.43 1543.48 Q1617.77 1541.37 1617.77 1537.76 Q1617.77 1534.15 1615.43 1532.04 Q1613.09 1529.94 1609.09 1529.94 Q1607.21 1529.94 1605.34 1530.35 Q1603.48 1530.77 1601.54 1531.65 L1601.54 1514.29 Z" fill="#000000" fill-rule="nonzero" fill-opacity="1" /><path clip-path="url(#clip300)" d="M1951.8 1529.7 Q1948.65 1529.7 1946.8 1531.86 Q1944.97 1534.01 1944.97 1537.76 Q1944.97 1541.49 1946.8 1543.66 Q1948.65 1545.82 1951.8 1545.82 Q1954.95 1545.82 1956.78 1543.66 Q1958.63 1541.49 1958.63 1537.76 Q1958.63 1534.01 1956.78 1531.86 Q1954.95 1529.7 1951.8 1529.7 M1961.08 1515.05 L1961.08 1519.31 Q1959.32 1518.48 1957.52 1518.04 Q1955.74 1517.6 1953.98 1517.6 Q1949.35 1517.6 1946.89 1520.72 Q1944.46 1523.85 1944.12 1530.17 Q1945.48 1528.15 1947.54 1527.09 Q1949.6 1526 1952.08 1526 Q1957.29 1526 1960.3 1529.17 Q1963.33 1532.32 1963.33 1537.76 Q1963.33 1543.08 1960.18 1546.3 Q1957.03 1549.52 1951.8 1549.52 Q1945.81 1549.52 1942.63 1544.94 Q1939.46 1540.33 1939.46 1531.6 Q1939.46 1523.41 1943.35 1518.55 Q1947.24 1513.66 1953.79 1513.66 Q1955.55 1513.66 1957.33 1514.01 Q1959.14 1514.36 1961.08 1515.05 Z" fill="#000000" fill-rule="nonzero" fill-opacity="1" /><path clip-path="url(#clip300)" d="M2280.42 1514.29 L2302.64 1514.29 L2302.64 1516.28 L2290.1 1548.85 L2285.21 1548.85 L2297.02 1518.22 L2280.42 1518.22 L2280.42 1514.29 Z" fill="#000000" fill-rule="nonzero" fill-opacity="1" /><polyline clip-path="url(#clip300)" style="stroke:#000000; stroke-linecap:round; stroke-linejoin:round; stroke-width:4; stroke-opacity:1; fill:none" points="189.496,1486.45 189.496,47.2441 "/>
<polyline clip-path="url(#clip300)" style="stroke:#000000; stroke-linecap:round; stroke-linejoin:round; stroke-width:4; stroke-opacity:1; fill:none" points="189.496,1340.17 208.394,1340.17 "/>
<polyline clip-path="url(#clip300)" style="stroke:#000000; stroke-linecap:round; stroke-linejoin:round; stroke-width:4; stroke-opacity:1; fill:none" points="189.496,688.484 208.394,688.484 "/>
<path clip-path="url(#clip300)" d="M51.6634 1359.96 L59.3023 1359.96 L59.3023 1333.6 L50.9921 1335.26 L50.9921 1331 L59.256 1329.34 L63.9319 1329.34 L63.9319 1359.96 L71.5707 1359.96 L71.5707 1363.9 L51.6634 1363.9 L51.6634 1359.96 Z" fill="#000000" fill-rule="nonzero" fill-opacity="1" /><path clip-path="url(#clip300)" d="M91.0151 1332.42 Q87.404 1332.42 85.5753 1335.98 Q83.7697 1339.52 83.7697 1346.65 Q83.7697 1353.76 85.5753 1357.32 Q87.404 1360.86 91.0151 1360.86 Q94.6493 1360.86 96.4548 1357.32 Q98.2835 1353.76 98.2835 1346.65 Q98.2835 1339.52 96.4548 1335.98 Q94.6493 1332.42 91.0151 1332.42 M91.0151 1328.71 Q96.8252 1328.71 99.8808 1333.32 Q102.959 1337.9 102.959 1346.65 Q102.959 1355.38 99.8808 1359.98 Q96.8252 1364.57 91.0151 1364.57 Q85.2049 1364.57 82.1262 1359.98 Q79.0707 1355.38 79.0707 1346.65 Q79.0707 1337.9 82.1262 1333.32 Q85.2049 1328.71 91.0151 1328.71 Z" fill="#000000" fill-rule="nonzero" fill-opacity="1" /><path clip-path="url(#clip300)" d="M102.959 1322.81 L127.071 1322.81 L127.071 1326.01 L102.959 1326.01 L102.959 1322.81 Z" fill="#000000" fill-rule="nonzero" fill-opacity="1" /><path clip-path="url(#clip300)" d="M145.71 1311.72 L136.118 1326.71 L145.71 1326.71 L145.71 1311.72 M144.713 1308.41 L149.49 1308.41 L149.49 1326.71 L153.496 1326.71 L153.496 1329.87 L149.49 1329.87 L149.49 1336.49 L145.71 1336.49 L145.71 1329.87 L133.033 1329.87 L133.033 1326.2 L144.713 1308.41 Z" fill="#000000" fill-rule="nonzero" fill-opacity="1" /><path clip-path="url(#clip300)" d="M53.3561 708.276 L60.995 708.276 L60.995 681.911 L52.6848 683.577 L52.6848 679.318 L60.9487 677.652 L65.6246 677.652 L65.6246 708.276 L73.2634 708.276 L73.2634 712.212 L53.3561 712.212 L53.3561 708.276 Z" fill="#000000" fill-rule="nonzero" fill-opacity="1" /><path clip-path="url(#clip300)" d="M92.7078 680.73 Q89.0967 680.73 87.268 684.295 Q85.4624 687.837 85.4624 694.966 Q85.4624 702.073 87.268 705.637 Q89.0967 709.179 92.7078 709.179 Q96.342 709.179 98.1475 705.637 Q99.9762 702.073 99.9762 694.966 Q99.9762 687.837 98.1475 684.295 Q96.342 680.73 92.7078 680.73 M92.7078 677.027 Q98.5179 677.027 101.573 681.633 Q104.652 686.216 104.652 694.966 Q104.652 703.693 101.573 708.299 Q98.5179 712.883 92.7078 712.883 Q86.8976 712.883 83.8189 708.299 Q80.7634 703.693 80.7634 694.966 Q80.7634 686.216 83.8189 681.633 Q86.8976 677.027 92.7078 677.027 Z" fill="#000000" fill-rule="nonzero" fill-opacity="1" /><path clip-path="url(#clip300)" d="M104.652 671.128 L128.764 671.128 L128.764 674.325 L104.652 674.325 L104.652 671.128 Z" fill="#000000" fill-rule="nonzero" fill-opacity="1" /><path clip-path="url(#clip300)" d="M140.236 681.604 L153.496 681.604 L153.496 684.801 L135.666 684.801 L135.666 681.604 Q137.829 679.366 141.553 675.604 Q145.296 671.824 146.255 670.733 Q148.079 668.683 148.794 667.272 Q149.527 665.843 149.527 664.47 Q149.527 662.232 147.948 660.821 Q146.387 659.411 143.866 659.411 Q142.08 659.411 140.086 660.031 Q138.111 660.652 135.854 661.912 L135.854 658.075 Q138.149 657.154 140.142 656.683 Q142.136 656.213 143.791 656.213 Q148.155 656.213 150.75 658.395 Q153.345 660.577 153.345 664.225 Q153.345 665.956 152.687 667.517 Q152.048 669.059 150.336 671.165 Q149.866 671.711 147.346 674.325 Q144.826 676.921 140.236 681.604 Z" fill="#000000" fill-rule="nonzero" fill-opacity="1" /><polyline clip-path="url(#clip302)" style="stroke:#009af9; stroke-linecap:round; stroke-linejoin:round; stroke-width:4; stroke-opacity:1; fill:none" points="250.72,87.9763 590.855,353.201 930.991,765.277 1271.13,742.177 1611.26,946.274 1951.4,1227.73 2291.53,1445.72 "/>
<line clip-path="url(#clip302)" x1="250.72" y1="87.9763" x2="234.72" y2="71.9763" style="stroke:#009af9; stroke-width:4; stroke-opacity:1"/>
<line clip-path="url(#clip302)" x1="250.72" y1="87.9763" x2="234.72" y2="103.976" style="stroke:#009af9; stroke-width:4; stroke-opacity:1"/>
<line clip-path="url(#clip302)" x1="250.72" y1="87.9763" x2="266.72" y2="103.976" style="stroke:#009af9; stroke-width:4; stroke-opacity:1"/>
<line clip-path="url(#clip302)" x1="250.72" y1="87.9763" x2="266.72" y2="71.9763" style="stroke:#009af9; stroke-width:4; stroke-opacity:1"/>
<line clip-path="url(#clip302)" x1="590.855" y1="353.201" x2="574.855" y2="337.201" style="stroke:#009af9; stroke-width:4; stroke-opacity:1"/>
<line clip-path="url(#clip302)" x1="590.855" y1="353.201" x2="574.855" y2="369.201" style="stroke:#009af9; stroke-width:4; stroke-opacity:1"/>
<line clip-path="url(#clip302)" x1="590.855" y1="353.201" x2="606.855" y2="369.201" style="stroke:#009af9; stroke-width:4; stroke-opacity:1"/>
<line clip-path="url(#clip302)" x1="590.855" y1="353.201" x2="606.855" y2="337.201" style="stroke:#009af9; stroke-width:4; stroke-opacity:1"/>
<line clip-path="url(#clip302)" x1="930.991" y1="765.277" x2="914.991" y2="749.277" style="stroke:#009af9; stroke-width:4; stroke-opacity:1"/>
<line clip-path="url(#clip302)" x1="930.991" y1="765.277" x2="914.991" y2="781.277" style="stroke:#009af9; stroke-width:4; stroke-opacity:1"/>
<line clip-path="url(#clip302)" x1="930.991" y1="765.277" x2="946.991" y2="781.277" style="stroke:#009af9; stroke-width:4; stroke-opacity:1"/>
<line clip-path="url(#clip302)" x1="930.991" y1="765.277" x2="946.991" y2="749.277" style="stroke:#009af9; stroke-width:4; stroke-opacity:1"/>
<line clip-path="url(#clip302)" x1="1271.13" y1="742.177" x2="1255.13" y2="726.177" style="stroke:#009af9; stroke-width:4; stroke-opacity:1"/>
<line clip-path="url(#clip302)" x1="1271.13" y1="742.177" x2="1255.13" y2="758.177" style="stroke:#009af9; stroke-width:4; stroke-opacity:1"/>
<line clip-path="url(#clip302)" x1="1271.13" y1="742.177" x2="1287.13" y2="758.177" style="stroke:#009af9; stroke-width:4; stroke-opacity:1"/>
<line clip-path="url(#clip302)" x1="1271.13" y1="742.177" x2="1287.13" y2="726.177" style="stroke:#009af9; stroke-width:4; stroke-opacity:1"/>
<line clip-path="url(#clip302)" x1="1611.26" y1="946.274" x2="1595.26" y2="930.274" style="stroke:#009af9; stroke-width:4; stroke-opacity:1"/>
<line clip-path="url(#clip302)" x1="1611.26" y1="946.274" x2="1595.26" y2="962.274" style="stroke:#009af9; stroke-width:4; stroke-opacity:1"/>
<line clip-path="url(#clip302)" x1="1611.26" y1="946.274" x2="1627.26" y2="962.274" style="stroke:#009af9; stroke-width:4; stroke-opacity:1"/>
<line clip-path="url(#clip302)" x1="1611.26" y1="946.274" x2="1627.26" y2="930.274" style="stroke:#009af9; stroke-width:4; stroke-opacity:1"/>
<line clip-path="url(#clip302)" x1="1951.4" y1="1227.73" x2="1935.4" y2="1211.73" style="stroke:#009af9; stroke-width:4; stroke-opacity:1"/>
<line clip-path="url(#clip302)" x1="1951.4" y1="1227.73" x2="1935.4" y2="1243.73" style="stroke:#009af9; stroke-width:4; stroke-opacity:1"/>
<line clip-path="url(#clip302)" x1="1951.4" y1="1227.73" x2="1967.4" y2="1243.73" style="stroke:#009af9; stroke-width:4; stroke-opacity:1"/>
<line clip-path="url(#clip302)" x1="1951.4" y1="1227.73" x2="1967.4" y2="1211.73" style="stroke:#009af9; stroke-width:4; stroke-opacity:1"/>
<line clip-path="url(#clip302)" x1="2291.53" y1="1445.72" x2="2275.53" y2="1429.72" style="stroke:#009af9; stroke-width:4; stroke-opacity:1"/>
<line clip-path="url(#clip302)" x1="2291.53" y1="1445.72" x2="2275.53" y2="1461.72" style="stroke:#009af9; stroke-width:4; stroke-opacity:1"/>
<line clip-path="url(#clip302)" x1="2291.53" y1="1445.72" x2="2307.53" y2="1461.72" style="stroke:#009af9; stroke-width:4; stroke-opacity:1"/>
<line clip-path="url(#clip302)" x1="2291.53" y1="1445.72" x2="2307.53" y2="1429.72" style="stroke:#009af9; stroke-width:4; stroke-opacity:1"/>
<path clip-path="url(#clip300)" d="M1816.13 198.898 L2280.65 198.898 L2280.65 95.2176 L1816.13 95.2176  Z" fill="#ffffff" fill-rule="evenodd" fill-opacity="1"/>
<polyline clip-path="url(#clip300)" style="stroke:#000000; stroke-linecap:round; stroke-linejoin:round; stroke-width:4; stroke-opacity:1; fill:none" points="1816.13,198.898 2280.65,198.898 2280.65,95.2176 1816.13,95.2176 1816.13,198.898 "/>
<polyline clip-path="url(#clip300)" style="stroke:#009af9; stroke-linecap:round; stroke-linejoin:round; stroke-width:4; stroke-opacity:1; fill:none" points="1840.16,147.058 1984.38,147.058 "/>
<line clip-path="url(#clip300)" x1="1912.27" y1="147.058" x2="1890.02" y2="124.802" style="stroke:#009af9; stroke-width:4.55111; stroke-opacity:1"/>
<line clip-path="url(#clip300)" x1="1912.27" y1="147.058" x2="1890.02" y2="169.313" style="stroke:#009af9; stroke-width:4.55111; stroke-opacity:1"/>
<line clip-path="url(#clip300)" x1="1912.27" y1="147.058" x2="1934.53" y2="169.313" style="stroke:#009af9; stroke-width:4.55111; stroke-opacity:1"/>
<line clip-path="url(#clip300)" x1="1912.27" y1="147.058" x2="1934.53" y2="124.802" style="stroke:#009af9; stroke-width:4.55111; stroke-opacity:1"/>
<path clip-path="url(#clip300)" d="M2012.35 128.111 L2012.35 175.518 L2008.42 175.518 L2008.42 128.111 L2012.35 128.111 Z" fill="#000000" fill-rule="nonzero" fill-opacity="1" /><path clip-path="url(#clip300)" d="M2024.76 143.041 Q2026.17 140.68 2029.67 138.597 Q2031.03 137.787 2035.25 137.787 Q2039.97 137.787 2042.91 141.537 Q2045.87 145.287 2045.87 151.398 Q2045.87 157.509 2042.91 161.259 Q2039.97 165.009 2035.25 165.009 Q2032.4 165.009 2030.34 163.898 Q2028.3 162.763 2026.96 160.449 L2026.96 174.199 L2022.68 174.199 L2022.68 151.629 Q2022.68 146.282 2024.76 143.041 M2041.45 151.398 Q2041.45 146.699 2039.51 144.037 Q2037.58 141.352 2034.2 141.352 Q2030.83 141.352 2028.88 144.037 Q2026.96 146.699 2026.96 151.398 Q2026.96 156.097 2028.88 158.782 Q2030.83 161.444 2034.2 161.444 Q2037.58 161.444 2039.51 158.782 Q2041.45 156.097 2041.45 151.398 Z" fill="#000000" fill-rule="nonzero" fill-opacity="1" /><path clip-path="url(#clip300)" d="M2062.98 141.398 Q2059.55 141.398 2057.56 144.083 Q2055.57 146.745 2055.57 151.398 Q2055.57 156.051 2057.54 158.736 Q2059.53 161.398 2062.98 161.398 Q2066.38 161.398 2068.37 158.713 Q2070.36 156.027 2070.36 151.398 Q2070.36 146.791 2068.37 144.106 Q2066.38 141.398 2062.98 141.398 M2062.98 137.787 Q2068.53 137.787 2071.7 141.398 Q2074.88 145.009 2074.88 151.398 Q2074.88 157.764 2071.7 161.398 Q2068.53 165.009 2062.98 165.009 Q2057.4 165.009 2054.23 161.398 Q2051.08 157.764 2051.08 151.398 Q2051.08 145.009 2054.23 141.398 Q2057.4 137.787 2062.98 137.787 Z" fill="#000000" fill-rule="nonzero" fill-opacity="1" /><path clip-path="url(#clip300)" d="M2081.5 154.106 L2081.5 138.412 L2085.76 138.412 L2085.76 153.944 Q2085.76 157.625 2087.19 159.476 Q2088.63 161.305 2091.5 161.305 Q2094.95 161.305 2096.94 159.106 Q2098.95 156.907 2098.95 153.111 L2098.95 138.412 L2103.21 138.412 L2103.21 164.338 L2098.95 164.338 L2098.95 160.356 Q2097.4 162.717 2095.34 163.875 Q2093.3 165.009 2090.59 165.009 Q2086.13 165.009 2083.81 162.231 Q2081.5 159.453 2081.5 154.106 M2092.21 137.787 L2092.21 137.787 Z" fill="#000000" fill-rule="nonzero" fill-opacity="1" /><path clip-path="url(#clip300)" d="M2116.2 131.051 L2116.2 138.412 L2124.97 138.412 L2124.97 141.722 L2116.2 141.722 L2116.2 155.796 Q2116.2 158.967 2117.05 159.87 Q2117.93 160.773 2120.59 160.773 L2124.97 160.773 L2124.97 164.338 L2120.59 164.338 Q2115.66 164.338 2113.79 162.509 Q2111.91 160.657 2111.91 155.796 L2111.91 141.722 L2108.79 141.722 L2108.79 138.412 L2111.91 138.412 L2111.91 131.051 L2116.2 131.051 Z" fill="#000000" fill-rule="nonzero" fill-opacity="1" /><path clip-path="url(#clip300)" d="M2143.49 149.453 L2155.96 149.453 L2155.96 153.25 L2143.49 153.25 L2143.49 149.453 Z" fill="#000000" fill-rule="nonzero" fill-opacity="1" /><path clip-path="url(#clip300)" d="M2179.74 143.041 Q2181.15 140.68 2184.64 138.597 Q2186.01 137.787 2190.22 137.787 Q2194.94 137.787 2197.88 141.537 Q2200.85 145.287 2200.85 151.398 Q2200.85 157.509 2197.88 161.259 Q2194.94 165.009 2190.22 165.009 Q2187.38 165.009 2185.32 163.898 Q2183.28 162.763 2181.94 160.449 L2181.94 174.199 L2177.65 174.199 L2177.65 151.629 Q2177.65 146.282 2179.74 143.041 M2196.43 151.398 Q2196.43 146.699 2194.48 144.037 Q2192.56 141.352 2189.18 141.352 Q2185.8 141.352 2183.86 144.037 Q2181.94 146.699 2181.94 151.398 Q2181.94 156.097 2183.86 158.782 Q2185.8 161.444 2189.18 161.444 Q2192.56 161.444 2194.48 158.782 Q2196.43 156.097 2196.43 151.398 Z" fill="#000000" fill-rule="nonzero" fill-opacity="1" /><path clip-path="url(#clip300)" d="M2207.91 138.412 L2212.17 138.412 L2212.17 164.338 L2207.91 164.338 L2207.91 138.412 M2207.91 128.319 L2212.17 128.319 L2212.17 133.713 L2207.91 133.713 L2207.91 128.319 Z" fill="#000000" fill-rule="nonzero" fill-opacity="1" /><path clip-path="url(#clip300)" d="M2242.63 148.689 L2242.63 164.338 L2238.37 164.338 L2238.37 148.828 Q2238.37 145.148 2236.94 143.319 Q2235.5 141.49 2232.63 141.49 Q2229.18 141.49 2227.19 143.69 Q2225.2 145.889 2225.2 149.685 L2225.2 164.338 L2220.92 164.338 L2220.92 138.412 L2225.2 138.412 L2225.2 142.44 Q2226.73 140.102 2228.79 138.944 Q2230.87 137.787 2233.58 137.787 Q2238.05 137.787 2240.34 140.565 Q2242.63 143.319 2242.63 148.689 Z" fill="#000000" fill-rule="nonzero" fill-opacity="1" /><path clip-path="url(#clip300)" d="M2256.61 128.111 L2256.61 175.518 L2252.68 175.518 L2252.68 128.111 L2256.61 128.111 Z" fill="#000000" fill-rule="nonzero" fill-opacity="1" /></svg>
