<?xml version="1.0" encoding="utf-8"?>
<svg xmlns="http://www.w3.org/2000/svg" xmlns:xlink="http://www.w3.org/1999/xlink" width="600" height="400" viewBox="0 0 2400 1600">
<defs>
  <clipPath id="clip480">
    <rect x="0" y="0" width="2400" height="1600"/>
  </clipPath>
</defs>
<path clip-path="url(#clip480)" d="M0 1600 L2400 1600 L2400 0 L0 0  Z" fill="#ffffff" fill-rule="evenodd" fill-opacity="1"/>
<defs>
  <clipPath id="clip481">
    <rect x="480" y="0" width="1681" height="1600"/>
  </clipPath>
</defs>
<path clip-path="url(#clip480)" d="M189.496 1486.45 L2352.76 1486.45 L2352.76 47.2441 L189.496 47.2441  Z" fill="#ffffff" fill-rule="evenodd" fill-opacity="1"/>
<defs>
  <clipPath id="clip482">
    <rect x="189" y="47" width="2164" height="1440"/>
  </clipPath>
</defs>
<polyline clip-path="url(#clip482)" style="stroke:#000000; stroke-linecap:round; stroke-linejoin:round; stroke-width:2; stroke-opacity:0.1; fill:none" points="542.265,1486.45 542.265,47.2441 "/>
<polyline clip-path="url(#clip482)" style="stroke:#000000; stroke-linecap:round; stroke-linejoin:round; stroke-width:2; stroke-opacity:0.1; fill:none" points="1125.35,1486.45 1125.35,47.2441 "/>
<polyline clip-path="url(#clip482)" style="stroke:#000000; stroke-linecap:round; stroke-linejoin:round; stroke-width:2; stroke-opacity:0.1; fill:none" points="1708.44,1486.45 1708.44,47.2441 "/>
<polyline clip-path="url(#clip482)" style="stroke:#000000; stroke-linecap:round; stroke-linejoin:round; stroke-width:2; stroke-opacity:0.1; fill:none" points="2291.53,1486.45 2291.53,47.2441 "/>
<polyline clip-path="url(#clip480)" style="stroke:#000000; stroke-linecap:round; stroke-linejoin:round; stroke-width:4; stroke-opacity:1; fill:none" points="189.496,1486.45 2352.76,1486.45 "/>
<polyline clip-path="url(#clip480)" style="stroke:#000000; stroke-linecap:round; stroke-linejoin:round; stroke-width:4; stroke-opacity:1; fill:none" points="542.265,1486.45 542.265,1467.55 "/>
<polyline clip-path="url(#clip480)" style="stroke:#000000; stroke-linecap:round; stroke-linejoin:round; stroke-width:4; stroke-opacity:1; fill:none" points="1125.35,1486.45 1125.35,1467.55 "/>
<polyline clip-path="url(#clip480)" style="stroke:#000000; stroke-linecap:round; stroke-linejoin:round; stroke-width:4; stroke-opacity:1; fill:none" points="1708.44,1486.45 1708.44,1467.55 "/>
<polyline clip-path="url(#clip480)" style="stroke:#000000; stroke-linecap:round; stroke-linejoin:round; stroke-width:4; stroke-opacity:1; fill:none" points="2291.53,1486.45 2291.53,1467.55 "/>
<path clip-path="url(#clip480)" d="M536.918 1544.91 L553.237 1544.91 L553.237 1548.85 L531.293 1548.85 L531.293 1544.91 Q533.955 1542.16 538.538 1537.53 Q543.144 1532.88 544.325 1531.53 Q546.57 1529.01 547.45 1527.27 Q548.353 1525.51 548.353 1523.82 Q548.353 1521.07 546.408 1519.33 Q544.487 1517.6 541.385 1517.6 Q539.186 1517.6 536.732 1518.36 Q534.302 1519.13 531.524 1520.68 L531.524 1515.95 Q534.348 1514.82 536.802 1514.24 Q539.255 1513.66 541.293 1513.66 Q546.663 1513.66 549.857 1516.35 Q553.052 1519.03 553.052 1523.52 Q553.052 1525.65 552.242 1527.57 Q551.454 1529.47 549.348 1532.07 Q548.769 1532.74 545.667 1535.95 Q542.566 1539.15 536.918 1544.91 Z" fill="#000000" fill-rule="nonzero" fill-opacity="1" /><path clip-path="url(#clip480)" d="M1128.36 1518.36 L1116.56 1536.81 L1128.36 1536.81 L1128.36 1518.36 M1127.14 1514.29 L1133.02 1514.29 L1133.02 1536.81 L1137.95 1536.81 L1137.95 1540.7 L1133.02 1540.7 L1133.02 1548.85 L1128.36 1548.85 L1128.36 1540.7 L1112.76 1540.7 L1112.76 1536.19 L1127.14 1514.29 Z" fill="#000000" fill-rule="nonzero" fill-opacity="1" /><path clip-path="url(#clip480)" d="M1708.85 1529.7 Q1705.7 1529.7 1703.85 1531.86 Q1702.02 1534.01 1702.02 1537.76 Q1702.02 1541.49 1703.85 1543.66 Q1705.7 1545.82 1708.85 1545.82 Q1712 1545.82 1713.82 1543.66 Q1715.68 1541.49 1715.68 1537.76 Q1715.68 1534.01 1713.82 1531.86 Q1712 1529.7 1708.85 1529.7 M1718.13 1515.05 L1718.13 1519.31 Q1716.37 1518.48 1714.57 1518.04 Q1712.78 1517.6 1711.02 1517.6 Q1706.39 1517.6 1703.94 1520.72 Q1701.51 1523.85 1701.16 1530.17 Q1702.53 1528.15 1704.59 1527.09 Q1706.65 1526 1709.13 1526 Q1714.33 1526 1717.34 1529.17 Q1720.38 1532.32 1720.38 1537.76 Q1720.38 1543.08 1717.23 1546.3 Q1714.08 1549.52 1708.85 1549.52 Q1702.85 1549.52 1699.68 1544.94 Q1696.51 1540.33 1696.51 1531.6 Q1696.51 1523.41 1700.4 1518.55 Q1704.29 1513.66 1710.84 1513.66 Q1712.6 1513.66 1714.38 1514.01 Q1716.19 1514.36 1718.13 1515.05 Z" fill="#000000" fill-rule="nonzero" fill-opacity="1" /><path clip-path="url(#clip480)" d="M2291.53 1532.44 Q2288.2 1532.44 2286.28 1534.22 Q2284.38 1536 2284.38 1539.13 Q2284.38 1542.25 2286.28 1544.03 Q2288.2 1545.82 2291.53 1545.82 Q2294.86 1545.82 2296.79 1544.03 Q2298.71 1542.23 2298.71 1539.13 Q2298.71 1536 2296.79 1534.22 Q2294.89 1532.44 2291.53 1532.44 M2286.86 1530.45 Q2283.85 1529.7 2282.16 1527.64 Q2280.49 1525.58 2280.49 1522.62 Q2280.49 1518.48 2283.43 1516.07 Q2286.39 1513.66 2291.53 1513.66 Q2296.69 1513.66 2299.63 1516.07 Q2302.57 1518.48 2302.57 1522.62 Q2302.57 1525.58 2300.88 1527.64 Q2299.22 1529.7 2296.23 1530.45 Q2299.61 1531.23 2301.49 1533.52 Q2303.38 1535.82 2303.38 1539.13 Q2303.38 1544.15 2300.3 1546.83 Q2297.25 1549.52 2291.53 1549.52 Q2285.81 1549.52 2282.74 1546.83 Q2279.68 1544.15 2279.68 1539.13 Q2279.68 1535.82 2281.58 1533.52 Q2283.48 1531.23 2286.86 1530.45 M2285.14 1523.06 Q2285.14 1525.75 2286.81 1527.25 Q2288.5 1528.76 2291.53 1528.76 Q2294.54 1528.76 2296.23 1527.25 Q2297.94 1525.75 2297.94 1523.06 Q2297.94 1520.38 2296.23 1518.87 Q2294.54 1517.37 2291.53 1517.37 Q2288.5 1517.37 2286.81 1518.87 Q2285.14 1520.38 2285.14 1523.06 Z" fill="#000000" fill-rule="nonzero" fill-opacity="1" /><polyline clip-path="url(#clip482)" style="stroke:#000000; stroke-linecap:round; stroke-linejoin:round; stroke-width:2; stroke-opacity:0.1; fill:none" points="189.496,1311.51 2352.76,1311.51 "/>
<polyline clip-path="url(#clip482)" style="stroke:#000000; stroke-linecap:round; stroke-linejoin:round; stroke-width:2; stroke-opacity:0.1; fill:none" points="189.496,1008.42 2352.76,1008.42 "/>
<polyline clip-path="url(#clip482)" style="stroke:#000000; stroke-linecap:round; stroke-linejoin:round; stroke-width:2; stroke-opacity:0.1; fill:none" points="189.496,705.338 2352.76,705.338 "/>
<polyline clip-path="url(#clip482)" style="stroke:#000000; stroke-linecap:round; stroke-linejoin:round; stroke-width:2; stroke-opacity:0.1; fill:none" points="189.496,402.253 2352.76,402.253 "/>
<polyline clip-path="url(#clip482)" style="stroke:#000000; stroke-linecap:round; stroke-linejoin:round; stroke-width:2; stroke-opacity:0.1; fill:none" points="189.496,99.1682 2352.76,99.1682 "/>
<polyline clip-path="url(#clip480)" style="stroke:#000000; stroke-linecap:round; stroke-linejoin:round; stroke-width:4; stroke-opacity:1; fill:none" points="189.496,1486.45 189.496,47.2441 "/>
<polyline clip-path="url(#clip480)" style="stroke:#000000; stroke-linecap:round; stroke-linejoin:round; stroke-width:4; stroke-opacity:1; fill:none" points="189.496,1311.51 208.394,1311.51 "/>
<polyline clip-path="url(#clip480)" style="stroke:#000000; stroke-linecap:round; stroke-linejoin:round; stroke-width:4; stroke-opacity:1; fill:none" points="189.496,1008.42 208.394,1008.42 "/>
<polyline clip-path="url(#clip480)" style="stroke:#000000; stroke-linecap:round; stroke-linejoin:round; stroke-width:4; stroke-opacity:1; fill:none" points="189.496,705.338 208.394,705.338 "/>
<polyline clip-path="url(#clip480)" style="stroke:#000000; stroke-linecap:round; stroke-linejoin:round; stroke-width:4; stroke-opacity:1; fill:none" points="189.496,402.253 208.394,402.253 "/>
<polyline clip-path="url(#clip480)" style="stroke:#000000; stroke-linecap:round; stroke-linejoin:round; stroke-width:4; stroke-opacity:1; fill:none" points="189.496,99.1682 208.394,99.1682 "/>
<path clip-path="url(#clip480)" d="M51.6634 1331.3 L59.3023 1331.3 L59.3023 1304.94 L50.9921 1306.6 L50.9921 1302.34 L59.256 1300.68 L63.9319 1300.68 L63.9319 1331.3 L71.5707 1331.3 L71.5707 1335.24 L51.6634 1335.24 L51.6634 1331.3 Z" fill="#000000" fill-rule="nonzero" fill-opacity="1" /><path clip-path="url(#clip480)" d="M91.0151 1303.75 Q87.404 1303.75 85.5753 1307.32 Q83.7697 1310.86 83.7697 1317.99 Q83.7697 1325.1 85.5753 1328.66 Q87.404 1332.2 91.0151 1332.2 Q94.6493 1332.2 96.4548 1328.66 Q98.2835 1325.1 98.2835 1317.99 Q98.2835 1310.86 96.4548 1307.32 Q94.6493 1303.75 91.0151 1303.75 M91.0151 1300.05 Q96.8252 1300.05 99.8808 1304.66 Q102.959 1309.24 102.959 1317.99 Q102.959 1326.72 99.8808 1331.32 Q96.8252 1335.91 91.0151 1335.91 Q85.2049 1335.91 82.1262 1331.32 Q79.0707 1326.72 79.0707 1317.99 Q79.0707 1309.24 82.1262 1304.66 Q85.2049 1300.05 91.0151 1300.05 Z" fill="#000000" fill-rule="nonzero" fill-opacity="1" /><path clip-path="url(#clip480)" d="M102.959 1294.15 L127.071 1294.15 L127.071 1297.35 L102.959 1297.35 L102.959 1294.15 Z" fill="#000000" fill-rule="nonzero" fill-opacity="1" /><path clip-path="url(#clip480)" d="M145.71 1283.06 L136.118 1298.05 L145.71 1298.05 L145.71 1283.06 M144.713 1279.75 L149.49 1279.75 L149.49 1298.05 L153.496 1298.05 L153.496 1301.21 L149.49 1301.21 L149.49 1307.83 L145.71 1307.83 L145.71 1301.21 L133.033 1301.21 L133.033 1297.54 L144.713 1279.75 Z" fill="#000000" fill-rule="nonzero" fill-opacity="1" /><path clip-path="url(#clip480)" d="M52.585 1028.22 L60.2238 1028.22 L60.2238 1001.85 L51.9137 1003.52 L51.9137 999.258 L60.1776 997.591 L64.8535 997.591 L64.8535 1028.22 L72.4923 1028.22 L72.4923 1032.15 L52.585 1032.15 L52.585 1028.22 Z" fill="#000000" fill-rule="nonzero" fill-opacity="1" /><path clip-path="url(#clip480)" d="M91.9366 1000.67 Q88.3255 1000.67 86.4969 1004.23 Q84.6913 1007.78 84.6913 1014.91 Q84.6913 1022.01 86.4969 1025.58 Q88.3255 1029.12 91.9366 1029.12 Q95.5709 1029.12 97.3764 1025.58 Q99.2051 1022.01 99.2051 1014.91 Q99.2051 1007.78 97.3764 1004.23 Q95.5709 1000.67 91.9366 1000.67 M91.9366 996.966 Q97.7468 996.966 100.802 1001.57 Q103.881 1006.16 103.881 1014.91 Q103.881 1023.63 100.802 1028.24 Q97.7468 1032.82 91.9366 1032.82 Q86.1265 1032.82 83.0478 1028.24 Q79.9923 1023.63 79.9923 1014.91 Q79.9923 1006.16 83.0478 1001.57 Q86.1265 996.966 91.9366 996.966 Z" fill="#000000" fill-rule="nonzero" fill-opacity="1" /><path clip-path="url(#clip480)" d="M103.881 991.067 L127.993 991.067 L127.993 994.265 L103.881 994.265 L103.881 991.067 Z" fill="#000000" fill-rule="nonzero" fill-opacity="1" /><path clip-path="url(#clip480)" d="M147.703 989.6 Q150.43 990.183 151.954 992.026 Q153.496 993.87 153.496 996.578 Q153.496 1000.73 150.637 1003.01 Q147.778 1005.29 142.512 1005.29 Q140.744 1005.29 138.863 1004.93 Q137.002 1004.59 135.008 1003.89 L135.008 1000.23 Q136.588 1001.15 138.469 1001.62 Q140.349 1002.09 142.399 1002.09 Q145.973 1002.09 147.835 1000.68 Q149.716 999.267 149.716 996.578 Q149.716 994.095 147.966 992.704 Q146.236 991.293 143.133 991.293 L139.86 991.293 L139.86 988.171 L143.283 988.171 Q146.086 988.171 147.571 987.061 Q149.057 985.933 149.057 983.826 Q149.057 981.663 147.515 980.516 Q145.992 979.35 143.133 979.35 Q141.572 979.35 139.785 979.689 Q137.998 980.027 135.854 980.742 L135.854 977.356 Q138.017 976.755 139.898 976.454 Q141.797 976.153 143.471 976.153 Q147.797 976.153 150.317 978.127 Q152.838 980.084 152.838 983.431 Q152.838 985.763 151.502 987.381 Q150.167 988.98 147.703 989.6 Z" fill="#000000" fill-rule="nonzero" fill-opacity="1" /><path clip-path="url(#clip480)" d="M53.3561 725.131 L60.995 725.131 L60.995 698.765 L52.6848 700.432 L52.6848 696.173 L60.9487 694.506 L65.6246 694.506 L65.6246 725.131 L73.2634 725.131 L73.2634 729.066 L53.3561 729.066 L53.3561 725.131 Z" fill="#000000" fill-rule="nonzero" fill-opacity="1" /><path clip-path="url(#clip480)" d="M92.7078 697.585 Q89.0967 697.585 87.268 701.149 Q85.4624 704.691 85.4624 711.821 Q85.4624 718.927 87.268 722.492 Q89.0967 726.033 92.7078 726.033 Q96.342 726.033 98.1475 722.492 Q99.9762 718.927 99.9762 711.821 Q99.9762 704.691 98.1475 701.149 Q96.342 697.585 92.7078 697.585 M92.7078 693.881 Q98.5179 693.881 101.573 698.487 Q104.652 703.071 104.652 711.821 Q104.652 720.547 101.573 725.154 Q98.5179 729.737 92.7078 729.737 Q86.8976 729.737 83.8189 725.154 Q80.7634 720.547 80.7634 711.821 Q80.7634 703.071 83.8189 698.487 Q86.8976 693.881 92.7078 693.881 Z" fill="#000000" fill-rule="nonzero" fill-opacity="1" /><path clip-path="url(#clip480)" d="M104.652 687.982 L128.764 687.982 L128.764 691.18 L104.652 691.18 L104.652 687.982 Z" fill="#000000" fill-rule="nonzero" fill-opacity="1" /><path clip-path="url(#clip480)" d="M140.236 698.458 L153.496 698.458 L153.496 701.655 L135.666 701.655 L135.666 698.458 Q137.829 696.22 141.553 692.458 Q145.296 688.678 146.255 687.587 Q148.079 685.537 148.794 684.127 Q149.527 682.697 149.527 681.324 Q149.527 679.086 147.948 677.676 Q146.387 676.265 143.866 676.265 Q142.08 676.265 140.086 676.886 Q138.111 677.506 135.854 678.766 L135.854 674.93 Q138.149 674.008 140.142 673.538 Q142.136 673.068 143.791 673.068 Q148.155 673.068 150.75 675.249 Q153.345 677.431 153.345 681.08 Q153.345 682.81 152.687 684.371 Q152.048 685.913 150.336 688.02 Q149.866 688.565 147.346 691.18 Q144.826 693.775 140.236 698.458 Z" fill="#000000" fill-rule="nonzero" fill-opacity="1" /><path clip-path="url(#clip480)" d="M53.0552 422.046 L60.694 422.046 L60.694 395.68 L52.3839 397.347 L52.3839 393.087 L60.6477 391.421 L65.3236 391.421 L65.3236 422.046 L72.9625 422.046 L72.9625 425.981 L53.0552 425.981 L53.0552 422.046 Z" fill="#000000" fill-rule="nonzero" fill-opacity="1" /><path clip-path="url(#clip480)" d="M92.4068 394.5 Q88.7957 394.5 86.967 398.064 Q85.1615 401.606 85.1615 408.736 Q85.1615 415.842 86.967 419.407 Q88.7957 422.948 92.4068 422.948 Q96.0411 422.948 97.8466 419.407 Q99.6753 415.842 99.6753 408.736 Q99.6753 401.606 97.8466 398.064 Q96.0411 394.5 92.4068 394.5 M92.4068 390.796 Q98.217 390.796 101.273 395.402 Q104.351 399.986 104.351 408.736 Q104.351 417.462 101.273 422.069 Q98.217 426.652 92.4068 426.652 Q86.5967 426.652 83.518 422.069 Q80.4625 417.462 80.4625 408.736 Q80.4625 399.986 83.518 395.402 Q86.5967 390.796 92.4068 390.796 Z" fill="#000000" fill-rule="nonzero" fill-opacity="1" /><path clip-path="url(#clip480)" d="M104.351 384.897 L128.463 384.897 L128.463 388.094 L104.351 388.094 L104.351 384.897 Z" fill="#000000" fill-rule="nonzero" fill-opacity="1" /><path clip-path="url(#clip480)" d="M137.321 395.373 L143.528 395.373 L143.528 373.951 L136.776 375.305 L136.776 371.845 L143.49 370.49 L147.289 370.49 L147.289 395.373 L153.496 395.373 L153.496 398.57 L137.321 398.57 L137.321 395.373 Z" fill="#000000" fill-rule="nonzero" fill-opacity="1" /><path clip-path="url(#clip480)" d="M82.7903 118.961 L90.4291 118.961 L90.4291 92.595 L82.119 94.2617 L82.119 90.0024 L90.3828 88.3358 L95.0587 88.3358 L95.0587 118.961 L102.698 118.961 L102.698 122.896 L82.7903 122.896 L82.7903 118.961 Z" fill="#000000" fill-rule="nonzero" fill-opacity="1" /><path clip-path="url(#clip480)" d="M122.142 91.4145 Q118.531 91.4145 116.702 94.9793 Q114.897 98.5209 114.897 105.651 Q114.897 112.757 116.702 116.322 Q118.531 119.863 122.142 119.863 Q125.776 119.863 127.582 116.322 Q129.41 112.757 129.41 105.651 Q129.41 98.5209 127.582 94.9793 Q125.776 91.4145 122.142 91.4145 M122.142 87.7108 Q127.952 87.7108 131.008 92.3173 Q134.086 96.9006 134.086 105.651 Q134.086 114.377 131.008 118.984 Q127.952 123.567 122.142 123.567 Q116.332 123.567 113.253 118.984 Q110.198 114.377 110.198 105.651 Q110.198 96.9006 113.253 92.3173 Q116.332 87.7108 122.142 87.7108 Z" fill="#000000" fill-rule="nonzero" fill-opacity="1" /><path clip-path="url(#clip480)" d="M143.791 69.9068 Q140.857 69.9068 139.371 72.8032 Q137.904 75.6808 137.904 81.4736 Q137.904 87.2476 139.371 90.144 Q140.857 93.0216 143.791 93.0216 Q146.744 93.0216 148.211 90.144 Q149.697 87.2476 149.697 81.4736 Q149.697 75.6808 148.211 72.8032 Q146.744 69.9068 143.791 69.9068 M143.791 66.8976 Q148.512 66.8976 150.994 70.6403 Q153.496 74.3643 153.496 81.4736 Q153.496 88.5641 150.994 92.3069 Q148.512 96.0308 143.791 96.0308 Q139.07 96.0308 136.569 92.3069 Q134.086 88.5641 134.086 81.4736 Q134.086 74.3643 136.569 70.6403 Q139.07 66.8976 143.791 66.8976 Z" fill="#000000" fill-rule="nonzero" fill-opacity="1" /><polyline clip-path="url(#clip482)" style="stroke:#009af9; stroke-linecap:round; stroke-linejoin:round; stroke-width:4; stroke-opacity:1; fill:none" points="250.72,87.9763 542.265,333.633 833.809,665.288 1125.35,727.054 1416.9,742.817 1708.44,1139.75 1999.99,1215.32 2291.53,1445.72 "/>
<line clip-path="url(#clip482)" x1="250.72" y1="87.9763" x2="234.72" y2="71.9763" style="stroke:#009af9; stroke-width:4; stroke-opacity:1"/>
<line clip-path="url(#clip482)" x1="250.72" y1="87.9763" x2="234.72" y2="103.976" style="stroke:#009af9; stroke-width:4; stroke-opacity:1"/>
<line clip-path="url(#clip482)" x1="250.72" y1="87.9763" x2="266.72" y2="103.976" style="stroke:#009af9; stroke-width:4; stroke-opacity:1"/>
<line clip-path="url(#clip482)" x1="250.72" y1="87.9763" x2="266.72" y2="71.9763" style="stroke:#009af9; stroke-width:4; stroke-opacity:1"/>
<line clip-path="url(#clip482)" x1="542.265" y1="333.633" x2="526.265" y2="317.633" style="stroke:#009af9; stroke-width:4; stroke-opacity:1"/>
<line clip-path="url(#clip482)" x1="542.265" y1="333.633" x2="526.265" y2="349.633" style="stroke:#009af9; stroke-width:4; stroke-opacity:1"/>
<line clip-path="url(#clip482)" x1="542.265" y1="333.633" x2="558.265" y2="349.633" style="stroke:#009af9; stroke-width:4; stroke-opacity:1"/>
<line clip-path="url(#clip482)" x1="542.265" y1="333.633" x2="558.265" y2="317.633" style="stroke:#009af9; stroke-width:4; stroke-opacity:1"/>
<line clip-path="url(#clip482)" x1="833.809" y1="665.288" x2="817.809" y2="649.288" style="stroke:#009af9; stroke-width:4; stroke-opacity:1"/>
<line clip-path="url(#clip482)" x1="833.809" y1="665.288" x2="817.809" y2="681.288" style="stroke:#009af9; stroke-width:4; stroke-opacity:1"/>
<line clip-path="url(#clip482)" x1="833.809" y1="665.288" x2="849.809" y2="681.288" style="stroke:#009af9; stroke-width:4; stroke-opacity:1"/>
<line clip-path="url(#clip482)" x1="833.809" y1="665.288" x2="849.809" y2="649.288" style="stroke:#009af9; stroke-width:4; stroke-opacity:1"/>
<line clip-path="url(#clip482)" x1="1125.35" y1="727.054" x2="1109.35" y2="711.054" style="stroke:#009af9; stroke-width:4; stroke-opacity:1"/>
<line clip-path="url(#clip482)" x1="1125.35" y1="727.054" x2="1109.35" y2="743.054" style="stroke:#009af9; stroke-width:4; stroke-opacity:1"/>
<line clip-path="url(#clip482)" x1="1125.35" y1="727.054" x2="1141.35" y2="743.054" style="stroke:#009af9; stroke-width:4; stroke-opacity:1"/>
<line clip-path="url(#clip482)" x1="1125.35" y1="727.054" x2="1141.35" y2="711.054" style="stroke:#009af9; stroke-width:4; stroke-opacity:1"/>
<line clip-path="url(#clip482)" x1="1416.9" y1="742.817" x2="1400.9" y2="726.817" style="stroke:#009af9; stroke-width:4; stroke-opacity:1"/>
<line clip-path="url(#clip482)" x1="1416.9" y1="742.817" x2="1400.9" y2="758.817" style="stroke:#009af9; stroke-width:4; stroke-opacity:1"/>
<line clip-path="url(#clip482)" x1="1416.9" y1="742.817" x2="1432.9" y2="758.817" style="stroke:#009af9; stroke-width:4; stroke-opacity:1"/>
<line clip-path="url(#clip482)" x1="1416.9" y1="742.817" x2="1432.9" y2="726.817" style="stroke:#009af9; stroke-width:4; stroke-opacity:1"/>
<line clip-path="url(#clip482)" x1="1708.44" y1="1139.75" x2="1692.44" y2="1123.75" style="stroke:#009af9; stroke-width:4; stroke-opacity:1"/>
<line clip-path="url(#clip482)" x1="1708.44" y1="1139.75" x2="1692.44" y2="1155.75" style="stroke:#009af9; stroke-width:4; stroke-opacity:1"/>
<line clip-path="url(#clip482)" x1="1708.44" y1="1139.75" x2="1724.44" y2="1155.75" style="stroke:#009af9; stroke-width:4; stroke-opacity:1"/>
<line clip-path="url(#clip482)" x1="1708.44" y1="1139.75" x2="1724.44" y2="1123.75" style="stroke:#009af9; stroke-width:4; stroke-opacity:1"/>
<line clip-path="url(#clip482)" x1="1999.99" y1="1215.32" x2="1983.99" y2="1199.32" style="stroke:#009af9; stroke-width:4; stroke-opacity:1"/>
<line clip-path="url(#clip482)" x1="1999.99" y1="1215.32" x2="1983.99" y2="1231.32" style="stroke:#009af9; stroke-width:4; stroke-opacity:1"/>
<line clip-path="url(#clip482)" x1="1999.99" y1="1215.32" x2="2015.99" y2="1231.32" style="stroke:#009af9; stroke-width:4; stroke-opacity:1"/>
<line clip-path="url(#clip482)" x1="1999.99" y1="1215.32" x2="2015.99" y2="1199.32" style="stroke:#009af9; stroke-width:4; stroke-opacity:1"/>
<line clip-path="url(#clip482)" x1="2291.53" y1="1445.72" x2="2275.53" y2="1429.72" style="stroke:#009af9; stroke-width:4; stroke-opacity:1"/>
<line clip-path="url(#clip482)" x1="2291.53" y1="1445.72" x2="2275.53" y2="1461.72" style="stroke:#009af9; stroke-width:4; stroke-opacity:1"/>
<line clip-path="url(#clip482)" x1="2291.53" y1="1445.72" x2="2307.53" y2="1461.72" style="stroke:#009af9; stroke-width:4; stroke-opacity:1"/>
<line clip-path="url(#clip482)" x1="2291.53" y1="1445.72" x2="2307.53" y2="1429.72" style="stroke:#009af9; stroke-width:4; stroke-opacity:1"/>
<path clip-path="url(#clip480)" d="M1816.13 198.898 L2280.65 198.898 L2280.65 95.2176 L1816.13 95.2176  Z" fill="#ffffff" fill-rule="evenodd" fill-opacity="1"/>
<polyline clip-path="url(#clip480)" style="stroke:#000000; stroke-linecap:round; stroke-linejoin:round; stroke-width:4; stroke-opacity:1; fill:none" points="1816.13,198.898 2280.65,198.898 2280.65,95.2176 1816.13,95.2176 1816.13,198.898 "/>
<polyline clip-path="url(#clip480)" style="stroke:#009af9; stroke-linecap:round; stroke-linejoin:round; stroke-width:4; stroke-opacity:1; fill:none" points="1840.16,147.058 1984.38,147.058 "/>
<line clip-path="url(#clip480)" x1="1912.27" y1="147.058" x2="1890.02" y2="124.802" style="stroke:#009af9; stroke-width:4.55111; stroke-opacity:1"/>
<line clip-path="url(#clip480)" x1="1912.27" y1="147.058" x2="1890.02" y2="169.313" style="stroke:#009af9; stroke-width:4.55111; stroke-opacity:1"/>
<line clip-path="url(#clip480)" x1="1912.27" y1="147.058" x2="1934.53" y2="169.313" style="stroke:#009af9; stroke-width:4.55111; stroke-opacity:1"/>
<line clip-path="url(#clip480)" x1="1912.27" y1="147.058" x2="1934.53" y2="124.802" style="stroke:#009af9; stroke-width:4.55111; stroke-opacity:1"/>
<path clip-path="url(#clip480)" d="M2012.35 128.111 L2012.35 175.518 L2008.42 175.518 L2008.42 128.111 L2012.35 128.111 Z" fill="#000000" fill-rule="nonzero" fill-opacity="1" /><path clip-path="url(#clip480)" d="M2024.76 143.041 Q2026.17 140.68 2029.67 138.597 Q2031.03 137.787 2035.25 137.787 Q2039.97 137.787 2042.91 141.537 Q2045.87 145.287 2045.87 151.398 Q2045.87 157.509 2042.91 161.259 Q2039.97 165.009 2035.25 165.009 Q2032.4 165.009 2030.34 163.898 Q2028.3 162.763 2026.96 160.449 L2026.96 174.199 L2022.68 174.199 L2022.68 151.629 Q2022.68 146.282 2024.76 143.041 M2041.45 151.398 Q2041.45 146.699 2039.51 144.037 Q2037.58 141.352 2034.2 141.352 Q2030.83 141.352 2028.88 144.037 Q2026.96 146.699 2026.96 151.398 Q2026.96 156.097 2028.88 158.782 Q2030.83 161.444 2034.2 161.444 Q2037.58 161.444 2039.51 158.782 Q2041.45 156.097 2041.45 151.398 Z" fill="#000000" fill-rule="nonzero" fill-opacity="1" /><path clip-path="url(#clip480)" d="M2062.98 141.398 Q2059.55 141.398 2057.56 144.083 Q2055.57 146.745 2055.57 151.398 Q2055.57 156.051 2057.54 158.736 Q2059.53 161.398 2062.98 161.398 Q2066.38 161.398 2068.37 158.713 Q2070.36 156.027 2070.36 151.398 Q2070.36 146.791 2068.37 144.106 Q2066.38 141.398 2062.98 141.398 M2062.98 137.787 Q2068.53 137.787 2071.7 141.398 Q2074.88 145.009 2074.88 151.398 Q2074.88 157.764 2071.7 161.398 Q2068.53 165.009 2062.98 165.009 Q2057.4 165.009 2054.23 161.398 Q2051.08 157.764 2051.08 151.398 Q2051.08 145.009 2054.23 141.398 Q2057.4 137.787 2062.98 137.787 Z" fill="#000000" fill-rule="nonzero" fill-opacity="1" /><path clip-path="url(#clip480)" d="M2081.5 154.106 L2081.5 138.412 L2085.76 138.412 L2085.76 153.944 Q2085.76 157.625 2087.19 159.476 Q2088.63 161.305 2091.5 161.305 Q2094.95 161.305 2096.94 159.106 Q2098.95 156.907 2098.95 153.111 L2098.95 138.412 L2103.21 138.412 L2103.21 164.338 L2098.95 164.338 L2098.95 160.356 Q2097.4 162.717 2095.34 163.875 Q2093.3 165.009 2090.59 165.009 Q2086.13 165.009 2083.81 162.231 Q2081.5 159.453 2081.5 154.106 M2092.21 137.787 L2092.21 137.787 Z" fill="#000000" fill-rule="nonzero" fill-opacity="1" /><path clip-path="url(#clip480)" d="M2116.2 131.051 L2116.2 138.412 L2124.97 138.412 L2124.97 141.722 L2116.2 141.722 L2116.2 155.796 Q2116.2 158.967 2117.05 159.87 Q2117.93 160.773 2120.59 160.773 L2124.97 160.773 L2124.97 164.338 L2120.59 164.338 Q2115.66 164.338 2113.79 162.509 Q2111.91 160.657 2111.91 155.796 L2111.91 141.722 L2108.79 141.722 L2108.79 138.412 L2111.91 138.412 L2111.91 131.051 L2116.2 131.051 Z" fill="#000000" fill-rule="nonzero" fill-opacity="1" /><path clip-path="url(#clip480)" d="M2143.49 149.453 L2155.96 149.453 L2155.96 153.25 L2143.49 153.25 L2143.49 149.453 Z" fill="#000000" fill-rule="nonzero" fill-opacity="1" /><path clip-path="url(#clip480)" d="M2179.74 143.041 Q2181.15 140.68 2184.64 138.597 Q2186.01 137.787 2190.22 137.787 Q2194.94 137.787 2197.88 141.537 Q2200.85 145.287 2200.85 151.398 Q2200.85 157.509 2197.88 161.259 Q2194.94 165.009 2190.22 165.009 Q2187.38 165.009 2185.32 163.898 Q2183.28 162.763 2181.94 160.449 L2181.94 174.199 L2177.65 174.199 L2177.65 151.629 Q2177.65 146.282 2179.74 143.041 M2196.43 151.398 Q2196.43 146.699 2194.48 144.037 Q2192.56 141.352 2189.18 141.352 Q2185.8 141.352 2183.86 144.037 Q2181.94 146.699 2181.94 151.398 Q2181.94 156.097 2183.86 158.782 Q2185.8 161.444 2189.18 161.444 Q2192.56 161.444 2194.48 158.782 Q2196.43 156.097 2196.43 151.398 Z" fill="#000000" fill-rule="nonzero" fill-opacity="1" /><path clip-path="url(#clip480)" d="M2207.91 138.412 L2212.17 138.412 L2212.17 164.338 L2207.91 164.338 L2207.91 138.412 M2207.91 128.319 L2212.17 128.319 L2212.17 133.713 L2207.91 133.713 L2207.91 128.319 Z" fill="#000000" fill-rule="nonzero" fill-opacity="1" /><path clip-path="url(#clip480)" d="M2242.63 148.689 L2242.63 164.338 L2238.37 164.338 L2238.37 148.828 Q2238.37 145.148 2236.94 143.319 Q2235.5 141.49 2232.63 141.49 Q2229.18 141.49 2227.19 143.69 Q2225.2 145.889 2225.2 149.685 L2225.2 164.338 L2220.92 164.338 L2220.92 138.412 L2225.2 138.412 L2225.2 142.44 Q2226.73 140.102 2228.79 138.944 Q2230.87 137.787 2233.58 137.787 Q2238.05 137.787 2240.34 140.565 Q2242.63 143.319 2242.63 148.689 Z" fill="#000000" fill-rule="nonzero" fill-opacity="1" /><path clip-path="url(#clip480)" d="M2256.61 128.111 L2256.61 175.518 L2252.68 175.518 L2252.68 128.111 L2256.61 128.111 Z" fill="#000000" fill-rule="nonzero" fill-opacity="1" /></svg>
