<?xml version="1.0" encoding="utf-8"?>
<svg xmlns="http://www.w3.org/2000/svg" xmlns:xlink="http://www.w3.org/1999/xlink" width="600" height="400" viewBox="0 0 2400 1600">
<defs>
  <clipPath id="clip750">
    <rect x="0" y="0" width="2400" height="1600"/>
  </clipPath>
</defs>
<path clip-path="url(#clip750)" d="M0 1600 L2400 1600 L2400 0 L0 0  Z" fill="#ffffff" fill-rule="evenodd" fill-opacity="1"/>
<defs>
  <clipPath id="clip751">
    <rect x="480" y="0" width="1681" height="1600"/>
  </clipPath>
</defs>
<path clip-path="url(#clip750)" d="M287.366 1423.18 L2352.76 1423.18 L2352.76 47.2441 L287.366 47.2441  Z" fill="#ffffff" fill-rule="evenodd" fill-opacity="1"/>
<defs>
  <clipPath id="clip752">
    <rect x="287" y="47" width="2066" height="1377"/>
  </clipPath>
</defs>
<polyline clip-path="url(#clip752)" style="stroke:#000000; stroke-linecap:round; stroke-linejoin:round; stroke-width:2; stroke-opacity:0.1; fill:none" points="287.366,1423.18 287.366,47.2441 "/>
<polyline clip-path="url(#clip752)" style="stroke:#000000; stroke-linecap:round; stroke-linejoin:round; stroke-width:2; stroke-opacity:0.1; fill:none" points="1043.35,1423.18 1043.35,47.2441 "/>
<polyline clip-path="url(#clip752)" style="stroke:#000000; stroke-linecap:round; stroke-linejoin:round; stroke-width:2; stroke-opacity:0.1; fill:none" points="1479.82,1423.18 1479.82,47.2441 "/>
<polyline clip-path="url(#clip752)" style="stroke:#000000; stroke-linecap:round; stroke-linejoin:round; stroke-width:2; stroke-opacity:0.1; fill:none" points="2352.76,1423.18 2352.76,47.2441 "/>
<polyline clip-path="url(#clip750)" style="stroke:#000000; stroke-linecap:round; stroke-linejoin:round; stroke-width:4; stroke-opacity:1; fill:none" points="287.366,1423.18 2352.76,1423.18 "/>
<polyline clip-path="url(#clip750)" style="stroke:#000000; stroke-linecap:round; stroke-linejoin:round; stroke-width:4; stroke-opacity:1; fill:none" points="287.366,1423.18 287.366,1404.28 "/>
<polyline clip-path="url(#clip750)" style="stroke:#000000; stroke-linecap:round; stroke-linejoin:round; stroke-width:4; stroke-opacity:1; fill:none" points="1043.35,1423.18 1043.35,1404.28 "/>
<polyline clip-path="url(#clip750)" style="stroke:#000000; stroke-linecap:round; stroke-linejoin:round; stroke-width:4; stroke-opacity:1; fill:none" points="1479.82,1423.18 1479.82,1404.28 "/>
<polyline clip-path="url(#clip750)" style="stroke:#000000; stroke-linecap:round; stroke-linejoin:round; stroke-width:4; stroke-opacity:1; fill:none" points="2352.76,1423.18 2352.76,1404.28 "/>
<path clip-path="url(#clip750)" d="M276.614 1485.58 L276.614 1451.02 L298.118 1451.02 L298.118 1454.96 L281.29 1454.96 L281.29 1485.58 L276.614 1485.58 Z" fill="#000000" fill-rule="nonzero" fill-opacity="1" /><path clip-path="url(#clip750)" d="M1027.54 1451.02 L1034.51 1451.02 L1043.33 1474.54 L1052.19 1451.02 L1059.16 1451.02 L1059.16 1485.58 L1054.6 1485.58 L1054.6 1455.23 L1045.69 1478.94 L1040.99 1478.94 L1032.08 1455.23 L1032.08 1485.58 L1027.54 1485.58 L1027.54 1451.02 Z" fill="#000000" fill-rule="nonzero" fill-opacity="1" /><path clip-path="url(#clip750)" d="M1466.1 1451.02 L1470.78 1451.02 L1470.78 1465.63 L1486.29 1451.02 L1492.31 1451.02 L1475.16 1467.13 L1493.53 1485.58 L1487.38 1485.58 L1470.78 1468.94 L1470.78 1485.58 L1466.1 1485.58 L1466.1 1451.02 Z" fill="#000000" fill-rule="nonzero" fill-opacity="1" /><path clip-path="url(#clip750)" d="M2342 1485.58 L2342 1451.02 L2363.51 1451.02 L2363.51 1454.96 L2346.68 1454.96 L2346.68 1485.58 L2342 1485.58 Z" fill="#000000" fill-rule="nonzero" fill-opacity="1" /><path clip-path="url(#clip750)" d="M1121.72 1532.4 L1127.58 1532.4 L1134.9 1560.21 L1142.19 1532.4 L1149.09 1532.4 L1156.41 1560.21 L1163.7 1532.4 L1169.56 1532.4 L1160.23 1568.04 L1153.33 1568.04 L1145.66 1538.83 L1137.95 1568.04 L1131.05 1568.04 L1121.72 1532.4 Z" fill="#000000" fill-rule="nonzero" fill-opacity="1" /><path clip-path="url(#clip750)" d="M1194.64 1550.12 Q1187.54 1550.12 1184.81 1551.75 Q1182.07 1553.37 1182.07 1557.29 Q1182.07 1560.4 1184.11 1562.25 Q1186.17 1564.07 1189.71 1564.07 Q1194.58 1564.07 1197.51 1560.63 Q1200.47 1557.16 1200.47 1551.43 L1200.47 1550.12 L1194.64 1550.12 M1206.32 1547.71 L1206.32 1568.04 L1200.47 1568.04 L1200.47 1562.63 Q1198.46 1565.88 1195.47 1567.44 Q1192.48 1568.97 1188.15 1568.97 Q1182.67 1568.97 1179.43 1565.91 Q1176.21 1562.82 1176.21 1557.67 Q1176.21 1551.65 1180.22 1548.6 Q1184.26 1545.54 1192.25 1545.54 L1200.47 1545.54 L1200.47 1544.97 Q1200.47 1540.93 1197.79 1538.73 Q1195.15 1536.5 1190.34 1536.5 Q1187.29 1536.5 1184.39 1537.23 Q1181.5 1537.97 1178.82 1539.43 L1178.82 1534.02 Q1182.04 1532.78 1185.06 1532.17 Q1188.08 1531.54 1190.95 1531.54 Q1198.68 1531.54 1202.5 1535.55 Q1206.32 1539.56 1206.32 1547.71 Z" fill="#000000" fill-rule="nonzero" fill-opacity="1" /><path clip-path="url(#clip750)" d="M1214.18 1532.4 L1220.39 1532.4 L1231.53 1562.31 L1242.67 1532.4 L1248.88 1532.4 L1235.51 1568.04 L1227.55 1568.04 L1214.18 1532.4 Z" fill="#000000" fill-rule="nonzero" fill-opacity="1" /><path clip-path="url(#clip750)" d="M1287.45 1548.76 L1287.45 1551.62 L1260.53 1551.62 Q1260.91 1557.67 1264.15 1560.85 Q1267.43 1564 1273.26 1564 Q1276.63 1564 1279.78 1563.17 Q1282.96 1562.35 1286.08 1560.69 L1286.08 1566.23 Q1282.93 1567.57 1279.62 1568.27 Q1276.31 1568.97 1272.91 1568.97 Q1264.38 1568.97 1259.38 1564 Q1254.41 1559.04 1254.41 1550.57 Q1254.41 1541.82 1259.13 1536.69 Q1263.87 1531.54 1271.89 1531.54 Q1279.08 1531.54 1283.25 1536.18 Q1287.45 1540.8 1287.45 1548.76 M1281.6 1547.04 Q1281.53 1542.23 1278.89 1539.37 Q1276.28 1536.5 1271.95 1536.5 Q1267.05 1536.5 1264.09 1539.27 Q1261.16 1542.04 1260.72 1547.07 L1281.6 1547.04 Z" fill="#000000" fill-rule="nonzero" fill-opacity="1" /><path clip-path="url(#clip750)" d="M1313.58 1532.4 L1319.79 1532.4 L1330.93 1562.31 L1342.07 1532.4 L1348.28 1532.4 L1334.91 1568.04 L1326.95 1568.04 L1313.58 1532.4 Z" fill="#000000" fill-rule="nonzero" fill-opacity="1" /><path clip-path="url(#clip750)" d="M1386.85 1548.76 L1386.85 1551.62 L1359.93 1551.62 Q1360.31 1557.67 1363.55 1560.85 Q1366.83 1564 1372.66 1564 Q1376.03 1564 1379.18 1563.17 Q1382.37 1562.35 1385.48 1560.69 L1385.48 1566.23 Q1382.33 1567.57 1379.02 1568.27 Q1375.71 1568.97 1372.31 1568.97 Q1363.78 1568.97 1358.78 1564 Q1353.82 1559.04 1353.82 1550.57 Q1353.82 1541.82 1358.53 1536.69 Q1363.27 1531.54 1371.29 1531.54 Q1378.48 1531.54 1382.65 1536.18 Q1386.85 1540.8 1386.85 1548.76 M1381 1547.04 Q1380.93 1542.23 1378.29 1539.37 Q1375.68 1536.5 1371.35 1536.5 Q1366.45 1536.5 1363.49 1539.27 Q1360.56 1542.04 1360.12 1547.07 L1381 1547.04 Z" fill="#000000" fill-rule="nonzero" fill-opacity="1" /><path clip-path="url(#clip750)" d="M1422.12 1533.76 L1422.12 1539.24 Q1419.64 1537.87 1417.12 1537.2 Q1414.64 1536.5 1412.09 1536.5 Q1406.4 1536.5 1403.24 1540.13 Q1400.09 1543.73 1400.09 1550.25 Q1400.09 1556.78 1403.24 1560.4 Q1406.4 1564 1412.09 1564 Q1414.64 1564 1417.12 1563.33 Q1419.64 1562.63 1422.12 1561.26 L1422.12 1566.68 Q1419.67 1567.82 1417.03 1568.39 Q1414.42 1568.97 1411.46 1568.97 Q1403.4 1568.97 1398.66 1563.91 Q1393.92 1558.85 1393.92 1550.25 Q1393.92 1541.53 1398.69 1536.53 Q1403.5 1531.54 1411.84 1531.54 Q1414.54 1531.54 1417.12 1532.11 Q1419.7 1532.65 1422.12 1533.76 Z" fill="#000000" fill-rule="nonzero" fill-opacity="1" /><path clip-path="url(#clip750)" d="M1438.1 1522.27 L1438.1 1532.4 L1450.16 1532.4 L1450.16 1536.95 L1438.1 1536.95 L1438.1 1556.3 Q1438.1 1560.66 1439.27 1561.9 Q1440.48 1563.14 1444.14 1563.14 L1450.16 1563.14 L1450.16 1568.04 L1444.14 1568.04 Q1437.36 1568.04 1434.79 1565.53 Q1432.21 1562.98 1432.21 1556.3 L1432.21 1536.95 L1427.91 1536.95 L1427.91 1532.4 L1432.21 1532.4 L1432.21 1522.27 L1438.1 1522.27 Z" fill="#000000" fill-rule="nonzero" fill-opacity="1" /><path clip-path="url(#clip750)" d="M1471.68 1536.5 Q1466.97 1536.5 1464.23 1540.19 Q1461.49 1543.85 1461.49 1550.25 Q1461.49 1556.65 1464.2 1560.34 Q1466.93 1564 1471.68 1564 Q1476.35 1564 1479.09 1560.31 Q1481.83 1556.62 1481.83 1550.25 Q1481.83 1543.92 1479.09 1540.23 Q1476.35 1536.5 1471.68 1536.5 M1471.68 1531.54 Q1479.31 1531.54 1483.68 1536.5 Q1488.04 1541.47 1488.04 1550.25 Q1488.04 1559 1483.68 1564 Q1479.31 1568.97 1471.68 1568.97 Q1464.01 1568.97 1459.64 1564 Q1455.32 1559 1455.32 1550.25 Q1455.32 1541.47 1459.64 1536.5 Q1464.01 1531.54 1471.68 1531.54 Z" fill="#000000" fill-rule="nonzero" fill-opacity="1" /><path clip-path="url(#clip750)" d="M1518.4 1537.87 Q1517.41 1537.3 1516.24 1537.04 Q1515.09 1536.76 1513.69 1536.76 Q1508.72 1536.76 1506.05 1540 Q1503.41 1543.22 1503.41 1549.27 L1503.41 1568.04 L1497.52 1568.04 L1497.52 1532.4 L1503.41 1532.4 L1503.41 1537.93 Q1505.26 1534.69 1508.22 1533.13 Q1511.18 1531.54 1515.41 1531.54 Q1516.01 1531.54 1516.75 1531.63 Q1517.48 1531.7 1518.37 1531.85 L1518.4 1537.87 Z" fill="#000000" fill-rule="nonzero" fill-opacity="1" /><polyline clip-path="url(#clip752)" style="stroke:#000000; stroke-linecap:round; stroke-linejoin:round; stroke-width:2; stroke-opacity:0.1; fill:none" points="287.366,1193.86 2352.76,1193.86 "/>
<polyline clip-path="url(#clip752)" style="stroke:#000000; stroke-linecap:round; stroke-linejoin:round; stroke-width:2; stroke-opacity:0.1; fill:none" points="287.366,964.535 2352.76,964.535 "/>
<polyline clip-path="url(#clip752)" style="stroke:#000000; stroke-linecap:round; stroke-linejoin:round; stroke-width:2; stroke-opacity:0.1; fill:none" points="287.366,735.212 2352.76,735.212 "/>
<polyline clip-path="url(#clip752)" style="stroke:#000000; stroke-linecap:round; stroke-linejoin:round; stroke-width:2; stroke-opacity:0.1; fill:none" points="287.366,505.889 2352.76,505.889 "/>
<polyline clip-path="url(#clip752)" style="stroke:#000000; stroke-linecap:round; stroke-linejoin:round; stroke-width:2; stroke-opacity:0.1; fill:none" points="287.366,276.567 2352.76,276.567 "/>
<polyline clip-path="url(#clip750)" style="stroke:#000000; stroke-linecap:round; stroke-linejoin:round; stroke-width:4; stroke-opacity:1; fill:none" points="287.366,1423.18 287.366,47.2441 "/>
<polyline clip-path="url(#clip750)" style="stroke:#000000; stroke-linecap:round; stroke-linejoin:round; stroke-width:4; stroke-opacity:1; fill:none" points="287.366,1193.86 306.264,1193.86 "/>
<polyline clip-path="url(#clip750)" style="stroke:#000000; stroke-linecap:round; stroke-linejoin:round; stroke-width:4; stroke-opacity:1; fill:none" points="287.366,964.535 306.264,964.535 "/>
<polyline clip-path="url(#clip750)" style="stroke:#000000; stroke-linecap:round; stroke-linejoin:round; stroke-width:4; stroke-opacity:1; fill:none" points="287.366,735.212 306.264,735.212 "/>
<polyline clip-path="url(#clip750)" style="stroke:#000000; stroke-linecap:round; stroke-linejoin:round; stroke-width:4; stroke-opacity:1; fill:none" points="287.366,505.889 306.264,505.889 "/>
<polyline clip-path="url(#clip750)" style="stroke:#000000; stroke-linecap:round; stroke-linejoin:round; stroke-width:4; stroke-opacity:1; fill:none" points="287.366,276.567 306.264,276.567 "/>
<path clip-path="url(#clip750)" d="M114.26 1194.31 L143.936 1194.31 L143.936 1198.24 L114.26 1198.24 L114.26 1194.31 Z" fill="#000000" fill-rule="nonzero" fill-opacity="1" /><path clip-path="url(#clip750)" d="M164.028 1179.66 Q160.417 1179.66 158.589 1183.22 Q156.783 1186.76 156.783 1193.89 Q156.783 1201 158.589 1204.56 Q160.417 1208.1 164.028 1208.1 Q167.663 1208.1 169.468 1204.56 Q171.297 1201 171.297 1193.89 Q171.297 1186.76 169.468 1183.22 Q167.663 1179.66 164.028 1179.66 M164.028 1175.95 Q169.839 1175.95 172.894 1180.56 Q175.973 1185.14 175.973 1193.89 Q175.973 1202.62 172.894 1207.23 Q169.839 1211.81 164.028 1211.81 Q158.218 1211.81 155.14 1207.23 Q152.084 1202.62 152.084 1193.89 Q152.084 1185.14 155.14 1180.56 Q158.218 1175.95 164.028 1175.95 Z" fill="#000000" fill-rule="nonzero" fill-opacity="1" /><path clip-path="url(#clip750)" d="M184.19 1205.26 L189.075 1205.26 L189.075 1211.14 L184.19 1211.14 L184.19 1205.26 Z" fill="#000000" fill-rule="nonzero" fill-opacity="1" /><path clip-path="url(#clip750)" d="M200.07 1207.2 L207.709 1207.2 L207.709 1180.84 L199.399 1182.5 L199.399 1178.24 L207.662 1176.58 L212.338 1176.58 L212.338 1207.2 L219.977 1207.2 L219.977 1211.14 L200.07 1211.14 L200.07 1207.2 Z" fill="#000000" fill-rule="nonzero" fill-opacity="1" /><path clip-path="url(#clip750)" d="M239.422 1179.66 Q235.81 1179.66 233.982 1183.22 Q232.176 1186.76 232.176 1193.89 Q232.176 1201 233.982 1204.56 Q235.81 1208.1 239.422 1208.1 Q243.056 1208.1 244.861 1204.56 Q246.69 1201 246.69 1193.89 Q246.69 1186.76 244.861 1183.22 Q243.056 1179.66 239.422 1179.66 M239.422 1175.95 Q245.232 1175.95 248.287 1180.56 Q251.366 1185.14 251.366 1193.89 Q251.366 1202.62 248.287 1207.23 Q245.232 1211.81 239.422 1211.81 Q233.611 1211.81 230.533 1207.23 Q227.477 1202.62 227.477 1193.89 Q227.477 1185.14 230.533 1180.56 Q233.611 1175.95 239.422 1175.95 Z" fill="#000000" fill-rule="nonzero" fill-opacity="1" /><path clip-path="url(#clip750)" d="M115.256 964.986 L144.931 964.986 L144.931 968.921 L115.256 968.921 L115.256 964.986 Z" fill="#000000" fill-rule="nonzero" fill-opacity="1" /><path clip-path="url(#clip750)" d="M165.024 950.333 Q161.413 950.333 159.584 953.898 Q157.778 957.44 157.778 964.569 Q157.778 971.676 159.584 975.241 Q161.413 978.782 165.024 978.782 Q168.658 978.782 170.464 975.241 Q172.292 971.676 172.292 964.569 Q172.292 957.44 170.464 953.898 Q168.658 950.333 165.024 950.333 M165.024 946.63 Q170.834 946.63 173.889 951.236 Q176.968 955.819 176.968 964.569 Q176.968 973.296 173.889 977.903 Q170.834 982.486 165.024 982.486 Q159.214 982.486 156.135 977.903 Q153.079 973.296 153.079 964.569 Q153.079 955.819 156.135 951.236 Q159.214 946.63 165.024 946.63 Z" fill="#000000" fill-rule="nonzero" fill-opacity="1" /><path clip-path="url(#clip750)" d="M185.186 975.935 L190.07 975.935 L190.07 981.815 L185.186 981.815 L185.186 975.935 Z" fill="#000000" fill-rule="nonzero" fill-opacity="1" /><path clip-path="url(#clip750)" d="M210.255 950.333 Q206.644 950.333 204.815 953.898 Q203.01 957.44 203.01 964.569 Q203.01 971.676 204.815 975.241 Q206.644 978.782 210.255 978.782 Q213.889 978.782 215.695 975.241 Q217.523 971.676 217.523 964.569 Q217.523 957.44 215.695 953.898 Q213.889 950.333 210.255 950.333 M210.255 946.63 Q216.065 946.63 219.121 951.236 Q222.199 955.819 222.199 964.569 Q222.199 973.296 219.121 977.903 Q216.065 982.486 210.255 982.486 Q204.445 982.486 201.366 977.903 Q198.311 973.296 198.311 964.569 Q198.311 955.819 201.366 951.236 Q204.445 946.63 210.255 946.63 Z" fill="#000000" fill-rule="nonzero" fill-opacity="1" /><path clip-path="url(#clip750)" d="M230.463 947.255 L248.82 947.255 L248.82 951.19 L234.746 951.19 L234.746 959.662 Q235.764 959.315 236.783 959.153 Q237.801 958.967 238.82 958.967 Q244.607 958.967 247.986 962.139 Q251.366 965.31 251.366 970.727 Q251.366 976.305 247.894 979.407 Q244.421 982.486 238.102 982.486 Q235.926 982.486 233.658 982.116 Q231.412 981.745 229.005 981.004 L229.005 976.305 Q231.088 977.44 233.31 977.995 Q235.533 978.551 238.009 978.551 Q242.014 978.551 244.352 976.444 Q246.69 974.338 246.69 970.727 Q246.69 967.116 244.352 965.009 Q242.014 962.903 238.009 962.903 Q236.135 962.903 234.26 963.319 Q232.408 963.736 230.463 964.616 L230.463 947.255 Z" fill="#000000" fill-rule="nonzero" fill-opacity="1" /><path clip-path="url(#clip750)" d="M164.028 721.011 Q160.417 721.011 158.589 724.575 Q156.783 728.117 156.783 735.247 Q156.783 742.353 158.589 745.918 Q160.417 749.46 164.028 749.46 Q167.663 749.46 169.468 745.918 Q171.297 742.353 171.297 735.247 Q171.297 728.117 169.468 724.575 Q167.663 721.011 164.028 721.011 M164.028 717.307 Q169.839 717.307 172.894 721.913 Q175.973 726.497 175.973 735.247 Q175.973 743.973 172.894 748.58 Q169.839 753.163 164.028 753.163 Q158.218 753.163 155.14 748.58 Q152.084 743.973 152.084 735.247 Q152.084 726.497 155.14 721.913 Q158.218 717.307 164.028 717.307 Z" fill="#000000" fill-rule="nonzero" fill-opacity="1" /><path clip-path="url(#clip750)" d="M184.19 746.612 L189.075 746.612 L189.075 752.492 L184.19 752.492 L184.19 746.612 Z" fill="#000000" fill-rule="nonzero" fill-opacity="1" /><path clip-path="url(#clip750)" d="M209.26 721.011 Q205.649 721.011 203.82 724.575 Q202.014 728.117 202.014 735.247 Q202.014 742.353 203.82 745.918 Q205.649 749.46 209.26 749.46 Q212.894 749.46 214.699 745.918 Q216.528 742.353 216.528 735.247 Q216.528 728.117 214.699 724.575 Q212.894 721.011 209.26 721.011 M209.26 717.307 Q215.07 717.307 218.125 721.913 Q221.204 726.497 221.204 735.247 Q221.204 743.973 218.125 748.58 Q215.07 753.163 209.26 753.163 Q203.449 753.163 200.371 748.58 Q197.315 743.973 197.315 735.247 Q197.315 726.497 200.371 721.913 Q203.449 717.307 209.26 717.307 Z" fill="#000000" fill-rule="nonzero" fill-opacity="1" /><path clip-path="url(#clip750)" d="M239.422 721.011 Q235.81 721.011 233.982 724.575 Q232.176 728.117 232.176 735.247 Q232.176 742.353 233.982 745.918 Q235.81 749.46 239.422 749.46 Q243.056 749.46 244.861 745.918 Q246.69 742.353 246.69 735.247 Q246.69 728.117 244.861 724.575 Q243.056 721.011 239.422 721.011 M239.422 717.307 Q245.232 717.307 248.287 721.913 Q251.366 726.497 251.366 735.247 Q251.366 743.973 248.287 748.58 Q245.232 753.163 239.422 753.163 Q233.611 753.163 230.533 748.58 Q227.477 743.973 227.477 735.247 Q227.477 726.497 230.533 721.913 Q233.611 717.307 239.422 717.307 Z" fill="#000000" fill-rule="nonzero" fill-opacity="1" /><path clip-path="url(#clip750)" d="M165.024 491.688 Q161.413 491.688 159.584 495.253 Q157.778 498.794 157.778 505.924 Q157.778 513.031 159.584 516.595 Q161.413 520.137 165.024 520.137 Q168.658 520.137 170.464 516.595 Q172.292 513.031 172.292 505.924 Q172.292 498.794 170.464 495.253 Q168.658 491.688 165.024 491.688 M165.024 487.984 Q170.834 487.984 173.889 492.591 Q176.968 497.174 176.968 505.924 Q176.968 514.651 173.889 519.257 Q170.834 523.841 165.024 523.841 Q159.214 523.841 156.135 519.257 Q153.079 514.651 153.079 505.924 Q153.079 497.174 156.135 492.591 Q159.214 487.984 165.024 487.984 Z" fill="#000000" fill-rule="nonzero" fill-opacity="1" /><path clip-path="url(#clip750)" d="M185.186 517.29 L190.07 517.29 L190.07 523.169 L185.186 523.169 L185.186 517.29 Z" fill="#000000" fill-rule="nonzero" fill-opacity="1" /><path clip-path="url(#clip750)" d="M210.255 491.688 Q206.644 491.688 204.815 495.253 Q203.01 498.794 203.01 505.924 Q203.01 513.031 204.815 516.595 Q206.644 520.137 210.255 520.137 Q213.889 520.137 215.695 516.595 Q217.523 513.031 217.523 505.924 Q217.523 498.794 215.695 495.253 Q213.889 491.688 210.255 491.688 M210.255 487.984 Q216.065 487.984 219.121 492.591 Q222.199 497.174 222.199 505.924 Q222.199 514.651 219.121 519.257 Q216.065 523.841 210.255 523.841 Q204.445 523.841 201.366 519.257 Q198.311 514.651 198.311 505.924 Q198.311 497.174 201.366 492.591 Q204.445 487.984 210.255 487.984 Z" fill="#000000" fill-rule="nonzero" fill-opacity="1" /><path clip-path="url(#clip750)" d="M230.463 488.609 L248.82 488.609 L248.82 492.545 L234.746 492.545 L234.746 501.017 Q235.764 500.669 236.783 500.507 Q237.801 500.322 238.82 500.322 Q244.607 500.322 247.986 503.494 Q251.366 506.665 251.366 512.081 Q251.366 517.66 247.894 520.762 Q244.421 523.841 238.102 523.841 Q235.926 523.841 233.658 523.47 Q231.412 523.1 229.005 522.359 L229.005 517.66 Q231.088 518.794 233.31 519.35 Q235.533 519.905 238.009 519.905 Q242.014 519.905 244.352 517.799 Q246.69 515.693 246.69 512.081 Q246.69 508.47 244.352 506.364 Q242.014 504.257 238.009 504.257 Q236.135 504.257 234.26 504.674 Q232.408 505.091 230.463 505.97 L230.463 488.609 Z" fill="#000000" fill-rule="nonzero" fill-opacity="1" /><path clip-path="url(#clip750)" d="M164.028 262.365 Q160.417 262.365 158.589 265.93 Q156.783 269.472 156.783 276.601 Q156.783 283.708 158.589 287.273 Q160.417 290.814 164.028 290.814 Q167.663 290.814 169.468 287.273 Q171.297 283.708 171.297 276.601 Q171.297 269.472 169.468 265.93 Q167.663 262.365 164.028 262.365 M164.028 258.662 Q169.839 258.662 172.894 263.268 Q175.973 267.851 175.973 276.601 Q175.973 285.328 172.894 289.935 Q169.839 294.518 164.028 294.518 Q158.218 294.518 155.14 289.935 Q152.084 285.328 152.084 276.601 Q152.084 267.851 155.14 263.268 Q158.218 258.662 164.028 258.662 Z" fill="#000000" fill-rule="nonzero" fill-opacity="1" /><path clip-path="url(#clip750)" d="M184.19 287.967 L189.075 287.967 L189.075 293.847 L184.19 293.847 L184.19 287.967 Z" fill="#000000" fill-rule="nonzero" fill-opacity="1" /><path clip-path="url(#clip750)" d="M200.07 289.912 L207.709 289.912 L207.709 263.546 L199.399 265.213 L199.399 260.953 L207.662 259.287 L212.338 259.287 L212.338 289.912 L219.977 289.912 L219.977 293.847 L200.07 293.847 L200.07 289.912 Z" fill="#000000" fill-rule="nonzero" fill-opacity="1" /><path clip-path="url(#clip750)" d="M239.422 262.365 Q235.81 262.365 233.982 265.93 Q232.176 269.472 232.176 276.601 Q232.176 283.708 233.982 287.273 Q235.81 290.814 239.422 290.814 Q243.056 290.814 244.861 287.273 Q246.69 283.708 246.69 276.601 Q246.69 269.472 244.861 265.93 Q243.056 262.365 239.422 262.365 M239.422 258.662 Q245.232 258.662 248.287 263.268 Q251.366 267.851 251.366 276.601 Q251.366 285.328 248.287 289.935 Q245.232 294.518 239.422 294.518 Q233.611 294.518 230.533 289.935 Q227.477 285.328 227.477 276.601 Q227.477 267.851 230.533 263.268 Q233.611 258.662 239.422 258.662 Z" fill="#000000" fill-rule="nonzero" fill-opacity="1" /><path clip-path="url(#clip750)" d="M44.7161 1042.85 L47.5806 1042.85 L47.5806 1069.78 Q53.6281 1069.4 56.8109 1066.15 Q59.9619 1062.87 59.9619 1057.05 Q59.9619 1053.67 59.1344 1050.52 Q58.3069 1047.34 56.6518 1044.22 L62.1899 1044.22 Q63.5267 1047.37 64.227 1050.68 Q64.9272 1053.99 64.9272 1057.4 Q64.9272 1065.93 59.9619 1070.92 Q54.9967 1075.89 46.5303 1075.89 Q37.7774 1075.89 32.6531 1071.18 Q27.4968 1066.44 27.4968 1058.41 Q27.4968 1051.22 32.1438 1047.05 Q36.7589 1042.85 44.7161 1042.85 M42.9973 1048.71 Q38.1912 1048.77 35.3266 1051.41 Q32.4621 1054.02 32.4621 1058.35 Q32.4621 1063.25 35.2312 1066.21 Q38.0002 1069.14 43.0292 1069.59 L42.9973 1048.71 Z" fill="#000000" fill-rule="nonzero" fill-opacity="1" /><path clip-path="url(#clip750)" d="M28.3562 1033.24 L28.3562 1027.38 L64.0042 1027.38 L64.0042 1033.24 L28.3562 1033.24 M14.479 1033.24 L14.479 1027.38 L21.895 1027.38 L21.895 1033.24 L14.479 1033.24 Z" fill="#000000" fill-rule="nonzero" fill-opacity="1" /><path clip-path="url(#clip750)" d="M45.7664 991.67 Q39.4007 991.67 35.8996 994.312 Q32.3984 996.922 32.3984 1001.66 Q32.3984 1006.38 35.8996 1009.02 Q39.4007 1011.63 45.7664 1011.63 Q52.1003 1011.63 55.6014 1009.02 Q59.1026 1006.38 59.1026 1001.66 Q59.1026 996.922 55.6014 994.312 Q52.1003 991.67 45.7664 991.67 M59.58 985.814 Q68.683 985.814 73.1071 989.856 Q77.5631 993.898 77.5631 1002.24 Q77.5631 1005.32 77.0857 1008.06 Q76.6401 1010.8 75.6852 1013.38 L69.9879 1013.38 Q71.3884 1010.8 72.0568 1008.28 Q72.7252 1005.77 72.7252 1003.16 Q72.7252 997.4 69.7015 994.535 Q66.7096 991.67 60.6303 991.67 L57.7339 991.67 Q60.885 993.485 62.4446 996.317 Q64.0042 999.15 64.0042 1003.1 Q64.0042 1009.65 59.0071 1013.66 Q54.01 1017.67 45.7664 1017.67 Q37.491 1017.67 32.4939 1013.66 Q27.4968 1009.65 27.4968 1003.1 Q27.4968 999.15 29.0564 996.317 Q30.616 993.485 33.7671 991.67 L28.3562 991.67 L28.3562 985.814 L59.58 985.814 Z" fill="#000000" fill-rule="nonzero" fill-opacity="1" /><path clip-path="url(#clip750)" d="M44.7161 943.259 L47.5806 943.259 L47.5806 970.186 Q53.6281 969.804 56.8109 966.558 Q59.9619 963.279 59.9619 957.455 Q59.9619 954.081 59.1344 950.93 Q58.3069 947.747 56.6518 944.628 L62.1899 944.628 Q63.5267 947.779 64.227 951.089 Q64.9272 954.399 64.9272 957.805 Q64.9272 966.335 59.9619 971.332 Q54.9967 976.297 46.5303 976.297 Q37.7774 976.297 32.6531 971.587 Q27.4968 966.844 27.4968 958.823 Q27.4968 951.63 32.1438 947.461 Q36.7589 943.259 44.7161 943.259 M42.9973 949.116 Q38.1912 949.179 35.3266 951.821 Q32.4621 954.431 32.4621 958.76 Q32.4621 963.661 35.2312 966.621 Q38.0002 969.55 43.0292 969.995 L42.9973 949.116 Z" fill="#000000" fill-rule="nonzero" fill-opacity="1" /><path clip-path="url(#clip750)" d="M42.4881 904.015 L64.0042 904.015 L64.0042 909.871 L42.679 909.871 Q37.6183 909.871 35.1038 911.844 Q32.5894 913.818 32.5894 917.765 Q32.5894 922.507 35.6131 925.244 Q38.6368 927.981 43.8567 927.981 L64.0042 927.981 L64.0042 933.87 L28.3562 933.87 L28.3562 927.981 L33.8944 927.981 Q30.6797 925.881 29.0883 923.048 Q27.4968 920.183 27.4968 916.46 Q27.4968 910.317 31.3163 907.166 Q35.1038 904.015 42.4881 904.015 Z" fill="#000000" fill-rule="nonzero" fill-opacity="1" /><path clip-path="url(#clip750)" d="M28.3562 896.535 L28.3562 890.328 L58.275 879.188 L28.3562 868.048 L28.3562 861.842 L64.0042 875.21 L64.0042 883.167 L28.3562 896.535 Z" fill="#000000" fill-rule="nonzero" fill-opacity="1" /><path clip-path="url(#clip750)" d="M46.0847 837.557 Q46.0847 844.654 47.7079 847.392 Q49.3312 850.129 53.2461 850.129 Q56.3653 850.129 58.2114 848.092 Q60.0256 846.023 60.0256 842.49 Q60.0256 837.62 56.5881 834.692 Q53.1188 831.732 47.3897 831.732 L46.0847 831.732 L46.0847 837.557 M43.6657 825.876 L64.0042 825.876 L64.0042 831.732 L58.5933 831.732 Q61.8398 833.737 63.3994 836.729 Q64.9272 839.721 64.9272 844.05 Q64.9272 849.524 61.8716 852.771 Q58.7843 855.985 53.6281 855.985 Q47.6125 855.985 44.5569 851.975 Q41.5014 847.933 41.5014 839.944 L41.5014 831.732 L40.9285 831.732 Q36.8862 831.732 34.6901 834.406 Q32.4621 837.047 32.4621 841.853 Q32.4621 844.909 33.1941 847.805 Q33.9262 850.702 35.3903 853.375 L29.9795 853.375 Q28.7381 850.161 28.1334 847.137 Q27.4968 844.113 27.4968 841.249 Q27.4968 833.514 31.5072 829.695 Q35.5176 825.876 43.6657 825.876 Z" fill="#000000" fill-rule="nonzero" fill-opacity="1" /><path clip-path="url(#clip750)" d="M14.479 813.813 L14.479 807.956 L64.0042 807.956 L64.0042 813.813 L14.479 813.813 Z" fill="#000000" fill-rule="nonzero" fill-opacity="1" /><path clip-path="url(#clip750)" d="M49.9359 796.307 L28.3562 796.307 L28.3562 790.45 L49.7131 790.45 Q54.7739 790.45 57.3202 788.477 Q59.8346 786.504 59.8346 782.557 Q59.8346 777.814 56.8109 775.077 Q53.7872 772.308 48.5673 772.308 L28.3562 772.308 L28.3562 766.452 L64.0042 766.452 L64.0042 772.308 L58.5296 772.308 Q61.7762 774.441 63.3676 777.273 Q64.9272 780.074 64.9272 783.798 Q64.9272 789.941 61.1078 793.124 Q57.2883 796.307 49.9359 796.307 M27.4968 781.57 L27.4968 781.57 Z" fill="#000000" fill-rule="nonzero" fill-opacity="1" /><path clip-path="url(#clip750)" d="M44.7161 723.897 L47.5806 723.897 L47.5806 750.824 Q53.6281 750.442 56.8109 747.195 Q59.9619 743.917 59.9619 738.092 Q59.9619 734.719 59.1344 731.568 Q58.3069 728.385 56.6518 725.266 L62.1899 725.266 Q63.5267 728.417 64.227 731.727 Q64.9272 735.037 64.9272 738.443 Q64.9272 746.973 59.9619 751.97 Q54.9967 756.935 46.5303 756.935 Q37.7774 756.935 32.6531 752.224 Q27.4968 747.482 27.4968 739.461 Q27.4968 732.268 32.1438 728.098 Q36.7589 723.897 44.7161 723.897 M42.9973 729.753 Q38.1912 729.817 35.3266 732.459 Q32.4621 735.069 32.4621 739.397 Q32.4621 744.299 35.2312 747.259 Q38.0002 750.187 43.0292 750.633 L42.9973 729.753 Z" fill="#000000" fill-rule="nonzero" fill-opacity="1" /><path clip-path="url(#clip750)" d="M29.4065 691.559 L34.9447 691.559 Q33.6716 694.042 33.035 696.715 Q32.3984 699.389 32.3984 702.254 Q32.3984 706.614 33.7352 708.81 Q35.072 710.975 37.7456 710.975 Q39.7826 710.975 40.9603 709.415 Q42.1061 707.855 43.1565 703.145 L43.6021 701.14 Q44.9389 694.901 47.3897 692.291 Q49.8086 689.649 54.1691 689.649 Q59.1344 689.649 62.0308 693.596 Q64.9272 697.511 64.9272 704.386 Q64.9272 707.251 64.3543 710.37 Q63.8132 713.457 62.6992 716.895 L56.6518 716.895 Q58.3387 713.648 59.198 710.497 Q60.0256 707.346 60.0256 704.259 Q60.0256 700.121 58.6251 697.893 Q57.1929 695.665 54.6147 695.665 Q52.2276 695.665 50.9545 697.288 Q49.6813 698.88 48.5037 704.322 L48.0262 706.359 Q46.8804 711.802 44.5251 714.221 Q42.138 716.64 38.0002 716.64 Q32.9713 716.64 30.2341 713.075 Q27.4968 709.51 27.4968 702.954 Q27.4968 699.707 27.9743 696.843 Q28.4517 693.978 29.4065 691.559 Z" fill="#000000" fill-rule="nonzero" fill-opacity="1" /><path clip-path="url(#clip750)" d="M43.5384 662.563 L43.5384 645.408 L48.7583 645.408 L48.7583 662.563 L43.5384 662.563 Z" fill="#000000" fill-rule="nonzero" fill-opacity="1" /><path clip-path="url(#clip750)" d="M44.7797 608.932 Q44.0158 612.497 41.947 614.407 Q39.91 616.316 36.9499 616.316 Q32.4621 616.316 29.9476 612.688 Q27.465 609.091 27.465 602.853 Q27.465 600.434 27.8469 597.729 Q28.2289 595.023 28.9928 591.904 L34.3081 591.904 Q33.3851 594.991 32.9713 597.538 Q32.5576 600.116 32.5576 602.376 Q32.5576 606.163 34.0217 608.359 Q35.4858 610.587 37.5228 610.587 Q39.7508 610.587 41.1831 608.423 Q42.5836 606.29 42.5836 602.598 L42.5836 597.665 L47.4215 597.665 L47.4215 602.376 Q47.4215 606.736 49.0447 609.028 Q50.8271 611.51 53.6281 611.51 Q56.4926 611.51 58.275 608.837 Q60.0574 606.131 60.0574 601.325 Q60.0574 598.365 59.4845 595.66 Q58.8798 592.954 57.7021 590.695 L63.1448 590.695 Q64.036 593.559 64.4816 596.233 Q64.9272 598.938 64.9272 601.484 Q64.9272 609.06 62.0308 613.165 Q59.1344 617.271 53.6281 617.271 Q50.1906 617.271 47.8671 615.075 Q45.5436 612.879 44.7797 608.932 Z" fill="#000000" fill-rule="nonzero" fill-opacity="1" /><path clip-path="url(#clip750)" d="M16.4842 579.873 L16.4842 552.564 L21.895 552.564 L21.895 573.443 L35.8996 573.443 L35.8996 554.601 L41.3104 554.601 L41.3104 573.443 L64.0042 573.443 L64.0042 579.873 L16.4842 579.873 Z" fill="#000000" fill-rule="nonzero" fill-opacity="1" /><path clip-path="url(#clip750)" d="M14.5426 487.124 Q21.8632 491.389 29.0246 493.458 Q36.186 495.527 43.5384 495.527 Q50.8908 495.527 58.1159 493.458 Q65.3091 491.358 72.5979 487.124 L72.5979 492.217 Q65.1182 496.991 57.8931 499.378 Q50.668 501.734 43.5384 501.734 Q36.4406 501.734 29.2474 499.378 Q22.0542 497.023 14.5426 492.217 L14.5426 487.124 Z" fill="#000000" fill-rule="nonzero" fill-opacity="1" /><path clip-path="url(#clip750)" d="M16.4842 475.507 L16.4842 445.461 L21.895 445.461 L21.895 469.078 L35.9632 469.078 L35.9632 446.448 L41.3741 446.448 L41.3741 469.078 L58.5933 469.078 L58.5933 444.888 L64.0042 444.888 L64.0042 475.507 L16.4842 475.507 Z" fill="#000000" fill-rule="nonzero" fill-opacity="1" /><path clip-path="url(#clip750)" d="M51.9411 418.184 L64.0042 418.184 L64.0042 421.876 L52.0685 421.876 Q49.2357 421.876 47.8353 423.117 Q46.403 424.359 46.403 426.841 Q46.403 429.833 48.1217 431.552 Q49.8086 433.271 52.7369 433.271 L64.0042 433.271 L64.0042 436.995 L36.2815 436.995 L36.2815 433.271 L47.135 433.271 Q45.3526 431.966 44.4614 430.183 Q43.5702 428.369 43.5702 426.014 Q43.5702 422.162 45.7028 420.189 Q47.8353 418.184 51.9411 418.184 Z" fill="#000000" fill-rule="nonzero" fill-opacity="1" /><path clip-path="url(#clip750)" d="M14.5426 409.145 L14.5426 404.052 Q22.0542 399.278 29.2474 396.922 Q36.4406 394.535 43.5384 394.535 Q50.668 394.535 57.8931 396.922 Q65.1182 399.278 72.5979 404.052 L72.5979 409.145 Q65.3091 404.911 58.1159 402.843 Q50.8908 400.742 43.5384 400.742 Q36.186 400.742 29.0246 402.843 Q21.8632 404.911 14.5426 409.145 Z" fill="#000000" fill-rule="nonzero" fill-opacity="1" /><polyline clip-path="url(#clip752)" style="stroke:#0000ff; stroke-linecap:round; stroke-linejoin:round; stroke-width:4; stroke-opacity:1; fill:none" points="287.366,4073.95 337.765,4066.58 388.164,4052.12 438.563,4028.19 488.962,3999.79 539.361,3960.81 589.76,3913.87 640.159,3856.3 690.558,3790.9 740.957,3719.61 791.356,3637.11 841.755,3545.76 892.154,3450.57 942.553,3347.98 992.952,3243.43 1043.35,3179.91 1097.91,3176.13 1152.47,3166.34 1207.03,3144.23 1261.59,3111.76 1316.14,3070.52 1370.7,3023.02 1425.26,2965.52 1479.82,2899.35 1531.17,2985.08 1582.52,3093.89 1633.87,3208.71 1685.22,3321 1736.57,3429.08 1787.91,3530.37 1839.26,3622.92 1890.61,3703.02 1941.96,3782.16 1993.31,3848.62 2044.66,3909.12 2096.01,3957.37 2147.36,3995.77 2198.71,4029.04 2250.06,4050.37 2301.41,4065.88 2352.76,4073.95 "/>
<polyline clip-path="url(#clip752)" style="stroke:#0000ff; stroke-linecap:round; stroke-linejoin:round; stroke-width:4; stroke-opacity:1; fill:none" points="287.366,2051 337.765,2044.54 388.164,2028.53 438.563,1999.46 488.962,1962.49 539.361,1914.83 589.76,1856.83 640.159,1927.07 690.558,2079.86 740.957,2236.03 791.356,2386.72 841.755,2534.58 892.154,2678.69 942.553,2816.65 992.952,2938.38 1043.35,3010.26 1097.91,3005.01 1152.47,2993.67 1207.03,2971.52 1261.59,2939.55 1316.14,2905.36 1370.7,2872.77 1425.26,2859.37 1479.82,2899.35 1531.17,2827.36 1582.52,2748.03 1633.87,2662.38 1685.22,2566.55 1736.57,2464.59 1787.91,2357.12 1839.26,2244.88 1890.61,2123.17 1941.96,1997.8 1993.31,1871.9 2044.66,1849.25 2096.01,1909.06 2147.36,1957.87 2198.71,1999.37 2250.06,2026.91 2301.41,2044.62 2352.76,2051 "/>
<polyline clip-path="url(#clip752)" style="stroke:#0000ff; stroke-linecap:round; stroke-linejoin:round; stroke-width:4; stroke-opacity:1; fill:none" points="287.366,1212.53 337.765,1232.78 388.164,1291.36 438.563,1382.12 488.962,1496.6 539.361,1631.51 589.76,1775.63 640.159,1789.49 690.558,1712.53 740.957,1655.93 791.356,1702.24 841.755,1741.05 892.154,1773.06 942.553,1797.7 992.952,1809.97 1043.35,1814.78 1097.91,1839.11 1152.47,1909.34 1207.03,2013.2 1261.59,2135.89 1316.14,2271.08 1370.7,2400.8 1425.26,2502.74 1479.82,2542.13 1531.17,2514.42 1582.52,2454.08 1633.87,2376.05 1685.22,2286.26 1736.57,2189.14 1787.91,2086.96 1839.26,1980.35 1890.61,1870.02 1941.96,1761.66 1993.31,1778.65 2044.66,1744.12 2096.01,1615.1 2147.36,1491.73 2198.71,1383.87 2250.06,1292.91 2301.41,1233.48 2352.76,1212.53 "/>
<circle clip-path="url(#clip752)" cx="287.366" cy="1212.53" r="7.2" fill="#0000ff" fill-rule="evenodd" fill-opacity="1" stroke="#000000" stroke-opacity="1" stroke-width="3.2"/>
<circle clip-path="url(#clip752)" cx="337.765" cy="1232.78" r="7.2" fill="#0000ff" fill-rule="evenodd" fill-opacity="1" stroke="#000000" stroke-opacity="1" stroke-width="3.2"/>
<circle clip-path="url(#clip752)" cx="388.164" cy="1291.36" r="7.2" fill="#0000ff" fill-rule="evenodd" fill-opacity="1" stroke="#000000" stroke-opacity="1" stroke-width="3.2"/>
<circle clip-path="url(#clip752)" cx="438.563" cy="1382.12" r="7.2" fill="#0000ff" fill-rule="evenodd" fill-opacity="1" stroke="#000000" stroke-opacity="1" stroke-width="3.2"/>
<circle clip-path="url(#clip752)" cx="2198.71" cy="1383.87" r="7.2" fill="#0000ff" fill-rule="evenodd" fill-opacity="1" stroke="#000000" stroke-opacity="1" stroke-width="3.2"/>
<circle clip-path="url(#clip752)" cx="2250.06" cy="1292.91" r="7.2" fill="#0000ff" fill-rule="evenodd" fill-opacity="1" stroke="#000000" stroke-opacity="1" stroke-width="3.2"/>
<circle clip-path="url(#clip752)" cx="2301.41" cy="1233.48" r="7.2" fill="#0000ff" fill-rule="evenodd" fill-opacity="1" stroke="#000000" stroke-opacity="1" stroke-width="3.2"/>
<circle clip-path="url(#clip752)" cx="2352.76" cy="1212.53" r="7.2" fill="#0000ff" fill-rule="evenodd" fill-opacity="1" stroke="#000000" stroke-opacity="1" stroke-width="3.2"/>
<polyline clip-path="url(#clip752)" style="stroke:#0000ff; stroke-linecap:round; stroke-linejoin:round; stroke-width:4; stroke-opacity:1; fill:none" points="287.366,1212.53 337.765,1222.8 388.164,1252.35 438.563,1297.3 488.962,1354.39 539.361,1418.35 589.76,1480.61 640.159,1543.33 690.558,1601.82 740.957,1627.98 791.356,1535.21 841.755,1436.56 892.154,1336.95 942.553,1243.03 992.952,1167.84 1043.35,1138.71 1097.91,1134.05 1152.47,1116.83 1207.03,1083.96 1261.59,1036.12 1316.14,978.595 1370.7,909.214 1425.26,829.13 1479.82,735.214 1531.17,835.141 1582.52,945.003 1633.87,1061.17 1685.22,1178.5 1736.57,1295.41 1787.91,1407.25 1839.26,1514.08 1890.61,1609 1941.96,1699.16 1993.31,1654.36 2044.66,1555.61 2096.01,1460.93 2147.36,1375.38 2198.71,1306.48 2250.06,1255 2301.41,1223.25 2352.76,1212.53 "/>
<circle clip-path="url(#clip752)" cx="287.366" cy="1212.53" r="7.2" fill="#0000ff" fill-rule="evenodd" fill-opacity="1" stroke="#000000" stroke-opacity="1" stroke-width="3.2"/>
<circle clip-path="url(#clip752)" cx="337.765" cy="1222.8" r="7.2" fill="#0000ff" fill-rule="evenodd" fill-opacity="1" stroke="#000000" stroke-opacity="1" stroke-width="3.2"/>
<circle clip-path="url(#clip752)" cx="388.164" cy="1252.35" r="7.2" fill="#0000ff" fill-rule="evenodd" fill-opacity="1" stroke="#000000" stroke-opacity="1" stroke-width="3.2"/>
<circle clip-path="url(#clip752)" cx="438.563" cy="1297.3" r="7.2" fill="#0000ff" fill-rule="evenodd" fill-opacity="1" stroke="#000000" stroke-opacity="1" stroke-width="3.2"/>
<circle clip-path="url(#clip752)" cx="488.962" cy="1354.39" r="7.2" fill="#0000ff" fill-rule="evenodd" fill-opacity="1" stroke="#000000" stroke-opacity="1" stroke-width="3.2"/>
<circle clip-path="url(#clip752)" cx="539.361" cy="1418.35" r="7.2" fill="#0000ff" fill-rule="evenodd" fill-opacity="1" stroke="#000000" stroke-opacity="1" stroke-width="3.2"/>
<circle clip-path="url(#clip752)" cx="892.154" cy="1336.95" r="7.2" fill="#0000ff" fill-rule="evenodd" fill-opacity="1" stroke="#000000" stroke-opacity="1" stroke-width="3.2"/>
<circle clip-path="url(#clip752)" cx="942.553" cy="1243.03" r="7.2" fill="#0000ff" fill-rule="evenodd" fill-opacity="1" stroke="#000000" stroke-opacity="1" stroke-width="3.2"/>
<circle clip-path="url(#clip752)" cx="992.952" cy="1167.84" r="7.2" fill="#0000ff" fill-rule="evenodd" fill-opacity="1" stroke="#000000" stroke-opacity="1" stroke-width="3.2"/>
<circle clip-path="url(#clip752)" cx="1043.35" cy="1138.71" r="7.2" fill="#0000ff" fill-rule="evenodd" fill-opacity="1" stroke="#000000" stroke-opacity="1" stroke-width="3.2"/>
<circle clip-path="url(#clip752)" cx="1097.91" cy="1134.05" r="7.2" fill="#0000ff" fill-rule="evenodd" fill-opacity="1" stroke="#000000" stroke-opacity="1" stroke-width="3.2"/>
<circle clip-path="url(#clip752)" cx="1152.47" cy="1116.83" r="7.2" fill="#0000ff" fill-rule="evenodd" fill-opacity="1" stroke="#000000" stroke-opacity="1" stroke-width="3.2"/>
<circle clip-path="url(#clip752)" cx="1207.03" cy="1083.96" r="7.2" fill="#0000ff" fill-rule="evenodd" fill-opacity="1" stroke="#000000" stroke-opacity="1" stroke-width="3.2"/>
<circle clip-path="url(#clip752)" cx="1261.59" cy="1036.12" r="7.2" fill="#0000ff" fill-rule="evenodd" fill-opacity="1" stroke="#000000" stroke-opacity="1" stroke-width="3.2"/>
<circle clip-path="url(#clip752)" cx="1316.14" cy="978.595" r="7.2" fill="#0000ff" fill-rule="evenodd" fill-opacity="1" stroke="#000000" stroke-opacity="1" stroke-width="3.2"/>
<circle clip-path="url(#clip752)" cx="1370.7" cy="909.214" r="7.2" fill="#0000ff" fill-rule="evenodd" fill-opacity="1" stroke="#000000" stroke-opacity="1" stroke-width="3.2"/>
<circle clip-path="url(#clip752)" cx="1425.26" cy="829.13" r="7.2" fill="#0000ff" fill-rule="evenodd" fill-opacity="1" stroke="#000000" stroke-opacity="1" stroke-width="3.2"/>
<circle clip-path="url(#clip752)" cx="1479.82" cy="735.214" r="7.2" fill="#0000ff" fill-rule="evenodd" fill-opacity="1" stroke="#000000" stroke-opacity="1" stroke-width="3.2"/>
<circle clip-path="url(#clip752)" cx="1531.17" cy="835.141" r="7.2" fill="#0000ff" fill-rule="evenodd" fill-opacity="1" stroke="#000000" stroke-opacity="1" stroke-width="3.2"/>
<circle clip-path="url(#clip752)" cx="1582.52" cy="945.003" r="7.2" fill="#0000ff" fill-rule="evenodd" fill-opacity="1" stroke="#000000" stroke-opacity="1" stroke-width="3.2"/>
<circle clip-path="url(#clip752)" cx="1633.87" cy="1061.17" r="7.2" fill="#0000ff" fill-rule="evenodd" fill-opacity="1" stroke="#000000" stroke-opacity="1" stroke-width="3.2"/>
<circle clip-path="url(#clip752)" cx="1685.22" cy="1178.5" r="7.2" fill="#0000ff" fill-rule="evenodd" fill-opacity="1" stroke="#000000" stroke-opacity="1" stroke-width="3.2"/>
<circle clip-path="url(#clip752)" cx="1736.57" cy="1295.41" r="7.2" fill="#0000ff" fill-rule="evenodd" fill-opacity="1" stroke="#000000" stroke-opacity="1" stroke-width="3.2"/>
<circle clip-path="url(#clip752)" cx="1787.91" cy="1407.25" r="7.2" fill="#0000ff" fill-rule="evenodd" fill-opacity="1" stroke="#000000" stroke-opacity="1" stroke-width="3.2"/>
<circle clip-path="url(#clip752)" cx="2147.36" cy="1375.38" r="7.2" fill="#0000ff" fill-rule="evenodd" fill-opacity="1" stroke="#000000" stroke-opacity="1" stroke-width="3.2"/>
<circle clip-path="url(#clip752)" cx="2198.71" cy="1306.48" r="7.2" fill="#0000ff" fill-rule="evenodd" fill-opacity="1" stroke="#000000" stroke-opacity="1" stroke-width="3.2"/>
<circle clip-path="url(#clip752)" cx="2250.06" cy="1255" r="7.2" fill="#0000ff" fill-rule="evenodd" fill-opacity="1" stroke="#000000" stroke-opacity="1" stroke-width="3.2"/>
<circle clip-path="url(#clip752)" cx="2301.41" cy="1223.25" r="7.2" fill="#0000ff" fill-rule="evenodd" fill-opacity="1" stroke="#000000" stroke-opacity="1" stroke-width="3.2"/>
<circle clip-path="url(#clip752)" cx="2352.76" cy="1212.53" r="7.2" fill="#0000ff" fill-rule="evenodd" fill-opacity="1" stroke="#000000" stroke-opacity="1" stroke-width="3.2"/>
<polyline clip-path="url(#clip752)" style="stroke:#0000ff; stroke-linecap:round; stroke-linejoin:round; stroke-width:4; stroke-opacity:1; fill:none" points="287.366,244.315 337.765,238.146 388.164,220.015 438.563,189.798 488.962,147.757 539.361,93.5293 589.76,27.3518 640.159,-50.9734 690.558,-141.159 740.957,-242.966 791.356,-117.098 841.755,40.8517 892.154,189.106 942.553,321.372 992.952,416.652 1043.35,454.047 1097.91,455.038 1152.47,458.669 1207.03,469.632 1261.59,486.427 1316.14,518.217 1370.7,568.497 1425.26,640.313 1479.82,735.214 1531.17,633.942 1582.52,525.342 1633.87,404.083 1685.22,276.26 1736.57,142.451 1787.91,0.26469 1839.26,-148.703 1890.61,-262.258 1941.96,-155.998 1993.31,-62.3622 2044.66,19.0856 2096.01,87.8275 2147.36,143.999 2198.71,187.844 2250.06,219.034 2301.41,237.882 2352.76,244.316 "/>
<circle clip-path="url(#clip752)" cx="287.366" cy="244.315" r="7.2" fill="#0000ff" fill-rule="evenodd" fill-opacity="1" stroke="#000000" stroke-opacity="1" stroke-width="3.2"/>
<circle clip-path="url(#clip752)" cx="337.765" cy="238.146" r="7.2" fill="#0000ff" fill-rule="evenodd" fill-opacity="1" stroke="#000000" stroke-opacity="1" stroke-width="3.2"/>
<circle clip-path="url(#clip752)" cx="388.164" cy="220.015" r="7.2" fill="#0000ff" fill-rule="evenodd" fill-opacity="1" stroke="#000000" stroke-opacity="1" stroke-width="3.2"/>
<circle clip-path="url(#clip752)" cx="438.563" cy="189.798" r="7.2" fill="#0000ff" fill-rule="evenodd" fill-opacity="1" stroke="#000000" stroke-opacity="1" stroke-width="3.2"/>
<circle clip-path="url(#clip752)" cx="488.962" cy="147.757" r="7.2" fill="#0000ff" fill-rule="evenodd" fill-opacity="1" stroke="#000000" stroke-opacity="1" stroke-width="3.2"/>
<circle clip-path="url(#clip752)" cx="539.361" cy="93.5293" r="7.2" fill="#0000ff" fill-rule="evenodd" fill-opacity="1" stroke="#000000" stroke-opacity="1" stroke-width="3.2"/>
<circle clip-path="url(#clip752)" cx="892.154" cy="189.106" r="7.2" fill="#0000ff" fill-rule="evenodd" fill-opacity="1" stroke="#000000" stroke-opacity="1" stroke-width="3.2"/>
<circle clip-path="url(#clip752)" cx="942.553" cy="321.372" r="7.2" fill="#0000ff" fill-rule="evenodd" fill-opacity="1" stroke="#000000" stroke-opacity="1" stroke-width="3.2"/>
<circle clip-path="url(#clip752)" cx="992.952" cy="416.652" r="7.2" fill="#0000ff" fill-rule="evenodd" fill-opacity="1" stroke="#000000" stroke-opacity="1" stroke-width="3.2"/>
<circle clip-path="url(#clip752)" cx="1043.35" cy="454.047" r="7.2" fill="#0000ff" fill-rule="evenodd" fill-opacity="1" stroke="#000000" stroke-opacity="1" stroke-width="3.2"/>
<circle clip-path="url(#clip752)" cx="1097.91" cy="455.038" r="7.2" fill="#0000ff" fill-rule="evenodd" fill-opacity="1" stroke="#000000" stroke-opacity="1" stroke-width="3.2"/>
<circle clip-path="url(#clip752)" cx="1152.47" cy="458.669" r="7.2" fill="#0000ff" fill-rule="evenodd" fill-opacity="1" stroke="#000000" stroke-opacity="1" stroke-width="3.2"/>
<circle clip-path="url(#clip752)" cx="1207.03" cy="469.632" r="7.2" fill="#0000ff" fill-rule="evenodd" fill-opacity="1" stroke="#000000" stroke-opacity="1" stroke-width="3.2"/>
<circle clip-path="url(#clip752)" cx="1261.59" cy="486.427" r="7.2" fill="#0000ff" fill-rule="evenodd" fill-opacity="1" stroke="#000000" stroke-opacity="1" stroke-width="3.2"/>
<circle clip-path="url(#clip752)" cx="1316.14" cy="518.217" r="7.2" fill="#0000ff" fill-rule="evenodd" fill-opacity="1" stroke="#000000" stroke-opacity="1" stroke-width="3.2"/>
<circle clip-path="url(#clip752)" cx="1370.7" cy="568.497" r="7.2" fill="#0000ff" fill-rule="evenodd" fill-opacity="1" stroke="#000000" stroke-opacity="1" stroke-width="3.2"/>
<circle clip-path="url(#clip752)" cx="1425.26" cy="640.313" r="7.2" fill="#0000ff" fill-rule="evenodd" fill-opacity="1" stroke="#000000" stroke-opacity="1" stroke-width="3.2"/>
<circle clip-path="url(#clip752)" cx="1479.82" cy="735.214" r="7.2" fill="#0000ff" fill-rule="evenodd" fill-opacity="1" stroke="#000000" stroke-opacity="1" stroke-width="3.2"/>
<circle clip-path="url(#clip752)" cx="1531.17" cy="633.942" r="7.2" fill="#0000ff" fill-rule="evenodd" fill-opacity="1" stroke="#000000" stroke-opacity="1" stroke-width="3.2"/>
<circle clip-path="url(#clip752)" cx="1582.52" cy="525.342" r="7.2" fill="#0000ff" fill-rule="evenodd" fill-opacity="1" stroke="#000000" stroke-opacity="1" stroke-width="3.2"/>
<circle clip-path="url(#clip752)" cx="1633.87" cy="404.083" r="7.2" fill="#0000ff" fill-rule="evenodd" fill-opacity="1" stroke="#000000" stroke-opacity="1" stroke-width="3.2"/>
<circle clip-path="url(#clip752)" cx="1685.22" cy="276.26" r="7.2" fill="#0000ff" fill-rule="evenodd" fill-opacity="1" stroke="#000000" stroke-opacity="1" stroke-width="3.2"/>
<circle clip-path="url(#clip752)" cx="1736.57" cy="142.451" r="7.2" fill="#0000ff" fill-rule="evenodd" fill-opacity="1" stroke="#000000" stroke-opacity="1" stroke-width="3.2"/>
<circle clip-path="url(#clip752)" cx="2096.01" cy="87.8275" r="7.2" fill="#0000ff" fill-rule="evenodd" fill-opacity="1" stroke="#000000" stroke-opacity="1" stroke-width="3.2"/>
<circle clip-path="url(#clip752)" cx="2147.36" cy="143.999" r="7.2" fill="#0000ff" fill-rule="evenodd" fill-opacity="1" stroke="#000000" stroke-opacity="1" stroke-width="3.2"/>
<circle clip-path="url(#clip752)" cx="2198.71" cy="187.844" r="7.2" fill="#0000ff" fill-rule="evenodd" fill-opacity="1" stroke="#000000" stroke-opacity="1" stroke-width="3.2"/>
<circle clip-path="url(#clip752)" cx="2250.06" cy="219.034" r="7.2" fill="#0000ff" fill-rule="evenodd" fill-opacity="1" stroke="#000000" stroke-opacity="1" stroke-width="3.2"/>
<circle clip-path="url(#clip752)" cx="2301.41" cy="237.882" r="7.2" fill="#0000ff" fill-rule="evenodd" fill-opacity="1" stroke="#000000" stroke-opacity="1" stroke-width="3.2"/>
<circle clip-path="url(#clip752)" cx="2352.76" cy="244.316" r="7.2" fill="#0000ff" fill-rule="evenodd" fill-opacity="1" stroke="#000000" stroke-opacity="1" stroke-width="3.2"/>
<polyline clip-path="url(#clip752)" style="stroke:#0000ff; stroke-linecap:round; stroke-linejoin:round; stroke-width:4; stroke-opacity:1; fill:none" points="287.366,-6.18588 337.765,-12.3535 388.164,-30.372 438.563,-60.7343 488.962,-102.641 539.361,-156.426 589.76,-221.8 640.159,-297.699 690.558,-373.091 740.957,-281.038 791.356,-356.446 841.755,-477.99 892.154,-513.882 942.553,-504.718 992.952,-498.162 1043.35,-493.985 1097.91,-529.071 1152.47,-624.076 1207.03,-770.361 1261.59,-954.178 1316.14,-1119.71 1370.7,-1050.48 1425.26,-1005.4 1479.82,-990.537 1531.17,-1001.25 1582.52,-1023.68 1633.87,-968.895 1685.22,-805.897 1736.57,-652.674 1787.91,-510.586 1839.26,-380.256 1890.61,-305.967 1941.96,-402.149 1993.31,-310.479 2044.66,-230.338 2096.01,-162.287 2147.36,-106.516 2198.71,-62.5383 2250.06,-31.408 2301.41,-12.5409 2352.76,-6.18583 "/>
<polyline clip-path="url(#clip752)" style="stroke:#0000ff; stroke-linecap:round; stroke-linejoin:round; stroke-width:4; stroke-opacity:1; fill:none" points="287.366,-159.264 337.765,-165.393 388.164,-183.368 438.563,-213.358 488.962,-255.051 539.361,-308.845 589.76,-374.327 640.159,-451.343 690.558,-475.171 740.957,-501.471 791.356,-552.39 841.755,-535.64 892.154,-623.896 942.553,-770.966 992.952,-930.12 1043.35,-1087.65 1097.91,-1094.14 1152.47,-1112.9 1207.03,-1144.08 1261.59,-1187.02 1316.14,-1157.68 1370.7,-1302.64 1425.26,-1369.33 1479.82,-1432.01 1531.17,-1307.66 1582.52,-1139.07 1633.87,-1027.66 1685.22,-970.084 1736.57,-861.401 1787.91,-738.579 1839.26,-617.65 1890.61,-505.185 1941.96,-461.828 1993.31,-464.198 2044.66,-383.063 2096.01,-314.668 2147.36,-258.849 2198.71,-215.293 2250.06,-184.354 2301.41,-165.655 2352.76,-159.264 "/>
<polyline clip-path="url(#clip752)" style="stroke:#0000ff; stroke-linecap:round; stroke-linejoin:round; stroke-width:4; stroke-opacity:1; fill:none" points="287.366,-682.596 337.765,-691.717 388.164,-702.465 438.563,-704.623 488.962,-695.857 539.361,-679.406 589.76,-657.615 640.159,-623.827 690.558,-536.569 740.957,-571.493 791.356,-610.253 841.755,-733.398 892.154,-868.258 942.553,-1013.31 992.952,-1167.93 1043.35,-1113.08 1097.91,-1119.79 1152.47,-1139.34 1207.03,-1172.16 1261.59,-1196.47 1316.14,-1240.67 1370.7,-1329.49 1425.26,-1404.02 1479.82,-1432.01 1531.17,-1480.14 1582.52,-1494.95 1633.87,-1362.69 1685.22,-1204.04 1736.57,-1052.2 1787.91,-910.842 1839.26,-780.935 1890.61,-663.379 1941.96,-557.471 1993.31,-625.236 2044.66,-775.362 2096.01,-774.899 2147.36,-743.077 2198.71,-719.329 2250.06,-706.558 2301.41,-694.863 2352.76,-682.596 "/>
<polyline clip-path="url(#clip752)" style="stroke:#0000ff; stroke-linecap:round; stroke-linejoin:round; stroke-width:4; stroke-opacity:1; fill:none" points="287.366,-682.596 337.765,-707.348 388.164,-769.355 438.563,-869.936 488.962,-976.975 539.361,-924.478 589.76,-783.045 640.159,-633.818 690.558,-615.281 740.957,-654.09 791.356,-762.98 841.755,-887.543 892.154,-1024.02 942.553,-1172.23 992.952,-1278.78 1043.35,-1308.37 1097.91,-1305.3 1152.47,-1292.02 1207.03,-1257.49 1261.59,-1217.75 1316.14,-1275.19 1370.7,-1365.7 1425.26,-1498.2 1479.82,-1503.97 1531.17,-1521.66 1582.52,-1499.22 1633.87,-1407.15 1685.22,-1374.83 1736.57,-1278.82 1787.91,-1184.39 1839.26,-1089.01 1890.61,-1007.33 1941.96,-933.875 1993.31,-868.082 2044.66,-815.279 2096.01,-919.635 2147.36,-948.256 2198.71,-853.515 2250.06,-770.404 2301.41,-708.472 2352.76,-682.596 "/>
<polyline clip-path="url(#clip752)" style="stroke:#0000ff; stroke-linecap:round; stroke-linejoin:round; stroke-width:4; stroke-opacity:1; fill:none" points="287.366,-885.475 337.765,-891.529 388.164,-908.788 438.563,-938.024 488.962,-995.193 539.361,-1031.91 589.76,-1093.83 640.159,-1166.93 690.558,-1250.57 740.957,-1343.43 791.356,-1444.64 841.755,-1550.97 892.154,-1652.1 942.553,-1466.3 992.952,-1333.76 1043.35,-1357.13 1097.91,-1364.01 1152.47,-1385.05 1207.03,-1420.63 1261.59,-1470.66 1316.14,-1534.46 1370.7,-1612.26 1425.26,-1703.84 1479.82,-1809.59 1531.17,-1665.92 1582.52,-1514.65 1633.87,-1463.12 1685.22,-1383.06 1736.57,-1416.72 1787.91,-1380.74 1839.26,-1332.58 1890.61,-1286.32 1941.96,-1230.13 1993.31,-1170.91 2044.66,-1097.73 2096.01,-1034.32 2147.36,-981.796 2198.71,-939.601 2250.06,-909.885 2301.41,-891.673 2352.76,-885.475 "/>
<polyline clip-path="url(#clip752)" style="stroke:#0000ff; stroke-linecap:round; stroke-linejoin:round; stroke-width:4; stroke-opacity:1; fill:none" points="287.366,-1145.65 337.765,-1152.03 388.164,-1170.49 438.563,-1165.86 488.962,-1057.49 539.361,-1143.64 589.76,-1313.22 640.159,-1434.27 690.558,-1520.8 740.957,-1618.17 791.356,-1726.27 841.755,-1821.12 892.154,-1653.09 942.553,-1652.01 992.952,-1501.81 1043.35,-1496 1097.91,-1502.41 1152.47,-1520.92 1207.03,-1551.51 1261.59,-1593.44 1316.14,-1645.19 1370.7,-1704.1 1425.26,-1766.17 1479.82,-1809.59 1531.17,-1710.2 1582.52,-1558.62 1633.87,-1493.59 1685.22,-1464.84 1736.57,-1424.47 1787.91,-1438.85 1839.26,-1405.15 1890.61,-1334.13 1941.96,-1251.15 1993.31,-1173.18 2044.66,-1107.3 2096.01,-1034.34 2147.36,-1053.46 2198.71,-1158.84 2250.06,-1171.48 2301.41,-1152.36 2352.76,-1145.65 "/>
<polyline clip-path="url(#clip752)" style="stroke:#0000ff; stroke-linecap:round; stroke-linejoin:round; stroke-width:4; stroke-opacity:1; fill:none" points="287.366,-1315.95 337.765,-1298.39 388.164,-1246.99 438.563,-1200.67 488.962,-1242 539.361,-1294.78 589.76,-1358.72 640.159,-1498.26 690.558,-1697.38 740.957,-1900 791.356,-1952.13 841.755,-1851.99 892.154,-1892.23 942.553,-1828.6 992.952,-1681.95 1043.35,-1508.7 1097.91,-1515.31 1152.47,-1534.55 1207.03,-1566.8 1261.59,-1611.44 1316.14,-1667.03 1370.7,-1732 1425.26,-1801 1479.82,-1825.78 1531.17,-1886.48 1582.52,-1957.31 1633.87,-2052.93 1685.22,-2015.69 1736.57,-1920.51 1787.91,-1871.69 1839.26,-1749.91 1890.61,-1638.49 1941.96,-1536.83 1993.31,-1446.81 2044.66,-1368 2096.01,-1301.19 2147.36,-1246.1 2198.71,-1202.66 2250.06,-1244.45 2301.41,-1297.73 2352.76,-1315.95 "/>
<polyline clip-path="url(#clip752)" style="stroke:#0000ff; stroke-linecap:round; stroke-linejoin:round; stroke-width:4; stroke-opacity:1; fill:none" points="287.366,-1426.38 337.765,-1436.55 388.164,-1468.06 438.563,-1514.72 488.962,-1580.05 539.361,-1659.3 589.76,-1755.32 640.159,-1851.77 690.558,-1937.95 740.957,-1986.92 791.356,-2110.39 841.755,-2044.46 892.154,-1973.42 942.553,-1868.04 992.952,-1900.5 1043.35,-1940.59 1097.91,-1913.94 1152.47,-1846.9 1207.03,-1777.23 1261.59,-1741.84 1316.14,-1749.36 1370.7,-1788.12 1425.26,-1836.3 1479.82,-1825.78 1531.17,-1910.7 1582.52,-1971.93 1633.87,-2068.58 1685.22,-2130.38 1736.57,-2001.15 1787.91,-1884.24 1839.26,-1935.77 1890.61,-2049.5 1941.96,-2184.35 1993.31,-2023.55 2044.66,-1848.85 2096.01,-1708.61 2147.36,-1600.35 2198.71,-1521.12 2250.06,-1470 2301.41,-1436.95 2352.76,-1426.38 "/>
<polyline clip-path="url(#clip752)" style="stroke:#0000ff; stroke-linecap:round; stroke-linejoin:round; stroke-width:4; stroke-opacity:1; fill:none" points="287.366,-2253.82 337.765,-2259.03 388.164,-2272.77 438.563,-2295.86 488.962,-2324.06 539.361,-2355.87 589.76,-2384.96 640.159,-2397.53 690.558,-2373.74 740.957,-2300.33 791.356,-2186.2 841.755,-2237.32 892.154,-2057.93 942.553,-2111.03 992.952,-2252.66 1043.35,-2223.59 1097.91,-2230.15 1152.47,-2250.54 1207.03,-2285.4 1261.59,-2295.68 1316.14,-2246.38 1370.7,-2143.18 1425.26,-1958.25 1479.82,-1880.37 1531.17,-1921.95 1582.52,-2046 1633.87,-2121.89 1685.22,-2169.81 1736.57,-2300.02 1787.91,-2423.1 1839.26,-2463.24 1890.61,-2367.57 1941.96,-2194.22 1993.31,-2301.04 2044.66,-2354.62 2096.01,-2350.47 2147.36,-2325.29 2198.71,-2296.15 2250.06,-2273.81 2301.41,-2259.07 2352.76,-2253.82 "/>
<polyline clip-path="url(#clip752)" style="stroke:#0000ff; stroke-linecap:round; stroke-linejoin:round; stroke-width:4; stroke-opacity:1; fill:none" points="287.366,-2643.78 337.765,-2650.09 388.164,-2668.15 438.563,-2697.41 488.962,-2736.92 539.361,-2786.99 589.76,-2846.65 640.159,-2867.76 690.558,-2778.64 740.957,-2577.06 791.356,-2400.53 841.755,-2315.92 892.154,-2402.38 942.553,-2321 992.952,-2255.03 1043.35,-2380.14 1097.91,-2377.77 1152.47,-2363.33 1207.03,-2335.15 1261.59,-2334.58 1316.14,-2379.44 1370.7,-2203.73 1425.26,-2142.04 1479.82,-2043.66 1531.17,-2091.69 1582.52,-2154.24 1633.87,-2182.19 1685.22,-2203.16 1736.57,-2347.22 1787.91,-2511.92 1839.26,-2689.31 1890.61,-2828.64 1941.96,-2777.22 1993.31,-2771.94 2044.66,-2853.62 2096.01,-2791.92 2147.36,-2740.45 2198.71,-2699.14 2250.06,-2669.15 2301.41,-2650.43 2352.76,-2643.78 "/>
<polyline clip-path="url(#clip752)" style="stroke:#0000ff; stroke-linecap:round; stroke-linejoin:round; stroke-width:4; stroke-opacity:1; fill:none" points="287.366,-2999.69 337.765,-3017.73 388.164,-3067.43 438.563,-3145.84 488.962,-3237.49 539.361,-3148.85 589.76,-2993.66 640.159,-2914.84 690.558,-2789.41 740.957,-2704.61 791.356,-2607 841.755,-2498.25 892.154,-2501.05 942.553,-2631.15 992.952,-2530.16 1043.35,-2411.27 1097.91,-2415.21 1152.47,-2424.63 1207.03,-2438.73 1261.59,-2451.36 1316.14,-2396.81 1370.7,-2330.48 1425.26,-2180.03 1479.82,-2185.69 1531.17,-2218.81 1582.52,-2288.71 1633.87,-2258.11 1685.22,-2329.48 1736.57,-2487.18 1787.91,-2654.68 1839.26,-2823.35 1890.61,-2877.85 1941.96,-2998.28 1993.31,-2925.19 2044.66,-2855.19 2096.01,-3020.27 2147.36,-3227.82 2198.71,-3149.09 2250.06,-3070.58 2301.41,-3018.34 2352.76,-2999.68 "/>
<polyline clip-path="url(#clip752)" style="stroke:#0000ff; stroke-linecap:round; stroke-linejoin:round; stroke-width:4; stroke-opacity:1; fill:none" points="287.366,-3931.12 337.765,-3866.61 388.164,-3708.57 438.563,-3518.32 488.962,-3326.61 539.361,-3320 589.76,-3256.52 640.159,-3031.43 690.558,-2994.88 740.957,-2948.58 791.356,-2789.68 841.755,-2712.87 892.154,-2683.47 942.553,-2658.86 992.952,-2777.93 1043.35,-2757.8 1097.91,-2645.01 1152.47,-2562.81 1207.03,-2529.13 1261.59,-2518.42 1316.14,-2455.5 1370.7,-2421.62 1425.26,-2292.34 1479.82,-2185.69 1531.17,-2233.95 1582.52,-2312.47 1633.87,-2418.73 1685.22,-2540.02 1736.57,-2669.68 1787.91,-2769.13 1839.26,-2830.24 1890.61,-2952.17 1941.96,-3084.25 1993.31,-3261 2044.66,-3366.04 2096.01,-3336.07 2147.36,-3247.17 2198.71,-3451.85 2250.06,-3672.89 2301.41,-3855.26 2352.76,-3931.12 "/>
<polyline clip-path="url(#clip752)" style="stroke:#0000ff; stroke-linecap:round; stroke-linejoin:round; stroke-width:4; stroke-opacity:1; fill:none" points="287.366,-3931.12 337.765,-3885.37 388.164,-3780.98 438.563,-3658.17 488.962,-3534.25 539.361,-3416.29 589.76,-3307.16 640.159,-3207.99 690.558,-3119.65 740.957,-3042.61 791.356,-2977.17 841.755,-2923.5 892.154,-2881.61 942.553,-2851.5 992.952,-2786.08 1043.35,-2818.09 1097.91,-2806.98 1152.47,-2775.08 1207.03,-2762.12 1261.59,-2647.76 1316.14,-2477.29 1370.7,-2472.47 1425.26,-2427.69 1479.82,-2403.15 1531.17,-2415.96 1582.52,-2408.84 1633.87,-2430.57 1685.22,-2542.01 1736.57,-2679.67 1787.91,-2817.4 1839.26,-2873.86 1890.61,-3011.02 1941.96,-3134.49 1993.31,-3345.54 2044.66,-3492.93 2096.01,-3596.08 2147.36,-3677.28 2198.71,-3750.77 2250.06,-3827.39 2301.41,-3898.43 2352.76,-3931.12 "/>
<polyline clip-path="url(#clip752)" style="stroke:#0000ff; stroke-linecap:round; stroke-linejoin:round; stroke-width:4; stroke-opacity:1; fill:none" points="287.366,-3933.22 337.765,-3944.4 388.164,-3976.17 438.563,-4020.36 488.962,-3943.1 539.361,-3670.81 589.76,-3524.68 640.159,-3389.98 690.558,-3168.49 740.957,-3086.38 791.356,-3028.09 841.755,-3006.31 892.154,-2949.42 942.553,-2860.22 992.952,-2833.57 1043.35,-2827.56 1097.91,-2983.76 1152.47,-3165.3 1207.03,-2929.65 1261.59,-2775.49 1316.14,-2772.58 1370.7,-2540.95 1425.26,-2561.08 1479.82,-2663.22 1531.17,-2538.92 1582.52,-2425.4 1633.87,-2456.01 1685.22,-2582.51 1736.57,-2731.17 1787.91,-2895.3 1839.26,-3064.68 1890.61,-3092.63 1941.96,-3189.62 1993.31,-3356.51 2044.66,-3573.32 2096.01,-3817.01 2147.36,-4031.26 2198.71,-3987.83 2250.06,-3957.71 2301.41,-3939.01 2352.76,-3933.22 "/>
<polyline clip-path="url(#clip752)" style="stroke:#0000ff; stroke-linecap:round; stroke-linejoin:round; stroke-width:4; stroke-opacity:1; fill:none" points="287.366,-4523.2 337.765,-4500.73 388.164,-4487.38 438.563,-4248.18 488.962,-4043.53 539.361,-3923.23 589.76,-3682.52 640.159,-3440.75 690.558,-3231.12 740.957,-3086.57 791.356,-3173.03 841.755,-3253.94 892.154,-3268 942.553,-3227.91 992.952,-3217.56 1043.35,-3212.15 1097.91,-3241.42 1152.47,-3226.54 1207.03,-3169.46 1261.59,-2962.85 1316.14,-2781.77 1370.7,-2726.39 1425.26,-2724.54 1479.82,-2663.22 1531.17,-2771.33 1582.52,-2889.53 1633.87,-3018.13 1685.22,-3154.69 1736.57,-3178.69 1787.91,-3109.27 1839.26,-3142.99 1890.61,-3266.38 1941.96,-3446.81 1993.31,-3601.08 2044.66,-3721.01 2096.01,-3905 2147.36,-4074.35 2198.71,-4344.2 2250.06,-4478.05 2301.41,-4499.28 2352.76,-4523.2 "/>
<polyline clip-path="url(#clip752)" style="stroke:#0000ff; stroke-linecap:round; stroke-linejoin:round; stroke-width:4; stroke-opacity:1; fill:none" points="287.366,-4523.2 337.765,-4579.84 388.164,-4568.61 438.563,-4494.29 488.962,-4329.48 539.361,-4039.69 589.76,-3799.19 640.159,-3737.17 690.558,-3780.72 740.957,-3759.51 791.356,-3582.41 841.755,-3457.24 892.154,-3425.77 942.553,-3475.09 992.952,-3532.64 1043.35,-3550.88 1097.91,-3510.58 1152.47,-3304 1207.03,-3301.93 1261.59,-3034.78 1316.14,-2808.25 1370.7,-2865.21 1425.26,-2940.86 1479.82,-3029.96 1531.17,-2946.05 1582.52,-2956.47 1633.87,-3065.93 1685.22,-3197.63 1736.57,-3191.4 1787.91,-3118.75 1839.26,-3170.33 1890.61,-3297.42 1941.96,-3495.57 1993.31,-3712.43 2044.66,-3939.88 2096.01,-4080.84 2147.36,-4142.11 2198.71,-4403.73 2250.06,-4625.98 2301.41,-4582.73 2352.76,-4523.2 "/>
<polyline clip-path="url(#clip752)" style="stroke:#0000ff; stroke-linecap:round; stroke-linejoin:round; stroke-width:4; stroke-opacity:1; fill:none" points="287.366,-4616.28 337.765,-4621.92 388.164,-4638.02 438.563,-4630.65 488.962,-4348.82 539.361,-4233.24 589.76,-4216.07 640.159,-4126.47 690.558,-3955.08 740.957,-3760.72 791.356,-3631.56 841.755,-3484.55 892.154,-3430.2 942.553,-3482.54 992.952,-3552.84 1043.35,-3595.71 1097.91,-3561.98 1152.47,-3465.4 1207.03,-3388.3 1261.59,-3274.17 1316.14,-3168.04 1370.7,-3100.23 1425.26,-3077.42 1479.82,-3029.96 1531.17,-3085.88 1582.52,-3164.19 1633.87,-3239.95 1685.22,-3255.32 1736.57,-3269.12 1787.91,-3254.53 1839.26,-3190.85 1890.61,-3330.26 1941.96,-3524.14 1993.31,-3740.28 2044.66,-3971.67 2096.01,-4180.55 2147.36,-4376.08 2198.71,-4460.18 2250.06,-4638.22 2301.41,-4622.25 2352.76,-4616.28 "/>
<polyline clip-path="url(#clip752)" style="stroke:#0000ff; stroke-linecap:round; stroke-linejoin:round; stroke-width:4; stroke-opacity:1; fill:none" points="287.366,-4860.38 337.765,-4897 388.164,-4715.27 438.563,-4637.22 488.962,-4522.22 539.361,-4446.46 589.76,-4329.75 640.159,-4224.87 690.558,-4131.69 740.957,-4046.13 791.356,-3980.03 841.755,-3921.15 892.154,-3873 942.553,-3836.01 992.952,-3811.9 1043.35,-3803.03 1097.91,-3601.51 1152.47,-3600.47 1207.03,-3403.15 1261.59,-3481.42 1316.14,-3445.42 1370.7,-3272.96 1425.26,-3112.06 1479.82,-3047.13 1531.17,-3125.03 1582.52,-3221.01 1633.87,-3291.54 1685.22,-3272.71 1736.57,-3296.64 1787.91,-3440.99 1839.26,-3581.81 1890.61,-3711.8 1941.96,-3825.7 1993.31,-3936.17 2044.66,-4068.15 2096.01,-4218.23 2147.36,-4459.46 2198.71,-4666.08 2250.06,-4681 2301.41,-4917.02 2352.76,-4860.38 "/>
<polyline clip-path="url(#clip752)" style="stroke:#0000ff; stroke-linecap:round; stroke-linejoin:round; stroke-width:4; stroke-opacity:1; fill:none" points="287.366,-5162.49 337.765,-4972.92 388.164,-4866.73 438.563,-4664.2 488.962,-4575.01 539.361,-4515.39 589.76,-4470.12 640.159,-4353.78 690.558,-4189.81 740.957,-4050.09 791.356,-3998.09 841.755,-3978.45 892.154,-3962.04 942.553,-3948.76 992.952,-3940.15 1043.35,-3915.78 1097.91,-3828.6 1152.47,-3620.1 1207.03,-3501.7 1261.59,-3535.43 1316.14,-3572.81 1370.7,-3510.87 1425.26,-3306.58 1479.82,-3211.05 1531.17,-3259.79 1582.52,-3356.13 1633.87,-3471.08 1685.22,-3579.28 1736.57,-3660.74 1787.91,-3751.66 1839.26,-3841.23 1890.61,-3910.77 1941.96,-3928.46 1993.31,-3953.33 2044.66,-4075.12 2096.01,-4243.36 2147.36,-4478.24 2198.71,-4704.9 2250.06,-4729.96 2301.41,-4961.66 2352.76,-5162.49 "/>
<polyline clip-path="url(#clip752)" style="stroke:#008000; stroke-linecap:round; stroke-linejoin:round; stroke-width:6; stroke-opacity:1; fill:none" points="-1778.02,735.212 4418.15,735.212 "/>
<path clip-path="url(#clip750)" d="M2030.31 196.789 L2283.91 196.789 L2283.91 93.1086 L2030.31 93.1086  Z" fill="#ffffff" fill-rule="evenodd" fill-opacity="1"/>
<polyline clip-path="url(#clip750)" style="stroke:#000000; stroke-linecap:round; stroke-linejoin:round; stroke-width:4; stroke-opacity:1; fill:none" points="2030.31,196.789 2283.91,196.789 2283.91,93.1086 2030.31,93.1086 2030.31,196.789 "/>
<polyline clip-path="url(#clip750)" style="stroke:#008000; stroke-linecap:round; stroke-linejoin:round; stroke-width:6; stroke-opacity:1; fill:none" points="2053.26,144.949 2190.95,144.949 "/>
<path clip-path="url(#clip750)" d="M2219.97 148.247 Q2217.37 147.692 2215.98 146.187 Q2214.6 144.706 2214.6 142.553 Q2214.6 139.289 2217.23 137.46 Q2219.85 135.655 2224.39 135.655 Q2226.15 135.655 2228.11 135.932 Q2230.08 136.21 2232.35 136.766 L2232.35 140.632 Q2230.1 139.96 2228.25 139.659 Q2226.38 139.358 2224.73 139.358 Q2221.98 139.358 2220.38 140.423 Q2218.76 141.488 2218.76 142.969 Q2218.76 144.59 2220.34 145.631 Q2221.89 146.65 2224.57 146.65 L2228.16 146.65 L2228.16 150.168 L2224.73 150.168 Q2221.56 150.168 2219.9 151.349 Q2218.09 152.645 2218.09 154.682 Q2218.09 156.766 2220.04 158.062 Q2222 159.358 2225.5 159.358 Q2227.65 159.358 2229.62 158.942 Q2231.59 158.502 2233.23 157.645 L2233.23 161.604 Q2231.15 162.252 2229.2 162.576 Q2227.23 162.9 2225.38 162.9 Q2219.87 162.9 2216.89 160.793 Q2213.9 158.687 2213.9 154.682 Q2213.9 152.182 2215.5 150.493 Q2217.1 148.803 2219.97 148.247 Z" fill="#000000" fill-rule="nonzero" fill-opacity="1" /><path clip-path="url(#clip750)" d="M2241.1 127.669 L2260.96 127.669 L2260.96 131.604 L2245.78 131.604 L2245.78 141.789 L2259.48 141.789 L2259.48 145.724 L2245.78 145.724 L2245.78 162.229 L2241.1 162.229 L2241.1 127.669 Z" fill="#000000" fill-rule="nonzero" fill-opacity="1" /></svg>
