<?xml version="1.0" encoding="utf-8"?>
<svg xmlns="http://www.w3.org/2000/svg" xmlns:xlink="http://www.w3.org/1999/xlink" width="600" height="400" viewBox="0 0 2400 1600">
<defs>
  <clipPath id="clip420">
    <rect x="0" y="0" width="2400" height="1600"/>
  </clipPath>
</defs>
<path clip-path="url(#clip420)" d="M0 1600 L2400 1600 L2400 0 L0 0  Z" fill="#ffffff" fill-rule="evenodd" fill-opacity="1"/>
<defs>
  <clipPath id="clip421">
    <rect x="480" y="0" width="1681" height="1600"/>
  </clipPath>
</defs>
<path clip-path="url(#clip420)" d="M317.528 1423.18 L2352.76 1423.18 L2352.76 47.2441 L317.528 47.2441  Z" fill="#ffffff" fill-rule="evenodd" fill-opacity="1"/>
<defs>
  <clipPath id="clip422">
    <rect x="317" y="47" width="2036" height="1377"/>
  </clipPath>
</defs>
<polyline clip-path="url(#clip422)" style="stroke:#000000; stroke-linecap:round; stroke-linejoin:round; stroke-width:2; stroke-opacity:0.1; fill:none" points="451.93,1423.18 451.93,47.2441 "/>
<polyline clip-path="url(#clip422)" style="stroke:#000000; stroke-linecap:round; stroke-linejoin:round; stroke-width:2; stroke-opacity:0.1; fill:none" points="835.935,1423.18 835.935,47.2441 "/>
<polyline clip-path="url(#clip422)" style="stroke:#000000; stroke-linecap:round; stroke-linejoin:round; stroke-width:2; stroke-opacity:0.1; fill:none" points="1219.94,1423.18 1219.94,47.2441 "/>
<polyline clip-path="url(#clip422)" style="stroke:#000000; stroke-linecap:round; stroke-linejoin:round; stroke-width:2; stroke-opacity:0.1; fill:none" points="1603.95,1423.18 1603.95,47.2441 "/>
<polyline clip-path="url(#clip422)" style="stroke:#000000; stroke-linecap:round; stroke-linejoin:round; stroke-width:2; stroke-opacity:0.1; fill:none" points="1987.95,1423.18 1987.95,47.2441 "/>
<polyline clip-path="url(#clip422)" style="stroke:#000000; stroke-linecap:round; stroke-linejoin:round; stroke-width:2; stroke-opacity:0.1; fill:none" points="317.528,1370.67 2352.76,1370.67 "/>
<polyline clip-path="url(#clip422)" style="stroke:#000000; stroke-linecap:round; stroke-linejoin:round; stroke-width:2; stroke-opacity:0.1; fill:none" points="317.528,1053.12 2352.76,1053.12 "/>
<polyline clip-path="url(#clip422)" style="stroke:#000000; stroke-linecap:round; stroke-linejoin:round; stroke-width:2; stroke-opacity:0.1; fill:none" points="317.528,735.566 2352.76,735.566 "/>
<polyline clip-path="url(#clip422)" style="stroke:#000000; stroke-linecap:round; stroke-linejoin:round; stroke-width:2; stroke-opacity:0.1; fill:none" points="317.528,418.014 2352.76,418.014 "/>
<polyline clip-path="url(#clip422)" style="stroke:#000000; stroke-linecap:round; stroke-linejoin:round; stroke-width:2; stroke-opacity:0.1; fill:none" points="317.528,100.461 2352.76,100.461 "/>
<polyline clip-path="url(#clip420)" style="stroke:#000000; stroke-linecap:round; stroke-linejoin:round; stroke-width:4; stroke-opacity:1; fill:none" points="317.528,1423.18 2352.76,1423.18 "/>
<polyline clip-path="url(#clip420)" style="stroke:#000000; stroke-linecap:round; stroke-linejoin:round; stroke-width:4; stroke-opacity:1; fill:none" points="451.93,1423.18 451.93,1404.28 "/>
<polyline clip-path="url(#clip420)" style="stroke:#000000; stroke-linecap:round; stroke-linejoin:round; stroke-width:4; stroke-opacity:1; fill:none" points="835.935,1423.18 835.935,1404.28 "/>
<polyline clip-path="url(#clip420)" style="stroke:#000000; stroke-linecap:round; stroke-linejoin:round; stroke-width:4; stroke-opacity:1; fill:none" points="1219.94,1423.18 1219.94,1404.28 "/>
<polyline clip-path="url(#clip420)" style="stroke:#000000; stroke-linecap:round; stroke-linejoin:round; stroke-width:4; stroke-opacity:1; fill:none" points="1603.95,1423.18 1603.95,1404.28 "/>
<polyline clip-path="url(#clip420)" style="stroke:#000000; stroke-linecap:round; stroke-linejoin:round; stroke-width:4; stroke-opacity:1; fill:none" points="1987.95,1423.18 1987.95,1404.28 "/>
<path clip-path="url(#clip420)" d="M419.569 1484.86 L419.569 1480.6 Q421.328 1481.44 423.133 1481.88 Q424.939 1482.32 426.675 1482.32 Q431.305 1482.32 433.735 1479.21 Q436.189 1476.09 436.536 1469.75 Q435.194 1471.74 433.133 1472.8 Q431.073 1473.87 428.573 1473.87 Q423.388 1473.87 420.356 1470.74 Q417.346 1467.59 417.346 1462.15 Q417.346 1456.83 420.495 1453.61 Q423.643 1450.39 428.874 1450.39 Q434.87 1450.39 438.018 1455 Q441.189 1459.58 441.189 1468.33 Q441.189 1476.51 437.3 1481.39 Q433.434 1486.25 426.883 1486.25 Q425.124 1486.25 423.319 1485.9 Q421.513 1485.56 419.569 1484.86 M428.874 1470.21 Q432.022 1470.21 433.851 1468.06 Q435.703 1465.9 435.703 1462.15 Q435.703 1458.43 433.851 1456.27 Q432.022 1454.1 428.874 1454.1 Q425.726 1454.1 423.874 1456.27 Q422.046 1458.43 422.046 1462.15 Q422.046 1465.9 423.874 1468.06 Q425.726 1470.21 428.874 1470.21 Z" fill="#000000" fill-rule="nonzero" fill-opacity="1" /><path clip-path="url(#clip420)" d="M449.592 1479.7 L454.476 1479.7 L454.476 1485.58 L449.592 1485.58 L449.592 1479.7 Z" fill="#000000" fill-rule="nonzero" fill-opacity="1" /><path clip-path="url(#clip420)" d="M474.661 1469.17 Q471.328 1469.17 469.406 1470.95 Q467.508 1472.73 467.508 1475.86 Q467.508 1478.98 469.406 1480.77 Q471.328 1482.55 474.661 1482.55 Q477.994 1482.55 479.916 1480.77 Q481.837 1478.96 481.837 1475.86 Q481.837 1472.73 479.916 1470.95 Q478.017 1469.17 474.661 1469.17 M469.985 1467.18 Q466.976 1466.44 465.286 1464.38 Q463.619 1462.32 463.619 1459.35 Q463.619 1455.21 466.559 1452.8 Q469.522 1450.39 474.661 1450.39 Q479.823 1450.39 482.763 1452.8 Q485.703 1455.21 485.703 1459.35 Q485.703 1462.32 484.013 1464.38 Q482.346 1466.44 479.36 1467.18 Q482.74 1467.96 484.615 1470.26 Q486.513 1472.55 486.513 1475.86 Q486.513 1480.88 483.434 1483.57 Q480.379 1486.25 474.661 1486.25 Q468.943 1486.25 465.865 1483.57 Q462.809 1480.88 462.809 1475.86 Q462.809 1472.55 464.707 1470.26 Q466.605 1467.96 469.985 1467.18 M468.272 1459.79 Q468.272 1462.48 469.939 1463.98 Q471.629 1465.49 474.661 1465.49 Q477.67 1465.49 479.36 1463.98 Q481.073 1462.48 481.073 1459.79 Q481.073 1457.11 479.36 1455.6 Q477.67 1454.1 474.661 1454.1 Q471.629 1454.1 469.939 1455.6 Q468.272 1457.11 468.272 1459.79 Z" fill="#000000" fill-rule="nonzero" fill-opacity="1" /><path clip-path="url(#clip420)" d="M788.007 1481.64 L795.646 1481.64 L795.646 1455.28 L787.336 1456.95 L787.336 1452.69 L795.6 1451.02 L800.275 1451.02 L800.275 1481.64 L807.914 1481.64 L807.914 1485.58 L788.007 1485.58 L788.007 1481.64 Z" fill="#000000" fill-rule="nonzero" fill-opacity="1" /><path clip-path="url(#clip420)" d="M827.359 1454.1 Q823.748 1454.1 821.919 1457.66 Q820.113 1461.2 820.113 1468.33 Q820.113 1475.44 821.919 1479.01 Q823.748 1482.55 827.359 1482.55 Q830.993 1482.55 832.798 1479.01 Q834.627 1475.44 834.627 1468.33 Q834.627 1461.2 832.798 1457.66 Q830.993 1454.1 827.359 1454.1 M827.359 1450.39 Q833.169 1450.39 836.224 1455 Q839.303 1459.58 839.303 1468.33 Q839.303 1477.06 836.224 1481.67 Q833.169 1486.25 827.359 1486.25 Q821.548 1486.25 818.47 1481.67 Q815.414 1477.06 815.414 1468.33 Q815.414 1459.58 818.47 1455 Q821.548 1450.39 827.359 1450.39 Z" fill="#000000" fill-rule="nonzero" fill-opacity="1" /><path clip-path="url(#clip420)" d="M847.521 1479.7 L852.405 1479.7 L852.405 1485.58 L847.521 1485.58 L847.521 1479.7 Z" fill="#000000" fill-rule="nonzero" fill-opacity="1" /><path clip-path="url(#clip420)" d="M872.59 1454.1 Q868.979 1454.1 867.15 1457.66 Q865.345 1461.2 865.345 1468.33 Q865.345 1475.44 867.15 1479.01 Q868.979 1482.55 872.59 1482.55 Q876.224 1482.55 878.03 1479.01 Q879.858 1475.44 879.858 1468.33 Q879.858 1461.2 878.03 1457.66 Q876.224 1454.1 872.59 1454.1 M872.59 1450.39 Q878.4 1450.39 881.456 1455 Q884.534 1459.58 884.534 1468.33 Q884.534 1477.06 881.456 1481.67 Q878.4 1486.25 872.59 1486.25 Q866.78 1486.25 863.701 1481.67 Q860.645 1477.06 860.645 1468.33 Q860.645 1459.58 863.701 1455 Q866.78 1450.39 872.59 1450.39 Z" fill="#000000" fill-rule="nonzero" fill-opacity="1" /><path clip-path="url(#clip420)" d="M1172.81 1481.64 L1180.45 1481.64 L1180.45 1455.28 L1172.14 1456.95 L1172.14 1452.69 L1180.4 1451.02 L1185.08 1451.02 L1185.08 1481.64 L1192.72 1481.64 L1192.72 1485.58 L1172.81 1485.58 L1172.81 1481.64 Z" fill="#000000" fill-rule="nonzero" fill-opacity="1" /><path clip-path="url(#clip420)" d="M1212.16 1454.1 Q1208.55 1454.1 1206.72 1457.66 Q1204.92 1461.2 1204.92 1468.33 Q1204.92 1475.44 1206.72 1479.01 Q1208.55 1482.55 1212.16 1482.55 Q1215.8 1482.55 1217.6 1479.01 Q1219.43 1475.44 1219.43 1468.33 Q1219.43 1461.2 1217.6 1457.66 Q1215.8 1454.1 1212.16 1454.1 M1212.16 1450.39 Q1217.97 1450.39 1221.03 1455 Q1224.11 1459.58 1224.11 1468.33 Q1224.11 1477.06 1221.03 1481.67 Q1217.97 1486.25 1212.16 1486.25 Q1206.35 1486.25 1203.27 1481.67 Q1200.22 1477.06 1200.22 1468.33 Q1200.22 1459.58 1203.27 1455 Q1206.35 1450.39 1212.16 1450.39 Z" fill="#000000" fill-rule="nonzero" fill-opacity="1" /><path clip-path="url(#clip420)" d="M1232.32 1479.7 L1237.21 1479.7 L1237.21 1485.58 L1232.32 1485.58 L1232.32 1479.7 Z" fill="#000000" fill-rule="nonzero" fill-opacity="1" /><path clip-path="url(#clip420)" d="M1251.42 1481.64 L1267.74 1481.64 L1267.74 1485.58 L1245.8 1485.58 L1245.8 1481.64 Q1248.46 1478.89 1253.04 1474.26 Q1257.65 1469.61 1258.83 1468.27 Q1261.07 1465.74 1261.95 1464.01 Q1262.86 1462.25 1262.86 1460.56 Q1262.86 1457.8 1260.91 1456.07 Q1258.99 1454.33 1255.89 1454.33 Q1253.69 1454.33 1251.24 1455.09 Q1248.81 1455.86 1246.03 1457.41 L1246.03 1452.69 Q1248.85 1451.55 1251.31 1450.97 Q1253.76 1450.39 1255.8 1450.39 Q1261.17 1450.39 1264.36 1453.08 Q1267.56 1455.77 1267.56 1460.26 Q1267.56 1462.39 1266.75 1464.31 Q1265.96 1466.2 1263.85 1468.8 Q1263.27 1469.47 1260.17 1472.69 Q1257.07 1475.88 1251.42 1481.64 Z" fill="#000000" fill-rule="nonzero" fill-opacity="1" /><path clip-path="url(#clip420)" d="M1555.77 1481.64 L1563.41 1481.64 L1563.41 1455.28 L1555.1 1456.95 L1555.1 1452.69 L1563.37 1451.02 L1568.04 1451.02 L1568.04 1481.64 L1575.68 1481.64 L1575.68 1485.58 L1555.77 1485.58 L1555.77 1481.64 Z" fill="#000000" fill-rule="nonzero" fill-opacity="1" /><path clip-path="url(#clip420)" d="M1595.13 1454.1 Q1591.52 1454.1 1589.69 1457.66 Q1587.88 1461.2 1587.88 1468.33 Q1587.88 1475.44 1589.69 1479.01 Q1591.52 1482.55 1595.13 1482.55 Q1598.76 1482.55 1600.57 1479.01 Q1602.39 1475.44 1602.39 1468.33 Q1602.39 1461.2 1600.57 1457.66 Q1598.76 1454.1 1595.13 1454.1 M1595.13 1450.39 Q1600.94 1450.39 1603.99 1455 Q1607.07 1459.58 1607.07 1468.33 Q1607.07 1477.06 1603.99 1481.67 Q1600.94 1486.25 1595.13 1486.25 Q1589.32 1486.25 1586.24 1481.67 Q1583.18 1477.06 1583.18 1468.33 Q1583.18 1459.58 1586.24 1455 Q1589.32 1450.39 1595.13 1450.39 Z" fill="#000000" fill-rule="nonzero" fill-opacity="1" /><path clip-path="url(#clip420)" d="M1615.29 1479.7 L1620.17 1479.7 L1620.17 1485.58 L1615.29 1485.58 L1615.29 1479.7 Z" fill="#000000" fill-rule="nonzero" fill-opacity="1" /><path clip-path="url(#clip420)" d="M1643.2 1455.09 L1631.4 1473.54 L1643.2 1473.54 L1643.2 1455.09 M1641.98 1451.02 L1647.86 1451.02 L1647.86 1473.54 L1652.79 1473.54 L1652.79 1477.43 L1647.86 1477.43 L1647.86 1485.58 L1643.2 1485.58 L1643.2 1477.43 L1627.6 1477.43 L1627.6 1472.92 L1641.98 1451.02 Z" fill="#000000" fill-rule="nonzero" fill-opacity="1" /><path clip-path="url(#clip420)" d="M1939.94 1481.64 L1947.58 1481.64 L1947.58 1455.28 L1939.27 1456.95 L1939.27 1452.69 L1947.53 1451.02 L1952.21 1451.02 L1952.21 1481.64 L1959.85 1481.64 L1959.85 1485.58 L1939.94 1485.58 L1939.94 1481.64 Z" fill="#000000" fill-rule="nonzero" fill-opacity="1" /><path clip-path="url(#clip420)" d="M1979.29 1454.1 Q1975.68 1454.1 1973.85 1457.66 Q1972.05 1461.2 1972.05 1468.33 Q1972.05 1475.44 1973.85 1479.01 Q1975.68 1482.55 1979.29 1482.55 Q1982.93 1482.55 1984.73 1479.01 Q1986.56 1475.44 1986.56 1468.33 Q1986.56 1461.2 1984.73 1457.66 Q1982.93 1454.1 1979.29 1454.1 M1979.29 1450.39 Q1985.1 1450.39 1988.16 1455 Q1991.24 1459.58 1991.24 1468.33 Q1991.24 1477.06 1988.16 1481.67 Q1985.1 1486.25 1979.29 1486.25 Q1973.48 1486.25 1970.4 1481.67 Q1967.35 1477.06 1967.35 1468.33 Q1967.35 1459.58 1970.4 1455 Q1973.48 1450.39 1979.29 1450.39 Z" fill="#000000" fill-rule="nonzero" fill-opacity="1" /><path clip-path="url(#clip420)" d="M1999.46 1479.7 L2004.34 1479.7 L2004.34 1485.58 L1999.46 1485.58 L1999.46 1479.7 Z" fill="#000000" fill-rule="nonzero" fill-opacity="1" /><path clip-path="url(#clip420)" d="M2025.1 1466.44 Q2021.96 1466.44 2020.1 1468.59 Q2018.27 1470.74 2018.27 1474.49 Q2018.27 1478.22 2020.1 1480.39 Q2021.96 1482.55 2025.1 1482.55 Q2028.25 1482.55 2030.08 1480.39 Q2031.93 1478.22 2031.93 1474.49 Q2031.93 1470.74 2030.08 1468.59 Q2028.25 1466.44 2025.1 1466.44 M2034.39 1451.78 L2034.39 1456.04 Q2032.63 1455.21 2030.82 1454.77 Q2029.04 1454.33 2027.28 1454.33 Q2022.65 1454.33 2020.2 1457.45 Q2017.77 1460.58 2017.42 1466.9 Q2018.78 1464.89 2020.84 1463.82 Q2022.9 1462.73 2025.38 1462.73 Q2030.59 1462.73 2033.6 1465.9 Q2036.63 1469.05 2036.63 1474.49 Q2036.63 1479.82 2033.48 1483.03 Q2030.33 1486.25 2025.1 1486.25 Q2019.11 1486.25 2015.94 1481.67 Q2012.77 1477.06 2012.77 1468.33 Q2012.77 1460.14 2016.65 1455.28 Q2020.54 1450.39 2027.09 1450.39 Q2028.85 1450.39 2030.64 1450.74 Q2032.44 1451.09 2034.39 1451.78 Z" fill="#000000" fill-rule="nonzero" fill-opacity="1" /><path clip-path="url(#clip420)" d="M916.167 1518.52 L922.023 1518.52 L922.023 1568.04 L916.167 1568.04 L916.167 1518.52 Z" fill="#000000" fill-rule="nonzero" fill-opacity="1" /><path clip-path="url(#clip420)" d="M950.478 1550.12 Q943.38 1550.12 940.643 1551.75 Q937.906 1553.37 937.906 1557.29 Q937.906 1560.4 939.943 1562.25 Q942.012 1564.07 945.545 1564.07 Q950.414 1564.07 953.343 1560.63 Q956.303 1557.16 956.303 1551.43 L956.303 1550.12 L950.478 1550.12 M962.159 1547.71 L962.159 1568.04 L956.303 1568.04 L956.303 1562.63 Q954.298 1565.88 951.306 1567.44 Q948.314 1568.97 943.985 1568.97 Q938.511 1568.97 935.264 1565.91 Q932.049 1562.82 932.049 1557.67 Q932.049 1551.65 936.06 1548.6 Q940.102 1545.54 948.091 1545.54 L956.303 1545.54 L956.303 1544.97 Q956.303 1540.93 953.629 1538.73 Q950.987 1536.5 946.181 1536.5 Q943.126 1536.5 940.229 1537.23 Q937.333 1537.97 934.659 1539.43 L934.659 1534.02 Q937.874 1532.78 940.898 1532.17 Q943.921 1531.54 946.786 1531.54 Q954.52 1531.54 958.34 1535.55 Q962.159 1539.56 962.159 1547.71 Z" fill="#000000" fill-rule="nonzero" fill-opacity="1" /><path clip-path="url(#clip420)" d="M980.015 1522.27 L980.015 1532.4 L992.078 1532.4 L992.078 1536.95 L980.015 1536.95 L980.015 1556.3 Q980.015 1560.66 981.193 1561.9 Q982.402 1563.14 986.062 1563.14 L992.078 1563.14 L992.078 1568.04 L986.062 1568.04 Q979.283 1568.04 976.705 1565.53 Q974.127 1562.98 974.127 1556.3 L974.127 1536.95 L969.83 1536.95 L969.83 1532.4 L974.127 1532.4 L974.127 1522.27 L980.015 1522.27 Z" fill="#000000" fill-rule="nonzero" fill-opacity="1" /><path clip-path="url(#clip420)" d="M1005.57 1522.27 L1005.57 1532.4 L1017.64 1532.4 L1017.64 1536.95 L1005.57 1536.95 L1005.57 1556.3 Q1005.57 1560.66 1006.75 1561.9 Q1007.96 1563.14 1011.62 1563.14 L1017.64 1563.14 L1017.64 1568.04 L1011.62 1568.04 Q1004.84 1568.04 1002.26 1565.53 Q999.685 1562.98 999.685 1556.3 L999.685 1536.95 L995.388 1536.95 L995.388 1532.4 L999.685 1532.4 L999.685 1522.27 L1005.57 1522.27 Z" fill="#000000" fill-rule="nonzero" fill-opacity="1" /><path clip-path="url(#clip420)" d="M1025.34 1532.4 L1031.2 1532.4 L1031.2 1568.04 L1025.34 1568.04 L1025.34 1532.4 M1025.34 1518.52 L1031.2 1518.52 L1031.2 1525.93 L1025.34 1525.93 L1025.34 1518.52 Z" fill="#000000" fill-rule="nonzero" fill-opacity="1" /><path clip-path="url(#clip420)" d="M1069.1 1533.76 L1069.1 1539.24 Q1066.62 1537.87 1064.11 1537.2 Q1061.62 1536.5 1059.08 1536.5 Q1053.38 1536.5 1050.23 1540.13 Q1047.08 1543.73 1047.08 1550.25 Q1047.08 1556.78 1050.23 1560.4 Q1053.38 1564 1059.08 1564 Q1061.62 1564 1064.11 1563.33 Q1066.62 1562.63 1069.1 1561.26 L1069.1 1566.68 Q1066.65 1567.82 1064.01 1568.39 Q1061.4 1568.97 1058.44 1568.97 Q1050.39 1568.97 1045.65 1563.91 Q1040.9 1558.85 1040.9 1550.25 Q1040.9 1541.53 1045.68 1536.53 Q1050.48 1531.54 1058.82 1531.54 Q1061.53 1531.54 1064.11 1532.11 Q1066.68 1532.65 1069.1 1533.76 Z" fill="#000000" fill-rule="nonzero" fill-opacity="1" /><path clip-path="url(#clip420)" d="M1109.78 1548.76 L1109.78 1551.62 L1082.85 1551.62 Q1083.23 1557.67 1086.48 1560.85 Q1089.76 1564 1095.58 1564 Q1098.96 1564 1102.11 1563.17 Q1105.29 1562.35 1108.41 1560.69 L1108.41 1566.23 Q1105.26 1567.57 1101.95 1568.27 Q1098.64 1568.97 1095.23 1568.97 Q1086.7 1568.97 1081.71 1564 Q1076.74 1559.04 1076.74 1550.57 Q1076.74 1541.82 1081.45 1536.69 Q1086.19 1531.54 1094.22 1531.54 Q1101.41 1531.54 1105.58 1536.18 Q1109.78 1540.8 1109.78 1548.76 M1103.92 1547.04 Q1103.86 1542.23 1101.22 1539.37 Q1098.61 1536.5 1094.28 1536.5 Q1089.38 1536.5 1086.42 1539.27 Q1083.49 1542.04 1083.04 1547.07 L1103.92 1547.04 Z" fill="#000000" fill-rule="nonzero" fill-opacity="1" /><path clip-path="url(#clip420)" d="M1145.78 1562.7 L1145.78 1581.6 L1139.89 1581.6 L1139.89 1532.4 L1145.78 1532.4 L1145.78 1537.81 Q1147.62 1534.62 1150.42 1533.1 Q1153.26 1531.54 1157.17 1531.54 Q1163.67 1531.54 1167.71 1536.69 Q1171.78 1541.85 1171.78 1550.25 Q1171.78 1558.65 1167.71 1563.81 Q1163.67 1568.97 1157.17 1568.97 Q1153.26 1568.97 1150.42 1567.44 Q1147.62 1565.88 1145.78 1562.7 M1165.7 1550.25 Q1165.7 1543.79 1163.03 1540.13 Q1160.39 1536.44 1155.74 1536.44 Q1151.09 1536.44 1148.42 1540.13 Q1145.78 1543.79 1145.78 1550.25 Q1145.78 1556.71 1148.42 1560.4 Q1151.09 1564.07 1155.74 1564.07 Q1160.39 1564.07 1163.03 1560.4 Q1165.7 1556.71 1165.7 1550.25 Z" fill="#000000" fill-rule="nonzero" fill-opacity="1" /><path clip-path="url(#clip420)" d="M1197.69 1550.12 Q1190.59 1550.12 1187.86 1551.75 Q1185.12 1553.37 1185.12 1557.29 Q1185.12 1560.4 1187.16 1562.25 Q1189.22 1564.07 1192.76 1564.07 Q1197.63 1564.07 1200.55 1560.63 Q1203.51 1557.16 1203.51 1551.43 L1203.51 1550.12 L1197.69 1550.12 M1209.37 1547.71 L1209.37 1568.04 L1203.51 1568.04 L1203.51 1562.63 Q1201.51 1565.88 1198.52 1567.44 Q1195.53 1568.97 1191.2 1568.97 Q1185.72 1568.97 1182.48 1565.91 Q1179.26 1562.82 1179.26 1557.67 Q1179.26 1551.65 1183.27 1548.6 Q1187.31 1545.54 1195.3 1545.54 L1203.51 1545.54 L1203.51 1544.97 Q1203.51 1540.93 1200.84 1538.73 Q1198.2 1536.5 1193.39 1536.5 Q1190.34 1536.5 1187.44 1537.23 Q1184.55 1537.97 1181.87 1539.43 L1181.87 1534.02 Q1185.09 1532.78 1188.11 1532.17 Q1191.13 1531.54 1194 1531.54 Q1201.73 1531.54 1205.55 1535.55 Q1209.37 1539.56 1209.37 1547.71 Z" fill="#000000" fill-rule="nonzero" fill-opacity="1" /><path clip-path="url(#clip420)" d="M1242.09 1537.87 Q1241.1 1537.3 1239.93 1537.04 Q1238.78 1536.76 1237.38 1536.76 Q1232.42 1536.76 1229.74 1540 Q1227.1 1543.22 1227.1 1549.27 L1227.1 1568.04 L1221.21 1568.04 L1221.21 1532.4 L1227.1 1532.4 L1227.1 1537.93 Q1228.95 1534.69 1231.91 1533.13 Q1234.87 1531.54 1239.1 1531.54 Q1239.7 1531.54 1240.44 1531.63 Q1241.17 1531.7 1242.06 1531.85 L1242.09 1537.87 Z" fill="#000000" fill-rule="nonzero" fill-opacity="1" /><path clip-path="url(#clip420)" d="M1264.43 1550.12 Q1257.34 1550.12 1254.6 1551.75 Q1251.86 1553.37 1251.86 1557.29 Q1251.86 1560.4 1253.9 1562.25 Q1255.97 1564.07 1259.5 1564.07 Q1264.37 1564.07 1267.3 1560.63 Q1270.26 1557.16 1270.26 1551.43 L1270.26 1550.12 L1264.43 1550.12 M1276.12 1547.71 L1276.12 1568.04 L1270.26 1568.04 L1270.26 1562.63 Q1268.25 1565.88 1265.26 1567.44 Q1262.27 1568.97 1257.94 1568.97 Q1252.47 1568.97 1249.22 1565.91 Q1246.01 1562.82 1246.01 1557.67 Q1246.01 1551.65 1250.02 1548.6 Q1254.06 1545.54 1262.05 1545.54 L1270.26 1545.54 L1270.26 1544.97 Q1270.26 1540.93 1267.59 1538.73 Q1264.94 1536.5 1260.14 1536.5 Q1257.08 1536.5 1254.19 1537.23 Q1251.29 1537.97 1248.62 1539.43 L1248.62 1534.02 Q1251.83 1532.78 1254.85 1532.17 Q1257.88 1531.54 1260.74 1531.54 Q1268.48 1531.54 1272.3 1535.55 Q1276.12 1539.56 1276.12 1547.71 Z" fill="#000000" fill-rule="nonzero" fill-opacity="1" /><path clip-path="url(#clip420)" d="M1315.93 1539.24 Q1318.13 1535.29 1321.19 1533.41 Q1324.24 1531.54 1328.38 1531.54 Q1333.95 1531.54 1336.97 1535.45 Q1340 1539.33 1340 1546.53 L1340 1568.04 L1334.11 1568.04 L1334.11 1546.72 Q1334.11 1541.59 1332.29 1539.11 Q1330.48 1536.63 1326.76 1536.63 Q1322.2 1536.63 1319.56 1539.65 Q1316.92 1542.68 1316.92 1547.9 L1316.92 1568.04 L1311.03 1568.04 L1311.03 1546.72 Q1311.03 1541.56 1309.22 1539.11 Q1307.4 1536.63 1303.62 1536.63 Q1299.13 1536.63 1296.49 1539.68 Q1293.84 1542.71 1293.84 1547.9 L1293.84 1568.04 L1287.96 1568.04 L1287.96 1532.4 L1293.84 1532.4 L1293.84 1537.93 Q1295.85 1534.66 1298.65 1533.1 Q1301.45 1531.54 1305.3 1531.54 Q1309.19 1531.54 1311.89 1533.51 Q1314.63 1535.48 1315.93 1539.24 Z" fill="#000000" fill-rule="nonzero" fill-opacity="1" /><path clip-path="url(#clip420)" d="M1382.17 1548.76 L1382.17 1551.62 L1355.24 1551.62 Q1355.62 1557.67 1358.87 1560.85 Q1362.15 1564 1367.97 1564 Q1371.35 1564 1374.5 1563.17 Q1377.68 1562.35 1380.8 1560.69 L1380.8 1566.23 Q1377.65 1567.57 1374.34 1568.27 Q1371.03 1568.97 1367.62 1568.97 Q1359.09 1568.97 1354.1 1564 Q1349.13 1559.04 1349.13 1550.57 Q1349.13 1541.82 1353.84 1536.69 Q1358.58 1531.54 1366.6 1531.54 Q1373.8 1531.54 1377.97 1536.18 Q1382.17 1540.8 1382.17 1548.76 M1376.31 1547.04 Q1376.25 1542.23 1373.61 1539.37 Q1371 1536.5 1366.67 1536.5 Q1361.77 1536.5 1358.81 1539.27 Q1355.88 1542.04 1355.43 1547.07 L1376.31 1547.04 Z" fill="#000000" fill-rule="nonzero" fill-opacity="1" /><path clip-path="url(#clip420)" d="M1397.57 1522.27 L1397.57 1532.4 L1409.64 1532.4 L1409.64 1536.95 L1397.57 1536.95 L1397.57 1556.3 Q1397.57 1560.66 1398.75 1561.9 Q1399.96 1563.14 1403.62 1563.14 L1409.64 1563.14 L1409.64 1568.04 L1403.62 1568.04 Q1396.84 1568.04 1394.26 1565.53 Q1391.69 1562.98 1391.69 1556.3 L1391.69 1536.95 L1387.39 1536.95 L1387.39 1532.4 L1391.69 1532.4 L1391.69 1522.27 L1397.57 1522.27 Z" fill="#000000" fill-rule="nonzero" fill-opacity="1" /><path clip-path="url(#clip420)" d="M1447.83 1548.76 L1447.83 1551.62 L1420.9 1551.62 Q1421.29 1557.67 1424.53 1560.85 Q1427.81 1564 1433.64 1564 Q1437.01 1564 1440.16 1563.17 Q1443.34 1562.35 1446.46 1560.69 L1446.46 1566.23 Q1443.31 1567.57 1440 1568.27 Q1436.69 1568.97 1433.29 1568.97 Q1424.76 1568.97 1419.76 1564 Q1414.79 1559.04 1414.79 1550.57 Q1414.79 1541.82 1419.5 1536.69 Q1424.25 1531.54 1432.27 1531.54 Q1439.46 1531.54 1443.63 1536.18 Q1447.83 1540.8 1447.83 1548.76 M1441.97 1547.04 Q1441.91 1542.23 1439.27 1539.37 Q1436.66 1536.5 1432.33 1536.5 Q1427.43 1536.5 1424.47 1539.27 Q1421.54 1542.04 1421.09 1547.07 L1441.97 1547.04 Z" fill="#000000" fill-rule="nonzero" fill-opacity="1" /><path clip-path="url(#clip420)" d="M1478.1 1537.87 Q1477.11 1537.3 1475.94 1537.04 Q1474.79 1536.76 1473.39 1536.76 Q1468.42 1536.76 1465.75 1540 Q1463.11 1543.22 1463.11 1549.27 L1463.11 1568.04 L1457.22 1568.04 L1457.22 1532.4 L1463.11 1532.4 L1463.11 1537.93 Q1464.95 1534.69 1467.91 1533.13 Q1470.87 1531.54 1475.11 1531.54 Q1475.71 1531.54 1476.44 1531.63 Q1477.18 1531.7 1478.07 1531.85 L1478.1 1537.87 Z" fill="#000000" fill-rule="nonzero" fill-opacity="1" /><path clip-path="url(#clip420)" d="M1521.16 1550.12 Q1514.07 1550.12 1511.33 1551.75 Q1508.59 1553.37 1508.59 1557.29 Q1508.59 1560.4 1510.63 1562.25 Q1512.7 1564.07 1516.23 1564.07 Q1521.1 1564.07 1524.03 1560.63 Q1526.99 1557.16 1526.99 1551.43 L1526.99 1550.12 L1521.16 1550.12 M1532.84 1547.71 L1532.84 1568.04 L1526.99 1568.04 L1526.99 1562.63 Q1524.98 1565.88 1521.99 1567.44 Q1519 1568.97 1514.67 1568.97 Q1509.2 1568.97 1505.95 1565.91 Q1502.73 1562.82 1502.73 1557.67 Q1502.73 1551.65 1506.75 1548.6 Q1510.79 1545.54 1518.78 1545.54 L1526.99 1545.54 L1526.99 1544.97 Q1526.99 1540.93 1524.31 1538.73 Q1521.67 1536.5 1516.87 1536.5 Q1513.81 1536.5 1510.91 1537.23 Q1508.02 1537.97 1505.34 1539.43 L1505.34 1534.02 Q1508.56 1532.78 1511.58 1532.17 Q1514.61 1531.54 1517.47 1531.54 Q1525.21 1531.54 1529.03 1535.55 Q1532.84 1539.56 1532.84 1547.71 Z" fill="#000000" fill-rule="nonzero" fill-opacity="1" /><path clip-path="url(#clip420)" d="M1579.7 1518.58 Q1575.43 1525.9 1573.36 1533.06 Q1571.29 1540.23 1571.29 1547.58 Q1571.29 1554.93 1573.36 1562.16 Q1575.46 1569.35 1579.7 1576.64 L1574.6 1576.64 Q1569.83 1569.16 1567.44 1561.93 Q1565.09 1554.71 1565.09 1547.58 Q1565.09 1540.48 1567.44 1533.29 Q1569.8 1526.09 1574.6 1518.58 L1579.7 1518.58 Z" fill="#000000" fill-rule="nonzero" fill-opacity="1" /><path clip-path="url(#clip420)" d="M1616.65 1550.25 Q1616.65 1543.79 1613.98 1540.13 Q1611.33 1536.44 1606.69 1536.44 Q1602.04 1536.44 1599.37 1540.13 Q1596.72 1543.79 1596.72 1550.25 Q1596.72 1556.71 1599.37 1560.4 Q1602.04 1564.07 1606.69 1564.07 Q1611.33 1564.07 1613.98 1560.4 Q1616.65 1556.71 1616.65 1550.25 M1596.72 1537.81 Q1598.57 1534.62 1601.37 1533.1 Q1604.2 1531.54 1608.12 1531.54 Q1614.61 1531.54 1618.65 1536.69 Q1622.73 1541.85 1622.73 1550.25 Q1622.73 1558.65 1618.65 1563.81 Q1614.61 1568.97 1608.12 1568.97 Q1604.2 1568.97 1601.37 1567.44 Q1598.57 1565.88 1596.72 1562.7 L1596.72 1568.04 L1590.84 1568.04 L1590.84 1518.52 L1596.72 1518.52 L1596.72 1537.81 Z" fill="#000000" fill-rule="nonzero" fill-opacity="1" /><path clip-path="url(#clip420)" d="M1646.25 1536.5 Q1641.54 1536.5 1638.8 1540.19 Q1636.06 1543.85 1636.06 1550.25 Q1636.06 1556.65 1638.77 1560.34 Q1641.51 1564 1646.25 1564 Q1650.93 1564 1653.67 1560.31 Q1656.4 1556.62 1656.4 1550.25 Q1656.4 1543.92 1653.67 1540.23 Q1650.93 1536.5 1646.25 1536.5 M1646.25 1531.54 Q1653.89 1531.54 1658.25 1536.5 Q1662.61 1541.47 1662.61 1550.25 Q1662.61 1559 1658.25 1564 Q1653.89 1568.97 1646.25 1568.97 Q1638.58 1568.97 1634.22 1564 Q1629.89 1559 1629.89 1550.25 Q1629.89 1541.47 1634.22 1536.5 Q1638.58 1531.54 1646.25 1531.54 Z" fill="#000000" fill-rule="nonzero" fill-opacity="1" /><path clip-path="url(#clip420)" d="M1701.95 1546.53 L1701.95 1568.04 L1696.09 1568.04 L1696.09 1546.72 Q1696.09 1541.66 1694.12 1539.14 Q1692.15 1536.63 1688.2 1536.63 Q1683.46 1536.63 1680.72 1539.65 Q1677.98 1542.68 1677.98 1547.9 L1677.98 1568.04 L1672.09 1568.04 L1672.09 1518.52 L1677.98 1518.52 L1677.98 1537.93 Q1680.08 1534.72 1682.92 1533.13 Q1685.78 1531.54 1689.5 1531.54 Q1695.65 1531.54 1698.8 1535.36 Q1701.95 1539.14 1701.95 1546.53 Z" fill="#000000" fill-rule="nonzero" fill-opacity="1" /><path clip-path="url(#clip420)" d="M1734.29 1537.87 Q1733.3 1537.3 1732.12 1537.04 Q1730.98 1536.76 1729.58 1536.76 Q1724.61 1536.76 1721.94 1540 Q1719.3 1543.22 1719.3 1549.27 L1719.3 1568.04 L1713.41 1568.04 L1713.41 1532.4 L1719.3 1532.4 L1719.3 1537.93 Q1721.14 1534.69 1724.1 1533.13 Q1727.06 1531.54 1731.3 1531.54 Q1731.9 1531.54 1732.63 1531.63 Q1733.36 1531.7 1734.26 1531.85 L1734.29 1537.87 Z" fill="#000000" fill-rule="nonzero" fill-opacity="1" /><path clip-path="url(#clip420)" d="M1739.51 1518.58 L1744.6 1518.58 Q1749.37 1526.09 1751.73 1533.29 Q1754.12 1540.48 1754.12 1547.58 Q1754.12 1554.71 1751.73 1561.93 Q1749.37 1569.16 1744.6 1576.64 L1739.51 1576.64 Q1743.74 1569.35 1745.81 1562.16 Q1747.91 1554.93 1747.91 1547.58 Q1747.91 1540.23 1745.81 1533.06 Q1743.74 1525.9 1739.51 1518.58 Z" fill="#000000" fill-rule="nonzero" fill-opacity="1" /><polyline clip-path="url(#clip420)" style="stroke:#000000; stroke-linecap:round; stroke-linejoin:round; stroke-width:4; stroke-opacity:1; fill:none" points="317.528,1423.18 317.528,47.2441 "/>
<polyline clip-path="url(#clip420)" style="stroke:#000000; stroke-linecap:round; stroke-linejoin:round; stroke-width:4; stroke-opacity:1; fill:none" points="317.528,1370.67 336.425,1370.67 "/>
<polyline clip-path="url(#clip420)" style="stroke:#000000; stroke-linecap:round; stroke-linejoin:round; stroke-width:4; stroke-opacity:1; fill:none" points="317.528,1053.12 336.425,1053.12 "/>
<polyline clip-path="url(#clip420)" style="stroke:#000000; stroke-linecap:round; stroke-linejoin:round; stroke-width:4; stroke-opacity:1; fill:none" points="317.528,735.566 336.425,735.566 "/>
<polyline clip-path="url(#clip420)" style="stroke:#000000; stroke-linecap:round; stroke-linejoin:round; stroke-width:4; stroke-opacity:1; fill:none" points="317.528,418.014 336.425,418.014 "/>
<polyline clip-path="url(#clip420)" style="stroke:#000000; stroke-linecap:round; stroke-linejoin:round; stroke-width:4; stroke-opacity:1; fill:none" points="317.528,100.461 336.425,100.461 "/>
<path clip-path="url(#clip420)" d="M114.26 1371.12 L143.936 1371.12 L143.936 1375.06 L114.26 1375.06 L114.26 1371.12 Z" fill="#000000" fill-rule="nonzero" fill-opacity="1" /><path clip-path="url(#clip420)" d="M152.848 1353.39 L175.07 1353.39 L175.07 1355.38 L162.524 1387.95 L157.64 1387.95 L169.445 1357.33 L152.848 1357.33 L152.848 1353.39 Z" fill="#000000" fill-rule="nonzero" fill-opacity="1" /><path clip-path="url(#clip420)" d="M184.19 1382.07 L189.075 1382.07 L189.075 1387.95 L184.19 1387.95 L184.19 1382.07 Z" fill="#000000" fill-rule="nonzero" fill-opacity="1" /><path clip-path="url(#clip420)" d="M209.26 1371.54 Q205.926 1371.54 204.005 1373.32 Q202.107 1375.1 202.107 1378.23 Q202.107 1381.35 204.005 1383.14 Q205.926 1384.92 209.26 1384.92 Q212.593 1384.92 214.514 1383.14 Q216.436 1381.33 216.436 1378.23 Q216.436 1375.1 214.514 1373.32 Q212.616 1371.54 209.26 1371.54 M204.584 1369.55 Q201.575 1368.81 199.885 1366.75 Q198.218 1364.69 198.218 1361.72 Q198.218 1357.58 201.158 1355.17 Q204.121 1352.77 209.26 1352.77 Q214.422 1352.77 217.361 1355.17 Q220.301 1357.58 220.301 1361.72 Q220.301 1364.69 218.611 1366.75 Q216.945 1368.81 213.959 1369.55 Q217.338 1370.33 219.213 1372.63 Q221.111 1374.92 221.111 1378.23 Q221.111 1383.25 218.033 1385.94 Q214.977 1388.62 209.26 1388.62 Q203.542 1388.62 200.463 1385.94 Q197.408 1383.25 197.408 1378.23 Q197.408 1374.92 199.306 1372.63 Q201.204 1370.33 204.584 1369.55 M202.871 1362.16 Q202.871 1364.85 204.537 1366.35 Q206.227 1367.86 209.26 1367.86 Q212.269 1367.86 213.959 1366.35 Q215.672 1364.85 215.672 1362.16 Q215.672 1359.48 213.959 1357.97 Q212.269 1356.47 209.26 1356.47 Q206.227 1356.47 204.537 1357.97 Q202.871 1359.48 202.871 1362.16 Z" fill="#000000" fill-rule="nonzero" fill-opacity="1" /><path clip-path="url(#clip420)" d="M240 1368.81 Q236.852 1368.81 235 1370.96 Q233.172 1373.11 233.172 1376.86 Q233.172 1380.59 235 1382.77 Q236.852 1384.92 240 1384.92 Q243.148 1384.92 244.977 1382.77 Q246.829 1380.59 246.829 1376.86 Q246.829 1373.11 244.977 1370.96 Q243.148 1368.81 240 1368.81 M249.283 1354.15 L249.283 1358.41 Q247.523 1357.58 245.718 1357.14 Q243.935 1356.7 242.176 1356.7 Q237.547 1356.7 235.093 1359.83 Q232.662 1362.95 232.315 1369.27 Q233.681 1367.26 235.741 1366.19 Q237.801 1365.1 240.278 1365.1 Q245.486 1365.1 248.496 1368.27 Q251.528 1371.42 251.528 1376.86 Q251.528 1382.19 248.38 1385.4 Q245.232 1388.62 240 1388.62 Q234.005 1388.62 230.834 1384.04 Q227.662 1379.43 227.662 1370.71 Q227.662 1362.51 231.551 1357.65 Q235.44 1352.77 241.991 1352.77 Q243.75 1352.77 245.533 1353.11 Q247.338 1353.46 249.283 1354.15 Z" fill="#000000" fill-rule="nonzero" fill-opacity="1" /><path clip-path="url(#clip420)" d="M269.583 1356.47 Q265.972 1356.47 264.144 1360.03 Q262.338 1363.58 262.338 1370.71 Q262.338 1377.81 264.144 1381.38 Q265.972 1384.92 269.583 1384.92 Q273.218 1384.92 275.023 1381.38 Q276.852 1377.81 276.852 1370.71 Q276.852 1363.58 275.023 1360.03 Q273.218 1356.47 269.583 1356.47 M269.583 1352.77 Q275.394 1352.77 278.449 1357.37 Q281.528 1361.96 281.528 1370.71 Q281.528 1379.43 278.449 1384.04 Q275.394 1388.62 269.583 1388.62 Q263.773 1388.62 260.695 1384.04 Q257.639 1379.43 257.639 1370.71 Q257.639 1361.96 260.695 1357.37 Q263.773 1352.77 269.583 1352.77 Z" fill="#000000" fill-rule="nonzero" fill-opacity="1" /><path clip-path="url(#clip420)" d="M115.256 1053.57 L144.931 1053.57 L144.931 1057.5 L115.256 1057.5 L115.256 1053.57 Z" fill="#000000" fill-rule="nonzero" fill-opacity="1" /><path clip-path="url(#clip420)" d="M153.843 1035.84 L176.065 1035.84 L176.065 1037.83 L163.519 1070.4 L158.635 1070.4 L170.44 1039.77 L153.843 1039.77 L153.843 1035.84 Z" fill="#000000" fill-rule="nonzero" fill-opacity="1" /><path clip-path="url(#clip420)" d="M185.186 1064.52 L190.07 1064.52 L190.07 1070.4 L185.186 1070.4 L185.186 1064.52 Z" fill="#000000" fill-rule="nonzero" fill-opacity="1" /><path clip-path="url(#clip420)" d="M210.255 1053.99 Q206.922 1053.99 205 1055.77 Q203.102 1057.55 203.102 1060.68 Q203.102 1063.8 205 1065.58 Q206.922 1067.37 210.255 1067.37 Q213.588 1067.37 215.51 1065.58 Q217.431 1063.78 217.431 1060.68 Q217.431 1057.55 215.51 1055.77 Q213.611 1053.99 210.255 1053.99 M205.579 1052 Q202.57 1051.25 200.88 1049.19 Q199.213 1047.13 199.213 1044.17 Q199.213 1040.03 202.153 1037.62 Q205.116 1035.21 210.255 1035.21 Q215.417 1035.21 218.357 1037.62 Q221.297 1040.03 221.297 1044.17 Q221.297 1047.13 219.607 1049.19 Q217.94 1051.25 214.954 1052 Q218.334 1052.78 220.209 1055.07 Q222.107 1057.37 222.107 1060.68 Q222.107 1065.7 219.028 1068.38 Q215.973 1071.07 210.255 1071.07 Q204.537 1071.07 201.459 1068.38 Q198.403 1065.7 198.403 1060.68 Q198.403 1057.37 200.301 1055.07 Q202.2 1052.78 205.579 1052 M203.866 1044.61 Q203.866 1047.3 205.533 1048.8 Q207.223 1050.31 210.255 1050.31 Q213.264 1050.31 214.954 1048.8 Q216.667 1047.3 216.667 1044.61 Q216.667 1041.93 214.954 1040.42 Q213.264 1038.92 210.255 1038.92 Q207.223 1038.92 205.533 1040.42 Q203.866 1041.93 203.866 1044.61 Z" fill="#000000" fill-rule="nonzero" fill-opacity="1" /><path clip-path="url(#clip420)" d="M230.463 1035.84 L248.82 1035.84 L248.82 1039.77 L234.746 1039.77 L234.746 1048.25 Q235.764 1047.9 236.783 1047.74 Q237.801 1047.55 238.82 1047.55 Q244.607 1047.55 247.986 1050.72 Q251.366 1053.89 251.366 1059.31 Q251.366 1064.89 247.894 1067.99 Q244.421 1071.07 238.102 1071.07 Q235.926 1071.07 233.658 1070.7 Q231.412 1070.33 229.005 1069.59 L229.005 1064.89 Q231.088 1066.02 233.31 1066.58 Q235.533 1067.13 238.009 1067.13 Q242.014 1067.13 244.352 1065.03 Q246.69 1062.92 246.69 1059.31 Q246.69 1055.7 244.352 1053.59 Q242.014 1051.49 238.009 1051.49 Q236.135 1051.49 234.26 1051.9 Q232.408 1052.32 230.463 1053.2 L230.463 1035.84 Z" fill="#000000" fill-rule="nonzero" fill-opacity="1" /><path clip-path="url(#clip420)" d="M260.625 1035.84 L278.981 1035.84 L278.981 1039.77 L264.907 1039.77 L264.907 1048.25 Q265.926 1047.9 266.945 1047.74 Q267.963 1047.55 268.982 1047.55 Q274.769 1047.55 278.148 1050.72 Q281.528 1053.89 281.528 1059.31 Q281.528 1064.89 278.056 1067.99 Q274.583 1071.07 268.264 1071.07 Q266.088 1071.07 263.82 1070.7 Q261.574 1070.33 259.167 1069.59 L259.167 1064.89 Q261.25 1066.02 263.472 1066.58 Q265.695 1067.13 268.171 1067.13 Q272.176 1067.13 274.514 1065.03 Q276.852 1062.92 276.852 1059.31 Q276.852 1055.7 274.514 1053.59 Q272.176 1051.49 268.171 1051.49 Q266.296 1051.49 264.421 1051.9 Q262.57 1052.32 260.625 1053.2 L260.625 1035.84 Z" fill="#000000" fill-rule="nonzero" fill-opacity="1" /><path clip-path="url(#clip420)" d="M114.26 736.017 L143.936 736.017 L143.936 739.952 L114.26 739.952 L114.26 736.017 Z" fill="#000000" fill-rule="nonzero" fill-opacity="1" /><path clip-path="url(#clip420)" d="M152.848 718.286 L175.07 718.286 L175.07 720.277 L162.524 752.846 L157.64 752.846 L169.445 722.221 L152.848 722.221 L152.848 718.286 Z" fill="#000000" fill-rule="nonzero" fill-opacity="1" /><path clip-path="url(#clip420)" d="M184.19 746.966 L189.075 746.966 L189.075 752.846 L184.19 752.846 L184.19 746.966 Z" fill="#000000" fill-rule="nonzero" fill-opacity="1" /><path clip-path="url(#clip420)" d="M209.26 736.434 Q205.926 736.434 204.005 738.216 Q202.107 739.999 202.107 743.124 Q202.107 746.249 204.005 748.031 Q205.926 749.813 209.26 749.813 Q212.593 749.813 214.514 748.031 Q216.436 746.226 216.436 743.124 Q216.436 739.999 214.514 738.216 Q212.616 736.434 209.26 736.434 M204.584 734.443 Q201.575 733.702 199.885 731.642 Q198.218 729.582 198.218 726.619 Q198.218 722.476 201.158 720.068 Q204.121 717.661 209.26 717.661 Q214.422 717.661 217.361 720.068 Q220.301 722.476 220.301 726.619 Q220.301 729.582 218.611 731.642 Q216.945 733.702 213.959 734.443 Q217.338 735.23 219.213 737.522 Q221.111 739.814 221.111 743.124 Q221.111 748.147 218.033 750.832 Q214.977 753.517 209.26 753.517 Q203.542 753.517 200.463 750.832 Q197.408 748.147 197.408 743.124 Q197.408 739.814 199.306 737.522 Q201.204 735.23 204.584 734.443 M202.871 727.059 Q202.871 729.744 204.537 731.249 Q206.227 732.753 209.26 732.753 Q212.269 732.753 213.959 731.249 Q215.672 729.744 215.672 727.059 Q215.672 724.374 213.959 722.869 Q212.269 721.365 209.26 721.365 Q206.227 721.365 204.537 722.869 Q202.871 724.374 202.871 727.059 Z" fill="#000000" fill-rule="nonzero" fill-opacity="1" /><path clip-path="url(#clip420)" d="M229.468 718.286 L247.824 718.286 L247.824 722.221 L233.75 722.221 L233.75 730.693 Q234.769 730.346 235.787 730.184 Q236.806 729.999 237.824 729.999 Q243.611 729.999 246.991 733.17 Q250.371 736.341 250.371 741.758 Q250.371 747.337 246.898 750.438 Q243.426 753.517 237.107 753.517 Q234.931 753.517 232.662 753.147 Q230.417 752.776 228.01 752.036 L228.01 747.337 Q230.093 748.471 232.315 749.026 Q234.537 749.582 237.014 749.582 Q241.019 749.582 243.357 747.476 Q245.695 745.369 245.695 741.758 Q245.695 738.147 243.357 736.04 Q241.019 733.934 237.014 733.934 Q235.139 733.934 233.264 734.351 Q231.412 734.767 229.468 735.647 L229.468 718.286 Z" fill="#000000" fill-rule="nonzero" fill-opacity="1" /><path clip-path="url(#clip420)" d="M269.583 721.365 Q265.972 721.365 264.144 724.929 Q262.338 728.471 262.338 735.601 Q262.338 742.707 264.144 746.272 Q265.972 749.813 269.583 749.813 Q273.218 749.813 275.023 746.272 Q276.852 742.707 276.852 735.601 Q276.852 728.471 275.023 724.929 Q273.218 721.365 269.583 721.365 M269.583 717.661 Q275.394 717.661 278.449 722.267 Q281.528 726.851 281.528 735.601 Q281.528 744.327 278.449 748.934 Q275.394 753.517 269.583 753.517 Q263.773 753.517 260.695 748.934 Q257.639 744.327 257.639 735.601 Q257.639 726.851 260.695 722.267 Q263.773 717.661 269.583 717.661 Z" fill="#000000" fill-rule="nonzero" fill-opacity="1" /><path clip-path="url(#clip420)" d="M115.256 418.465 L144.931 418.465 L144.931 422.4 L115.256 422.4 L115.256 418.465 Z" fill="#000000" fill-rule="nonzero" fill-opacity="1" /><path clip-path="url(#clip420)" d="M153.843 400.734 L176.065 400.734 L176.065 402.724 L163.519 435.294 L158.635 435.294 L170.44 404.669 L153.843 404.669 L153.843 400.734 Z" fill="#000000" fill-rule="nonzero" fill-opacity="1" /><path clip-path="url(#clip420)" d="M185.186 429.414 L190.07 429.414 L190.07 435.294 L185.186 435.294 L185.186 429.414 Z" fill="#000000" fill-rule="nonzero" fill-opacity="1" /><path clip-path="url(#clip420)" d="M210.255 418.882 Q206.922 418.882 205 420.664 Q203.102 422.446 203.102 425.571 Q203.102 428.696 205 430.479 Q206.922 432.261 210.255 432.261 Q213.588 432.261 215.51 430.479 Q217.431 428.673 217.431 425.571 Q217.431 422.446 215.51 420.664 Q213.611 418.882 210.255 418.882 M205.579 416.891 Q202.57 416.15 200.88 414.09 Q199.213 412.03 199.213 409.067 Q199.213 404.923 202.153 402.516 Q205.116 400.109 210.255 400.109 Q215.417 400.109 218.357 402.516 Q221.297 404.923 221.297 409.067 Q221.297 412.03 219.607 414.09 Q217.94 416.15 214.954 416.891 Q218.334 417.678 220.209 419.97 Q222.107 422.261 222.107 425.571 Q222.107 430.595 219.028 433.28 Q215.973 435.965 210.255 435.965 Q204.537 435.965 201.459 433.28 Q198.403 430.595 198.403 425.571 Q198.403 422.261 200.301 419.97 Q202.2 417.678 205.579 416.891 M203.866 409.507 Q203.866 412.192 205.533 413.697 Q207.223 415.201 210.255 415.201 Q213.264 415.201 214.954 413.697 Q216.667 412.192 216.667 409.507 Q216.667 406.822 214.954 405.317 Q213.264 403.812 210.255 403.812 Q207.223 403.812 205.533 405.317 Q203.866 406.822 203.866 409.507 Z" fill="#000000" fill-rule="nonzero" fill-opacity="1" /><path clip-path="url(#clip420)" d="M243.264 404.808 L231.459 423.257 L243.264 423.257 L243.264 404.808 M242.037 400.734 L247.917 400.734 L247.917 423.257 L252.847 423.257 L252.847 427.146 L247.917 427.146 L247.917 435.294 L243.264 435.294 L243.264 427.146 L227.662 427.146 L227.662 422.632 L242.037 400.734 Z" fill="#000000" fill-rule="nonzero" fill-opacity="1" /><path clip-path="url(#clip420)" d="M260.625 400.734 L278.981 400.734 L278.981 404.669 L264.907 404.669 L264.907 413.141 Q265.926 412.794 266.945 412.632 Q267.963 412.447 268.982 412.447 Q274.769 412.447 278.148 415.618 Q281.528 418.789 281.528 424.206 Q281.528 429.784 278.056 432.886 Q274.583 435.965 268.264 435.965 Q266.088 435.965 263.82 435.595 Q261.574 435.224 259.167 434.483 L259.167 429.784 Q261.25 430.919 263.472 431.474 Q265.695 432.03 268.171 432.03 Q272.176 432.03 274.514 429.923 Q276.852 427.817 276.852 424.206 Q276.852 420.595 274.514 418.488 Q272.176 416.382 268.171 416.382 Q266.296 416.382 264.421 416.798 Q262.57 417.215 260.625 418.095 L260.625 400.734 Z" fill="#000000" fill-rule="nonzero" fill-opacity="1" /><path clip-path="url(#clip420)" d="M114.26 100.913 L143.936 100.913 L143.936 104.848 L114.26 104.848 L114.26 100.913 Z" fill="#000000" fill-rule="nonzero" fill-opacity="1" /><path clip-path="url(#clip420)" d="M152.848 83.1813 L175.07 83.1813 L175.07 85.1721 L162.524 117.741 L157.64 117.741 L169.445 87.1165 L152.848 87.1165 L152.848 83.1813 Z" fill="#000000" fill-rule="nonzero" fill-opacity="1" /><path clip-path="url(#clip420)" d="M184.19 111.862 L189.075 111.862 L189.075 117.741 L184.19 117.741 L184.19 111.862 Z" fill="#000000" fill-rule="nonzero" fill-opacity="1" /><path clip-path="url(#clip420)" d="M209.26 101.329 Q205.926 101.329 204.005 103.112 Q202.107 104.894 202.107 108.019 Q202.107 111.144 204.005 112.927 Q205.926 114.709 209.26 114.709 Q212.593 114.709 214.514 112.927 Q216.436 111.121 216.436 108.019 Q216.436 104.894 214.514 103.112 Q212.616 101.329 209.26 101.329 M204.584 99.3387 Q201.575 98.5979 199.885 96.5378 Q198.218 94.4776 198.218 91.5146 Q198.218 87.3711 201.158 84.9637 Q204.121 82.5563 209.26 82.5563 Q214.422 82.5563 217.361 84.9637 Q220.301 87.3711 220.301 91.5146 Q220.301 94.4776 218.611 96.5378 Q216.945 98.5979 213.959 99.3387 Q217.338 100.126 219.213 102.417 Q221.111 104.709 221.111 108.019 Q221.111 113.042 218.033 115.727 Q214.977 118.413 209.26 118.413 Q203.542 118.413 200.463 115.727 Q197.408 113.042 197.408 108.019 Q197.408 104.709 199.306 102.417 Q201.204 100.126 204.584 99.3387 M202.871 91.9544 Q202.871 94.6396 204.537 96.1442 Q206.227 97.6489 209.26 97.6489 Q212.269 97.6489 213.959 96.1442 Q215.672 94.6396 215.672 91.9544 Q215.672 89.2693 213.959 87.7646 Q212.269 86.26 209.26 86.26 Q206.227 86.26 204.537 87.7646 Q202.871 89.2693 202.871 91.9544 Z" fill="#000000" fill-rule="nonzero" fill-opacity="1" /><path clip-path="url(#clip420)" d="M242.269 87.2554 L230.463 105.704 L242.269 105.704 L242.269 87.2554 M241.042 83.1813 L246.921 83.1813 L246.921 105.704 L251.852 105.704 L251.852 109.593 L246.921 109.593 L246.921 117.741 L242.269 117.741 L242.269 109.593 L226.667 109.593 L226.667 105.079 L241.042 83.1813 Z" fill="#000000" fill-rule="nonzero" fill-opacity="1" /><path clip-path="url(#clip420)" d="M269.583 86.26 Q265.972 86.26 264.144 89.8248 Q262.338 93.3665 262.338 100.496 Q262.338 107.603 264.144 111.167 Q265.972 114.709 269.583 114.709 Q273.218 114.709 275.023 111.167 Q276.852 107.603 276.852 100.496 Q276.852 93.3665 275.023 89.8248 Q273.218 86.26 269.583 86.26 M269.583 82.5563 Q275.394 82.5563 278.449 87.1628 Q281.528 91.7461 281.528 100.496 Q281.528 109.223 278.449 113.829 Q275.394 118.413 269.583 118.413 Q263.773 118.413 260.695 113.829 Q257.639 109.223 257.639 100.496 Q257.639 91.7461 260.695 87.1628 Q263.773 82.5563 269.583 82.5563 Z" fill="#000000" fill-rule="nonzero" fill-opacity="1" /><path clip-path="url(#clip420)" d="M57.2247 1112.44 L44.4614 1112.44 L44.4614 1122.95 L39.1779 1122.95 L39.1779 1106.08 L59.58 1106.08 Q62.2218 1109.8 63.5904 1114.29 Q64.9272 1118.78 64.9272 1123.87 Q64.9272 1135.01 58.4342 1141.31 Q51.9093 1147.58 40.2919 1147.58 Q28.6427 1147.58 22.1496 1141.31 Q15.6248 1135.01 15.6248 1123.87 Q15.6248 1119.22 16.7706 1115.05 Q17.9164 1110.85 20.1444 1107.32 L26.9876 1107.32 Q23.9639 1110.88 22.4361 1114.89 Q20.9083 1118.9 20.9083 1123.33 Q20.9083 1132.05 25.7781 1136.44 Q30.6479 1140.8 40.2919 1140.8 Q49.9041 1140.8 54.7739 1136.44 Q59.6436 1132.05 59.6436 1123.33 Q59.6436 1119.92 59.0707 1117.25 Q58.466 1114.58 57.2247 1112.44 Z" fill="#000000" fill-rule="nonzero" fill-opacity="1" /><path clip-path="url(#clip420)" d="M33.8307 1073.93 Q33.2578 1074.92 33.0032 1076.1 Q32.7167 1077.24 32.7167 1078.64 Q32.7167 1083.61 35.9632 1086.28 Q39.1779 1088.92 45.2253 1088.92 L64.0042 1088.92 L64.0042 1094.81 L28.3562 1094.81 L28.3562 1088.92 L33.8944 1088.92 Q30.6479 1087.08 29.0883 1084.12 Q27.4968 1081.16 27.4968 1076.92 Q27.4968 1076.32 27.5923 1075.59 Q27.656 1074.85 27.8151 1073.96 L33.8307 1073.93 Z" fill="#000000" fill-rule="nonzero" fill-opacity="1" /><path clip-path="url(#clip420)" d="M32.4621 1055.41 Q32.4621 1060.12 36.1542 1062.85 Q39.8145 1065.59 46.212 1065.59 Q52.6095 1065.59 56.3017 1062.89 Q59.9619 1060.15 59.9619 1055.41 Q59.9619 1050.73 56.2698 1047.99 Q52.5777 1045.25 46.212 1045.25 Q39.8781 1045.25 36.186 1047.99 Q32.4621 1050.73 32.4621 1055.41 M27.4968 1055.41 Q27.4968 1047.77 32.4621 1043.41 Q37.4273 1039.05 46.212 1039.05 Q54.9649 1039.05 59.9619 1043.41 Q64.9272 1047.77 64.9272 1055.41 Q64.9272 1063.08 59.9619 1067.44 Q54.9649 1071.77 46.212 1071.77 Q37.4273 1071.77 32.4621 1067.44 Q27.4968 1063.08 27.4968 1055.41 Z" fill="#000000" fill-rule="nonzero" fill-opacity="1" /><path clip-path="url(#clip420)" d="M49.9359 1029.94 L28.3562 1029.94 L28.3562 1024.09 L49.7131 1024.09 Q54.7739 1024.09 57.3202 1022.11 Q59.8346 1020.14 59.8346 1016.19 Q59.8346 1011.45 56.8109 1008.71 Q53.7872 1005.95 48.5673 1005.95 L28.3562 1005.95 L28.3562 1000.09 L64.0042 1000.09 L64.0042 1005.95 L58.5296 1005.95 Q61.7762 1008.08 63.3676 1010.91 Q64.9272 1013.71 64.9272 1017.44 Q64.9272 1023.58 61.1078 1026.76 Q57.2883 1029.94 49.9359 1029.94 M27.4968 1015.21 L27.4968 1015.21 Z" fill="#000000" fill-rule="nonzero" fill-opacity="1" /><path clip-path="url(#clip420)" d="M42.4881 958.394 L64.0042 958.394 L64.0042 964.25 L42.679 964.25 Q37.6183 964.25 35.1038 966.223 Q32.5894 968.197 32.5894 972.144 Q32.5894 976.886 35.6131 979.623 Q38.6368 982.361 43.8567 982.361 L64.0042 982.361 L64.0042 988.249 L28.3562 988.249 L28.3562 982.361 L33.8944 982.361 Q30.6797 980.26 29.0883 977.427 Q27.4968 974.563 27.4968 970.839 Q27.4968 964.696 31.3163 961.545 Q35.1038 958.394 42.4881 958.394 Z" fill="#000000" fill-rule="nonzero" fill-opacity="1" /><path clip-path="url(#clip420)" d="M33.7671 923.255 L14.479 923.255 L14.479 917.398 L64.0042 917.398 L64.0042 923.255 L58.657 923.255 Q61.8398 925.101 63.3994 927.934 Q64.9272 930.735 64.9272 934.681 Q64.9272 941.143 59.771 945.217 Q54.6147 949.259 46.212 949.259 Q37.8093 949.259 32.6531 945.217 Q27.4968 941.143 27.4968 934.681 Q27.4968 930.735 29.0564 927.934 Q30.5842 925.101 33.7671 923.255 M46.212 943.211 Q52.6732 943.211 56.3653 940.57 Q60.0256 937.896 60.0256 933.249 Q60.0256 928.602 56.3653 925.929 Q52.6732 923.255 46.212 923.255 Q39.7508 923.255 36.0905 925.929 Q32.3984 928.602 32.3984 933.249 Q32.3984 937.896 36.0905 940.57 Q39.7508 943.211 46.212 943.211 Z" fill="#000000" fill-rule="nonzero" fill-opacity="1" /><path clip-path="url(#clip420)" d="M29.4065 861.89 L34.9447 861.89 Q33.6716 864.372 33.035 867.046 Q32.3984 869.719 32.3984 872.584 Q32.3984 876.944 33.7352 879.141 Q35.072 881.305 37.7456 881.305 Q39.7826 881.305 40.9603 879.745 Q42.1061 878.186 43.1565 873.475 L43.6021 871.47 Q44.9389 865.232 47.3897 862.622 Q49.8086 859.98 54.1691 859.98 Q59.1344 859.98 62.0308 863.927 Q64.9272 867.841 64.9272 874.716 Q64.9272 877.581 64.3543 880.7 Q63.8132 883.788 62.6992 887.225 L56.6518 887.225 Q58.3387 883.979 59.198 880.828 Q60.0256 877.676 60.0256 874.589 Q60.0256 870.451 58.6251 868.223 Q57.1929 865.995 54.6147 865.995 Q52.2276 865.995 50.9545 867.619 Q49.6813 869.21 48.5037 874.653 L48.0262 876.69 Q46.8804 882.132 44.5251 884.551 Q42.138 886.97 38.0002 886.97 Q32.9713 886.97 30.2341 883.406 Q27.4968 879.841 27.4968 873.284 Q27.4968 870.038 27.9743 867.173 Q28.4517 864.308 29.4065 861.89 Z" fill="#000000" fill-rule="nonzero" fill-opacity="1" /><path clip-path="url(#clip420)" d="M18.2347 844.861 L28.3562 844.861 L28.3562 832.798 L32.9077 832.798 L32.9077 844.861 L52.2594 844.861 Q56.6199 844.861 57.8613 843.684 Q59.1026 842.474 59.1026 838.814 L59.1026 832.798 L64.0042 832.798 L64.0042 838.814 Q64.0042 845.593 61.4897 848.171 Q58.9434 850.75 52.2594 850.75 L32.9077 850.75 L32.9077 855.046 L28.3562 855.046 L28.3562 850.75 L18.2347 850.75 L18.2347 844.861 Z" fill="#000000" fill-rule="nonzero" fill-opacity="1" /><path clip-path="url(#clip420)" d="M46.0847 808.895 Q46.0847 815.993 47.7079 818.73 Q49.3312 821.467 53.2461 821.467 Q56.3653 821.467 58.2114 819.43 Q60.0256 817.361 60.0256 813.828 Q60.0256 808.959 56.5881 806.03 Q53.1188 803.07 47.3897 803.07 L46.0847 803.07 L46.0847 808.895 M43.6657 797.214 L64.0042 797.214 L64.0042 803.07 L58.5933 803.07 Q61.8398 805.076 63.3994 808.067 Q64.9272 811.059 64.9272 815.388 Q64.9272 820.863 61.8716 824.109 Q58.7843 827.324 53.6281 827.324 Q47.6125 827.324 44.5569 823.313 Q41.5014 819.271 41.5014 811.282 L41.5014 803.07 L40.9285 803.07 Q36.8862 803.07 34.6901 805.744 Q32.4621 808.386 32.4621 813.192 Q32.4621 816.247 33.1941 819.144 Q33.9262 822.04 35.3903 824.714 L29.9795 824.714 Q28.7381 821.499 28.1334 818.475 Q27.4968 815.452 27.4968 812.587 Q27.4968 804.853 31.5072 801.033 Q35.5176 797.214 43.6657 797.214 Z" fill="#000000" fill-rule="nonzero" fill-opacity="1" /><path clip-path="url(#clip420)" d="M18.2347 779.358 L28.3562 779.358 L28.3562 767.295 L32.9077 767.295 L32.9077 779.358 L52.2594 779.358 Q56.6199 779.358 57.8613 778.18 Q59.1026 776.971 59.1026 773.311 L59.1026 767.295 L64.0042 767.295 L64.0042 773.311 Q64.0042 780.09 61.4897 782.668 Q58.9434 785.246 52.2594 785.246 L32.9077 785.246 L32.9077 789.543 L28.3562 789.543 L28.3562 785.246 L18.2347 785.246 L18.2347 779.358 Z" fill="#000000" fill-rule="nonzero" fill-opacity="1" /><path clip-path="url(#clip420)" d="M44.7161 729.101 L47.5806 729.101 L47.5806 756.028 Q53.6281 755.646 56.8109 752.399 Q59.9619 749.121 59.9619 743.296 Q59.9619 739.923 59.1344 736.772 Q58.3069 733.589 56.6518 730.47 L62.1899 730.47 Q63.5267 733.621 64.227 736.931 Q64.9272 740.241 64.9272 743.647 Q64.9272 752.177 59.9619 757.174 Q54.9967 762.139 46.5303 762.139 Q37.7774 762.139 32.6531 757.428 Q27.4968 752.686 27.4968 744.665 Q27.4968 737.472 32.1438 733.302 Q36.7589 729.101 44.7161 729.101 M42.9973 734.957 Q38.1912 735.021 35.3266 737.663 Q32.4621 740.273 32.4621 744.601 Q32.4621 749.503 35.2312 752.463 Q38.0002 755.391 43.0292 755.837 L42.9973 734.957 Z" fill="#000000" fill-rule="nonzero" fill-opacity="1" /><path clip-path="url(#clip420)" d="M44.7161 668.277 L47.5806 668.277 L47.5806 695.204 Q53.6281 694.822 56.8109 691.575 Q59.9619 688.297 59.9619 682.472 Q59.9619 679.098 59.1344 675.947 Q58.3069 672.764 56.6518 669.645 L62.1899 669.645 Q63.5267 672.796 64.227 676.106 Q64.9272 679.417 64.9272 682.822 Q64.9272 691.352 59.9619 696.349 Q54.9967 701.315 46.5303 701.315 Q37.7774 701.315 32.6531 696.604 Q27.4968 691.862 27.4968 683.841 Q27.4968 676.647 32.1438 672.478 Q36.7589 668.277 44.7161 668.277 M42.9973 674.133 Q38.1912 674.197 35.3266 676.838 Q32.4621 679.448 32.4621 683.777 Q32.4621 688.679 35.2312 691.639 Q38.0002 694.567 43.0292 695.013 L42.9973 674.133 Z" fill="#000000" fill-rule="nonzero" fill-opacity="1" /><path clip-path="url(#clip420)" d="M42.4881 629.032 L64.0042 629.032 L64.0042 634.888 L42.679 634.888 Q37.6183 634.888 35.1038 636.862 Q32.5894 638.835 32.5894 642.782 Q32.5894 647.524 35.6131 650.262 Q38.6368 652.999 43.8567 652.999 L64.0042 652.999 L64.0042 658.887 L28.3562 658.887 L28.3562 652.999 L33.8944 652.999 Q30.6797 650.898 29.0883 648.065 Q27.4968 645.201 27.4968 641.477 Q27.4968 635.334 31.3163 632.183 Q35.1038 629.032 42.4881 629.032 Z" fill="#000000" fill-rule="nonzero" fill-opacity="1" /><path clip-path="url(#clip420)" d="M44.7161 586.859 L47.5806 586.859 L47.5806 613.786 Q53.6281 613.404 56.8109 610.158 Q59.9619 606.879 59.9619 601.055 Q59.9619 597.681 59.1344 594.53 Q58.3069 591.347 56.6518 588.228 L62.1899 588.228 Q63.5267 591.379 64.227 594.689 Q64.9272 597.999 64.9272 601.405 Q64.9272 609.935 59.9619 614.932 Q54.9967 619.897 46.5303 619.897 Q37.7774 619.897 32.6531 615.187 Q27.4968 610.444 27.4968 602.423 Q27.4968 595.23 32.1438 591.061 Q36.7589 586.859 44.7161 586.859 M42.9973 592.716 Q38.1912 592.779 35.3266 595.421 Q32.4621 598.031 32.4621 602.36 Q32.4621 607.261 35.2312 610.221 Q38.0002 613.15 43.0292 613.595 L42.9973 592.716 Z" fill="#000000" fill-rule="nonzero" fill-opacity="1" /><path clip-path="url(#clip420)" d="M33.8307 556.59 Q33.2578 557.577 33.0032 558.755 Q32.7167 559.9 32.7167 561.301 Q32.7167 566.266 35.9632 568.94 Q39.1779 571.581 45.2253 571.581 L64.0042 571.581 L64.0042 577.47 L28.3562 577.47 L28.3562 571.581 L33.8944 571.581 Q30.6479 569.735 29.0883 566.775 Q27.4968 563.815 27.4968 559.582 Q27.4968 558.977 27.5923 558.245 Q27.656 557.513 27.8151 556.622 L33.8307 556.59 Z" fill="#000000" fill-rule="nonzero" fill-opacity="1" /><path clip-path="url(#clip420)" d="M45.7664 528.136 Q39.4007 528.136 35.8996 530.777 Q32.3984 533.387 32.3984 538.13 Q32.3984 542.84 35.8996 545.482 Q39.4007 548.092 45.7664 548.092 Q52.1003 548.092 55.6014 545.482 Q59.1026 542.84 59.1026 538.13 Q59.1026 533.387 55.6014 530.777 Q52.1003 528.136 45.7664 528.136 M59.58 522.279 Q68.683 522.279 73.1071 526.321 Q77.5631 530.364 77.5631 538.703 Q77.5631 541.79 77.0857 544.527 Q76.6401 547.264 75.6852 549.843 L69.9879 549.843 Q71.3884 547.264 72.0568 544.75 Q72.7252 542.236 72.7252 539.626 Q72.7252 533.865 69.7015 531 Q66.7096 528.136 60.6303 528.136 L57.7339 528.136 Q60.885 529.95 62.4446 532.782 Q64.0042 535.615 64.0042 539.562 Q64.0042 546.119 59.0071 550.129 Q54.01 554.139 45.7664 554.139 Q37.491 554.139 32.4939 550.129 Q27.4968 546.119 27.4968 539.562 Q27.4968 535.615 29.0564 532.782 Q30.616 529.95 33.7671 528.136 L28.3562 528.136 L28.3562 522.279 L59.58 522.279 Z" fill="#000000" fill-rule="nonzero" fill-opacity="1" /><path clip-path="url(#clip420)" d="M67.3143 495.384 Q73.68 497.867 75.6216 500.222 Q77.5631 502.577 77.5631 506.524 L77.5631 511.203 L72.6615 511.203 L72.6615 507.765 Q72.6615 505.346 71.5157 504.01 Q70.3699 502.673 66.1048 501.049 L63.4312 499.999 L28.3562 514.417 L28.3562 508.211 L56.238 497.071 L28.3562 485.931 L28.3562 479.724 L67.3143 495.384 Z" fill="#000000" fill-rule="nonzero" fill-opacity="1" /><path clip-path="url(#clip420)" d="M14.5426 436.851 Q21.8632 441.116 29.0246 443.185 Q36.186 445.254 43.5384 445.254 Q50.8908 445.254 58.1159 443.185 Q65.3091 441.084 72.5979 436.851 L72.5979 441.944 Q65.1182 446.718 57.8931 449.105 Q50.668 451.461 43.5384 451.461 Q36.4406 451.461 29.2474 449.105 Q22.0542 446.75 14.5426 441.944 L14.5426 436.851 Z" fill="#000000" fill-rule="nonzero" fill-opacity="1" /><path clip-path="url(#clip420)" d="M16.4842 425.234 L16.4842 418.805 L35.9632 418.805 L35.9632 395.442 L16.4842 395.442 L16.4842 389.013 L64.0042 389.013 L64.0042 395.442 L41.3741 395.442 L41.3741 418.805 L64.0042 418.805 L64.0042 425.234 L16.4842 425.234 Z" fill="#000000" fill-rule="nonzero" fill-opacity="1" /><path clip-path="url(#clip420)" d="M46.0847 360.272 Q46.0847 367.37 47.7079 370.107 Q49.3312 372.844 53.2461 372.844 Q56.3653 372.844 58.2114 370.807 Q60.0256 368.738 60.0256 365.205 Q60.0256 360.336 56.5881 357.407 Q53.1188 354.447 47.3897 354.447 L46.0847 354.447 L46.0847 360.272 M43.6657 348.591 L64.0042 348.591 L64.0042 354.447 L58.5933 354.447 Q61.8398 356.452 63.3994 359.444 Q64.9272 362.436 64.9272 366.765 Q64.9272 372.239 61.8716 375.486 Q58.7843 378.701 53.6281 378.701 Q47.6125 378.701 44.5569 374.69 Q41.5014 370.648 41.5014 362.659 L41.5014 354.447 L40.9285 354.447 Q36.8862 354.447 34.6901 357.121 Q32.4621 359.763 32.4621 364.569 Q32.4621 367.624 33.1941 370.521 Q33.9262 373.417 35.3903 376.091 L29.9795 376.091 Q28.7381 372.876 28.1334 369.852 Q27.4968 366.829 27.4968 363.964 Q27.4968 356.23 31.5072 352.41 Q35.5176 348.591 43.6657 348.591 Z" fill="#000000" fill-rule="nonzero" fill-opacity="1" /><path clip-path="url(#clip420)" d="M14.5426 337.451 L14.5426 332.358 Q22.0542 327.584 29.2474 325.229 Q36.4406 322.841 43.5384 322.841 Q50.668 322.841 57.8931 325.229 Q65.1182 327.584 72.5979 332.358 L72.5979 337.451 Q65.3091 333.218 58.1159 331.149 Q50.8908 329.048 43.5384 329.048 Q36.186 329.048 29.0246 331.149 Q21.8632 333.218 14.5426 337.451 Z" fill="#000000" fill-rule="nonzero" fill-opacity="1" /><polyline clip-path="url(#clip422)" style="stroke:#009af9; stroke-linecap:round; stroke-linejoin:round; stroke-width:4; stroke-opacity:1; fill:none" points="375.129,1057.29 476.183,1057.29 577.237,1057.29 678.291,1057.29 779.345,1057.29 880.399,1057.29 981.453,1057.29 1082.51,1057.29 1183.56,1057.29 1284.61,1057.29 1385.67,1057.29 1486.72,1057.29 1587.78,1057.29 1688.83,1057.29 1789.88,1057.29 1890.94,1057.29 1991.99,1057.29 2093.05,1057.29 2194.1,1057.29 2295.16,1057.29 "/>
<polyline clip-path="url(#clip422)" style="stroke:#e26f46; stroke-linecap:round; stroke-linejoin:round; stroke-width:4; stroke-opacity:1; fill:none" points="375.129,86.1857 476.183,293.003 577.237,479.047 678.291,645.19 779.345,792.274 880.399,921.114 981.453,1032.5 1082.51,1127.19 1183.56,1205.91 1284.61,1269.39 1385.67,1318.31 1486.72,1353.34 1587.78,1375.1 1688.83,1384.24 1789.88,1381.34 1890.94,1366.99 1991.99,1341.74 2093.05,1306.15 2194.1,1260.72 2295.16,1205.97 "/>
<path clip-path="url(#clip420)" d="M1854.33 248.629 L2284.91 248.629 L2284.91 93.1086 L1854.33 93.1086  Z" fill="#ffffff" fill-rule="evenodd" fill-opacity="1"/>
<polyline clip-path="url(#clip420)" style="stroke:#000000; stroke-linecap:round; stroke-linejoin:round; stroke-width:4; stroke-opacity:1; fill:none" points="1854.33,248.629 2284.91,248.629 2284.91,93.1086 1854.33,93.1086 1854.33,248.629 "/>
<polyline clip-path="url(#clip420)" style="stroke:#009af9; stroke-linecap:round; stroke-linejoin:round; stroke-width:4; stroke-opacity:1; fill:none" points="1876.95,144.949 2012.63,144.949 "/>
<path clip-path="url(#clip420)" d="M2035.24 127.669 L2057.09 127.669 L2057.09 131.604 L2039.92 131.604 L2039.92 141.835 L2056.38 141.835 L2056.38 145.77 L2039.92 145.77 L2039.92 158.293 L2057.51 158.293 L2057.51 162.229 L2035.24 162.229 L2035.24 127.669 Z" fill="#000000" fill-rule="nonzero" fill-opacity="1" /><path clip-path="url(#clip420)" d="M2083.67 137.298 L2083.67 141.28 Q2081.86 140.284 2080.03 139.798 Q2078.23 139.289 2076.38 139.289 Q2072.23 139.289 2069.94 141.928 Q2067.65 144.544 2067.65 149.289 Q2067.65 154.034 2069.94 156.673 Q2072.23 159.289 2076.38 159.289 Q2078.23 159.289 2080.03 158.803 Q2081.86 158.293 2083.67 157.298 L2083.67 161.233 Q2081.89 162.067 2079.96 162.483 Q2078.07 162.9 2075.91 162.9 Q2070.06 162.9 2066.61 159.219 Q2063.16 155.539 2063.16 149.289 Q2063.16 142.946 2066.63 139.312 Q2070.13 135.678 2076.19 135.678 Q2078.16 135.678 2080.03 136.095 Q2081.91 136.488 2083.67 137.298 Z" fill="#000000" fill-rule="nonzero" fill-opacity="1" /><path clip-path="url(#clip420)" d="M2090.64 151.997 L2090.64 136.303 L2094.89 136.303 L2094.89 151.835 Q2094.89 155.516 2096.33 157.368 Q2097.77 159.196 2100.64 159.196 Q2104.08 159.196 2106.08 156.997 Q2108.09 154.798 2108.09 151.002 L2108.09 136.303 L2112.35 136.303 L2112.35 162.229 L2108.09 162.229 L2108.09 158.247 Q2106.54 160.608 2104.48 161.766 Q2102.44 162.9 2099.73 162.9 Q2095.27 162.9 2092.95 160.122 Q2090.64 157.344 2090.64 151.997 M2101.35 135.678 L2101.35 135.678 Z" fill="#000000" fill-rule="nonzero" fill-opacity="1" /><path clip-path="url(#clip420)" d="M2125.33 128.942 L2125.33 136.303 L2134.11 136.303 L2134.11 139.613 L2125.33 139.613 L2125.33 153.687 Q2125.33 156.858 2126.19 157.761 Q2127.07 158.664 2129.73 158.664 L2134.11 158.664 L2134.11 162.229 L2129.73 162.229 Q2124.8 162.229 2122.93 160.4 Q2121.05 158.548 2121.05 153.687 L2121.05 139.613 L2117.93 139.613 L2117.93 136.303 L2121.05 136.303 L2121.05 128.942 L2125.33 128.942 Z" fill="#000000" fill-rule="nonzero" fill-opacity="1" /><path clip-path="url(#clip420)" d="M2140.26 140.701 L2169.94 140.701 L2169.94 144.59 L2140.26 144.59 L2140.26 140.701 M2140.26 150.145 L2169.94 150.145 L2169.94 154.081 L2140.26 154.081 L2140.26 150.145 Z" fill="#000000" fill-rule="nonzero" fill-opacity="1" /><path clip-path="url(#clip420)" d="M2180.08 127.669 L2198.44 127.669 L2198.44 131.604 L2184.36 131.604 L2184.36 140.076 Q2185.38 139.729 2186.4 139.567 Q2187.42 139.382 2188.44 139.382 Q2194.22 139.382 2197.6 142.553 Q2200.98 145.724 2200.98 151.141 Q2200.98 156.719 2197.51 159.821 Q2194.04 162.9 2187.72 162.9 Q2185.54 162.9 2183.27 162.53 Q2181.03 162.159 2178.62 161.418 L2178.62 156.719 Q2180.7 157.854 2182.93 158.409 Q2185.15 158.965 2187.63 158.965 Q2191.63 158.965 2193.97 156.858 Q2196.31 154.752 2196.31 151.141 Q2196.31 147.53 2193.97 145.423 Q2191.63 143.317 2187.63 143.317 Q2185.75 143.317 2183.88 143.733 Q2182.02 144.15 2180.08 145.03 L2180.08 127.669 Z" fill="#000000" fill-rule="nonzero" fill-opacity="1" /><polyline clip-path="url(#clip420)" style="stroke:#e26f46; stroke-linecap:round; stroke-linejoin:round; stroke-width:4; stroke-opacity:1; fill:none" points="1876.95,196.789 2012.63,196.789 "/>
<path clip-path="url(#clip420)" d="M2035.24 179.509 L2057.09 179.509 L2057.09 183.444 L2039.92 183.444 L2039.92 193.675 L2056.38 193.675 L2056.38 197.61 L2039.92 197.61 L2039.92 210.133 L2057.51 210.133 L2057.51 214.069 L2035.24 214.069 L2035.24 179.509 Z" fill="#000000" fill-rule="nonzero" fill-opacity="1" /><path clip-path="url(#clip420)" d="M2083.67 189.138 L2083.67 193.12 Q2081.86 192.124 2080.03 191.638 Q2078.23 191.129 2076.38 191.129 Q2072.23 191.129 2069.94 193.768 Q2067.65 196.384 2067.65 201.129 Q2067.65 205.874 2069.94 208.513 Q2072.23 211.129 2076.38 211.129 Q2078.23 211.129 2080.03 210.643 Q2081.86 210.133 2083.67 209.138 L2083.67 213.073 Q2081.89 213.907 2079.96 214.323 Q2078.07 214.74 2075.91 214.74 Q2070.06 214.74 2066.61 211.059 Q2063.16 207.379 2063.16 201.129 Q2063.16 194.786 2066.63 191.152 Q2070.13 187.518 2076.19 187.518 Q2078.16 187.518 2080.03 187.935 Q2081.91 188.328 2083.67 189.138 Z" fill="#000000" fill-rule="nonzero" fill-opacity="1" /><path clip-path="url(#clip420)" d="M2090.64 203.837 L2090.64 188.143 L2094.89 188.143 L2094.89 203.675 Q2094.89 207.356 2096.33 209.208 Q2097.77 211.036 2100.64 211.036 Q2104.08 211.036 2106.08 208.837 Q2108.09 206.638 2108.09 202.842 L2108.09 188.143 L2112.35 188.143 L2112.35 214.069 L2108.09 214.069 L2108.09 210.087 Q2106.54 212.448 2104.48 213.606 Q2102.44 214.74 2099.73 214.74 Q2095.27 214.74 2092.95 211.962 Q2090.64 209.184 2090.64 203.837 M2101.35 187.518 L2101.35 187.518 Z" fill="#000000" fill-rule="nonzero" fill-opacity="1" /><path clip-path="url(#clip420)" d="M2125.33 180.782 L2125.33 188.143 L2134.11 188.143 L2134.11 191.453 L2125.33 191.453 L2125.33 205.527 Q2125.33 208.698 2126.19 209.601 Q2127.07 210.504 2129.73 210.504 L2134.11 210.504 L2134.11 214.069 L2129.73 214.069 Q2124.8 214.069 2122.93 212.24 Q2121.05 210.388 2121.05 205.527 L2121.05 191.453 L2117.93 191.453 L2117.93 188.143 L2121.05 188.143 L2121.05 180.782 L2125.33 180.782 Z" fill="#000000" fill-rule="nonzero" fill-opacity="1" /><path clip-path="url(#clip420)" d="M2140.26 192.541 L2169.94 192.541 L2169.94 196.43 L2140.26 196.43 L2140.26 192.541 M2140.26 201.985 L2169.94 201.985 L2169.94 205.921 L2140.26 205.921 L2140.26 201.985 Z" fill="#000000" fill-rule="nonzero" fill-opacity="1" /><path clip-path="url(#clip420)" d="M2180.84 210.133 L2188.48 210.133 L2188.48 183.768 L2180.17 185.435 L2180.17 181.175 L2188.44 179.509 L2193.11 179.509 L2193.11 210.133 L2200.75 210.133 L2200.75 214.069 L2180.84 214.069 L2180.84 210.133 Z" fill="#000000" fill-rule="nonzero" fill-opacity="1" /><path clip-path="url(#clip420)" d="M2220.2 182.587 Q2216.58 182.587 2214.76 186.152 Q2212.95 189.694 2212.95 196.823 Q2212.95 203.93 2214.76 207.495 Q2216.58 211.036 2220.2 211.036 Q2223.83 211.036 2225.63 207.495 Q2227.46 203.93 2227.46 196.823 Q2227.46 189.694 2225.63 186.152 Q2223.83 182.587 2220.2 182.587 M2220.2 178.884 Q2226.01 178.884 2229.06 183.49 Q2232.14 188.073 2232.14 196.823 Q2232.14 205.55 2229.06 210.157 Q2226.01 214.74 2220.2 214.74 Q2214.38 214.74 2211.31 210.157 Q2208.25 205.55 2208.25 196.823 Q2208.25 188.073 2211.31 183.49 Q2214.38 178.884 2220.2 178.884 Z" fill="#000000" fill-rule="nonzero" fill-opacity="1" /><path clip-path="url(#clip420)" d="M2250.36 182.587 Q2246.75 182.587 2244.92 186.152 Q2243.11 189.694 2243.11 196.823 Q2243.11 203.93 2244.92 207.495 Q2246.75 211.036 2250.36 211.036 Q2253.99 211.036 2255.8 207.495 Q2257.63 203.93 2257.63 196.823 Q2257.63 189.694 2255.8 186.152 Q2253.99 182.587 2250.36 182.587 M2250.36 178.884 Q2256.17 178.884 2259.22 183.49 Q2262.3 188.073 2262.3 196.823 Q2262.3 205.55 2259.22 210.157 Q2256.17 214.74 2250.36 214.74 Q2244.55 214.74 2241.47 210.157 Q2238.41 205.55 2238.41 196.823 Q2238.41 188.073 2241.47 183.49 Q2244.55 178.884 2250.36 178.884 Z" fill="#000000" fill-rule="nonzero" fill-opacity="1" /></svg>
