<?xml version="1.0" encoding="utf-8"?>
<svg xmlns="http://www.w3.org/2000/svg" xmlns:xlink="http://www.w3.org/1999/xlink" width="600" height="400" viewBox="0 0 2400 1600">
<defs>
  <clipPath id="clip090">
    <rect x="0" y="0" width="2400" height="1600"/>
  </clipPath>
</defs>
<path clip-path="url(#clip090)" d="M0 1600 L2400 1600 L2400 0 L0 0  Z" fill="#ffffff" fill-rule="evenodd" fill-opacity="1"/>
<defs>
  <clipPath id="clip091">
    <rect x="480" y="0" width="1681" height="1600"/>
  </clipPath>
</defs>
<path clip-path="url(#clip090)" d="M279.704 1423.18 L2352.76 1423.18 L2352.76 47.2441 L279.704 47.2441  Z" fill="#ffffff" fill-rule="evenodd" fill-opacity="1"/>
<defs>
  <clipPath id="clip092">
    <rect x="279" y="47" width="2074" height="1377"/>
  </clipPath>
</defs>
<polyline clip-path="url(#clip092)" style="stroke:#000000; stroke-linecap:round; stroke-linejoin:round; stroke-width:2; stroke-opacity:0.1; fill:none" points="338.375,1423.18 338.375,47.2441 "/>
<polyline clip-path="url(#clip092)" style="stroke:#000000; stroke-linecap:round; stroke-linejoin:round; stroke-width:2; stroke-opacity:0.1; fill:none" points="743.005,1423.18 743.005,47.2441 "/>
<polyline clip-path="url(#clip092)" style="stroke:#000000; stroke-linecap:round; stroke-linejoin:round; stroke-width:2; stroke-opacity:0.1; fill:none" points="1147.63,1423.18 1147.63,47.2441 "/>
<polyline clip-path="url(#clip092)" style="stroke:#000000; stroke-linecap:round; stroke-linejoin:round; stroke-width:2; stroke-opacity:0.1; fill:none" points="1552.26,1423.18 1552.26,47.2441 "/>
<polyline clip-path="url(#clip092)" style="stroke:#000000; stroke-linecap:round; stroke-linejoin:round; stroke-width:2; stroke-opacity:0.1; fill:none" points="1956.89,1423.18 1956.89,47.2441 "/>
<polyline clip-path="url(#clip090)" style="stroke:#000000; stroke-linecap:round; stroke-linejoin:round; stroke-width:4; stroke-opacity:1; fill:none" points="279.704,1423.18 2352.76,1423.18 "/>
<polyline clip-path="url(#clip090)" style="stroke:#000000; stroke-linecap:round; stroke-linejoin:round; stroke-width:4; stroke-opacity:1; fill:none" points="338.375,1423.18 338.375,1404.28 "/>
<polyline clip-path="url(#clip090)" style="stroke:#000000; stroke-linecap:round; stroke-linejoin:round; stroke-width:4; stroke-opacity:1; fill:none" points="743.005,1423.18 743.005,1404.28 "/>
<polyline clip-path="url(#clip090)" style="stroke:#000000; stroke-linecap:round; stroke-linejoin:round; stroke-width:4; stroke-opacity:1; fill:none" points="1147.63,1423.18 1147.63,1404.28 "/>
<polyline clip-path="url(#clip090)" style="stroke:#000000; stroke-linecap:round; stroke-linejoin:round; stroke-width:4; stroke-opacity:1; fill:none" points="1552.26,1423.18 1552.26,1404.28 "/>
<polyline clip-path="url(#clip090)" style="stroke:#000000; stroke-linecap:round; stroke-linejoin:round; stroke-width:4; stroke-opacity:1; fill:none" points="1956.89,1423.18 1956.89,1404.28 "/>
<path clip-path="url(#clip090)" d="M315.76 1454.1 Q312.148 1454.1 310.32 1457.66 Q308.514 1461.2 308.514 1468.33 Q308.514 1475.44 310.32 1479.01 Q312.148 1482.55 315.76 1482.55 Q319.394 1482.55 321.199 1479.01 Q323.028 1475.44 323.028 1468.33 Q323.028 1461.2 321.199 1457.66 Q319.394 1454.1 315.76 1454.1 M315.76 1450.39 Q321.57 1450.39 324.625 1455 Q327.704 1459.58 327.704 1468.33 Q327.704 1477.06 324.625 1481.67 Q321.57 1486.25 315.76 1486.25 Q309.949 1486.25 306.871 1481.67 Q303.815 1477.06 303.815 1468.33 Q303.815 1459.58 306.871 1455 Q309.949 1450.39 315.76 1450.39 Z" fill="#000000" fill-rule="nonzero" fill-opacity="1" /><path clip-path="url(#clip090)" d="M335.922 1479.7 L340.806 1479.7 L340.806 1485.58 L335.922 1485.58 L335.922 1479.7 Z" fill="#000000" fill-rule="nonzero" fill-opacity="1" /><path clip-path="url(#clip090)" d="M360.991 1454.1 Q357.38 1454.1 355.551 1457.66 Q353.745 1461.2 353.745 1468.33 Q353.745 1475.44 355.551 1479.01 Q357.38 1482.55 360.991 1482.55 Q364.625 1482.55 366.431 1479.01 Q368.259 1475.44 368.259 1468.33 Q368.259 1461.2 366.431 1457.66 Q364.625 1454.1 360.991 1454.1 M360.991 1450.39 Q366.801 1450.39 369.857 1455 Q372.935 1459.58 372.935 1468.33 Q372.935 1477.06 369.857 1481.67 Q366.801 1486.25 360.991 1486.25 Q355.181 1486.25 352.102 1481.67 Q349.046 1477.06 349.046 1468.33 Q349.046 1459.58 352.102 1455 Q355.181 1450.39 360.991 1450.39 Z" fill="#000000" fill-rule="nonzero" fill-opacity="1" /><path clip-path="url(#clip090)" d="M721.188 1454.1 Q717.577 1454.1 715.748 1457.66 Q713.942 1461.2 713.942 1468.33 Q713.942 1475.44 715.748 1479.01 Q717.577 1482.55 721.188 1482.55 Q724.822 1482.55 726.628 1479.01 Q728.456 1475.44 728.456 1468.33 Q728.456 1461.2 726.628 1457.66 Q724.822 1454.1 721.188 1454.1 M721.188 1450.39 Q726.998 1450.39 730.053 1455 Q733.132 1459.58 733.132 1468.33 Q733.132 1477.06 730.053 1481.67 Q726.998 1486.25 721.188 1486.25 Q715.378 1486.25 712.299 1481.67 Q709.243 1477.06 709.243 1468.33 Q709.243 1459.58 712.299 1455 Q715.378 1450.39 721.188 1450.39 Z" fill="#000000" fill-rule="nonzero" fill-opacity="1" /><path clip-path="url(#clip090)" d="M741.35 1479.7 L746.234 1479.7 L746.234 1485.58 L741.35 1485.58 L741.35 1479.7 Z" fill="#000000" fill-rule="nonzero" fill-opacity="1" /><path clip-path="url(#clip090)" d="M760.447 1481.64 L776.766 1481.64 L776.766 1485.58 L754.822 1485.58 L754.822 1481.64 Q757.484 1478.89 762.067 1474.26 Q766.674 1469.61 767.854 1468.27 Q770.099 1465.74 770.979 1464.01 Q771.882 1462.25 771.882 1460.56 Q771.882 1457.8 769.937 1456.07 Q768.016 1454.33 764.914 1454.33 Q762.715 1454.33 760.262 1455.09 Q757.831 1455.86 755.053 1457.41 L755.053 1452.69 Q757.877 1451.55 760.331 1450.97 Q762.785 1450.39 764.822 1450.39 Q770.192 1450.39 773.387 1453.08 Q776.581 1455.77 776.581 1460.26 Q776.581 1462.39 775.771 1464.31 Q774.984 1466.2 772.877 1468.8 Q772.299 1469.47 769.197 1472.69 Q766.095 1475.88 760.447 1481.64 Z" fill="#000000" fill-rule="nonzero" fill-opacity="1" /><path clip-path="url(#clip090)" d="M1124.78 1454.1 Q1121.16 1454.1 1119.34 1457.66 Q1117.53 1461.2 1117.53 1468.33 Q1117.53 1475.44 1119.34 1479.01 Q1121.16 1482.55 1124.78 1482.55 Q1128.41 1482.55 1130.22 1479.01 Q1132.04 1475.44 1132.04 1468.33 Q1132.04 1461.2 1130.22 1457.66 Q1128.41 1454.1 1124.78 1454.1 M1124.78 1450.39 Q1130.59 1450.39 1133.64 1455 Q1136.72 1459.58 1136.72 1468.33 Q1136.72 1477.06 1133.64 1481.67 Q1130.59 1486.25 1124.78 1486.25 Q1118.97 1486.25 1115.89 1481.67 Q1112.83 1477.06 1112.83 1468.33 Q1112.83 1459.58 1115.89 1455 Q1118.97 1450.39 1124.78 1450.39 Z" fill="#000000" fill-rule="nonzero" fill-opacity="1" /><path clip-path="url(#clip090)" d="M1144.94 1479.7 L1149.82 1479.7 L1149.82 1485.58 L1144.94 1485.58 L1144.94 1479.7 Z" fill="#000000" fill-rule="nonzero" fill-opacity="1" /><path clip-path="url(#clip090)" d="M1172.85 1455.09 L1161.05 1473.54 L1172.85 1473.54 L1172.85 1455.09 M1171.63 1451.02 L1177.51 1451.02 L1177.51 1473.54 L1182.44 1473.54 L1182.44 1477.43 L1177.51 1477.43 L1177.51 1485.58 L1172.85 1485.58 L1172.85 1477.43 L1157.25 1477.43 L1157.25 1472.92 L1171.63 1451.02 Z" fill="#000000" fill-rule="nonzero" fill-opacity="1" /><path clip-path="url(#clip090)" d="M1529.57 1454.1 Q1525.96 1454.1 1524.13 1457.66 Q1522.32 1461.2 1522.32 1468.33 Q1522.32 1475.44 1524.13 1479.01 Q1525.96 1482.55 1529.57 1482.55 Q1533.2 1482.55 1535.01 1479.01 Q1536.84 1475.44 1536.84 1468.33 Q1536.84 1461.2 1535.01 1457.66 Q1533.2 1454.1 1529.57 1454.1 M1529.57 1450.39 Q1535.38 1450.39 1538.43 1455 Q1541.51 1459.58 1541.51 1468.33 Q1541.51 1477.06 1538.43 1481.67 Q1535.38 1486.25 1529.57 1486.25 Q1523.76 1486.25 1520.68 1481.67 Q1517.62 1477.06 1517.62 1468.33 Q1517.62 1459.58 1520.68 1455 Q1523.76 1450.39 1529.57 1450.39 Z" fill="#000000" fill-rule="nonzero" fill-opacity="1" /><path clip-path="url(#clip090)" d="M1549.73 1479.7 L1554.61 1479.7 L1554.61 1485.58 L1549.73 1485.58 L1549.73 1479.7 Z" fill="#000000" fill-rule="nonzero" fill-opacity="1" /><path clip-path="url(#clip090)" d="M1575.38 1466.44 Q1572.23 1466.44 1570.38 1468.59 Q1568.55 1470.74 1568.55 1474.49 Q1568.55 1478.22 1570.38 1480.39 Q1572.23 1482.55 1575.38 1482.55 Q1578.53 1482.55 1580.35 1480.39 Q1582.21 1478.22 1582.21 1474.49 Q1582.21 1470.74 1580.35 1468.59 Q1578.53 1466.44 1575.38 1466.44 M1584.66 1451.78 L1584.66 1456.04 Q1582.9 1455.21 1581.09 1454.77 Q1579.31 1454.33 1577.55 1454.33 Q1572.92 1454.33 1570.47 1457.45 Q1568.04 1460.58 1567.69 1466.9 Q1569.06 1464.89 1571.12 1463.82 Q1573.18 1462.73 1575.65 1462.73 Q1580.86 1462.73 1583.87 1465.9 Q1586.9 1469.05 1586.9 1474.49 Q1586.9 1479.82 1583.76 1483.03 Q1580.61 1486.25 1575.38 1486.25 Q1569.38 1486.25 1566.21 1481.67 Q1563.04 1477.06 1563.04 1468.33 Q1563.04 1460.14 1566.93 1455.28 Q1570.82 1450.39 1577.37 1450.39 Q1579.13 1450.39 1580.91 1450.74 Q1582.72 1451.09 1584.66 1451.78 Z" fill="#000000" fill-rule="nonzero" fill-opacity="1" /><path clip-path="url(#clip090)" d="M1934.32 1454.1 Q1930.71 1454.1 1928.88 1457.66 Q1927.08 1461.2 1927.08 1468.33 Q1927.08 1475.44 1928.88 1479.01 Q1930.71 1482.55 1934.32 1482.55 Q1937.96 1482.55 1939.76 1479.01 Q1941.59 1475.44 1941.59 1468.33 Q1941.59 1461.2 1939.76 1457.66 Q1937.96 1454.1 1934.32 1454.1 M1934.32 1450.39 Q1940.13 1450.39 1943.19 1455 Q1946.27 1459.58 1946.27 1468.33 Q1946.27 1477.06 1943.19 1481.67 Q1940.13 1486.25 1934.32 1486.25 Q1928.51 1486.25 1925.44 1481.67 Q1922.38 1477.06 1922.38 1468.33 Q1922.38 1459.58 1925.44 1455 Q1928.51 1450.39 1934.32 1450.39 Z" fill="#000000" fill-rule="nonzero" fill-opacity="1" /><path clip-path="url(#clip090)" d="M1954.49 1479.7 L1959.37 1479.7 L1959.37 1485.58 L1954.49 1485.58 L1954.49 1479.7 Z" fill="#000000" fill-rule="nonzero" fill-opacity="1" /><path clip-path="url(#clip090)" d="M1979.56 1469.17 Q1976.22 1469.17 1974.3 1470.95 Q1972.4 1472.73 1972.4 1475.86 Q1972.4 1478.98 1974.3 1480.77 Q1976.22 1482.55 1979.56 1482.55 Q1982.89 1482.55 1984.81 1480.77 Q1986.73 1478.96 1986.73 1475.86 Q1986.73 1472.73 1984.81 1470.95 Q1982.91 1469.17 1979.56 1469.17 M1974.88 1467.18 Q1971.87 1466.44 1970.18 1464.38 Q1968.51 1462.32 1968.51 1459.35 Q1968.51 1455.21 1971.45 1452.8 Q1974.42 1450.39 1979.56 1450.39 Q1984.72 1450.39 1987.66 1452.8 Q1990.6 1455.21 1990.6 1459.35 Q1990.6 1462.32 1988.91 1464.38 Q1987.24 1466.44 1984.25 1467.18 Q1987.63 1467.96 1989.51 1470.26 Q1991.41 1472.55 1991.41 1475.86 Q1991.41 1480.88 1988.33 1483.57 Q1985.27 1486.25 1979.56 1486.25 Q1973.84 1486.25 1970.76 1483.57 Q1967.7 1480.88 1967.7 1475.86 Q1967.7 1472.55 1969.6 1470.26 Q1971.5 1467.96 1974.88 1467.18 M1973.17 1459.79 Q1973.17 1462.48 1974.83 1463.98 Q1976.52 1465.49 1979.56 1465.49 Q1982.56 1465.49 1984.25 1463.98 Q1985.97 1462.48 1985.97 1459.79 Q1985.97 1457.11 1984.25 1455.6 Q1982.56 1454.1 1979.56 1454.1 Q1976.52 1454.1 1974.83 1455.6 Q1973.17 1457.11 1973.17 1459.79 Z" fill="#000000" fill-rule="nonzero" fill-opacity="1" /><path clip-path="url(#clip090)" d="M1332.84 1532.4 L1319.95 1549.74 L1333.51 1568.04 L1326.61 1568.04 L1316.23 1554.04 L1305.85 1568.04 L1298.95 1568.04 L1312.79 1549.39 L1300.12 1532.4 L1307.03 1532.4 L1316.48 1545.1 L1325.94 1532.4 L1332.84 1532.4 Z" fill="#000000" fill-rule="nonzero" fill-opacity="1" /><polyline clip-path="url(#clip092)" style="stroke:#000000; stroke-linecap:round; stroke-linejoin:round; stroke-width:2; stroke-opacity:0.1; fill:none" points="279.704,1267.76 2352.76,1267.76 "/>
<polyline clip-path="url(#clip092)" style="stroke:#000000; stroke-linecap:round; stroke-linejoin:round; stroke-width:2; stroke-opacity:0.1; fill:none" points="279.704,1036.84 2352.76,1036.84 "/>
<polyline clip-path="url(#clip092)" style="stroke:#000000; stroke-linecap:round; stroke-linejoin:round; stroke-width:2; stroke-opacity:0.1; fill:none" points="279.704,805.915 2352.76,805.915 "/>
<polyline clip-path="url(#clip092)" style="stroke:#000000; stroke-linecap:round; stroke-linejoin:round; stroke-width:2; stroke-opacity:0.1; fill:none" points="279.704,574.993 2352.76,574.993 "/>
<polyline clip-path="url(#clip092)" style="stroke:#000000; stroke-linecap:round; stroke-linejoin:round; stroke-width:2; stroke-opacity:0.1; fill:none" points="279.704,344.071 2352.76,344.071 "/>
<polyline clip-path="url(#clip092)" style="stroke:#000000; stroke-linecap:round; stroke-linejoin:round; stroke-width:2; stroke-opacity:0.1; fill:none" points="279.704,113.149 2352.76,113.149 "/>
<polyline clip-path="url(#clip090)" style="stroke:#000000; stroke-linecap:round; stroke-linejoin:round; stroke-width:4; stroke-opacity:1; fill:none" points="279.704,1423.18 279.704,47.2441 "/>
<polyline clip-path="url(#clip090)" style="stroke:#000000; stroke-linecap:round; stroke-linejoin:round; stroke-width:4; stroke-opacity:1; fill:none" points="279.704,1267.76 298.602,1267.76 "/>
<polyline clip-path="url(#clip090)" style="stroke:#000000; stroke-linecap:round; stroke-linejoin:round; stroke-width:4; stroke-opacity:1; fill:none" points="279.704,1036.84 298.602,1036.84 "/>
<polyline clip-path="url(#clip090)" style="stroke:#000000; stroke-linecap:round; stroke-linejoin:round; stroke-width:4; stroke-opacity:1; fill:none" points="279.704,805.915 298.602,805.915 "/>
<polyline clip-path="url(#clip090)" style="stroke:#000000; stroke-linecap:round; stroke-linejoin:round; stroke-width:4; stroke-opacity:1; fill:none" points="279.704,574.993 298.602,574.993 "/>
<polyline clip-path="url(#clip090)" style="stroke:#000000; stroke-linecap:round; stroke-linejoin:round; stroke-width:4; stroke-opacity:1; fill:none" points="279.704,344.071 298.602,344.071 "/>
<polyline clip-path="url(#clip090)" style="stroke:#000000; stroke-linecap:round; stroke-linejoin:round; stroke-width:4; stroke-opacity:1; fill:none" points="279.704,113.149 298.602,113.149 "/>
<path clip-path="url(#clip090)" d="M126.205 1253.56 Q122.593 1253.56 120.765 1257.12 Q118.959 1260.66 118.959 1267.79 Q118.959 1274.9 120.765 1278.46 Q122.593 1282.01 126.205 1282.01 Q129.839 1282.01 131.644 1278.46 Q133.473 1274.9 133.473 1267.79 Q133.473 1260.66 131.644 1257.12 Q129.839 1253.56 126.205 1253.56 M126.205 1249.85 Q132.015 1249.85 135.07 1254.46 Q138.149 1259.04 138.149 1267.79 Q138.149 1276.52 135.07 1281.13 Q132.015 1285.71 126.205 1285.71 Q120.394 1285.71 117.316 1281.13 Q114.26 1276.52 114.26 1267.79 Q114.26 1259.04 117.316 1254.46 Q120.394 1249.85 126.205 1249.85 Z" fill="#000000" fill-rule="nonzero" fill-opacity="1" /><path clip-path="url(#clip090)" d="M146.366 1279.16 L151.251 1279.16 L151.251 1285.04 L146.366 1285.04 L146.366 1279.16 Z" fill="#000000" fill-rule="nonzero" fill-opacity="1" /><path clip-path="url(#clip090)" d="M171.436 1253.56 Q167.825 1253.56 165.996 1257.12 Q164.19 1260.66 164.19 1267.79 Q164.19 1274.9 165.996 1278.46 Q167.825 1282.01 171.436 1282.01 Q175.07 1282.01 176.876 1278.46 Q178.704 1274.9 178.704 1267.79 Q178.704 1260.66 176.876 1257.12 Q175.07 1253.56 171.436 1253.56 M171.436 1249.85 Q177.246 1249.85 180.301 1254.46 Q183.38 1259.04 183.38 1267.79 Q183.38 1276.52 180.301 1281.13 Q177.246 1285.71 171.436 1285.71 Q165.626 1285.71 162.547 1281.13 Q159.491 1276.52 159.491 1267.79 Q159.491 1259.04 162.547 1254.46 Q165.626 1249.85 171.436 1249.85 Z" fill="#000000" fill-rule="nonzero" fill-opacity="1" /><path clip-path="url(#clip090)" d="M202.176 1265.9 Q199.028 1265.9 197.176 1268.05 Q195.348 1270.2 195.348 1273.95 Q195.348 1277.68 197.176 1279.85 Q199.028 1282.01 202.176 1282.01 Q205.324 1282.01 207.153 1279.85 Q209.005 1277.68 209.005 1273.95 Q209.005 1270.2 207.153 1268.05 Q205.324 1265.9 202.176 1265.9 M211.459 1251.24 L211.459 1255.5 Q209.699 1254.67 207.894 1254.23 Q206.112 1253.79 204.352 1253.79 Q199.723 1253.79 197.269 1256.91 Q194.838 1260.04 194.491 1266.36 Q195.857 1264.34 197.917 1263.28 Q199.977 1262.19 202.454 1262.19 Q207.662 1262.19 210.672 1265.36 Q213.704 1268.51 213.704 1273.95 Q213.704 1279.28 210.556 1282.49 Q207.408 1285.71 202.176 1285.71 Q196.181 1285.71 193.01 1281.13 Q189.838 1276.52 189.838 1267.79 Q189.838 1259.6 193.727 1254.74 Q197.616 1249.85 204.167 1249.85 Q205.926 1249.85 207.709 1250.2 Q209.514 1250.55 211.459 1251.24 Z" fill="#000000" fill-rule="nonzero" fill-opacity="1" /><path clip-path="url(#clip090)" d="M231.76 1253.56 Q228.148 1253.56 226.32 1257.12 Q224.514 1260.66 224.514 1267.79 Q224.514 1274.9 226.32 1278.46 Q228.148 1282.01 231.76 1282.01 Q235.394 1282.01 237.199 1278.46 Q239.028 1274.9 239.028 1267.79 Q239.028 1260.66 237.199 1257.12 Q235.394 1253.56 231.76 1253.56 M231.76 1249.85 Q237.57 1249.85 240.625 1254.46 Q243.704 1259.04 243.704 1267.79 Q243.704 1276.52 240.625 1281.13 Q237.57 1285.71 231.76 1285.71 Q225.949 1285.71 222.871 1281.13 Q219.815 1276.52 219.815 1267.79 Q219.815 1259.04 222.871 1254.46 Q225.949 1249.85 231.76 1249.85 Z" fill="#000000" fill-rule="nonzero" fill-opacity="1" /><path clip-path="url(#clip090)" d="M127.2 1022.64 Q123.589 1022.64 121.76 1026.2 Q119.955 1029.74 119.955 1036.87 Q119.955 1043.98 121.76 1047.54 Q123.589 1051.08 127.2 1051.08 Q130.834 1051.08 132.64 1047.54 Q134.468 1043.98 134.468 1036.87 Q134.468 1029.74 132.64 1026.2 Q130.834 1022.64 127.2 1022.64 M127.2 1018.93 Q133.01 1018.93 136.066 1023.54 Q139.144 1028.12 139.144 1036.87 Q139.144 1045.6 136.066 1050.2 Q133.01 1054.79 127.2 1054.79 Q121.39 1054.79 118.311 1050.2 Q115.256 1045.6 115.256 1036.87 Q115.256 1028.12 118.311 1023.54 Q121.39 1018.93 127.2 1018.93 Z" fill="#000000" fill-rule="nonzero" fill-opacity="1" /><path clip-path="url(#clip090)" d="M147.362 1048.24 L152.246 1048.24 L152.246 1054.12 L147.362 1054.12 L147.362 1048.24 Z" fill="#000000" fill-rule="nonzero" fill-opacity="1" /><path clip-path="url(#clip090)" d="M172.431 1022.64 Q168.82 1022.64 166.991 1026.2 Q165.186 1029.74 165.186 1036.87 Q165.186 1043.98 166.991 1047.54 Q168.82 1051.08 172.431 1051.08 Q176.065 1051.08 177.871 1047.54 Q179.7 1043.98 179.7 1036.87 Q179.7 1029.74 177.871 1026.2 Q176.065 1022.64 172.431 1022.64 M172.431 1018.93 Q178.241 1018.93 181.297 1023.54 Q184.376 1028.12 184.376 1036.87 Q184.376 1045.6 181.297 1050.2 Q178.241 1054.79 172.431 1054.79 Q166.621 1054.79 163.542 1050.2 Q160.487 1045.6 160.487 1036.87 Q160.487 1028.12 163.542 1023.54 Q166.621 1018.93 172.431 1018.93 Z" fill="#000000" fill-rule="nonzero" fill-opacity="1" /><path clip-path="url(#clip090)" d="M203.172 1034.97 Q200.024 1034.97 198.172 1037.13 Q196.343 1039.28 196.343 1043.03 Q196.343 1046.76 198.172 1048.93 Q200.024 1051.08 203.172 1051.08 Q206.32 1051.08 208.149 1048.93 Q210 1046.76 210 1043.03 Q210 1039.28 208.149 1037.13 Q206.32 1034.97 203.172 1034.97 M212.454 1020.32 L212.454 1024.58 Q210.695 1023.75 208.889 1023.31 Q207.107 1022.87 205.348 1022.87 Q200.718 1022.87 198.264 1025.99 Q195.834 1029.12 195.487 1035.44 Q196.852 1033.42 198.912 1032.36 Q200.973 1031.27 203.449 1031.27 Q208.658 1031.27 211.667 1034.44 Q214.699 1037.59 214.699 1043.03 Q214.699 1048.35 211.551 1051.57 Q208.403 1054.79 203.172 1054.79 Q197.176 1054.79 194.005 1050.2 Q190.834 1045.6 190.834 1036.87 Q190.834 1028.68 194.723 1023.82 Q198.612 1018.93 205.162 1018.93 Q206.922 1018.93 208.704 1019.28 Q210.51 1019.63 212.454 1020.32 Z" fill="#000000" fill-rule="nonzero" fill-opacity="1" /><path clip-path="url(#clip090)" d="M222.801 1019.56 L241.158 1019.56 L241.158 1023.49 L227.084 1023.49 L227.084 1031.96 Q228.102 1031.62 229.121 1031.46 Q230.139 1031.27 231.158 1031.27 Q236.945 1031.27 240.324 1034.44 Q243.704 1037.61 243.704 1043.03 Q243.704 1048.61 240.232 1051.71 Q236.76 1054.79 230.44 1054.79 Q228.264 1054.79 225.996 1054.42 Q223.75 1054.05 221.343 1053.31 L221.343 1048.61 Q223.426 1049.74 225.648 1050.3 Q227.871 1050.85 230.347 1050.85 Q234.352 1050.85 236.69 1048.75 Q239.028 1046.64 239.028 1043.03 Q239.028 1039.42 236.69 1037.31 Q234.352 1035.21 230.347 1035.21 Q228.473 1035.21 226.598 1035.62 Q224.746 1036.04 222.801 1036.92 L222.801 1019.56 Z" fill="#000000" fill-rule="nonzero" fill-opacity="1" /><path clip-path="url(#clip090)" d="M126.205 791.714 Q122.593 791.714 120.765 795.279 Q118.959 798.82 118.959 805.95 Q118.959 813.056 120.765 816.621 Q122.593 820.163 126.205 820.163 Q129.839 820.163 131.644 816.621 Q133.473 813.056 133.473 805.95 Q133.473 798.82 131.644 795.279 Q129.839 791.714 126.205 791.714 M126.205 788.01 Q132.015 788.01 135.07 792.616 Q138.149 797.2 138.149 805.95 Q138.149 814.677 135.07 819.283 Q132.015 823.866 126.205 823.866 Q120.394 823.866 117.316 819.283 Q114.26 814.677 114.26 805.95 Q114.26 797.2 117.316 792.616 Q120.394 788.01 126.205 788.01 Z" fill="#000000" fill-rule="nonzero" fill-opacity="1" /><path clip-path="url(#clip090)" d="M146.366 817.315 L151.251 817.315 L151.251 823.195 L146.366 823.195 L146.366 817.315 Z" fill="#000000" fill-rule="nonzero" fill-opacity="1" /><path clip-path="url(#clip090)" d="M171.436 791.714 Q167.825 791.714 165.996 795.279 Q164.19 798.82 164.19 805.95 Q164.19 813.056 165.996 816.621 Q167.825 820.163 171.436 820.163 Q175.07 820.163 176.876 816.621 Q178.704 813.056 178.704 805.95 Q178.704 798.82 176.876 795.279 Q175.07 791.714 171.436 791.714 M171.436 788.01 Q177.246 788.01 180.301 792.616 Q183.38 797.2 183.38 805.95 Q183.38 814.677 180.301 819.283 Q177.246 823.866 171.436 823.866 Q165.626 823.866 162.547 819.283 Q159.491 814.677 159.491 805.95 Q159.491 797.2 162.547 792.616 Q165.626 788.01 171.436 788.01 Z" fill="#000000" fill-rule="nonzero" fill-opacity="1" /><path clip-path="url(#clip090)" d="M190.417 788.635 L212.639 788.635 L212.639 790.626 L200.093 823.195 L195.209 823.195 L207.014 792.57 L190.417 792.57 L190.417 788.635 Z" fill="#000000" fill-rule="nonzero" fill-opacity="1" /><path clip-path="url(#clip090)" d="M231.76 791.714 Q228.148 791.714 226.32 795.279 Q224.514 798.82 224.514 805.95 Q224.514 813.056 226.32 816.621 Q228.148 820.163 231.76 820.163 Q235.394 820.163 237.199 816.621 Q239.028 813.056 239.028 805.95 Q239.028 798.82 237.199 795.279 Q235.394 791.714 231.76 791.714 M231.76 788.01 Q237.57 788.01 240.625 792.616 Q243.704 797.2 243.704 805.95 Q243.704 814.677 240.625 819.283 Q237.57 823.866 231.76 823.866 Q225.949 823.866 222.871 819.283 Q219.815 814.677 219.815 805.95 Q219.815 797.2 222.871 792.616 Q225.949 788.01 231.76 788.01 Z" fill="#000000" fill-rule="nonzero" fill-opacity="1" /><path clip-path="url(#clip090)" d="M127.2 560.792 Q123.589 560.792 121.76 564.357 Q119.955 567.898 119.955 575.028 Q119.955 582.134 121.76 585.699 Q123.589 589.241 127.2 589.241 Q130.834 589.241 132.64 585.699 Q134.468 582.134 134.468 575.028 Q134.468 567.898 132.64 564.357 Q130.834 560.792 127.2 560.792 M127.2 557.088 Q133.01 557.088 136.066 561.695 Q139.144 566.278 139.144 575.028 Q139.144 583.755 136.066 588.361 Q133.01 592.944 127.2 592.944 Q121.39 592.944 118.311 588.361 Q115.256 583.755 115.256 575.028 Q115.256 566.278 118.311 561.695 Q121.39 557.088 127.2 557.088 Z" fill="#000000" fill-rule="nonzero" fill-opacity="1" /><path clip-path="url(#clip090)" d="M147.362 586.393 L152.246 586.393 L152.246 592.273 L147.362 592.273 L147.362 586.393 Z" fill="#000000" fill-rule="nonzero" fill-opacity="1" /><path clip-path="url(#clip090)" d="M172.431 560.792 Q168.82 560.792 166.991 564.357 Q165.186 567.898 165.186 575.028 Q165.186 582.134 166.991 585.699 Q168.82 589.241 172.431 589.241 Q176.065 589.241 177.871 585.699 Q179.7 582.134 179.7 575.028 Q179.7 567.898 177.871 564.357 Q176.065 560.792 172.431 560.792 M172.431 557.088 Q178.241 557.088 181.297 561.695 Q184.376 566.278 184.376 575.028 Q184.376 583.755 181.297 588.361 Q178.241 592.944 172.431 592.944 Q166.621 592.944 163.542 588.361 Q160.487 583.755 160.487 575.028 Q160.487 566.278 163.542 561.695 Q166.621 557.088 172.431 557.088 Z" fill="#000000" fill-rule="nonzero" fill-opacity="1" /><path clip-path="url(#clip090)" d="M191.413 557.713 L213.635 557.713 L213.635 559.704 L201.088 592.273 L196.204 592.273 L208.01 561.648 L191.413 561.648 L191.413 557.713 Z" fill="#000000" fill-rule="nonzero" fill-opacity="1" /><path clip-path="url(#clip090)" d="M222.801 557.713 L241.158 557.713 L241.158 561.648 L227.084 561.648 L227.084 570.12 Q228.102 569.773 229.121 569.611 Q230.139 569.426 231.158 569.426 Q236.945 569.426 240.324 572.597 Q243.704 575.769 243.704 581.185 Q243.704 586.764 240.232 589.866 Q236.76 592.944 230.44 592.944 Q228.264 592.944 225.996 592.574 Q223.75 592.204 221.343 591.463 L221.343 586.764 Q223.426 587.898 225.648 588.454 Q227.871 589.009 230.347 589.009 Q234.352 589.009 236.69 586.903 Q239.028 584.796 239.028 581.185 Q239.028 577.574 236.69 575.468 Q234.352 573.361 230.347 573.361 Q228.473 573.361 226.598 573.778 Q224.746 574.194 222.801 575.074 L222.801 557.713 Z" fill="#000000" fill-rule="nonzero" fill-opacity="1" /><path clip-path="url(#clip090)" d="M126.205 329.87 Q122.593 329.87 120.765 333.435 Q118.959 336.976 118.959 344.106 Q118.959 351.212 120.765 354.777 Q122.593 358.319 126.205 358.319 Q129.839 358.319 131.644 354.777 Q133.473 351.212 133.473 344.106 Q133.473 336.976 131.644 333.435 Q129.839 329.87 126.205 329.87 M126.205 326.166 Q132.015 326.166 135.07 330.773 Q138.149 335.356 138.149 344.106 Q138.149 352.833 135.07 357.439 Q132.015 362.022 126.205 362.022 Q120.394 362.022 117.316 357.439 Q114.26 352.833 114.26 344.106 Q114.26 335.356 117.316 330.773 Q120.394 326.166 126.205 326.166 Z" fill="#000000" fill-rule="nonzero" fill-opacity="1" /><path clip-path="url(#clip090)" d="M146.366 355.472 L151.251 355.472 L151.251 361.351 L146.366 361.351 L146.366 355.472 Z" fill="#000000" fill-rule="nonzero" fill-opacity="1" /><path clip-path="url(#clip090)" d="M171.436 329.87 Q167.825 329.87 165.996 333.435 Q164.19 336.976 164.19 344.106 Q164.19 351.212 165.996 354.777 Q167.825 358.319 171.436 358.319 Q175.07 358.319 176.876 354.777 Q178.704 351.212 178.704 344.106 Q178.704 336.976 176.876 333.435 Q175.07 329.87 171.436 329.87 M171.436 326.166 Q177.246 326.166 180.301 330.773 Q183.38 335.356 183.38 344.106 Q183.38 352.833 180.301 357.439 Q177.246 362.022 171.436 362.022 Q165.626 362.022 162.547 357.439 Q159.491 352.833 159.491 344.106 Q159.491 335.356 162.547 330.773 Q165.626 326.166 171.436 326.166 Z" fill="#000000" fill-rule="nonzero" fill-opacity="1" /><path clip-path="url(#clip090)" d="M201.598 344.939 Q198.264 344.939 196.343 346.722 Q194.445 348.504 194.445 351.629 Q194.445 354.754 196.343 356.536 Q198.264 358.319 201.598 358.319 Q204.931 358.319 206.852 356.536 Q208.774 354.731 208.774 351.629 Q208.774 348.504 206.852 346.722 Q204.954 344.939 201.598 344.939 M196.922 342.948 Q193.913 342.208 192.223 340.148 Q190.556 338.087 190.556 335.124 Q190.556 330.981 193.496 328.574 Q196.459 326.166 201.598 326.166 Q206.76 326.166 209.699 328.574 Q212.639 330.981 212.639 335.124 Q212.639 338.087 210.949 340.148 Q209.283 342.208 206.297 342.948 Q209.676 343.736 211.551 346.027 Q213.449 348.319 213.449 351.629 Q213.449 356.652 210.371 359.337 Q207.315 362.022 201.598 362.022 Q195.88 362.022 192.801 359.337 Q189.746 356.652 189.746 351.629 Q189.746 348.319 191.644 346.027 Q193.542 343.736 196.922 342.948 M195.209 335.564 Q195.209 338.249 196.875 339.754 Q198.565 341.259 201.598 341.259 Q204.607 341.259 206.297 339.754 Q208.01 338.249 208.01 335.564 Q208.01 332.879 206.297 331.374 Q204.607 329.87 201.598 329.87 Q198.565 329.87 196.875 331.374 Q195.209 332.879 195.209 335.564 Z" fill="#000000" fill-rule="nonzero" fill-opacity="1" /><path clip-path="url(#clip090)" d="M231.76 329.87 Q228.148 329.87 226.32 333.435 Q224.514 336.976 224.514 344.106 Q224.514 351.212 226.32 354.777 Q228.148 358.319 231.76 358.319 Q235.394 358.319 237.199 354.777 Q239.028 351.212 239.028 344.106 Q239.028 336.976 237.199 333.435 Q235.394 329.87 231.76 329.87 M231.76 326.166 Q237.57 326.166 240.625 330.773 Q243.704 335.356 243.704 344.106 Q243.704 352.833 240.625 357.439 Q237.57 362.022 231.76 362.022 Q225.949 362.022 222.871 357.439 Q219.815 352.833 219.815 344.106 Q219.815 335.356 222.871 330.773 Q225.949 326.166 231.76 326.166 Z" fill="#000000" fill-rule="nonzero" fill-opacity="1" /><path clip-path="url(#clip090)" d="M127.2 98.9479 Q123.589 98.9479 121.76 102.513 Q119.955 106.054 119.955 113.184 Q119.955 120.29 121.76 123.855 Q123.589 127.397 127.2 127.397 Q130.834 127.397 132.64 123.855 Q134.468 120.29 134.468 113.184 Q134.468 106.054 132.64 102.513 Q130.834 98.9479 127.2 98.9479 M127.2 95.2442 Q133.01 95.2442 136.066 99.8507 Q139.144 104.434 139.144 113.184 Q139.144 121.911 136.066 126.517 Q133.01 131.101 127.2 131.101 Q121.39 131.101 118.311 126.517 Q115.256 121.911 115.256 113.184 Q115.256 104.434 118.311 99.8507 Q121.39 95.2442 127.2 95.2442 Z" fill="#000000" fill-rule="nonzero" fill-opacity="1" /><path clip-path="url(#clip090)" d="M147.362 124.55 L152.246 124.55 L152.246 130.429 L147.362 130.429 L147.362 124.55 Z" fill="#000000" fill-rule="nonzero" fill-opacity="1" /><path clip-path="url(#clip090)" d="M172.431 98.9479 Q168.82 98.9479 166.991 102.513 Q165.186 106.054 165.186 113.184 Q165.186 120.29 166.991 123.855 Q168.82 127.397 172.431 127.397 Q176.065 127.397 177.871 123.855 Q179.7 120.29 179.7 113.184 Q179.7 106.054 177.871 102.513 Q176.065 98.9479 172.431 98.9479 M172.431 95.2442 Q178.241 95.2442 181.297 99.8507 Q184.376 104.434 184.376 113.184 Q184.376 121.911 181.297 126.517 Q178.241 131.101 172.431 131.101 Q166.621 131.101 163.542 126.517 Q160.487 121.911 160.487 113.184 Q160.487 104.434 163.542 99.8507 Q166.621 95.2442 172.431 95.2442 Z" fill="#000000" fill-rule="nonzero" fill-opacity="1" /><path clip-path="url(#clip090)" d="M202.593 114.017 Q199.26 114.017 197.338 115.8 Q195.44 117.582 195.44 120.707 Q195.44 123.832 197.338 125.614 Q199.26 127.397 202.593 127.397 Q205.926 127.397 207.848 125.614 Q209.769 123.809 209.769 120.707 Q209.769 117.582 207.848 115.8 Q205.949 114.017 202.593 114.017 M197.917 112.027 Q194.908 111.286 193.218 109.226 Q191.551 107.165 191.551 104.203 Q191.551 100.059 194.491 97.6516 Q197.454 95.2442 202.593 95.2442 Q207.755 95.2442 210.695 97.6516 Q213.635 100.059 213.635 104.203 Q213.635 107.165 211.945 109.226 Q210.278 111.286 207.292 112.027 Q210.672 112.814 212.547 115.105 Q214.445 117.397 214.445 120.707 Q214.445 125.73 211.366 128.415 Q208.311 131.101 202.593 131.101 Q196.875 131.101 193.797 128.415 Q190.741 125.73 190.741 120.707 Q190.741 117.397 192.639 115.105 Q194.538 112.814 197.917 112.027 M196.204 104.642 Q196.204 107.327 197.871 108.832 Q199.561 110.337 202.593 110.337 Q205.602 110.337 207.292 108.832 Q209.005 107.327 209.005 104.642 Q209.005 101.957 207.292 100.453 Q205.602 98.9479 202.593 98.9479 Q199.561 98.9479 197.871 100.453 Q196.204 101.957 196.204 104.642 Z" fill="#000000" fill-rule="nonzero" fill-opacity="1" /><path clip-path="url(#clip090)" d="M222.801 95.8692 L241.158 95.8692 L241.158 99.8044 L227.084 99.8044 L227.084 108.277 Q228.102 107.929 229.121 107.767 Q230.139 107.582 231.158 107.582 Q236.945 107.582 240.324 110.753 Q243.704 113.925 243.704 119.341 Q243.704 124.92 240.232 128.022 Q236.76 131.101 230.44 131.101 Q228.264 131.101 225.996 130.73 Q223.75 130.36 221.343 129.619 L221.343 124.92 Q223.426 126.054 225.648 126.61 Q227.871 127.165 230.347 127.165 Q234.352 127.165 236.69 125.059 Q239.028 122.952 239.028 119.341 Q239.028 115.73 236.69 113.624 Q234.352 111.517 230.347 111.517 Q228.473 111.517 226.598 111.934 Q224.746 112.351 222.801 113.23 L222.801 95.8692 Z" fill="#000000" fill-rule="nonzero" fill-opacity="1" /><path clip-path="url(#clip090)" d="M34.7219 748.293 Q31.4754 746.352 28.6108 741.546 Q27.4968 739.668 27.4968 733.875 Q27.4968 727.382 32.6531 723.34 Q37.8093 719.266 46.212 719.266 Q54.6147 719.266 59.771 723.34 Q64.9272 727.382 64.9272 733.875 Q64.9272 737.79 63.3994 740.623 Q61.8398 743.424 58.657 745.27 L77.5631 745.27 L77.5631 751.158 L46.5303 751.158 Q39.1779 751.158 34.7219 748.293 M46.212 725.345 Q39.7508 725.345 36.0905 728.019 Q32.3984 730.66 32.3984 735.307 Q32.3984 739.954 36.0905 742.628 Q39.7508 745.27 46.212 745.27 Q52.6732 745.27 56.3653 742.628 Q60.0256 739.954 60.0256 735.307 Q60.0256 730.66 56.3653 728.019 Q52.6732 725.345 46.212 725.345 Z" fill="#000000" fill-rule="nonzero" fill-opacity="1" /><polyline clip-path="url(#clip092)" style="stroke:#009af9; stroke-linecap:round; stroke-linejoin:round; stroke-width:4; stroke-opacity:1; fill:none" points="338.375,86.1857 405.813,103.301 473.252,165.387 540.69,300.501 608.128,534.437 675.566,853.25 743.005,1176.9 810.443,1384.24 877.881,1384.24 945.319,1176.9 1012.76,853.25 1080.2,534.437 1147.63,300.501 1215.07,165.387 1282.51,103.301 1349.95,86.1857 1417.39,103.301 1484.83,165.387 1552.26,300.501 1619.7,534.437 1687.14,853.25 1754.58,1176.9 1822.02,1384.24 1889.46,1384.24 1956.89,1176.9 2024.33,853.25 2091.77,534.437 2159.21,300.501 2226.65,165.387 2294.08,103.301 "/>
<circle clip-path="url(#clip092)" cx="338.375" cy="86.1857" r="7.2" fill="#009af9" fill-rule="evenodd" fill-opacity="1" stroke="#000000" stroke-opacity="1" stroke-width="3.2"/>
<circle clip-path="url(#clip092)" cx="405.813" cy="103.301" r="7.2" fill="#009af9" fill-rule="evenodd" fill-opacity="1" stroke="#000000" stroke-opacity="1" stroke-width="3.2"/>
<circle clip-path="url(#clip092)" cx="473.252" cy="165.387" r="7.2" fill="#009af9" fill-rule="evenodd" fill-opacity="1" stroke="#000000" stroke-opacity="1" stroke-width="3.2"/>
<circle clip-path="url(#clip092)" cx="540.69" cy="300.501" r="7.2" fill="#009af9" fill-rule="evenodd" fill-opacity="1" stroke="#000000" stroke-opacity="1" stroke-width="3.2"/>
<circle clip-path="url(#clip092)" cx="608.128" cy="534.437" r="7.2" fill="#009af9" fill-rule="evenodd" fill-opacity="1" stroke="#000000" stroke-opacity="1" stroke-width="3.2"/>
<circle clip-path="url(#clip092)" cx="675.566" cy="853.25" r="7.2" fill="#009af9" fill-rule="evenodd" fill-opacity="1" stroke="#000000" stroke-opacity="1" stroke-width="3.2"/>
<circle clip-path="url(#clip092)" cx="743.005" cy="1176.9" r="7.2" fill="#009af9" fill-rule="evenodd" fill-opacity="1" stroke="#000000" stroke-opacity="1" stroke-width="3.2"/>
<circle clip-path="url(#clip092)" cx="810.443" cy="1384.24" r="7.2" fill="#009af9" fill-rule="evenodd" fill-opacity="1" stroke="#000000" stroke-opacity="1" stroke-width="3.2"/>
<circle clip-path="url(#clip092)" cx="877.881" cy="1384.24" r="7.2" fill="#009af9" fill-rule="evenodd" fill-opacity="1" stroke="#000000" stroke-opacity="1" stroke-width="3.2"/>
<circle clip-path="url(#clip092)" cx="945.319" cy="1176.9" r="7.2" fill="#009af9" fill-rule="evenodd" fill-opacity="1" stroke="#000000" stroke-opacity="1" stroke-width="3.2"/>
<circle clip-path="url(#clip092)" cx="1012.76" cy="853.25" r="7.2" fill="#009af9" fill-rule="evenodd" fill-opacity="1" stroke="#000000" stroke-opacity="1" stroke-width="3.2"/>
<circle clip-path="url(#clip092)" cx="1080.2" cy="534.437" r="7.2" fill="#009af9" fill-rule="evenodd" fill-opacity="1" stroke="#000000" stroke-opacity="1" stroke-width="3.2"/>
<circle clip-path="url(#clip092)" cx="1147.63" cy="300.501" r="7.2" fill="#009af9" fill-rule="evenodd" fill-opacity="1" stroke="#000000" stroke-opacity="1" stroke-width="3.2"/>
<circle clip-path="url(#clip092)" cx="1215.07" cy="165.387" r="7.2" fill="#009af9" fill-rule="evenodd" fill-opacity="1" stroke="#000000" stroke-opacity="1" stroke-width="3.2"/>
<circle clip-path="url(#clip092)" cx="1282.51" cy="103.301" r="7.2" fill="#009af9" fill-rule="evenodd" fill-opacity="1" stroke="#000000" stroke-opacity="1" stroke-width="3.2"/>
<circle clip-path="url(#clip092)" cx="1349.95" cy="86.1857" r="7.2" fill="#009af9" fill-rule="evenodd" fill-opacity="1" stroke="#000000" stroke-opacity="1" stroke-width="3.2"/>
<circle clip-path="url(#clip092)" cx="1417.39" cy="103.301" r="7.2" fill="#009af9" fill-rule="evenodd" fill-opacity="1" stroke="#000000" stroke-opacity="1" stroke-width="3.2"/>
<circle clip-path="url(#clip092)" cx="1484.83" cy="165.387" r="7.2" fill="#009af9" fill-rule="evenodd" fill-opacity="1" stroke="#000000" stroke-opacity="1" stroke-width="3.2"/>
<circle clip-path="url(#clip092)" cx="1552.26" cy="300.501" r="7.2" fill="#009af9" fill-rule="evenodd" fill-opacity="1" stroke="#000000" stroke-opacity="1" stroke-width="3.2"/>
<circle clip-path="url(#clip092)" cx="1619.7" cy="534.437" r="7.2" fill="#009af9" fill-rule="evenodd" fill-opacity="1" stroke="#000000" stroke-opacity="1" stroke-width="3.2"/>
<circle clip-path="url(#clip092)" cx="1687.14" cy="853.25" r="7.2" fill="#009af9" fill-rule="evenodd" fill-opacity="1" stroke="#000000" stroke-opacity="1" stroke-width="3.2"/>
<circle clip-path="url(#clip092)" cx="1754.58" cy="1176.9" r="7.2" fill="#009af9" fill-rule="evenodd" fill-opacity="1" stroke="#000000" stroke-opacity="1" stroke-width="3.2"/>
<circle clip-path="url(#clip092)" cx="1822.02" cy="1384.24" r="7.2" fill="#009af9" fill-rule="evenodd" fill-opacity="1" stroke="#000000" stroke-opacity="1" stroke-width="3.2"/>
<circle clip-path="url(#clip092)" cx="1889.46" cy="1384.24" r="7.2" fill="#009af9" fill-rule="evenodd" fill-opacity="1" stroke="#000000" stroke-opacity="1" stroke-width="3.2"/>
<circle clip-path="url(#clip092)" cx="1956.89" cy="1176.9" r="7.2" fill="#009af9" fill-rule="evenodd" fill-opacity="1" stroke="#000000" stroke-opacity="1" stroke-width="3.2"/>
<circle clip-path="url(#clip092)" cx="2024.33" cy="853.25" r="7.2" fill="#009af9" fill-rule="evenodd" fill-opacity="1" stroke="#000000" stroke-opacity="1" stroke-width="3.2"/>
<circle clip-path="url(#clip092)" cx="2091.77" cy="534.437" r="7.2" fill="#009af9" fill-rule="evenodd" fill-opacity="1" stroke="#000000" stroke-opacity="1" stroke-width="3.2"/>
<circle clip-path="url(#clip092)" cx="2159.21" cy="300.501" r="7.2" fill="#009af9" fill-rule="evenodd" fill-opacity="1" stroke="#000000" stroke-opacity="1" stroke-width="3.2"/>
<circle clip-path="url(#clip092)" cx="2226.65" cy="165.387" r="7.2" fill="#009af9" fill-rule="evenodd" fill-opacity="1" stroke="#000000" stroke-opacity="1" stroke-width="3.2"/>
<circle clip-path="url(#clip092)" cx="2294.08" cy="103.301" r="7.2" fill="#009af9" fill-rule="evenodd" fill-opacity="1" stroke="#000000" stroke-opacity="1" stroke-width="3.2"/>
</svg>
