<?xml version="1.0" encoding="utf-8"?>
<svg xmlns="http://www.w3.org/2000/svg" xmlns:xlink="http://www.w3.org/1999/xlink" width="600" height="400" viewBox="0 0 2400 1600">
<defs>
  <clipPath id="clip530">
    <rect x="0" y="0" width="2400" height="1600"/>
  </clipPath>
</defs>
<path clip-path="url(#clip530)" d="M0 1600 L2400 1600 L2400 0 L0 0  Z" fill="#ffffff" fill-rule="evenodd" fill-opacity="1"/>
<defs>
  <clipPath id="clip531">
    <rect x="480" y="0" width="1681" height="1600"/>
  </clipPath>
</defs>
<path clip-path="url(#clip530)" d="M169.121 1423.18 L2352.76 1423.18 L2352.76 47.2441 L169.121 47.2441  Z" fill="#ffffff" fill-rule="evenodd" fill-opacity="1"/>
<defs>
  <clipPath id="clip532">
    <rect x="169" y="47" width="2185" height="1377"/>
  </clipPath>
</defs>
<polyline clip-path="url(#clip532)" style="stroke:#000000; stroke-linecap:round; stroke-linejoin:round; stroke-width:2; stroke-opacity:0.1; fill:none" points="209.882,1423.18 209.882,47.2441 "/>
<polyline clip-path="url(#clip532)" style="stroke:#000000; stroke-linecap:round; stroke-linejoin:round; stroke-width:2; stroke-opacity:0.1; fill:none" points="560.234,1423.18 560.234,47.2441 "/>
<polyline clip-path="url(#clip532)" style="stroke:#000000; stroke-linecap:round; stroke-linejoin:round; stroke-width:2; stroke-opacity:0.1; fill:none" points="910.586,1423.18 910.586,47.2441 "/>
<polyline clip-path="url(#clip532)" style="stroke:#000000; stroke-linecap:round; stroke-linejoin:round; stroke-width:2; stroke-opacity:0.1; fill:none" points="1260.94,1423.18 1260.94,47.2441 "/>
<polyline clip-path="url(#clip532)" style="stroke:#000000; stroke-linecap:round; stroke-linejoin:round; stroke-width:2; stroke-opacity:0.1; fill:none" points="1611.29,1423.18 1611.29,47.2441 "/>
<polyline clip-path="url(#clip532)" style="stroke:#000000; stroke-linecap:round; stroke-linejoin:round; stroke-width:2; stroke-opacity:0.1; fill:none" points="1961.64,1423.18 1961.64,47.2441 "/>
<polyline clip-path="url(#clip532)" style="stroke:#000000; stroke-linecap:round; stroke-linejoin:round; stroke-width:2; stroke-opacity:0.1; fill:none" points="2312,1423.18 2312,47.2441 "/>
<polyline clip-path="url(#clip530)" style="stroke:#000000; stroke-linecap:round; stroke-linejoin:round; stroke-width:4; stroke-opacity:1; fill:none" points="169.121,1423.18 2352.76,1423.18 "/>
<polyline clip-path="url(#clip530)" style="stroke:#000000; stroke-linecap:round; stroke-linejoin:round; stroke-width:4; stroke-opacity:1; fill:none" points="209.882,1423.18 209.882,1404.28 "/>
<polyline clip-path="url(#clip530)" style="stroke:#000000; stroke-linecap:round; stroke-linejoin:round; stroke-width:4; stroke-opacity:1; fill:none" points="560.234,1423.18 560.234,1404.28 "/>
<polyline clip-path="url(#clip530)" style="stroke:#000000; stroke-linecap:round; stroke-linejoin:round; stroke-width:4; stroke-opacity:1; fill:none" points="910.586,1423.18 910.586,1404.28 "/>
<polyline clip-path="url(#clip530)" style="stroke:#000000; stroke-linecap:round; stroke-linejoin:round; stroke-width:4; stroke-opacity:1; fill:none" points="1260.94,1423.18 1260.94,1404.28 "/>
<polyline clip-path="url(#clip530)" style="stroke:#000000; stroke-linecap:round; stroke-linejoin:round; stroke-width:4; stroke-opacity:1; fill:none" points="1611.29,1423.18 1611.29,1404.28 "/>
<polyline clip-path="url(#clip530)" style="stroke:#000000; stroke-linecap:round; stroke-linejoin:round; stroke-width:4; stroke-opacity:1; fill:none" points="1961.64,1423.18 1961.64,1404.28 "/>
<polyline clip-path="url(#clip530)" style="stroke:#000000; stroke-linecap:round; stroke-linejoin:round; stroke-width:4; stroke-opacity:1; fill:none" points="2312,1423.18 2312,1404.28 "/>
<path clip-path="url(#clip530)" d="M141.827 1468.75 L171.503 1468.75 L171.503 1472.69 L141.827 1472.69 L141.827 1468.75 Z" fill="#000000" fill-rule="nonzero" fill-opacity="1" /><path clip-path="url(#clip530)" d="M191.595 1454.1 Q187.984 1454.1 186.155 1457.66 Q184.35 1461.2 184.35 1468.33 Q184.35 1475.44 186.155 1479.01 Q187.984 1482.55 191.595 1482.55 Q195.229 1482.55 197.035 1479.01 Q198.864 1475.44 198.864 1468.33 Q198.864 1461.2 197.035 1457.66 Q195.229 1454.1 191.595 1454.1 M191.595 1450.39 Q197.405 1450.39 200.461 1455 Q203.54 1459.58 203.54 1468.33 Q203.54 1477.06 200.461 1481.67 Q197.405 1486.25 191.595 1486.25 Q185.785 1486.25 182.706 1481.67 Q179.651 1477.06 179.651 1468.33 Q179.651 1459.58 182.706 1455 Q185.785 1450.39 191.595 1450.39 Z" fill="#000000" fill-rule="nonzero" fill-opacity="1" /><path clip-path="url(#clip530)" d="M211.757 1479.7 L216.641 1479.7 L216.641 1485.58 L211.757 1485.58 L211.757 1479.7 Z" fill="#000000" fill-rule="nonzero" fill-opacity="1" /><path clip-path="url(#clip530)" d="M227.637 1481.64 L235.276 1481.64 L235.276 1455.28 L226.965 1456.95 L226.965 1452.69 L235.229 1451.02 L239.905 1451.02 L239.905 1481.64 L247.544 1481.64 L247.544 1485.58 L227.637 1485.58 L227.637 1481.64 Z" fill="#000000" fill-rule="nonzero" fill-opacity="1" /><path clip-path="url(#clip530)" d="M257.035 1451.02 L275.391 1451.02 L275.391 1454.96 L261.317 1454.96 L261.317 1463.43 Q262.336 1463.08 263.354 1462.92 Q264.373 1462.73 265.391 1462.73 Q271.178 1462.73 274.558 1465.9 Q277.937 1469.08 277.937 1474.49 Q277.937 1480.07 274.465 1483.17 Q270.993 1486.25 264.674 1486.25 Q262.498 1486.25 260.229 1485.88 Q257.984 1485.51 255.576 1484.77 L255.576 1480.07 Q257.66 1481.2 259.882 1481.76 Q262.104 1482.32 264.581 1482.32 Q268.586 1482.32 270.924 1480.21 Q273.261 1478.1 273.261 1474.49 Q273.261 1470.88 270.924 1468.77 Q268.586 1466.67 264.581 1466.67 Q262.706 1466.67 260.831 1467.08 Q258.979 1467.5 257.035 1468.38 L257.035 1451.02 Z" fill="#000000" fill-rule="nonzero" fill-opacity="1" /><path clip-path="url(#clip530)" d="M491.681 1468.75 L521.357 1468.75 L521.357 1472.69 L491.681 1472.69 L491.681 1468.75 Z" fill="#000000" fill-rule="nonzero" fill-opacity="1" /><path clip-path="url(#clip530)" d="M541.45 1454.1 Q537.839 1454.1 536.01 1457.66 Q534.204 1461.2 534.204 1468.33 Q534.204 1475.44 536.01 1479.01 Q537.839 1482.55 541.45 1482.55 Q545.084 1482.55 546.889 1479.01 Q548.718 1475.44 548.718 1468.33 Q548.718 1461.2 546.889 1457.66 Q545.084 1454.1 541.45 1454.1 M541.45 1450.39 Q547.26 1450.39 550.315 1455 Q553.394 1459.58 553.394 1468.33 Q553.394 1477.06 550.315 1481.67 Q547.26 1486.25 541.45 1486.25 Q535.64 1486.25 532.561 1481.67 Q529.505 1477.06 529.505 1468.33 Q529.505 1459.58 532.561 1455 Q535.64 1450.39 541.45 1450.39 Z" fill="#000000" fill-rule="nonzero" fill-opacity="1" /><path clip-path="url(#clip530)" d="M561.612 1479.7 L566.496 1479.7 L566.496 1485.58 L561.612 1485.58 L561.612 1479.7 Z" fill="#000000" fill-rule="nonzero" fill-opacity="1" /><path clip-path="url(#clip530)" d="M577.491 1481.64 L585.13 1481.64 L585.13 1455.28 L576.82 1456.95 L576.82 1452.69 L585.084 1451.02 L589.76 1451.02 L589.76 1481.64 L597.398 1481.64 L597.398 1485.58 L577.491 1485.58 L577.491 1481.64 Z" fill="#000000" fill-rule="nonzero" fill-opacity="1" /><path clip-path="url(#clip530)" d="M616.843 1454.1 Q613.232 1454.1 611.403 1457.66 Q609.597 1461.2 609.597 1468.33 Q609.597 1475.44 611.403 1479.01 Q613.232 1482.55 616.843 1482.55 Q620.477 1482.55 622.283 1479.01 Q624.111 1475.44 624.111 1468.33 Q624.111 1461.2 622.283 1457.66 Q620.477 1454.1 616.843 1454.1 M616.843 1450.39 Q622.653 1450.39 625.709 1455 Q628.787 1459.58 628.787 1468.33 Q628.787 1477.06 625.709 1481.67 Q622.653 1486.25 616.843 1486.25 Q611.033 1486.25 607.954 1481.67 Q604.898 1477.06 604.898 1468.33 Q604.898 1459.58 607.954 1455 Q611.033 1450.39 616.843 1450.39 Z" fill="#000000" fill-rule="nonzero" fill-opacity="1" /><path clip-path="url(#clip530)" d="M842.531 1468.75 L872.207 1468.75 L872.207 1472.69 L842.531 1472.69 L842.531 1468.75 Z" fill="#000000" fill-rule="nonzero" fill-opacity="1" /><path clip-path="url(#clip530)" d="M892.3 1454.1 Q888.688 1454.1 886.86 1457.66 Q885.054 1461.2 885.054 1468.33 Q885.054 1475.44 886.86 1479.01 Q888.688 1482.55 892.3 1482.55 Q895.934 1482.55 897.739 1479.01 Q899.568 1475.44 899.568 1468.33 Q899.568 1461.2 897.739 1457.66 Q895.934 1454.1 892.3 1454.1 M892.3 1450.39 Q898.11 1450.39 901.165 1455 Q904.244 1459.58 904.244 1468.33 Q904.244 1477.06 901.165 1481.67 Q898.11 1486.25 892.3 1486.25 Q886.489 1486.25 883.411 1481.67 Q880.355 1477.06 880.355 1468.33 Q880.355 1459.58 883.411 1455 Q886.489 1450.39 892.3 1450.39 Z" fill="#000000" fill-rule="nonzero" fill-opacity="1" /><path clip-path="url(#clip530)" d="M912.461 1479.7 L917.346 1479.7 L917.346 1485.58 L912.461 1485.58 L912.461 1479.7 Z" fill="#000000" fill-rule="nonzero" fill-opacity="1" /><path clip-path="url(#clip530)" d="M937.531 1454.1 Q933.92 1454.1 932.091 1457.66 Q930.285 1461.2 930.285 1468.33 Q930.285 1475.44 932.091 1479.01 Q933.92 1482.55 937.531 1482.55 Q941.165 1482.55 942.971 1479.01 Q944.799 1475.44 944.799 1468.33 Q944.799 1461.2 942.971 1457.66 Q941.165 1454.1 937.531 1454.1 M937.531 1450.39 Q943.341 1450.39 946.396 1455 Q949.475 1459.58 949.475 1468.33 Q949.475 1477.06 946.396 1481.67 Q943.341 1486.25 937.531 1486.25 Q931.721 1486.25 928.642 1481.67 Q925.586 1477.06 925.586 1468.33 Q925.586 1459.58 928.642 1455 Q931.721 1450.39 937.531 1450.39 Z" fill="#000000" fill-rule="nonzero" fill-opacity="1" /><path clip-path="url(#clip530)" d="M957.739 1451.02 L976.095 1451.02 L976.095 1454.96 L962.021 1454.96 L962.021 1463.43 Q963.04 1463.08 964.058 1462.92 Q965.077 1462.73 966.095 1462.73 Q971.882 1462.73 975.262 1465.9 Q978.642 1469.08 978.642 1474.49 Q978.642 1480.07 975.169 1483.17 Q971.697 1486.25 965.378 1486.25 Q963.202 1486.25 960.933 1485.88 Q958.688 1485.51 956.281 1484.77 L956.281 1480.07 Q958.364 1481.2 960.586 1481.76 Q962.808 1482.32 965.285 1482.32 Q969.29 1482.32 971.628 1480.21 Q973.966 1478.1 973.966 1474.49 Q973.966 1470.88 971.628 1468.77 Q969.29 1466.67 965.285 1466.67 Q963.41 1466.67 961.535 1467.08 Q959.683 1467.5 957.739 1468.38 L957.739 1451.02 Z" fill="#000000" fill-rule="nonzero" fill-opacity="1" /><path clip-path="url(#clip530)" d="M1223.24 1454.1 Q1219.63 1454.1 1217.8 1457.66 Q1216 1461.2 1216 1468.33 Q1216 1475.44 1217.8 1479.01 Q1219.63 1482.55 1223.24 1482.55 Q1226.88 1482.55 1228.68 1479.01 Q1230.51 1475.44 1230.51 1468.33 Q1230.51 1461.2 1228.68 1457.66 Q1226.88 1454.1 1223.24 1454.1 M1223.24 1450.39 Q1229.05 1450.39 1232.11 1455 Q1235.19 1459.58 1235.19 1468.33 Q1235.19 1477.06 1232.11 1481.67 Q1229.05 1486.25 1223.24 1486.25 Q1217.43 1486.25 1214.35 1481.67 Q1211.3 1477.06 1211.3 1468.33 Q1211.3 1459.58 1214.35 1455 Q1217.43 1450.39 1223.24 1450.39 Z" fill="#000000" fill-rule="nonzero" fill-opacity="1" /><path clip-path="url(#clip530)" d="M1243.4 1479.7 L1248.29 1479.7 L1248.29 1485.58 L1243.4 1485.58 L1243.4 1479.7 Z" fill="#000000" fill-rule="nonzero" fill-opacity="1" /><path clip-path="url(#clip530)" d="M1268.47 1454.1 Q1264.86 1454.1 1263.03 1457.66 Q1261.23 1461.2 1261.23 1468.33 Q1261.23 1475.44 1263.03 1479.01 Q1264.86 1482.55 1268.47 1482.55 Q1272.11 1482.55 1273.91 1479.01 Q1275.74 1475.44 1275.74 1468.33 Q1275.74 1461.2 1273.91 1457.66 Q1272.11 1454.1 1268.47 1454.1 M1268.47 1450.39 Q1274.28 1450.39 1277.34 1455 Q1280.42 1459.58 1280.42 1468.33 Q1280.42 1477.06 1277.34 1481.67 Q1274.28 1486.25 1268.47 1486.25 Q1262.66 1486.25 1259.58 1481.67 Q1256.53 1477.06 1256.53 1468.33 Q1256.53 1459.58 1259.58 1455 Q1262.66 1450.39 1268.47 1450.39 Z" fill="#000000" fill-rule="nonzero" fill-opacity="1" /><path clip-path="url(#clip530)" d="M1298.64 1454.1 Q1295.02 1454.1 1293.2 1457.66 Q1291.39 1461.2 1291.39 1468.33 Q1291.39 1475.44 1293.2 1479.01 Q1295.02 1482.55 1298.64 1482.55 Q1302.27 1482.55 1304.07 1479.01 Q1305.9 1475.44 1305.9 1468.33 Q1305.9 1461.2 1304.07 1457.66 Q1302.27 1454.1 1298.64 1454.1 M1298.64 1450.39 Q1304.45 1450.39 1307.5 1455 Q1310.58 1459.58 1310.58 1468.33 Q1310.58 1477.06 1307.5 1481.67 Q1304.45 1486.25 1298.64 1486.25 Q1292.83 1486.25 1289.75 1481.67 Q1286.69 1477.06 1286.69 1468.33 Q1286.69 1459.58 1289.75 1455 Q1292.83 1450.39 1298.64 1450.39 Z" fill="#000000" fill-rule="nonzero" fill-opacity="1" /><path clip-path="url(#clip530)" d="M1574.09 1454.1 Q1570.48 1454.1 1568.65 1457.66 Q1566.85 1461.2 1566.85 1468.33 Q1566.85 1475.44 1568.65 1479.01 Q1570.48 1482.55 1574.09 1482.55 Q1577.73 1482.55 1579.53 1479.01 Q1581.36 1475.44 1581.36 1468.33 Q1581.36 1461.2 1579.53 1457.66 Q1577.73 1454.1 1574.09 1454.1 M1574.09 1450.39 Q1579.9 1450.39 1582.96 1455 Q1586.04 1459.58 1586.04 1468.33 Q1586.04 1477.06 1582.96 1481.67 Q1579.9 1486.25 1574.09 1486.25 Q1568.28 1486.25 1565.2 1481.67 Q1562.15 1477.06 1562.15 1468.33 Q1562.15 1459.58 1565.2 1455 Q1568.28 1450.39 1574.09 1450.39 Z" fill="#000000" fill-rule="nonzero" fill-opacity="1" /><path clip-path="url(#clip530)" d="M1594.25 1479.7 L1599.14 1479.7 L1599.14 1485.58 L1594.25 1485.58 L1594.25 1479.7 Z" fill="#000000" fill-rule="nonzero" fill-opacity="1" /><path clip-path="url(#clip530)" d="M1619.32 1454.1 Q1615.71 1454.1 1613.88 1457.66 Q1612.08 1461.2 1612.08 1468.33 Q1612.08 1475.44 1613.88 1479.01 Q1615.71 1482.55 1619.32 1482.55 Q1622.96 1482.55 1624.76 1479.01 Q1626.59 1475.44 1626.59 1468.33 Q1626.59 1461.2 1624.76 1457.66 Q1622.96 1454.1 1619.32 1454.1 M1619.32 1450.39 Q1625.13 1450.39 1628.19 1455 Q1631.27 1459.58 1631.27 1468.33 Q1631.27 1477.06 1628.19 1481.67 Q1625.13 1486.25 1619.32 1486.25 Q1613.51 1486.25 1610.43 1481.67 Q1607.38 1477.06 1607.38 1468.33 Q1607.38 1459.58 1610.43 1455 Q1613.51 1450.39 1619.32 1450.39 Z" fill="#000000" fill-rule="nonzero" fill-opacity="1" /><path clip-path="url(#clip530)" d="M1639.53 1451.02 L1657.89 1451.02 L1657.89 1454.96 L1643.81 1454.96 L1643.81 1463.43 Q1644.83 1463.08 1645.85 1462.92 Q1646.87 1462.73 1647.89 1462.73 Q1653.67 1462.73 1657.05 1465.9 Q1660.43 1469.08 1660.43 1474.49 Q1660.43 1480.07 1656.96 1483.17 Q1653.49 1486.25 1647.17 1486.25 Q1644.99 1486.25 1642.73 1485.88 Q1640.48 1485.51 1638.07 1484.77 L1638.07 1480.07 Q1640.16 1481.2 1642.38 1481.76 Q1644.6 1482.32 1647.08 1482.32 Q1651.08 1482.32 1653.42 1480.21 Q1655.76 1478.1 1655.76 1474.49 Q1655.76 1470.88 1653.42 1468.77 Q1651.08 1466.67 1647.08 1466.67 Q1645.2 1466.67 1643.33 1467.08 Q1641.48 1467.5 1639.53 1468.38 L1639.53 1451.02 Z" fill="#000000" fill-rule="nonzero" fill-opacity="1" /><path clip-path="url(#clip530)" d="M1923.95 1454.1 Q1920.34 1454.1 1918.51 1457.66 Q1916.7 1461.2 1916.7 1468.33 Q1916.7 1475.44 1918.51 1479.01 Q1920.34 1482.55 1923.95 1482.55 Q1927.58 1482.55 1929.39 1479.01 Q1931.21 1475.44 1931.21 1468.33 Q1931.21 1461.2 1929.39 1457.66 Q1927.58 1454.1 1923.95 1454.1 M1923.95 1450.39 Q1929.76 1450.39 1932.81 1455 Q1935.89 1459.58 1935.89 1468.33 Q1935.89 1477.06 1932.81 1481.67 Q1929.76 1486.25 1923.95 1486.25 Q1918.14 1486.25 1915.06 1481.67 Q1912 1477.06 1912 1468.33 Q1912 1459.58 1915.06 1455 Q1918.14 1450.39 1923.95 1450.39 Z" fill="#000000" fill-rule="nonzero" fill-opacity="1" /><path clip-path="url(#clip530)" d="M1944.11 1479.7 L1948.99 1479.7 L1948.99 1485.58 L1944.11 1485.58 L1944.11 1479.7 Z" fill="#000000" fill-rule="nonzero" fill-opacity="1" /><path clip-path="url(#clip530)" d="M1959.99 1481.64 L1967.63 1481.64 L1967.63 1455.28 L1959.32 1456.95 L1959.32 1452.69 L1967.58 1451.02 L1972.26 1451.02 L1972.26 1481.64 L1979.9 1481.64 L1979.9 1485.58 L1959.99 1485.58 L1959.99 1481.64 Z" fill="#000000" fill-rule="nonzero" fill-opacity="1" /><path clip-path="url(#clip530)" d="M1999.34 1454.1 Q1995.73 1454.1 1993.9 1457.66 Q1992.09 1461.2 1992.09 1468.33 Q1992.09 1475.44 1993.9 1479.01 Q1995.73 1482.55 1999.34 1482.55 Q2002.97 1482.55 2004.78 1479.01 Q2006.61 1475.44 2006.61 1468.33 Q2006.61 1461.2 2004.78 1457.66 Q2002.97 1454.1 1999.34 1454.1 M1999.34 1450.39 Q2005.15 1450.39 2008.21 1455 Q2011.28 1459.58 2011.28 1468.33 Q2011.28 1477.06 2008.21 1481.67 Q2005.15 1486.25 1999.34 1486.25 Q1993.53 1486.25 1990.45 1481.67 Q1987.4 1477.06 1987.4 1468.33 Q1987.4 1459.58 1990.45 1455 Q1993.53 1450.39 1999.34 1450.39 Z" fill="#000000" fill-rule="nonzero" fill-opacity="1" /><path clip-path="url(#clip530)" d="M2274.8 1454.1 Q2271.19 1454.1 2269.36 1457.66 Q2267.55 1461.2 2267.55 1468.33 Q2267.55 1475.44 2269.36 1479.01 Q2271.19 1482.55 2274.8 1482.55 Q2278.43 1482.55 2280.24 1479.01 Q2282.06 1475.44 2282.06 1468.33 Q2282.06 1461.2 2280.24 1457.66 Q2278.43 1454.1 2274.8 1454.1 M2274.8 1450.39 Q2280.61 1450.39 2283.66 1455 Q2286.74 1459.58 2286.74 1468.33 Q2286.74 1477.06 2283.66 1481.67 Q2280.61 1486.25 2274.8 1486.25 Q2268.99 1486.25 2265.91 1481.67 Q2262.85 1477.06 2262.85 1468.33 Q2262.85 1459.58 2265.91 1455 Q2268.99 1450.39 2274.8 1450.39 Z" fill="#000000" fill-rule="nonzero" fill-opacity="1" /><path clip-path="url(#clip530)" d="M2294.96 1479.7 L2299.84 1479.7 L2299.84 1485.58 L2294.96 1485.58 L2294.96 1479.7 Z" fill="#000000" fill-rule="nonzero" fill-opacity="1" /><path clip-path="url(#clip530)" d="M2310.84 1481.64 L2318.48 1481.64 L2318.48 1455.28 L2310.17 1456.95 L2310.17 1452.69 L2318.43 1451.02 L2323.11 1451.02 L2323.11 1481.64 L2330.74 1481.64 L2330.74 1485.58 L2310.84 1485.58 L2310.84 1481.64 Z" fill="#000000" fill-rule="nonzero" fill-opacity="1" /><path clip-path="url(#clip530)" d="M2340.24 1451.02 L2358.59 1451.02 L2358.59 1454.96 L2344.52 1454.96 L2344.52 1463.43 Q2345.54 1463.08 2346.56 1462.92 Q2347.57 1462.73 2348.59 1462.73 Q2354.38 1462.73 2357.76 1465.9 Q2361.14 1469.08 2361.14 1474.49 Q2361.14 1480.07 2357.67 1483.17 Q2354.19 1486.25 2347.87 1486.25 Q2345.7 1486.25 2343.43 1485.88 Q2341.18 1485.51 2338.78 1484.77 L2338.78 1480.07 Q2340.86 1481.2 2343.08 1481.76 Q2345.31 1482.32 2347.78 1482.32 Q2351.79 1482.32 2354.12 1480.21 Q2356.46 1478.1 2356.46 1474.49 Q2356.46 1470.88 2354.12 1468.77 Q2351.79 1466.67 2347.78 1466.67 Q2345.91 1466.67 2344.03 1467.08 Q2342.18 1467.5 2340.24 1468.38 L2340.24 1451.02 Z" fill="#000000" fill-rule="nonzero" fill-opacity="1" /><path clip-path="url(#clip530)" d="M947.364 1548.76 L947.364 1551.62 L920.437 1551.62 Q920.819 1557.67 924.065 1560.85 Q927.344 1564 933.168 1564 Q936.542 1564 939.693 1563.17 Q942.876 1562.35 945.995 1560.69 L945.995 1566.23 Q942.844 1567.57 939.534 1568.27 Q936.224 1568.97 932.818 1568.97 Q924.288 1568.97 919.291 1564 Q914.326 1559.04 914.326 1550.57 Q914.326 1541.82 919.037 1536.69 Q923.779 1531.54 931.8 1531.54 Q938.993 1531.54 943.163 1536.18 Q947.364 1540.8 947.364 1548.76 M941.507 1547.04 Q941.444 1542.23 938.802 1539.37 Q936.192 1536.5 931.863 1536.5 Q926.962 1536.5 924.002 1539.27 Q921.074 1542.04 920.628 1547.07 L941.507 1547.04 Z" fill="#000000" fill-rule="nonzero" fill-opacity="1" /><path clip-path="url(#clip530)" d="M956.976 1532.4 L962.833 1532.4 L962.833 1568.04 L956.976 1568.04 L956.976 1532.4 M956.976 1518.52 L962.833 1518.52 L962.833 1525.93 L956.976 1525.93 L956.976 1518.52 Z" fill="#000000" fill-rule="nonzero" fill-opacity="1" /><path clip-path="url(#clip530)" d="M998.544 1549.81 Q998.544 1543.44 995.902 1539.94 Q993.292 1536.44 988.55 1536.44 Q983.839 1536.44 981.198 1539.94 Q978.588 1543.44 978.588 1549.81 Q978.588 1556.14 981.198 1559.64 Q983.839 1563.14 988.55 1563.14 Q993.292 1563.14 995.902 1559.64 Q998.544 1556.14 998.544 1549.81 M1004.4 1563.62 Q1004.4 1572.72 1000.36 1577.15 Q996.316 1581.6 987.977 1581.6 Q984.89 1581.6 982.152 1581.13 Q979.415 1580.68 976.837 1579.72 L976.837 1574.03 Q979.415 1575.43 981.93 1576.1 Q984.444 1576.76 987.054 1576.76 Q992.815 1576.76 995.68 1573.74 Q998.544 1570.75 998.544 1564.67 L998.544 1561.77 Q996.73 1564.92 993.897 1566.48 Q991.064 1568.04 987.118 1568.04 Q980.561 1568.04 976.551 1563.05 Q972.54 1558.05 972.54 1549.81 Q972.54 1541.53 976.551 1536.53 Q980.561 1531.54 987.118 1531.54 Q991.064 1531.54 993.897 1533.1 Q996.73 1534.66 998.544 1537.81 L998.544 1532.4 L1004.4 1532.4 L1004.4 1563.62 Z" fill="#000000" fill-rule="nonzero" fill-opacity="1" /><path clip-path="url(#clip530)" d="M1046.96 1548.76 L1046.96 1551.62 L1020.03 1551.62 Q1020.41 1557.67 1023.66 1560.85 Q1026.94 1564 1032.76 1564 Q1036.13 1564 1039.28 1563.17 Q1042.47 1562.35 1045.59 1560.69 L1045.59 1566.23 Q1042.44 1567.57 1039.13 1568.27 Q1035.82 1568.97 1032.41 1568.97 Q1023.88 1568.97 1018.88 1564 Q1013.92 1559.04 1013.92 1550.57 Q1013.92 1541.82 1018.63 1536.69 Q1023.37 1531.54 1031.39 1531.54 Q1038.58 1531.54 1042.75 1536.18 Q1046.96 1540.8 1046.96 1548.76 M1041.1 1547.04 Q1041.04 1542.23 1038.39 1539.37 Q1035.78 1536.5 1031.45 1536.5 Q1026.55 1536.5 1023.59 1539.27 Q1020.67 1542.04 1020.22 1547.07 L1041.1 1547.04 Z" fill="#000000" fill-rule="nonzero" fill-opacity="1" /><path clip-path="url(#clip530)" d="M1086.2 1546.53 L1086.2 1568.04 L1080.34 1568.04 L1080.34 1546.72 Q1080.34 1541.66 1078.37 1539.14 Q1076.4 1536.63 1072.45 1536.63 Q1067.71 1536.63 1064.97 1539.65 Q1062.23 1542.68 1062.23 1547.9 L1062.23 1568.04 L1056.34 1568.04 L1056.34 1532.4 L1062.23 1532.4 L1062.23 1537.93 Q1064.33 1534.72 1067.17 1533.13 Q1070.03 1531.54 1073.76 1531.54 Q1079.9 1531.54 1083.05 1535.36 Q1086.2 1539.14 1086.2 1546.53 Z" fill="#000000" fill-rule="nonzero" fill-opacity="1" /><path clip-path="url(#clip530)" d="M1093.68 1532.4 L1099.89 1532.4 L1111.03 1562.31 L1122.17 1532.4 L1128.37 1532.4 L1115 1568.04 L1107.05 1568.04 L1093.68 1532.4 Z" fill="#000000" fill-rule="nonzero" fill-opacity="1" /><path clip-path="url(#clip530)" d="M1152.66 1550.12 Q1145.56 1550.12 1142.82 1551.75 Q1140.09 1553.37 1140.09 1557.29 Q1140.09 1560.4 1142.12 1562.25 Q1144.19 1564.07 1147.72 1564.07 Q1152.59 1564.07 1155.52 1560.63 Q1158.48 1557.16 1158.48 1551.43 L1158.48 1550.12 L1152.66 1550.12 M1164.34 1547.71 L1164.34 1568.04 L1158.48 1568.04 L1158.48 1562.63 Q1156.48 1565.88 1153.49 1567.44 Q1150.49 1568.97 1146.16 1568.97 Q1140.69 1568.97 1137.44 1565.91 Q1134.23 1562.82 1134.23 1557.67 Q1134.23 1551.65 1138.24 1548.6 Q1142.28 1545.54 1150.27 1545.54 L1158.48 1545.54 L1158.48 1544.97 Q1158.48 1540.93 1155.81 1538.73 Q1153.17 1536.5 1148.36 1536.5 Q1145.31 1536.5 1142.41 1537.23 Q1139.51 1537.97 1136.84 1539.43 L1136.84 1534.02 Q1140.05 1532.78 1143.08 1532.17 Q1146.1 1531.54 1148.97 1531.54 Q1156.7 1531.54 1160.52 1535.55 Q1164.34 1539.56 1164.34 1547.71 Z" fill="#000000" fill-rule="nonzero" fill-opacity="1" /><path clip-path="url(#clip530)" d="M1176.4 1518.52 L1182.26 1518.52 L1182.26 1568.04 L1176.4 1568.04 L1176.4 1518.52 Z" fill="#000000" fill-rule="nonzero" fill-opacity="1" /><path clip-path="url(#clip530)" d="M1193.91 1553.98 L1193.91 1532.4 L1199.76 1532.4 L1199.76 1553.75 Q1199.76 1558.81 1201.74 1561.36 Q1203.71 1563.87 1207.66 1563.87 Q1212.4 1563.87 1215.14 1560.85 Q1217.91 1557.83 1217.91 1552.61 L1217.91 1532.4 L1223.76 1532.4 L1223.76 1568.04 L1217.91 1568.04 L1217.91 1562.57 Q1215.77 1565.82 1212.94 1567.41 Q1210.14 1568.97 1206.42 1568.97 Q1200.27 1568.97 1197.09 1565.15 Q1193.91 1561.33 1193.91 1553.98 M1208.64 1531.54 L1208.64 1531.54 Z" fill="#000000" fill-rule="nonzero" fill-opacity="1" /><path clip-path="url(#clip530)" d="M1266.32 1548.76 L1266.32 1551.62 L1239.39 1551.62 Q1239.77 1557.67 1243.02 1560.85 Q1246.3 1564 1252.12 1564 Q1255.5 1564 1258.65 1563.17 Q1261.83 1562.35 1264.95 1560.69 L1264.95 1566.23 Q1261.8 1567.57 1258.49 1568.27 Q1255.18 1568.97 1251.77 1568.97 Q1243.24 1568.97 1238.24 1564 Q1233.28 1559.04 1233.28 1550.57 Q1233.28 1541.82 1237.99 1536.69 Q1242.73 1531.54 1250.75 1531.54 Q1257.95 1531.54 1262.12 1536.18 Q1266.32 1540.8 1266.32 1548.76 M1260.46 1547.04 Q1260.4 1542.23 1257.76 1539.37 Q1255.15 1536.5 1250.82 1536.5 Q1245.92 1536.5 1242.96 1539.27 Q1240.03 1542.04 1239.58 1547.07 L1260.46 1547.04 Z" fill="#000000" fill-rule="nonzero" fill-opacity="1" /><path clip-path="url(#clip530)" d="M1298.66 1533.45 L1298.66 1538.98 Q1296.17 1537.71 1293.5 1537.07 Q1290.83 1536.44 1287.96 1536.44 Q1283.6 1536.44 1281.4 1537.77 Q1279.24 1539.11 1279.24 1541.79 Q1279.24 1543.82 1280.8 1545 Q1282.36 1546.15 1287.07 1547.2 L1289.08 1547.64 Q1295.31 1548.98 1297.92 1551.43 Q1300.57 1553.85 1300.57 1558.21 Q1300.57 1563.17 1296.62 1566.07 Q1292.7 1568.97 1285.83 1568.97 Q1282.96 1568.97 1279.84 1568.39 Q1276.76 1567.85 1273.32 1566.74 L1273.32 1560.69 Q1276.57 1562.38 1279.72 1563.24 Q1282.87 1564.07 1285.96 1564.07 Q1290.09 1564.07 1292.32 1562.66 Q1294.55 1561.23 1294.55 1558.65 Q1294.55 1556.27 1292.93 1554.99 Q1291.33 1553.72 1285.89 1552.54 L1283.86 1552.07 Q1278.41 1550.92 1275.99 1548.56 Q1273.57 1546.18 1273.57 1542.04 Q1273.57 1537.01 1277.14 1534.27 Q1280.7 1531.54 1287.26 1531.54 Q1290.51 1531.54 1293.37 1532.01 Q1296.24 1532.49 1298.66 1533.45 Z" fill="#000000" fill-rule="nonzero" fill-opacity="1" /><path clip-path="url(#clip530)" d="M1327.65 1547.58 L1344.81 1547.58 L1344.81 1552.8 L1327.65 1552.8 L1327.65 1547.58 Z" fill="#000000" fill-rule="nonzero" fill-opacity="1" /><path clip-path="url(#clip530)" d="M1360.56 1548.82 Q1357 1548.06 1355.09 1545.99 Q1353.18 1543.95 1353.18 1540.99 Q1353.18 1536.5 1356.81 1533.99 Q1360.4 1531.5 1366.64 1531.5 Q1369.06 1531.5 1371.77 1531.89 Q1374.47 1532.27 1377.59 1533.03 L1377.59 1538.35 Q1374.5 1537.42 1371.96 1537.01 Q1369.38 1536.6 1367.12 1536.6 Q1363.33 1536.6 1361.13 1538.06 Q1358.91 1539.53 1358.91 1541.56 Q1358.91 1543.79 1361.07 1545.22 Q1363.2 1546.62 1366.9 1546.62 L1371.83 1546.62 L1371.83 1551.46 L1367.12 1551.46 Q1362.76 1551.46 1360.47 1553.08 Q1357.98 1554.87 1357.98 1557.67 Q1357.98 1560.53 1360.66 1562.31 Q1363.36 1564.1 1368.17 1564.1 Q1371.13 1564.1 1373.83 1563.52 Q1376.54 1562.92 1378.8 1561.74 L1378.8 1567.18 Q1375.94 1568.08 1373.26 1568.52 Q1370.56 1568.97 1368.01 1568.97 Q1360.43 1568.97 1356.33 1566.07 Q1352.22 1563.17 1352.22 1557.67 Q1352.22 1554.23 1354.42 1551.91 Q1356.62 1549.58 1360.56 1548.82 Z" fill="#000000" fill-rule="nonzero" fill-opacity="1" /><path clip-path="url(#clip530)" d="M1416.45 1578.87 L1416.45 1583.42 L1382.59 1583.42 L1382.59 1578.87 L1416.45 1578.87 Z" fill="#000000" fill-rule="nonzero" fill-opacity="1" /><path clip-path="url(#clip530)" d="M1422.21 1520.52 L1449.52 1520.52 L1449.52 1525.93 L1428.64 1525.93 L1428.64 1539.94 L1447.49 1539.94 L1447.49 1545.35 L1428.64 1545.35 L1428.64 1568.04 L1422.21 1568.04 L1422.21 1520.52 Z" fill="#000000" fill-rule="nonzero" fill-opacity="1" /><path clip-path="url(#clip530)" d="M1514.96 1518.58 Q1510.7 1525.9 1508.63 1533.06 Q1506.56 1540.23 1506.56 1547.58 Q1506.56 1554.93 1508.63 1562.16 Q1510.73 1569.35 1514.96 1576.64 L1509.87 1576.64 Q1505.1 1569.16 1502.71 1561.93 Q1500.35 1554.71 1500.35 1547.58 Q1500.35 1540.48 1502.71 1533.29 Q1505.06 1526.09 1509.87 1518.58 L1514.96 1518.58 Z" fill="#000000" fill-rule="nonzero" fill-opacity="1" /><path clip-path="url(#clip530)" d="M1526.58 1520.52 L1556.63 1520.52 L1556.63 1525.93 L1533.01 1525.93 L1533.01 1540 L1555.64 1540 L1555.64 1545.41 L1533.01 1545.41 L1533.01 1562.63 L1557.2 1562.63 L1557.2 1568.04 L1526.58 1568.04 L1526.58 1520.52 Z" fill="#000000" fill-rule="nonzero" fill-opacity="1" /><path clip-path="url(#clip530)" d="M1583.9 1555.98 L1583.9 1568.04 L1580.21 1568.04 L1580.21 1556.11 Q1580.21 1553.28 1578.97 1551.87 Q1577.73 1550.44 1575.25 1550.44 Q1572.25 1550.44 1570.53 1552.16 Q1568.82 1553.85 1568.82 1556.78 L1568.82 1568.04 L1565.09 1568.04 L1565.09 1540.32 L1568.82 1540.32 L1568.82 1551.17 Q1570.12 1549.39 1571.9 1548.5 Q1573.72 1547.61 1576.07 1547.61 Q1579.92 1547.61 1581.9 1549.74 Q1583.9 1551.87 1583.9 1555.98 Z" fill="#000000" fill-rule="nonzero" fill-opacity="1" /><path clip-path="url(#clip530)" d="M1592.94 1518.58 L1598.03 1518.58 Q1602.81 1526.09 1605.16 1533.29 Q1607.55 1540.48 1607.55 1547.58 Q1607.55 1554.71 1605.16 1561.93 Q1602.81 1569.16 1598.03 1576.64 L1592.94 1576.64 Q1597.18 1569.35 1599.24 1562.16 Q1601.34 1554.93 1601.34 1547.58 Q1601.34 1540.23 1599.24 1533.06 Q1597.18 1525.9 1592.94 1518.58 Z" fill="#000000" fill-rule="nonzero" fill-opacity="1" /><polyline clip-path="url(#clip532)" style="stroke:#000000; stroke-linecap:round; stroke-linejoin:round; stroke-width:2; stroke-opacity:0.1; fill:none" points="169.121,1384.24 2352.76,1384.24 "/>
<polyline clip-path="url(#clip532)" style="stroke:#000000; stroke-linecap:round; stroke-linejoin:round; stroke-width:2; stroke-opacity:0.1; fill:none" points="169.121,949.87 2352.76,949.87 "/>
<polyline clip-path="url(#clip532)" style="stroke:#000000; stroke-linecap:round; stroke-linejoin:round; stroke-width:2; stroke-opacity:0.1; fill:none" points="169.121,515.498 2352.76,515.498 "/>
<polyline clip-path="url(#clip532)" style="stroke:#000000; stroke-linecap:round; stroke-linejoin:round; stroke-width:2; stroke-opacity:0.1; fill:none" points="169.121,81.1262 2352.76,81.1262 "/>
<polyline clip-path="url(#clip530)" style="stroke:#000000; stroke-linecap:round; stroke-linejoin:round; stroke-width:4; stroke-opacity:1; fill:none" points="169.121,1423.18 169.121,47.2441 "/>
<polyline clip-path="url(#clip530)" style="stroke:#000000; stroke-linecap:round; stroke-linejoin:round; stroke-width:4; stroke-opacity:1; fill:none" points="169.121,1384.24 188.019,1384.24 "/>
<polyline clip-path="url(#clip530)" style="stroke:#000000; stroke-linecap:round; stroke-linejoin:round; stroke-width:4; stroke-opacity:1; fill:none" points="169.121,949.87 188.019,949.87 "/>
<polyline clip-path="url(#clip530)" style="stroke:#000000; stroke-linecap:round; stroke-linejoin:round; stroke-width:4; stroke-opacity:1; fill:none" points="169.121,515.498 188.019,515.498 "/>
<polyline clip-path="url(#clip530)" style="stroke:#000000; stroke-linecap:round; stroke-linejoin:round; stroke-width:4; stroke-opacity:1; fill:none" points="169.121,81.1262 188.019,81.1262 "/>
<path clip-path="url(#clip530)" d="M121.177 1370.04 Q117.566 1370.04 115.737 1373.61 Q113.932 1377.15 113.932 1384.28 Q113.932 1391.38 115.737 1394.95 Q117.566 1398.49 121.177 1398.49 Q124.811 1398.49 126.617 1394.95 Q128.445 1391.38 128.445 1384.28 Q128.445 1377.15 126.617 1373.61 Q124.811 1370.04 121.177 1370.04 M121.177 1366.34 Q126.987 1366.34 130.043 1370.94 Q133.121 1375.53 133.121 1384.28 Q133.121 1393 130.043 1397.61 Q126.987 1402.19 121.177 1402.19 Q115.367 1402.19 112.288 1397.61 Q109.233 1393 109.233 1384.28 Q109.233 1375.53 112.288 1370.94 Q115.367 1366.34 121.177 1366.34 Z" fill="#000000" fill-rule="nonzero" fill-opacity="1" /><path clip-path="url(#clip530)" d="M81.0614 932.59 L99.4178 932.59 L99.4178 936.526 L85.3438 936.526 L85.3438 944.998 Q86.3623 944.651 87.3808 944.488 Q88.3993 944.303 89.4178 944.303 Q95.2049 944.303 98.5845 947.475 Q101.964 950.646 101.964 956.062 Q101.964 961.641 98.4919 964.743 Q95.0197 967.822 88.7003 967.822 Q86.5243 967.822 84.2558 967.451 Q82.0105 967.081 79.6031 966.34 L79.6031 961.641 Q81.6864 962.775 83.9086 963.331 Q86.1308 963.887 88.6077 963.887 Q92.6123 963.887 94.9502 961.78 Q97.2882 959.674 97.2882 956.062 Q97.2882 952.451 94.9502 950.345 Q92.6123 948.238 88.6077 948.238 Q86.7327 948.238 84.8577 948.655 Q83.0058 949.072 81.0614 949.951 L81.0614 932.59 Z" fill="#000000" fill-rule="nonzero" fill-opacity="1" /><path clip-path="url(#clip530)" d="M121.177 935.669 Q117.566 935.669 115.737 939.234 Q113.932 942.776 113.932 949.905 Q113.932 957.012 115.737 960.576 Q117.566 964.118 121.177 964.118 Q124.811 964.118 126.617 960.576 Q128.445 957.012 128.445 949.905 Q128.445 942.776 126.617 939.234 Q124.811 935.669 121.177 935.669 M121.177 931.965 Q126.987 931.965 130.043 936.572 Q133.121 941.155 133.121 949.905 Q133.121 958.632 130.043 963.238 Q126.987 967.822 121.177 967.822 Q115.367 967.822 112.288 963.238 Q109.233 958.632 109.233 949.905 Q109.233 941.155 112.288 936.572 Q115.367 931.965 121.177 931.965 Z" fill="#000000" fill-rule="nonzero" fill-opacity="1" /><path clip-path="url(#clip530)" d="M51.6634 528.843 L59.3023 528.843 L59.3023 502.478 L50.9921 504.144 L50.9921 499.885 L59.256 498.218 L63.9319 498.218 L63.9319 528.843 L71.5707 528.843 L71.5707 532.778 L51.6634 532.778 L51.6634 528.843 Z" fill="#000000" fill-rule="nonzero" fill-opacity="1" /><path clip-path="url(#clip530)" d="M91.0151 501.297 Q87.404 501.297 85.5753 504.862 Q83.7697 508.403 83.7697 515.533 Q83.7697 522.639 85.5753 526.204 Q87.404 529.746 91.0151 529.746 Q94.6493 529.746 96.4548 526.204 Q98.2835 522.639 98.2835 515.533 Q98.2835 508.403 96.4548 504.862 Q94.6493 501.297 91.0151 501.297 M91.0151 497.593 Q96.8252 497.593 99.8808 502.2 Q102.959 506.783 102.959 515.533 Q102.959 524.26 99.8808 528.866 Q96.8252 533.45 91.0151 533.45 Q85.2049 533.45 82.1262 528.866 Q79.0707 524.26 79.0707 515.533 Q79.0707 506.783 82.1262 502.2 Q85.2049 497.593 91.0151 497.593 Z" fill="#000000" fill-rule="nonzero" fill-opacity="1" /><path clip-path="url(#clip530)" d="M121.177 501.297 Q117.566 501.297 115.737 504.862 Q113.932 508.403 113.932 515.533 Q113.932 522.639 115.737 526.204 Q117.566 529.746 121.177 529.746 Q124.811 529.746 126.617 526.204 Q128.445 522.639 128.445 515.533 Q128.445 508.403 126.617 504.862 Q124.811 501.297 121.177 501.297 M121.177 497.593 Q126.987 497.593 130.043 502.2 Q133.121 506.783 133.121 515.533 Q133.121 524.26 130.043 528.866 Q126.987 533.45 121.177 533.45 Q115.367 533.45 112.288 528.866 Q109.233 524.26 109.233 515.533 Q109.233 506.783 112.288 502.2 Q115.367 497.593 121.177 497.593 Z" fill="#000000" fill-rule="nonzero" fill-opacity="1" /><path clip-path="url(#clip530)" d="M51.6634 94.4711 L59.3023 94.4711 L59.3023 68.1055 L50.9921 69.7721 L50.9921 65.5129 L59.256 63.8462 L63.9319 63.8462 L63.9319 94.4711 L71.5707 94.4711 L71.5707 98.4062 L51.6634 98.4062 L51.6634 94.4711 Z" fill="#000000" fill-rule="nonzero" fill-opacity="1" /><path clip-path="url(#clip530)" d="M81.0614 63.8462 L99.4178 63.8462 L99.4178 67.7814 L85.3438 67.7814 L85.3438 76.2536 Q86.3623 75.9064 87.3808 75.7443 Q88.3993 75.5591 89.4178 75.5591 Q95.2049 75.5591 98.5845 78.7304 Q101.964 81.9017 101.964 87.3183 Q101.964 92.897 98.4919 95.9988 Q95.0197 99.0775 88.7003 99.0775 Q86.5243 99.0775 84.2558 98.7072 Q82.0105 98.3368 79.6031 97.5961 L79.6031 92.897 Q81.6864 94.0313 83.9086 94.5868 Q86.1308 95.1424 88.6077 95.1424 Q92.6123 95.1424 94.9502 93.0359 Q97.2882 90.9294 97.2882 87.3183 Q97.2882 83.7072 94.9502 81.6008 Q92.6123 79.4943 88.6077 79.4943 Q86.7327 79.4943 84.8577 79.911 Q83.0058 80.3276 81.0614 81.2073 L81.0614 63.8462 Z" fill="#000000" fill-rule="nonzero" fill-opacity="1" /><path clip-path="url(#clip530)" d="M121.177 66.9249 Q117.566 66.9249 115.737 70.4897 Q113.932 74.0314 113.932 81.161 Q113.932 88.2674 115.737 91.8322 Q117.566 95.3739 121.177 95.3739 Q124.811 95.3739 126.617 91.8322 Q128.445 88.2674 128.445 81.161 Q128.445 74.0314 126.617 70.4897 Q124.811 66.9249 121.177 66.9249 M121.177 63.2212 Q126.987 63.2212 130.043 67.8277 Q133.121 72.411 133.121 81.161 Q133.121 89.8878 130.043 94.4942 Q126.987 99.0775 121.177 99.0775 Q115.367 99.0775 112.288 94.4942 Q109.233 89.8878 109.233 81.161 Q109.233 72.411 112.288 67.8277 Q115.367 63.2212 121.177 63.2212 Z" fill="#000000" fill-rule="nonzero" fill-opacity="1" /><polyline clip-path="url(#clip532)" style="stroke:#0000ff; stroke-linecap:round; stroke-linejoin:round; stroke-width:4; stroke-opacity:1; fill:none" points="230.922,86.1857 232.984,135.92 235.046,203.87 237.109,279.524 239.171,355.919 241.233,430.659 243.295,505.054 245.357,581.992 247.419,663.619 249.481,749.869 251.543,838.332 253.605,925.213 255.667,1006.63 257.73,1079.64 259.792,1142.62 261.854,1195.22 263.916,1238.02 265.978,1272.12 268.04,1298.87 270.102,1319.57 272.164,1335.46 274.226,1347.56 276.288,1356.72 278.35,1363.63 280.413,1368.82 282.475,1372.72 284.537,1375.64 286.599,1377.82 288.661,1379.45 290.723,1380.67 292.785,1381.58 294.847,1382.25 296.909,1382.76 298.971,1383.13 301.034,1383.41 303.096,1383.61 305.158,1383.76 307.22,1383.87 309.282,1383.95 311.344,1384 313.406,1384.03 315.468,1384.03 317.53,1384.03 319.592,1384 321.654,1383.95 323.717,1383.88 325.779,1383.77 327.841,1383.62 329.903,1383.42 331.965,1383.15 334.027,1382.78 336.089,1382.29 338.151,1381.62 340.213,1380.73 342.275,1379.54 344.338,1377.94 346.4,1375.8 348.462,1372.95 350.524,1369.15 352.586,1364.09 354.648,1357.4 356.71,1348.55 358.772,1336.95 360.834,1321.85 362.896,1302.39 364.958,1277.64 367.021,1246.73 369.083,1209.05 371.145,1164.53 373.207,1114.09 375.269,1060.02 377.331,1006.27 379.393,958.271 381.455,922.106 383.517,903.126 385.579,904.384 387.641,925.633 389.704,963.405 391.766,1012.13 393.828,1065.69 395.89,1118.8 397.952,1167.67 400.014,1210.14 402.076,1245.36 404.138,1273.36 406.2,1294.66 408.262,1309.94 410.325,1319.85 412.387,1324.92 414.449,1325.49 416.511,1321.7 418.573,1313.55 420.635,1300.92 422.697,1283.67 424.759,1261.73 426.821,1235.16 428.883,1204.18 430.945,1169.04 433.008,1129.76 435.07,1085.77 437.132,1035.74 439.194,977.639 441.256,909.392 443.318,829.865 445.38,740.123 447.442,644.5 449.504,551.041 451.566,470.805 453.629,415.788 455.691,395.794 457.753,415.409 459.815,472.467 461.877,558.815 463.939,662.92 466.001,773.004 468.063,879.406 470.125,975.647 472.187,1058.35 474.249,1126.54 476.312,1180.76 478.374,1222.34 480.436,1252.82 482.498,1273.67 484.56,1286.04 486.622,1290.73 488.684,1288.15 490.746,1278.35 492.808,1261.12 494.87,1236.09 496.933,1202.98 498.995,1161.89 501.057,1113.76 503.119,1060.76 505.181,1006.61 507.243,956.549 509.305,916.57 511.367,892.136 513.429,886.576 515.491,899.933 517.553,928.842 519.616,967.483 521.678,1009.12 523.74,1047.52 525.802,1077.76 527.864,1096.49 529.926,1101.76 531.988,1092.81 534.05,1069.94 536.112,1034.62 538.174,989.629 540.237,939.288 542.299,889.204 544.361,845.538 546.423,813.687 548.485,796.828 550.547,795.017 552.609,805.339 554.671,823.069 556.733,843.207 558.795,861.651 560.857,875.609 562.92,883.393 564.982,884.077 567.044,877.443 569.106,864.355 571.168,847.282 573.23,830.513 575.292,819.644 577.354,820.277 579.416,836.348 581.478,868.814 583.54,915.378 585.603,971.341 587.665,1031.09 589.727,1089.51 591.789,1142.83 593.851,1188.8 595.913,1226.51 597.975,1255.95 600.037,1277.58 602.099,1292.03 604.161,1299.9 606.224,1301.67 608.286,1297.64 610.348,1288 612.41,1272.95 614.472,1252.89 616.534,1228.6 618.596,1201.5 620.658,1173.74 622.72,1148.03 624.782,1127.19 626.844,1113.42 628.907,1107.48 630.969,1108.29 633.031,1113.09 635.093,1118.05 637.155,1119.08 639.217,1112.58 641.279,1095.88 643.341,1067.52 645.403,1027.54 647.465,977.74 649.528,921.968 651.59,866.114 653.652,817.593 655.714,784.086 657.776,771.74 659.838,783.451 661.9,818.004 663.962,870.539 666.024,934.082 668.086,1001.42 670.148,1066.55 672.211,1125.35 674.273,1175.58 676.335,1216.48 678.397,1248.18 680.459,1271.3 682.521,1286.55 684.583,1294.51 686.645,1295.52 688.707,1289.56 690.769,1276.27 692.832,1254.94 694.894,1224.57 696.956,1184.02 699.018,1132.18 701.08,1068.4 703.142,992.938 705.204,907.521 707.266,815.805 709.328,723.493 711.39,637.885 713.452,566.84 715.515,517.439 717.577,494.788 719.639,501.259 721.701,536.207 723.763,596.047 725.825,674.726 727.887,764.698 729.949,858.233 732.011,948.681 734.073,1031.28 736.136,1103.34 738.198,1163.97 740.26,1213.55 742.322,1253.19 744.384,1284.35 746.446,1308.53 748.508,1327.09 750.57,1341.24 752.632,1351.97 754.694,1360.06 756.756,1366.14 758.819,1370.71 760.881,1374.12 762.943,1376.67 765.005,1378.57 767.067,1379.98 769.129,1381.02 771.191,1381.78 773.253,1382.33 775.315,1382.71 777.377,1382.95 779.439,1383.09 781.502,1383.12 783.564,1383.06 785.626,1382.9 787.688,1382.61 789.75,1382.19 791.812,1381.59 793.874,1380.75 795.936,1379.62 797.998,1378.09 800.06,1376.03 802.123,1373.27 804.185,1369.59 806.247,1364.68 808.309,1358.18 810.371,1349.58 812.433,1338.28 814.495,1323.53 816.557,1304.47 818.619,1280.15 820.681,1249.62 822.743,1212.15 824.806,1167.46 826.868,1116.15 828.93,1060.13 830.992,1002.85 833.054,949.285 835.116,905.165 837.178,875.679 839.24,863.866 841.302,869.468 843.364,888.819 845.427,915.858 847.489,943.771 849.551,966.582 851.613,980.239 853.675,983.141 855.737,976.235 857.799,962.798 859.861,947.881 861.923,937.337 863.985,936.474 866.047,948.686 868.11,974.574 870.172,1011.97 872.234,1056.83 874.296,1104.51 876.358,1150.86 878.42,1192.9 880.482,1228.88 882.544,1258.11 884.606,1280.56 886.668,1296.57 888.731,1306.57 890.793,1310.93 892.855,1309.87 894.917,1303.44 896.979,1291.53 899.041,1274.02 901.103,1250.89 903.165,1222.5 905.227,1189.86 907.289,1154.93 909.351,1120.73 911.414,1091.16 913.476,1070.3 915.538,1061.49 917.6,1066.27 919.662,1083.93 921.724,1111.73 923.786,1145.8 925.848,1182.16 927.91,1217.56 929.972,1249.81 932.035,1277.76 934.097,1301.1 936.159,1320.05 938.221,1335.11 940.283,1346.88 942.345,1355.97 944.407,1362.94 946.469,1368.23 948.531,1372.23 950.593,1375.24 952.655,1377.5 954.718,1379.2 956.78,1380.46 958.842,1381.4 960.904,1382.1 962.966,1382.61 965.028,1382.98 967.09,1383.24 969.152,1383.41 971.214,1383.51 973.276,1383.54 975.338,1383.52 977.401,1383.43 979.463,1383.27 981.525,1383.02 983.587,1382.67 985.649,1382.18 987.711,1381.52 989.773,1380.62 991.835,1379.41 993.897,1377.8 995.959,1375.64 998.022,1372.77 1000.08,1368.98 1002.15,1363.97 1004.21,1357.42 1006.27,1348.92 1008.33,1337.99 1010.39,1324.17 1012.46,1307.03 1014.52,1286.3 1016.58,1262.06 1018.64,1234.95 1020.7,1206.35 1022.77,1178.41 1024.83,1153.91 1026.89,1135.63 1028.95,1125.67 1031.02,1124.62 1033.08,1131.31 1035.14,1143.05 1037.2,1156.3 1039.26,1167.51 1041.33,1173.73 1043.39,1172.96 1045.45,1164.34 1047.51,1148.21 1049.57,1126.16 1051.64,1101.1 1053.7,1076.99 1055.76,1058.34 1057.82,1049.23 1059.88,1052.29 1061.95,1067.91 1064.01,1094.26 1066.07,1127.93 1068.13,1164.98 1070.19,1201.91 1072.26,1236.17 1074.32,1266.3 1076.38,1291.74 1078.44,1312.57 1080.51,1329.23 1082.57,1342.33 1084.63,1352.48 1086.69,1360.28 1088.75,1366.22 1090.82,1370.71 1092.88,1374.11 1094.94,1376.66 1097,1378.58 1099.06,1380.01 1101.13,1381.08 1103.19,1381.88 1105.25,1382.47 1107.31,1382.92 1109.37,1383.25 1111.44,1383.49 1113.5,1383.66 1115.56,1383.79 1117.62,1383.87 1119.69,1383.92 1121.75,1383.95 1123.81,1383.95 1125.87,1383.92 1127.93,1383.87 1130,1383.78 1132.06,1383.66 1134.12,1383.48 1136.18,1383.24 1138.24,1382.91 1140.31,1382.47 1142.37,1381.88 1144.43,1381.1 1146.49,1380.07 1148.55,1378.71 1150.62,1376.93 1152.68,1374.64 1154.74,1371.72 1156.8,1368.05 1158.86,1363.54 1160.93,1358.18 1162.99,1352.03 1165.05,1345.35 1167.11,1338.57 1169.18,1332.34 1171.24,1327.41 1173.3,1324.49 1175.36,1324.06 1177.42,1326.17 1179.49,1330.49 1181.55,1336.37 1183.61,1343.04 1185.67,1349.82 1187.73,1356.18 1189.8,1361.83 1191.86,1366.62 1193.92,1370.57 1195.98,1373.73 1198.04,1376.23 1200.11,1378.16 1202.17,1379.65 1204.23,1380.79 1206.29,1381.65 1208.36,1382.3 1210.42,1382.79 1212.48,1383.16 1214.54,1383.43 1216.6,1383.64 1218.67,1383.79 1220.73,1383.91 1222.79,1383.99 1224.85,1384.06 1226.91,1384.1 1228.98,1384.14 1231.04,1384.16 1233.1,1384.18 1235.16,1384.2 1237.22,1384.21 1239.29,1384.22 1241.35,1384.22 1243.41,1384.23 1245.47,1384.23 1247.53,1384.23 1249.6,1384.24 1251.66,1384.24 1253.72,1384.24 1255.78,1384.24 1257.85,1384.24 1259.91,1384.24 1261.97,1384.24 1264.03,1384.24 1266.09,1384.23 1268.16,1384.23 1270.22,1384.23 1272.28,1384.22 1274.34,1384.21 1276.4,1384.21 1278.47,1384.19 1280.53,1384.18 1282.59,1384.15 1284.65,1384.12 1286.71,1384.08 1288.78,1384.03 1290.84,1383.95 1292.9,1383.86 1294.96,1383.72 1297.03,1383.55 1299.09,1383.31 1301.15,1382.99 1303.21,1382.56 1305.27,1381.99 1307.34,1381.23 1309.4,1380.21 1311.46,1378.84 1313.52,1377.02 1315.58,1374.6 1317.65,1371.39 1319.71,1367.15 1321.77,1361.59 1323.83,1354.33 1325.89,1344.97 1327.96,1333.03 1330.02,1318.1 1332.08,1299.81 1334.14,1278.11 1336.21,1253.35 1338.27,1226.58 1340.33,1199.63 1342.39,1175.1 1344.45,1156.01 1346.52,1145.11 1348.58,1144.15 1350.64,1153.28 1352.7,1171.03 1354.76,1194.77 1356.83,1221.48 1358.89,1248.45 1360.95,1273.67 1363.01,1295.97 1365.07,1314.88 1367.14,1330.4 1369.2,1342.83 1371.26,1352.6 1373.32,1360.15 1375.38,1365.93 1377.45,1370.29 1379.51,1373.54 1381.57,1375.91 1383.63,1377.59 1385.7,1378.7 1387.76,1379.34 1389.82,1379.56 1391.88,1379.38 1393.94,1378.78 1396.01,1377.7 1398.07,1376.07 1400.13,1373.73 1402.19,1370.51 1404.25,1366.14 1406.32,1360.28 1408.38,1352.48 1410.44,1342.2 1412.5,1328.73 1414.56,1311.28 1416.63,1288.93 1418.69,1260.79 1420.75,1226.08 1422.81,1184.47 1424.88,1136.41 1426.94,1083.54 1429,1029.11 1431.06,977.968 1433.12,936.065 1435.19,909.271 1437.25,901.805 1439.31,914.907 1441.37,946.419 1443.43,991.509 1445.5,1044.13 1447.56,1098.55 1449.62,1150.34 1451.68,1196.73 1453.74,1236.43 1455.81,1269.27 1457.87,1295.73 1459.93,1316.65 1461.99,1332.93 1464.05,1345.48 1466.12,1355.05 1468.18,1362.32 1470.24,1367.82 1472.3,1371.95 1474.37,1375.05 1476.43,1377.38 1478.49,1379.12 1480.55,1380.42 1482.61,1381.39 1484.68,1382.11 1486.74,1382.65 1488.8,1383.05 1490.86,1383.34 1492.92,1383.56 1494.99,1383.72 1497.05,1383.83 1499.11,1383.91 1501.17,1383.95 1503.23,1383.98 1505.3,1383.97 1507.36,1383.95 1509.42,1383.9 1511.48,1383.82 1513.55,1383.7 1515.61,1383.54 1517.67,1383.31 1519.73,1383.01 1521.79,1382.59 1523.86,1382.04 1525.92,1381.29 1527.98,1380.29 1530.04,1378.95 1532.1,1377.16 1534.17,1374.78 1536.23,1371.6 1538.29,1367.39 1540.35,1361.83 1542.41,1354.53 1544.48,1345 1546.54,1332.7 1548.6,1317 1550.66,1297.32 1552.73,1273.2 1554.79,1244.48 1556.85,1211.59 1558.91,1175.83 1560.97,1139.52 1563.04,1106.03 1565.1,1079.27 1567.16,1062.92 1569.22,1059.35 1571.28,1068.85 1573.35,1089.53 1575.41,1117.83 1577.47,1149.59 1579.53,1180.91 1581.59,1208.81 1583.66,1231.39 1585.72,1247.72 1587.78,1257.68 1589.84,1261.72 1591.9,1260.79 1593.97,1256.3 1596.03,1249.95 1598.09,1243.62 1600.15,1239.02 1602.22,1237.24 1604.28,1238.54 1606.34,1242.21 1608.4,1246.83 1610.46,1250.71 1612.53,1252.33 1614.59,1250.67 1616.65,1245.46 1618.71,1237.2 1620.77,1227.24 1622.84,1217.52 1624.9,1210.24 1626.96,1207.36 1629.02,1210 1631.08,1218.11 1633.15,1230.52 1635.21,1245.3 1637.27,1260.28 1639.33,1273.49 1641.4,1283.33 1643.46,1288.64 1645.52,1288.52 1647.58,1282.23 1649.64,1269.01 1651.71,1248.04 1653.77,1218.49 1655.83,1179.64 1657.89,1131.14 1659.95,1073.44 1662.02,1008.25 1664.08,938.841 1666.14,870.107 1668.2,807.953 1670.26,758.076 1672.33,724.426 1674.39,707.989 1676.45,706.478 1678.51,715.091 1680.57,727.994 1682.64,739.997 1684.7,747.966 1686.76,751.675 1688.82,753.882 1690.89,759.507 1692.95,774.011 1695.01,801.478 1697.07,843.158 1699.13,897.103 1701.2,958.986 1703.26,1023.56 1705.32,1086.08 1707.38,1143.1 1709.44,1192.71 1711.51,1234.31 1713.57,1268.21 1715.63,1295.24 1717.69,1316.42 1719.75,1332.8 1721.82,1345.34 1723.88,1354.84 1725.94,1362 1728,1367.32 1730.07,1371.24 1732.13,1374.06 1734.19,1376.01 1736.25,1377.26 1738.31,1377.9 1740.38,1378 1742.44,1377.57 1744.5,1376.57 1746.56,1374.93 1748.62,1372.53 1750.69,1369.19 1752.75,1364.68 1754.81,1358.72 1756.87,1350.97 1758.93,1341.08 1761,1328.71 1763.06,1313.59 1765.12,1295.67 1767.18,1275.23 1769.24,1252.99 1771.31,1230.13 1773.37,1208.2 1775.43,1188.64 1777.49,1172.38 1779.56,1159.25 1781.62,1147.86 1783.68,1135.82 1785.74,1120.3 1787.8,1098.82 1789.87,1069.94 1791.93,1033.86 1793.99,992.746 1796.05,950.826 1798.11,913.894 1800.18,888.211 1802.24,878.913 1804.3,888.478 1806.36,915.945 1808.42,957.283 1810.49,1006.71 1812.55,1058.27 1814.61,1107.1 1816.67,1149.96 1818.74,1185.31 1820.8,1213 1822.86,1233.84 1824.92,1249.21 1826.98,1260.65 1829.05,1269.54 1831.11,1276.76 1833.17,1282.59 1835.23,1286.68 1837.29,1288.23 1839.36,1286.14 1841.42,1279.19 1843.48,1266.11 1845.54,1245.6 1847.6,1216.35 1849.67,1177.13 1851.73,1126.98 1853.79,1065.53 1855.85,993.425 1857.92,912.784 1859.98,827.43 1862.04,742.721 1864.1,664.81 1866.16,599.53 1868.23,551.344 1870.29,522.881 1872.35,515.072 1874.41,527.488 1876.47,558.349 1878.54,604.183 1880.6,659.639 1882.66,717.936 1884.72,771.966 1886.78,815.644 1888.85,845.007 1890.91,858.856 1892.97,858.952 1895.03,849.806 1897.09,837.995 1899.16,830.936 1901.22,835.194 1903.28,854.812 1905.34,890.32 1907.41,938.906 1909.47,995.605 1911.53,1054.9 1913.59,1112.06 1915.65,1163.79 1917.72,1208.34 1919.78,1245.17 1921.84,1274.55 1923.9,1297.19 1925.96,1313.92 1928.03,1325.51 1930.09,1332.63 1932.15,1335.71 1934.21,1335.01 1936.27,1330.61 1938.34,1322.42 1940.4,1310.29 1942.46,1294.09 1944.52,1273.9 1946.59,1250.17 1948.65,1224 1950.71,1197.24 1952.77,1172.52 1954.83,1152.86 1956.9,1141.07 1958.96,1138.91 1961.02,1146.52 1963.08,1162.35 1965.14,1183.62 1967.21,1207.1 1969.27,1229.78 1971.33,1249.3 1973.39,1264.05 1975.45,1273.04 1977.52,1275.68 1979.58,1271.6 1981.64,1260.6 1983.7,1242.61 1985.76,1217.85 1987.83,1187.07 1989.89,1151.86 1991.95,1114.82 1994.01,1079.55 1996.08,1050.21 1998.14,1030.66 2000.2,1023.33 2002.26,1028.43 2004.32,1043.75 2006.39,1065.24 2008.45,1087.98 2010.51,1107.22 2012.57,1118.97 2014.63,1120.29 2016.7,1109.29 2018.76,1085.16 2020.82,1048.19 2022.88,1000.07 2024.94,944.152 2027.01,885.58 2029.07,831.004 2031.13,787.62 2033.19,761.721 2035.26,757.214 2037.32,774.736 2039.38,811.713 2041.44,863.222 2043.5,923.22 2045.57,985.691 2047.63,1045.47 2049.69,1098.67 2051.75,1142.73 2053.81,1176.19 2055.88,1198.35 2057.94,1208.89 2060,1207.54 2062.06,1193.9 2064.12,1167.38 2066.19,1127.24 2068.25,1072.9 2070.31,1004.25 2072.37,922.184 2074.43,829.161 2076.5,729.563 2078.56,629.782 2080.62,537.829 2082.68,462.488 2084.75,412.095 2086.81,393.067 2088.87,408.411 2090.93,456.666 2092.99,531.852 2095.06,624.689 2097.12,724.669 2099.18,822.13 2101.24,909.624 2103.3,982.324 2105.37,1037.72 2107.43,1074.98 2109.49,1094.34 2111.55,1096.7 2113.61,1083.55 2115.68,1057.09 2117.74,1020.57 2119.8,978.596 2121.86,937.114 2123.93,902.813 2125.99,881.903 2128.05,878.561 2130.11,893.708 2132.17,924.762 2134.24,966.5 2136.3,1012.59 2138.36,1057.1 2140.42,1095.43 2142.48,1124.7 2144.55,1143.61 2146.61,1152.28 2148.67,1152.01 2150.73,1145.14 2152.79,1134.91 2154.86,1125.11 2156.92,1119.51 2158.98,1121.03 2161.04,1131.07 2163.11,1149.2 2165.17,1173.46 2167.23,1201.09 2169.29,1229.3 2171.35,1255.82 2173.42,1279.17 2175.48,1298.56 2177.54,1313.74 2179.6,1324.77 2181.66,1331.82 2183.73,1335.03 2185.79,1334.43 2187.85,1329.86 2189.91,1320.91 2191.97,1306.96 2194.04,1287.08 2196.1,1260.09 2198.16,1224.58 2200.22,1179.03 2202.28,1122.01 2204.35,1052.51 2206.41,970.334 2208.47,876.533 2210.53,773.683 2212.6,665.766 2214.66,557.575 2216.72,453.831 2218.78,358.528 2220.84,275.043 2222.91,207.026 2224.97,159.328 2227.03,137.877 2229.09,147.998 2231.15,191.802 2233.22,266.187 2235.28,362.696 2237.34,469.357 2239.4,573.441 2241.46,663.848 2243.53,732.382 2245.59,773.974 2247.65,786.337 2249.71,769.585 2251.78,726.111 2253.84,660.788 2255.9,581.221 2257.96,497.658 2260.02,422.077 2262.09,366.299 2264.15,339.482 2266.21,345.901 2268.27,384.023 2270.33,447.331 2272.4,526.501 2274.46,611.924 2276.52,695.579 2278.58,771.827 2280.64,837.368 2282.71,890.853 2284.77,932.579 2286.83,964.307 2288.89,989.041 2290.95,1010.54 "/>
<polyline clip-path="url(#clip532)" style="stroke:#008000; stroke-linecap:round; stroke-linejoin:round; stroke-width:6; stroke-opacity:1; fill:none" points="1260.94,2799.12 1260.94,-1328.69 "/>
<path clip-path="url(#clip530)" d="M241.909 248.629 L556.892 248.629 L556.892 93.1086 L241.909 93.1086  Z" fill="#ffffff" fill-rule="evenodd" fill-opacity="1"/>
<polyline clip-path="url(#clip530)" style="stroke:#000000; stroke-linecap:round; stroke-linejoin:round; stroke-width:4; stroke-opacity:1; fill:none" points="241.909,248.629 556.892,248.629 556.892,93.1086 241.909,93.1086 241.909,248.629 "/>
<polyline clip-path="url(#clip530)" style="stroke:#0000ff; stroke-linecap:round; stroke-linejoin:round; stroke-width:4; stroke-opacity:1; fill:none" points="266.172,144.949 411.747,144.949 "/>
<path clip-path="url(#clip530)" d="M440.686 131.511 L440.686 158.386 L446.334 158.386 Q453.487 158.386 456.797 155.145 Q460.13 151.905 460.13 144.914 Q460.13 137.969 456.797 134.752 Q453.487 131.511 446.334 131.511 L440.686 131.511 M436.01 127.669 L445.616 127.669 Q455.663 127.669 460.362 131.858 Q465.061 136.025 465.061 144.914 Q465.061 153.849 460.339 158.039 Q455.616 162.229 445.616 162.229 L436.01 162.229 L436.01 127.669 Z" fill="#000000" fill-rule="nonzero" fill-opacity="1" /><path clip-path="url(#clip530)" d="M486.542 130.84 Q481.45 130.84 478.44 134.636 Q475.454 138.432 475.454 144.983 Q475.454 151.511 478.44 155.307 Q481.45 159.104 486.542 159.104 Q491.635 159.104 494.598 155.307 Q497.584 151.511 497.584 144.983 Q497.584 138.432 494.598 134.636 Q491.635 130.84 486.542 130.84 M486.542 127.044 Q493.811 127.044 498.162 131.928 Q502.514 136.789 502.514 144.983 Q502.514 153.155 498.162 158.039 Q493.811 162.9 486.542 162.9 Q479.25 162.9 474.876 158.039 Q470.524 153.178 470.524 144.983 Q470.524 136.789 474.876 131.928 Q479.25 127.044 486.542 127.044 Z" fill="#000000" fill-rule="nonzero" fill-opacity="1" /><path clip-path="url(#clip530)" d="M530.547 128.803 L530.547 133.363 Q527.884 132.09 525.523 131.465 Q523.162 130.84 520.963 130.84 Q517.144 130.84 515.06 132.321 Q513 133.803 513 136.534 Q513 138.826 514.366 140.007 Q515.755 141.164 519.598 141.882 L522.422 142.46 Q527.653 143.456 530.13 145.979 Q532.63 148.479 532.63 152.692 Q532.63 157.715 529.25 160.307 Q525.894 162.9 519.389 162.9 Q516.935 162.9 514.158 162.344 Q511.403 161.789 508.44 160.701 L508.44 155.886 Q511.287 157.483 514.019 158.293 Q516.75 159.104 519.389 159.104 Q523.394 159.104 525.57 157.53 Q527.746 155.956 527.746 153.039 Q527.746 150.493 526.172 149.057 Q524.621 147.622 521.056 146.905 L518.209 146.349 Q512.977 145.307 510.639 143.085 Q508.301 140.863 508.301 136.905 Q508.301 132.321 511.519 129.682 Q514.76 127.044 520.431 127.044 Q522.861 127.044 525.385 127.483 Q527.908 127.923 530.547 128.803 Z" fill="#000000" fill-rule="nonzero" fill-opacity="1" /><polyline clip-path="url(#clip530)" style="stroke:#008000; stroke-linecap:round; stroke-linejoin:round; stroke-width:6; stroke-opacity:1; fill:none" points="266.172,196.789 411.747,196.789 "/>
<path clip-path="url(#clip530)" d="M442.075 200.087 Q439.482 199.532 438.093 198.027 Q436.704 196.546 436.704 194.393 Q436.704 191.129 439.343 189.3 Q441.959 187.495 446.496 187.495 Q448.255 187.495 450.223 187.772 Q452.19 188.05 454.459 188.606 L454.459 192.472 Q452.214 191.8 450.362 191.499 Q448.487 191.198 446.843 191.198 Q444.089 191.198 442.491 192.263 Q440.871 193.328 440.871 194.809 Q440.871 196.43 442.445 197.471 Q443.996 198.49 446.681 198.49 L450.269 198.49 L450.269 202.008 L446.843 202.008 Q443.672 202.008 442.005 203.189 Q440.2 204.485 440.2 206.522 Q440.2 208.606 442.144 209.902 Q444.112 211.198 447.607 211.198 Q449.76 211.198 451.727 210.782 Q453.695 210.342 455.339 209.485 L455.339 213.444 Q453.255 214.092 451.311 214.416 Q449.343 214.74 447.491 214.74 Q441.982 214.74 438.996 212.633 Q436.01 210.527 436.01 206.522 Q436.01 204.022 437.607 202.333 Q439.204 200.643 442.075 200.087 Z" fill="#000000" fill-rule="nonzero" fill-opacity="1" /><path clip-path="url(#clip530)" d="M463.209 179.509 L483.07 179.509 L483.07 183.444 L467.885 183.444 L467.885 193.629 L481.588 193.629 L481.588 197.564 L467.885 197.564 L467.885 214.069 L463.209 214.069 L463.209 179.509 Z" fill="#000000" fill-rule="nonzero" fill-opacity="1" /></svg>
