<?xml version="1.0" encoding="utf-8"?>
<svg xmlns="http://www.w3.org/2000/svg" xmlns:xlink="http://www.w3.org/1999/xlink" width="600" height="400" viewBox="0 0 2400 1600">
<defs>
  <clipPath id="clip310">
    <rect x="0" y="0" width="2400" height="1600"/>
  </clipPath>
</defs>
<path clip-path="url(#clip310)" d="M0 1600 L2400 1600 L2400 0 L0 0  Z" fill="#ffffff" fill-rule="evenodd" fill-opacity="1"/>
<defs>
  <clipPath id="clip311">
    <rect x="480" y="0" width="1681" height="1600"/>
  </clipPath>
</defs>
<path clip-path="url(#clip310)" d="M170.857 1423.18 L2352.76 1423.18 L2352.76 47.2441 L170.857 47.2441  Z" fill="#ffffff" fill-rule="evenodd" fill-opacity="1"/>
<defs>
  <clipPath id="clip312">
    <rect x="170" y="47" width="2183" height="1377"/>
  </clipPath>
</defs>
<polyline clip-path="url(#clip312)" style="stroke:#000000; stroke-linecap:round; stroke-linejoin:round; stroke-width:2; stroke-opacity:0.1; fill:none" points="211.586,1423.18 211.586,47.2441 "/>
<polyline clip-path="url(#clip312)" style="stroke:#000000; stroke-linecap:round; stroke-linejoin:round; stroke-width:2; stroke-opacity:0.1; fill:none" points="561.659,1423.18 561.659,47.2441 "/>
<polyline clip-path="url(#clip312)" style="stroke:#000000; stroke-linecap:round; stroke-linejoin:round; stroke-width:2; stroke-opacity:0.1; fill:none" points="911.733,1423.18 911.733,47.2441 "/>
<polyline clip-path="url(#clip312)" style="stroke:#000000; stroke-linecap:round; stroke-linejoin:round; stroke-width:2; stroke-opacity:0.1; fill:none" points="1261.81,1423.18 1261.81,47.2441 "/>
<polyline clip-path="url(#clip312)" style="stroke:#000000; stroke-linecap:round; stroke-linejoin:round; stroke-width:2; stroke-opacity:0.1; fill:none" points="1611.88,1423.18 1611.88,47.2441 "/>
<polyline clip-path="url(#clip312)" style="stroke:#000000; stroke-linecap:round; stroke-linejoin:round; stroke-width:2; stroke-opacity:0.1; fill:none" points="1961.95,1423.18 1961.95,47.2441 "/>
<polyline clip-path="url(#clip312)" style="stroke:#000000; stroke-linecap:round; stroke-linejoin:round; stroke-width:2; stroke-opacity:0.1; fill:none" points="2312.03,1423.18 2312.03,47.2441 "/>
<polyline clip-path="url(#clip312)" style="stroke:#000000; stroke-linecap:round; stroke-linejoin:round; stroke-width:2; stroke-opacity:0.1; fill:none" points="170.857,1384.24 2352.76,1384.24 "/>
<polyline clip-path="url(#clip312)" style="stroke:#000000; stroke-linecap:round; stroke-linejoin:round; stroke-width:2; stroke-opacity:0.1; fill:none" points="170.857,1071.44 2352.76,1071.44 "/>
<polyline clip-path="url(#clip312)" style="stroke:#000000; stroke-linecap:round; stroke-linejoin:round; stroke-width:2; stroke-opacity:0.1; fill:none" points="170.857,758.648 2352.76,758.648 "/>
<polyline clip-path="url(#clip312)" style="stroke:#000000; stroke-linecap:round; stroke-linejoin:round; stroke-width:2; stroke-opacity:0.1; fill:none" points="170.857,445.852 2352.76,445.852 "/>
<polyline clip-path="url(#clip312)" style="stroke:#000000; stroke-linecap:round; stroke-linejoin:round; stroke-width:2; stroke-opacity:0.1; fill:none" points="170.857,133.057 2352.76,133.057 "/>
<polyline clip-path="url(#clip310)" style="stroke:#000000; stroke-linecap:round; stroke-linejoin:round; stroke-width:4; stroke-opacity:1; fill:none" points="170.857,1423.18 2352.76,1423.18 "/>
<polyline clip-path="url(#clip310)" style="stroke:#000000; stroke-linecap:round; stroke-linejoin:round; stroke-width:4; stroke-opacity:1; fill:none" points="211.586,1423.18 211.586,1404.28 "/>
<polyline clip-path="url(#clip310)" style="stroke:#000000; stroke-linecap:round; stroke-linejoin:round; stroke-width:4; stroke-opacity:1; fill:none" points="561.659,1423.18 561.659,1404.28 "/>
<polyline clip-path="url(#clip310)" style="stroke:#000000; stroke-linecap:round; stroke-linejoin:round; stroke-width:4; stroke-opacity:1; fill:none" points="911.733,1423.18 911.733,1404.28 "/>
<polyline clip-path="url(#clip310)" style="stroke:#000000; stroke-linecap:round; stroke-linejoin:round; stroke-width:4; stroke-opacity:1; fill:none" points="1261.81,1423.18 1261.81,1404.28 "/>
<polyline clip-path="url(#clip310)" style="stroke:#000000; stroke-linecap:round; stroke-linejoin:round; stroke-width:4; stroke-opacity:1; fill:none" points="1611.88,1423.18 1611.88,1404.28 "/>
<polyline clip-path="url(#clip310)" style="stroke:#000000; stroke-linecap:round; stroke-linejoin:round; stroke-width:4; stroke-opacity:1; fill:none" points="1961.95,1423.18 1961.95,1404.28 "/>
<polyline clip-path="url(#clip310)" style="stroke:#000000; stroke-linecap:round; stroke-linejoin:round; stroke-width:4; stroke-opacity:1; fill:none" points="2312.03,1423.18 2312.03,1404.28 "/>
<path clip-path="url(#clip310)" d="M143.531 1468.75 L173.206 1468.75 L173.206 1472.69 L143.531 1472.69 L143.531 1468.75 Z" fill="#000000" fill-rule="nonzero" fill-opacity="1" /><path clip-path="url(#clip310)" d="M193.299 1454.1 Q189.688 1454.1 187.859 1457.66 Q186.054 1461.2 186.054 1468.33 Q186.054 1475.44 187.859 1479.01 Q189.688 1482.55 193.299 1482.55 Q196.933 1482.55 198.739 1479.01 Q200.567 1475.44 200.567 1468.33 Q200.567 1461.2 198.739 1457.66 Q196.933 1454.1 193.299 1454.1 M193.299 1450.39 Q199.109 1450.39 202.165 1455 Q205.243 1459.58 205.243 1468.33 Q205.243 1477.06 202.165 1481.67 Q199.109 1486.25 193.299 1486.25 Q187.489 1486.25 184.41 1481.67 Q181.355 1477.06 181.355 1468.33 Q181.355 1459.58 184.41 1455 Q187.489 1450.39 193.299 1450.39 Z" fill="#000000" fill-rule="nonzero" fill-opacity="1" /><path clip-path="url(#clip310)" d="M213.461 1479.7 L218.345 1479.7 L218.345 1485.58 L213.461 1485.58 L213.461 1479.7 Z" fill="#000000" fill-rule="nonzero" fill-opacity="1" /><path clip-path="url(#clip310)" d="M229.34 1481.64 L236.979 1481.64 L236.979 1455.28 L228.669 1456.95 L228.669 1452.69 L236.933 1451.02 L241.609 1451.02 L241.609 1481.64 L249.248 1481.64 L249.248 1485.58 L229.34 1485.58 L229.34 1481.64 Z" fill="#000000" fill-rule="nonzero" fill-opacity="1" /><path clip-path="url(#clip310)" d="M258.738 1451.02 L277.095 1451.02 L277.095 1454.96 L263.021 1454.96 L263.021 1463.43 Q264.039 1463.08 265.058 1462.92 Q266.076 1462.73 267.095 1462.73 Q272.882 1462.73 276.261 1465.9 Q279.641 1469.08 279.641 1474.49 Q279.641 1480.07 276.169 1483.17 Q272.697 1486.25 266.377 1486.25 Q264.201 1486.25 261.933 1485.88 Q259.687 1485.51 257.28 1484.77 L257.28 1480.07 Q259.363 1481.2 261.586 1481.76 Q263.808 1482.32 266.285 1482.32 Q270.289 1482.32 272.627 1480.21 Q274.965 1478.1 274.965 1474.49 Q274.965 1470.88 272.627 1468.77 Q270.289 1466.67 266.285 1466.67 Q264.41 1466.67 262.535 1467.08 Q260.683 1467.5 258.738 1468.38 L258.738 1451.02 Z" fill="#000000" fill-rule="nonzero" fill-opacity="1" /><path clip-path="url(#clip310)" d="M493.107 1468.75 L522.782 1468.75 L522.782 1472.69 L493.107 1472.69 L493.107 1468.75 Z" fill="#000000" fill-rule="nonzero" fill-opacity="1" /><path clip-path="url(#clip310)" d="M542.875 1454.1 Q539.264 1454.1 537.435 1457.66 Q535.63 1461.2 535.63 1468.33 Q535.63 1475.44 537.435 1479.01 Q539.264 1482.55 542.875 1482.55 Q546.509 1482.55 548.315 1479.01 Q550.143 1475.44 550.143 1468.33 Q550.143 1461.2 548.315 1457.66 Q546.509 1454.1 542.875 1454.1 M542.875 1450.39 Q548.685 1450.39 551.741 1455 Q554.819 1459.58 554.819 1468.33 Q554.819 1477.06 551.741 1481.67 Q548.685 1486.25 542.875 1486.25 Q537.065 1486.25 533.986 1481.67 Q530.93 1477.06 530.93 1468.33 Q530.93 1459.58 533.986 1455 Q537.065 1450.39 542.875 1450.39 Z" fill="#000000" fill-rule="nonzero" fill-opacity="1" /><path clip-path="url(#clip310)" d="M563.037 1479.7 L567.921 1479.7 L567.921 1485.58 L563.037 1485.58 L563.037 1479.7 Z" fill="#000000" fill-rule="nonzero" fill-opacity="1" /><path clip-path="url(#clip310)" d="M578.916 1481.64 L586.555 1481.64 L586.555 1455.28 L578.245 1456.95 L578.245 1452.69 L586.509 1451.02 L591.185 1451.02 L591.185 1481.64 L598.824 1481.64 L598.824 1485.58 L578.916 1485.58 L578.916 1481.64 Z" fill="#000000" fill-rule="nonzero" fill-opacity="1" /><path clip-path="url(#clip310)" d="M618.268 1454.1 Q614.657 1454.1 612.828 1457.66 Q611.023 1461.2 611.023 1468.33 Q611.023 1475.44 612.828 1479.01 Q614.657 1482.55 618.268 1482.55 Q621.902 1482.55 623.708 1479.01 Q625.536 1475.44 625.536 1468.33 Q625.536 1461.2 623.708 1457.66 Q621.902 1454.1 618.268 1454.1 M618.268 1450.39 Q624.078 1450.39 627.134 1455 Q630.212 1459.58 630.212 1468.33 Q630.212 1477.06 627.134 1481.67 Q624.078 1486.25 618.268 1486.25 Q612.458 1486.25 609.379 1481.67 Q606.324 1477.06 606.324 1468.33 Q606.324 1459.58 609.379 1455 Q612.458 1450.39 618.268 1450.39 Z" fill="#000000" fill-rule="nonzero" fill-opacity="1" /><path clip-path="url(#clip310)" d="M843.678 1468.75 L873.354 1468.75 L873.354 1472.69 L843.678 1472.69 L843.678 1468.75 Z" fill="#000000" fill-rule="nonzero" fill-opacity="1" /><path clip-path="url(#clip310)" d="M893.446 1454.1 Q889.835 1454.1 888.006 1457.66 Q886.201 1461.2 886.201 1468.33 Q886.201 1475.44 888.006 1479.01 Q889.835 1482.55 893.446 1482.55 Q897.08 1482.55 898.886 1479.01 Q900.715 1475.44 900.715 1468.33 Q900.715 1461.2 898.886 1457.66 Q897.08 1454.1 893.446 1454.1 M893.446 1450.39 Q899.256 1450.39 902.312 1455 Q905.391 1459.58 905.391 1468.33 Q905.391 1477.06 902.312 1481.67 Q899.256 1486.25 893.446 1486.25 Q887.636 1486.25 884.557 1481.67 Q881.502 1477.06 881.502 1468.33 Q881.502 1459.58 884.557 1455 Q887.636 1450.39 893.446 1450.39 Z" fill="#000000" fill-rule="nonzero" fill-opacity="1" /><path clip-path="url(#clip310)" d="M913.608 1479.7 L918.492 1479.7 L918.492 1485.58 L913.608 1485.58 L913.608 1479.7 Z" fill="#000000" fill-rule="nonzero" fill-opacity="1" /><path clip-path="url(#clip310)" d="M938.677 1454.1 Q935.066 1454.1 933.238 1457.66 Q931.432 1461.2 931.432 1468.33 Q931.432 1475.44 933.238 1479.01 Q935.066 1482.55 938.677 1482.55 Q942.312 1482.55 944.117 1479.01 Q945.946 1475.44 945.946 1468.33 Q945.946 1461.2 944.117 1457.66 Q942.312 1454.1 938.677 1454.1 M938.677 1450.39 Q944.488 1450.39 947.543 1455 Q950.622 1459.58 950.622 1468.33 Q950.622 1477.06 947.543 1481.67 Q944.488 1486.25 938.677 1486.25 Q932.867 1486.25 929.789 1481.67 Q926.733 1477.06 926.733 1468.33 Q926.733 1459.58 929.789 1455 Q932.867 1450.39 938.677 1450.39 Z" fill="#000000" fill-rule="nonzero" fill-opacity="1" /><path clip-path="url(#clip310)" d="M958.886 1451.02 L977.242 1451.02 L977.242 1454.96 L963.168 1454.96 L963.168 1463.43 Q964.186 1463.08 965.205 1462.92 Q966.224 1462.73 967.242 1462.73 Q973.029 1462.73 976.409 1465.9 Q979.788 1469.08 979.788 1474.49 Q979.788 1480.07 976.316 1483.17 Q972.844 1486.25 966.524 1486.25 Q964.349 1486.25 962.08 1485.88 Q959.835 1485.51 957.427 1484.77 L957.427 1480.07 Q959.511 1481.2 961.733 1481.76 Q963.955 1482.32 966.432 1482.32 Q970.436 1482.32 972.774 1480.21 Q975.112 1478.1 975.112 1474.49 Q975.112 1470.88 972.774 1468.77 Q970.436 1466.67 966.432 1466.67 Q964.557 1466.67 962.682 1467.08 Q960.83 1467.5 958.886 1468.38 L958.886 1451.02 Z" fill="#000000" fill-rule="nonzero" fill-opacity="1" /><path clip-path="url(#clip310)" d="M1224.11 1454.1 Q1220.5 1454.1 1218.67 1457.66 Q1216.86 1461.2 1216.86 1468.33 Q1216.86 1475.44 1218.67 1479.01 Q1220.5 1482.55 1224.11 1482.55 Q1227.74 1482.55 1229.55 1479.01 Q1231.38 1475.44 1231.38 1468.33 Q1231.38 1461.2 1229.55 1457.66 Q1227.74 1454.1 1224.11 1454.1 M1224.11 1450.39 Q1229.92 1450.39 1232.98 1455 Q1236.05 1459.58 1236.05 1468.33 Q1236.05 1477.06 1232.98 1481.67 Q1229.92 1486.25 1224.11 1486.25 Q1218.3 1486.25 1215.22 1481.67 Q1212.17 1477.06 1212.17 1468.33 Q1212.17 1459.58 1215.22 1455 Q1218.3 1450.39 1224.11 1450.39 Z" fill="#000000" fill-rule="nonzero" fill-opacity="1" /><path clip-path="url(#clip310)" d="M1244.27 1479.7 L1249.16 1479.7 L1249.16 1485.58 L1244.27 1485.58 L1244.27 1479.7 Z" fill="#000000" fill-rule="nonzero" fill-opacity="1" /><path clip-path="url(#clip310)" d="M1269.34 1454.1 Q1265.73 1454.1 1263.9 1457.66 Q1262.1 1461.2 1262.1 1468.33 Q1262.1 1475.44 1263.9 1479.01 Q1265.73 1482.55 1269.34 1482.55 Q1272.98 1482.55 1274.78 1479.01 Q1276.61 1475.44 1276.61 1468.33 Q1276.61 1461.2 1274.78 1457.66 Q1272.98 1454.1 1269.34 1454.1 M1269.34 1450.39 Q1275.15 1450.39 1278.21 1455 Q1281.29 1459.58 1281.29 1468.33 Q1281.29 1477.06 1278.21 1481.67 Q1275.15 1486.25 1269.34 1486.25 Q1263.53 1486.25 1260.45 1481.67 Q1257.4 1477.06 1257.4 1468.33 Q1257.4 1459.58 1260.45 1455 Q1263.53 1450.39 1269.34 1450.39 Z" fill="#000000" fill-rule="nonzero" fill-opacity="1" /><path clip-path="url(#clip310)" d="M1299.5 1454.1 Q1295.89 1454.1 1294.06 1457.66 Q1292.26 1461.2 1292.26 1468.33 Q1292.26 1475.44 1294.06 1479.01 Q1295.89 1482.55 1299.5 1482.55 Q1303.14 1482.55 1304.94 1479.01 Q1306.77 1475.44 1306.77 1468.33 Q1306.77 1461.2 1304.94 1457.66 Q1303.14 1454.1 1299.5 1454.1 M1299.5 1450.39 Q1305.31 1450.39 1308.37 1455 Q1311.45 1459.58 1311.45 1468.33 Q1311.45 1477.06 1308.37 1481.67 Q1305.31 1486.25 1299.5 1486.25 Q1293.69 1486.25 1290.61 1481.67 Q1287.56 1477.06 1287.56 1468.33 Q1287.56 1459.58 1290.61 1455 Q1293.69 1450.39 1299.5 1450.39 Z" fill="#000000" fill-rule="nonzero" fill-opacity="1" /><path clip-path="url(#clip310)" d="M1574.68 1454.1 Q1571.07 1454.1 1569.24 1457.66 Q1567.44 1461.2 1567.44 1468.33 Q1567.44 1475.44 1569.24 1479.01 Q1571.07 1482.55 1574.68 1482.55 Q1578.32 1482.55 1580.12 1479.01 Q1581.95 1475.44 1581.95 1468.33 Q1581.95 1461.2 1580.12 1457.66 Q1578.32 1454.1 1574.68 1454.1 M1574.68 1450.39 Q1580.49 1450.39 1583.55 1455 Q1586.63 1459.58 1586.63 1468.33 Q1586.63 1477.06 1583.55 1481.67 Q1580.49 1486.25 1574.68 1486.25 Q1568.87 1486.25 1565.79 1481.67 Q1562.74 1477.06 1562.74 1468.33 Q1562.74 1459.58 1565.79 1455 Q1568.87 1450.39 1574.68 1450.39 Z" fill="#000000" fill-rule="nonzero" fill-opacity="1" /><path clip-path="url(#clip310)" d="M1594.84 1479.7 L1599.73 1479.7 L1599.73 1485.58 L1594.84 1485.58 L1594.84 1479.7 Z" fill="#000000" fill-rule="nonzero" fill-opacity="1" /><path clip-path="url(#clip310)" d="M1619.91 1454.1 Q1616.3 1454.1 1614.47 1457.66 Q1612.67 1461.2 1612.67 1468.33 Q1612.67 1475.44 1614.47 1479.01 Q1616.3 1482.55 1619.91 1482.55 Q1623.55 1482.55 1625.35 1479.01 Q1627.18 1475.44 1627.18 1468.33 Q1627.18 1461.2 1625.35 1457.66 Q1623.55 1454.1 1619.91 1454.1 M1619.91 1450.39 Q1625.72 1450.39 1628.78 1455 Q1631.86 1459.58 1631.86 1468.33 Q1631.86 1477.06 1628.78 1481.67 Q1625.72 1486.25 1619.91 1486.25 Q1614.1 1486.25 1611.02 1481.67 Q1607.97 1477.06 1607.97 1468.33 Q1607.97 1459.58 1611.02 1455 Q1614.1 1450.39 1619.91 1450.39 Z" fill="#000000" fill-rule="nonzero" fill-opacity="1" /><path clip-path="url(#clip310)" d="M1640.12 1451.02 L1658.48 1451.02 L1658.48 1454.96 L1644.4 1454.96 L1644.4 1463.43 Q1645.42 1463.08 1646.44 1462.92 Q1647.46 1462.73 1648.48 1462.73 Q1654.26 1462.73 1657.64 1465.9 Q1661.02 1469.08 1661.02 1474.49 Q1661.02 1480.07 1657.55 1483.17 Q1654.08 1486.25 1647.76 1486.25 Q1645.58 1486.25 1643.32 1485.88 Q1641.07 1485.51 1638.66 1484.77 L1638.66 1480.07 Q1640.75 1481.2 1642.97 1481.76 Q1645.19 1482.32 1647.67 1482.32 Q1651.67 1482.32 1654.01 1480.21 Q1656.35 1478.1 1656.35 1474.49 Q1656.35 1470.88 1654.01 1468.77 Q1651.67 1466.67 1647.67 1466.67 Q1645.79 1466.67 1643.92 1467.08 Q1642.07 1467.5 1640.12 1468.38 L1640.12 1451.02 Z" fill="#000000" fill-rule="nonzero" fill-opacity="1" /><path clip-path="url(#clip310)" d="M1924.26 1454.1 Q1920.65 1454.1 1918.82 1457.66 Q1917.01 1461.2 1917.01 1468.33 Q1917.01 1475.44 1918.82 1479.01 Q1920.65 1482.55 1924.26 1482.55 Q1927.89 1482.55 1929.7 1479.01 Q1931.53 1475.44 1931.53 1468.33 Q1931.53 1461.2 1929.7 1457.66 Q1927.89 1454.1 1924.26 1454.1 M1924.26 1450.39 Q1930.07 1450.39 1933.12 1455 Q1936.2 1459.58 1936.2 1468.33 Q1936.2 1477.06 1933.12 1481.67 Q1930.07 1486.25 1924.26 1486.25 Q1918.45 1486.25 1915.37 1481.67 Q1912.31 1477.06 1912.31 1468.33 Q1912.31 1459.58 1915.37 1455 Q1918.45 1450.39 1924.26 1450.39 Z" fill="#000000" fill-rule="nonzero" fill-opacity="1" /><path clip-path="url(#clip310)" d="M1944.42 1479.7 L1949.3 1479.7 L1949.3 1485.58 L1944.42 1485.58 L1944.42 1479.7 Z" fill="#000000" fill-rule="nonzero" fill-opacity="1" /><path clip-path="url(#clip310)" d="M1960.3 1481.64 L1967.94 1481.64 L1967.94 1455.28 L1959.63 1456.95 L1959.63 1452.69 L1967.89 1451.02 L1972.57 1451.02 L1972.57 1481.64 L1980.21 1481.64 L1980.21 1485.58 L1960.3 1485.58 L1960.3 1481.64 Z" fill="#000000" fill-rule="nonzero" fill-opacity="1" /><path clip-path="url(#clip310)" d="M1999.65 1454.1 Q1996.04 1454.1 1994.21 1457.66 Q1992.41 1461.2 1992.41 1468.33 Q1992.41 1475.44 1994.21 1479.01 Q1996.04 1482.55 1999.65 1482.55 Q2003.28 1482.55 2005.09 1479.01 Q2006.92 1475.44 2006.92 1468.33 Q2006.92 1461.2 2005.09 1457.66 Q2003.28 1454.1 1999.65 1454.1 M1999.65 1450.39 Q2005.46 1450.39 2008.52 1455 Q2011.59 1459.58 2011.59 1468.33 Q2011.59 1477.06 2008.52 1481.67 Q2005.46 1486.25 1999.65 1486.25 Q1993.84 1486.25 1990.76 1481.67 Q1987.71 1477.06 1987.71 1468.33 Q1987.71 1459.58 1990.76 1455 Q1993.84 1450.39 1999.65 1450.39 Z" fill="#000000" fill-rule="nonzero" fill-opacity="1" /><path clip-path="url(#clip310)" d="M2274.83 1454.1 Q2271.22 1454.1 2269.39 1457.66 Q2267.58 1461.2 2267.58 1468.33 Q2267.58 1475.44 2269.39 1479.01 Q2271.22 1482.55 2274.83 1482.55 Q2278.46 1482.55 2280.27 1479.01 Q2282.1 1475.44 2282.1 1468.33 Q2282.1 1461.2 2280.27 1457.66 Q2278.46 1454.1 2274.83 1454.1 M2274.83 1450.39 Q2280.64 1450.39 2283.69 1455 Q2286.77 1459.58 2286.77 1468.33 Q2286.77 1477.06 2283.69 1481.67 Q2280.64 1486.25 2274.83 1486.25 Q2269.02 1486.25 2265.94 1481.67 Q2262.88 1477.06 2262.88 1468.33 Q2262.88 1459.58 2265.94 1455 Q2269.02 1450.39 2274.83 1450.39 Z" fill="#000000" fill-rule="nonzero" fill-opacity="1" /><path clip-path="url(#clip310)" d="M2294.99 1479.7 L2299.87 1479.7 L2299.87 1485.58 L2294.99 1485.58 L2294.99 1479.7 Z" fill="#000000" fill-rule="nonzero" fill-opacity="1" /><path clip-path="url(#clip310)" d="M2310.87 1481.64 L2318.51 1481.64 L2318.51 1455.28 L2310.2 1456.95 L2310.2 1452.69 L2318.46 1451.02 L2323.14 1451.02 L2323.14 1481.64 L2330.78 1481.64 L2330.78 1485.58 L2310.87 1485.58 L2310.87 1481.64 Z" fill="#000000" fill-rule="nonzero" fill-opacity="1" /><path clip-path="url(#clip310)" d="M2340.27 1451.02 L2358.62 1451.02 L2358.62 1454.96 L2344.55 1454.96 L2344.55 1463.43 Q2345.57 1463.08 2346.59 1462.92 Q2347.61 1462.73 2348.62 1462.73 Q2354.41 1462.73 2357.79 1465.9 Q2361.17 1469.08 2361.17 1474.49 Q2361.17 1480.07 2357.7 1483.17 Q2354.23 1486.25 2347.91 1486.25 Q2345.73 1486.25 2343.46 1485.88 Q2341.22 1485.51 2338.81 1484.77 L2338.81 1480.07 Q2340.89 1481.2 2343.12 1481.76 Q2345.34 1482.32 2347.81 1482.32 Q2351.82 1482.32 2354.16 1480.21 Q2356.49 1478.1 2356.49 1474.49 Q2356.49 1470.88 2354.16 1468.77 Q2351.82 1466.67 2347.81 1466.67 Q2345.94 1466.67 2344.06 1467.08 Q2342.21 1467.5 2340.27 1468.38 L2340.27 1451.02 Z" fill="#000000" fill-rule="nonzero" fill-opacity="1" /><path clip-path="url(#clip310)" d="M948.232 1548.76 L948.232 1551.62 L921.305 1551.62 Q921.687 1557.67 924.933 1560.85 Q928.212 1564 934.036 1564 Q937.41 1564 940.561 1563.17 Q943.744 1562.35 946.863 1560.69 L946.863 1566.23 Q943.712 1567.57 940.402 1568.27 Q937.092 1568.97 933.686 1568.97 Q925.156 1568.97 920.159 1564 Q915.194 1559.04 915.194 1550.57 Q915.194 1541.82 919.905 1536.69 Q924.647 1531.54 932.668 1531.54 Q939.861 1531.54 944.031 1536.18 Q948.232 1540.8 948.232 1548.76 M942.376 1547.04 Q942.312 1542.23 939.67 1539.37 Q937.06 1536.5 932.731 1536.5 Q927.83 1536.5 924.87 1539.27 Q921.942 1542.04 921.496 1547.07 L942.376 1547.04 Z" fill="#000000" fill-rule="nonzero" fill-opacity="1" /><path clip-path="url(#clip310)" d="M957.844 1532.4 L963.701 1532.4 L963.701 1568.04 L957.844 1568.04 L957.844 1532.4 M957.844 1518.52 L963.701 1518.52 L963.701 1525.93 L957.844 1525.93 L957.844 1518.52 Z" fill="#000000" fill-rule="nonzero" fill-opacity="1" /><path clip-path="url(#clip310)" d="M999.412 1549.81 Q999.412 1543.44 996.77 1539.94 Q994.161 1536.44 989.418 1536.44 Q984.707 1536.44 982.066 1539.94 Q979.456 1543.44 979.456 1549.81 Q979.456 1556.14 982.066 1559.64 Q984.707 1563.14 989.418 1563.14 Q994.161 1563.14 996.77 1559.64 Q999.412 1556.14 999.412 1549.81 M1005.27 1563.62 Q1005.27 1572.72 1001.23 1577.15 Q997.184 1581.6 988.845 1581.6 Q985.758 1581.6 983.021 1581.13 Q980.283 1580.68 977.705 1579.72 L977.705 1574.03 Q980.283 1575.43 982.798 1576.1 Q985.312 1576.76 987.922 1576.76 Q993.683 1576.76 996.548 1573.74 Q999.412 1570.75 999.412 1564.67 L999.412 1561.77 Q997.598 1564.92 994.765 1566.48 Q991.933 1568.04 987.986 1568.04 Q981.429 1568.04 977.419 1563.05 Q973.408 1558.05 973.408 1549.81 Q973.408 1541.53 977.419 1536.53 Q981.429 1531.54 987.986 1531.54 Q991.933 1531.54 994.765 1533.1 Q997.598 1534.66 999.412 1537.81 L999.412 1532.4 L1005.27 1532.4 L1005.27 1563.62 Z" fill="#000000" fill-rule="nonzero" fill-opacity="1" /><path clip-path="url(#clip310)" d="M1047.82 1548.76 L1047.82 1551.62 L1020.9 1551.62 Q1021.28 1557.67 1024.52 1560.85 Q1027.8 1564 1033.63 1564 Q1037 1564 1040.15 1563.17 Q1043.34 1562.35 1046.45 1560.69 L1046.45 1566.23 Q1043.3 1567.57 1039.99 1568.27 Q1036.68 1568.97 1033.28 1568.97 Q1024.75 1568.97 1019.75 1564 Q1014.79 1559.04 1014.79 1550.57 Q1014.79 1541.82 1019.5 1536.69 Q1024.24 1531.54 1032.26 1531.54 Q1039.45 1531.54 1043.62 1536.18 Q1047.82 1540.8 1047.82 1548.76 M1041.97 1547.04 Q1041.9 1542.23 1039.26 1539.37 Q1036.65 1536.5 1032.32 1536.5 Q1027.42 1536.5 1024.46 1539.27 Q1021.53 1542.04 1021.09 1547.07 L1041.97 1547.04 Z" fill="#000000" fill-rule="nonzero" fill-opacity="1" /><path clip-path="url(#clip310)" d="M1087.07 1546.53 L1087.07 1568.04 L1081.21 1568.04 L1081.21 1546.72 Q1081.21 1541.66 1079.24 1539.14 Q1077.26 1536.63 1073.32 1536.63 Q1068.58 1536.63 1065.84 1539.65 Q1063.1 1542.68 1063.1 1547.9 L1063.1 1568.04 L1057.21 1568.04 L1057.21 1532.4 L1063.1 1532.4 L1063.1 1537.93 Q1065.2 1534.72 1068.03 1533.13 Q1070.9 1531.54 1074.62 1531.54 Q1080.77 1531.54 1083.92 1535.36 Q1087.07 1539.14 1087.07 1546.53 Z" fill="#000000" fill-rule="nonzero" fill-opacity="1" /><path clip-path="url(#clip310)" d="M1094.55 1532.4 L1100.75 1532.4 L1111.89 1562.31 L1123.03 1532.4 L1129.24 1532.4 L1115.87 1568.04 L1107.92 1568.04 L1094.55 1532.4 Z" fill="#000000" fill-rule="nonzero" fill-opacity="1" /><path clip-path="url(#clip310)" d="M1153.53 1550.12 Q1146.43 1550.12 1143.69 1551.75 Q1140.95 1553.37 1140.95 1557.29 Q1140.95 1560.4 1142.99 1562.25 Q1145.06 1564.07 1148.59 1564.07 Q1153.46 1564.07 1156.39 1560.63 Q1159.35 1557.16 1159.35 1551.43 L1159.35 1550.12 L1153.53 1550.12 M1165.21 1547.71 L1165.21 1568.04 L1159.35 1568.04 L1159.35 1562.63 Q1157.35 1565.88 1154.35 1567.44 Q1151.36 1568.97 1147.03 1568.97 Q1141.56 1568.97 1138.31 1565.91 Q1135.1 1562.82 1135.1 1557.67 Q1135.1 1551.65 1139.11 1548.6 Q1143.15 1545.54 1151.14 1545.54 L1159.35 1545.54 L1159.35 1544.97 Q1159.35 1540.93 1156.68 1538.73 Q1154.04 1536.5 1149.23 1536.5 Q1146.17 1536.5 1143.28 1537.23 Q1140.38 1537.97 1137.71 1539.43 L1137.71 1534.02 Q1140.92 1532.78 1143.95 1532.17 Q1146.97 1531.54 1149.83 1531.54 Q1157.57 1531.54 1161.39 1535.55 Q1165.21 1539.56 1165.21 1547.71 Z" fill="#000000" fill-rule="nonzero" fill-opacity="1" /><path clip-path="url(#clip310)" d="M1177.27 1518.52 L1183.13 1518.52 L1183.13 1568.04 L1177.27 1568.04 L1177.27 1518.52 Z" fill="#000000" fill-rule="nonzero" fill-opacity="1" /><path clip-path="url(#clip310)" d="M1194.78 1553.98 L1194.78 1532.4 L1200.63 1532.4 L1200.63 1553.75 Q1200.63 1558.81 1202.61 1561.36 Q1204.58 1563.87 1208.53 1563.87 Q1213.27 1563.87 1216.01 1560.85 Q1218.77 1557.83 1218.77 1552.61 L1218.77 1532.4 L1224.63 1532.4 L1224.63 1568.04 L1218.77 1568.04 L1218.77 1562.57 Q1216.64 1565.82 1213.81 1567.41 Q1211.01 1568.97 1207.28 1568.97 Q1201.14 1568.97 1197.96 1565.15 Q1194.78 1561.33 1194.78 1553.98 M1209.51 1531.54 L1209.51 1531.54 Z" fill="#000000" fill-rule="nonzero" fill-opacity="1" /><path clip-path="url(#clip310)" d="M1267.19 1548.76 L1267.19 1551.62 L1240.26 1551.62 Q1240.64 1557.67 1243.89 1560.85 Q1247.17 1564 1252.99 1564 Q1256.36 1564 1259.52 1563.17 Q1262.7 1562.35 1265.82 1560.69 L1265.82 1566.23 Q1262.67 1567.57 1259.36 1568.27 Q1256.05 1568.97 1252.64 1568.97 Q1244.11 1568.97 1239.11 1564 Q1234.15 1559.04 1234.15 1550.57 Q1234.15 1541.82 1238.86 1536.69 Q1243.6 1531.54 1251.62 1531.54 Q1258.81 1531.54 1262.98 1536.18 Q1267.19 1540.8 1267.19 1548.76 M1261.33 1547.04 Q1261.27 1542.23 1258.62 1539.37 Q1256.01 1536.5 1251.69 1536.5 Q1246.78 1536.5 1243.82 1539.27 Q1240.9 1542.04 1240.45 1547.07 L1261.33 1547.04 Z" fill="#000000" fill-rule="nonzero" fill-opacity="1" /><path clip-path="url(#clip310)" d="M1299.52 1533.45 L1299.52 1538.98 Q1297.04 1537.71 1294.37 1537.07 Q1291.69 1536.44 1288.83 1536.44 Q1284.47 1536.44 1282.27 1537.77 Q1280.11 1539.11 1280.11 1541.79 Q1280.11 1543.82 1281.67 1545 Q1283.23 1546.15 1287.94 1547.2 L1289.94 1547.64 Q1296.18 1548.98 1298.79 1551.43 Q1301.43 1553.85 1301.43 1558.21 Q1301.43 1563.17 1297.49 1566.07 Q1293.57 1568.97 1286.7 1568.97 Q1283.83 1568.97 1280.71 1568.39 Q1277.63 1567.85 1274.19 1566.74 L1274.19 1560.69 Q1277.43 1562.38 1280.59 1563.24 Q1283.74 1564.07 1286.82 1564.07 Q1290.96 1564.07 1293.19 1562.66 Q1295.42 1561.23 1295.42 1558.65 Q1295.42 1556.27 1293.79 1554.99 Q1292.2 1553.72 1286.76 1552.54 L1284.72 1552.07 Q1279.28 1550.92 1276.86 1548.56 Q1274.44 1546.18 1274.44 1542.04 Q1274.44 1537.01 1278.01 1534.27 Q1281.57 1531.54 1288.13 1531.54 Q1291.38 1531.54 1294.24 1532.01 Q1297.1 1532.49 1299.52 1533.45 Z" fill="#000000" fill-rule="nonzero" fill-opacity="1" /><path clip-path="url(#clip310)" d="M1328.52 1547.58 L1345.67 1547.58 L1345.67 1552.8 L1328.52 1552.8 L1328.52 1547.58 Z" fill="#000000" fill-rule="nonzero" fill-opacity="1" /><path clip-path="url(#clip310)" d="M1361.43 1548.82 Q1357.87 1548.06 1355.96 1545.99 Q1354.05 1543.95 1354.05 1540.99 Q1354.05 1536.5 1357.67 1533.99 Q1361.27 1531.5 1367.51 1531.5 Q1369.93 1531.5 1372.63 1531.89 Q1375.34 1532.27 1378.46 1533.03 L1378.46 1538.35 Q1375.37 1537.42 1372.82 1537.01 Q1370.25 1536.6 1367.99 1536.6 Q1364.2 1536.6 1362 1538.06 Q1359.77 1539.53 1359.77 1541.56 Q1359.77 1543.79 1361.94 1545.22 Q1364.07 1546.62 1367.76 1546.62 L1372.7 1546.62 L1372.7 1551.46 L1367.99 1551.46 Q1363.63 1551.46 1361.33 1553.08 Q1358.85 1554.87 1358.85 1557.67 Q1358.85 1560.53 1361.53 1562.31 Q1364.23 1564.1 1369.04 1564.1 Q1372 1564.1 1374.7 1563.52 Q1377.41 1562.92 1379.67 1561.74 L1379.67 1567.18 Q1376.8 1568.08 1374.13 1568.52 Q1371.42 1568.97 1368.88 1568.97 Q1361.3 1568.97 1357.2 1566.07 Q1353.09 1563.17 1353.09 1557.67 Q1353.09 1554.23 1355.29 1551.91 Q1357.48 1549.58 1361.43 1548.82 Z" fill="#000000" fill-rule="nonzero" fill-opacity="1" /><path clip-path="url(#clip310)" d="M1417.32 1578.87 L1417.32 1583.42 L1383.46 1583.42 L1383.46 1578.87 L1417.32 1578.87 Z" fill="#000000" fill-rule="nonzero" fill-opacity="1" /><path clip-path="url(#clip310)" d="M1423.08 1520.52 L1450.39 1520.52 L1450.39 1525.93 L1429.51 1525.93 L1429.51 1539.94 L1448.35 1539.94 L1448.35 1545.35 L1429.51 1545.35 L1429.51 1568.04 L1423.08 1568.04 L1423.08 1520.52 Z" fill="#000000" fill-rule="nonzero" fill-opacity="1" /><path clip-path="url(#clip310)" d="M1515.83 1518.58 Q1511.57 1525.9 1509.5 1533.06 Q1507.43 1540.23 1507.43 1547.58 Q1507.43 1554.93 1509.5 1562.16 Q1511.6 1569.35 1515.83 1576.64 L1510.74 1576.64 Q1505.96 1569.16 1503.58 1561.93 Q1501.22 1554.71 1501.22 1547.58 Q1501.22 1540.48 1503.58 1533.29 Q1505.93 1526.09 1510.74 1518.58 L1515.83 1518.58 Z" fill="#000000" fill-rule="nonzero" fill-opacity="1" /><path clip-path="url(#clip310)" d="M1527.45 1520.52 L1557.49 1520.52 L1557.49 1525.93 L1533.88 1525.93 L1533.88 1540 L1556.51 1540 L1556.51 1545.41 L1533.88 1545.41 L1533.88 1562.63 L1558.07 1562.63 L1558.07 1568.04 L1527.45 1568.04 L1527.45 1520.52 Z" fill="#000000" fill-rule="nonzero" fill-opacity="1" /><path clip-path="url(#clip310)" d="M1584.77 1555.98 L1584.77 1568.04 L1581.08 1568.04 L1581.08 1556.11 Q1581.08 1553.28 1579.84 1551.87 Q1578.6 1550.44 1576.11 1550.44 Q1573.12 1550.44 1571.4 1552.16 Q1569.68 1553.85 1569.68 1556.78 L1569.68 1568.04 L1565.96 1568.04 L1565.96 1540.32 L1569.68 1540.32 L1569.68 1551.17 Q1570.99 1549.39 1572.77 1548.5 Q1574.59 1547.61 1576.94 1547.61 Q1580.79 1547.61 1582.77 1549.74 Q1584.77 1551.87 1584.77 1555.98 Z" fill="#000000" fill-rule="nonzero" fill-opacity="1" /><path clip-path="url(#clip310)" d="M1593.81 1518.58 L1598.9 1518.58 Q1603.68 1526.09 1606.03 1533.29 Q1608.42 1540.48 1608.42 1547.58 Q1608.42 1554.71 1606.03 1561.93 Q1603.68 1569.16 1598.9 1576.64 L1593.81 1576.64 Q1598.04 1569.35 1600.11 1562.16 Q1602.21 1554.93 1602.21 1547.58 Q1602.21 1540.23 1600.11 1533.06 Q1598.04 1525.9 1593.81 1518.58 Z" fill="#000000" fill-rule="nonzero" fill-opacity="1" /><polyline clip-path="url(#clip310)" style="stroke:#000000; stroke-linecap:round; stroke-linejoin:round; stroke-width:4; stroke-opacity:1; fill:none" points="170.857,1423.18 170.857,47.2441 "/>
<polyline clip-path="url(#clip310)" style="stroke:#000000; stroke-linecap:round; stroke-linejoin:round; stroke-width:4; stroke-opacity:1; fill:none" points="170.857,1384.24 189.755,1384.24 "/>
<polyline clip-path="url(#clip310)" style="stroke:#000000; stroke-linecap:round; stroke-linejoin:round; stroke-width:4; stroke-opacity:1; fill:none" points="170.857,1071.44 189.755,1071.44 "/>
<polyline clip-path="url(#clip310)" style="stroke:#000000; stroke-linecap:round; stroke-linejoin:round; stroke-width:4; stroke-opacity:1; fill:none" points="170.857,758.648 189.755,758.648 "/>
<polyline clip-path="url(#clip310)" style="stroke:#000000; stroke-linecap:round; stroke-linejoin:round; stroke-width:4; stroke-opacity:1; fill:none" points="170.857,445.852 189.755,445.852 "/>
<polyline clip-path="url(#clip310)" style="stroke:#000000; stroke-linecap:round; stroke-linejoin:round; stroke-width:4; stroke-opacity:1; fill:none" points="170.857,133.057 189.755,133.057 "/>
<path clip-path="url(#clip310)" d="M122.913 1370.04 Q119.302 1370.04 117.473 1373.6 Q115.668 1377.15 115.668 1384.28 Q115.668 1391.38 117.473 1394.95 Q119.302 1398.49 122.913 1398.49 Q126.547 1398.49 128.353 1394.95 Q130.182 1391.38 130.182 1384.28 Q130.182 1377.15 128.353 1373.6 Q126.547 1370.04 122.913 1370.04 M122.913 1366.34 Q128.723 1366.34 131.779 1370.94 Q134.857 1375.53 134.857 1384.28 Q134.857 1393 131.779 1397.61 Q128.723 1402.19 122.913 1402.19 Q117.103 1402.19 114.024 1397.61 Q110.969 1393 110.969 1384.28 Q110.969 1375.53 114.024 1370.94 Q117.103 1366.34 122.913 1366.34 Z" fill="#000000" fill-rule="nonzero" fill-opacity="1" /><path clip-path="url(#clip310)" d="M82.7975 1054.16 L101.154 1054.16 L101.154 1058.1 L87.0799 1058.1 L87.0799 1066.57 Q88.0984 1066.22 89.1169 1066.06 Q90.1354 1065.88 91.1539 1065.88 Q96.941 1065.88 100.321 1069.05 Q103.7 1072.22 103.7 1077.64 Q103.7 1083.22 100.228 1086.32 Q96.7558 1089.4 90.4364 1089.4 Q88.2604 1089.4 85.9919 1089.03 Q83.7466 1088.65 81.3392 1087.91 L81.3392 1083.22 Q83.4225 1084.35 85.6447 1084.9 Q87.8669 1085.46 90.3438 1085.46 Q94.3484 1085.46 96.6863 1083.35 Q99.0243 1081.25 99.0243 1077.64 Q99.0243 1074.03 96.6863 1071.92 Q94.3484 1069.81 90.3438 1069.81 Q88.4688 1069.81 86.5938 1070.23 Q84.7419 1070.65 82.7975 1071.53 L82.7975 1054.16 Z" fill="#000000" fill-rule="nonzero" fill-opacity="1" /><path clip-path="url(#clip310)" d="M122.913 1057.24 Q119.302 1057.24 117.473 1060.81 Q115.668 1064.35 115.668 1071.48 Q115.668 1078.59 117.473 1082.15 Q119.302 1085.69 122.913 1085.69 Q126.547 1085.69 128.353 1082.15 Q130.182 1078.59 130.182 1071.48 Q130.182 1064.35 128.353 1060.81 Q126.547 1057.24 122.913 1057.24 M122.913 1053.54 Q128.723 1053.54 131.779 1058.15 Q134.857 1062.73 134.857 1071.48 Q134.857 1080.21 131.779 1084.81 Q128.723 1089.4 122.913 1089.4 Q117.103 1089.4 114.024 1084.81 Q110.969 1080.21 110.969 1071.48 Q110.969 1062.73 114.024 1058.15 Q117.103 1053.54 122.913 1053.54 Z" fill="#000000" fill-rule="nonzero" fill-opacity="1" /><path clip-path="url(#clip310)" d="M53.3995 771.993 L61.0384 771.993 L61.0384 745.628 L52.7282 747.294 L52.7282 743.035 L60.9921 741.368 L65.668 741.368 L65.668 771.993 L73.3068 771.993 L73.3068 775.928 L53.3995 775.928 L53.3995 771.993 Z" fill="#000000" fill-rule="nonzero" fill-opacity="1" /><path clip-path="url(#clip310)" d="M92.7512 744.447 Q89.1401 744.447 87.3114 748.012 Q85.5058 751.554 85.5058 758.683 Q85.5058 765.79 87.3114 769.354 Q89.1401 772.896 92.7512 772.896 Q96.3854 772.896 98.1909 769.354 Q100.02 765.79 100.02 758.683 Q100.02 751.554 98.1909 748.012 Q96.3854 744.447 92.7512 744.447 M92.7512 740.743 Q98.5613 740.743 101.617 745.35 Q104.696 749.933 104.696 758.683 Q104.696 767.41 101.617 772.016 Q98.5613 776.6 92.7512 776.6 Q86.941 776.6 83.8623 772.016 Q80.8068 767.41 80.8068 758.683 Q80.8068 749.933 83.8623 745.35 Q86.941 740.743 92.7512 740.743 Z" fill="#000000" fill-rule="nonzero" fill-opacity="1" /><path clip-path="url(#clip310)" d="M122.913 744.447 Q119.302 744.447 117.473 748.012 Q115.668 751.554 115.668 758.683 Q115.668 765.79 117.473 769.354 Q119.302 772.896 122.913 772.896 Q126.547 772.896 128.353 769.354 Q130.182 765.79 130.182 758.683 Q130.182 751.554 128.353 748.012 Q126.547 744.447 122.913 744.447 M122.913 740.743 Q128.723 740.743 131.779 745.35 Q134.857 749.933 134.857 758.683 Q134.857 767.41 131.779 772.016 Q128.723 776.6 122.913 776.6 Q117.103 776.6 114.024 772.016 Q110.969 767.41 110.969 758.683 Q110.969 749.933 114.024 745.35 Q117.103 740.743 122.913 740.743 Z" fill="#000000" fill-rule="nonzero" fill-opacity="1" /><path clip-path="url(#clip310)" d="M53.3995 459.197 L61.0384 459.197 L61.0384 432.832 L52.7282 434.498 L52.7282 430.239 L60.9921 428.572 L65.668 428.572 L65.668 459.197 L73.3068 459.197 L73.3068 463.132 L53.3995 463.132 L53.3995 459.197 Z" fill="#000000" fill-rule="nonzero" fill-opacity="1" /><path clip-path="url(#clip310)" d="M82.7975 428.572 L101.154 428.572 L101.154 432.508 L87.0799 432.508 L87.0799 440.98 Q88.0984 440.633 89.1169 440.471 Q90.1354 440.285 91.1539 440.285 Q96.941 440.285 100.321 443.457 Q103.7 446.628 103.7 452.045 Q103.7 457.623 100.228 460.725 Q96.7558 463.804 90.4364 463.804 Q88.2604 463.804 85.9919 463.433 Q83.7466 463.063 81.3392 462.322 L81.3392 457.623 Q83.4225 458.758 85.6447 459.313 Q87.8669 459.869 90.3438 459.869 Q94.3484 459.869 96.6863 457.762 Q99.0243 455.656 99.0243 452.045 Q99.0243 448.433 96.6863 446.327 Q94.3484 444.221 90.3438 444.221 Q88.4688 444.221 86.5938 444.637 Q84.7419 445.054 82.7975 445.934 L82.7975 428.572 Z" fill="#000000" fill-rule="nonzero" fill-opacity="1" /><path clip-path="url(#clip310)" d="M122.913 431.651 Q119.302 431.651 117.473 435.216 Q115.668 438.758 115.668 445.887 Q115.668 452.994 117.473 456.558 Q119.302 460.1 122.913 460.1 Q126.547 460.1 128.353 456.558 Q130.182 452.994 130.182 445.887 Q130.182 438.758 128.353 435.216 Q126.547 431.651 122.913 431.651 M122.913 427.947 Q128.723 427.947 131.779 432.554 Q134.857 437.137 134.857 445.887 Q134.857 454.614 131.779 459.22 Q128.723 463.804 122.913 463.804 Q117.103 463.804 114.024 459.22 Q110.969 454.614 110.969 445.887 Q110.969 437.137 114.024 432.554 Q117.103 427.947 122.913 427.947 Z" fill="#000000" fill-rule="nonzero" fill-opacity="1" /><path clip-path="url(#clip310)" d="M56.6171 146.401 L72.9365 146.401 L72.9365 150.337 L50.9921 150.337 L50.9921 146.401 Q53.6541 143.647 58.2375 139.017 Q62.8439 134.364 64.0245 133.022 Q66.2698 130.499 67.1494 128.763 Q68.0522 127.003 68.0522 125.314 Q68.0522 122.559 66.1078 120.823 Q64.1865 119.087 61.0847 119.087 Q58.8856 119.087 56.4319 119.851 Q54.0014 120.614 51.2236 122.165 L51.2236 117.443 Q54.0477 116.309 56.5014 115.73 Q58.955 115.152 60.9921 115.152 Q66.3624 115.152 69.5568 117.837 Q72.7513 120.522 72.7513 125.013 Q72.7513 127.142 71.9411 129.064 Q71.1541 130.962 69.0476 133.554 Q68.4689 134.226 65.367 137.443 Q62.2652 140.638 56.6171 146.401 Z" fill="#000000" fill-rule="nonzero" fill-opacity="1" /><path clip-path="url(#clip310)" d="M92.7512 118.855 Q89.1401 118.855 87.3114 122.42 Q85.5058 125.962 85.5058 133.091 Q85.5058 140.198 87.3114 143.762 Q89.1401 147.304 92.7512 147.304 Q96.3854 147.304 98.1909 143.762 Q100.02 140.198 100.02 133.091 Q100.02 125.962 98.1909 122.42 Q96.3854 118.855 92.7512 118.855 M92.7512 115.152 Q98.5613 115.152 101.617 119.758 Q104.696 124.341 104.696 133.091 Q104.696 141.818 101.617 146.425 Q98.5613 151.008 92.7512 151.008 Q86.941 151.008 83.8623 146.425 Q80.8068 141.818 80.8068 133.091 Q80.8068 124.341 83.8623 119.758 Q86.941 115.152 92.7512 115.152 Z" fill="#000000" fill-rule="nonzero" fill-opacity="1" /><path clip-path="url(#clip310)" d="M122.913 118.855 Q119.302 118.855 117.473 122.42 Q115.668 125.962 115.668 133.091 Q115.668 140.198 117.473 143.762 Q119.302 147.304 122.913 147.304 Q126.547 147.304 128.353 143.762 Q130.182 140.198 130.182 133.091 Q130.182 125.962 128.353 122.42 Q126.547 118.855 122.913 118.855 M122.913 115.152 Q128.723 115.152 131.779 119.758 Q134.857 124.341 134.857 133.091 Q134.857 141.818 131.779 146.425 Q128.723 151.008 122.913 151.008 Q117.103 151.008 114.024 146.425 Q110.969 141.818 110.969 133.091 Q110.969 124.341 114.024 119.758 Q117.103 115.152 122.913 115.152 Z" fill="#000000" fill-rule="nonzero" fill-opacity="1" /><polyline clip-path="url(#clip312)" style="stroke:#0000ff; stroke-linecap:round; stroke-linejoin:round; stroke-width:4; stroke-opacity:1; fill:none" points="232.609,1265.94 234.67,1242.64 236.73,1208.71 238.791,1162.36 240.851,1101.55 242.912,1024.34 244.972,929.37 247.032,816.7 249.093,688.805 251.153,551.575 253.214,414.825 255.274,291.696 257.335,196.465 259.395,141.043 261.456,131.366 263.516,165.42 265.577,234.06 267.637,324.25 269.697,423.13 271.758,521.175 273.818,613.453 275.879,699.036 277.939,779.274 280,855.881 282.06,929.63 284.121,1000 286.181,1065.59 288.242,1124.85 290.302,1176.64 292.362,1220.54 294.423,1256.74 296.483,1285.93 298.544,1309.04 300.604,1327.08 302.665,1341 304.725,1351.66 306.786,1359.75 308.846,1365.88 310.907,1370.49 312.967,1373.96 315.027,1376.56 317.088,1378.51 319.148,1379.96 321.209,1381.05 323.269,1381.86 325.33,1382.47 327.39,1382.92 329.451,1383.25 331.511,1383.51 333.572,1383.69 335.632,1383.83 337.692,1383.94 339.753,1384.01 341.813,1384.07 343.874,1384.11 345.934,1384.14 347.995,1384.17 350.055,1384.18 352.116,1384.2 354.176,1384.2 356.237,1384.21 358.297,1384.21 360.357,1384.21 362.418,1384.21 364.478,1384.2 366.539,1384.2 368.599,1384.18 370.66,1384.17 372.72,1384.14 374.781,1384.11 376.841,1384.07 378.902,1384.01 380.962,1383.93 383.022,1383.82 385.083,1383.68 387.143,1383.49 389.204,1383.23 391.264,1382.88 393.325,1382.42 395.385,1381.8 397.446,1380.97 399.506,1379.85 401.567,1378.37 403.627,1376.39 405.688,1373.75 407.748,1370.24 409.808,1365.61 411.869,1359.51 413.929,1351.53 415.99,1341.19 418.05,1327.93 420.111,1311.22 422.171,1290.56 424.232,1265.71 426.292,1236.87 428.353,1204.98 430.413,1171.89 432.473,1140.44 434.534,1114.22 436.594,1096.83 438.655,1091 440.715,1097.68 442.776,1115.78 444.836,1142.48 446.897,1174.15 448.957,1207.24 451.018,1238.97 453.078,1267.55 455.138,1292.11 457.199,1312.49 459.259,1328.95 461.32,1341.99 463.38,1352.15 465.441,1359.98 467.501,1365.97 469.562,1370.52 471.622,1373.95 473.683,1376.54 475.743,1378.49 477.803,1379.94 479.864,1381.03 481.924,1381.85 483.985,1382.45 486.045,1382.91 488.106,1383.25 490.166,1383.5 492.227,1383.69 494.287,1383.83 496.348,1383.93 498.408,1384.01 500.468,1384.07 502.529,1384.11 504.589,1384.14 506.65,1384.17 508.71,1384.18 510.771,1384.2 512.831,1384.2 514.892,1384.21 516.952,1384.21 519.013,1384.21 521.073,1384.21 523.133,1384.2 525.194,1384.19 527.254,1384.18 529.315,1384.16 531.375,1384.13 533.436,1384.1 535.496,1384.05 537.557,1383.98 539.617,1383.9 541.678,1383.78 543.738,1383.62 545.798,1383.41 547.859,1383.13 549.919,1382.75 551.98,1382.24 554.04,1381.56 556.101,1380.65 558.161,1379.42 560.222,1377.78 562.282,1375.57 564.343,1372.62 566.403,1368.67 568.463,1363.39 570.524,1356.34 572.584,1346.95 574.645,1334.47 576.705,1317.92 578.766,1296.1 580.826,1267.47 582.887,1230.22 584.947,1182.24 587.008,1121.3 589.068,1045.3 591.128,952.773 593.189,843.701 595.249,720.465 597.31,588.885 599.37,458.793 601.431,343.542 603.491,257.943 605.552,214.792 607.612,221.113 609.673,275.851 611.733,370.228 613.793,490.574 615.854,622.158 617.914,752.38 619.975,872.421 622.035,977.401 624.096,1065.64 626.156,1137.6 628.217,1194.96 630.277,1239.88 632.338,1274.57 634.398,1301.05 636.458,1321.04 638.519,1335.96 640.579,1346.91 642.64,1354.75 644.7,1360.09 646.761,1363.38 648.821,1364.88 650.882,1364.72 652.942,1362.89 655.003,1359.26 657.063,1353.56 659.123,1345.34 661.184,1334.04 663.244,1318.89 665.305,1298.98 667.365,1273.26 669.426,1240.62 671.486,1200.11 673.547,1151.2 675.607,1094.22 677.668,1030.88 679.728,964.739 681.789,901.359 683.849,847.812 685.909,811.39 687.97,797.735 690.03,809.107 692.091,843.624 694.151,895.898 696.212,958.71 698.272,1024.9 700.333,1088.75 702.393,1146.5 704.454,1196.31 706.514,1237.73 708.574,1271.26 710.635,1297.84 712.695,1318.59 714.756,1334.6 716.816,1346.85 718.877,1356.15 720.937,1363.18 722.998,1368.48 725.058,1372.45 727.119,1375.44 729.179,1377.67 731.239,1379.34 733.3,1380.58 735.36,1381.51 737.421,1382.2 739.481,1382.72 741.542,1383.11 743.602,1383.39 745.663,1383.61 747.723,1383.76 749.784,1383.88 751.844,1383.96 753.904,1384.02 755.965,1384.06 758.025,1384.09 760.086,1384.1 762.146,1384.1 764.207,1384.09 766.267,1384.07 768.328,1384.03 770.388,1383.97 772.449,1383.89 774.509,1383.78 776.569,1383.64 778.63,1383.43 780.69,1383.16 782.751,1382.79 784.811,1382.3 786.872,1381.64 788.932,1380.75 790.993,1379.57 793.053,1377.98 795.114,1375.85 797.174,1373.01 799.234,1369.21 801.295,1364.16 803.355,1357.44 805.416,1348.55 807.476,1336.83 809.537,1321.49 811.597,1301.56 813.658,1275.95 815.718,1243.54 817.779,1203.3 819.839,1154.6 821.899,1097.61 823.96,1033.85 826.02,966.596 828.081,901.147 830.141,844.344 832.202,803.366 834.262,783.873 836.323,788.21 838.383,814.515 840.444,857.216 842.504,908.63 844.564,960.871 846.625,1007.31 848.685,1043.28 850.746,1066.13 852.806,1075.01 854.867,1070.64 856.927,1055.2 858.988,1032.32 861.048,1006.94 863.109,984.85 865.169,971.671 867.229,971.65 869.29,986.532 871.35,1015.19 873.411,1054.15 875.471,1098.8 877.532,1144.63 879.592,1188.11 881.653,1227 883.713,1260.28 885.774,1287.81 887.834,1309.99 889.894,1327.53 891.955,1341.18 894.015,1351.7 896.076,1359.73 898.136,1365.83 900.197,1370.43 902.257,1373.88 904.318,1376.48 906.378,1378.41 908.439,1379.84 910.499,1380.9 912.559,1381.67 914.62,1382.22 916.68,1382.6 918.741,1382.83 920.801,1382.94 922.862,1382.93 924.922,1382.81 926.983,1382.57 929.043,1382.18 931.104,1381.61 933.164,1380.81 935.225,1379.72 937.285,1378.24 939.345,1376.23 941.406,1373.55 943.466,1369.94 945.527,1365.13 947.587,1358.71 949.648,1350.17 951.708,1338.86 953.769,1323.95 955.829,1304.41 957.89,1278.99 959.95,1246.29 962.01,1204.81 964.071,1153.17 966.131,1090.48 968.192,1016.82 970.252,933.962 972.313,846.023 974.373,759.796 976.434,684.344 978.494,629.524 980.555,603.617 982.615,610.86 984.675,650.048 986.736,714.938 988.796,796.249 990.857,884.215 992.917,970.636 994.978,1049.88 997.038,1118.91 999.099,1176.77 1001.16,1223.88 1003.22,1261.39 1005.28,1290.77 1007.34,1313.49 1009.4,1330.9 1011.46,1344.14 1013.52,1354.17 1015.58,1361.72 1017.64,1367.4 1019.7,1371.66 1021.76,1374.85 1023.82,1377.23 1025.88,1379.01 1027.94,1380.34 1030.01,1381.33 1032.07,1382.07 1034.13,1382.63 1036.19,1383.04 1038.25,1383.34 1040.31,1383.57 1042.37,1383.74 1044.43,1383.87 1046.49,1383.96 1048.55,1384.03 1050.61,1384.09 1052.67,1384.13 1054.73,1384.16 1056.79,1384.18 1058.85,1384.19 1060.91,1384.21 1062.97,1384.21 1065.03,1384.22 1067.09,1384.23 1069.15,1384.23 1071.21,1384.23 1073.28,1384.23 1075.34,1384.24 1077.4,1384.24 1079.46,1384.24 1081.52,1384.24 1083.58,1384.24 1085.64,1384.24 1087.7,1384.24 1089.76,1384.24 1091.82,1384.24 1093.88,1384.24 1095.94,1384.24 1098,1384.23 1100.06,1384.23 1102.12,1384.23 1104.18,1384.23 1106.24,1384.22 1108.3,1384.21 1110.36,1384.21 1112.42,1384.19 1114.48,1384.18 1116.54,1384.16 1118.61,1384.13 1120.67,1384.09 1122.73,1384.03 1124.79,1383.96 1126.85,1383.87 1128.91,1383.74 1130.97,1383.57 1133.03,1383.35 1135.09,1383.04 1137.15,1382.63 1139.21,1382.09 1141.27,1381.36 1143.33,1380.38 1145.39,1379.09 1147.45,1377.36 1149.51,1375.09 1151.57,1372.09 1153.63,1368.16 1155.69,1363.07 1157.75,1356.54 1159.81,1348.29 1161.87,1338.09 1163.94,1325.79 1166,1311.49 1168.06,1295.62 1170.12,1279.07 1172.18,1263.25 1174.24,1249.92 1176.3,1240.91 1178.36,1237.62 1180.42,1240.58 1182.48,1249.32 1184.54,1262.45 1186.6,1278.19 1188.66,1294.74 1190.72,1310.68 1192.78,1325.08 1194.84,1337.49 1196.9,1347.8 1198.96,1356.14 1201.02,1362.76 1203.08,1367.92 1205.14,1371.9 1207.2,1374.95 1209.27,1377.26 1211.33,1379.01 1213.39,1380.32 1215.45,1381.31 1217.51,1382.05 1219.57,1382.61 1221.63,1383.02 1223.69,1383.33 1225.75,1383.56 1227.81,1383.73 1229.87,1383.86 1231.93,1383.96 1233.99,1384.03 1236.05,1384.08 1238.11,1384.12 1240.17,1384.15 1242.23,1384.18 1244.29,1384.19 1246.35,1384.2 1248.41,1384.21 1250.47,1384.22 1252.53,1384.22 1254.6,1384.23 1256.66,1384.23 1258.72,1384.23 1260.78,1384.23 1262.84,1384.23 1264.9,1384.23 1266.96,1384.22 1269.02,1384.22 1271.08,1384.21 1273.14,1384.2 1275.2,1384.19 1277.26,1384.17 1279.32,1384.14 1281.38,1384.11 1283.44,1384.07 1285.5,1384.01 1287.56,1383.93 1289.62,1383.82 1291.68,1383.68 1293.74,1383.49 1295.8,1383.23 1297.86,1382.88 1299.93,1382.42 1301.99,1381.8 1304.05,1380.97 1306.11,1379.86 1308.17,1378.38 1310.23,1376.4 1312.29,1373.77 1314.35,1370.27 1316.41,1365.65 1318.47,1359.56 1320.53,1351.6 1322.59,1341.28 1324.65,1328.05 1326.71,1311.36 1328.77,1290.73 1330.83,1265.91 1332.89,1237.11 1334.95,1205.23 1337.01,1172.14 1339.07,1140.67 1341.13,1114.39 1343.19,1096.93 1345.26,1091 1347.32,1097.59 1349.38,1115.6 1351.44,1142.25 1353.5,1173.9 1355.56,1206.99 1357.62,1238.74 1359.68,1267.34 1361.74,1291.94 1363.8,1312.34 1365.86,1328.83 1367.92,1341.89 1369.98,1352.07 1372.04,1359.92 1374.1,1365.91 1376.16,1370.46 1378.22,1373.9 1380.28,1376.48 1382.34,1378.41 1384.4,1379.85 1386.46,1380.91 1388.52,1381.69 1390.59,1382.25 1392.65,1382.63 1394.71,1382.88 1396.77,1383 1398.83,1383.02 1400.89,1382.94 1402.95,1382.74 1405.01,1382.41 1407.07,1381.92 1409.13,1381.23 1411.19,1380.29 1413.25,1379 1415.31,1377.27 1417.37,1374.96 1419.43,1371.87 1421.49,1367.77 1423.55,1362.36 1425.61,1355.27 1427.67,1346.02 1429.73,1334.12 1431.79,1318.98 1433.85,1300.09 1435.92,1277.08 1437.98,1249.93 1440.04,1219.21 1442.1,1186.34 1444.16,1153.77 1446.22,1124.8 1448.28,1103.14 1450.34,1092.02 1452.4,1093.24 1454.46,1106.61 1456.52,1129.97 1458.58,1159.93 1460.64,1192.79 1462.7,1225.4 1464.76,1255.51 1466.82,1281.87 1468.88,1304.06 1470.94,1322.18 1473,1336.64 1475.06,1347.97 1477.12,1356.74 1479.18,1363.46 1481.25,1368.56 1483.31,1372.41 1485.37,1375.28 1487.43,1377.41 1489.49,1378.96 1491.55,1380.06 1493.61,1380.8 1495.67,1381.25 1497.73,1381.43 1499.79,1381.38 1501.85,1381.07 1503.91,1380.49 1505.97,1379.59 1508.03,1378.28 1510.09,1376.45 1512.15,1373.95 1514.21,1370.56 1516.27,1366 1518.33,1359.88 1520.39,1351.7 1522.45,1340.79 1524.51,1326.3 1526.58,1307.11 1528.64,1281.82 1530.7,1248.72 1532.76,1205.74 1534.82,1150.57 1536.88,1080.78 1538.94,994.222 1541,889.588 1543.06,767.306 1545.12,630.598 1547.18,486.426 1549.24,345.817 1551.3,222.91 1553.36,132.449 1555.42,86.1857 1557.48,89.6108 1559.54,140.572 1561.6,230.436 1563.66,346.997 1565.72,477.597 1567.78,611.276 1569.84,739.704 1571.91,857.271 1573.97,960.783 1576.03,1049.01 1578.09,1122.19 1580.15,1181.53 1582.21,1228.75 1584.27,1265.78 1586.33,1294.47 1588.39,1316.49 1590.45,1333.27 1592.51,1345.98 1594.57,1355.58 1596.63,1362.8 1598.69,1368.21 1600.75,1372.27 1602.81,1375.3 1604.87,1377.57 1606.93,1379.26 1608.99,1380.53 1611.05,1381.47 1613.11,1382.16 1615.17,1382.68 1617.24,1383.07 1619.3,1383.35 1621.36,1383.55 1623.42,1383.69 1625.48,1383.79 1627.54,1383.84 1629.6,1383.86 1631.66,1383.85 1633.72,1383.81 1635.78,1383.72 1637.84,1383.59 1639.9,1383.41 1641.96,1383.15 1644.02,1382.79 1646.08,1382.32 1648.14,1381.67 1650.2,1380.8 1652.26,1379.64 1654.32,1378.08 1656.38,1376 1658.44,1373.23 1660.5,1369.53 1662.57,1364.63 1664.63,1358.15 1666.69,1349.63 1668.75,1338.49 1670.81,1324.09 1672.87,1305.68 1674.93,1282.52 1676.99,1254.02 1679.05,1219.93 1681.11,1180.67 1683.17,1137.65 1685.23,1093.6 1687.29,1052.51 1689.35,1019.25 1691.41,998.525 1693.47,993.606 1695.53,1005.32 1697.59,1031.73 1699.65,1068.83 1701.71,1111.7 1703.77,1155.74 1705.83,1197.46 1707.9,1234.69 1709.96,1266.47 1712.02,1292.7 1714.08,1313.81 1716.14,1330.47 1718.2,1343.43 1720.26,1353.4 1722.32,1361.01 1724.38,1366.78 1726.44,1371.12 1728.5,1374.38 1730.56,1376.82 1732.62,1378.62 1734.68,1379.95 1736.74,1380.91 1738.8,1381.58 1740.86,1382.02 1742.92,1382.26 1744.98,1382.33 1747.04,1382.24 1749.1,1381.98 1751.16,1381.52 1753.23,1380.82 1755.29,1379.82 1757.35,1378.45 1759.41,1376.57 1761.47,1374.04 1763.53,1370.64 1765.59,1366.1 1767.65,1360.05 1769.71,1352.02 1771.77,1341.42 1773.83,1327.5 1775.89,1309.36 1777.95,1285.96 1780.01,1256.17 1782.07,1218.91 1784.13,1173.38 1786.19,1119.43 1788.25,1058.06 1790.31,991.9 1792.37,925.587 1794.43,865.55 1796.49,819.099 1798.56,792.735 1800.62,790.244 1802.68,811.412 1804.74,852.028 1806.8,905.189 1808.86,963.216 1810.92,1019.36 1812.98,1068.78 1815.04,1108.79 1817.1,1138.67 1819.16,1159.22 1821.22,1172.43 1823.28,1181.01 1825.34,1187.92 1827.4,1195.84 1829.46,1206.61 1831.52,1220.94 1833.58,1238.39 1835.64,1257.75 1837.7,1277.54 1839.76,1296.43 1841.82,1313.48 1843.89,1328.2 1845.95,1340.48 1848.01,1350.44 1850.07,1358.36 1852.13,1364.56 1854.19,1369.34 1856.25,1373.01 1858.31,1375.8 1860.37,1377.91 1862.43,1379.5 1864.49,1380.7 1866.55,1381.59 1868.61,1382.26 1870.67,1382.77 1872.73,1383.14 1874.79,1383.42 1876.85,1383.63 1878.91,1383.78 1880.97,1383.9 1883.03,1383.99 1885.09,1384.05 1887.15,1384.1 1889.22,1384.13 1891.28,1384.16 1893.34,1384.18 1895.4,1384.19 1897.46,1384.2 1899.52,1384.2 1901.58,1384.2 1903.64,1384.2 1905.7,1384.19 1907.76,1384.18 1909.82,1384.16 1911.88,1384.14 1913.94,1384.11 1916,1384.07 1918.06,1384.01 1920.12,1383.93 1922.18,1383.83 1924.24,1383.69 1926.3,1383.5 1928.36,1383.25 1930.42,1382.91 1932.48,1382.46 1934.55,1381.85 1936.61,1381.04 1938.67,1379.96 1940.73,1378.5 1942.79,1376.57 1944.85,1373.99 1946.91,1370.56 1948.97,1366.03 1951.03,1360.06 1953.09,1352.25 1955.15,1342.11 1957.21,1329.12 1959.27,1312.69 1961.33,1292.36 1963.39,1267.84 1965.45,1239.29 1967.51,1207.57 1969.57,1174.46 1971.63,1142.72 1973.69,1115.89 1975.75,1097.61 1977.81,1090.7 1979.88,1096.27 1981.94,1113.39 1984,1139.33 1986.06,1170.48 1988.12,1203.23 1990.18,1234.7 1992.24,1262.96 1994.3,1287.03 1996.36,1306.64 1998.42,1321.92 2000.48,1333.24 2002.54,1340.98 2004.6,1345.48 2006.66,1346.94 2008.72,1345.42 2010.78,1340.82 2012.84,1332.85 2014.9,1321.05 2016.96,1304.86 2019.02,1283.64 2021.08,1256.82 2023.14,1224.08 2025.21,1185.69 2027.27,1142.8 2029.33,1097.79 2031.39,1054.35 2033.45,1017.08 2035.51,990.674 2037.57,978.608 2039.63,981.991 2041.69,999.076 2043.75,1025.69 2045.81,1056.34 2047.87,1085.44 2049.93,1108.18 2051.99,1120.88 2054.05,1120.92 2056.11,1106.55 2058.17,1076.74 2060.23,1031.25 2062.29,970.954 2064.35,898.425 2066.41,818.501 2068.47,738.609 2070.54,668.309 2072.6,617.803 2074.66,595.551 2076.72,605.842 2078.78,647.451 2080.84,714.127 2082.9,796.623 2084.96,885.268 2087.02,971.989 2089.08,1051.28 2091.14,1120.21 2093.2,1177.9 2095.26,1224.82 2097.32,1262.15 2099.38,1291.37 2101.44,1313.96 2103.5,1331.26 2105.56,1344.42 2107.62,1354.37 2109.68,1361.88 2111.74,1367.52 2113.8,1371.75 2115.87,1374.91 2117.93,1377.28 2119.99,1379.05 2122.05,1380.37 2124.11,1381.35 2126.17,1382.09 2128.23,1382.64 2130.29,1383.05 2132.35,1383.35 2134.41,1383.58 2136.47,1383.75 2138.53,1383.87 2140.59,1383.97 2142.65,1384.04 2144.71,1384.09 2146.77,1384.13 2148.83,1384.16 2150.89,1384.18 2152.95,1384.19 2155.01,1384.21 2157.07,1384.21 2159.13,1384.22 2161.2,1384.23 2163.26,1384.23 2165.32,1384.23 2167.38,1384.23 2169.44,1384.23 2171.5,1384.23 2173.56,1384.23 2175.62,1384.23 2177.68,1384.23 2179.74,1384.23 2181.8,1384.23 2183.86,1384.23 2185.92,1384.22 2187.98,1384.21 2190.04,1384.2 2192.1,1384.19 2194.16,1384.18 2196.22,1384.16 2198.28,1384.13 2200.34,1384.09 2202.4,1384.03 2204.46,1383.96 2206.53,1383.87 2208.59,1383.74 2210.65,1383.57 2212.71,1383.35 2214.77,1383.04 2216.83,1382.63 2218.89,1382.08 2220.95,1381.34 2223.01,1380.35 2225.07,1379.03 2227.13,1377.26 2229.19,1374.89 2231.25,1371.72 2233.31,1367.5 2235.37,1361.89 2237.43,1354.43 2239.49,1344.58 2241.55,1331.63 2243.61,1314.73 2245.67,1292.85 2247.73,1264.91 2249.79,1229.79 2251.86,1186.6 2253.92,1134.99 2255.98,1075.6 2258.04,1010.63 2260.1,944.164 2262.16,882.237 2264.22,832.066 2266.28,800.568 2268.34,792.434 2270.4,808.608 2272.46,845.903 2274.52,897.983 2276.58,957.162 2278.64,1016.17 2280.7,1069.26 2282.76,1112.52 2284.82,1143.6 2286.88,1161.16 2288.94,1164.36 2291,1152.4 "/>
<polyline clip-path="url(#clip312)" style="stroke:#008000; stroke-linecap:round; stroke-linejoin:round; stroke-width:6; stroke-opacity:1; fill:none" points="1261.81,2799.12 1261.81,-1328.69 "/>
<path clip-path="url(#clip310)" d="M1965.22 248.629 L2280.03 248.629 L2280.03 93.1086 L1965.22 93.1086  Z" fill="#ffffff" fill-rule="evenodd" fill-opacity="1"/>
<polyline clip-path="url(#clip310)" style="stroke:#000000; stroke-linecap:round; stroke-linejoin:round; stroke-width:4; stroke-opacity:1; fill:none" points="1965.22,248.629 2280.03,248.629 2280.03,93.1086 1965.22,93.1086 1965.22,248.629 "/>
<polyline clip-path="url(#clip310)" style="stroke:#0000ff; stroke-linecap:round; stroke-linejoin:round; stroke-width:4; stroke-opacity:1; fill:none" points="1989.46,144.949 2134.92,144.949 "/>
<path clip-path="url(#clip310)" d="M2163.84 131.511 L2163.84 158.386 L2169.49 158.386 Q2176.64 158.386 2179.95 155.145 Q2183.28 151.905 2183.28 144.914 Q2183.28 137.969 2179.95 134.752 Q2176.64 131.511 2169.49 131.511 L2163.84 131.511 M2159.16 127.669 L2168.77 127.669 Q2178.82 127.669 2183.51 131.858 Q2188.21 136.025 2188.21 144.914 Q2188.21 153.849 2183.49 158.039 Q2178.77 162.229 2168.77 162.229 L2159.16 162.229 L2159.16 127.669 Z" fill="#000000" fill-rule="nonzero" fill-opacity="1" /><path clip-path="url(#clip310)" d="M2209.69 130.84 Q2204.6 130.84 2201.59 134.636 Q2198.61 138.432 2198.61 144.983 Q2198.61 151.511 2201.59 155.307 Q2204.6 159.104 2209.69 159.104 Q2214.79 159.104 2217.75 155.307 Q2220.74 151.511 2220.74 144.983 Q2220.74 138.432 2217.75 134.636 Q2214.79 130.84 2209.69 130.84 M2209.69 127.044 Q2216.96 127.044 2221.32 131.928 Q2225.67 136.789 2225.67 144.983 Q2225.67 153.155 2221.32 158.039 Q2216.96 162.9 2209.69 162.9 Q2202.4 162.9 2198.03 158.039 Q2193.68 153.178 2193.68 144.983 Q2193.68 136.789 2198.03 131.928 Q2202.4 127.044 2209.69 127.044 Z" fill="#000000" fill-rule="nonzero" fill-opacity="1" /><path clip-path="url(#clip310)" d="M2253.7 128.803 L2253.7 133.363 Q2251.04 132.09 2248.68 131.465 Q2246.32 130.84 2244.12 130.84 Q2240.3 130.84 2238.21 132.321 Q2236.15 133.803 2236.15 136.534 Q2236.15 138.826 2237.52 140.007 Q2238.91 141.164 2242.75 141.882 L2245.57 142.46 Q2250.81 143.456 2253.28 145.979 Q2255.78 148.479 2255.78 152.692 Q2255.78 157.715 2252.4 160.307 Q2249.05 162.9 2242.54 162.9 Q2240.09 162.9 2237.31 162.344 Q2234.56 161.789 2231.59 160.701 L2231.59 155.886 Q2234.44 157.483 2237.17 158.293 Q2239.9 159.104 2242.54 159.104 Q2246.55 159.104 2248.72 157.53 Q2250.9 155.956 2250.9 153.039 Q2250.9 150.493 2249.32 149.057 Q2247.77 147.622 2244.21 146.905 L2241.36 146.349 Q2236.13 145.307 2233.79 143.085 Q2231.45 140.863 2231.45 136.905 Q2231.45 132.321 2234.67 129.682 Q2237.91 127.044 2243.58 127.044 Q2246.01 127.044 2248.54 127.483 Q2251.06 127.923 2253.7 128.803 Z" fill="#000000" fill-rule="nonzero" fill-opacity="1" /><polyline clip-path="url(#clip310)" style="stroke:#008000; stroke-linecap:round; stroke-linejoin:round; stroke-width:6; stroke-opacity:1; fill:none" points="1989.46,196.789 2134.92,196.789 "/>
<path clip-path="url(#clip310)" d="M2165.23 200.087 Q2162.63 199.532 2161.25 198.027 Q2159.86 196.546 2159.86 194.393 Q2159.86 191.129 2162.5 189.3 Q2165.11 187.495 2169.65 187.495 Q2171.41 187.495 2173.38 187.772 Q2175.34 188.05 2177.61 188.606 L2177.61 192.472 Q2175.37 191.8 2173.51 191.499 Q2171.64 191.198 2170 191.198 Q2167.24 191.198 2165.64 192.263 Q2164.02 193.328 2164.02 194.809 Q2164.02 196.43 2165.6 197.471 Q2167.15 198.49 2169.83 198.49 L2173.42 198.49 L2173.42 202.008 L2170 202.008 Q2166.82 202.008 2165.16 203.189 Q2163.35 204.485 2163.35 206.522 Q2163.35 208.606 2165.3 209.902 Q2167.26 211.198 2170.76 211.198 Q2172.91 211.198 2174.88 210.782 Q2176.85 210.342 2178.49 209.485 L2178.49 213.444 Q2176.41 214.092 2174.46 214.416 Q2172.5 214.74 2170.64 214.74 Q2165.13 214.74 2162.15 212.633 Q2159.16 210.527 2159.16 206.522 Q2159.16 204.022 2160.76 202.333 Q2162.36 200.643 2165.23 200.087 Z" fill="#000000" fill-rule="nonzero" fill-opacity="1" /><path clip-path="url(#clip310)" d="M2186.36 179.509 L2206.22 179.509 L2206.22 183.444 L2191.04 183.444 L2191.04 193.629 L2204.74 193.629 L2204.74 197.564 L2191.04 197.564 L2191.04 214.069 L2186.36 214.069 L2186.36 179.509 Z" fill="#000000" fill-rule="nonzero" fill-opacity="1" /></svg>
