<?xml version="1.0" encoding="utf-8"?>
<svg xmlns="http://www.w3.org/2000/svg" xmlns:xlink="http://www.w3.org/1999/xlink" width="600" height="400" viewBox="0 0 2400 1600">
<defs>
  <clipPath id="clip800">
    <rect x="0" y="0" width="2400" height="1600"/>
  </clipPath>
</defs>
<path clip-path="url(#clip800)" d="M0 1600 L2400 1600 L2400 0 L0 0  Z" fill="#ffffff" fill-rule="evenodd" fill-opacity="1"/>
<defs>
  <clipPath id="clip801">
    <rect x="480" y="0" width="1681" height="1600"/>
  </clipPath>
</defs>
<path clip-path="url(#clip800)" d="M347.69 1423.18 L2352.76 1423.18 L2352.76 47.2441 L347.69 47.2441  Z" fill="#ffffff" fill-rule="evenodd" fill-opacity="1"/>
<defs>
  <clipPath id="clip802">
    <rect x="347" y="47" width="2006" height="1377"/>
  </clipPath>
</defs>
<polyline clip-path="url(#clip802)" style="stroke:#000000; stroke-linecap:round; stroke-linejoin:round; stroke-width:2; stroke-opacity:0.1; fill:none" points="404.437,1423.18 404.437,47.2441 "/>
<polyline clip-path="url(#clip802)" style="stroke:#000000; stroke-linecap:round; stroke-linejoin:round; stroke-width:2; stroke-opacity:0.1; fill:none" points="877.626,1423.18 877.626,47.2441 "/>
<polyline clip-path="url(#clip802)" style="stroke:#000000; stroke-linecap:round; stroke-linejoin:round; stroke-width:2; stroke-opacity:0.1; fill:none" points="1350.81,1423.18 1350.81,47.2441 "/>
<polyline clip-path="url(#clip802)" style="stroke:#000000; stroke-linecap:round; stroke-linejoin:round; stroke-width:2; stroke-opacity:0.1; fill:none" points="1824,1423.18 1824,47.2441 "/>
<polyline clip-path="url(#clip802)" style="stroke:#000000; stroke-linecap:round; stroke-linejoin:round; stroke-width:2; stroke-opacity:0.1; fill:none" points="2297.19,1423.18 2297.19,47.2441 "/>
<polyline clip-path="url(#clip800)" style="stroke:#000000; stroke-linecap:round; stroke-linejoin:round; stroke-width:4; stroke-opacity:1; fill:none" points="347.69,1423.18 2352.76,1423.18 "/>
<polyline clip-path="url(#clip800)" style="stroke:#000000; stroke-linecap:round; stroke-linejoin:round; stroke-width:4; stroke-opacity:1; fill:none" points="404.437,1423.18 404.437,1404.28 "/>
<polyline clip-path="url(#clip800)" style="stroke:#000000; stroke-linecap:round; stroke-linejoin:round; stroke-width:4; stroke-opacity:1; fill:none" points="877.626,1423.18 877.626,1404.28 "/>
<polyline clip-path="url(#clip800)" style="stroke:#000000; stroke-linecap:round; stroke-linejoin:round; stroke-width:4; stroke-opacity:1; fill:none" points="1350.81,1423.18 1350.81,1404.28 "/>
<polyline clip-path="url(#clip800)" style="stroke:#000000; stroke-linecap:round; stroke-linejoin:round; stroke-width:4; stroke-opacity:1; fill:none" points="1824,1423.18 1824,1404.28 "/>
<polyline clip-path="url(#clip800)" style="stroke:#000000; stroke-linecap:round; stroke-linejoin:round; stroke-width:4; stroke-opacity:1; fill:none" points="2297.19,1423.18 2297.19,1404.28 "/>
<path clip-path="url(#clip800)" d="M404.437 1454.1 Q400.826 1454.1 398.997 1457.66 Q397.191 1461.2 397.191 1468.33 Q397.191 1475.44 398.997 1479.01 Q400.826 1482.55 404.437 1482.55 Q408.071 1482.55 409.877 1479.01 Q411.705 1475.44 411.705 1468.33 Q411.705 1461.2 409.877 1457.66 Q408.071 1454.1 404.437 1454.1 M404.437 1450.39 Q410.247 1450.39 413.303 1455 Q416.381 1459.58 416.381 1468.33 Q416.381 1477.06 413.303 1481.67 Q410.247 1486.25 404.437 1486.25 Q398.627 1486.25 395.548 1481.67 Q392.492 1477.06 392.492 1468.33 Q392.492 1459.58 395.548 1455 Q398.627 1450.39 404.437 1450.39 Z" fill="#000000" fill-rule="nonzero" fill-opacity="1" /><path clip-path="url(#clip800)" d="M856.896 1481.64 L873.216 1481.64 L873.216 1485.58 L851.272 1485.58 L851.272 1481.64 Q853.934 1478.89 858.517 1474.26 Q863.123 1469.61 864.304 1468.27 Q866.549 1465.74 867.429 1464.01 Q868.332 1462.25 868.332 1460.56 Q868.332 1457.8 866.387 1456.07 Q864.466 1454.33 861.364 1454.33 Q859.165 1454.33 856.711 1455.09 Q854.281 1455.86 851.503 1457.41 L851.503 1452.69 Q854.327 1451.55 856.781 1450.97 Q859.234 1450.39 861.271 1450.39 Q866.642 1450.39 869.836 1453.08 Q873.031 1455.77 873.031 1460.26 Q873.031 1462.39 872.22 1464.31 Q871.433 1466.2 869.327 1468.8 Q868.748 1469.47 865.646 1472.69 Q862.545 1475.88 856.896 1481.64 Z" fill="#000000" fill-rule="nonzero" fill-opacity="1" /><path clip-path="url(#clip800)" d="M883.077 1451.02 L901.433 1451.02 L901.433 1454.96 L887.359 1454.96 L887.359 1463.43 Q888.378 1463.08 889.396 1462.92 Q890.415 1462.73 891.433 1462.73 Q897.22 1462.73 900.6 1465.9 Q903.98 1469.08 903.98 1474.49 Q903.98 1480.07 900.507 1483.17 Q897.035 1486.25 890.716 1486.25 Q888.54 1486.25 886.271 1485.88 Q884.026 1485.51 881.619 1484.77 L881.619 1480.07 Q883.702 1481.2 885.924 1481.76 Q888.146 1482.32 890.623 1482.32 Q894.628 1482.32 896.966 1480.21 Q899.304 1478.1 899.304 1474.49 Q899.304 1470.88 896.966 1468.77 Q894.628 1466.67 890.623 1466.67 Q888.748 1466.67 886.873 1467.08 Q885.021 1467.5 883.077 1468.38 L883.077 1451.02 Z" fill="#000000" fill-rule="nonzero" fill-opacity="1" /><path clip-path="url(#clip800)" d="M1325.51 1451.02 L1343.87 1451.02 L1343.87 1454.96 L1329.8 1454.96 L1329.8 1463.43 Q1330.81 1463.08 1331.83 1462.92 Q1332.85 1462.73 1333.87 1462.73 Q1339.66 1462.73 1343.04 1465.9 Q1346.42 1469.08 1346.42 1474.49 Q1346.42 1480.07 1342.94 1483.17 Q1339.47 1486.25 1333.15 1486.25 Q1330.98 1486.25 1328.71 1485.88 Q1326.46 1485.51 1324.06 1484.77 L1324.06 1480.07 Q1326.14 1481.2 1328.36 1481.76 Q1330.58 1482.32 1333.06 1482.32 Q1337.06 1482.32 1339.4 1480.21 Q1341.74 1478.1 1341.74 1474.49 Q1341.74 1470.88 1339.4 1468.77 Q1337.06 1466.67 1333.06 1466.67 Q1331.18 1466.67 1329.31 1467.08 Q1327.46 1467.5 1325.51 1468.38 L1325.51 1451.02 Z" fill="#000000" fill-rule="nonzero" fill-opacity="1" /><path clip-path="url(#clip800)" d="M1365.63 1454.1 Q1362.02 1454.1 1360.19 1457.66 Q1358.38 1461.2 1358.38 1468.33 Q1358.38 1475.44 1360.19 1479.01 Q1362.02 1482.55 1365.63 1482.55 Q1369.26 1482.55 1371.07 1479.01 Q1372.9 1475.44 1372.9 1468.33 Q1372.9 1461.2 1371.07 1457.66 Q1369.26 1454.1 1365.63 1454.1 M1365.63 1450.39 Q1371.44 1450.39 1374.49 1455 Q1377.57 1459.58 1377.57 1468.33 Q1377.57 1477.06 1374.49 1481.67 Q1371.44 1486.25 1365.63 1486.25 Q1359.82 1486.25 1356.74 1481.67 Q1353.68 1477.06 1353.68 1468.33 Q1353.68 1459.58 1356.74 1455 Q1359.82 1450.39 1365.63 1450.39 Z" fill="#000000" fill-rule="nonzero" fill-opacity="1" /><path clip-path="url(#clip800)" d="M1797.86 1451.02 L1820.08 1451.02 L1820.08 1453.01 L1807.53 1485.58 L1802.65 1485.58 L1814.45 1454.96 L1797.86 1454.96 L1797.86 1451.02 Z" fill="#000000" fill-rule="nonzero" fill-opacity="1" /><path clip-path="url(#clip800)" d="M1829.25 1451.02 L1847.6 1451.02 L1847.6 1454.96 L1833.53 1454.96 L1833.53 1463.43 Q1834.55 1463.08 1835.57 1462.92 Q1836.58 1462.73 1837.6 1462.73 Q1843.39 1462.73 1846.77 1465.9 Q1850.15 1469.08 1850.15 1474.49 Q1850.15 1480.07 1846.68 1483.17 Q1843.2 1486.25 1836.88 1486.25 Q1834.71 1486.25 1832.44 1485.88 Q1830.2 1485.51 1827.79 1484.77 L1827.79 1480.07 Q1829.87 1481.2 1832.09 1481.76 Q1834.32 1482.32 1836.79 1482.32 Q1840.8 1482.32 1843.13 1480.21 Q1845.47 1478.1 1845.47 1474.49 Q1845.47 1470.88 1843.13 1468.77 Q1840.8 1466.67 1836.79 1466.67 Q1834.92 1466.67 1833.04 1467.08 Q1831.19 1467.5 1829.25 1468.38 L1829.25 1451.02 Z" fill="#000000" fill-rule="nonzero" fill-opacity="1" /><path clip-path="url(#clip800)" d="M2256.8 1481.64 L2264.44 1481.64 L2264.44 1455.28 L2256.13 1456.95 L2256.13 1452.69 L2264.39 1451.02 L2269.07 1451.02 L2269.07 1481.64 L2276.71 1481.64 L2276.71 1485.58 L2256.8 1485.58 L2256.8 1481.64 Z" fill="#000000" fill-rule="nonzero" fill-opacity="1" /><path clip-path="url(#clip800)" d="M2296.15 1454.1 Q2292.54 1454.1 2290.71 1457.66 Q2288.9 1461.2 2288.9 1468.33 Q2288.9 1475.44 2290.71 1479.01 Q2292.54 1482.55 2296.15 1482.55 Q2299.78 1482.55 2301.59 1479.01 Q2303.42 1475.44 2303.42 1468.33 Q2303.42 1461.2 2301.59 1457.66 Q2299.78 1454.1 2296.15 1454.1 M2296.15 1450.39 Q2301.96 1450.39 2305.02 1455 Q2308.09 1459.58 2308.09 1468.33 Q2308.09 1477.06 2305.02 1481.67 Q2301.96 1486.25 2296.15 1486.25 Q2290.34 1486.25 2287.26 1481.67 Q2284.21 1477.06 2284.21 1468.33 Q2284.21 1459.58 2287.26 1455 Q2290.34 1450.39 2296.15 1450.39 Z" fill="#000000" fill-rule="nonzero" fill-opacity="1" /><path clip-path="url(#clip800)" d="M2326.31 1454.1 Q2322.7 1454.1 2320.87 1457.66 Q2319.07 1461.2 2319.07 1468.33 Q2319.07 1475.44 2320.87 1479.01 Q2322.7 1482.55 2326.31 1482.55 Q2329.95 1482.55 2331.75 1479.01 Q2333.58 1475.44 2333.58 1468.33 Q2333.58 1461.2 2331.75 1457.66 Q2329.95 1454.1 2326.31 1454.1 M2326.31 1450.39 Q2332.12 1450.39 2335.18 1455 Q2338.26 1459.58 2338.26 1468.33 Q2338.26 1477.06 2335.18 1481.67 Q2332.12 1486.25 2326.31 1486.25 Q2320.5 1486.25 2317.42 1481.67 Q2314.37 1477.06 2314.37 1468.33 Q2314.37 1459.58 2317.42 1455 Q2320.5 1450.39 2326.31 1450.39 Z" fill="#000000" fill-rule="nonzero" fill-opacity="1" /><path clip-path="url(#clip800)" d="M1366.84 1532.4 L1353.95 1549.74 L1367.51 1568.04 L1360.6 1568.04 L1350.22 1554.04 L1339.85 1568.04 L1332.94 1568.04 L1346.79 1549.39 L1334.12 1532.4 L1341.02 1532.4 L1350.48 1545.1 L1359.93 1532.4 L1366.84 1532.4 Z" fill="#000000" fill-rule="nonzero" fill-opacity="1" /><polyline clip-path="url(#clip802)" style="stroke:#000000; stroke-linecap:round; stroke-linejoin:round; stroke-width:2; stroke-opacity:0.1; fill:none" points="347.69,1165.54 2352.76,1165.54 "/>
<polyline clip-path="url(#clip802)" style="stroke:#000000; stroke-linecap:round; stroke-linejoin:round; stroke-width:2; stroke-opacity:0.1; fill:none" points="347.69,888.332 2352.76,888.332 "/>
<polyline clip-path="url(#clip802)" style="stroke:#000000; stroke-linecap:round; stroke-linejoin:round; stroke-width:2; stroke-opacity:0.1; fill:none" points="347.69,611.122 2352.76,611.122 "/>
<polyline clip-path="url(#clip802)" style="stroke:#000000; stroke-linecap:round; stroke-linejoin:round; stroke-width:2; stroke-opacity:0.1; fill:none" points="347.69,333.911 2352.76,333.911 "/>
<polyline clip-path="url(#clip802)" style="stroke:#000000; stroke-linecap:round; stroke-linejoin:round; stroke-width:2; stroke-opacity:0.1; fill:none" points="347.69,56.7003 2352.76,56.7003 "/>
<polyline clip-path="url(#clip800)" style="stroke:#000000; stroke-linecap:round; stroke-linejoin:round; stroke-width:4; stroke-opacity:1; fill:none" points="347.69,1423.18 347.69,47.2441 "/>
<polyline clip-path="url(#clip800)" style="stroke:#000000; stroke-linecap:round; stroke-linejoin:round; stroke-width:4; stroke-opacity:1; fill:none" points="347.69,1165.54 366.587,1165.54 "/>
<polyline clip-path="url(#clip800)" style="stroke:#000000; stroke-linecap:round; stroke-linejoin:round; stroke-width:4; stroke-opacity:1; fill:none" points="347.69,888.332 366.587,888.332 "/>
<polyline clip-path="url(#clip800)" style="stroke:#000000; stroke-linecap:round; stroke-linejoin:round; stroke-width:4; stroke-opacity:1; fill:none" points="347.69,611.122 366.587,611.122 "/>
<polyline clip-path="url(#clip800)" style="stroke:#000000; stroke-linecap:round; stroke-linejoin:round; stroke-width:4; stroke-opacity:1; fill:none" points="347.69,333.911 366.587,333.911 "/>
<polyline clip-path="url(#clip800)" style="stroke:#000000; stroke-linecap:round; stroke-linejoin:round; stroke-width:4; stroke-opacity:1; fill:none" points="347.69,56.7003 366.587,56.7003 "/>
<path clip-path="url(#clip800)" d="M114.26 1165.99 L143.936 1165.99 L143.936 1169.93 L114.26 1169.93 L114.26 1165.99 Z" fill="#000000" fill-rule="nonzero" fill-opacity="1" /><path clip-path="url(#clip800)" d="M164.028 1151.34 Q160.417 1151.34 158.589 1154.91 Q156.783 1158.45 156.783 1165.58 Q156.783 1172.68 158.589 1176.25 Q160.417 1179.79 164.028 1179.79 Q167.663 1179.79 169.468 1176.25 Q171.297 1172.68 171.297 1165.58 Q171.297 1158.45 169.468 1154.91 Q167.663 1151.34 164.028 1151.34 M164.028 1147.64 Q169.839 1147.64 172.894 1152.24 Q175.973 1156.83 175.973 1165.58 Q175.973 1174.3 172.894 1178.91 Q169.839 1183.49 164.028 1183.49 Q158.218 1183.49 155.14 1178.91 Q152.084 1174.3 152.084 1165.58 Q152.084 1156.83 155.14 1152.24 Q158.218 1147.64 164.028 1147.64 Z" fill="#000000" fill-rule="nonzero" fill-opacity="1" /><path clip-path="url(#clip800)" d="M184.19 1176.94 L189.075 1176.94 L189.075 1182.82 L184.19 1182.82 L184.19 1176.94 Z" fill="#000000" fill-rule="nonzero" fill-opacity="1" /><path clip-path="url(#clip800)" d="M209.26 1151.34 Q205.649 1151.34 203.82 1154.91 Q202.014 1158.45 202.014 1165.58 Q202.014 1172.68 203.82 1176.25 Q205.649 1179.79 209.26 1179.79 Q212.894 1179.79 214.699 1176.25 Q216.528 1172.68 216.528 1165.58 Q216.528 1158.45 214.699 1154.91 Q212.894 1151.34 209.26 1151.34 M209.26 1147.64 Q215.07 1147.64 218.125 1152.24 Q221.204 1156.83 221.204 1165.58 Q221.204 1174.3 218.125 1178.91 Q215.07 1183.49 209.26 1183.49 Q203.449 1183.49 200.371 1178.91 Q197.315 1174.3 197.315 1165.58 Q197.315 1156.83 200.371 1152.24 Q203.449 1147.64 209.26 1147.64 Z" fill="#000000" fill-rule="nonzero" fill-opacity="1" /><path clip-path="url(#clip800)" d="M230.232 1178.89 L237.871 1178.89 L237.871 1152.52 L229.56 1154.19 L229.56 1149.93 L237.824 1148.26 L242.5 1148.26 L242.5 1178.89 L250.139 1178.89 L250.139 1182.82 L230.232 1182.82 L230.232 1178.89 Z" fill="#000000" fill-rule="nonzero" fill-opacity="1" /><path clip-path="url(#clip800)" d="M269.583 1151.34 Q265.972 1151.34 264.144 1154.91 Q262.338 1158.45 262.338 1165.58 Q262.338 1172.68 264.144 1176.25 Q265.972 1179.79 269.583 1179.79 Q273.218 1179.79 275.023 1176.25 Q276.852 1172.68 276.852 1165.58 Q276.852 1158.45 275.023 1154.91 Q273.218 1151.34 269.583 1151.34 M269.583 1147.64 Q275.394 1147.64 278.449 1152.24 Q281.528 1156.83 281.528 1165.58 Q281.528 1174.3 278.449 1178.91 Q275.394 1183.49 269.583 1183.49 Q263.773 1183.49 260.695 1178.91 Q257.639 1174.3 257.639 1165.58 Q257.639 1156.83 260.695 1152.24 Q263.773 1147.64 269.583 1147.64 Z" fill="#000000" fill-rule="nonzero" fill-opacity="1" /><path clip-path="url(#clip800)" d="M299.745 1151.34 Q296.134 1151.34 294.305 1154.91 Q292.5 1158.45 292.5 1165.58 Q292.5 1172.68 294.305 1176.25 Q296.134 1179.79 299.745 1179.79 Q303.38 1179.79 305.185 1176.25 Q307.014 1172.68 307.014 1165.58 Q307.014 1158.45 305.185 1154.91 Q303.38 1151.34 299.745 1151.34 M299.745 1147.64 Q305.555 1147.64 308.611 1152.24 Q311.69 1156.83 311.69 1165.58 Q311.69 1174.3 308.611 1178.91 Q305.555 1183.49 299.745 1183.49 Q293.935 1183.49 290.856 1178.91 Q287.801 1174.3 287.801 1165.58 Q287.801 1156.83 290.856 1152.24 Q293.935 1147.64 299.745 1147.64 Z" fill="#000000" fill-rule="nonzero" fill-opacity="1" /><path clip-path="url(#clip800)" d="M115.256 888.784 L144.931 888.784 L144.931 892.719 L115.256 892.719 L115.256 888.784 Z" fill="#000000" fill-rule="nonzero" fill-opacity="1" /><path clip-path="url(#clip800)" d="M165.024 874.131 Q161.413 874.131 159.584 877.696 Q157.778 881.237 157.778 888.367 Q157.778 895.474 159.584 899.038 Q161.413 902.58 165.024 902.58 Q168.658 902.58 170.464 899.038 Q172.292 895.474 172.292 888.367 Q172.292 881.237 170.464 877.696 Q168.658 874.131 165.024 874.131 M165.024 870.427 Q170.834 870.427 173.889 875.034 Q176.968 879.617 176.968 888.367 Q176.968 897.094 173.889 901.7 Q170.834 906.284 165.024 906.284 Q159.214 906.284 156.135 901.7 Q153.079 897.094 153.079 888.367 Q153.079 879.617 156.135 875.034 Q159.214 870.427 165.024 870.427 Z" fill="#000000" fill-rule="nonzero" fill-opacity="1" /><path clip-path="url(#clip800)" d="M185.186 899.733 L190.07 899.733 L190.07 905.612 L185.186 905.612 L185.186 899.733 Z" fill="#000000" fill-rule="nonzero" fill-opacity="1" /><path clip-path="url(#clip800)" d="M210.255 874.131 Q206.644 874.131 204.815 877.696 Q203.01 881.237 203.01 888.367 Q203.01 895.474 204.815 899.038 Q206.644 902.58 210.255 902.58 Q213.889 902.58 215.695 899.038 Q217.523 895.474 217.523 888.367 Q217.523 881.237 215.695 877.696 Q213.889 874.131 210.255 874.131 M210.255 870.427 Q216.065 870.427 219.121 875.034 Q222.199 879.617 222.199 888.367 Q222.199 897.094 219.121 901.7 Q216.065 906.284 210.255 906.284 Q204.445 906.284 201.366 901.7 Q198.311 897.094 198.311 888.367 Q198.311 879.617 201.366 875.034 Q204.445 870.427 210.255 870.427 Z" fill="#000000" fill-rule="nonzero" fill-opacity="1" /><path clip-path="url(#clip800)" d="M240.417 874.131 Q236.806 874.131 234.977 877.696 Q233.172 881.237 233.172 888.367 Q233.172 895.474 234.977 899.038 Q236.806 902.58 240.417 902.58 Q244.051 902.58 245.857 899.038 Q247.685 895.474 247.685 888.367 Q247.685 881.237 245.857 877.696 Q244.051 874.131 240.417 874.131 M240.417 870.427 Q246.227 870.427 249.283 875.034 Q252.361 879.617 252.361 888.367 Q252.361 897.094 249.283 901.7 Q246.227 906.284 240.417 906.284 Q234.607 906.284 231.528 901.7 Q228.473 897.094 228.473 888.367 Q228.473 879.617 231.528 875.034 Q234.607 870.427 240.417 870.427 Z" fill="#000000" fill-rule="nonzero" fill-opacity="1" /><path clip-path="url(#clip800)" d="M259.398 871.052 L281.62 871.052 L281.62 873.043 L269.074 905.612 L264.19 905.612 L275.995 874.988 L259.398 874.988 L259.398 871.052 Z" fill="#000000" fill-rule="nonzero" fill-opacity="1" /><path clip-path="url(#clip800)" d="M290.787 871.052 L309.143 871.052 L309.143 874.988 L295.069 874.988 L295.069 883.46 Q296.088 883.112 297.106 882.95 Q298.125 882.765 299.143 882.765 Q304.93 882.765 308.31 885.937 Q311.69 889.108 311.69 894.524 Q311.69 900.103 308.217 903.205 Q304.745 906.284 298.426 906.284 Q296.25 906.284 293.981 905.913 Q291.736 905.543 289.329 904.802 L289.329 900.103 Q291.412 901.237 293.634 901.793 Q295.856 902.348 298.333 902.348 Q302.338 902.348 304.676 900.242 Q307.014 898.136 307.014 894.524 Q307.014 890.913 304.676 888.807 Q302.338 886.7 298.333 886.7 Q296.458 886.7 294.583 887.117 Q292.731 887.534 290.787 888.413 L290.787 871.052 Z" fill="#000000" fill-rule="nonzero" fill-opacity="1" /><path clip-path="url(#clip800)" d="M114.26 611.573 L143.936 611.573 L143.936 615.508 L114.26 615.508 L114.26 611.573 Z" fill="#000000" fill-rule="nonzero" fill-opacity="1" /><path clip-path="url(#clip800)" d="M164.028 596.92 Q160.417 596.92 158.589 600.485 Q156.783 604.027 156.783 611.156 Q156.783 618.263 158.589 621.828 Q160.417 625.369 164.028 625.369 Q167.663 625.369 169.468 621.828 Q171.297 618.263 171.297 611.156 Q171.297 604.027 169.468 600.485 Q167.663 596.92 164.028 596.92 M164.028 593.217 Q169.839 593.217 172.894 597.823 Q175.973 602.406 175.973 611.156 Q175.973 619.883 172.894 624.49 Q169.839 629.073 164.028 629.073 Q158.218 629.073 155.14 624.49 Q152.084 619.883 152.084 611.156 Q152.084 602.406 155.14 597.823 Q158.218 593.217 164.028 593.217 Z" fill="#000000" fill-rule="nonzero" fill-opacity="1" /><path clip-path="url(#clip800)" d="M184.19 622.522 L189.075 622.522 L189.075 628.402 L184.19 628.402 L184.19 622.522 Z" fill="#000000" fill-rule="nonzero" fill-opacity="1" /><path clip-path="url(#clip800)" d="M209.26 596.92 Q205.649 596.92 203.82 600.485 Q202.014 604.027 202.014 611.156 Q202.014 618.263 203.82 621.828 Q205.649 625.369 209.26 625.369 Q212.894 625.369 214.699 621.828 Q216.528 618.263 216.528 611.156 Q216.528 604.027 214.699 600.485 Q212.894 596.92 209.26 596.92 M209.26 593.217 Q215.07 593.217 218.125 597.823 Q221.204 602.406 221.204 611.156 Q221.204 619.883 218.125 624.49 Q215.07 629.073 209.26 629.073 Q203.449 629.073 200.371 624.49 Q197.315 619.883 197.315 611.156 Q197.315 602.406 200.371 597.823 Q203.449 593.217 209.26 593.217 Z" fill="#000000" fill-rule="nonzero" fill-opacity="1" /><path clip-path="url(#clip800)" d="M239.422 596.92 Q235.81 596.92 233.982 600.485 Q232.176 604.027 232.176 611.156 Q232.176 618.263 233.982 621.828 Q235.81 625.369 239.422 625.369 Q243.056 625.369 244.861 621.828 Q246.69 618.263 246.69 611.156 Q246.69 604.027 244.861 600.485 Q243.056 596.92 239.422 596.92 M239.422 593.217 Q245.232 593.217 248.287 597.823 Q251.366 602.406 251.366 611.156 Q251.366 619.883 248.287 624.49 Q245.232 629.073 239.422 629.073 Q233.611 629.073 230.533 624.49 Q227.477 619.883 227.477 611.156 Q227.477 602.406 230.533 597.823 Q233.611 593.217 239.422 593.217 Z" fill="#000000" fill-rule="nonzero" fill-opacity="1" /><path clip-path="url(#clip800)" d="M259.63 593.842 L277.986 593.842 L277.986 597.777 L263.912 597.777 L263.912 606.249 Q264.931 605.902 265.949 605.74 Q266.968 605.555 267.986 605.555 Q273.773 605.555 277.153 608.726 Q280.532 611.897 280.532 617.314 Q280.532 622.892 277.06 625.994 Q273.588 629.073 267.269 629.073 Q265.093 629.073 262.824 628.703 Q260.579 628.332 258.171 627.592 L258.171 622.892 Q260.255 624.027 262.477 624.582 Q264.699 625.138 267.176 625.138 Q271.181 625.138 273.519 623.031 Q275.857 620.925 275.857 617.314 Q275.857 613.703 273.519 611.596 Q271.181 609.49 267.176 609.49 Q265.301 609.49 263.426 609.906 Q261.574 610.323 259.63 611.203 L259.63 593.842 Z" fill="#000000" fill-rule="nonzero" fill-opacity="1" /><path clip-path="url(#clip800)" d="M299.745 596.92 Q296.134 596.92 294.305 600.485 Q292.5 604.027 292.5 611.156 Q292.5 618.263 294.305 621.828 Q296.134 625.369 299.745 625.369 Q303.38 625.369 305.185 621.828 Q307.014 618.263 307.014 611.156 Q307.014 604.027 305.185 600.485 Q303.38 596.92 299.745 596.92 M299.745 593.217 Q305.555 593.217 308.611 597.823 Q311.69 602.406 311.69 611.156 Q311.69 619.883 308.611 624.49 Q305.555 629.073 299.745 629.073 Q293.935 629.073 290.856 624.49 Q287.801 619.883 287.801 611.156 Q287.801 602.406 290.856 597.823 Q293.935 593.217 299.745 593.217 Z" fill="#000000" fill-rule="nonzero" fill-opacity="1" /><path clip-path="url(#clip800)" d="M115.256 334.362 L144.931 334.362 L144.931 338.298 L115.256 338.298 L115.256 334.362 Z" fill="#000000" fill-rule="nonzero" fill-opacity="1" /><path clip-path="url(#clip800)" d="M165.024 319.71 Q161.413 319.71 159.584 323.274 Q157.778 326.816 157.778 333.946 Q157.778 341.052 159.584 344.617 Q161.413 348.159 165.024 348.159 Q168.658 348.159 170.464 344.617 Q172.292 341.052 172.292 333.946 Q172.292 326.816 170.464 323.274 Q168.658 319.71 165.024 319.71 M165.024 316.006 Q170.834 316.006 173.889 320.612 Q176.968 325.196 176.968 333.946 Q176.968 342.673 173.889 347.279 Q170.834 351.862 165.024 351.862 Q159.214 351.862 156.135 347.279 Q153.079 342.673 153.079 333.946 Q153.079 325.196 156.135 320.612 Q159.214 316.006 165.024 316.006 Z" fill="#000000" fill-rule="nonzero" fill-opacity="1" /><path clip-path="url(#clip800)" d="M185.186 345.311 L190.07 345.311 L190.07 351.191 L185.186 351.191 L185.186 345.311 Z" fill="#000000" fill-rule="nonzero" fill-opacity="1" /><path clip-path="url(#clip800)" d="M210.255 319.71 Q206.644 319.71 204.815 323.274 Q203.01 326.816 203.01 333.946 Q203.01 341.052 204.815 344.617 Q206.644 348.159 210.255 348.159 Q213.889 348.159 215.695 344.617 Q217.523 341.052 217.523 333.946 Q217.523 326.816 215.695 323.274 Q213.889 319.71 210.255 319.71 M210.255 316.006 Q216.065 316.006 219.121 320.612 Q222.199 325.196 222.199 333.946 Q222.199 342.673 219.121 347.279 Q216.065 351.862 210.255 351.862 Q204.445 351.862 201.366 347.279 Q198.311 342.673 198.311 333.946 Q198.311 325.196 201.366 320.612 Q204.445 316.006 210.255 316.006 Z" fill="#000000" fill-rule="nonzero" fill-opacity="1" /><path clip-path="url(#clip800)" d="M240.417 319.71 Q236.806 319.71 234.977 323.274 Q233.172 326.816 233.172 333.946 Q233.172 341.052 234.977 344.617 Q236.806 348.159 240.417 348.159 Q244.051 348.159 245.857 344.617 Q247.685 341.052 247.685 333.946 Q247.685 326.816 245.857 323.274 Q244.051 319.71 240.417 319.71 M240.417 316.006 Q246.227 316.006 249.283 320.612 Q252.361 325.196 252.361 333.946 Q252.361 342.673 249.283 347.279 Q246.227 351.862 240.417 351.862 Q234.607 351.862 231.528 347.279 Q228.473 342.673 228.473 333.946 Q228.473 325.196 231.528 320.612 Q234.607 316.006 240.417 316.006 Z" fill="#000000" fill-rule="nonzero" fill-opacity="1" /><path clip-path="url(#clip800)" d="M264.607 347.256 L280.926 347.256 L280.926 351.191 L258.982 351.191 L258.982 347.256 Q261.644 344.501 266.227 339.872 Q270.833 335.219 272.014 333.876 Q274.259 331.353 275.139 329.617 Q276.042 327.858 276.042 326.168 Q276.042 323.413 274.097 321.677 Q272.176 319.941 269.074 319.941 Q266.875 319.941 264.421 320.705 Q261.991 321.469 259.213 323.02 L259.213 318.298 Q262.037 317.163 264.491 316.585 Q266.945 316.006 268.982 316.006 Q274.352 316.006 277.546 318.691 Q280.741 321.376 280.741 325.867 Q280.741 327.997 279.931 329.918 Q279.144 331.816 277.037 334.409 Q276.458 335.08 273.357 338.298 Q270.255 341.492 264.607 347.256 Z" fill="#000000" fill-rule="nonzero" fill-opacity="1" /><path clip-path="url(#clip800)" d="M290.787 316.631 L309.143 316.631 L309.143 320.566 L295.069 320.566 L295.069 329.038 Q296.088 328.691 297.106 328.529 Q298.125 328.344 299.143 328.344 Q304.93 328.344 308.31 331.515 Q311.69 334.686 311.69 340.103 Q311.69 345.682 308.217 348.784 Q304.745 351.862 298.426 351.862 Q296.25 351.862 293.981 351.492 Q291.736 351.122 289.329 350.381 L289.329 345.682 Q291.412 346.816 293.634 347.372 Q295.856 347.927 298.333 347.927 Q302.338 347.927 304.676 345.821 Q307.014 343.714 307.014 340.103 Q307.014 336.492 304.676 334.386 Q302.338 332.279 298.333 332.279 Q296.458 332.279 294.583 332.696 Q292.731 333.112 290.787 333.992 L290.787 316.631 Z" fill="#000000" fill-rule="nonzero" fill-opacity="1" /><path clip-path="url(#clip800)" d="M164.028 42.499 Q160.417 42.499 158.589 46.0638 Q156.783 49.6055 156.783 56.7351 Q156.783 63.8415 158.589 67.4063 Q160.417 70.9479 164.028 70.9479 Q167.663 70.9479 169.468 67.4063 Q171.297 63.8415 171.297 56.7351 Q171.297 49.6055 169.468 46.0638 Q167.663 42.499 164.028 42.499 M164.028 38.7953 Q169.839 38.7953 172.894 43.4018 Q175.973 47.9851 175.973 56.7351 Q175.973 65.4619 172.894 70.0683 Q169.839 74.6516 164.028 74.6516 Q158.218 74.6516 155.14 70.0683 Q152.084 65.4619 152.084 56.7351 Q152.084 47.9851 155.14 43.4018 Q158.218 38.7953 164.028 38.7953 Z" fill="#000000" fill-rule="nonzero" fill-opacity="1" /><path clip-path="url(#clip800)" d="M184.19 68.1007 L189.075 68.1007 L189.075 73.9803 L184.19 73.9803 L184.19 68.1007 Z" fill="#000000" fill-rule="nonzero" fill-opacity="1" /><path clip-path="url(#clip800)" d="M209.26 42.499 Q205.649 42.499 203.82 46.0638 Q202.014 49.6055 202.014 56.7351 Q202.014 63.8415 203.82 67.4063 Q205.649 70.9479 209.26 70.9479 Q212.894 70.9479 214.699 67.4063 Q216.528 63.8415 216.528 56.7351 Q216.528 49.6055 214.699 46.0638 Q212.894 42.499 209.26 42.499 M209.26 38.7953 Q215.07 38.7953 218.125 43.4018 Q221.204 47.9851 221.204 56.7351 Q221.204 65.4619 218.125 70.0683 Q215.07 74.6516 209.26 74.6516 Q203.449 74.6516 200.371 70.0683 Q197.315 65.4619 197.315 56.7351 Q197.315 47.9851 200.371 43.4018 Q203.449 38.7953 209.26 38.7953 Z" fill="#000000" fill-rule="nonzero" fill-opacity="1" /><path clip-path="url(#clip800)" d="M239.422 42.499 Q235.81 42.499 233.982 46.0638 Q232.176 49.6055 232.176 56.7351 Q232.176 63.8415 233.982 67.4063 Q235.81 70.9479 239.422 70.9479 Q243.056 70.9479 244.861 67.4063 Q246.69 63.8415 246.69 56.7351 Q246.69 49.6055 244.861 46.0638 Q243.056 42.499 239.422 42.499 M239.422 38.7953 Q245.232 38.7953 248.287 43.4018 Q251.366 47.9851 251.366 56.7351 Q251.366 65.4619 248.287 70.0683 Q245.232 74.6516 239.422 74.6516 Q233.611 74.6516 230.533 70.0683 Q227.477 65.4619 227.477 56.7351 Q227.477 47.9851 230.533 43.4018 Q233.611 38.7953 239.422 38.7953 Z" fill="#000000" fill-rule="nonzero" fill-opacity="1" /><path clip-path="url(#clip800)" d="M269.583 42.499 Q265.972 42.499 264.144 46.0638 Q262.338 49.6055 262.338 56.7351 Q262.338 63.8415 264.144 67.4063 Q265.972 70.9479 269.583 70.9479 Q273.218 70.9479 275.023 67.4063 Q276.852 63.8415 276.852 56.7351 Q276.852 49.6055 275.023 46.0638 Q273.218 42.499 269.583 42.499 M269.583 38.7953 Q275.394 38.7953 278.449 43.4018 Q281.528 47.9851 281.528 56.7351 Q281.528 65.4619 278.449 70.0683 Q275.394 74.6516 269.583 74.6516 Q263.773 74.6516 260.695 70.0683 Q257.639 65.4619 257.639 56.7351 Q257.639 47.9851 260.695 43.4018 Q263.773 38.7953 269.583 38.7953 Z" fill="#000000" fill-rule="nonzero" fill-opacity="1" /><path clip-path="url(#clip800)" d="M299.745 42.499 Q296.134 42.499 294.305 46.0638 Q292.5 49.6055 292.5 56.7351 Q292.5 63.8415 294.305 67.4063 Q296.134 70.9479 299.745 70.9479 Q303.38 70.9479 305.185 67.4063 Q307.014 63.8415 307.014 56.7351 Q307.014 49.6055 305.185 46.0638 Q303.38 42.499 299.745 42.499 M299.745 38.7953 Q305.555 38.7953 308.611 43.4018 Q311.69 47.9851 311.69 56.7351 Q311.69 65.4619 308.611 70.0683 Q305.555 74.6516 299.745 74.6516 Q293.935 74.6516 290.856 70.0683 Q287.801 65.4619 287.801 56.7351 Q287.801 47.9851 290.856 43.4018 Q293.935 38.7953 299.745 38.7953 Z" fill="#000000" fill-rule="nonzero" fill-opacity="1" /><path clip-path="url(#clip800)" d="M64.0042 781.029 L16.4842 799.171 L16.4842 792.456 L56.4926 777.401 L16.4842 762.314 L16.4842 755.63 L64.0042 773.74 L64.0042 781.029 Z" fill="#000000" fill-rule="nonzero" fill-opacity="1" /><path clip-path="url(#clip800)" d="M14.5426 734.878 Q21.8632 739.143 29.0246 741.212 Q36.186 743.281 43.5384 743.281 Q50.8908 743.281 58.1159 741.212 Q65.3091 739.111 72.5979 734.878 L72.5979 739.97 Q65.1182 744.745 57.8931 747.132 Q50.668 749.487 43.5384 749.487 Q36.4406 749.487 29.2474 747.132 Q22.0542 744.776 14.5426 739.97 L14.5426 734.878 Z" fill="#000000" fill-rule="nonzero" fill-opacity="1" /><path clip-path="url(#clip800)" d="M28.3562 693.883 L45.7028 706.773 L64.0042 693.214 L64.0042 700.121 L49.9996 710.497 L64.0042 720.873 L64.0042 727.78 L45.3526 713.935 L28.3562 726.602 L28.3562 719.696 L41.0558 710.242 L28.3562 700.789 L28.3562 693.883 Z" fill="#000000" fill-rule="nonzero" fill-opacity="1" /><path clip-path="url(#clip800)" d="M14.5426 685.862 L14.5426 680.769 Q22.0542 675.995 29.2474 673.64 Q36.4406 671.253 43.5384 671.253 Q50.668 671.253 57.8931 673.64 Q65.1182 675.995 72.5979 680.769 L72.5979 685.862 Q65.3091 681.629 58.1159 679.56 Q50.8908 677.459 43.5384 677.459 Q36.186 677.459 29.0246 679.56 Q21.8632 681.629 14.5426 685.862 Z" fill="#000000" fill-rule="nonzero" fill-opacity="1" /><polyline clip-path="url(#clip802)" style="stroke:#009af9; stroke-linecap:round; stroke-linejoin:round; stroke-width:4; stroke-opacity:1; fill:none" points="404.437,415.905 405.62,415.926 406.803,415.989 407.986,416.095 409.169,416.242 410.352,416.431 411.535,416.663 412.718,416.936 413.901,417.252 415.084,417.609 416.267,418.009 417.45,418.45 418.632,418.934 419.815,419.459 420.998,420.026 422.181,420.635 423.364,421.286 424.547,421.978 425.73,422.713 426.913,423.488 428.096,424.306 429.279,425.165 430.462,426.065 431.645,427.007 432.828,427.99 434.011,429.015 435.194,430.081 436.377,431.188 437.56,432.336 438.743,433.525 439.926,434.755 441.109,436.026 442.292,437.337 443.475,438.69 444.658,440.083 445.841,441.516 447.024,442.99 448.207,444.504 449.39,446.058 450.573,447.653 451.756,449.287 452.939,450.961 454.122,452.675 455.305,454.429 456.488,456.222 457.671,458.055 458.854,459.927 460.036,461.838 461.219,463.788 462.402,465.777 463.585,467.805 464.768,469.871 465.951,471.976 467.134,474.119 468.317,476.3 469.5,478.519 470.683,480.777 471.866,483.071 473.049,485.404 474.232,487.774 475.415,490.181 476.598,492.625 477.781,495.106 478.964,497.623 480.147,500.178 481.33,502.768 482.513,505.395 483.696,508.057 484.879,510.756 486.062,513.49 487.245,516.259 488.428,519.064 489.611,521.903 490.794,524.777 491.977,527.686 493.16,530.629 494.343,533.607 495.526,536.618 496.709,539.663 497.892,542.741 499.075,545.853 500.258,548.997 501.441,552.175 502.623,555.384 503.806,558.626 504.989,561.901 506.172,565.207 507.355,568.544 508.538,571.913 509.721,575.312 510.904,578.743 512.087,582.204 513.27,585.695 514.453,589.216 515.636,592.767 516.819,596.348 518.002,599.957 519.185,603.595 520.368,607.262 521.551,610.957 522.734,614.68 523.917,618.431 525.1,622.209 526.283,626.014 527.466,629.846 528.649,633.705 529.832,637.589 531.015,641.5 532.198,645.436 533.381,649.397 534.564,653.383 535.747,657.394 536.93,661.428 538.113,665.487 539.296,669.569 540.479,673.675 541.662,677.803 542.845,681.954 544.027,686.127 545.21,690.321 546.393,694.538 547.576,698.775 548.759,703.033 549.942,707.312 551.125,711.61 552.308,715.928 553.491,720.266 554.674,724.622 555.857,728.997 557.04,733.39 558.223,737.8 559.406,742.228 560.589,746.673 561.772,751.135 562.955,755.613 564.138,760.107 565.321,764.616 566.504,769.14 567.687,773.678 568.87,778.231 570.053,782.797 571.236,787.377 572.419,791.97 573.602,796.576 574.785,801.193 575.968,805.822 577.151,810.462 578.334,815.114 579.517,819.775 580.7,824.447 581.883,829.128 583.066,833.818 584.249,838.517 585.432,843.224 586.614,847.939 587.797,852.661 588.98,857.39 590.163,862.125 591.346,866.867 592.529,871.613 593.712,876.365 594.895,881.122 596.078,885.883 597.261,890.647 598.444,895.415 599.627,900.185 600.81,904.958 601.993,909.732 603.176,914.508 604.359,919.285 605.542,924.062 606.725,928.839 607.908,933.616 609.091,938.392 610.274,943.166 611.457,947.938 612.64,952.708 613.823,957.474 615.006,962.238 616.189,966.997 617.372,971.753 618.555,976.503 619.738,981.248 620.921,985.987 622.104,990.72 623.287,995.446 624.47,1000.17 625.653,1004.88 626.836,1009.58 628.018,1014.27 629.201,1018.96 630.384,1023.63 631.567,1028.3 632.75,1032.95 633.933,1037.6 635.116,1042.23 636.299,1046.85 637.482,1051.45 638.665,1056.05 639.848,1060.63 641.031,1065.19 642.214,1069.74 643.397,1074.28 644.58,1078.8 645.763,1083.3 646.946,1087.79 648.129,1092.26 649.312,1096.72 650.495,1101.15 651.678,1105.57 652.861,1109.97 654.044,1114.35 655.227,1118.7 656.41,1123.04 657.593,1127.36 658.776,1131.66 659.959,1135.93 661.142,1140.18 662.325,1144.41 663.508,1148.62 664.691,1152.8 665.874,1156.96 667.057,1161.09 668.24,1165.2 669.423,1169.28 670.605,1173.34 671.788,1177.37 672.971,1181.37 674.154,1185.35 675.337,1189.29 676.52,1193.21 677.703,1197.1 678.886,1200.97 680.069,1204.8 681.252,1208.6 682.435,1212.37 683.618,1216.11 684.801,1219.82 685.984,1223.5 687.167,1227.15 688.35,1230.76 689.533,1234.34 690.716,1237.88 691.899,1241.4 693.082,1244.88 694.265,1248.32 695.448,1251.73 696.631,1255.1 697.814,1258.44 698.997,1261.74 700.18,1265 701.363,1268.23 702.546,1271.42 703.729,1274.57 704.912,1277.69 706.095,1280.76 707.278,1283.8 708.461,1286.79 709.644,1289.75 710.827,1292.67 712.009,1295.55 713.192,1298.38 714.375,1301.18 715.558,1303.93 716.741,1306.65 717.924,1309.32 719.107,1311.95 720.29,1314.53 721.473,1317.07 722.656,1319.57 723.839,1322.03 725.022,1324.44 726.205,1326.81 727.388,1329.13 728.571,1331.41 729.754,1333.65 730.937,1335.84 732.12,1337.98 733.303,1340.08 734.486,1342.13 735.669,1344.14 736.852,1346.09 738.035,1348.01 739.218,1349.87 740.401,1351.69 741.584,1353.46 742.767,1355.18 743.95,1356.86 745.133,1358.49 746.316,1360.06 747.499,1361.6 748.682,1363.08 749.865,1364.51 751.048,1365.89 752.231,1367.23 753.413,1368.51 754.596,1369.75 755.779,1370.94 756.962,1372.07 758.145,1373.16 759.328,1374.19 760.511,1375.18 761.694,1376.12 762.877,1377 764.06,1377.83 765.243,1378.62 766.426,1379.35 767.609,1380.03 768.792,1380.67 769.975,1381.25 771.158,1381.77 772.341,1382.25 773.524,1382.68 774.707,1383.05 775.89,1383.38 777.073,1383.65 778.256,1383.87 779.439,1384.04 780.622,1384.16 781.805,1384.22 782.988,1384.24 784.171,1384.2 785.354,1384.11 786.537,1383.97 787.72,1383.78 788.903,1383.54 790.086,1383.24 791.269,1382.9 792.452,1382.5 793.635,1382.05 794.818,1381.55 796,1381 797.183,1380.39 798.366,1379.74 799.549,1379.04 800.732,1378.28 801.915,1377.47 803.098,1376.61 804.281,1375.7 805.464,1374.74 806.647,1373.73 807.83,1372.67 809.013,1371.56 810.196,1370.4 811.379,1369.19 812.562,1367.93 813.745,1366.62 814.928,1365.25 816.111,1363.84 817.294,1362.38 818.477,1360.88 819.66,1359.32 820.843,1357.71 822.026,1356.06 823.209,1354.35 824.392,1352.6 825.575,1350.8 826.758,1348.95 827.941,1347.06 829.124,1345.11 830.307,1343.12 831.49,1341.08 832.673,1339 833.856,1336.87 835.039,1334.69 836.222,1332.47 837.404,1330.2 838.587,1327.89 839.77,1325.53 840.953,1323.12 842.136,1320.67 843.319,1318.18 844.502,1315.64 845.685,1313.06 846.868,1310.43 848.051,1307.76 849.234,1305.05 850.417,1302.3 851.6,1299.5 852.783,1296.66 853.966,1293.78 855.149,1290.86 856.332,1287.89 857.515,1284.89 858.698,1281.84 859.881,1278.76 861.064,1275.63 862.247,1272.47 863.43,1269.27 864.613,1266.03 865.796,1262.74 866.979,1259.43 868.162,1256.07 869.345,1252.68 870.528,1249.25 871.711,1245.78 872.894,1242.28 874.077,1238.74 875.26,1235.16 876.443,1231.55 877.626,1227.91 878.809,1224.23 879.991,1220.52 881.174,1216.77 882.357,1212.99 883.54,1209.18 884.723,1205.34 885.906,1201.46 887.089,1197.56 888.272,1193.62 889.455,1189.65 890.638,1185.65 891.821,1181.62 893.004,1177.56 894.187,1173.48 895.37,1169.36 896.553,1165.22 897.736,1161.04 898.919,1156.85 900.102,1152.62 901.285,1148.37 902.468,1144.09 903.651,1139.79 904.834,1135.46 906.017,1131.1 907.2,1126.73 908.383,1122.33 909.566,1117.9 910.749,1113.45 911.932,1108.98 913.115,1104.49 914.298,1099.98 915.481,1095.44 916.664,1090.89 917.847,1086.31 919.03,1081.72 920.213,1077.1 921.395,1072.47 922.578,1067.82 923.761,1063.15 924.944,1058.46 926.127,1053.76 927.31,1049.03 928.493,1044.3 929.676,1039.54 930.859,1034.78 932.042,1029.99 933.225,1025.19 934.408,1020.38 935.591,1015.56 936.774,1010.72 937.957,1005.87 939.14,1001 940.323,996.129 941.506,991.243 942.689,986.345 943.872,981.438 945.055,976.52 946.238,971.592 947.421,966.656 948.604,961.711 949.787,956.757 950.97,951.796 952.153,946.827 953.336,941.852 954.519,936.869 955.702,931.881 956.885,926.887 958.068,921.887 959.251,916.883 960.434,911.874 961.617,906.862 962.8,901.845 963.982,896.826 965.165,891.803 966.348,886.778 967.531,881.752 968.714,876.723 969.897,871.694 971.08,866.663 972.263,861.633 973.446,856.602 974.629,851.572 975.812,846.542 976.995,841.514 978.178,836.487 979.361,831.462 980.544,826.44 981.727,821.42 982.91,816.403 984.093,811.39 985.276,806.38 986.459,801.375 987.642,796.374 988.825,791.378 990.008,786.388 991.191,781.403 992.374,776.424 993.557,771.451 994.74,766.485 995.923,761.526 997.106,756.574 998.289,751.63 999.472,746.694 1000.65,741.766 1001.84,736.847 1003.02,731.936 1004.2,727.035 1005.39,722.144 1006.57,717.263 1007.75,712.391 1008.94,707.531 1010.12,702.681 1011.3,697.842 1012.48,693.014 1013.67,688.199 1014.85,683.395 1016.03,678.604 1017.22,673.825 1018.4,669.059 1019.58,664.306 1020.77,659.566 1021.95,654.84 1023.13,650.128 1024.31,645.43 1025.5,640.747 1026.68,636.078 1027.86,631.424 1029.05,626.785 1030.23,622.162 1031.41,617.554 1032.59,612.962 1033.78,608.386 1034.96,603.826 1036.14,599.283 1037.33,594.757 1038.51,590.248 1039.69,585.755 1040.88,581.281 1042.06,576.823 1043.24,572.384 1044.42,567.962 1045.61,563.559 1046.79,559.174 1047.97,554.807 1049.16,550.46 1050.34,546.131 1051.52,541.821 1052.71,537.53 1053.89,533.259 1055.07,529.007 1056.25,524.775 1057.44,520.563 1058.62,516.371 1059.8,512.199 1060.99,508.047 1062.17,503.916 1063.35,499.805 1064.54,495.715 1065.72,491.646 1066.9,487.598 1068.08,483.571 1069.27,479.565 1070.45,475.58 1071.63,471.617 1072.82,467.675 1074,463.755 1075.18,459.857 1076.36,455.98 1077.55,452.126 1078.73,448.293 1079.91,444.483 1081.1,440.695 1082.28,436.929 1083.46,433.185 1084.65,429.464 1085.83,425.765 1087.01,422.089 1088.19,418.435 1089.38,414.804 1090.56,411.196 1091.74,407.61 1092.93,404.048 1094.11,400.508 1095.29,396.991 1096.48,393.497 1097.66,390.026 1098.84,386.578 1100.02,383.153 1101.21,379.752 1102.39,376.373 1103.57,373.018 1104.76,369.686 1105.94,366.376 1107.12,363.091 1108.31,359.828 1109.49,356.589 1110.67,353.372 1111.85,350.179 1113.04,347.01 1114.22,343.863 1115.4,340.74 1116.59,337.64 1117.77,334.563 1118.95,331.509 1120.13,328.479 1121.32,325.472 1122.5,322.487 1123.68,319.526 1124.87,316.589 1126.05,313.674 1127.23,310.782 1128.42,307.913 1129.6,305.067 1130.78,302.245 1131.96,299.445 1133.15,296.668 1134.33,293.914 1135.51,291.182 1136.7,288.474 1137.88,285.788 1139.06,283.125 1140.25,280.484 1141.43,277.866 1142.61,275.27 1143.79,272.697 1144.98,270.146 1146.16,267.618 1147.34,265.111 1148.53,262.627 1149.71,260.166 1150.89,257.726 1152.08,255.308 1153.26,252.912 1154.44,250.538 1155.62,248.186 1156.81,245.855 1157.99,243.546 1159.17,241.259 1160.36,238.993 1161.54,236.748 1162.72,234.525 1163.9,232.323 1165.09,230.142 1166.27,227.982 1167.45,225.843 1168.64,223.725 1169.82,221.628 1171,219.551 1172.19,217.496 1173.37,215.46 1174.55,213.445 1175.73,211.451 1176.92,209.476 1178.1,207.522 1179.28,205.588 1180.47,203.674 1181.65,201.78 1182.83,199.905 1184.02,198.05 1185.2,196.215 1186.38,194.399 1187.56,192.602 1188.75,190.825 1189.93,189.067 1191.11,187.328 1192.3,185.608 1193.48,183.906 1194.66,182.224 1195.84,180.56 1197.03,178.914 1198.21,177.287 1199.39,175.679 1200.58,174.088 1201.76,172.516 1202.94,170.962 1204.13,169.425 1205.31,167.906 1206.49,166.405 1207.67,164.922 1208.86,163.456 1210.04,162.007 1211.22,160.576 1212.41,159.162 1213.59,157.765 1214.77,156.384 1215.96,155.021 1217.14,153.674 1218.32,152.344 1219.5,151.03 1220.69,149.733 1221.87,148.452 1223.05,147.187 1224.24,145.939 1225.42,144.706 1226.6,143.489 1227.79,142.288 1228.97,141.102 1230.15,139.932 1231.33,138.777 1232.52,137.638 1233.7,136.514 1234.88,135.405 1236.07,134.311 1237.25,133.232 1238.43,132.168 1239.61,131.118 1240.8,130.083 1241.98,129.063 1243.16,128.057 1244.35,127.065 1245.53,126.087 1246.71,125.124 1247.9,124.174 1249.08,123.239 1250.26,122.317 1251.44,121.409 1252.63,120.514 1253.81,119.633 1254.99,118.766 1256.18,117.912 1257.36,117.071 1258.54,116.243 1259.73,115.428 1260.91,114.626 1262.09,113.837 1263.27,113.061 1264.46,112.298 1265.64,111.547 1266.82,110.809 1268.01,110.083 1269.19,109.369 1270.37,108.668 1271.56,107.979 1272.74,107.302 1273.92,106.637 1275.1,105.983 1276.29,105.342 1277.47,104.713 1278.65,104.095 1279.84,103.489 1281.02,102.894 1282.2,102.311 1283.38,101.74 1284.57,101.179 1285.75,100.63 1286.93,100.092 1288.12,99.5655 1289.3,99.0497 1290.48,98.545 1291.67,98.0512 1292.85,97.5682 1294.03,97.096 1295.21,96.6346 1296.4,96.1838 1297.58,95.7437 1298.76,95.3141 1299.95,94.8949 1301.13,94.4863 1302.31,94.088 1303.5,93.7 1304.68,93.3223 1305.86,92.9549 1307.04,92.5976 1308.23,92.2504 1309.41,91.9133 1310.59,91.5863 1311.78,91.2692 1312.96,90.962 1314.14,90.6648 1315.33,90.3774 1316.51,90.0999 1317.69,89.8321 1318.87,89.574 1320.06,89.3257 1321.24,89.087 1322.42,88.858 1323.61,88.6385 1324.79,88.4286 1325.97,88.2283 1327.15,88.0375 1328.34,87.8561 1329.52,87.6843 1330.7,87.5218 1331.89,87.3688 1333.07,87.2251 1334.25,87.0908 1335.44,86.9659 1336.62,86.8503 1337.8,86.744 1338.98,86.6469 1340.17,86.5592 1341.35,86.4808 1342.53,86.4116 1343.72,86.3516 1344.9,86.3009 1346.08,86.2594 1347.27,86.2271 1348.45,86.2041 1349.63,86.1903 1350.81,86.1857 1352,86.1903 1353.18,86.2041 1354.36,86.2271 1355.55,86.2594 1356.73,86.3009 1357.91,86.3516 1359.1,86.4116 1360.28,86.4808 1361.46,86.5592 1362.64,86.6469 1363.83,86.744 1365.01,86.8503 1366.19,86.9659 1367.38,87.0908 1368.56,87.2251 1369.74,87.3688 1370.92,87.5218 1372.11,87.6843 1373.29,87.8561 1374.47,88.0375 1375.66,88.2283 1376.84,88.4286 1378.02,88.6385 1379.21,88.858 1380.39,89.087 1381.57,89.3257 1382.75,89.574 1383.94,89.8321 1385.12,90.0999 1386.3,90.3774 1387.49,90.6648 1388.67,90.962 1389.85,91.2692 1391.04,91.5863 1392.22,91.9133 1393.4,92.2504 1394.58,92.5976 1395.77,92.9549 1396.95,93.3223 1398.13,93.7 1399.32,94.088 1400.5,94.4863 1401.68,94.8949 1402.87,95.3141 1404.05,95.7437 1405.23,96.1838 1406.41,96.6346 1407.6,97.096 1408.78,97.5682 1409.96,98.0512 1411.15,98.545 1412.33,99.0497 1413.51,99.5655 1414.69,100.092 1415.88,100.63 1417.06,101.179 1418.24,101.74 1419.43,102.311 1420.61,102.894 1421.79,103.489 1422.98,104.095 1424.16,104.713 1425.34,105.342 1426.52,105.983 1427.71,106.637 1428.89,107.302 1430.07,107.979 1431.26,108.668 1432.44,109.369 1433.62,110.083 1434.81,110.809 1435.99,111.547 1437.17,112.298 1438.35,113.061 1439.54,113.837 1440.72,114.626 1441.9,115.428 1443.09,116.243 1444.27,117.071 1445.45,117.912 1446.63,118.766 1447.82,119.633 1449,120.514 1450.18,121.409 1451.37,122.317 1452.55,123.239 1453.73,124.174 1454.92,125.124 1456.1,126.087 1457.28,127.065 1458.46,128.057 1459.65,129.063 1460.83,130.083 1462.01,131.118 1463.2,132.168 1464.38,133.232 1465.56,134.311 1466.75,135.405 1467.93,136.514 1469.11,137.638 1470.29,138.777 1471.48,139.932 1472.66,141.102 1473.84,142.288 1475.03,143.489 1476.21,144.706 1477.39,145.939 1478.58,147.187 1479.76,148.452 1480.94,149.733 1482.12,151.03 1483.31,152.344 1484.49,153.674 1485.67,155.021 1486.86,156.384 1488.04,157.765 1489.22,159.162 1490.4,160.576 1491.59,162.007 1492.77,163.456 1493.95,164.922 1495.14,166.405 1496.32,167.906 1497.5,169.425 1498.69,170.962 1499.87,172.516 1501.05,174.088 1502.23,175.679 1503.42,177.287 1504.6,178.914 1505.78,180.56 1506.97,182.224 1508.15,183.906 1509.33,185.608 1510.52,187.328 1511.7,189.067 1512.88,190.825 1514.06,192.602 1515.25,194.399 1516.43,196.215 1517.61,198.05 1518.8,199.905 1519.98,201.78 1521.16,203.674 1522.35,205.588 1523.53,207.522 1524.71,209.476 1525.89,211.451 1527.08,213.445 1528.26,215.46 1529.44,217.496 1530.63,219.551 1531.81,221.628 1532.99,223.725 1534.17,225.843 1535.36,227.982 1536.54,230.142 1537.72,232.323 1538.91,234.525 1540.09,236.748 1541.27,238.993 1542.46,241.259 1543.64,243.546 1544.82,245.855 1546,248.186 1547.19,250.538 1548.37,252.912 1549.55,255.308 1550.74,257.726 1551.92,260.166 1553.1,262.627 1554.29,265.111 1555.47,267.618 1556.65,270.146 1557.83,272.697 1559.02,275.27 1560.2,277.866 1561.38,280.484 1562.57,283.125 1563.75,285.788 1564.93,288.474 1566.12,291.182 1567.3,293.914 1568.48,296.668 1569.66,299.445 1570.85,302.245 1572.03,305.067 1573.21,307.913 1574.4,310.782 1575.58,313.674 1576.76,316.589 1577.94,319.526 1579.13,322.487 1580.31,325.472 1581.49,328.479 1582.68,331.509 1583.86,334.563 1585.04,337.64 1586.23,340.74 1587.41,343.863 1588.59,347.01 1589.77,350.179 1590.96,353.372 1592.14,356.589 1593.32,359.828 1594.51,363.091 1595.69,366.376 1596.87,369.686 1598.06,373.018 1599.24,376.373 1600.42,379.752 1601.6,383.153 1602.79,386.578 1603.97,390.026 1605.15,393.497 1606.34,396.991 1607.52,400.508 1608.7,404.048 1609.89,407.61 1611.07,411.196 1612.25,414.804 1613.43,418.435 1614.62,422.089 1615.8,425.765 1616.98,429.464 1618.17,433.185 1619.35,436.929 1620.53,440.695 1621.71,444.483 1622.9,448.293 1624.08,452.126 1625.26,455.98 1626.45,459.857 1627.63,463.755 1628.81,467.675 1630,471.617 1631.18,475.58 1632.36,479.565 1633.54,483.571 1634.73,487.598 1635.91,491.646 1637.09,495.715 1638.28,499.805 1639.46,503.916 1640.64,508.047 1641.83,512.199 1643.01,516.371 1644.19,520.563 1645.37,524.775 1646.56,529.007 1647.74,533.259 1648.92,537.53 1650.11,541.821 1651.29,546.131 1652.47,550.46 1653.66,554.807 1654.84,559.174 1656.02,563.559 1657.2,567.962 1658.39,572.384 1659.57,576.823 1660.75,581.281 1661.94,585.755 1663.12,590.248 1664.3,594.757 1665.48,599.283 1666.67,603.826 1667.85,608.386 1669.03,612.962 1670.22,617.554 1671.4,622.162 1672.58,626.785 1673.77,631.424 1674.95,636.078 1676.13,640.747 1677.31,645.43 1678.5,650.128 1679.68,654.84 1680.86,659.566 1682.05,664.306 1683.23,669.059 1684.41,673.825 1685.6,678.604 1686.78,683.395 1687.96,688.199 1689.14,693.014 1690.33,697.842 1691.51,702.681 1692.69,707.531 1693.88,712.391 1695.06,717.263 1696.24,722.144 1697.43,727.035 1698.61,731.936 1699.79,736.847 1700.97,741.766 1702.16,746.694 1703.34,751.63 1704.52,756.574 1705.71,761.526 1706.89,766.485 1708.07,771.451 1709.25,776.424 1710.44,781.403 1711.62,786.388 1712.8,791.378 1713.99,796.374 1715.17,801.375 1716.35,806.38 1717.54,811.39 1718.72,816.403 1719.9,821.42 1721.08,826.44 1722.27,831.462 1723.45,836.487 1724.63,841.514 1725.82,846.542 1727,851.572 1728.18,856.602 1729.37,861.633 1730.55,866.663 1731.73,871.694 1732.91,876.723 1734.1,881.752 1735.28,886.778 1736.46,891.803 1737.65,896.826 1738.83,901.845 1740.01,906.862 1741.19,911.874 1742.38,916.883 1743.56,921.887 1744.74,926.887 1745.93,931.881 1747.11,936.869 1748.29,941.852 1749.48,946.827 1750.66,951.796 1751.84,956.757 1753.02,961.711 1754.21,966.656 1755.39,971.592 1756.57,976.52 1757.76,981.438 1758.94,986.345 1760.12,991.243 1761.31,996.129 1762.49,1001 1763.67,1005.87 1764.85,1010.72 1766.04,1015.56 1767.22,1020.38 1768.4,1025.19 1769.59,1029.99 1770.77,1034.78 1771.95,1039.54 1773.14,1044.3 1774.32,1049.03 1775.5,1053.76 1776.68,1058.46 1777.87,1063.15 1779.05,1067.82 1780.23,1072.47 1781.42,1077.1 1782.6,1081.72 1783.78,1086.31 1784.96,1090.89 1786.15,1095.44 1787.33,1099.98 1788.51,1104.49 1789.7,1108.98 1790.88,1113.45 1792.06,1117.9 1793.25,1122.33 1794.43,1126.73 1795.61,1131.1 1796.79,1135.46 1797.98,1139.79 1799.16,1144.09 1800.34,1148.37 1801.53,1152.62 1802.71,1156.85 1803.89,1161.04 1805.08,1165.22 1806.26,1169.36 1807.44,1173.48 1808.62,1177.56 1809.81,1181.62 1810.99,1185.65 1812.17,1189.65 1813.36,1193.62 1814.54,1197.56 1815.72,1201.46 1816.91,1205.34 1818.09,1209.18 1819.27,1212.99 1820.45,1216.77 1821.64,1220.52 1822.82,1224.23 1824,1227.91 1825.19,1231.55 1826.37,1235.16 1827.55,1238.74 1828.73,1242.28 1829.92,1245.78 1831.1,1249.25 1832.28,1252.68 1833.47,1256.07 1834.65,1259.43 1835.83,1262.74 1837.02,1266.03 1838.2,1269.27 1839.38,1272.47 1840.56,1275.63 1841.75,1278.76 1842.93,1281.84 1844.11,1284.89 1845.3,1287.89 1846.48,1290.86 1847.66,1293.78 1848.85,1296.66 1850.03,1299.5 1851.21,1302.3 1852.39,1305.05 1853.58,1307.76 1854.76,1310.43 1855.94,1313.06 1857.13,1315.64 1858.31,1318.18 1859.49,1320.67 1860.68,1323.12 1861.86,1325.53 1863.04,1327.89 1864.22,1330.2 1865.41,1332.47 1866.59,1334.69 1867.77,1336.87 1868.96,1339 1870.14,1341.08 1871.32,1343.12 1872.5,1345.11 1873.69,1347.06 1874.87,1348.95 1876.05,1350.8 1877.24,1352.6 1878.42,1354.35 1879.6,1356.06 1880.79,1357.71 1881.97,1359.32 1883.15,1360.88 1884.33,1362.38 1885.52,1363.84 1886.7,1365.25 1887.88,1366.62 1889.07,1367.93 1890.25,1369.19 1891.43,1370.4 1892.62,1371.56 1893.8,1372.67 1894.98,1373.73 1896.16,1374.74 1897.35,1375.7 1898.53,1376.61 1899.71,1377.47 1900.9,1378.28 1902.08,1379.04 1903.26,1379.74 1904.45,1380.39 1905.63,1381 1906.81,1381.55 1907.99,1382.05 1909.18,1382.5 1910.36,1382.9 1911.54,1383.24 1912.73,1383.54 1913.91,1383.78 1915.09,1383.97 1916.27,1384.11 1917.46,1384.2 1918.64,1384.24 1919.82,1384.22 1921.01,1384.16 1922.19,1384.04 1923.37,1383.87 1924.56,1383.65 1925.74,1383.38 1926.92,1383.05 1928.1,1382.68 1929.29,1382.25 1930.47,1381.77 1931.65,1381.25 1932.84,1380.67 1934.02,1380.03 1935.2,1379.35 1936.39,1378.62 1937.57,1377.83 1938.75,1377 1939.93,1376.12 1941.12,1375.18 1942.3,1374.19 1943.48,1373.16 1944.67,1372.07 1945.85,1370.94 1947.03,1369.75 1948.22,1368.51 1949.4,1367.23 1950.58,1365.89 1951.76,1364.51 1952.95,1363.08 1954.13,1361.6 1955.31,1360.06 1956.5,1358.49 1957.68,1356.86 1958.86,1355.18 1960.04,1353.46 1961.23,1351.69 1962.41,1349.87 1963.59,1348.01 1964.78,1346.09 1965.96,1344.14 1967.14,1342.13 1968.33,1340.08 1969.51,1337.98 1970.69,1335.84 1971.87,1333.65 1973.06,1331.41 1974.24,1329.13 1975.42,1326.81 1976.61,1324.44 1977.79,1322.03 1978.97,1319.57 1980.16,1317.07 1981.34,1314.53 1982.52,1311.95 1983.7,1309.32 1984.89,1306.65 1986.07,1303.93 1987.25,1301.18 1988.44,1298.38 1989.62,1295.55 1990.8,1292.67 1991.98,1289.75 1993.17,1286.79 1994.35,1283.8 1995.53,1280.76 1996.72,1277.69 1997.9,1274.57 1999.08,1271.42 2000.27,1268.23 2001.45,1265 2002.63,1261.74 2003.81,1258.44 2005,1255.1 2006.18,1251.73 2007.36,1248.32 2008.55,1244.88 2009.73,1241.4 2010.91,1237.88 2012.1,1234.34 2013.28,1230.76 2014.46,1227.15 2015.64,1223.5 2016.83,1219.82 2018.01,1216.11 2019.19,1212.37 2020.38,1208.6 2021.56,1204.8 2022.74,1200.97 2023.93,1197.1 2025.11,1193.21 2026.29,1189.29 2027.47,1185.35 2028.66,1181.37 2029.84,1177.37 2031.02,1173.34 2032.21,1169.28 2033.39,1165.2 2034.57,1161.09 2035.75,1156.96 2036.94,1152.8 2038.12,1148.62 2039.3,1144.41 2040.49,1140.18 2041.67,1135.93 2042.85,1131.66 2044.04,1127.36 2045.22,1123.04 2046.4,1118.7 2047.58,1114.35 2048.77,1109.97 2049.95,1105.57 2051.13,1101.15 2052.32,1096.72 2053.5,1092.26 2054.68,1087.79 2055.87,1083.3 2057.05,1078.8 2058.23,1074.28 2059.41,1069.74 2060.6,1065.19 2061.78,1060.63 2062.96,1056.05 2064.15,1051.45 2065.33,1046.85 2066.51,1042.23 2067.7,1037.6 2068.88,1032.95 2070.06,1028.3 2071.24,1023.63 2072.43,1018.96 2073.61,1014.27 2074.79,1009.58 2075.98,1004.88 2077.16,1000.17 2078.34,995.446 2079.52,990.72 2080.71,985.987 2081.89,981.248 2083.07,976.503 2084.26,971.753 2085.44,966.997 2086.62,962.238 2087.81,957.474 2088.99,952.708 2090.17,947.938 2091.35,943.166 2092.54,938.392 2093.72,933.616 2094.9,928.839 2096.09,924.062 2097.27,919.285 2098.45,914.508 2099.64,909.732 2100.82,904.958 2102,900.185 2103.18,895.415 2104.37,890.647 2105.55,885.883 2106.73,881.122 2107.92,876.365 2109.1,871.613 2110.28,866.867 2111.47,862.125 2112.65,857.39 2113.83,852.661 2115.01,847.939 2116.2,843.224 2117.38,838.517 2118.56,833.818 2119.75,829.128 2120.93,824.447 2122.11,819.775 2123.29,815.114 2124.48,810.462 2125.66,805.822 2126.84,801.193 2128.03,796.576 2129.21,791.97 2130.39,787.377 2131.58,782.797 2132.76,778.231 2133.94,773.678 2135.12,769.14 2136.31,764.616 2137.49,760.107 2138.67,755.613 2139.86,751.135 2141.04,746.673 2142.22,742.228 2143.41,737.8 2144.59,733.39 2145.77,728.997 2146.95,724.622 2148.14,720.266 2149.32,715.928 2150.5,711.61 2151.69,707.312 2152.87,703.033 2154.05,698.775 2155.24,694.538 2156.42,690.321 2157.6,686.127 2158.78,681.954 2159.97,677.803 2161.15,673.675 2162.33,669.569 2163.52,665.487 2164.7,661.428 2165.88,657.394 2167.06,653.383 2168.25,649.397 2169.43,645.436 2170.61,641.5 2171.8,637.589 2172.98,633.705 2174.16,629.846 2175.35,626.014 2176.53,622.209 2177.71,618.431 2178.89,614.68 2180.08,610.957 2181.26,607.262 2182.44,603.595 2183.63,599.957 2184.81,596.348 2185.99,592.767 2187.18,589.216 2188.36,585.695 2189.54,582.204 2190.72,578.743 2191.91,575.312 2193.09,571.913 2194.27,568.544 2195.46,565.207 2196.64,561.901 2197.82,558.626 2199.01,555.384 2200.19,552.175 2201.37,548.997 2202.55,545.853 2203.74,542.741 2204.92,539.663 2206.1,536.618 2207.29,533.607 2208.47,530.629 2209.65,527.686 2210.83,524.777 2212.02,521.903 2213.2,519.064 2214.38,516.259 2215.57,513.49 2216.75,510.756 2217.93,508.057 2219.12,505.395 2220.3,502.768 2221.48,500.178 2222.66,497.623 2223.85,495.106 2225.03,492.625 2226.21,490.181 2227.4,487.774 2228.58,485.404 2229.76,483.071 2230.95,480.777 2232.13,478.519 2233.31,476.3 2234.49,474.119 2235.68,471.976 2236.86,469.871 2238.04,467.805 2239.23,465.777 2240.41,463.788 2241.59,461.838 2242.78,459.927 2243.96,458.055 2245.14,456.222 2246.32,454.429 2247.51,452.675 2248.69,450.961 2249.87,449.287 2251.06,447.653 2252.24,446.058 2253.42,444.504 2254.6,442.99 2255.79,441.516 2256.97,440.083 2258.15,438.69 2259.34,437.337 2260.52,436.026 2261.7,434.755 2262.89,433.525 2264.07,432.336 2265.25,431.188 2266.43,430.081 2267.62,429.015 2268.8,427.99 2269.98,427.007 2271.17,426.065 2272.35,425.165 2273.53,424.306 2274.72,423.488 2275.9,422.713 2277.08,421.978 2278.26,421.286 2279.45,420.635 2280.63,420.026 2281.81,419.459 2283,418.934 2284.18,418.45 2285.36,418.009 2286.54,417.609 2287.73,417.252 2288.91,416.936 2290.09,416.663 2291.28,416.431 2292.46,416.242 2293.64,416.095 2294.83,415.989 2296.01,415.926 "/>
</svg>
