<?xml version="1.0" encoding="utf-8"?>
<svg xmlns="http://www.w3.org/2000/svg" xmlns:xlink="http://www.w3.org/1999/xlink" width="600" height="400" viewBox="0 0 2400 1600">
<defs>
  <clipPath id="clip860">
    <rect x="0" y="0" width="2400" height="1600"/>
  </clipPath>
</defs>
<path clip-path="url(#clip860)" d="M0 1600 L2400 1600 L2400 0 L0 0  Z" fill="#ffffff" fill-rule="evenodd" fill-opacity="1"/>
<defs>
  <clipPath id="clip861">
    <rect x="480" y="0" width="1681" height="1600"/>
  </clipPath>
</defs>
<path clip-path="url(#clip860)" d="M316.532 1423.18 L2352.76 1423.18 L2352.76 47.2441 L316.532 47.2441  Z" fill="#ffffff" fill-rule="evenodd" fill-opacity="1"/>
<defs>
  <clipPath id="clip862">
    <rect x="316" y="47" width="2037" height="1377"/>
  </clipPath>
</defs>
<polyline clip-path="url(#clip862)" style="stroke:#000000; stroke-linecap:round; stroke-linejoin:round; stroke-width:2; stroke-opacity:0.1; fill:none" points="316.532,1423.18 316.532,47.2441 "/>
<polyline clip-path="url(#clip862)" style="stroke:#000000; stroke-linecap:round; stroke-linejoin:round; stroke-width:2; stroke-opacity:0.1; fill:none" points="2352.76,1423.18 2352.76,47.2441 "/>
<polyline clip-path="url(#clip860)" style="stroke:#000000; stroke-linecap:round; stroke-linejoin:round; stroke-width:4; stroke-opacity:1; fill:none" points="316.532,1423.18 2352.76,1423.18 "/>
<polyline clip-path="url(#clip860)" style="stroke:#000000; stroke-linecap:round; stroke-linejoin:round; stroke-width:4; stroke-opacity:1; fill:none" points="316.532,1423.18 316.532,1404.28 "/>
<polyline clip-path="url(#clip860)" style="stroke:#000000; stroke-linecap:round; stroke-linejoin:round; stroke-width:4; stroke-opacity:1; fill:none" points="2352.76,1423.18 2352.76,1404.28 "/>
<path clip-path="url(#clip860)" d="M305.78 1485.58 L305.78 1451.02 L327.285 1451.02 L327.285 1454.96 L310.456 1454.96 L310.456 1485.58 L305.78 1485.58 Z" fill="#000000" fill-rule="nonzero" fill-opacity="1" /><path clip-path="url(#clip860)" d="M2339.54 1451.02 L2344.56 1451.02 L2353.15 1463.87 L2361.78 1451.02 L2366.81 1451.02 L2355.7 1467.62 L2367.55 1485.58 L2362.52 1485.58 L2352.8 1470.88 L2343.01 1485.58 L2337.96 1485.58 L2350.3 1467.13 L2339.54 1451.02 Z" fill="#000000" fill-rule="nonzero" fill-opacity="1" /><path clip-path="url(#clip860)" d="M1136.3 1532.4 L1142.16 1532.4 L1149.48 1560.21 L1156.77 1532.4 L1163.68 1532.4 L1171 1560.21 L1178.29 1532.4 L1184.14 1532.4 L1174.82 1568.04 L1167.91 1568.04 L1160.24 1538.83 L1152.54 1568.04 L1145.63 1568.04 L1136.3 1532.4 Z" fill="#000000" fill-rule="nonzero" fill-opacity="1" /><path clip-path="url(#clip860)" d="M1209.22 1550.12 Q1202.13 1550.12 1199.39 1551.75 Q1196.65 1553.37 1196.65 1557.29 Q1196.65 1560.4 1198.69 1562.25 Q1200.76 1564.07 1204.29 1564.07 Q1209.16 1564.07 1212.09 1560.63 Q1215.05 1557.16 1215.05 1551.43 L1215.05 1550.12 L1209.22 1550.12 M1220.9 1547.71 L1220.9 1568.04 L1215.05 1568.04 L1215.05 1562.63 Q1213.04 1565.88 1210.05 1567.44 Q1207.06 1568.97 1202.73 1568.97 Q1197.26 1568.97 1194.01 1565.91 Q1190.8 1562.82 1190.8 1557.67 Q1190.8 1551.65 1194.81 1548.6 Q1198.85 1545.54 1206.84 1545.54 L1215.05 1545.54 L1215.05 1544.97 Q1215.05 1540.93 1212.37 1538.73 Q1209.73 1536.5 1204.93 1536.5 Q1201.87 1536.5 1198.98 1537.23 Q1196.08 1537.97 1193.41 1539.43 L1193.41 1534.02 Q1196.62 1532.78 1199.64 1532.17 Q1202.67 1531.54 1205.53 1531.54 Q1213.27 1531.54 1217.09 1535.55 Q1220.9 1539.56 1220.9 1547.71 Z" fill="#000000" fill-rule="nonzero" fill-opacity="1" /><path clip-path="url(#clip860)" d="M1228.77 1532.4 L1234.97 1532.4 L1246.11 1562.31 L1257.25 1532.4 L1263.46 1532.4 L1250.09 1568.04 L1242.13 1568.04 L1228.77 1532.4 Z" fill="#000000" fill-rule="nonzero" fill-opacity="1" /><path clip-path="url(#clip860)" d="M1302.04 1548.76 L1302.04 1551.62 L1275.11 1551.62 Q1275.49 1557.67 1278.74 1560.85 Q1282.02 1564 1287.84 1564 Q1291.21 1564 1294.37 1563.17 Q1297.55 1562.35 1300.67 1560.69 L1300.67 1566.23 Q1297.52 1567.57 1294.21 1568.27 Q1290.9 1568.97 1287.49 1568.97 Q1278.96 1568.97 1273.96 1564 Q1269 1559.04 1269 1550.57 Q1269 1541.82 1273.71 1536.69 Q1278.45 1531.54 1286.47 1531.54 Q1293.66 1531.54 1297.83 1536.18 Q1302.04 1540.8 1302.04 1548.76 M1296.18 1547.04 Q1296.12 1542.23 1293.47 1539.37 Q1290.86 1536.5 1286.54 1536.5 Q1281.63 1536.5 1278.67 1539.27 Q1275.75 1542.04 1275.3 1547.07 L1296.18 1547.04 Z" fill="#000000" fill-rule="nonzero" fill-opacity="1" /><path clip-path="url(#clip860)" d="M1328.17 1532.4 L1334.37 1532.4 L1345.51 1562.31 L1356.65 1532.4 L1362.86 1532.4 L1349.49 1568.04 L1341.54 1568.04 L1328.17 1532.4 Z" fill="#000000" fill-rule="nonzero" fill-opacity="1" /><path clip-path="url(#clip860)" d="M1401.44 1548.76 L1401.44 1551.62 L1374.51 1551.62 Q1374.89 1557.67 1378.14 1560.85 Q1381.42 1564 1387.24 1564 Q1390.61 1564 1393.77 1563.17 Q1396.95 1562.35 1400.07 1560.69 L1400.07 1566.23 Q1396.92 1567.57 1393.61 1568.27 Q1390.3 1568.97 1386.89 1568.97 Q1378.36 1568.97 1373.36 1564 Q1368.4 1559.04 1368.4 1550.57 Q1368.4 1541.82 1373.11 1536.69 Q1377.85 1531.54 1385.87 1531.54 Q1393.07 1531.54 1397.23 1536.18 Q1401.44 1540.8 1401.44 1548.76 M1395.58 1547.04 Q1395.52 1542.23 1392.87 1539.37 Q1390.26 1536.5 1385.94 1536.5 Q1381.03 1536.5 1378.07 1539.27 Q1375.15 1542.04 1374.7 1547.07 L1395.58 1547.04 Z" fill="#000000" fill-rule="nonzero" fill-opacity="1" /><path clip-path="url(#clip860)" d="M1436.7 1533.76 L1436.7 1539.24 Q1434.22 1537.87 1431.71 1537.2 Q1429.22 1536.5 1426.68 1536.5 Q1420.98 1536.5 1417.83 1540.13 Q1414.68 1543.73 1414.68 1550.25 Q1414.68 1556.78 1417.83 1560.4 Q1420.98 1564 1426.68 1564 Q1429.22 1564 1431.71 1563.33 Q1434.22 1562.63 1436.7 1561.26 L1436.7 1566.68 Q1434.25 1567.82 1431.61 1568.39 Q1429 1568.97 1426.04 1568.97 Q1417.99 1568.97 1413.24 1563.91 Q1408.5 1558.85 1408.5 1550.25 Q1408.5 1541.53 1413.28 1536.53 Q1418.08 1531.54 1426.42 1531.54 Q1429.13 1531.54 1431.71 1532.11 Q1434.28 1532.65 1436.7 1533.76 Z" fill="#000000" fill-rule="nonzero" fill-opacity="1" /><path clip-path="url(#clip860)" d="M1452.68 1522.27 L1452.68 1532.4 L1464.74 1532.4 L1464.74 1536.95 L1452.68 1536.95 L1452.68 1556.3 Q1452.68 1560.66 1453.86 1561.9 Q1455.07 1563.14 1458.73 1563.14 L1464.74 1563.14 L1464.74 1568.04 L1458.73 1568.04 Q1451.95 1568.04 1449.37 1565.53 Q1446.79 1562.98 1446.79 1556.3 L1446.79 1536.95 L1442.5 1536.95 L1442.5 1532.4 L1446.79 1532.4 L1446.79 1522.27 L1452.68 1522.27 Z" fill="#000000" fill-rule="nonzero" fill-opacity="1" /><path clip-path="url(#clip860)" d="M1486.26 1536.5 Q1481.55 1536.5 1478.81 1540.19 Q1476.07 1543.85 1476.07 1550.25 Q1476.07 1556.65 1478.78 1560.34 Q1481.52 1564 1486.26 1564 Q1490.94 1564 1493.68 1560.31 Q1496.41 1556.62 1496.41 1550.25 Q1496.41 1543.92 1493.68 1540.23 Q1490.94 1536.5 1486.26 1536.5 M1486.26 1531.54 Q1493.9 1531.54 1498.26 1536.5 Q1502.62 1541.47 1502.62 1550.25 Q1502.62 1559 1498.26 1564 Q1493.9 1568.97 1486.26 1568.97 Q1478.59 1568.97 1474.23 1564 Q1469.9 1559 1469.9 1550.25 Q1469.9 1541.47 1474.23 1536.5 Q1478.59 1531.54 1486.26 1531.54 Z" fill="#000000" fill-rule="nonzero" fill-opacity="1" /><path clip-path="url(#clip860)" d="M1532.98 1537.87 Q1532 1537.3 1530.82 1537.04 Q1529.67 1536.76 1528.27 1536.76 Q1523.31 1536.76 1520.63 1540 Q1517.99 1543.22 1517.99 1549.27 L1517.99 1568.04 L1512.1 1568.04 L1512.1 1532.4 L1517.99 1532.4 L1517.99 1537.93 Q1519.84 1534.69 1522.8 1533.13 Q1525.76 1531.54 1529.99 1531.54 Q1530.6 1531.54 1531.33 1531.63 Q1532.06 1531.7 1532.95 1531.85 L1532.98 1537.87 Z" fill="#000000" fill-rule="nonzero" fill-opacity="1" /><polyline clip-path="url(#clip862)" style="stroke:#000000; stroke-linecap:round; stroke-linejoin:round; stroke-width:2; stroke-opacity:0.1; fill:none" points="316.532,1222.67 2352.76,1222.67 "/>
<polyline clip-path="url(#clip862)" style="stroke:#000000; stroke-linecap:round; stroke-linejoin:round; stroke-width:2; stroke-opacity:0.1; fill:none" points="316.532,876.954 2352.76,876.954 "/>
<polyline clip-path="url(#clip862)" style="stroke:#000000; stroke-linecap:round; stroke-linejoin:round; stroke-width:2; stroke-opacity:0.1; fill:none" points="316.532,531.242 2352.76,531.242 "/>
<polyline clip-path="url(#clip862)" style="stroke:#000000; stroke-linecap:round; stroke-linejoin:round; stroke-width:2; stroke-opacity:0.1; fill:none" points="316.532,185.529 2352.76,185.529 "/>
<polyline clip-path="url(#clip860)" style="stroke:#000000; stroke-linecap:round; stroke-linejoin:round; stroke-width:4; stroke-opacity:1; fill:none" points="316.532,1423.18 316.532,47.2441 "/>
<polyline clip-path="url(#clip860)" style="stroke:#000000; stroke-linecap:round; stroke-linejoin:round; stroke-width:4; stroke-opacity:1; fill:none" points="316.532,1222.67 335.43,1222.67 "/>
<polyline clip-path="url(#clip860)" style="stroke:#000000; stroke-linecap:round; stroke-linejoin:round; stroke-width:4; stroke-opacity:1; fill:none" points="316.532,876.954 335.43,876.954 "/>
<polyline clip-path="url(#clip860)" style="stroke:#000000; stroke-linecap:round; stroke-linejoin:round; stroke-width:4; stroke-opacity:1; fill:none" points="316.532,531.242 335.43,531.242 "/>
<polyline clip-path="url(#clip860)" style="stroke:#000000; stroke-linecap:round; stroke-linejoin:round; stroke-width:4; stroke-opacity:1; fill:none" points="316.532,185.529 335.43,185.529 "/>
<path clip-path="url(#clip860)" d="M114.26 1223.12 L143.936 1223.12 L143.936 1227.05 L114.26 1227.05 L114.26 1223.12 Z" fill="#000000" fill-rule="nonzero" fill-opacity="1" /><path clip-path="url(#clip860)" d="M164.028 1208.47 Q160.417 1208.47 158.589 1212.03 Q156.783 1215.57 156.783 1222.7 Q156.783 1229.81 158.589 1233.37 Q160.417 1236.91 164.028 1236.91 Q167.663 1236.91 169.468 1233.37 Q171.297 1229.81 171.297 1222.7 Q171.297 1215.57 169.468 1212.03 Q167.663 1208.47 164.028 1208.47 M164.028 1204.76 Q169.839 1204.76 172.894 1209.37 Q175.973 1213.95 175.973 1222.7 Q175.973 1231.43 172.894 1236.03 Q169.839 1240.62 164.028 1240.62 Q158.218 1240.62 155.14 1236.03 Q152.084 1231.43 152.084 1222.7 Q152.084 1213.95 155.14 1209.37 Q158.218 1204.76 164.028 1204.76 Z" fill="#000000" fill-rule="nonzero" fill-opacity="1" /><path clip-path="url(#clip860)" d="M184.19 1234.07 L189.075 1234.07 L189.075 1239.95 L184.19 1239.95 L184.19 1234.07 Z" fill="#000000" fill-rule="nonzero" fill-opacity="1" /><path clip-path="url(#clip860)" d="M209.26 1208.47 Q205.649 1208.47 203.82 1212.03 Q202.014 1215.57 202.014 1222.7 Q202.014 1229.81 203.82 1233.37 Q205.649 1236.91 209.26 1236.91 Q212.894 1236.91 214.699 1233.37 Q216.528 1229.81 216.528 1222.7 Q216.528 1215.57 214.699 1212.03 Q212.894 1208.47 209.26 1208.47 M209.26 1204.76 Q215.07 1204.76 218.125 1209.37 Q221.204 1213.95 221.204 1222.7 Q221.204 1231.43 218.125 1236.03 Q215.07 1240.62 209.26 1240.62 Q203.449 1240.62 200.371 1236.03 Q197.315 1231.43 197.315 1222.7 Q197.315 1213.95 200.371 1209.37 Q203.449 1204.76 209.26 1204.76 Z" fill="#000000" fill-rule="nonzero" fill-opacity="1" /><path clip-path="url(#clip860)" d="M239.422 1208.47 Q235.81 1208.47 233.982 1212.03 Q232.176 1215.57 232.176 1222.7 Q232.176 1229.81 233.982 1233.37 Q235.81 1236.91 239.422 1236.91 Q243.056 1236.91 244.861 1233.37 Q246.69 1229.81 246.69 1222.7 Q246.69 1215.57 244.861 1212.03 Q243.056 1208.47 239.422 1208.47 M239.422 1204.76 Q245.232 1204.76 248.287 1209.37 Q251.366 1213.95 251.366 1222.7 Q251.366 1231.43 248.287 1236.03 Q245.232 1240.62 239.422 1240.62 Q233.611 1240.62 230.533 1236.03 Q227.477 1231.43 227.477 1222.7 Q227.477 1213.95 230.533 1209.37 Q233.611 1204.76 239.422 1204.76 Z" fill="#000000" fill-rule="nonzero" fill-opacity="1" /><path clip-path="url(#clip860)" d="M259.63 1205.39 L277.986 1205.39 L277.986 1209.32 L263.912 1209.32 L263.912 1217.79 Q264.931 1217.45 265.949 1217.28 Q266.968 1217.1 267.986 1217.1 Q273.773 1217.1 277.153 1220.27 Q280.532 1223.44 280.532 1228.86 Q280.532 1234.44 277.06 1237.54 Q273.588 1240.62 267.269 1240.62 Q265.093 1240.62 262.824 1240.25 Q260.579 1239.88 258.171 1239.14 L258.171 1234.44 Q260.255 1235.57 262.477 1236.13 Q264.699 1236.68 267.176 1236.68 Q271.181 1236.68 273.519 1234.58 Q275.857 1232.47 275.857 1228.86 Q275.857 1225.25 273.519 1223.14 Q271.181 1221.03 267.176 1221.03 Q265.301 1221.03 263.426 1221.45 Q261.574 1221.87 259.63 1222.75 L259.63 1205.39 Z" fill="#000000" fill-rule="nonzero" fill-opacity="1" /><path clip-path="url(#clip860)" d="M163.033 862.753 Q159.422 862.753 157.593 866.318 Q155.788 869.859 155.788 876.989 Q155.788 884.095 157.593 887.66 Q159.422 891.202 163.033 891.202 Q166.667 891.202 168.473 887.66 Q170.302 884.095 170.302 876.989 Q170.302 869.859 168.473 866.318 Q166.667 862.753 163.033 862.753 M163.033 859.049 Q168.843 859.049 171.899 863.656 Q174.977 868.239 174.977 876.989 Q174.977 885.716 171.899 890.322 Q168.843 894.905 163.033 894.905 Q157.223 894.905 154.144 890.322 Q151.089 885.716 151.089 876.989 Q151.089 868.239 154.144 863.656 Q157.223 859.049 163.033 859.049 Z" fill="#000000" fill-rule="nonzero" fill-opacity="1" /><path clip-path="url(#clip860)" d="M183.195 888.354 L188.079 888.354 L188.079 894.234 L183.195 894.234 L183.195 888.354 Z" fill="#000000" fill-rule="nonzero" fill-opacity="1" /><path clip-path="url(#clip860)" d="M208.264 862.753 Q204.653 862.753 202.824 866.318 Q201.019 869.859 201.019 876.989 Q201.019 884.095 202.824 887.66 Q204.653 891.202 208.264 891.202 Q211.899 891.202 213.704 887.66 Q215.533 884.095 215.533 876.989 Q215.533 869.859 213.704 866.318 Q211.899 862.753 208.264 862.753 M208.264 859.049 Q214.074 859.049 217.13 863.656 Q220.209 868.239 220.209 876.989 Q220.209 885.716 217.13 890.322 Q214.074 894.905 208.264 894.905 Q202.454 894.905 199.375 890.322 Q196.32 885.716 196.32 876.989 Q196.32 868.239 199.375 863.656 Q202.454 859.049 208.264 859.049 Z" fill="#000000" fill-rule="nonzero" fill-opacity="1" /><path clip-path="url(#clip860)" d="M238.426 862.753 Q234.815 862.753 232.986 866.318 Q231.181 869.859 231.181 876.989 Q231.181 884.095 232.986 887.66 Q234.815 891.202 238.426 891.202 Q242.06 891.202 243.866 887.66 Q245.695 884.095 245.695 876.989 Q245.695 869.859 243.866 866.318 Q242.06 862.753 238.426 862.753 M238.426 859.049 Q244.236 859.049 247.292 863.656 Q250.371 868.239 250.371 876.989 Q250.371 885.716 247.292 890.322 Q244.236 894.905 238.426 894.905 Q232.616 894.905 229.537 890.322 Q226.482 885.716 226.482 876.989 Q226.482 868.239 229.537 863.656 Q232.616 859.049 238.426 859.049 Z" fill="#000000" fill-rule="nonzero" fill-opacity="1" /><path clip-path="url(#clip860)" d="M268.588 862.753 Q264.977 862.753 263.148 866.318 Q261.343 869.859 261.343 876.989 Q261.343 884.095 263.148 887.66 Q264.977 891.202 268.588 891.202 Q272.222 891.202 274.028 887.66 Q275.857 884.095 275.857 876.989 Q275.857 869.859 274.028 866.318 Q272.222 862.753 268.588 862.753 M268.588 859.049 Q274.398 859.049 277.454 863.656 Q280.532 868.239 280.532 876.989 Q280.532 885.716 277.454 890.322 Q274.398 894.905 268.588 894.905 Q262.778 894.905 259.699 890.322 Q256.644 885.716 256.644 876.989 Q256.644 868.239 259.699 863.656 Q262.778 859.049 268.588 859.049 Z" fill="#000000" fill-rule="nonzero" fill-opacity="1" /><path clip-path="url(#clip860)" d="M164.028 517.04 Q160.417 517.04 158.589 520.605 Q156.783 524.147 156.783 531.276 Q156.783 538.383 158.589 541.948 Q160.417 545.489 164.028 545.489 Q167.663 545.489 169.468 541.948 Q171.297 538.383 171.297 531.276 Q171.297 524.147 169.468 520.605 Q167.663 517.04 164.028 517.04 M164.028 513.337 Q169.839 513.337 172.894 517.943 Q175.973 522.526 175.973 531.276 Q175.973 540.003 172.894 544.61 Q169.839 549.193 164.028 549.193 Q158.218 549.193 155.14 544.61 Q152.084 540.003 152.084 531.276 Q152.084 522.526 155.14 517.943 Q158.218 513.337 164.028 513.337 Z" fill="#000000" fill-rule="nonzero" fill-opacity="1" /><path clip-path="url(#clip860)" d="M184.19 542.642 L189.075 542.642 L189.075 548.522 L184.19 548.522 L184.19 542.642 Z" fill="#000000" fill-rule="nonzero" fill-opacity="1" /><path clip-path="url(#clip860)" d="M209.26 517.04 Q205.649 517.04 203.82 520.605 Q202.014 524.147 202.014 531.276 Q202.014 538.383 203.82 541.948 Q205.649 545.489 209.26 545.489 Q212.894 545.489 214.699 541.948 Q216.528 538.383 216.528 531.276 Q216.528 524.147 214.699 520.605 Q212.894 517.04 209.26 517.04 M209.26 513.337 Q215.07 513.337 218.125 517.943 Q221.204 522.526 221.204 531.276 Q221.204 540.003 218.125 544.61 Q215.07 549.193 209.26 549.193 Q203.449 549.193 200.371 544.61 Q197.315 540.003 197.315 531.276 Q197.315 522.526 200.371 517.943 Q203.449 513.337 209.26 513.337 Z" fill="#000000" fill-rule="nonzero" fill-opacity="1" /><path clip-path="url(#clip860)" d="M239.422 517.04 Q235.81 517.04 233.982 520.605 Q232.176 524.147 232.176 531.276 Q232.176 538.383 233.982 541.948 Q235.81 545.489 239.422 545.489 Q243.056 545.489 244.861 541.948 Q246.69 538.383 246.69 531.276 Q246.69 524.147 244.861 520.605 Q243.056 517.04 239.422 517.04 M239.422 513.337 Q245.232 513.337 248.287 517.943 Q251.366 522.526 251.366 531.276 Q251.366 540.003 248.287 544.61 Q245.232 549.193 239.422 549.193 Q233.611 549.193 230.533 544.61 Q227.477 540.003 227.477 531.276 Q227.477 522.526 230.533 517.943 Q233.611 513.337 239.422 513.337 Z" fill="#000000" fill-rule="nonzero" fill-opacity="1" /><path clip-path="url(#clip860)" d="M259.63 513.962 L277.986 513.962 L277.986 517.897 L263.912 517.897 L263.912 526.369 Q264.931 526.022 265.949 525.86 Q266.968 525.674 267.986 525.674 Q273.773 525.674 277.153 528.846 Q280.532 532.017 280.532 537.434 Q280.532 543.012 277.06 546.114 Q273.588 549.193 267.269 549.193 Q265.093 549.193 262.824 548.823 Q260.579 548.452 258.171 547.711 L258.171 543.012 Q260.255 544.147 262.477 544.702 Q264.699 545.258 267.176 545.258 Q271.181 545.258 273.519 543.151 Q275.857 541.045 275.857 537.434 Q275.857 533.823 273.519 531.716 Q271.181 529.61 267.176 529.61 Q265.301 529.61 263.426 530.026 Q261.574 530.443 259.63 531.323 L259.63 513.962 Z" fill="#000000" fill-rule="nonzero" fill-opacity="1" /><path clip-path="url(#clip860)" d="M163.033 171.328 Q159.422 171.328 157.593 174.893 Q155.788 178.434 155.788 185.564 Q155.788 192.67 157.593 196.235 Q159.422 199.777 163.033 199.777 Q166.667 199.777 168.473 196.235 Q170.302 192.67 170.302 185.564 Q170.302 178.434 168.473 174.893 Q166.667 171.328 163.033 171.328 M163.033 167.624 Q168.843 167.624 171.899 172.231 Q174.977 176.814 174.977 185.564 Q174.977 194.291 171.899 198.897 Q168.843 203.48 163.033 203.48 Q157.223 203.48 154.144 198.897 Q151.089 194.291 151.089 185.564 Q151.089 176.814 154.144 172.231 Q157.223 167.624 163.033 167.624 Z" fill="#000000" fill-rule="nonzero" fill-opacity="1" /><path clip-path="url(#clip860)" d="M183.195 196.929 L188.079 196.929 L188.079 202.809 L183.195 202.809 L183.195 196.929 Z" fill="#000000" fill-rule="nonzero" fill-opacity="1" /><path clip-path="url(#clip860)" d="M208.264 171.328 Q204.653 171.328 202.824 174.893 Q201.019 178.434 201.019 185.564 Q201.019 192.67 202.824 196.235 Q204.653 199.777 208.264 199.777 Q211.899 199.777 213.704 196.235 Q215.533 192.67 215.533 185.564 Q215.533 178.434 213.704 174.893 Q211.899 171.328 208.264 171.328 M208.264 167.624 Q214.074 167.624 217.13 172.231 Q220.209 176.814 220.209 185.564 Q220.209 194.291 217.13 198.897 Q214.074 203.48 208.264 203.48 Q202.454 203.48 199.375 198.897 Q196.32 194.291 196.32 185.564 Q196.32 176.814 199.375 172.231 Q202.454 167.624 208.264 167.624 Z" fill="#000000" fill-rule="nonzero" fill-opacity="1" /><path clip-path="url(#clip860)" d="M229.236 198.874 L236.875 198.874 L236.875 172.508 L228.565 174.175 L228.565 169.916 L236.829 168.249 L241.505 168.249 L241.505 198.874 L249.144 198.874 L249.144 202.809 L229.236 202.809 L229.236 198.874 Z" fill="#000000" fill-rule="nonzero" fill-opacity="1" /><path clip-path="url(#clip860)" d="M268.588 171.328 Q264.977 171.328 263.148 174.893 Q261.343 178.434 261.343 185.564 Q261.343 192.67 263.148 196.235 Q264.977 199.777 268.588 199.777 Q272.222 199.777 274.028 196.235 Q275.857 192.67 275.857 185.564 Q275.857 178.434 274.028 174.893 Q272.222 171.328 268.588 171.328 M268.588 167.624 Q274.398 167.624 277.454 172.231 Q280.532 176.814 280.532 185.564 Q280.532 194.291 277.454 198.897 Q274.398 203.48 268.588 203.48 Q262.778 203.48 259.699 198.897 Q256.644 194.291 256.644 185.564 Q256.644 176.814 259.699 172.231 Q262.778 167.624 268.588 167.624 Z" fill="#000000" fill-rule="nonzero" fill-opacity="1" /><path clip-path="url(#clip860)" d="M44.7161 974.006 L47.5806 974.006 L47.5806 1000.93 Q53.6281 1000.55 56.8109 997.304 Q59.9619 994.026 59.9619 988.201 Q59.9619 984.827 59.1344 981.676 Q58.3069 978.493 56.6518 975.374 L62.1899 975.374 Q63.5267 978.525 64.227 981.835 Q64.9272 985.146 64.9272 988.551 Q64.9272 997.081 59.9619 1002.08 Q54.9967 1007.04 46.5303 1007.04 Q37.7774 1007.04 32.6531 1002.33 Q27.4968 997.59 27.4968 989.57 Q27.4968 982.376 32.1438 978.207 Q36.7589 974.006 44.7161 974.006 M42.9973 979.862 Q38.1912 979.926 35.3266 982.567 Q32.4621 985.177 32.4621 989.506 Q32.4621 994.408 35.2312 997.368 Q38.0002 1000.3 43.0292 1000.74 L42.9973 979.862 Z" fill="#000000" fill-rule="nonzero" fill-opacity="1" /><path clip-path="url(#clip860)" d="M28.3562 964.393 L28.3562 958.537 L64.0042 958.537 L64.0042 964.393 L28.3562 964.393 M14.479 964.393 L14.479 958.537 L21.895 958.537 L21.895 964.393 L14.479 964.393 Z" fill="#000000" fill-rule="nonzero" fill-opacity="1" /><path clip-path="url(#clip860)" d="M45.7664 922.825 Q39.4007 922.825 35.8996 925.467 Q32.3984 928.077 32.3984 932.819 Q32.3984 937.53 35.8996 940.172 Q39.4007 942.782 45.7664 942.782 Q52.1003 942.782 55.6014 940.172 Q59.1026 937.53 59.1026 932.819 Q59.1026 928.077 55.6014 925.467 Q52.1003 922.825 45.7664 922.825 M59.58 916.969 Q68.683 916.969 73.1071 921.011 Q77.5631 925.053 77.5631 933.392 Q77.5631 936.48 77.0857 939.217 Q76.6401 941.954 75.6852 944.532 L69.9879 944.532 Q71.3884 941.954 72.0568 939.44 Q72.7252 936.925 72.7252 934.315 Q72.7252 928.554 69.7015 925.69 Q66.7096 922.825 60.6303 922.825 L57.7339 922.825 Q60.885 924.639 62.4446 927.472 Q64.0042 930.305 64.0042 934.252 Q64.0042 940.808 59.0071 944.819 Q54.01 948.829 45.7664 948.829 Q37.491 948.829 32.4939 944.819 Q27.4968 940.808 27.4968 934.252 Q27.4968 930.305 29.0564 927.472 Q30.616 924.639 33.7671 922.825 L28.3562 922.825 L28.3562 916.969 L59.58 916.969 Z" fill="#000000" fill-rule="nonzero" fill-opacity="1" /><path clip-path="url(#clip860)" d="M44.7161 874.414 L47.5806 874.414 L47.5806 901.341 Q53.6281 900.959 56.8109 897.713 Q59.9619 894.434 59.9619 888.61 Q59.9619 885.236 59.1344 882.085 Q58.3069 878.902 56.6518 875.783 L62.1899 875.783 Q63.5267 878.934 64.227 882.244 Q64.9272 885.554 64.9272 888.96 Q64.9272 897.49 59.9619 902.487 Q54.9967 907.452 46.5303 907.452 Q37.7774 907.452 32.6531 902.741 Q27.4968 897.999 27.4968 889.978 Q27.4968 882.785 32.1438 878.615 Q36.7589 874.414 44.7161 874.414 M42.9973 880.271 Q38.1912 880.334 35.3266 882.976 Q32.4621 885.586 32.4621 889.915 Q32.4621 894.816 35.2312 897.776 Q38.0002 900.704 43.0292 901.15 L42.9973 880.271 Z" fill="#000000" fill-rule="nonzero" fill-opacity="1" /><path clip-path="url(#clip860)" d="M42.4881 835.169 L64.0042 835.169 L64.0042 841.026 L42.679 841.026 Q37.6183 841.026 35.1038 842.999 Q32.5894 844.973 32.5894 848.919 Q32.5894 853.662 35.6131 856.399 Q38.6368 859.136 43.8567 859.136 L64.0042 859.136 L64.0042 865.025 L28.3562 865.025 L28.3562 859.136 L33.8944 859.136 Q30.6797 857.036 29.0883 854.203 Q27.4968 851.338 27.4968 847.614 Q27.4968 841.472 31.3163 838.321 Q35.1038 835.169 42.4881 835.169 Z" fill="#000000" fill-rule="nonzero" fill-opacity="1" /><path clip-path="url(#clip860)" d="M28.3562 827.69 L28.3562 821.483 L58.275 810.343 L28.3562 799.203 L28.3562 792.997 L64.0042 806.365 L64.0042 814.322 L28.3562 827.69 Z" fill="#000000" fill-rule="nonzero" fill-opacity="1" /><path clip-path="url(#clip860)" d="M46.0847 768.711 Q46.0847 775.809 47.7079 778.547 Q49.3312 781.284 53.2461 781.284 Q56.3653 781.284 58.2114 779.247 Q60.0256 777.178 60.0256 773.645 Q60.0256 768.775 56.5881 765.847 Q53.1188 762.887 47.3897 762.887 L46.0847 762.887 L46.0847 768.711 M43.6657 757.03 L64.0042 757.03 L64.0042 762.887 L58.5933 762.887 Q61.8398 764.892 63.3994 767.884 Q64.9272 770.876 64.9272 775.205 Q64.9272 780.679 61.8716 783.926 Q58.7843 787.14 53.6281 787.14 Q47.6125 787.14 44.5569 783.13 Q41.5014 779.088 41.5014 771.099 L41.5014 762.887 L40.9285 762.887 Q36.8862 762.887 34.6901 765.56 Q32.4621 768.202 32.4621 773.008 Q32.4621 776.064 33.1941 778.96 Q33.9262 781.857 35.3903 784.53 L29.9795 784.53 Q28.7381 781.316 28.1334 778.292 Q27.4968 775.268 27.4968 772.404 Q27.4968 764.669 31.5072 760.85 Q35.5176 757.03 43.6657 757.03 Z" fill="#000000" fill-rule="nonzero" fill-opacity="1" /><path clip-path="url(#clip860)" d="M14.479 744.967 L14.479 739.111 L64.0042 739.111 L64.0042 744.967 L14.479 744.967 Z" fill="#000000" fill-rule="nonzero" fill-opacity="1" /><path clip-path="url(#clip860)" d="M49.9359 727.462 L28.3562 727.462 L28.3562 721.605 L49.7131 721.605 Q54.7739 721.605 57.3202 719.632 Q59.8346 717.659 59.8346 713.712 Q59.8346 708.969 56.8109 706.232 Q53.7872 703.463 48.5673 703.463 L28.3562 703.463 L28.3562 697.607 L64.0042 697.607 L64.0042 703.463 L58.5296 703.463 Q61.7762 705.596 63.3676 708.428 Q64.9272 711.229 64.9272 714.953 Q64.9272 721.096 61.1078 724.279 Q57.2883 727.462 49.9359 727.462 M27.4968 712.725 L27.4968 712.725 Z" fill="#000000" fill-rule="nonzero" fill-opacity="1" /><path clip-path="url(#clip860)" d="M44.7161 655.052 L47.5806 655.052 L47.5806 681.979 Q53.6281 681.597 56.8109 678.35 Q59.9619 675.072 59.9619 669.247 Q59.9619 665.874 59.1344 662.722 Q58.3069 659.54 56.6518 656.42 L62.1899 656.42 Q63.5267 659.571 64.227 662.882 Q64.9272 666.192 64.9272 669.597 Q64.9272 678.127 59.9619 683.125 Q54.9967 688.09 46.5303 688.09 Q37.7774 688.09 32.6531 683.379 Q27.4968 678.637 27.4968 670.616 Q27.4968 663.423 32.1438 659.253 Q36.7589 655.052 44.7161 655.052 M42.9973 660.908 Q38.1912 660.972 35.3266 663.614 Q32.4621 666.224 32.4621 670.552 Q32.4621 675.454 35.2312 678.414 Q38.0002 681.342 43.0292 681.788 L42.9973 660.908 Z" fill="#000000" fill-rule="nonzero" fill-opacity="1" /><path clip-path="url(#clip860)" d="M29.4065 622.714 L34.9447 622.714 Q33.6716 625.197 33.035 627.87 Q32.3984 630.544 32.3984 633.408 Q32.3984 637.769 33.7352 639.965 Q35.072 642.129 37.7456 642.129 Q39.7826 642.129 40.9603 640.57 Q42.1061 639.01 43.1565 634.3 L43.6021 632.294 Q44.9389 626.056 47.3897 623.446 Q49.8086 620.804 54.1691 620.804 Q59.1344 620.804 62.0308 624.751 Q64.9272 628.666 64.9272 635.541 Q64.9272 638.405 64.3543 641.525 Q63.8132 644.612 62.6992 648.05 L56.6518 648.05 Q58.3387 644.803 59.198 641.652 Q60.0256 638.501 60.0256 635.414 Q60.0256 631.276 58.6251 629.048 Q57.1929 626.82 54.6147 626.82 Q52.2276 626.82 50.9545 628.443 Q49.6813 630.035 48.5037 635.477 L48.0262 637.514 Q46.8804 642.957 44.5251 645.376 Q42.138 647.795 38.0002 647.795 Q32.9713 647.795 30.2341 644.23 Q27.4968 640.665 27.4968 634.109 Q27.4968 630.862 27.9743 627.998 Q28.4517 625.133 29.4065 622.714 Z" fill="#000000" fill-rule="nonzero" fill-opacity="1" /><path clip-path="url(#clip860)" d="M14.5426 555.97 Q21.8632 560.235 29.0246 562.303 Q36.186 564.372 43.5384 564.372 Q50.8908 564.372 58.1159 562.303 Q65.3091 560.203 72.5979 555.97 L72.5979 561.062 Q65.1182 565.836 57.8931 568.224 Q50.668 570.579 43.5384 570.579 Q36.4406 570.579 29.2474 568.224 Q22.0542 565.868 14.5426 561.062 L14.5426 555.97 Z" fill="#000000" fill-rule="nonzero" fill-opacity="1" /><path clip-path="url(#clip860)" d="M16.4842 544.352 L16.4842 514.306 L21.895 514.306 L21.895 537.923 L35.9632 537.923 L35.9632 515.293 L41.3741 515.293 L41.3741 537.923 L58.5933 537.923 L58.5933 513.733 L64.0042 513.733 L64.0042 544.352 L16.4842 544.352 Z" fill="#000000" fill-rule="nonzero" fill-opacity="1" /><path clip-path="url(#clip860)" d="M51.9411 487.029 L64.0042 487.029 L64.0042 490.721 L52.0685 490.721 Q49.2357 490.721 47.8353 491.962 Q46.403 493.204 46.403 495.686 Q46.403 498.678 48.1217 500.397 Q49.8086 502.116 52.7369 502.116 L64.0042 502.116 L64.0042 505.84 L36.2815 505.84 L36.2815 502.116 L47.135 502.116 Q45.3526 500.811 44.4614 499.028 Q43.5702 497.214 43.5702 494.859 Q43.5702 491.008 45.7028 489.034 Q47.8353 487.029 51.9411 487.029 Z" fill="#000000" fill-rule="nonzero" fill-opacity="1" /><path clip-path="url(#clip860)" d="M14.5426 477.99 L14.5426 472.897 Q22.0542 468.123 29.2474 465.768 Q36.4406 463.38 43.5384 463.38 Q50.668 463.38 57.8931 465.768 Q65.1182 468.123 72.5979 472.897 L72.5979 477.99 Q65.3091 473.756 58.1159 471.688 Q50.8908 469.587 43.5384 469.587 Q36.186 469.587 29.0246 471.688 Q21.8632 473.756 14.5426 477.99 Z" fill="#000000" fill-rule="nonzero" fill-opacity="1" /><polyline clip-path="url(#clip862)" style="stroke:#0000ff; stroke-linecap:round; stroke-linejoin:round; stroke-width:4; stroke-opacity:1; fill:none" points="316.532,1423.84 452.281,1423.81 588.029,1423.72 723.777,1423.56 859.525,1423.35 995.274,1423.1 1131.02,1422.81 1266.77,1422.49 1402.52,1422.15 1538.27,1421.82 1674.01,1421.51 1809.76,1421.22 1945.51,1420.98 2081.26,1420.8 2217.01,1420.69 2352.76,1420.65 "/>
<circle clip-path="url(#clip862)" cx="995.274" cy="1423.1" r="7.2" fill="#0000ff" fill-rule="evenodd" fill-opacity="1" stroke="#000000" stroke-opacity="1" stroke-width="3.2"/>
<circle clip-path="url(#clip862)" cx="1131.02" cy="1422.81" r="7.2" fill="#0000ff" fill-rule="evenodd" fill-opacity="1" stroke="#000000" stroke-opacity="1" stroke-width="3.2"/>
<circle clip-path="url(#clip862)" cx="1266.77" cy="1422.49" r="7.2" fill="#0000ff" fill-rule="evenodd" fill-opacity="1" stroke="#000000" stroke-opacity="1" stroke-width="3.2"/>
<circle clip-path="url(#clip862)" cx="1402.52" cy="1422.15" r="7.2" fill="#0000ff" fill-rule="evenodd" fill-opacity="1" stroke="#000000" stroke-opacity="1" stroke-width="3.2"/>
<circle clip-path="url(#clip862)" cx="1538.27" cy="1421.82" r="7.2" fill="#0000ff" fill-rule="evenodd" fill-opacity="1" stroke="#000000" stroke-opacity="1" stroke-width="3.2"/>
<circle clip-path="url(#clip862)" cx="1674.01" cy="1421.51" r="7.2" fill="#0000ff" fill-rule="evenodd" fill-opacity="1" stroke="#000000" stroke-opacity="1" stroke-width="3.2"/>
<circle clip-path="url(#clip862)" cx="1809.76" cy="1421.22" r="7.2" fill="#0000ff" fill-rule="evenodd" fill-opacity="1" stroke="#000000" stroke-opacity="1" stroke-width="3.2"/>
<circle clip-path="url(#clip862)" cx="1945.51" cy="1420.98" r="7.2" fill="#0000ff" fill-rule="evenodd" fill-opacity="1" stroke="#000000" stroke-opacity="1" stroke-width="3.2"/>
<circle clip-path="url(#clip862)" cx="2081.26" cy="1420.8" r="7.2" fill="#0000ff" fill-rule="evenodd" fill-opacity="1" stroke="#000000" stroke-opacity="1" stroke-width="3.2"/>
<circle clip-path="url(#clip862)" cx="2217.01" cy="1420.69" r="7.2" fill="#0000ff" fill-rule="evenodd" fill-opacity="1" stroke="#000000" stroke-opacity="1" stroke-width="3.2"/>
<circle clip-path="url(#clip862)" cx="2352.76" cy="1420.65" r="7.2" fill="#0000ff" fill-rule="evenodd" fill-opacity="1" stroke="#000000" stroke-opacity="1" stroke-width="3.2"/>
<polyline clip-path="url(#clip862)" style="stroke:#0000ff; stroke-linecap:round; stroke-linejoin:round; stroke-width:4; stroke-opacity:1; fill:none" points="316.532,1368.21 452.281,1368.27 588.029,1368.44 723.777,1368.72 859.525,1369.1 995.274,1369.56 1131.02,1370.09 1266.77,1370.65 1402.52,1371.24 1538.27,1371.82 1674.01,1372.36 1809.76,1372.85 1945.51,1373.25 2081.26,1373.56 2217.01,1373.75 2352.76,1373.81 "/>
<circle clip-path="url(#clip862)" cx="316.532" cy="1368.21" r="7.2" fill="#0000ff" fill-rule="evenodd" fill-opacity="1" stroke="#000000" stroke-opacity="1" stroke-width="3.2"/>
<circle clip-path="url(#clip862)" cx="452.281" cy="1368.27" r="7.2" fill="#0000ff" fill-rule="evenodd" fill-opacity="1" stroke="#000000" stroke-opacity="1" stroke-width="3.2"/>
<circle clip-path="url(#clip862)" cx="588.029" cy="1368.44" r="7.2" fill="#0000ff" fill-rule="evenodd" fill-opacity="1" stroke="#000000" stroke-opacity="1" stroke-width="3.2"/>
<circle clip-path="url(#clip862)" cx="723.777" cy="1368.72" r="7.2" fill="#0000ff" fill-rule="evenodd" fill-opacity="1" stroke="#000000" stroke-opacity="1" stroke-width="3.2"/>
<circle clip-path="url(#clip862)" cx="859.525" cy="1369.1" r="7.2" fill="#0000ff" fill-rule="evenodd" fill-opacity="1" stroke="#000000" stroke-opacity="1" stroke-width="3.2"/>
<circle clip-path="url(#clip862)" cx="995.274" cy="1369.56" r="7.2" fill="#0000ff" fill-rule="evenodd" fill-opacity="1" stroke="#000000" stroke-opacity="1" stroke-width="3.2"/>
<circle clip-path="url(#clip862)" cx="1131.02" cy="1370.09" r="7.2" fill="#0000ff" fill-rule="evenodd" fill-opacity="1" stroke="#000000" stroke-opacity="1" stroke-width="3.2"/>
<circle clip-path="url(#clip862)" cx="1266.77" cy="1370.65" r="7.2" fill="#0000ff" fill-rule="evenodd" fill-opacity="1" stroke="#000000" stroke-opacity="1" stroke-width="3.2"/>
<circle clip-path="url(#clip862)" cx="1402.52" cy="1371.24" r="7.2" fill="#0000ff" fill-rule="evenodd" fill-opacity="1" stroke="#000000" stroke-opacity="1" stroke-width="3.2"/>
<circle clip-path="url(#clip862)" cx="1538.27" cy="1371.82" r="7.2" fill="#0000ff" fill-rule="evenodd" fill-opacity="1" stroke="#000000" stroke-opacity="1" stroke-width="3.2"/>
<circle clip-path="url(#clip862)" cx="1674.01" cy="1372.36" r="7.2" fill="#0000ff" fill-rule="evenodd" fill-opacity="1" stroke="#000000" stroke-opacity="1" stroke-width="3.2"/>
<circle clip-path="url(#clip862)" cx="1809.76" cy="1372.85" r="7.2" fill="#0000ff" fill-rule="evenodd" fill-opacity="1" stroke="#000000" stroke-opacity="1" stroke-width="3.2"/>
<circle clip-path="url(#clip862)" cx="1945.51" cy="1373.25" r="7.2" fill="#0000ff" fill-rule="evenodd" fill-opacity="1" stroke="#000000" stroke-opacity="1" stroke-width="3.2"/>
<circle clip-path="url(#clip862)" cx="2081.26" cy="1373.56" r="7.2" fill="#0000ff" fill-rule="evenodd" fill-opacity="1" stroke="#000000" stroke-opacity="1" stroke-width="3.2"/>
<circle clip-path="url(#clip862)" cx="2217.01" cy="1373.75" r="7.2" fill="#0000ff" fill-rule="evenodd" fill-opacity="1" stroke="#000000" stroke-opacity="1" stroke-width="3.2"/>
<circle clip-path="url(#clip862)" cx="2352.76" cy="1373.81" r="7.2" fill="#0000ff" fill-rule="evenodd" fill-opacity="1" stroke="#000000" stroke-opacity="1" stroke-width="3.2"/>
<polyline clip-path="url(#clip862)" style="stroke:#0000ff; stroke-linecap:round; stroke-linejoin:round; stroke-width:4; stroke-opacity:1; fill:none" points="316.532,1003.93 452.281,1003.58 588.029,1002.54 723.777,1000.82 859.525,998.437 995.274,995.417 1131.02,991.796 1266.77,987.622 1402.52,982.963 1538.27,977.911 1674.01,972.598 1809.76,967.225 1945.51,962.097 2081.26,957.672 2217.01,954.574 2352.76,953.445 "/>
<circle clip-path="url(#clip862)" cx="316.532" cy="1003.93" r="7.2" fill="#0000ff" fill-rule="evenodd" fill-opacity="1" stroke="#000000" stroke-opacity="1" stroke-width="3.2"/>
<circle clip-path="url(#clip862)" cx="452.281" cy="1003.58" r="7.2" fill="#0000ff" fill-rule="evenodd" fill-opacity="1" stroke="#000000" stroke-opacity="1" stroke-width="3.2"/>
<circle clip-path="url(#clip862)" cx="588.029" cy="1002.54" r="7.2" fill="#0000ff" fill-rule="evenodd" fill-opacity="1" stroke="#000000" stroke-opacity="1" stroke-width="3.2"/>
<circle clip-path="url(#clip862)" cx="723.777" cy="1000.82" r="7.2" fill="#0000ff" fill-rule="evenodd" fill-opacity="1" stroke="#000000" stroke-opacity="1" stroke-width="3.2"/>
<circle clip-path="url(#clip862)" cx="859.525" cy="998.437" r="7.2" fill="#0000ff" fill-rule="evenodd" fill-opacity="1" stroke="#000000" stroke-opacity="1" stroke-width="3.2"/>
<circle clip-path="url(#clip862)" cx="995.274" cy="995.417" r="7.2" fill="#0000ff" fill-rule="evenodd" fill-opacity="1" stroke="#000000" stroke-opacity="1" stroke-width="3.2"/>
<circle clip-path="url(#clip862)" cx="1131.02" cy="991.796" r="7.2" fill="#0000ff" fill-rule="evenodd" fill-opacity="1" stroke="#000000" stroke-opacity="1" stroke-width="3.2"/>
<circle clip-path="url(#clip862)" cx="1266.77" cy="987.622" r="7.2" fill="#0000ff" fill-rule="evenodd" fill-opacity="1" stroke="#000000" stroke-opacity="1" stroke-width="3.2"/>
<circle clip-path="url(#clip862)" cx="1402.52" cy="982.963" r="7.2" fill="#0000ff" fill-rule="evenodd" fill-opacity="1" stroke="#000000" stroke-opacity="1" stroke-width="3.2"/>
<circle clip-path="url(#clip862)" cx="1538.27" cy="977.911" r="7.2" fill="#0000ff" fill-rule="evenodd" fill-opacity="1" stroke="#000000" stroke-opacity="1" stroke-width="3.2"/>
<circle clip-path="url(#clip862)" cx="1674.01" cy="972.598" r="7.2" fill="#0000ff" fill-rule="evenodd" fill-opacity="1" stroke="#000000" stroke-opacity="1" stroke-width="3.2"/>
<circle clip-path="url(#clip862)" cx="1809.76" cy="967.225" r="7.2" fill="#0000ff" fill-rule="evenodd" fill-opacity="1" stroke="#000000" stroke-opacity="1" stroke-width="3.2"/>
<circle clip-path="url(#clip862)" cx="1945.51" cy="962.097" r="7.2" fill="#0000ff" fill-rule="evenodd" fill-opacity="1" stroke="#000000" stroke-opacity="1" stroke-width="3.2"/>
<circle clip-path="url(#clip862)" cx="2081.26" cy="957.672" r="7.2" fill="#0000ff" fill-rule="evenodd" fill-opacity="1" stroke="#000000" stroke-opacity="1" stroke-width="3.2"/>
<circle clip-path="url(#clip862)" cx="2217.01" cy="954.574" r="7.2" fill="#0000ff" fill-rule="evenodd" fill-opacity="1" stroke="#000000" stroke-opacity="1" stroke-width="3.2"/>
<circle clip-path="url(#clip862)" cx="2352.76" cy="953.445" r="7.2" fill="#0000ff" fill-rule="evenodd" fill-opacity="1" stroke="#000000" stroke-opacity="1" stroke-width="3.2"/>
<polyline clip-path="url(#clip862)" style="stroke:#0000ff; stroke-linecap:round; stroke-linejoin:round; stroke-width:4; stroke-opacity:1; fill:none" points="316.532,736.388 452.281,740.397 588.029,750.102 723.777,762.315 859.525,775.421 995.274,788.722 1131.02,801.885 1266.77,814.718 1402.52,827.081 1538.27,838.84 1674.01,849.842 1809.76,859.877 1945.51,868.633 2081.26,875.651 2217.01,880.303 2352.76,881.951 "/>
<circle clip-path="url(#clip862)" cx="316.532" cy="736.388" r="7.2" fill="#0000ff" fill-rule="evenodd" fill-opacity="1" stroke="#000000" stroke-opacity="1" stroke-width="3.2"/>
<circle clip-path="url(#clip862)" cx="452.281" cy="740.397" r="7.2" fill="#0000ff" fill-rule="evenodd" fill-opacity="1" stroke="#000000" stroke-opacity="1" stroke-width="3.2"/>
<circle clip-path="url(#clip862)" cx="588.029" cy="750.102" r="7.2" fill="#0000ff" fill-rule="evenodd" fill-opacity="1" stroke="#000000" stroke-opacity="1" stroke-width="3.2"/>
<circle clip-path="url(#clip862)" cx="723.777" cy="762.315" r="7.2" fill="#0000ff" fill-rule="evenodd" fill-opacity="1" stroke="#000000" stroke-opacity="1" stroke-width="3.2"/>
<circle clip-path="url(#clip862)" cx="859.525" cy="775.421" r="7.2" fill="#0000ff" fill-rule="evenodd" fill-opacity="1" stroke="#000000" stroke-opacity="1" stroke-width="3.2"/>
<circle clip-path="url(#clip862)" cx="995.274" cy="788.722" r="7.2" fill="#0000ff" fill-rule="evenodd" fill-opacity="1" stroke="#000000" stroke-opacity="1" stroke-width="3.2"/>
<circle clip-path="url(#clip862)" cx="1131.02" cy="801.885" r="7.2" fill="#0000ff" fill-rule="evenodd" fill-opacity="1" stroke="#000000" stroke-opacity="1" stroke-width="3.2"/>
<circle clip-path="url(#clip862)" cx="1266.77" cy="814.718" r="7.2" fill="#0000ff" fill-rule="evenodd" fill-opacity="1" stroke="#000000" stroke-opacity="1" stroke-width="3.2"/>
<circle clip-path="url(#clip862)" cx="1402.52" cy="827.081" r="7.2" fill="#0000ff" fill-rule="evenodd" fill-opacity="1" stroke="#000000" stroke-opacity="1" stroke-width="3.2"/>
<circle clip-path="url(#clip862)" cx="1538.27" cy="838.84" r="7.2" fill="#0000ff" fill-rule="evenodd" fill-opacity="1" stroke="#000000" stroke-opacity="1" stroke-width="3.2"/>
<circle clip-path="url(#clip862)" cx="1674.01" cy="849.842" r="7.2" fill="#0000ff" fill-rule="evenodd" fill-opacity="1" stroke="#000000" stroke-opacity="1" stroke-width="3.2"/>
<circle clip-path="url(#clip862)" cx="1809.76" cy="859.877" r="7.2" fill="#0000ff" fill-rule="evenodd" fill-opacity="1" stroke="#000000" stroke-opacity="1" stroke-width="3.2"/>
<circle clip-path="url(#clip862)" cx="1945.51" cy="868.633" r="7.2" fill="#0000ff" fill-rule="evenodd" fill-opacity="1" stroke="#000000" stroke-opacity="1" stroke-width="3.2"/>
<circle clip-path="url(#clip862)" cx="2081.26" cy="875.651" r="7.2" fill="#0000ff" fill-rule="evenodd" fill-opacity="1" stroke="#000000" stroke-opacity="1" stroke-width="3.2"/>
<circle clip-path="url(#clip862)" cx="2217.01" cy="880.303" r="7.2" fill="#0000ff" fill-rule="evenodd" fill-opacity="1" stroke="#000000" stroke-opacity="1" stroke-width="3.2"/>
<circle clip-path="url(#clip862)" cx="2352.76" cy="881.951" r="7.2" fill="#0000ff" fill-rule="evenodd" fill-opacity="1" stroke="#000000" stroke-opacity="1" stroke-width="3.2"/>
<polyline clip-path="url(#clip862)" style="stroke:#0000ff; stroke-linecap:round; stroke-linejoin:round; stroke-width:4; stroke-opacity:1; fill:none" points="316.532,675.546 452.281,671.124 588.029,660.178 723.777,645.891 859.525,629.866 995.274,612.782 1131.02,594.948 1266.77,576.519 1402.52,557.584 1538.27,538.197 1674.01,518.395 1809.76,498.21 1945.51,477.678 2081.26,456.871 2217.01,436.083 2352.76,420.493 "/>
<circle clip-path="url(#clip862)" cx="316.532" cy="675.546" r="7.2" fill="#0000ff" fill-rule="evenodd" fill-opacity="1" stroke="#000000" stroke-opacity="1" stroke-width="3.2"/>
<circle clip-path="url(#clip862)" cx="452.281" cy="671.124" r="7.2" fill="#0000ff" fill-rule="evenodd" fill-opacity="1" stroke="#000000" stroke-opacity="1" stroke-width="3.2"/>
<circle clip-path="url(#clip862)" cx="588.029" cy="660.178" r="7.2" fill="#0000ff" fill-rule="evenodd" fill-opacity="1" stroke="#000000" stroke-opacity="1" stroke-width="3.2"/>
<circle clip-path="url(#clip862)" cx="723.777" cy="645.891" r="7.2" fill="#0000ff" fill-rule="evenodd" fill-opacity="1" stroke="#000000" stroke-opacity="1" stroke-width="3.2"/>
<circle clip-path="url(#clip862)" cx="859.525" cy="629.866" r="7.2" fill="#0000ff" fill-rule="evenodd" fill-opacity="1" stroke="#000000" stroke-opacity="1" stroke-width="3.2"/>
<circle clip-path="url(#clip862)" cx="995.274" cy="612.782" r="7.2" fill="#0000ff" fill-rule="evenodd" fill-opacity="1" stroke="#000000" stroke-opacity="1" stroke-width="3.2"/>
<circle clip-path="url(#clip862)" cx="1131.02" cy="594.948" r="7.2" fill="#0000ff" fill-rule="evenodd" fill-opacity="1" stroke="#000000" stroke-opacity="1" stroke-width="3.2"/>
<circle clip-path="url(#clip862)" cx="1266.77" cy="576.519" r="7.2" fill="#0000ff" fill-rule="evenodd" fill-opacity="1" stroke="#000000" stroke-opacity="1" stroke-width="3.2"/>
<circle clip-path="url(#clip862)" cx="1402.52" cy="557.584" r="7.2" fill="#0000ff" fill-rule="evenodd" fill-opacity="1" stroke="#000000" stroke-opacity="1" stroke-width="3.2"/>
<circle clip-path="url(#clip862)" cx="1538.27" cy="538.197" r="7.2" fill="#0000ff" fill-rule="evenodd" fill-opacity="1" stroke="#000000" stroke-opacity="1" stroke-width="3.2"/>
<circle clip-path="url(#clip862)" cx="1674.01" cy="518.395" r="7.2" fill="#0000ff" fill-rule="evenodd" fill-opacity="1" stroke="#000000" stroke-opacity="1" stroke-width="3.2"/>
<circle clip-path="url(#clip862)" cx="1809.76" cy="498.21" r="7.2" fill="#0000ff" fill-rule="evenodd" fill-opacity="1" stroke="#000000" stroke-opacity="1" stroke-width="3.2"/>
<circle clip-path="url(#clip862)" cx="1945.51" cy="477.678" r="7.2" fill="#0000ff" fill-rule="evenodd" fill-opacity="1" stroke="#000000" stroke-opacity="1" stroke-width="3.2"/>
<circle clip-path="url(#clip862)" cx="2081.26" cy="456.871" r="7.2" fill="#0000ff" fill-rule="evenodd" fill-opacity="1" stroke="#000000" stroke-opacity="1" stroke-width="3.2"/>
<circle clip-path="url(#clip862)" cx="2217.01" cy="436.083" r="7.2" fill="#0000ff" fill-rule="evenodd" fill-opacity="1" stroke="#000000" stroke-opacity="1" stroke-width="3.2"/>
<circle clip-path="url(#clip862)" cx="2352.76" cy="420.493" r="7.2" fill="#0000ff" fill-rule="evenodd" fill-opacity="1" stroke="#000000" stroke-opacity="1" stroke-width="3.2"/>
<polyline clip-path="url(#clip862)" style="stroke:#0000ff; stroke-linecap:round; stroke-linejoin:round; stroke-width:4; stroke-opacity:1; fill:none" points="316.532,46.7498 452.281,73.2824 588.029,99.6755 723.777,125.746 859.525,151.493 995.274,176.913 1131.02,202.006 1266.77,226.769 1402.52,251.199 1538.27,275.291 1674.01,299.039 1809.76,322.433 1945.51,345.448 2081.26,368.024 2217.01,389.871 2352.76,405.813 "/>
<circle clip-path="url(#clip862)" cx="452.281" cy="73.2824" r="7.2" fill="#0000ff" fill-rule="evenodd" fill-opacity="1" stroke="#000000" stroke-opacity="1" stroke-width="3.2"/>
<circle clip-path="url(#clip862)" cx="588.029" cy="99.6755" r="7.2" fill="#0000ff" fill-rule="evenodd" fill-opacity="1" stroke="#000000" stroke-opacity="1" stroke-width="3.2"/>
<circle clip-path="url(#clip862)" cx="723.777" cy="125.746" r="7.2" fill="#0000ff" fill-rule="evenodd" fill-opacity="1" stroke="#000000" stroke-opacity="1" stroke-width="3.2"/>
<circle clip-path="url(#clip862)" cx="859.525" cy="151.493" r="7.2" fill="#0000ff" fill-rule="evenodd" fill-opacity="1" stroke="#000000" stroke-opacity="1" stroke-width="3.2"/>
<circle clip-path="url(#clip862)" cx="995.274" cy="176.913" r="7.2" fill="#0000ff" fill-rule="evenodd" fill-opacity="1" stroke="#000000" stroke-opacity="1" stroke-width="3.2"/>
<circle clip-path="url(#clip862)" cx="1131.02" cy="202.006" r="7.2" fill="#0000ff" fill-rule="evenodd" fill-opacity="1" stroke="#000000" stroke-opacity="1" stroke-width="3.2"/>
<circle clip-path="url(#clip862)" cx="1266.77" cy="226.769" r="7.2" fill="#0000ff" fill-rule="evenodd" fill-opacity="1" stroke="#000000" stroke-opacity="1" stroke-width="3.2"/>
<circle clip-path="url(#clip862)" cx="1402.52" cy="251.199" r="7.2" fill="#0000ff" fill-rule="evenodd" fill-opacity="1" stroke="#000000" stroke-opacity="1" stroke-width="3.2"/>
<circle clip-path="url(#clip862)" cx="1538.27" cy="275.291" r="7.2" fill="#0000ff" fill-rule="evenodd" fill-opacity="1" stroke="#000000" stroke-opacity="1" stroke-width="3.2"/>
<circle clip-path="url(#clip862)" cx="1674.01" cy="299.039" r="7.2" fill="#0000ff" fill-rule="evenodd" fill-opacity="1" stroke="#000000" stroke-opacity="1" stroke-width="3.2"/>
<circle clip-path="url(#clip862)" cx="1809.76" cy="322.433" r="7.2" fill="#0000ff" fill-rule="evenodd" fill-opacity="1" stroke="#000000" stroke-opacity="1" stroke-width="3.2"/>
<circle clip-path="url(#clip862)" cx="1945.51" cy="345.448" r="7.2" fill="#0000ff" fill-rule="evenodd" fill-opacity="1" stroke="#000000" stroke-opacity="1" stroke-width="3.2"/>
<circle clip-path="url(#clip862)" cx="2081.26" cy="368.024" r="7.2" fill="#0000ff" fill-rule="evenodd" fill-opacity="1" stroke="#000000" stroke-opacity="1" stroke-width="3.2"/>
<circle clip-path="url(#clip862)" cx="2217.01" cy="389.871" r="7.2" fill="#0000ff" fill-rule="evenodd" fill-opacity="1" stroke="#000000" stroke-opacity="1" stroke-width="3.2"/>
<circle clip-path="url(#clip862)" cx="2352.76" cy="405.813" r="7.2" fill="#0000ff" fill-rule="evenodd" fill-opacity="1" stroke="#000000" stroke-opacity="1" stroke-width="3.2"/>
</svg>
