<?xml version="1.0" encoding="utf-8"?>
<svg xmlns="http://www.w3.org/2000/svg" xmlns:xlink="http://www.w3.org/1999/xlink" width="600" height="400" viewBox="0 0 2400 1600">
<defs>
  <clipPath id="clip680">
    <rect x="0" y="0" width="2400" height="1600"/>
  </clipPath>
</defs>
<path clip-path="url(#clip680)" d="M0 1600 L2400 1600 L2400 0 L0 0  Z" fill="#ffffff" fill-rule="evenodd" fill-opacity="1"/>
<defs>
  <clipPath id="clip681">
    <rect x="480" y="0" width="1681" height="1600"/>
  </clipPath>
</defs>
<path clip-path="url(#clip680)" d="M219.866 1423.18 L2352.76 1423.18 L2352.76 47.2441 L219.866 47.2441  Z" fill="#ffffff" fill-rule="evenodd" fill-opacity="1"/>
<defs>
  <clipPath id="clip682">
    <rect x="219" y="47" width="2134" height="1377"/>
  </clipPath>
</defs>
<polyline clip-path="url(#clip682)" style="stroke:#000000; stroke-linecap:round; stroke-linejoin:round; stroke-width:2; stroke-opacity:0.1; fill:none" points="219.866,1423.18 219.866,47.2441 "/>
<polyline clip-path="url(#clip682)" style="stroke:#000000; stroke-linecap:round; stroke-linejoin:round; stroke-width:2; stroke-opacity:0.1; fill:none" points="2352.76,1423.18 2352.76,47.2441 "/>
<polyline clip-path="url(#clip680)" style="stroke:#000000; stroke-linecap:round; stroke-linejoin:round; stroke-width:4; stroke-opacity:1; fill:none" points="219.866,1423.18 2352.76,1423.18 "/>
<polyline clip-path="url(#clip680)" style="stroke:#000000; stroke-linecap:round; stroke-linejoin:round; stroke-width:4; stroke-opacity:1; fill:none" points="219.866,1423.18 219.866,1404.28 "/>
<polyline clip-path="url(#clip680)" style="stroke:#000000; stroke-linecap:round; stroke-linejoin:round; stroke-width:4; stroke-opacity:1; fill:none" points="2352.76,1423.18 2352.76,1404.28 "/>
<path clip-path="url(#clip680)" d="M209.114 1485.58 L209.114 1451.02 L230.619 1451.02 L230.619 1454.96 L213.79 1454.96 L213.79 1485.58 L209.114 1485.58 Z" fill="#000000" fill-rule="nonzero" fill-opacity="1" /><path clip-path="url(#clip680)" d="M2339.54 1451.02 L2344.56 1451.02 L2353.15 1463.87 L2361.78 1451.02 L2366.81 1451.02 L2355.7 1467.62 L2367.55 1485.58 L2362.52 1485.58 L2352.8 1470.88 L2343.01 1485.58 L2337.96 1485.58 L2350.3 1467.13 L2339.54 1451.02 Z" fill="#000000" fill-rule="nonzero" fill-opacity="1" /><path clip-path="url(#clip680)" d="M1087.97 1532.4 L1093.83 1532.4 L1101.15 1560.21 L1108.44 1532.4 L1115.34 1532.4 L1122.66 1560.21 L1129.95 1532.4 L1135.81 1532.4 L1126.48 1568.04 L1119.58 1568.04 L1111.91 1538.83 L1104.2 1568.04 L1097.3 1568.04 L1087.97 1532.4 Z" fill="#000000" fill-rule="nonzero" fill-opacity="1" /><path clip-path="url(#clip680)" d="M1160.89 1550.12 Q1153.79 1550.12 1151.06 1551.75 Q1148.32 1553.37 1148.32 1557.29 Q1148.32 1560.4 1150.36 1562.25 Q1152.42 1564.07 1155.96 1564.07 Q1160.83 1564.07 1163.76 1560.63 Q1166.72 1557.16 1166.72 1551.43 L1166.72 1550.12 L1160.89 1550.12 M1172.57 1547.71 L1172.57 1568.04 L1166.72 1568.04 L1166.72 1562.63 Q1164.71 1565.88 1161.72 1567.44 Q1158.73 1568.97 1154.4 1568.97 Q1148.92 1568.97 1145.68 1565.91 Q1142.46 1562.82 1142.46 1557.67 Q1142.46 1551.65 1146.47 1548.6 Q1150.51 1545.54 1158.5 1545.54 L1166.72 1545.54 L1166.72 1544.97 Q1166.72 1540.93 1164.04 1538.73 Q1161.4 1536.5 1156.59 1536.5 Q1153.54 1536.5 1150.64 1537.23 Q1147.75 1537.97 1145.07 1539.43 L1145.07 1534.02 Q1148.29 1532.78 1151.31 1532.17 Q1154.33 1531.54 1157.2 1531.54 Q1164.93 1531.54 1168.75 1535.55 Q1172.57 1539.56 1172.57 1547.71 Z" fill="#000000" fill-rule="nonzero" fill-opacity="1" /><path clip-path="url(#clip680)" d="M1180.43 1532.4 L1186.64 1532.4 L1197.78 1562.31 L1208.92 1532.4 L1215.13 1532.4 L1201.76 1568.04 L1193.8 1568.04 L1180.43 1532.4 Z" fill="#000000" fill-rule="nonzero" fill-opacity="1" /><path clip-path="url(#clip680)" d="M1253.7 1548.76 L1253.7 1551.62 L1226.78 1551.62 Q1227.16 1557.67 1230.4 1560.85 Q1233.68 1564 1239.51 1564 Q1242.88 1564 1246.03 1563.17 Q1249.21 1562.35 1252.33 1560.69 L1252.33 1566.23 Q1249.18 1567.57 1245.87 1568.27 Q1242.56 1568.97 1239.16 1568.97 Q1230.63 1568.97 1225.63 1564 Q1220.66 1559.04 1220.66 1550.57 Q1220.66 1541.82 1225.38 1536.69 Q1230.12 1531.54 1238.14 1531.54 Q1245.33 1531.54 1249.5 1536.18 Q1253.7 1540.8 1253.7 1548.76 M1247.85 1547.04 Q1247.78 1542.23 1245.14 1539.37 Q1242.53 1536.5 1238.2 1536.5 Q1233.3 1536.5 1230.34 1539.27 Q1227.41 1542.04 1226.97 1547.07 L1247.85 1547.04 Z" fill="#000000" fill-rule="nonzero" fill-opacity="1" /><path clip-path="url(#clip680)" d="M1279.83 1532.4 L1286.04 1532.4 L1297.18 1562.31 L1308.32 1532.4 L1314.53 1532.4 L1301.16 1568.04 L1293.2 1568.04 L1279.83 1532.4 Z" fill="#000000" fill-rule="nonzero" fill-opacity="1" /><path clip-path="url(#clip680)" d="M1353.1 1548.76 L1353.1 1551.62 L1326.18 1551.62 Q1326.56 1557.67 1329.8 1560.85 Q1333.08 1564 1338.91 1564 Q1342.28 1564 1345.43 1563.17 Q1348.62 1562.35 1351.73 1560.69 L1351.73 1566.23 Q1348.58 1567.57 1345.27 1568.27 Q1341.96 1568.97 1338.56 1568.97 Q1330.03 1568.97 1325.03 1564 Q1320.07 1559.04 1320.07 1550.57 Q1320.07 1541.82 1324.78 1536.69 Q1329.52 1531.54 1337.54 1531.54 Q1344.73 1531.54 1348.9 1536.18 Q1353.1 1540.8 1353.1 1548.76 M1347.25 1547.04 Q1347.18 1542.23 1344.54 1539.37 Q1341.93 1536.5 1337.6 1536.5 Q1332.7 1536.5 1329.74 1539.27 Q1326.81 1542.04 1326.37 1547.07 L1347.25 1547.04 Z" fill="#000000" fill-rule="nonzero" fill-opacity="1" /><path clip-path="url(#clip680)" d="M1388.37 1533.76 L1388.37 1539.24 Q1385.89 1537.87 1383.37 1537.2 Q1380.89 1536.5 1378.34 1536.5 Q1372.65 1536.5 1369.49 1540.13 Q1366.34 1543.73 1366.34 1550.25 Q1366.34 1556.78 1369.49 1560.4 Q1372.65 1564 1378.34 1564 Q1380.89 1564 1383.37 1563.33 Q1385.89 1562.63 1388.37 1561.26 L1388.37 1566.68 Q1385.92 1567.82 1383.28 1568.39 Q1380.67 1568.97 1377.71 1568.97 Q1369.65 1568.97 1364.91 1563.91 Q1360.17 1558.85 1360.17 1550.25 Q1360.17 1541.53 1364.94 1536.53 Q1369.75 1531.54 1378.09 1531.54 Q1380.79 1531.54 1383.37 1532.11 Q1385.95 1532.65 1388.37 1533.76 Z" fill="#000000" fill-rule="nonzero" fill-opacity="1" /><path clip-path="url(#clip680)" d="M1404.35 1522.27 L1404.35 1532.4 L1416.41 1532.4 L1416.41 1536.95 L1404.35 1536.95 L1404.35 1556.3 Q1404.35 1560.66 1405.52 1561.9 Q1406.73 1563.14 1410.39 1563.14 L1416.41 1563.14 L1416.41 1568.04 L1410.39 1568.04 Q1403.62 1568.04 1401.04 1565.53 Q1398.46 1562.98 1398.46 1556.3 L1398.46 1536.95 L1394.16 1536.95 L1394.16 1532.4 L1398.46 1532.4 L1398.46 1522.27 L1404.35 1522.27 Z" fill="#000000" fill-rule="nonzero" fill-opacity="1" /><path clip-path="url(#clip680)" d="M1437.93 1536.5 Q1433.22 1536.5 1430.48 1540.19 Q1427.74 1543.85 1427.74 1550.25 Q1427.74 1556.65 1430.45 1560.34 Q1433.18 1564 1437.93 1564 Q1442.61 1564 1445.34 1560.31 Q1448.08 1556.62 1448.08 1550.25 Q1448.08 1543.92 1445.34 1540.23 Q1442.61 1536.5 1437.93 1536.5 M1437.93 1531.54 Q1445.57 1531.54 1449.93 1536.5 Q1454.29 1541.47 1454.29 1550.25 Q1454.29 1559 1449.93 1564 Q1445.57 1568.97 1437.93 1568.97 Q1430.26 1568.97 1425.9 1564 Q1421.57 1559 1421.57 1550.25 Q1421.57 1541.47 1425.9 1536.5 Q1430.26 1531.54 1437.93 1531.54 Z" fill="#000000" fill-rule="nonzero" fill-opacity="1" /><path clip-path="url(#clip680)" d="M1484.65 1537.87 Q1483.66 1537.3 1482.49 1537.04 Q1481.34 1536.76 1479.94 1536.76 Q1474.97 1536.76 1472.3 1540 Q1469.66 1543.22 1469.66 1549.27 L1469.66 1568.04 L1463.77 1568.04 L1463.77 1532.4 L1469.66 1532.4 L1469.66 1537.93 Q1471.51 1534.69 1474.47 1533.13 Q1477.43 1531.54 1481.66 1531.54 Q1482.26 1531.54 1483 1531.63 Q1483.73 1531.7 1484.62 1531.85 L1484.65 1537.87 Z" fill="#000000" fill-rule="nonzero" fill-opacity="1" /><polyline clip-path="url(#clip682)" style="stroke:#000000; stroke-linecap:round; stroke-linejoin:round; stroke-width:2; stroke-opacity:0.1; fill:none" points="219.866,1110.47 2352.76,1110.47 "/>
<polyline clip-path="url(#clip682)" style="stroke:#000000; stroke-linecap:round; stroke-linejoin:round; stroke-width:2; stroke-opacity:0.1; fill:none" points="219.866,797.755 2352.76,797.755 "/>
<polyline clip-path="url(#clip682)" style="stroke:#000000; stroke-linecap:round; stroke-linejoin:round; stroke-width:2; stroke-opacity:0.1; fill:none" points="219.866,485.042 2352.76,485.042 "/>
<polyline clip-path="url(#clip682)" style="stroke:#000000; stroke-linecap:round; stroke-linejoin:round; stroke-width:2; stroke-opacity:0.1; fill:none" points="219.866,172.329 2352.76,172.329 "/>
<polyline clip-path="url(#clip680)" style="stroke:#000000; stroke-linecap:round; stroke-linejoin:round; stroke-width:4; stroke-opacity:1; fill:none" points="219.866,1423.18 219.866,47.2441 "/>
<polyline clip-path="url(#clip680)" style="stroke:#000000; stroke-linecap:round; stroke-linejoin:round; stroke-width:4; stroke-opacity:1; fill:none" points="219.866,1110.47 238.764,1110.47 "/>
<polyline clip-path="url(#clip680)" style="stroke:#000000; stroke-linecap:round; stroke-linejoin:round; stroke-width:4; stroke-opacity:1; fill:none" points="219.866,797.755 238.764,797.755 "/>
<polyline clip-path="url(#clip680)" style="stroke:#000000; stroke-linecap:round; stroke-linejoin:round; stroke-width:4; stroke-opacity:1; fill:none" points="219.866,485.042 238.764,485.042 "/>
<polyline clip-path="url(#clip680)" style="stroke:#000000; stroke-linecap:round; stroke-linejoin:round; stroke-width:4; stroke-opacity:1; fill:none" points="219.866,172.329 238.764,172.329 "/>
<path clip-path="url(#clip680)" d="M127.917 1096.27 Q124.306 1096.27 122.478 1099.83 Q120.672 1103.37 120.672 1110.5 Q120.672 1117.61 122.478 1121.17 Q124.306 1124.71 127.917 1124.71 Q131.552 1124.71 133.357 1121.17 Q135.186 1117.61 135.186 1110.5 Q135.186 1103.37 133.357 1099.83 Q131.552 1096.27 127.917 1096.27 M127.917 1092.56 Q133.728 1092.56 136.783 1097.17 Q139.862 1101.75 139.862 1110.5 Q139.862 1119.23 136.783 1123.84 Q133.728 1128.42 127.917 1128.42 Q122.107 1128.42 119.029 1123.84 Q115.973 1119.23 115.973 1110.5 Q115.973 1101.75 119.029 1097.17 Q122.107 1092.56 127.917 1092.56 Z" fill="#000000" fill-rule="nonzero" fill-opacity="1" /><path clip-path="url(#clip680)" d="M148.079 1121.87 L152.964 1121.87 L152.964 1127.75 L148.079 1127.75 L148.079 1121.87 Z" fill="#000000" fill-rule="nonzero" fill-opacity="1" /><path clip-path="url(#clip680)" d="M163.959 1123.81 L171.598 1123.81 L171.598 1097.45 L163.288 1099.11 L163.288 1094.85 L171.552 1093.19 L176.227 1093.19 L176.227 1123.81 L183.866 1123.81 L183.866 1127.75 L163.959 1127.75 L163.959 1123.81 Z" fill="#000000" fill-rule="nonzero" fill-opacity="1" /><path clip-path="url(#clip680)" d="M128.288 783.553 Q124.677 783.553 122.848 787.118 Q121.043 790.66 121.043 797.789 Q121.043 804.896 122.848 808.46 Q124.677 812.002 128.288 812.002 Q131.922 812.002 133.728 808.46 Q135.556 804.896 135.556 797.789 Q135.556 790.66 133.728 787.118 Q131.922 783.553 128.288 783.553 M128.288 779.85 Q134.098 779.85 137.154 784.456 Q140.232 789.039 140.232 797.789 Q140.232 806.516 137.154 811.122 Q134.098 815.706 128.288 815.706 Q122.478 815.706 119.399 811.122 Q116.343 806.516 116.343 797.789 Q116.343 789.039 119.399 784.456 Q122.478 779.85 128.288 779.85 Z" fill="#000000" fill-rule="nonzero" fill-opacity="1" /><path clip-path="url(#clip680)" d="M148.45 809.155 L153.334 809.155 L153.334 815.035 L148.45 815.035 L148.45 809.155 Z" fill="#000000" fill-rule="nonzero" fill-opacity="1" /><path clip-path="url(#clip680)" d="M167.547 811.099 L183.866 811.099 L183.866 815.035 L161.922 815.035 L161.922 811.099 Q164.584 808.345 169.167 803.715 Q173.774 799.062 174.954 797.72 Q177.2 795.197 178.079 793.461 Q178.982 791.701 178.982 790.011 Q178.982 787.257 177.038 785.521 Q175.116 783.785 172.014 783.785 Q169.815 783.785 167.362 784.549 Q164.931 785.312 162.153 786.863 L162.153 782.141 Q164.977 781.007 167.431 780.428 Q169.885 779.85 171.922 779.85 Q177.292 779.85 180.487 782.535 Q183.681 785.22 183.681 789.711 Q183.681 791.84 182.871 793.761 Q182.084 795.66 179.977 798.252 Q179.399 798.923 176.297 802.141 Q173.195 805.335 167.547 811.099 Z" fill="#000000" fill-rule="nonzero" fill-opacity="1" /><path clip-path="url(#clip680)" d="M127.339 470.841 Q123.728 470.841 121.899 474.405 Q120.093 477.947 120.093 485.077 Q120.093 492.183 121.899 495.748 Q123.728 499.289 127.339 499.289 Q130.973 499.289 132.779 495.748 Q134.607 492.183 134.607 485.077 Q134.607 477.947 132.779 474.405 Q130.973 470.841 127.339 470.841 M127.339 467.137 Q133.149 467.137 136.204 471.743 Q139.283 476.327 139.283 485.077 Q139.283 493.803 136.204 498.41 Q133.149 502.993 127.339 502.993 Q121.529 502.993 118.45 498.41 Q115.394 493.803 115.394 485.077 Q115.394 476.327 118.45 471.743 Q121.529 467.137 127.339 467.137 Z" fill="#000000" fill-rule="nonzero" fill-opacity="1" /><path clip-path="url(#clip680)" d="M147.501 496.442 L152.385 496.442 L152.385 502.322 L147.501 502.322 L147.501 496.442 Z" fill="#000000" fill-rule="nonzero" fill-opacity="1" /><path clip-path="url(#clip680)" d="M176.737 483.688 Q180.093 484.405 181.968 486.674 Q183.866 488.942 183.866 492.276 Q183.866 497.391 180.348 500.192 Q176.829 502.993 170.348 502.993 Q168.172 502.993 165.857 502.553 Q163.565 502.137 161.112 501.28 L161.112 496.766 Q163.056 497.901 165.371 498.479 Q167.686 499.058 170.209 499.058 Q174.607 499.058 176.899 497.322 Q179.214 495.586 179.214 492.276 Q179.214 489.22 177.061 487.507 Q174.931 485.771 171.112 485.771 L167.084 485.771 L167.084 481.928 L171.297 481.928 Q174.746 481.928 176.575 480.563 Q178.403 479.174 178.403 476.581 Q178.403 473.919 176.505 472.507 Q174.63 471.072 171.112 471.072 Q169.19 471.072 166.991 471.489 Q164.792 471.905 162.153 472.785 L162.153 468.618 Q164.815 467.878 167.13 467.507 Q169.468 467.137 171.528 467.137 Q176.852 467.137 179.954 469.567 Q183.056 471.975 183.056 476.095 Q183.056 478.965 181.413 480.956 Q179.769 482.924 176.737 483.688 Z" fill="#000000" fill-rule="nonzero" fill-opacity="1" /><path clip-path="url(#clip680)" d="M126.205 158.128 Q122.593 158.128 120.765 161.693 Q118.959 165.234 118.959 172.364 Q118.959 179.47 120.765 183.035 Q122.593 186.577 126.205 186.577 Q129.839 186.577 131.644 183.035 Q133.473 179.47 133.473 172.364 Q133.473 165.234 131.644 161.693 Q129.839 158.128 126.205 158.128 M126.205 154.424 Q132.015 154.424 135.07 159.031 Q138.149 163.614 138.149 172.364 Q138.149 181.091 135.07 185.697 Q132.015 190.28 126.205 190.28 Q120.394 190.28 117.316 185.697 Q114.26 181.091 114.26 172.364 Q114.26 163.614 117.316 159.031 Q120.394 154.424 126.205 154.424 Z" fill="#000000" fill-rule="nonzero" fill-opacity="1" /><path clip-path="url(#clip680)" d="M146.366 183.73 L151.251 183.73 L151.251 189.609 L146.366 189.609 L146.366 183.73 Z" fill="#000000" fill-rule="nonzero" fill-opacity="1" /><path clip-path="url(#clip680)" d="M174.283 159.123 L162.477 177.572 L174.283 177.572 L174.283 159.123 M173.056 155.049 L178.936 155.049 L178.936 177.572 L183.866 177.572 L183.866 181.461 L178.936 181.461 L178.936 189.609 L174.283 189.609 L174.283 181.461 L158.681 181.461 L158.681 176.947 L173.056 155.049 Z" fill="#000000" fill-rule="nonzero" fill-opacity="1" /><path clip-path="url(#clip680)" d="M44.7161 974.006 L47.5806 974.006 L47.5806 1000.93 Q53.6281 1000.55 56.8109 997.304 Q59.9619 994.026 59.9619 988.201 Q59.9619 984.827 59.1344 981.676 Q58.3069 978.493 56.6518 975.374 L62.1899 975.374 Q63.5267 978.525 64.227 981.835 Q64.9272 985.146 64.9272 988.551 Q64.9272 997.081 59.9619 1002.08 Q54.9967 1007.04 46.5303 1007.04 Q37.7774 1007.04 32.6531 1002.33 Q27.4968 997.59 27.4968 989.57 Q27.4968 982.376 32.1438 978.207 Q36.7589 974.006 44.7161 974.006 M42.9973 979.862 Q38.1912 979.926 35.3266 982.567 Q32.4621 985.177 32.4621 989.506 Q32.4621 994.408 35.2312 997.368 Q38.0002 1000.3 43.0292 1000.74 L42.9973 979.862 Z" fill="#000000" fill-rule="nonzero" fill-opacity="1" /><path clip-path="url(#clip680)" d="M28.3562 964.393 L28.3562 958.537 L64.0042 958.537 L64.0042 964.393 L28.3562 964.393 M14.479 964.393 L14.479 958.537 L21.895 958.537 L21.895 964.393 L14.479 964.393 Z" fill="#000000" fill-rule="nonzero" fill-opacity="1" /><path clip-path="url(#clip680)" d="M45.7664 922.825 Q39.4007 922.825 35.8996 925.467 Q32.3984 928.077 32.3984 932.819 Q32.3984 937.53 35.8996 940.172 Q39.4007 942.782 45.7664 942.782 Q52.1003 942.782 55.6014 940.172 Q59.1026 937.53 59.1026 932.819 Q59.1026 928.077 55.6014 925.467 Q52.1003 922.825 45.7664 922.825 M59.58 916.969 Q68.683 916.969 73.1071 921.011 Q77.5631 925.053 77.5631 933.392 Q77.5631 936.48 77.0857 939.217 Q76.6401 941.954 75.6852 944.532 L69.9879 944.532 Q71.3884 941.954 72.0568 939.44 Q72.7252 936.925 72.7252 934.315 Q72.7252 928.554 69.7015 925.69 Q66.7096 922.825 60.6303 922.825 L57.7339 922.825 Q60.885 924.639 62.4446 927.472 Q64.0042 930.305 64.0042 934.252 Q64.0042 940.808 59.0071 944.819 Q54.01 948.829 45.7664 948.829 Q37.491 948.829 32.4939 944.819 Q27.4968 940.808 27.4968 934.252 Q27.4968 930.305 29.0564 927.472 Q30.616 924.639 33.7671 922.825 L28.3562 922.825 L28.3562 916.969 L59.58 916.969 Z" fill="#000000" fill-rule="nonzero" fill-opacity="1" /><path clip-path="url(#clip680)" d="M44.7161 874.414 L47.5806 874.414 L47.5806 901.341 Q53.6281 900.959 56.8109 897.713 Q59.9619 894.434 59.9619 888.61 Q59.9619 885.236 59.1344 882.085 Q58.3069 878.902 56.6518 875.783 L62.1899 875.783 Q63.5267 878.934 64.227 882.244 Q64.9272 885.554 64.9272 888.96 Q64.9272 897.49 59.9619 902.487 Q54.9967 907.452 46.5303 907.452 Q37.7774 907.452 32.6531 902.741 Q27.4968 897.999 27.4968 889.978 Q27.4968 882.785 32.1438 878.615 Q36.7589 874.414 44.7161 874.414 M42.9973 880.271 Q38.1912 880.334 35.3266 882.976 Q32.4621 885.586 32.4621 889.915 Q32.4621 894.816 35.2312 897.776 Q38.0002 900.704 43.0292 901.15 L42.9973 880.271 Z" fill="#000000" fill-rule="nonzero" fill-opacity="1" /><path clip-path="url(#clip680)" d="M42.4881 835.169 L64.0042 835.169 L64.0042 841.026 L42.679 841.026 Q37.6183 841.026 35.1038 842.999 Q32.5894 844.973 32.5894 848.919 Q32.5894 853.662 35.6131 856.399 Q38.6368 859.136 43.8567 859.136 L64.0042 859.136 L64.0042 865.025 L28.3562 865.025 L28.3562 859.136 L33.8944 859.136 Q30.6797 857.036 29.0883 854.203 Q27.4968 851.338 27.4968 847.614 Q27.4968 841.472 31.3163 838.321 Q35.1038 835.169 42.4881 835.169 Z" fill="#000000" fill-rule="nonzero" fill-opacity="1" /><path clip-path="url(#clip680)" d="M28.3562 827.69 L28.3562 821.483 L58.275 810.343 L28.3562 799.203 L28.3562 792.997 L64.0042 806.365 L64.0042 814.322 L28.3562 827.69 Z" fill="#000000" fill-rule="nonzero" fill-opacity="1" /><path clip-path="url(#clip680)" d="M46.0847 768.711 Q46.0847 775.809 47.7079 778.547 Q49.3312 781.284 53.2461 781.284 Q56.3653 781.284 58.2114 779.247 Q60.0256 777.178 60.0256 773.645 Q60.0256 768.775 56.5881 765.847 Q53.1188 762.887 47.3897 762.887 L46.0847 762.887 L46.0847 768.711 M43.6657 757.03 L64.0042 757.03 L64.0042 762.887 L58.5933 762.887 Q61.8398 764.892 63.3994 767.884 Q64.9272 770.876 64.9272 775.205 Q64.9272 780.679 61.8716 783.926 Q58.7843 787.14 53.6281 787.14 Q47.6125 787.14 44.5569 783.13 Q41.5014 779.088 41.5014 771.099 L41.5014 762.887 L40.9285 762.887 Q36.8862 762.887 34.6901 765.56 Q32.4621 768.202 32.4621 773.008 Q32.4621 776.064 33.1941 778.96 Q33.9262 781.857 35.3903 784.53 L29.9795 784.53 Q28.7381 781.316 28.1334 778.292 Q27.4968 775.268 27.4968 772.404 Q27.4968 764.669 31.5072 760.85 Q35.5176 757.03 43.6657 757.03 Z" fill="#000000" fill-rule="nonzero" fill-opacity="1" /><path clip-path="url(#clip680)" d="M14.479 744.967 L14.479 739.111 L64.0042 739.111 L64.0042 744.967 L14.479 744.967 Z" fill="#000000" fill-rule="nonzero" fill-opacity="1" /><path clip-path="url(#clip680)" d="M49.9359 727.462 L28.3562 727.462 L28.3562 721.605 L49.7131 721.605 Q54.7739 721.605 57.3202 719.632 Q59.8346 717.659 59.8346 713.712 Q59.8346 708.969 56.8109 706.232 Q53.7872 703.463 48.5673 703.463 L28.3562 703.463 L28.3562 697.607 L64.0042 697.607 L64.0042 703.463 L58.5296 703.463 Q61.7762 705.596 63.3676 708.428 Q64.9272 711.229 64.9272 714.953 Q64.9272 721.096 61.1078 724.279 Q57.2883 727.462 49.9359 727.462 M27.4968 712.725 L27.4968 712.725 Z" fill="#000000" fill-rule="nonzero" fill-opacity="1" /><path clip-path="url(#clip680)" d="M44.7161 655.052 L47.5806 655.052 L47.5806 681.979 Q53.6281 681.597 56.8109 678.35 Q59.9619 675.072 59.9619 669.247 Q59.9619 665.874 59.1344 662.722 Q58.3069 659.54 56.6518 656.42 L62.1899 656.42 Q63.5267 659.571 64.227 662.882 Q64.9272 666.192 64.9272 669.597 Q64.9272 678.127 59.9619 683.125 Q54.9967 688.09 46.5303 688.09 Q37.7774 688.09 32.6531 683.379 Q27.4968 678.637 27.4968 670.616 Q27.4968 663.423 32.1438 659.253 Q36.7589 655.052 44.7161 655.052 M42.9973 660.908 Q38.1912 660.972 35.3266 663.614 Q32.4621 666.224 32.4621 670.552 Q32.4621 675.454 35.2312 678.414 Q38.0002 681.342 43.0292 681.788 L42.9973 660.908 Z" fill="#000000" fill-rule="nonzero" fill-opacity="1" /><path clip-path="url(#clip680)" d="M29.4065 622.714 L34.9447 622.714 Q33.6716 625.197 33.035 627.87 Q32.3984 630.544 32.3984 633.408 Q32.3984 637.769 33.7352 639.965 Q35.072 642.129 37.7456 642.129 Q39.7826 642.129 40.9603 640.57 Q42.1061 639.01 43.1565 634.3 L43.6021 632.294 Q44.9389 626.056 47.3897 623.446 Q49.8086 620.804 54.1691 620.804 Q59.1344 620.804 62.0308 624.751 Q64.9272 628.666 64.9272 635.541 Q64.9272 638.405 64.3543 641.525 Q63.8132 644.612 62.6992 648.05 L56.6518 648.05 Q58.3387 644.803 59.198 641.652 Q60.0256 638.501 60.0256 635.414 Q60.0256 631.276 58.6251 629.048 Q57.1929 626.82 54.6147 626.82 Q52.2276 626.82 50.9545 628.443 Q49.6813 630.035 48.5037 635.477 L48.0262 637.514 Q46.8804 642.957 44.5251 645.376 Q42.138 647.795 38.0002 647.795 Q32.9713 647.795 30.2341 644.23 Q27.4968 640.665 27.4968 634.109 Q27.4968 630.862 27.9743 627.998 Q28.4517 625.133 29.4065 622.714 Z" fill="#000000" fill-rule="nonzero" fill-opacity="1" /><path clip-path="url(#clip680)" d="M14.5426 555.97 Q21.8632 560.235 29.0246 562.303 Q36.186 564.372 43.5384 564.372 Q50.8908 564.372 58.1159 562.303 Q65.3091 560.203 72.5979 555.97 L72.5979 561.062 Q65.1182 565.836 57.8931 568.224 Q50.668 570.579 43.5384 570.579 Q36.4406 570.579 29.2474 568.224 Q22.0542 565.868 14.5426 561.062 L14.5426 555.97 Z" fill="#000000" fill-rule="nonzero" fill-opacity="1" /><path clip-path="url(#clip680)" d="M16.4842 544.352 L16.4842 514.306 L21.895 514.306 L21.895 537.923 L35.9632 537.923 L35.9632 515.293 L41.3741 515.293 L41.3741 537.923 L58.5933 537.923 L58.5933 513.733 L64.0042 513.733 L64.0042 544.352 L16.4842 544.352 Z" fill="#000000" fill-rule="nonzero" fill-opacity="1" /><path clip-path="url(#clip680)" d="M51.9411 487.029 L64.0042 487.029 L64.0042 490.721 L52.0685 490.721 Q49.2357 490.721 47.8353 491.962 Q46.403 493.204 46.403 495.686 Q46.403 498.678 48.1217 500.397 Q49.8086 502.116 52.7369 502.116 L64.0042 502.116 L64.0042 505.84 L36.2815 505.84 L36.2815 502.116 L47.135 502.116 Q45.3526 500.811 44.4614 499.028 Q43.5702 497.214 43.5702 494.859 Q43.5702 491.008 45.7028 489.034 Q47.8353 487.029 51.9411 487.029 Z" fill="#000000" fill-rule="nonzero" fill-opacity="1" /><path clip-path="url(#clip680)" d="M14.5426 477.99 L14.5426 472.897 Q22.0542 468.123 29.2474 465.768 Q36.4406 463.38 43.5384 463.38 Q50.668 463.38 57.8931 465.768 Q65.1182 468.123 72.5979 472.897 L72.5979 477.99 Q65.3091 473.756 58.1159 471.688 Q50.8908 469.587 43.5384 469.587 Q36.186 469.587 29.0246 471.688 Q21.8632 473.756 14.5426 477.99 Z" fill="#000000" fill-rule="nonzero" fill-opacity="1" /><polyline clip-path="url(#clip682)" style="stroke:#0000ff; stroke-linecap:round; stroke-linejoin:round; stroke-width:4; stroke-opacity:1; fill:none" points="219.866,1423.18 362.059,1423.01 504.252,1422.49 646.444,1421.64 788.637,1420.44 930.829,1418.89 1073.02,1417.01 1215.21,1414.78 1357.41,1412.21 1499.6,1409.29 1641.79,1406.03 1783.99,1402.43 1926.18,1398.49 2068.37,1394.2 2210.56,1389.57 2352.76,1384.6 "/>
<circle clip-path="url(#clip682)" cx="219.866" cy="1423.18" r="7.2" fill="#0000ff" fill-rule="evenodd" fill-opacity="1" stroke="#000000" stroke-opacity="1" stroke-width="3.2"/>
<circle clip-path="url(#clip682)" cx="362.059" cy="1423.01" r="7.2" fill="#0000ff" fill-rule="evenodd" fill-opacity="1" stroke="#000000" stroke-opacity="1" stroke-width="3.2"/>
<circle clip-path="url(#clip682)" cx="504.252" cy="1422.49" r="7.2" fill="#0000ff" fill-rule="evenodd" fill-opacity="1" stroke="#000000" stroke-opacity="1" stroke-width="3.2"/>
<circle clip-path="url(#clip682)" cx="646.444" cy="1421.64" r="7.2" fill="#0000ff" fill-rule="evenodd" fill-opacity="1" stroke="#000000" stroke-opacity="1" stroke-width="3.2"/>
<circle clip-path="url(#clip682)" cx="788.637" cy="1420.44" r="7.2" fill="#0000ff" fill-rule="evenodd" fill-opacity="1" stroke="#000000" stroke-opacity="1" stroke-width="3.2"/>
<circle clip-path="url(#clip682)" cx="930.829" cy="1418.89" r="7.2" fill="#0000ff" fill-rule="evenodd" fill-opacity="1" stroke="#000000" stroke-opacity="1" stroke-width="3.2"/>
<circle clip-path="url(#clip682)" cx="1073.02" cy="1417.01" r="7.2" fill="#0000ff" fill-rule="evenodd" fill-opacity="1" stroke="#000000" stroke-opacity="1" stroke-width="3.2"/>
<circle clip-path="url(#clip682)" cx="1215.21" cy="1414.78" r="7.2" fill="#0000ff" fill-rule="evenodd" fill-opacity="1" stroke="#000000" stroke-opacity="1" stroke-width="3.2"/>
<circle clip-path="url(#clip682)" cx="1357.41" cy="1412.21" r="7.2" fill="#0000ff" fill-rule="evenodd" fill-opacity="1" stroke="#000000" stroke-opacity="1" stroke-width="3.2"/>
<circle clip-path="url(#clip682)" cx="1499.6" cy="1409.29" r="7.2" fill="#0000ff" fill-rule="evenodd" fill-opacity="1" stroke="#000000" stroke-opacity="1" stroke-width="3.2"/>
<circle clip-path="url(#clip682)" cx="1641.79" cy="1406.03" r="7.2" fill="#0000ff" fill-rule="evenodd" fill-opacity="1" stroke="#000000" stroke-opacity="1" stroke-width="3.2"/>
<circle clip-path="url(#clip682)" cx="1783.99" cy="1402.43" r="7.2" fill="#0000ff" fill-rule="evenodd" fill-opacity="1" stroke="#000000" stroke-opacity="1" stroke-width="3.2"/>
<circle clip-path="url(#clip682)" cx="1926.18" cy="1398.49" r="7.2" fill="#0000ff" fill-rule="evenodd" fill-opacity="1" stroke="#000000" stroke-opacity="1" stroke-width="3.2"/>
<circle clip-path="url(#clip682)" cx="2068.37" cy="1394.2" r="7.2" fill="#0000ff" fill-rule="evenodd" fill-opacity="1" stroke="#000000" stroke-opacity="1" stroke-width="3.2"/>
<circle clip-path="url(#clip682)" cx="2210.56" cy="1389.57" r="7.2" fill="#0000ff" fill-rule="evenodd" fill-opacity="1" stroke="#000000" stroke-opacity="1" stroke-width="3.2"/>
<circle clip-path="url(#clip682)" cx="2352.76" cy="1384.6" r="7.2" fill="#0000ff" fill-rule="evenodd" fill-opacity="1" stroke="#000000" stroke-opacity="1" stroke-width="3.2"/>
<polyline clip-path="url(#clip682)" style="stroke:#0000ff; stroke-linecap:round; stroke-linejoin:round; stroke-width:4; stroke-opacity:1; fill:none" points="219.866,1268.86 362.059,1278.98 504.252,1288.75 646.444,1298.18 788.637,1307.27 930.829,1316.01 1073.02,1324.42 1215.21,1332.48 1357.41,1340.19 1499.6,1347.56 1641.79,1354.59 1783.99,1361.28 1926.18,1367.63 2068.37,1373.63 2210.56,1379.29 2352.76,1384.6 "/>
<circle clip-path="url(#clip682)" cx="219.866" cy="1268.86" r="7.2" fill="#0000ff" fill-rule="evenodd" fill-opacity="1" stroke="#000000" stroke-opacity="1" stroke-width="3.2"/>
<circle clip-path="url(#clip682)" cx="362.059" cy="1278.98" r="7.2" fill="#0000ff" fill-rule="evenodd" fill-opacity="1" stroke="#000000" stroke-opacity="1" stroke-width="3.2"/>
<circle clip-path="url(#clip682)" cx="504.252" cy="1288.75" r="7.2" fill="#0000ff" fill-rule="evenodd" fill-opacity="1" stroke="#000000" stroke-opacity="1" stroke-width="3.2"/>
<circle clip-path="url(#clip682)" cx="646.444" cy="1298.18" r="7.2" fill="#0000ff" fill-rule="evenodd" fill-opacity="1" stroke="#000000" stroke-opacity="1" stroke-width="3.2"/>
<circle clip-path="url(#clip682)" cx="788.637" cy="1307.27" r="7.2" fill="#0000ff" fill-rule="evenodd" fill-opacity="1" stroke="#000000" stroke-opacity="1" stroke-width="3.2"/>
<circle clip-path="url(#clip682)" cx="930.829" cy="1316.01" r="7.2" fill="#0000ff" fill-rule="evenodd" fill-opacity="1" stroke="#000000" stroke-opacity="1" stroke-width="3.2"/>
<circle clip-path="url(#clip682)" cx="1073.02" cy="1324.42" r="7.2" fill="#0000ff" fill-rule="evenodd" fill-opacity="1" stroke="#000000" stroke-opacity="1" stroke-width="3.2"/>
<circle clip-path="url(#clip682)" cx="1215.21" cy="1332.48" r="7.2" fill="#0000ff" fill-rule="evenodd" fill-opacity="1" stroke="#000000" stroke-opacity="1" stroke-width="3.2"/>
<circle clip-path="url(#clip682)" cx="1357.41" cy="1340.19" r="7.2" fill="#0000ff" fill-rule="evenodd" fill-opacity="1" stroke="#000000" stroke-opacity="1" stroke-width="3.2"/>
<circle clip-path="url(#clip682)" cx="1499.6" cy="1347.56" r="7.2" fill="#0000ff" fill-rule="evenodd" fill-opacity="1" stroke="#000000" stroke-opacity="1" stroke-width="3.2"/>
<circle clip-path="url(#clip682)" cx="1641.79" cy="1354.59" r="7.2" fill="#0000ff" fill-rule="evenodd" fill-opacity="1" stroke="#000000" stroke-opacity="1" stroke-width="3.2"/>
<circle clip-path="url(#clip682)" cx="1783.99" cy="1361.28" r="7.2" fill="#0000ff" fill-rule="evenodd" fill-opacity="1" stroke="#000000" stroke-opacity="1" stroke-width="3.2"/>
<circle clip-path="url(#clip682)" cx="1926.18" cy="1367.63" r="7.2" fill="#0000ff" fill-rule="evenodd" fill-opacity="1" stroke="#000000" stroke-opacity="1" stroke-width="3.2"/>
<circle clip-path="url(#clip682)" cx="2068.37" cy="1373.63" r="7.2" fill="#0000ff" fill-rule="evenodd" fill-opacity="1" stroke="#000000" stroke-opacity="1" stroke-width="3.2"/>
<circle clip-path="url(#clip682)" cx="2210.56" cy="1379.29" r="7.2" fill="#0000ff" fill-rule="evenodd" fill-opacity="1" stroke="#000000" stroke-opacity="1" stroke-width="3.2"/>
<circle clip-path="url(#clip682)" cx="2352.76" cy="1384.6" r="7.2" fill="#0000ff" fill-rule="evenodd" fill-opacity="1" stroke="#000000" stroke-opacity="1" stroke-width="3.2"/>
<polyline clip-path="url(#clip682)" style="stroke:#0000ff; stroke-linecap:round; stroke-linejoin:round; stroke-width:4; stroke-opacity:1; fill:none" points="219.866,1268.86 362.059,1258.4 504.252,1247.6 646.444,1236.46 788.637,1224.97 930.829,1213.14 1073.02,1200.96 1215.21,1188.45 1357.41,1175.59 1499.6,1162.38 1641.79,1148.84 1783.99,1134.95 1926.18,1120.72 2068.37,1106.14 2210.56,1091.23 2352.76,1075.97 "/>
<circle clip-path="url(#clip682)" cx="219.866" cy="1268.86" r="7.2" fill="#0000ff" fill-rule="evenodd" fill-opacity="1" stroke="#000000" stroke-opacity="1" stroke-width="3.2"/>
<circle clip-path="url(#clip682)" cx="362.059" cy="1258.4" r="7.2" fill="#0000ff" fill-rule="evenodd" fill-opacity="1" stroke="#000000" stroke-opacity="1" stroke-width="3.2"/>
<circle clip-path="url(#clip682)" cx="504.252" cy="1247.6" r="7.2" fill="#0000ff" fill-rule="evenodd" fill-opacity="1" stroke="#000000" stroke-opacity="1" stroke-width="3.2"/>
<circle clip-path="url(#clip682)" cx="646.444" cy="1236.46" r="7.2" fill="#0000ff" fill-rule="evenodd" fill-opacity="1" stroke="#000000" stroke-opacity="1" stroke-width="3.2"/>
<circle clip-path="url(#clip682)" cx="788.637" cy="1224.97" r="7.2" fill="#0000ff" fill-rule="evenodd" fill-opacity="1" stroke="#000000" stroke-opacity="1" stroke-width="3.2"/>
<circle clip-path="url(#clip682)" cx="930.829" cy="1213.14" r="7.2" fill="#0000ff" fill-rule="evenodd" fill-opacity="1" stroke="#000000" stroke-opacity="1" stroke-width="3.2"/>
<circle clip-path="url(#clip682)" cx="1073.02" cy="1200.96" r="7.2" fill="#0000ff" fill-rule="evenodd" fill-opacity="1" stroke="#000000" stroke-opacity="1" stroke-width="3.2"/>
<circle clip-path="url(#clip682)" cx="1215.21" cy="1188.45" r="7.2" fill="#0000ff" fill-rule="evenodd" fill-opacity="1" stroke="#000000" stroke-opacity="1" stroke-width="3.2"/>
<circle clip-path="url(#clip682)" cx="1357.41" cy="1175.59" r="7.2" fill="#0000ff" fill-rule="evenodd" fill-opacity="1" stroke="#000000" stroke-opacity="1" stroke-width="3.2"/>
<circle clip-path="url(#clip682)" cx="1499.6" cy="1162.38" r="7.2" fill="#0000ff" fill-rule="evenodd" fill-opacity="1" stroke="#000000" stroke-opacity="1" stroke-width="3.2"/>
<circle clip-path="url(#clip682)" cx="1641.79" cy="1148.84" r="7.2" fill="#0000ff" fill-rule="evenodd" fill-opacity="1" stroke="#000000" stroke-opacity="1" stroke-width="3.2"/>
<circle clip-path="url(#clip682)" cx="1783.99" cy="1134.95" r="7.2" fill="#0000ff" fill-rule="evenodd" fill-opacity="1" stroke="#000000" stroke-opacity="1" stroke-width="3.2"/>
<circle clip-path="url(#clip682)" cx="1926.18" cy="1120.72" r="7.2" fill="#0000ff" fill-rule="evenodd" fill-opacity="1" stroke="#000000" stroke-opacity="1" stroke-width="3.2"/>
<circle clip-path="url(#clip682)" cx="2068.37" cy="1106.14" r="7.2" fill="#0000ff" fill-rule="evenodd" fill-opacity="1" stroke="#000000" stroke-opacity="1" stroke-width="3.2"/>
<circle clip-path="url(#clip682)" cx="2210.56" cy="1091.23" r="7.2" fill="#0000ff" fill-rule="evenodd" fill-opacity="1" stroke="#000000" stroke-opacity="1" stroke-width="3.2"/>
<circle clip-path="url(#clip682)" cx="2352.76" cy="1075.97" r="7.2" fill="#0000ff" fill-rule="evenodd" fill-opacity="1" stroke="#000000" stroke-opacity="1" stroke-width="3.2"/>
<polyline clip-path="url(#clip682)" style="stroke:#0000ff; stroke-linecap:round; stroke-linejoin:round; stroke-width:4; stroke-opacity:1; fill:none" points="219.866,805.91 362.059,826.314 504.252,846.375 646.444,866.094 788.637,885.469 930.829,904.502 1073.02,923.191 1215.21,941.538 1357.41,959.541 1499.6,977.202 1641.79,994.52 1783.99,1011.49 1926.18,1028.13 2068.37,1044.42 2210.56,1060.36 2352.76,1075.97 "/>
<circle clip-path="url(#clip682)" cx="219.866" cy="805.91" r="7.2" fill="#0000ff" fill-rule="evenodd" fill-opacity="1" stroke="#000000" stroke-opacity="1" stroke-width="3.2"/>
<circle clip-path="url(#clip682)" cx="362.059" cy="826.314" r="7.2" fill="#0000ff" fill-rule="evenodd" fill-opacity="1" stroke="#000000" stroke-opacity="1" stroke-width="3.2"/>
<circle clip-path="url(#clip682)" cx="504.252" cy="846.375" r="7.2" fill="#0000ff" fill-rule="evenodd" fill-opacity="1" stroke="#000000" stroke-opacity="1" stroke-width="3.2"/>
<circle clip-path="url(#clip682)" cx="646.444" cy="866.094" r="7.2" fill="#0000ff" fill-rule="evenodd" fill-opacity="1" stroke="#000000" stroke-opacity="1" stroke-width="3.2"/>
<circle clip-path="url(#clip682)" cx="788.637" cy="885.469" r="7.2" fill="#0000ff" fill-rule="evenodd" fill-opacity="1" stroke="#000000" stroke-opacity="1" stroke-width="3.2"/>
<circle clip-path="url(#clip682)" cx="930.829" cy="904.502" r="7.2" fill="#0000ff" fill-rule="evenodd" fill-opacity="1" stroke="#000000" stroke-opacity="1" stroke-width="3.2"/>
<circle clip-path="url(#clip682)" cx="1073.02" cy="923.191" r="7.2" fill="#0000ff" fill-rule="evenodd" fill-opacity="1" stroke="#000000" stroke-opacity="1" stroke-width="3.2"/>
<circle clip-path="url(#clip682)" cx="1215.21" cy="941.538" r="7.2" fill="#0000ff" fill-rule="evenodd" fill-opacity="1" stroke="#000000" stroke-opacity="1" stroke-width="3.2"/>
<circle clip-path="url(#clip682)" cx="1357.41" cy="959.541" r="7.2" fill="#0000ff" fill-rule="evenodd" fill-opacity="1" stroke="#000000" stroke-opacity="1" stroke-width="3.2"/>
<circle clip-path="url(#clip682)" cx="1499.6" cy="977.202" r="7.2" fill="#0000ff" fill-rule="evenodd" fill-opacity="1" stroke="#000000" stroke-opacity="1" stroke-width="3.2"/>
<circle clip-path="url(#clip682)" cx="1641.79" cy="994.52" r="7.2" fill="#0000ff" fill-rule="evenodd" fill-opacity="1" stroke="#000000" stroke-opacity="1" stroke-width="3.2"/>
<circle clip-path="url(#clip682)" cx="1783.99" cy="1011.49" r="7.2" fill="#0000ff" fill-rule="evenodd" fill-opacity="1" stroke="#000000" stroke-opacity="1" stroke-width="3.2"/>
<circle clip-path="url(#clip682)" cx="1926.18" cy="1028.13" r="7.2" fill="#0000ff" fill-rule="evenodd" fill-opacity="1" stroke="#000000" stroke-opacity="1" stroke-width="3.2"/>
<circle clip-path="url(#clip682)" cx="2068.37" cy="1044.42" r="7.2" fill="#0000ff" fill-rule="evenodd" fill-opacity="1" stroke="#000000" stroke-opacity="1" stroke-width="3.2"/>
<circle clip-path="url(#clip682)" cx="2210.56" cy="1060.36" r="7.2" fill="#0000ff" fill-rule="evenodd" fill-opacity="1" stroke="#000000" stroke-opacity="1" stroke-width="3.2"/>
<circle clip-path="url(#clip682)" cx="2352.76" cy="1075.97" r="7.2" fill="#0000ff" fill-rule="evenodd" fill-opacity="1" stroke="#000000" stroke-opacity="1" stroke-width="3.2"/>
<polyline clip-path="url(#clip682)" style="stroke:#0000ff; stroke-linecap:round; stroke-linejoin:round; stroke-width:4; stroke-opacity:1; fill:none" points="219.866,805.91 362.059,785.163 504.252,764.073 646.444,742.64 788.637,720.864 930.829,698.745 1073.02,676.283 1215.21,653.478 1357.41,630.331 1499.6,606.84 1641.79,583.007 1783.99,558.83 1926.18,534.311 2068.37,509.449 2210.56,484.243 2352.76,458.695 "/>
<circle clip-path="url(#clip682)" cx="219.866" cy="805.91" r="7.2" fill="#0000ff" fill-rule="evenodd" fill-opacity="1" stroke="#000000" stroke-opacity="1" stroke-width="3.2"/>
<circle clip-path="url(#clip682)" cx="362.059" cy="785.163" r="7.2" fill="#0000ff" fill-rule="evenodd" fill-opacity="1" stroke="#000000" stroke-opacity="1" stroke-width="3.2"/>
<circle clip-path="url(#clip682)" cx="504.252" cy="764.073" r="7.2" fill="#0000ff" fill-rule="evenodd" fill-opacity="1" stroke="#000000" stroke-opacity="1" stroke-width="3.2"/>
<circle clip-path="url(#clip682)" cx="646.444" cy="742.64" r="7.2" fill="#0000ff" fill-rule="evenodd" fill-opacity="1" stroke="#000000" stroke-opacity="1" stroke-width="3.2"/>
<circle clip-path="url(#clip682)" cx="788.637" cy="720.864" r="7.2" fill="#0000ff" fill-rule="evenodd" fill-opacity="1" stroke="#000000" stroke-opacity="1" stroke-width="3.2"/>
<circle clip-path="url(#clip682)" cx="930.829" cy="698.745" r="7.2" fill="#0000ff" fill-rule="evenodd" fill-opacity="1" stroke="#000000" stroke-opacity="1" stroke-width="3.2"/>
<circle clip-path="url(#clip682)" cx="1073.02" cy="676.283" r="7.2" fill="#0000ff" fill-rule="evenodd" fill-opacity="1" stroke="#000000" stroke-opacity="1" stroke-width="3.2"/>
<circle clip-path="url(#clip682)" cx="1215.21" cy="653.478" r="7.2" fill="#0000ff" fill-rule="evenodd" fill-opacity="1" stroke="#000000" stroke-opacity="1" stroke-width="3.2"/>
<circle clip-path="url(#clip682)" cx="1357.41" cy="630.331" r="7.2" fill="#0000ff" fill-rule="evenodd" fill-opacity="1" stroke="#000000" stroke-opacity="1" stroke-width="3.2"/>
<circle clip-path="url(#clip682)" cx="1499.6" cy="606.84" r="7.2" fill="#0000ff" fill-rule="evenodd" fill-opacity="1" stroke="#000000" stroke-opacity="1" stroke-width="3.2"/>
<circle clip-path="url(#clip682)" cx="1641.79" cy="583.007" r="7.2" fill="#0000ff" fill-rule="evenodd" fill-opacity="1" stroke="#000000" stroke-opacity="1" stroke-width="3.2"/>
<circle clip-path="url(#clip682)" cx="1783.99" cy="558.83" r="7.2" fill="#0000ff" fill-rule="evenodd" fill-opacity="1" stroke="#000000" stroke-opacity="1" stroke-width="3.2"/>
<circle clip-path="url(#clip682)" cx="1926.18" cy="534.311" r="7.2" fill="#0000ff" fill-rule="evenodd" fill-opacity="1" stroke="#000000" stroke-opacity="1" stroke-width="3.2"/>
<circle clip-path="url(#clip682)" cx="2068.37" cy="509.449" r="7.2" fill="#0000ff" fill-rule="evenodd" fill-opacity="1" stroke="#000000" stroke-opacity="1" stroke-width="3.2"/>
<circle clip-path="url(#clip682)" cx="2210.56" cy="484.243" r="7.2" fill="#0000ff" fill-rule="evenodd" fill-opacity="1" stroke="#000000" stroke-opacity="1" stroke-width="3.2"/>
<circle clip-path="url(#clip682)" cx="2352.76" cy="458.695" r="7.2" fill="#0000ff" fill-rule="evenodd" fill-opacity="1" stroke="#000000" stroke-opacity="1" stroke-width="3.2"/>
<polyline clip-path="url(#clip682)" style="stroke:#0000ff; stroke-linecap:round; stroke-linejoin:round; stroke-width:4; stroke-opacity:1; fill:none" points="219.866,34.3222 362.059,65.0142 504.252,95.3633 646.444,125.37 788.637,155.033 930.829,184.353 1073.02,213.331 1215.21,241.965 1357.41,270.257 1499.6,298.205 1641.79,325.811 1783.99,353.074 1926.18,379.993 2068.37,406.57 2210.56,432.804 2352.76,458.695 "/>
<circle clip-path="url(#clip682)" cx="362.059" cy="65.0142" r="7.2" fill="#0000ff" fill-rule="evenodd" fill-opacity="1" stroke="#000000" stroke-opacity="1" stroke-width="3.2"/>
<circle clip-path="url(#clip682)" cx="504.252" cy="95.3633" r="7.2" fill="#0000ff" fill-rule="evenodd" fill-opacity="1" stroke="#000000" stroke-opacity="1" stroke-width="3.2"/>
<circle clip-path="url(#clip682)" cx="646.444" cy="125.37" r="7.2" fill="#0000ff" fill-rule="evenodd" fill-opacity="1" stroke="#000000" stroke-opacity="1" stroke-width="3.2"/>
<circle clip-path="url(#clip682)" cx="788.637" cy="155.033" r="7.2" fill="#0000ff" fill-rule="evenodd" fill-opacity="1" stroke="#000000" stroke-opacity="1" stroke-width="3.2"/>
<circle clip-path="url(#clip682)" cx="930.829" cy="184.353" r="7.2" fill="#0000ff" fill-rule="evenodd" fill-opacity="1" stroke="#000000" stroke-opacity="1" stroke-width="3.2"/>
<circle clip-path="url(#clip682)" cx="1073.02" cy="213.331" r="7.2" fill="#0000ff" fill-rule="evenodd" fill-opacity="1" stroke="#000000" stroke-opacity="1" stroke-width="3.2"/>
<circle clip-path="url(#clip682)" cx="1215.21" cy="241.965" r="7.2" fill="#0000ff" fill-rule="evenodd" fill-opacity="1" stroke="#000000" stroke-opacity="1" stroke-width="3.2"/>
<circle clip-path="url(#clip682)" cx="1357.41" cy="270.257" r="7.2" fill="#0000ff" fill-rule="evenodd" fill-opacity="1" stroke="#000000" stroke-opacity="1" stroke-width="3.2"/>
<circle clip-path="url(#clip682)" cx="1499.6" cy="298.205" r="7.2" fill="#0000ff" fill-rule="evenodd" fill-opacity="1" stroke="#000000" stroke-opacity="1" stroke-width="3.2"/>
<circle clip-path="url(#clip682)" cx="1641.79" cy="325.811" r="7.2" fill="#0000ff" fill-rule="evenodd" fill-opacity="1" stroke="#000000" stroke-opacity="1" stroke-width="3.2"/>
<circle clip-path="url(#clip682)" cx="1783.99" cy="353.074" r="7.2" fill="#0000ff" fill-rule="evenodd" fill-opacity="1" stroke="#000000" stroke-opacity="1" stroke-width="3.2"/>
<circle clip-path="url(#clip682)" cx="1926.18" cy="379.993" r="7.2" fill="#0000ff" fill-rule="evenodd" fill-opacity="1" stroke="#000000" stroke-opacity="1" stroke-width="3.2"/>
<circle clip-path="url(#clip682)" cx="2068.37" cy="406.57" r="7.2" fill="#0000ff" fill-rule="evenodd" fill-opacity="1" stroke="#000000" stroke-opacity="1" stroke-width="3.2"/>
<circle clip-path="url(#clip682)" cx="2210.56" cy="432.804" r="7.2" fill="#0000ff" fill-rule="evenodd" fill-opacity="1" stroke="#000000" stroke-opacity="1" stroke-width="3.2"/>
<circle clip-path="url(#clip682)" cx="2352.76" cy="458.695" r="7.2" fill="#0000ff" fill-rule="evenodd" fill-opacity="1" stroke="#000000" stroke-opacity="1" stroke-width="3.2"/>
</svg>
