<?xml version="1.0" encoding="utf-8"?>
<svg xmlns="http://www.w3.org/2000/svg" xmlns:xlink="http://www.w3.org/1999/xlink" width="600" height="400" viewBox="0 0 2400 1600">
<defs>
  <clipPath id="clip160">
    <rect x="0" y="0" width="2400" height="1600"/>
  </clipPath>
</defs>
<path clip-path="url(#clip160)" d="M0 1600 L2400 1600 L2400 0 L0 0  Z" fill="#ffffff" fill-rule="evenodd" fill-opacity="1"/>
<defs>
  <clipPath id="clip161">
    <rect x="480" y="0" width="1681" height="1600"/>
  </clipPath>
</defs>
<path clip-path="url(#clip160)" d="M250.028 1423.18 L2352.76 1423.18 L2352.76 47.2441 L250.028 47.2441  Z" fill="#ffffff" fill-rule="evenodd" fill-opacity="1"/>
<defs>
  <clipPath id="clip162">
    <rect x="250" y="47" width="2104" height="1377"/>
  </clipPath>
</defs>
<polyline clip-path="url(#clip162)" style="stroke:#000000; stroke-linecap:round; stroke-linejoin:round; stroke-width:2; stroke-opacity:0.1; fill:none" points="309.539,1423.18 309.539,47.2441 "/>
<polyline clip-path="url(#clip162)" style="stroke:#000000; stroke-linecap:round; stroke-linejoin:round; stroke-width:2; stroke-opacity:0.1; fill:none" points="719.078,1423.18 719.078,47.2441 "/>
<polyline clip-path="url(#clip162)" style="stroke:#000000; stroke-linecap:round; stroke-linejoin:round; stroke-width:2; stroke-opacity:0.1; fill:none" points="1128.62,1423.18 1128.62,47.2441 "/>
<polyline clip-path="url(#clip162)" style="stroke:#000000; stroke-linecap:round; stroke-linejoin:round; stroke-width:2; stroke-opacity:0.1; fill:none" points="1538.16,1423.18 1538.16,47.2441 "/>
<polyline clip-path="url(#clip162)" style="stroke:#000000; stroke-linecap:round; stroke-linejoin:round; stroke-width:2; stroke-opacity:0.1; fill:none" points="1947.7,1423.18 1947.7,47.2441 "/>
<polyline clip-path="url(#clip162)" style="stroke:#000000; stroke-linecap:round; stroke-linejoin:round; stroke-width:2; stroke-opacity:0.1; fill:none" points="250.028,1385.86 2352.76,1385.86 "/>
<polyline clip-path="url(#clip162)" style="stroke:#000000; stroke-linecap:round; stroke-linejoin:round; stroke-width:2; stroke-opacity:0.1; fill:none" points="250.028,1177.24 2352.76,1177.24 "/>
<polyline clip-path="url(#clip162)" style="stroke:#000000; stroke-linecap:round; stroke-linejoin:round; stroke-width:2; stroke-opacity:0.1; fill:none" points="250.028,968.631 2352.76,968.631 "/>
<polyline clip-path="url(#clip162)" style="stroke:#000000; stroke-linecap:round; stroke-linejoin:round; stroke-width:2; stroke-opacity:0.1; fill:none" points="250.028,760.017 2352.76,760.017 "/>
<polyline clip-path="url(#clip162)" style="stroke:#000000; stroke-linecap:round; stroke-linejoin:round; stroke-width:2; stroke-opacity:0.1; fill:none" points="250.028,551.403 2352.76,551.403 "/>
<polyline clip-path="url(#clip162)" style="stroke:#000000; stroke-linecap:round; stroke-linejoin:round; stroke-width:2; stroke-opacity:0.1; fill:none" points="250.028,342.79 2352.76,342.79 "/>
<polyline clip-path="url(#clip162)" style="stroke:#000000; stroke-linecap:round; stroke-linejoin:round; stroke-width:2; stroke-opacity:0.1; fill:none" points="250.028,134.176 2352.76,134.176 "/>
<polyline clip-path="url(#clip160)" style="stroke:#000000; stroke-linecap:round; stroke-linejoin:round; stroke-width:4; stroke-opacity:1; fill:none" points="250.028,1423.18 2352.76,1423.18 "/>
<polyline clip-path="url(#clip160)" style="stroke:#000000; stroke-linecap:round; stroke-linejoin:round; stroke-width:4; stroke-opacity:1; fill:none" points="309.539,1423.18 309.539,1404.28 "/>
<polyline clip-path="url(#clip160)" style="stroke:#000000; stroke-linecap:round; stroke-linejoin:round; stroke-width:4; stroke-opacity:1; fill:none" points="719.078,1423.18 719.078,1404.28 "/>
<polyline clip-path="url(#clip160)" style="stroke:#000000; stroke-linecap:round; stroke-linejoin:round; stroke-width:4; stroke-opacity:1; fill:none" points="1128.62,1423.18 1128.62,1404.28 "/>
<polyline clip-path="url(#clip160)" style="stroke:#000000; stroke-linecap:round; stroke-linejoin:round; stroke-width:4; stroke-opacity:1; fill:none" points="1538.16,1423.18 1538.16,1404.28 "/>
<polyline clip-path="url(#clip160)" style="stroke:#000000; stroke-linecap:round; stroke-linejoin:round; stroke-width:4; stroke-opacity:1; fill:none" points="1947.7,1423.18 1947.7,1404.28 "/>
<path clip-path="url(#clip160)" d="M286.924 1454.1 Q283.313 1454.1 281.484 1457.66 Q279.678 1461.2 279.678 1468.33 Q279.678 1475.44 281.484 1479.01 Q283.313 1482.55 286.924 1482.55 Q290.558 1482.55 292.363 1479.01 Q294.192 1475.44 294.192 1468.33 Q294.192 1461.2 292.363 1457.66 Q290.558 1454.1 286.924 1454.1 M286.924 1450.39 Q292.734 1450.39 295.789 1455 Q298.868 1459.58 298.868 1468.33 Q298.868 1477.06 295.789 1481.67 Q292.734 1486.25 286.924 1486.25 Q281.114 1486.25 278.035 1481.67 Q274.979 1477.06 274.979 1468.33 Q274.979 1459.58 278.035 1455 Q281.114 1450.39 286.924 1450.39 Z" fill="#000000" fill-rule="nonzero" fill-opacity="1" /><path clip-path="url(#clip160)" d="M307.086 1479.7 L311.97 1479.7 L311.97 1485.58 L307.086 1485.58 L307.086 1479.7 Z" fill="#000000" fill-rule="nonzero" fill-opacity="1" /><path clip-path="url(#clip160)" d="M332.155 1454.1 Q328.544 1454.1 326.715 1457.66 Q324.91 1461.2 324.91 1468.33 Q324.91 1475.44 326.715 1479.01 Q328.544 1482.55 332.155 1482.55 Q335.789 1482.55 337.595 1479.01 Q339.423 1475.44 339.423 1468.33 Q339.423 1461.2 337.595 1457.66 Q335.789 1454.1 332.155 1454.1 M332.155 1450.39 Q337.965 1450.39 341.021 1455 Q344.099 1459.58 344.099 1468.33 Q344.099 1477.06 341.021 1481.67 Q337.965 1486.25 332.155 1486.25 Q326.345 1486.25 323.266 1481.67 Q320.211 1477.06 320.211 1468.33 Q320.211 1459.58 323.266 1455 Q326.345 1450.39 332.155 1450.39 Z" fill="#000000" fill-rule="nonzero" fill-opacity="1" /><path clip-path="url(#clip160)" d="M697.261 1454.1 Q693.65 1454.1 691.822 1457.66 Q690.016 1461.2 690.016 1468.33 Q690.016 1475.44 691.822 1479.01 Q693.65 1482.55 697.261 1482.55 Q700.896 1482.55 702.701 1479.01 Q704.53 1475.44 704.53 1468.33 Q704.53 1461.2 702.701 1457.66 Q700.896 1454.1 697.261 1454.1 M697.261 1450.39 Q703.072 1450.39 706.127 1455 Q709.206 1459.58 709.206 1468.33 Q709.206 1477.06 706.127 1481.67 Q703.072 1486.25 697.261 1486.25 Q691.451 1486.25 688.373 1481.67 Q685.317 1477.06 685.317 1468.33 Q685.317 1459.58 688.373 1455 Q691.451 1450.39 697.261 1450.39 Z" fill="#000000" fill-rule="nonzero" fill-opacity="1" /><path clip-path="url(#clip160)" d="M717.423 1479.7 L722.308 1479.7 L722.308 1485.58 L717.423 1485.58 L717.423 1479.7 Z" fill="#000000" fill-rule="nonzero" fill-opacity="1" /><path clip-path="url(#clip160)" d="M736.521 1481.64 L752.84 1481.64 L752.84 1485.58 L730.896 1485.58 L730.896 1481.64 Q733.558 1478.89 738.141 1474.26 Q742.747 1469.61 743.928 1468.27 Q746.173 1465.74 747.053 1464.01 Q747.956 1462.25 747.956 1460.56 Q747.956 1457.8 746.011 1456.07 Q744.09 1454.33 740.988 1454.33 Q738.789 1454.33 736.335 1455.09 Q733.905 1455.86 731.127 1457.41 L731.127 1452.69 Q733.951 1451.55 736.405 1450.97 Q738.858 1450.39 740.896 1450.39 Q746.266 1450.39 749.46 1453.08 Q752.655 1455.77 752.655 1460.26 Q752.655 1462.39 751.845 1464.31 Q751.057 1466.2 748.951 1468.8 Q748.372 1469.47 745.27 1472.69 Q742.169 1475.88 736.521 1481.64 Z" fill="#000000" fill-rule="nonzero" fill-opacity="1" /><path clip-path="url(#clip160)" d="M1105.76 1454.1 Q1102.15 1454.1 1100.32 1457.66 Q1098.51 1461.2 1098.51 1468.33 Q1098.51 1475.44 1100.32 1479.01 Q1102.15 1482.55 1105.76 1482.55 Q1109.39 1482.55 1111.2 1479.01 Q1113.03 1475.44 1113.03 1468.33 Q1113.03 1461.2 1111.2 1457.66 Q1109.39 1454.1 1105.76 1454.1 M1105.76 1450.39 Q1111.57 1450.39 1114.62 1455 Q1117.7 1459.58 1117.7 1468.33 Q1117.7 1477.06 1114.62 1481.67 Q1111.57 1486.25 1105.76 1486.25 Q1099.95 1486.25 1096.87 1481.67 Q1093.81 1477.06 1093.81 1468.33 Q1093.81 1459.58 1096.87 1455 Q1099.95 1450.39 1105.76 1450.39 Z" fill="#000000" fill-rule="nonzero" fill-opacity="1" /><path clip-path="url(#clip160)" d="M1125.92 1479.7 L1130.81 1479.7 L1130.81 1485.58 L1125.92 1485.58 L1125.92 1479.7 Z" fill="#000000" fill-rule="nonzero" fill-opacity="1" /><path clip-path="url(#clip160)" d="M1153.84 1455.09 L1142.03 1473.54 L1153.84 1473.54 L1153.84 1455.09 M1152.61 1451.02 L1158.49 1451.02 L1158.49 1473.54 L1163.42 1473.54 L1163.42 1477.43 L1158.49 1477.43 L1158.49 1485.58 L1153.84 1485.58 L1153.84 1477.43 L1138.24 1477.43 L1138.24 1472.92 L1152.61 1451.02 Z" fill="#000000" fill-rule="nonzero" fill-opacity="1" /><path clip-path="url(#clip160)" d="M1515.46 1454.1 Q1511.85 1454.1 1510.02 1457.66 Q1508.21 1461.2 1508.21 1468.33 Q1508.21 1475.44 1510.02 1479.01 Q1511.85 1482.55 1515.46 1482.55 Q1519.09 1482.55 1520.9 1479.01 Q1522.73 1475.44 1522.73 1468.33 Q1522.73 1461.2 1520.9 1457.66 Q1519.09 1454.1 1515.46 1454.1 M1515.46 1450.39 Q1521.27 1450.39 1524.33 1455 Q1527.4 1459.58 1527.4 1468.33 Q1527.4 1477.06 1524.33 1481.67 Q1521.27 1486.25 1515.46 1486.25 Q1509.65 1486.25 1506.57 1481.67 Q1503.52 1477.06 1503.52 1468.33 Q1503.52 1459.58 1506.57 1455 Q1509.65 1450.39 1515.46 1450.39 Z" fill="#000000" fill-rule="nonzero" fill-opacity="1" /><path clip-path="url(#clip160)" d="M1535.62 1479.7 L1540.51 1479.7 L1540.51 1485.58 L1535.62 1485.58 L1535.62 1479.7 Z" fill="#000000" fill-rule="nonzero" fill-opacity="1" /><path clip-path="url(#clip160)" d="M1561.27 1466.44 Q1558.12 1466.44 1556.27 1468.59 Q1554.44 1470.74 1554.44 1474.49 Q1554.44 1478.22 1556.27 1480.39 Q1558.12 1482.55 1561.27 1482.55 Q1564.42 1482.55 1566.25 1480.39 Q1568.1 1478.22 1568.1 1474.49 Q1568.1 1470.74 1566.25 1468.59 Q1564.42 1466.44 1561.27 1466.44 M1570.55 1451.78 L1570.55 1456.04 Q1568.79 1455.21 1566.99 1454.77 Q1565.21 1454.33 1563.45 1454.33 Q1558.82 1454.33 1556.36 1457.45 Q1553.93 1460.58 1553.59 1466.9 Q1554.95 1464.89 1557.01 1463.82 Q1559.07 1462.73 1561.55 1462.73 Q1566.76 1462.73 1569.77 1465.9 Q1572.8 1469.05 1572.8 1474.49 Q1572.8 1479.82 1569.65 1483.03 Q1566.5 1486.25 1561.27 1486.25 Q1555.27 1486.25 1552.1 1481.67 Q1548.93 1477.06 1548.93 1468.33 Q1548.93 1460.14 1552.82 1455.28 Q1556.71 1450.39 1563.26 1450.39 Q1565.02 1450.39 1566.8 1450.74 Q1568.61 1451.09 1570.55 1451.78 Z" fill="#000000" fill-rule="nonzero" fill-opacity="1" /><path clip-path="url(#clip160)" d="M1925.13 1454.1 Q1921.52 1454.1 1919.69 1457.66 Q1917.88 1461.2 1917.88 1468.33 Q1917.88 1475.44 1919.69 1479.01 Q1921.52 1482.55 1925.13 1482.55 Q1928.76 1482.55 1930.57 1479.01 Q1932.4 1475.44 1932.4 1468.33 Q1932.4 1461.2 1930.57 1457.66 Q1928.76 1454.1 1925.13 1454.1 M1925.13 1450.39 Q1930.94 1450.39 1933.99 1455 Q1937.07 1459.58 1937.07 1468.33 Q1937.07 1477.06 1933.99 1481.67 Q1930.94 1486.25 1925.13 1486.25 Q1919.32 1486.25 1916.24 1481.67 Q1913.18 1477.06 1913.18 1468.33 Q1913.18 1459.58 1916.24 1455 Q1919.32 1450.39 1925.13 1450.39 Z" fill="#000000" fill-rule="nonzero" fill-opacity="1" /><path clip-path="url(#clip160)" d="M1945.29 1479.7 L1950.17 1479.7 L1950.17 1485.58 L1945.29 1485.58 L1945.29 1479.7 Z" fill="#000000" fill-rule="nonzero" fill-opacity="1" /><path clip-path="url(#clip160)" d="M1970.36 1469.17 Q1967.02 1469.17 1965.1 1470.95 Q1963.21 1472.73 1963.21 1475.86 Q1963.21 1478.98 1965.1 1480.77 Q1967.02 1482.55 1970.36 1482.55 Q1973.69 1482.55 1975.61 1480.77 Q1977.53 1478.96 1977.53 1475.86 Q1977.53 1472.73 1975.61 1470.95 Q1973.71 1469.17 1970.36 1469.17 M1965.68 1467.18 Q1962.67 1466.44 1960.98 1464.38 Q1959.32 1462.32 1959.32 1459.35 Q1959.32 1455.21 1962.26 1452.8 Q1965.22 1450.39 1970.36 1450.39 Q1975.52 1450.39 1978.46 1452.8 Q1981.4 1455.21 1981.4 1459.35 Q1981.4 1462.32 1979.71 1464.38 Q1978.04 1466.44 1975.06 1467.18 Q1978.44 1467.96 1980.31 1470.26 Q1982.21 1472.55 1982.21 1475.86 Q1982.21 1480.88 1979.13 1483.57 Q1976.08 1486.25 1970.36 1486.25 Q1964.64 1486.25 1961.56 1483.57 Q1958.51 1480.88 1958.51 1475.86 Q1958.51 1472.55 1960.4 1470.26 Q1962.3 1467.96 1965.68 1467.18 M1963.97 1459.79 Q1963.97 1462.48 1965.64 1463.98 Q1967.33 1465.49 1970.36 1465.49 Q1973.37 1465.49 1975.06 1463.98 Q1976.77 1462.48 1976.77 1459.79 Q1976.77 1457.11 1975.06 1455.6 Q1973.37 1454.1 1970.36 1454.1 Q1967.33 1454.1 1965.64 1455.6 Q1963.97 1457.11 1963.97 1459.79 Z" fill="#000000" fill-rule="nonzero" fill-opacity="1" /><path clip-path="url(#clip160)" d="M1318.01 1532.4 L1305.12 1549.74 L1318.67 1568.04 L1311.77 1568.04 L1301.39 1554.04 L1291.02 1568.04 L1284.11 1568.04 L1297.95 1549.39 L1285.29 1532.4 L1292.19 1532.4 L1301.65 1545.1 L1311.1 1532.4 L1318.01 1532.4 Z" fill="#000000" fill-rule="nonzero" fill-opacity="1" /><polyline clip-path="url(#clip160)" style="stroke:#000000; stroke-linecap:round; stroke-linejoin:round; stroke-width:4; stroke-opacity:1; fill:none" points="250.028,1423.18 250.028,47.2441 "/>
<polyline clip-path="url(#clip160)" style="stroke:#000000; stroke-linecap:round; stroke-linejoin:round; stroke-width:4; stroke-opacity:1; fill:none" points="250.028,1385.86 268.926,1385.86 "/>
<polyline clip-path="url(#clip160)" style="stroke:#000000; stroke-linecap:round; stroke-linejoin:round; stroke-width:4; stroke-opacity:1; fill:none" points="250.028,1177.24 268.926,1177.24 "/>
<polyline clip-path="url(#clip160)" style="stroke:#000000; stroke-linecap:round; stroke-linejoin:round; stroke-width:4; stroke-opacity:1; fill:none" points="250.028,968.631 268.926,968.631 "/>
<polyline clip-path="url(#clip160)" style="stroke:#000000; stroke-linecap:round; stroke-linejoin:round; stroke-width:4; stroke-opacity:1; fill:none" points="250.028,760.017 268.926,760.017 "/>
<polyline clip-path="url(#clip160)" style="stroke:#000000; stroke-linecap:round; stroke-linejoin:round; stroke-width:4; stroke-opacity:1; fill:none" points="250.028,551.403 268.926,551.403 "/>
<polyline clip-path="url(#clip160)" style="stroke:#000000; stroke-linecap:round; stroke-linejoin:round; stroke-width:4; stroke-opacity:1; fill:none" points="250.028,342.79 268.926,342.79 "/>
<polyline clip-path="url(#clip160)" style="stroke:#000000; stroke-linecap:round; stroke-linejoin:round; stroke-width:4; stroke-opacity:1; fill:none" points="250.028,134.176 268.926,134.176 "/>
<path clip-path="url(#clip160)" d="M126.691 1371.66 Q123.08 1371.66 121.251 1375.22 Q119.445 1378.76 119.445 1385.89 Q119.445 1393 121.251 1396.56 Q123.08 1400.11 126.691 1400.11 Q130.325 1400.11 132.13 1396.56 Q133.959 1393 133.959 1385.89 Q133.959 1378.76 132.13 1375.22 Q130.325 1371.66 126.691 1371.66 M126.691 1367.95 Q132.501 1367.95 135.556 1372.56 Q138.635 1377.14 138.635 1385.89 Q138.635 1394.62 135.556 1399.23 Q132.501 1403.81 126.691 1403.81 Q120.88 1403.81 117.802 1399.23 Q114.746 1394.62 114.746 1385.89 Q114.746 1377.14 117.802 1372.56 Q120.88 1367.95 126.691 1367.95 Z" fill="#000000" fill-rule="nonzero" fill-opacity="1" /><path clip-path="url(#clip160)" d="M146.853 1397.26 L151.737 1397.26 L151.737 1403.14 L146.853 1403.14 L146.853 1397.26 Z" fill="#000000" fill-rule="nonzero" fill-opacity="1" /><path clip-path="url(#clip160)" d="M171.922 1371.66 Q168.311 1371.66 166.482 1375.22 Q164.677 1378.76 164.677 1385.89 Q164.677 1393 166.482 1396.56 Q168.311 1400.11 171.922 1400.11 Q175.556 1400.11 177.362 1396.56 Q179.19 1393 179.19 1385.89 Q179.19 1378.76 177.362 1375.22 Q175.556 1371.66 171.922 1371.66 M171.922 1367.95 Q177.732 1367.95 180.788 1372.56 Q183.866 1377.14 183.866 1385.89 Q183.866 1394.62 180.788 1399.23 Q177.732 1403.81 171.922 1403.81 Q166.112 1403.81 163.033 1399.23 Q159.978 1394.62 159.978 1385.89 Q159.978 1377.14 163.033 1372.56 Q166.112 1367.95 171.922 1367.95 Z" fill="#000000" fill-rule="nonzero" fill-opacity="1" /><path clip-path="url(#clip160)" d="M202.084 1371.66 Q198.473 1371.66 196.644 1375.22 Q194.838 1378.76 194.838 1385.89 Q194.838 1393 196.644 1396.56 Q198.473 1400.11 202.084 1400.11 Q205.718 1400.11 207.524 1396.56 Q209.352 1393 209.352 1385.89 Q209.352 1378.76 207.524 1375.22 Q205.718 1371.66 202.084 1371.66 M202.084 1367.95 Q207.894 1367.95 210.949 1372.56 Q214.028 1377.14 214.028 1385.89 Q214.028 1394.62 210.949 1399.23 Q207.894 1403.81 202.084 1403.81 Q196.274 1403.81 193.195 1399.23 Q190.139 1394.62 190.139 1385.89 Q190.139 1377.14 193.195 1372.56 Q196.274 1367.95 202.084 1367.95 Z" fill="#000000" fill-rule="nonzero" fill-opacity="1" /><path clip-path="url(#clip160)" d="M127.917 1163.04 Q124.306 1163.04 122.478 1166.61 Q120.672 1170.15 120.672 1177.28 Q120.672 1184.39 122.478 1187.95 Q124.306 1191.49 127.917 1191.49 Q131.552 1191.49 133.357 1187.95 Q135.186 1184.39 135.186 1177.28 Q135.186 1170.15 133.357 1166.61 Q131.552 1163.04 127.917 1163.04 M127.917 1159.34 Q133.728 1159.34 136.783 1163.95 Q139.862 1168.53 139.862 1177.28 Q139.862 1186.01 136.783 1190.61 Q133.728 1195.2 127.917 1195.2 Q122.107 1195.2 119.029 1190.61 Q115.973 1186.01 115.973 1177.28 Q115.973 1168.53 119.029 1163.95 Q122.107 1159.34 127.917 1159.34 Z" fill="#000000" fill-rule="nonzero" fill-opacity="1" /><path clip-path="url(#clip160)" d="M148.079 1188.64 L152.964 1188.64 L152.964 1194.52 L148.079 1194.52 L148.079 1188.64 Z" fill="#000000" fill-rule="nonzero" fill-opacity="1" /><path clip-path="url(#clip160)" d="M173.149 1163.04 Q169.538 1163.04 167.709 1166.61 Q165.903 1170.15 165.903 1177.28 Q165.903 1184.39 167.709 1187.95 Q169.538 1191.49 173.149 1191.49 Q176.783 1191.49 178.589 1187.95 Q180.417 1184.39 180.417 1177.28 Q180.417 1170.15 178.589 1166.61 Q176.783 1163.04 173.149 1163.04 M173.149 1159.34 Q178.959 1159.34 182.014 1163.95 Q185.093 1168.53 185.093 1177.28 Q185.093 1186.01 182.014 1190.61 Q178.959 1195.2 173.149 1195.2 Q167.339 1195.2 164.26 1190.61 Q161.204 1186.01 161.204 1177.28 Q161.204 1168.53 164.26 1163.95 Q167.339 1159.34 173.149 1159.34 Z" fill="#000000" fill-rule="nonzero" fill-opacity="1" /><path clip-path="url(#clip160)" d="M194.121 1190.59 L201.76 1190.59 L201.76 1164.22 L193.45 1165.89 L193.45 1161.63 L201.713 1159.96 L206.389 1159.96 L206.389 1190.59 L214.028 1190.59 L214.028 1194.52 L194.121 1194.52 L194.121 1190.59 Z" fill="#000000" fill-rule="nonzero" fill-opacity="1" /><path clip-path="url(#clip160)" d="M128.288 954.429 Q124.677 954.429 122.848 957.994 Q121.043 961.536 121.043 968.665 Q121.043 975.772 122.848 979.337 Q124.677 982.878 128.288 982.878 Q131.922 982.878 133.728 979.337 Q135.556 975.772 135.556 968.665 Q135.556 961.536 133.728 957.994 Q131.922 954.429 128.288 954.429 M128.288 950.726 Q134.098 950.726 137.154 955.332 Q140.232 959.916 140.232 968.665 Q140.232 977.392 137.154 981.999 Q134.098 986.582 128.288 986.582 Q122.478 986.582 119.399 981.999 Q116.343 977.392 116.343 968.665 Q116.343 959.916 119.399 955.332 Q122.478 950.726 128.288 950.726 Z" fill="#000000" fill-rule="nonzero" fill-opacity="1" /><path clip-path="url(#clip160)" d="M148.45 980.031 L153.334 980.031 L153.334 985.911 L148.45 985.911 L148.45 980.031 Z" fill="#000000" fill-rule="nonzero" fill-opacity="1" /><path clip-path="url(#clip160)" d="M173.519 954.429 Q169.908 954.429 168.079 957.994 Q166.274 961.536 166.274 968.665 Q166.274 975.772 168.079 979.337 Q169.908 982.878 173.519 982.878 Q177.153 982.878 178.959 979.337 Q180.788 975.772 180.788 968.665 Q180.788 961.536 178.959 957.994 Q177.153 954.429 173.519 954.429 M173.519 950.726 Q179.329 950.726 182.385 955.332 Q185.463 959.916 185.463 968.665 Q185.463 977.392 182.385 981.999 Q179.329 986.582 173.519 986.582 Q167.709 986.582 164.63 981.999 Q161.575 977.392 161.575 968.665 Q161.575 959.916 164.63 955.332 Q167.709 950.726 173.519 950.726 Z" fill="#000000" fill-rule="nonzero" fill-opacity="1" /><path clip-path="url(#clip160)" d="M197.709 981.976 L214.028 981.976 L214.028 985.911 L192.084 985.911 L192.084 981.976 Q194.746 979.221 199.329 974.591 Q203.936 969.939 205.116 968.596 Q207.362 966.073 208.241 964.337 Q209.144 962.578 209.144 960.888 Q209.144 958.133 207.199 956.397 Q205.278 954.661 202.176 954.661 Q199.977 954.661 197.524 955.425 Q195.093 956.189 192.315 957.74 L192.315 953.017 Q195.139 951.883 197.593 951.304 Q200.047 950.726 202.084 950.726 Q207.454 950.726 210.649 953.411 Q213.843 956.096 213.843 960.587 Q213.843 962.716 213.033 964.638 Q212.246 966.536 210.139 969.128 Q209.561 969.8 206.459 973.017 Q203.357 976.212 197.709 981.976 Z" fill="#000000" fill-rule="nonzero" fill-opacity="1" /><path clip-path="url(#clip160)" d="M127.339 745.816 Q123.728 745.816 121.899 749.381 Q120.093 752.922 120.093 760.052 Q120.093 767.158 121.899 770.723 Q123.728 774.265 127.339 774.265 Q130.973 774.265 132.779 770.723 Q134.607 767.158 134.607 760.052 Q134.607 752.922 132.779 749.381 Q130.973 745.816 127.339 745.816 M127.339 742.112 Q133.149 742.112 136.204 746.718 Q139.283 751.302 139.283 760.052 Q139.283 768.779 136.204 773.385 Q133.149 777.968 127.339 777.968 Q121.529 777.968 118.45 773.385 Q115.394 768.779 115.394 760.052 Q115.394 751.302 118.45 746.718 Q121.529 742.112 127.339 742.112 Z" fill="#000000" fill-rule="nonzero" fill-opacity="1" /><path clip-path="url(#clip160)" d="M147.501 771.417 L152.385 771.417 L152.385 777.297 L147.501 777.297 L147.501 771.417 Z" fill="#000000" fill-rule="nonzero" fill-opacity="1" /><path clip-path="url(#clip160)" d="M172.57 745.816 Q168.959 745.816 167.13 749.381 Q165.325 752.922 165.325 760.052 Q165.325 767.158 167.13 770.723 Q168.959 774.265 172.57 774.265 Q176.204 774.265 178.01 770.723 Q179.839 767.158 179.839 760.052 Q179.839 752.922 178.01 749.381 Q176.204 745.816 172.57 745.816 M172.57 742.112 Q178.38 742.112 181.436 746.718 Q184.514 751.302 184.514 760.052 Q184.514 768.779 181.436 773.385 Q178.38 777.968 172.57 777.968 Q166.76 777.968 163.681 773.385 Q160.626 768.779 160.626 760.052 Q160.626 751.302 163.681 746.718 Q166.76 742.112 172.57 742.112 Z" fill="#000000" fill-rule="nonzero" fill-opacity="1" /><path clip-path="url(#clip160)" d="M206.899 758.663 Q210.255 759.38 212.13 761.649 Q214.028 763.917 214.028 767.251 Q214.028 772.367 210.51 775.167 Q206.991 777.968 200.51 777.968 Q198.334 777.968 196.019 777.529 Q193.727 777.112 191.274 776.255 L191.274 771.742 Q193.218 772.876 195.533 773.454 Q197.848 774.033 200.371 774.033 Q204.769 774.033 207.061 772.297 Q209.375 770.561 209.375 767.251 Q209.375 764.195 207.223 762.482 Q205.093 760.746 201.274 760.746 L197.246 760.746 L197.246 756.904 L201.459 756.904 Q204.908 756.904 206.737 755.538 Q208.565 754.149 208.565 751.556 Q208.565 748.894 206.667 747.482 Q204.792 746.047 201.274 746.047 Q199.352 746.047 197.153 746.464 Q194.954 746.881 192.315 747.76 L192.315 743.594 Q194.977 742.853 197.292 742.482 Q199.63 742.112 201.69 742.112 Q207.014 742.112 210.116 744.543 Q213.218 746.95 213.218 751.07 Q213.218 753.941 211.574 755.931 Q209.931 757.899 206.899 758.663 Z" fill="#000000" fill-rule="nonzero" fill-opacity="1" /><path clip-path="url(#clip160)" d="M126.205 537.202 Q122.593 537.202 120.765 540.767 Q118.959 544.308 118.959 551.438 Q118.959 558.544 120.765 562.109 Q122.593 565.651 126.205 565.651 Q129.839 565.651 131.644 562.109 Q133.473 558.544 133.473 551.438 Q133.473 544.308 131.644 540.767 Q129.839 537.202 126.205 537.202 M126.205 533.498 Q132.015 533.498 135.07 538.105 Q138.149 542.688 138.149 551.438 Q138.149 560.165 135.07 564.771 Q132.015 569.355 126.205 569.355 Q120.394 569.355 117.316 564.771 Q114.26 560.165 114.26 551.438 Q114.26 542.688 117.316 538.105 Q120.394 533.498 126.205 533.498 Z" fill="#000000" fill-rule="nonzero" fill-opacity="1" /><path clip-path="url(#clip160)" d="M146.366 562.804 L151.251 562.804 L151.251 568.683 L146.366 568.683 L146.366 562.804 Z" fill="#000000" fill-rule="nonzero" fill-opacity="1" /><path clip-path="url(#clip160)" d="M171.436 537.202 Q167.825 537.202 165.996 540.767 Q164.19 544.308 164.19 551.438 Q164.19 558.544 165.996 562.109 Q167.825 565.651 171.436 565.651 Q175.07 565.651 176.876 562.109 Q178.704 558.544 178.704 551.438 Q178.704 544.308 176.876 540.767 Q175.07 537.202 171.436 537.202 M171.436 533.498 Q177.246 533.498 180.301 538.105 Q183.38 542.688 183.38 551.438 Q183.38 560.165 180.301 564.771 Q177.246 569.355 171.436 569.355 Q165.626 569.355 162.547 564.771 Q159.491 560.165 159.491 551.438 Q159.491 542.688 162.547 538.105 Q165.626 533.498 171.436 533.498 Z" fill="#000000" fill-rule="nonzero" fill-opacity="1" /><path clip-path="url(#clip160)" d="M204.445 538.197 L192.639 556.646 L204.445 556.646 L204.445 538.197 M203.218 534.123 L209.098 534.123 L209.098 556.646 L214.028 556.646 L214.028 560.535 L209.098 560.535 L209.098 568.683 L204.445 568.683 L204.445 560.535 L188.843 560.535 L188.843 556.021 L203.218 534.123 Z" fill="#000000" fill-rule="nonzero" fill-opacity="1" /><path clip-path="url(#clip160)" d="M127.686 328.588 Q124.075 328.588 122.246 332.153 Q120.441 335.695 120.441 342.824 Q120.441 349.931 122.246 353.496 Q124.075 357.037 127.686 357.037 Q131.32 357.037 133.126 353.496 Q134.954 349.931 134.954 342.824 Q134.954 335.695 133.126 332.153 Q131.32 328.588 127.686 328.588 M127.686 324.885 Q133.496 324.885 136.552 329.491 Q139.63 334.074 139.63 342.824 Q139.63 351.551 136.552 356.158 Q133.496 360.741 127.686 360.741 Q121.876 360.741 118.797 356.158 Q115.742 351.551 115.742 342.824 Q115.742 334.074 118.797 329.491 Q121.876 324.885 127.686 324.885 Z" fill="#000000" fill-rule="nonzero" fill-opacity="1" /><path clip-path="url(#clip160)" d="M147.848 354.19 L152.732 354.19 L152.732 360.07 L147.848 360.07 L147.848 354.19 Z" fill="#000000" fill-rule="nonzero" fill-opacity="1" /><path clip-path="url(#clip160)" d="M172.917 328.588 Q169.306 328.588 167.477 332.153 Q165.672 335.695 165.672 342.824 Q165.672 349.931 167.477 353.496 Q169.306 357.037 172.917 357.037 Q176.551 357.037 178.357 353.496 Q180.186 349.931 180.186 342.824 Q180.186 335.695 178.357 332.153 Q176.551 328.588 172.917 328.588 M172.917 324.885 Q178.727 324.885 181.783 329.491 Q184.862 334.074 184.862 342.824 Q184.862 351.551 181.783 356.158 Q178.727 360.741 172.917 360.741 Q167.107 360.741 164.028 356.158 Q160.973 351.551 160.973 342.824 Q160.973 334.074 164.028 329.491 Q167.107 324.885 172.917 324.885 Z" fill="#000000" fill-rule="nonzero" fill-opacity="1" /><path clip-path="url(#clip160)" d="M193.125 325.51 L211.482 325.51 L211.482 329.445 L197.408 329.445 L197.408 337.917 Q198.426 337.57 199.445 337.408 Q200.463 337.222 201.482 337.222 Q207.269 337.222 210.649 340.394 Q214.028 343.565 214.028 348.982 Q214.028 354.56 210.556 357.662 Q207.084 360.741 200.764 360.741 Q198.588 360.741 196.32 360.371 Q194.075 360 191.667 359.259 L191.667 354.56 Q193.75 355.695 195.973 356.25 Q198.195 356.806 200.672 356.806 Q204.676 356.806 207.014 354.699 Q209.352 352.593 209.352 348.982 Q209.352 345.371 207.014 343.264 Q204.676 341.158 200.672 341.158 Q198.797 341.158 196.922 341.574 Q195.07 341.991 193.125 342.871 L193.125 325.51 Z" fill="#000000" fill-rule="nonzero" fill-opacity="1" /><path clip-path="url(#clip160)" d="M126.529 119.975 Q122.918 119.975 121.089 123.539 Q119.283 127.081 119.283 134.211 Q119.283 141.317 121.089 144.882 Q122.918 148.423 126.529 148.423 Q130.163 148.423 131.968 144.882 Q133.797 141.317 133.797 134.211 Q133.797 127.081 131.968 123.539 Q130.163 119.975 126.529 119.975 M126.529 116.271 Q132.339 116.271 135.394 120.877 Q138.473 125.461 138.473 134.211 Q138.473 142.937 135.394 147.544 Q132.339 152.127 126.529 152.127 Q120.718 152.127 117.64 147.544 Q114.584 142.937 114.584 134.211 Q114.584 125.461 117.64 120.877 Q120.718 116.271 126.529 116.271 Z" fill="#000000" fill-rule="nonzero" fill-opacity="1" /><path clip-path="url(#clip160)" d="M146.691 145.576 L151.575 145.576 L151.575 151.456 L146.691 151.456 L146.691 145.576 Z" fill="#000000" fill-rule="nonzero" fill-opacity="1" /><path clip-path="url(#clip160)" d="M171.76 119.975 Q168.149 119.975 166.32 123.539 Q164.515 127.081 164.515 134.211 Q164.515 141.317 166.32 144.882 Q168.149 148.423 171.76 148.423 Q175.394 148.423 177.2 144.882 Q179.028 141.317 179.028 134.211 Q179.028 127.081 177.2 123.539 Q175.394 119.975 171.76 119.975 M171.76 116.271 Q177.57 116.271 180.626 120.877 Q183.704 125.461 183.704 134.211 Q183.704 142.937 180.626 147.544 Q177.57 152.127 171.76 152.127 Q165.95 152.127 162.871 147.544 Q159.815 142.937 159.815 134.211 Q159.815 125.461 162.871 120.877 Q165.95 116.271 171.76 116.271 Z" fill="#000000" fill-rule="nonzero" fill-opacity="1" /><path clip-path="url(#clip160)" d="M202.5 132.312 Q199.352 132.312 197.5 134.465 Q195.672 136.618 195.672 140.368 Q195.672 144.095 197.5 146.271 Q199.352 148.423 202.5 148.423 Q205.649 148.423 207.477 146.271 Q209.329 144.095 209.329 140.368 Q209.329 136.618 207.477 134.465 Q205.649 132.312 202.5 132.312 M211.783 117.66 L211.783 121.919 Q210.024 121.086 208.218 120.646 Q206.436 120.206 204.676 120.206 Q200.047 120.206 197.593 123.331 Q195.163 126.456 194.815 132.775 Q196.181 130.762 198.241 129.697 Q200.301 128.609 202.778 128.609 Q207.987 128.609 210.996 131.78 Q214.028 134.928 214.028 140.368 Q214.028 145.692 210.88 148.91 Q207.732 152.127 202.5 152.127 Q196.505 152.127 193.334 147.544 Q190.163 142.937 190.163 134.211 Q190.163 126.016 194.051 121.155 Q197.94 116.271 204.491 116.271 Q206.25 116.271 208.033 116.618 Q209.838 116.965 211.783 117.66 Z" fill="#000000" fill-rule="nonzero" fill-opacity="1" /><path clip-path="url(#clip160)" d="M34.7219 748.293 Q31.4754 746.352 28.6108 741.546 Q27.4968 739.668 27.4968 733.875 Q27.4968 727.382 32.6531 723.34 Q37.8093 719.266 46.212 719.266 Q54.6147 719.266 59.771 723.34 Q64.9272 727.382 64.9272 733.875 Q64.9272 737.79 63.3994 740.623 Q61.8398 743.424 58.657 745.27 L77.5631 745.27 L77.5631 751.158 L46.5303 751.158 Q39.1779 751.158 34.7219 748.293 M46.212 725.345 Q39.7508 725.345 36.0905 728.019 Q32.3984 730.66 32.3984 735.307 Q32.3984 739.954 36.0905 742.628 Q39.7508 745.27 46.212 745.27 Q52.6732 745.27 56.3653 742.628 Q60.0256 739.954 60.0256 735.307 Q60.0256 730.66 56.3653 728.019 Q52.6732 725.345 46.212 725.345 Z" fill="#000000" fill-rule="nonzero" fill-opacity="1" /><polyline clip-path="url(#clip162)" style="stroke:#009af9; stroke-linecap:round; stroke-linejoin:round; stroke-width:4; stroke-opacity:1; fill:none" points="309.539,1384.24 373.53,1362.85 437.52,1247.17 501.511,972.062 565.501,590.475 629.492,255.387 693.482,86.1857 757.473,90.3885 821.463,199.812 885.454,343.157 949.444,481.121 1013.43,600.997 1077.43,700.099 1141.42,776.758 1205.41,829.803 1269.4,860.088 1333.39,869.8 1397.38,860.088 1461.37,829.803 1525.36,776.758 1589.35,700.099 1653.34,600.997 1717.33,481.121 1781.32,343.157 1845.31,199.812 1909.3,90.3885 1973.29,86.1857 2037.28,255.387 2101.27,590.475 2165.26,972.062 2229.25,1247.17 2293.24,1362.85 "/>
<circle clip-path="url(#clip162)" cx="309.539" cy="1384.24" r="7.2" fill="#009af9" fill-rule="evenodd" fill-opacity="1" stroke="#000000" stroke-opacity="1" stroke-width="3.2"/>
<circle clip-path="url(#clip162)" cx="373.53" cy="1362.85" r="7.2" fill="#009af9" fill-rule="evenodd" fill-opacity="1" stroke="#000000" stroke-opacity="1" stroke-width="3.2"/>
<circle clip-path="url(#clip162)" cx="437.52" cy="1247.17" r="7.2" fill="#009af9" fill-rule="evenodd" fill-opacity="1" stroke="#000000" stroke-opacity="1" stroke-width="3.2"/>
<circle clip-path="url(#clip162)" cx="501.511" cy="972.062" r="7.2" fill="#009af9" fill-rule="evenodd" fill-opacity="1" stroke="#000000" stroke-opacity="1" stroke-width="3.2"/>
<circle clip-path="url(#clip162)" cx="565.501" cy="590.475" r="7.2" fill="#009af9" fill-rule="evenodd" fill-opacity="1" stroke="#000000" stroke-opacity="1" stroke-width="3.2"/>
<circle clip-path="url(#clip162)" cx="629.492" cy="255.387" r="7.2" fill="#009af9" fill-rule="evenodd" fill-opacity="1" stroke="#000000" stroke-opacity="1" stroke-width="3.2"/>
<circle clip-path="url(#clip162)" cx="693.482" cy="86.1857" r="7.2" fill="#009af9" fill-rule="evenodd" fill-opacity="1" stroke="#000000" stroke-opacity="1" stroke-width="3.2"/>
<circle clip-path="url(#clip162)" cx="757.473" cy="90.3885" r="7.2" fill="#009af9" fill-rule="evenodd" fill-opacity="1" stroke="#000000" stroke-opacity="1" stroke-width="3.2"/>
<circle clip-path="url(#clip162)" cx="821.463" cy="199.812" r="7.2" fill="#009af9" fill-rule="evenodd" fill-opacity="1" stroke="#000000" stroke-opacity="1" stroke-width="3.2"/>
<circle clip-path="url(#clip162)" cx="885.454" cy="343.157" r="7.2" fill="#009af9" fill-rule="evenodd" fill-opacity="1" stroke="#000000" stroke-opacity="1" stroke-width="3.2"/>
<circle clip-path="url(#clip162)" cx="949.444" cy="481.121" r="7.2" fill="#009af9" fill-rule="evenodd" fill-opacity="1" stroke="#000000" stroke-opacity="1" stroke-width="3.2"/>
<circle clip-path="url(#clip162)" cx="1013.43" cy="600.997" r="7.2" fill="#009af9" fill-rule="evenodd" fill-opacity="1" stroke="#000000" stroke-opacity="1" stroke-width="3.2"/>
<circle clip-path="url(#clip162)" cx="1077.43" cy="700.099" r="7.2" fill="#009af9" fill-rule="evenodd" fill-opacity="1" stroke="#000000" stroke-opacity="1" stroke-width="3.2"/>
<circle clip-path="url(#clip162)" cx="1141.42" cy="776.758" r="7.2" fill="#009af9" fill-rule="evenodd" fill-opacity="1" stroke="#000000" stroke-opacity="1" stroke-width="3.2"/>
<circle clip-path="url(#clip162)" cx="1205.41" cy="829.803" r="7.2" fill="#009af9" fill-rule="evenodd" fill-opacity="1" stroke="#000000" stroke-opacity="1" stroke-width="3.2"/>
<circle clip-path="url(#clip162)" cx="1269.4" cy="860.088" r="7.2" fill="#009af9" fill-rule="evenodd" fill-opacity="1" stroke="#000000" stroke-opacity="1" stroke-width="3.2"/>
<circle clip-path="url(#clip162)" cx="1333.39" cy="869.8" r="7.2" fill="#009af9" fill-rule="evenodd" fill-opacity="1" stroke="#000000" stroke-opacity="1" stroke-width="3.2"/>
<circle clip-path="url(#clip162)" cx="1397.38" cy="860.088" r="7.2" fill="#009af9" fill-rule="evenodd" fill-opacity="1" stroke="#000000" stroke-opacity="1" stroke-width="3.2"/>
<circle clip-path="url(#clip162)" cx="1461.37" cy="829.803" r="7.2" fill="#009af9" fill-rule="evenodd" fill-opacity="1" stroke="#000000" stroke-opacity="1" stroke-width="3.2"/>
<circle clip-path="url(#clip162)" cx="1525.36" cy="776.758" r="7.2" fill="#009af9" fill-rule="evenodd" fill-opacity="1" stroke="#000000" stroke-opacity="1" stroke-width="3.2"/>
<circle clip-path="url(#clip162)" cx="1589.35" cy="700.099" r="7.2" fill="#009af9" fill-rule="evenodd" fill-opacity="1" stroke="#000000" stroke-opacity="1" stroke-width="3.2"/>
<circle clip-path="url(#clip162)" cx="1653.34" cy="600.997" r="7.2" fill="#009af9" fill-rule="evenodd" fill-opacity="1" stroke="#000000" stroke-opacity="1" stroke-width="3.2"/>
<circle clip-path="url(#clip162)" cx="1717.33" cy="481.121" r="7.2" fill="#009af9" fill-rule="evenodd" fill-opacity="1" stroke="#000000" stroke-opacity="1" stroke-width="3.2"/>
<circle clip-path="url(#clip162)" cx="1781.32" cy="343.157" r="7.2" fill="#009af9" fill-rule="evenodd" fill-opacity="1" stroke="#000000" stroke-opacity="1" stroke-width="3.2"/>
<circle clip-path="url(#clip162)" cx="1845.31" cy="199.812" r="7.2" fill="#009af9" fill-rule="evenodd" fill-opacity="1" stroke="#000000" stroke-opacity="1" stroke-width="3.2"/>
<circle clip-path="url(#clip162)" cx="1909.3" cy="90.3885" r="7.2" fill="#009af9" fill-rule="evenodd" fill-opacity="1" stroke="#000000" stroke-opacity="1" stroke-width="3.2"/>
<circle clip-path="url(#clip162)" cx="1973.29" cy="86.1857" r="7.2" fill="#009af9" fill-rule="evenodd" fill-opacity="1" stroke="#000000" stroke-opacity="1" stroke-width="3.2"/>
<circle clip-path="url(#clip162)" cx="2037.28" cy="255.387" r="7.2" fill="#009af9" fill-rule="evenodd" fill-opacity="1" stroke="#000000" stroke-opacity="1" stroke-width="3.2"/>
<circle clip-path="url(#clip162)" cx="2101.27" cy="590.475" r="7.2" fill="#009af9" fill-rule="evenodd" fill-opacity="1" stroke="#000000" stroke-opacity="1" stroke-width="3.2"/>
<circle clip-path="url(#clip162)" cx="2165.26" cy="972.062" r="7.2" fill="#009af9" fill-rule="evenodd" fill-opacity="1" stroke="#000000" stroke-opacity="1" stroke-width="3.2"/>
<circle clip-path="url(#clip162)" cx="2229.25" cy="1247.17" r="7.2" fill="#009af9" fill-rule="evenodd" fill-opacity="1" stroke="#000000" stroke-opacity="1" stroke-width="3.2"/>
<circle clip-path="url(#clip162)" cx="2293.24" cy="1362.85" r="7.2" fill="#009af9" fill-rule="evenodd" fill-opacity="1" stroke="#000000" stroke-opacity="1" stroke-width="3.2"/>
</svg>
