<?xml version="1.0" encoding="utf-8"?>
<svg xmlns="http://www.w3.org/2000/svg" xmlns:xlink="http://www.w3.org/1999/xlink" width="600" height="400" viewBox="0 0 2400 1600">
<defs>
  <clipPath id="clip750">
    <rect x="0" y="0" width="2400" height="1600"/>
  </clipPath>
</defs>
<path clip-path="url(#clip750)" d="M0 1600 L2400 1600 L2400 0 L0 0  Z" fill="#ffffff" fill-rule="evenodd" fill-opacity="1"/>
<defs>
  <clipPath id="clip751">
    <rect x="480" y="0" width="1681" height="1600"/>
  </clipPath>
</defs>
<path clip-path="url(#clip750)" d="M189.496 1486.45 L2352.76 1486.45 L2352.76 47.2441 L189.496 47.2441  Z" fill="#ffffff" fill-rule="evenodd" fill-opacity="1"/>
<defs>
  <clipPath id="clip752">
    <rect x="189" y="47" width="2164" height="1440"/>
  </clipPath>
</defs>
<polyline clip-path="url(#clip752)" style="stroke:#000000; stroke-linecap:round; stroke-linejoin:round; stroke-width:2; stroke-opacity:0.1; fill:none" points="477.477,1486.45 477.477,47.2441 "/>
<polyline clip-path="url(#clip752)" style="stroke:#000000; stroke-linecap:round; stroke-linejoin:round; stroke-width:2; stroke-opacity:0.1; fill:none" points="930.991,1486.45 930.991,47.2441 "/>
<polyline clip-path="url(#clip752)" style="stroke:#000000; stroke-linecap:round; stroke-linejoin:round; stroke-width:2; stroke-opacity:0.1; fill:none" points="1384.5,1486.45 1384.5,47.2441 "/>
<polyline clip-path="url(#clip752)" style="stroke:#000000; stroke-linecap:round; stroke-linejoin:round; stroke-width:2; stroke-opacity:0.1; fill:none" points="1838.02,1486.45 1838.02,47.2441 "/>
<polyline clip-path="url(#clip752)" style="stroke:#000000; stroke-linecap:round; stroke-linejoin:round; stroke-width:2; stroke-opacity:0.1; fill:none" points="2291.53,1486.45 2291.53,47.2441 "/>
<polyline clip-path="url(#clip750)" style="stroke:#000000; stroke-linecap:round; stroke-linejoin:round; stroke-width:4; stroke-opacity:1; fill:none" points="189.496,1486.45 2352.76,1486.45 "/>
<polyline clip-path="url(#clip750)" style="stroke:#000000; stroke-linecap:round; stroke-linejoin:round; stroke-width:4; stroke-opacity:1; fill:none" points="477.477,1486.45 477.477,1467.55 "/>
<polyline clip-path="url(#clip750)" style="stroke:#000000; stroke-linecap:round; stroke-linejoin:round; stroke-width:4; stroke-opacity:1; fill:none" points="930.991,1486.45 930.991,1467.55 "/>
<polyline clip-path="url(#clip750)" style="stroke:#000000; stroke-linecap:round; stroke-linejoin:round; stroke-width:4; stroke-opacity:1; fill:none" points="1384.5,1486.45 1384.5,1467.55 "/>
<polyline clip-path="url(#clip750)" style="stroke:#000000; stroke-linecap:round; stroke-linejoin:round; stroke-width:4; stroke-opacity:1; fill:none" points="1838.02,1486.45 1838.02,1467.55 "/>
<polyline clip-path="url(#clip750)" style="stroke:#000000; stroke-linecap:round; stroke-linejoin:round; stroke-width:4; stroke-opacity:1; fill:none" points="2291.53,1486.45 2291.53,1467.55 "/>
<path clip-path="url(#clip750)" d="M456.25 1544.91 L472.57 1544.91 L472.57 1548.85 L450.625 1548.85 L450.625 1544.91 Q453.287 1542.16 457.871 1537.53 Q462.477 1532.88 463.658 1531.53 Q465.903 1529.01 466.783 1527.27 Q467.685 1525.51 467.685 1523.82 Q467.685 1521.07 465.741 1519.33 Q463.82 1517.6 460.718 1517.6 Q458.519 1517.6 456.065 1518.36 Q453.635 1519.13 450.857 1520.68 L450.857 1515.95 Q453.681 1514.82 456.135 1514.24 Q458.588 1513.66 460.625 1513.66 Q465.996 1513.66 469.19 1516.35 Q472.385 1519.03 472.385 1523.52 Q472.385 1525.65 471.574 1527.57 Q470.787 1529.47 468.681 1532.07 Q468.102 1532.74 465 1535.95 Q461.898 1539.15 456.25 1544.91 Z" fill="#000000" fill-rule="nonzero" fill-opacity="1" /><path clip-path="url(#clip750)" d="M492.384 1517.37 Q488.773 1517.37 486.945 1520.93 Q485.139 1524.47 485.139 1531.6 Q485.139 1538.71 486.945 1542.27 Q488.773 1545.82 492.384 1545.82 Q496.019 1545.82 497.824 1542.27 Q499.653 1538.71 499.653 1531.6 Q499.653 1524.47 497.824 1520.93 Q496.019 1517.37 492.384 1517.37 M492.384 1513.66 Q498.195 1513.66 501.25 1518.27 Q504.329 1522.85 504.329 1531.6 Q504.329 1540.33 501.25 1544.94 Q498.195 1549.52 492.384 1549.52 Q486.574 1549.52 483.496 1544.94 Q480.44 1540.33 480.44 1531.6 Q480.44 1522.85 483.496 1518.27 Q486.574 1513.66 492.384 1513.66 Z" fill="#000000" fill-rule="nonzero" fill-opacity="1" /><path clip-path="url(#clip750)" d="M919.162 1518.36 L907.357 1536.81 L919.162 1536.81 L919.162 1518.36 M917.935 1514.29 L923.815 1514.29 L923.815 1536.81 L928.745 1536.81 L928.745 1540.7 L923.815 1540.7 L923.815 1548.85 L919.162 1548.85 L919.162 1540.7 L903.56 1540.7 L903.56 1536.19 L917.935 1514.29 Z" fill="#000000" fill-rule="nonzero" fill-opacity="1" /><path clip-path="url(#clip750)" d="M946.477 1517.37 Q942.866 1517.37 941.037 1520.93 Q939.231 1524.47 939.231 1531.6 Q939.231 1538.71 941.037 1542.27 Q942.866 1545.82 946.477 1545.82 Q950.111 1545.82 951.917 1542.27 Q953.745 1538.71 953.745 1531.6 Q953.745 1524.47 951.917 1520.93 Q950.111 1517.37 946.477 1517.37 M946.477 1513.66 Q952.287 1513.66 955.342 1518.27 Q958.421 1522.85 958.421 1531.6 Q958.421 1540.33 955.342 1544.94 Q952.287 1549.52 946.477 1549.52 Q940.667 1549.52 937.588 1544.94 Q934.532 1540.33 934.532 1531.6 Q934.532 1522.85 937.588 1518.27 Q940.667 1513.66 946.477 1513.66 Z" fill="#000000" fill-rule="nonzero" fill-opacity="1" /><path clip-path="url(#clip750)" d="M1369.91 1529.7 Q1366.76 1529.7 1364.91 1531.86 Q1363.08 1534.01 1363.08 1537.76 Q1363.08 1541.49 1364.91 1543.66 Q1366.76 1545.82 1369.91 1545.82 Q1373.06 1545.82 1374.89 1543.66 Q1376.74 1541.49 1376.74 1537.76 Q1376.74 1534.01 1374.89 1531.86 Q1373.06 1529.7 1369.91 1529.7 M1379.19 1515.05 L1379.19 1519.31 Q1377.43 1518.48 1375.63 1518.04 Q1373.84 1517.6 1372.09 1517.6 Q1367.46 1517.6 1365 1520.72 Q1362.57 1523.85 1362.22 1530.17 Q1363.59 1528.15 1365.65 1527.09 Q1367.71 1526 1370.19 1526 Q1375.4 1526 1378.4 1529.17 Q1381.44 1532.32 1381.44 1537.76 Q1381.44 1543.08 1378.29 1546.3 Q1375.14 1549.52 1369.91 1549.52 Q1363.91 1549.52 1360.74 1544.94 Q1357.57 1540.33 1357.57 1531.6 Q1357.57 1523.41 1361.46 1518.55 Q1365.35 1513.66 1371.9 1513.66 Q1373.66 1513.66 1375.44 1514.01 Q1377.25 1514.36 1379.19 1515.05 Z" fill="#000000" fill-rule="nonzero" fill-opacity="1" /><path clip-path="url(#clip750)" d="M1399.49 1517.37 Q1395.88 1517.37 1394.05 1520.93 Q1392.25 1524.47 1392.25 1531.6 Q1392.25 1538.71 1394.05 1542.27 Q1395.88 1545.82 1399.49 1545.82 Q1403.13 1545.82 1404.93 1542.27 Q1406.76 1538.71 1406.76 1531.6 Q1406.76 1524.47 1404.93 1520.93 Q1403.13 1517.37 1399.49 1517.37 M1399.49 1513.66 Q1405.3 1513.66 1408.36 1518.27 Q1411.44 1522.85 1411.44 1531.6 Q1411.44 1540.33 1408.36 1544.94 Q1405.3 1549.52 1399.49 1549.52 Q1393.68 1549.52 1390.6 1544.94 Q1387.55 1540.33 1387.55 1531.6 Q1387.55 1522.85 1390.6 1518.27 Q1393.68 1513.66 1399.49 1513.66 Z" fill="#000000" fill-rule="nonzero" fill-opacity="1" /><path clip-path="url(#clip750)" d="M1822.89 1532.44 Q1819.56 1532.44 1817.64 1534.22 Q1815.74 1536 1815.74 1539.13 Q1815.74 1542.25 1817.64 1544.03 Q1819.56 1545.82 1822.89 1545.82 Q1826.22 1545.82 1828.15 1544.03 Q1830.07 1542.23 1830.07 1539.13 Q1830.07 1536 1828.15 1534.22 Q1826.25 1532.44 1822.89 1532.44 M1818.21 1530.45 Q1815.21 1529.7 1813.52 1527.64 Q1811.85 1525.58 1811.85 1522.62 Q1811.85 1518.48 1814.79 1516.07 Q1817.75 1513.66 1822.89 1513.66 Q1828.05 1513.66 1830.99 1516.07 Q1833.93 1518.48 1833.93 1522.62 Q1833.93 1525.58 1832.24 1527.64 Q1830.58 1529.7 1827.59 1530.45 Q1830.97 1531.23 1832.84 1533.52 Q1834.74 1535.82 1834.74 1539.13 Q1834.74 1544.15 1831.66 1546.83 Q1828.61 1549.52 1822.89 1549.52 Q1817.17 1549.52 1814.09 1546.83 Q1811.04 1544.15 1811.04 1539.13 Q1811.04 1535.82 1812.94 1533.52 Q1814.84 1531.23 1818.21 1530.45 M1816.5 1523.06 Q1816.5 1525.75 1818.17 1527.25 Q1819.86 1528.76 1822.89 1528.76 Q1825.9 1528.76 1827.59 1527.25 Q1829.3 1525.75 1829.3 1523.06 Q1829.3 1520.38 1827.59 1518.87 Q1825.9 1517.37 1822.89 1517.37 Q1819.86 1517.37 1818.17 1518.87 Q1816.5 1520.38 1816.5 1523.06 Z" fill="#000000" fill-rule="nonzero" fill-opacity="1" /><path clip-path="url(#clip750)" d="M1853.05 1517.37 Q1849.44 1517.37 1847.61 1520.93 Q1845.81 1524.47 1845.81 1531.6 Q1845.81 1538.71 1847.61 1542.27 Q1849.44 1545.82 1853.05 1545.82 Q1856.69 1545.82 1858.49 1542.27 Q1860.32 1538.71 1860.32 1531.6 Q1860.32 1524.47 1858.49 1520.93 Q1856.69 1517.37 1853.05 1517.37 M1853.05 1513.66 Q1858.86 1513.66 1861.92 1518.27 Q1865 1522.85 1865 1531.6 Q1865 1540.33 1861.92 1544.94 Q1858.86 1549.52 1853.05 1549.52 Q1847.24 1549.52 1844.16 1544.94 Q1841.11 1540.33 1841.11 1531.6 Q1841.11 1522.85 1844.16 1518.27 Q1847.24 1513.66 1853.05 1513.66 Z" fill="#000000" fill-rule="nonzero" fill-opacity="1" /><path clip-path="url(#clip750)" d="M2251.14 1544.91 L2258.78 1544.91 L2258.78 1518.55 L2250.47 1520.21 L2250.47 1515.95 L2258.73 1514.29 L2263.41 1514.29 L2263.41 1544.91 L2271.05 1544.91 L2271.05 1548.85 L2251.14 1548.85 L2251.14 1544.91 Z" fill="#000000" fill-rule="nonzero" fill-opacity="1" /><path clip-path="url(#clip750)" d="M2290.49 1517.37 Q2286.88 1517.37 2285.05 1520.93 Q2283.24 1524.47 2283.24 1531.6 Q2283.24 1538.71 2285.05 1542.27 Q2286.88 1545.82 2290.49 1545.82 Q2294.12 1545.82 2295.93 1542.27 Q2297.76 1538.71 2297.76 1531.6 Q2297.76 1524.47 2295.93 1520.93 Q2294.12 1517.37 2290.49 1517.37 M2290.49 1513.66 Q2296.3 1513.66 2299.36 1518.27 Q2302.43 1522.85 2302.43 1531.6 Q2302.43 1540.33 2299.36 1544.94 Q2296.3 1549.52 2290.49 1549.52 Q2284.68 1549.52 2281.6 1544.94 Q2278.55 1540.33 2278.55 1531.6 Q2278.55 1522.85 2281.6 1518.27 Q2284.68 1513.66 2290.49 1513.66 Z" fill="#000000" fill-rule="nonzero" fill-opacity="1" /><path clip-path="url(#clip750)" d="M2320.65 1517.37 Q2317.04 1517.37 2315.21 1520.93 Q2313.41 1524.47 2313.41 1531.6 Q2313.41 1538.71 2315.21 1542.27 Q2317.04 1545.82 2320.65 1545.82 Q2324.29 1545.82 2326.09 1542.27 Q2327.92 1538.71 2327.92 1531.6 Q2327.92 1524.47 2326.09 1520.93 Q2324.29 1517.37 2320.65 1517.37 M2320.65 1513.66 Q2326.46 1513.66 2329.52 1518.27 Q2332.6 1522.85 2332.6 1531.6 Q2332.6 1540.33 2329.52 1544.94 Q2326.46 1549.52 2320.65 1549.52 Q2314.84 1549.52 2311.76 1544.94 Q2308.71 1540.33 2308.71 1531.6 Q2308.71 1522.85 2311.76 1518.27 Q2314.84 1513.66 2320.65 1513.66 Z" fill="#000000" fill-rule="nonzero" fill-opacity="1" /><polyline clip-path="url(#clip752)" style="stroke:#000000; stroke-linecap:round; stroke-linejoin:round; stroke-width:2; stroke-opacity:0.1; fill:none" points="189.496,1364.18 2352.76,1364.18 "/>
<polyline clip-path="url(#clip752)" style="stroke:#000000; stroke-linecap:round; stroke-linejoin:round; stroke-width:2; stroke-opacity:0.1; fill:none" points="189.496,728.798 2352.76,728.798 "/>
<polyline clip-path="url(#clip752)" style="stroke:#000000; stroke-linecap:round; stroke-linejoin:round; stroke-width:2; stroke-opacity:0.1; fill:none" points="189.496,93.4142 2352.76,93.4142 "/>
<polyline clip-path="url(#clip750)" style="stroke:#000000; stroke-linecap:round; stroke-linejoin:round; stroke-width:4; stroke-opacity:1; fill:none" points="189.496,1486.45 189.496,47.2441 "/>
<polyline clip-path="url(#clip750)" style="stroke:#000000; stroke-linecap:round; stroke-linejoin:round; stroke-width:4; stroke-opacity:1; fill:none" points="189.496,1364.18 208.394,1364.18 "/>
<polyline clip-path="url(#clip750)" style="stroke:#000000; stroke-linecap:round; stroke-linejoin:round; stroke-width:4; stroke-opacity:1; fill:none" points="189.496,728.798 208.394,728.798 "/>
<polyline clip-path="url(#clip750)" style="stroke:#000000; stroke-linecap:round; stroke-linejoin:round; stroke-width:4; stroke-opacity:1; fill:none" points="189.496,93.4142 208.394,93.4142 "/>
<path clip-path="url(#clip750)" d="M51.6634 1383.98 L59.3023 1383.98 L59.3023 1357.61 L50.9921 1359.28 L50.9921 1355.02 L59.256 1353.35 L63.9319 1353.35 L63.9319 1383.98 L71.5707 1383.98 L71.5707 1387.91 L51.6634 1387.91 L51.6634 1383.98 Z" fill="#000000" fill-rule="nonzero" fill-opacity="1" /><path clip-path="url(#clip750)" d="M91.0151 1356.43 Q87.404 1356.43 85.5753 1359.99 Q83.7697 1363.54 83.7697 1370.66 Q83.7697 1377.77 85.5753 1381.34 Q87.404 1384.88 91.0151 1384.88 Q94.6493 1384.88 96.4548 1381.34 Q98.2835 1377.77 98.2835 1370.66 Q98.2835 1363.54 96.4548 1359.99 Q94.6493 1356.43 91.0151 1356.43 M91.0151 1352.73 Q96.8252 1352.73 99.8808 1357.33 Q102.959 1361.92 102.959 1370.66 Q102.959 1379.39 99.8808 1384 Q96.8252 1388.58 91.0151 1388.58 Q85.2049 1388.58 82.1262 1384 Q79.0707 1379.39 79.0707 1370.66 Q79.0707 1361.92 82.1262 1357.33 Q85.2049 1352.73 91.0151 1352.73 Z" fill="#000000" fill-rule="nonzero" fill-opacity="1" /><path clip-path="url(#clip750)" d="M102.959 1346.83 L127.071 1346.83 L127.071 1350.02 L102.959 1350.02 L102.959 1346.83 Z" fill="#000000" fill-rule="nonzero" fill-opacity="1" /><path clip-path="url(#clip750)" d="M145.71 1335.73 L136.118 1350.72 L145.71 1350.72 L145.71 1335.73 M144.713 1332.42 L149.49 1332.42 L149.49 1350.72 L153.496 1350.72 L153.496 1353.88 L149.49 1353.88 L149.49 1360.5 L145.71 1360.5 L145.71 1353.88 L133.033 1353.88 L133.033 1350.21 L144.713 1332.42 Z" fill="#000000" fill-rule="nonzero" fill-opacity="1" /><path clip-path="url(#clip750)" d="M52.585 748.591 L60.2238 748.591 L60.2238 722.225 L51.9137 723.892 L51.9137 719.633 L60.1776 717.966 L64.8535 717.966 L64.8535 748.591 L72.4923 748.591 L72.4923 752.526 L52.585 752.526 L52.585 748.591 Z" fill="#000000" fill-rule="nonzero" fill-opacity="1" /><path clip-path="url(#clip750)" d="M91.9366 721.045 Q88.3255 721.045 86.4969 724.61 Q84.6913 728.151 84.6913 735.281 Q84.6913 742.387 86.4969 745.952 Q88.3255 749.494 91.9366 749.494 Q95.5709 749.494 97.3764 745.952 Q99.2051 742.387 99.2051 735.281 Q99.2051 728.151 97.3764 724.61 Q95.5709 721.045 91.9366 721.045 M91.9366 717.341 Q97.7468 717.341 100.802 721.947 Q103.881 726.531 103.881 735.281 Q103.881 744.008 100.802 748.614 Q97.7468 753.197 91.9366 753.197 Q86.1265 753.197 83.0478 748.614 Q79.9923 744.008 79.9923 735.281 Q79.9923 726.531 83.0478 721.947 Q86.1265 717.341 91.9366 717.341 Z" fill="#000000" fill-rule="nonzero" fill-opacity="1" /><path clip-path="url(#clip750)" d="M103.881 711.442 L127.993 711.442 L127.993 714.64 L103.881 714.64 L103.881 711.442 Z" fill="#000000" fill-rule="nonzero" fill-opacity="1" /><path clip-path="url(#clip750)" d="M147.703 709.975 Q150.43 710.558 151.954 712.402 Q153.496 714.245 153.496 716.953 Q153.496 721.11 150.637 723.385 Q147.778 725.661 142.512 725.661 Q140.744 725.661 138.863 725.304 Q137.002 724.965 135.008 724.269 L135.008 720.602 Q136.588 721.523 138.469 721.994 Q140.349 722.464 142.399 722.464 Q145.973 722.464 147.835 721.053 Q149.716 719.643 149.716 716.953 Q149.716 714.47 147.966 713.079 Q146.236 711.668 143.133 711.668 L139.86 711.668 L139.86 708.546 L143.283 708.546 Q146.086 708.546 147.571 707.436 Q149.057 706.308 149.057 704.201 Q149.057 702.038 147.515 700.891 Q145.992 699.725 143.133 699.725 Q141.572 699.725 139.785 700.064 Q137.998 700.402 135.854 701.117 L135.854 697.732 Q138.017 697.13 139.898 696.829 Q141.797 696.528 143.471 696.528 Q147.797 696.528 150.317 698.503 Q152.838 700.459 152.838 703.806 Q152.838 706.139 151.502 707.756 Q150.167 709.355 147.703 709.975 Z" fill="#000000" fill-rule="nonzero" fill-opacity="1" /><path clip-path="url(#clip750)" d="M53.3561 113.207 L60.995 113.207 L60.995 86.8411 L52.6848 88.5077 L52.6848 84.2485 L60.9487 82.5818 L65.6246 82.5818 L65.6246 113.207 L73.2634 113.207 L73.2634 117.142 L53.3561 117.142 L53.3561 113.207 Z" fill="#000000" fill-rule="nonzero" fill-opacity="1" /><path clip-path="url(#clip750)" d="M92.7078 85.6605 Q89.0967 85.6605 87.268 89.2253 Q85.4624 92.767 85.4624 99.8965 Q85.4624 107.003 87.268 110.568 Q89.0967 114.109 92.7078 114.109 Q96.342 114.109 98.1475 110.568 Q99.9762 107.003 99.9762 99.8965 Q99.9762 92.767 98.1475 89.2253 Q96.342 85.6605 92.7078 85.6605 M92.7078 81.9568 Q98.5179 81.9568 101.573 86.5633 Q104.652 91.1466 104.652 99.8965 Q104.652 108.623 101.573 113.23 Q98.5179 117.813 92.7078 117.813 Q86.8976 117.813 83.8189 113.23 Q80.7634 108.623 80.7634 99.8965 Q80.7634 91.1466 83.8189 86.5633 Q86.8976 81.9568 92.7078 81.9568 Z" fill="#000000" fill-rule="nonzero" fill-opacity="1" /><path clip-path="url(#clip750)" d="M104.652 76.0582 L128.764 76.0582 L128.764 79.2555 L104.652 79.2555 L104.652 76.0582 Z" fill="#000000" fill-rule="nonzero" fill-opacity="1" /><path clip-path="url(#clip750)" d="M140.236 86.5341 L153.496 86.5341 L153.496 89.7314 L135.666 89.7314 L135.666 86.5341 Q137.829 84.296 141.553 80.5344 Q145.296 76.7541 146.255 75.6632 Q148.079 73.6132 148.794 72.2026 Q149.527 70.7732 149.527 69.4002 Q149.527 67.1621 147.948 65.7515 Q146.387 64.3409 143.866 64.3409 Q142.08 64.3409 140.086 64.9616 Q138.111 65.5822 135.854 66.8424 L135.854 63.0056 Q138.149 62.084 140.142 61.6138 Q142.136 61.1436 143.791 61.1436 Q148.155 61.1436 150.75 63.3253 Q153.345 65.507 153.345 69.1557 Q153.345 70.886 152.687 72.4471 Q152.048 73.9893 150.336 76.0958 Q149.866 76.6412 147.346 79.2555 Q144.826 81.851 140.236 86.5341 Z" fill="#000000" fill-rule="nonzero" fill-opacity="1" /><polyline clip-path="url(#clip752)" style="stroke:#009af9; stroke-linecap:round; stroke-linejoin:round; stroke-width:4; stroke-opacity:1; fill:none" points="250.72,87.9763 477.477,478.968 704.234,707.356 930.991,871.494 1157.75,1001.37 1384.5,1110.3 1611.26,1205.47 1838.02,1291.25 2064.77,1370.6 2291.53,1445.72 "/>
</svg>
