<?xml version="1.0" encoding="utf-8"?>
<svg xmlns="http://www.w3.org/2000/svg" xmlns:xlink="http://www.w3.org/1999/xlink" width="600" height="400" viewBox="0 0 2400 1600">
<defs>
  <clipPath id="clip690">
    <rect x="0" y="0" width="2400" height="1600"/>
  </clipPath>
</defs>
<path clip-path="url(#clip690)" d="M0 1600 L2400 1600 L2400 0 L0 0  Z" fill="#ffffff" fill-rule="evenodd" fill-opacity="1"/>
<defs>
  <clipPath id="clip691">
    <rect x="480" y="0" width="1681" height="1600"/>
  </clipPath>
</defs>
<path clip-path="url(#clip690)" d="M156.598 1486.45 L2352.76 1486.45 L2352.76 47.2441 L156.598 47.2441  Z" fill="#ffffff" fill-rule="evenodd" fill-opacity="1"/>
<defs>
  <clipPath id="clip692">
    <rect x="156" y="47" width="2197" height="1440"/>
  </clipPath>
</defs>
<polyline clip-path="url(#clip692)" style="stroke:#000000; stroke-linecap:round; stroke-linejoin:round; stroke-width:2; stroke-opacity:0.1; fill:none" points="203.292,1486.45 203.292,47.2441 "/>
<polyline clip-path="url(#clip692)" style="stroke:#000000; stroke-linecap:round; stroke-linejoin:round; stroke-width:2; stroke-opacity:0.1; fill:none" points="512.523,1486.45 512.523,47.2441 "/>
<polyline clip-path="url(#clip692)" style="stroke:#000000; stroke-linecap:round; stroke-linejoin:round; stroke-width:2; stroke-opacity:0.1; fill:none" points="821.754,1486.45 821.754,47.2441 "/>
<polyline clip-path="url(#clip692)" style="stroke:#000000; stroke-linecap:round; stroke-linejoin:round; stroke-width:2; stroke-opacity:0.1; fill:none" points="1130.98,1486.45 1130.98,47.2441 "/>
<polyline clip-path="url(#clip692)" style="stroke:#000000; stroke-linecap:round; stroke-linejoin:round; stroke-width:2; stroke-opacity:0.1; fill:none" points="1440.22,1486.45 1440.22,47.2441 "/>
<polyline clip-path="url(#clip692)" style="stroke:#000000; stroke-linecap:round; stroke-linejoin:round; stroke-width:2; stroke-opacity:0.1; fill:none" points="1749.45,1486.45 1749.45,47.2441 "/>
<polyline clip-path="url(#clip692)" style="stroke:#000000; stroke-linecap:round; stroke-linejoin:round; stroke-width:2; stroke-opacity:0.1; fill:none" points="2058.68,1486.45 2058.68,47.2441 "/>
<polyline clip-path="url(#clip690)" style="stroke:#000000; stroke-linecap:round; stroke-linejoin:round; stroke-width:4; stroke-opacity:1; fill:none" points="156.598,1486.45 2352.76,1486.45 "/>
<polyline clip-path="url(#clip690)" style="stroke:#000000; stroke-linecap:round; stroke-linejoin:round; stroke-width:4; stroke-opacity:1; fill:none" points="203.292,1486.45 203.292,1467.55 "/>
<polyline clip-path="url(#clip690)" style="stroke:#000000; stroke-linecap:round; stroke-linejoin:round; stroke-width:4; stroke-opacity:1; fill:none" points="512.523,1486.45 512.523,1467.55 "/>
<polyline clip-path="url(#clip690)" style="stroke:#000000; stroke-linecap:round; stroke-linejoin:round; stroke-width:4; stroke-opacity:1; fill:none" points="821.754,1486.45 821.754,1467.55 "/>
<polyline clip-path="url(#clip690)" style="stroke:#000000; stroke-linecap:round; stroke-linejoin:round; stroke-width:4; stroke-opacity:1; fill:none" points="1130.98,1486.45 1130.98,1467.55 "/>
<polyline clip-path="url(#clip690)" style="stroke:#000000; stroke-linecap:round; stroke-linejoin:round; stroke-width:4; stroke-opacity:1; fill:none" points="1440.22,1486.45 1440.22,1467.55 "/>
<polyline clip-path="url(#clip690)" style="stroke:#000000; stroke-linecap:round; stroke-linejoin:round; stroke-width:4; stroke-opacity:1; fill:none" points="1749.45,1486.45 1749.45,1467.55 "/>
<polyline clip-path="url(#clip690)" style="stroke:#000000; stroke-linecap:round; stroke-linejoin:round; stroke-width:4; stroke-opacity:1; fill:none" points="2058.68,1486.45 2058.68,1467.55 "/>
<path clip-path="url(#clip690)" d="M203.292 1517.37 Q199.681 1517.37 197.852 1520.93 Q196.047 1524.47 196.047 1531.6 Q196.047 1538.71 197.852 1542.27 Q199.681 1545.82 203.292 1545.82 Q206.926 1545.82 208.732 1542.27 Q210.561 1538.71 210.561 1531.6 Q210.561 1524.47 208.732 1520.93 Q206.926 1517.37 203.292 1517.37 M203.292 1513.66 Q209.102 1513.66 212.158 1518.27 Q215.236 1522.85 215.236 1531.6 Q215.236 1540.33 212.158 1544.94 Q209.102 1549.52 203.292 1549.52 Q197.482 1549.52 194.403 1544.94 Q191.348 1540.33 191.348 1531.6 Q191.348 1522.85 194.403 1518.27 Q197.482 1513.66 203.292 1513.66 Z" fill="#000000" fill-rule="nonzero" fill-opacity="1" /><path clip-path="url(#clip690)" d="M491.296 1544.91 L507.616 1544.91 L507.616 1548.85 L485.671 1548.85 L485.671 1544.91 Q488.333 1542.16 492.917 1537.53 Q497.523 1532.88 498.704 1531.53 Q500.949 1529.01 501.829 1527.27 Q502.731 1525.51 502.731 1523.82 Q502.731 1521.07 500.787 1519.33 Q498.866 1517.6 495.764 1517.6 Q493.565 1517.6 491.111 1518.36 Q488.681 1519.13 485.903 1520.68 L485.903 1515.95 Q488.727 1514.82 491.18 1514.24 Q493.634 1513.66 495.671 1513.66 Q501.042 1513.66 504.236 1516.35 Q507.43 1519.03 507.43 1523.52 Q507.43 1525.65 506.62 1527.57 Q505.833 1529.47 503.727 1532.07 Q503.148 1532.74 500.046 1535.95 Q496.944 1539.15 491.296 1544.91 Z" fill="#000000" fill-rule="nonzero" fill-opacity="1" /><path clip-path="url(#clip690)" d="M527.43 1517.37 Q523.819 1517.37 521.991 1520.93 Q520.185 1524.47 520.185 1531.6 Q520.185 1538.71 521.991 1542.27 Q523.819 1545.82 527.43 1545.82 Q531.065 1545.82 532.87 1542.27 Q534.699 1538.71 534.699 1531.6 Q534.699 1524.47 532.87 1520.93 Q531.065 1517.37 527.43 1517.37 M527.43 1513.66 Q533.24 1513.66 536.296 1518.27 Q539.375 1522.85 539.375 1531.6 Q539.375 1540.33 536.296 1544.94 Q533.24 1549.52 527.43 1549.52 Q521.62 1549.52 518.541 1544.94 Q515.486 1540.33 515.486 1531.6 Q515.486 1522.85 518.541 1518.27 Q521.62 1513.66 527.43 1513.66 Z" fill="#000000" fill-rule="nonzero" fill-opacity="1" /><path clip-path="url(#clip690)" d="M809.925 1518.36 L798.12 1536.81 L809.925 1536.81 L809.925 1518.36 M808.698 1514.29 L814.578 1514.29 L814.578 1536.81 L819.508 1536.81 L819.508 1540.7 L814.578 1540.7 L814.578 1548.85 L809.925 1548.85 L809.925 1540.7 L794.323 1540.7 L794.323 1536.19 L808.698 1514.29 Z" fill="#000000" fill-rule="nonzero" fill-opacity="1" /><path clip-path="url(#clip690)" d="M837.24 1517.37 Q833.629 1517.37 831.8 1520.93 Q829.995 1524.47 829.995 1531.6 Q829.995 1538.71 831.8 1542.27 Q833.629 1545.82 837.24 1545.82 Q840.874 1545.82 842.68 1542.27 Q844.508 1538.71 844.508 1531.6 Q844.508 1524.47 842.68 1520.93 Q840.874 1517.37 837.24 1517.37 M837.24 1513.66 Q843.05 1513.66 846.106 1518.27 Q849.184 1522.85 849.184 1531.6 Q849.184 1540.33 846.106 1544.94 Q843.05 1549.52 837.24 1549.52 Q831.43 1549.52 828.351 1544.94 Q825.295 1540.33 825.295 1531.6 Q825.295 1522.85 828.351 1518.27 Q831.43 1513.66 837.24 1513.66 Z" fill="#000000" fill-rule="nonzero" fill-opacity="1" /><path clip-path="url(#clip690)" d="M1116.39 1529.7 Q1113.24 1529.7 1111.39 1531.86 Q1109.56 1534.01 1109.56 1537.76 Q1109.56 1541.49 1111.39 1543.66 Q1113.24 1545.82 1116.39 1545.82 Q1119.54 1545.82 1121.37 1543.66 Q1123.22 1541.49 1123.22 1537.76 Q1123.22 1534.01 1121.37 1531.86 Q1119.54 1529.7 1116.39 1529.7 M1125.67 1515.05 L1125.67 1519.31 Q1123.91 1518.48 1122.11 1518.04 Q1120.33 1517.6 1118.57 1517.6 Q1113.94 1517.6 1111.48 1520.72 Q1109.05 1523.85 1108.7 1530.17 Q1110.07 1528.15 1112.13 1527.09 Q1114.19 1526 1116.67 1526 Q1121.88 1526 1124.89 1529.17 Q1127.92 1532.32 1127.92 1537.76 Q1127.92 1543.08 1124.77 1546.3 Q1121.62 1549.52 1116.39 1549.52 Q1110.39 1549.52 1107.22 1544.94 Q1104.05 1540.33 1104.05 1531.6 Q1104.05 1523.41 1107.94 1518.55 Q1111.83 1513.66 1118.38 1513.66 Q1120.14 1513.66 1121.92 1514.01 Q1123.73 1514.36 1125.67 1515.05 Z" fill="#000000" fill-rule="nonzero" fill-opacity="1" /><path clip-path="url(#clip690)" d="M1145.97 1517.37 Q1142.36 1517.37 1140.53 1520.93 Q1138.73 1524.47 1138.73 1531.6 Q1138.73 1538.71 1140.53 1542.27 Q1142.36 1545.82 1145.97 1545.82 Q1149.61 1545.82 1151.41 1542.27 Q1153.24 1538.71 1153.24 1531.6 Q1153.24 1524.47 1151.41 1520.93 Q1149.61 1517.37 1145.97 1517.37 M1145.97 1513.66 Q1151.78 1513.66 1154.84 1518.27 Q1157.92 1522.85 1157.92 1531.6 Q1157.92 1540.33 1154.84 1544.94 Q1151.78 1549.52 1145.97 1549.52 Q1140.16 1549.52 1137.08 1544.94 Q1134.03 1540.33 1134.03 1531.6 Q1134.03 1522.85 1137.08 1518.27 Q1140.16 1513.66 1145.97 1513.66 Z" fill="#000000" fill-rule="nonzero" fill-opacity="1" /><path clip-path="url(#clip690)" d="M1425.09 1532.44 Q1421.76 1532.44 1419.83 1534.22 Q1417.94 1536 1417.94 1539.13 Q1417.94 1542.25 1419.83 1544.03 Q1421.76 1545.82 1425.09 1545.82 Q1428.42 1545.82 1430.34 1544.03 Q1432.26 1542.23 1432.26 1539.13 Q1432.26 1536 1430.34 1534.22 Q1428.44 1532.44 1425.09 1532.44 M1420.41 1530.45 Q1417.4 1529.7 1415.71 1527.64 Q1414.05 1525.58 1414.05 1522.62 Q1414.05 1518.48 1416.99 1516.07 Q1419.95 1513.66 1425.09 1513.66 Q1430.25 1513.66 1433.19 1516.07 Q1436.13 1518.48 1436.13 1522.62 Q1436.13 1525.58 1434.44 1527.64 Q1432.77 1529.7 1429.79 1530.45 Q1433.17 1531.23 1435.04 1533.52 Q1436.94 1535.82 1436.94 1539.13 Q1436.94 1544.15 1433.86 1546.83 Q1430.81 1549.52 1425.09 1549.52 Q1419.37 1549.52 1416.29 1546.83 Q1413.24 1544.15 1413.24 1539.13 Q1413.24 1535.82 1415.13 1533.52 Q1417.03 1531.23 1420.41 1530.45 M1418.7 1523.06 Q1418.7 1525.75 1420.37 1527.25 Q1422.06 1528.76 1425.09 1528.76 Q1428.1 1528.76 1429.79 1527.25 Q1431.5 1525.75 1431.5 1523.06 Q1431.5 1520.38 1429.79 1518.87 Q1428.1 1517.37 1425.09 1517.37 Q1422.06 1517.37 1420.37 1518.87 Q1418.7 1520.38 1418.7 1523.06 Z" fill="#000000" fill-rule="nonzero" fill-opacity="1" /><path clip-path="url(#clip690)" d="M1455.25 1517.37 Q1451.64 1517.37 1449.81 1520.93 Q1448 1524.47 1448 1531.6 Q1448 1538.71 1449.81 1542.27 Q1451.64 1545.82 1455.25 1545.82 Q1458.88 1545.82 1460.69 1542.27 Q1462.52 1538.71 1462.52 1531.6 Q1462.52 1524.47 1460.69 1520.93 Q1458.88 1517.37 1455.25 1517.37 M1455.25 1513.66 Q1461.06 1513.66 1464.12 1518.27 Q1467.19 1522.85 1467.19 1531.6 Q1467.19 1540.33 1464.12 1544.94 Q1461.06 1549.52 1455.25 1549.52 Q1449.44 1549.52 1446.36 1544.94 Q1443.31 1540.33 1443.31 1531.6 Q1443.31 1522.85 1446.36 1518.27 Q1449.44 1513.66 1455.25 1513.66 Z" fill="#000000" fill-rule="nonzero" fill-opacity="1" /><path clip-path="url(#clip690)" d="M1709.05 1544.91 L1716.69 1544.91 L1716.69 1518.55 L1708.38 1520.21 L1708.38 1515.95 L1716.65 1514.29 L1721.32 1514.29 L1721.32 1544.91 L1728.96 1544.91 L1728.96 1548.85 L1709.05 1548.85 L1709.05 1544.91 Z" fill="#000000" fill-rule="nonzero" fill-opacity="1" /><path clip-path="url(#clip690)" d="M1748.4 1517.37 Q1744.79 1517.37 1742.97 1520.93 Q1741.16 1524.47 1741.16 1531.6 Q1741.16 1538.71 1742.97 1542.27 Q1744.79 1545.82 1748.4 1545.82 Q1752.04 1545.82 1753.84 1542.27 Q1755.67 1538.71 1755.67 1531.6 Q1755.67 1524.47 1753.84 1520.93 Q1752.04 1517.37 1748.4 1517.37 M1748.4 1513.66 Q1754.21 1513.66 1757.27 1518.27 Q1760.35 1522.85 1760.35 1531.6 Q1760.35 1540.33 1757.27 1544.94 Q1754.21 1549.52 1748.4 1549.52 Q1742.59 1549.52 1739.52 1544.94 Q1736.46 1540.33 1736.46 1531.6 Q1736.46 1522.85 1739.52 1518.27 Q1742.59 1513.66 1748.4 1513.66 Z" fill="#000000" fill-rule="nonzero" fill-opacity="1" /><path clip-path="url(#clip690)" d="M1778.57 1517.37 Q1774.96 1517.37 1773.13 1520.93 Q1771.32 1524.47 1771.32 1531.6 Q1771.32 1538.71 1773.13 1542.27 Q1774.96 1545.82 1778.57 1545.82 Q1782.2 1545.82 1784.01 1542.27 Q1785.84 1538.71 1785.84 1531.6 Q1785.84 1524.47 1784.01 1520.93 Q1782.2 1517.37 1778.57 1517.37 M1778.57 1513.66 Q1784.38 1513.66 1787.43 1518.27 Q1790.51 1522.85 1790.51 1531.6 Q1790.51 1540.33 1787.43 1544.94 Q1784.38 1549.52 1778.57 1549.52 Q1772.76 1549.52 1769.68 1544.94 Q1766.62 1540.33 1766.62 1531.6 Q1766.62 1522.85 1769.68 1518.27 Q1772.76 1513.66 1778.57 1513.66 Z" fill="#000000" fill-rule="nonzero" fill-opacity="1" /><path clip-path="url(#clip690)" d="M2018.28 1544.91 L2025.92 1544.91 L2025.92 1518.55 L2017.61 1520.21 L2017.61 1515.95 L2025.88 1514.29 L2030.55 1514.29 L2030.55 1544.91 L2038.19 1544.91 L2038.19 1548.85 L2018.28 1548.85 L2018.28 1544.91 Z" fill="#000000" fill-rule="nonzero" fill-opacity="1" /><path clip-path="url(#clip690)" d="M2051.66 1544.91 L2067.98 1544.91 L2067.98 1548.85 L2046.04 1548.85 L2046.04 1544.91 Q2048.7 1542.16 2053.28 1537.53 Q2057.89 1532.88 2059.07 1531.53 Q2061.32 1529.01 2062.2 1527.27 Q2063.1 1525.51 2063.1 1523.82 Q2063.1 1521.07 2061.15 1519.33 Q2059.23 1517.6 2056.13 1517.6 Q2053.93 1517.6 2051.48 1518.36 Q2049.05 1519.13 2046.27 1520.68 L2046.27 1515.95 Q2049.09 1514.82 2051.55 1514.24 Q2054 1513.66 2056.04 1513.66 Q2061.41 1513.66 2064.6 1516.35 Q2067.8 1519.03 2067.8 1523.52 Q2067.8 1525.65 2066.99 1527.57 Q2066.2 1529.47 2064.09 1532.07 Q2063.52 1532.74 2060.41 1535.95 Q2057.31 1539.15 2051.66 1544.91 Z" fill="#000000" fill-rule="nonzero" fill-opacity="1" /><path clip-path="url(#clip690)" d="M2087.8 1517.37 Q2084.19 1517.37 2082.36 1520.93 Q2080.55 1524.47 2080.55 1531.6 Q2080.55 1538.71 2082.36 1542.27 Q2084.19 1545.82 2087.8 1545.82 Q2091.43 1545.82 2093.24 1542.27 Q2095.07 1538.71 2095.07 1531.6 Q2095.07 1524.47 2093.24 1520.93 Q2091.43 1517.37 2087.8 1517.37 M2087.8 1513.66 Q2093.61 1513.66 2096.66 1518.27 Q2099.74 1522.85 2099.74 1531.6 Q2099.74 1540.33 2096.66 1544.94 Q2093.61 1549.52 2087.8 1549.52 Q2081.99 1549.52 2078.91 1544.94 Q2075.85 1540.33 2075.85 1531.6 Q2075.85 1522.85 2078.91 1518.27 Q2081.99 1513.66 2087.8 1513.66 Z" fill="#000000" fill-rule="nonzero" fill-opacity="1" /><polyline clip-path="url(#clip692)" style="stroke:#000000; stroke-linecap:round; stroke-linejoin:round; stroke-width:2; stroke-opacity:0.1; fill:none" points="156.598,1326.42 2352.76,1326.42 "/>
<polyline clip-path="url(#clip692)" style="stroke:#000000; stroke-linecap:round; stroke-linejoin:round; stroke-width:2; stroke-opacity:0.1; fill:none" points="156.598,1129.45 2352.76,1129.45 "/>
<polyline clip-path="url(#clip692)" style="stroke:#000000; stroke-linecap:round; stroke-linejoin:round; stroke-width:2; stroke-opacity:0.1; fill:none" points="156.598,932.473 2352.76,932.473 "/>
<polyline clip-path="url(#clip692)" style="stroke:#000000; stroke-linecap:round; stroke-linejoin:round; stroke-width:2; stroke-opacity:0.1; fill:none" points="156.598,735.498 2352.76,735.498 "/>
<polyline clip-path="url(#clip692)" style="stroke:#000000; stroke-linecap:round; stroke-linejoin:round; stroke-width:2; stroke-opacity:0.1; fill:none" points="156.598,538.523 2352.76,538.523 "/>
<polyline clip-path="url(#clip692)" style="stroke:#000000; stroke-linecap:round; stroke-linejoin:round; stroke-width:2; stroke-opacity:0.1; fill:none" points="156.598,341.548 2352.76,341.548 "/>
<polyline clip-path="url(#clip692)" style="stroke:#000000; stroke-linecap:round; stroke-linejoin:round; stroke-width:2; stroke-opacity:0.1; fill:none" points="156.598,144.573 2352.76,144.573 "/>
<polyline clip-path="url(#clip690)" style="stroke:#000000; stroke-linecap:round; stroke-linejoin:round; stroke-width:4; stroke-opacity:1; fill:none" points="156.598,1486.45 156.598,47.2441 "/>
<polyline clip-path="url(#clip690)" style="stroke:#000000; stroke-linecap:round; stroke-linejoin:round; stroke-width:4; stroke-opacity:1; fill:none" points="156.598,1326.42 175.496,1326.42 "/>
<polyline clip-path="url(#clip690)" style="stroke:#000000; stroke-linecap:round; stroke-linejoin:round; stroke-width:4; stroke-opacity:1; fill:none" points="156.598,1129.45 175.496,1129.45 "/>
<polyline clip-path="url(#clip690)" style="stroke:#000000; stroke-linecap:round; stroke-linejoin:round; stroke-width:4; stroke-opacity:1; fill:none" points="156.598,932.473 175.496,932.473 "/>
<polyline clip-path="url(#clip690)" style="stroke:#000000; stroke-linecap:round; stroke-linejoin:round; stroke-width:4; stroke-opacity:1; fill:none" points="156.598,735.498 175.496,735.498 "/>
<polyline clip-path="url(#clip690)" style="stroke:#000000; stroke-linecap:round; stroke-linejoin:round; stroke-width:4; stroke-opacity:1; fill:none" points="156.598,538.523 175.496,538.523 "/>
<polyline clip-path="url(#clip690)" style="stroke:#000000; stroke-linecap:round; stroke-linejoin:round; stroke-width:4; stroke-opacity:1; fill:none" points="156.598,341.548 175.496,341.548 "/>
<polyline clip-path="url(#clip690)" style="stroke:#000000; stroke-linecap:round; stroke-linejoin:round; stroke-width:4; stroke-opacity:1; fill:none" points="156.598,144.573 175.496,144.573 "/>
<path clip-path="url(#clip690)" d="M64.6495 1312.22 Q61.0384 1312.22 59.2097 1315.79 Q57.4041 1319.33 57.4041 1326.46 Q57.4041 1333.56 59.2097 1337.13 Q61.0384 1340.67 64.6495 1340.67 Q68.2837 1340.67 70.0892 1337.13 Q71.9179 1333.56 71.9179 1326.46 Q71.9179 1319.33 70.0892 1315.79 Q68.2837 1312.22 64.6495 1312.22 M64.6495 1308.52 Q70.4596 1308.52 73.5152 1313.12 Q76.5938 1317.71 76.5938 1326.46 Q76.5938 1335.18 73.5152 1339.79 Q70.4596 1344.37 64.6495 1344.37 Q58.8393 1344.37 55.7606 1339.79 Q52.7051 1335.18 52.7051 1326.46 Q52.7051 1317.71 55.7606 1313.12 Q58.8393 1308.52 64.6495 1308.52 Z" fill="#000000" fill-rule="nonzero" fill-opacity="1" /><path clip-path="url(#clip690)" d="M84.8114 1337.82 L89.6956 1337.82 L89.6956 1343.7 L84.8114 1343.7 L84.8114 1337.82 Z" fill="#000000" fill-rule="nonzero" fill-opacity="1" /><path clip-path="url(#clip690)" d="M100.691 1339.77 L108.33 1339.77 L108.33 1313.4 L100.02 1315.07 L100.02 1310.81 L108.283 1309.14 L112.959 1309.14 L112.959 1339.77 L120.598 1339.77 L120.598 1343.7 L100.691 1343.7 L100.691 1339.77 Z" fill="#000000" fill-rule="nonzero" fill-opacity="1" /><path clip-path="url(#clip690)" d="M65.0198 1115.25 Q61.4087 1115.25 59.58 1118.81 Q57.7745 1122.35 57.7745 1129.48 Q57.7745 1136.59 59.58 1140.15 Q61.4087 1143.7 65.0198 1143.7 Q68.6541 1143.7 70.4596 1140.15 Q72.2883 1136.59 72.2883 1129.48 Q72.2883 1122.35 70.4596 1118.81 Q68.6541 1115.25 65.0198 1115.25 M65.0198 1111.54 Q70.83 1111.54 73.8855 1116.15 Q76.9642 1120.73 76.9642 1129.48 Q76.9642 1138.21 73.8855 1142.82 Q70.83 1147.4 65.0198 1147.4 Q59.2097 1147.4 56.131 1142.82 Q53.0754 1138.21 53.0754 1129.48 Q53.0754 1120.73 56.131 1116.15 Q59.2097 1111.54 65.0198 1111.54 Z" fill="#000000" fill-rule="nonzero" fill-opacity="1" /><path clip-path="url(#clip690)" d="M85.1818 1140.85 L90.066 1140.85 L90.066 1146.73 L85.1818 1146.73 L85.1818 1140.85 Z" fill="#000000" fill-rule="nonzero" fill-opacity="1" /><path clip-path="url(#clip690)" d="M104.279 1142.79 L120.598 1142.79 L120.598 1146.73 L98.6539 1146.73 L98.6539 1142.79 Q101.316 1140.04 105.899 1135.41 Q110.506 1130.76 111.686 1129.41 Q113.932 1126.89 114.811 1125.15 Q115.714 1123.39 115.714 1121.7 Q115.714 1118.95 113.77 1117.21 Q111.848 1115.48 108.746 1115.48 Q106.547 1115.48 104.094 1116.24 Q101.663 1117.01 98.8854 1118.56 L98.8854 1113.83 Q101.709 1112.7 104.163 1112.12 Q106.617 1111.54 108.654 1111.54 Q114.024 1111.54 117.219 1114.23 Q120.413 1116.91 120.413 1121.4 Q120.413 1123.53 119.603 1125.45 Q118.816 1127.35 116.709 1129.95 Q116.131 1130.62 113.029 1133.83 Q109.927 1137.03 104.279 1142.79 Z" fill="#000000" fill-rule="nonzero" fill-opacity="1" /><path clip-path="url(#clip690)" d="M64.0708 918.271 Q60.4597 918.271 58.631 921.836 Q56.8254 925.378 56.8254 932.508 Q56.8254 939.614 58.631 943.179 Q60.4597 946.72 64.0708 946.72 Q67.705 946.72 69.5105 943.179 Q71.3392 939.614 71.3392 932.508 Q71.3392 925.378 69.5105 921.836 Q67.705 918.271 64.0708 918.271 M64.0708 914.568 Q69.8809 914.568 72.9365 919.174 Q76.0151 923.758 76.0151 932.508 Q76.0151 941.234 72.9365 945.841 Q69.8809 950.424 64.0708 950.424 Q58.2606 950.424 55.1819 945.841 Q52.1264 941.234 52.1264 932.508 Q52.1264 923.758 55.1819 919.174 Q58.2606 914.568 64.0708 914.568 Z" fill="#000000" fill-rule="nonzero" fill-opacity="1" /><path clip-path="url(#clip690)" d="M84.2327 943.873 L89.1169 943.873 L89.1169 949.753 L84.2327 949.753 L84.2327 943.873 Z" fill="#000000" fill-rule="nonzero" fill-opacity="1" /><path clip-path="url(#clip690)" d="M113.469 931.119 Q116.825 931.836 118.7 934.105 Q120.598 936.373 120.598 939.707 Q120.598 944.822 117.08 947.623 Q113.561 950.424 107.08 950.424 Q104.904 950.424 102.589 949.984 Q100.297 949.568 97.8437 948.711 L97.8437 944.197 Q99.7882 945.332 102.103 945.91 Q104.418 946.489 106.941 946.489 Q111.339 946.489 113.631 944.753 Q115.945 943.017 115.945 939.707 Q115.945 936.651 113.793 934.938 Q111.663 933.202 107.844 933.202 L103.816 933.202 L103.816 929.359 L108.029 929.359 Q111.478 929.359 113.307 927.994 Q115.135 926.605 115.135 924.012 Q115.135 921.35 113.237 919.938 Q111.362 918.503 107.844 918.503 Q105.922 918.503 103.723 918.92 Q101.524 919.336 98.8854 920.216 L98.8854 916.049 Q101.547 915.309 103.862 914.938 Q106.2 914.568 108.26 914.568 Q113.584 914.568 116.686 916.998 Q119.788 919.406 119.788 923.526 Q119.788 926.396 118.145 928.387 Q116.501 930.355 113.469 931.119 Z" fill="#000000" fill-rule="nonzero" fill-opacity="1" /><path clip-path="url(#clip690)" d="M62.9365 721.296 Q59.3254 721.296 57.4967 724.861 Q55.6912 728.403 55.6912 735.532 Q55.6912 742.639 57.4967 746.204 Q59.3254 749.745 62.9365 749.745 Q66.5707 749.745 68.3763 746.204 Q70.205 742.639 70.205 735.532 Q70.205 728.403 68.3763 724.861 Q66.5707 721.296 62.9365 721.296 M62.9365 717.593 Q68.7467 717.593 71.8022 722.199 Q74.8809 726.782 74.8809 735.532 Q74.8809 744.259 71.8022 748.866 Q68.7467 753.449 62.9365 753.449 Q57.1264 753.449 54.0477 748.866 Q50.9921 744.259 50.9921 735.532 Q50.9921 726.782 54.0477 722.199 Q57.1264 717.593 62.9365 717.593 Z" fill="#000000" fill-rule="nonzero" fill-opacity="1" /><path clip-path="url(#clip690)" d="M83.0984 746.898 L87.9827 746.898 L87.9827 752.778 L83.0984 752.778 L83.0984 746.898 Z" fill="#000000" fill-rule="nonzero" fill-opacity="1" /><path clip-path="url(#clip690)" d="M111.015 722.292 L99.2095 740.741 L111.015 740.741 L111.015 722.292 M109.788 718.218 L115.668 718.218 L115.668 740.741 L120.598 740.741 L120.598 744.63 L115.668 744.63 L115.668 752.778 L111.015 752.778 L111.015 744.63 L95.4132 744.63 L95.4132 740.116 L109.788 718.218 Z" fill="#000000" fill-rule="nonzero" fill-opacity="1" /><path clip-path="url(#clip690)" d="M64.418 524.321 Q60.8069 524.321 58.9782 527.886 Q57.1726 531.428 57.1726 538.557 Q57.1726 545.664 58.9782 549.229 Q60.8069 552.77 64.418 552.77 Q68.0522 552.77 69.8578 549.229 Q71.6865 545.664 71.6865 538.557 Q71.6865 531.428 69.8578 527.886 Q68.0522 524.321 64.418 524.321 M64.418 520.618 Q70.2281 520.618 73.2837 525.224 Q76.3624 529.807 76.3624 538.557 Q76.3624 547.284 73.2837 551.891 Q70.2281 556.474 64.418 556.474 Q58.6078 556.474 55.5291 551.891 Q52.4736 547.284 52.4736 538.557 Q52.4736 529.807 55.5291 525.224 Q58.6078 520.618 64.418 520.618 Z" fill="#000000" fill-rule="nonzero" fill-opacity="1" /><path clip-path="url(#clip690)" d="M84.5799 549.923 L89.4641 549.923 L89.4641 555.803 L84.5799 555.803 L84.5799 549.923 Z" fill="#000000" fill-rule="nonzero" fill-opacity="1" /><path clip-path="url(#clip690)" d="M99.6956 521.243 L118.052 521.243 L118.052 525.178 L103.978 525.178 L103.978 533.65 Q104.996 533.303 106.015 533.141 Q107.033 532.956 108.052 532.956 Q113.839 532.956 117.219 536.127 Q120.598 539.298 120.598 544.715 Q120.598 550.293 117.126 553.395 Q113.654 556.474 107.334 556.474 Q105.159 556.474 102.89 556.104 Q100.645 555.733 98.2372 554.992 L98.2372 550.293 Q100.321 551.428 102.543 551.983 Q104.765 552.539 107.242 552.539 Q111.246 552.539 113.584 550.432 Q115.922 548.326 115.922 544.715 Q115.922 541.104 113.584 538.997 Q111.246 536.891 107.242 536.891 Q105.367 536.891 103.492 537.307 Q101.64 537.724 99.6956 538.604 L99.6956 521.243 Z" fill="#000000" fill-rule="nonzero" fill-opacity="1" /><path clip-path="url(#clip690)" d="M63.2606 327.346 Q59.6495 327.346 57.8208 330.911 Q56.0152 334.453 56.0152 341.582 Q56.0152 348.689 57.8208 352.254 Q59.6495 355.795 63.2606 355.795 Q66.8948 355.795 68.7004 352.254 Q70.5291 348.689 70.5291 341.582 Q70.5291 334.453 68.7004 330.911 Q66.8948 327.346 63.2606 327.346 M63.2606 323.643 Q69.0707 323.643 72.1263 328.249 Q75.205 332.832 75.205 341.582 Q75.205 350.309 72.1263 354.916 Q69.0707 359.499 63.2606 359.499 Q57.4504 359.499 54.3717 354.916 Q51.3162 350.309 51.3162 341.582 Q51.3162 332.832 54.3717 328.249 Q57.4504 323.643 63.2606 323.643 Z" fill="#000000" fill-rule="nonzero" fill-opacity="1" /><path clip-path="url(#clip690)" d="M83.4225 352.948 L88.3067 352.948 L88.3067 358.828 L83.4225 358.828 L83.4225 352.948 Z" fill="#000000" fill-rule="nonzero" fill-opacity="1" /><path clip-path="url(#clip690)" d="M109.071 339.684 Q105.922 339.684 104.071 341.837 Q102.242 343.99 102.242 347.74 Q102.242 351.467 104.071 353.642 Q105.922 355.795 109.071 355.795 Q112.219 355.795 114.047 353.642 Q115.899 351.467 115.899 347.74 Q115.899 343.99 114.047 341.837 Q112.219 339.684 109.071 339.684 M118.353 325.032 L118.353 329.291 Q116.594 328.457 114.788 328.018 Q113.006 327.578 111.246 327.578 Q106.617 327.578 104.163 330.703 Q101.733 333.828 101.385 340.147 Q102.751 338.133 104.811 337.068 Q106.871 335.981 109.348 335.981 Q114.557 335.981 117.566 339.152 Q120.598 342.3 120.598 347.74 Q120.598 353.064 117.45 356.281 Q114.302 359.499 109.071 359.499 Q103.075 359.499 99.9039 354.916 Q96.7326 350.309 96.7326 341.582 Q96.7326 333.388 100.621 328.527 Q104.51 323.643 111.061 323.643 Q112.82 323.643 114.603 323.99 Q116.408 324.337 118.353 325.032 Z" fill="#000000" fill-rule="nonzero" fill-opacity="1" /><path clip-path="url(#clip690)" d="M64.3254 130.371 Q60.7143 130.371 58.8856 133.936 Q57.0801 137.478 57.0801 144.607 Q57.0801 151.714 58.8856 155.279 Q60.7143 158.82 64.3254 158.82 Q67.9596 158.82 69.7652 155.279 Q71.5939 151.714 71.5939 144.607 Q71.5939 137.478 69.7652 133.936 Q67.9596 130.371 64.3254 130.371 M64.3254 126.668 Q70.1355 126.668 73.1911 131.274 Q76.2698 135.857 76.2698 144.607 Q76.2698 153.334 73.1911 157.941 Q70.1355 162.524 64.3254 162.524 Q58.5152 162.524 55.4365 157.941 Q52.381 153.334 52.381 144.607 Q52.381 135.857 55.4365 131.274 Q58.5152 126.668 64.3254 126.668 Z" fill="#000000" fill-rule="nonzero" fill-opacity="1" /><path clip-path="url(#clip690)" d="M84.4873 155.973 L89.3715 155.973 L89.3715 161.853 L84.4873 161.853 L84.4873 155.973 Z" fill="#000000" fill-rule="nonzero" fill-opacity="1" /><path clip-path="url(#clip690)" d="M98.3761 127.293 L120.598 127.293 L120.598 129.283 L108.052 161.853 L103.168 161.853 L114.973 131.228 L98.3761 131.228 L98.3761 127.293 Z" fill="#000000" fill-rule="nonzero" fill-opacity="1" /><polyline clip-path="url(#clip692)" style="stroke:#009af9; stroke-linecap:round; stroke-linejoin:round; stroke-width:4; stroke-opacity:1; fill:none" points="218.754,1445.72 234.215,1445.46 249.677,1444.68 265.138,1443.38 280.6,1441.55 296.061,1439.19 311.523,1436.27 326.984,1432.79 342.446,1428.73 357.908,1424.06 373.369,1418.77 388.831,1412.83 404.292,1406.22 419.754,1398.91 435.215,1390.86 450.677,1382.05 466.138,1372.45 481.6,1362.01 497.061,1350.71 512.523,1338.51 527.985,1325.37 543.446,1311.25 558.908,1296.14 574.369,1279.98 589.831,1262.76 605.292,1244.43 620.754,1224.98 636.215,1204.38 651.677,1182.62 667.138,1159.68 682.6,1135.55 698.061,1110.23 713.523,1083.72 728.985,1056.04 744.446,1027.2 759.908,997.244 775.369,966.199 790.831,934.116 806.292,901.052 821.754,867.077 837.215,832.268 852.677,796.717 868.138,760.525 883.6,723.804 899.062,686.675 914.523,649.273 929.985,611.738 945.446,574.222 960.908,536.885 976.369,499.893 991.831,463.418 1007.29,427.638 1022.75,392.732 1038.22,358.884 1053.68,326.275 1069.14,295.087 1084.6,265.498 1100.06,237.679 1115.52,211.797 1130.98,188.01 1146.45,166.465 1161.91,147.297 1177.37,130.63 1192.83,116.57 1208.29,105.208 1223.75,96.6211 1239.22,90.8643 1254.68,87.9763 1270.14,87.9763 1285.6,90.8643 1301.06,96.6211 1316.52,105.208 1331.98,116.57 1347.45,130.63 1362.91,147.297 1378.37,166.465 1393.83,188.01 1409.29,211.797 1424.75,237.679 1440.22,265.498 1455.68,295.087 1471.14,326.275 1486.6,358.884 1502.06,392.732 1517.52,427.638 1532.98,463.418 1548.45,499.893 1563.91,536.885 1579.37,574.222 1594.83,611.738 1610.29,649.273 1625.75,686.675 1641.22,723.804 1656.68,760.525 1672.14,796.717 1687.6,832.268 1703.06,867.077 1718.52,901.052 1733.98,934.116 1749.45,966.199 1764.91,997.244 1780.37,1027.2 1795.83,1056.04 1811.29,1083.72 1826.75,1110.23 1842.22,1135.55 1857.68,1159.68 1873.14,1182.62 1888.6,1204.38 1904.06,1224.98 1919.52,1244.43 1934.98,1262.76 1950.45,1279.98 1965.91,1296.14 1981.37,1311.25 1996.83,1325.37 2012.29,1338.51 2027.75,1350.71 2043.22,1362.01 2058.68,1372.45 2074.14,1382.05 2089.6,1390.86 2105.06,1398.91 2120.52,1406.22 2135.99,1412.83 2151.45,1418.77 2166.91,1424.06 2182.37,1428.73 2197.83,1432.79 2213.29,1436.27 2228.75,1439.19 2244.22,1441.55 2259.68,1443.38 2275.14,1444.68 2290.6,1445.46 "/>
</svg>
